solid OpenSCAD_Model
  facet normal 0 0 -1
    outer loop
      vertex -14.5 0 0
      vertex -14.4302 0.881165 0
      vertex -14.2214 1.75385 0
    endloop
  endfacet
  facet normal 0 0 -1
    outer loop
      vertex -13.3962 3.44032 0
      vertex -14.5 0 0
      vertex -13.8756 2.60966 0
    endloop
  endfacet
  facet normal 0 0 -1
    outer loop
      vertex -13.8756 2.60966 0
      vertex -14.5 0 0
      vertex -14.2214 1.75385 0
    endloop
  endfacet
  facet normal 0 0 -1
    outer loop
      vertex -12.7879 4.23786 0
      vertex -14.5 0 0
      vertex -13.3962 3.44032 0
    endloop
  endfacet
  facet normal 0 0 -1
    outer loop
      vertex -12.0563 4.99457 0
      vertex -14.5 0 0
      vertex -12.7879 4.23786 0
    endloop
  endfacet
  facet normal 0 0 -1
    outer loop
      vertex -11.2086 5.70319 0
      vertex -14.5 0 0
      vertex -12.0563 4.99457 0
    endloop
  endfacet
  facet normal 0 0 -1
    outer loop
      vertex -10.253 6.35688 0
      vertex -14.5 0 0
      vertex -11.2086 5.70319 0
    endloop
  endfacet
  facet normal 0 0 -1
    outer loop
      vertex -9.1987 6.94936 0
      vertex -14.5 0 0
      vertex -10.253 6.35688 0
    endloop
  endfacet
  facet normal 0 0 -1
    outer loop
      vertex -8.05576 7.47491 0
      vertex -14.5 0 0
      vertex -9.1987 6.94936 0
    endloop
  endfacet
  facet normal 0 0 -1
    outer loop
      vertex -6.83525 7.92847 0
      vertex -14.5 0 0
      vertex -8.05576 7.47491 0
    endloop
  endfacet
  facet normal 0 0 -1
    outer loop
      vertex -5.5489 8.30567 0
      vertex -14.5 0 0
      vertex -6.83525 7.92847 0
    endloop
  endfacet
  facet normal 0 0 -1
    outer loop
      vertex -4.20912 8.60289 0
      vertex -14.5 0 0
      vertex -5.5489 8.30567 0
    endloop
  endfacet
  facet normal 0 0 -1
    outer loop
      vertex -2.8288 8.81725 0
      vertex -14.5 0 0
      vertex -4.20912 8.60289 0
    endloop
  endfacet
  facet normal 0 0 -1
    outer loop
      vertex -1.42123 8.94671 0
      vertex -14.5 0 0
      vertex -2.8288 8.81725 0
    endloop
  endfacet
  facet normal 0 0 -1
    outer loop
      vertex 0 8.99 0
      vertex -14.5 0 0
      vertex -1.42123 8.94671 0
    endloop
  endfacet
  facet normal -0 -0 -1
    outer loop
      vertex 1.42123 8.94671 0
      vertex 14.5 0 0
      vertex 0 8.99 0
    endloop
  endfacet
  facet normal 0 0 -1
    outer loop
      vertex 14.5 0 0
      vertex 4.20912 8.60289 0
      vertex 5.5489 8.30567 0
    endloop
  endfacet
  facet normal 0 0 -1
    outer loop
      vertex 14.5 0 0
      vertex 9.1987 6.94936 0
      vertex 10.253 6.35688 0
    endloop
  endfacet
  facet normal -0 -0 -1
    outer loop
      vertex 12.0563 4.99457 0
      vertex 14.5 0 0
      vertex 11.2086 5.70319 0
    endloop
  endfacet
  facet normal -0 -0 -1
    outer loop
      vertex 14.2214 1.75385 0
      vertex 14.5 0 0
      vertex 13.8756 2.60966 0
    endloop
  endfacet
  facet normal -0 -0 -1
    outer loop
      vertex 14.4302 0.881165 0
      vertex 14.5 0 0
      vertex 14.2214 1.75385 0
    endloop
  endfacet
  facet normal 0 0 -1
    outer loop
      vertex 14.5 0 0
      vertex 13.3962 3.44032 0
      vertex 13.8756 2.60966 0
    endloop
  endfacet
  facet normal 0 0 -1
    outer loop
      vertex 12.7879 4.23786 0
      vertex 13.3962 3.44032 0
      vertex 14.5 0 0
    endloop
  endfacet
  facet normal -0 -0 -1
    outer loop
      vertex 12.7879 4.23786 0
      vertex 14.5 0 0
      vertex 12.0563 4.99457 0
    endloop
  endfacet
  facet normal 0 0 -1
    outer loop
      vertex 14.5 0 0
      vertex 10.253 6.35688 0
      vertex 11.2086 5.70319 0
    endloop
  endfacet
  facet normal 0 0 -1
    outer loop
      vertex 8.05576 7.47491 0
      vertex 9.1987 6.94936 0
      vertex 14.5 0 0
    endloop
  endfacet
  facet normal -0 -0 -1
    outer loop
      vertex 8.05576 7.47491 0
      vertex 14.5 0 0
      vertex 6.83525 7.92847 0
    endloop
  endfacet
  facet normal 0 0 -1
    outer loop
      vertex 14.5 0 0
      vertex 5.5489 8.30567 0
      vertex 6.83525 7.92847 0
    endloop
  endfacet
  facet normal 0 0 -1
    outer loop
      vertex 2.8288 8.81725 0
      vertex 4.20912 8.60289 0
      vertex 14.5 0 0
    endloop
  endfacet
  facet normal -0 -0 -1
    outer loop
      vertex 2.8288 8.81725 0
      vertex 14.5 0 0
      vertex 1.42123 8.94671 0
    endloop
  endfacet
  facet normal 0 0 -1
    outer loop
      vertex 14.5 0 0
      vertex -14.5 0 0
      vertex 0 8.99 0
    endloop
  endfacet
  facet normal 0 0 1
    outer loop
      vertex -14.2214 1.75385 1.4
      vertex -14.4302 0.881165 1.4
      vertex -14.5 0 1.4
    endloop
  endfacet
  facet normal -0 0 1
    outer loop
      vertex -13.8756 2.60966 1.4
      vertex -14.5 0 1.4
      vertex -13.3962 3.44032 1.4
    endloop
  endfacet
  facet normal -0 0 1
    outer loop
      vertex -14.2214 1.75385 1.4
      vertex -14.5 0 1.4
      vertex -13.8756 2.60966 1.4
    endloop
  endfacet
  facet normal -0 0 1
    outer loop
      vertex -13.3962 3.44032 1.4
      vertex -14.5 0 1.4
      vertex -12.7879 4.23786 1.4
    endloop
  endfacet
  facet normal -0 0 1
    outer loop
      vertex -12.7879 4.23786 1.4
      vertex -14.5 0 1.4
      vertex -12.0563 4.99457 1.4
    endloop
  endfacet
  facet normal -0 0 1
    outer loop
      vertex -12.0563 4.99457 1.4
      vertex -14.5 0 1.4
      vertex -11.2086 5.70319 1.4
    endloop
  endfacet
  facet normal -0 0 1
    outer loop
      vertex -11.2086 5.70319 1.4
      vertex -14.5 0 1.4
      vertex -10.253 6.35688 1.4
    endloop
  endfacet
  facet normal -0 0 1
    outer loop
      vertex -10.253 6.35688 1.4
      vertex -14.5 0 1.4
      vertex -9.1987 6.94936 1.4
    endloop
  endfacet
  facet normal -0 0 1
    outer loop
      vertex -9.1987 6.94936 1.4
      vertex -14.5 0 1.4
      vertex -8.05576 7.47491 1.4
    endloop
  endfacet
  facet normal -0 0 1
    outer loop
      vertex -8.05576 7.47491 1.4
      vertex -14.5 0 1.4
      vertex -6.83525 7.92847 1.4
    endloop
  endfacet
  facet normal -0 0 1
    outer loop
      vertex -6.83525 7.92847 1.4
      vertex -14.5 0 1.4
      vertex -5.5489 8.30567 1.4
    endloop
  endfacet
  facet normal -0 0 1
    outer loop
      vertex -5.5489 8.30567 1.4
      vertex -14.5 0 1.4
      vertex -4.20912 8.60289 1.4
    endloop
  endfacet
  facet normal -0 0 1
    outer loop
      vertex -4.20912 8.60289 1.4
      vertex -14.5 0 1.4
      vertex -2.8288 8.81725 1.4
    endloop
  endfacet
  facet normal -0 0 1
    outer loop
      vertex -2.8288 8.81725 1.4
      vertex -14.5 0 1.4
      vertex -1.42123 8.94671 1.4
    endloop
  endfacet
  facet normal -0 0 1
    outer loop
      vertex -1.42123 8.94671 1.4
      vertex -14.5 0 1.4
      vertex 0 8.99 1.4
    endloop
  endfacet
  facet normal 0 0 1
    outer loop
      vertex 0 8.99 1.4
      vertex 14.5 0 1.4
      vertex 1.42123 8.94671 1.4
    endloop
  endfacet
  facet normal 0 0 1
    outer loop
      vertex 5.5489 8.30567 1.4
      vertex 4.20912 8.60289 1.4
      vertex 14.5 0 1.4
    endloop
  endfacet
  facet normal 0 0 1
    outer loop
      vertex 10.253 6.35688 1.4
      vertex 9.1987 6.94936 1.4
      vertex 14.5 0 1.4
    endloop
  endfacet
  facet normal 0 0 1
    outer loop
      vertex 11.2086 5.70319 1.4
      vertex 14.5 0 1.4
      vertex 12.0563 4.99457 1.4
    endloop
  endfacet
  facet normal 0 0 1
    outer loop
      vertex 13.8756 2.60966 1.4
      vertex 14.5 0 1.4
      vertex 14.2214 1.75385 1.4
    endloop
  endfacet
  facet normal 0 0 1
    outer loop
      vertex 14.2214 1.75385 1.4
      vertex 14.5 0 1.4
      vertex 14.4302 0.881165 1.4
    endloop
  endfacet
  facet normal 0 0 1
    outer loop
      vertex 13.8756 2.60966 1.4
      vertex 13.3962 3.44032 1.4
      vertex 14.5 0 1.4
    endloop
  endfacet
  facet normal 0 0 1
    outer loop
      vertex 14.5 0 1.4
      vertex 13.3962 3.44032 1.4
      vertex 12.7879 4.23786 1.4
    endloop
  endfacet
  facet normal 0 0 1
    outer loop
      vertex 12.0563 4.99457 1.4
      vertex 14.5 0 1.4
      vertex 12.7879 4.23786 1.4
    endloop
  endfacet
  facet normal 0 0 1
    outer loop
      vertex 11.2086 5.70319 1.4
      vertex 10.253 6.35688 1.4
      vertex 14.5 0 1.4
    endloop
  endfacet
  facet normal 0 0 1
    outer loop
      vertex 14.5 0 1.4
      vertex 9.1987 6.94936 1.4
      vertex 8.05576 7.47491 1.4
    endloop
  endfacet
  facet normal 0 0 1
    outer loop
      vertex 6.83525 7.92847 1.4
      vertex 14.5 0 1.4
      vertex 8.05576 7.47491 1.4
    endloop
  endfacet
  facet normal 0 0 1
    outer loop
      vertex 6.83525 7.92847 1.4
      vertex 5.5489 8.30567 1.4
      vertex 14.5 0 1.4
    endloop
  endfacet
  facet normal 0 0 1
    outer loop
      vertex 14.5 0 1.4
      vertex 4.20912 8.60289 1.4
      vertex 2.8288 8.81725 1.4
    endloop
  endfacet
  facet normal 0 0 1
    outer loop
      vertex 1.42123 8.94671 1.4
      vertex 14.5 0 1.4
      vertex 2.8288 8.81725 1.4
    endloop
  endfacet
  facet normal 0 0 1
    outer loop
      vertex 0 8.99 1.4
      vertex -14.5 0 1.4
      vertex 14.5 0 1.4
    endloop
  endfacet
  facet normal -0.97255 0.232694 0
    outer loop
      vertex -14.4302 0.881165 0
      vertex -14.4302 0.881165 1.4
      vertex -14.2214 1.75385 0
    endloop
  endfacet
  facet normal -0.97255 0.232694 0
    outer loop
      vertex -14.4302 0.881165 1.4
      vertex -14.2214 1.75385 1.4
      vertex -14.2214 1.75385 0
    endloop
  endfacet
  facet normal -0.927172 0.374635 0
    outer loop
      vertex -14.2214 1.75385 0
      vertex -14.2214 1.75385 1.4
      vertex -13.8756 2.60966 0
    endloop
  endfacet
  facet normal -0.927172 0.374635 0
    outer loop
      vertex -14.2214 1.75385 1.4
      vertex -13.8756 2.60966 1.4
      vertex -13.8756 2.60966 0
    endloop
  endfacet
  facet normal -0.866107 0.499858 0
    outer loop
      vertex -13.8756 2.60966 0
      vertex -13.8756 2.60966 1.4
      vertex -13.3962 3.44032 0
    endloop
  endfacet
  facet normal -0.866107 0.499858 0
    outer loop
      vertex -13.8756 2.60966 1.4
      vertex -13.3962 3.44032 1.4
      vertex -13.3962 3.44032 0
    endloop
  endfacet
  facet normal -0.795119 0.606453 0
    outer loop
      vertex -13.3962 3.44032 0
      vertex -13.3962 3.44032 1.4
      vertex -12.7879 4.23786 0
    endloop
  endfacet
  facet normal -0.795119 0.606453 0
    outer loop
      vertex -13.3962 3.44032 1.4
      vertex -12.7879 4.23786 1.4
      vertex -12.7879 4.23786 0
    endloop
  endfacet
  facet normal -0.718934 0.695078 0
    outer loop
      vertex -12.7879 4.23786 0
      vertex -12.7879 4.23786 1.4
      vertex -12.0563 4.99457 0
    endloop
  endfacet
  facet normal -0.718934 0.695078 0
    outer loop
      vertex -12.7879 4.23786 1.4
      vertex -12.0563 4.99457 1.4
      vertex -12.0563 4.99457 0
    endloop
  endfacet
  facet normal -0.641361 0.76724 0
    outer loop
      vertex -12.0563 4.99457 0
      vertex -12.0563 4.99457 1.4
      vertex -11.2086 5.70319 0
    endloop
  endfacet
  facet normal -0.641361 0.76724 0
    outer loop
      vertex -12.0563 4.99457 1.4
      vertex -11.2086 5.70319 1.4
      vertex -11.2086 5.70319 0
    endloop
  endfacet
  facet normal -0.564601 0.825364 0
    outer loop
      vertex -11.2086 5.70319 0
      vertex -11.2086 5.70319 1.4
      vertex -10.253 6.35688 0
    endloop
  endfacet
  facet normal -0.564601 0.825364 0
    outer loop
      vertex -11.2086 5.70319 1.4
      vertex -10.253 6.35688 1.4
      vertex -10.253 6.35688 0
    endloop
  endfacet
  facet normal -0.489907 0.871775 0
    outer loop
      vertex -10.253 6.35688 0
      vertex -10.253 6.35688 1.4
      vertex -9.1987 6.94936 0
    endloop
  endfacet
  facet normal -0.489907 0.871775 0
    outer loop
      vertex -10.253 6.35688 1.4
      vertex -9.1987 6.94936 1.4
      vertex -9.1987 6.94936 0
    endloop
  endfacet
  facet normal -0.417773 0.908552 0
    outer loop
      vertex -9.1987 6.94936 0
      vertex -9.1987 6.94936 1.4
      vertex -8.05576 7.47491 0
    endloop
  endfacet
  facet normal -0.417773 0.908552 0
    outer loop
      vertex -9.1987 6.94936 1.4
      vertex -8.05576 7.47491 1.4
      vertex -8.05576 7.47491 0
    endloop
  endfacet
  facet normal -0.34834 0.937368 0
    outer loop
      vertex -8.05576 7.47491 0
      vertex -8.05576 7.47491 1.4
      vertex -6.83525 7.92847 0
    endloop
  endfacet
  facet normal -0.34834 0.937368 0
    outer loop
      vertex -8.05576 7.47491 1.4
      vertex -6.83525 7.92847 1.4
      vertex -6.83525 7.92847 0
    endloop
  endfacet
  facet normal -0.281385 0.959595 0
    outer loop
      vertex -6.83525 7.92847 0
      vertex -6.83525 7.92847 1.4
      vertex -5.5489 8.30567 0
    endloop
  endfacet
  facet normal -0.281385 0.959595 0
    outer loop
      vertex -6.83525 7.92847 1.4
      vertex -5.5489 8.30567 1.4
      vertex -5.5489 8.30567 0
    endloop
  endfacet
  facet normal -0.216577 0.976266 0
    outer loop
      vertex -5.5489 8.30567 0
      vertex -5.5489 8.30567 1.4
      vertex -4.20912 8.60289 0
    endloop
  endfacet
  facet normal -0.216577 0.976266 0
    outer loop
      vertex -5.5489 8.30567 1.4
      vertex -4.20912 8.60289 1.4
      vertex -4.20912 8.60289 0
    endloop
  endfacet
  facet normal -0.153458 0.988155 0
    outer loop
      vertex -4.20912 8.60289 0
      vertex -4.20912 8.60289 1.4
      vertex -2.8288 8.81725 0
    endloop
  endfacet
  facet normal -0.153458 0.988155 0
    outer loop
      vertex -4.20912 8.60289 1.4
      vertex -2.8288 8.81725 1.4
      vertex -2.8288 8.81725 0
    endloop
  endfacet
  facet normal -0.0915875 0.995797 0
    outer loop
      vertex -2.8288 8.81725 0
      vertex -2.8288 8.81725 1.4
      vertex -1.42123 8.94671 0
    endloop
  endfacet
  facet normal -0.0915875 0.995797 0
    outer loop
      vertex -2.8288 8.81725 1.4
      vertex -1.42123 8.94671 1.4
      vertex -1.42123 8.94671 0
    endloop
  endfacet
  facet normal -0.0304454 0.999536 0
    outer loop
      vertex -1.42123 8.94671 0
      vertex -1.42123 8.94671 1.4
      vertex 0 8.99 0
    endloop
  endfacet
  facet normal -0.0304454 0.999536 0
    outer loop
      vertex -1.42123 8.94671 1.4
      vertex 0 8.99 1.4
      vertex 0 8.99 0
    endloop
  endfacet
  facet normal 0.0304454 0.999536 -0
    outer loop
      vertex 0 8.99 0
      vertex 0 8.99 1.4
      vertex 1.42123 8.94671 0
    endloop
  endfacet
  facet normal 0.0304454 0.999536 0
    outer loop
      vertex 0 8.99 1.4
      vertex 1.42123 8.94671 1.4
      vertex 1.42123 8.94671 0
    endloop
  endfacet
  facet normal 0.0915875 0.995797 -0
    outer loop
      vertex 1.42123 8.94671 0
      vertex 1.42123 8.94671 1.4
      vertex 2.8288 8.81725 0
    endloop
  endfacet
  facet normal 0.0915875 0.995797 0
    outer loop
      vertex 1.42123 8.94671 1.4
      vertex 2.8288 8.81725 1.4
      vertex 2.8288 8.81725 0
    endloop
  endfacet
  facet normal 0.153458 0.988155 -0
    outer loop
      vertex 2.8288 8.81725 0
      vertex 2.8288 8.81725 1.4
      vertex 4.20912 8.60289 0
    endloop
  endfacet
  facet normal 0.153458 0.988155 0
    outer loop
      vertex 2.8288 8.81725 1.4
      vertex 4.20912 8.60289 1.4
      vertex 4.20912 8.60289 0
    endloop
  endfacet
  facet normal 0.216577 0.976266 -0
    outer loop
      vertex 4.20912 8.60289 0
      vertex 4.20912 8.60289 1.4
      vertex 5.5489 8.30567 0
    endloop
  endfacet
  facet normal 0.216577 0.976266 0
    outer loop
      vertex 4.20912 8.60289 1.4
      vertex 5.5489 8.30567 1.4
      vertex 5.5489 8.30567 0
    endloop
  endfacet
  facet normal 0.281385 0.959595 -0
    outer loop
      vertex 5.5489 8.30567 0
      vertex 5.5489 8.30567 1.4
      vertex 6.83525 7.92847 0
    endloop
  endfacet
  facet normal 0.281385 0.959595 0
    outer loop
      vertex 5.5489 8.30567 1.4
      vertex 6.83525 7.92847 1.4
      vertex 6.83525 7.92847 0
    endloop
  endfacet
  facet normal 0.34834 0.937368 -0
    outer loop
      vertex 6.83525 7.92847 0
      vertex 6.83525 7.92847 1.4
      vertex 8.05576 7.47491 0
    endloop
  endfacet
  facet normal 0.34834 0.937368 0
    outer loop
      vertex 6.83525 7.92847 1.4
      vertex 8.05576 7.47491 1.4
      vertex 8.05576 7.47491 0
    endloop
  endfacet
  facet normal 0.417773 0.908552 -0
    outer loop
      vertex 8.05576 7.47491 0
      vertex 8.05576 7.47491 1.4
      vertex 9.1987 6.94936 0
    endloop
  endfacet
  facet normal 0.417773 0.908552 0
    outer loop
      vertex 8.05576 7.47491 1.4
      vertex 9.1987 6.94936 1.4
      vertex 9.1987 6.94936 0
    endloop
  endfacet
  facet normal 0.489907 0.871775 -0
    outer loop
      vertex 9.1987 6.94936 0
      vertex 9.1987 6.94936 1.4
      vertex 10.253 6.35688 0
    endloop
  endfacet
  facet normal 0.489907 0.871775 0
    outer loop
      vertex 9.1987 6.94936 1.4
      vertex 10.253 6.35688 1.4
      vertex 10.253 6.35688 0
    endloop
  endfacet
  facet normal 0.564601 0.825364 -0
    outer loop
      vertex 10.253 6.35688 0
      vertex 10.253 6.35688 1.4
      vertex 11.2086 5.70319 0
    endloop
  endfacet
  facet normal 0.564601 0.825364 0
    outer loop
      vertex 10.253 6.35688 1.4
      vertex 11.2086 5.70319 1.4
      vertex 11.2086 5.70319 0
    endloop
  endfacet
  facet normal 0.641361 0.76724 -0
    outer loop
      vertex 11.2086 5.70319 0
      vertex 11.2086 5.70319 1.4
      vertex 12.0563 4.99457 0
    endloop
  endfacet
  facet normal 0.641361 0.76724 0
    outer loop
      vertex 11.2086 5.70319 1.4
      vertex 12.0563 4.99457 1.4
      vertex 12.0563 4.99457 0
    endloop
  endfacet
  facet normal 0.718934 0.695078 -0
    outer loop
      vertex 12.0563 4.99457 0
      vertex 12.0563 4.99457 1.4
      vertex 12.7879 4.23786 0
    endloop
  endfacet
  facet normal 0.718934 0.695078 0
    outer loop
      vertex 12.0563 4.99457 1.4
      vertex 12.7879 4.23786 1.4
      vertex 12.7879 4.23786 0
    endloop
  endfacet
  facet normal 0.795119 0.606453 -0
    outer loop
      vertex 12.7879 4.23786 0
      vertex 12.7879 4.23786 1.4
      vertex 13.3962 3.44032 0
    endloop
  endfacet
  facet normal 0.795119 0.606453 0
    outer loop
      vertex 12.7879 4.23786 1.4
      vertex 13.3962 3.44032 1.4
      vertex 13.3962 3.44032 0
    endloop
  endfacet
  facet normal 0.866107 0.499858 -0
    outer loop
      vertex 13.3962 3.44032 0
      vertex 13.3962 3.44032 1.4
      vertex 13.8756 2.60966 0
    endloop
  endfacet
  facet normal 0.866107 0.499858 0
    outer loop
      vertex 13.3962 3.44032 1.4
      vertex 13.8756 2.60966 1.4
      vertex 13.8756 2.60966 0
    endloop
  endfacet
  facet normal 0.927172 0.374635 -0
    outer loop
      vertex 13.8756 2.60966 0
      vertex 13.8756 2.60966 1.4
      vertex 14.2214 1.75385 0
    endloop
  endfacet
  facet normal 0.927172 0.374635 0
    outer loop
      vertex 13.8756 2.60966 1.4
      vertex 14.2214 1.75385 1.4
      vertex 14.2214 1.75385 0
    endloop
  endfacet
  facet normal 0.97255 0.232694 -0
    outer loop
      vertex 14.2214 1.75385 0
      vertex 14.2214 1.75385 1.4
      vertex 14.4302 0.881165 0
    endloop
  endfacet
  facet normal 0.97255 0.232694 0
    outer loop
      vertex 14.2214 1.75385 1.4
      vertex 14.4302 0.881165 1.4
      vertex 14.4302 0.881165 0
    endloop
  endfacet
  facet normal 0.996877 0.078966 -0
    outer loop
      vertex 14.4302 0.881165 0
      vertex 14.4302 0.881165 1.4
      vertex 14.5 0 0
    endloop
  endfacet
  facet normal 0.996877 0.078966 0
    outer loop
      vertex 14.4302 0.881165 1.4
      vertex 14.5 0 1.4
      vertex 14.5 0 0
    endloop
  endfacet
  facet normal 0 -1 0
    outer loop
      vertex 14.5 0 0
      vertex 14.5 0 1.4
      vertex -14.5 0 0
    endloop
  endfacet
  facet normal -0 -1 0
    outer loop
      vertex 14.5 0 1.4
      vertex -14.5 0 1.4
      vertex -14.5 0 0
    endloop
  endfacet
  facet normal -0.996877 0.078966 0
    outer loop
      vertex -14.5 0 0
      vertex -14.5 0 1.4
      vertex -14.4302 0.881165 0
    endloop
  endfacet
  facet normal -0.996877 0.078966 0
    outer loop
      vertex -14.5 0 1.4
      vertex -14.4302 0.881165 1.4
      vertex -14.4302 0.881165 0
    endloop
  endfacet
endsolid OpenSCAD_Model
