solid OpenSCAD_Model
  facet normal -1 0 0
    outer loop
      vertex -33.7 -16.45 0
      vertex -33.7 16.45 2.4
      vertex -33.7 16.45 0
    endloop
  endfacet
  facet normal -1 -0 0
    outer loop
      vertex -33.7 16.45 2.4
      vertex -33.7 -16.45 0
      vertex -33.7 -16.45 2.4
    endloop
  endfacet
  facet normal 0 0 1
    outer loop
      vertex 33.7 16.45 2.4
      vertex 31.7 14.45 2.4
      vertex 33.7 -16.45 2.4
    endloop
  endfacet
  facet normal 0 0 1
    outer loop
      vertex 33.7 16.45 2.4
      vertex -31.7 14.45 2.4
      vertex 31.7 14.45 2.4
    endloop
  endfacet
  facet normal 0 0 1
    outer loop
      vertex -31.7 14.45 2.4
      vertex -33.7 16.45 2.4
      vertex -31.7 -14.45 2.4
    endloop
  endfacet
  facet normal -0 0 1
    outer loop
      vertex -33.7 16.45 2.4
      vertex -31.7 14.45 2.4
      vertex 33.7 16.45 2.4
    endloop
  endfacet
  facet normal -0 0 1
    outer loop
      vertex 31.7 -14.45 2.4
      vertex 33.7 -16.45 2.4
      vertex 31.7 14.45 2.4
    endloop
  endfacet
  facet normal -0 0 1
    outer loop
      vertex -31.7 -14.45 2.4
      vertex 33.7 -16.45 2.4
      vertex 31.7 -14.45 2.4
    endloop
  endfacet
  facet normal 0 0 1
    outer loop
      vertex -31.7 -14.45 2.4
      vertex -33.7 -16.45 2.4
      vertex 33.7 -16.45 2.4
    endloop
  endfacet
  facet normal 0 0 1
    outer loop
      vertex -33.7 -16.45 2.4
      vertex -31.7 -14.45 2.4
      vertex -33.7 16.45 2.4
    endloop
  endfacet
  facet normal 0 0 -1
    outer loop
      vertex -29.8 10.15 0
      vertex -31.7 10.15 0
      vertex -29.8 14.45 0
    endloop
  endfacet
  facet normal 0 0 -1
    outer loop
      vertex 33.7 -16.45 0
      vertex 31.7 -10.15 0
      vertex 33.7 16.45 0
    endloop
  endfacet
  facet normal 0 0 -1
    outer loop
      vertex 33.7 -16.45 0
      vertex 29.8 -14.45 0
      vertex 31.7 -10.15 0
    endloop
  endfacet
  facet normal 0 0 -1
    outer loop
      vertex 33.7 -16.45 0
      vertex -29.8 -14.45 0
      vertex 29.8 -14.45 0
    endloop
  endfacet
  facet normal 0 0 -1
    outer loop
      vertex -29.8 -14.45 0
      vertex -31.7 -10.15 0
      vertex -29.8 -10.15 0
    endloop
  endfacet
  facet normal -0 0 -1
    outer loop
      vertex -31.7 -10.15 0
      vertex -33.7 -16.45 0
      vertex -31.7 10.15 0
    endloop
  endfacet
  facet normal -0 0 -1
    outer loop
      vertex -29.8 -14.45 0
      vertex -33.7 -16.45 0
      vertex -31.7 -10.15 0
    endloop
  endfacet
  facet normal 0 0 -1
    outer loop
      vertex -33.7 -16.45 0
      vertex -29.8 -14.45 0
      vertex 33.7 -16.45 0
    endloop
  endfacet
  facet normal 0 0 -1
    outer loop
      vertex 31.7 10.15 0
      vertex 33.7 16.45 0
      vertex 31.7 -10.15 0
    endloop
  endfacet
  facet normal 0 0 -1
    outer loop
      vertex 29.8 14.45 0
      vertex 31.7 10.15 0
      vertex 29.8 10.15 0
    endloop
  endfacet
  facet normal 0 0 -1
    outer loop
      vertex 31.7 10.15 0
      vertex 29.8 14.45 0
      vertex 33.7 16.45 0
    endloop
  endfacet
  facet normal 0 0 -1
    outer loop
      vertex -29.8 14.45 0
      vertex 33.7 16.45 0
      vertex 29.8 14.45 0
    endloop
  endfacet
  facet normal 0 0 -1
    outer loop
      vertex -29.8 14.45 0
      vertex -33.7 16.45 0
      vertex 33.7 16.45 0
    endloop
  endfacet
  facet normal 0 0 -1
    outer loop
      vertex -31.7 10.15 0
      vertex -33.7 16.45 0
      vertex -29.8 14.45 0
    endloop
  endfacet
  facet normal 0 0 -1
    outer loop
      vertex -33.7 16.45 0
      vertex -31.7 10.15 0
      vertex -33.7 -16.45 0
    endloop
  endfacet
  facet normal -0 0 -1
    outer loop
      vertex 31.7 -10.15 0
      vertex 29.8 -14.45 0
      vertex 29.8 -10.15 0
    endloop
  endfacet
  facet normal 1 -0 0
    outer loop
      vertex 33.7 -16.45 2.4
      vertex 33.7 16.45 0
      vertex 33.7 16.45 2.4
    endloop
  endfacet
  facet normal 1 0 0
    outer loop
      vertex 33.7 16.45 0
      vertex 33.7 -16.45 2.4
      vertex 33.7 -16.45 0
    endloop
  endfacet
  facet normal 0 1 -0
    outer loop
      vertex 33.7 16.45 0
      vertex -33.7 16.45 2.4
      vertex 33.7 16.45 2.4
    endloop
  endfacet
  facet normal 0 1 0
    outer loop
      vertex -33.7 16.45 2.4
      vertex 33.7 16.45 0
      vertex -33.7 16.45 0
    endloop
  endfacet
  facet normal 0 -1 0
    outer loop
      vertex -33.7 -16.45 0
      vertex 33.7 -16.45 2.4
      vertex -33.7 -16.45 2.4
    endloop
  endfacet
  facet normal 0 -1 -0
    outer loop
      vertex 33.7 -16.45 2.4
      vertex -33.7 -16.45 0
      vertex 33.7 -16.45 0
    endloop
  endfacet
  facet normal 1 0 0
    outer loop
      vertex -31.7 14.45 2.4
      vertex -31.7 10.15 1
      vertex -31.7 14.45 1
    endloop
  endfacet
  facet normal 1 0 0
    outer loop
      vertex -31.7 10.15 1
      vertex -31.7 -10.15 1
      vertex -31.7 10.15 0
    endloop
  endfacet
  facet normal 1 0 0
    outer loop
      vertex -31.7 14.45 2.4
      vertex -31.7 -10.15 1
      vertex -31.7 10.15 1
    endloop
  endfacet
  facet normal 1 -0 0
    outer loop
      vertex -31.7 -14.45 2.4
      vertex -31.7 -10.15 1
      vertex -31.7 14.45 2.4
    endloop
  endfacet
  facet normal 1 0 0
    outer loop
      vertex -31.7 -10.15 1
      vertex -31.7 -14.45 2.4
      vertex -31.7 -14.45 1
    endloop
  endfacet
  facet normal 1 0 0
    outer loop
      vertex -31.7 10.15 0
      vertex -31.7 -10.15 1
      vertex -31.7 -10.15 0
    endloop
  endfacet
  facet normal -1 0 0
    outer loop
      vertex 31.7 10.15 0
      vertex 31.7 -10.15 0
      vertex 31.7 10.15 1
    endloop
  endfacet
  facet normal -1 0 0
    outer loop
      vertex 31.7 10.15 1
      vertex 31.7 14.45 2.4
      vertex 31.7 14.45 1
    endloop
  endfacet
  facet normal -1 0 0
    outer loop
      vertex 31.7 -10.15 1
      vertex 31.7 10.15 1
      vertex 31.7 -10.15 0
    endloop
  endfacet
  facet normal -1 0 0
    outer loop
      vertex 31.7 10.15 1
      vertex 31.7 -10.15 1
      vertex 31.7 14.45 2.4
    endloop
  endfacet
  facet normal -1 0 0
    outer loop
      vertex 31.7 -14.45 2.4
      vertex 31.7 -10.15 1
      vertex 31.7 -14.45 1
    endloop
  endfacet
  facet normal -1 0 0
    outer loop
      vertex 31.7 -10.15 1
      vertex 31.7 -14.45 2.4
      vertex 31.7 14.45 2.4
    endloop
  endfacet
  facet normal 0 -1 0
    outer loop
      vertex -29.8 14.45 0
      vertex 29.8 14.45 1
      vertex -29.8 14.45 1
    endloop
  endfacet
  facet normal 0 -1 -0
    outer loop
      vertex 29.8 14.45 1
      vertex -29.8 14.45 0
      vertex 29.8 14.45 0
    endloop
  endfacet
  facet normal 0 -1 0
    outer loop
      vertex -29.8 14.45 1
      vertex -31.7 14.45 2.4
      vertex -31.7 14.45 1
    endloop
  endfacet
  facet normal 0 -1 0
    outer loop
      vertex -31.7 14.45 2.4
      vertex -29.8 14.45 1
      vertex 31.7 14.45 2.4
    endloop
  endfacet
  facet normal 0 -1 0
    outer loop
      vertex 29.8 14.45 1
      vertex 31.7 14.45 2.4
      vertex -29.8 14.45 1
    endloop
  endfacet
  facet normal 0 -1 -0
    outer loop
      vertex 31.7 14.45 2.4
      vertex 29.8 14.45 1
      vertex 31.7 14.45 1
    endloop
  endfacet
  facet normal 0 1 -0
    outer loop
      vertex 29.8 -14.45 0
      vertex -29.8 -14.45 1
      vertex 29.8 -14.45 1
    endloop
  endfacet
  facet normal 0 1 0
    outer loop
      vertex -29.8 -14.45 1
      vertex 29.8 -14.45 0
      vertex -29.8 -14.45 0
    endloop
  endfacet
  facet normal 0 1 0
    outer loop
      vertex 29.8 -14.45 1
      vertex 31.7 -14.45 2.4
      vertex 31.7 -14.45 1
    endloop
  endfacet
  facet normal 0 1 0
    outer loop
      vertex 31.7 -14.45 2.4
      vertex 29.8 -14.45 1
      vertex -31.7 -14.45 2.4
    endloop
  endfacet
  facet normal 0 1 -0
    outer loop
      vertex -29.8 -14.45 1
      vertex -31.7 -14.45 2.4
      vertex 29.8 -14.45 1
    endloop
  endfacet
  facet normal 0 1 0
    outer loop
      vertex -31.7 -14.45 2.4
      vertex -29.8 -14.45 1
      vertex -31.7 -14.45 1
    endloop
  endfacet
  facet normal -1 0 0
    outer loop
      vertex 29.8 -14.45 0
      vertex 29.8 -10.15 1
      vertex 29.8 -10.15 0
    endloop
  endfacet
  facet normal -1 -0 0
    outer loop
      vertex 29.8 -10.15 1
      vertex 29.8 -14.45 0
      vertex 29.8 -14.45 1
    endloop
  endfacet
  facet normal -0 0 1
    outer loop
      vertex 29.8 -10.15 1
      vertex 31.7 -14.45 1
      vertex 31.7 -10.15 1
    endloop
  endfacet
  facet normal 0 0 1
    outer loop
      vertex 31.7 -14.45 1
      vertex 29.8 -10.15 1
      vertex 29.8 -14.45 1
    endloop
  endfacet
  facet normal 0 1 -0
    outer loop
      vertex 31.7 -10.15 0
      vertex 29.8 -10.15 1
      vertex 31.7 -10.15 1
    endloop
  endfacet
  facet normal 0 1 0
    outer loop
      vertex 29.8 -10.15 1
      vertex 31.7 -10.15 0
      vertex 29.8 -10.15 0
    endloop
  endfacet
  facet normal -1 0 0
    outer loop
      vertex 29.8 10.15 0
      vertex 29.8 14.45 1
      vertex 29.8 14.45 0
    endloop
  endfacet
  facet normal -1 -0 0
    outer loop
      vertex 29.8 14.45 1
      vertex 29.8 10.15 0
      vertex 29.8 10.15 1
    endloop
  endfacet
  facet normal -0 0 1
    outer loop
      vertex 29.8 14.45 1
      vertex 31.7 10.15 1
      vertex 31.7 14.45 1
    endloop
  endfacet
  facet normal 0 0 1
    outer loop
      vertex 31.7 10.15 1
      vertex 29.8 14.45 1
      vertex 29.8 10.15 1
    endloop
  endfacet
  facet normal 0 -1 0
    outer loop
      vertex 29.8 10.15 0
      vertex 31.7 10.15 1
      vertex 29.8 10.15 1
    endloop
  endfacet
  facet normal 0 -1 -0
    outer loop
      vertex 31.7 10.15 1
      vertex 29.8 10.15 0
      vertex 31.7 10.15 0
    endloop
  endfacet
  facet normal -0 0 1
    outer loop
      vertex -31.7 -10.15 1
      vertex -29.8 -14.45 1
      vertex -29.8 -10.15 1
    endloop
  endfacet
  facet normal 0 0 1
    outer loop
      vertex -29.8 -14.45 1
      vertex -31.7 -10.15 1
      vertex -31.7 -14.45 1
    endloop
  endfacet
  facet normal 1 -0 0
    outer loop
      vertex -29.8 -14.45 1
      vertex -29.8 -10.15 0
      vertex -29.8 -10.15 1
    endloop
  endfacet
  facet normal 1 0 0
    outer loop
      vertex -29.8 -10.15 0
      vertex -29.8 -14.45 1
      vertex -29.8 -14.45 0
    endloop
  endfacet
  facet normal 0 1 -0
    outer loop
      vertex -29.8 -10.15 0
      vertex -31.7 -10.15 1
      vertex -29.8 -10.15 1
    endloop
  endfacet
  facet normal 0 1 0
    outer loop
      vertex -31.7 -10.15 1
      vertex -29.8 -10.15 0
      vertex -31.7 -10.15 0
    endloop
  endfacet
  facet normal -0 0 1
    outer loop
      vertex -31.7 14.45 1
      vertex -29.8 10.15 1
      vertex -29.8 14.45 1
    endloop
  endfacet
  facet normal 0 0 1
    outer loop
      vertex -29.8 10.15 1
      vertex -31.7 14.45 1
      vertex -31.7 10.15 1
    endloop
  endfacet
  facet normal 1 -0 0
    outer loop
      vertex -29.8 10.15 1
      vertex -29.8 14.45 0
      vertex -29.8 14.45 1
    endloop
  endfacet
  facet normal 1 0 0
    outer loop
      vertex -29.8 14.45 0
      vertex -29.8 10.15 1
      vertex -29.8 10.15 0
    endloop
  endfacet
  facet normal 0 -1 0
    outer loop
      vertex -31.7 10.15 0
      vertex -29.8 10.15 1
      vertex -31.7 10.15 1
    endloop
  endfacet
  facet normal 0 -1 -0
    outer loop
      vertex -29.8 10.15 1
      vertex -31.7 10.15 0
      vertex -29.8 10.15 0
    endloop
  endfacet
endsolid OpenSCAD_Model
