0
SECTION
2
HEADER
9
$ACADVER
1
AC1009
9
$INSUNITS
70
4
0
ENDSEC
0
SECTION
2
TABLES
0
TABLE
2
LAYER
70
3
0
LAYER
2
CUT
70
0
62
1
6
CONTINUOUS
0
LAYER
2
SCORE
70
0
62
5
6
CONTINUOUS
0
LAYER
2
ENGRAVE
70
0
62
7
6
CONTINUOUS
0
ENDTAB
0
ENDSEC
0
SECTION
2
ENTITIES
0
POLYLINE
8
ENGRAVE
66
1
70
1
10
0
20
0
30
0
0
VERTEX
8
ENGRAVE
10
57.971
20
179.251
30
0
0
VERTEX
8
ENGRAVE
10
59.429
20
179.209
30
0
0
VERTEX
8
ENGRAVE
10
59.804
20
178.876
30
0
0
VERTEX
8
ENGRAVE
10
59.804
20
178.251
30
0
0
VERTEX
8
ENGRAVE
10
59.596
20
178.042
30
0
0
VERTEX
8
ENGRAVE
10
59.388
20
177.959
30
0
0
VERTEX
8
ENGRAVE
10
59.679
20
177.834
30
0
0
VERTEX
8
ENGRAVE
10
59.929
20
177.459
30
0
0
VERTEX
8
ENGRAVE
10
59.888
20
176.917
30
0
0
VERTEX
8
ENGRAVE
10
59.638
20
176.626
30
0
0
VERTEX
8
ENGRAVE
10
59.304
20
176.501
30
0
0
VERTEX
8
ENGRAVE
10
57.971
20
176.501
30
0
0
SEQEND
8
ENGRAVE
0
POLYLINE
8
ENGRAVE
66
1
70
1
10
0
20
0
30
0
0
VERTEX
8
ENGRAVE
10
61.304
20
179.251
30
0
0
VERTEX
8
ENGRAVE
10
61.596
20
179.209
30
0
0
VERTEX
8
ENGRAVE
10
61.596
20
176.751
30
0
0
VERTEX
8
ENGRAVE
10
62.346
20
176.751
30
0
0
VERTEX
8
ENGRAVE
10
62.346
20
176.501
30
0
0
VERTEX
8
ENGRAVE
10
60.429
20
176.501
30
0
0
VERTEX
8
ENGRAVE
10
60.429
20
176.751
30
0
0
VERTEX
8
ENGRAVE
10
61.221
20
176.751
30
0
0
VERTEX
8
ENGRAVE
10
61.221
20
178.792
30
0
0
VERTEX
8
ENGRAVE
10
60.554
20
178.251
30
0
0
VERTEX
8
ENGRAVE
10
60.471
20
178.251
30
0
0
VERTEX
8
ENGRAVE
10
60.471
20
178.584
30
0
0
VERTEX
8
ENGRAVE
10
60.929
20
178.834
30
0
0
SEQEND
8
ENGRAVE
0
POLYLINE
8
ENGRAVE
66
1
70
1
10
0
20
0
30
0
0
VERTEX
8
ENGRAVE
10
58.346
20
178.959
30
0
0
VERTEX
8
ENGRAVE
10
58.304
20
178.084
30
0
0
VERTEX
8
ENGRAVE
10
59.179
20
178.084
30
0
0
VERTEX
8
ENGRAVE
10
59.471
20
178.292
30
0
0
VERTEX
8
ENGRAVE
10
59.513
20
178.626
30
0
0
VERTEX
8
ENGRAVE
10
59.304
20
178.917
30
0
0
SEQEND
8
ENGRAVE
0
POLYLINE
8
ENGRAVE
66
1
70
1
10
0
20
0
30
0
0
VERTEX
8
ENGRAVE
10
58.346
20
177.792
30
0
0
VERTEX
8
ENGRAVE
10
58.304
20
176.792
30
0
0
VERTEX
8
ENGRAVE
10
59.179
20
176.792
30
0
0
VERTEX
8
ENGRAVE
10
59.554
20
177.042
30
0
0
VERTEX
8
ENGRAVE
10
59.554
20
177.542
30
0
0
VERTEX
8
ENGRAVE
10
59.346
20
177.751
30
0
0
SEQEND
8
ENGRAVE
0
POLYLINE
8
ENGRAVE
66
1
70
1
10
0
20
0
30
0
0
VERTEX
8
ENGRAVE
10
10.679
20
64.082
30
0
0
VERTEX
8
ENGRAVE
10
11.408
20
64.759
30
0
0
VERTEX
8
ENGRAVE
10
11.565
20
64.655
30
0
0
VERTEX
8
ENGRAVE
10
11.565
20
65.436
30
0
0
VERTEX
8
ENGRAVE
10
10.679
20
66.166
30
0
0
VERTEX
8
ENGRAVE
10
10.940
20
66.426
30
0
0
VERTEX
8
ENGRAVE
10
11.565
20
65.905
30
0
0
VERTEX
8
ENGRAVE
10
11.565
20
67.520
30
0
0
VERTEX
8
ENGRAVE
10
11.825
20
67.520
30
0
0
VERTEX
8
ENGRAVE
10
11.825
20
62.832
30
0
0
VERTEX
8
ENGRAVE
10
11.565
20
62.832
30
0
0
VERTEX
8
ENGRAVE
10
11.565
20
64.343
30
0
0
VERTEX
8
ENGRAVE
10
11.148
20
64.082
30
0
0
VERTEX
8
ENGRAVE
10
10.940
20
63.822
30
0
0
SEQEND
8
ENGRAVE
0
POLYLINE
8
ENGRAVE
66
1
70
1
10
0
20
0
30
0
0
VERTEX
8
ENGRAVE
10
11.252
20
76.166
30
0
0
VERTEX
8
ENGRAVE
10
11.252
20
76.582
30
0
0
VERTEX
8
ENGRAVE
10
11.408
20
77.051
30
0
0
VERTEX
8
ENGRAVE
10
11.825
20
77.468
30
0
0
VERTEX
8
ENGRAVE
10
12.763
20
77.780
30
0
0
VERTEX
8
ENGRAVE
10
13.544
20
77.728
30
0
0
VERTEX
8
ENGRAVE
10
14.013
20
77.572
30
0
0
VERTEX
8
ENGRAVE
10
14.585
20
77.103
30
0
0
VERTEX
8
ENGRAVE
10
14.794
20
76.582
30
0
0
VERTEX
8
ENGRAVE
10
14.794
20
76.061
30
0
0
VERTEX
8
ENGRAVE
10
14.638
20
75.645
30
0
0
VERTEX
8
ENGRAVE
10
14.221
20
75.228
30
0
0
VERTEX
8
ENGRAVE
10
13.596
20
74.968
30
0
0
VERTEX
8
ENGRAVE
10
12.971
20
74.916
30
0
0
VERTEX
8
ENGRAVE
10
12.033
20
75.124
30
0
0
VERTEX
8
ENGRAVE
10
11.513
20
75.541
30
0
0
SEQEND
8
ENGRAVE
0
POLYLINE
8
ENGRAVE
66
1
70
1
10
0
20
0
30
0
0
VERTEX
8
ENGRAVE
10
11.304
20
69.655
30
0
0
VERTEX
8
ENGRAVE
10
11.304
20
71.739
30
0
0
VERTEX
8
ENGRAVE
10
11.669
20
71.739
30
0
0
VERTEX
8
ENGRAVE
10
11.669
20
70.072
30
0
0
VERTEX
8
ENGRAVE
10
12.763
20
70.072
30
0
0
VERTEX
8
ENGRAVE
10
12.763
20
71.478
30
0
0
VERTEX
8
ENGRAVE
10
13.127
20
71.478
30
0
0
VERTEX
8
ENGRAVE
10
13.127
20
70.072
30
0
0
VERTEX
8
ENGRAVE
10
14.742
20
70.072
30
0
0
VERTEX
8
ENGRAVE
10
14.742
20
69.655
30
0
0
SEQEND
8
ENGRAVE
0
POLYLINE
8
ENGRAVE
66
1
70
1
10
0
20
0
30
0
0
VERTEX
8
ENGRAVE
10
11.304
20
72.051
30
0
0
VERTEX
8
ENGRAVE
10
11.356
20
73.822
30
0
0
VERTEX
8
ENGRAVE
10
11.721
20
74.343
30
0
0
VERTEX
8
ENGRAVE
10
12.242
20
74.499
30
0
0
VERTEX
8
ENGRAVE
10
12.606
20
74.447
30
0
0
VERTEX
8
ENGRAVE
10
13.023
20
74.134
30
0
0
VERTEX
8
ENGRAVE
10
13.127
20
73.874
30
0
0
VERTEX
8
ENGRAVE
10
13.283
20
73.874
30
0
0
VERTEX
8
ENGRAVE
10
14.742
20
74.499
30
0
0
VERTEX
8
ENGRAVE
10
14.742
20
74.030
30
0
0
VERTEX
8
ENGRAVE
10
13.283
20
73.457
30
0
0
VERTEX
8
ENGRAVE
10
13.283
20
72.468
30
0
0
VERTEX
8
ENGRAVE
10
14.742
20
72.468
30
0
0
VERTEX
8
ENGRAVE
10
14.742
20
72.051
30
0
0
SEQEND
8
ENGRAVE
0
POLYLINE
8
ENGRAVE
66
1
70
1
10
0
20
0
30
0
0
VERTEX
8
ENGRAVE
10
11.304
20
78.457
30
0
0
VERTEX
8
ENGRAVE
10
11.356
20
79.030
30
0
0
VERTEX
8
ENGRAVE
10
14.065
20
80.541
30
0
0
VERTEX
8
ENGRAVE
10
11.304
20
80.593
30
0
0
VERTEX
8
ENGRAVE
10
11.304
20
80.957
30
0
0
VERTEX
8
ENGRAVE
10
14.742
20
80.957
30
0
0
VERTEX
8
ENGRAVE
10
14.690
20
80.489
30
0
0
VERTEX
8
ENGRAVE
10
12.450
20
79.239
30
0
0
VERTEX
8
ENGRAVE
10
12.138
20
78.978
30
0
0
VERTEX
8
ENGRAVE
10
11.825
20
78.874
30
0
0
VERTEX
8
ENGRAVE
10
14.742
20
78.822
30
0
0
VERTEX
8
ENGRAVE
10
14.742
20
78.457
30
0
0
SEQEND
8
ENGRAVE
0
POLYLINE
8
ENGRAVE
66
1
70
1
10
0
20
0
30
0
0
VERTEX
8
ENGRAVE
10
11.304
20
81.374
30
0
0
VERTEX
8
ENGRAVE
10
11.304
20
83.770
30
0
0
VERTEX
8
ENGRAVE
10
11.669
20
83.770
30
0
0
VERTEX
8
ENGRAVE
10
11.669
20
82.780
30
0
0
VERTEX
8
ENGRAVE
10
14.742
20
82.780
30
0
0
VERTEX
8
ENGRAVE
10
14.742
20
82.364
30
0
0
VERTEX
8
ENGRAVE
10
11.669
20
82.364
30
0
0
VERTEX
8
ENGRAVE
10
11.669
20
81.374
30
0
0
SEQEND
8
ENGRAVE
0
POLYLINE
8
ENGRAVE
66
1
70
1
10
0
20
0
30
0
0
VERTEX
8
ENGRAVE
10
11.617
20
76.218
30
0
0
VERTEX
8
ENGRAVE
10
11.721
20
75.905
30
0
0
VERTEX
8
ENGRAVE
10
12.294
20
75.489
30
0
0
VERTEX
8
ENGRAVE
10
13.388
20
75.384
30
0
0
VERTEX
8
ENGRAVE
10
14.013
20
75.593
30
0
0
VERTEX
8
ENGRAVE
10
14.377
20
75.957
30
0
0
VERTEX
8
ENGRAVE
10
14.429
20
76.634
30
0
0
VERTEX
8
ENGRAVE
10
14.117
20
77.051
30
0
0
VERTEX
8
ENGRAVE
10
13.804
20
77.207
30
0
0
VERTEX
8
ENGRAVE
10
12.710
20
77.311
30
0
0
VERTEX
8
ENGRAVE
10
12.242
20
77.207
30
0
0
VERTEX
8
ENGRAVE
10
11.877
20
76.999
30
0
0
VERTEX
8
ENGRAVE
10
11.669
20
76.686
30
0
0
SEQEND
8
ENGRAVE
0
POLYLINE
8
ENGRAVE
66
1
70
1
10
0
20
0
30
0
0
VERTEX
8
ENGRAVE
10
11.669
20
72.520
30
0
0
VERTEX
8
ENGRAVE
10
12.919
20
72.468
30
0
0
VERTEX
8
ENGRAVE
10
12.867
20
73.666
30
0
0
VERTEX
8
ENGRAVE
10
12.606
20
73.978
30
0
0
VERTEX
8
ENGRAVE
10
12.085
20
74.030
30
0
0
VERTEX
8
ENGRAVE
10
11.825
20
73.874
30
0
0
VERTEX
8
ENGRAVE
10
11.669
20
73.457
30
0
0
SEQEND
8
ENGRAVE
0
POLYLINE
8
ENGRAVE
66
1
70
1
10
0
20
0
30
0
0
VERTEX
8
ENGRAVE
10
12.085
20
66.634
30
0
0
VERTEX
8
ENGRAVE
10
12.085
20
66.999
30
0
0
VERTEX
8
ENGRAVE
10
14.846
20
66.999
30
0
0
VERTEX
8
ENGRAVE
10
15.263
20
66.791
30
0
0
VERTEX
8
ENGRAVE
10
15.367
20
66.166
30
0
0
VERTEX
8
ENGRAVE
10
14.950
20
66.061
30
0
0
VERTEX
8
ENGRAVE
10
15.002
20
66.478
30
0
0
VERTEX
8
ENGRAVE
10
14.898
20
66.634
30
0
0
SEQEND
8
ENGRAVE
0
POLYLINE
8
ENGRAVE
66
1
70
1
10
0
20
0
30
0
0
VERTEX
8
ENGRAVE
10
12.190
20
63.405
30
0
0
VERTEX
8
ENGRAVE
10
12.190
20
65.020
30
0
0
VERTEX
8
ENGRAVE
10
15.002
20
65.020
30
0
0
VERTEX
8
ENGRAVE
10
15.263
20
64.759
30
0
0
VERTEX
8
ENGRAVE
10
15.315
20
64.395
30
0
0
VERTEX
8
ENGRAVE
10
14.950
20
64.343
30
0
0
VERTEX
8
ENGRAVE
10
14.846
20
64.707
30
0
0
VERTEX
8
ENGRAVE
10
14.169
20
64.707
30
0
0
VERTEX
8
ENGRAVE
10
14.169
20
63.718
30
0
0
VERTEX
8
ENGRAVE
10
15.263
20
63.770
30
0
0
VERTEX
8
ENGRAVE
10
15.263
20
63.353
30
0
0
SEQEND
8
ENGRAVE
0
POLYLINE
8
ENGRAVE
66
1
70
1
10
0
20
0
30
0
0
VERTEX
8
ENGRAVE
10
12.450
20
63.770
30
0
0
VERTEX
8
ENGRAVE
10
13.023
20
63.718
30
0
0
VERTEX
8
ENGRAVE
10
13.023
20
64.707
30
0
0
VERTEX
8
ENGRAVE
10
12.450
20
64.707
30
0
0
SEQEND
8
ENGRAVE
0
POLYLINE
8
ENGRAVE
66
1
70
1
10
0
20
0
30
0
0
VERTEX
8
ENGRAVE
10
12.398
20
65.645
30
0
0
VERTEX
8
ENGRAVE
10
12.450
20
66.009
30
0
0
VERTEX
8
ENGRAVE
10
14.533
20
66.009
30
0
0
VERTEX
8
ENGRAVE
10
14.533
20
65.645
30
0
0
SEQEND
8
ENGRAVE
0
POLYLINE
8
ENGRAVE
66
1
70
1
10
0
20
0
30
0
0
VERTEX
8
ENGRAVE
10
13.283
20
63.770
30
0
0
VERTEX
8
ENGRAVE
10
13.856
20
63.718
30
0
0
VERTEX
8
ENGRAVE
10
13.856
20
64.707
30
0
0
VERTEX
8
ENGRAVE
10
13.283
20
64.707
30
0
0
SEQEND
8
ENGRAVE
0
POLYLINE
8
ENGRAVE
66
1
70
1
10
0
20
0
30
0
0
VERTEX
8
ENGRAVE
10
67.026
20
50.913
30
0
0
VERTEX
8
ENGRAVE
10
67.026
20
51.205
30
0
0
VERTEX
8
ENGRAVE
10
67.151
20
51.580
30
0
0
VERTEX
8
ENGRAVE
10
67.317
20
51.788
30
0
0
VERTEX
8
ENGRAVE
10
67.776
20
52.038
30
0
0
VERTEX
8
ENGRAVE
10
67.942
20
51.997
30
0
0
VERTEX
8
ENGRAVE
10
67.984
20
51.705
30
0
0
VERTEX
8
ENGRAVE
10
67.734
20
51.663
30
0
0
VERTEX
8
ENGRAVE
10
67.442
20
51.455
30
0
0
VERTEX
8
ENGRAVE
10
67.317
20
51.205
30
0
0
VERTEX
8
ENGRAVE
10
67.317
20
50.872
30
0
0
VERTEX
8
ENGRAVE
10
67.442
20
50.622
30
0
0
VERTEX
8
ENGRAVE
10
67.817
20
50.372
30
0
0
VERTEX
8
ENGRAVE
10
68.692
20
50.288
30
0
0
VERTEX
8
ENGRAVE
10
69.151
20
50.413
30
0
0
VERTEX
8
ENGRAVE
10
69.442
20
50.622
30
0
0
VERTEX
8
ENGRAVE
10
69.567
20
50.872
30
0
0
VERTEX
8
ENGRAVE
10
69.526
20
51.330
30
0
0
VERTEX
8
ENGRAVE
10
69.317
20
51.580
30
0
0
VERTEX
8
ENGRAVE
10
68.901
20
51.705
30
0
0
VERTEX
8
ENGRAVE
10
68.942
20
52.038
30
0
0
VERTEX
8
ENGRAVE
10
69.192
20
51.997
30
0
0
VERTEX
8
ENGRAVE
10
69.567
20
51.788
30
0
0
VERTEX
8
ENGRAVE
10
69.859
20
51.247
30
0
0
VERTEX
8
ENGRAVE
10
69.859
20
50.830
30
0
0
VERTEX
8
ENGRAVE
10
69.692
20
50.413
30
0
0
VERTEX
8
ENGRAVE
10
69.276
20
50.080
30
0
0
VERTEX
8
ENGRAVE
10
68.734
20
49.913
30
0
0
VERTEX
8
ENGRAVE
10
68.109
20
49.913
30
0
0
VERTEX
8
ENGRAVE
10
67.526
20
50.122
30
0
0
VERTEX
8
ENGRAVE
10
67.151
20
50.497
30
0
0
SEQEND
8
ENGRAVE
0
POLYLINE
8
ENGRAVE
66
1
70
1
10
0
20
0
30
0
0
VERTEX
8
ENGRAVE
10
67.067
20
53.413
30
0
0
VERTEX
8
ENGRAVE
10
67.109
20
53.705
30
0
0
VERTEX
8
ENGRAVE
10
69.567
20
53.705
30
0
0
VERTEX
8
ENGRAVE
10
69.567
20
54.455
30
0
0
VERTEX
8
ENGRAVE
10
69.817
20
54.455
30
0
0
VERTEX
8
ENGRAVE
10
69.817
20
52.538
30
0
0
VERTEX
8
ENGRAVE
10
69.567
20
52.538
30
0
0
VERTEX
8
ENGRAVE
10
69.567
20
53.330
30
0
0
VERTEX
8
ENGRAVE
10
67.526
20
53.330
30
0
0
VERTEX
8
ENGRAVE
10
68.067
20
52.663
30
0
0
VERTEX
8
ENGRAVE
10
68.067
20
52.580
30
0
0
VERTEX
8
ENGRAVE
10
67.734
20
52.580
30
0
0
VERTEX
8
ENGRAVE
10
67.484
20
53.038
30
0
0
SEQEND
8
ENGRAVE
0
POLYLINE
8
SCORE
66
1
70
1
10
0
20
0
30
0
0
VERTEX
8
SCORE
10
157.075
20
113.275
30
0
0
VERTEX
8
SCORE
10
157.075
20
101.275
30
0
0
VERTEX
8
SCORE
10
135.075
20
101.275
30
0
0
VERTEX
8
SCORE
10
135.075
20
113.275
30
0
0
SEQEND
8
SCORE
0
POLYLINE
8
SCORE
66
1
70
1
10
0
20
0
30
0
0
VERTEX
8
SCORE
10
156.575
20
99.775
30
0
0
VERTEX
8
SCORE
10
156.575
20
82.775
30
0
0
VERTEX
8
SCORE
10
134.575
20
82.775
30
0
0
VERTEX
8
SCORE
10
134.575
20
99.775
30
0
0
SEQEND
8
SCORE
0
POLYLINE
8
SCORE
66
1
70
1
10
0
20
0
30
0
0
VERTEX
8
SCORE
10
149.075
20
127.275
30
0
0
VERTEX
8
SCORE
10
149.075
20
116.275
30
0
0
VERTEX
8
SCORE
10
127.075
20
116.275
30
0
0
VERTEX
8
SCORE
10
127.075
20
127.275
30
0
0
SEQEND
8
SCORE
0
POLYLINE
8
SCORE
66
1
70
1
10
0
20
0
30
0
0
VERTEX
8
SCORE
10
114.575
20
92.775
30
0
0
VERTEX
8
SCORE
10
114.575
20
82.775
30
0
0
VERTEX
8
SCORE
10
94.575
20
82.775
30
0
0
VERTEX
8
SCORE
10
94.575
20
92.775
30
0
0
SEQEND
8
SCORE
0
POLYLINE
8
SCORE
66
1
70
1
10
0
20
0
30
0
0
VERTEX
8
SCORE
10
118.575
20
124.275
30
0
0
VERTEX
8
SCORE
10
118.575
20
94.275
30
0
0
VERTEX
8
SCORE
10
70.575
20
94.275
30
0
0
VERTEX
8
SCORE
10
70.575
20
124.275
30
0
0
SEQEND
8
SCORE
0
POLYLINE
8
ENGRAVE
66
1
70
1
10
0
20
0
30
0
0
VERTEX
8
ENGRAVE
10
188.095
20
162.478
30
0
0
VERTEX
8
ENGRAVE
10
190.011
20
162.478
30
0
0
VERTEX
8
ENGRAVE
10
190.011
20
162.186
30
0
0
VERTEX
8
ENGRAVE
10
189.220
20
162.145
30
0
0
VERTEX
8
ENGRAVE
10
189.220
20
159.728
30
0
0
VERTEX
8
ENGRAVE
10
188.886
20
159.728
30
0
0
VERTEX
8
ENGRAVE
10
188.886
20
162.186
30
0
0
VERTEX
8
ENGRAVE
10
188.095
20
162.186
30
0
0
SEQEND
8
ENGRAVE
0
POLYLINE
8
ENGRAVE
66
1
70
1
10
0
20
0
30
0
0
VERTEX
8
ENGRAVE
10
191.261
20
162.478
30
0
0
VERTEX
8
ENGRAVE
10
191.511
20
162.478
30
0
0
VERTEX
8
ENGRAVE
10
191.511
20
159.978
30
0
0
VERTEX
8
ENGRAVE
10
192.303
20
159.978
30
0
0
VERTEX
8
ENGRAVE
10
192.303
20
159.728
30
0
0
VERTEX
8
ENGRAVE
10
190.386
20
159.728
30
0
0
VERTEX
8
ENGRAVE
10
190.386
20
159.978
30
0
0
VERTEX
8
ENGRAVE
10
191.178
20
159.978
30
0
0
VERTEX
8
ENGRAVE
10
191.178
20
162.020
30
0
0
VERTEX
8
ENGRAVE
10
190.511
20
161.478
30
0
0
VERTEX
8
ENGRAVE
10
190.428
20
161.478
30
0
0
VERTEX
8
ENGRAVE
10
190.428
20
161.811
30
0
0
VERTEX
8
ENGRAVE
10
190.928
20
162.103
30
0
0
SEQEND
8
ENGRAVE
0
POLYLINE
8
ENGRAVE
66
1
70
1
10
0
20
0
30
0
0
VERTEX
8
ENGRAVE
10
256.077
20
274.374
30
0
0
VERTEX
8
ENGRAVE
10
256.369
20
274.374
30
0
0
VERTEX
8
ENGRAVE
10
256.744
20
274.249
30
0
0
VERTEX
8
ENGRAVE
10
256.952
20
274.082
30
0
0
VERTEX
8
ENGRAVE
10
257.202
20
273.624
30
0
0
VERTEX
8
ENGRAVE
10
257.160
20
273.457
30
0
0
VERTEX
8
ENGRAVE
10
256.869
20
273.416
30
0
0
VERTEX
8
ENGRAVE
10
256.827
20
273.666
30
0
0
VERTEX
8
ENGRAVE
10
256.619
20
273.957
30
0
0
VERTEX
8
ENGRAVE
10
256.369
20
274.082
30
0
0
VERTEX
8
ENGRAVE
10
256.035
20
274.082
30
0
0
VERTEX
8
ENGRAVE
10
255.785
20
273.957
30
0
0
VERTEX
8
ENGRAVE
10
255.535
20
273.582
30
0
0
VERTEX
8
ENGRAVE
10
255.452
20
272.707
30
0
0
VERTEX
8
ENGRAVE
10
255.577
20
272.249
30
0
0
VERTEX
8
ENGRAVE
10
255.785
20
271.957
30
0
0
VERTEX
8
ENGRAVE
10
256.035
20
271.832
30
0
0
VERTEX
8
ENGRAVE
10
256.494
20
271.874
30
0
0
VERTEX
8
ENGRAVE
10
256.744
20
272.082
30
0
0
VERTEX
8
ENGRAVE
10
256.869
20
272.499
30
0
0
VERTEX
8
ENGRAVE
10
257.202
20
272.457
30
0
0
VERTEX
8
ENGRAVE
10
257.160
20
272.207
30
0
0
VERTEX
8
ENGRAVE
10
256.952
20
271.832
30
0
0
VERTEX
8
ENGRAVE
10
256.410
20
271.541
30
0
0
VERTEX
8
ENGRAVE
10
255.994
20
271.541
30
0
0
VERTEX
8
ENGRAVE
10
255.577
20
271.707
30
0
0
VERTEX
8
ENGRAVE
10
255.244
20
272.124
30
0
0
VERTEX
8
ENGRAVE
10
255.077
20
272.666
30
0
0
VERTEX
8
ENGRAVE
10
255.077
20
273.291
30
0
0
VERTEX
8
ENGRAVE
10
255.285
20
273.874
30
0
0
VERTEX
8
ENGRAVE
10
255.660
20
274.249
30
0
0
SEQEND
8
ENGRAVE
0
POLYLINE
8
ENGRAVE
66
1
70
1
10
0
20
0
30
0
0
VERTEX
8
ENGRAVE
10
258.452
20
274.374
30
0
0
VERTEX
8
ENGRAVE
10
258.952
20
274.332
30
0
0
VERTEX
8
ENGRAVE
10
259.285
20
274.166
30
0
0
VERTEX
8
ENGRAVE
10
259.535
20
273.832
30
0
0
VERTEX
8
ENGRAVE
10
259.577
20
273.457
30
0
0
VERTEX
8
ENGRAVE
10
259.535
20
273.249
30
0
0
VERTEX
8
ENGRAVE
10
259.285
20
272.832
30
0
0
VERTEX
8
ENGRAVE
10
258.119
20
271.874
30
0
0
VERTEX
8
ENGRAVE
10
259.577
20
271.874
30
0
0
VERTEX
8
ENGRAVE
10
259.577
20
271.582
30
0
0
VERTEX
8
ENGRAVE
10
257.619
20
271.582
30
0
0
VERTEX
8
ENGRAVE
10
257.619
20
271.874
30
0
0
VERTEX
8
ENGRAVE
10
258.785
20
272.749
30
0
0
VERTEX
8
ENGRAVE
10
259.119
20
273.124
30
0
0
VERTEX
8
ENGRAVE
10
259.202
20
273.332
30
0
0
VERTEX
8
ENGRAVE
10
259.160
20
273.832
30
0
0
VERTEX
8
ENGRAVE
10
258.785
20
274.082
30
0
0
VERTEX
8
ENGRAVE
10
258.410
20
274.082
30
0
0
VERTEX
8
ENGRAVE
10
258.160
20
273.957
30
0
0
VERTEX
8
ENGRAVE
10
257.952
20
273.624
30
0
0
VERTEX
8
ENGRAVE
10
257.952
20
273.457
30
0
0
VERTEX
8
ENGRAVE
10
257.619
20
273.541
30
0
0
VERTEX
8
ENGRAVE
10
257.785
20
273.999
30
0
0
VERTEX
8
ENGRAVE
10
257.994
20
274.207
30
0
0
SEQEND
8
ENGRAVE
0
POLYLINE
8
ENGRAVE
66
1
70
1
10
0
20
0
30
0
0
VERTEX
8
ENGRAVE
10
307.304
20
202.945
30
0
0
VERTEX
8
ENGRAVE
10
307.596
20
202.945
30
0
0
VERTEX
8
ENGRAVE
10
307.971
20
202.820
30
0
0
VERTEX
8
ENGRAVE
10
308.179
20
202.654
30
0
0
VERTEX
8
ENGRAVE
10
308.429
20
202.195
30
0
0
VERTEX
8
ENGRAVE
10
308.387
20
202.029
30
0
0
VERTEX
8
ENGRAVE
10
308.096
20
201.987
30
0
0
VERTEX
8
ENGRAVE
10
308.054
20
202.237
30
0
0
VERTEX
8
ENGRAVE
10
307.846
20
202.529
30
0
0
VERTEX
8
ENGRAVE
10
307.596
20
202.654
30
0
0
VERTEX
8
ENGRAVE
10
307.262
20
202.654
30
0
0
VERTEX
8
ENGRAVE
10
307.012
20
202.529
30
0
0
VERTEX
8
ENGRAVE
10
306.762
20
202.154
30
0
0
VERTEX
8
ENGRAVE
10
306.679
20
201.279
30
0
0
VERTEX
8
ENGRAVE
10
306.804
20
200.820
30
0
0
VERTEX
8
ENGRAVE
10
307.012
20
200.529
30
0
0
VERTEX
8
ENGRAVE
10
307.262
20
200.404
30
0
0
VERTEX
8
ENGRAVE
10
307.721
20
200.445
30
0
0
VERTEX
8
ENGRAVE
10
307.971
20
200.654
30
0
0
VERTEX
8
ENGRAVE
10
308.096
20
201.070
30
0
0
VERTEX
8
ENGRAVE
10
308.429
20
201.029
30
0
0
VERTEX
8
ENGRAVE
10
308.387
20
200.779
30
0
0
VERTEX
8
ENGRAVE
10
308.179
20
200.404
30
0
0
VERTEX
8
ENGRAVE
10
307.637
20
200.112
30
0
0
VERTEX
8
ENGRAVE
10
307.221
20
200.112
30
0
0
VERTEX
8
ENGRAVE
10
306.804
20
200.279
30
0
0
VERTEX
8
ENGRAVE
10
306.471
20
200.695
30
0
0
VERTEX
8
ENGRAVE
10
306.304
20
201.237
30
0
0
VERTEX
8
ENGRAVE
10
306.304
20
201.862
30
0
0
VERTEX
8
ENGRAVE
10
306.512
20
202.445
30
0
0
VERTEX
8
ENGRAVE
10
306.887
20
202.820
30
0
0
SEQEND
8
ENGRAVE
0
POLYLINE
8
ENGRAVE
66
1
70
1
10
0
20
0
30
0
0
VERTEX
8
ENGRAVE
10
309.637
20
202.945
30
0
0
VERTEX
8
ENGRAVE
10
310.221
20
202.904
30
0
0
VERTEX
8
ENGRAVE
10
310.471
20
202.779
30
0
0
VERTEX
8
ENGRAVE
10
310.679
20
202.570
30
0
0
VERTEX
8
ENGRAVE
10
310.762
20
202.362
30
0
0
VERTEX
8
ENGRAVE
10
310.721
20
201.945
30
0
0
VERTEX
8
ENGRAVE
10
310.512
20
201.695
30
0
0
VERTEX
8
ENGRAVE
10
310.262
20
201.570
30
0
0
VERTEX
8
ENGRAVE
10
310.512
20
201.529
30
0
0
VERTEX
8
ENGRAVE
10
310.762
20
201.320
30
0
0
VERTEX
8
ENGRAVE
10
310.846
20
201.154
30
0
0
VERTEX
8
ENGRAVE
10
310.846
20
200.695
30
0
0
VERTEX
8
ENGRAVE
10
310.637
20
200.362
30
0
0
VERTEX
8
ENGRAVE
10
310.054
20
200.112
30
0
0
VERTEX
8
ENGRAVE
10
309.387
20
200.154
30
0
0
VERTEX
8
ENGRAVE
10
309.137
20
200.279
30
0
0
VERTEX
8
ENGRAVE
10
308.804
20
200.654
30
0
0
VERTEX
8
ENGRAVE
10
308.846
20
200.820
30
0
0
VERTEX
8
ENGRAVE
10
309.096
20
200.862
30
0
0
VERTEX
8
ENGRAVE
10
309.179
20
200.654
30
0
0
VERTEX
8
ENGRAVE
10
309.512
20
200.404
30
0
0
VERTEX
8
ENGRAVE
10
310.096
20
200.404
30
0
0
VERTEX
8
ENGRAVE
10
310.304
20
200.487
30
0
0
VERTEX
8
ENGRAVE
10
310.471
20
200.695
30
0
0
VERTEX
8
ENGRAVE
10
310.512
20
201.029
30
0
0
VERTEX
8
ENGRAVE
10
310.304
20
201.320
30
0
0
VERTEX
8
ENGRAVE
10
309.929
20
201.445
30
0
0
VERTEX
8
ENGRAVE
10
309.471
20
201.445
30
0
0
VERTEX
8
ENGRAVE
10
309.471
20
201.737
30
0
0
VERTEX
8
ENGRAVE
10
310.096
20
201.737
30
0
0
VERTEX
8
ENGRAVE
10
310.304
20
201.862
30
0
0
VERTEX
8
ENGRAVE
10
310.387
20
202.029
30
0
0
VERTEX
8
ENGRAVE
10
310.346
20
202.445
30
0
0
VERTEX
8
ENGRAVE
10
310.054
20
202.654
30
0
0
VERTEX
8
ENGRAVE
10
309.596
20
202.654
30
0
0
VERTEX
8
ENGRAVE
10
309.429
20
202.570
30
0
0
VERTEX
8
ENGRAVE
10
309.179
20
202.237
30
0
0
VERTEX
8
ENGRAVE
10
308.887
20
202.279
30
0
0
VERTEX
8
ENGRAVE
10
309.096
20
202.695
30
0
0
SEQEND
8
ENGRAVE
0
POLYLINE
8
SCORE
66
1
70
1
10
0
20
0
30
0
0
VERTEX
8
SCORE
10
206.425
20
60.575
30
0
0
VERTEX
8
SCORE
10
204.246
20
60.670
30
0
0
VERTEX
8
SCORE
10
202.084
20
60.955
30
0
0
VERTEX
8
SCORE
10
199.955
20
61.427
30
0
0
VERTEX
8
SCORE
10
197.874
20
62.083
30
0
0
VERTEX
8
SCORE
10
195.860
20
62.917
30
0
0
VERTEX
8
SCORE
10
193.925
20
63.924
30
0
0
VERTEX
8
SCORE
10
192.086
20
65.096
30
0
0
VERTEX
8
SCORE
10
190.355
20
66.424
30
0
0
VERTEX
8
SCORE
10
188.747
20
67.897
30
0
0
VERTEX
8
SCORE
10
187.274
20
69.505
30
0
0
VERTEX
8
SCORE
10
185.946
20
71.236
30
0
0
VERTEX
8
SCORE
10
184.774
20
73.075
30
0
0
VERTEX
8
SCORE
10
183.767
20
75.010
30
0
0
VERTEX
8
SCORE
10
182.933
20
77.024
30
0
0
VERTEX
8
SCORE
10
182.277
20
79.105
30
0
0
VERTEX
8
SCORE
10
181.805
20
81.234
30
0
0
VERTEX
8
SCORE
10
181.520
20
83.396
30
0
0
VERTEX
8
SCORE
10
181.425
20
85.575
30
0
0
VERTEX
8
SCORE
10
181.520
20
87.754
30
0
0
VERTEX
8
SCORE
10
181.805
20
89.916
30
0
0
VERTEX
8
SCORE
10
182.277
20
92.045
30
0
0
VERTEX
8
SCORE
10
182.933
20
94.126
30
0
0
VERTEX
8
SCORE
10
183.767
20
96.140
30
0
0
VERTEX
8
SCORE
10
184.774
20
98.075
30
0
0
VERTEX
8
SCORE
10
185.946
20
99.914
30
0
0
VERTEX
8
SCORE
10
187.274
20
101.645
30
0
0
VERTEX
8
SCORE
10
188.747
20
103.253
30
0
0
VERTEX
8
SCORE
10
190.355
20
104.726
30
0
0
VERTEX
8
SCORE
10
192.086
20
106.054
30
0
0
VERTEX
8
SCORE
10
193.925
20
107.226
30
0
0
VERTEX
8
SCORE
10
195.860
20
108.233
30
0
0
VERTEX
8
SCORE
10
197.874
20
109.067
30
0
0
VERTEX
8
SCORE
10
199.955
20
109.723
30
0
0
VERTEX
8
SCORE
10
202.084
20
110.195
30
0
0
VERTEX
8
SCORE
10
204.246
20
110.480
30
0
0
VERTEX
8
SCORE
10
206.425
20
110.575
30
0
0
VERTEX
8
SCORE
10
208.604
20
110.480
30
0
0
VERTEX
8
SCORE
10
210.766
20
110.195
30
0
0
VERTEX
8
SCORE
10
212.895
20
109.723
30
0
0
VERTEX
8
SCORE
10
214.976
20
109.067
30
0
0
VERTEX
8
SCORE
10
216.990
20
108.233
30
0
0
VERTEX
8
SCORE
10
218.925
20
107.226
30
0
0
VERTEX
8
SCORE
10
220.764
20
106.054
30
0
0
VERTEX
8
SCORE
10
222.495
20
104.726
30
0
0
VERTEX
8
SCORE
10
224.103
20
103.253
30
0
0
VERTEX
8
SCORE
10
225.576
20
101.645
30
0
0
VERTEX
8
SCORE
10
226.904
20
99.914
30
0
0
VERTEX
8
SCORE
10
228.076
20
98.075
30
0
0
VERTEX
8
SCORE
10
229.083
20
96.140
30
0
0
VERTEX
8
SCORE
10
229.917
20
94.126
30
0
0
VERTEX
8
SCORE
10
230.573
20
92.045
30
0
0
VERTEX
8
SCORE
10
231.045
20
89.916
30
0
0
VERTEX
8
SCORE
10
231.330
20
87.754
30
0
0
VERTEX
8
SCORE
10
231.425
20
85.575
30
0
0
VERTEX
8
SCORE
10
231.330
20
83.396
30
0
0
VERTEX
8
SCORE
10
231.045
20
81.234
30
0
0
VERTEX
8
SCORE
10
230.573
20
79.105
30
0
0
VERTEX
8
SCORE
10
229.917
20
77.024
30
0
0
VERTEX
8
SCORE
10
229.083
20
75.010
30
0
0
VERTEX
8
SCORE
10
228.076
20
73.075
30
0
0
VERTEX
8
SCORE
10
226.904
20
71.236
30
0
0
VERTEX
8
SCORE
10
225.576
20
69.505
30
0
0
VERTEX
8
SCORE
10
224.103
20
67.897
30
0
0
VERTEX
8
SCORE
10
222.495
20
66.424
30
0
0
VERTEX
8
SCORE
10
220.764
20
65.096
30
0
0
VERTEX
8
SCORE
10
218.925
20
63.924
30
0
0
VERTEX
8
SCORE
10
216.990
20
62.917
30
0
0
VERTEX
8
SCORE
10
214.976
20
62.083
30
0
0
VERTEX
8
SCORE
10
212.895
20
61.427
30
0
0
VERTEX
8
SCORE
10
210.766
20
60.955
30
0
0
VERTEX
8
SCORE
10
208.604
20
60.670
30
0
0
SEQEND
8
SCORE
0
POLYLINE
8
ENGRAVE
66
1
70
1
10
0
20
0
30
0
0
VERTEX
8
ENGRAVE
10
259.775
20
161.574
30
0
0
VERTEX
8
ENGRAVE
10
355.775
20
161.574
30
0
0
VERTEX
8
ENGRAVE
10
355.775
20
164.574
30
0
0
VERTEX
8
ENGRAVE
10
259.775
20
164.574
30
0
0
SEQEND
8
ENGRAVE
0
POLYLINE
8
ENGRAVE
66
1
70
1
10
0
20
0
30
0
0
VERTEX
8
ENGRAVE
10
310.436
20
104.126
30
0
0
VERTEX
8
ENGRAVE
10
311.020
20
104.126
30
0
0
VERTEX
8
ENGRAVE
10
311.676
20
103.907
30
0
0
VERTEX
8
ENGRAVE
10
312.186
20
103.470
30
0
0
VERTEX
8
ENGRAVE
10
312.405
20
103.032
30
0
0
VERTEX
8
ENGRAVE
10
312.332
20
102.887
30
0
0
VERTEX
8
ENGRAVE
10
311.822
20
102.814
30
0
0
VERTEX
8
ENGRAVE
10
311.749
20
103.178
30
0
0
VERTEX
8
ENGRAVE
10
311.020
20
103.616
30
0
0
VERTEX
8
ENGRAVE
10
310.291
20
103.616
30
0
0
VERTEX
8
ENGRAVE
10
309.707
20
103.178
30
0
0
VERTEX
8
ENGRAVE
10
309.634
20
102.814
30
0
0
VERTEX
8
ENGRAVE
10
309.926
20
102.303
30
0
0
VERTEX
8
ENGRAVE
10
311.822
20
101.793
30
0
0
VERTEX
8
ENGRAVE
10
312.478
20
101.210
30
0
0
VERTEX
8
ENGRAVE
10
312.551
20
100.189
30
0
0
VERTEX
8
ENGRAVE
10
312.405
20
99.824
30
0
0
VERTEX
8
ENGRAVE
10
312.041
20
99.460
30
0
0
VERTEX
8
ENGRAVE
10
311.311
20
99.168
30
0
0
VERTEX
8
ENGRAVE
10
309.853
20
99.314
30
0
0
VERTEX
8
ENGRAVE
10
309.124
20
99.897
30
0
0
VERTEX
8
ENGRAVE
10
308.832
20
100.407
30
0
0
VERTEX
8
ENGRAVE
10
308.832
20
100.553
30
0
0
VERTEX
8
ENGRAVE
10
309.416
20
100.626
30
0
0
VERTEX
8
ENGRAVE
10
309.780
20
99.970
30
0
0
VERTEX
8
ENGRAVE
10
310.509
20
99.678
30
0
0
VERTEX
8
ENGRAVE
10
311.384
20
99.751
30
0
0
VERTEX
8
ENGRAVE
10
311.895
20
100.189
30
0
0
VERTEX
8
ENGRAVE
10
311.968
20
100.626
30
0
0
VERTEX
8
ENGRAVE
10
311.749
20
101.064
30
0
0
VERTEX
8
ENGRAVE
10
311.384
20
101.282
30
0
0
VERTEX
8
ENGRAVE
10
309.780
20
101.647
30
0
0
VERTEX
8
ENGRAVE
10
309.124
20
102.303
30
0
0
VERTEX
8
ENGRAVE
10
309.051
20
102.960
30
0
0
VERTEX
8
ENGRAVE
10
309.197
20
103.470
30
0
0
VERTEX
8
ENGRAVE
10
309.561
20
103.835
30
0
0
SEQEND
8
ENGRAVE
0
POLYLINE
8
ENGRAVE
66
1
70
1
10
0
20
0
30
0
0
VERTEX
8
ENGRAVE
10
298.041
20
104.053
30
0
0
VERTEX
8
ENGRAVE
10
298.770
20
103.980
30
0
0
VERTEX
8
ENGRAVE
10
300.228
20
99.241
30
0
0
VERTEX
8
ENGRAVE
10
299.572
20
99.314
30
0
0
VERTEX
8
ENGRAVE
10
299.207
20
100.626
30
0
0
VERTEX
8
ENGRAVE
10
297.384
20
100.626
30
0
0
VERTEX
8
ENGRAVE
10
297.020
20
99.314
30
0
0
VERTEX
8
ENGRAVE
10
296.436
20
99.241
30
0
0
SEQEND
8
ENGRAVE
0
POLYLINE
8
ENGRAVE
66
1
70
1
10
0
20
0
30
0
0
VERTEX
8
ENGRAVE
10
300.884
20
104.053
30
0
0
VERTEX
8
ENGRAVE
10
303.364
20
103.980
30
0
0
VERTEX
8
ENGRAVE
10
304.093
20
103.470
30
0
0
VERTEX
8
ENGRAVE
10
304.311
20
102.741
30
0
0
VERTEX
8
ENGRAVE
10
304.239
20
102.230
30
0
0
VERTEX
8
ENGRAVE
10
303.801
20
101.647
30
0
0
VERTEX
8
ENGRAVE
10
303.436
20
101.501
30
0
0
VERTEX
8
ENGRAVE
10
303.436
20
101.282
30
0
0
VERTEX
8
ENGRAVE
10
304.311
20
99.241
30
0
0
VERTEX
8
ENGRAVE
10
303.655
20
99.241
30
0
0
VERTEX
8
ENGRAVE
10
302.853
20
101.282
30
0
0
VERTEX
8
ENGRAVE
10
301.468
20
101.282
30
0
0
VERTEX
8
ENGRAVE
10
301.468
20
99.241
30
0
0
VERTEX
8
ENGRAVE
10
300.884
20
99.241
30
0
0
SEQEND
8
ENGRAVE
0
POLYLINE
8
ENGRAVE
66
1
70
1
10
0
20
0
30
0
0
VERTEX
8
ENGRAVE
10
305.186
20
104.053
30
0
0
VERTEX
8
ENGRAVE
10
308.249
20
104.053
30
0
0
VERTEX
8
ENGRAVE
10
308.249
20
103.543
30
0
0
VERTEX
8
ENGRAVE
10
305.843
20
103.543
30
0
0
VERTEX
8
ENGRAVE
10
305.843
20
102.012
30
0
0
VERTEX
8
ENGRAVE
10
307.739
20
102.012
30
0
0
VERTEX
8
ENGRAVE
10
307.739
20
101.501
30
0
0
VERTEX
8
ENGRAVE
10
305.843
20
101.501
30
0
0
VERTEX
8
ENGRAVE
10
305.843
20
99.751
30
0
0
VERTEX
8
ENGRAVE
10
308.322
20
99.751
30
0
0
VERTEX
8
ENGRAVE
10
308.322
20
99.241
30
0
0
VERTEX
8
ENGRAVE
10
305.186
20
99.241
30
0
0
SEQEND
8
ENGRAVE
0
POLYLINE
8
ENGRAVE
66
1
70
1
10
0
20
0
30
0
0
VERTEX
8
ENGRAVE
10
317.072
20
104.053
30
0
0
VERTEX
8
ENGRAVE
10
317.509
20
104.053
30
0
0
VERTEX
8
ENGRAVE
10
317.509
20
99.678
30
0
0
VERTEX
8
ENGRAVE
10
318.895
20
99.678
30
0
0
VERTEX
8
ENGRAVE
10
318.895
20
99.241
30
0
0
VERTEX
8
ENGRAVE
10
315.541
20
99.241
30
0
0
VERTEX
8
ENGRAVE
10
315.541
20
99.678
30
0
0
VERTEX
8
ENGRAVE
10
316.926
20
99.678
30
0
0
VERTEX
8
ENGRAVE
10
316.926
20
103.251
30
0
0
VERTEX
8
ENGRAVE
10
315.759
20
102.303
30
0
0
VERTEX
8
ENGRAVE
10
315.614
20
102.303
30
0
0
VERTEX
8
ENGRAVE
10
315.614
20
102.887
30
0
0
VERTEX
8
ENGRAVE
10
316.489
20
103.397
30
0
0
SEQEND
8
ENGRAVE
0
POLYLINE
8
ENGRAVE
66
1
70
1
10
0
20
0
30
0
0
VERTEX
8
ENGRAVE
10
301.541
20
103.543
30
0
0
VERTEX
8
ENGRAVE
10
301.468
20
101.793
30
0
0
VERTEX
8
ENGRAVE
10
303.145
20
101.866
30
0
0
VERTEX
8
ENGRAVE
10
303.582
20
102.230
30
0
0
VERTEX
8
ENGRAVE
10
303.655
20
102.960
30
0
0
VERTEX
8
ENGRAVE
10
303.436
20
103.324
30
0
0
VERTEX
8
ENGRAVE
10
302.853
20
103.543
30
0
0
SEQEND
8
ENGRAVE
0
POLYLINE
8
ENGRAVE
66
1
70
1
10
0
20
0
30
0
0
VERTEX
8
ENGRAVE
10
298.332
20
103.324
30
0
0
VERTEX
8
ENGRAVE
10
297.603
20
101.137
30
0
0
VERTEX
8
ENGRAVE
10
298.989
20
101.137
30
0
0
SEQEND
8
ENGRAVE
0
POLYLINE
8
ENGRAVE
66
1
70
1
10
0
20
0
30
0
0
VERTEX
8
ENGRAVE
10
312.916
20
101.282
30
0
0
VERTEX
8
ENGRAVE
10
314.374
20
101.282
30
0
0
VERTEX
8
ENGRAVE
10
314.374
20
100.845
30
0
0
VERTEX
8
ENGRAVE
10
312.843
20
100.845
30
0
0
SEQEND
8
ENGRAVE
0
POLYLINE
8
ENGRAVE
66
1
70
1
10
0
20
0
30
0
0
VERTEX
8
ENGRAVE
10
368.467
20
149.308
30
0
0
VERTEX
8
ENGRAVE
10
368.508
20
149.808
30
0
0
VERTEX
8
ENGRAVE
10
368.675
20
150.142
30
0
0
VERTEX
8
ENGRAVE
10
369.050
20
150.392
30
0
0
VERTEX
8
ENGRAVE
10
369.550
20
150.392
30
0
0
VERTEX
8
ENGRAVE
10
370.133
20
150.017
30
0
0
VERTEX
8
ENGRAVE
10
370.133
20
149.933
30
0
0
VERTEX
8
ENGRAVE
10
370.383
20
149.725
30
0
0
VERTEX
8
ENGRAVE
10
370.967
20
148.933
30
0
0
VERTEX
8
ENGRAVE
10
370.967
20
150.392
30
0
0
VERTEX
8
ENGRAVE
10
371.258
20
150.433
30
0
0
VERTEX
8
ENGRAVE
10
371.258
20
148.475
30
0
0
VERTEX
8
ENGRAVE
10
370.967
20
148.475
30
0
0
VERTEX
8
ENGRAVE
10
370.217
20
149.475
30
0
0
VERTEX
8
ENGRAVE
10
369.758
20
149.933
30
0
0
VERTEX
8
ENGRAVE
10
369.467
20
150.058
30
0
0
VERTEX
8
ENGRAVE
10
369.133
20
150.058
30
0
0
VERTEX
8
ENGRAVE
10
368.967
20
149.975
30
0
0
VERTEX
8
ENGRAVE
10
368.758
20
149.642
30
0
0
VERTEX
8
ENGRAVE
10
368.758
20
149.225
30
0
0
VERTEX
8
ENGRAVE
10
368.842
20
149.058
30
0
0
VERTEX
8
ENGRAVE
10
369.092
20
148.850
30
0
0
VERTEX
8
ENGRAVE
10
369.383
20
148.767
30
0
0
VERTEX
8
ENGRAVE
10
369.300
20
148.475
30
0
0
VERTEX
8
ENGRAVE
10
368.883
20
148.600
30
0
0
VERTEX
8
ENGRAVE
10
368.550
20
148.975
30
0
0
SEQEND
8
ENGRAVE
0
POLYLINE
8
ENGRAVE
66
1
70
1
10
0
20
0
30
0
0
VERTEX
8
ENGRAVE
10
368.508
20
146.267
30
0
0
VERTEX
8
ENGRAVE
10
368.508
20
148.183
30
0
0
VERTEX
8
ENGRAVE
10
368.800
20
148.183
30
0
0
VERTEX
8
ENGRAVE
10
368.842
20
147.392
30
0
0
VERTEX
8
ENGRAVE
10
371.258
20
147.392
30
0
0
VERTEX
8
ENGRAVE
10
371.258
20
147.058
30
0
0
VERTEX
8
ENGRAVE
10
368.800
20
147.058
30
0
0
VERTEX
8
ENGRAVE
10
368.800
20
146.267
30
0
0
SEQEND
8
ENGRAVE
0
POLYLINE
8
ENGRAVE
66
1
70
1
10
0
20
0
30
0
0
VERTEX
8
ENGRAVE
10
382.304
20
111.657
30
0
0
VERTEX
8
ENGRAVE
10
382.596
20
111.657
30
0
0
VERTEX
8
ENGRAVE
10
382.971
20
111.532
30
0
0
VERTEX
8
ENGRAVE
10
383.179
20
111.366
30
0
0
VERTEX
8
ENGRAVE
10
383.429
20
110.907
30
0
0
VERTEX
8
ENGRAVE
10
383.387
20
110.741
30
0
0
VERTEX
8
ENGRAVE
10
383.096
20
110.699
30
0
0
VERTEX
8
ENGRAVE
10
383.054
20
110.949
30
0
0
VERTEX
8
ENGRAVE
10
382.846
20
111.241
30
0
0
VERTEX
8
ENGRAVE
10
382.596
20
111.366
30
0
0
VERTEX
8
ENGRAVE
10
382.262
20
111.366
30
0
0
VERTEX
8
ENGRAVE
10
382.012
20
111.241
30
0
0
VERTEX
8
ENGRAVE
10
381.762
20
110.866
30
0
0
VERTEX
8
ENGRAVE
10
381.679
20
109.991
30
0
0
VERTEX
8
ENGRAVE
10
381.804
20
109.532
30
0
0
VERTEX
8
ENGRAVE
10
382.012
20
109.241
30
0
0
VERTEX
8
ENGRAVE
10
382.262
20
109.116
30
0
0
VERTEX
8
ENGRAVE
10
382.721
20
109.157
30
0
0
VERTEX
8
ENGRAVE
10
382.971
20
109.366
30
0
0
VERTEX
8
ENGRAVE
10
383.096
20
109.782
30
0
0
VERTEX
8
ENGRAVE
10
383.429
20
109.741
30
0
0
VERTEX
8
ENGRAVE
10
383.387
20
109.491
30
0
0
VERTEX
8
ENGRAVE
10
383.179
20
109.116
30
0
0
VERTEX
8
ENGRAVE
10
382.637
20
108.824
30
0
0
VERTEX
8
ENGRAVE
10
382.221
20
108.824
30
0
0
VERTEX
8
ENGRAVE
10
381.804
20
108.991
30
0
0
VERTEX
8
ENGRAVE
10
381.471
20
109.407
30
0
0
VERTEX
8
ENGRAVE
10
381.304
20
109.949
30
0
0
VERTEX
8
ENGRAVE
10
381.304
20
110.574
30
0
0
VERTEX
8
ENGRAVE
10
381.512
20
111.157
30
0
0
VERTEX
8
ENGRAVE
10
381.887
20
111.532
30
0
0
SEQEND
8
ENGRAVE
0
POLYLINE
8
ENGRAVE
66
1
70
1
10
0
20
0
30
0
0
VERTEX
8
ENGRAVE
10
384.762
20
111.657
30
0
0
VERTEX
8
ENGRAVE
10
385.429
20
111.532
30
0
0
VERTEX
8
ENGRAVE
10
385.804
20
111.074
30
0
0
VERTEX
8
ENGRAVE
10
385.471
20
110.949
30
0
0
VERTEX
8
ENGRAVE
10
385.429
20
111.116
30
0
0
VERTEX
8
ENGRAVE
10
385.262
20
111.282
30
0
0
VERTEX
8
ENGRAVE
10
384.721
20
111.366
30
0
0
VERTEX
8
ENGRAVE
10
384.346
20
111.116
30
0
0
VERTEX
8
ENGRAVE
10
384.179
20
110.782
30
0
0
VERTEX
8
ENGRAVE
10
384.137
20
110.199
30
0
0
VERTEX
8
ENGRAVE
10
384.429
20
110.532
30
0
0
VERTEX
8
ENGRAVE
10
384.596
20
110.616
30
0
0
VERTEX
8
ENGRAVE
10
385.137
20
110.657
30
0
0
VERTEX
8
ENGRAVE
10
385.512
20
110.491
30
0
0
VERTEX
8
ENGRAVE
10
385.804
20
110.074
30
0
0
VERTEX
8
ENGRAVE
10
385.846
20
109.616
30
0
0
VERTEX
8
ENGRAVE
10
385.679
20
109.199
30
0
0
VERTEX
8
ENGRAVE
10
385.471
20
108.991
30
0
0
VERTEX
8
ENGRAVE
10
385.096
20
108.824
30
0
0
VERTEX
8
ENGRAVE
10
384.637
20
108.824
30
0
0
VERTEX
8
ENGRAVE
10
384.304
20
108.949
30
0
0
VERTEX
8
ENGRAVE
10
384.012
20
109.241
30
0
0
VERTEX
8
ENGRAVE
10
383.804
20
109.824
30
0
0
VERTEX
8
ENGRAVE
10
383.804
20
110.574
30
0
0
VERTEX
8
ENGRAVE
10
384.012
20
111.157
30
0
0
VERTEX
8
ENGRAVE
10
384.304
20
111.491
30
0
0
SEQEND
8
ENGRAVE
0
POLYLINE
8
ENGRAVE
66
1
70
1
10
0
20
0
30
0
0
VERTEX
8
ENGRAVE
10
384.721
20
110.366
30
0
0
VERTEX
8
ENGRAVE
10
384.471
20
110.282
30
0
0
VERTEX
8
ENGRAVE
10
384.304
20
110.116
30
0
0
VERTEX
8
ENGRAVE
10
384.179
20
109.824
30
0
0
VERTEX
8
ENGRAVE
10
384.221
20
109.491
30
0
0
VERTEX
8
ENGRAVE
10
384.637
20
109.116
30
0
0
VERTEX
8
ENGRAVE
10
385.054
20
109.116
30
0
0
VERTEX
8
ENGRAVE
10
385.387
20
109.324
30
0
0
VERTEX
8
ENGRAVE
10
385.512
20
109.616
30
0
0
VERTEX
8
ENGRAVE
10
385.512
20
109.907
30
0
0
VERTEX
8
ENGRAVE
10
385.262
20
110.282
30
0
0
VERTEX
8
ENGRAVE
10
385.096
20
110.366
30
0
0
SEQEND
8
ENGRAVE
0
POLYLINE
8
ENGRAVE
66
1
70
1
10
0
20
0
30
0
0
VERTEX
8
ENGRAVE
10
193.335
20
14.283
30
0
0
VERTEX
8
ENGRAVE
10
193.335
20
14.658
30
0
0
VERTEX
8
ENGRAVE
10
193.502
20
15.116
30
0
0
VERTEX
8
ENGRAVE
10
193.793
20
15.366
30
0
0
VERTEX
8
ENGRAVE
10
194.293
20
15.533
30
0
0
VERTEX
8
ENGRAVE
10
195.127
20
15.533
30
0
0
VERTEX
8
ENGRAVE
10
195.543
20
15.408
30
0
0
VERTEX
8
ENGRAVE
10
196.002
20
15.033
30
0
0
VERTEX
8
ENGRAVE
10
196.168
20
14.616
30
0
0
VERTEX
8
ENGRAVE
10
196.168
20
14.200
30
0
0
VERTEX
8
ENGRAVE
10
196.085
20
13.950
30
0
0
VERTEX
8
ENGRAVE
10
195.668
20
13.575
30
0
0
VERTEX
8
ENGRAVE
10
195.585
20
13.616
30
0
0
VERTEX
8
ENGRAVE
10
195.543
20
13.866
30
0
0
VERTEX
8
ENGRAVE
10
195.668
20
13.908
30
0
0
VERTEX
8
ENGRAVE
10
195.877
20
14.200
30
0
0
VERTEX
8
ENGRAVE
10
195.877
20
14.700
30
0
0
VERTEX
8
ENGRAVE
10
195.668
20
14.991
30
0
0
VERTEX
8
ENGRAVE
10
195.335
20
15.158
30
0
0
VERTEX
8
ENGRAVE
10
194.710
20
15.241
30
0
0
VERTEX
8
ENGRAVE
10
195.127
20
14.783
30
0
0
VERTEX
8
ENGRAVE
10
195.168
20
14.200
30
0
0
VERTEX
8
ENGRAVE
10
195.043
20
13.908
30
0
0
VERTEX
8
ENGRAVE
10
194.543
20
13.533
30
0
0
VERTEX
8
ENGRAVE
10
194.002
20
13.533
30
0
0
VERTEX
8
ENGRAVE
10
193.793
20
13.616
30
0
0
VERTEX
8
ENGRAVE
10
193.543
20
13.825
30
0
0
SEQEND
8
ENGRAVE
0
POLYLINE
8
ENGRAVE
66
1
70
1
10
0
20
0
30
0
0
VERTEX
8
ENGRAVE
10
193.377
20
11.033
30
0
0
VERTEX
8
ENGRAVE
10
193.377
20
11.366
30
0
0
VERTEX
8
ENGRAVE
10
194.502
20
11.366
30
0
0
VERTEX
8
ENGRAVE
10
194.502
20
12.658
30
0
0
VERTEX
8
ENGRAVE
10
193.377
20
12.658
30
0
0
VERTEX
8
ENGRAVE
10
193.377
20
12.991
30
0
0
VERTEX
8
ENGRAVE
10
196.127
20
12.991
30
0
0
VERTEX
8
ENGRAVE
10
196.127
20
12.658
30
0
0
VERTEX
8
ENGRAVE
10
194.835
20
12.658
30
0
0
VERTEX
8
ENGRAVE
10
194.835
20
11.366
30
0
0
VERTEX
8
ENGRAVE
10
196.127
20
11.366
30
0
0
VERTEX
8
ENGRAVE
10
196.127
20
11.033
30
0
0
SEQEND
8
ENGRAVE
0
POLYLINE
8
ENGRAVE
66
1
70
1
10
0
20
0
30
0
0
VERTEX
8
ENGRAVE
10
193.627
20
14.408
30
0
0
VERTEX
8
ENGRAVE
10
193.710
20
14.116
30
0
0
VERTEX
8
ENGRAVE
10
193.877
20
13.950
30
0
0
VERTEX
8
ENGRAVE
10
194.043
20
13.866
30
0
0
VERTEX
8
ENGRAVE
10
194.502
20
13.866
30
0
0
VERTEX
8
ENGRAVE
10
194.835
20
14.158
30
0
0
VERTEX
8
ENGRAVE
10
194.877
20
14.741
30
0
0
VERTEX
8
ENGRAVE
10
194.668
20
15.033
30
0
0
VERTEX
8
ENGRAVE
10
194.418
20
15.158
30
0
0
VERTEX
8
ENGRAVE
10
194.085
20
15.158
30
0
0
VERTEX
8
ENGRAVE
10
193.710
20
14.908
30
0
0
SEQEND
8
ENGRAVE
0
POLYLINE
8
ENGRAVE
66
1
70
1
10
0
20
0
30
0
0
VERTEX
8
ENGRAVE
10
237.485
20
15.575
30
0
0
VERTEX
8
ENGRAVE
10
237.485
20
15.866
30
0
0
VERTEX
8
ENGRAVE
10
237.610
20
16.241
30
0
0
VERTEX
8
ENGRAVE
10
237.902
20
16.533
30
0
0
VERTEX
8
ENGRAVE
10
238.610
20
16.783
30
0
0
VERTEX
8
ENGRAVE
10
239.235
20
16.783
30
0
0
VERTEX
8
ENGRAVE
10
239.902
20
16.533
30
0
0
VERTEX
8
ENGRAVE
10
240.193
20
16.241
30
0
0
VERTEX
8
ENGRAVE
10
240.318
20
15.908
30
0
0
VERTEX
8
ENGRAVE
10
240.318
20
15.575
30
0
0
VERTEX
8
ENGRAVE
10
240.193
20
15.241
30
0
0
VERTEX
8
ENGRAVE
10
239.902
20
14.950
30
0
0
VERTEX
8
ENGRAVE
10
239.193
20
14.700
30
0
0
VERTEX
8
ENGRAVE
10
238.610
20
14.700
30
0
0
VERTEX
8
ENGRAVE
10
238.110
20
14.825
30
0
0
VERTEX
8
ENGRAVE
10
237.693
20
15.116
30
0
0
SEQEND
8
ENGRAVE
0
POLYLINE
8
ENGRAVE
66
1
70
1
10
0
20
0
30
0
0
VERTEX
8
ENGRAVE
10
237.527
20
9.825
30
0
0
VERTEX
8
ENGRAVE
10
237.527
20
10.158
30
0
0
VERTEX
8
ENGRAVE
10
238.652
20
10.158
30
0
0
VERTEX
8
ENGRAVE
10
238.652
20
11.450
30
0
0
VERTEX
8
ENGRAVE
10
237.527
20
11.450
30
0
0
VERTEX
8
ENGRAVE
10
237.527
20
11.783
30
0
0
VERTEX
8
ENGRAVE
10
240.277
20
11.783
30
0
0
VERTEX
8
ENGRAVE
10
240.277
20
11.450
30
0
0
VERTEX
8
ENGRAVE
10
238.985
20
11.450
30
0
0
VERTEX
8
ENGRAVE
10
238.985
20
10.158
30
0
0
VERTEX
8
ENGRAVE
10
240.277
20
10.158
30
0
0
VERTEX
8
ENGRAVE
10
240.277
20
9.825
30
0
0
SEQEND
8
ENGRAVE
0
POLYLINE
8
ENGRAVE
66
1
70
1
10
0
20
0
30
0
0
VERTEX
8
ENGRAVE
10
237.527
20
13.325
30
0
0
VERTEX
8
ENGRAVE
10
237.568
20
13.616
30
0
0
VERTEX
8
ENGRAVE
10
240.027
20
13.616
30
0
0
VERTEX
8
ENGRAVE
10
240.027
20
14.366
30
0
0
VERTEX
8
ENGRAVE
10
240.277
20
14.366
30
0
0
VERTEX
8
ENGRAVE
10
240.277
20
12.450
30
0
0
VERTEX
8
ENGRAVE
10
240.027
20
12.450
30
0
0
VERTEX
8
ENGRAVE
10
240.027
20
13.241
30
0
0
VERTEX
8
ENGRAVE
10
237.985
20
13.241
30
0
0
VERTEX
8
ENGRAVE
10
238.527
20
12.575
30
0
0
VERTEX
8
ENGRAVE
10
238.527
20
12.491
30
0
0
VERTEX
8
ENGRAVE
10
238.193
20
12.491
30
0
0
VERTEX
8
ENGRAVE
10
237.943
20
12.950
30
0
0
SEQEND
8
ENGRAVE
0
POLYLINE
8
ENGRAVE
66
1
70
1
10
0
20
0
30
0
0
VERTEX
8
ENGRAVE
10
237.777
20
15.533
30
0
0
VERTEX
8
ENGRAVE
10
237.985
20
15.241
30
0
0
VERTEX
8
ENGRAVE
10
238.277
20
15.116
30
0
0
VERTEX
8
ENGRAVE
10
239.318
20
15.075
30
0
0
VERTEX
8
ENGRAVE
10
239.902
20
15.325
30
0
0
VERTEX
8
ENGRAVE
10
240.027
20
15.491
30
0
0
VERTEX
8
ENGRAVE
10
240.068
20
15.783
30
0
0
VERTEX
8
ENGRAVE
10
239.943
20
16.116
30
0
0
VERTEX
8
ENGRAVE
10
239.652
20
16.325
30
0
0
VERTEX
8
ENGRAVE
10
239.360
20
16.408
30
0
0
VERTEX
8
ENGRAVE
10
238.485
20
16.408
30
0
0
VERTEX
8
ENGRAVE
10
238.027
20
16.241
30
0
0
VERTEX
8
ENGRAVE
10
237.818
20
16.033
30
0
0
SEQEND
8
ENGRAVE
0
POLYLINE
8
ENGRAVE
66
1
70
1
10
0
20
0
30
0
0
VERTEX
8
ENGRAVE
10
239.617
20
157.595
30
0
0
VERTEX
8
ENGRAVE
10
239.617
20
157.928
30
0
0
VERTEX
8
ENGRAVE
10
239.783
20
158.345
30
0
0
VERTEX
8
ENGRAVE
10
240.075
20
158.595
30
0
0
VERTEX
8
ENGRAVE
10
240.367
20
158.720
30
0
0
VERTEX
8
ENGRAVE
10
240.533
20
158.720
30
0
0
VERTEX
8
ENGRAVE
10
240.575
20
158.428
30
0
0
VERTEX
8
ENGRAVE
10
240.158
20
158.262
30
0
0
VERTEX
8
ENGRAVE
10
239.908
20
157.887
30
0
0
VERTEX
8
ENGRAVE
10
239.992
20
157.387
30
0
0
VERTEX
8
ENGRAVE
10
240.325
20
157.095
30
0
0
VERTEX
8
ENGRAVE
10
240.950
20
156.970
30
0
0
VERTEX
8
ENGRAVE
10
241.450
20
157.012
30
0
0
VERTEX
8
ENGRAVE
10
241.867
20
157.178
30
0
0
VERTEX
8
ENGRAVE
10
242.075
20
157.387
30
0
0
VERTEX
8
ENGRAVE
10
242.158
20
157.553
30
0
0
VERTEX
8
ENGRAVE
10
242.158
20
157.928
30
0
0
VERTEX
8
ENGRAVE
10
241.867
20
158.303
30
0
0
VERTEX
8
ENGRAVE
10
241.492
20
158.428
30
0
0
VERTEX
8
ENGRAVE
10
241.533
20
158.720
30
0
0
VERTEX
8
ENGRAVE
10
241.825
20
158.678
30
0
0
VERTEX
8
ENGRAVE
10
242.117
20
158.512
30
0
0
VERTEX
8
ENGRAVE
10
242.450
20
157.970
30
0
0
VERTEX
8
ENGRAVE
10
242.408
20
157.345
30
0
0
VERTEX
8
ENGRAVE
10
242.158
20
156.970
30
0
0
VERTEX
8
ENGRAVE
10
241.742
20
156.720
30
0
0
VERTEX
8
ENGRAVE
10
241.242
20
156.595
30
0
0
VERTEX
8
ENGRAVE
10
240.575
20
156.637
30
0
0
VERTEX
8
ENGRAVE
10
240.117
20
156.803
30
0
0
VERTEX
8
ENGRAVE
10
239.700
20
157.262
30
0
0
SEQEND
8
ENGRAVE
0
POLYLINE
8
ENGRAVE
66
1
70
1
10
0
20
0
30
0
0
VERTEX
8
ENGRAVE
10
239.617
20
162.345
30
0
0
VERTEX
8
ENGRAVE
10
239.658
20
162.928
30
0
0
VERTEX
8
ENGRAVE
10
239.783
20
163.178
30
0
0
VERTEX
8
ENGRAVE
10
239.950
20
163.345
30
0
0
VERTEX
8
ENGRAVE
10
240.283
20
163.470
30
0
0
VERTEX
8
ENGRAVE
10
240.742
20
163.345
30
0
0
VERTEX
8
ENGRAVE
10
240.992
20
162.928
30
0
0
VERTEX
8
ENGRAVE
10
240.992
20
163.095
30
0
0
VERTEX
8
ENGRAVE
10
241.200
20
163.428
30
0
0
VERTEX
8
ENGRAVE
10
241.450
20
163.553
30
0
0
VERTEX
8
ENGRAVE
10
241.950
20
163.512
30
0
0
VERTEX
8
ENGRAVE
10
242.283
20
163.220
30
0
0
VERTEX
8
ENGRAVE
10
242.450
20
162.720
30
0
0
VERTEX
8
ENGRAVE
10
242.408
20
162.095
30
0
0
VERTEX
8
ENGRAVE
10
242.200
20
161.720
30
0
0
VERTEX
8
ENGRAVE
10
241.825
20
161.470
30
0
0
VERTEX
8
ENGRAVE
10
241.742
20
161.512
30
0
0
VERTEX
8
ENGRAVE
10
241.700
20
161.803
30
0
0
VERTEX
8
ENGRAVE
10
241.908
20
161.887
30
0
0
VERTEX
8
ENGRAVE
10
242.158
20
162.220
30
0
0
VERTEX
8
ENGRAVE
10
242.117
20
162.928
30
0
0
VERTEX
8
ENGRAVE
10
241.825
20
163.178
30
0
0
VERTEX
8
ENGRAVE
10
241.450
20
163.178
30
0
0
VERTEX
8
ENGRAVE
10
241.242
20
163.012
30
0
0
VERTEX
8
ENGRAVE
10
241.117
20
162.637
30
0
0
VERTEX
8
ENGRAVE
10
241.117
20
162.137
30
0
0
VERTEX
8
ENGRAVE
10
240.825
20
162.178
30
0
0
VERTEX
8
ENGRAVE
10
240.825
20
162.762
30
0
0
VERTEX
8
ENGRAVE
10
240.617
20
163.053
30
0
0
VERTEX
8
ENGRAVE
10
240.200
20
163.095
30
0
0
VERTEX
8
ENGRAVE
10
239.992
20
162.928
30
0
0
VERTEX
8
ENGRAVE
10
239.908
20
162.762
30
0
0
VERTEX
8
ENGRAVE
10
239.908
20
162.303
30
0
0
VERTEX
8
ENGRAVE
10
240.033
20
162.053
30
0
0
VERTEX
8
ENGRAVE
10
240.325
20
161.887
30
0
0
VERTEX
8
ENGRAVE
10
240.283
20
161.595
30
0
0
VERTEX
8
ENGRAVE
10
240.075
20
161.637
30
0
0
VERTEX
8
ENGRAVE
10
239.825
20
161.845
30
0
0
SEQEND
8
ENGRAVE
0
POLYLINE
8
ENGRAVE
66
1
70
1
10
0
20
0
30
0
0
VERTEX
8
ENGRAVE
10
239.658
20
160.095
30
0
0
VERTEX
8
ENGRAVE
10
239.658
20
160.387
30
0
0
VERTEX
8
ENGRAVE
10
242.158
20
160.387
30
0
0
VERTEX
8
ENGRAVE
10
242.158
20
161.137
30
0
0
VERTEX
8
ENGRAVE
10
242.408
20
161.137
30
0
0
VERTEX
8
ENGRAVE
10
242.408
20
159.220
30
0
0
VERTEX
8
ENGRAVE
10
242.158
20
159.220
30
0
0
VERTEX
8
ENGRAVE
10
242.158
20
160.053
30
0
0
VERTEX
8
ENGRAVE
10
240.117
20
160.053
30
0
0
VERTEX
8
ENGRAVE
10
240.658
20
159.345
30
0
0
VERTEX
8
ENGRAVE
10
240.283
20
159.303
30
0
0
VERTEX
8
ENGRAVE
10
240.117
20
159.678
30
0
0
VERTEX
8
ENGRAVE
10
239.742
20
160.095
30
0
0
SEQEND
8
ENGRAVE
0
POLYLINE
8
ENGRAVE
66
1
70
1
10
0
20
0
30
0
0
VERTEX
8
ENGRAVE
10
384.804
20
36.731
30
0
0
VERTEX
8
ENGRAVE
10
385.096
20
36.731
30
0
0
VERTEX
8
ENGRAVE
10
385.471
20
36.606
30
0
0
VERTEX
8
ENGRAVE
10
385.679
20
36.439
30
0
0
VERTEX
8
ENGRAVE
10
385.929
20
35.981
30
0
0
VERTEX
8
ENGRAVE
10
385.887
20
35.814
30
0
0
VERTEX
8
ENGRAVE
10
385.596
20
35.773
30
0
0
VERTEX
8
ENGRAVE
10
385.554
20
36.023
30
0
0
VERTEX
8
ENGRAVE
10
385.346
20
36.314
30
0
0
VERTEX
8
ENGRAVE
10
385.096
20
36.439
30
0
0
VERTEX
8
ENGRAVE
10
384.762
20
36.439
30
0
0
VERTEX
8
ENGRAVE
10
384.512
20
36.314
30
0
0
VERTEX
8
ENGRAVE
10
384.262
20
35.939
30
0
0
VERTEX
8
ENGRAVE
10
384.179
20
35.064
30
0
0
VERTEX
8
ENGRAVE
10
384.304
20
34.606
30
0
0
VERTEX
8
ENGRAVE
10
384.512
20
34.314
30
0
0
VERTEX
8
ENGRAVE
10
384.762
20
34.189
30
0
0
VERTEX
8
ENGRAVE
10
385.221
20
34.231
30
0
0
VERTEX
8
ENGRAVE
10
385.471
20
34.439
30
0
0
VERTEX
8
ENGRAVE
10
385.596
20
34.856
30
0
0
VERTEX
8
ENGRAVE
10
385.929
20
34.814
30
0
0
VERTEX
8
ENGRAVE
10
385.887
20
34.564
30
0
0
VERTEX
8
ENGRAVE
10
385.679
20
34.189
30
0
0
VERTEX
8
ENGRAVE
10
385.137
20
33.898
30
0
0
VERTEX
8
ENGRAVE
10
384.721
20
33.898
30
0
0
VERTEX
8
ENGRAVE
10
384.304
20
34.064
30
0
0
VERTEX
8
ENGRAVE
10
383.971
20
34.481
30
0
0
VERTEX
8
ENGRAVE
10
383.804
20
35.023
30
0
0
VERTEX
8
ENGRAVE
10
383.804
20
35.648
30
0
0
VERTEX
8
ENGRAVE
10
384.012
20
36.231
30
0
0
VERTEX
8
ENGRAVE
10
384.387
20
36.606
30
0
0
SEQEND
8
ENGRAVE
0
POLYLINE
8
ENGRAVE
66
1
70
1
10
0
20
0
30
0
0
VERTEX
8
ENGRAVE
10
386.429
20
36.689
30
0
0
VERTEX
8
ENGRAVE
10
388.262
20
36.648
30
0
0
VERTEX
8
ENGRAVE
10
388.221
20
36.398
30
0
0
VERTEX
8
ENGRAVE
10
387.804
20
35.898
30
0
0
VERTEX
8
ENGRAVE
10
387.512
20
35.314
30
0
0
VERTEX
8
ENGRAVE
10
387.304
20
34.564
30
0
0
VERTEX
8
ENGRAVE
10
387.262
20
33.939
30
0
0
VERTEX
8
ENGRAVE
10
386.929
20
33.939
30
0
0
VERTEX
8
ENGRAVE
10
386.971
20
34.648
30
0
0
VERTEX
8
ENGRAVE
10
387.179
20
35.314
30
0
0
VERTEX
8
ENGRAVE
10
387.846
20
36.398
30
0
0
VERTEX
8
ENGRAVE
10
386.387
20
36.398
30
0
0
SEQEND
8
ENGRAVE
0
POLYLINE
8
ENGRAVE
66
1
70
1
10
0
20
0
30
0
0
VERTEX
8
ENGRAVE
10
9.422
20
9.458
30
0
0
VERTEX
8
ENGRAVE
10
9.422
20
9.611
30
0
0
VERTEX
8
ENGRAVE
10
9.488
20
9.808
30
0
0
VERTEX
8
ENGRAVE
10
9.575
20
9.917
30
0
0
VERTEX
8
ENGRAVE
10
9.816
20
10.048
30
0
0
VERTEX
8
ENGRAVE
10
9.903
20
10.027
30
0
0
VERTEX
8
ENGRAVE
10
9.925
20
9.873
30
0
0
VERTEX
8
ENGRAVE
10
9.794
20
9.852
30
0
0
VERTEX
8
ENGRAVE
10
9.641
20
9.742
30
0
0
VERTEX
8
ENGRAVE
10
9.575
20
9.611
30
0
0
VERTEX
8
ENGRAVE
10
9.575
20
9.436
30
0
0
VERTEX
8
ENGRAVE
10
9.641
20
9.305
30
0
0
VERTEX
8
ENGRAVE
10
9.838
20
9.173
30
0
0
VERTEX
8
ENGRAVE
10
10.297
20
9.130
30
0
0
VERTEX
8
ENGRAVE
10
10.538
20
9.195
30
0
0
VERTEX
8
ENGRAVE
10
10.691
20
9.305
30
0
0
VERTEX
8
ENGRAVE
10
10.756
20
9.436
30
0
0
VERTEX
8
ENGRAVE
10
10.735
20
9.677
30
0
0
VERTEX
8
ENGRAVE
10
10.625
20
9.808
30
0
0
VERTEX
8
ENGRAVE
10
10.406
20
9.873
30
0
0
VERTEX
8
ENGRAVE
10
10.428
20
10.048
30
0
0
VERTEX
8
ENGRAVE
10
10.560
20
10.027
30
0
0
VERTEX
8
ENGRAVE
10
10.756
20
9.917
30
0
0
VERTEX
8
ENGRAVE
10
10.910
20
9.633
30
0
0
VERTEX
8
ENGRAVE
10
10.910
20
9.414
30
0
0
VERTEX
8
ENGRAVE
10
10.822
20
9.195
30
0
0
VERTEX
8
ENGRAVE
10
10.603
20
9.020
30
0
0
VERTEX
8
ENGRAVE
10
10.319
20
8.933
30
0
0
VERTEX
8
ENGRAVE
10
9.991
20
8.933
30
0
0
VERTEX
8
ENGRAVE
10
9.685
20
9.042
30
0
0
VERTEX
8
ENGRAVE
10
9.488
20
9.239
30
0
0
SEQEND
8
ENGRAVE
0
POLYLINE
8
ENGRAVE
66
1
70
1
10
0
20
0
30
0
0
VERTEX
8
ENGRAVE
10
9.422
20
10.705
30
0
0
VERTEX
8
ENGRAVE
10
9.444
20
11.011
30
0
0
VERTEX
8
ENGRAVE
10
9.531
20
11.164
30
0
0
VERTEX
8
ENGRAVE
10
9.706
20
11.273
30
0
0
VERTEX
8
ENGRAVE
10
9.969
20
11.230
30
0
0
VERTEX
8
ENGRAVE
10
10.122
20
11.011
30
0
0
VERTEX
8
ENGRAVE
10
10.297
20
11.273
30
0
0
VERTEX
8
ENGRAVE
10
10.450
20
11.339
30
0
0
VERTEX
8
ENGRAVE
10
10.647
20
11.317
30
0
0
VERTEX
8
ENGRAVE
10
10.800
20
11.208
30
0
0
VERTEX
8
ENGRAVE
10
10.910
20
10.902
30
0
0
VERTEX
8
ENGRAVE
10
10.910
20
10.639
30
0
0
VERTEX
8
ENGRAVE
10
10.866
20
10.486
30
0
0
VERTEX
8
ENGRAVE
10
10.778
20
10.333
30
0
0
VERTEX
8
ENGRAVE
10
10.625
20
10.223
30
0
0
VERTEX
8
ENGRAVE
10
10.428
20
10.223
30
0
0
VERTEX
8
ENGRAVE
10
10.297
20
10.289
30
0
0
VERTEX
8
ENGRAVE
10
10.188
20
10.420
30
0
0
VERTEX
8
ENGRAVE
10
10.144
20
10.552
30
0
0
VERTEX
8
ENGRAVE
10
10.013
20
10.355
30
0
0
VERTEX
8
ENGRAVE
10
9.860
20
10.289
30
0
0
VERTEX
8
ENGRAVE
10
9.663
20
10.311
30
0
0
VERTEX
8
ENGRAVE
10
9.510
20
10.442
30
0
0
SEQEND
8
ENGRAVE
0
POLYLINE
8
ENGRAVE
66
1
70
1
10
0
20
0
30
0
0
VERTEX
8
ENGRAVE
10
9.553
20
10.748
30
0
0
VERTEX
8
ENGRAVE
10
9.597
20
10.573
30
0
0
VERTEX
8
ENGRAVE
10
9.663
20
10.508
30
0
0
VERTEX
8
ENGRAVE
10
9.881
20
10.486
30
0
0
VERTEX
8
ENGRAVE
10
9.969
20
10.573
30
0
0
VERTEX
8
ENGRAVE
10
10.056
20
10.792
30
0
0
VERTEX
8
ENGRAVE
10
9.969
20
11.011
30
0
0
VERTEX
8
ENGRAVE
10
9.881
20
11.098
30
0
0
VERTEX
8
ENGRAVE
10
9.772
20
11.120
30
0
0
VERTEX
8
ENGRAVE
10
9.685
20
11.098
30
0
0
VERTEX
8
ENGRAVE
10
9.597
20
11.011
30
0
0
SEQEND
8
ENGRAVE
0
POLYLINE
8
ENGRAVE
66
1
70
1
10
0
20
0
30
0
0
VERTEX
8
ENGRAVE
10
10.210
20
10.770
30
0
0
VERTEX
8
ENGRAVE
10
10.341
20
10.464
30
0
0
VERTEX
8
ENGRAVE
10
10.450
20
10.398
30
0
0
VERTEX
8
ENGRAVE
10
10.581
20
10.398
30
0
0
VERTEX
8
ENGRAVE
10
10.691
20
10.464
30
0
0
VERTEX
8
ENGRAVE
10
10.756
20
10.595
30
0
0
VERTEX
8
ENGRAVE
10
10.756
20
10.967
30
0
0
VERTEX
8
ENGRAVE
10
10.625
20
11.142
30
0
0
VERTEX
8
ENGRAVE
10
10.428
20
11.142
30
0
0
VERTEX
8
ENGRAVE
10
10.319
20
11.033
30
0
0
SEQEND
8
ENGRAVE
0
POLYLINE
8
ENGRAVE
66
1
70
1
10
0
20
0
30
0
0
VERTEX
8
ENGRAVE
10
22.298
20
9.458
30
0
0
VERTEX
8
ENGRAVE
10
22.298
20
9.611
30
0
0
VERTEX
8
ENGRAVE
10
22.363
20
9.808
30
0
0
VERTEX
8
ENGRAVE
10
22.451
20
9.917
30
0
0
VERTEX
8
ENGRAVE
10
22.691
20
10.048
30
0
0
VERTEX
8
ENGRAVE
10
22.779
20
10.027
30
0
0
VERTEX
8
ENGRAVE
10
22.801
20
9.873
30
0
0
VERTEX
8
ENGRAVE
10
22.669
20
9.852
30
0
0
VERTEX
8
ENGRAVE
10
22.516
20
9.742
30
0
0
VERTEX
8
ENGRAVE
10
22.451
20
9.611
30
0
0
VERTEX
8
ENGRAVE
10
22.451
20
9.436
30
0
0
VERTEX
8
ENGRAVE
10
22.516
20
9.305
30
0
0
VERTEX
8
ENGRAVE
10
22.713
20
9.173
30
0
0
VERTEX
8
ENGRAVE
10
23.173
20
9.130
30
0
0
VERTEX
8
ENGRAVE
10
23.413
20
9.195
30
0
0
VERTEX
8
ENGRAVE
10
23.566
20
9.305
30
0
0
VERTEX
8
ENGRAVE
10
23.632
20
9.436
30
0
0
VERTEX
8
ENGRAVE
10
23.610
20
9.677
30
0
0
VERTEX
8
ENGRAVE
10
23.501
20
9.808
30
0
0
VERTEX
8
ENGRAVE
10
23.282
20
9.873
30
0
0
VERTEX
8
ENGRAVE
10
23.304
20
10.048
30
0
0
VERTEX
8
ENGRAVE
10
23.435
20
10.027
30
0
0
VERTEX
8
ENGRAVE
10
23.632
20
9.917
30
0
0
VERTEX
8
ENGRAVE
10
23.785
20
9.633
30
0
0
VERTEX
8
ENGRAVE
10
23.785
20
9.414
30
0
0
VERTEX
8
ENGRAVE
10
23.698
20
9.195
30
0
0
VERTEX
8
ENGRAVE
10
23.479
20
9.020
30
0
0
VERTEX
8
ENGRAVE
10
23.194
20
8.933
30
0
0
VERTEX
8
ENGRAVE
10
22.866
20
8.933
30
0
0
VERTEX
8
ENGRAVE
10
22.560
20
9.042
30
0
0
VERTEX
8
ENGRAVE
10
22.363
20
9.239
30
0
0
SEQEND
8
ENGRAVE
0
POLYLINE
8
ENGRAVE
66
1
70
1
10
0
20
0
30
0
0
VERTEX
8
ENGRAVE
10
22.298
20
10.639
30
0
0
VERTEX
8
ENGRAVE
10
22.298
20
10.836
30
0
0
VERTEX
8
ENGRAVE
10
22.385
20
11.077
30
0
0
VERTEX
8
ENGRAVE
10
22.494
20
11.186
30
0
0
VERTEX
8
ENGRAVE
10
22.669
20
11.273
30
0
0
VERTEX
8
ENGRAVE
10
22.932
20
11.317
30
0
0
VERTEX
8
ENGRAVE
10
23.260
20
11.295
30
0
0
VERTEX
8
ENGRAVE
10
23.544
20
11.186
30
0
0
VERTEX
8
ENGRAVE
10
23.719
20
11.011
30
0
0
VERTEX
8
ENGRAVE
10
23.785
20
10.814
30
0
0
VERTEX
8
ENGRAVE
10
23.763
20
10.530
30
0
0
VERTEX
8
ENGRAVE
10
23.676
20
10.377
30
0
0
VERTEX
8
ENGRAVE
10
23.544
20
10.289
30
0
0
VERTEX
8
ENGRAVE
10
23.479
20
10.289
30
0
0
VERTEX
8
ENGRAVE
10
23.457
20
10.442
30
0
0
VERTEX
8
ENGRAVE
10
23.544
20
10.464
30
0
0
VERTEX
8
ENGRAVE
10
23.632
20
10.595
30
0
0
VERTEX
8
ENGRAVE
10
23.632
20
10.858
30
0
0
VERTEX
8
ENGRAVE
10
23.501
20
11.033
30
0
0
VERTEX
8
ENGRAVE
10
23.282
20
11.120
30
0
0
VERTEX
8
ENGRAVE
10
23.019
20
11.142
30
0
0
VERTEX
8
ENGRAVE
10
23.194
20
10.989
30
0
0
VERTEX
8
ENGRAVE
10
23.238
20
10.902
30
0
0
VERTEX
8
ENGRAVE
10
23.260
20
10.617
30
0
0
VERTEX
8
ENGRAVE
10
23.194
20
10.442
30
0
0
VERTEX
8
ENGRAVE
10
22.976
20
10.267
30
0
0
VERTEX
8
ENGRAVE
10
22.669
20
10.245
30
0
0
VERTEX
8
ENGRAVE
10
22.516
20
10.311
30
0
0
VERTEX
8
ENGRAVE
10
22.341
20
10.508
30
0
0
SEQEND
8
ENGRAVE
0
POLYLINE
8
ENGRAVE
66
1
70
1
10
0
20
0
30
0
0
VERTEX
8
ENGRAVE
10
22.451
20
10.705
30
0
0
VERTEX
8
ENGRAVE
10
22.582
20
10.464
30
0
0
VERTEX
8
ENGRAVE
10
22.691
20
10.420
30
0
0
VERTEX
8
ENGRAVE
10
22.888
20
10.420
30
0
0
VERTEX
8
ENGRAVE
10
23.019
20
10.486
30
0
0
VERTEX
8
ENGRAVE
10
23.107
20
10.639
30
0
0
VERTEX
8
ENGRAVE
10
23.107
20
10.880
30
0
0
VERTEX
8
ENGRAVE
10
22.932
20
11.077
30
0
0
VERTEX
8
ENGRAVE
10
22.669
20
11.098
30
0
0
VERTEX
8
ENGRAVE
10
22.494
20
10.967
30
0
0
SEQEND
8
ENGRAVE
0
POLYLINE
8
ENGRAVE
66
1
70
1
10
0
20
0
30
0
0
VERTEX
8
ENGRAVE
10
35.173
20
8.823
30
0
0
VERTEX
8
ENGRAVE
10
35.173
20
8.998
30
0
0
VERTEX
8
ENGRAVE
10
35.260
20
9.217
30
0
0
VERTEX
8
ENGRAVE
10
35.414
20
9.348
30
0
0
VERTEX
8
ENGRAVE
10
35.567
20
9.414
30
0
0
VERTEX
8
ENGRAVE
10
35.654
20
9.414
30
0
0
VERTEX
8
ENGRAVE
10
35.676
20
9.261
30
0
0
VERTEX
8
ENGRAVE
10
35.457
20
9.173
30
0
0
VERTEX
8
ENGRAVE
10
35.326
20
8.977
30
0
0
VERTEX
8
ENGRAVE
10
35.370
20
8.714
30
0
0
VERTEX
8
ENGRAVE
10
35.545
20
8.561
30
0
0
VERTEX
8
ENGRAVE
10
35.873
20
8.495
30
0
0
VERTEX
8
ENGRAVE
10
36.135
20
8.517
30
0
0
VERTEX
8
ENGRAVE
10
36.354
20
8.605
30
0
0
VERTEX
8
ENGRAVE
10
36.464
20
8.714
30
0
0
VERTEX
8
ENGRAVE
10
36.507
20
8.802
30
0
0
VERTEX
8
ENGRAVE
10
36.507
20
8.998
30
0
0
VERTEX
8
ENGRAVE
10
36.354
20
9.195
30
0
0
VERTEX
8
ENGRAVE
10
36.157
20
9.261
30
0
0
VERTEX
8
ENGRAVE
10
36.179
20
9.414
30
0
0
VERTEX
8
ENGRAVE
10
36.332
20
9.392
30
0
0
VERTEX
8
ENGRAVE
10
36.485
20
9.305
30
0
0
VERTEX
8
ENGRAVE
10
36.660
20
9.020
30
0
0
VERTEX
8
ENGRAVE
10
36.639
20
8.692
30
0
0
VERTEX
8
ENGRAVE
10
36.507
20
8.495
30
0
0
VERTEX
8
ENGRAVE
10
36.289
20
8.364
30
0
0
VERTEX
8
ENGRAVE
10
36.026
20
8.298
30
0
0
VERTEX
8
ENGRAVE
10
35.676
20
8.320
30
0
0
VERTEX
8
ENGRAVE
10
35.435
20
8.408
30
0
0
VERTEX
8
ENGRAVE
10
35.217
20
8.648
30
0
0
SEQEND
8
ENGRAVE
0
POLYLINE
8
ENGRAVE
66
1
70
1
10
0
20
0
30
0
0
VERTEX
8
ENGRAVE
10
35.173
20
11.317
30
0
0
VERTEX
8
ENGRAVE
10
35.173
20
11.470
30
0
0
VERTEX
8
ENGRAVE
10
35.239
20
11.667
30
0
0
VERTEX
8
ENGRAVE
10
35.392
20
11.820
30
0
0
VERTEX
8
ENGRAVE
10
35.764
20
11.952
30
0
0
VERTEX
8
ENGRAVE
10
36.092
20
11.952
30
0
0
VERTEX
8
ENGRAVE
10
36.442
20
11.820
30
0
0
VERTEX
8
ENGRAVE
10
36.595
20
11.667
30
0
0
VERTEX
8
ENGRAVE
10
36.660
20
11.492
30
0
0
VERTEX
8
ENGRAVE
10
36.660
20
11.317
30
0
0
VERTEX
8
ENGRAVE
10
36.595
20
11.142
30
0
0
VERTEX
8
ENGRAVE
10
36.442
20
10.989
30
0
0
VERTEX
8
ENGRAVE
10
36.070
20
10.858
30
0
0
VERTEX
8
ENGRAVE
10
35.764
20
10.858
30
0
0
VERTEX
8
ENGRAVE
10
35.501
20
10.923
30
0
0
VERTEX
8
ENGRAVE
10
35.282
20
11.077
30
0
0
SEQEND
8
ENGRAVE
0
POLYLINE
8
ENGRAVE
66
1
70
1
10
0
20
0
30
0
0
VERTEX
8
ENGRAVE
10
35.195
20
10.136
30
0
0
VERTEX
8
ENGRAVE
10
35.195
20
10.289
30
0
0
VERTEX
8
ENGRAVE
10
36.507
20
10.289
30
0
0
VERTEX
8
ENGRAVE
10
36.507
20
10.683
30
0
0
VERTEX
8
ENGRAVE
10
36.639
20
10.683
30
0
0
VERTEX
8
ENGRAVE
10
36.639
20
9.677
30
0
0
VERTEX
8
ENGRAVE
10
36.507
20
9.677
30
0
0
VERTEX
8
ENGRAVE
10
36.507
20
10.114
30
0
0
VERTEX
8
ENGRAVE
10
35.435
20
10.114
30
0
0
VERTEX
8
ENGRAVE
10
35.720
20
9.742
30
0
0
VERTEX
8
ENGRAVE
10
35.523
20
9.720
30
0
0
VERTEX
8
ENGRAVE
10
35.435
20
9.917
30
0
0
VERTEX
8
ENGRAVE
10
35.239
20
10.136
30
0
0
SEQEND
8
ENGRAVE
0
POLYLINE
8
ENGRAVE
66
1
70
1
10
0
20
0
30
0
0
VERTEX
8
ENGRAVE
10
35.326
20
11.295
30
0
0
VERTEX
8
ENGRAVE
10
35.435
20
11.142
30
0
0
VERTEX
8
ENGRAVE
10
35.589
20
11.077
30
0
0
VERTEX
8
ENGRAVE
10
36.135
20
11.055
30
0
0
VERTEX
8
ENGRAVE
10
36.442
20
11.186
30
0
0
VERTEX
8
ENGRAVE
10
36.507
20
11.273
30
0
0
VERTEX
8
ENGRAVE
10
36.529
20
11.427
30
0
0
VERTEX
8
ENGRAVE
10
36.464
20
11.602
30
0
0
VERTEX
8
ENGRAVE
10
36.310
20
11.711
30
0
0
VERTEX
8
ENGRAVE
10
36.157
20
11.755
30
0
0
VERTEX
8
ENGRAVE
10
35.698
20
11.755
30
0
0
VERTEX
8
ENGRAVE
10
35.457
20
11.667
30
0
0
VERTEX
8
ENGRAVE
10
35.348
20
11.558
30
0
0
SEQEND
8
ENGRAVE
0
POLYLINE
8
ENGRAVE
66
1
70
1
10
0
20
0
30
0
0
VERTEX
8
ENGRAVE
10
48.048
20
8.823
30
0
0
VERTEX
8
ENGRAVE
10
48.048
20
8.998
30
0
0
VERTEX
8
ENGRAVE
10
48.136
20
9.217
30
0
0
VERTEX
8
ENGRAVE
10
48.289
20
9.348
30
0
0
VERTEX
8
ENGRAVE
10
48.442
20
9.414
30
0
0
VERTEX
8
ENGRAVE
10
48.530
20
9.414
30
0
0
VERTEX
8
ENGRAVE
10
48.551
20
9.261
30
0
0
VERTEX
8
ENGRAVE
10
48.333
20
9.173
30
0
0
VERTEX
8
ENGRAVE
10
48.201
20
8.977
30
0
0
VERTEX
8
ENGRAVE
10
48.245
20
8.714
30
0
0
VERTEX
8
ENGRAVE
10
48.420
20
8.561
30
0
0
VERTEX
8
ENGRAVE
10
48.748
20
8.495
30
0
0
VERTEX
8
ENGRAVE
10
49.011
20
8.517
30
0
0
VERTEX
8
ENGRAVE
10
49.230
20
8.605
30
0
0
VERTEX
8
ENGRAVE
10
49.339
20
8.714
30
0
0
VERTEX
8
ENGRAVE
10
49.383
20
8.802
30
0
0
VERTEX
8
ENGRAVE
10
49.383
20
8.998
30
0
0
VERTEX
8
ENGRAVE
10
49.230
20
9.195
30
0
0
VERTEX
8
ENGRAVE
10
49.033
20
9.261
30
0
0
VERTEX
8
ENGRAVE
10
49.055
20
9.414
30
0
0
VERTEX
8
ENGRAVE
10
49.208
20
9.392
30
0
0
VERTEX
8
ENGRAVE
10
49.361
20
9.305
30
0
0
VERTEX
8
ENGRAVE
10
49.536
20
9.020
30
0
0
VERTEX
8
ENGRAVE
10
49.514
20
8.692
30
0
0
VERTEX
8
ENGRAVE
10
49.383
20
8.495
30
0
0
VERTEX
8
ENGRAVE
10
49.164
20
8.364
30
0
0
VERTEX
8
ENGRAVE
10
48.901
20
8.298
30
0
0
VERTEX
8
ENGRAVE
10
48.551
20
8.320
30
0
0
VERTEX
8
ENGRAVE
10
48.311
20
8.408
30
0
0
VERTEX
8
ENGRAVE
10
48.092
20
8.648
30
0
0
SEQEND
8
ENGRAVE
0
POLYLINE
8
ENGRAVE
66
1
70
1
10
0
20
0
30
0
0
VERTEX
8
ENGRAVE
10
48.070
20
10.136
30
0
0
VERTEX
8
ENGRAVE
10
48.070
20
10.289
30
0
0
VERTEX
8
ENGRAVE
10
49.383
20
10.289
30
0
0
VERTEX
8
ENGRAVE
10
49.383
20
10.683
30
0
0
VERTEX
8
ENGRAVE
10
49.514
20
10.683
30
0
0
VERTEX
8
ENGRAVE
10
49.514
20
9.677
30
0
0
VERTEX
8
ENGRAVE
10
49.383
20
9.677
30
0
0
VERTEX
8
ENGRAVE
10
49.383
20
10.114
30
0
0
VERTEX
8
ENGRAVE
10
48.311
20
10.114
30
0
0
VERTEX
8
ENGRAVE
10
48.595
20
9.742
30
0
0
VERTEX
8
ENGRAVE
10
48.398
20
9.720
30
0
0
VERTEX
8
ENGRAVE
10
48.311
20
9.917
30
0
0
VERTEX
8
ENGRAVE
10
48.114
20
10.136
30
0
0
SEQEND
8
ENGRAVE
0
POLYLINE
8
ENGRAVE
66
1
70
1
10
0
20
0
30
0
0
VERTEX
8
ENGRAVE
10
48.070
20
11.405
30
0
0
VERTEX
8
ENGRAVE
10
48.070
20
11.536
30
0
0
VERTEX
8
ENGRAVE
10
49.383
20
11.536
30
0
0
VERTEX
8
ENGRAVE
10
49.383
20
11.952
30
0
0
VERTEX
8
ENGRAVE
10
49.514
20
11.952
30
0
0
VERTEX
8
ENGRAVE
10
49.514
20
10.945
30
0
0
VERTEX
8
ENGRAVE
10
49.383
20
10.945
30
0
0
VERTEX
8
ENGRAVE
10
49.383
20
11.361
30
0
0
VERTEX
8
ENGRAVE
10
48.311
20
11.361
30
0
0
VERTEX
8
ENGRAVE
10
48.595
20
11.011
30
0
0
VERTEX
8
ENGRAVE
10
48.595
20
10.967
30
0
0
VERTEX
8
ENGRAVE
10
48.420
20
10.967
30
0
0
VERTEX
8
ENGRAVE
10
48.267
20
11.230
30
0
0
SEQEND
8
ENGRAVE
0
POLYLINE
8
ENGRAVE
66
1
70
1
10
0
20
0
30
0
0
VERTEX
8
ENGRAVE
10
59.515
20
8.977
30
0
0
VERTEX
8
ENGRAVE
10
59.515
20
9.195
30
0
0
VERTEX
8
ENGRAVE
10
59.559
20
9.239
30
0
0
VERTEX
8
ENGRAVE
10
60.652
20
9.852
30
0
0
VERTEX
8
ENGRAVE
10
59.515
20
9.873
30
0
0
VERTEX
8
ENGRAVE
10
59.515
20
10.027
30
0
0
VERTEX
8
ENGRAVE
10
60.959
20
10.027
30
0
0
VERTEX
8
ENGRAVE
10
60.937
20
9.830
30
0
0
VERTEX
8
ENGRAVE
10
59.734
20
9.152
30
0
0
VERTEX
8
ENGRAVE
10
60.959
20
9.130
30
0
0
VERTEX
8
ENGRAVE
10
60.959
20
8.977
30
0
0
SEQEND
8
ENGRAVE
0
POLYLINE
8
ENGRAVE
66
1
70
1
10
0
20
0
30
0
0
VERTEX
8
ENGRAVE
10
59.515
20
10.902
30
0
0
VERTEX
8
ENGRAVE
10
59.515
20
11.142
30
0
0
VERTEX
8
ENGRAVE
10
60.477
20
11.142
30
0
0
VERTEX
8
ENGRAVE
10
60.477
20
11.383
30
0
0
VERTEX
8
ENGRAVE
10
60.630
20
11.383
30
0
0
VERTEX
8
ENGRAVE
10
60.630
20
11.142
30
0
0
VERTEX
8
ENGRAVE
10
60.959
20
11.142
30
0
0
VERTEX
8
ENGRAVE
10
60.959
20
10.967
30
0
0
VERTEX
8
ENGRAVE
10
60.630
20
10.967
30
0
0
VERTEX
8
ENGRAVE
10
60.609
20
10.245
30
0
0
VERTEX
8
ENGRAVE
10
60.499
20
10.245
30
0
0
SEQEND
8
ENGRAVE
0
POLYLINE
8
ENGRAVE
66
1
70
1
10
0
20
0
30
0
0
VERTEX
8
ENGRAVE
10
59.668
20
10.967
30
0
0
VERTEX
8
ENGRAVE
10
60.390
20
10.486
30
0
0
VERTEX
8
ENGRAVE
10
60.477
20
10.464
30
0
0
VERTEX
8
ENGRAVE
10
60.477
20
10.967
30
0
0
SEQEND
8
ENGRAVE
0
POLYLINE
8
ENGRAVE
66
1
70
1
10
0
20
0
30
0
0
VERTEX
8
ENGRAVE
10
71.165
20
8.977
30
0
0
VERTEX
8
ENGRAVE
10
71.165
20
9.195
30
0
0
VERTEX
8
ENGRAVE
10
71.209
20
9.239
30
0
0
VERTEX
8
ENGRAVE
10
72.302
20
9.852
30
0
0
VERTEX
8
ENGRAVE
10
71.165
20
9.873
30
0
0
VERTEX
8
ENGRAVE
10
71.165
20
10.027
30
0
0
VERTEX
8
ENGRAVE
10
72.609
20
10.027
30
0
0
VERTEX
8
ENGRAVE
10
72.587
20
9.830
30
0
0
VERTEX
8
ENGRAVE
10
71.384
20
9.152
30
0
0
VERTEX
8
ENGRAVE
10
72.609
20
9.130
30
0
0
VERTEX
8
ENGRAVE
10
72.609
20
8.977
30
0
0
SEQEND
8
ENGRAVE
0
POLYLINE
8
ENGRAVE
66
1
70
1
10
0
20
0
30
0
0
VERTEX
8
ENGRAVE
10
71.165
20
10.398
30
0
0
VERTEX
8
ENGRAVE
10
71.165
20
11.252
30
0
0
VERTEX
8
ENGRAVE
10
71.318
20
11.230
30
0
0
VERTEX
8
ENGRAVE
10
71.318
20
10.530
30
0
0
VERTEX
8
ENGRAVE
10
71.471
20
10.508
30
0
0
VERTEX
8
ENGRAVE
10
71.777
20
10.508
30
0
0
VERTEX
8
ENGRAVE
10
71.646
20
10.705
30
0
0
VERTEX
8
ENGRAVE
10
71.624
20
10.858
30
0
0
VERTEX
8
ENGRAVE
10
71.712
20
11.142
30
0
0
VERTEX
8
ENGRAVE
10
71.843
20
11.273
30
0
0
VERTEX
8
ENGRAVE
10
71.996
20
11.339
30
0
0
VERTEX
8
ENGRAVE
10
72.259
20
11.339
30
0
0
VERTEX
8
ENGRAVE
10
72.434
20
11.252
30
0
0
VERTEX
8
ENGRAVE
10
72.543
20
11.142
30
0
0
VERTEX
8
ENGRAVE
10
72.630
20
10.923
30
0
0
VERTEX
8
ENGRAVE
10
72.630
20
10.683
30
0
0
VERTEX
8
ENGRAVE
10
72.543
20
10.464
30
0
0
VERTEX
8
ENGRAVE
10
72.412
20
10.333
30
0
0
VERTEX
8
ENGRAVE
10
72.280
20
10.289
30
0
0
VERTEX
8
ENGRAVE
10
72.237
20
10.442
30
0
0
VERTEX
8
ENGRAVE
10
72.346
20
10.486
30
0
0
VERTEX
8
ENGRAVE
10
72.455
20
10.617
30
0
0
VERTEX
8
ENGRAVE
10
72.477
20
10.945
30
0
0
VERTEX
8
ENGRAVE
10
72.346
20
11.120
30
0
0
VERTEX
8
ENGRAVE
10
72.237
20
11.164
30
0
0
VERTEX
8
ENGRAVE
10
71.952
20
11.142
30
0
0
VERTEX
8
ENGRAVE
10
71.799
20
10.967
30
0
0
VERTEX
8
ENGRAVE
10
71.777
20
10.748
30
0
0
VERTEX
8
ENGRAVE
10
71.843
20
10.595
30
0
0
VERTEX
8
ENGRAVE
10
71.974
20
10.508
30
0
0
VERTEX
8
ENGRAVE
10
71.952
20
10.355
30
0
0
SEQEND
8
ENGRAVE
0
POLYLINE
8
CUT
66
1
70
1
10
0
20
0
30
0
0
VERTEX
8
CUT
10
105.650
20
202.419
30
0
0
VERTEX
8
CUT
10
105.745
20
203.020
30
0
0
VERTEX
8
CUT
10
106.018
20
203.556
30
0
0
VERTEX
8
CUT
10
106.444
20
203.982
30
0
0
VERTEX
8
CUT
10
106.980
20
204.255
30
0
0
VERTEX
8
CUT
10
107.581
20
204.350
30
0
0
VERTEX
8
CUT
10
109.919
20
204.350
30
0
0
VERTEX
8
CUT
10
110.520
20
204.255
30
0
0
VERTEX
8
CUT
10
111.056
20
203.982
30
0
0
VERTEX
8
CUT
10
111.482
20
203.556
30
0
0
VERTEX
8
CUT
10
111.755
20
203.020
30
0
0
VERTEX
8
CUT
10
111.850
20
202.419
30
0
0
VERTEX
8
CUT
10
111.850
20
180.431
30
0
0
VERTEX
8
CUT
10
111.755
20
179.830
30
0
0
VERTEX
8
CUT
10
111.482
20
179.294
30
0
0
VERTEX
8
CUT
10
111.056
20
178.868
30
0
0
VERTEX
8
CUT
10
110.520
20
178.595
30
0
0
VERTEX
8
CUT
10
109.919
20
178.500
30
0
0
VERTEX
8
CUT
10
107.581
20
178.500
30
0
0
VERTEX
8
CUT
10
106.980
20
178.595
30
0
0
VERTEX
8
CUT
10
106.444
20
178.868
30
0
0
VERTEX
8
CUT
10
106.018
20
179.294
30
0
0
VERTEX
8
CUT
10
105.745
20
179.830
30
0
0
VERTEX
8
CUT
10
105.650
20
180.431
30
0
0
SEQEND
8
CUT
0
POLYLINE
8
CUT
66
1
70
1
10
0
20
0
30
0
0
VERTEX
8
CUT
10
7.452
20
184.425
30
0
0
VERTEX
8
CUT
10
7.613
20
185.129
30
0
0
VERTEX
8
CUT
10
8.063
20
185.694
30
0
0
VERTEX
8
CUT
10
8.714
20
186.007
30
0
0
VERTEX
8
CUT
10
9.436
20
186.007
30
0
0
VERTEX
8
CUT
10
10.087
20
185.694
30
0
0
VERTEX
8
CUT
10
10.537
20
185.129
30
0
0
VERTEX
8
CUT
10
10.698
20
184.425
30
0
0
VERTEX
8
CUT
10
10.537
20
183.721
30
0
0
VERTEX
8
CUT
10
10.087
20
183.156
30
0
0
VERTEX
8
CUT
10
9.436
20
182.843
30
0
0
VERTEX
8
CUT
10
8.714
20
182.843
30
0
0
VERTEX
8
CUT
10
8.063
20
183.156
30
0
0
VERTEX
8
CUT
10
7.613
20
183.721
30
0
0
SEQEND
8
CUT
0
POLYLINE
8
CUT
66
1
70
1
10
0
20
0
30
0
0
VERTEX
8
CUT
10
7.452
20
244.425
30
0
0
VERTEX
8
CUT
10
7.613
20
245.129
30
0
0
VERTEX
8
CUT
10
8.063
20
245.694
30
0
0
VERTEX
8
CUT
10
8.714
20
246.007
30
0
0
VERTEX
8
CUT
10
9.436
20
246.007
30
0
0
VERTEX
8
CUT
10
10.087
20
245.694
30
0
0
VERTEX
8
CUT
10
10.537
20
245.129
30
0
0
VERTEX
8
CUT
10
10.698
20
244.425
30
0
0
VERTEX
8
CUT
10
10.537
20
243.721
30
0
0
VERTEX
8
CUT
10
10.087
20
243.156
30
0
0
VERTEX
8
CUT
10
9.436
20
242.843
30
0
0
VERTEX
8
CUT
10
8.714
20
242.843
30
0
0
VERTEX
8
CUT
10
8.063
20
243.156
30
0
0
VERTEX
8
CUT
10
7.613
20
243.721
30
0
0
SEQEND
8
CUT
0
POLYLINE
8
CUT
66
1
70
1
10
0
20
0
30
0
0
VERTEX
8
CUT
10
120.452
20
184.425
30
0
0
VERTEX
8
CUT
10
120.613
20
185.129
30
0
0
VERTEX
8
CUT
10
121.063
20
185.694
30
0
0
VERTEX
8
CUT
10
121.714
20
186.007
30
0
0
VERTEX
8
CUT
10
122.436
20
186.007
30
0
0
VERTEX
8
CUT
10
123.087
20
185.694
30
0
0
VERTEX
8
CUT
10
123.537
20
185.129
30
0
0
VERTEX
8
CUT
10
123.698
20
184.425
30
0
0
VERTEX
8
CUT
10
123.537
20
183.721
30
0
0
VERTEX
8
CUT
10
123.087
20
183.156
30
0
0
VERTEX
8
CUT
10
122.436
20
182.843
30
0
0
VERTEX
8
CUT
10
121.714
20
182.843
30
0
0
VERTEX
8
CUT
10
121.063
20
183.156
30
0
0
VERTEX
8
CUT
10
120.613
20
183.721
30
0
0
SEQEND
8
CUT
0
POLYLINE
8
CUT
66
1
70
1
10
0
20
0
30
0
0
VERTEX
8
CUT
10
120.452
20
244.425
30
0
0
VERTEX
8
CUT
10
120.613
20
245.129
30
0
0
VERTEX
8
CUT
10
121.063
20
245.694
30
0
0
VERTEX
8
CUT
10
121.714
20
246.007
30
0
0
VERTEX
8
CUT
10
122.436
20
246.007
30
0
0
VERTEX
8
CUT
10
123.087
20
245.694
30
0
0
VERTEX
8
CUT
10
123.537
20
245.129
30
0
0
VERTEX
8
CUT
10
123.698
20
244.425
30
0
0
VERTEX
8
CUT
10
123.537
20
243.721
30
0
0
VERTEX
8
CUT
10
123.087
20
243.156
30
0
0
VERTEX
8
CUT
10
122.436
20
242.843
30
0
0
VERTEX
8
CUT
10
121.714
20
242.843
30
0
0
VERTEX
8
CUT
10
121.063
20
243.156
30
0
0
VERTEX
8
CUT
10
120.613
20
243.721
30
0
0
SEQEND
8
CUT
0
POLYLINE
8
CUT
66
1
70
1
10
0
20
0
30
0
0
VERTEX
8
CUT
10
93.952
20
283.925
30
0
0
VERTEX
8
CUT
10
94.113
20
284.629
30
0
0
VERTEX
8
CUT
10
94.563
20
285.194
30
0
0
VERTEX
8
CUT
10
95.214
20
285.507
30
0
0
VERTEX
8
CUT
10
95.936
20
285.507
30
0
0
VERTEX
8
CUT
10
96.587
20
285.194
30
0
0
VERTEX
8
CUT
10
97.037
20
284.629
30
0
0
VERTEX
8
CUT
10
97.198
20
283.925
30
0
0
VERTEX
8
CUT
10
97.037
20
283.221
30
0
0
VERTEX
8
CUT
10
96.587
20
282.656
30
0
0
VERTEX
8
CUT
10
95.936
20
282.343
30
0
0
VERTEX
8
CUT
10
95.214
20
282.343
30
0
0
VERTEX
8
CUT
10
94.563
20
282.656
30
0
0
VERTEX
8
CUT
10
94.113
20
283.221
30
0
0
SEQEND
8
CUT
0
POLYLINE
8
CUT
66
1
70
1
10
0
20
0
30
0
0
VERTEX
8
CUT
10
33.952
20
283.925
30
0
0
VERTEX
8
CUT
10
34.113
20
284.629
30
0
0
VERTEX
8
CUT
10
34.563
20
285.194
30
0
0
VERTEX
8
CUT
10
35.214
20
285.507
30
0
0
VERTEX
8
CUT
10
35.936
20
285.507
30
0
0
VERTEX
8
CUT
10
36.587
20
285.194
30
0
0
VERTEX
8
CUT
10
37.037
20
284.629
30
0
0
VERTEX
8
CUT
10
37.198
20
283.925
30
0
0
VERTEX
8
CUT
10
37.037
20
283.221
30
0
0
VERTEX
8
CUT
10
36.587
20
282.656
30
0
0
VERTEX
8
CUT
10
35.936
20
282.343
30
0
0
VERTEX
8
CUT
10
35.214
20
282.343
30
0
0
VERTEX
8
CUT
10
34.563
20
282.656
30
0
0
VERTEX
8
CUT
10
34.113
20
283.221
30
0
0
SEQEND
8
CUT
0
POLYLINE
8
CUT
66
1
70
1
10
0
20
0
30
0
0
VERTEX
8
CUT
10
10.550
20
273.850
30
0
0
VERTEX
8
CUT
10
7.600
20
273.850
30
0
0
VERTEX
8
CUT
10
7.600
20
283.800
30
0
0
VERTEX
8
CUT
10
10.550
20
283.800
30
0
0
SEQEND
8
CUT
0
POLYLINE
8
CUT
66
1
70
1
10
0
20
0
30
0
0
VERTEX
8
CUT
10
10.550
20
209.450
30
0
0
VERTEX
8
CUT
10
7.600
20
209.450
30
0
0
VERTEX
8
CUT
10
7.600
20
219.400
30
0
0
VERTEX
8
CUT
10
10.550
20
219.400
30
0
0
SEQEND
8
CUT
0
POLYLINE
8
CUT
66
1
70
1
10
0
20
0
30
0
0
VERTEX
8
CUT
10
10.550
20
145.050
30
0
0
VERTEX
8
CUT
10
7.600
20
145.050
30
0
0
VERTEX
8
CUT
10
7.600
20
155.000
30
0
0
VERTEX
8
CUT
10
10.550
20
155.000
30
0
0
SEQEND
8
CUT
0
POLYLINE
8
CUT
66
1
70
1
10
0
20
0
30
0
0
VERTEX
8
CUT
10
123.550
20
273.850
30
0
0
VERTEX
8
CUT
10
120.600
20
273.850
30
0
0
VERTEX
8
CUT
10
120.600
20
283.800
30
0
0
VERTEX
8
CUT
10
123.550
20
283.800
30
0
0
SEQEND
8
CUT
0
POLYLINE
8
CUT
66
1
70
1
10
0
20
0
30
0
0
VERTEX
8
CUT
10
123.550
20
209.450
30
0
0
VERTEX
8
CUT
10
120.600
20
209.450
30
0
0
VERTEX
8
CUT
10
120.600
20
219.400
30
0
0
VERTEX
8
CUT
10
123.550
20
219.400
30
0
0
SEQEND
8
CUT
0
POLYLINE
8
CUT
66
1
70
1
10
0
20
0
30
0
0
VERTEX
8
CUT
10
123.550
20
145.050
30
0
0
VERTEX
8
CUT
10
120.600
20
145.050
30
0
0
VERTEX
8
CUT
10
120.600
20
155.000
30
0
0
VERTEX
8
CUT
10
123.550
20
155.000
30
0
0
SEQEND
8
CUT
0
POLYLINE
8
CUT
66
1
70
1
10
0
20
0
30
0
0
VERTEX
8
CUT
10
116.550
20
136.950
30
0
0
VERTEX
8
CUT
10
108.600
20
136.950
30
0
0
VERTEX
8
CUT
10
108.600
20
139.900
30
0
0
VERTEX
8
CUT
10
116.550
20
139.900
30
0
0
SEQEND
8
CUT
0
POLYLINE
8
CUT
66
1
70
1
10
0
20
0
30
0
0
VERTEX
8
CUT
10
33.883
20
288.950
30
0
0
VERTEX
8
CUT
10
23.933
20
288.950
30
0
0
VERTEX
8
CUT
10
23.933
20
291.900
30
0
0
VERTEX
8
CUT
10
33.883
20
291.900
30
0
0
SEQEND
8
CUT
0
POLYLINE
8
CUT
66
1
70
1
10
0
20
0
30
0
0
VERTEX
8
CUT
10
70.550
20
288.950
30
0
0
VERTEX
8
CUT
10
60.600
20
288.950
30
0
0
VERTEX
8
CUT
10
60.600
20
291.900
30
0
0
VERTEX
8
CUT
10
70.550
20
291.900
30
0
0
SEQEND
8
CUT
0
POLYLINE
8
CUT
66
1
70
1
10
0
20
0
30
0
0
VERTEX
8
CUT
10
107.217
20
288.950
30
0
0
VERTEX
8
CUT
10
97.267
20
288.950
30
0
0
VERTEX
8
CUT
10
97.267
20
291.900
30
0
0
VERTEX
8
CUT
10
107.217
20
291.900
30
0
0
SEQEND
8
CUT
0
POLYLINE
8
CUT
66
1
70
1
10
0
20
0
30
0
0
VERTEX
8
CUT
10
106.250
20
224.450
30
0
0
VERTEX
8
CUT
10
96.300
20
224.450
30
0
0
VERTEX
8
CUT
10
96.300
20
227.400
30
0
0
VERTEX
8
CUT
10
106.250
20
227.400
30
0
0
SEQEND
8
CUT
0
POLYLINE
8
CUT
66
1
70
1
10
0
20
0
30
0
0
VERTEX
8
CUT
10
34.850
20
224.450
30
0
0
VERTEX
8
CUT
10
24.900
20
224.450
30
0
0
VERTEX
8
CUT
10
24.900
20
227.400
30
0
0
VERTEX
8
CUT
10
34.850
20
227.400
30
0
0
SEQEND
8
CUT
0
POLYLINE
8
CUT
66
1
70
1
10
0
20
0
30
0
0
VERTEX
8
CUT
10
116.150
20
181.200
30
0
0
VERTEX
8
CUT
10
113.200
20
181.200
30
0
0
VERTEX
8
CUT
10
113.200
20
191.150
30
0
0
VERTEX
8
CUT
10
116.150
20
191.150
30
0
0
SEQEND
8
CUT
0
POLYLINE
8
CUT
66
1
70
1
10
0
20
0
30
0
0
VERTEX
8
CUT
10
116.150
20
208.700
30
0
0
VERTEX
8
CUT
10
113.200
20
208.700
30
0
0
VERTEX
8
CUT
10
113.200
20
218.650
30
0
0
VERTEX
8
CUT
10
116.150
20
218.650
30
0
0
SEQEND
8
CUT
0
POLYLINE
8
CUT
66
1
70
1
10
0
20
0
30
0
0
VERTEX
8
CUT
10
17.950
20
181.200
30
0
0
VERTEX
8
CUT
10
15.000
20
181.200
30
0
0
VERTEX
8
CUT
10
15.000
20
191.150
30
0
0
VERTEX
8
CUT
10
17.950
20
191.150
30
0
0
SEQEND
8
CUT
0
POLYLINE
8
CUT
66
1
70
1
10
0
20
0
30
0
0
VERTEX
8
CUT
10
17.950
20
208.700
30
0
0
VERTEX
8
CUT
10
15.000
20
208.700
30
0
0
VERTEX
8
CUT
10
15.000
20
218.650
30
0
0
VERTEX
8
CUT
10
17.950
20
218.650
30
0
0
SEQEND
8
CUT
0
POLYLINE
8
CUT
66
1
70
1
10
0
20
0
30
0
0
VERTEX
8
CUT
10
122.080
20
133.850
30
0
0
VERTEX
8
CUT
10
9.070
20
133.850
30
0
0
VERTEX
8
CUT
10
8.020
20
133.988
30
0
0
VERTEX
8
CUT
10
7.037
20
134.395
30
0
0
VERTEX
8
CUT
10
6.193
20
135.043
30
0
0
VERTEX
8
CUT
10
5.545
20
135.887
30
0
0
VERTEX
8
CUT
10
5.138
20
136.870
30
0
0
VERTEX
8
CUT
10
5.000
20
137.920
30
0
0
VERTEX
8
CUT
10
5.000
20
290.930
30
0
0
VERTEX
8
CUT
10
5.138
20
291.980
30
0
0
VERTEX
8
CUT
10
5.545
20
292.963
30
0
0
VERTEX
8
CUT
10
6.193
20
293.807
30
0
0
VERTEX
8
CUT
10
7.037
20
294.455
30
0
0
VERTEX
8
CUT
10
8.020
20
294.862
30
0
0
VERTEX
8
CUT
10
9.070
20
295.000
30
0
0
VERTEX
8
CUT
10
122.080
20
295.000
30
0
0
VERTEX
8
CUT
10
123.130
20
294.862
30
0
0
VERTEX
8
CUT
10
124.113
20
294.455
30
0
0
VERTEX
8
CUT
10
124.957
20
293.807
30
0
0
VERTEX
8
CUT
10
125.605
20
292.963
30
0
0
VERTEX
8
CUT
10
126.012
20
291.980
30
0
0
VERTEX
8
CUT
10
126.150
20
290.930
30
0
0
VERTEX
8
CUT
10
126.150
20
137.920
30
0
0
VERTEX
8
CUT
10
126.012
20
136.870
30
0
0
VERTEX
8
CUT
10
125.605
20
135.887
30
0
0
VERTEX
8
CUT
10
124.957
20
135.043
30
0
0
VERTEX
8
CUT
10
124.113
20
134.395
30
0
0
VERTEX
8
CUT
10
123.130
20
133.988
30
0
0
SEQEND
8
CUT
0
POLYLINE
8
CUT
66
1
70
1
10
0
20
0
30
0
0
VERTEX
8
CUT
10
114.975
20
119.151
30
0
0
VERTEX
8
CUT
10
114.392
20
119.267
30
0
0
VERTEX
8
CUT
10
113.898
20
119.598
30
0
0
VERTEX
8
CUT
10
113.567
20
120.092
30
0
0
VERTEX
8
CUT
10
113.451
20
120.675
30
0
0
VERTEX
8
CUT
10
113.567
20
121.258
30
0
0
VERTEX
8
CUT
10
113.898
20
121.752
30
0
0
VERTEX
8
CUT
10
114.392
20
122.083
30
0
0
VERTEX
8
CUT
10
114.975
20
122.199
30
0
0
VERTEX
8
CUT
10
115.558
20
122.083
30
0
0
VERTEX
8
CUT
10
116.052
20
121.752
30
0
0
VERTEX
8
CUT
10
116.383
20
121.258
30
0
0
VERTEX
8
CUT
10
116.499
20
120.675
30
0
0
VERTEX
8
CUT
10
116.383
20
120.092
30
0
0
VERTEX
8
CUT
10
116.052
20
119.598
30
0
0
VERTEX
8
CUT
10
115.558
20
119.267
30
0
0
SEQEND
8
CUT
0
POLYLINE
8
CUT
66
1
70
1
10
0
20
0
30
0
0
VERTEX
8
CUT
10
74.175
20
119.151
30
0
0
VERTEX
8
CUT
10
73.592
20
119.267
30
0
0
VERTEX
8
CUT
10
73.098
20
119.598
30
0
0
VERTEX
8
CUT
10
72.767
20
120.092
30
0
0
VERTEX
8
CUT
10
72.651
20
120.675
30
0
0
VERTEX
8
CUT
10
72.767
20
121.258
30
0
0
VERTEX
8
CUT
10
73.098
20
121.752
30
0
0
VERTEX
8
CUT
10
73.592
20
122.083
30
0
0
VERTEX
8
CUT
10
74.175
20
122.199
30
0
0
VERTEX
8
CUT
10
74.758
20
122.083
30
0
0
VERTEX
8
CUT
10
75.252
20
121.752
30
0
0
VERTEX
8
CUT
10
75.583
20
121.258
30
0
0
VERTEX
8
CUT
10
75.699
20
120.675
30
0
0
VERTEX
8
CUT
10
75.583
20
120.092
30
0
0
VERTEX
8
CUT
10
75.252
20
119.598
30
0
0
VERTEX
8
CUT
10
74.758
20
119.267
30
0
0
SEQEND
8
CUT
0
POLYLINE
8
CUT
66
1
70
1
10
0
20
0
30
0
0
VERTEX
8
CUT
10
114.975
20
96.351
30
0
0
VERTEX
8
CUT
10
114.392
20
96.467
30
0
0
VERTEX
8
CUT
10
113.898
20
96.798
30
0
0
VERTEX
8
CUT
10
113.567
20
97.292
30
0
0
VERTEX
8
CUT
10
113.451
20
97.875
30
0
0
VERTEX
8
CUT
10
113.567
20
98.458
30
0
0
VERTEX
8
CUT
10
113.898
20
98.952
30
0
0
VERTEX
8
CUT
10
114.392
20
99.283
30
0
0
VERTEX
8
CUT
10
114.975
20
99.399
30
0
0
VERTEX
8
CUT
10
115.558
20
99.283
30
0
0
VERTEX
8
CUT
10
116.052
20
98.952
30
0
0
VERTEX
8
CUT
10
116.383
20
98.458
30
0
0
VERTEX
8
CUT
10
116.499
20
97.875
30
0
0
VERTEX
8
CUT
10
116.383
20
97.292
30
0
0
VERTEX
8
CUT
10
116.052
20
96.798
30
0
0
VERTEX
8
CUT
10
115.558
20
96.467
30
0
0
SEQEND
8
CUT
0
POLYLINE
8
CUT
66
1
70
1
10
0
20
0
30
0
0
VERTEX
8
CUT
10
74.175
20
96.351
30
0
0
VERTEX
8
CUT
10
73.592
20
96.467
30
0
0
VERTEX
8
CUT
10
73.098
20
96.798
30
0
0
VERTEX
8
CUT
10
72.767
20
97.292
30
0
0
VERTEX
8
CUT
10
72.651
20
97.875
30
0
0
VERTEX
8
CUT
10
72.767
20
98.458
30
0
0
VERTEX
8
CUT
10
73.098
20
98.952
30
0
0
VERTEX
8
CUT
10
73.592
20
99.283
30
0
0
VERTEX
8
CUT
10
74.175
20
99.399
30
0
0
VERTEX
8
CUT
10
74.758
20
99.283
30
0
0
VERTEX
8
CUT
10
75.252
20
98.952
30
0
0
VERTEX
8
CUT
10
75.583
20
98.458
30
0
0
VERTEX
8
CUT
10
75.699
20
97.875
30
0
0
VERTEX
8
CUT
10
75.583
20
97.292
30
0
0
VERTEX
8
CUT
10
75.252
20
96.798
30
0
0
VERTEX
8
CUT
10
74.758
20
96.467
30
0
0
SEQEND
8
CUT
0
POLYLINE
8
CUT
66
1
70
1
10
0
20
0
30
0
0
VERTEX
8
CUT
10
12.575
20
101.652
30
0
0
VERTEX
8
CUT
10
11.871
20
101.813
30
0
0
VERTEX
8
CUT
10
11.306
20
102.263
30
0
0
VERTEX
8
CUT
10
10.993
20
102.914
30
0
0
VERTEX
8
CUT
10
10.993
20
103.636
30
0
0
VERTEX
8
CUT
10
11.306
20
104.287
30
0
0
VERTEX
8
CUT
10
11.871
20
104.737
30
0
0
VERTEX
8
CUT
10
12.575
20
104.898
30
0
0
VERTEX
8
CUT
10
13.279
20
104.737
30
0
0
VERTEX
8
CUT
10
13.844
20
104.287
30
0
0
VERTEX
8
CUT
10
14.157
20
103.636
30
0
0
VERTEX
8
CUT
10
14.157
20
102.914
30
0
0
VERTEX
8
CUT
10
13.844
20
102.263
30
0
0
VERTEX
8
CUT
10
13.279
20
101.813
30
0
0
SEQEND
8
CUT
0
POLYLINE
8
CUT
66
1
70
1
10
0
20
0
30
0
0
VERTEX
8
CUT
10
12.575
20
41.652
30
0
0
VERTEX
8
CUT
10
11.871
20
41.813
30
0
0
VERTEX
8
CUT
10
11.306
20
42.263
30
0
0
VERTEX
8
CUT
10
10.993
20
42.914
30
0
0
VERTEX
8
CUT
10
10.993
20
43.636
30
0
0
VERTEX
8
CUT
10
11.306
20
44.287
30
0
0
VERTEX
8
CUT
10
11.871
20
44.737
30
0
0
VERTEX
8
CUT
10
12.575
20
44.898
30
0
0
VERTEX
8
CUT
10
13.279
20
44.737
30
0
0
VERTEX
8
CUT
10
13.844
20
44.287
30
0
0
VERTEX
8
CUT
10
14.157
20
43.636
30
0
0
VERTEX
8
CUT
10
14.157
20
42.914
30
0
0
VERTEX
8
CUT
10
13.844
20
42.263
30
0
0
VERTEX
8
CUT
10
13.279
20
41.813
30
0
0
SEQEND
8
CUT
0
POLYLINE
8
CUT
66
1
70
1
10
0
20
0
30
0
0
VERTEX
8
CUT
10
61.550
20
112.250
30
0
0
VERTEX
8
CUT
10
61.550
20
109.300
30
0
0
VERTEX
8
CUT
10
53.600
20
109.300
30
0
0
VERTEX
8
CUT
10
53.600
20
112.250
30
0
0
SEQEND
8
CUT
0
POLYLINE
8
CUT
66
1
70
1
10
0
20
0
30
0
0
VERTEX
8
CUT
10
155.100
20
66.750
30
0
0
VERTEX
8
CUT
10
155.100
20
63.800
30
0
0
VERTEX
8
CUT
10
152.150
20
63.800
30
0
0
VERTEX
8
CUT
10
152.150
20
66.750
30
0
0
SEQEND
8
CUT
0
POLYLINE
8
CUT
66
1
70
1
10
0
20
0
30
0
0
VERTEX
8
CUT
10
124.500
20
66.750
30
0
0
VERTEX
8
CUT
10
124.500
20
63.800
30
0
0
VERTEX
8
CUT
10
121.550
20
63.800
30
0
0
VERTEX
8
CUT
10
121.550
20
66.750
30
0
0
SEQEND
8
CUT
0
POLYLINE
8
CUT
66
1
70
1
10
0
20
0
30
0
0
VERTEX
8
CUT
10
43.600
20
82.750
30
0
0
VERTEX
8
CUT
10
43.600
20
79.800
30
0
0
VERTEX
8
CUT
10
40.650
20
79.800
30
0
0
VERTEX
8
CUT
10
40.650
20
82.750
30
0
0
SEQEND
8
CUT
0
POLYLINE
8
CUT
66
1
70
1
10
0
20
0
30
0
0
VERTEX
8
CUT
10
13.000
20
82.750
30
0
0
VERTEX
8
CUT
10
13.000
20
79.800
30
0
0
VERTEX
8
CUT
10
10.050
20
79.800
30
0
0
VERTEX
8
CUT
10
10.050
20
82.750
30
0
0
SEQEND
8
CUT
0
POLYLINE
8
CUT
66
1
70
1
10
0
20
0
30
0
0
VERTEX
8
CUT
10
157.150
20
128.350
30
0
0
VERTEX
8
CUT
10
157.150
20
115.017
30
0
0
VERTEX
8
CUT
10
160.150
20
115.017
30
0
0
VERTEX
8
CUT
10
160.150
20
104.867
30
0
0
VERTEX
8
CUT
10
157.150
20
104.867
30
0
0
VERTEX
8
CUT
10
157.150
20
78.350
30
0
0
VERTEX
8
CUT
10
160.150
20
78.350
30
0
0
VERTEX
8
CUT
10
160.150
20
68.200
30
0
0
VERTEX
8
CUT
10
157.150
20
68.200
30
0
0
VERTEX
8
CUT
10
157.150
20
41.683
30
0
0
VERTEX
8
CUT
10
160.150
20
41.683
30
0
0
VERTEX
8
CUT
10
160.150
20
31.533
30
0
0
VERTEX
8
CUT
10
157.150
20
31.533
30
0
0
VERTEX
8
CUT
10
157.150
20
18.200
30
0
0
VERTEX
8
CUT
10
147.250
20
18.200
30
0
0
VERTEX
8
CUT
10
147.250
20
83.200
30
0
0
VERTEX
8
CUT
10
129.400
20
83.200
30
0
0
VERTEX
8
CUT
10
129.400
20
18.200
30
0
0
VERTEX
8
CUT
10
106.275
20
18.200
30
0
0
VERTEX
8
CUT
10
106.275
20
15.200
30
0
0
VERTEX
8
CUT
10
96.125
20
15.200
30
0
0
VERTEX
8
CUT
10
96.125
20
18.200
30
0
0
VERTEX
8
CUT
10
69.025
20
18.200
30
0
0
VERTEX
8
CUT
10
69.025
20
15.200
30
0
0
VERTEX
8
CUT
10
58.875
20
15.200
30
0
0
VERTEX
8
CUT
10
58.875
20
18.200
30
0
0
VERTEX
8
CUT
10
31.775
20
18.200
30
0
0
VERTEX
8
CUT
10
31.775
20
15.200
30
0
0
VERTEX
8
CUT
10
21.625
20
15.200
30
0
0
VERTEX
8
CUT
10
21.625
20
18.200
30
0
0
VERTEX
8
CUT
10
8.000
20
18.200
30
0
0
VERTEX
8
CUT
10
8.000
20
31.533
30
0
0
VERTEX
8
CUT
10
5.000
20
31.533
30
0
0
VERTEX
8
CUT
10
5.000
20
41.683
30
0
0
VERTEX
8
CUT
10
8.000
20
41.683
30
0
0
VERTEX
8
CUT
10
8.000
20
68.200
30
0
0
VERTEX
8
CUT
10
5.000
20
68.200
30
0
0
VERTEX
8
CUT
10
5.000
20
78.350
30
0
0
VERTEX
8
CUT
10
8.000
20
78.350
30
0
0
VERTEX
8
CUT
10
8.000
20
104.867
30
0
0
VERTEX
8
CUT
10
5.000
20
104.867
30
0
0
VERTEX
8
CUT
10
5.000
20
115.017
30
0
0
VERTEX
8
CUT
10
8.000
20
115.017
30
0
0
VERTEX
8
CUT
10
8.000
20
128.350
30
0
0
VERTEX
8
CUT
10
17.900
20
128.350
30
0
0
VERTEX
8
CUT
10
17.900
20
63.350
30
0
0
VERTEX
8
CUT
10
35.750
20
63.350
30
0
0
VERTEX
8
CUT
10
35.750
20
128.350
30
0
0
VERTEX
8
CUT
10
58.875
20
128.350
30
0
0
VERTEX
8
CUT
10
58.875
20
131.350
30
0
0
VERTEX
8
CUT
10
69.025
20
131.350
30
0
0
VERTEX
8
CUT
10
69.025
20
128.350
30
0
0
VERTEX
8
CUT
10
96.125
20
128.350
30
0
0
VERTEX
8
CUT
10
96.125
20
131.350
30
0
0
VERTEX
8
CUT
10
106.275
20
131.350
30
0
0
VERTEX
8
CUT
10
106.275
20
128.350
30
0
0
VERTEX
8
CUT
10
133.375
20
128.350
30
0
0
VERTEX
8
CUT
10
133.375
20
131.350
30
0
0
VERTEX
8
CUT
10
143.525
20
131.350
30
0
0
VERTEX
8
CUT
10
143.525
20
128.350
30
0
0
SEQEND
8
CUT
0
POLYLINE
8
CUT
66
1
70
1
10
0
20
0
30
0
0
VERTEX
8
CUT
10
150.500
20
190.419
30
0
0
VERTEX
8
CUT
10
150.693
20
191.638
30
0
0
VERTEX
8
CUT
10
151.250
20
192.732
30
0
0
VERTEX
8
CUT
10
152.118
20
193.600
30
0
0
VERTEX
8
CUT
10
153.212
20
194.157
30
0
0
VERTEX
8
CUT
10
154.431
20
194.350
30
0
0
VERTEX
8
CUT
10
199.419
20
194.350
30
0
0
VERTEX
8
CUT
10
200.638
20
194.157
30
0
0
VERTEX
8
CUT
10
201.732
20
193.600
30
0
0
VERTEX
8
CUT
10
202.600
20
192.732
30
0
0
VERTEX
8
CUT
10
203.157
20
191.638
30
0
0
VERTEX
8
CUT
10
203.350
20
190.419
30
0
0
VERTEX
8
CUT
10
203.350
20
179.431
30
0
0
VERTEX
8
CUT
10
203.157
20
178.212
30
0
0
VERTEX
8
CUT
10
202.600
20
177.118
30
0
0
VERTEX
8
CUT
10
201.732
20
176.250
30
0
0
VERTEX
8
CUT
10
200.638
20
175.693
30
0
0
VERTEX
8
CUT
10
199.419
20
175.500
30
0
0
VERTEX
8
CUT
10
154.431
20
175.500
30
0
0
VERTEX
8
CUT
10
153.212
20
175.693
30
0
0
VERTEX
8
CUT
10
152.118
20
176.250
30
0
0
VERTEX
8
CUT
10
151.250
20
177.118
30
0
0
VERTEX
8
CUT
10
150.693
20
178.212
30
0
0
VERTEX
8
CUT
10
150.500
20
179.431
30
0
0
SEQEND
8
CUT
0
POLYLINE
8
CUT
66
1
70
1
10
0
20
0
30
0
0
VERTEX
8
CUT
10
150.500
20
235.419
30
0
0
VERTEX
8
CUT
10
150.693
20
236.638
30
0
0
VERTEX
8
CUT
10
151.250
20
237.732
30
0
0
VERTEX
8
CUT
10
152.118
20
238.600
30
0
0
VERTEX
8
CUT
10
153.212
20
239.157
30
0
0
VERTEX
8
CUT
10
154.431
20
239.350
30
0
0
VERTEX
8
CUT
10
199.419
20
239.350
30
0
0
VERTEX
8
CUT
10
200.638
20
239.157
30
0
0
VERTEX
8
CUT
10
201.732
20
238.600
30
0
0
VERTEX
8
CUT
10
202.600
20
237.732
30
0
0
VERTEX
8
CUT
10
203.157
20
236.638
30
0
0
VERTEX
8
CUT
10
203.350
20
235.419
30
0
0
VERTEX
8
CUT
10
203.350
20
224.431
30
0
0
VERTEX
8
CUT
10
203.157
20
223.212
30
0
0
VERTEX
8
CUT
10
202.600
20
222.118
30
0
0
VERTEX
8
CUT
10
201.732
20
221.250
30
0
0
VERTEX
8
CUT
10
200.638
20
220.693
30
0
0
VERTEX
8
CUT
10
199.419
20
220.500
30
0
0
VERTEX
8
CUT
10
154.431
20
220.500
30
0
0
VERTEX
8
CUT
10
153.212
20
220.693
30
0
0
VERTEX
8
CUT
10
152.118
20
221.250
30
0
0
VERTEX
8
CUT
10
151.250
20
222.118
30
0
0
VERTEX
8
CUT
10
150.693
20
223.212
30
0
0
VERTEX
8
CUT
10
150.500
20
224.431
30
0
0
SEQEND
8
CUT
0
POLYLINE
8
CUT
66
1
70
1
10
0
20
0
30
0
0
VERTEX
8
CUT
10
150.500
20
281.919
30
0
0
VERTEX
8
CUT
10
150.693
20
283.138
30
0
0
VERTEX
8
CUT
10
151.250
20
284.232
30
0
0
VERTEX
8
CUT
10
152.118
20
285.100
30
0
0
VERTEX
8
CUT
10
153.212
20
285.657
30
0
0
VERTEX
8
CUT
10
154.431
20
285.850
30
0
0
VERTEX
8
CUT
10
199.419
20
285.850
30
0
0
VERTEX
8
CUT
10
200.638
20
285.657
30
0
0
VERTEX
8
CUT
10
201.732
20
285.100
30
0
0
VERTEX
8
CUT
10
202.600
20
284.232
30
0
0
VERTEX
8
CUT
10
203.157
20
283.138
30
0
0
VERTEX
8
CUT
10
203.350
20
281.919
30
0
0
VERTEX
8
CUT
10
203.350
20
269.431
30
0
0
VERTEX
8
CUT
10
203.157
20
268.212
30
0
0
VERTEX
8
CUT
10
202.600
20
267.118
30
0
0
VERTEX
8
CUT
10
201.732
20
266.250
30
0
0
VERTEX
8
CUT
10
200.638
20
265.693
30
0
0
VERTEX
8
CUT
10
199.419
20
265.500
30
0
0
VERTEX
8
CUT
10
154.431
20
265.500
30
0
0
VERTEX
8
CUT
10
153.212
20
265.693
30
0
0
VERTEX
8
CUT
10
152.118
20
266.250
30
0
0
VERTEX
8
CUT
10
151.250
20
267.118
30
0
0
VERTEX
8
CUT
10
150.693
20
268.212
30
0
0
VERTEX
8
CUT
10
150.500
20
269.431
30
0
0
SEQEND
8
CUT
0
POLYLINE
8
CUT
66
1
70
1
10
0
20
0
30
0
0
VERTEX
8
CUT
10
215.500
20
172.019
30
0
0
VERTEX
8
CUT
10
215.566
20
172.434
30
0
0
VERTEX
8
CUT
10
215.754
20
172.803
30
0
0
VERTEX
8
CUT
10
216.047
20
173.096
30
0
0
VERTEX
8
CUT
10
216.416
20
173.284
30
0
0
VERTEX
8
CUT
10
216.831
20
173.350
30
0
0
VERTEX
8
CUT
10
217.019
20
173.350
30
0
0
VERTEX
8
CUT
10
217.434
20
173.284
30
0
0
VERTEX
8
CUT
10
217.803
20
173.096
30
0
0
VERTEX
8
CUT
10
218.096
20
172.803
30
0
0
VERTEX
8
CUT
10
218.284
20
172.434
30
0
0
VERTEX
8
CUT
10
218.350
20
172.019
30
0
0
VERTEX
8
CUT
10
218.350
20
152.831
30
0
0
VERTEX
8
CUT
10
218.284
20
152.416
30
0
0
VERTEX
8
CUT
10
218.096
20
152.047
30
0
0
VERTEX
8
CUT
10
217.803
20
151.754
30
0
0
VERTEX
8
CUT
10
217.434
20
151.566
30
0
0
VERTEX
8
CUT
10
217.019
20
151.500
30
0
0
VERTEX
8
CUT
10
216.831
20
151.500
30
0
0
VERTEX
8
CUT
10
216.416
20
151.566
30
0
0
VERTEX
8
CUT
10
216.047
20
151.754
30
0
0
VERTEX
8
CUT
10
215.754
20
152.047
30
0
0
VERTEX
8
CUT
10
215.566
20
152.416
30
0
0
VERTEX
8
CUT
10
215.500
20
152.831
30
0
0
SEQEND
8
CUT
0
POLYLINE
8
CUT
66
1
70
1
10
0
20
0
30
0
0
VERTEX
8
CUT
10
207.500
20
172.019
30
0
0
VERTEX
8
CUT
10
207.566
20
172.434
30
0
0
VERTEX
8
CUT
10
207.754
20
172.803
30
0
0
VERTEX
8
CUT
10
208.047
20
173.096
30
0
0
VERTEX
8
CUT
10
208.416
20
173.284
30
0
0
VERTEX
8
CUT
10
208.831
20
173.350
30
0
0
VERTEX
8
CUT
10
209.019
20
173.350
30
0
0
VERTEX
8
CUT
10
209.434
20
173.284
30
0
0
VERTEX
8
CUT
10
209.803
20
173.096
30
0
0
VERTEX
8
CUT
10
210.096
20
172.803
30
0
0
VERTEX
8
CUT
10
210.284
20
172.434
30
0
0
VERTEX
8
CUT
10
210.350
20
172.019
30
0
0
VERTEX
8
CUT
10
210.350
20
152.831
30
0
0
VERTEX
8
CUT
10
210.284
20
152.416
30
0
0
VERTEX
8
CUT
10
210.096
20
152.047
30
0
0
VERTEX
8
CUT
10
209.803
20
151.754
30
0
0
VERTEX
8
CUT
10
209.434
20
151.566
30
0
0
VERTEX
8
CUT
10
209.019
20
151.500
30
0
0
VERTEX
8
CUT
10
208.831
20
151.500
30
0
0
VERTEX
8
CUT
10
208.416
20
151.566
30
0
0
VERTEX
8
CUT
10
208.047
20
151.754
30
0
0
VERTEX
8
CUT
10
207.754
20
152.047
30
0
0
VERTEX
8
CUT
10
207.566
20
152.416
30
0
0
VERTEX
8
CUT
10
207.500
20
152.831
30
0
0
SEQEND
8
CUT
0
POLYLINE
8
CUT
66
1
70
1
10
0
20
0
30
0
0
VERTEX
8
CUT
10
143.500
20
172.019
30
0
0
VERTEX
8
CUT
10
143.566
20
172.434
30
0
0
VERTEX
8
CUT
10
143.754
20
172.803
30
0
0
VERTEX
8
CUT
10
144.047
20
173.096
30
0
0
VERTEX
8
CUT
10
144.416
20
173.284
30
0
0
VERTEX
8
CUT
10
144.831
20
173.350
30
0
0
VERTEX
8
CUT
10
145.019
20
173.350
30
0
0
VERTEX
8
CUT
10
145.434
20
173.284
30
0
0
VERTEX
8
CUT
10
145.803
20
173.096
30
0
0
VERTEX
8
CUT
10
146.096
20
172.803
30
0
0
VERTEX
8
CUT
10
146.284
20
172.434
30
0
0
VERTEX
8
CUT
10
146.350
20
172.019
30
0
0
VERTEX
8
CUT
10
146.350
20
152.831
30
0
0
VERTEX
8
CUT
10
146.284
20
152.416
30
0
0
VERTEX
8
CUT
10
146.096
20
152.047
30
0
0
VERTEX
8
CUT
10
145.803
20
151.754
30
0
0
VERTEX
8
CUT
10
145.434
20
151.566
30
0
0
VERTEX
8
CUT
10
145.019
20
151.500
30
0
0
VERTEX
8
CUT
10
144.831
20
151.500
30
0
0
VERTEX
8
CUT
10
144.416
20
151.566
30
0
0
VERTEX
8
CUT
10
144.047
20
151.754
30
0
0
VERTEX
8
CUT
10
143.754
20
152.047
30
0
0
VERTEX
8
CUT
10
143.566
20
152.416
30
0
0
VERTEX
8
CUT
10
143.500
20
152.831
30
0
0
SEQEND
8
CUT
0
POLYLINE
8
CUT
66
1
70
1
10
0
20
0
30
0
0
VERTEX
8
CUT
10
135.500
20
172.019
30
0
0
VERTEX
8
CUT
10
135.566
20
172.434
30
0
0
VERTEX
8
CUT
10
135.754
20
172.803
30
0
0
VERTEX
8
CUT
10
136.047
20
173.096
30
0
0
VERTEX
8
CUT
10
136.416
20
173.284
30
0
0
VERTEX
8
CUT
10
136.831
20
173.350
30
0
0
VERTEX
8
CUT
10
137.019
20
173.350
30
0
0
VERTEX
8
CUT
10
137.434
20
173.284
30
0
0
VERTEX
8
CUT
10
137.803
20
173.096
30
0
0
VERTEX
8
CUT
10
138.096
20
172.803
30
0
0
VERTEX
8
CUT
10
138.284
20
172.434
30
0
0
VERTEX
8
CUT
10
138.350
20
172.019
30
0
0
VERTEX
8
CUT
10
138.350
20
152.831
30
0
0
VERTEX
8
CUT
10
138.284
20
152.416
30
0
0
VERTEX
8
CUT
10
138.096
20
152.047
30
0
0
VERTEX
8
CUT
10
137.803
20
151.754
30
0
0
VERTEX
8
CUT
10
137.434
20
151.566
30
0
0
VERTEX
8
CUT
10
137.019
20
151.500
30
0
0
VERTEX
8
CUT
10
136.831
20
151.500
30
0
0
VERTEX
8
CUT
10
136.416
20
151.566
30
0
0
VERTEX
8
CUT
10
136.047
20
151.754
30
0
0
VERTEX
8
CUT
10
135.754
20
152.047
30
0
0
VERTEX
8
CUT
10
135.566
20
152.416
30
0
0
VERTEX
8
CUT
10
135.500
20
152.831
30
0
0
SEQEND
8
CUT
0
POLYLINE
8
CUT
66
1
70
1
10
0
20
0
30
0
0
VERTEX
8
CUT
10
215.500
20
217.019
30
0
0
VERTEX
8
CUT
10
215.566
20
217.434
30
0
0
VERTEX
8
CUT
10
215.754
20
217.803
30
0
0
VERTEX
8
CUT
10
216.047
20
218.096
30
0
0
VERTEX
8
CUT
10
216.416
20
218.284
30
0
0
VERTEX
8
CUT
10
216.831
20
218.350
30
0
0
VERTEX
8
CUT
10
217.019
20
218.350
30
0
0
VERTEX
8
CUT
10
217.434
20
218.284
30
0
0
VERTEX
8
CUT
10
217.803
20
218.096
30
0
0
VERTEX
8
CUT
10
218.096
20
217.803
30
0
0
VERTEX
8
CUT
10
218.284
20
217.434
30
0
0
VERTEX
8
CUT
10
218.350
20
217.019
30
0
0
VERTEX
8
CUT
10
218.350
20
197.831
30
0
0
VERTEX
8
CUT
10
218.284
20
197.416
30
0
0
VERTEX
8
CUT
10
218.096
20
197.047
30
0
0
VERTEX
8
CUT
10
217.803
20
196.754
30
0
0
VERTEX
8
CUT
10
217.434
20
196.566
30
0
0
VERTEX
8
CUT
10
217.019
20
196.500
30
0
0
VERTEX
8
CUT
10
216.831
20
196.500
30
0
0
VERTEX
8
CUT
10
216.416
20
196.566
30
0
0
VERTEX
8
CUT
10
216.047
20
196.754
30
0
0
VERTEX
8
CUT
10
215.754
20
197.047
30
0
0
VERTEX
8
CUT
10
215.566
20
197.416
30
0
0
VERTEX
8
CUT
10
215.500
20
197.831
30
0
0
SEQEND
8
CUT
0
POLYLINE
8
CUT
66
1
70
1
10
0
20
0
30
0
0
VERTEX
8
CUT
10
207.500
20
217.019
30
0
0
VERTEX
8
CUT
10
207.566
20
217.434
30
0
0
VERTEX
8
CUT
10
207.754
20
217.803
30
0
0
VERTEX
8
CUT
10
208.047
20
218.096
30
0
0
VERTEX
8
CUT
10
208.416
20
218.284
30
0
0
VERTEX
8
CUT
10
208.831
20
218.350
30
0
0
VERTEX
8
CUT
10
209.019
20
218.350
30
0
0
VERTEX
8
CUT
10
209.434
20
218.284
30
0
0
VERTEX
8
CUT
10
209.803
20
218.096
30
0
0
VERTEX
8
CUT
10
210.096
20
217.803
30
0
0
VERTEX
8
CUT
10
210.284
20
217.434
30
0
0
VERTEX
8
CUT
10
210.350
20
217.019
30
0
0
VERTEX
8
CUT
10
210.350
20
197.831
30
0
0
VERTEX
8
CUT
10
210.284
20
197.416
30
0
0
VERTEX
8
CUT
10
210.096
20
197.047
30
0
0
VERTEX
8
CUT
10
209.803
20
196.754
30
0
0
VERTEX
8
CUT
10
209.434
20
196.566
30
0
0
VERTEX
8
CUT
10
209.019
20
196.500
30
0
0
VERTEX
8
CUT
10
208.831
20
196.500
30
0
0
VERTEX
8
CUT
10
208.416
20
196.566
30
0
0
VERTEX
8
CUT
10
208.047
20
196.754
30
0
0
VERTEX
8
CUT
10
207.754
20
197.047
30
0
0
VERTEX
8
CUT
10
207.566
20
197.416
30
0
0
VERTEX
8
CUT
10
207.500
20
197.831
30
0
0
SEQEND
8
CUT
0
POLYLINE
8
CUT
66
1
70
1
10
0
20
0
30
0
0
VERTEX
8
CUT
10
143.500
20
217.019
30
0
0
VERTEX
8
CUT
10
143.566
20
217.434
30
0
0
VERTEX
8
CUT
10
143.754
20
217.803
30
0
0
VERTEX
8
CUT
10
144.047
20
218.096
30
0
0
VERTEX
8
CUT
10
144.416
20
218.284
30
0
0
VERTEX
8
CUT
10
144.831
20
218.350
30
0
0
VERTEX
8
CUT
10
145.019
20
218.350
30
0
0
VERTEX
8
CUT
10
145.434
20
218.284
30
0
0
VERTEX
8
CUT
10
145.803
20
218.096
30
0
0
VERTEX
8
CUT
10
146.096
20
217.803
30
0
0
VERTEX
8
CUT
10
146.284
20
217.434
30
0
0
VERTEX
8
CUT
10
146.350
20
217.019
30
0
0
VERTEX
8
CUT
10
146.350
20
197.831
30
0
0
VERTEX
8
CUT
10
146.284
20
197.416
30
0
0
VERTEX
8
CUT
10
146.096
20
197.047
30
0
0
VERTEX
8
CUT
10
145.803
20
196.754
30
0
0
VERTEX
8
CUT
10
145.434
20
196.566
30
0
0
VERTEX
8
CUT
10
145.019
20
196.500
30
0
0
VERTEX
8
CUT
10
144.831
20
196.500
30
0
0
VERTEX
8
CUT
10
144.416
20
196.566
30
0
0
VERTEX
8
CUT
10
144.047
20
196.754
30
0
0
VERTEX
8
CUT
10
143.754
20
197.047
30
0
0
VERTEX
8
CUT
10
143.566
20
197.416
30
0
0
VERTEX
8
CUT
10
143.500
20
197.831
30
0
0
SEQEND
8
CUT
0
POLYLINE
8
CUT
66
1
70
1
10
0
20
0
30
0
0
VERTEX
8
CUT
10
135.500
20
217.019
30
0
0
VERTEX
8
CUT
10
135.566
20
217.434
30
0
0
VERTEX
8
CUT
10
135.754
20
217.803
30
0
0
VERTEX
8
CUT
10
136.047
20
218.096
30
0
0
VERTEX
8
CUT
10
136.416
20
218.284
30
0
0
VERTEX
8
CUT
10
136.831
20
218.350
30
0
0
VERTEX
8
CUT
10
137.019
20
218.350
30
0
0
VERTEX
8
CUT
10
137.434
20
218.284
30
0
0
VERTEX
8
CUT
10
137.803
20
218.096
30
0
0
VERTEX
8
CUT
10
138.096
20
217.803
30
0
0
VERTEX
8
CUT
10
138.284
20
217.434
30
0
0
VERTEX
8
CUT
10
138.350
20
217.019
30
0
0
VERTEX
8
CUT
10
138.350
20
197.831
30
0
0
VERTEX
8
CUT
10
138.284
20
197.416
30
0
0
VERTEX
8
CUT
10
138.096
20
197.047
30
0
0
VERTEX
8
CUT
10
137.803
20
196.754
30
0
0
VERTEX
8
CUT
10
137.434
20
196.566
30
0
0
VERTEX
8
CUT
10
137.019
20
196.500
30
0
0
VERTEX
8
CUT
10
136.831
20
196.500
30
0
0
VERTEX
8
CUT
10
136.416
20
196.566
30
0
0
VERTEX
8
CUT
10
136.047
20
196.754
30
0
0
VERTEX
8
CUT
10
135.754
20
197.047
30
0
0
VERTEX
8
CUT
10
135.566
20
197.416
30
0
0
VERTEX
8
CUT
10
135.500
20
197.831
30
0
0
SEQEND
8
CUT
0
POLYLINE
8
CUT
66
1
70
1
10
0
20
0
30
0
0
VERTEX
8
CUT
10
215.500
20
262.019
30
0
0
VERTEX
8
CUT
10
215.566
20
262.434
30
0
0
VERTEX
8
CUT
10
215.754
20
262.803
30
0
0
VERTEX
8
CUT
10
216.047
20
263.096
30
0
0
VERTEX
8
CUT
10
216.416
20
263.284
30
0
0
VERTEX
8
CUT
10
216.831
20
263.350
30
0
0
VERTEX
8
CUT
10
217.019
20
263.350
30
0
0
VERTEX
8
CUT
10
217.434
20
263.284
30
0
0
VERTEX
8
CUT
10
217.803
20
263.096
30
0
0
VERTEX
8
CUT
10
218.096
20
262.803
30
0
0
VERTEX
8
CUT
10
218.284
20
262.434
30
0
0
VERTEX
8
CUT
10
218.350
20
262.019
30
0
0
VERTEX
8
CUT
10
218.350
20
242.831
30
0
0
VERTEX
8
CUT
10
218.284
20
242.416
30
0
0
VERTEX
8
CUT
10
218.096
20
242.047
30
0
0
VERTEX
8
CUT
10
217.803
20
241.754
30
0
0
VERTEX
8
CUT
10
217.434
20
241.566
30
0
0
VERTEX
8
CUT
10
217.019
20
241.500
30
0
0
VERTEX
8
CUT
10
216.831
20
241.500
30
0
0
VERTEX
8
CUT
10
216.416
20
241.566
30
0
0
VERTEX
8
CUT
10
216.047
20
241.754
30
0
0
VERTEX
8
CUT
10
215.754
20
242.047
30
0
0
VERTEX
8
CUT
10
215.566
20
242.416
30
0
0
VERTEX
8
CUT
10
215.500
20
242.831
30
0
0
SEQEND
8
CUT
0
POLYLINE
8
CUT
66
1
70
1
10
0
20
0
30
0
0
VERTEX
8
CUT
10
207.500
20
262.019
30
0
0
VERTEX
8
CUT
10
207.566
20
262.434
30
0
0
VERTEX
8
CUT
10
207.754
20
262.803
30
0
0
VERTEX
8
CUT
10
208.047
20
263.096
30
0
0
VERTEX
8
CUT
10
208.416
20
263.284
30
0
0
VERTEX
8
CUT
10
208.831
20
263.350
30
0
0
VERTEX
8
CUT
10
209.019
20
263.350
30
0
0
VERTEX
8
CUT
10
209.434
20
263.284
30
0
0
VERTEX
8
CUT
10
209.803
20
263.096
30
0
0
VERTEX
8
CUT
10
210.096
20
262.803
30
0
0
VERTEX
8
CUT
10
210.284
20
262.434
30
0
0
VERTEX
8
CUT
10
210.350
20
262.019
30
0
0
VERTEX
8
CUT
10
210.350
20
242.831
30
0
0
VERTEX
8
CUT
10
210.284
20
242.416
30
0
0
VERTEX
8
CUT
10
210.096
20
242.047
30
0
0
VERTEX
8
CUT
10
209.803
20
241.754
30
0
0
VERTEX
8
CUT
10
209.434
20
241.566
30
0
0
VERTEX
8
CUT
10
209.019
20
241.500
30
0
0
VERTEX
8
CUT
10
208.831
20
241.500
30
0
0
VERTEX
8
CUT
10
208.416
20
241.566
30
0
0
VERTEX
8
CUT
10
208.047
20
241.754
30
0
0
VERTEX
8
CUT
10
207.754
20
242.047
30
0
0
VERTEX
8
CUT
10
207.566
20
242.416
30
0
0
VERTEX
8
CUT
10
207.500
20
242.831
30
0
0
SEQEND
8
CUT
0
POLYLINE
8
CUT
66
1
70
1
10
0
20
0
30
0
0
VERTEX
8
CUT
10
143.500
20
262.019
30
0
0
VERTEX
8
CUT
10
143.566
20
262.434
30
0
0
VERTEX
8
CUT
10
143.754
20
262.803
30
0
0
VERTEX
8
CUT
10
144.047
20
263.096
30
0
0
VERTEX
8
CUT
10
144.416
20
263.284
30
0
0
VERTEX
8
CUT
10
144.831
20
263.350
30
0
0
VERTEX
8
CUT
10
145.019
20
263.350
30
0
0
VERTEX
8
CUT
10
145.434
20
263.284
30
0
0
VERTEX
8
CUT
10
145.803
20
263.096
30
0
0
VERTEX
8
CUT
10
146.096
20
262.803
30
0
0
VERTEX
8
CUT
10
146.284
20
262.434
30
0
0
VERTEX
8
CUT
10
146.350
20
262.019
30
0
0
VERTEX
8
CUT
10
146.350
20
242.831
30
0
0
VERTEX
8
CUT
10
146.284
20
242.416
30
0
0
VERTEX
8
CUT
10
146.096
20
242.047
30
0
0
VERTEX
8
CUT
10
145.803
20
241.754
30
0
0
VERTEX
8
CUT
10
145.434
20
241.566
30
0
0
VERTEX
8
CUT
10
145.019
20
241.500
30
0
0
VERTEX
8
CUT
10
144.831
20
241.500
30
0
0
VERTEX
8
CUT
10
144.416
20
241.566
30
0
0
VERTEX
8
CUT
10
144.047
20
241.754
30
0
0
VERTEX
8
CUT
10
143.754
20
242.047
30
0
0
VERTEX
8
CUT
10
143.566
20
242.416
30
0
0
VERTEX
8
CUT
10
143.500
20
242.831
30
0
0
SEQEND
8
CUT
0
POLYLINE
8
CUT
66
1
70
1
10
0
20
0
30
0
0
VERTEX
8
CUT
10
135.500
20
262.019
30
0
0
VERTEX
8
CUT
10
135.566
20
262.434
30
0
0
VERTEX
8
CUT
10
135.754
20
262.803
30
0
0
VERTEX
8
CUT
10
136.047
20
263.096
30
0
0
VERTEX
8
CUT
10
136.416
20
263.284
30
0
0
VERTEX
8
CUT
10
136.831
20
263.350
30
0
0
VERTEX
8
CUT
10
137.019
20
263.350
30
0
0
VERTEX
8
CUT
10
137.434
20
263.284
30
0
0
VERTEX
8
CUT
10
137.803
20
263.096
30
0
0
VERTEX
8
CUT
10
138.096
20
262.803
30
0
0
VERTEX
8
CUT
10
138.284
20
262.434
30
0
0
VERTEX
8
CUT
10
138.350
20
262.019
30
0
0
VERTEX
8
CUT
10
138.350
20
242.831
30
0
0
VERTEX
8
CUT
10
138.284
20
242.416
30
0
0
VERTEX
8
CUT
10
138.096
20
242.047
30
0
0
VERTEX
8
CUT
10
137.803
20
241.754
30
0
0
VERTEX
8
CUT
10
137.434
20
241.566
30
0
0
VERTEX
8
CUT
10
137.019
20
241.500
30
0
0
VERTEX
8
CUT
10
136.831
20
241.500
30
0
0
VERTEX
8
CUT
10
136.416
20
241.566
30
0
0
VERTEX
8
CUT
10
136.047
20
241.754
30
0
0
VERTEX
8
CUT
10
135.754
20
242.047
30
0
0
VERTEX
8
CUT
10
135.566
20
242.416
30
0
0
VERTEX
8
CUT
10
135.500
20
242.831
30
0
0
SEQEND
8
CUT
0
POLYLINE
8
CUT
66
1
70
1
10
0
20
0
30
0
0
VERTEX
8
CUT
10
222.400
20
155.412
30
0
0
VERTEX
8
CUT
10
219.450
20
155.412
30
0
0
VERTEX
8
CUT
10
219.450
20
165.362
30
0
0
VERTEX
8
CUT
10
222.400
20
165.362
30
0
0
SEQEND
8
CUT
0
POLYLINE
8
CUT
66
1
70
1
10
0
20
0
30
0
0
VERTEX
8
CUT
10
222.400
20
192.337
30
0
0
VERTEX
8
CUT
10
219.450
20
192.337
30
0
0
VERTEX
8
CUT
10
219.450
20
202.287
30
0
0
VERTEX
8
CUT
10
222.400
20
202.287
30
0
0
SEQEND
8
CUT
0
POLYLINE
8
CUT
66
1
70
1
10
0
20
0
30
0
0
VERTEX
8
CUT
10
222.400
20
229.262
30
0
0
VERTEX
8
CUT
10
219.450
20
229.262
30
0
0
VERTEX
8
CUT
10
219.450
20
239.213
30
0
0
VERTEX
8
CUT
10
222.400
20
239.213
30
0
0
SEQEND
8
CUT
0
POLYLINE
8
CUT
66
1
70
1
10
0
20
0
30
0
0
VERTEX
8
CUT
10
222.400
20
266.188
30
0
0
VERTEX
8
CUT
10
219.450
20
266.188
30
0
0
VERTEX
8
CUT
10
219.450
20
276.137
30
0
0
VERTEX
8
CUT
10
222.400
20
276.137
30
0
0
SEQEND
8
CUT
0
POLYLINE
8
CUT
66
1
70
1
10
0
20
0
30
0
0
VERTEX
8
CUT
10
225.500
20
146.350
30
0
0
VERTEX
8
CUT
10
222.500
20
146.350
30
0
0
VERTEX
8
CUT
10
222.500
20
139.850
30
0
0
VERTEX
8
CUT
10
134.650
20
139.850
30
0
0
VERTEX
8
CUT
10
134.650
20
146.350
30
0
0
VERTEX
8
CUT
10
128.650
20
146.350
30
0
0
VERTEX
8
CUT
10
128.650
20
291.700
30
0
0
VERTEX
8
CUT
10
152.350
20
291.700
30
0
0
VERTEX
8
CUT
10
152.350
20
295.000
30
0
0
VERTEX
8
CUT
10
164.500
20
295.000
30
0
0
VERTEX
8
CUT
10
164.500
20
291.700
30
0
0
VERTEX
8
CUT
10
192.350
20
291.700
30
0
0
VERTEX
8
CUT
10
192.350
20
295.000
30
0
0
VERTEX
8
CUT
10
204.500
20
295.000
30
0
0
VERTEX
8
CUT
10
204.500
20
291.700
30
0
0
VERTEX
8
CUT
10
225.500
20
291.700
30
0
0
SEQEND
8
CUT
0
POLYLINE
8
CUT
66
1
70
1
10
0
20
0
30
0
0
VERTEX
8
CUT
10
256.949
20
247.625
30
0
0
VERTEX
8
CUT
10
256.809
20
248.692
30
0
0
VERTEX
8
CUT
10
256.397
20
249.687
30
0
0
VERTEX
8
CUT
10
255.741
20
250.541
30
0
0
VERTEX
8
CUT
10
254.887
20
251.197
30
0
0
VERTEX
8
CUT
10
253.892
20
251.609
30
0
0
VERTEX
8
CUT
10
252.825
20
251.749
30
0
0
VERTEX
8
CUT
10
251.758
20
251.609
30
0
0
VERTEX
8
CUT
10
250.763
20
251.197
30
0
0
VERTEX
8
CUT
10
249.909
20
250.541
30
0
0
VERTEX
8
CUT
10
249.253
20
249.687
30
0
0
VERTEX
8
CUT
10
248.841
20
248.692
30
0
0
VERTEX
8
CUT
10
248.701
20
247.625
30
0
0
VERTEX
8
CUT
10
248.841
20
246.558
30
0
0
VERTEX
8
CUT
10
249.253
20
245.563
30
0
0
VERTEX
8
CUT
10
249.909
20
244.709
30
0
0
VERTEX
8
CUT
10
250.763
20
244.053
30
0
0
VERTEX
8
CUT
10
251.758
20
243.641
30
0
0
VERTEX
8
CUT
10
252.825
20
243.501
30
0
0
VERTEX
8
CUT
10
253.892
20
243.641
30
0
0
VERTEX
8
CUT
10
254.887
20
244.053
30
0
0
VERTEX
8
CUT
10
255.741
20
244.709
30
0
0
VERTEX
8
CUT
10
256.397
20
245.563
30
0
0
VERTEX
8
CUT
10
256.809
20
246.558
30
0
0
SEQEND
8
CUT
0
POLYLINE
8
CUT
66
1
70
1
10
0
20
0
30
0
0
VERTEX
8
CUT
10
262.948
20
247.625
30
0
0
VERTEX
8
CUT
10
262.787
20
248.329
30
0
0
VERTEX
8
CUT
10
262.337
20
248.894
30
0
0
VERTEX
8
CUT
10
261.686
20
249.207
30
0
0
VERTEX
8
CUT
10
260.964
20
249.207
30
0
0
VERTEX
8
CUT
10
260.313
20
248.894
30
0
0
VERTEX
8
CUT
10
259.863
20
248.329
30
0
0
VERTEX
8
CUT
10
259.702
20
247.625
30
0
0
VERTEX
8
CUT
10
259.863
20
246.921
30
0
0
VERTEX
8
CUT
10
260.313
20
246.356
30
0
0
VERTEX
8
CUT
10
260.964
20
246.043
30
0
0
VERTEX
8
CUT
10
261.686
20
246.043
30
0
0
VERTEX
8
CUT
10
262.337
20
246.356
30
0
0
VERTEX
8
CUT
10
262.787
20
246.921
30
0
0
SEQEND
8
CUT
0
POLYLINE
8
CUT
66
1
70
1
10
0
20
0
30
0
0
VERTEX
8
CUT
10
245.948
20
247.625
30
0
0
VERTEX
8
CUT
10
245.787
20
248.329
30
0
0
VERTEX
8
CUT
10
245.337
20
248.894
30
0
0
VERTEX
8
CUT
10
244.686
20
249.207
30
0
0
VERTEX
8
CUT
10
243.964
20
249.207
30
0
0
VERTEX
8
CUT
10
243.313
20
248.894
30
0
0
VERTEX
8
CUT
10
242.863
20
248.329
30
0
0
VERTEX
8
CUT
10
242.702
20
247.625
30
0
0
VERTEX
8
CUT
10
242.863
20
246.921
30
0
0
VERTEX
8
CUT
10
243.313
20
246.356
30
0
0
VERTEX
8
CUT
10
243.964
20
246.043
30
0
0
VERTEX
8
CUT
10
244.686
20
246.043
30
0
0
VERTEX
8
CUT
10
245.337
20
246.356
30
0
0
VERTEX
8
CUT
10
245.787
20
246.921
30
0
0
SEQEND
8
CUT
0
POLYLINE
8
CUT
66
1
70
1
10
0
20
0
30
0
0
VERTEX
8
CUT
10
370.450
20
247.719
30
0
0
VERTEX
8
CUT
10
370.350
20
248.350
30
0
0
VERTEX
8
CUT
10
370.063
20
248.915
30
0
0
VERTEX
8
CUT
10
369.615
20
249.363
30
0
0
VERTEX
8
CUT
10
369.050
20
249.650
30
0
0
VERTEX
8
CUT
10
368.419
20
249.750
30
0
0
VERTEX
8
CUT
10
360.231
20
249.750
30
0
0
VERTEX
8
CUT
10
359.600
20
249.650
30
0
0
VERTEX
8
CUT
10
359.035
20
249.363
30
0
0
VERTEX
8
CUT
10
358.587
20
248.915
30
0
0
VERTEX
8
CUT
10
358.300
20
248.350
30
0
0
VERTEX
8
CUT
10
358.200
20
247.719
30
0
0
VERTEX
8
CUT
10
358.200
20
247.531
30
0
0
VERTEX
8
CUT
10
358.300
20
246.900
30
0
0
VERTEX
8
CUT
10
358.587
20
246.335
30
0
0
VERTEX
8
CUT
10
359.035
20
245.887
30
0
0
VERTEX
8
CUT
10
359.600
20
245.600
30
0
0
VERTEX
8
CUT
10
360.231
20
245.500
30
0
0
VERTEX
8
CUT
10
368.419
20
245.500
30
0
0
VERTEX
8
CUT
10
369.050
20
245.600
30
0
0
VERTEX
8
CUT
10
369.615
20
245.887
30
0
0
VERTEX
8
CUT
10
370.063
20
246.335
30
0
0
VERTEX
8
CUT
10
370.350
20
246.900
30
0
0
VERTEX
8
CUT
10
370.450
20
247.531
30
0
0
SEQEND
8
CUT
0
POLYLINE
8
CUT
66
1
70
1
10
0
20
0
30
0
0
VERTEX
8
CUT
10
284.975
20
237.425
30
0
0
VERTEX
8
CUT
10
294.925
20
237.425
30
0
0
VERTEX
8
CUT
10
294.925
20
240.375
30
0
0
VERTEX
8
CUT
10
284.975
20
240.375
30
0
0
SEQEND
8
CUT
0
POLYLINE
8
CUT
66
1
70
1
10
0
20
0
30
0
0
VERTEX
8
CUT
10
322.225
20
237.425
30
0
0
VERTEX
8
CUT
10
332.175
20
237.425
30
0
0
VERTEX
8
CUT
10
332.175
20
240.375
30
0
0
VERTEX
8
CUT
10
322.225
20
240.375
30
0
0
SEQEND
8
CUT
0
POLYLINE
8
CUT
66
1
70
1
10
0
20
0
30
0
0
VERTEX
8
CUT
10
359.475
20
237.425
30
0
0
VERTEX
8
CUT
10
369.425
20
237.425
30
0
0
VERTEX
8
CUT
10
369.425
20
240.375
30
0
0
VERTEX
8
CUT
10
359.475
20
240.375
30
0
0
SEQEND
8
CUT
0
POLYLINE
8
CUT
66
1
70
1
10
0
20
0
30
0
0
VERTEX
8
CUT
10
231.100
20
243.806
30
0
0
VERTEX
8
CUT
10
234.050
20
243.806
30
0
0
VERTEX
8
CUT
10
234.050
20
253.756
30
0
0
VERTEX
8
CUT
10
231.100
20
253.756
30
0
0
SEQEND
8
CUT
0
POLYLINE
8
CUT
66
1
70
1
10
0
20
0
30
0
0
VERTEX
8
CUT
10
231.100
20
272.569
30
0
0
VERTEX
8
CUT
10
234.050
20
272.569
30
0
0
VERTEX
8
CUT
10
234.050
20
282.519
30
0
0
VERTEX
8
CUT
10
231.100
20
282.519
30
0
0
SEQEND
8
CUT
0
POLYLINE
8
CUT
66
1
70
1
10
0
20
0
30
0
0
VERTEX
8
CUT
10
383.100
20
243.806
30
0
0
VERTEX
8
CUT
10
386.050
20
243.806
30
0
0
VERTEX
8
CUT
10
386.050
20
253.756
30
0
0
VERTEX
8
CUT
10
383.100
20
253.756
30
0
0
SEQEND
8
CUT
0
POLYLINE
8
CUT
66
1
70
1
10
0
20
0
30
0
0
VERTEX
8
CUT
10
383.100
20
272.569
30
0
0
VERTEX
8
CUT
10
386.050
20
272.569
30
0
0
VERTEX
8
CUT
10
386.050
20
282.519
30
0
0
VERTEX
8
CUT
10
383.100
20
282.519
30
0
0
SEQEND
8
CUT
0
POLYLINE
8
CUT
66
1
70
1
10
0
20
0
30
0
0
VERTEX
8
CUT
10
280.808
20
257.950
30
0
0
VERTEX
8
CUT
10
290.758
20
257.950
30
0
0
VERTEX
8
CUT
10
290.758
20
260.900
30
0
0
VERTEX
8
CUT
10
280.808
20
260.900
30
0
0
SEQEND
8
CUT
0
POLYLINE
8
CUT
66
1
70
1
10
0
20
0
30
0
0
VERTEX
8
CUT
10
319.725
20
257.950
30
0
0
VERTEX
8
CUT
10
329.675
20
257.950
30
0
0
VERTEX
8
CUT
10
329.675
20
260.900
30
0
0
VERTEX
8
CUT
10
319.725
20
260.900
30
0
0
SEQEND
8
CUT
0
POLYLINE
8
CUT
66
1
70
1
10
0
20
0
30
0
0
VERTEX
8
CUT
10
358.642
20
257.950
30
0
0
VERTEX
8
CUT
10
368.592
20
257.950
30
0
0
VERTEX
8
CUT
10
368.592
20
260.900
30
0
0
VERTEX
8
CUT
10
358.642
20
260.900
30
0
0
SEQEND
8
CUT
0
POLYLINE
8
CUT
66
1
70
1
10
0
20
0
30
0
0
VERTEX
8
CUT
10
228.000
20
234.325
30
0
0
VERTEX
8
CUT
10
389.150
20
234.325
30
0
0
VERTEX
8
CUT
10
389.150
20
292.000
30
0
0
VERTEX
8
CUT
10
378.050
20
292.000
30
0
0
VERTEX
8
CUT
10
378.050
20
295.000
30
0
0
VERTEX
8
CUT
10
367.900
20
295.000
30
0
0
VERTEX
8
CUT
10
367.900
20
292.000
30
0
0
VERTEX
8
CUT
10
340.200
20
292.000
30
0
0
VERTEX
8
CUT
10
340.200
20
285.150
30
0
0
VERTEX
8
CUT
10
341.400
20
285.150
30
0
0
VERTEX
8
CUT
10
341.400
20
282.700
30
0
0
VERTEX
8
CUT
10
340.200
20
282.700
30
0
0
VERTEX
8
CUT
10
340.200
20
279.000
30
0
0
VERTEX
8
CUT
10
336.950
20
279.000
30
0
0
VERTEX
8
CUT
10
336.950
20
282.700
30
0
0
VERTEX
8
CUT
10
335.750
20
282.700
30
0
0
VERTEX
8
CUT
10
335.750
20
285.150
30
0
0
VERTEX
8
CUT
10
336.950
20
285.150
30
0
0
VERTEX
8
CUT
10
336.950
20
292.000
30
0
0
VERTEX
8
CUT
10
313.650
20
292.000
30
0
0
VERTEX
8
CUT
10
313.650
20
295.000
30
0
0
VERTEX
8
CUT
10
303.500
20
295.000
30
0
0
VERTEX
8
CUT
10
303.500
20
292.000
30
0
0
VERTEX
8
CUT
10
280.200
20
292.000
30
0
0
VERTEX
8
CUT
10
280.200
20
285.150
30
0
0
VERTEX
8
CUT
10
281.400
20
285.150
30
0
0
VERTEX
8
CUT
10
281.400
20
282.700
30
0
0
VERTEX
8
CUT
10
280.200
20
282.700
30
0
0
VERTEX
8
CUT
10
280.200
20
279.000
30
0
0
VERTEX
8
CUT
10
276.950
20
279.000
30
0
0
VERTEX
8
CUT
10
276.950
20
282.700
30
0
0
VERTEX
8
CUT
10
275.750
20
282.700
30
0
0
VERTEX
8
CUT
10
275.750
20
285.150
30
0
0
VERTEX
8
CUT
10
276.950
20
285.150
30
0
0
VERTEX
8
CUT
10
276.950
20
292.000
30
0
0
VERTEX
8
CUT
10
249.250
20
292.000
30
0
0
VERTEX
8
CUT
10
249.250
20
295.000
30
0
0
VERTEX
8
CUT
10
239.100
20
295.000
30
0
0
VERTEX
8
CUT
10
239.100
20
292.000
30
0
0
VERTEX
8
CUT
10
228.000
20
292.000
30
0
0
SEQEND
8
CUT
0
POLYLINE
8
CUT
66
1
70
1
10
0
20
0
30
0
0
VERTEX
8
CUT
10
248.701
20
184.450
30
0
0
VERTEX
8
CUT
10
248.841
20
185.517
30
0
0
VERTEX
8
CUT
10
249.253
20
186.512
30
0
0
VERTEX
8
CUT
10
249.909
20
187.366
30
0
0
VERTEX
8
CUT
10
250.763
20
188.021
30
0
0
VERTEX
8
CUT
10
251.758
20
188.433
30
0
0
VERTEX
8
CUT
10
252.825
20
188.574
30
0
0
VERTEX
8
CUT
10
253.892
20
188.433
30
0
0
VERTEX
8
CUT
10
254.887
20
188.021
30
0
0
VERTEX
8
CUT
10
255.741
20
187.366
30
0
0
VERTEX
8
CUT
10
256.397
20
186.512
30
0
0
VERTEX
8
CUT
10
256.809
20
185.517
30
0
0
VERTEX
8
CUT
10
256.949
20
184.450
30
0
0
VERTEX
8
CUT
10
256.809
20
183.382
30
0
0
VERTEX
8
CUT
10
256.397
20
182.387
30
0
0
VERTEX
8
CUT
10
255.741
20
181.533
30
0
0
VERTEX
8
CUT
10
254.887
20
180.878
30
0
0
VERTEX
8
CUT
10
253.892
20
180.466
30
0
0
VERTEX
8
CUT
10
252.825
20
180.325
30
0
0
VERTEX
8
CUT
10
251.758
20
180.466
30
0
0
VERTEX
8
CUT
10
250.763
20
180.878
30
0
0
VERTEX
8
CUT
10
249.909
20
181.533
30
0
0
VERTEX
8
CUT
10
249.253
20
182.387
30
0
0
VERTEX
8
CUT
10
248.841
20
183.382
30
0
0
SEQEND
8
CUT
0
POLYLINE
8
CUT
66
1
70
1
10
0
20
0
30
0
0
VERTEX
8
CUT
10
242.702
20
184.450
30
0
0
VERTEX
8
CUT
10
242.863
20
185.154
30
0
0
VERTEX
8
CUT
10
243.313
20
185.719
30
0
0
VERTEX
8
CUT
10
243.964
20
186.032
30
0
0
VERTEX
8
CUT
10
244.686
20
186.032
30
0
0
VERTEX
8
CUT
10
245.337
20
185.719
30
0
0
VERTEX
8
CUT
10
245.787
20
185.154
30
0
0
VERTEX
8
CUT
10
245.948
20
184.450
30
0
0
VERTEX
8
CUT
10
245.787
20
183.745
30
0
0
VERTEX
8
CUT
10
245.337
20
183.181
30
0
0
VERTEX
8
CUT
10
244.686
20
182.867
30
0
0
VERTEX
8
CUT
10
243.964
20
182.867
30
0
0
VERTEX
8
CUT
10
243.313
20
183.181
30
0
0
VERTEX
8
CUT
10
242.863
20
183.745
30
0
0
SEQEND
8
CUT
0
POLYLINE
8
CUT
66
1
70
1
10
0
20
0
30
0
0
VERTEX
8
CUT
10
259.702
20
184.450
30
0
0
VERTEX
8
CUT
10
259.863
20
185.154
30
0
0
VERTEX
8
CUT
10
260.313
20
185.719
30
0
0
VERTEX
8
CUT
10
260.964
20
186.032
30
0
0
VERTEX
8
CUT
10
261.686
20
186.032
30
0
0
VERTEX
8
CUT
10
262.337
20
185.719
30
0
0
VERTEX
8
CUT
10
262.787
20
185.154
30
0
0
VERTEX
8
CUT
10
262.948
20
184.450
30
0
0
VERTEX
8
CUT
10
262.787
20
183.745
30
0
0
VERTEX
8
CUT
10
262.337
20
183.181
30
0
0
VERTEX
8
CUT
10
261.686
20
182.867
30
0
0
VERTEX
8
CUT
10
260.964
20
182.867
30
0
0
VERTEX
8
CUT
10
260.313
20
183.181
30
0
0
VERTEX
8
CUT
10
259.863
20
183.745
30
0
0
SEQEND
8
CUT
0
POLYLINE
8
CUT
66
1
70
1
10
0
20
0
30
0
0
VERTEX
8
CUT
10
358.200
20
184.544
30
0
0
VERTEX
8
CUT
10
358.300
20
185.175
30
0
0
VERTEX
8
CUT
10
358.587
20
185.739
30
0
0
VERTEX
8
CUT
10
359.035
20
186.187
30
0
0
VERTEX
8
CUT
10
359.600
20
186.475
30
0
0
VERTEX
8
CUT
10
360.231
20
186.575
30
0
0
VERTEX
8
CUT
10
368.419
20
186.575
30
0
0
VERTEX
8
CUT
10
369.050
20
186.475
30
0
0
VERTEX
8
CUT
10
369.615
20
186.187
30
0
0
VERTEX
8
CUT
10
370.063
20
185.739
30
0
0
VERTEX
8
CUT
10
370.350
20
185.175
30
0
0
VERTEX
8
CUT
10
370.450
20
184.544
30
0
0
VERTEX
8
CUT
10
370.450
20
184.355
30
0
0
VERTEX
8
CUT
10
370.350
20
183.724
30
0
0
VERTEX
8
CUT
10
370.063
20
183.160
30
0
0
VERTEX
8
CUT
10
369.615
20
182.712
30
0
0
VERTEX
8
CUT
10
369.050
20
182.425
30
0
0
VERTEX
8
CUT
10
368.419
20
182.325
30
0
0
VERTEX
8
CUT
10
360.231
20
182.325
30
0
0
VERTEX
8
CUT
10
359.600
20
182.425
30
0
0
VERTEX
8
CUT
10
359.035
20
182.712
30
0
0
VERTEX
8
CUT
10
358.587
20
183.160
30
0
0
VERTEX
8
CUT
10
358.300
20
183.724
30
0
0
VERTEX
8
CUT
10
358.200
20
184.355
30
0
0
SEQEND
8
CUT
0
POLYLINE
8
CUT
66
1
70
1
10
0
20
0
30
0
0
VERTEX
8
CUT
10
294.925
20
174.249
30
0
0
VERTEX
8
CUT
10
284.975
20
174.249
30
0
0
VERTEX
8
CUT
10
284.975
20
177.199
30
0
0
VERTEX
8
CUT
10
294.925
20
177.199
30
0
0
SEQEND
8
CUT
0
POLYLINE
8
CUT
66
1
70
1
10
0
20
0
30
0
0
VERTEX
8
CUT
10
332.175
20
174.249
30
0
0
VERTEX
8
CUT
10
322.225
20
174.249
30
0
0
VERTEX
8
CUT
10
322.225
20
177.199
30
0
0
VERTEX
8
CUT
10
332.175
20
177.199
30
0
0
SEQEND
8
CUT
0
POLYLINE
8
CUT
66
1
70
1
10
0
20
0
30
0
0
VERTEX
8
CUT
10
369.425
20
174.249
30
0
0
VERTEX
8
CUT
10
359.475
20
174.249
30
0
0
VERTEX
8
CUT
10
359.475
20
177.199
30
0
0
VERTEX
8
CUT
10
369.425
20
177.199
30
0
0
SEQEND
8
CUT
0
POLYLINE
8
CUT
66
1
70
1
10
0
20
0
30
0
0
VERTEX
8
CUT
10
386.050
20
209.393
30
0
0
VERTEX
8
CUT
10
383.100
20
209.393
30
0
0
VERTEX
8
CUT
10
383.100
20
219.343
30
0
0
VERTEX
8
CUT
10
386.050
20
219.343
30
0
0
SEQEND
8
CUT
0
POLYLINE
8
CUT
66
1
70
1
10
0
20
0
30
0
0
VERTEX
8
CUT
10
386.050
20
180.631
30
0
0
VERTEX
8
CUT
10
383.100
20
180.631
30
0
0
VERTEX
8
CUT
10
383.100
20
190.581
30
0
0
VERTEX
8
CUT
10
386.050
20
190.581
30
0
0
SEQEND
8
CUT
0
POLYLINE
8
CUT
66
1
70
1
10
0
20
0
30
0
0
VERTEX
8
CUT
10
234.050
20
209.393
30
0
0
VERTEX
8
CUT
10
231.100
20
209.393
30
0
0
VERTEX
8
CUT
10
231.100
20
219.343
30
0
0
VERTEX
8
CUT
10
234.050
20
219.343
30
0
0
SEQEND
8
CUT
0
POLYLINE
8
CUT
66
1
70
1
10
0
20
0
30
0
0
VERTEX
8
CUT
10
234.050
20
180.631
30
0
0
VERTEX
8
CUT
10
231.100
20
180.631
30
0
0
VERTEX
8
CUT
10
231.100
20
190.581
30
0
0
VERTEX
8
CUT
10
234.050
20
190.581
30
0
0
SEQEND
8
CUT
0
POLYLINE
8
CUT
66
1
70
1
10
0
20
0
30
0
0
VERTEX
8
CUT
10
389.150
20
171.149
30
0
0
VERTEX
8
CUT
10
228.000
20
171.149
30
0
0
VERTEX
8
CUT
10
228.000
20
228.825
30
0
0
VERTEX
8
CUT
10
239.100
20
228.825
30
0
0
VERTEX
8
CUT
10
239.100
20
231.825
30
0
0
VERTEX
8
CUT
10
249.250
20
231.825
30
0
0
VERTEX
8
CUT
10
249.250
20
228.825
30
0
0
VERTEX
8
CUT
10
276.950
20
228.825
30
0
0
VERTEX
8
CUT
10
276.950
20
221.975
30
0
0
VERTEX
8
CUT
10
275.750
20
221.975
30
0
0
VERTEX
8
CUT
10
275.750
20
219.525
30
0
0
VERTEX
8
CUT
10
276.950
20
219.525
30
0
0
VERTEX
8
CUT
10
276.950
20
215.825
30
0
0
VERTEX
8
CUT
10
280.200
20
215.825
30
0
0
VERTEX
8
CUT
10
280.200
20
219.525
30
0
0
VERTEX
8
CUT
10
281.400
20
219.525
30
0
0
VERTEX
8
CUT
10
281.400
20
221.975
30
0
0
VERTEX
8
CUT
10
280.200
20
221.975
30
0
0
VERTEX
8
CUT
10
280.200
20
228.825
30
0
0
VERTEX
8
CUT
10
303.500
20
228.825
30
0
0
VERTEX
8
CUT
10
303.500
20
231.825
30
0
0
VERTEX
8
CUT
10
313.650
20
231.825
30
0
0
VERTEX
8
CUT
10
313.650
20
228.825
30
0
0
VERTEX
8
CUT
10
336.950
20
228.825
30
0
0
VERTEX
8
CUT
10
336.950
20
221.975
30
0
0
VERTEX
8
CUT
10
335.750
20
221.975
30
0
0
VERTEX
8
CUT
10
335.750
20
219.525
30
0
0
VERTEX
8
CUT
10
336.950
20
219.525
30
0
0
VERTEX
8
CUT
10
336.950
20
215.825
30
0
0
VERTEX
8
CUT
10
340.200
20
215.825
30
0
0
VERTEX
8
CUT
10
340.200
20
219.525
30
0
0
VERTEX
8
CUT
10
341.400
20
219.525
30
0
0
VERTEX
8
CUT
10
341.400
20
221.975
30
0
0
VERTEX
8
CUT
10
340.200
20
221.975
30
0
0
VERTEX
8
CUT
10
340.200
20
228.825
30
0
0
VERTEX
8
CUT
10
367.900
20
228.825
30
0
0
VERTEX
8
CUT
10
367.900
20
231.825
30
0
0
VERTEX
8
CUT
10
378.050
20
231.825
30
0
0
VERTEX
8
CUT
10
378.050
20
228.825
30
0
0
VERTEX
8
CUT
10
389.150
20
228.825
30
0
0
SEQEND
8
CUT
0
POLYLINE
8
CUT
66
1
70
1
10
0
20
0
30
0
0
VERTEX
8
CUT
10
229.931
20
46.150
30
0
0
VERTEX
8
CUT
10
229.794
20
46.172
30
0
0
VERTEX
8
CUT
10
229.676
20
46.232
30
0
0
VERTEX
8
CUT
10
229.582
20
46.326
30
0
0
VERTEX
8
CUT
10
229.522
20
46.444
30
0
0
VERTEX
8
CUT
10
229.500
20
46.581
30
0
0
VERTEX
8
CUT
10
229.500
20
58.569
30
0
0
VERTEX
8
CUT
10
229.522
20
58.706
30
0
0
VERTEX
8
CUT
10
229.582
20
58.824
30
0
0
VERTEX
8
CUT
10
229.676
20
58.918
30
0
0
VERTEX
8
CUT
10
229.794
20
58.978
30
0
0
VERTEX
8
CUT
10
229.931
20
59.000
30
0
0
VERTEX
8
CUT
10
247.919
20
59.000
30
0
0
VERTEX
8
CUT
10
248.056
20
58.978
30
0
0
VERTEX
8
CUT
10
248.174
20
58.918
30
0
0
VERTEX
8
CUT
10
248.268
20
58.824
30
0
0
VERTEX
8
CUT
10
248.328
20
58.706
30
0
0
VERTEX
8
CUT
10
248.350
20
58.569
30
0
0
VERTEX
8
CUT
10
248.350
20
46.581
30
0
0
VERTEX
8
CUT
10
248.328
20
46.444
30
0
0
VERTEX
8
CUT
10
248.268
20
46.326
30
0
0
VERTEX
8
CUT
10
248.174
20
46.232
30
0
0
VERTEX
8
CUT
10
248.056
20
46.172
30
0
0
VERTEX
8
CUT
10
247.919
20
46.150
30
0
0
SEQEND
8
CUT
0
POLYLINE
8
CUT
66
1
70
1
10
0
20
0
30
0
0
VERTEX
8
CUT
10
200.631
20
68.100
30
0
0
VERTEX
8
CUT
10
200.494
20
68.122
30
0
0
VERTEX
8
CUT
10
200.376
20
68.182
30
0
0
VERTEX
8
CUT
10
200.282
20
68.276
30
0
0
VERTEX
8
CUT
10
200.222
20
68.394
30
0
0
VERTEX
8
CUT
10
200.200
20
68.531
30
0
0
VERTEX
8
CUT
10
200.200
20
91.219
30
0
0
VERTEX
8
CUT
10
200.222
20
91.356
30
0
0
VERTEX
8
CUT
10
200.282
20
91.474
30
0
0
VERTEX
8
CUT
10
200.376
20
91.568
30
0
0
VERTEX
8
CUT
10
200.494
20
91.628
30
0
0
VERTEX
8
CUT
10
200.631
20
91.650
30
0
0
VERTEX
8
CUT
10
212.219
20
91.650
30
0
0
VERTEX
8
CUT
10
212.356
20
91.628
30
0
0
VERTEX
8
CUT
10
212.474
20
91.568
30
0
0
VERTEX
8
CUT
10
212.568
20
91.474
30
0
0
VERTEX
8
CUT
10
212.628
20
91.356
30
0
0
VERTEX
8
CUT
10
212.650
20
91.219
30
0
0
VERTEX
8
CUT
10
212.650
20
68.531
30
0
0
VERTEX
8
CUT
10
212.628
20
68.394
30
0
0
VERTEX
8
CUT
10
212.568
20
68.276
30
0
0
VERTEX
8
CUT
10
212.474
20
68.182
30
0
0
VERTEX
8
CUT
10
212.356
20
68.122
30
0
0
VERTEX
8
CUT
10
212.219
20
68.100
30
0
0
SEQEND
8
CUT
0
POLYLINE
8
CUT
66
1
70
1
10
0
20
0
30
0
0
VERTEX
8
CUT
10
214.000
20
104.535
30
0
0
VERTEX
8
CUT
10
216.351
20
103.426
30
0
0
VERTEX
8
CUT
10
218.629
20
101.953
30
0
0
VERTEX
8
CUT
10
220.692
20
100.191
30
0
0
VERTEX
8
CUT
10
222.503
20
98.172
30
0
0
VERTEX
8
CUT
10
224.030
20
95.930
30
0
0
VERTEX
8
CUT
10
225.247
20
93.505
30
0
0
VERTEX
8
CUT
10
226.132
20
90.941
30
0
0
VERTEX
8
CUT
10
226.670
20
88.282
30
0
0
VERTEX
8
CUT
10
226.850
20
85.575
30
0
0
VERTEX
8
CUT
10
226.670
20
82.868
30
0
0
VERTEX
8
CUT
10
226.132
20
80.209
30
0
0
VERTEX
8
CUT
10
225.247
20
77.645
30
0
0
VERTEX
8
CUT
10
224.030
20
75.220
30
0
0
VERTEX
8
CUT
10
222.503
20
72.978
30
0
0
VERTEX
8
CUT
10
220.692
20
70.959
30
0
0
VERTEX
8
CUT
10
218.629
20
69.197
30
0
0
VERTEX
8
CUT
10
216.351
20
67.724
30
0
0
VERTEX
8
CUT
10
214.000
20
66.615
30
0
0
VERTEX
8
CUT
10
214.000
20
80.579
30
0
0
VERTEX
8
CUT
10
214.298
20
81.061
30
0
0
VERTEX
8
CUT
10
214.575
20
81.583
30
0
0
VERTEX
8
CUT
10
214.817
20
82.121
30
0
0
VERTEX
8
CUT
10
215.024
20
82.674
30
0
0
VERTEX
8
CUT
10
215.194
20
83.239
30
0
0
VERTEX
8
CUT
10
215.328
20
83.815
30
0
0
VERTEX
8
CUT
10
215.423
20
84.397
30
0
0
VERTEX
8
CUT
10
215.481
20
84.985
30
0
0
VERTEX
8
CUT
10
215.500
20
85.575
30
0
0
VERTEX
8
CUT
10
215.481
20
86.165
30
0
0
VERTEX
8
CUT
10
215.423
20
86.753
30
0
0
VERTEX
8
CUT
10
215.328
20
87.335
30
0
0
VERTEX
8
CUT
10
215.194
20
87.911
30
0
0
VERTEX
8
CUT
10
215.024
20
88.476
30
0
0
VERTEX
8
CUT
10
214.817
20
89.029
30
0
0
VERTEX
8
CUT
10
214.575
20
89.567
30
0
0
VERTEX
8
CUT
10
214.298
20
90.089
30
0
0
VERTEX
8
CUT
10
214.000
20
90.571
30
0
0
SEQEND
8
CUT
0
POLYLINE
8
CUT
66
1
70
1
10
0
20
0
30
0
0
VERTEX
8
CUT
10
206.425
20
93.054
30
0
0
VERTEX
8
CUT
10
206.001
20
93.192
30
0
0
VERTEX
8
CUT
10
205.739
20
93.552
30
0
0
VERTEX
8
CUT
10
205.739
20
93.998
30
0
0
VERTEX
8
CUT
10
206.001
20
94.358
30
0
0
VERTEX
8
CUT
10
206.425
20
94.496
30
0
0
VERTEX
8
CUT
10
206.849
20
94.358
30
0
0
VERTEX
8
CUT
10
207.111
20
93.998
30
0
0
VERTEX
8
CUT
10
207.111
20
93.552
30
0
0
VERTEX
8
CUT
10
206.849
20
93.192
30
0
0
SEQEND
8
CUT
0
POLYLINE
8
CUT
66
1
70
1
10
0
20
0
30
0
0
VERTEX
8
CUT
10
206.425
20
65.254
30
0
0
VERTEX
8
CUT
10
206.001
20
65.392
30
0
0
VERTEX
8
CUT
10
205.739
20
65.752
30
0
0
VERTEX
8
CUT
10
205.739
20
66.198
30
0
0
VERTEX
8
CUT
10
206.001
20
66.558
30
0
0
VERTEX
8
CUT
10
206.425
20
66.696
30
0
0
VERTEX
8
CUT
10
206.849
20
66.558
30
0
0
VERTEX
8
CUT
10
207.111
20
66.198
30
0
0
VERTEX
8
CUT
10
207.111
20
65.752
30
0
0
VERTEX
8
CUT
10
206.849
20
65.392
30
0
0
SEQEND
8
CUT
0
POLYLINE
8
CUT
66
1
70
1
10
0
20
0
30
0
0
VERTEX
8
CUT
10
196.400
20
54.850
30
0
0
VERTEX
8
CUT
10
196.400
20
44.900
30
0
0
VERTEX
8
CUT
10
193.450
20
44.900
30
0
0
VERTEX
8
CUT
10
193.450
20
54.850
30
0
0
SEQEND
8
CUT
0
POLYLINE
8
CUT
66
1
70
1
10
0
20
0
30
0
0
VERTEX
8
CUT
10
196.400
20
126.250
30
0
0
VERTEX
8
CUT
10
196.400
20
116.300
30
0
0
VERTEX
8
CUT
10
193.450
20
116.300
30
0
0
VERTEX
8
CUT
10
193.450
20
126.250
30
0
0
SEQEND
8
CUT
0
POLYLINE
8
CUT
66
1
70
1
10
0
20
0
30
0
0
VERTEX
8
CUT
10
212.150
20
136.150
30
0
0
VERTEX
8
CUT
10
212.150
20
133.200
30
0
0
VERTEX
8
CUT
10
202.200
20
133.200
30
0
0
VERTEX
8
CUT
10
202.200
20
136.150
30
0
0
SEQEND
8
CUT
0
POLYLINE
8
CUT
66
1
70
1
10
0
20
0
30
0
0
VERTEX
8
CUT
10
239.650
20
136.150
30
0
0
VERTEX
8
CUT
10
239.650
20
133.200
30
0
0
VERTEX
8
CUT
10
229.700
20
133.200
30
0
0
VERTEX
8
CUT
10
229.700
20
136.150
30
0
0
SEQEND
8
CUT
0
POLYLINE
8
CUT
66
1
70
1
10
0
20
0
30
0
0
VERTEX
8
CUT
10
212.150
20
37.950
30
0
0
VERTEX
8
CUT
10
212.150
20
35.000
30
0
0
VERTEX
8
CUT
10
202.200
20
35.000
30
0
0
VERTEX
8
CUT
10
202.200
20
37.950
30
0
0
SEQEND
8
CUT
0
POLYLINE
8
CUT
66
1
70
1
10
0
20
0
30
0
0
VERTEX
8
CUT
10
239.650
20
37.950
30
0
0
VERTEX
8
CUT
10
239.650
20
35.000
30
0
0
VERTEX
8
CUT
10
229.700
20
35.000
30
0
0
VERTEX
8
CUT
10
229.700
20
37.950
30
0
0
SEQEND
8
CUT
0
POLYLINE
8
CUT
66
1
70
1
10
0
20
0
30
0
0
VERTEX
8
CUT
10
226.828
20
60.018
30
0
0
VERTEX
8
CUT
10
226.828
20
57.068
30
0
0
VERTEX
8
CUT
10
223.878
20
57.068
30
0
0
VERTEX
8
CUT
10
223.878
20
60.018
30
0
0
SEQEND
8
CUT
0
POLYLINE
8
CUT
66
1
70
1
10
0
20
0
30
0
0
VERTEX
8
CUT
10
226.828
20
114.082
30
0
0
VERTEX
8
CUT
10
226.828
20
111.132
30
0
0
VERTEX
8
CUT
10
223.878
20
111.132
30
0
0
VERTEX
8
CUT
10
223.878
20
114.082
30
0
0
SEQEND
8
CUT
0
POLYLINE
8
CUT
66
1
70
1
10
0
20
0
30
0
0
VERTEX
8
CUT
10
250.200
20
135.280
30
0
0
VERTEX
8
CUT
10
250.200
20
35.870
30
0
0
VERTEX
8
CUT
10
250.130
20
35.338
30
0
0
VERTEX
8
CUT
10
249.923
20
34.837
30
0
0
VERTEX
8
CUT
10
249.593
20
34.407
30
0
0
VERTEX
8
CUT
10
249.163
20
34.077
30
0
0
VERTEX
8
CUT
10
248.662
20
33.870
30
0
0
VERTEX
8
CUT
10
248.130
20
33.800
30
0
0
VERTEX
8
CUT
10
164.720
20
33.800
30
0
0
VERTEX
8
CUT
10
164.188
20
33.870
30
0
0
VERTEX
8
CUT
10
163.687
20
34.077
30
0
0
VERTEX
8
CUT
10
163.257
20
34.407
30
0
0
VERTEX
8
CUT
10
162.927
20
34.837
30
0
0
VERTEX
8
CUT
10
162.720
20
35.338
30
0
0
VERTEX
8
CUT
10
162.650
20
35.870
30
0
0
VERTEX
8
CUT
10
162.650
20
135.280
30
0
0
VERTEX
8
CUT
10
162.720
20
135.812
30
0
0
VERTEX
8
CUT
10
162.927
20
136.313
30
0
0
VERTEX
8
CUT
10
163.257
20
136.743
30
0
0
VERTEX
8
CUT
10
163.687
20
137.073
30
0
0
VERTEX
8
CUT
10
164.188
20
137.280
30
0
0
VERTEX
8
CUT
10
164.720
20
137.350
30
0
0
VERTEX
8
CUT
10
248.130
20
137.350
30
0
0
VERTEX
8
CUT
10
248.662
20
137.280
30
0
0
VERTEX
8
CUT
10
249.163
20
137.073
30
0
0
VERTEX
8
CUT
10
249.593
20
136.743
30
0
0
VERTEX
8
CUT
10
249.923
20
136.313
30
0
0
VERTEX
8
CUT
10
250.130
20
135.812
30
0
0
SEQEND
8
CUT
0
POLYLINE
8
CUT
66
1
70
1
10
0
20
0
30
0
0
VERTEX
8
CUT
10
309.196
20
129.574
30
0
0
VERTEX
8
CUT
10
308.925
20
130.409
30
0
0
VERTEX
8
CUT
10
308.214
20
130.926
30
0
0
VERTEX
8
CUT
10
307.336
20
130.926
30
0
0
VERTEX
8
CUT
10
306.625
20
130.409
30
0
0
VERTEX
8
CUT
10
306.354
20
129.574
30
0
0
VERTEX
8
CUT
10
306.625
20
128.739
30
0
0
VERTEX
8
CUT
10
307.336
20
128.223
30
0
0
VERTEX
8
CUT
10
308.214
20
128.223
30
0
0
VERTEX
8
CUT
10
308.925
20
128.739
30
0
0
SEQEND
8
CUT
0
POLYLINE
8
CUT
66
1
70
1
10
0
20
0
30
0
0
VERTEX
8
CUT
10
314.696
20
129.574
30
0
0
VERTEX
8
CUT
10
314.425
20
130.409
30
0
0
VERTEX
8
CUT
10
313.714
20
130.926
30
0
0
VERTEX
8
CUT
10
312.836
20
130.926
30
0
0
VERTEX
8
CUT
10
312.125
20
130.409
30
0
0
VERTEX
8
CUT
10
311.854
20
129.574
30
0
0
VERTEX
8
CUT
10
312.125
20
128.739
30
0
0
VERTEX
8
CUT
10
312.836
20
128.223
30
0
0
VERTEX
8
CUT
10
313.714
20
128.223
30
0
0
VERTEX
8
CUT
10
314.425
20
128.739
30
0
0
SEQEND
8
CUT
0
POLYLINE
8
CUT
66
1
70
1
10
0
20
0
30
0
0
VERTEX
8
CUT
10
311.946
20
134.337
30
0
0
VERTEX
8
CUT
10
311.675
20
135.173
30
0
0
VERTEX
8
CUT
10
310.964
20
135.689
30
0
0
VERTEX
8
CUT
10
310.086
20
135.689
30
0
0
VERTEX
8
CUT
10
309.375
20
135.173
30
0
0
VERTEX
8
CUT
10
309.104
20
134.337
30
0
0
VERTEX
8
CUT
10
309.375
20
133.502
30
0
0
VERTEX
8
CUT
10
310.086
20
132.986
30
0
0
VERTEX
8
CUT
10
310.964
20
132.986
30
0
0
VERTEX
8
CUT
10
311.675
20
133.502
30
0
0
SEQEND
8
CUT
0
POLYLINE
8
CUT
66
1
70
1
10
0
20
0
30
0
0
VERTEX
8
CUT
10
306.446
20
134.337
30
0
0
VERTEX
8
CUT
10
306.175
20
135.173
30
0
0
VERTEX
8
CUT
10
305.464
20
135.689
30
0
0
VERTEX
8
CUT
10
304.586
20
135.689
30
0
0
VERTEX
8
CUT
10
303.875
20
135.173
30
0
0
VERTEX
8
CUT
10
303.604
20
134.337
30
0
0
VERTEX
8
CUT
10
303.875
20
133.502
30
0
0
VERTEX
8
CUT
10
304.586
20
132.986
30
0
0
VERTEX
8
CUT
10
305.464
20
132.986
30
0
0
VERTEX
8
CUT
10
306.175
20
133.502
30
0
0
SEQEND
8
CUT
0
POLYLINE
8
CUT
66
1
70
1
10
0
20
0
30
0
0
VERTEX
8
CUT
10
303.696
20
129.574
30
0
0
VERTEX
8
CUT
10
303.425
20
130.409
30
0
0
VERTEX
8
CUT
10
302.714
20
130.926
30
0
0
VERTEX
8
CUT
10
301.836
20
130.926
30
0
0
VERTEX
8
CUT
10
301.125
20
130.409
30
0
0
VERTEX
8
CUT
10
300.854
20
129.574
30
0
0
VERTEX
8
CUT
10
301.125
20
128.739
30
0
0
VERTEX
8
CUT
10
301.836
20
128.223
30
0
0
VERTEX
8
CUT
10
302.714
20
128.223
30
0
0
VERTEX
8
CUT
10
303.425
20
128.739
30
0
0
SEQEND
8
CUT
0
POLYLINE
8
CUT
66
1
70
1
10
0
20
0
30
0
0
VERTEX
8
CUT
10
306.446
20
124.811
30
0
0
VERTEX
8
CUT
10
306.175
20
125.646
30
0
0
VERTEX
8
CUT
10
305.464
20
126.163
30
0
0
VERTEX
8
CUT
10
304.586
20
126.163
30
0
0
VERTEX
8
CUT
10
303.875
20
125.646
30
0
0
VERTEX
8
CUT
10
303.604
20
124.811
30
0
0
VERTEX
8
CUT
10
303.875
20
123.976
30
0
0
VERTEX
8
CUT
10
304.586
20
123.459
30
0
0
VERTEX
8
CUT
10
305.464
20
123.459
30
0
0
VERTEX
8
CUT
10
306.175
20
123.976
30
0
0
SEQEND
8
CUT
0
POLYLINE
8
CUT
66
1
70
1
10
0
20
0
30
0
0
VERTEX
8
CUT
10
311.946
20
124.811
30
0
0
VERTEX
8
CUT
10
311.675
20
125.646
30
0
0
VERTEX
8
CUT
10
310.964
20
126.163
30
0
0
VERTEX
8
CUT
10
310.086
20
126.163
30
0
0
VERTEX
8
CUT
10
309.375
20
125.646
30
0
0
VERTEX
8
CUT
10
309.104
20
124.811
30
0
0
VERTEX
8
CUT
10
309.375
20
123.976
30
0
0
VERTEX
8
CUT
10
310.086
20
123.459
30
0
0
VERTEX
8
CUT
10
310.964
20
123.459
30
0
0
VERTEX
8
CUT
10
311.675
20
123.976
30
0
0
SEQEND
8
CUT
0
POLYLINE
8
CUT
66
1
70
1
10
0
20
0
30
0
0
VERTEX
8
CUT
10
320.196
20
129.574
30
0
0
VERTEX
8
CUT
10
319.925
20
130.409
30
0
0
VERTEX
8
CUT
10
319.214
20
130.926
30
0
0
VERTEX
8
CUT
10
318.336
20
130.926
30
0
0
VERTEX
8
CUT
10
317.625
20
130.409
30
0
0
VERTEX
8
CUT
10
317.354
20
129.574
30
0
0
VERTEX
8
CUT
10
317.625
20
128.739
30
0
0
VERTEX
8
CUT
10
318.336
20
128.223
30
0
0
VERTEX
8
CUT
10
319.214
20
128.223
30
0
0
VERTEX
8
CUT
10
319.925
20
128.739
30
0
0
SEQEND
8
CUT
0
POLYLINE
8
CUT
66
1
70
1
10
0
20
0
30
0
0
VERTEX
8
CUT
10
318.722
20
135.074
30
0
0
VERTEX
8
CUT
10
318.451
20
135.909
30
0
0
VERTEX
8
CUT
10
317.740
20
136.426
30
0
0
VERTEX
8
CUT
10
316.862
20
136.426
30
0
0
VERTEX
8
CUT
10
316.152
20
135.909
30
0
0
VERTEX
8
CUT
10
315.880
20
135.074
30
0
0
VERTEX
8
CUT
10
316.152
20
134.239
30
0
0
VERTEX
8
CUT
10
316.862
20
133.723
30
0
0
VERTEX
8
CUT
10
317.740
20
133.723
30
0
0
VERTEX
8
CUT
10
318.451
20
134.239
30
0
0
SEQEND
8
CUT
0
POLYLINE
8
CUT
66
1
70
1
10
0
20
0
30
0
0
VERTEX
8
CUT
10
314.696
20
139.100
30
0
0
VERTEX
8
CUT
10
314.425
20
139.936
30
0
0
VERTEX
8
CUT
10
313.714
20
140.452
30
0
0
VERTEX
8
CUT
10
312.836
20
140.452
30
0
0
VERTEX
8
CUT
10
312.125
20
139.936
30
0
0
VERTEX
8
CUT
10
311.854
20
139.100
30
0
0
VERTEX
8
CUT
10
312.125
20
138.265
30
0
0
VERTEX
8
CUT
10
312.836
20
137.749
30
0
0
VERTEX
8
CUT
10
313.714
20
137.749
30
0
0
VERTEX
8
CUT
10
314.425
20
138.265
30
0
0
SEQEND
8
CUT
0
POLYLINE
8
CUT
66
1
70
1
10
0
20
0
30
0
0
VERTEX
8
CUT
10
309.196
20
140.574
30
0
0
VERTEX
8
CUT
10
308.925
20
141.409
30
0
0
VERTEX
8
CUT
10
308.214
20
141.926
30
0
0
VERTEX
8
CUT
10
307.336
20
141.926
30
0
0
VERTEX
8
CUT
10
306.625
20
141.409
30
0
0
VERTEX
8
CUT
10
306.354
20
140.574
30
0
0
VERTEX
8
CUT
10
306.625
20
139.739
30
0
0
VERTEX
8
CUT
10
307.336
20
139.223
30
0
0
VERTEX
8
CUT
10
308.214
20
139.223
30
0
0
VERTEX
8
CUT
10
308.925
20
139.739
30
0
0
SEQEND
8
CUT
0
POLYLINE
8
CUT
66
1
70
1
10
0
20
0
30
0
0
VERTEX
8
CUT
10
303.696
20
139.100
30
0
0
VERTEX
8
CUT
10
303.425
20
139.936
30
0
0
VERTEX
8
CUT
10
302.714
20
140.452
30
0
0
VERTEX
8
CUT
10
301.836
20
140.452
30
0
0
VERTEX
8
CUT
10
301.125
20
139.936
30
0
0
VERTEX
8
CUT
10
300.854
20
139.100
30
0
0
VERTEX
8
CUT
10
301.125
20
138.265
30
0
0
VERTEX
8
CUT
10
301.836
20
137.749
30
0
0
VERTEX
8
CUT
10
302.714
20
137.749
30
0
0
VERTEX
8
CUT
10
303.425
20
138.265
30
0
0
SEQEND
8
CUT
0
POLYLINE
8
CUT
66
1
70
1
10
0
20
0
30
0
0
VERTEX
8
CUT
10
299.670
20
135.074
30
0
0
VERTEX
8
CUT
10
299.398
20
135.909
30
0
0
VERTEX
8
CUT
10
298.688
20
136.426
30
0
0
VERTEX
8
CUT
10
297.810
20
136.426
30
0
0
VERTEX
8
CUT
10
297.099
20
135.909
30
0
0
VERTEX
8
CUT
10
296.828
20
135.074
30
0
0
VERTEX
8
CUT
10
297.099
20
134.239
30
0
0
VERTEX
8
CUT
10
297.810
20
133.723
30
0
0
VERTEX
8
CUT
10
298.688
20
133.723
30
0
0
VERTEX
8
CUT
10
299.398
20
134.239
30
0
0
SEQEND
8
CUT
0
POLYLINE
8
CUT
66
1
70
1
10
0
20
0
30
0
0
VERTEX
8
CUT
10
298.196
20
129.574
30
0
0
VERTEX
8
CUT
10
297.925
20
130.409
30
0
0
VERTEX
8
CUT
10
297.214
20
130.926
30
0
0
VERTEX
8
CUT
10
296.336
20
130.926
30
0
0
VERTEX
8
CUT
10
295.625
20
130.409
30
0
0
VERTEX
8
CUT
10
295.354
20
129.574
30
0
0
VERTEX
8
CUT
10
295.625
20
128.739
30
0
0
VERTEX
8
CUT
10
296.336
20
128.223
30
0
0
VERTEX
8
CUT
10
297.214
20
128.223
30
0
0
VERTEX
8
CUT
10
297.925
20
128.739
30
0
0
SEQEND
8
CUT
0
POLYLINE
8
CUT
66
1
70
1
10
0
20
0
30
0
0
VERTEX
8
CUT
10
299.670
20
124.074
30
0
0
VERTEX
8
CUT
10
299.398
20
124.909
30
0
0
VERTEX
8
CUT
10
298.688
20
125.426
30
0
0
VERTEX
8
CUT
10
297.810
20
125.426
30
0
0
VERTEX
8
CUT
10
297.099
20
124.909
30
0
0
VERTEX
8
CUT
10
296.828
20
124.074
30
0
0
VERTEX
8
CUT
10
297.099
20
123.239
30
0
0
VERTEX
8
CUT
10
297.810
20
122.723
30
0
0
VERTEX
8
CUT
10
298.688
20
122.723
30
0
0
VERTEX
8
CUT
10
299.398
20
123.239
30
0
0
SEQEND
8
CUT
0
POLYLINE
8
CUT
66
1
70
1
10
0
20
0
30
0
0
VERTEX
8
CUT
10
303.696
20
120.048
30
0
0
VERTEX
8
CUT
10
303.425
20
120.883
30
0
0
VERTEX
8
CUT
10
302.714
20
121.399
30
0
0
VERTEX
8
CUT
10
301.836
20
121.399
30
0
0
VERTEX
8
CUT
10
301.125
20
120.883
30
0
0
VERTEX
8
CUT
10
300.854
20
120.048
30
0
0
VERTEX
8
CUT
10
301.125
20
119.213
30
0
0
VERTEX
8
CUT
10
301.836
20
118.696
30
0
0
VERTEX
8
CUT
10
302.714
20
118.696
30
0
0
VERTEX
8
CUT
10
303.425
20
119.213
30
0
0
SEQEND
8
CUT
0
POLYLINE
8
CUT
66
1
70
1
10
0
20
0
30
0
0
VERTEX
8
CUT
10
309.196
20
118.574
30
0
0
VERTEX
8
CUT
10
308.925
20
119.409
30
0
0
VERTEX
8
CUT
10
308.214
20
119.926
30
0
0
VERTEX
8
CUT
10
307.336
20
119.926
30
0
0
VERTEX
8
CUT
10
306.625
20
119.409
30
0
0
VERTEX
8
CUT
10
306.354
20
118.574
30
0
0
VERTEX
8
CUT
10
306.625
20
117.739
30
0
0
VERTEX
8
CUT
10
307.336
20
117.223
30
0
0
VERTEX
8
CUT
10
308.214
20
117.223
30
0
0
VERTEX
8
CUT
10
308.925
20
117.739
30
0
0
SEQEND
8
CUT
0
POLYLINE
8
CUT
66
1
70
1
10
0
20
0
30
0
0
VERTEX
8
CUT
10
314.696
20
120.048
30
0
0
VERTEX
8
CUT
10
314.425
20
120.883
30
0
0
VERTEX
8
CUT
10
313.714
20
121.399
30
0
0
VERTEX
8
CUT
10
312.836
20
121.399
30
0
0
VERTEX
8
CUT
10
312.125
20
120.883
30
0
0
VERTEX
8
CUT
10
311.854
20
120.048
30
0
0
VERTEX
8
CUT
10
312.125
20
119.213
30
0
0
VERTEX
8
CUT
10
312.836
20
118.696
30
0
0
VERTEX
8
CUT
10
313.714
20
118.696
30
0
0
VERTEX
8
CUT
10
314.425
20
119.213
30
0
0
SEQEND
8
CUT
0
POLYLINE
8
CUT
66
1
70
1
10
0
20
0
30
0
0
VERTEX
8
CUT
10
318.722
20
124.074
30
0
0
VERTEX
8
CUT
10
318.451
20
124.909
30
0
0
VERTEX
8
CUT
10
317.740
20
125.426
30
0
0
VERTEX
8
CUT
10
316.862
20
125.426
30
0
0
VERTEX
8
CUT
10
316.152
20
124.909
30
0
0
VERTEX
8
CUT
10
315.880
20
124.074
30
0
0
VERTEX
8
CUT
10
316.152
20
123.239
30
0
0
VERTEX
8
CUT
10
316.862
20
122.723
30
0
0
VERTEX
8
CUT
10
317.740
20
122.723
30
0
0
VERTEX
8
CUT
10
318.451
20
123.239
30
0
0
SEQEND
8
CUT
0
POLYLINE
8
CUT
66
1
70
1
10
0
20
0
30
0
0
VERTEX
8
CUT
10
255.700
20
90.499
30
0
0
VERTEX
8
CUT
10
359.850
20
90.499
30
0
0
VERTEX
8
CUT
10
359.850
20
104.999
30
0
0
VERTEX
8
CUT
10
362.850
20
104.999
30
0
0
VERTEX
8
CUT
10
362.850
20
115.149
30
0
0
VERTEX
8
CUT
10
359.850
20
115.149
30
0
0
VERTEX
8
CUT
10
359.850
20
143.999
30
0
0
VERTEX
8
CUT
10
362.850
20
143.999
30
0
0
VERTEX
8
CUT
10
362.850
20
154.149
30
0
0
VERTEX
8
CUT
10
359.850
20
154.149
30
0
0
VERTEX
8
CUT
10
359.850
20
168.649
30
0
0
VERTEX
8
CUT
10
255.700
20
168.649
30
0
0
VERTEX
8
CUT
10
255.700
20
154.149
30
0
0
VERTEX
8
CUT
10
252.700
20
154.149
30
0
0
VERTEX
8
CUT
10
252.700
20
143.999
30
0
0
VERTEX
8
CUT
10
255.700
20
143.999
30
0
0
VERTEX
8
CUT
10
255.700
20
115.149
30
0
0
VERTEX
8
CUT
10
252.700
20
115.149
30
0
0
VERTEX
8
CUT
10
252.700
20
104.999
30
0
0
VERTEX
8
CUT
10
255.700
20
104.999
30
0
0
SEQEND
8
CUT
0
POLYLINE
8
CUT
66
1
70
1
10
0
20
0
30
0
0
VERTEX
8
CUT
10
321.600
20
60.718
30
0
0
VERTEX
8
CUT
10
321.656
20
61.072
30
0
0
VERTEX
8
CUT
10
321.816
20
61.385
30
0
0
VERTEX
8
CUT
10
322.064
20
61.634
30
0
0
VERTEX
8
CUT
10
322.378
20
61.793
30
0
0
VERTEX
8
CUT
10
322.731
20
61.849
30
0
0
VERTEX
8
CUT
10
322.819
20
61.849
30
0
0
VERTEX
8
CUT
10
323.172
20
61.793
30
0
0
VERTEX
8
CUT
10
323.486
20
61.634
30
0
0
VERTEX
8
CUT
10
323.734
20
61.385
30
0
0
VERTEX
8
CUT
10
323.894
20
61.072
30
0
0
VERTEX
8
CUT
10
323.950
20
60.718
30
0
0
VERTEX
8
CUT
10
323.950
20
49.130
30
0
0
VERTEX
8
CUT
10
323.894
20
48.777
30
0
0
VERTEX
8
CUT
10
323.734
20
48.463
30
0
0
VERTEX
8
CUT
10
323.486
20
48.215
30
0
0
VERTEX
8
CUT
10
323.172
20
48.055
30
0
0
VERTEX
8
CUT
10
322.819
20
47.999
30
0
0
VERTEX
8
CUT
10
322.731
20
47.999
30
0
0
VERTEX
8
CUT
10
322.378
20
48.055
30
0
0
VERTEX
8
CUT
10
322.064
20
48.215
30
0
0
VERTEX
8
CUT
10
321.816
20
48.463
30
0
0
VERTEX
8
CUT
10
321.656
20
48.777
30
0
0
VERTEX
8
CUT
10
321.600
20
49.130
30
0
0
SEQEND
8
CUT
0
POLYLINE
8
CUT
66
1
70
1
10
0
20
0
30
0
0
VERTEX
8
CUT
10
316.600
20
60.718
30
0
0
VERTEX
8
CUT
10
316.656
20
61.072
30
0
0
VERTEX
8
CUT
10
316.816
20
61.385
30
0
0
VERTEX
8
CUT
10
317.064
20
61.634
30
0
0
VERTEX
8
CUT
10
317.378
20
61.793
30
0
0
VERTEX
8
CUT
10
317.731
20
61.849
30
0
0
VERTEX
8
CUT
10
317.819
20
61.849
30
0
0
VERTEX
8
CUT
10
318.172
20
61.793
30
0
0
VERTEX
8
CUT
10
318.486
20
61.634
30
0
0
VERTEX
8
CUT
10
318.734
20
61.385
30
0
0
VERTEX
8
CUT
10
318.894
20
61.072
30
0
0
VERTEX
8
CUT
10
318.950
20
60.718
30
0
0
VERTEX
8
CUT
10
318.950
20
49.130
30
0
0
VERTEX
8
CUT
10
318.894
20
48.777
30
0
0
VERTEX
8
CUT
10
318.734
20
48.463
30
0
0
VERTEX
8
CUT
10
318.486
20
48.215
30
0
0
VERTEX
8
CUT
10
318.172
20
48.055
30
0
0
VERTEX
8
CUT
10
317.819
20
47.999
30
0
0
VERTEX
8
CUT
10
317.731
20
47.999
30
0
0
VERTEX
8
CUT
10
317.378
20
48.055
30
0
0
VERTEX
8
CUT
10
317.064
20
48.215
30
0
0
VERTEX
8
CUT
10
316.816
20
48.463
30
0
0
VERTEX
8
CUT
10
316.656
20
48.777
30
0
0
VERTEX
8
CUT
10
316.600
20
49.130
30
0
0
SEQEND
8
CUT
0
POLYLINE
8
CUT
66
1
70
1
10
0
20
0
30
0
0
VERTEX
8
CUT
10
311.600
20
60.718
30
0
0
VERTEX
8
CUT
10
311.656
20
61.072
30
0
0
VERTEX
8
CUT
10
311.816
20
61.385
30
0
0
VERTEX
8
CUT
10
312.064
20
61.634
30
0
0
VERTEX
8
CUT
10
312.378
20
61.793
30
0
0
VERTEX
8
CUT
10
312.731
20
61.849
30
0
0
VERTEX
8
CUT
10
312.819
20
61.849
30
0
0
VERTEX
8
CUT
10
313.172
20
61.793
30
0
0
VERTEX
8
CUT
10
313.486
20
61.634
30
0
0
VERTEX
8
CUT
10
313.734
20
61.385
30
0
0
VERTEX
8
CUT
10
313.894
20
61.072
30
0
0
VERTEX
8
CUT
10
313.950
20
60.718
30
0
0
VERTEX
8
CUT
10
313.950
20
49.130
30
0
0
VERTEX
8
CUT
10
313.894
20
48.777
30
0
0
VERTEX
8
CUT
10
313.734
20
48.463
30
0
0
VERTEX
8
CUT
10
313.486
20
48.215
30
0
0
VERTEX
8
CUT
10
313.172
20
48.055
30
0
0
VERTEX
8
CUT
10
312.819
20
47.999
30
0
0
VERTEX
8
CUT
10
312.731
20
47.999
30
0
0
VERTEX
8
CUT
10
312.378
20
48.055
30
0
0
VERTEX
8
CUT
10
312.064
20
48.215
30
0
0
VERTEX
8
CUT
10
311.816
20
48.463
30
0
0
VERTEX
8
CUT
10
311.656
20
48.777
30
0
0
VERTEX
8
CUT
10
311.600
20
49.130
30
0
0
SEQEND
8
CUT
0
POLYLINE
8
CUT
66
1
70
1
10
0
20
0
30
0
0
VERTEX
8
CUT
10
306.600
20
60.718
30
0
0
VERTEX
8
CUT
10
306.656
20
61.072
30
0
0
VERTEX
8
CUT
10
306.816
20
61.385
30
0
0
VERTEX
8
CUT
10
307.064
20
61.634
30
0
0
VERTEX
8
CUT
10
307.378
20
61.793
30
0
0
VERTEX
8
CUT
10
307.731
20
61.849
30
0
0
VERTEX
8
CUT
10
307.819
20
61.849
30
0
0
VERTEX
8
CUT
10
308.172
20
61.793
30
0
0
VERTEX
8
CUT
10
308.486
20
61.634
30
0
0
VERTEX
8
CUT
10
308.734
20
61.385
30
0
0
VERTEX
8
CUT
10
308.894
20
61.072
30
0
0
VERTEX
8
CUT
10
308.950
20
60.718
30
0
0
VERTEX
8
CUT
10
308.950
20
49.130
30
0
0
VERTEX
8
CUT
10
308.894
20
48.777
30
0
0
VERTEX
8
CUT
10
308.734
20
48.463
30
0
0
VERTEX
8
CUT
10
308.486
20
48.215
30
0
0
VERTEX
8
CUT
10
308.172
20
48.055
30
0
0
VERTEX
8
CUT
10
307.819
20
47.999
30
0
0
VERTEX
8
CUT
10
307.731
20
47.999
30
0
0
VERTEX
8
CUT
10
307.378
20
48.055
30
0
0
VERTEX
8
CUT
10
307.064
20
48.215
30
0
0
VERTEX
8
CUT
10
306.816
20
48.463
30
0
0
VERTEX
8
CUT
10
306.656
20
48.777
30
0
0
VERTEX
8
CUT
10
306.600
20
49.130
30
0
0
SEQEND
8
CUT
0
POLYLINE
8
CUT
66
1
70
1
10
0
20
0
30
0
0
VERTEX
8
CUT
10
301.600
20
60.718
30
0
0
VERTEX
8
CUT
10
301.656
20
61.072
30
0
0
VERTEX
8
CUT
10
301.816
20
61.385
30
0
0
VERTEX
8
CUT
10
302.064
20
61.634
30
0
0
VERTEX
8
CUT
10
302.378
20
61.793
30
0
0
VERTEX
8
CUT
10
302.731
20
61.849
30
0
0
VERTEX
8
CUT
10
302.819
20
61.849
30
0
0
VERTEX
8
CUT
10
303.172
20
61.793
30
0
0
VERTEX
8
CUT
10
303.486
20
61.634
30
0
0
VERTEX
8
CUT
10
303.734
20
61.385
30
0
0
VERTEX
8
CUT
10
303.894
20
61.072
30
0
0
VERTEX
8
CUT
10
303.950
20
60.718
30
0
0
VERTEX
8
CUT
10
303.950
20
49.130
30
0
0
VERTEX
8
CUT
10
303.894
20
48.777
30
0
0
VERTEX
8
CUT
10
303.734
20
48.463
30
0
0
VERTEX
8
CUT
10
303.486
20
48.215
30
0
0
VERTEX
8
CUT
10
303.172
20
48.055
30
0
0
VERTEX
8
CUT
10
302.819
20
47.999
30
0
0
VERTEX
8
CUT
10
302.731
20
47.999
30
0
0
VERTEX
8
CUT
10
302.378
20
48.055
30
0
0
VERTEX
8
CUT
10
302.064
20
48.215
30
0
0
VERTEX
8
CUT
10
301.816
20
48.463
30
0
0
VERTEX
8
CUT
10
301.656
20
48.777
30
0
0
VERTEX
8
CUT
10
301.600
20
49.130
30
0
0
SEQEND
8
CUT
0
POLYLINE
8
CUT
66
1
70
1
10
0
20
0
30
0
0
VERTEX
8
CUT
10
296.600
20
60.718
30
0
0
VERTEX
8
CUT
10
296.656
20
61.072
30
0
0
VERTEX
8
CUT
10
296.816
20
61.385
30
0
0
VERTEX
8
CUT
10
297.064
20
61.634
30
0
0
VERTEX
8
CUT
10
297.378
20
61.793
30
0
0
VERTEX
8
CUT
10
297.731
20
61.849
30
0
0
VERTEX
8
CUT
10
297.819
20
61.849
30
0
0
VERTEX
8
CUT
10
298.172
20
61.793
30
0
0
VERTEX
8
CUT
10
298.486
20
61.634
30
0
0
VERTEX
8
CUT
10
298.734
20
61.385
30
0
0
VERTEX
8
CUT
10
298.894
20
61.072
30
0
0
VERTEX
8
CUT
10
298.950
20
60.718
30
0
0
VERTEX
8
CUT
10
298.950
20
49.130
30
0
0
VERTEX
8
CUT
10
298.894
20
48.777
30
0
0
VERTEX
8
CUT
10
298.734
20
48.463
30
0
0
VERTEX
8
CUT
10
298.486
20
48.215
30
0
0
VERTEX
8
CUT
10
298.172
20
48.055
30
0
0
VERTEX
8
CUT
10
297.819
20
47.999
30
0
0
VERTEX
8
CUT
10
297.731
20
47.999
30
0
0
VERTEX
8
CUT
10
297.378
20
48.055
30
0
0
VERTEX
8
CUT
10
297.064
20
48.215
30
0
0
VERTEX
8
CUT
10
296.816
20
48.463
30
0
0
VERTEX
8
CUT
10
296.656
20
48.777
30
0
0
VERTEX
8
CUT
10
296.600
20
49.130
30
0
0
SEQEND
8
CUT
0
POLYLINE
8
CUT
66
1
70
1
10
0
20
0
30
0
0
VERTEX
8
CUT
10
291.600
20
60.718
30
0
0
VERTEX
8
CUT
10
291.656
20
61.072
30
0
0
VERTEX
8
CUT
10
291.816
20
61.385
30
0
0
VERTEX
8
CUT
10
292.064
20
61.634
30
0
0
VERTEX
8
CUT
10
292.378
20
61.793
30
0
0
VERTEX
8
CUT
10
292.731
20
61.849
30
0
0
VERTEX
8
CUT
10
292.819
20
61.849
30
0
0
VERTEX
8
CUT
10
293.172
20
61.793
30
0
0
VERTEX
8
CUT
10
293.486
20
61.634
30
0
0
VERTEX
8
CUT
10
293.734
20
61.385
30
0
0
VERTEX
8
CUT
10
293.894
20
61.072
30
0
0
VERTEX
8
CUT
10
293.950
20
60.718
30
0
0
VERTEX
8
CUT
10
293.950
20
49.130
30
0
0
VERTEX
8
CUT
10
293.894
20
48.777
30
0
0
VERTEX
8
CUT
10
293.734
20
48.463
30
0
0
VERTEX
8
CUT
10
293.486
20
48.215
30
0
0
VERTEX
8
CUT
10
293.172
20
48.055
30
0
0
VERTEX
8
CUT
10
292.819
20
47.999
30
0
0
VERTEX
8
CUT
10
292.731
20
47.999
30
0
0
VERTEX
8
CUT
10
292.378
20
48.055
30
0
0
VERTEX
8
CUT
10
292.064
20
48.215
30
0
0
VERTEX
8
CUT
10
291.816
20
48.463
30
0
0
VERTEX
8
CUT
10
291.656
20
48.777
30
0
0
VERTEX
8
CUT
10
291.600
20
49.130
30
0
0
SEQEND
8
CUT
0
POLYLINE
8
CUT
66
1
70
1
10
0
20
0
30
0
0
VERTEX
8
CUT
10
359.850
20
9.849
30
0
0
VERTEX
8
CUT
10
255.700
20
9.849
30
0
0
VERTEX
8
CUT
10
255.700
20
24.349
30
0
0
VERTEX
8
CUT
10
252.700
20
24.349
30
0
0
VERTEX
8
CUT
10
252.700
20
34.499
30
0
0
VERTEX
8
CUT
10
255.700
20
34.499
30
0
0
VERTEX
8
CUT
10
255.700
20
63.349
30
0
0
VERTEX
8
CUT
10
252.700
20
63.349
30
0
0
VERTEX
8
CUT
10
252.700
20
73.499
30
0
0
VERTEX
8
CUT
10
255.700
20
73.499
30
0
0
VERTEX
8
CUT
10
255.700
20
87.999
30
0
0
VERTEX
8
CUT
10
359.850
20
87.999
30
0
0
VERTEX
8
CUT
10
359.850
20
73.499
30
0
0
VERTEX
8
CUT
10
362.850
20
73.499
30
0
0
VERTEX
8
CUT
10
362.850
20
63.349
30
0
0
VERTEX
8
CUT
10
359.850
20
63.349
30
0
0
VERTEX
8
CUT
10
359.850
20
34.499
30
0
0
VERTEX
8
CUT
10
362.850
20
34.499
30
0
0
VERTEX
8
CUT
10
362.850
20
24.349
30
0
0
VERTEX
8
CUT
10
359.850
20
24.349
30
0
0
SEQEND
8
CUT
0
POLYLINE
8
CUT
66
1
70
1
10
0
20
0
30
0
0
VERTEX
8
CUT
10
373.500
20
168.649
30
0
0
VERTEX
8
CUT
10
373.500
20
155.187
30
0
0
VERTEX
8
CUT
10
376.500
20
155.187
30
0
0
VERTEX
8
CUT
10
376.500
20
145.037
30
0
0
VERTEX
8
CUT
10
373.500
20
145.037
30
0
0
VERTEX
8
CUT
10
373.500
20
118.262
30
0
0
VERTEX
8
CUT
10
376.500
20
118.262
30
0
0
VERTEX
8
CUT
10
376.500
20
108.112
30
0
0
VERTEX
8
CUT
10
373.500
20
108.112
30
0
0
VERTEX
8
CUT
10
373.500
20
81.337
30
0
0
VERTEX
8
CUT
10
376.500
20
81.337
30
0
0
VERTEX
8
CUT
10
376.500
20
71.187
30
0
0
VERTEX
8
CUT
10
373.500
20
71.187
30
0
0
VERTEX
8
CUT
10
373.500
20
44.412
30
0
0
VERTEX
8
CUT
10
376.500
20
44.412
30
0
0
VERTEX
8
CUT
10
376.500
20
34.262
30
0
0
VERTEX
8
CUT
10
373.500
20
34.262
30
0
0
VERTEX
8
CUT
10
373.500
20
20.799
30
0
0
VERTEX
8
CUT
10
365.350
20
20.799
30
0
0
VERTEX
8
CUT
10
365.350
20
168.649
30
0
0
SEQEND
8
CUT
0
POLYLINE
8
CUT
66
1
70
1
10
0
20
0
30
0
0
VERTEX
8
CUT
10
388.150
20
51.749
30
0
0
VERTEX
8
CUT
10
382.000
20
51.749
30
0
0
VERTEX
8
CUT
10
382.000
20
66.207
30
0
0
VERTEX
8
CUT
10
379.000
20
66.207
30
0
0
VERTEX
8
CUT
10
379.000
20
76.357
30
0
0
VERTEX
8
CUT
10
382.000
20
76.357
30
0
0
VERTEX
8
CUT
10
382.000
20
105.124
30
0
0
VERTEX
8
CUT
10
379.000
20
105.124
30
0
0
VERTEX
8
CUT
10
379.000
20
115.274
30
0
0
VERTEX
8
CUT
10
382.000
20
115.274
30
0
0
VERTEX
8
CUT
10
382.000
20
144.041
30
0
0
VERTEX
8
CUT
10
379.000
20
144.041
30
0
0
VERTEX
8
CUT
10
379.000
20
154.191
30
0
0
VERTEX
8
CUT
10
382.000
20
154.191
30
0
0
VERTEX
8
CUT
10
382.000
20
168.649
30
0
0
VERTEX
8
CUT
10
388.150
20
168.649
30
0
0
SEQEND
8
CUT
0
POLYLINE
8
CUT
66
1
70
1
10
0
20
0
30
0
0
VERTEX
8
CUT
10
193.091
20
20.371
30
0
0
VERTEX
8
CUT
10
193.395
20
18.647
30
0
0
VERTEX
8
CUT
10
188.520
20
17.788
30
0
0
VERTEX
8
CUT
10
189.402
20
12.787
30
0
0
VERTEX
8
CUT
10
170.838
20
9.514
30
0
0
VERTEX
8
CUT
10
169.956
20
14.515
30
0
0
VERTEX
8
CUT
10
165.081
20
13.655
30
0
0
VERTEX
8
CUT
10
164.778
20
15.378
30
0
0
VERTEX
8
CUT
10
169.652
20
16.238
30
0
0
VERTEX
8
CUT
10
168.567
20
22.393
30
0
0
VERTEX
8
CUT
10
187.131
20
25.666
30
0
0
VERTEX
8
CUT
10
188.216
20
19.511
30
0
0
SEQEND
8
CUT
0
POLYLINE
8
CUT
66
1
70
1
10
0
20
0
30
0
0
VERTEX
8
CUT
10
201.300
20
31.300
30
0
0
VERTEX
8
CUT
10
201.300
20
23.650
30
0
0
VERTEX
8
CUT
10
204.300
20
23.650
30
0
0
VERTEX
8
CUT
10
204.300
20
15.500
30
0
0
VERTEX
8
CUT
10
201.300
20
15.500
30
0
0
VERTEX
8
CUT
10
201.300
20
7.850
30
0
0
VERTEX
8
CUT
10
162.650
20
7.850
30
0
0
VERTEX
8
CUT
10
162.650
20
31.300
30
0
0
SEQEND
8
CUT
0
POLYLINE
8
CUT
66
1
70
1
10
0
20
0
30
0
0
VERTEX
8
CUT
10
237.241
20
20.371
30
0
0
VERTEX
8
CUT
10
237.545
20
18.647
30
0
0
VERTEX
8
CUT
10
232.670
20
17.788
30
0
0
VERTEX
8
CUT
10
233.552
20
12.787
30
0
0
VERTEX
8
CUT
10
214.988
20
9.514
30
0
0
VERTEX
8
CUT
10
214.106
20
14.515
30
0
0
VERTEX
8
CUT
10
209.231
20
13.655
30
0
0
VERTEX
8
CUT
10
208.928
20
15.378
30
0
0
VERTEX
8
CUT
10
213.802
20
16.238
30
0
0
VERTEX
8
CUT
10
212.717
20
22.393
30
0
0
VERTEX
8
CUT
10
231.281
20
25.666
30
0
0
VERTEX
8
CUT
10
232.366
20
19.511
30
0
0
SEQEND
8
CUT
0
POLYLINE
8
CUT
66
1
70
1
10
0
20
0
30
0
0
VERTEX
8
CUT
10
245.450
20
31.300
30
0
0
VERTEX
8
CUT
10
245.450
20
23.650
30
0
0
VERTEX
8
CUT
10
248.450
20
23.650
30
0
0
VERTEX
8
CUT
10
248.450
20
15.500
30
0
0
VERTEX
8
CUT
10
245.450
20
15.500
30
0
0
VERTEX
8
CUT
10
245.450
20
7.850
30
0
0
VERTEX
8
CUT
10
206.800
20
7.850
30
0
0
VERTEX
8
CUT
10
206.800
20
31.300
30
0
0
SEQEND
8
CUT
0
POLYLINE
8
CUT
66
1
70
1
10
0
20
0
30
0
0
VERTEX
8
CUT
10
250.150
20
168.649
30
0
0
VERTEX
8
CUT
10
250.150
20
151.499
30
0
0
VERTEX
8
CUT
10
228.000
20
151.499
30
0
0
VERTEX
8
CUT
10
228.000
20
168.649
30
0
0
SEQEND
8
CUT
0
POLYLINE
8
CUT
66
1
70
1
10
0
20
0
30
0
0
VERTEX
8
CUT
10
393.150
20
28.574
30
0
0
VERTEX
8
CUT
10
390.150
20
28.574
30
0
0
VERTEX
8
CUT
10
390.150
20
25.574
30
0
0
VERTEX
8
CUT
10
382.000
20
25.574
30
0
0
VERTEX
8
CUT
10
382.000
20
28.574
30
0
0
VERTEX
8
CUT
10
379.000
20
28.574
30
0
0
VERTEX
8
CUT
10
379.000
20
49.249
30
0
0
VERTEX
8
CUT
10
393.150
20
49.249
30
0
0
SEQEND
8
CUT
0
POLYLINE
8
CUT
66
1
70
1
10
0
20
0
30
0
0
VERTEX
8
CUT
10
394.242
20
11.055
30
0
0
VERTEX
8
CUT
10
393.693
20
12.848
30
0
0
VERTEX
8
CUT
10
392.629
20
14.420
30
0
0
VERTEX
8
CUT
10
391.073
20
15.784
30
0
0
VERTEX
8
CUT
10
389.085
20
16.890
30
0
0
VERTEX
8
CUT
10
386.742
20
17.695
30
0
0
VERTEX
8
CUT
10
384.133
20
18.171
30
0
0
VERTEX
8
CUT
10
381.358
20
18.299
30
0
0
VERTEX
8
CUT
10
378.524
20
18.076
30
0
0
VERTEX
8
CUT
10
375.738
20
17.509
30
0
0
VERTEX
8
CUT
10
373.106
20
16.621
30
0
0
VERTEX
8
CUT
10
370.729
20
15.445
30
0
0
VERTEX
8
CUT
10
368.699
20
14.025
30
0
0
VERTEX
8
CUT
10
367.093
20
12.414
30
0
0
VERTEX
8
CUT
10
365.972
20
10.674
30
0
0
VERTEX
8
CUT
10
365.384
20
8.869
30
0
0
VERTEX
8
CUT
10
365.350
20
6.994
30
0
0
SEQEND
8
CUT
0
POLYLINE
8
CUT
66
1
70
1
10
0
20
0
30
0
0
VERTEX
8
CUT
10
12.375
20
12.700
30
0
0
VERTEX
8
CUT
10
12.375
20
11.700
30
0
0
VERTEX
8
CUT
10
15.375
20
11.700
30
0
0
VERTEX
8
CUT
10
15.375
20
8.550
30
0
0
VERTEX
8
CUT
10
12.375
20
8.550
30
0
0
VERTEX
8
CUT
10
12.375
20
7.550
30
0
0
VERTEX
8
CUT
10
5.000
20
7.550
30
0
0
VERTEX
8
CUT
10
5.000
20
12.700
30
0
0
SEQEND
8
CUT
0
POLYLINE
8
CUT
66
1
70
1
10
0
20
0
30
0
0
VERTEX
8
CUT
10
25.251
20
12.700
30
0
0
VERTEX
8
CUT
10
25.251
20
11.700
30
0
0
VERTEX
8
CUT
10
28.251
20
11.700
30
0
0
VERTEX
8
CUT
10
28.251
20
8.550
30
0
0
VERTEX
8
CUT
10
25.251
20
8.550
30
0
0
VERTEX
8
CUT
10
25.251
20
7.550
30
0
0
VERTEX
8
CUT
10
17.875
20
7.550
30
0
0
VERTEX
8
CUT
10
17.875
20
12.700
30
0
0
SEQEND
8
CUT
0
POLYLINE
8
CUT
66
1
70
1
10
0
20
0
30
0
0
VERTEX
8
CUT
10
38.126
20
12.700
30
0
0
VERTEX
8
CUT
10
38.126
20
11.700
30
0
0
VERTEX
8
CUT
10
41.126
20
11.700
30
0
0
VERTEX
8
CUT
10
41.126
20
8.550
30
0
0
VERTEX
8
CUT
10
38.126
20
8.550
30
0
0
VERTEX
8
CUT
10
38.126
20
7.550
30
0
0
VERTEX
8
CUT
10
30.751
20
7.550
30
0
0
VERTEX
8
CUT
10
30.751
20
12.700
30
0
0
SEQEND
8
CUT
0
POLYLINE
8
CUT
66
1
70
1
10
0
20
0
30
0
0
VERTEX
8
CUT
10
51.002
20
12.700
30
0
0
VERTEX
8
CUT
10
51.002
20
11.700
30
0
0
VERTEX
8
CUT
10
54.002
20
11.700
30
0
0
VERTEX
8
CUT
10
54.002
20
8.550
30
0
0
VERTEX
8
CUT
10
51.002
20
8.550
30
0
0
VERTEX
8
CUT
10
51.002
20
7.550
30
0
0
VERTEX
8
CUT
10
43.626
20
7.550
30
0
0
VERTEX
8
CUT
10
43.626
20
12.700
30
0
0
SEQEND
8
CUT
0
POLYLINE
8
CUT
66
1
70
1
10
0
20
0
30
0
0
VERTEX
8
CUT
10
62.652
20
12.700
30
0
0
VERTEX
8
CUT
10
62.652
20
11.700
30
0
0
VERTEX
8
CUT
10
65.652
20
11.700
30
0
0
VERTEX
8
CUT
10
65.652
20
8.550
30
0
0
VERTEX
8
CUT
10
62.652
20
8.550
30
0
0
VERTEX
8
CUT
10
62.652
20
7.550
30
0
0
VERTEX
8
CUT
10
56.502
20
7.550
30
0
0
VERTEX
8
CUT
10
56.502
20
12.700
30
0
0
SEQEND
8
CUT
0
POLYLINE
8
CUT
66
1
70
1
10
0
20
0
30
0
0
VERTEX
8
CUT
10
74.302
20
12.700
30
0
0
VERTEX
8
CUT
10
74.302
20
11.700
30
0
0
VERTEX
8
CUT
10
77.302
20
11.700
30
0
0
VERTEX
8
CUT
10
77.302
20
8.550
30
0
0
VERTEX
8
CUT
10
74.302
20
8.550
30
0
0
VERTEX
8
CUT
10
74.302
20
7.550
30
0
0
VERTEX
8
CUT
10
68.152
20
7.550
30
0
0
VERTEX
8
CUT
10
68.152
20
12.700
30
0
0
SEQEND
8
CUT
0
ENDSEC
0
EOF
