0
SECTION
2
HEADER
9
$ACADVER
1
AC1009
9
$INSUNITS
70
4
0
ENDSEC
0
SECTION
2
TABLES
0
TABLE
2
LAYER
70
3
0
LAYER
2
CUT
70
0
62
1
6
CONTINUOUS
0
LAYER
2
SCORE
70
0
62
5
6
CONTINUOUS
0
LAYER
2
ENGRAVE
70
0
62
7
6
CONTINUOUS
0
ENDTAB
0
ENDSEC
0
SECTION
2
ENTITIES
0
POLYLINE
8
ENGRAVE
66
1
70
1
10
0
20
0
30
0
0
VERTEX
8
ENGRAVE
10
356.533
20
282.404
30
0
0
VERTEX
8
ENGRAVE
10
356.533
20
282.071
30
0
0
VERTEX
8
ENGRAVE
10
356.367
20
281.654
30
0
0
VERTEX
8
ENGRAVE
10
356.075
20
281.404
30
0
0
VERTEX
8
ENGRAVE
10
355.783
20
281.279
30
0
0
VERTEX
8
ENGRAVE
10
355.617
20
281.279
30
0
0
VERTEX
8
ENGRAVE
10
355.575
20
281.571
30
0
0
VERTEX
8
ENGRAVE
10
355.992
20
281.738
30
0
0
VERTEX
8
ENGRAVE
10
356.242
20
282.113
30
0
0
VERTEX
8
ENGRAVE
10
356.158
20
282.613
30
0
0
VERTEX
8
ENGRAVE
10
355.825
20
282.904
30
0
0
VERTEX
8
ENGRAVE
10
355.200
20
283.029
30
0
0
VERTEX
8
ENGRAVE
10
354.700
20
282.988
30
0
0
VERTEX
8
ENGRAVE
10
354.283
20
282.821
30
0
0
VERTEX
8
ENGRAVE
10
354.075
20
282.613
30
0
0
VERTEX
8
ENGRAVE
10
353.992
20
282.446
30
0
0
VERTEX
8
ENGRAVE
10
353.992
20
282.071
30
0
0
VERTEX
8
ENGRAVE
10
354.283
20
281.696
30
0
0
VERTEX
8
ENGRAVE
10
354.658
20
281.571
30
0
0
VERTEX
8
ENGRAVE
10
354.617
20
281.279
30
0
0
VERTEX
8
ENGRAVE
10
354.325
20
281.321
30
0
0
VERTEX
8
ENGRAVE
10
354.033
20
281.488
30
0
0
VERTEX
8
ENGRAVE
10
353.700
20
282.029
30
0
0
VERTEX
8
ENGRAVE
10
353.742
20
282.654
30
0
0
VERTEX
8
ENGRAVE
10
353.992
20
283.029
30
0
0
VERTEX
8
ENGRAVE
10
354.408
20
283.279
30
0
0
VERTEX
8
ENGRAVE
10
354.908
20
283.404
30
0
0
VERTEX
8
ENGRAVE
10
355.575
20
283.363
30
0
0
VERTEX
8
ENGRAVE
10
356.033
20
283.196
30
0
0
VERTEX
8
ENGRAVE
10
356.450
20
282.738
30
0
0
SEQEND
8
ENGRAVE
0
POLYLINE
8
ENGRAVE
66
1
70
1
10
0
20
0
30
0
0
VERTEX
8
ENGRAVE
10
356.533
20
277.613
30
0
0
VERTEX
8
ENGRAVE
10
356.492
20
277.113
30
0
0
VERTEX
8
ENGRAVE
10
356.325
20
276.779
30
0
0
VERTEX
8
ENGRAVE
10
355.950
20
276.529
30
0
0
VERTEX
8
ENGRAVE
10
355.450
20
276.529
30
0
0
VERTEX
8
ENGRAVE
10
354.867
20
276.904
30
0
0
VERTEX
8
ENGRAVE
10
354.867
20
276.988
30
0
0
VERTEX
8
ENGRAVE
10
354.617
20
277.196
30
0
0
VERTEX
8
ENGRAVE
10
354.033
20
277.988
30
0
0
VERTEX
8
ENGRAVE
10
354.033
20
276.529
30
0
0
VERTEX
8
ENGRAVE
10
353.742
20
276.488
30
0
0
VERTEX
8
ENGRAVE
10
353.742
20
278.446
30
0
0
VERTEX
8
ENGRAVE
10
354.033
20
278.446
30
0
0
VERTEX
8
ENGRAVE
10
354.783
20
277.446
30
0
0
VERTEX
8
ENGRAVE
10
355.242
20
276.988
30
0
0
VERTEX
8
ENGRAVE
10
355.533
20
276.863
30
0
0
VERTEX
8
ENGRAVE
10
355.867
20
276.863
30
0
0
VERTEX
8
ENGRAVE
10
356.033
20
276.946
30
0
0
VERTEX
8
ENGRAVE
10
356.242
20
277.279
30
0
0
VERTEX
8
ENGRAVE
10
356.242
20
277.696
30
0
0
VERTEX
8
ENGRAVE
10
356.158
20
277.863
30
0
0
VERTEX
8
ENGRAVE
10
355.908
20
278.071
30
0
0
VERTEX
8
ENGRAVE
10
355.617
20
278.154
30
0
0
VERTEX
8
ENGRAVE
10
355.700
20
278.446
30
0
0
VERTEX
8
ENGRAVE
10
356.117
20
278.321
30
0
0
VERTEX
8
ENGRAVE
10
356.450
20
277.946
30
0
0
SEQEND
8
ENGRAVE
0
POLYLINE
8
ENGRAVE
66
1
70
1
10
0
20
0
30
0
0
VERTEX
8
ENGRAVE
10
356.492
20
279.904
30
0
0
VERTEX
8
ENGRAVE
10
356.492
20
279.613
30
0
0
VERTEX
8
ENGRAVE
10
353.992
20
279.613
30
0
0
VERTEX
8
ENGRAVE
10
353.992
20
278.863
30
0
0
VERTEX
8
ENGRAVE
10
353.742
20
278.863
30
0
0
VERTEX
8
ENGRAVE
10
353.742
20
280.779
30
0
0
VERTEX
8
ENGRAVE
10
353.992
20
280.779
30
0
0
VERTEX
8
ENGRAVE
10
353.992
20
279.946
30
0
0
VERTEX
8
ENGRAVE
10
356.033
20
279.946
30
0
0
VERTEX
8
ENGRAVE
10
355.492
20
280.654
30
0
0
VERTEX
8
ENGRAVE
10
355.867
20
280.696
30
0
0
VERTEX
8
ENGRAVE
10
356.033
20
280.321
30
0
0
VERTEX
8
ENGRAVE
10
356.408
20
279.904
30
0
0
SEQEND
8
ENGRAVE
0
POLYLINE
8
ENGRAVE
66
1
70
1
10
0
20
0
30
0
0
VERTEX
8
ENGRAVE
10
380.533
20
281.404
30
0
0
VERTEX
8
ENGRAVE
10
380.533
20
281.071
30
0
0
VERTEX
8
ENGRAVE
10
380.367
20
280.654
30
0
0
VERTEX
8
ENGRAVE
10
380.075
20
280.404
30
0
0
VERTEX
8
ENGRAVE
10
379.783
20
280.279
30
0
0
VERTEX
8
ENGRAVE
10
379.617
20
280.279
30
0
0
VERTEX
8
ENGRAVE
10
379.575
20
280.571
30
0
0
VERTEX
8
ENGRAVE
10
379.992
20
280.738
30
0
0
VERTEX
8
ENGRAVE
10
380.242
20
281.113
30
0
0
VERTEX
8
ENGRAVE
10
380.158
20
281.613
30
0
0
VERTEX
8
ENGRAVE
10
379.825
20
281.904
30
0
0
VERTEX
8
ENGRAVE
10
379.200
20
282.029
30
0
0
VERTEX
8
ENGRAVE
10
378.700
20
281.988
30
0
0
VERTEX
8
ENGRAVE
10
378.283
20
281.821
30
0
0
VERTEX
8
ENGRAVE
10
378.075
20
281.613
30
0
0
VERTEX
8
ENGRAVE
10
377.992
20
281.446
30
0
0
VERTEX
8
ENGRAVE
10
377.992
20
281.071
30
0
0
VERTEX
8
ENGRAVE
10
378.283
20
280.696
30
0
0
VERTEX
8
ENGRAVE
10
378.658
20
280.571
30
0
0
VERTEX
8
ENGRAVE
10
378.617
20
280.279
30
0
0
VERTEX
8
ENGRAVE
10
378.325
20
280.321
30
0
0
VERTEX
8
ENGRAVE
10
378.033
20
280.488
30
0
0
VERTEX
8
ENGRAVE
10
377.700
20
281.029
30
0
0
VERTEX
8
ENGRAVE
10
377.742
20
281.654
30
0
0
VERTEX
8
ENGRAVE
10
377.992
20
282.029
30
0
0
VERTEX
8
ENGRAVE
10
378.408
20
282.279
30
0
0
VERTEX
8
ENGRAVE
10
378.908
20
282.404
30
0
0
VERTEX
8
ENGRAVE
10
379.575
20
282.363
30
0
0
VERTEX
8
ENGRAVE
10
380.033
20
282.196
30
0
0
VERTEX
8
ENGRAVE
10
380.450
20
281.738
30
0
0
SEQEND
8
ENGRAVE
0
POLYLINE
8
ENGRAVE
66
1
70
1
10
0
20
0
30
0
0
VERTEX
8
ENGRAVE
10
380.492
20
278.904
30
0
0
VERTEX
8
ENGRAVE
10
380.492
20
278.613
30
0
0
VERTEX
8
ENGRAVE
10
377.992
20
278.613
30
0
0
VERTEX
8
ENGRAVE
10
377.992
20
277.863
30
0
0
VERTEX
8
ENGRAVE
10
377.742
20
277.863
30
0
0
VERTEX
8
ENGRAVE
10
377.742
20
279.779
30
0
0
VERTEX
8
ENGRAVE
10
377.992
20
279.779
30
0
0
VERTEX
8
ENGRAVE
10
377.992
20
278.946
30
0
0
VERTEX
8
ENGRAVE
10
380.033
20
278.946
30
0
0
VERTEX
8
ENGRAVE
10
379.492
20
279.654
30
0
0
VERTEX
8
ENGRAVE
10
379.867
20
279.696
30
0
0
VERTEX
8
ENGRAVE
10
380.033
20
279.321
30
0
0
VERTEX
8
ENGRAVE
10
380.408
20
278.904
30
0
0
SEQEND
8
ENGRAVE
0
POLYLINE
8
ENGRAVE
66
1
70
1
10
0
20
0
30
0
0
VERTEX
8
ENGRAVE
10
380.492
20
276.321
30
0
0
VERTEX
8
ENGRAVE
10
380.492
20
275.863
30
0
0
VERTEX
8
ENGRAVE
10
378.658
20
275.863
30
0
0
VERTEX
8
ENGRAVE
10
378.658
20
275.404
30
0
0
VERTEX
8
ENGRAVE
10
378.367
20
275.404
30
0
0
VERTEX
8
ENGRAVE
10
378.367
20
275.863
30
0
0
VERTEX
8
ENGRAVE
10
377.742
20
275.863
30
0
0
VERTEX
8
ENGRAVE
10
377.742
20
276.196
30
0
0
VERTEX
8
ENGRAVE
10
378.367
20
276.196
30
0
0
VERTEX
8
ENGRAVE
10
378.408
20
277.571
30
0
0
VERTEX
8
ENGRAVE
10
378.617
20
277.571
30
0
0
SEQEND
8
ENGRAVE
0
POLYLINE
8
ENGRAVE
66
1
70
1
10
0
20
0
30
0
0
VERTEX
8
ENGRAVE
10
380.200
20
276.196
30
0
0
VERTEX
8
ENGRAVE
10
378.825
20
277.113
30
0
0
VERTEX
8
ENGRAVE
10
378.658
20
277.154
30
0
0
VERTEX
8
ENGRAVE
10
378.658
20
276.196
30
0
0
SEQEND
8
ENGRAVE
0
POLYLINE
8
ENGRAVE
66
1
70
1
10
0
20
0
30
0
0
VERTEX
8
ENGRAVE
10
382.453
20
237.592
30
0
0
VERTEX
8
ENGRAVE
10
382.453
20
237.439
30
0
0
VERTEX
8
ENGRAVE
10
382.388
20
237.242
30
0
0
VERTEX
8
ENGRAVE
10
382.300
20
237.133
30
0
0
VERTEX
8
ENGRAVE
10
382.060
20
237.002
30
0
0
VERTEX
8
ENGRAVE
10
381.972
20
237.023
30
0
0
VERTEX
8
ENGRAVE
10
381.950
20
237.177
30
0
0
VERTEX
8
ENGRAVE
10
382.081
20
237.198
30
0
0
VERTEX
8
ENGRAVE
10
382.235
20
237.308
30
0
0
VERTEX
8
ENGRAVE
10
382.300
20
237.439
30
0
0
VERTEX
8
ENGRAVE
10
382.300
20
237.614
30
0
0
VERTEX
8
ENGRAVE
10
382.235
20
237.745
30
0
0
VERTEX
8
ENGRAVE
10
382.038
20
237.877
30
0
0
VERTEX
8
ENGRAVE
10
381.578
20
237.920
30
0
0
VERTEX
8
ENGRAVE
10
381.338
20
237.855
30
0
0
VERTEX
8
ENGRAVE
10
381.185
20
237.745
30
0
0
VERTEX
8
ENGRAVE
10
381.119
20
237.614
30
0
0
VERTEX
8
ENGRAVE
10
381.141
20
237.373
30
0
0
VERTEX
8
ENGRAVE
10
381.250
20
237.242
30
0
0
VERTEX
8
ENGRAVE
10
381.469
20
237.177
30
0
0
VERTEX
8
ENGRAVE
10
381.447
20
237.002
30
0
0
VERTEX
8
ENGRAVE
10
381.316
20
237.023
30
0
0
VERTEX
8
ENGRAVE
10
381.119
20
237.133
30
0
0
VERTEX
8
ENGRAVE
10
380.966
20
237.417
30
0
0
VERTEX
8
ENGRAVE
10
380.966
20
237.636
30
0
0
VERTEX
8
ENGRAVE
10
381.053
20
237.855
30
0
0
VERTEX
8
ENGRAVE
10
381.272
20
238.030
30
0
0
VERTEX
8
ENGRAVE
10
381.556
20
238.117
30
0
0
VERTEX
8
ENGRAVE
10
381.885
20
238.117
30
0
0
VERTEX
8
ENGRAVE
10
382.191
20
238.008
30
0
0
VERTEX
8
ENGRAVE
10
382.388
20
237.811
30
0
0
SEQEND
8
ENGRAVE
0
POLYLINE
8
ENGRAVE
66
1
70
1
10
0
20
0
30
0
0
VERTEX
8
ENGRAVE
10
382.453
20
236.411
30
0
0
VERTEX
8
ENGRAVE
10
382.453
20
236.214
30
0
0
VERTEX
8
ENGRAVE
10
382.366
20
235.973
30
0
0
VERTEX
8
ENGRAVE
10
382.256
20
235.864
30
0
0
VERTEX
8
ENGRAVE
10
382.081
20
235.777
30
0
0
VERTEX
8
ENGRAVE
10
381.819
20
235.733
30
0
0
VERTEX
8
ENGRAVE
10
381.491
20
235.755
30
0
0
VERTEX
8
ENGRAVE
10
381.206
20
235.864
30
0
0
VERTEX
8
ENGRAVE
10
381.031
20
236.039
30
0
0
VERTEX
8
ENGRAVE
10
380.966
20
236.236
30
0
0
VERTEX
8
ENGRAVE
10
380.988
20
236.520
30
0
0
VERTEX
8
ENGRAVE
10
381.075
20
236.673
30
0
0
VERTEX
8
ENGRAVE
10
381.206
20
236.761
30
0
0
VERTEX
8
ENGRAVE
10
381.272
20
236.761
30
0
0
VERTEX
8
ENGRAVE
10
381.294
20
236.608
30
0
0
VERTEX
8
ENGRAVE
10
381.206
20
236.586
30
0
0
VERTEX
8
ENGRAVE
10
381.119
20
236.455
30
0
0
VERTEX
8
ENGRAVE
10
381.119
20
236.192
30
0
0
VERTEX
8
ENGRAVE
10
381.250
20
236.017
30
0
0
VERTEX
8
ENGRAVE
10
381.469
20
235.930
30
0
0
VERTEX
8
ENGRAVE
10
381.731
20
235.908
30
0
0
VERTEX
8
ENGRAVE
10
381.556
20
236.061
30
0
0
VERTEX
8
ENGRAVE
10
381.513
20
236.148
30
0
0
VERTEX
8
ENGRAVE
10
381.491
20
236.433
30
0
0
VERTEX
8
ENGRAVE
10
381.556
20
236.608
30
0
0
VERTEX
8
ENGRAVE
10
381.775
20
236.783
30
0
0
VERTEX
8
ENGRAVE
10
382.081
20
236.805
30
0
0
VERTEX
8
ENGRAVE
10
382.235
20
236.739
30
0
0
VERTEX
8
ENGRAVE
10
382.410
20
236.542
30
0
0
SEQEND
8
ENGRAVE
0
POLYLINE
8
ENGRAVE
66
1
70
1
10
0
20
0
30
0
0
VERTEX
8
ENGRAVE
10
382.300
20
236.345
30
0
0
VERTEX
8
ENGRAVE
10
382.169
20
236.586
30
0
0
VERTEX
8
ENGRAVE
10
382.060
20
236.630
30
0
0
VERTEX
8
ENGRAVE
10
381.863
20
236.630
30
0
0
VERTEX
8
ENGRAVE
10
381.731
20
236.564
30
0
0
VERTEX
8
ENGRAVE
10
381.644
20
236.411
30
0
0
VERTEX
8
ENGRAVE
10
381.644
20
236.170
30
0
0
VERTEX
8
ENGRAVE
10
381.819
20
235.973
30
0
0
VERTEX
8
ENGRAVE
10
382.081
20
235.952
30
0
0
VERTEX
8
ENGRAVE
10
382.256
20
236.083
30
0
0
SEQEND
8
ENGRAVE
0
POLYLINE
8
ENGRAVE
66
1
70
1
10
0
20
0
30
0
0
VERTEX
8
ENGRAVE
10
392.377
20
233.547
30
0
0
VERTEX
8
ENGRAVE
10
392.202
20
233.547
30
0
0
VERTEX
8
ENGRAVE
10
391.983
20
233.634
30
0
0
VERTEX
8
ENGRAVE
10
391.852
20
233.787
30
0
0
VERTEX
8
ENGRAVE
10
391.786
20
233.940
30
0
0
VERTEX
8
ENGRAVE
10
391.786
20
234.028
30
0
0
VERTEX
8
ENGRAVE
10
391.939
20
234.050
30
0
0
VERTEX
8
ENGRAVE
10
392.027
20
233.831
30
0
0
VERTEX
8
ENGRAVE
10
392.223
20
233.700
30
0
0
VERTEX
8
ENGRAVE
10
392.486
20
233.744
30
0
0
VERTEX
8
ENGRAVE
10
392.639
20
233.919
30
0
0
VERTEX
8
ENGRAVE
10
392.705
20
234.247
30
0
0
VERTEX
8
ENGRAVE
10
392.683
20
234.509
30
0
0
VERTEX
8
ENGRAVE
10
392.595
20
234.728
30
0
0
VERTEX
8
ENGRAVE
10
392.486
20
234.837
30
0
0
VERTEX
8
ENGRAVE
10
392.398
20
234.881
30
0
0
VERTEX
8
ENGRAVE
10
392.202
20
234.881
30
0
0
VERTEX
8
ENGRAVE
10
392.005
20
234.728
30
0
0
VERTEX
8
ENGRAVE
10
391.939
20
234.531
30
0
0
VERTEX
8
ENGRAVE
10
391.786
20
234.553
30
0
0
VERTEX
8
ENGRAVE
10
391.808
20
234.706
30
0
0
VERTEX
8
ENGRAVE
10
391.895
20
234.859
30
0
0
VERTEX
8
ENGRAVE
10
392.180
20
235.034
30
0
0
VERTEX
8
ENGRAVE
10
392.508
20
235.012
30
0
0
VERTEX
8
ENGRAVE
10
392.705
20
234.881
30
0
0
VERTEX
8
ENGRAVE
10
392.836
20
234.662
30
0
0
VERTEX
8
ENGRAVE
10
392.902
20
234.400
30
0
0
VERTEX
8
ENGRAVE
10
392.880
20
234.050
30
0
0
VERTEX
8
ENGRAVE
10
392.792
20
233.809
30
0
0
VERTEX
8
ENGRAVE
10
392.552
20
233.590
30
0
0
SEQEND
8
ENGRAVE
0
POLYLINE
8
ENGRAVE
66
1
70
1
10
0
20
0
30
0
0
VERTEX
8
ENGRAVE
10
389.883
20
233.547
30
0
0
VERTEX
8
ENGRAVE
10
389.730
20
233.547
30
0
0
VERTEX
8
ENGRAVE
10
389.533
20
233.612
30
0
0
VERTEX
8
ENGRAVE
10
389.380
20
233.765
30
0
0
VERTEX
8
ENGRAVE
10
389.248
20
234.137
30
0
0
VERTEX
8
ENGRAVE
10
389.248
20
234.465
30
0
0
VERTEX
8
ENGRAVE
10
389.380
20
234.815
30
0
0
VERTEX
8
ENGRAVE
10
389.533
20
234.969
30
0
0
VERTEX
8
ENGRAVE
10
389.708
20
235.034
30
0
0
VERTEX
8
ENGRAVE
10
389.883
20
235.034
30
0
0
VERTEX
8
ENGRAVE
10
390.058
20
234.969
30
0
0
VERTEX
8
ENGRAVE
10
390.211
20
234.815
30
0
0
VERTEX
8
ENGRAVE
10
390.342
20
234.444
30
0
0
VERTEX
8
ENGRAVE
10
390.342
20
234.137
30
0
0
VERTEX
8
ENGRAVE
10
390.277
20
233.875
30
0
0
VERTEX
8
ENGRAVE
10
390.123
20
233.656
30
0
0
SEQEND
8
ENGRAVE
0
POLYLINE
8
ENGRAVE
66
1
70
1
10
0
20
0
30
0
0
VERTEX
8
ENGRAVE
10
391.064
20
233.569
30
0
0
VERTEX
8
ENGRAVE
10
390.911
20
233.569
30
0
0
VERTEX
8
ENGRAVE
10
390.911
20
234.881
30
0
0
VERTEX
8
ENGRAVE
10
390.517
20
234.881
30
0
0
VERTEX
8
ENGRAVE
10
390.517
20
235.012
30
0
0
VERTEX
8
ENGRAVE
10
391.523
20
235.012
30
0
0
VERTEX
8
ENGRAVE
10
391.523
20
234.881
30
0
0
VERTEX
8
ENGRAVE
10
391.086
20
234.881
30
0
0
VERTEX
8
ENGRAVE
10
391.086
20
233.809
30
0
0
VERTEX
8
ENGRAVE
10
391.458
20
234.094
30
0
0
VERTEX
8
ENGRAVE
10
391.480
20
233.897
30
0
0
VERTEX
8
ENGRAVE
10
391.283
20
233.809
30
0
0
VERTEX
8
ENGRAVE
10
391.064
20
233.612
30
0
0
SEQEND
8
ENGRAVE
0
POLYLINE
8
ENGRAVE
66
1
70
1
10
0
20
0
30
0
0
VERTEX
8
ENGRAVE
10
389.905
20
233.700
30
0
0
VERTEX
8
ENGRAVE
10
390.058
20
233.809
30
0
0
VERTEX
8
ENGRAVE
10
390.123
20
233.962
30
0
0
VERTEX
8
ENGRAVE
10
390.145
20
234.509
30
0
0
VERTEX
8
ENGRAVE
10
390.014
20
234.815
30
0
0
VERTEX
8
ENGRAVE
10
389.927
20
234.881
30
0
0
VERTEX
8
ENGRAVE
10
389.773
20
234.903
30
0
0
VERTEX
8
ENGRAVE
10
389.598
20
234.837
30
0
0
VERTEX
8
ENGRAVE
10
389.489
20
234.684
30
0
0
VERTEX
8
ENGRAVE
10
389.445
20
234.531
30
0
0
VERTEX
8
ENGRAVE
10
389.445
20
234.072
30
0
0
VERTEX
8
ENGRAVE
10
389.533
20
233.831
30
0
0
VERTEX
8
ENGRAVE
10
389.642
20
233.722
30
0
0
SEQEND
8
ENGRAVE
0
POLYLINE
8
ENGRAVE
66
1
70
1
10
0
20
0
30
0
0
VERTEX
8
ENGRAVE
10
383.137
20
231.073
30
0
0
VERTEX
8
ENGRAVE
10
383.137
20
230.855
30
0
0
VERTEX
8
ENGRAVE
10
383.093
20
230.811
30
0
0
VERTEX
8
ENGRAVE
10
381.999
20
230.198
30
0
0
VERTEX
8
ENGRAVE
10
383.137
20
230.177
30
0
0
VERTEX
8
ENGRAVE
10
383.137
20
230.023
30
0
0
VERTEX
8
ENGRAVE
10
381.693
20
230.023
30
0
0
VERTEX
8
ENGRAVE
10
381.715
20
230.220
30
0
0
VERTEX
8
ENGRAVE
10
382.918
20
230.898
30
0
0
VERTEX
8
ENGRAVE
10
381.693
20
230.920
30
0
0
VERTEX
8
ENGRAVE
10
381.693
20
231.073
30
0
0
SEQEND
8
ENGRAVE
0
POLYLINE
8
ENGRAVE
66
1
70
1
10
0
20
0
30
0
0
VERTEX
8
ENGRAVE
10
383.137
20
229.148
30
0
0
VERTEX
8
ENGRAVE
10
383.137
20
228.908
30
0
0
VERTEX
8
ENGRAVE
10
382.174
20
228.908
30
0
0
VERTEX
8
ENGRAVE
10
382.174
20
228.667
30
0
0
VERTEX
8
ENGRAVE
10
382.021
20
228.667
30
0
0
VERTEX
8
ENGRAVE
10
382.021
20
228.908
30
0
0
VERTEX
8
ENGRAVE
10
381.693
20
228.908
30
0
0
VERTEX
8
ENGRAVE
10
381.693
20
229.083
30
0
0
VERTEX
8
ENGRAVE
10
382.021
20
229.083
30
0
0
VERTEX
8
ENGRAVE
10
382.043
20
229.805
30
0
0
VERTEX
8
ENGRAVE
10
382.153
20
229.805
30
0
0
SEQEND
8
ENGRAVE
0
POLYLINE
8
ENGRAVE
66
1
70
1
10
0
20
0
30
0
0
VERTEX
8
ENGRAVE
10
382.984
20
229.083
30
0
0
VERTEX
8
ENGRAVE
10
382.262
20
229.564
30
0
0
VERTEX
8
ENGRAVE
10
382.174
20
229.586
30
0
0
VERTEX
8
ENGRAVE
10
382.174
20
229.083
30
0
0
SEQEND
8
ENGRAVE
0
POLYLINE
8
ENGRAVE
66
1
70
1
10
0
20
0
30
0
0
VERTEX
8
ENGRAVE
10
371.137
20
228.073
30
0
0
VERTEX
8
ENGRAVE
10
371.137
20
227.855
30
0
0
VERTEX
8
ENGRAVE
10
371.093
20
227.811
30
0
0
VERTEX
8
ENGRAVE
10
369.999
20
227.198
30
0
0
VERTEX
8
ENGRAVE
10
371.137
20
227.177
30
0
0
VERTEX
8
ENGRAVE
10
371.137
20
227.023
30
0
0
VERTEX
8
ENGRAVE
10
369.693
20
227.023
30
0
0
VERTEX
8
ENGRAVE
10
369.715
20
227.220
30
0
0
VERTEX
8
ENGRAVE
10
370.918
20
227.898
30
0
0
VERTEX
8
ENGRAVE
10
369.693
20
227.920
30
0
0
VERTEX
8
ENGRAVE
10
369.693
20
228.073
30
0
0
SEQEND
8
ENGRAVE
0
POLYLINE
8
ENGRAVE
66
1
70
1
10
0
20
0
30
0
0
VERTEX
8
ENGRAVE
10
371.137
20
226.652
30
0
0
VERTEX
8
ENGRAVE
10
371.137
20
225.798
30
0
0
VERTEX
8
ENGRAVE
10
370.984
20
225.820
30
0
0
VERTEX
8
ENGRAVE
10
370.984
20
226.520
30
0
0
VERTEX
8
ENGRAVE
10
370.831
20
226.542
30
0
0
VERTEX
8
ENGRAVE
10
370.524
20
226.542
30
0
0
VERTEX
8
ENGRAVE
10
370.656
20
226.345
30
0
0
VERTEX
8
ENGRAVE
10
370.678
20
226.192
30
0
0
VERTEX
8
ENGRAVE
10
370.590
20
225.908
30
0
0
VERTEX
8
ENGRAVE
10
370.459
20
225.777
30
0
0
VERTEX
8
ENGRAVE
10
370.306
20
225.711
30
0
0
VERTEX
8
ENGRAVE
10
370.043
20
225.711
30
0
0
VERTEX
8
ENGRAVE
10
369.868
20
225.798
30
0
0
VERTEX
8
ENGRAVE
10
369.759
20
225.908
30
0
0
VERTEX
8
ENGRAVE
10
369.671
20
226.127
30
0
0
VERTEX
8
ENGRAVE
10
369.671
20
226.367
30
0
0
VERTEX
8
ENGRAVE
10
369.759
20
226.586
30
0
0
VERTEX
8
ENGRAVE
10
369.890
20
226.717
30
0
0
VERTEX
8
ENGRAVE
10
370.021
20
226.761
30
0
0
VERTEX
8
ENGRAVE
10
370.065
20
226.608
30
0
0
VERTEX
8
ENGRAVE
10
369.956
20
226.564
30
0
0
VERTEX
8
ENGRAVE
10
369.846
20
226.433
30
0
0
VERTEX
8
ENGRAVE
10
369.824
20
226.105
30
0
0
VERTEX
8
ENGRAVE
10
369.956
20
225.930
30
0
0
VERTEX
8
ENGRAVE
10
370.065
20
225.886
30
0
0
VERTEX
8
ENGRAVE
10
370.349
20
225.908
30
0
0
VERTEX
8
ENGRAVE
10
370.503
20
226.083
30
0
0
VERTEX
8
ENGRAVE
10
370.524
20
226.302
30
0
0
VERTEX
8
ENGRAVE
10
370.459
20
226.455
30
0
0
VERTEX
8
ENGRAVE
10
370.328
20
226.542
30
0
0
VERTEX
8
ENGRAVE
10
370.349
20
226.695
30
0
0
SEQEND
8
ENGRAVE
0
POLYLINE
8
ENGRAVE
66
1
70
1
10
0
20
0
30
0
0
VERTEX
8
ENGRAVE
10
48.401
20
244.029
30
0
0
VERTEX
8
ENGRAVE
10
48.359
20
242.571
30
0
0
VERTEX
8
ENGRAVE
10
48.026
20
242.196
30
0
0
VERTEX
8
ENGRAVE
10
47.401
20
242.196
30
0
0
VERTEX
8
ENGRAVE
10
47.192
20
242.404
30
0
0
VERTEX
8
ENGRAVE
10
47.109
20
242.613
30
0
0
VERTEX
8
ENGRAVE
10
46.984
20
242.321
30
0
0
VERTEX
8
ENGRAVE
10
46.609
20
242.071
30
0
0
VERTEX
8
ENGRAVE
10
46.067
20
242.113
30
0
0
VERTEX
8
ENGRAVE
10
45.776
20
242.363
30
0
0
VERTEX
8
ENGRAVE
10
45.651
20
242.696
30
0
0
VERTEX
8
ENGRAVE
10
45.651
20
244.029
30
0
0
SEQEND
8
ENGRAVE
0
POLYLINE
8
ENGRAVE
66
1
70
1
10
0
20
0
30
0
0
VERTEX
8
ENGRAVE
10
48.401
20
240.696
30
0
0
VERTEX
8
ENGRAVE
10
48.359
20
240.404
30
0
0
VERTEX
8
ENGRAVE
10
45.901
20
240.404
30
0
0
VERTEX
8
ENGRAVE
10
45.901
20
239.654
30
0
0
VERTEX
8
ENGRAVE
10
45.651
20
239.654
30
0
0
VERTEX
8
ENGRAVE
10
45.651
20
241.571
30
0
0
VERTEX
8
ENGRAVE
10
45.901
20
241.571
30
0
0
VERTEX
8
ENGRAVE
10
45.901
20
240.779
30
0
0
VERTEX
8
ENGRAVE
10
47.942
20
240.779
30
0
0
VERTEX
8
ENGRAVE
10
47.401
20
241.446
30
0
0
VERTEX
8
ENGRAVE
10
47.401
20
241.529
30
0
0
VERTEX
8
ENGRAVE
10
47.734
20
241.529
30
0
0
VERTEX
8
ENGRAVE
10
47.984
20
241.071
30
0
0
SEQEND
8
ENGRAVE
0
POLYLINE
8
ENGRAVE
66
1
70
1
10
0
20
0
30
0
0
VERTEX
8
ENGRAVE
10
48.109
20
243.654
30
0
0
VERTEX
8
ENGRAVE
10
47.234
20
243.696
30
0
0
VERTEX
8
ENGRAVE
10
47.234
20
242.821
30
0
0
VERTEX
8
ENGRAVE
10
47.442
20
242.529
30
0
0
VERTEX
8
ENGRAVE
10
47.776
20
242.488
30
0
0
VERTEX
8
ENGRAVE
10
48.067
20
242.696
30
0
0
SEQEND
8
ENGRAVE
0
POLYLINE
8
ENGRAVE
66
1
70
1
10
0
20
0
30
0
0
VERTEX
8
ENGRAVE
10
46.942
20
243.654
30
0
0
VERTEX
8
ENGRAVE
10
45.942
20
243.696
30
0
0
VERTEX
8
ENGRAVE
10
45.942
20
242.821
30
0
0
VERTEX
8
ENGRAVE
10
46.192
20
242.446
30
0
0
VERTEX
8
ENGRAVE
10
46.692
20
242.446
30
0
0
VERTEX
8
ENGRAVE
10
46.901
20
242.654
30
0
0
SEQEND
8
ENGRAVE
0
POLYLINE
8
ENGRAVE
66
1
70
1
10
0
20
0
30
0
0
VERTEX
8
ENGRAVE
10
315.471
20
248.118
30
0
0
VERTEX
8
ENGRAVE
10
314.742
20
247.441
30
0
0
VERTEX
8
ENGRAVE
10
314.585
20
247.545
30
0
0
VERTEX
8
ENGRAVE
10
314.585
20
246.764
30
0
0
VERTEX
8
ENGRAVE
10
315.471
20
246.034
30
0
0
VERTEX
8
ENGRAVE
10
315.210
20
245.774
30
0
0
VERTEX
8
ENGRAVE
10
314.585
20
246.295
30
0
0
VERTEX
8
ENGRAVE
10
314.585
20
244.680
30
0
0
VERTEX
8
ENGRAVE
10
314.325
20
244.680
30
0
0
VERTEX
8
ENGRAVE
10
314.325
20
249.368
30
0
0
VERTEX
8
ENGRAVE
10
314.585
20
249.368
30
0
0
VERTEX
8
ENGRAVE
10
314.585
20
247.857
30
0
0
VERTEX
8
ENGRAVE
10
315.002
20
248.118
30
0
0
VERTEX
8
ENGRAVE
10
315.210
20
248.378
30
0
0
SEQEND
8
ENGRAVE
0
POLYLINE
8
ENGRAVE
66
1
70
1
10
0
20
0
30
0
0
VERTEX
8
ENGRAVE
10
314.898
20
236.034
30
0
0
VERTEX
8
ENGRAVE
10
314.898
20
235.618
30
0
0
VERTEX
8
ENGRAVE
10
314.742
20
235.149
30
0
0
VERTEX
8
ENGRAVE
10
314.325
20
234.732
30
0
0
VERTEX
8
ENGRAVE
10
313.387
20
234.420
30
0
0
VERTEX
8
ENGRAVE
10
312.606
20
234.472
30
0
0
VERTEX
8
ENGRAVE
10
312.137
20
234.628
30
0
0
VERTEX
8
ENGRAVE
10
311.565
20
235.097
30
0
0
VERTEX
8
ENGRAVE
10
311.356
20
235.618
30
0
0
VERTEX
8
ENGRAVE
10
311.356
20
236.139
30
0
0
VERTEX
8
ENGRAVE
10
311.512
20
236.555
30
0
0
VERTEX
8
ENGRAVE
10
311.929
20
236.972
30
0
0
VERTEX
8
ENGRAVE
10
312.554
20
237.232
30
0
0
VERTEX
8
ENGRAVE
10
313.179
20
237.284
30
0
0
VERTEX
8
ENGRAVE
10
314.117
20
237.076
30
0
0
VERTEX
8
ENGRAVE
10
314.637
20
236.659
30
0
0
SEQEND
8
ENGRAVE
0
POLYLINE
8
ENGRAVE
66
1
70
1
10
0
20
0
30
0
0
VERTEX
8
ENGRAVE
10
314.846
20
242.545
30
0
0
VERTEX
8
ENGRAVE
10
314.846
20
240.461
30
0
0
VERTEX
8
ENGRAVE
10
314.481
20
240.461
30
0
0
VERTEX
8
ENGRAVE
10
314.481
20
242.128
30
0
0
VERTEX
8
ENGRAVE
10
313.387
20
242.128
30
0
0
VERTEX
8
ENGRAVE
10
313.387
20
240.722
30
0
0
VERTEX
8
ENGRAVE
10
313.023
20
240.722
30
0
0
VERTEX
8
ENGRAVE
10
313.023
20
242.128
30
0
0
VERTEX
8
ENGRAVE
10
311.408
20
242.128
30
0
0
VERTEX
8
ENGRAVE
10
311.408
20
242.545
30
0
0
SEQEND
8
ENGRAVE
0
POLYLINE
8
ENGRAVE
66
1
70
1
10
0
20
0
30
0
0
VERTEX
8
ENGRAVE
10
314.846
20
240.149
30
0
0
VERTEX
8
ENGRAVE
10
314.794
20
238.378
30
0
0
VERTEX
8
ENGRAVE
10
314.429
20
237.857
30
0
0
VERTEX
8
ENGRAVE
10
313.908
20
237.701
30
0
0
VERTEX
8
ENGRAVE
10
313.544
20
237.753
30
0
0
VERTEX
8
ENGRAVE
10
313.127
20
238.066
30
0
0
VERTEX
8
ENGRAVE
10
313.023
20
238.326
30
0
0
VERTEX
8
ENGRAVE
10
312.867
20
238.326
30
0
0
VERTEX
8
ENGRAVE
10
311.408
20
237.701
30
0
0
VERTEX
8
ENGRAVE
10
311.408
20
238.170
30
0
0
VERTEX
8
ENGRAVE
10
312.867
20
238.743
30
0
0
VERTEX
8
ENGRAVE
10
312.867
20
239.732
30
0
0
VERTEX
8
ENGRAVE
10
311.408
20
239.732
30
0
0
VERTEX
8
ENGRAVE
10
311.408
20
240.149
30
0
0
SEQEND
8
ENGRAVE
0
POLYLINE
8
ENGRAVE
66
1
70
1
10
0
20
0
30
0
0
VERTEX
8
ENGRAVE
10
314.846
20
233.743
30
0
0
VERTEX
8
ENGRAVE
10
314.794
20
233.170
30
0
0
VERTEX
8
ENGRAVE
10
312.085
20
231.659
30
0
0
VERTEX
8
ENGRAVE
10
314.846
20
231.607
30
0
0
VERTEX
8
ENGRAVE
10
314.846
20
231.243
30
0
0
VERTEX
8
ENGRAVE
10
311.408
20
231.243
30
0
0
VERTEX
8
ENGRAVE
10
311.460
20
231.711
30
0
0
VERTEX
8
ENGRAVE
10
313.700
20
232.961
30
0
0
VERTEX
8
ENGRAVE
10
314.012
20
233.222
30
0
0
VERTEX
8
ENGRAVE
10
314.325
20
233.326
30
0
0
VERTEX
8
ENGRAVE
10
311.408
20
233.378
30
0
0
VERTEX
8
ENGRAVE
10
311.408
20
233.743
30
0
0
SEQEND
8
ENGRAVE
0
POLYLINE
8
ENGRAVE
66
1
70
1
10
0
20
0
30
0
0
VERTEX
8
ENGRAVE
10
314.846
20
230.826
30
0
0
VERTEX
8
ENGRAVE
10
314.846
20
228.430
30
0
0
VERTEX
8
ENGRAVE
10
314.481
20
228.430
30
0
0
VERTEX
8
ENGRAVE
10
314.481
20
229.420
30
0
0
VERTEX
8
ENGRAVE
10
311.408
20
229.420
30
0
0
VERTEX
8
ENGRAVE
10
311.408
20
229.836
30
0
0
VERTEX
8
ENGRAVE
10
314.481
20
229.836
30
0
0
VERTEX
8
ENGRAVE
10
314.481
20
230.826
30
0
0
SEQEND
8
ENGRAVE
0
POLYLINE
8
ENGRAVE
66
1
70
1
10
0
20
0
30
0
0
VERTEX
8
ENGRAVE
10
314.533
20
235.982
30
0
0
VERTEX
8
ENGRAVE
10
314.429
20
236.295
30
0
0
VERTEX
8
ENGRAVE
10
313.856
20
236.711
30
0
0
VERTEX
8
ENGRAVE
10
312.762
20
236.816
30
0
0
VERTEX
8
ENGRAVE
10
312.137
20
236.607
30
0
0
VERTEX
8
ENGRAVE
10
311.773
20
236.243
30
0
0
VERTEX
8
ENGRAVE
10
311.721
20
235.566
30
0
0
VERTEX
8
ENGRAVE
10
312.033
20
235.149
30
0
0
VERTEX
8
ENGRAVE
10
312.346
20
234.993
30
0
0
VERTEX
8
ENGRAVE
10
313.440
20
234.889
30
0
0
VERTEX
8
ENGRAVE
10
313.908
20
234.993
30
0
0
VERTEX
8
ENGRAVE
10
314.273
20
235.201
30
0
0
VERTEX
8
ENGRAVE
10
314.481
20
235.514
30
0
0
SEQEND
8
ENGRAVE
0
POLYLINE
8
ENGRAVE
66
1
70
1
10
0
20
0
30
0
0
VERTEX
8
ENGRAVE
10
314.481
20
239.680
30
0
0
VERTEX
8
ENGRAVE
10
313.231
20
239.732
30
0
0
VERTEX
8
ENGRAVE
10
313.283
20
238.534
30
0
0
VERTEX
8
ENGRAVE
10
313.544
20
238.222
30
0
0
VERTEX
8
ENGRAVE
10
314.065
20
238.170
30
0
0
VERTEX
8
ENGRAVE
10
314.325
20
238.326
30
0
0
VERTEX
8
ENGRAVE
10
314.481
20
238.743
30
0
0
SEQEND
8
ENGRAVE
0
POLYLINE
8
ENGRAVE
66
1
70
1
10
0
20
0
30
0
0
VERTEX
8
ENGRAVE
10
314.065
20
245.566
30
0
0
VERTEX
8
ENGRAVE
10
314.065
20
245.201
30
0
0
VERTEX
8
ENGRAVE
10
311.304
20
245.201
30
0
0
VERTEX
8
ENGRAVE
10
310.887
20
245.409
30
0
0
VERTEX
8
ENGRAVE
10
310.783
20
246.034
30
0
0
VERTEX
8
ENGRAVE
10
311.200
20
246.139
30
0
0
VERTEX
8
ENGRAVE
10
311.148
20
245.722
30
0
0
VERTEX
8
ENGRAVE
10
311.252
20
245.566
30
0
0
SEQEND
8
ENGRAVE
0
POLYLINE
8
ENGRAVE
66
1
70
1
10
0
20
0
30
0
0
VERTEX
8
ENGRAVE
10
313.960
20
248.795
30
0
0
VERTEX
8
ENGRAVE
10
313.960
20
247.180
30
0
0
VERTEX
8
ENGRAVE
10
311.148
20
247.180
30
0
0
VERTEX
8
ENGRAVE
10
310.887
20
247.441
30
0
0
VERTEX
8
ENGRAVE
10
310.835
20
247.805
30
0
0
VERTEX
8
ENGRAVE
10
311.200
20
247.857
30
0
0
VERTEX
8
ENGRAVE
10
311.304
20
247.493
30
0
0
VERTEX
8
ENGRAVE
10
311.981
20
247.493
30
0
0
VERTEX
8
ENGRAVE
10
311.981
20
248.482
30
0
0
VERTEX
8
ENGRAVE
10
310.887
20
248.430
30
0
0
VERTEX
8
ENGRAVE
10
310.887
20
248.847
30
0
0
SEQEND
8
ENGRAVE
0
POLYLINE
8
ENGRAVE
66
1
70
1
10
0
20
0
30
0
0
VERTEX
8
ENGRAVE
10
313.700
20
248.430
30
0
0
VERTEX
8
ENGRAVE
10
313.127
20
248.482
30
0
0
VERTEX
8
ENGRAVE
10
313.127
20
247.493
30
0
0
VERTEX
8
ENGRAVE
10
313.700
20
247.493
30
0
0
SEQEND
8
ENGRAVE
0
POLYLINE
8
ENGRAVE
66
1
70
1
10
0
20
0
30
0
0
VERTEX
8
ENGRAVE
10
313.752
20
246.555
30
0
0
VERTEX
8
ENGRAVE
10
313.700
20
246.191
30
0
0
VERTEX
8
ENGRAVE
10
311.617
20
246.191
30
0
0
VERTEX
8
ENGRAVE
10
311.617
20
246.555
30
0
0
SEQEND
8
ENGRAVE
0
POLYLINE
8
ENGRAVE
66
1
70
1
10
0
20
0
30
0
0
VERTEX
8
ENGRAVE
10
312.867
20
248.430
30
0
0
VERTEX
8
ENGRAVE
10
312.294
20
248.482
30
0
0
VERTEX
8
ENGRAVE
10
312.294
20
247.493
30
0
0
VERTEX
8
ENGRAVE
10
312.867
20
247.493
30
0
0
SEQEND
8
ENGRAVE
0
POLYLINE
8
ENGRAVE
66
1
70
1
10
0
20
0
30
0
0
VERTEX
8
ENGRAVE
10
259.124
20
261.287
30
0
0
VERTEX
8
ENGRAVE
10
259.124
20
260.995
30
0
0
VERTEX
8
ENGRAVE
10
258.999
20
260.620
30
0
0
VERTEX
8
ENGRAVE
10
258.833
20
260.412
30
0
0
VERTEX
8
ENGRAVE
10
258.374
20
260.162
30
0
0
VERTEX
8
ENGRAVE
10
258.208
20
260.203
30
0
0
VERTEX
8
ENGRAVE
10
258.166
20
260.495
30
0
0
VERTEX
8
ENGRAVE
10
258.416
20
260.537
30
0
0
VERTEX
8
ENGRAVE
10
258.708
20
260.745
30
0
0
VERTEX
8
ENGRAVE
10
258.833
20
260.995
30
0
0
VERTEX
8
ENGRAVE
10
258.833
20
261.328
30
0
0
VERTEX
8
ENGRAVE
10
258.708
20
261.578
30
0
0
VERTEX
8
ENGRAVE
10
258.333
20
261.828
30
0
0
VERTEX
8
ENGRAVE
10
257.458
20
261.912
30
0
0
VERTEX
8
ENGRAVE
10
256.999
20
261.787
30
0
0
VERTEX
8
ENGRAVE
10
256.708
20
261.578
30
0
0
VERTEX
8
ENGRAVE
10
256.583
20
261.328
30
0
0
VERTEX
8
ENGRAVE
10
256.624
20
260.870
30
0
0
VERTEX
8
ENGRAVE
10
256.833
20
260.620
30
0
0
VERTEX
8
ENGRAVE
10
257.249
20
260.495
30
0
0
VERTEX
8
ENGRAVE
10
257.208
20
260.162
30
0
0
VERTEX
8
ENGRAVE
10
256.958
20
260.203
30
0
0
VERTEX
8
ENGRAVE
10
256.583
20
260.412
30
0
0
VERTEX
8
ENGRAVE
10
256.291
20
260.953
30
0
0
VERTEX
8
ENGRAVE
10
256.291
20
261.370
30
0
0
VERTEX
8
ENGRAVE
10
256.458
20
261.787
30
0
0
VERTEX
8
ENGRAVE
10
256.874
20
262.120
30
0
0
VERTEX
8
ENGRAVE
10
257.416
20
262.287
30
0
0
VERTEX
8
ENGRAVE
10
258.041
20
262.287
30
0
0
VERTEX
8
ENGRAVE
10
258.624
20
262.078
30
0
0
VERTEX
8
ENGRAVE
10
258.999
20
261.703
30
0
0
SEQEND
8
ENGRAVE
0
POLYLINE
8
ENGRAVE
66
1
70
1
10
0
20
0
30
0
0
VERTEX
8
ENGRAVE
10
259.083
20
258.787
30
0
0
VERTEX
8
ENGRAVE
10
259.041
20
258.495
30
0
0
VERTEX
8
ENGRAVE
10
256.583
20
258.495
30
0
0
VERTEX
8
ENGRAVE
10
256.583
20
257.745
30
0
0
VERTEX
8
ENGRAVE
10
256.333
20
257.745
30
0
0
VERTEX
8
ENGRAVE
10
256.333
20
259.662
30
0
0
VERTEX
8
ENGRAVE
10
256.583
20
259.662
30
0
0
VERTEX
8
ENGRAVE
10
256.583
20
258.870
30
0
0
VERTEX
8
ENGRAVE
10
258.624
20
258.870
30
0
0
VERTEX
8
ENGRAVE
10
258.083
20
259.537
30
0
0
VERTEX
8
ENGRAVE
10
258.083
20
259.620
30
0
0
VERTEX
8
ENGRAVE
10
258.416
20
259.620
30
0
0
VERTEX
8
ENGRAVE
10
258.666
20
259.162
30
0
0
SEQEND
8
ENGRAVE
0
POLYLINE
8
SCORE
66
1
70
1
10
0
20
0
30
0
0
VERTEX
8
SCORE
10
169.075
20
198.925
30
0
0
VERTEX
8
SCORE
10
169.075
20
210.925
30
0
0
VERTEX
8
SCORE
10
191.075
20
210.925
30
0
0
VERTEX
8
SCORE
10
191.075
20
198.925
30
0
0
SEQEND
8
SCORE
0
POLYLINE
8
SCORE
66
1
70
0
10
0
20
0
30
0
0
VERTEX
8
SCORE
10
191.575
20
229.425
30
0
0
VERTEX
8
SCORE
10
191.575
20
212.425
30
0
0
VERTEX
8
SCORE
10
169.575
20
212.425
30
0
0
VERTEX
8
SCORE
10
169.575
20
229.425
30
0
0
SEQEND
8
SCORE
0
POLYLINE
8
SCORE
66
1
70
1
10
0
20
0
30
0
0
VERTEX
8
SCORE
10
177.075
20
184.925
30
0
0
VERTEX
8
SCORE
10
177.075
20
195.925
30
0
0
VERTEX
8
SCORE
10
199.075
20
195.925
30
0
0
VERTEX
8
SCORE
10
199.075
20
184.925
30
0
0
SEQEND
8
SCORE
0
POLYLINE
8
SCORE
66
1
70
1
10
0
20
0
30
0
0
VERTEX
8
SCORE
10
211.575
20
219.425
30
0
0
VERTEX
8
SCORE
10
211.575
20
229.425
30
0
0
VERTEX
8
SCORE
10
231.575
20
229.425
30
0
0
VERTEX
8
SCORE
10
231.575
20
219.425
30
0
0
SEQEND
8
SCORE
0
POLYLINE
8
SCORE
66
1
70
1
10
0
20
0
30
0
0
VERTEX
8
SCORE
10
207.575
20
187.925
30
0
0
VERTEX
8
SCORE
10
207.575
20
217.925
30
0
0
VERTEX
8
SCORE
10
255.575
20
217.925
30
0
0
VERTEX
8
SCORE
10
255.575
20
187.925
30
0
0
SEQEND
8
SCORE
0
POLYLINE
8
ENGRAVE
66
1
70
1
10
0
20
0
30
0
0
VERTEX
8
ENGRAVE
10
382.445
20
164.478
30
0
0
VERTEX
8
ENGRAVE
10
384.361
20
164.478
30
0
0
VERTEX
8
ENGRAVE
10
384.361
20
164.186
30
0
0
VERTEX
8
ENGRAVE
10
383.570
20
164.145
30
0
0
VERTEX
8
ENGRAVE
10
383.570
20
161.728
30
0
0
VERTEX
8
ENGRAVE
10
383.236
20
161.728
30
0
0
VERTEX
8
ENGRAVE
10
383.236
20
164.186
30
0
0
VERTEX
8
ENGRAVE
10
382.445
20
164.186
30
0
0
SEQEND
8
ENGRAVE
0
POLYLINE
8
ENGRAVE
66
1
70
1
10
0
20
0
30
0
0
VERTEX
8
ENGRAVE
10
385.611
20
164.478
30
0
0
VERTEX
8
ENGRAVE
10
385.861
20
164.478
30
0
0
VERTEX
8
ENGRAVE
10
385.861
20
161.978
30
0
0
VERTEX
8
ENGRAVE
10
386.653
20
161.978
30
0
0
VERTEX
8
ENGRAVE
10
386.653
20
161.728
30
0
0
VERTEX
8
ENGRAVE
10
384.736
20
161.728
30
0
0
VERTEX
8
ENGRAVE
10
384.736
20
161.978
30
0
0
VERTEX
8
ENGRAVE
10
385.528
20
161.978
30
0
0
VERTEX
8
ENGRAVE
10
385.528
20
164.020
30
0
0
VERTEX
8
ENGRAVE
10
384.861
20
163.478
30
0
0
VERTEX
8
ENGRAVE
10
384.778
20
163.478
30
0
0
VERTEX
8
ENGRAVE
10
384.778
20
163.811
30
0
0
VERTEX
8
ENGRAVE
10
385.278
20
164.103
30
0
0
SEQEND
8
ENGRAVE
0
POLYLINE
8
ENGRAVE
66
1
70
1
10
0
20
0
30
0
0
VERTEX
8
ENGRAVE
10
233.804
20
148.121
30
0
0
VERTEX
8
ENGRAVE
10
234.096
20
148.121
30
0
0
VERTEX
8
ENGRAVE
10
234.471
20
147.996
30
0
0
VERTEX
8
ENGRAVE
10
234.679
20
147.829
30
0
0
VERTEX
8
ENGRAVE
10
234.929
20
147.371
30
0
0
VERTEX
8
ENGRAVE
10
234.887
20
147.204
30
0
0
VERTEX
8
ENGRAVE
10
234.596
20
147.162
30
0
0
VERTEX
8
ENGRAVE
10
234.554
20
147.412
30
0
0
VERTEX
8
ENGRAVE
10
234.346
20
147.704
30
0
0
VERTEX
8
ENGRAVE
10
234.096
20
147.829
30
0
0
VERTEX
8
ENGRAVE
10
233.762
20
147.829
30
0
0
VERTEX
8
ENGRAVE
10
233.512
20
147.704
30
0
0
VERTEX
8
ENGRAVE
10
233.262
20
147.329
30
0
0
VERTEX
8
ENGRAVE
10
233.179
20
146.454
30
0
0
VERTEX
8
ENGRAVE
10
233.304
20
145.996
30
0
0
VERTEX
8
ENGRAVE
10
233.512
20
145.704
30
0
0
VERTEX
8
ENGRAVE
10
233.762
20
145.579
30
0
0
VERTEX
8
ENGRAVE
10
234.221
20
145.621
30
0
0
VERTEX
8
ENGRAVE
10
234.471
20
145.829
30
0
0
VERTEX
8
ENGRAVE
10
234.596
20
146.246
30
0
0
VERTEX
8
ENGRAVE
10
234.929
20
146.204
30
0
0
VERTEX
8
ENGRAVE
10
234.887
20
145.954
30
0
0
VERTEX
8
ENGRAVE
10
234.679
20
145.579
30
0
0
VERTEX
8
ENGRAVE
10
234.137
20
145.287
30
0
0
VERTEX
8
ENGRAVE
10
233.721
20
145.287
30
0
0
VERTEX
8
ENGRAVE
10
233.304
20
145.454
30
0
0
VERTEX
8
ENGRAVE
10
232.971
20
145.871
30
0
0
VERTEX
8
ENGRAVE
10
232.804
20
146.412
30
0
0
VERTEX
8
ENGRAVE
10
232.804
20
147.037
30
0
0
VERTEX
8
ENGRAVE
10
233.012
20
147.621
30
0
0
VERTEX
8
ENGRAVE
10
233.387
20
147.996
30
0
0
SEQEND
8
ENGRAVE
0
POLYLINE
8
ENGRAVE
66
1
70
1
10
0
20
0
30
0
0
VERTEX
8
ENGRAVE
10
236.137
20
148.121
30
0
0
VERTEX
8
ENGRAVE
10
236.721
20
148.079
30
0
0
VERTEX
8
ENGRAVE
10
236.971
20
147.954
30
0
0
VERTEX
8
ENGRAVE
10
237.179
20
147.746
30
0
0
VERTEX
8
ENGRAVE
10
237.262
20
147.537
30
0
0
VERTEX
8
ENGRAVE
10
237.221
20
147.121
30
0
0
VERTEX
8
ENGRAVE
10
237.012
20
146.871
30
0
0
VERTEX
8
ENGRAVE
10
236.762
20
146.746
30
0
0
VERTEX
8
ENGRAVE
10
237.012
20
146.704
30
0
0
VERTEX
8
ENGRAVE
10
237.262
20
146.496
30
0
0
VERTEX
8
ENGRAVE
10
237.346
20
146.329
30
0
0
VERTEX
8
ENGRAVE
10
237.346
20
145.871
30
0
0
VERTEX
8
ENGRAVE
10
237.137
20
145.537
30
0
0
VERTEX
8
ENGRAVE
10
236.554
20
145.287
30
0
0
VERTEX
8
ENGRAVE
10
235.887
20
145.329
30
0
0
VERTEX
8
ENGRAVE
10
235.637
20
145.454
30
0
0
VERTEX
8
ENGRAVE
10
235.304
20
145.829
30
0
0
VERTEX
8
ENGRAVE
10
235.346
20
145.996
30
0
0
VERTEX
8
ENGRAVE
10
235.596
20
146.037
30
0
0
VERTEX
8
ENGRAVE
10
235.679
20
145.829
30
0
0
VERTEX
8
ENGRAVE
10
236.012
20
145.579
30
0
0
VERTEX
8
ENGRAVE
10
236.596
20
145.579
30
0
0
VERTEX
8
ENGRAVE
10
236.804
20
145.662
30
0
0
VERTEX
8
ENGRAVE
10
236.971
20
145.871
30
0
0
VERTEX
8
ENGRAVE
10
237.012
20
146.204
30
0
0
VERTEX
8
ENGRAVE
10
236.804
20
146.496
30
0
0
VERTEX
8
ENGRAVE
10
236.429
20
146.621
30
0
0
VERTEX
8
ENGRAVE
10
235.971
20
146.621
30
0
0
VERTEX
8
ENGRAVE
10
235.971
20
146.912
30
0
0
VERTEX
8
ENGRAVE
10
236.596
20
146.912
30
0
0
VERTEX
8
ENGRAVE
10
236.804
20
147.037
30
0
0
VERTEX
8
ENGRAVE
10
236.887
20
147.204
30
0
0
VERTEX
8
ENGRAVE
10
236.846
20
147.621
30
0
0
VERTEX
8
ENGRAVE
10
236.554
20
147.829
30
0
0
VERTEX
8
ENGRAVE
10
236.096
20
147.829
30
0
0
VERTEX
8
ENGRAVE
10
235.929
20
147.746
30
0
0
VERTEX
8
ENGRAVE
10
235.679
20
147.412
30
0
0
VERTEX
8
ENGRAVE
10
235.387
20
147.454
30
0
0
VERTEX
8
ENGRAVE
10
235.596
20
147.871
30
0
0
SEQEND
8
ENGRAVE
0
POLYLINE
8
ENGRAVE
66
1
70
1
10
0
20
0
30
0
0
VERTEX
8
ENGRAVE
10
31.077
20
93.874
30
0
0
VERTEX
8
ENGRAVE
10
31.369
20
93.874
30
0
0
VERTEX
8
ENGRAVE
10
31.744
20
93.749
30
0
0
VERTEX
8
ENGRAVE
10
31.952
20
93.582
30
0
0
VERTEX
8
ENGRAVE
10
32.202
20
93.124
30
0
0
VERTEX
8
ENGRAVE
10
32.160
20
92.957
30
0
0
VERTEX
8
ENGRAVE
10
31.869
20
92.916
30
0
0
VERTEX
8
ENGRAVE
10
31.827
20
93.166
30
0
0
VERTEX
8
ENGRAVE
10
31.619
20
93.457
30
0
0
VERTEX
8
ENGRAVE
10
31.369
20
93.582
30
0
0
VERTEX
8
ENGRAVE
10
31.035
20
93.582
30
0
0
VERTEX
8
ENGRAVE
10
30.785
20
93.457
30
0
0
VERTEX
8
ENGRAVE
10
30.535
20
93.082
30
0
0
VERTEX
8
ENGRAVE
10
30.452
20
92.207
30
0
0
VERTEX
8
ENGRAVE
10
30.577
20
91.749
30
0
0
VERTEX
8
ENGRAVE
10
30.785
20
91.457
30
0
0
VERTEX
8
ENGRAVE
10
31.035
20
91.332
30
0
0
VERTEX
8
ENGRAVE
10
31.494
20
91.374
30
0
0
VERTEX
8
ENGRAVE
10
31.744
20
91.582
30
0
0
VERTEX
8
ENGRAVE
10
31.869
20
91.999
30
0
0
VERTEX
8
ENGRAVE
10
32.202
20
91.957
30
0
0
VERTEX
8
ENGRAVE
10
32.160
20
91.707
30
0
0
VERTEX
8
ENGRAVE
10
31.952
20
91.332
30
0
0
VERTEX
8
ENGRAVE
10
31.410
20
91.041
30
0
0
VERTEX
8
ENGRAVE
10
30.994
20
91.041
30
0
0
VERTEX
8
ENGRAVE
10
30.577
20
91.207
30
0
0
VERTEX
8
ENGRAVE
10
30.244
20
91.624
30
0
0
VERTEX
8
ENGRAVE
10
30.077
20
92.166
30
0
0
VERTEX
8
ENGRAVE
10
30.077
20
92.791
30
0
0
VERTEX
8
ENGRAVE
10
30.285
20
93.374
30
0
0
VERTEX
8
ENGRAVE
10
30.660
20
93.749
30
0
0
SEQEND
8
ENGRAVE
0
POLYLINE
8
ENGRAVE
66
1
70
1
10
0
20
0
30
0
0
VERTEX
8
ENGRAVE
10
33.452
20
93.874
30
0
0
VERTEX
8
ENGRAVE
10
33.952
20
93.832
30
0
0
VERTEX
8
ENGRAVE
10
34.285
20
93.666
30
0
0
VERTEX
8
ENGRAVE
10
34.535
20
93.332
30
0
0
VERTEX
8
ENGRAVE
10
34.577
20
92.957
30
0
0
VERTEX
8
ENGRAVE
10
34.535
20
92.749
30
0
0
VERTEX
8
ENGRAVE
10
34.285
20
92.332
30
0
0
VERTEX
8
ENGRAVE
10
33.119
20
91.374
30
0
0
VERTEX
8
ENGRAVE
10
34.577
20
91.374
30
0
0
VERTEX
8
ENGRAVE
10
34.577
20
91.082
30
0
0
VERTEX
8
ENGRAVE
10
32.619
20
91.082
30
0
0
VERTEX
8
ENGRAVE
10
32.619
20
91.374
30
0
0
VERTEX
8
ENGRAVE
10
33.785
20
92.249
30
0
0
VERTEX
8
ENGRAVE
10
34.119
20
92.624
30
0
0
VERTEX
8
ENGRAVE
10
34.202
20
92.832
30
0
0
VERTEX
8
ENGRAVE
10
34.160
20
93.332
30
0
0
VERTEX
8
ENGRAVE
10
33.785
20
93.582
30
0
0
VERTEX
8
ENGRAVE
10
33.410
20
93.582
30
0
0
VERTEX
8
ENGRAVE
10
33.160
20
93.457
30
0
0
VERTEX
8
ENGRAVE
10
32.952
20
93.124
30
0
0
VERTEX
8
ENGRAVE
10
32.952
20
92.957
30
0
0
VERTEX
8
ENGRAVE
10
32.619
20
93.041
30
0
0
VERTEX
8
ENGRAVE
10
32.785
20
93.499
30
0
0
VERTEX
8
ENGRAVE
10
32.994
20
93.707
30
0
0
SEQEND
8
ENGRAVE
0
POLYLINE
8
ENGRAVE
66
1
70
1
10
0
20
0
30
0
0
VERTEX
8
ENGRAVE
10
324.575
20
132.925
30
0
0
VERTEX
8
ENGRAVE
10
420.575
20
132.925
30
0
0
VERTEX
8
ENGRAVE
10
420.575
20
135.925
30
0
0
VERTEX
8
ENGRAVE
10
324.575
20
135.925
30
0
0
SEQEND
8
ENGRAVE
0
POLYLINE
8
ENGRAVE
66
1
70
1
10
0
20
0
30
0
0
VERTEX
8
ENGRAVE
10
375.236
20
75.477
30
0
0
VERTEX
8
ENGRAVE
10
375.820
20
75.477
30
0
0
VERTEX
8
ENGRAVE
10
376.476
20
75.258
30
0
0
VERTEX
8
ENGRAVE
10
376.986
20
74.821
30
0
0
VERTEX
8
ENGRAVE
10
377.205
20
74.383
30
0
0
VERTEX
8
ENGRAVE
10
377.132
20
74.238
30
0
0
VERTEX
8
ENGRAVE
10
376.622
20
74.165
30
0
0
VERTEX
8
ENGRAVE
10
376.549
20
74.529
30
0
0
VERTEX
8
ENGRAVE
10
375.820
20
74.967
30
0
0
VERTEX
8
ENGRAVE
10
375.091
20
74.967
30
0
0
VERTEX
8
ENGRAVE
10
374.507
20
74.529
30
0
0
VERTEX
8
ENGRAVE
10
374.434
20
74.165
30
0
0
VERTEX
8
ENGRAVE
10
374.726
20
73.654
30
0
0
VERTEX
8
ENGRAVE
10
376.622
20
73.144
30
0
0
VERTEX
8
ENGRAVE
10
377.278
20
72.560
30
0
0
VERTEX
8
ENGRAVE
10
377.351
20
71.540
30
0
0
VERTEX
8
ENGRAVE
10
377.205
20
71.175
30
0
0
VERTEX
8
ENGRAVE
10
376.841
20
70.810
30
0
0
VERTEX
8
ENGRAVE
10
376.111
20
70.519
30
0
0
VERTEX
8
ENGRAVE
10
374.653
20
70.665
30
0
0
VERTEX
8
ENGRAVE
10
373.924
20
71.248
30
0
0
VERTEX
8
ENGRAVE
10
373.632
20
71.758
30
0
0
VERTEX
8
ENGRAVE
10
373.632
20
71.904
30
0
0
VERTEX
8
ENGRAVE
10
374.216
20
71.977
30
0
0
VERTEX
8
ENGRAVE
10
374.580
20
71.321
30
0
0
VERTEX
8
ENGRAVE
10
375.309
20
71.029
30
0
0
VERTEX
8
ENGRAVE
10
376.184
20
71.102
30
0
0
VERTEX
8
ENGRAVE
10
376.695
20
71.540
30
0
0
VERTEX
8
ENGRAVE
10
376.768
20
71.977
30
0
0
VERTEX
8
ENGRAVE
10
376.549
20
72.415
30
0
0
VERTEX
8
ENGRAVE
10
376.184
20
72.633
30
0
0
VERTEX
8
ENGRAVE
10
374.580
20
72.998
30
0
0
VERTEX
8
ENGRAVE
10
373.924
20
73.654
30
0
0
VERTEX
8
ENGRAVE
10
373.851
20
74.310
30
0
0
VERTEX
8
ENGRAVE
10
373.997
20
74.821
30
0
0
VERTEX
8
ENGRAVE
10
374.361
20
75.185
30
0
0
SEQEND
8
ENGRAVE
0
POLYLINE
8
ENGRAVE
66
1
70
1
10
0
20
0
30
0
0
VERTEX
8
ENGRAVE
10
362.841
20
75.404
30
0
0
VERTEX
8
ENGRAVE
10
363.570
20
75.331
30
0
0
VERTEX
8
ENGRAVE
10
365.028
20
70.592
30
0
0
VERTEX
8
ENGRAVE
10
364.372
20
70.665
30
0
0
VERTEX
8
ENGRAVE
10
364.007
20
71.977
30
0
0
VERTEX
8
ENGRAVE
10
362.184
20
71.977
30
0
0
VERTEX
8
ENGRAVE
10
361.820
20
70.665
30
0
0
VERTEX
8
ENGRAVE
10
361.236
20
70.592
30
0
0
SEQEND
8
ENGRAVE
0
POLYLINE
8
ENGRAVE
66
1
70
1
10
0
20
0
30
0
0
VERTEX
8
ENGRAVE
10
365.684
20
75.404
30
0
0
VERTEX
8
ENGRAVE
10
368.164
20
75.331
30
0
0
VERTEX
8
ENGRAVE
10
368.893
20
74.821
30
0
0
VERTEX
8
ENGRAVE
10
369.111
20
74.092
30
0
0
VERTEX
8
ENGRAVE
10
369.039
20
73.581
30
0
0
VERTEX
8
ENGRAVE
10
368.601
20
72.998
30
0
0
VERTEX
8
ENGRAVE
10
368.236
20
72.852
30
0
0
VERTEX
8
ENGRAVE
10
368.236
20
72.633
30
0
0
VERTEX
8
ENGRAVE
10
369.111
20
70.592
30
0
0
VERTEX
8
ENGRAVE
10
368.455
20
70.592
30
0
0
VERTEX
8
ENGRAVE
10
367.653
20
72.633
30
0
0
VERTEX
8
ENGRAVE
10
366.268
20
72.633
30
0
0
VERTEX
8
ENGRAVE
10
366.268
20
70.592
30
0
0
VERTEX
8
ENGRAVE
10
365.684
20
70.592
30
0
0
SEQEND
8
ENGRAVE
0
POLYLINE
8
ENGRAVE
66
1
70
1
10
0
20
0
30
0
0
VERTEX
8
ENGRAVE
10
369.986
20
75.404
30
0
0
VERTEX
8
ENGRAVE
10
373.049
20
75.404
30
0
0
VERTEX
8
ENGRAVE
10
373.049
20
74.894
30
0
0
VERTEX
8
ENGRAVE
10
370.643
20
74.894
30
0
0
VERTEX
8
ENGRAVE
10
370.643
20
73.363
30
0
0
VERTEX
8
ENGRAVE
10
372.539
20
73.363
30
0
0
VERTEX
8
ENGRAVE
10
372.539
20
72.852
30
0
0
VERTEX
8
ENGRAVE
10
370.643
20
72.852
30
0
0
VERTEX
8
ENGRAVE
10
370.643
20
71.102
30
0
0
VERTEX
8
ENGRAVE
10
373.122
20
71.102
30
0
0
VERTEX
8
ENGRAVE
10
373.122
20
70.592
30
0
0
VERTEX
8
ENGRAVE
10
369.986
20
70.592
30
0
0
SEQEND
8
ENGRAVE
0
POLYLINE
8
ENGRAVE
66
1
70
1
10
0
20
0
30
0
0
VERTEX
8
ENGRAVE
10
381.872
20
75.404
30
0
0
VERTEX
8
ENGRAVE
10
382.309
20
75.404
30
0
0
VERTEX
8
ENGRAVE
10
382.309
20
71.029
30
0
0
VERTEX
8
ENGRAVE
10
383.695
20
71.029
30
0
0
VERTEX
8
ENGRAVE
10
383.695
20
70.592
30
0
0
VERTEX
8
ENGRAVE
10
380.341
20
70.592
30
0
0
VERTEX
8
ENGRAVE
10
380.341
20
71.029
30
0
0
VERTEX
8
ENGRAVE
10
381.726
20
71.029
30
0
0
VERTEX
8
ENGRAVE
10
381.726
20
74.602
30
0
0
VERTEX
8
ENGRAVE
10
380.559
20
73.654
30
0
0
VERTEX
8
ENGRAVE
10
380.414
20
73.654
30
0
0
VERTEX
8
ENGRAVE
10
380.414
20
74.238
30
0
0
VERTEX
8
ENGRAVE
10
381.289
20
74.748
30
0
0
SEQEND
8
ENGRAVE
0
POLYLINE
8
ENGRAVE
66
1
70
1
10
0
20
0
30
0
0
VERTEX
8
ENGRAVE
10
366.341
20
74.894
30
0
0
VERTEX
8
ENGRAVE
10
366.268
20
73.144
30
0
0
VERTEX
8
ENGRAVE
10
367.945
20
73.217
30
0
0
VERTEX
8
ENGRAVE
10
368.382
20
73.581
30
0
0
VERTEX
8
ENGRAVE
10
368.455
20
74.310
30
0
0
VERTEX
8
ENGRAVE
10
368.236
20
74.675
30
0
0
VERTEX
8
ENGRAVE
10
367.653
20
74.894
30
0
0
SEQEND
8
ENGRAVE
0
POLYLINE
8
ENGRAVE
66
1
70
1
10
0
20
0
30
0
0
VERTEX
8
ENGRAVE
10
363.132
20
74.675
30
0
0
VERTEX
8
ENGRAVE
10
362.403
20
72.488
30
0
0
VERTEX
8
ENGRAVE
10
363.789
20
72.488
30
0
0
SEQEND
8
ENGRAVE
0
POLYLINE
8
ENGRAVE
66
1
70
1
10
0
20
0
30
0
0
VERTEX
8
ENGRAVE
10
377.716
20
72.633
30
0
0
VERTEX
8
ENGRAVE
10
379.174
20
72.633
30
0
0
VERTEX
8
ENGRAVE
10
379.174
20
72.196
30
0
0
VERTEX
8
ENGRAVE
10
377.643
20
72.196
30
0
0
SEQEND
8
ENGRAVE
0
POLYLINE
8
ENGRAVE
66
1
70
1
10
0
20
0
30
0
0
VERTEX
8
ENGRAVE
10
32.437
20
133.950
30
0
0
VERTEX
8
ENGRAVE
10
32.145
20
133.950
30
0
0
VERTEX
8
ENGRAVE
10
31.770
20
134.075
30
0
0
VERTEX
8
ENGRAVE
10
31.562
20
134.242
30
0
0
VERTEX
8
ENGRAVE
10
31.312
20
134.700
30
0
0
VERTEX
8
ENGRAVE
10
31.353
20
134.867
30
0
0
VERTEX
8
ENGRAVE
10
31.645
20
134.909
30
0
0
VERTEX
8
ENGRAVE
10
31.687
20
134.659
30
0
0
VERTEX
8
ENGRAVE
10
31.895
20
134.367
30
0
0
VERTEX
8
ENGRAVE
10
32.145
20
134.242
30
0
0
VERTEX
8
ENGRAVE
10
32.478
20
134.242
30
0
0
VERTEX
8
ENGRAVE
10
32.728
20
134.367
30
0
0
VERTEX
8
ENGRAVE
10
32.978
20
134.742
30
0
0
VERTEX
8
ENGRAVE
10
33.062
20
135.617
30
0
0
VERTEX
8
ENGRAVE
10
32.937
20
136.075
30
0
0
VERTEX
8
ENGRAVE
10
32.728
20
136.367
30
0
0
VERTEX
8
ENGRAVE
10
32.478
20
136.492
30
0
0
VERTEX
8
ENGRAVE
10
32.020
20
136.450
30
0
0
VERTEX
8
ENGRAVE
10
31.770
20
136.242
30
0
0
VERTEX
8
ENGRAVE
10
31.645
20
135.825
30
0
0
VERTEX
8
ENGRAVE
10
31.312
20
135.867
30
0
0
VERTEX
8
ENGRAVE
10
31.353
20
136.117
30
0
0
VERTEX
8
ENGRAVE
10
31.562
20
136.492
30
0
0
VERTEX
8
ENGRAVE
10
32.103
20
136.784
30
0
0
VERTEX
8
ENGRAVE
10
32.520
20
136.784
30
0
0
VERTEX
8
ENGRAVE
10
32.937
20
136.617
30
0
0
VERTEX
8
ENGRAVE
10
33.270
20
136.200
30
0
0
VERTEX
8
ENGRAVE
10
33.437
20
135.659
30
0
0
VERTEX
8
ENGRAVE
10
33.437
20
135.034
30
0
0
VERTEX
8
ENGRAVE
10
33.228
20
134.450
30
0
0
VERTEX
8
ENGRAVE
10
32.853
20
134.075
30
0
0
SEQEND
8
ENGRAVE
0
POLYLINE
8
ENGRAVE
66
1
70
1
10
0
20
0
30
0
0
VERTEX
8
ENGRAVE
10
30.728
20
133.992
30
0
0
VERTEX
8
ENGRAVE
10
29.103
20
133.992
30
0
0
VERTEX
8
ENGRAVE
10
29.103
20
134.284
30
0
0
VERTEX
8
ENGRAVE
10
30.478
20
134.284
30
0
0
VERTEX
8
ENGRAVE
10
30.520
20
135.159
30
0
0
VERTEX
8
ENGRAVE
10
30.103
20
134.909
30
0
0
VERTEX
8
ENGRAVE
10
29.603
20
134.909
30
0
0
VERTEX
8
ENGRAVE
10
29.312
20
135.034
30
0
0
VERTEX
8
ENGRAVE
10
28.937
20
135.534
30
0
0
VERTEX
8
ENGRAVE
10
28.937
20
136.075
30
0
0
VERTEX
8
ENGRAVE
10
29.062
20
136.367
30
0
0
VERTEX
8
ENGRAVE
10
29.562
20
136.742
30
0
0
VERTEX
8
ENGRAVE
10
30.353
20
136.742
30
0
0
VERTEX
8
ENGRAVE
10
30.603
20
136.617
30
0
0
VERTEX
8
ENGRAVE
10
30.937
20
136.200
30
0
0
VERTEX
8
ENGRAVE
10
30.937
20
136.117
30
0
0
VERTEX
8
ENGRAVE
10
30.603
20
136.034
30
0
0
VERTEX
8
ENGRAVE
10
30.437
20
136.367
30
0
0
VERTEX
8
ENGRAVE
10
30.187
20
136.492
30
0
0
VERTEX
8
ENGRAVE
10
29.687
20
136.492
30
0
0
VERTEX
8
ENGRAVE
10
29.520
20
136.409
30
0
0
VERTEX
8
ENGRAVE
10
29.270
20
136.075
30
0
0
VERTEX
8
ENGRAVE
10
29.270
20
135.575
30
0
0
VERTEX
8
ENGRAVE
10
29.520
20
135.242
30
0
0
VERTEX
8
ENGRAVE
10
30.062
20
135.159
30
0
0
VERTEX
8
ENGRAVE
10
30.395
20
135.325
30
0
0
VERTEX
8
ENGRAVE
10
30.520
20
135.534
30
0
0
VERTEX
8
ENGRAVE
10
30.812
20
135.492
30
0
0
SEQEND
8
ENGRAVE
0
POLYLINE
8
ENGRAVE
66
1
70
1
10
0
20
0
30
0
0
VERTEX
8
ENGRAVE
10
81.075
20
35.925
30
0
0
VERTEX
8
ENGRAVE
10
80.635
20
38.706
30
0
0
VERTEX
8
ENGRAVE
10
79.356
20
41.215
30
0
0
VERTEX
8
ENGRAVE
10
77.365
20
43.206
30
0
0
VERTEX
8
ENGRAVE
10
74.856
20
44.485
30
0
0
VERTEX
8
ENGRAVE
10
72.075
20
44.925
30
0
0
VERTEX
8
ENGRAVE
10
18.075
20
44.925
30
0
0
VERTEX
8
ENGRAVE
10
15.294
20
44.485
30
0
0
VERTEX
8
ENGRAVE
10
12.785
20
43.206
30
0
0
VERTEX
8
ENGRAVE
10
10.794
20
41.215
30
0
0
VERTEX
8
ENGRAVE
10
9.515
20
38.706
30
0
0
VERTEX
8
ENGRAVE
10
9.075
20
35.925
30
0
0
VERTEX
8
ENGRAVE
10
9.075
20
27.925
30
0
0
VERTEX
8
ENGRAVE
10
9.515
20
25.144
30
0
0
VERTEX
8
ENGRAVE
10
10.794
20
22.635
30
0
0
VERTEX
8
ENGRAVE
10
12.785
20
20.644
30
0
0
VERTEX
8
ENGRAVE
10
15.294
20
19.365
30
0
0
VERTEX
8
ENGRAVE
10
18.075
20
18.925
30
0
0
VERTEX
8
ENGRAVE
10
72.075
20
18.925
30
0
0
VERTEX
8
ENGRAVE
10
74.856
20
19.365
30
0
0
VERTEX
8
ENGRAVE
10
77.365
20
20.644
30
0
0
VERTEX
8
ENGRAVE
10
79.356
20
22.635
30
0
0
VERTEX
8
ENGRAVE
10
80.635
20
25.144
30
0
0
VERTEX
8
ENGRAVE
10
81.075
20
27.925
30
0
0
SEQEND
8
ENGRAVE
0
POLYLINE
8
ENGRAVE
66
1
70
1
10
0
20
0
30
0
0
VERTEX
8
ENGRAVE
10
416.970
20
40.642
30
0
0
VERTEX
8
ENGRAVE
10
417.303
20
40.642
30
0
0
VERTEX
8
ENGRAVE
10
417.303
20
39.517
30
0
0
VERTEX
8
ENGRAVE
10
418.595
20
39.517
30
0
0
VERTEX
8
ENGRAVE
10
418.595
20
40.642
30
0
0
VERTEX
8
ENGRAVE
10
418.928
20
40.642
30
0
0
VERTEX
8
ENGRAVE
10
418.928
20
37.892
30
0
0
VERTEX
8
ENGRAVE
10
418.595
20
37.892
30
0
0
VERTEX
8
ENGRAVE
10
418.595
20
39.183
30
0
0
VERTEX
8
ENGRAVE
10
417.303
20
39.183
30
0
0
VERTEX
8
ENGRAVE
10
417.303
20
37.892
30
0
0
VERTEX
8
ENGRAVE
10
416.970
20
37.892
30
0
0
SEQEND
8
ENGRAVE
0
POLYLINE
8
ENGRAVE
66
1
70
1
10
0
20
0
30
0
0
VERTEX
8
ENGRAVE
10
420.470
20
40.642
30
0
0
VERTEX
8
ENGRAVE
10
420.762
20
40.600
30
0
0
VERTEX
8
ENGRAVE
10
420.762
20
38.142
30
0
0
VERTEX
8
ENGRAVE
10
421.512
20
38.142
30
0
0
VERTEX
8
ENGRAVE
10
421.512
20
37.892
30
0
0
VERTEX
8
ENGRAVE
10
419.595
20
37.892
30
0
0
VERTEX
8
ENGRAVE
10
419.595
20
38.142
30
0
0
VERTEX
8
ENGRAVE
10
420.387
20
38.142
30
0
0
VERTEX
8
ENGRAVE
10
420.387
20
40.183
30
0
0
VERTEX
8
ENGRAVE
10
419.720
20
39.642
30
0
0
VERTEX
8
ENGRAVE
10
419.637
20
39.642
30
0
0
VERTEX
8
ENGRAVE
10
419.637
20
39.975
30
0
0
VERTEX
8
ENGRAVE
10
420.095
20
40.225
30
0
0
SEQEND
8
ENGRAVE
0
POLYLINE
8
ENGRAVE
66
1
70
1
10
0
20
0
30
0
0
VERTEX
8
ENGRAVE
10
422.012
20
40.642
30
0
0
VERTEX
8
ENGRAVE
10
423.803
20
40.642
30
0
0
VERTEX
8
ENGRAVE
10
423.762
20
40.308
30
0
0
VERTEX
8
ENGRAVE
10
423.428
20
39.933
30
0
0
VERTEX
8
ENGRAVE
10
423.053
20
39.183
30
0
0
VERTEX
8
ENGRAVE
10
422.887
20
38.600
30
0
0
VERTEX
8
ENGRAVE
10
422.845
20
37.892
30
0
0
VERTEX
8
ENGRAVE
10
422.470
20
37.892
30
0
0
VERTEX
8
ENGRAVE
10
422.553
20
38.642
30
0
0
VERTEX
8
ENGRAVE
10
422.720
20
39.183
30
0
0
VERTEX
8
ENGRAVE
10
423.012
20
39.767
30
0
0
VERTEX
8
ENGRAVE
10
423.428
20
40.350
30
0
0
VERTEX
8
ENGRAVE
10
421.970
20
40.350
30
0
0
SEQEND
8
ENGRAVE
0
POLYLINE
8
ENGRAVE
66
1
70
1
10
0
20
0
30
0
0
VERTEX
8
ENGRAVE
10
429.533
20
168.491
30
0
0
VERTEX
8
ENGRAVE
10
429.492
20
167.991
30
0
0
VERTEX
8
ENGRAVE
10
429.325
20
167.658
30
0
0
VERTEX
8
ENGRAVE
10
428.950
20
167.408
30
0
0
VERTEX
8
ENGRAVE
10
428.450
20
167.408
30
0
0
VERTEX
8
ENGRAVE
10
427.867
20
167.783
30
0
0
VERTEX
8
ENGRAVE
10
427.867
20
167.866
30
0
0
VERTEX
8
ENGRAVE
10
427.617
20
168.074
30
0
0
VERTEX
8
ENGRAVE
10
427.033
20
168.866
30
0
0
VERTEX
8
ENGRAVE
10
427.033
20
167.408
30
0
0
VERTEX
8
ENGRAVE
10
426.742
20
167.366
30
0
0
VERTEX
8
ENGRAVE
10
426.742
20
169.324
30
0
0
VERTEX
8
ENGRAVE
10
427.033
20
169.324
30
0
0
VERTEX
8
ENGRAVE
10
427.783
20
168.324
30
0
0
VERTEX
8
ENGRAVE
10
428.242
20
167.866
30
0
0
VERTEX
8
ENGRAVE
10
428.533
20
167.741
30
0
0
VERTEX
8
ENGRAVE
10
428.867
20
167.741
30
0
0
VERTEX
8
ENGRAVE
10
429.033
20
167.824
30
0
0
VERTEX
8
ENGRAVE
10
429.242
20
168.158
30
0
0
VERTEX
8
ENGRAVE
10
429.242
20
168.574
30
0
0
VERTEX
8
ENGRAVE
10
429.158
20
168.741
30
0
0
VERTEX
8
ENGRAVE
10
428.908
20
168.949
30
0
0
VERTEX
8
ENGRAVE
10
428.617
20
169.033
30
0
0
VERTEX
8
ENGRAVE
10
428.700
20
169.324
30
0
0
VERTEX
8
ENGRAVE
10
429.117
20
169.199
30
0
0
VERTEX
8
ENGRAVE
10
429.450
20
168.824
30
0
0
SEQEND
8
ENGRAVE
0
POLYLINE
8
ENGRAVE
66
1
70
1
10
0
20
0
30
0
0
VERTEX
8
ENGRAVE
10
429.492
20
171.533
30
0
0
VERTEX
8
ENGRAVE
10
429.492
20
169.616
30
0
0
VERTEX
8
ENGRAVE
10
429.200
20
169.616
30
0
0
VERTEX
8
ENGRAVE
10
429.158
20
170.408
30
0
0
VERTEX
8
ENGRAVE
10
426.742
20
170.408
30
0
0
VERTEX
8
ENGRAVE
10
426.742
20
170.741
30
0
0
VERTEX
8
ENGRAVE
10
429.200
20
170.741
30
0
0
VERTEX
8
ENGRAVE
10
429.200
20
171.533
30
0
0
SEQEND
8
ENGRAVE
0
POLYLINE
8
ENGRAVE
66
1
70
1
10
0
20
0
30
0
0
VERTEX
8
ENGRAVE
10
437.804
20
240.008
30
0
0
VERTEX
8
ENGRAVE
10
438.096
20
240.008
30
0
0
VERTEX
8
ENGRAVE
10
438.471
20
239.883
30
0
0
VERTEX
8
ENGRAVE
10
438.679
20
239.717
30
0
0
VERTEX
8
ENGRAVE
10
438.929
20
239.258
30
0
0
VERTEX
8
ENGRAVE
10
438.887
20
239.092
30
0
0
VERTEX
8
ENGRAVE
10
438.596
20
239.050
30
0
0
VERTEX
8
ENGRAVE
10
438.554
20
239.300
30
0
0
VERTEX
8
ENGRAVE
10
438.346
20
239.592
30
0
0
VERTEX
8
ENGRAVE
10
438.096
20
239.717
30
0
0
VERTEX
8
ENGRAVE
10
437.762
20
239.717
30
0
0
VERTEX
8
ENGRAVE
10
437.512
20
239.592
30
0
0
VERTEX
8
ENGRAVE
10
437.262
20
239.217
30
0
0
VERTEX
8
ENGRAVE
10
437.179
20
238.342
30
0
0
VERTEX
8
ENGRAVE
10
437.304
20
237.883
30
0
0
VERTEX
8
ENGRAVE
10
437.512
20
237.592
30
0
0
VERTEX
8
ENGRAVE
10
437.762
20
237.467
30
0
0
VERTEX
8
ENGRAVE
10
438.221
20
237.508
30
0
0
VERTEX
8
ENGRAVE
10
438.471
20
237.717
30
0
0
VERTEX
8
ENGRAVE
10
438.596
20
238.133
30
0
0
VERTEX
8
ENGRAVE
10
438.929
20
238.092
30
0
0
VERTEX
8
ENGRAVE
10
438.887
20
237.842
30
0
0
VERTEX
8
ENGRAVE
10
438.679
20
237.467
30
0
0
VERTEX
8
ENGRAVE
10
438.137
20
237.175
30
0
0
VERTEX
8
ENGRAVE
10
437.721
20
237.175
30
0
0
VERTEX
8
ENGRAVE
10
437.304
20
237.342
30
0
0
VERTEX
8
ENGRAVE
10
436.971
20
237.758
30
0
0
VERTEX
8
ENGRAVE
10
436.804
20
238.300
30
0
0
VERTEX
8
ENGRAVE
10
436.804
20
238.925
30
0
0
VERTEX
8
ENGRAVE
10
437.012
20
239.508
30
0
0
VERTEX
8
ENGRAVE
10
437.387
20
239.883
30
0
0
SEQEND
8
ENGRAVE
0
POLYLINE
8
ENGRAVE
66
1
70
1
10
0
20
0
30
0
0
VERTEX
8
ENGRAVE
10
440.262
20
240.008
30
0
0
VERTEX
8
ENGRAVE
10
440.929
20
239.883
30
0
0
VERTEX
8
ENGRAVE
10
441.304
20
239.425
30
0
0
VERTEX
8
ENGRAVE
10
440.971
20
239.300
30
0
0
VERTEX
8
ENGRAVE
10
440.929
20
239.467
30
0
0
VERTEX
8
ENGRAVE
10
440.762
20
239.633
30
0
0
VERTEX
8
ENGRAVE
10
440.221
20
239.717
30
0
0
VERTEX
8
ENGRAVE
10
439.846
20
239.467
30
0
0
VERTEX
8
ENGRAVE
10
439.679
20
239.133
30
0
0
VERTEX
8
ENGRAVE
10
439.637
20
238.550
30
0
0
VERTEX
8
ENGRAVE
10
439.929
20
238.883
30
0
0
VERTEX
8
ENGRAVE
10
440.096
20
238.967
30
0
0
VERTEX
8
ENGRAVE
10
440.637
20
239.008
30
0
0
VERTEX
8
ENGRAVE
10
441.012
20
238.842
30
0
0
VERTEX
8
ENGRAVE
10
441.304
20
238.425
30
0
0
VERTEX
8
ENGRAVE
10
441.346
20
237.967
30
0
0
VERTEX
8
ENGRAVE
10
441.179
20
237.550
30
0
0
VERTEX
8
ENGRAVE
10
440.971
20
237.342
30
0
0
VERTEX
8
ENGRAVE
10
440.596
20
237.175
30
0
0
VERTEX
8
ENGRAVE
10
440.137
20
237.175
30
0
0
VERTEX
8
ENGRAVE
10
439.804
20
237.300
30
0
0
VERTEX
8
ENGRAVE
10
439.512
20
237.592
30
0
0
VERTEX
8
ENGRAVE
10
439.304
20
238.175
30
0
0
VERTEX
8
ENGRAVE
10
439.304
20
238.925
30
0
0
VERTEX
8
ENGRAVE
10
439.512
20
239.508
30
0
0
VERTEX
8
ENGRAVE
10
439.804
20
239.842
30
0
0
SEQEND
8
ENGRAVE
0
POLYLINE
8
ENGRAVE
66
1
70
1
10
0
20
0
30
0
0
VERTEX
8
ENGRAVE
10
440.221
20
238.717
30
0
0
VERTEX
8
ENGRAVE
10
439.971
20
238.633
30
0
0
VERTEX
8
ENGRAVE
10
439.804
20
238.467
30
0
0
VERTEX
8
ENGRAVE
10
439.679
20
238.175
30
0
0
VERTEX
8
ENGRAVE
10
439.721
20
237.842
30
0
0
VERTEX
8
ENGRAVE
10
440.137
20
237.467
30
0
0
VERTEX
8
ENGRAVE
10
440.554
20
237.467
30
0
0
VERTEX
8
ENGRAVE
10
440.887
20
237.675
30
0
0
VERTEX
8
ENGRAVE
10
441.012
20
237.967
30
0
0
VERTEX
8
ENGRAVE
10
441.012
20
238.258
30
0
0
VERTEX
8
ENGRAVE
10
440.762
20
238.633
30
0
0
VERTEX
8
ENGRAVE
10
440.596
20
238.717
30
0
0
SEQEND
8
ENGRAVE
0
POLYLINE
8
ENGRAVE
66
1
70
1
10
0
20
0
30
0
0
VERTEX
8
ENGRAVE
10
134.433
20
143.315
30
0
0
VERTEX
8
ENGRAVE
10
134.808
20
143.315
30
0
0
VERTEX
8
ENGRAVE
10
135.266
20
143.148
30
0
0
VERTEX
8
ENGRAVE
10
135.516
20
142.857
30
0
0
VERTEX
8
ENGRAVE
10
135.683
20
142.357
30
0
0
VERTEX
8
ENGRAVE
10
135.683
20
141.523
30
0
0
VERTEX
8
ENGRAVE
10
135.558
20
141.107
30
0
0
VERTEX
8
ENGRAVE
10
135.183
20
140.648
30
0
0
VERTEX
8
ENGRAVE
10
134.766
20
140.482
30
0
0
VERTEX
8
ENGRAVE
10
134.350
20
140.482
30
0
0
VERTEX
8
ENGRAVE
10
134.100
20
140.565
30
0
0
VERTEX
8
ENGRAVE
10
133.725
20
140.982
30
0
0
VERTEX
8
ENGRAVE
10
133.766
20
141.065
30
0
0
VERTEX
8
ENGRAVE
10
134.016
20
141.107
30
0
0
VERTEX
8
ENGRAVE
10
134.058
20
140.982
30
0
0
VERTEX
8
ENGRAVE
10
134.350
20
140.773
30
0
0
VERTEX
8
ENGRAVE
10
134.850
20
140.773
30
0
0
VERTEX
8
ENGRAVE
10
135.141
20
140.982
30
0
0
VERTEX
8
ENGRAVE
10
135.308
20
141.315
30
0
0
VERTEX
8
ENGRAVE
10
135.391
20
141.940
30
0
0
VERTEX
8
ENGRAVE
10
134.933
20
141.523
30
0
0
VERTEX
8
ENGRAVE
10
134.350
20
141.482
30
0
0
VERTEX
8
ENGRAVE
10
134.058
20
141.607
30
0
0
VERTEX
8
ENGRAVE
10
133.683
20
142.107
30
0
0
VERTEX
8
ENGRAVE
10
133.683
20
142.648
30
0
0
VERTEX
8
ENGRAVE
10
133.766
20
142.857
30
0
0
VERTEX
8
ENGRAVE
10
133.975
20
143.107
30
0
0
SEQEND
8
ENGRAVE
0
POLYLINE
8
ENGRAVE
66
1
70
1
10
0
20
0
30
0
0
VERTEX
8
ENGRAVE
10
131.183
20
143.273
30
0
0
VERTEX
8
ENGRAVE
10
131.516
20
143.273
30
0
0
VERTEX
8
ENGRAVE
10
131.516
20
142.148
30
0
0
VERTEX
8
ENGRAVE
10
132.808
20
142.148
30
0
0
VERTEX
8
ENGRAVE
10
132.808
20
143.273
30
0
0
VERTEX
8
ENGRAVE
10
133.141
20
143.273
30
0
0
VERTEX
8
ENGRAVE
10
133.141
20
140.523
30
0
0
VERTEX
8
ENGRAVE
10
132.808
20
140.523
30
0
0
VERTEX
8
ENGRAVE
10
132.808
20
141.815
30
0
0
VERTEX
8
ENGRAVE
10
131.516
20
141.815
30
0
0
VERTEX
8
ENGRAVE
10
131.516
20
140.523
30
0
0
VERTEX
8
ENGRAVE
10
131.183
20
140.523
30
0
0
SEQEND
8
ENGRAVE
0
POLYLINE
8
ENGRAVE
66
1
70
1
10
0
20
0
30
0
0
VERTEX
8
ENGRAVE
10
134.558
20
143.023
30
0
0
VERTEX
8
ENGRAVE
10
134.266
20
142.940
30
0
0
VERTEX
8
ENGRAVE
10
134.100
20
142.773
30
0
0
VERTEX
8
ENGRAVE
10
134.016
20
142.607
30
0
0
VERTEX
8
ENGRAVE
10
134.016
20
142.148
30
0
0
VERTEX
8
ENGRAVE
10
134.308
20
141.815
30
0
0
VERTEX
8
ENGRAVE
10
134.891
20
141.773
30
0
0
VERTEX
8
ENGRAVE
10
135.183
20
141.982
30
0
0
VERTEX
8
ENGRAVE
10
135.308
20
142.232
30
0
0
VERTEX
8
ENGRAVE
10
135.308
20
142.565
30
0
0
VERTEX
8
ENGRAVE
10
135.058
20
142.940
30
0
0
SEQEND
8
ENGRAVE
0
POLYLINE
8
ENGRAVE
66
1
70
1
10
0
20
0
30
0
0
VERTEX
8
ENGRAVE
10
285.725
20
83.815
30
0
0
VERTEX
8
ENGRAVE
10
286.016
20
83.815
30
0
0
VERTEX
8
ENGRAVE
10
286.391
20
83.690
30
0
0
VERTEX
8
ENGRAVE
10
286.683
20
83.398
30
0
0
VERTEX
8
ENGRAVE
10
286.933
20
82.690
30
0
0
VERTEX
8
ENGRAVE
10
286.933
20
82.065
30
0
0
VERTEX
8
ENGRAVE
10
286.683
20
81.398
30
0
0
VERTEX
8
ENGRAVE
10
286.391
20
81.107
30
0
0
VERTEX
8
ENGRAVE
10
286.058
20
80.982
30
0
0
VERTEX
8
ENGRAVE
10
285.725
20
80.982
30
0
0
VERTEX
8
ENGRAVE
10
285.391
20
81.107
30
0
0
VERTEX
8
ENGRAVE
10
285.100
20
81.398
30
0
0
VERTEX
8
ENGRAVE
10
284.850
20
82.107
30
0
0
VERTEX
8
ENGRAVE
10
284.850
20
82.690
30
0
0
VERTEX
8
ENGRAVE
10
284.975
20
83.190
30
0
0
VERTEX
8
ENGRAVE
10
285.266
20
83.607
30
0
0
SEQEND
8
ENGRAVE
0
POLYLINE
8
ENGRAVE
66
1
70
1
10
0
20
0
30
0
0
VERTEX
8
ENGRAVE
10
279.975
20
83.773
30
0
0
VERTEX
8
ENGRAVE
10
280.308
20
83.773
30
0
0
VERTEX
8
ENGRAVE
10
280.308
20
82.648
30
0
0
VERTEX
8
ENGRAVE
10
281.600
20
82.648
30
0
0
VERTEX
8
ENGRAVE
10
281.600
20
83.773
30
0
0
VERTEX
8
ENGRAVE
10
281.933
20
83.773
30
0
0
VERTEX
8
ENGRAVE
10
281.933
20
81.023
30
0
0
VERTEX
8
ENGRAVE
10
281.600
20
81.023
30
0
0
VERTEX
8
ENGRAVE
10
281.600
20
82.315
30
0
0
VERTEX
8
ENGRAVE
10
280.308
20
82.315
30
0
0
VERTEX
8
ENGRAVE
10
280.308
20
81.023
30
0
0
VERTEX
8
ENGRAVE
10
279.975
20
81.023
30
0
0
SEQEND
8
ENGRAVE
0
POLYLINE
8
ENGRAVE
66
1
70
1
10
0
20
0
30
0
0
VERTEX
8
ENGRAVE
10
283.475
20
83.773
30
0
0
VERTEX
8
ENGRAVE
10
283.766
20
83.732
30
0
0
VERTEX
8
ENGRAVE
10
283.766
20
81.273
30
0
0
VERTEX
8
ENGRAVE
10
284.516
20
81.273
30
0
0
VERTEX
8
ENGRAVE
10
284.516
20
81.023
30
0
0
VERTEX
8
ENGRAVE
10
282.600
20
81.023
30
0
0
VERTEX
8
ENGRAVE
10
282.600
20
81.273
30
0
0
VERTEX
8
ENGRAVE
10
283.391
20
81.273
30
0
0
VERTEX
8
ENGRAVE
10
283.391
20
83.315
30
0
0
VERTEX
8
ENGRAVE
10
282.725
20
82.773
30
0
0
VERTEX
8
ENGRAVE
10
282.641
20
82.773
30
0
0
VERTEX
8
ENGRAVE
10
282.641
20
83.107
30
0
0
VERTEX
8
ENGRAVE
10
283.100
20
83.357
30
0
0
SEQEND
8
ENGRAVE
0
POLYLINE
8
ENGRAVE
66
1
70
1
10
0
20
0
30
0
0
VERTEX
8
ENGRAVE
10
285.683
20
83.523
30
0
0
VERTEX
8
ENGRAVE
10
285.391
20
83.315
30
0
0
VERTEX
8
ENGRAVE
10
285.266
20
83.023
30
0
0
VERTEX
8
ENGRAVE
10
285.225
20
81.982
30
0
0
VERTEX
8
ENGRAVE
10
285.475
20
81.398
30
0
0
VERTEX
8
ENGRAVE
10
285.641
20
81.273
30
0
0
VERTEX
8
ENGRAVE
10
285.933
20
81.232
30
0
0
VERTEX
8
ENGRAVE
10
286.266
20
81.357
30
0
0
VERTEX
8
ENGRAVE
10
286.475
20
81.648
30
0
0
VERTEX
8
ENGRAVE
10
286.558
20
81.940
30
0
0
VERTEX
8
ENGRAVE
10
286.558
20
82.815
30
0
0
VERTEX
8
ENGRAVE
10
286.391
20
83.273
30
0
0
VERTEX
8
ENGRAVE
10
286.183
20
83.482
30
0
0
SEQEND
8
ENGRAVE
0
POLYLINE
8
ENGRAVE
66
1
70
1
10
0
20
0
30
0
0
VERTEX
8
ENGRAVE
10
435.596
20
135.883
30
0
0
VERTEX
8
ENGRAVE
10
435.929
20
135.883
30
0
0
VERTEX
8
ENGRAVE
10
436.346
20
135.717
30
0
0
VERTEX
8
ENGRAVE
10
436.596
20
135.425
30
0
0
VERTEX
8
ENGRAVE
10
436.721
20
135.133
30
0
0
VERTEX
8
ENGRAVE
10
436.721
20
134.967
30
0
0
VERTEX
8
ENGRAVE
10
436.429
20
134.925
30
0
0
VERTEX
8
ENGRAVE
10
436.262
20
135.342
30
0
0
VERTEX
8
ENGRAVE
10
435.887
20
135.592
30
0
0
VERTEX
8
ENGRAVE
10
435.387
20
135.508
30
0
0
VERTEX
8
ENGRAVE
10
435.096
20
135.175
30
0
0
VERTEX
8
ENGRAVE
10
434.971
20
134.550
30
0
0
VERTEX
8
ENGRAVE
10
435.012
20
134.050
30
0
0
VERTEX
8
ENGRAVE
10
435.179
20
133.633
30
0
0
VERTEX
8
ENGRAVE
10
435.387
20
133.425
30
0
0
VERTEX
8
ENGRAVE
10
435.554
20
133.342
30
0
0
VERTEX
8
ENGRAVE
10
435.929
20
133.342
30
0
0
VERTEX
8
ENGRAVE
10
436.304
20
133.633
30
0
0
VERTEX
8
ENGRAVE
10
436.429
20
134.008
30
0
0
VERTEX
8
ENGRAVE
10
436.721
20
133.967
30
0
0
VERTEX
8
ENGRAVE
10
436.679
20
133.675
30
0
0
VERTEX
8
ENGRAVE
10
436.512
20
133.383
30
0
0
VERTEX
8
ENGRAVE
10
435.971
20
133.050
30
0
0
VERTEX
8
ENGRAVE
10
435.346
20
133.092
30
0
0
VERTEX
8
ENGRAVE
10
434.971
20
133.342
30
0
0
VERTEX
8
ENGRAVE
10
434.721
20
133.758
30
0
0
VERTEX
8
ENGRAVE
10
434.596
20
134.258
30
0
0
VERTEX
8
ENGRAVE
10
434.637
20
134.925
30
0
0
VERTEX
8
ENGRAVE
10
434.804
20
135.383
30
0
0
VERTEX
8
ENGRAVE
10
435.262
20
135.800
30
0
0
SEQEND
8
ENGRAVE
0
POLYLINE
8
ENGRAVE
66
1
70
1
10
0
20
0
30
0
0
VERTEX
8
ENGRAVE
10
440.346
20
135.883
30
0
0
VERTEX
8
ENGRAVE
10
440.929
20
135.842
30
0
0
VERTEX
8
ENGRAVE
10
441.179
20
135.717
30
0
0
VERTEX
8
ENGRAVE
10
441.346
20
135.550
30
0
0
VERTEX
8
ENGRAVE
10
441.471
20
135.217
30
0
0
VERTEX
8
ENGRAVE
10
441.346
20
134.758
30
0
0
VERTEX
8
ENGRAVE
10
440.929
20
134.508
30
0
0
VERTEX
8
ENGRAVE
10
441.096
20
134.508
30
0
0
VERTEX
8
ENGRAVE
10
441.429
20
134.300
30
0
0
VERTEX
8
ENGRAVE
10
441.554
20
134.050
30
0
0
VERTEX
8
ENGRAVE
10
441.512
20
133.550
30
0
0
VERTEX
8
ENGRAVE
10
441.221
20
133.217
30
0
0
VERTEX
8
ENGRAVE
10
440.721
20
133.050
30
0
0
VERTEX
8
ENGRAVE
10
440.096
20
133.092
30
0
0
VERTEX
8
ENGRAVE
10
439.721
20
133.300
30
0
0
VERTEX
8
ENGRAVE
10
439.471
20
133.675
30
0
0
VERTEX
8
ENGRAVE
10
439.512
20
133.758
30
0
0
VERTEX
8
ENGRAVE
10
439.804
20
133.800
30
0
0
VERTEX
8
ENGRAVE
10
439.887
20
133.592
30
0
0
VERTEX
8
ENGRAVE
10
440.221
20
133.342
30
0
0
VERTEX
8
ENGRAVE
10
440.929
20
133.383
30
0
0
VERTEX
8
ENGRAVE
10
441.179
20
133.675
30
0
0
VERTEX
8
ENGRAVE
10
441.179
20
134.050
30
0
0
VERTEX
8
ENGRAVE
10
441.012
20
134.258
30
0
0
VERTEX
8
ENGRAVE
10
440.637
20
134.383
30
0
0
VERTEX
8
ENGRAVE
10
440.137
20
134.383
30
0
0
VERTEX
8
ENGRAVE
10
440.179
20
134.675
30
0
0
VERTEX
8
ENGRAVE
10
440.762
20
134.675
30
0
0
VERTEX
8
ENGRAVE
10
441.054
20
134.883
30
0
0
VERTEX
8
ENGRAVE
10
441.096
20
135.300
30
0
0
VERTEX
8
ENGRAVE
10
440.929
20
135.508
30
0
0
VERTEX
8
ENGRAVE
10
440.762
20
135.592
30
0
0
VERTEX
8
ENGRAVE
10
440.304
20
135.592
30
0
0
VERTEX
8
ENGRAVE
10
440.054
20
135.467
30
0
0
VERTEX
8
ENGRAVE
10
439.887
20
135.175
30
0
0
VERTEX
8
ENGRAVE
10
439.596
20
135.217
30
0
0
VERTEX
8
ENGRAVE
10
439.637
20
135.425
30
0
0
VERTEX
8
ENGRAVE
10
439.846
20
135.675
30
0
0
SEQEND
8
ENGRAVE
0
POLYLINE
8
ENGRAVE
66
1
70
1
10
0
20
0
30
0
0
VERTEX
8
ENGRAVE
10
438.096
20
135.842
30
0
0
VERTEX
8
ENGRAVE
10
438.387
20
135.842
30
0
0
VERTEX
8
ENGRAVE
10
438.387
20
133.342
30
0
0
VERTEX
8
ENGRAVE
10
439.137
20
133.342
30
0
0
VERTEX
8
ENGRAVE
10
439.137
20
133.092
30
0
0
VERTEX
8
ENGRAVE
10
437.221
20
133.092
30
0
0
VERTEX
8
ENGRAVE
10
437.221
20
133.342
30
0
0
VERTEX
8
ENGRAVE
10
438.054
20
133.342
30
0
0
VERTEX
8
ENGRAVE
10
438.054
20
135.383
30
0
0
VERTEX
8
ENGRAVE
10
437.346
20
134.842
30
0
0
VERTEX
8
ENGRAVE
10
437.304
20
135.217
30
0
0
VERTEX
8
ENGRAVE
10
437.679
20
135.383
30
0
0
VERTEX
8
ENGRAVE
10
438.096
20
135.758
30
0
0
SEQEND
8
ENGRAVE
0
POLYLINE
8
ENGRAVE
66
1
70
1
10
0
20
0
30
0
0
VERTEX
8
ENGRAVE
10
186.304
20
284.482
30
0
0
VERTEX
8
ENGRAVE
10
186.596
20
284.482
30
0
0
VERTEX
8
ENGRAVE
10
186.971
20
284.357
30
0
0
VERTEX
8
ENGRAVE
10
187.179
20
284.190
30
0
0
VERTEX
8
ENGRAVE
10
187.429
20
283.732
30
0
0
VERTEX
8
ENGRAVE
10
187.387
20
283.565
30
0
0
VERTEX
8
ENGRAVE
10
187.096
20
283.524
30
0
0
VERTEX
8
ENGRAVE
10
187.054
20
283.774
30
0
0
VERTEX
8
ENGRAVE
10
186.846
20
284.065
30
0
0
VERTEX
8
ENGRAVE
10
186.596
20
284.190
30
0
0
VERTEX
8
ENGRAVE
10
186.262
20
284.190
30
0
0
VERTEX
8
ENGRAVE
10
186.012
20
284.065
30
0
0
VERTEX
8
ENGRAVE
10
185.762
20
283.690
30
0
0
VERTEX
8
ENGRAVE
10
185.679
20
282.815
30
0
0
VERTEX
8
ENGRAVE
10
185.804
20
282.357
30
0
0
VERTEX
8
ENGRAVE
10
186.012
20
282.065
30
0
0
VERTEX
8
ENGRAVE
10
186.262
20
281.940
30
0
0
VERTEX
8
ENGRAVE
10
186.721
20
281.982
30
0
0
VERTEX
8
ENGRAVE
10
186.971
20
282.190
30
0
0
VERTEX
8
ENGRAVE
10
187.096
20
282.607
30
0
0
VERTEX
8
ENGRAVE
10
187.429
20
282.565
30
0
0
VERTEX
8
ENGRAVE
10
187.387
20
282.315
30
0
0
VERTEX
8
ENGRAVE
10
187.179
20
281.940
30
0
0
VERTEX
8
ENGRAVE
10
186.637
20
281.649
30
0
0
VERTEX
8
ENGRAVE
10
186.221
20
281.649
30
0
0
VERTEX
8
ENGRAVE
10
185.804
20
281.815
30
0
0
VERTEX
8
ENGRAVE
10
185.471
20
282.232
30
0
0
VERTEX
8
ENGRAVE
10
185.304
20
282.774
30
0
0
VERTEX
8
ENGRAVE
10
185.304
20
283.399
30
0
0
VERTEX
8
ENGRAVE
10
185.512
20
283.982
30
0
0
VERTEX
8
ENGRAVE
10
185.887
20
284.357
30
0
0
SEQEND
8
ENGRAVE
0
POLYLINE
8
ENGRAVE
66
1
70
1
10
0
20
0
30
0
0
VERTEX
8
ENGRAVE
10
187.929
20
284.440
30
0
0
VERTEX
8
ENGRAVE
10
189.762
20
284.399
30
0
0
VERTEX
8
ENGRAVE
10
189.721
20
284.149
30
0
0
VERTEX
8
ENGRAVE
10
189.304
20
283.649
30
0
0
VERTEX
8
ENGRAVE
10
189.012
20
283.065
30
0
0
VERTEX
8
ENGRAVE
10
188.804
20
282.315
30
0
0
VERTEX
8
ENGRAVE
10
188.762
20
281.690
30
0
0
VERTEX
8
ENGRAVE
10
188.429
20
281.690
30
0
0
VERTEX
8
ENGRAVE
10
188.471
20
282.399
30
0
0
VERTEX
8
ENGRAVE
10
188.679
20
283.065
30
0
0
VERTEX
8
ENGRAVE
10
189.346
20
284.149
30
0
0
VERTEX
8
ENGRAVE
10
187.887
20
284.149
30
0
0
SEQEND
8
ENGRAVE
0
POLYLINE
8
ENGRAVE
66
1
70
1
10
0
20
0
30
0
0
VERTEX
8
ENGRAVE
10
189.453
20
240.092
30
0
0
VERTEX
8
ENGRAVE
10
189.453
20
239.939
30
0
0
VERTEX
8
ENGRAVE
10
189.388
20
239.742
30
0
0
VERTEX
8
ENGRAVE
10
189.300
20
239.633
30
0
0
VERTEX
8
ENGRAVE
10
189.060
20
239.502
30
0
0
VERTEX
8
ENGRAVE
10
188.972
20
239.523
30
0
0
VERTEX
8
ENGRAVE
10
188.950
20
239.677
30
0
0
VERTEX
8
ENGRAVE
10
189.081
20
239.698
30
0
0
VERTEX
8
ENGRAVE
10
189.235
20
239.808
30
0
0
VERTEX
8
ENGRAVE
10
189.300
20
239.939
30
0
0
VERTEX
8
ENGRAVE
10
189.300
20
240.114
30
0
0
VERTEX
8
ENGRAVE
10
189.235
20
240.245
30
0
0
VERTEX
8
ENGRAVE
10
189.038
20
240.377
30
0
0
VERTEX
8
ENGRAVE
10
188.578
20
240.420
30
0
0
VERTEX
8
ENGRAVE
10
188.338
20
240.355
30
0
0
VERTEX
8
ENGRAVE
10
188.185
20
240.245
30
0
0
VERTEX
8
ENGRAVE
10
188.119
20
240.114
30
0
0
VERTEX
8
ENGRAVE
10
188.141
20
239.873
30
0
0
VERTEX
8
ENGRAVE
10
188.250
20
239.742
30
0
0
VERTEX
8
ENGRAVE
10
188.469
20
239.677
30
0
0
VERTEX
8
ENGRAVE
10
188.447
20
239.502
30
0
0
VERTEX
8
ENGRAVE
10
188.316
20
239.523
30
0
0
VERTEX
8
ENGRAVE
10
188.119
20
239.633
30
0
0
VERTEX
8
ENGRAVE
10
187.966
20
239.917
30
0
0
VERTEX
8
ENGRAVE
10
187.966
20
240.136
30
0
0
VERTEX
8
ENGRAVE
10
188.053
20
240.355
30
0
0
VERTEX
8
ENGRAVE
10
188.272
20
240.530
30
0
0
VERTEX
8
ENGRAVE
10
188.556
20
240.617
30
0
0
VERTEX
8
ENGRAVE
10
188.885
20
240.617
30
0
0
VERTEX
8
ENGRAVE
10
189.191
20
240.508
30
0
0
VERTEX
8
ENGRAVE
10
189.388
20
240.311
30
0
0
SEQEND
8
ENGRAVE
0
POLYLINE
8
ENGRAVE
66
1
70
1
10
0
20
0
30
0
0
VERTEX
8
ENGRAVE
10
189.453
20
238.845
30
0
0
VERTEX
8
ENGRAVE
10
189.431
20
238.539
30
0
0
VERTEX
8
ENGRAVE
10
189.344
20
238.386
30
0
0
VERTEX
8
ENGRAVE
10
189.169
20
238.277
30
0
0
VERTEX
8
ENGRAVE
10
188.906
20
238.320
30
0
0
VERTEX
8
ENGRAVE
10
188.753
20
238.539
30
0
0
VERTEX
8
ENGRAVE
10
188.578
20
238.277
30
0
0
VERTEX
8
ENGRAVE
10
188.425
20
238.211
30
0
0
VERTEX
8
ENGRAVE
10
188.228
20
238.233
30
0
0
VERTEX
8
ENGRAVE
10
188.075
20
238.342
30
0
0
VERTEX
8
ENGRAVE
10
187.966
20
238.648
30
0
0
VERTEX
8
ENGRAVE
10
187.966
20
238.911
30
0
0
VERTEX
8
ENGRAVE
10
188.010
20
239.064
30
0
0
VERTEX
8
ENGRAVE
10
188.097
20
239.217
30
0
0
VERTEX
8
ENGRAVE
10
188.250
20
239.327
30
0
0
VERTEX
8
ENGRAVE
10
188.447
20
239.327
30
0
0
VERTEX
8
ENGRAVE
10
188.578
20
239.261
30
0
0
VERTEX
8
ENGRAVE
10
188.688
20
239.130
30
0
0
VERTEX
8
ENGRAVE
10
188.731
20
238.998
30
0
0
VERTEX
8
ENGRAVE
10
188.863
20
239.195
30
0
0
VERTEX
8
ENGRAVE
10
189.016
20
239.261
30
0
0
VERTEX
8
ENGRAVE
10
189.213
20
239.239
30
0
0
VERTEX
8
ENGRAVE
10
189.366
20
239.108
30
0
0
SEQEND
8
ENGRAVE
0
POLYLINE
8
ENGRAVE
66
1
70
1
10
0
20
0
30
0
0
VERTEX
8
ENGRAVE
10
189.322
20
238.802
30
0
0
VERTEX
8
ENGRAVE
10
189.278
20
238.977
30
0
0
VERTEX
8
ENGRAVE
10
189.213
20
239.042
30
0
0
VERTEX
8
ENGRAVE
10
188.994
20
239.064
30
0
0
VERTEX
8
ENGRAVE
10
188.906
20
238.977
30
0
0
VERTEX
8
ENGRAVE
10
188.819
20
238.758
30
0
0
VERTEX
8
ENGRAVE
10
188.906
20
238.539
30
0
0
VERTEX
8
ENGRAVE
10
188.994
20
238.452
30
0
0
VERTEX
8
ENGRAVE
10
189.103
20
238.430
30
0
0
VERTEX
8
ENGRAVE
10
189.191
20
238.452
30
0
0
VERTEX
8
ENGRAVE
10
189.278
20
238.539
30
0
0
SEQEND
8
ENGRAVE
0
POLYLINE
8
ENGRAVE
66
1
70
1
10
0
20
0
30
0
0
VERTEX
8
ENGRAVE
10
188.666
20
238.780
30
0
0
VERTEX
8
ENGRAVE
10
188.535
20
239.086
30
0
0
VERTEX
8
ENGRAVE
10
188.425
20
239.152
30
0
0
VERTEX
8
ENGRAVE
10
188.294
20
239.152
30
0
0
VERTEX
8
ENGRAVE
10
188.185
20
239.086
30
0
0
VERTEX
8
ENGRAVE
10
188.119
20
238.955
30
0
0
VERTEX
8
ENGRAVE
10
188.119
20
238.583
30
0
0
VERTEX
8
ENGRAVE
10
188.250
20
238.408
30
0
0
VERTEX
8
ENGRAVE
10
188.447
20
238.408
30
0
0
VERTEX
8
ENGRAVE
10
188.556
20
238.517
30
0
0
SEQEND
8
ENGRAVE
0
POLYLINE
8
ENGRAVE
66
1
70
1
10
0
20
0
30
0
0
VERTEX
8
ENGRAVE
10
297.953
20
230.727
30
0
0
VERTEX
8
ENGRAVE
10
297.953
20
230.552
30
0
0
VERTEX
8
ENGRAVE
10
297.866
20
230.333
30
0
0
VERTEX
8
ENGRAVE
10
297.713
20
230.202
30
0
0
VERTEX
8
ENGRAVE
10
297.560
20
230.136
30
0
0
VERTEX
8
ENGRAVE
10
297.472
20
230.136
30
0
0
VERTEX
8
ENGRAVE
10
297.450
20
230.289
30
0
0
VERTEX
8
ENGRAVE
10
297.669
20
230.377
30
0
0
VERTEX
8
ENGRAVE
10
297.800
20
230.573
30
0
0
VERTEX
8
ENGRAVE
10
297.756
20
230.836
30
0
0
VERTEX
8
ENGRAVE
10
297.581
20
230.989
30
0
0
VERTEX
8
ENGRAVE
10
297.253
20
231.055
30
0
0
VERTEX
8
ENGRAVE
10
296.991
20
231.033
30
0
0
VERTEX
8
ENGRAVE
10
296.772
20
230.945
30
0
0
VERTEX
8
ENGRAVE
10
296.663
20
230.836
30
0
0
VERTEX
8
ENGRAVE
10
296.619
20
230.748
30
0
0
VERTEX
8
ENGRAVE
10
296.619
20
230.552
30
0
0
VERTEX
8
ENGRAVE
10
296.772
20
230.355
30
0
0
VERTEX
8
ENGRAVE
10
296.969
20
230.289
30
0
0
VERTEX
8
ENGRAVE
10
296.947
20
230.136
30
0
0
VERTEX
8
ENGRAVE
10
296.794
20
230.158
30
0
0
VERTEX
8
ENGRAVE
10
296.641
20
230.245
30
0
0
VERTEX
8
ENGRAVE
10
296.466
20
230.530
30
0
0
VERTEX
8
ENGRAVE
10
296.488
20
230.858
30
0
0
VERTEX
8
ENGRAVE
10
296.619
20
231.055
30
0
0
VERTEX
8
ENGRAVE
10
296.838
20
231.186
30
0
0
VERTEX
8
ENGRAVE
10
297.100
20
231.252
30
0
0
VERTEX
8
ENGRAVE
10
297.450
20
231.230
30
0
0
VERTEX
8
ENGRAVE
10
297.691
20
231.142
30
0
0
VERTEX
8
ENGRAVE
10
297.910
20
230.902
30
0
0
SEQEND
8
ENGRAVE
0
POLYLINE
8
ENGRAVE
66
1
70
1
10
0
20
0
30
0
0
VERTEX
8
ENGRAVE
10
297.931
20
229.414
30
0
0
VERTEX
8
ENGRAVE
10
297.931
20
229.261
30
0
0
VERTEX
8
ENGRAVE
10
296.619
20
229.261
30
0
0
VERTEX
8
ENGRAVE
10
296.619
20
228.867
30
0
0
VERTEX
8
ENGRAVE
10
296.488
20
228.867
30
0
0
VERTEX
8
ENGRAVE
10
296.488
20
229.873
30
0
0
VERTEX
8
ENGRAVE
10
296.619
20
229.873
30
0
0
VERTEX
8
ENGRAVE
10
296.619
20
229.436
30
0
0
VERTEX
8
ENGRAVE
10
297.691
20
229.436
30
0
0
VERTEX
8
ENGRAVE
10
297.406
20
229.808
30
0
0
VERTEX
8
ENGRAVE
10
297.603
20
229.830
30
0
0
VERTEX
8
ENGRAVE
10
297.691
20
229.633
30
0
0
VERTEX
8
ENGRAVE
10
297.888
20
229.414
30
0
0
SEQEND
8
ENGRAVE
0
POLYLINE
8
ENGRAVE
66
1
70
1
10
0
20
0
30
0
0
VERTEX
8
ENGRAVE
10
297.931
20
228.145
30
0
0
VERTEX
8
ENGRAVE
10
297.931
20
228.014
30
0
0
VERTEX
8
ENGRAVE
10
296.619
20
228.014
30
0
0
VERTEX
8
ENGRAVE
10
296.619
20
227.598
30
0
0
VERTEX
8
ENGRAVE
10
296.488
20
227.598
30
0
0
VERTEX
8
ENGRAVE
10
296.488
20
228.605
30
0
0
VERTEX
8
ENGRAVE
10
296.619
20
228.605
30
0
0
VERTEX
8
ENGRAVE
10
296.619
20
228.189
30
0
0
VERTEX
8
ENGRAVE
10
297.691
20
228.189
30
0
0
VERTEX
8
ENGRAVE
10
297.406
20
228.539
30
0
0
VERTEX
8
ENGRAVE
10
297.406
20
228.583
30
0
0
VERTEX
8
ENGRAVE
10
297.581
20
228.583
30
0
0
VERTEX
8
ENGRAVE
10
297.735
20
228.320
30
0
0
SEQEND
8
ENGRAVE
0
POLYLINE
8
CUT
66
1
70
1
10
0
20
0
30
0
0
VERTEX
8
CUT
10
349.000
20
273.850
30
0
0
VERTEX
8
CUT
10
349.000
20
286.000
30
0
0
VERTEX
8
CUT
10
371.150
20
286.000
30
0
0
VERTEX
8
CUT
10
371.150
20
273.850
30
0
0
SEQEND
8
CUT
0
POLYLINE
8
CUT
66
1
70
1
10
0
20
0
30
0
0
VERTEX
8
CUT
10
373.000
20
273.350
30
0
0
VERTEX
8
CUT
10
373.000
20
284.500
30
0
0
VERTEX
8
CUT
10
395.150
20
284.500
30
0
0
VERTEX
8
CUT
10
395.150
20
273.350
30
0
0
SEQEND
8
CUT
0
POLYLINE
8
CUT
66
1
70
1
10
0
20
0
30
0
0
VERTEX
8
CUT
10
375.392
20
232.256
30
0
0
VERTEX
8
CUT
10
374.843
20
234.048
30
0
0
VERTEX
8
CUT
10
373.779
20
235.621
30
0
0
VERTEX
8
CUT
10
372.223
20
236.985
30
0
0
VERTEX
8
CUT
10
370.235
20
238.090
30
0
0
VERTEX
8
CUT
10
367.892
20
238.896
30
0
0
VERTEX
8
CUT
10
365.283
20
239.372
30
0
0
VERTEX
8
CUT
10
362.508
20
239.500
30
0
0
VERTEX
8
CUT
10
359.674
20
239.277
30
0
0
VERTEX
8
CUT
10
356.888
20
238.710
30
0
0
VERTEX
8
CUT
10
354.256
20
237.822
30
0
0
VERTEX
8
CUT
10
351.879
20
236.645
30
0
0
VERTEX
8
CUT
10
349.849
20
235.225
30
0
0
VERTEX
8
CUT
10
348.243
20
233.615
30
0
0
VERTEX
8
CUT
10
347.122
20
231.875
30
0
0
VERTEX
8
CUT
10
346.534
20
230.070
30
0
0
VERTEX
8
CUT
10
346.500
20
228.195
30
0
0
SEQEND
8
CUT
0
POLYLINE
8
CUT
66
1
70
1
10
0
20
0
30
0
0
VERTEX
8
CUT
10
379.500
20
234.350
30
0
0
VERTEX
8
CUT
10
379.500
20
235.350
30
0
0
VERTEX
8
CUT
10
376.500
20
235.350
30
0
0
VERTEX
8
CUT
10
376.500
20
238.500
30
0
0
VERTEX
8
CUT
10
379.500
20
238.500
30
0
0
VERTEX
8
CUT
10
379.500
20
239.500
30
0
0
VERTEX
8
CUT
10
386.875
20
239.500
30
0
0
VERTEX
8
CUT
10
386.875
20
234.350
30
0
0
SEQEND
8
CUT
0
POLYLINE
8
CUT
66
1
70
1
10
0
20
0
30
0
0
VERTEX
8
CUT
10
388.500
20
236.500
30
0
0
VERTEX
8
CUT
10
389.500
20
236.500
30
0
0
VERTEX
8
CUT
10
389.500
20
239.500
30
0
0
VERTEX
8
CUT
10
392.650
20
239.500
30
0
0
VERTEX
8
CUT
10
392.650
20
236.500
30
0
0
VERTEX
8
CUT
10
393.650
20
236.500
30
0
0
VERTEX
8
CUT
10
393.650
20
229.125
30
0
0
VERTEX
8
CUT
10
388.500
20
229.125
30
0
0
SEQEND
8
CUT
0
POLYLINE
8
CUT
66
1
70
1
10
0
20
0
30
0
0
VERTEX
8
CUT
10
380.000
20
227.350
30
0
0
VERTEX
8
CUT
10
380.000
20
228.350
30
0
0
VERTEX
8
CUT
10
377.000
20
228.350
30
0
0
VERTEX
8
CUT
10
377.000
20
231.500
30
0
0
VERTEX
8
CUT
10
380.000
20
231.500
30
0
0
VERTEX
8
CUT
10
380.000
20
232.500
30
0
0
VERTEX
8
CUT
10
386.150
20
232.500
30
0
0
VERTEX
8
CUT
10
386.150
20
227.350
30
0
0
SEQEND
8
CUT
0
POLYLINE
8
CUT
66
1
70
1
10
0
20
0
30
0
0
VERTEX
8
CUT
10
368.000
20
224.350
30
0
0
VERTEX
8
CUT
10
368.000
20
225.350
30
0
0
VERTEX
8
CUT
10
365.000
20
225.350
30
0
0
VERTEX
8
CUT
10
365.000
20
228.500
30
0
0
VERTEX
8
CUT
10
368.000
20
228.500
30
0
0
VERTEX
8
CUT
10
368.000
20
229.500
30
0
0
VERTEX
8
CUT
10
374.150
20
229.500
30
0
0
VERTEX
8
CUT
10
374.150
20
224.350
30
0
0
SEQEND
8
CUT
0
POLYLINE
8
CUT
66
1
70
1
10
0
20
0
30
0
0
VERTEX
8
CUT
10
71.569
20
196.350
30
0
0
VERTEX
8
CUT
10
72.170
20
196.255
30
0
0
VERTEX
8
CUT
10
72.706
20
195.982
30
0
0
VERTEX
8
CUT
10
73.132
20
195.556
30
0
0
VERTEX
8
CUT
10
73.405
20
195.020
30
0
0
VERTEX
8
CUT
10
73.500
20
194.419
30
0
0
VERTEX
8
CUT
10
73.500
20
192.081
30
0
0
VERTEX
8
CUT
10
73.405
20
191.480
30
0
0
VERTEX
8
CUT
10
73.132
20
190.944
30
0
0
VERTEX
8
CUT
10
72.706
20
190.518
30
0
0
VERTEX
8
CUT
10
72.170
20
190.245
30
0
0
VERTEX
8
CUT
10
71.569
20
190.150
30
0
0
VERTEX
8
CUT
10
49.581
20
190.150
30
0
0
VERTEX
8
CUT
10
48.980
20
190.245
30
0
0
VERTEX
8
CUT
10
48.444
20
190.518
30
0
0
VERTEX
8
CUT
10
48.018
20
190.944
30
0
0
VERTEX
8
CUT
10
47.745
20
191.480
30
0
0
VERTEX
8
CUT
10
47.650
20
192.081
30
0
0
VERTEX
8
CUT
10
47.650
20
194.419
30
0
0
VERTEX
8
CUT
10
47.745
20
195.020
30
0
0
VERTEX
8
CUT
10
48.018
20
195.556
30
0
0
VERTEX
8
CUT
10
48.444
20
195.982
30
0
0
VERTEX
8
CUT
10
48.980
20
196.255
30
0
0
VERTEX
8
CUT
10
49.581
20
196.350
30
0
0
SEQEND
8
CUT
0
POLYLINE
8
CUT
66
1
70
1
10
0
20
0
30
0
0
VERTEX
8
CUT
10
53.575
20
294.548
30
0
0
VERTEX
8
CUT
10
54.279
20
294.387
30
0
0
VERTEX
8
CUT
10
54.844
20
293.937
30
0
0
VERTEX
8
CUT
10
55.157
20
293.286
30
0
0
VERTEX
8
CUT
10
55.157
20
292.564
30
0
0
VERTEX
8
CUT
10
54.844
20
291.913
30
0
0
VERTEX
8
CUT
10
54.279
20
291.463
30
0
0
VERTEX
8
CUT
10
53.575
20
291.302
30
0
0
VERTEX
8
CUT
10
52.871
20
291.463
30
0
0
VERTEX
8
CUT
10
52.306
20
291.913
30
0
0
VERTEX
8
CUT
10
51.993
20
292.564
30
0
0
VERTEX
8
CUT
10
51.993
20
293.286
30
0
0
VERTEX
8
CUT
10
52.306
20
293.937
30
0
0
VERTEX
8
CUT
10
52.871
20
294.387
30
0
0
SEQEND
8
CUT
0
POLYLINE
8
CUT
66
1
70
1
10
0
20
0
30
0
0
VERTEX
8
CUT
10
113.575
20
294.548
30
0
0
VERTEX
8
CUT
10
114.279
20
294.387
30
0
0
VERTEX
8
CUT
10
114.844
20
293.937
30
0
0
VERTEX
8
CUT
10
115.157
20
293.286
30
0
0
VERTEX
8
CUT
10
115.157
20
292.564
30
0
0
VERTEX
8
CUT
10
114.844
20
291.913
30
0
0
VERTEX
8
CUT
10
114.279
20
291.463
30
0
0
VERTEX
8
CUT
10
113.575
20
291.302
30
0
0
VERTEX
8
CUT
10
112.871
20
291.463
30
0
0
VERTEX
8
CUT
10
112.306
20
291.913
30
0
0
VERTEX
8
CUT
10
111.993
20
292.564
30
0
0
VERTEX
8
CUT
10
111.993
20
293.286
30
0
0
VERTEX
8
CUT
10
112.306
20
293.937
30
0
0
VERTEX
8
CUT
10
112.871
20
294.387
30
0
0
SEQEND
8
CUT
0
POLYLINE
8
CUT
66
1
70
1
10
0
20
0
30
0
0
VERTEX
8
CUT
10
53.575
20
181.548
30
0
0
VERTEX
8
CUT
10
54.279
20
181.387
30
0
0
VERTEX
8
CUT
10
54.844
20
180.937
30
0
0
VERTEX
8
CUT
10
55.157
20
180.286
30
0
0
VERTEX
8
CUT
10
55.157
20
179.564
30
0
0
VERTEX
8
CUT
10
54.844
20
178.913
30
0
0
VERTEX
8
CUT
10
54.279
20
178.463
30
0
0
VERTEX
8
CUT
10
53.575
20
178.302
30
0
0
VERTEX
8
CUT
10
52.871
20
178.463
30
0
0
VERTEX
8
CUT
10
52.306
20
178.913
30
0
0
VERTEX
8
CUT
10
51.993
20
179.564
30
0
0
VERTEX
8
CUT
10
51.993
20
180.286
30
0
0
VERTEX
8
CUT
10
52.306
20
180.937
30
0
0
VERTEX
8
CUT
10
52.871
20
181.387
30
0
0
SEQEND
8
CUT
0
POLYLINE
8
CUT
66
1
70
1
10
0
20
0
30
0
0
VERTEX
8
CUT
10
113.575
20
181.548
30
0
0
VERTEX
8
CUT
10
114.279
20
181.387
30
0
0
VERTEX
8
CUT
10
114.844
20
180.937
30
0
0
VERTEX
8
CUT
10
115.157
20
180.286
30
0
0
VERTEX
8
CUT
10
115.157
20
179.564
30
0
0
VERTEX
8
CUT
10
114.844
20
178.913
30
0
0
VERTEX
8
CUT
10
114.279
20
178.463
30
0
0
VERTEX
8
CUT
10
113.575
20
178.302
30
0
0
VERTEX
8
CUT
10
112.871
20
178.463
30
0
0
VERTEX
8
CUT
10
112.306
20
178.913
30
0
0
VERTEX
8
CUT
10
111.993
20
179.564
30
0
0
VERTEX
8
CUT
10
111.993
20
180.286
30
0
0
VERTEX
8
CUT
10
112.306
20
180.937
30
0
0
VERTEX
8
CUT
10
112.871
20
181.387
30
0
0
SEQEND
8
CUT
0
POLYLINE
8
CUT
66
1
70
1
10
0
20
0
30
0
0
VERTEX
8
CUT
10
153.075
20
208.048
30
0
0
VERTEX
8
CUT
10
153.779
20
207.887
30
0
0
VERTEX
8
CUT
10
154.344
20
207.437
30
0
0
VERTEX
8
CUT
10
154.657
20
206.786
30
0
0
VERTEX
8
CUT
10
154.657
20
206.064
30
0
0
VERTEX
8
CUT
10
154.344
20
205.413
30
0
0
VERTEX
8
CUT
10
153.779
20
204.963
30
0
0
VERTEX
8
CUT
10
153.075
20
204.802
30
0
0
VERTEX
8
CUT
10
152.371
20
204.963
30
0
0
VERTEX
8
CUT
10
151.806
20
205.413
30
0
0
VERTEX
8
CUT
10
151.493
20
206.064
30
0
0
VERTEX
8
CUT
10
151.493
20
206.786
30
0
0
VERTEX
8
CUT
10
151.806
20
207.437
30
0
0
VERTEX
8
CUT
10
152.371
20
207.887
30
0
0
SEQEND
8
CUT
0
POLYLINE
8
CUT
66
1
70
1
10
0
20
0
30
0
0
VERTEX
8
CUT
10
153.075
20
268.048
30
0
0
VERTEX
8
CUT
10
153.779
20
267.887
30
0
0
VERTEX
8
CUT
10
154.344
20
267.437
30
0
0
VERTEX
8
CUT
10
154.657
20
266.786
30
0
0
VERTEX
8
CUT
10
154.657
20
266.064
30
0
0
VERTEX
8
CUT
10
154.344
20
265.413
30
0
0
VERTEX
8
CUT
10
153.779
20
264.963
30
0
0
VERTEX
8
CUT
10
153.075
20
264.802
30
0
0
VERTEX
8
CUT
10
152.371
20
264.963
30
0
0
VERTEX
8
CUT
10
151.806
20
265.413
30
0
0
VERTEX
8
CUT
10
151.493
20
266.064
30
0
0
VERTEX
8
CUT
10
151.493
20
266.786
30
0
0
VERTEX
8
CUT
10
151.806
20
267.437
30
0
0
VERTEX
8
CUT
10
152.371
20
267.887
30
0
0
SEQEND
8
CUT
0
POLYLINE
8
CUT
66
1
70
1
10
0
20
0
30
0
0
VERTEX
8
CUT
10
143.000
20
291.450
30
0
0
VERTEX
8
CUT
10
143.000
20
294.400
30
0
0
VERTEX
8
CUT
10
152.950
20
294.400
30
0
0
VERTEX
8
CUT
10
152.950
20
291.450
30
0
0
SEQEND
8
CUT
0
POLYLINE
8
CUT
66
1
70
1
10
0
20
0
30
0
0
VERTEX
8
CUT
10
78.600
20
291.450
30
0
0
VERTEX
8
CUT
10
78.600
20
294.400
30
0
0
VERTEX
8
CUT
10
88.550
20
294.400
30
0
0
VERTEX
8
CUT
10
88.550
20
291.450
30
0
0
SEQEND
8
CUT
0
POLYLINE
8
CUT
66
1
70
1
10
0
20
0
30
0
0
VERTEX
8
CUT
10
14.200
20
291.450
30
0
0
VERTEX
8
CUT
10
14.200
20
294.400
30
0
0
VERTEX
8
CUT
10
24.150
20
294.400
30
0
0
VERTEX
8
CUT
10
24.150
20
291.450
30
0
0
SEQEND
8
CUT
0
POLYLINE
8
CUT
66
1
70
1
10
0
20
0
30
0
0
VERTEX
8
CUT
10
143.000
20
178.450
30
0
0
VERTEX
8
CUT
10
143.000
20
181.400
30
0
0
VERTEX
8
CUT
10
152.950
20
181.400
30
0
0
VERTEX
8
CUT
10
152.950
20
178.450
30
0
0
SEQEND
8
CUT
0
POLYLINE
8
CUT
66
1
70
1
10
0
20
0
30
0
0
VERTEX
8
CUT
10
78.600
20
178.450
30
0
0
VERTEX
8
CUT
10
78.600
20
181.400
30
0
0
VERTEX
8
CUT
10
88.550
20
181.400
30
0
0
VERTEX
8
CUT
10
88.550
20
178.450
30
0
0
SEQEND
8
CUT
0
POLYLINE
8
CUT
66
1
70
1
10
0
20
0
30
0
0
VERTEX
8
CUT
10
14.200
20
178.450
30
0
0
VERTEX
8
CUT
10
14.200
20
181.400
30
0
0
VERTEX
8
CUT
10
24.150
20
181.400
30
0
0
VERTEX
8
CUT
10
24.150
20
178.450
30
0
0
SEQEND
8
CUT
0
POLYLINE
8
CUT
66
1
70
1
10
0
20
0
30
0
0
VERTEX
8
CUT
10
6.100
20
185.450
30
0
0
VERTEX
8
CUT
10
6.100
20
193.400
30
0
0
VERTEX
8
CUT
10
9.050
20
193.400
30
0
0
VERTEX
8
CUT
10
9.050
20
185.450
30
0
0
SEQEND
8
CUT
0
POLYLINE
8
CUT
66
1
70
1
10
0
20
0
30
0
0
VERTEX
8
CUT
10
158.100
20
268.117
30
0
0
VERTEX
8
CUT
10
158.100
20
278.067
30
0
0
VERTEX
8
CUT
10
161.050
20
278.067
30
0
0
VERTEX
8
CUT
10
161.050
20
268.117
30
0
0
SEQEND
8
CUT
0
POLYLINE
8
CUT
66
1
70
1
10
0
20
0
30
0
0
VERTEX
8
CUT
10
158.100
20
231.450
30
0
0
VERTEX
8
CUT
10
158.100
20
241.400
30
0
0
VERTEX
8
CUT
10
161.050
20
241.400
30
0
0
VERTEX
8
CUT
10
161.050
20
231.450
30
0
0
SEQEND
8
CUT
0
POLYLINE
8
CUT
66
1
70
1
10
0
20
0
30
0
0
VERTEX
8
CUT
10
158.100
20
194.783
30
0
0
VERTEX
8
CUT
10
158.100
20
204.733
30
0
0
VERTEX
8
CUT
10
161.050
20
204.733
30
0
0
VERTEX
8
CUT
10
161.050
20
194.783
30
0
0
SEQEND
8
CUT
0
POLYLINE
8
CUT
66
1
70
1
10
0
20
0
30
0
0
VERTEX
8
CUT
10
93.600
20
195.750
30
0
0
VERTEX
8
CUT
10
93.600
20
205.700
30
0
0
VERTEX
8
CUT
10
96.550
20
205.700
30
0
0
VERTEX
8
CUT
10
96.550
20
195.750
30
0
0
SEQEND
8
CUT
0
POLYLINE
8
CUT
66
1
70
1
10
0
20
0
30
0
0
VERTEX
8
CUT
10
93.600
20
267.150
30
0
0
VERTEX
8
CUT
10
93.600
20
277.100
30
0
0
VERTEX
8
CUT
10
96.550
20
277.100
30
0
0
VERTEX
8
CUT
10
96.550
20
267.150
30
0
0
SEQEND
8
CUT
0
POLYLINE
8
CUT
66
1
70
1
10
0
20
0
30
0
0
VERTEX
8
CUT
10
50.350
20
185.850
30
0
0
VERTEX
8
CUT
10
50.350
20
188.800
30
0
0
VERTEX
8
CUT
10
60.300
20
188.800
30
0
0
VERTEX
8
CUT
10
60.300
20
185.850
30
0
0
SEQEND
8
CUT
0
POLYLINE
8
CUT
66
1
70
1
10
0
20
0
30
0
0
VERTEX
8
CUT
10
77.850
20
185.850
30
0
0
VERTEX
8
CUT
10
77.850
20
188.800
30
0
0
VERTEX
8
CUT
10
87.800
20
188.800
30
0
0
VERTEX
8
CUT
10
87.800
20
185.850
30
0
0
SEQEND
8
CUT
0
POLYLINE
8
CUT
66
1
70
1
10
0
20
0
30
0
0
VERTEX
8
CUT
10
50.350
20
284.050
30
0
0
VERTEX
8
CUT
10
50.350
20
287.000
30
0
0
VERTEX
8
CUT
10
60.300
20
287.000
30
0
0
VERTEX
8
CUT
10
60.300
20
284.050
30
0
0
SEQEND
8
CUT
0
POLYLINE
8
CUT
66
1
70
1
10
0
20
0
30
0
0
VERTEX
8
CUT
10
77.850
20
284.050
30
0
0
VERTEX
8
CUT
10
77.850
20
287.000
30
0
0
VERTEX
8
CUT
10
87.800
20
287.000
30
0
0
VERTEX
8
CUT
10
87.800
20
284.050
30
0
0
SEQEND
8
CUT
0
POLYLINE
8
CUT
66
1
70
1
10
0
20
0
30
0
0
VERTEX
8
CUT
10
3.000
20
179.920
30
0
0
VERTEX
8
CUT
10
3.000
20
292.930
30
0
0
VERTEX
8
CUT
10
3.138
20
293.980
30
0
0
VERTEX
8
CUT
10
3.545
20
294.963
30
0
0
VERTEX
8
CUT
10
4.193
20
295.807
30
0
0
VERTEX
8
CUT
10
5.037
20
296.455
30
0
0
VERTEX
8
CUT
10
6.020
20
296.862
30
0
0
VERTEX
8
CUT
10
7.070
20
297.000
30
0
0
VERTEX
8
CUT
10
160.080
20
297.000
30
0
0
VERTEX
8
CUT
10
161.130
20
296.862
30
0
0
VERTEX
8
CUT
10
162.113
20
296.455
30
0
0
VERTEX
8
CUT
10
162.957
20
295.807
30
0
0
VERTEX
8
CUT
10
163.605
20
294.963
30
0
0
VERTEX
8
CUT
10
164.012
20
293.980
30
0
0
VERTEX
8
CUT
10
164.150
20
292.930
30
0
0
VERTEX
8
CUT
10
164.150
20
179.920
30
0
0
VERTEX
8
CUT
10
164.012
20
178.870
30
0
0
VERTEX
8
CUT
10
163.605
20
177.887
30
0
0
VERTEX
8
CUT
10
162.957
20
177.043
30
0
0
VERTEX
8
CUT
10
162.113
20
176.395
30
0
0
VERTEX
8
CUT
10
161.130
20
175.988
30
0
0
VERTEX
8
CUT
10
160.080
20
175.850
30
0
0
VERTEX
8
CUT
10
7.070
20
175.850
30
0
0
VERTEX
8
CUT
10
6.020
20
175.988
30
0
0
VERTEX
8
CUT
10
5.037
20
176.395
30
0
0
VERTEX
8
CUT
10
4.193
20
177.043
30
0
0
VERTEX
8
CUT
10
3.545
20
177.887
30
0
0
VERTEX
8
CUT
10
3.138
20
178.870
30
0
0
SEQEND
8
CUT
0
POLYLINE
8
CUT
66
1
70
1
10
0
20
0
30
0
0
VERTEX
8
CUT
10
211.175
20
193.049
30
0
0
VERTEX
8
CUT
10
211.758
20
192.933
30
0
0
VERTEX
8
CUT
10
212.252
20
192.602
30
0
0
VERTEX
8
CUT
10
212.583
20
192.108
30
0
0
VERTEX
8
CUT
10
212.699
20
191.525
30
0
0
VERTEX
8
CUT
10
212.583
20
190.942
30
0
0
VERTEX
8
CUT
10
212.252
20
190.448
30
0
0
VERTEX
8
CUT
10
211.758
20
190.117
30
0
0
VERTEX
8
CUT
10
211.175
20
190.001
30
0
0
VERTEX
8
CUT
10
210.592
20
190.117
30
0
0
VERTEX
8
CUT
10
210.098
20
190.448
30
0
0
VERTEX
8
CUT
10
209.767
20
190.942
30
0
0
VERTEX
8
CUT
10
209.651
20
191.525
30
0
0
VERTEX
8
CUT
10
209.767
20
192.108
30
0
0
VERTEX
8
CUT
10
210.098
20
192.602
30
0
0
VERTEX
8
CUT
10
210.592
20
192.933
30
0
0
SEQEND
8
CUT
0
POLYLINE
8
CUT
66
1
70
1
10
0
20
0
30
0
0
VERTEX
8
CUT
10
251.975
20
193.049
30
0
0
VERTEX
8
CUT
10
252.558
20
192.933
30
0
0
VERTEX
8
CUT
10
253.052
20
192.602
30
0
0
VERTEX
8
CUT
10
253.383
20
192.108
30
0
0
VERTEX
8
CUT
10
253.499
20
191.525
30
0
0
VERTEX
8
CUT
10
253.383
20
190.942
30
0
0
VERTEX
8
CUT
10
253.052
20
190.448
30
0
0
VERTEX
8
CUT
10
252.558
20
190.117
30
0
0
VERTEX
8
CUT
10
251.975
20
190.001
30
0
0
VERTEX
8
CUT
10
251.392
20
190.117
30
0
0
VERTEX
8
CUT
10
250.898
20
190.448
30
0
0
VERTEX
8
CUT
10
250.567
20
190.942
30
0
0
VERTEX
8
CUT
10
250.451
20
191.525
30
0
0
VERTEX
8
CUT
10
250.567
20
192.108
30
0
0
VERTEX
8
CUT
10
250.898
20
192.602
30
0
0
VERTEX
8
CUT
10
251.392
20
192.933
30
0
0
SEQEND
8
CUT
0
POLYLINE
8
CUT
66
1
70
1
10
0
20
0
30
0
0
VERTEX
8
CUT
10
211.175
20
215.849
30
0
0
VERTEX
8
CUT
10
211.758
20
215.733
30
0
0
VERTEX
8
CUT
10
212.252
20
215.402
30
0
0
VERTEX
8
CUT
10
212.583
20
214.908
30
0
0
VERTEX
8
CUT
10
212.699
20
214.325
30
0
0
VERTEX
8
CUT
10
212.583
20
213.742
30
0
0
VERTEX
8
CUT
10
212.252
20
213.248
30
0
0
VERTEX
8
CUT
10
211.758
20
212.917
30
0
0
VERTEX
8
CUT
10
211.175
20
212.801
30
0
0
VERTEX
8
CUT
10
210.592
20
212.917
30
0
0
VERTEX
8
CUT
10
210.098
20
213.248
30
0
0
VERTEX
8
CUT
10
209.767
20
213.742
30
0
0
VERTEX
8
CUT
10
209.651
20
214.325
30
0
0
VERTEX
8
CUT
10
209.767
20
214.908
30
0
0
VERTEX
8
CUT
10
210.098
20
215.402
30
0
0
VERTEX
8
CUT
10
210.592
20
215.733
30
0
0
SEQEND
8
CUT
0
POLYLINE
8
CUT
66
1
70
1
10
0
20
0
30
0
0
VERTEX
8
CUT
10
251.975
20
215.849
30
0
0
VERTEX
8
CUT
10
252.558
20
215.733
30
0
0
VERTEX
8
CUT
10
253.052
20
215.402
30
0
0
VERTEX
8
CUT
10
253.383
20
214.908
30
0
0
VERTEX
8
CUT
10
253.499
20
214.325
30
0
0
VERTEX
8
CUT
10
253.383
20
213.742
30
0
0
VERTEX
8
CUT
10
253.052
20
213.248
30
0
0
VERTEX
8
CUT
10
252.558
20
212.917
30
0
0
VERTEX
8
CUT
10
251.975
20
212.801
30
0
0
VERTEX
8
CUT
10
251.392
20
212.917
30
0
0
VERTEX
8
CUT
10
250.898
20
213.248
30
0
0
VERTEX
8
CUT
10
250.567
20
213.742
30
0
0
VERTEX
8
CUT
10
250.451
20
214.325
30
0
0
VERTEX
8
CUT
10
250.567
20
214.908
30
0
0
VERTEX
8
CUT
10
250.898
20
215.402
30
0
0
VERTEX
8
CUT
10
251.392
20
215.733
30
0
0
SEQEND
8
CUT
0
POLYLINE
8
CUT
66
1
70
1
10
0
20
0
30
0
0
VERTEX
8
CUT
10
313.575
20
210.548
30
0
0
VERTEX
8
CUT
10
314.279
20
210.387
30
0
0
VERTEX
8
CUT
10
314.844
20
209.937
30
0
0
VERTEX
8
CUT
10
315.157
20
209.286
30
0
0
VERTEX
8
CUT
10
315.157
20
208.564
30
0
0
VERTEX
8
CUT
10
314.844
20
207.913
30
0
0
VERTEX
8
CUT
10
314.279
20
207.463
30
0
0
VERTEX
8
CUT
10
313.575
20
207.302
30
0
0
VERTEX
8
CUT
10
312.871
20
207.463
30
0
0
VERTEX
8
CUT
10
312.306
20
207.913
30
0
0
VERTEX
8
CUT
10
311.993
20
208.564
30
0
0
VERTEX
8
CUT
10
311.993
20
209.286
30
0
0
VERTEX
8
CUT
10
312.306
20
209.937
30
0
0
VERTEX
8
CUT
10
312.871
20
210.387
30
0
0
SEQEND
8
CUT
0
POLYLINE
8
CUT
66
1
70
1
10
0
20
0
30
0
0
VERTEX
8
CUT
10
313.575
20
270.548
30
0
0
VERTEX
8
CUT
10
314.279
20
270.387
30
0
0
VERTEX
8
CUT
10
314.844
20
269.937
30
0
0
VERTEX
8
CUT
10
315.157
20
269.286
30
0
0
VERTEX
8
CUT
10
315.157
20
268.564
30
0
0
VERTEX
8
CUT
10
314.844
20
267.913
30
0
0
VERTEX
8
CUT
10
314.279
20
267.463
30
0
0
VERTEX
8
CUT
10
313.575
20
267.302
30
0
0
VERTEX
8
CUT
10
312.871
20
267.463
30
0
0
VERTEX
8
CUT
10
312.306
20
267.913
30
0
0
VERTEX
8
CUT
10
311.993
20
268.564
30
0
0
VERTEX
8
CUT
10
311.993
20
269.286
30
0
0
VERTEX
8
CUT
10
312.306
20
269.937
30
0
0
VERTEX
8
CUT
10
312.871
20
270.387
30
0
0
SEQEND
8
CUT
0
POLYLINE
8
CUT
66
1
70
1
10
0
20
0
30
0
0
VERTEX
8
CUT
10
264.600
20
199.950
30
0
0
VERTEX
8
CUT
10
264.600
20
202.900
30
0
0
VERTEX
8
CUT
10
272.550
20
202.900
30
0
0
VERTEX
8
CUT
10
272.550
20
199.950
30
0
0
SEQEND
8
CUT
0
POLYLINE
8
CUT
66
1
70
1
10
0
20
0
30
0
0
VERTEX
8
CUT
10
171.050
20
245.450
30
0
0
VERTEX
8
CUT
10
171.050
20
248.400
30
0
0
VERTEX
8
CUT
10
174.000
20
248.400
30
0
0
VERTEX
8
CUT
10
174.000
20
245.450
30
0
0
SEQEND
8
CUT
0
POLYLINE
8
CUT
66
1
70
1
10
0
20
0
30
0
0
VERTEX
8
CUT
10
201.650
20
245.450
30
0
0
VERTEX
8
CUT
10
201.650
20
248.400
30
0
0
VERTEX
8
CUT
10
204.600
20
248.400
30
0
0
VERTEX
8
CUT
10
204.600
20
245.450
30
0
0
SEQEND
8
CUT
0
POLYLINE
8
CUT
66
1
70
1
10
0
20
0
30
0
0
VERTEX
8
CUT
10
282.550
20
229.450
30
0
0
VERTEX
8
CUT
10
282.550
20
232.400
30
0
0
VERTEX
8
CUT
10
285.500
20
232.400
30
0
0
VERTEX
8
CUT
10
285.500
20
229.450
30
0
0
SEQEND
8
CUT
0
POLYLINE
8
CUT
66
1
70
1
10
0
20
0
30
0
0
VERTEX
8
CUT
10
313.150
20
229.450
30
0
0
VERTEX
8
CUT
10
313.150
20
232.400
30
0
0
VERTEX
8
CUT
10
316.100
20
232.400
30
0
0
VERTEX
8
CUT
10
316.100
20
229.450
30
0
0
SEQEND
8
CUT
0
POLYLINE
8
CUT
66
1
70
1
10
0
20
0
30
0
0
VERTEX
8
CUT
10
169.000
20
183.850
30
0
0
VERTEX
8
CUT
10
169.000
20
197.183
30
0
0
VERTEX
8
CUT
10
166.000
20
197.183
30
0
0
VERTEX
8
CUT
10
166.000
20
207.333
30
0
0
VERTEX
8
CUT
10
169.000
20
207.333
30
0
0
VERTEX
8
CUT
10
169.000
20
233.850
30
0
0
VERTEX
8
CUT
10
166.000
20
233.850
30
0
0
VERTEX
8
CUT
10
166.000
20
244.000
30
0
0
VERTEX
8
CUT
10
169.000
20
244.000
30
0
0
VERTEX
8
CUT
10
169.000
20
270.517
30
0
0
VERTEX
8
CUT
10
166.000
20
270.517
30
0
0
VERTEX
8
CUT
10
166.000
20
280.667
30
0
0
VERTEX
8
CUT
10
169.000
20
280.667
30
0
0
VERTEX
8
CUT
10
169.000
20
294.000
30
0
0
VERTEX
8
CUT
10
178.900
20
294.000
30
0
0
VERTEX
8
CUT
10
178.900
20
229.000
30
0
0
VERTEX
8
CUT
10
196.750
20
229.000
30
0
0
VERTEX
8
CUT
10
196.750
20
294.000
30
0
0
VERTEX
8
CUT
10
219.875
20
294.000
30
0
0
VERTEX
8
CUT
10
219.875
20
297.000
30
0
0
VERTEX
8
CUT
10
230.025
20
297.000
30
0
0
VERTEX
8
CUT
10
230.025
20
294.000
30
0
0
VERTEX
8
CUT
10
257.125
20
294.000
30
0
0
VERTEX
8
CUT
10
257.125
20
297.000
30
0
0
VERTEX
8
CUT
10
267.275
20
297.000
30
0
0
VERTEX
8
CUT
10
267.275
20
294.000
30
0
0
VERTEX
8
CUT
10
294.375
20
294.000
30
0
0
VERTEX
8
CUT
10
294.375
20
297.000
30
0
0
VERTEX
8
CUT
10
304.525
20
297.000
30
0
0
VERTEX
8
CUT
10
304.525
20
294.000
30
0
0
VERTEX
8
CUT
10
318.150
20
294.000
30
0
0
VERTEX
8
CUT
10
318.150
20
280.667
30
0
0
VERTEX
8
CUT
10
321.150
20
280.667
30
0
0
VERTEX
8
CUT
10
321.150
20
270.517
30
0
0
VERTEX
8
CUT
10
318.150
20
270.517
30
0
0
VERTEX
8
CUT
10
318.150
20
244.000
30
0
0
VERTEX
8
CUT
10
321.150
20
244.000
30
0
0
VERTEX
8
CUT
10
321.150
20
233.850
30
0
0
VERTEX
8
CUT
10
318.150
20
233.850
30
0
0
VERTEX
8
CUT
10
318.150
20
207.333
30
0
0
VERTEX
8
CUT
10
321.150
20
207.333
30
0
0
VERTEX
8
CUT
10
321.150
20
197.183
30
0
0
VERTEX
8
CUT
10
318.150
20
197.183
30
0
0
VERTEX
8
CUT
10
318.150
20
183.850
30
0
0
VERTEX
8
CUT
10
308.250
20
183.850
30
0
0
VERTEX
8
CUT
10
308.250
20
248.850
30
0
0
VERTEX
8
CUT
10
290.400
20
248.850
30
0
0
VERTEX
8
CUT
10
290.400
20
183.850
30
0
0
VERTEX
8
CUT
10
267.275
20
183.850
30
0
0
VERTEX
8
CUT
10
267.275
20
180.850
30
0
0
VERTEX
8
CUT
10
257.125
20
180.850
30
0
0
VERTEX
8
CUT
10
257.125
20
183.850
30
0
0
VERTEX
8
CUT
10
230.025
20
183.850
30
0
0
VERTEX
8
CUT
10
230.025
20
180.850
30
0
0
VERTEX
8
CUT
10
219.875
20
180.850
30
0
0
VERTEX
8
CUT
10
219.875
20
183.850
30
0
0
VERTEX
8
CUT
10
192.775
20
183.850
30
0
0
VERTEX
8
CUT
10
192.775
20
180.850
30
0
0
VERTEX
8
CUT
10
182.625
20
180.850
30
0
0
VERTEX
8
CUT
10
182.625
20
183.850
30
0
0
SEQEND
8
CUT
0
POLYLINE
8
CUT
66
1
70
1
10
0
20
0
30
0
0
VERTEX
8
CUT
10
344.850
20
192.419
30
0
0
VERTEX
8
CUT
10
345.043
20
193.638
30
0
0
VERTEX
8
CUT
10
345.600
20
194.732
30
0
0
VERTEX
8
CUT
10
346.468
20
195.600
30
0
0
VERTEX
8
CUT
10
347.562
20
196.157
30
0
0
VERTEX
8
CUT
10
348.781
20
196.350
30
0
0
VERTEX
8
CUT
10
393.769
20
196.350
30
0
0
VERTEX
8
CUT
10
394.988
20
196.157
30
0
0
VERTEX
8
CUT
10
396.082
20
195.600
30
0
0
VERTEX
8
CUT
10
396.950
20
194.732
30
0
0
VERTEX
8
CUT
10
397.507
20
193.638
30
0
0
VERTEX
8
CUT
10
397.700
20
192.419
30
0
0
VERTEX
8
CUT
10
397.700
20
181.431
30
0
0
VERTEX
8
CUT
10
397.507
20
180.212
30
0
0
VERTEX
8
CUT
10
396.950
20
179.118
30
0
0
VERTEX
8
CUT
10
396.082
20
178.250
30
0
0
VERTEX
8
CUT
10
394.988
20
177.693
30
0
0
VERTEX
8
CUT
10
393.769
20
177.500
30
0
0
VERTEX
8
CUT
10
348.781
20
177.500
30
0
0
VERTEX
8
CUT
10
347.562
20
177.693
30
0
0
VERTEX
8
CUT
10
346.468
20
178.250
30
0
0
VERTEX
8
CUT
10
345.600
20
179.118
30
0
0
VERTEX
8
CUT
10
345.043
20
180.212
30
0
0
VERTEX
8
CUT
10
344.850
20
181.431
30
0
0
SEQEND
8
CUT
0
POLYLINE
8
CUT
66
1
70
1
10
0
20
0
30
0
0
VERTEX
8
CUT
10
344.850
20
237.419
30
0
0
VERTEX
8
CUT
10
345.043
20
238.638
30
0
0
VERTEX
8
CUT
10
345.600
20
239.732
30
0
0
VERTEX
8
CUT
10
346.468
20
240.600
30
0
0
VERTEX
8
CUT
10
347.562
20
241.157
30
0
0
VERTEX
8
CUT
10
348.781
20
241.350
30
0
0
VERTEX
8
CUT
10
393.769
20
241.350
30
0
0
VERTEX
8
CUT
10
394.988
20
241.157
30
0
0
VERTEX
8
CUT
10
396.082
20
240.600
30
0
0
VERTEX
8
CUT
10
396.950
20
239.732
30
0
0
VERTEX
8
CUT
10
397.507
20
238.638
30
0
0
VERTEX
8
CUT
10
397.700
20
237.419
30
0
0
VERTEX
8
CUT
10
397.700
20
226.431
30
0
0
VERTEX
8
CUT
10
397.507
20
225.212
30
0
0
VERTEX
8
CUT
10
396.950
20
224.118
30
0
0
VERTEX
8
CUT
10
396.082
20
223.250
30
0
0
VERTEX
8
CUT
10
394.988
20
222.693
30
0
0
VERTEX
8
CUT
10
393.769
20
222.500
30
0
0
VERTEX
8
CUT
10
348.781
20
222.500
30
0
0
VERTEX
8
CUT
10
347.562
20
222.693
30
0
0
VERTEX
8
CUT
10
346.468
20
223.250
30
0
0
VERTEX
8
CUT
10
345.600
20
224.118
30
0
0
VERTEX
8
CUT
10
345.043
20
225.212
30
0
0
VERTEX
8
CUT
10
344.850
20
226.431
30
0
0
SEQEND
8
CUT
0
POLYLINE
8
CUT
66
1
70
1
10
0
20
0
30
0
0
VERTEX
8
CUT
10
344.850
20
283.919
30
0
0
VERTEX
8
CUT
10
345.043
20
285.138
30
0
0
VERTEX
8
CUT
10
345.600
20
286.232
30
0
0
VERTEX
8
CUT
10
346.468
20
287.100
30
0
0
VERTEX
8
CUT
10
347.562
20
287.657
30
0
0
VERTEX
8
CUT
10
348.781
20
287.850
30
0
0
VERTEX
8
CUT
10
393.769
20
287.850
30
0
0
VERTEX
8
CUT
10
394.988
20
287.657
30
0
0
VERTEX
8
CUT
10
396.082
20
287.100
30
0
0
VERTEX
8
CUT
10
396.950
20
286.232
30
0
0
VERTEX
8
CUT
10
397.507
20
285.138
30
0
0
VERTEX
8
CUT
10
397.700
20
283.919
30
0
0
VERTEX
8
CUT
10
397.700
20
271.431
30
0
0
VERTEX
8
CUT
10
397.507
20
270.212
30
0
0
VERTEX
8
CUT
10
396.950
20
269.118
30
0
0
VERTEX
8
CUT
10
396.082
20
268.250
30
0
0
VERTEX
8
CUT
10
394.988
20
267.693
30
0
0
VERTEX
8
CUT
10
393.769
20
267.500
30
0
0
VERTEX
8
CUT
10
348.781
20
267.500
30
0
0
VERTEX
8
CUT
10
347.562
20
267.693
30
0
0
VERTEX
8
CUT
10
346.468
20
268.250
30
0
0
VERTEX
8
CUT
10
345.600
20
269.118
30
0
0
VERTEX
8
CUT
10
345.043
20
270.212
30
0
0
VERTEX
8
CUT
10
344.850
20
271.431
30
0
0
SEQEND
8
CUT
0
POLYLINE
8
CUT
66
1
70
1
10
0
20
0
30
0
0
VERTEX
8
CUT
10
409.850
20
174.019
30
0
0
VERTEX
8
CUT
10
409.916
20
174.434
30
0
0
VERTEX
8
CUT
10
410.104
20
174.803
30
0
0
VERTEX
8
CUT
10
410.397
20
175.096
30
0
0
VERTEX
8
CUT
10
410.766
20
175.284
30
0
0
VERTEX
8
CUT
10
411.181
20
175.350
30
0
0
VERTEX
8
CUT
10
411.369
20
175.350
30
0
0
VERTEX
8
CUT
10
411.784
20
175.284
30
0
0
VERTEX
8
CUT
10
412.153
20
175.096
30
0
0
VERTEX
8
CUT
10
412.446
20
174.803
30
0
0
VERTEX
8
CUT
10
412.634
20
174.434
30
0
0
VERTEX
8
CUT
10
412.700
20
174.019
30
0
0
VERTEX
8
CUT
10
412.700
20
154.831
30
0
0
VERTEX
8
CUT
10
412.634
20
154.416
30
0
0
VERTEX
8
CUT
10
412.446
20
154.047
30
0
0
VERTEX
8
CUT
10
412.153
20
153.754
30
0
0
VERTEX
8
CUT
10
411.784
20
153.566
30
0
0
VERTEX
8
CUT
10
411.369
20
153.500
30
0
0
VERTEX
8
CUT
10
411.181
20
153.500
30
0
0
VERTEX
8
CUT
10
410.766
20
153.566
30
0
0
VERTEX
8
CUT
10
410.397
20
153.754
30
0
0
VERTEX
8
CUT
10
410.104
20
154.047
30
0
0
VERTEX
8
CUT
10
409.916
20
154.416
30
0
0
VERTEX
8
CUT
10
409.850
20
154.831
30
0
0
SEQEND
8
CUT
0
POLYLINE
8
CUT
66
1
70
1
10
0
20
0
30
0
0
VERTEX
8
CUT
10
401.850
20
174.019
30
0
0
VERTEX
8
CUT
10
401.916
20
174.434
30
0
0
VERTEX
8
CUT
10
402.104
20
174.803
30
0
0
VERTEX
8
CUT
10
402.397
20
175.096
30
0
0
VERTEX
8
CUT
10
402.766
20
175.284
30
0
0
VERTEX
8
CUT
10
403.181
20
175.350
30
0
0
VERTEX
8
CUT
10
403.369
20
175.350
30
0
0
VERTEX
8
CUT
10
403.784
20
175.284
30
0
0
VERTEX
8
CUT
10
404.153
20
175.096
30
0
0
VERTEX
8
CUT
10
404.446
20
174.803
30
0
0
VERTEX
8
CUT
10
404.634
20
174.434
30
0
0
VERTEX
8
CUT
10
404.700
20
174.019
30
0
0
VERTEX
8
CUT
10
404.700
20
154.831
30
0
0
VERTEX
8
CUT
10
404.634
20
154.416
30
0
0
VERTEX
8
CUT
10
404.446
20
154.047
30
0
0
VERTEX
8
CUT
10
404.153
20
153.754
30
0
0
VERTEX
8
CUT
10
403.784
20
153.566
30
0
0
VERTEX
8
CUT
10
403.369
20
153.500
30
0
0
VERTEX
8
CUT
10
403.181
20
153.500
30
0
0
VERTEX
8
CUT
10
402.766
20
153.566
30
0
0
VERTEX
8
CUT
10
402.397
20
153.754
30
0
0
VERTEX
8
CUT
10
402.104
20
154.047
30
0
0
VERTEX
8
CUT
10
401.916
20
154.416
30
0
0
VERTEX
8
CUT
10
401.850
20
154.831
30
0
0
SEQEND
8
CUT
0
POLYLINE
8
CUT
66
1
70
1
10
0
20
0
30
0
0
VERTEX
8
CUT
10
337.850
20
174.019
30
0
0
VERTEX
8
CUT
10
337.916
20
174.434
30
0
0
VERTEX
8
CUT
10
338.104
20
174.803
30
0
0
VERTEX
8
CUT
10
338.397
20
175.096
30
0
0
VERTEX
8
CUT
10
338.766
20
175.284
30
0
0
VERTEX
8
CUT
10
339.181
20
175.350
30
0
0
VERTEX
8
CUT
10
339.369
20
175.350
30
0
0
VERTEX
8
CUT
10
339.784
20
175.284
30
0
0
VERTEX
8
CUT
10
340.153
20
175.096
30
0
0
VERTEX
8
CUT
10
340.446
20
174.803
30
0
0
VERTEX
8
CUT
10
340.634
20
174.434
30
0
0
VERTEX
8
CUT
10
340.700
20
174.019
30
0
0
VERTEX
8
CUT
10
340.700
20
154.831
30
0
0
VERTEX
8
CUT
10
340.634
20
154.416
30
0
0
VERTEX
8
CUT
10
340.446
20
154.047
30
0
0
VERTEX
8
CUT
10
340.153
20
153.754
30
0
0
VERTEX
8
CUT
10
339.784
20
153.566
30
0
0
VERTEX
8
CUT
10
339.369
20
153.500
30
0
0
VERTEX
8
CUT
10
339.181
20
153.500
30
0
0
VERTEX
8
CUT
10
338.766
20
153.566
30
0
0
VERTEX
8
CUT
10
338.397
20
153.754
30
0
0
VERTEX
8
CUT
10
338.104
20
154.047
30
0
0
VERTEX
8
CUT
10
337.916
20
154.416
30
0
0
VERTEX
8
CUT
10
337.850
20
154.831
30
0
0
SEQEND
8
CUT
0
POLYLINE
8
CUT
66
1
70
1
10
0
20
0
30
0
0
VERTEX
8
CUT
10
329.850
20
174.019
30
0
0
VERTEX
8
CUT
10
329.916
20
174.434
30
0
0
VERTEX
8
CUT
10
330.104
20
174.803
30
0
0
VERTEX
8
CUT
10
330.397
20
175.096
30
0
0
VERTEX
8
CUT
10
330.766
20
175.284
30
0
0
VERTEX
8
CUT
10
331.181
20
175.350
30
0
0
VERTEX
8
CUT
10
331.369
20
175.350
30
0
0
VERTEX
8
CUT
10
331.784
20
175.284
30
0
0
VERTEX
8
CUT
10
332.153
20
175.096
30
0
0
VERTEX
8
CUT
10
332.446
20
174.803
30
0
0
VERTEX
8
CUT
10
332.634
20
174.434
30
0
0
VERTEX
8
CUT
10
332.700
20
174.019
30
0
0
VERTEX
8
CUT
10
332.700
20
154.831
30
0
0
VERTEX
8
CUT
10
332.634
20
154.416
30
0
0
VERTEX
8
CUT
10
332.446
20
154.047
30
0
0
VERTEX
8
CUT
10
332.153
20
153.754
30
0
0
VERTEX
8
CUT
10
331.784
20
153.566
30
0
0
VERTEX
8
CUT
10
331.369
20
153.500
30
0
0
VERTEX
8
CUT
10
331.181
20
153.500
30
0
0
VERTEX
8
CUT
10
330.766
20
153.566
30
0
0
VERTEX
8
CUT
10
330.397
20
153.754
30
0
0
VERTEX
8
CUT
10
330.104
20
154.047
30
0
0
VERTEX
8
CUT
10
329.916
20
154.416
30
0
0
VERTEX
8
CUT
10
329.850
20
154.831
30
0
0
SEQEND
8
CUT
0
POLYLINE
8
CUT
66
1
70
1
10
0
20
0
30
0
0
VERTEX
8
CUT
10
409.850
20
219.019
30
0
0
VERTEX
8
CUT
10
409.916
20
219.434
30
0
0
VERTEX
8
CUT
10
410.104
20
219.803
30
0
0
VERTEX
8
CUT
10
410.397
20
220.096
30
0
0
VERTEX
8
CUT
10
410.766
20
220.284
30
0
0
VERTEX
8
CUT
10
411.181
20
220.350
30
0
0
VERTEX
8
CUT
10
411.369
20
220.350
30
0
0
VERTEX
8
CUT
10
411.784
20
220.284
30
0
0
VERTEX
8
CUT
10
412.153
20
220.096
30
0
0
VERTEX
8
CUT
10
412.446
20
219.803
30
0
0
VERTEX
8
CUT
10
412.634
20
219.434
30
0
0
VERTEX
8
CUT
10
412.700
20
219.019
30
0
0
VERTEX
8
CUT
10
412.700
20
199.831
30
0
0
VERTEX
8
CUT
10
412.634
20
199.416
30
0
0
VERTEX
8
CUT
10
412.446
20
199.047
30
0
0
VERTEX
8
CUT
10
412.153
20
198.754
30
0
0
VERTEX
8
CUT
10
411.784
20
198.566
30
0
0
VERTEX
8
CUT
10
411.369
20
198.500
30
0
0
VERTEX
8
CUT
10
411.181
20
198.500
30
0
0
VERTEX
8
CUT
10
410.766
20
198.566
30
0
0
VERTEX
8
CUT
10
410.397
20
198.754
30
0
0
VERTEX
8
CUT
10
410.104
20
199.047
30
0
0
VERTEX
8
CUT
10
409.916
20
199.416
30
0
0
VERTEX
8
CUT
10
409.850
20
199.831
30
0
0
SEQEND
8
CUT
0
POLYLINE
8
CUT
66
1
70
1
10
0
20
0
30
0
0
VERTEX
8
CUT
10
401.850
20
219.019
30
0
0
VERTEX
8
CUT
10
401.916
20
219.434
30
0
0
VERTEX
8
CUT
10
402.104
20
219.803
30
0
0
VERTEX
8
CUT
10
402.397
20
220.096
30
0
0
VERTEX
8
CUT
10
402.766
20
220.284
30
0
0
VERTEX
8
CUT
10
403.181
20
220.350
30
0
0
VERTEX
8
CUT
10
403.369
20
220.350
30
0
0
VERTEX
8
CUT
10
403.784
20
220.284
30
0
0
VERTEX
8
CUT
10
404.153
20
220.096
30
0
0
VERTEX
8
CUT
10
404.446
20
219.803
30
0
0
VERTEX
8
CUT
10
404.634
20
219.434
30
0
0
VERTEX
8
CUT
10
404.700
20
219.019
30
0
0
VERTEX
8
CUT
10
404.700
20
199.831
30
0
0
VERTEX
8
CUT
10
404.634
20
199.416
30
0
0
VERTEX
8
CUT
10
404.446
20
199.047
30
0
0
VERTEX
8
CUT
10
404.153
20
198.754
30
0
0
VERTEX
8
CUT
10
403.784
20
198.566
30
0
0
VERTEX
8
CUT
10
403.369
20
198.500
30
0
0
VERTEX
8
CUT
10
403.181
20
198.500
30
0
0
VERTEX
8
CUT
10
402.766
20
198.566
30
0
0
VERTEX
8
CUT
10
402.397
20
198.754
30
0
0
VERTEX
8
CUT
10
402.104
20
199.047
30
0
0
VERTEX
8
CUT
10
401.916
20
199.416
30
0
0
VERTEX
8
CUT
10
401.850
20
199.831
30
0
0
SEQEND
8
CUT
0
POLYLINE
8
CUT
66
1
70
1
10
0
20
0
30
0
0
VERTEX
8
CUT
10
337.850
20
219.019
30
0
0
VERTEX
8
CUT
10
337.916
20
219.434
30
0
0
VERTEX
8
CUT
10
338.104
20
219.803
30
0
0
VERTEX
8
CUT
10
338.397
20
220.096
30
0
0
VERTEX
8
CUT
10
338.766
20
220.284
30
0
0
VERTEX
8
CUT
10
339.181
20
220.350
30
0
0
VERTEX
8
CUT
10
339.369
20
220.350
30
0
0
VERTEX
8
CUT
10
339.784
20
220.284
30
0
0
VERTEX
8
CUT
10
340.153
20
220.096
30
0
0
VERTEX
8
CUT
10
340.446
20
219.803
30
0
0
VERTEX
8
CUT
10
340.634
20
219.434
30
0
0
VERTEX
8
CUT
10
340.700
20
219.019
30
0
0
VERTEX
8
CUT
10
340.700
20
199.831
30
0
0
VERTEX
8
CUT
10
340.634
20
199.416
30
0
0
VERTEX
8
CUT
10
340.446
20
199.047
30
0
0
VERTEX
8
CUT
10
340.153
20
198.754
30
0
0
VERTEX
8
CUT
10
339.784
20
198.566
30
0
0
VERTEX
8
CUT
10
339.369
20
198.500
30
0
0
VERTEX
8
CUT
10
339.181
20
198.500
30
0
0
VERTEX
8
CUT
10
338.766
20
198.566
30
0
0
VERTEX
8
CUT
10
338.397
20
198.754
30
0
0
VERTEX
8
CUT
10
338.104
20
199.047
30
0
0
VERTEX
8
CUT
10
337.916
20
199.416
30
0
0
VERTEX
8
CUT
10
337.850
20
199.831
30
0
0
SEQEND
8
CUT
0
POLYLINE
8
CUT
66
1
70
1
10
0
20
0
30
0
0
VERTEX
8
CUT
10
329.850
20
219.019
30
0
0
VERTEX
8
CUT
10
329.916
20
219.434
30
0
0
VERTEX
8
CUT
10
330.104
20
219.803
30
0
0
VERTEX
8
CUT
10
330.397
20
220.096
30
0
0
VERTEX
8
CUT
10
330.766
20
220.284
30
0
0
VERTEX
8
CUT
10
331.181
20
220.350
30
0
0
VERTEX
8
CUT
10
331.369
20
220.350
30
0
0
VERTEX
8
CUT
10
331.784
20
220.284
30
0
0
VERTEX
8
CUT
10
332.153
20
220.096
30
0
0
VERTEX
8
CUT
10
332.446
20
219.803
30
0
0
VERTEX
8
CUT
10
332.634
20
219.434
30
0
0
VERTEX
8
CUT
10
332.700
20
219.019
30
0
0
VERTEX
8
CUT
10
332.700
20
199.831
30
0
0
VERTEX
8
CUT
10
332.634
20
199.416
30
0
0
VERTEX
8
CUT
10
332.446
20
199.047
30
0
0
VERTEX
8
CUT
10
332.153
20
198.754
30
0
0
VERTEX
8
CUT
10
331.784
20
198.566
30
0
0
VERTEX
8
CUT
10
331.369
20
198.500
30
0
0
VERTEX
8
CUT
10
331.181
20
198.500
30
0
0
VERTEX
8
CUT
10
330.766
20
198.566
30
0
0
VERTEX
8
CUT
10
330.397
20
198.754
30
0
0
VERTEX
8
CUT
10
330.104
20
199.047
30
0
0
VERTEX
8
CUT
10
329.916
20
199.416
30
0
0
VERTEX
8
CUT
10
329.850
20
199.831
30
0
0
SEQEND
8
CUT
0
POLYLINE
8
CUT
66
1
70
1
10
0
20
0
30
0
0
VERTEX
8
CUT
10
409.850
20
264.019
30
0
0
VERTEX
8
CUT
10
409.916
20
264.434
30
0
0
VERTEX
8
CUT
10
410.104
20
264.803
30
0
0
VERTEX
8
CUT
10
410.397
20
265.096
30
0
0
VERTEX
8
CUT
10
410.766
20
265.284
30
0
0
VERTEX
8
CUT
10
411.181
20
265.350
30
0
0
VERTEX
8
CUT
10
411.369
20
265.350
30
0
0
VERTEX
8
CUT
10
411.784
20
265.284
30
0
0
VERTEX
8
CUT
10
412.153
20
265.096
30
0
0
VERTEX
8
CUT
10
412.446
20
264.803
30
0
0
VERTEX
8
CUT
10
412.634
20
264.434
30
0
0
VERTEX
8
CUT
10
412.700
20
264.019
30
0
0
VERTEX
8
CUT
10
412.700
20
244.831
30
0
0
VERTEX
8
CUT
10
412.634
20
244.416
30
0
0
VERTEX
8
CUT
10
412.446
20
244.047
30
0
0
VERTEX
8
CUT
10
412.153
20
243.754
30
0
0
VERTEX
8
CUT
10
411.784
20
243.566
30
0
0
VERTEX
8
CUT
10
411.369
20
243.500
30
0
0
VERTEX
8
CUT
10
411.181
20
243.500
30
0
0
VERTEX
8
CUT
10
410.766
20
243.566
30
0
0
VERTEX
8
CUT
10
410.397
20
243.754
30
0
0
VERTEX
8
CUT
10
410.104
20
244.047
30
0
0
VERTEX
8
CUT
10
409.916
20
244.416
30
0
0
VERTEX
8
CUT
10
409.850
20
244.831
30
0
0
SEQEND
8
CUT
0
POLYLINE
8
CUT
66
1
70
1
10
0
20
0
30
0
0
VERTEX
8
CUT
10
401.850
20
264.019
30
0
0
VERTEX
8
CUT
10
401.916
20
264.434
30
0
0
VERTEX
8
CUT
10
402.104
20
264.803
30
0
0
VERTEX
8
CUT
10
402.397
20
265.096
30
0
0
VERTEX
8
CUT
10
402.766
20
265.284
30
0
0
VERTEX
8
CUT
10
403.181
20
265.350
30
0
0
VERTEX
8
CUT
10
403.369
20
265.350
30
0
0
VERTEX
8
CUT
10
403.784
20
265.284
30
0
0
VERTEX
8
CUT
10
404.153
20
265.096
30
0
0
VERTEX
8
CUT
10
404.446
20
264.803
30
0
0
VERTEX
8
CUT
10
404.634
20
264.434
30
0
0
VERTEX
8
CUT
10
404.700
20
264.019
30
0
0
VERTEX
8
CUT
10
404.700
20
244.831
30
0
0
VERTEX
8
CUT
10
404.634
20
244.416
30
0
0
VERTEX
8
CUT
10
404.446
20
244.047
30
0
0
VERTEX
8
CUT
10
404.153
20
243.754
30
0
0
VERTEX
8
CUT
10
403.784
20
243.566
30
0
0
VERTEX
8
CUT
10
403.369
20
243.500
30
0
0
VERTEX
8
CUT
10
403.181
20
243.500
30
0
0
VERTEX
8
CUT
10
402.766
20
243.566
30
0
0
VERTEX
8
CUT
10
402.397
20
243.754
30
0
0
VERTEX
8
CUT
10
402.104
20
244.047
30
0
0
VERTEX
8
CUT
10
401.916
20
244.416
30
0
0
VERTEX
8
CUT
10
401.850
20
244.831
30
0
0
SEQEND
8
CUT
0
POLYLINE
8
CUT
66
1
70
1
10
0
20
0
30
0
0
VERTEX
8
CUT
10
337.850
20
264.019
30
0
0
VERTEX
8
CUT
10
337.916
20
264.434
30
0
0
VERTEX
8
CUT
10
338.104
20
264.803
30
0
0
VERTEX
8
CUT
10
338.397
20
265.096
30
0
0
VERTEX
8
CUT
10
338.766
20
265.284
30
0
0
VERTEX
8
CUT
10
339.181
20
265.350
30
0
0
VERTEX
8
CUT
10
339.369
20
265.350
30
0
0
VERTEX
8
CUT
10
339.784
20
265.284
30
0
0
VERTEX
8
CUT
10
340.153
20
265.096
30
0
0
VERTEX
8
CUT
10
340.446
20
264.803
30
0
0
VERTEX
8
CUT
10
340.634
20
264.434
30
0
0
VERTEX
8
CUT
10
340.700
20
264.019
30
0
0
VERTEX
8
CUT
10
340.700
20
244.831
30
0
0
VERTEX
8
CUT
10
340.634
20
244.416
30
0
0
VERTEX
8
CUT
10
340.446
20
244.047
30
0
0
VERTEX
8
CUT
10
340.153
20
243.754
30
0
0
VERTEX
8
CUT
10
339.784
20
243.566
30
0
0
VERTEX
8
CUT
10
339.369
20
243.500
30
0
0
VERTEX
8
CUT
10
339.181
20
243.500
30
0
0
VERTEX
8
CUT
10
338.766
20
243.566
30
0
0
VERTEX
8
CUT
10
338.397
20
243.754
30
0
0
VERTEX
8
CUT
10
338.104
20
244.047
30
0
0
VERTEX
8
CUT
10
337.916
20
244.416
30
0
0
VERTEX
8
CUT
10
337.850
20
244.831
30
0
0
SEQEND
8
CUT
0
POLYLINE
8
CUT
66
1
70
1
10
0
20
0
30
0
0
VERTEX
8
CUT
10
329.850
20
264.019
30
0
0
VERTEX
8
CUT
10
329.916
20
264.434
30
0
0
VERTEX
8
CUT
10
330.104
20
264.803
30
0
0
VERTEX
8
CUT
10
330.397
20
265.096
30
0
0
VERTEX
8
CUT
10
330.766
20
265.284
30
0
0
VERTEX
8
CUT
10
331.181
20
265.350
30
0
0
VERTEX
8
CUT
10
331.369
20
265.350
30
0
0
VERTEX
8
CUT
10
331.784
20
265.284
30
0
0
VERTEX
8
CUT
10
332.153
20
265.096
30
0
0
VERTEX
8
CUT
10
332.446
20
264.803
30
0
0
VERTEX
8
CUT
10
332.634
20
264.434
30
0
0
VERTEX
8
CUT
10
332.700
20
264.019
30
0
0
VERTEX
8
CUT
10
332.700
20
244.831
30
0
0
VERTEX
8
CUT
10
332.634
20
244.416
30
0
0
VERTEX
8
CUT
10
332.446
20
244.047
30
0
0
VERTEX
8
CUT
10
332.153
20
243.754
30
0
0
VERTEX
8
CUT
10
331.784
20
243.566
30
0
0
VERTEX
8
CUT
10
331.369
20
243.500
30
0
0
VERTEX
8
CUT
10
331.181
20
243.500
30
0
0
VERTEX
8
CUT
10
330.766
20
243.566
30
0
0
VERTEX
8
CUT
10
330.397
20
243.754
30
0
0
VERTEX
8
CUT
10
330.104
20
244.047
30
0
0
VERTEX
8
CUT
10
329.916
20
244.416
30
0
0
VERTEX
8
CUT
10
329.850
20
244.831
30
0
0
SEQEND
8
CUT
0
POLYLINE
8
CUT
66
1
70
1
10
0
20
0
30
0
0
VERTEX
8
CUT
10
416.750
20
157.412
30
0
0
VERTEX
8
CUT
10
413.800
20
157.412
30
0
0
VERTEX
8
CUT
10
413.800
20
167.362
30
0
0
VERTEX
8
CUT
10
416.750
20
167.362
30
0
0
SEQEND
8
CUT
0
POLYLINE
8
CUT
66
1
70
1
10
0
20
0
30
0
0
VERTEX
8
CUT
10
416.750
20
194.337
30
0
0
VERTEX
8
CUT
10
413.800
20
194.337
30
0
0
VERTEX
8
CUT
10
413.800
20
204.287
30
0
0
VERTEX
8
CUT
10
416.750
20
204.287
30
0
0
SEQEND
8
CUT
0
POLYLINE
8
CUT
66
1
70
1
10
0
20
0
30
0
0
VERTEX
8
CUT
10
416.750
20
231.262
30
0
0
VERTEX
8
CUT
10
413.800
20
231.262
30
0
0
VERTEX
8
CUT
10
413.800
20
241.213
30
0
0
VERTEX
8
CUT
10
416.750
20
241.213
30
0
0
SEQEND
8
CUT
0
POLYLINE
8
CUT
66
1
70
1
10
0
20
0
30
0
0
VERTEX
8
CUT
10
416.750
20
268.188
30
0
0
VERTEX
8
CUT
10
413.800
20
268.188
30
0
0
VERTEX
8
CUT
10
413.800
20
278.137
30
0
0
VERTEX
8
CUT
10
416.750
20
278.137
30
0
0
SEQEND
8
CUT
0
POLYLINE
8
CUT
66
1
70
1
10
0
20
0
30
0
0
VERTEX
8
CUT
10
419.850
20
148.350
30
0
0
VERTEX
8
CUT
10
416.850
20
148.350
30
0
0
VERTEX
8
CUT
10
416.850
20
141.850
30
0
0
VERTEX
8
CUT
10
329.000
20
141.850
30
0
0
VERTEX
8
CUT
10
329.000
20
148.350
30
0
0
VERTEX
8
CUT
10
323.000
20
148.350
30
0
0
VERTEX
8
CUT
10
323.000
20
293.700
30
0
0
VERTEX
8
CUT
10
346.700
20
293.700
30
0
0
VERTEX
8
CUT
10
346.700
20
297.000
30
0
0
VERTEX
8
CUT
10
358.850
20
297.000
30
0
0
VERTEX
8
CUT
10
358.850
20
293.700
30
0
0
VERTEX
8
CUT
10
386.700
20
293.700
30
0
0
VERTEX
8
CUT
10
386.700
20
297.000
30
0
0
VERTEX
8
CUT
10
398.850
20
297.000
30
0
0
VERTEX
8
CUT
10
398.850
20
293.700
30
0
0
VERTEX
8
CUT
10
419.850
20
293.700
30
0
0
SEQEND
8
CUT
0
POLYLINE
8
CUT
66
1
70
1
10
0
20
0
30
0
0
VERTEX
8
CUT
10
175.201
20
129.625
30
0
0
VERTEX
8
CUT
10
175.341
20
130.692
30
0
0
VERTEX
8
CUT
10
175.753
20
131.687
30
0
0
VERTEX
8
CUT
10
176.409
20
132.541
30
0
0
VERTEX
8
CUT
10
177.263
20
133.197
30
0
0
VERTEX
8
CUT
10
178.258
20
133.609
30
0
0
VERTEX
8
CUT
10
179.325
20
133.749
30
0
0
VERTEX
8
CUT
10
180.392
20
133.609
30
0
0
VERTEX
8
CUT
10
181.387
20
133.197
30
0
0
VERTEX
8
CUT
10
182.241
20
132.541
30
0
0
VERTEX
8
CUT
10
182.897
20
131.687
30
0
0
VERTEX
8
CUT
10
183.309
20
130.692
30
0
0
VERTEX
8
CUT
10
183.449
20
129.625
30
0
0
VERTEX
8
CUT
10
183.309
20
128.558
30
0
0
VERTEX
8
CUT
10
182.897
20
127.563
30
0
0
VERTEX
8
CUT
10
182.241
20
126.709
30
0
0
VERTEX
8
CUT
10
181.387
20
126.053
30
0
0
VERTEX
8
CUT
10
180.392
20
125.641
30
0
0
VERTEX
8
CUT
10
179.325
20
125.501
30
0
0
VERTEX
8
CUT
10
178.258
20
125.641
30
0
0
VERTEX
8
CUT
10
177.263
20
126.053
30
0
0
VERTEX
8
CUT
10
176.409
20
126.709
30
0
0
VERTEX
8
CUT
10
175.753
20
127.563
30
0
0
VERTEX
8
CUT
10
175.341
20
128.558
30
0
0
SEQEND
8
CUT
0
POLYLINE
8
CUT
66
1
70
1
10
0
20
0
30
0
0
VERTEX
8
CUT
10
169.202
20
129.625
30
0
0
VERTEX
8
CUT
10
169.363
20
130.329
30
0
0
VERTEX
8
CUT
10
169.813
20
130.894
30
0
0
VERTEX
8
CUT
10
170.464
20
131.207
30
0
0
VERTEX
8
CUT
10
171.186
20
131.207
30
0
0
VERTEX
8
CUT
10
171.837
20
130.894
30
0
0
VERTEX
8
CUT
10
172.287
20
130.329
30
0
0
VERTEX
8
CUT
10
172.448
20
129.625
30
0
0
VERTEX
8
CUT
10
172.287
20
128.921
30
0
0
VERTEX
8
CUT
10
171.837
20
128.356
30
0
0
VERTEX
8
CUT
10
171.186
20
128.043
30
0
0
VERTEX
8
CUT
10
170.464
20
128.043
30
0
0
VERTEX
8
CUT
10
169.813
20
128.356
30
0
0
VERTEX
8
CUT
10
169.363
20
128.921
30
0
0
SEQEND
8
CUT
0
POLYLINE
8
CUT
66
1
70
1
10
0
20
0
30
0
0
VERTEX
8
CUT
10
186.202
20
129.625
30
0
0
VERTEX
8
CUT
10
186.363
20
130.329
30
0
0
VERTEX
8
CUT
10
186.813
20
130.894
30
0
0
VERTEX
8
CUT
10
187.464
20
131.207
30
0
0
VERTEX
8
CUT
10
188.186
20
131.207
30
0
0
VERTEX
8
CUT
10
188.837
20
130.894
30
0
0
VERTEX
8
CUT
10
189.287
20
130.329
30
0
0
VERTEX
8
CUT
10
189.448
20
129.625
30
0
0
VERTEX
8
CUT
10
189.287
20
128.921
30
0
0
VERTEX
8
CUT
10
188.837
20
128.356
30
0
0
VERTEX
8
CUT
10
188.186
20
128.043
30
0
0
VERTEX
8
CUT
10
187.464
20
128.043
30
0
0
VERTEX
8
CUT
10
186.813
20
128.356
30
0
0
VERTEX
8
CUT
10
186.363
20
128.921
30
0
0
SEQEND
8
CUT
0
POLYLINE
8
CUT
66
1
70
1
10
0
20
0
30
0
0
VERTEX
8
CUT
10
284.700
20
129.719
30
0
0
VERTEX
8
CUT
10
284.800
20
130.350
30
0
0
VERTEX
8
CUT
10
285.087
20
130.915
30
0
0
VERTEX
8
CUT
10
285.535
20
131.363
30
0
0
VERTEX
8
CUT
10
286.100
20
131.650
30
0
0
VERTEX
8
CUT
10
286.731
20
131.750
30
0
0
VERTEX
8
CUT
10
294.919
20
131.750
30
0
0
VERTEX
8
CUT
10
295.550
20
131.650
30
0
0
VERTEX
8
CUT
10
296.115
20
131.363
30
0
0
VERTEX
8
CUT
10
296.563
20
130.915
30
0
0
VERTEX
8
CUT
10
296.850
20
130.350
30
0
0
VERTEX
8
CUT
10
296.950
20
129.719
30
0
0
VERTEX
8
CUT
10
296.950
20
129.531
30
0
0
VERTEX
8
CUT
10
296.850
20
128.900
30
0
0
VERTEX
8
CUT
10
296.563
20
128.335
30
0
0
VERTEX
8
CUT
10
296.115
20
127.887
30
0
0
VERTEX
8
CUT
10
295.550
20
127.600
30
0
0
VERTEX
8
CUT
10
294.919
20
127.500
30
0
0
VERTEX
8
CUT
10
286.731
20
127.500
30
0
0
VERTEX
8
CUT
10
286.100
20
127.600
30
0
0
VERTEX
8
CUT
10
285.535
20
127.887
30
0
0
VERTEX
8
CUT
10
285.087
20
128.335
30
0
0
VERTEX
8
CUT
10
284.800
20
128.900
30
0
0
VERTEX
8
CUT
10
284.700
20
129.531
30
0
0
SEQEND
8
CUT
0
POLYLINE
8
CUT
66
1
70
1
10
0
20
0
30
0
0
VERTEX
8
CUT
10
221.425
20
119.425
30
0
0
VERTEX
8
CUT
10
211.475
20
119.425
30
0
0
VERTEX
8
CUT
10
211.475
20
122.375
30
0
0
VERTEX
8
CUT
10
221.425
20
122.375
30
0
0
SEQEND
8
CUT
0
POLYLINE
8
CUT
66
1
70
1
10
0
20
0
30
0
0
VERTEX
8
CUT
10
258.675
20
119.425
30
0
0
VERTEX
8
CUT
10
248.725
20
119.425
30
0
0
VERTEX
8
CUT
10
248.725
20
122.375
30
0
0
VERTEX
8
CUT
10
258.675
20
122.375
30
0
0
SEQEND
8
CUT
0
POLYLINE
8
CUT
66
1
70
1
10
0
20
0
30
0
0
VERTEX
8
CUT
10
295.925
20
119.425
30
0
0
VERTEX
8
CUT
10
285.975
20
119.425
30
0
0
VERTEX
8
CUT
10
285.975
20
122.375
30
0
0
VERTEX
8
CUT
10
295.925
20
122.375
30
0
0
SEQEND
8
CUT
0
POLYLINE
8
CUT
66
1
70
1
10
0
20
0
30
0
0
VERTEX
8
CUT
10
312.550
20
154.569
30
0
0
VERTEX
8
CUT
10
309.600
20
154.569
30
0
0
VERTEX
8
CUT
10
309.600
20
164.519
30
0
0
VERTEX
8
CUT
10
312.550
20
164.519
30
0
0
SEQEND
8
CUT
0
POLYLINE
8
CUT
66
1
70
1
10
0
20
0
30
0
0
VERTEX
8
CUT
10
312.550
20
125.806
30
0
0
VERTEX
8
CUT
10
309.600
20
125.806
30
0
0
VERTEX
8
CUT
10
309.600
20
135.756
30
0
0
VERTEX
8
CUT
10
312.550
20
135.756
30
0
0
SEQEND
8
CUT
0
POLYLINE
8
CUT
66
1
70
1
10
0
20
0
30
0
0
VERTEX
8
CUT
10
160.550
20
154.569
30
0
0
VERTEX
8
CUT
10
157.600
20
154.569
30
0
0
VERTEX
8
CUT
10
157.600
20
164.519
30
0
0
VERTEX
8
CUT
10
160.550
20
164.519
30
0
0
SEQEND
8
CUT
0
POLYLINE
8
CUT
66
1
70
1
10
0
20
0
30
0
0
VERTEX
8
CUT
10
160.550
20
125.806
30
0
0
VERTEX
8
CUT
10
157.600
20
125.806
30
0
0
VERTEX
8
CUT
10
157.600
20
135.756
30
0
0
VERTEX
8
CUT
10
160.550
20
135.756
30
0
0
SEQEND
8
CUT
0
POLYLINE
8
CUT
66
1
70
1
10
0
20
0
30
0
0
VERTEX
8
CUT
10
315.650
20
116.325
30
0
0
VERTEX
8
CUT
10
154.500
20
116.325
30
0
0
VERTEX
8
CUT
10
154.500
20
174.000
30
0
0
VERTEX
8
CUT
10
165.600
20
174.000
30
0
0
VERTEX
8
CUT
10
165.600
20
177.000
30
0
0
VERTEX
8
CUT
10
175.750
20
177.000
30
0
0
VERTEX
8
CUT
10
175.750
20
174.000
30
0
0
VERTEX
8
CUT
10
203.450
20
174.000
30
0
0
VERTEX
8
CUT
10
203.450
20
167.150
30
0
0
VERTEX
8
CUT
10
202.250
20
167.150
30
0
0
VERTEX
8
CUT
10
202.250
20
164.700
30
0
0
VERTEX
8
CUT
10
203.450
20
164.700
30
0
0
VERTEX
8
CUT
10
203.450
20
161.000
30
0
0
VERTEX
8
CUT
10
206.700
20
161.000
30
0
0
VERTEX
8
CUT
10
206.700
20
164.700
30
0
0
VERTEX
8
CUT
10
207.900
20
164.700
30
0
0
VERTEX
8
CUT
10
207.900
20
167.150
30
0
0
VERTEX
8
CUT
10
206.700
20
167.150
30
0
0
VERTEX
8
CUT
10
206.700
20
174.000
30
0
0
VERTEX
8
CUT
10
230.000
20
174.000
30
0
0
VERTEX
8
CUT
10
230.000
20
177.000
30
0
0
VERTEX
8
CUT
10
240.150
20
177.000
30
0
0
VERTEX
8
CUT
10
240.150
20
174.000
30
0
0
VERTEX
8
CUT
10
263.450
20
174.000
30
0
0
VERTEX
8
CUT
10
263.450
20
167.150
30
0
0
VERTEX
8
CUT
10
262.250
20
167.150
30
0
0
VERTEX
8
CUT
10
262.250
20
164.700
30
0
0
VERTEX
8
CUT
10
263.450
20
164.700
30
0
0
VERTEX
8
CUT
10
263.450
20
161.000
30
0
0
VERTEX
8
CUT
10
266.700
20
161.000
30
0
0
VERTEX
8
CUT
10
266.700
20
164.700
30
0
0
VERTEX
8
CUT
10
267.900
20
164.700
30
0
0
VERTEX
8
CUT
10
267.900
20
167.150
30
0
0
VERTEX
8
CUT
10
266.700
20
167.150
30
0
0
VERTEX
8
CUT
10
266.700
20
174.000
30
0
0
VERTEX
8
CUT
10
294.400
20
174.000
30
0
0
VERTEX
8
CUT
10
294.400
20
177.000
30
0
0
VERTEX
8
CUT
10
304.550
20
177.000
30
0
0
VERTEX
8
CUT
10
304.550
20
174.000
30
0
0
VERTEX
8
CUT
10
315.650
20
174.000
30
0
0
SEQEND
8
CUT
0
POLYLINE
8
CUT
66
1
70
1
10
0
20
0
30
0
0
VERTEX
8
CUT
10
31.949
20
67.125
30
0
0
VERTEX
8
CUT
10
31.809
20
68.192
30
0
0
VERTEX
8
CUT
10
31.397
20
69.187
30
0
0
VERTEX
8
CUT
10
30.741
20
70.041
30
0
0
VERTEX
8
CUT
10
29.887
20
70.697
30
0
0
VERTEX
8
CUT
10
28.892
20
71.109
30
0
0
VERTEX
8
CUT
10
27.825
20
71.249
30
0
0
VERTEX
8
CUT
10
26.758
20
71.109
30
0
0
VERTEX
8
CUT
10
25.763
20
70.697
30
0
0
VERTEX
8
CUT
10
24.909
20
70.041
30
0
0
VERTEX
8
CUT
10
24.253
20
69.187
30
0
0
VERTEX
8
CUT
10
23.841
20
68.192
30
0
0
VERTEX
8
CUT
10
23.701
20
67.125
30
0
0
VERTEX
8
CUT
10
23.841
20
66.058
30
0
0
VERTEX
8
CUT
10
24.253
20
65.063
30
0
0
VERTEX
8
CUT
10
24.909
20
64.209
30
0
0
VERTEX
8
CUT
10
25.763
20
63.553
30
0
0
VERTEX
8
CUT
10
26.758
20
63.141
30
0
0
VERTEX
8
CUT
10
27.825
20
63.001
30
0
0
VERTEX
8
CUT
10
28.892
20
63.141
30
0
0
VERTEX
8
CUT
10
29.887
20
63.553
30
0
0
VERTEX
8
CUT
10
30.741
20
64.209
30
0
0
VERTEX
8
CUT
10
31.397
20
65.063
30
0
0
VERTEX
8
CUT
10
31.809
20
66.058
30
0
0
SEQEND
8
CUT
0
POLYLINE
8
CUT
66
1
70
1
10
0
20
0
30
0
0
VERTEX
8
CUT
10
37.948
20
67.125
30
0
0
VERTEX
8
CUT
10
37.787
20
67.829
30
0
0
VERTEX
8
CUT
10
37.337
20
68.394
30
0
0
VERTEX
8
CUT
10
36.686
20
68.707
30
0
0
VERTEX
8
CUT
10
35.964
20
68.707
30
0
0
VERTEX
8
CUT
10
35.313
20
68.394
30
0
0
VERTEX
8
CUT
10
34.863
20
67.829
30
0
0
VERTEX
8
CUT
10
34.702
20
67.125
30
0
0
VERTEX
8
CUT
10
34.863
20
66.421
30
0
0
VERTEX
8
CUT
10
35.313
20
65.856
30
0
0
VERTEX
8
CUT
10
35.964
20
65.543
30
0
0
VERTEX
8
CUT
10
36.686
20
65.543
30
0
0
VERTEX
8
CUT
10
37.337
20
65.856
30
0
0
VERTEX
8
CUT
10
37.787
20
66.421
30
0
0
SEQEND
8
CUT
0
POLYLINE
8
CUT
66
1
70
1
10
0
20
0
30
0
0
VERTEX
8
CUT
10
20.948
20
67.125
30
0
0
VERTEX
8
CUT
10
20.787
20
67.829
30
0
0
VERTEX
8
CUT
10
20.337
20
68.394
30
0
0
VERTEX
8
CUT
10
19.686
20
68.707
30
0
0
VERTEX
8
CUT
10
18.964
20
68.707
30
0
0
VERTEX
8
CUT
10
18.313
20
68.394
30
0
0
VERTEX
8
CUT
10
17.863
20
67.829
30
0
0
VERTEX
8
CUT
10
17.702
20
67.125
30
0
0
VERTEX
8
CUT
10
17.863
20
66.421
30
0
0
VERTEX
8
CUT
10
18.313
20
65.856
30
0
0
VERTEX
8
CUT
10
18.964
20
65.543
30
0
0
VERTEX
8
CUT
10
19.686
20
65.543
30
0
0
VERTEX
8
CUT
10
20.337
20
65.856
30
0
0
VERTEX
8
CUT
10
20.787
20
66.421
30
0
0
SEQEND
8
CUT
0
POLYLINE
8
CUT
66
1
70
1
10
0
20
0
30
0
0
VERTEX
8
CUT
10
145.450
20
67.219
30
0
0
VERTEX
8
CUT
10
145.350
20
67.850
30
0
0
VERTEX
8
CUT
10
145.063
20
68.415
30
0
0
VERTEX
8
CUT
10
144.615
20
68.863
30
0
0
VERTEX
8
CUT
10
144.050
20
69.150
30
0
0
VERTEX
8
CUT
10
143.419
20
69.250
30
0
0
VERTEX
8
CUT
10
135.231
20
69.250
30
0
0
VERTEX
8
CUT
10
134.600
20
69.150
30
0
0
VERTEX
8
CUT
10
134.035
20
68.863
30
0
0
VERTEX
8
CUT
10
133.587
20
68.415
30
0
0
VERTEX
8
CUT
10
133.300
20
67.850
30
0
0
VERTEX
8
CUT
10
133.200
20
67.219
30
0
0
VERTEX
8
CUT
10
133.200
20
67.031
30
0
0
VERTEX
8
CUT
10
133.300
20
66.400
30
0
0
VERTEX
8
CUT
10
133.587
20
65.835
30
0
0
VERTEX
8
CUT
10
134.035
20
65.387
30
0
0
VERTEX
8
CUT
10
134.600
20
65.100
30
0
0
VERTEX
8
CUT
10
135.231
20
65.000
30
0
0
VERTEX
8
CUT
10
143.419
20
65.000
30
0
0
VERTEX
8
CUT
10
144.050
20
65.100
30
0
0
VERTEX
8
CUT
10
144.615
20
65.387
30
0
0
VERTEX
8
CUT
10
145.063
20
65.835
30
0
0
VERTEX
8
CUT
10
145.350
20
66.400
30
0
0
VERTEX
8
CUT
10
145.450
20
67.031
30
0
0
SEQEND
8
CUT
0
POLYLINE
8
CUT
66
1
70
1
10
0
20
0
30
0
0
VERTEX
8
CUT
10
59.975
20
56.925
30
0
0
VERTEX
8
CUT
10
69.925
20
56.925
30
0
0
VERTEX
8
CUT
10
69.925
20
59.875
30
0
0
VERTEX
8
CUT
10
59.975
20
59.875
30
0
0
SEQEND
8
CUT
0
POLYLINE
8
CUT
66
1
70
1
10
0
20
0
30
0
0
VERTEX
8
CUT
10
97.225
20
56.925
30
0
0
VERTEX
8
CUT
10
107.175
20
56.925
30
0
0
VERTEX
8
CUT
10
107.175
20
59.875
30
0
0
VERTEX
8
CUT
10
97.225
20
59.875
30
0
0
SEQEND
8
CUT
0
POLYLINE
8
CUT
66
1
70
1
10
0
20
0
30
0
0
VERTEX
8
CUT
10
134.475
20
56.925
30
0
0
VERTEX
8
CUT
10
144.425
20
56.925
30
0
0
VERTEX
8
CUT
10
144.425
20
59.875
30
0
0
VERTEX
8
CUT
10
134.475
20
59.875
30
0
0
SEQEND
8
CUT
0
POLYLINE
8
CUT
66
1
70
1
10
0
20
0
30
0
0
VERTEX
8
CUT
10
6.100
20
63.306
30
0
0
VERTEX
8
CUT
10
9.050
20
63.306
30
0
0
VERTEX
8
CUT
10
9.050
20
73.256
30
0
0
VERTEX
8
CUT
10
6.100
20
73.256
30
0
0
SEQEND
8
CUT
0
POLYLINE
8
CUT
66
1
70
1
10
0
20
0
30
0
0
VERTEX
8
CUT
10
6.100
20
92.069
30
0
0
VERTEX
8
CUT
10
9.050
20
92.069
30
0
0
VERTEX
8
CUT
10
9.050
20
102.019
30
0
0
VERTEX
8
CUT
10
6.100
20
102.019
30
0
0
SEQEND
8
CUT
0
POLYLINE
8
CUT
66
1
70
1
10
0
20
0
30
0
0
VERTEX
8
CUT
10
158.100
20
63.306
30
0
0
VERTEX
8
CUT
10
161.050
20
63.306
30
0
0
VERTEX
8
CUT
10
161.050
20
73.256
30
0
0
VERTEX
8
CUT
10
158.100
20
73.256
30
0
0
SEQEND
8
CUT
0
POLYLINE
8
CUT
66
1
70
1
10
0
20
0
30
0
0
VERTEX
8
CUT
10
158.100
20
92.069
30
0
0
VERTEX
8
CUT
10
161.050
20
92.069
30
0
0
VERTEX
8
CUT
10
161.050
20
102.019
30
0
0
VERTEX
8
CUT
10
158.100
20
102.019
30
0
0
SEQEND
8
CUT
0
POLYLINE
8
CUT
66
1
70
1
10
0
20
0
30
0
0
VERTEX
8
CUT
10
55.808
20
77.450
30
0
0
VERTEX
8
CUT
10
65.758
20
77.450
30
0
0
VERTEX
8
CUT
10
65.758
20
80.400
30
0
0
VERTEX
8
CUT
10
55.808
20
80.400
30
0
0
SEQEND
8
CUT
0
POLYLINE
8
CUT
66
1
70
1
10
0
20
0
30
0
0
VERTEX
8
CUT
10
94.725
20
77.450
30
0
0
VERTEX
8
CUT
10
104.675
20
77.450
30
0
0
VERTEX
8
CUT
10
104.675
20
80.400
30
0
0
VERTEX
8
CUT
10
94.725
20
80.400
30
0
0
SEQEND
8
CUT
0
POLYLINE
8
CUT
66
1
70
1
10
0
20
0
30
0
0
VERTEX
8
CUT
10
133.642
20
77.450
30
0
0
VERTEX
8
CUT
10
143.592
20
77.450
30
0
0
VERTEX
8
CUT
10
143.592
20
80.400
30
0
0
VERTEX
8
CUT
10
133.642
20
80.400
30
0
0
SEQEND
8
CUT
0
POLYLINE
8
CUT
66
1
70
1
10
0
20
0
30
0
0
VERTEX
8
CUT
10
3.000
20
53.825
30
0
0
VERTEX
8
CUT
10
164.150
20
53.825
30
0
0
VERTEX
8
CUT
10
164.150
20
111.500
30
0
0
VERTEX
8
CUT
10
153.050
20
111.500
30
0
0
VERTEX
8
CUT
10
153.050
20
114.500
30
0
0
VERTEX
8
CUT
10
142.900
20
114.500
30
0
0
VERTEX
8
CUT
10
142.900
20
111.500
30
0
0
VERTEX
8
CUT
10
115.200
20
111.500
30
0
0
VERTEX
8
CUT
10
115.200
20
104.650
30
0
0
VERTEX
8
CUT
10
116.400
20
104.650
30
0
0
VERTEX
8
CUT
10
116.400
20
102.200
30
0
0
VERTEX
8
CUT
10
115.200
20
102.200
30
0
0
VERTEX
8
CUT
10
115.200
20
98.500
30
0
0
VERTEX
8
CUT
10
111.950
20
98.500
30
0
0
VERTEX
8
CUT
10
111.950
20
102.200
30
0
0
VERTEX
8
CUT
10
110.750
20
102.200
30
0
0
VERTEX
8
CUT
10
110.750
20
104.650
30
0
0
VERTEX
8
CUT
10
111.950
20
104.650
30
0
0
VERTEX
8
CUT
10
111.950
20
111.500
30
0
0
VERTEX
8
CUT
10
88.650
20
111.500
30
0
0
VERTEX
8
CUT
10
88.650
20
114.500
30
0
0
VERTEX
8
CUT
10
78.500
20
114.500
30
0
0
VERTEX
8
CUT
10
78.500
20
111.500
30
0
0
VERTEX
8
CUT
10
55.200
20
111.500
30
0
0
VERTEX
8
CUT
10
55.200
20
104.650
30
0
0
VERTEX
8
CUT
10
56.400
20
104.650
30
0
0
VERTEX
8
CUT
10
56.400
20
102.200
30
0
0
VERTEX
8
CUT
10
55.200
20
102.200
30
0
0
VERTEX
8
CUT
10
55.200
20
98.500
30
0
0
VERTEX
8
CUT
10
51.950
20
98.500
30
0
0
VERTEX
8
CUT
10
51.950
20
102.200
30
0
0
VERTEX
8
CUT
10
50.750
20
102.200
30
0
0
VERTEX
8
CUT
10
50.750
20
104.650
30
0
0
VERTEX
8
CUT
10
51.950
20
104.650
30
0
0
VERTEX
8
CUT
10
51.950
20
111.500
30
0
0
VERTEX
8
CUT
10
24.250
20
111.500
30
0
0
VERTEX
8
CUT
10
24.250
20
114.500
30
0
0
VERTEX
8
CUT
10
14.100
20
114.500
30
0
0
VERTEX
8
CUT
10
14.100
20
111.500
30
0
0
VERTEX
8
CUT
10
3.000
20
111.500
30
0
0
SEQEND
8
CUT
0
POLYLINE
8
CUT
66
1
70
1
10
0
20
0
30
0
0
VERTEX
8
CUT
10
373.996
20
100.925
30
0
0
VERTEX
8
CUT
10
373.725
20
101.760
30
0
0
VERTEX
8
CUT
10
373.014
20
102.277
30
0
0
VERTEX
8
CUT
10
372.136
20
102.277
30
0
0
VERTEX
8
CUT
10
371.425
20
101.760
30
0
0
VERTEX
8
CUT
10
371.154
20
100.925
30
0
0
VERTEX
8
CUT
10
371.425
20
100.090
30
0
0
VERTEX
8
CUT
10
372.136
20
99.573
30
0
0
VERTEX
8
CUT
10
373.014
20
99.573
30
0
0
VERTEX
8
CUT
10
373.725
20
100.090
30
0
0
SEQEND
8
CUT
0
POLYLINE
8
CUT
66
1
70
1
10
0
20
0
30
0
0
VERTEX
8
CUT
10
379.496
20
100.925
30
0
0
VERTEX
8
CUT
10
379.225
20
101.760
30
0
0
VERTEX
8
CUT
10
378.514
20
102.277
30
0
0
VERTEX
8
CUT
10
377.636
20
102.277
30
0
0
VERTEX
8
CUT
10
376.925
20
101.760
30
0
0
VERTEX
8
CUT
10
376.654
20
100.925
30
0
0
VERTEX
8
CUT
10
376.925
20
100.090
30
0
0
VERTEX
8
CUT
10
377.636
20
99.573
30
0
0
VERTEX
8
CUT
10
378.514
20
99.573
30
0
0
VERTEX
8
CUT
10
379.225
20
100.090
30
0
0
SEQEND
8
CUT
0
POLYLINE
8
CUT
66
1
70
1
10
0
20
0
30
0
0
VERTEX
8
CUT
10
376.746
20
105.688
30
0
0
VERTEX
8
CUT
10
376.475
20
106.523
30
0
0
VERTEX
8
CUT
10
375.764
20
107.040
30
0
0
VERTEX
8
CUT
10
374.886
20
107.040
30
0
0
VERTEX
8
CUT
10
374.175
20
106.523
30
0
0
VERTEX
8
CUT
10
373.904
20
105.688
30
0
0
VERTEX
8
CUT
10
374.175
20
104.853
30
0
0
VERTEX
8
CUT
10
374.886
20
104.337
30
0
0
VERTEX
8
CUT
10
375.764
20
104.337
30
0
0
VERTEX
8
CUT
10
376.475
20
104.853
30
0
0
SEQEND
8
CUT
0
POLYLINE
8
CUT
66
1
70
1
10
0
20
0
30
0
0
VERTEX
8
CUT
10
371.246
20
105.688
30
0
0
VERTEX
8
CUT
10
370.975
20
106.523
30
0
0
VERTEX
8
CUT
10
370.264
20
107.040
30
0
0
VERTEX
8
CUT
10
369.386
20
107.040
30
0
0
VERTEX
8
CUT
10
368.675
20
106.523
30
0
0
VERTEX
8
CUT
10
368.404
20
105.688
30
0
0
VERTEX
8
CUT
10
368.675
20
104.853
30
0
0
VERTEX
8
CUT
10
369.386
20
104.337
30
0
0
VERTEX
8
CUT
10
370.264
20
104.337
30
0
0
VERTEX
8
CUT
10
370.975
20
104.853
30
0
0
SEQEND
8
CUT
0
POLYLINE
8
CUT
66
1
70
1
10
0
20
0
30
0
0
VERTEX
8
CUT
10
368.496
20
100.925
30
0
0
VERTEX
8
CUT
10
368.225
20
101.760
30
0
0
VERTEX
8
CUT
10
367.514
20
102.277
30
0
0
VERTEX
8
CUT
10
366.636
20
102.277
30
0
0
VERTEX
8
CUT
10
365.925
20
101.760
30
0
0
VERTEX
8
CUT
10
365.654
20
100.925
30
0
0
VERTEX
8
CUT
10
365.925
20
100.090
30
0
0
VERTEX
8
CUT
10
366.636
20
99.573
30
0
0
VERTEX
8
CUT
10
367.514
20
99.573
30
0
0
VERTEX
8
CUT
10
368.225
20
100.090
30
0
0
SEQEND
8
CUT
0
POLYLINE
8
CUT
66
1
70
1
10
0
20
0
30
0
0
VERTEX
8
CUT
10
371.246
20
96.162
30
0
0
VERTEX
8
CUT
10
370.975
20
96.997
30
0
0
VERTEX
8
CUT
10
370.264
20
97.513
30
0
0
VERTEX
8
CUT
10
369.386
20
97.513
30
0
0
VERTEX
8
CUT
10
368.675
20
96.997
30
0
0
VERTEX
8
CUT
10
368.404
20
96.162
30
0
0
VERTEX
8
CUT
10
368.675
20
95.327
30
0
0
VERTEX
8
CUT
10
369.386
20
94.810
30
0
0
VERTEX
8
CUT
10
370.264
20
94.810
30
0
0
VERTEX
8
CUT
10
370.975
20
95.327
30
0
0
SEQEND
8
CUT
0
POLYLINE
8
CUT
66
1
70
1
10
0
20
0
30
0
0
VERTEX
8
CUT
10
376.746
20
96.162
30
0
0
VERTEX
8
CUT
10
376.475
20
96.997
30
0
0
VERTEX
8
CUT
10
375.764
20
97.513
30
0
0
VERTEX
8
CUT
10
374.886
20
97.513
30
0
0
VERTEX
8
CUT
10
374.175
20
96.997
30
0
0
VERTEX
8
CUT
10
373.904
20
96.162
30
0
0
VERTEX
8
CUT
10
374.175
20
95.327
30
0
0
VERTEX
8
CUT
10
374.886
20
94.810
30
0
0
VERTEX
8
CUT
10
375.764
20
94.810
30
0
0
VERTEX
8
CUT
10
376.475
20
95.327
30
0
0
SEQEND
8
CUT
0
POLYLINE
8
CUT
66
1
70
1
10
0
20
0
30
0
0
VERTEX
8
CUT
10
384.996
20
100.925
30
0
0
VERTEX
8
CUT
10
384.725
20
101.760
30
0
0
VERTEX
8
CUT
10
384.014
20
102.277
30
0
0
VERTEX
8
CUT
10
383.136
20
102.277
30
0
0
VERTEX
8
CUT
10
382.425
20
101.760
30
0
0
VERTEX
8
CUT
10
382.154
20
100.925
30
0
0
VERTEX
8
CUT
10
382.425
20
100.090
30
0
0
VERTEX
8
CUT
10
383.136
20
99.573
30
0
0
VERTEX
8
CUT
10
384.014
20
99.573
30
0
0
VERTEX
8
CUT
10
384.725
20
100.090
30
0
0
SEQEND
8
CUT
0
POLYLINE
8
CUT
66
1
70
1
10
0
20
0
30
0
0
VERTEX
8
CUT
10
383.522
20
106.425
30
0
0
VERTEX
8
CUT
10
383.251
20
107.260
30
0
0
VERTEX
8
CUT
10
382.540
20
107.777
30
0
0
VERTEX
8
CUT
10
381.662
20
107.777
30
0
0
VERTEX
8
CUT
10
380.952
20
107.260
30
0
0
VERTEX
8
CUT
10
380.680
20
106.425
30
0
0
VERTEX
8
CUT
10
380.952
20
105.590
30
0
0
VERTEX
8
CUT
10
381.662
20
105.073
30
0
0
VERTEX
8
CUT
10
382.540
20
105.073
30
0
0
VERTEX
8
CUT
10
383.251
20
105.590
30
0
0
SEQEND
8
CUT
0
POLYLINE
8
CUT
66
1
70
1
10
0
20
0
30
0
0
VERTEX
8
CUT
10
379.496
20
110.451
30
0
0
VERTEX
8
CUT
10
379.225
20
111.287
30
0
0
VERTEX
8
CUT
10
378.514
20
111.803
30
0
0
VERTEX
8
CUT
10
377.636
20
111.803
30
0
0
VERTEX
8
CUT
10
376.925
20
111.287
30
0
0
VERTEX
8
CUT
10
376.654
20
110.451
30
0
0
VERTEX
8
CUT
10
376.925
20
109.616
30
0
0
VERTEX
8
CUT
10
377.636
20
109.100
30
0
0
VERTEX
8
CUT
10
378.514
20
109.100
30
0
0
VERTEX
8
CUT
10
379.225
20
109.616
30
0
0
SEQEND
8
CUT
0
POLYLINE
8
CUT
66
1
70
1
10
0
20
0
30
0
0
VERTEX
8
CUT
10
373.996
20
111.925
30
0
0
VERTEX
8
CUT
10
373.725
20
112.760
30
0
0
VERTEX
8
CUT
10
373.014
20
113.277
30
0
0
VERTEX
8
CUT
10
372.136
20
113.277
30
0
0
VERTEX
8
CUT
10
371.425
20
112.760
30
0
0
VERTEX
8
CUT
10
371.154
20
111.925
30
0
0
VERTEX
8
CUT
10
371.425
20
111.090
30
0
0
VERTEX
8
CUT
10
372.136
20
110.573
30
0
0
VERTEX
8
CUT
10
373.014
20
110.573
30
0
0
VERTEX
8
CUT
10
373.725
20
111.090
30
0
0
SEQEND
8
CUT
0
POLYLINE
8
CUT
66
1
70
1
10
0
20
0
30
0
0
VERTEX
8
CUT
10
368.496
20
110.451
30
0
0
VERTEX
8
CUT
10
368.225
20
111.287
30
0
0
VERTEX
8
CUT
10
367.514
20
111.803
30
0
0
VERTEX
8
CUT
10
366.636
20
111.803
30
0
0
VERTEX
8
CUT
10
365.925
20
111.287
30
0
0
VERTEX
8
CUT
10
365.654
20
110.451
30
0
0
VERTEX
8
CUT
10
365.925
20
109.616
30
0
0
VERTEX
8
CUT
10
366.636
20
109.100
30
0
0
VERTEX
8
CUT
10
367.514
20
109.100
30
0
0
VERTEX
8
CUT
10
368.225
20
109.616
30
0
0
SEQEND
8
CUT
0
POLYLINE
8
CUT
66
1
70
1
10
0
20
0
30
0
0
VERTEX
8
CUT
10
364.470
20
106.425
30
0
0
VERTEX
8
CUT
10
364.198
20
107.260
30
0
0
VERTEX
8
CUT
10
363.488
20
107.777
30
0
0
VERTEX
8
CUT
10
362.610
20
107.777
30
0
0
VERTEX
8
CUT
10
361.899
20
107.260
30
0
0
VERTEX
8
CUT
10
361.628
20
106.425
30
0
0
VERTEX
8
CUT
10
361.899
20
105.590
30
0
0
VERTEX
8
CUT
10
362.610
20
105.073
30
0
0
VERTEX
8
CUT
10
363.488
20
105.073
30
0
0
VERTEX
8
CUT
10
364.198
20
105.590
30
0
0
SEQEND
8
CUT
0
POLYLINE
8
CUT
66
1
70
1
10
0
20
0
30
0
0
VERTEX
8
CUT
10
362.996
20
100.925
30
0
0
VERTEX
8
CUT
10
362.725
20
101.760
30
0
0
VERTEX
8
CUT
10
362.014
20
102.277
30
0
0
VERTEX
8
CUT
10
361.136
20
102.277
30
0
0
VERTEX
8
CUT
10
360.425
20
101.760
30
0
0
VERTEX
8
CUT
10
360.154
20
100.925
30
0
0
VERTEX
8
CUT
10
360.425
20
100.090
30
0
0
VERTEX
8
CUT
10
361.136
20
99.573
30
0
0
VERTEX
8
CUT
10
362.014
20
99.573
30
0
0
VERTEX
8
CUT
10
362.725
20
100.090
30
0
0
SEQEND
8
CUT
0
POLYLINE
8
CUT
66
1
70
1
10
0
20
0
30
0
0
VERTEX
8
CUT
10
364.470
20
95.425
30
0
0
VERTEX
8
CUT
10
364.198
20
96.260
30
0
0
VERTEX
8
CUT
10
363.488
20
96.777
30
0
0
VERTEX
8
CUT
10
362.610
20
96.777
30
0
0
VERTEX
8
CUT
10
361.899
20
96.260
30
0
0
VERTEX
8
CUT
10
361.628
20
95.425
30
0
0
VERTEX
8
CUT
10
361.899
20
94.590
30
0
0
VERTEX
8
CUT
10
362.610
20
94.073
30
0
0
VERTEX
8
CUT
10
363.488
20
94.073
30
0
0
VERTEX
8
CUT
10
364.198
20
94.590
30
0
0
SEQEND
8
CUT
0
POLYLINE
8
CUT
66
1
70
1
10
0
20
0
30
0
0
VERTEX
8
CUT
10
368.496
20
91.399
30
0
0
VERTEX
8
CUT
10
368.225
20
92.234
30
0
0
VERTEX
8
CUT
10
367.514
20
92.750
30
0
0
VERTEX
8
CUT
10
366.636
20
92.750
30
0
0
VERTEX
8
CUT
10
365.925
20
92.234
30
0
0
VERTEX
8
CUT
10
365.654
20
91.399
30
0
0
VERTEX
8
CUT
10
365.925
20
90.563
30
0
0
VERTEX
8
CUT
10
366.636
20
90.047
30
0
0
VERTEX
8
CUT
10
367.514
20
90.047
30
0
0
VERTEX
8
CUT
10
368.225
20
90.563
30
0
0
SEQEND
8
CUT
0
POLYLINE
8
CUT
66
1
70
1
10
0
20
0
30
0
0
VERTEX
8
CUT
10
373.996
20
89.925
30
0
0
VERTEX
8
CUT
10
373.725
20
90.760
30
0
0
VERTEX
8
CUT
10
373.014
20
91.277
30
0
0
VERTEX
8
CUT
10
372.136
20
91.277
30
0
0
VERTEX
8
CUT
10
371.425
20
90.760
30
0
0
VERTEX
8
CUT
10
371.154
20
89.925
30
0
0
VERTEX
8
CUT
10
371.425
20
89.090
30
0
0
VERTEX
8
CUT
10
372.136
20
88.573
30
0
0
VERTEX
8
CUT
10
373.014
20
88.573
30
0
0
VERTEX
8
CUT
10
373.725
20
89.090
30
0
0
SEQEND
8
CUT
0
POLYLINE
8
CUT
66
1
70
1
10
0
20
0
30
0
0
VERTEX
8
CUT
10
379.496
20
91.399
30
0
0
VERTEX
8
CUT
10
379.225
20
92.234
30
0
0
VERTEX
8
CUT
10
378.514
20
92.750
30
0
0
VERTEX
8
CUT
10
377.636
20
92.750
30
0
0
VERTEX
8
CUT
10
376.925
20
92.234
30
0
0
VERTEX
8
CUT
10
376.654
20
91.399
30
0
0
VERTEX
8
CUT
10
376.925
20
90.563
30
0
0
VERTEX
8
CUT
10
377.636
20
90.047
30
0
0
VERTEX
8
CUT
10
378.514
20
90.047
30
0
0
VERTEX
8
CUT
10
379.225
20
90.563
30
0
0
SEQEND
8
CUT
0
POLYLINE
8
CUT
66
1
70
1
10
0
20
0
30
0
0
VERTEX
8
CUT
10
383.522
20
95.425
30
0
0
VERTEX
8
CUT
10
383.251
20
96.260
30
0
0
VERTEX
8
CUT
10
382.540
20
96.777
30
0
0
VERTEX
8
CUT
10
381.662
20
96.777
30
0
0
VERTEX
8
CUT
10
380.952
20
96.260
30
0
0
VERTEX
8
CUT
10
380.680
20
95.425
30
0
0
VERTEX
8
CUT
10
380.952
20
94.590
30
0
0
VERTEX
8
CUT
10
381.662
20
94.073
30
0
0
VERTEX
8
CUT
10
382.540
20
94.073
30
0
0
VERTEX
8
CUT
10
383.251
20
94.590
30
0
0
SEQEND
8
CUT
0
POLYLINE
8
CUT
66
1
70
1
10
0
20
0
30
0
0
VERTEX
8
CUT
10
320.500
20
61.850
30
0
0
VERTEX
8
CUT
10
424.650
20
61.850
30
0
0
VERTEX
8
CUT
10
424.650
20
76.350
30
0
0
VERTEX
8
CUT
10
427.650
20
76.350
30
0
0
VERTEX
8
CUT
10
427.650
20
86.500
30
0
0
VERTEX
8
CUT
10
424.650
20
86.500
30
0
0
VERTEX
8
CUT
10
424.650
20
115.350
30
0
0
VERTEX
8
CUT
10
427.650
20
115.350
30
0
0
VERTEX
8
CUT
10
427.650
20
125.500
30
0
0
VERTEX
8
CUT
10
424.650
20
125.500
30
0
0
VERTEX
8
CUT
10
424.650
20
140.000
30
0
0
VERTEX
8
CUT
10
320.500
20
140.000
30
0
0
VERTEX
8
CUT
10
320.500
20
125.500
30
0
0
VERTEX
8
CUT
10
317.500
20
125.500
30
0
0
VERTEX
8
CUT
10
317.500
20
115.350
30
0
0
VERTEX
8
CUT
10
320.500
20
115.350
30
0
0
VERTEX
8
CUT
10
320.500
20
86.500
30
0
0
VERTEX
8
CUT
10
317.500
20
86.500
30
0
0
VERTEX
8
CUT
10
317.500
20
76.350
30
0
0
VERTEX
8
CUT
10
320.500
20
76.350
30
0
0
SEQEND
8
CUT
0
POLYLINE
8
CUT
66
1
70
1
10
0
20
0
30
0
0
VERTEX
8
CUT
10
234.900
20
87.219
30
0
0
VERTEX
8
CUT
10
234.956
20
87.572
30
0
0
VERTEX
8
CUT
10
235.116
20
87.886
30
0
0
VERTEX
8
CUT
10
235.364
20
88.134
30
0
0
VERTEX
8
CUT
10
235.678
20
88.294
30
0
0
VERTEX
8
CUT
10
236.031
20
88.350
30
0
0
VERTEX
8
CUT
10
236.119
20
88.350
30
0
0
VERTEX
8
CUT
10
236.472
20
88.294
30
0
0
VERTEX
8
CUT
10
236.786
20
88.134
30
0
0
VERTEX
8
CUT
10
237.034
20
87.886
30
0
0
VERTEX
8
CUT
10
237.194
20
87.572
30
0
0
VERTEX
8
CUT
10
237.250
20
87.219
30
0
0
VERTEX
8
CUT
10
237.250
20
75.631
30
0
0
VERTEX
8
CUT
10
237.194
20
75.278
30
0
0
VERTEX
8
CUT
10
237.034
20
74.964
30
0
0
VERTEX
8
CUT
10
236.786
20
74.716
30
0
0
VERTEX
8
CUT
10
236.472
20
74.556
30
0
0
VERTEX
8
CUT
10
236.119
20
74.500
30
0
0
VERTEX
8
CUT
10
236.031
20
74.500
30
0
0
VERTEX
8
CUT
10
235.678
20
74.556
30
0
0
VERTEX
8
CUT
10
235.364
20
74.716
30
0
0
VERTEX
8
CUT
10
235.116
20
74.964
30
0
0
VERTEX
8
CUT
10
234.956
20
75.278
30
0
0
VERTEX
8
CUT
10
234.900
20
75.631
30
0
0
SEQEND
8
CUT
0
POLYLINE
8
CUT
66
1
70
1
10
0
20
0
30
0
0
VERTEX
8
CUT
10
229.900
20
87.219
30
0
0
VERTEX
8
CUT
10
229.956
20
87.572
30
0
0
VERTEX
8
CUT
10
230.116
20
87.886
30
0
0
VERTEX
8
CUT
10
230.364
20
88.134
30
0
0
VERTEX
8
CUT
10
230.678
20
88.294
30
0
0
VERTEX
8
CUT
10
231.031
20
88.350
30
0
0
VERTEX
8
CUT
10
231.119
20
88.350
30
0
0
VERTEX
8
CUT
10
231.472
20
88.294
30
0
0
VERTEX
8
CUT
10
231.786
20
88.134
30
0
0
VERTEX
8
CUT
10
232.034
20
87.886
30
0
0
VERTEX
8
CUT
10
232.194
20
87.572
30
0
0
VERTEX
8
CUT
10
232.250
20
87.219
30
0
0
VERTEX
8
CUT
10
232.250
20
75.631
30
0
0
VERTEX
8
CUT
10
232.194
20
75.278
30
0
0
VERTEX
8
CUT
10
232.034
20
74.964
30
0
0
VERTEX
8
CUT
10
231.786
20
74.716
30
0
0
VERTEX
8
CUT
10
231.472
20
74.556
30
0
0
VERTEX
8
CUT
10
231.119
20
74.500
30
0
0
VERTEX
8
CUT
10
231.031
20
74.500
30
0
0
VERTEX
8
CUT
10
230.678
20
74.556
30
0
0
VERTEX
8
CUT
10
230.364
20
74.716
30
0
0
VERTEX
8
CUT
10
230.116
20
74.964
30
0
0
VERTEX
8
CUT
10
229.956
20
75.278
30
0
0
VERTEX
8
CUT
10
229.900
20
75.631
30
0
0
SEQEND
8
CUT
0
POLYLINE
8
CUT
66
1
70
1
10
0
20
0
30
0
0
VERTEX
8
CUT
10
224.900
20
87.219
30
0
0
VERTEX
8
CUT
10
224.956
20
87.572
30
0
0
VERTEX
8
CUT
10
225.116
20
87.886
30
0
0
VERTEX
8
CUT
10
225.364
20
88.134
30
0
0
VERTEX
8
CUT
10
225.678
20
88.294
30
0
0
VERTEX
8
CUT
10
226.031
20
88.350
30
0
0
VERTEX
8
CUT
10
226.119
20
88.350
30
0
0
VERTEX
8
CUT
10
226.472
20
88.294
30
0
0
VERTEX
8
CUT
10
226.786
20
88.134
30
0
0
VERTEX
8
CUT
10
227.034
20
87.886
30
0
0
VERTEX
8
CUT
10
227.194
20
87.572
30
0
0
VERTEX
8
CUT
10
227.250
20
87.219
30
0
0
VERTEX
8
CUT
10
227.250
20
75.631
30
0
0
VERTEX
8
CUT
10
227.194
20
75.278
30
0
0
VERTEX
8
CUT
10
227.034
20
74.964
30
0
0
VERTEX
8
CUT
10
226.786
20
74.716
30
0
0
VERTEX
8
CUT
10
226.472
20
74.556
30
0
0
VERTEX
8
CUT
10
226.119
20
74.500
30
0
0
VERTEX
8
CUT
10
226.031
20
74.500
30
0
0
VERTEX
8
CUT
10
225.678
20
74.556
30
0
0
VERTEX
8
CUT
10
225.364
20
74.716
30
0
0
VERTEX
8
CUT
10
225.116
20
74.964
30
0
0
VERTEX
8
CUT
10
224.956
20
75.278
30
0
0
VERTEX
8
CUT
10
224.900
20
75.631
30
0
0
SEQEND
8
CUT
0
POLYLINE
8
CUT
66
1
70
1
10
0
20
0
30
0
0
VERTEX
8
CUT
10
219.900
20
87.219
30
0
0
VERTEX
8
CUT
10
219.956
20
87.572
30
0
0
VERTEX
8
CUT
10
220.116
20
87.886
30
0
0
VERTEX
8
CUT
10
220.364
20
88.134
30
0
0
VERTEX
8
CUT
10
220.678
20
88.294
30
0
0
VERTEX
8
CUT
10
221.031
20
88.350
30
0
0
VERTEX
8
CUT
10
221.119
20
88.350
30
0
0
VERTEX
8
CUT
10
221.472
20
88.294
30
0
0
VERTEX
8
CUT
10
221.786
20
88.134
30
0
0
VERTEX
8
CUT
10
222.034
20
87.886
30
0
0
VERTEX
8
CUT
10
222.194
20
87.572
30
0
0
VERTEX
8
CUT
10
222.250
20
87.219
30
0
0
VERTEX
8
CUT
10
222.250
20
75.631
30
0
0
VERTEX
8
CUT
10
222.194
20
75.278
30
0
0
VERTEX
8
CUT
10
222.034
20
74.964
30
0
0
VERTEX
8
CUT
10
221.786
20
74.716
30
0
0
VERTEX
8
CUT
10
221.472
20
74.556
30
0
0
VERTEX
8
CUT
10
221.119
20
74.500
30
0
0
VERTEX
8
CUT
10
221.031
20
74.500
30
0
0
VERTEX
8
CUT
10
220.678
20
74.556
30
0
0
VERTEX
8
CUT
10
220.364
20
74.716
30
0
0
VERTEX
8
CUT
10
220.116
20
74.964
30
0
0
VERTEX
8
CUT
10
219.956
20
75.278
30
0
0
VERTEX
8
CUT
10
219.900
20
75.631
30
0
0
SEQEND
8
CUT
0
POLYLINE
8
CUT
66
1
70
1
10
0
20
0
30
0
0
VERTEX
8
CUT
10
214.900
20
87.219
30
0
0
VERTEX
8
CUT
10
214.956
20
87.572
30
0
0
VERTEX
8
CUT
10
215.116
20
87.886
30
0
0
VERTEX
8
CUT
10
215.364
20
88.134
30
0
0
VERTEX
8
CUT
10
215.678
20
88.294
30
0
0
VERTEX
8
CUT
10
216.031
20
88.350
30
0
0
VERTEX
8
CUT
10
216.119
20
88.350
30
0
0
VERTEX
8
CUT
10
216.472
20
88.294
30
0
0
VERTEX
8
CUT
10
216.786
20
88.134
30
0
0
VERTEX
8
CUT
10
217.034
20
87.886
30
0
0
VERTEX
8
CUT
10
217.194
20
87.572
30
0
0
VERTEX
8
CUT
10
217.250
20
87.219
30
0
0
VERTEX
8
CUT
10
217.250
20
75.631
30
0
0
VERTEX
8
CUT
10
217.194
20
75.278
30
0
0
VERTEX
8
CUT
10
217.034
20
74.964
30
0
0
VERTEX
8
CUT
10
216.786
20
74.716
30
0
0
VERTEX
8
CUT
10
216.472
20
74.556
30
0
0
VERTEX
8
CUT
10
216.119
20
74.500
30
0
0
VERTEX
8
CUT
10
216.031
20
74.500
30
0
0
VERTEX
8
CUT
10
215.678
20
74.556
30
0
0
VERTEX
8
CUT
10
215.364
20
74.716
30
0
0
VERTEX
8
CUT
10
215.116
20
74.964
30
0
0
VERTEX
8
CUT
10
214.956
20
75.278
30
0
0
VERTEX
8
CUT
10
214.900
20
75.631
30
0
0
SEQEND
8
CUT
0
POLYLINE
8
CUT
66
1
70
1
10
0
20
0
30
0
0
VERTEX
8
CUT
10
209.900
20
87.219
30
0
0
VERTEX
8
CUT
10
209.956
20
87.572
30
0
0
VERTEX
8
CUT
10
210.116
20
87.886
30
0
0
VERTEX
8
CUT
10
210.364
20
88.134
30
0
0
VERTEX
8
CUT
10
210.678
20
88.294
30
0
0
VERTEX
8
CUT
10
211.031
20
88.350
30
0
0
VERTEX
8
CUT
10
211.119
20
88.350
30
0
0
VERTEX
8
CUT
10
211.472
20
88.294
30
0
0
VERTEX
8
CUT
10
211.786
20
88.134
30
0
0
VERTEX
8
CUT
10
212.034
20
87.886
30
0
0
VERTEX
8
CUT
10
212.194
20
87.572
30
0
0
VERTEX
8
CUT
10
212.250
20
87.219
30
0
0
VERTEX
8
CUT
10
212.250
20
75.631
30
0
0
VERTEX
8
CUT
10
212.194
20
75.278
30
0
0
VERTEX
8
CUT
10
212.034
20
74.964
30
0
0
VERTEX
8
CUT
10
211.786
20
74.716
30
0
0
VERTEX
8
CUT
10
211.472
20
74.556
30
0
0
VERTEX
8
CUT
10
211.119
20
74.500
30
0
0
VERTEX
8
CUT
10
211.031
20
74.500
30
0
0
VERTEX
8
CUT
10
210.678
20
74.556
30
0
0
VERTEX
8
CUT
10
210.364
20
74.716
30
0
0
VERTEX
8
CUT
10
210.116
20
74.964
30
0
0
VERTEX
8
CUT
10
209.956
20
75.278
30
0
0
VERTEX
8
CUT
10
209.900
20
75.631
30
0
0
SEQEND
8
CUT
0
POLYLINE
8
CUT
66
1
70
1
10
0
20
0
30
0
0
VERTEX
8
CUT
10
204.900
20
87.219
30
0
0
VERTEX
8
CUT
10
204.956
20
87.572
30
0
0
VERTEX
8
CUT
10
205.116
20
87.886
30
0
0
VERTEX
8
CUT
10
205.364
20
88.134
30
0
0
VERTEX
8
CUT
10
205.678
20
88.294
30
0
0
VERTEX
8
CUT
10
206.031
20
88.350
30
0
0
VERTEX
8
CUT
10
206.119
20
88.350
30
0
0
VERTEX
8
CUT
10
206.472
20
88.294
30
0
0
VERTEX
8
CUT
10
206.786
20
88.134
30
0
0
VERTEX
8
CUT
10
207.034
20
87.886
30
0
0
VERTEX
8
CUT
10
207.194
20
87.572
30
0
0
VERTEX
8
CUT
10
207.250
20
87.219
30
0
0
VERTEX
8
CUT
10
207.250
20
75.631
30
0
0
VERTEX
8
CUT
10
207.194
20
75.278
30
0
0
VERTEX
8
CUT
10
207.034
20
74.964
30
0
0
VERTEX
8
CUT
10
206.786
20
74.716
30
0
0
VERTEX
8
CUT
10
206.472
20
74.556
30
0
0
VERTEX
8
CUT
10
206.119
20
74.500
30
0
0
VERTEX
8
CUT
10
206.031
20
74.500
30
0
0
VERTEX
8
CUT
10
205.678
20
74.556
30
0
0
VERTEX
8
CUT
10
205.364
20
74.716
30
0
0
VERTEX
8
CUT
10
205.116
20
74.964
30
0
0
VERTEX
8
CUT
10
204.956
20
75.278
30
0
0
VERTEX
8
CUT
10
204.900
20
75.631
30
0
0
SEQEND
8
CUT
0
POLYLINE
8
CUT
66
1
70
1
10
0
20
0
30
0
0
VERTEX
8
CUT
10
273.150
20
36.350
30
0
0
VERTEX
8
CUT
10
169.000
20
36.350
30
0
0
VERTEX
8
CUT
10
169.000
20
50.850
30
0
0
VERTEX
8
CUT
10
166.000
20
50.850
30
0
0
VERTEX
8
CUT
10
166.000
20
61.000
30
0
0
VERTEX
8
CUT
10
169.000
20
61.000
30
0
0
VERTEX
8
CUT
10
169.000
20
89.850
30
0
0
VERTEX
8
CUT
10
166.000
20
89.850
30
0
0
VERTEX
8
CUT
10
166.000
20
100.000
30
0
0
VERTEX
8
CUT
10
169.000
20
100.000
30
0
0
VERTEX
8
CUT
10
169.000
20
114.500
30
0
0
VERTEX
8
CUT
10
273.150
20
114.500
30
0
0
VERTEX
8
CUT
10
273.150
20
100.000
30
0
0
VERTEX
8
CUT
10
276.150
20
100.000
30
0
0
VERTEX
8
CUT
10
276.150
20
89.850
30
0
0
VERTEX
8
CUT
10
273.150
20
89.850
30
0
0
VERTEX
8
CUT
10
273.150
20
61.000
30
0
0
VERTEX
8
CUT
10
276.150
20
61.000
30
0
0
VERTEX
8
CUT
10
276.150
20
50.850
30
0
0
VERTEX
8
CUT
10
273.150
20
50.850
30
0
0
SEQEND
8
CUT
0
POLYLINE
8
CUT
66
1
70
1
10
0
20
0
30
0
0
VERTEX
8
CUT
10
49.698
20
157.662
30
0
0
VERTEX
8
CUT
10
49.537
20
156.958
30
0
0
VERTEX
8
CUT
10
49.087
20
156.393
30
0
0
VERTEX
8
CUT
10
48.436
20
156.080
30
0
0
VERTEX
8
CUT
10
47.714
20
156.080
30
0
0
VERTEX
8
CUT
10
47.063
20
156.393
30
0
0
VERTEX
8
CUT
10
46.613
20
156.958
30
0
0
VERTEX
8
CUT
10
46.452
20
157.662
30
0
0
VERTEX
8
CUT
10
46.613
20
158.367
30
0
0
VERTEX
8
CUT
10
47.063
20
158.931
30
0
0
VERTEX
8
CUT
10
47.714
20
159.245
30
0
0
VERTEX
8
CUT
10
48.436
20
159.245
30
0
0
VERTEX
8
CUT
10
49.087
20
158.931
30
0
0
VERTEX
8
CUT
10
49.537
20
158.367
30
0
0
SEQEND
8
CUT
0
POLYLINE
8
CUT
66
1
70
1
10
0
20
0
30
0
0
VERTEX
8
CUT
10
89.698
20
157.662
30
0
0
VERTEX
8
CUT
10
89.537
20
156.958
30
0
0
VERTEX
8
CUT
10
89.087
20
156.393
30
0
0
VERTEX
8
CUT
10
88.436
20
156.080
30
0
0
VERTEX
8
CUT
10
87.714
20
156.080
30
0
0
VERTEX
8
CUT
10
87.063
20
156.393
30
0
0
VERTEX
8
CUT
10
86.613
20
156.958
30
0
0
VERTEX
8
CUT
10
86.452
20
157.662
30
0
0
VERTEX
8
CUT
10
86.613
20
158.367
30
0
0
VERTEX
8
CUT
10
87.063
20
158.931
30
0
0
VERTEX
8
CUT
10
87.714
20
159.245
30
0
0
VERTEX
8
CUT
10
88.436
20
159.245
30
0
0
VERTEX
8
CUT
10
89.087
20
158.931
30
0
0
VERTEX
8
CUT
10
89.537
20
158.367
30
0
0
SEQEND
8
CUT
0
POLYLINE
8
CUT
66
1
70
1
10
0
20
0
30
0
0
VERTEX
8
CUT
10
99.767
20
170.900
30
0
0
VERTEX
8
CUT
10
109.717
20
170.900
30
0
0
VERTEX
8
CUT
10
109.717
20
167.950
30
0
0
VERTEX
8
CUT
10
99.767
20
167.950
30
0
0
SEQEND
8
CUT
0
POLYLINE
8
CUT
66
1
70
1
10
0
20
0
30
0
0
VERTEX
8
CUT
10
63.100
20
170.900
30
0
0
VERTEX
8
CUT
10
73.050
20
170.900
30
0
0
VERTEX
8
CUT
10
73.050
20
167.950
30
0
0
VERTEX
8
CUT
10
63.100
20
167.950
30
0
0
SEQEND
8
CUT
0
POLYLINE
8
CUT
66
1
70
1
10
0
20
0
30
0
0
VERTEX
8
CUT
10
26.433
20
170.900
30
0
0
VERTEX
8
CUT
10
36.383
20
170.900
30
0
0
VERTEX
8
CUT
10
36.383
20
167.950
30
0
0
VERTEX
8
CUT
10
26.433
20
167.950
30
0
0
SEQEND
8
CUT
0
POLYLINE
8
CUT
66
1
70
1
10
0
20
0
30
0
0
VERTEX
8
CUT
10
87.100
20
147.375
30
0
0
VERTEX
8
CUT
10
99.050
20
147.375
30
0
0
VERTEX
8
CUT
10
99.050
20
144.425
30
0
0
VERTEX
8
CUT
10
87.100
20
144.425
30
0
0
SEQEND
8
CUT
0
POLYLINE
8
CUT
66
1
70
1
10
0
20
0
30
0
0
VERTEX
8
CUT
10
47.100
20
147.375
30
0
0
VERTEX
8
CUT
10
59.050
20
147.375
30
0
0
VERTEX
8
CUT
10
59.050
20
144.425
30
0
0
VERTEX
8
CUT
10
47.100
20
144.425
30
0
0
SEQEND
8
CUT
0
POLYLINE
8
CUT
66
1
70
1
10
0
20
0
30
0
0
VERTEX
8
CUT
10
13.000
20
174.000
30
0
0
VERTEX
8
CUT
10
123.150
20
174.000
30
0
0
VERTEX
8
CUT
10
123.150
20
164.619
30
0
0
VERTEX
8
CUT
10
126.150
20
164.619
30
0
0
VERTEX
8
CUT
10
126.150
20
154.469
30
0
0
VERTEX
8
CUT
10
123.150
20
154.469
30
0
0
VERTEX
8
CUT
10
123.150
20
135.856
30
0
0
VERTEX
8
CUT
10
126.150
20
135.856
30
0
0
VERTEX
8
CUT
10
126.150
20
125.706
30
0
0
VERTEX
8
CUT
10
123.150
20
125.706
30
0
0
VERTEX
8
CUT
10
123.150
20
116.325
30
0
0
VERTEX
8
CUT
10
109.817
20
116.325
30
0
0
VERTEX
8
CUT
10
109.817
20
113.325
30
0
0
VERTEX
8
CUT
10
99.667
20
113.325
30
0
0
VERTEX
8
CUT
10
99.667
20
116.325
30
0
0
VERTEX
8
CUT
10
73.150
20
116.325
30
0
0
VERTEX
8
CUT
10
73.150
20
113.325
30
0
0
VERTEX
8
CUT
10
63.000
20
113.325
30
0
0
VERTEX
8
CUT
10
63.000
20
116.325
30
0
0
VERTEX
8
CUT
10
36.483
20
116.325
30
0
0
VERTEX
8
CUT
10
36.483
20
113.325
30
0
0
VERTEX
8
CUT
10
26.333
20
113.325
30
0
0
VERTEX
8
CUT
10
26.333
20
116.325
30
0
0
VERTEX
8
CUT
10
13.000
20
116.325
30
0
0
VERTEX
8
CUT
10
13.000
20
125.706
30
0
0
VERTEX
8
CUT
10
10.000
20
125.706
30
0
0
VERTEX
8
CUT
10
10.000
20
135.856
30
0
0
VERTEX
8
CUT
10
13.000
20
135.856
30
0
0
VERTEX
8
CUT
10
13.000
20
154.469
30
0
0
VERTEX
8
CUT
10
10.000
20
154.469
30
0
0
VERTEX
8
CUT
10
10.000
20
164.619
30
0
0
VERTEX
8
CUT
10
13.000
20
164.619
30
0
0
SEQEND
8
CUT
0
POLYLINE
8
CUT
66
1
70
1
10
0
20
0
30
0
0
VERTEX
8
CUT
10
300.104
20
19.925
30
0
0
VERTEX
8
CUT
10
300.232
20
20.319
30
0
0
VERTEX
8
CUT
10
300.568
20
20.563
30
0
0
VERTEX
8
CUT
10
300.982
20
20.563
30
0
0
VERTEX
8
CUT
10
301.318
20
20.319
30
0
0
VERTEX
8
CUT
10
301.446
20
19.925
30
0
0
VERTEX
8
CUT
10
301.318
20
19.531
30
0
0
VERTEX
8
CUT
10
300.982
20
19.287
30
0
0
VERTEX
8
CUT
10
300.568
20
19.287
30
0
0
VERTEX
8
CUT
10
300.232
20
19.531
30
0
0
SEQEND
8
CUT
0
POLYLINE
8
CUT
66
1
70
1
10
0
20
0
30
0
0
VERTEX
8
CUT
10
297.104
20
19.925
30
0
0
VERTEX
8
CUT
10
297.232
20
20.319
30
0
0
VERTEX
8
CUT
10
297.568
20
20.563
30
0
0
VERTEX
8
CUT
10
297.982
20
20.563
30
0
0
VERTEX
8
CUT
10
298.318
20
20.319
30
0
0
VERTEX
8
CUT
10
298.446
20
19.925
30
0
0
VERTEX
8
CUT
10
298.318
20
19.531
30
0
0
VERTEX
8
CUT
10
297.982
20
19.287
30
0
0
VERTEX
8
CUT
10
297.568
20
19.287
30
0
0
VERTEX
8
CUT
10
297.232
20
19.531
30
0
0
SEQEND
8
CUT
0
POLYLINE
8
CUT
66
1
70
1
10
0
20
0
30
0
0
VERTEX
8
CUT
10
294.104
20
19.925
30
0
0
VERTEX
8
CUT
10
294.232
20
20.319
30
0
0
VERTEX
8
CUT
10
294.568
20
20.563
30
0
0
VERTEX
8
CUT
10
294.982
20
20.563
30
0
0
VERTEX
8
CUT
10
295.318
20
20.319
30
0
0
VERTEX
8
CUT
10
295.446
20
19.925
30
0
0
VERTEX
8
CUT
10
295.318
20
19.531
30
0
0
VERTEX
8
CUT
10
294.982
20
19.287
30
0
0
VERTEX
8
CUT
10
294.568
20
19.287
30
0
0
VERTEX
8
CUT
10
294.232
20
19.531
30
0
0
SEQEND
8
CUT
0
POLYLINE
8
CUT
66
1
70
1
10
0
20
0
30
0
0
VERTEX
8
CUT
10
359.080
20
5.850
30
0
0
VERTEX
8
CUT
10
281.070
20
5.850
30
0
0
VERTEX
8
CUT
10
280.279
20
5.954
30
0
0
VERTEX
8
CUT
10
279.537
20
6.261
30
0
0
VERTEX
8
CUT
10
278.900
20
6.750
30
0
0
VERTEX
8
CUT
10
278.411
20
7.387
30
0
0
VERTEX
8
CUT
10
278.104
20
8.129
30
0
0
VERTEX
8
CUT
10
278.000
20
8.920
30
0
0
VERTEX
8
CUT
10
278.000
20
56.930
30
0
0
VERTEX
8
CUT
10
278.104
20
57.721
30
0
0
VERTEX
8
CUT
10
278.411
20
58.463
30
0
0
VERTEX
8
CUT
10
278.900
20
59.100
30
0
0
VERTEX
8
CUT
10
279.537
20
59.589
30
0
0
VERTEX
8
CUT
10
280.279
20
59.896
30
0
0
VERTEX
8
CUT
10
281.070
20
60.000
30
0
0
VERTEX
8
CUT
10
359.080
20
60.000
30
0
0
VERTEX
8
CUT
10
359.871
20
59.896
30
0
0
VERTEX
8
CUT
10
360.613
20
59.589
30
0
0
VERTEX
8
CUT
10
361.250
20
59.100
30
0
0
VERTEX
8
CUT
10
361.739
20
58.463
30
0
0
VERTEX
8
CUT
10
362.046
20
57.721
30
0
0
VERTEX
8
CUT
10
362.150
20
56.930
30
0
0
VERTEX
8
CUT
10
362.150
20
8.920
30
0
0
VERTEX
8
CUT
10
362.046
20
8.129
30
0
0
VERTEX
8
CUT
10
361.739
20
7.387
30
0
0
VERTEX
8
CUT
10
361.250
20
6.750
30
0
0
VERTEX
8
CUT
10
360.613
20
6.261
30
0
0
VERTEX
8
CUT
10
359.871
20
5.954
30
0
0
SEQEND
8
CUT
0
POLYLINE
8
CUT
66
1
70
1
10
0
20
0
30
0
0
VERTEX
8
CUT
10
31.000
20
31.925
30
0
0
VERTEX
8
CUT
10
30.851
20
33.243
30
0
0
VERTEX
8
CUT
10
30.413
20
34.496
30
0
0
VERTEX
8
CUT
10
29.707
20
35.619
30
0
0
VERTEX
8
CUT
10
28.769
20
36.557
30
0
0
VERTEX
8
CUT
10
27.646
20
37.263
30
0
0
VERTEX
8
CUT
10
26.393
20
37.701
30
0
0
VERTEX
8
CUT
10
25.075
20
37.850
30
0
0
VERTEX
8
CUT
10
23.757
20
37.701
30
0
0
VERTEX
8
CUT
10
22.504
20
37.263
30
0
0
VERTEX
8
CUT
10
21.381
20
36.557
30
0
0
VERTEX
8
CUT
10
20.443
20
35.619
30
0
0
VERTEX
8
CUT
10
19.737
20
34.496
30
0
0
VERTEX
8
CUT
10
19.299
20
33.243
30
0
0
VERTEX
8
CUT
10
19.150
20
31.925
30
0
0
VERTEX
8
CUT
10
19.299
20
30.607
30
0
0
VERTEX
8
CUT
10
19.737
20
29.354
30
0
0
VERTEX
8
CUT
10
20.443
20
28.231
30
0
0
VERTEX
8
CUT
10
21.381
20
27.293
30
0
0
VERTEX
8
CUT
10
22.504
20
26.587
30
0
0
VERTEX
8
CUT
10
23.757
20
26.149
30
0
0
VERTEX
8
CUT
10
25.075
20
26.000
30
0
0
VERTEX
8
CUT
10
26.393
20
26.149
30
0
0
VERTEX
8
CUT
10
27.646
20
26.587
30
0
0
VERTEX
8
CUT
10
28.769
20
27.293
30
0
0
VERTEX
8
CUT
10
29.707
20
28.231
30
0
0
VERTEX
8
CUT
10
30.413
20
29.354
30
0
0
VERTEX
8
CUT
10
30.851
20
30.607
30
0
0
SEQEND
8
CUT
0
POLYLINE
8
CUT
66
1
70
1
10
0
20
0
30
0
0
VERTEX
8
CUT
10
71.300
20
6.950
30
0
0
VERTEX
8
CUT
10
81.250
20
6.950
30
0
0
VERTEX
8
CUT
10
81.250
20
9.900
30
0
0
VERTEX
8
CUT
10
71.300
20
9.900
30
0
0
SEQEND
8
CUT
0
POLYLINE
8
CUT
66
1
70
1
10
0
20
0
30
0
0
VERTEX
8
CUT
10
8.900
20
6.950
30
0
0
VERTEX
8
CUT
10
18.850
20
6.950
30
0
0
VERTEX
8
CUT
10
18.850
20
9.900
30
0
0
VERTEX
8
CUT
10
8.900
20
9.900
30
0
0
SEQEND
8
CUT
0
POLYLINE
8
CUT
66
1
70
1
10
0
20
0
30
0
0
VERTEX
8
CUT
10
6.000
20
3.850
30
0
0
VERTEX
8
CUT
10
23.346
20
3.850
30
0
0
VERTEX
8
CUT
10
23.346
20
6.850
30
0
0
VERTEX
8
CUT
10
66.804
20
6.850
30
0
0
VERTEX
8
CUT
10
66.804
20
3.850
30
0
0
VERTEX
8
CUT
10
84.150
20
3.850
30
0
0
VERTEX
8
CUT
10
84.150
20
10.850
30
0
0
VERTEX
8
CUT
10
87.150
20
10.850
30
0
0
VERTEX
8
CUT
10
87.150
20
21.000
30
0
0
VERTEX
8
CUT
10
84.150
20
21.000
30
0
0
VERTEX
8
CUT
10
84.150
20
34.850
30
0
0
VERTEX
8
CUT
10
87.150
20
34.850
30
0
0
VERTEX
8
CUT
10
87.150
20
45.000
30
0
0
VERTEX
8
CUT
10
84.150
20
45.000
30
0
0
VERTEX
8
CUT
10
84.150
20
52.000
30
0
0
VERTEX
8
CUT
10
6.000
20
52.000
30
0
0
VERTEX
8
CUT
10
6.000
20
45.000
30
0
0
VERTEX
8
CUT
10
3.000
20
45.000
30
0
0
VERTEX
8
CUT
10
3.000
20
34.850
30
0
0
VERTEX
8
CUT
10
6.000
20
34.850
30
0
0
VERTEX
8
CUT
10
6.000
20
21.000
30
0
0
VERTEX
8
CUT
10
3.000
20
21.000
30
0
0
VERTEX
8
CUT
10
3.000
20
10.850
30
0
0
VERTEX
8
CUT
10
6.000
20
10.850
30
0
0
SEQEND
8
CUT
0
POLYLINE
8
CUT
66
1
70
1
10
0
20
0
30
0
0
VERTEX
8
CUT
10
377.051
20
26.225
30
0
0
VERTEX
8
CUT
10
377.258
20
27.396
30
0
0
VERTEX
8
CUT
10
377.852
20
28.426
30
0
0
VERTEX
8
CUT
10
378.763
20
29.190
30
0
0
VERTEX
8
CUT
10
379.880
20
29.597
30
0
0
VERTEX
8
CUT
10
381.070
20
29.597
30
0
0
VERTEX
8
CUT
10
382.187
20
29.190
30
0
0
VERTEX
8
CUT
10
383.098
20
28.426
30
0
0
VERTEX
8
CUT
10
383.692
20
27.396
30
0
0
VERTEX
8
CUT
10
383.899
20
26.225
30
0
0
VERTEX
8
CUT
10
383.692
20
25.054
30
0
0
VERTEX
8
CUT
10
383.098
20
24.024
30
0
0
VERTEX
8
CUT
10
382.187
20
23.260
30
0
0
VERTEX
8
CUT
10
381.070
20
22.853
30
0
0
VERTEX
8
CUT
10
379.880
20
22.853
30
0
0
VERTEX
8
CUT
10
378.763
20
23.260
30
0
0
VERTEX
8
CUT
10
377.852
20
24.024
30
0
0
VERTEX
8
CUT
10
377.258
20
25.054
30
0
0
SEQEND
8
CUT
0
POLYLINE
8
CUT
66
1
70
1
10
0
20
0
30
0
0
VERTEX
8
CUT
10
440.480
20
18.450
30
0
0
VERTEX
8
CUT
10
365.070
20
18.450
30
0
0
VERTEX
8
CUT
10
364.797
20
18.486
30
0
0
VERTEX
8
CUT
10
364.537
20
18.593
30
0
0
VERTEX
8
CUT
10
364.314
20
18.764
30
0
0
VERTEX
8
CUT
10
364.143
20
18.987
30
0
0
VERTEX
8
CUT
10
364.036
20
19.247
30
0
0
VERTEX
8
CUT
10
364.000
20
19.520
30
0
0
VERTEX
8
CUT
10
364.000
20
58.930
30
0
0
VERTEX
8
CUT
10
364.036
20
59.203
30
0
0
VERTEX
8
CUT
10
364.143
20
59.463
30
0
0
VERTEX
8
CUT
10
364.314
20
59.686
30
0
0
VERTEX
8
CUT
10
364.537
20
59.857
30
0
0
VERTEX
8
CUT
10
364.797
20
59.964
30
0
0
VERTEX
8
CUT
10
365.070
20
60.000
30
0
0
VERTEX
8
CUT
10
440.480
20
60.000
30
0
0
VERTEX
8
CUT
10
440.753
20
59.964
30
0
0
VERTEX
8
CUT
10
441.013
20
59.857
30
0
0
VERTEX
8
CUT
10
441.236
20
59.686
30
0
0
VERTEX
8
CUT
10
441.407
20
59.463
30
0
0
VERTEX
8
CUT
10
441.514
20
59.203
30
0
0
VERTEX
8
CUT
10
441.550
20
58.930
30
0
0
VERTEX
8
CUT
10
441.550
20
19.520
30
0
0
VERTEX
8
CUT
10
441.514
20
19.247
30
0
0
VERTEX
8
CUT
10
441.407
20
18.987
30
0
0
VERTEX
8
CUT
10
441.236
20
18.764
30
0
0
VERTEX
8
CUT
10
441.013
20
18.593
30
0
0
VERTEX
8
CUT
10
440.753
20
18.486
30
0
0
SEQEND
8
CUT
0
POLYLINE
8
CUT
66
1
70
1
10
0
20
0
30
0
0
VERTEX
8
CUT
10
121.600
20
6.950
30
0
0
VERTEX
8
CUT
10
131.550
20
6.950
30
0
0
VERTEX
8
CUT
10
131.550
20
9.900
30
0
0
VERTEX
8
CUT
10
121.600
20
9.900
30
0
0
SEQEND
8
CUT
0
POLYLINE
8
CUT
66
1
70
1
10
0
20
0
30
0
0
VERTEX
8
CUT
10
100.600
20
6.950
30
0
0
VERTEX
8
CUT
10
110.550
20
6.950
30
0
0
VERTEX
8
CUT
10
110.550
20
9.900
30
0
0
VERTEX
8
CUT
10
100.600
20
9.900
30
0
0
SEQEND
8
CUT
0
POLYLINE
8
CUT
66
1
70
1
10
0
20
0
30
0
0
VERTEX
8
CUT
10
137.100
20
34.950
30
0
0
VERTEX
8
CUT
10
140.050
20
34.950
30
0
0
VERTEX
8
CUT
10
140.050
20
44.900
30
0
0
VERTEX
8
CUT
10
137.100
20
44.900
30
0
0
SEQEND
8
CUT
0
POLYLINE
8
CUT
66
1
70
1
10
0
20
0
30
0
0
VERTEX
8
CUT
10
137.100
20
10.950
30
0
0
VERTEX
8
CUT
10
140.050
20
10.950
30
0
0
VERTEX
8
CUT
10
140.050
20
20.900
30
0
0
VERTEX
8
CUT
10
137.100
20
20.900
30
0
0
SEQEND
8
CUT
0
POLYLINE
8
CUT
66
1
70
1
10
0
20
0
30
0
0
VERTEX
8
CUT
10
92.100
20
34.950
30
0
0
VERTEX
8
CUT
10
95.050
20
34.950
30
0
0
VERTEX
8
CUT
10
95.050
20
44.900
30
0
0
VERTEX
8
CUT
10
92.100
20
44.900
30
0
0
SEQEND
8
CUT
0
POLYLINE
8
CUT
66
1
70
1
10
0
20
0
30
0
0
VERTEX
8
CUT
10
92.100
20
10.950
30
0
0
VERTEX
8
CUT
10
95.050
20
10.950
30
0
0
VERTEX
8
CUT
10
95.050
20
20.900
30
0
0
VERTEX
8
CUT
10
92.100
20
20.900
30
0
0
SEQEND
8
CUT
0
POLYLINE
8
CUT
66
1
70
1
10
0
20
0
30
0
0
VERTEX
8
CUT
10
91.070
20
3.850
30
0
0
VERTEX
8
CUT
10
141.080
20
3.850
30
0
0
VERTEX
8
CUT
10
141.612
20
3.920
30
0
0
VERTEX
8
CUT
10
142.113
20
4.127
30
0
0
VERTEX
8
CUT
10
142.543
20
4.457
30
0
0
VERTEX
8
CUT
10
142.873
20
4.887
30
0
0
VERTEX
8
CUT
10
143.080
20
5.388
30
0
0
VERTEX
8
CUT
10
143.150
20
5.920
30
0
0
VERTEX
8
CUT
10
143.150
20
49.930
30
0
0
VERTEX
8
CUT
10
143.080
20
50.462
30
0
0
VERTEX
8
CUT
10
142.873
20
50.963
30
0
0
VERTEX
8
CUT
10
142.543
20
51.393
30
0
0
VERTEX
8
CUT
10
142.113
20
51.723
30
0
0
VERTEX
8
CUT
10
141.612
20
51.930
30
0
0
VERTEX
8
CUT
10
141.080
20
52.000
30
0
0
VERTEX
8
CUT
10
91.070
20
52.000
30
0
0
VERTEX
8
CUT
10
90.538
20
51.930
30
0
0
VERTEX
8
CUT
10
90.037
20
51.723
30
0
0
VERTEX
8
CUT
10
89.607
20
51.393
30
0
0
VERTEX
8
CUT
10
89.277
20
50.963
30
0
0
VERTEX
8
CUT
10
89.070
20
50.462
30
0
0
VERTEX
8
CUT
10
89.000
20
49.930
30
0
0
VERTEX
8
CUT
10
89.000
20
5.920
30
0
0
VERTEX
8
CUT
10
89.070
20
5.388
30
0
0
VERTEX
8
CUT
10
89.277
20
4.887
30
0
0
VERTEX
8
CUT
10
89.607
20
4.457
30
0
0
VERTEX
8
CUT
10
90.037
20
4.127
30
0
0
VERTEX
8
CUT
10
90.538
20
3.920
30
0
0
SEQEND
8
CUT
0
POLYLINE
8
CUT
66
1
70
1
10
0
20
0
30
0
0
VERTEX
8
CUT
10
424.500
20
149.150
30
0
0
VERTEX
8
CUT
10
424.500
20
162.612
30
0
0
VERTEX
8
CUT
10
421.500
20
162.612
30
0
0
VERTEX
8
CUT
10
421.500
20
172.762
30
0
0
VERTEX
8
CUT
10
424.500
20
172.762
30
0
0
VERTEX
8
CUT
10
424.500
20
199.537
30
0
0
VERTEX
8
CUT
10
421.500
20
199.537
30
0
0
VERTEX
8
CUT
10
421.500
20
209.688
30
0
0
VERTEX
8
CUT
10
424.500
20
209.688
30
0
0
VERTEX
8
CUT
10
424.500
20
236.462
30
0
0
VERTEX
8
CUT
10
421.500
20
236.462
30
0
0
VERTEX
8
CUT
10
421.500
20
246.613
30
0
0
VERTEX
8
CUT
10
424.500
20
246.613
30
0
0
VERTEX
8
CUT
10
424.500
20
273.387
30
0
0
VERTEX
8
CUT
10
421.500
20
273.387
30
0
0
VERTEX
8
CUT
10
421.500
20
283.537
30
0
0
VERTEX
8
CUT
10
424.500
20
283.537
30
0
0
VERTEX
8
CUT
10
424.500
20
297.000
30
0
0
VERTEX
8
CUT
10
432.650
20
297.000
30
0
0
VERTEX
8
CUT
10
432.650
20
149.150
30
0
0
SEQEND
8
CUT
0
POLYLINE
8
CUT
66
1
70
1
10
0
20
0
30
0
0
VERTEX
8
CUT
10
443.650
20
180.100
30
0
0
VERTEX
8
CUT
10
437.500
20
180.100
30
0
0
VERTEX
8
CUT
10
437.500
20
194.558
30
0
0
VERTEX
8
CUT
10
434.500
20
194.558
30
0
0
VERTEX
8
CUT
10
434.500
20
204.708
30
0
0
VERTEX
8
CUT
10
437.500
20
204.708
30
0
0
VERTEX
8
CUT
10
437.500
20
233.475
30
0
0
VERTEX
8
CUT
10
434.500
20
233.475
30
0
0
VERTEX
8
CUT
10
434.500
20
243.625
30
0
0
VERTEX
8
CUT
10
437.500
20
243.625
30
0
0
VERTEX
8
CUT
10
437.500
20
272.392
30
0
0
VERTEX
8
CUT
10
434.500
20
272.392
30
0
0
VERTEX
8
CUT
10
434.500
20
282.542
30
0
0
VERTEX
8
CUT
10
437.500
20
282.542
30
0
0
VERTEX
8
CUT
10
437.500
20
297.000
30
0
0
VERTEX
8
CUT
10
443.650
20
297.000
30
0
0
SEQEND
8
CUT
0
POLYLINE
8
CUT
66
1
70
1
10
0
20
0
30
0
0
VERTEX
8
CUT
10
140.521
20
143.559
30
0
0
VERTEX
8
CUT
10
138.797
20
143.255
30
0
0
VERTEX
8
CUT
10
137.938
20
148.130
30
0
0
VERTEX
8
CUT
10
132.937
20
147.248
30
0
0
VERTEX
8
CUT
10
129.664
20
165.812
30
0
0
VERTEX
8
CUT
10
134.665
20
166.694
30
0
0
VERTEX
8
CUT
10
133.805
20
171.569
30
0
0
VERTEX
8
CUT
10
135.528
20
171.872
30
0
0
VERTEX
8
CUT
10
136.388
20
166.998
30
0
0
VERTEX
8
CUT
10
142.543
20
168.083
30
0
0
VERTEX
8
CUT
10
145.816
20
149.519
30
0
0
VERTEX
8
CUT
10
139.661
20
148.434
30
0
0
SEQEND
8
CUT
0
POLYLINE
8
CUT
66
1
70
1
10
0
20
0
30
0
0
VERTEX
8
CUT
10
151.450
20
135.350
30
0
0
VERTEX
8
CUT
10
143.800
20
135.350
30
0
0
VERTEX
8
CUT
10
143.800
20
132.350
30
0
0
VERTEX
8
CUT
10
135.650
20
132.350
30
0
0
VERTEX
8
CUT
10
135.650
20
135.350
30
0
0
VERTEX
8
CUT
10
128.000
20
135.350
30
0
0
VERTEX
8
CUT
10
128.000
20
174.000
30
0
0
VERTEX
8
CUT
10
151.450
20
174.000
30
0
0
SEQEND
8
CUT
0
POLYLINE
8
CUT
66
1
70
1
10
0
20
0
30
0
0
VERTEX
8
CUT
10
290.521
20
84.059
30
0
0
VERTEX
8
CUT
10
288.797
20
83.755
30
0
0
VERTEX
8
CUT
10
287.938
20
88.630
30
0
0
VERTEX
8
CUT
10
282.937
20
87.748
30
0
0
VERTEX
8
CUT
10
279.664
20
106.312
30
0
0
VERTEX
8
CUT
10
284.665
20
107.194
30
0
0
VERTEX
8
CUT
10
283.805
20
112.069
30
0
0
VERTEX
8
CUT
10
285.528
20
112.372
30
0
0
VERTEX
8
CUT
10
286.388
20
107.498
30
0
0
VERTEX
8
CUT
10
292.543
20
108.583
30
0
0
VERTEX
8
CUT
10
295.816
20
90.019
30
0
0
VERTEX
8
CUT
10
289.661
20
88.934
30
0
0
SEQEND
8
CUT
0
POLYLINE
8
CUT
66
1
70
1
10
0
20
0
30
0
0
VERTEX
8
CUT
10
301.450
20
75.850
30
0
0
VERTEX
8
CUT
10
293.800
20
75.850
30
0
0
VERTEX
8
CUT
10
293.800
20
72.850
30
0
0
VERTEX
8
CUT
10
285.650
20
72.850
30
0
0
VERTEX
8
CUT
10
285.650
20
75.850
30
0
0
VERTEX
8
CUT
10
278.000
20
75.850
30
0
0
VERTEX
8
CUT
10
278.000
20
114.500
30
0
0
VERTEX
8
CUT
10
301.450
20
114.500
30
0
0
SEQEND
8
CUT
0
POLYLINE
8
CUT
66
1
70
1
10
0
20
0
30
0
0
VERTEX
8
CUT
10
446.650
20
125.350
30
0
0
VERTEX
8
CUT
10
429.500
20
125.350
30
0
0
VERTEX
8
CUT
10
429.500
20
147.500
30
0
0
VERTEX
8
CUT
10
446.650
20
147.500
30
0
0
SEQEND
8
CUT
0
POLYLINE
8
CUT
66
1
70
1
10
0
20
0
30
0
0
VERTEX
8
CUT
10
169.000
20
22.925
30
0
0
VERTEX
8
CUT
10
168.915
20
24.220
30
0
0
VERTEX
8
CUT
10
168.662
20
25.494
30
0
0
VERTEX
8
CUT
10
168.245
20
26.723
30
0
0
VERTEX
8
CUT
10
167.670
20
27.887
30
0
0
VERTEX
8
CUT
10
166.949
20
28.967
30
0
0
VERTEX
8
CUT
10
166.093
20
29.943
30
0
0
VERTEX
8
CUT
10
165.117
20
30.799
30
0
0
VERTEX
8
CUT
10
164.038
20
31.520
30
0
0
VERTEX
8
CUT
10
162.873
20
32.094
30
0
0
VERTEX
8
CUT
10
161.644
20
32.511
30
0
0
VERTEX
8
CUT
10
160.371
20
32.765
30
0
0
VERTEX
8
CUT
10
159.075
20
32.850
30
0
0
VERTEX
8
CUT
10
157.780
20
32.765
30
0
0
VERTEX
8
CUT
10
156.506
20
32.511
30
0
0
VERTEX
8
CUT
10
155.277
20
32.094
30
0
0
VERTEX
8
CUT
10
154.113
20
31.520
30
0
0
VERTEX
8
CUT
10
153.033
20
30.799
30
0
0
VERTEX
8
CUT
10
152.057
20
29.943
30
0
0
VERTEX
8
CUT
10
151.201
20
28.967
30
0
0
VERTEX
8
CUT
10
150.480
20
27.887
30
0
0
VERTEX
8
CUT
10
149.906
20
26.723
30
0
0
VERTEX
8
CUT
10
149.489
20
25.494
30
0
0
VERTEX
8
CUT
10
149.235
20
24.220
30
0
0
VERTEX
8
CUT
10
149.150
20
22.925
30
0
0
VERTEX
8
CUT
10
149.235
20
21.629
30
0
0
VERTEX
8
CUT
10
149.489
20
20.356
30
0
0
VERTEX
8
CUT
10
149.906
20
19.127
30
0
0
VERTEX
8
CUT
10
150.480
20
17.962
30
0
0
VERTEX
8
CUT
10
151.201
20
16.883
30
0
0
VERTEX
8
CUT
10
152.057
20
15.907
30
0
0
VERTEX
8
CUT
10
153.033
20
15.051
30
0
0
VERTEX
8
CUT
10
154.113
20
14.330
30
0
0
VERTEX
8
CUT
10
155.277
20
13.755
30
0
0
VERTEX
8
CUT
10
156.506
20
13.338
30
0
0
VERTEX
8
CUT
10
157.780
20
13.085
30
0
0
VERTEX
8
CUT
10
159.075
20
13.000
30
0
0
VERTEX
8
CUT
10
160.371
20
13.085
30
0
0
VERTEX
8
CUT
10
161.644
20
13.338
30
0
0
VERTEX
8
CUT
10
162.873
20
13.755
30
0
0
VERTEX
8
CUT
10
164.038
20
14.330
30
0
0
VERTEX
8
CUT
10
165.117
20
15.051
30
0
0
VERTEX
8
CUT
10
166.093
20
15.907
30
0
0
VERTEX
8
CUT
10
166.949
20
16.883
30
0
0
VERTEX
8
CUT
10
167.670
20
17.962
30
0
0
VERTEX
8
CUT
10
168.245
20
19.127
30
0
0
VERTEX
8
CUT
10
168.662
20
20.356
30
0
0
VERTEX
8
CUT
10
168.915
20
21.629
30
0
0
SEQEND
8
CUT
0
POLYLINE
8
CUT
66
1
70
1
10
0
20
0
30
0
0
VERTEX
8
CUT
10
173.150
20
22.925
30
0
0
VERTEX
8
CUT
10
173.030
20
24.762
30
0
0
VERTEX
8
CUT
10
172.671
20
26.568
30
0
0
VERTEX
8
CUT
10
172.079
20
28.311
30
0
0
VERTEX
8
CUT
10
171.265
20
29.962
30
0
0
VERTEX
8
CUT
10
170.242
20
31.493
30
0
0
VERTEX
8
CUT
10
169.028
20
32.877
30
0
0
VERTEX
8
CUT
10
167.644
20
34.091
30
0
0
VERTEX
8
CUT
10
166.113
20
35.114
30
0
0
VERTEX
8
CUT
10
164.461
20
35.929
30
0
0
VERTEX
8
CUT
10
162.718
20
36.520
30
0
0
VERTEX
8
CUT
10
160.912
20
36.880
30
0
0
VERTEX
8
CUT
10
159.075
20
37.000
30
0
0
VERTEX
8
CUT
10
157.238
20
36.880
30
0
0
VERTEX
8
CUT
10
155.432
20
36.520
30
0
0
VERTEX
8
CUT
10
153.689
20
35.929
30
0
0
VERTEX
8
CUT
10
152.038
20
35.114
30
0
0
VERTEX
8
CUT
10
150.507
20
34.091
30
0
0
VERTEX
8
CUT
10
149.123
20
32.877
30
0
0
VERTEX
8
CUT
10
147.909
20
31.493
30
0
0
VERTEX
8
CUT
10
146.886
20
29.962
30
0
0
VERTEX
8
CUT
10
146.071
20
28.311
30
0
0
VERTEX
8
CUT
10
145.480
20
26.568
30
0
0
VERTEX
8
CUT
10
145.120
20
24.762
30
0
0
VERTEX
8
CUT
10
145.000
20
22.925
30
0
0
VERTEX
8
CUT
10
145.120
20
21.088
30
0
0
VERTEX
8
CUT
10
145.480
20
19.282
30
0
0
VERTEX
8
CUT
10
146.071
20
17.539
30
0
0
VERTEX
8
CUT
10
146.886
20
15.887
30
0
0
VERTEX
8
CUT
10
147.909
20
14.356
30
0
0
VERTEX
8
CUT
10
149.123
20
12.972
30
0
0
VERTEX
8
CUT
10
150.507
20
11.758
30
0
0
VERTEX
8
CUT
10
152.038
20
10.735
30
0
0
VERTEX
8
CUT
10
153.689
20
9.921
30
0
0
VERTEX
8
CUT
10
155.432
20
9.329
30
0
0
VERTEX
8
CUT
10
157.238
20
8.970
30
0
0
VERTEX
8
CUT
10
159.075
20
8.850
30
0
0
VERTEX
8
CUT
10
160.912
20
8.970
30
0
0
VERTEX
8
CUT
10
162.718
20
9.329
30
0
0
VERTEX
8
CUT
10
164.461
20
9.921
30
0
0
VERTEX
8
CUT
10
166.113
20
10.735
30
0
0
VERTEX
8
CUT
10
167.644
20
11.758
30
0
0
VERTEX
8
CUT
10
169.028
20
12.972
30
0
0
VERTEX
8
CUT
10
170.242
20
14.356
30
0
0
VERTEX
8
CUT
10
171.265
20
15.887
30
0
0
VERTEX
8
CUT
10
172.079
20
17.539
30
0
0
VERTEX
8
CUT
10
172.671
20
19.282
30
0
0
VERTEX
8
CUT
10
173.030
20
21.088
30
0
0
SEQEND
8
CUT
0
POLYLINE
8
CUT
66
1
70
1
10
0
20
0
30
0
0
VERTEX
8
CUT
10
199.000
20
20.425
30
0
0
VERTEX
8
CUT
10
198.915
20
21.720
30
0
0
VERTEX
8
CUT
10
198.662
20
22.994
30
0
0
VERTEX
8
CUT
10
198.245
20
24.223
30
0
0
VERTEX
8
CUT
10
197.670
20
25.387
30
0
0
VERTEX
8
CUT
10
196.949
20
26.467
30
0
0
VERTEX
8
CUT
10
196.093
20
27.443
30
0
0
VERTEX
8
CUT
10
195.117
20
28.299
30
0
0
VERTEX
8
CUT
10
194.038
20
29.020
30
0
0
VERTEX
8
CUT
10
192.873
20
29.594
30
0
0
VERTEX
8
CUT
10
191.644
20
30.011
30
0
0
VERTEX
8
CUT
10
190.371
20
30.265
30
0
0
VERTEX
8
CUT
10
189.075
20
30.350
30
0
0
VERTEX
8
CUT
10
187.780
20
30.265
30
0
0
VERTEX
8
CUT
10
186.506
20
30.011
30
0
0
VERTEX
8
CUT
10
185.277
20
29.594
30
0
0
VERTEX
8
CUT
10
184.113
20
29.020
30
0
0
VERTEX
8
CUT
10
183.033
20
28.299
30
0
0
VERTEX
8
CUT
10
182.057
20
27.443
30
0
0
VERTEX
8
CUT
10
181.201
20
26.467
30
0
0
VERTEX
8
CUT
10
180.480
20
25.387
30
0
0
VERTEX
8
CUT
10
179.906
20
24.223
30
0
0
VERTEX
8
CUT
10
179.489
20
22.994
30
0
0
VERTEX
8
CUT
10
179.235
20
21.720
30
0
0
VERTEX
8
CUT
10
179.150
20
20.425
30
0
0
VERTEX
8
CUT
10
179.235
20
19.129
30
0
0
VERTEX
8
CUT
10
179.489
20
17.856
30
0
0
VERTEX
8
CUT
10
179.906
20
16.627
30
0
0
VERTEX
8
CUT
10
180.480
20
15.462
30
0
0
VERTEX
8
CUT
10
181.201
20
14.383
30
0
0
VERTEX
8
CUT
10
182.057
20
13.407
30
0
0
VERTEX
8
CUT
10
183.033
20
12.551
30
0
0
VERTEX
8
CUT
10
184.113
20
11.830
30
0
0
VERTEX
8
CUT
10
185.277
20
11.255
30
0
0
VERTEX
8
CUT
10
186.506
20
10.838
30
0
0
VERTEX
8
CUT
10
187.780
20
10.585
30
0
0
VERTEX
8
CUT
10
189.075
20
10.500
30
0
0
VERTEX
8
CUT
10
190.371
20
10.585
30
0
0
VERTEX
8
CUT
10
191.644
20
10.838
30
0
0
VERTEX
8
CUT
10
192.873
20
11.255
30
0
0
VERTEX
8
CUT
10
194.038
20
11.830
30
0
0
VERTEX
8
CUT
10
195.117
20
12.551
30
0
0
VERTEX
8
CUT
10
196.093
20
13.407
30
0
0
VERTEX
8
CUT
10
196.949
20
14.383
30
0
0
VERTEX
8
CUT
10
197.670
20
15.462
30
0
0
VERTEX
8
CUT
10
198.245
20
16.627
30
0
0
VERTEX
8
CUT
10
198.662
20
17.856
30
0
0
VERTEX
8
CUT
10
198.915
20
19.129
30
0
0
SEQEND
8
CUT
0
POLYLINE
8
CUT
66
1
70
1
10
0
20
0
30
0
0
VERTEX
8
CUT
10
203.150
20
20.425
30
0
0
VERTEX
8
CUT
10
203.030
20
22.262
30
0
0
VERTEX
8
CUT
10
202.671
20
24.068
30
0
0
VERTEX
8
CUT
10
202.079
20
25.811
30
0
0
VERTEX
8
CUT
10
201.265
20
27.462
30
0
0
VERTEX
8
CUT
10
200.242
20
28.993
30
0
0
VERTEX
8
CUT
10
199.028
20
30.377
30
0
0
VERTEX
8
CUT
10
197.644
20
31.591
30
0
0
VERTEX
8
CUT
10
196.113
20
32.614
30
0
0
VERTEX
8
CUT
10
194.461
20
33.429
30
0
0
VERTEX
8
CUT
10
192.718
20
34.020
30
0
0
VERTEX
8
CUT
10
190.912
20
34.380
30
0
0
VERTEX
8
CUT
10
189.075
20
34.500
30
0
0
VERTEX
8
CUT
10
187.238
20
34.380
30
0
0
VERTEX
8
CUT
10
185.432
20
34.020
30
0
0
VERTEX
8
CUT
10
183.689
20
33.429
30
0
0
VERTEX
8
CUT
10
182.038
20
32.614
30
0
0
VERTEX
8
CUT
10
180.507
20
31.591
30
0
0
VERTEX
8
CUT
10
179.123
20
30.377
30
0
0
VERTEX
8
CUT
10
177.909
20
28.993
30
0
0
VERTEX
8
CUT
10
176.886
20
27.462
30
0
0
VERTEX
8
CUT
10
176.071
20
25.811
30
0
0
VERTEX
8
CUT
10
175.480
20
24.068
30
0
0
VERTEX
8
CUT
10
175.120
20
22.262
30
0
0
VERTEX
8
CUT
10
175.000
20
20.425
30
0
0
VERTEX
8
CUT
10
175.120
20
18.588
30
0
0
VERTEX
8
CUT
10
175.480
20
16.782
30
0
0
VERTEX
8
CUT
10
176.071
20
15.039
30
0
0
VERTEX
8
CUT
10
176.886
20
13.387
30
0
0
VERTEX
8
CUT
10
177.909
20
11.856
30
0
0
VERTEX
8
CUT
10
179.123
20
10.472
30
0
0
VERTEX
8
CUT
10
180.507
20
9.258
30
0
0
VERTEX
8
CUT
10
182.038
20
8.235
30
0
0
VERTEX
8
CUT
10
183.689
20
7.421
30
0
0
VERTEX
8
CUT
10
185.432
20
6.829
30
0
0
VERTEX
8
CUT
10
187.238
20
6.470
30
0
0
VERTEX
8
CUT
10
189.075
20
6.350
30
0
0
VERTEX
8
CUT
10
190.912
20
6.470
30
0
0
VERTEX
8
CUT
10
192.718
20
6.829
30
0
0
VERTEX
8
CUT
10
194.461
20
7.421
30
0
0
VERTEX
8
CUT
10
196.113
20
8.235
30
0
0
VERTEX
8
CUT
10
197.644
20
9.258
30
0
0
VERTEX
8
CUT
10
199.028
20
10.472
30
0
0
VERTEX
8
CUT
10
200.242
20
11.856
30
0
0
VERTEX
8
CUT
10
201.265
20
13.387
30
0
0
VERTEX
8
CUT
10
202.079
20
15.039
30
0
0
VERTEX
8
CUT
10
202.671
20
16.782
30
0
0
VERTEX
8
CUT
10
203.030
20
18.588
30
0
0
SEQEND
8
CUT
0
POLYLINE
8
CUT
66
1
70
1
10
0
20
0
30
0
0
VERTEX
8
CUT
10
194.650
20
276.325
30
0
0
VERTEX
8
CUT
10
191.650
20
276.325
30
0
0
VERTEX
8
CUT
10
191.650
20
273.325
30
0
0
VERTEX
8
CUT
10
183.500
20
273.325
30
0
0
VERTEX
8
CUT
10
183.500
20
276.325
30
0
0
VERTEX
8
CUT
10
180.500
20
276.325
30
0
0
VERTEX
8
CUT
10
180.500
20
297.000
30
0
0
VERTEX
8
CUT
10
194.650
20
297.000
30
0
0
SEQEND
8
CUT
0
POLYLINE
8
CUT
66
1
70
1
10
0
20
0
30
0
0
VERTEX
8
CUT
10
180.500
20
242.608
30
0
0
VERTEX
8
CUT
10
182.375
20
242.642
30
0
0
VERTEX
8
CUT
10
184.179
20
243.231
30
0
0
VERTEX
8
CUT
10
185.920
20
244.351
30
0
0
VERTEX
8
CUT
10
187.530
20
245.957
30
0
0
VERTEX
8
CUT
10
188.950
20
247.988
30
0
0
VERTEX
8
CUT
10
190.127
20
250.364
30
0
0
VERTEX
8
CUT
10
191.015
20
252.996
30
0
0
VERTEX
8
CUT
10
191.581
20
255.782
30
0
0
VERTEX
8
CUT
10
191.805
20
258.617
30
0
0
VERTEX
8
CUT
10
191.676
20
261.391
30
0
0
VERTEX
8
CUT
10
191.201
20
264.000
30
0
0
VERTEX
8
CUT
10
190.395
20
266.343
30
0
0
VERTEX
8
CUT
10
189.290
20
268.331
30
0
0
VERTEX
8
CUT
10
187.926
20
269.887
30
0
0
VERTEX
8
CUT
10
186.353
20
270.951
30
0
0
VERTEX
8
CUT
10
184.560
20
271.500
30
0
0
SEQEND
8
CUT
0
POLYLINE
8
CUT
66
1
70
1
10
0
20
0
30
0
0
VERTEX
8
CUT
10
305.151
20
240.425
30
0
0
VERTEX
8
CUT
10
305.024
20
241.707
30
0
0
VERTEX
8
CUT
10
304.650
20
242.941
30
0
0
VERTEX
8
CUT
10
304.043
20
244.078
30
0
0
VERTEX
8
CUT
10
303.225
20
245.074
30
0
0
VERTEX
8
CUT
10
302.228
20
245.892
30
0
0
VERTEX
8
CUT
10
301.092
20
246.499
30
0
0
VERTEX
8
CUT
10
299.858
20
246.874
30
0
0
VERTEX
8
CUT
10
298.575
20
247.000
30
0
0
VERTEX
8
CUT
10
297.293
20
246.874
30
0
0
VERTEX
8
CUT
10
296.059
20
246.499
30
0
0
VERTEX
8
CUT
10
294.922
20
245.892
30
0
0
VERTEX
8
CUT
10
293.926
20
245.074
30
0
0
VERTEX
8
CUT
10
293.108
20
244.078
30
0
0
VERTEX
8
CUT
10
292.501
20
242.941
30
0
0
VERTEX
8
CUT
10
292.126
20
241.707
30
0
0
VERTEX
8
CUT
10
292.000
20
240.425
30
0
0
VERTEX
8
CUT
10
292.126
20
239.142
30
0
0
VERTEX
8
CUT
10
292.501
20
237.908
30
0
0
VERTEX
8
CUT
10
293.108
20
236.772
30
0
0
VERTEX
8
CUT
10
293.926
20
235.775
30
0
0
VERTEX
8
CUT
10
294.922
20
234.957
30
0
0
VERTEX
8
CUT
10
296.059
20
234.350
30
0
0
VERTEX
8
CUT
10
297.293
20
233.976
30
0
0
VERTEX
8
CUT
10
298.575
20
233.849
30
0
0
VERTEX
8
CUT
10
299.858
20
233.976
30
0
0
VERTEX
8
CUT
10
301.092
20
234.350
30
0
0
VERTEX
8
CUT
10
302.228
20
234.957
30
0
0
VERTEX
8
CUT
10
303.225
20
235.775
30
0
0
VERTEX
8
CUT
10
304.043
20
236.772
30
0
0
VERTEX
8
CUT
10
304.650
20
237.908
30
0
0
VERTEX
8
CUT
10
305.024
20
239.142
30
0
0
SEQEND
8
CUT
0
POLYLINE
8
CUT
66
1
70
1
10
0
20
0
30
0
0
VERTEX
8
CUT
10
186.500
20
236.850
30
0
0
VERTEX
8
CUT
10
186.500
20
237.850
30
0
0
VERTEX
8
CUT
10
183.500
20
237.850
30
0
0
VERTEX
8
CUT
10
183.500
20
241.000
30
0
0
VERTEX
8
CUT
10
186.500
20
241.000
30
0
0
VERTEX
8
CUT
10
186.500
20
242.000
30
0
0
VERTEX
8
CUT
10
193.875
20
242.000
30
0
0
VERTEX
8
CUT
10
193.875
20
236.850
30
0
0
SEQEND
8
CUT
0
POLYLINE
8
CUT
66
1
70
1
10
0
20
0
30
0
0
VERTEX
8
CUT
10
295.000
20
226.850
30
0
0
VERTEX
8
CUT
10
295.000
20
227.850
30
0
0
VERTEX
8
CUT
10
292.000
20
227.850
30
0
0
VERTEX
8
CUT
10
292.000
20
231.000
30
0
0
VERTEX
8
CUT
10
295.000
20
231.000
30
0
0
VERTEX
8
CUT
10
295.000
20
232.000
30
0
0
VERTEX
8
CUT
10
302.375
20
232.000
30
0
0
VERTEX
8
CUT
10
302.375
20
226.850
30
0
0
SEQEND
8
CUT
0
ENDSEC
0
EOF
