0
SECTION
2
HEADER
9
$ACADVER
1
AC1009
9
$INSUNITS
70
4
0
ENDSEC
0
SECTION
2
TABLES
0
TABLE
2
LAYER
70
3
0
LAYER
2
CUT
70
0
62
1
6
CONTINUOUS
0
LAYER
2
SCORE
70
0
62
5
6
CONTINUOUS
0
LAYER
2
ENGRAVE
70
0
62
7
6
CONTINUOUS
0
ENDTAB
0
ENDSEC
0
SECTION
2
ENTITIES
0
POLYLINE
8
ENGRAVE
66
1
70
1
10
0
20
0
30
0
0
VERTEX
8
ENGRAVE
10
58.497
20
165.206
30
0
0
VERTEX
8
ENGRAVE
10
59.247
20
165.206
30
0
0
VERTEX
8
ENGRAVE
10
60.091
20
164.925
30
0
0
VERTEX
8
ENGRAVE
10
60.747
20
164.363
30
0
0
VERTEX
8
ENGRAVE
10
61.028
20
163.800
30
0
0
VERTEX
8
ENGRAVE
10
60.934
20
163.613
30
0
0
VERTEX
8
ENGRAVE
10
60.278
20
163.519
30
0
0
VERTEX
8
ENGRAVE
10
60.184
20
163.988
30
0
0
VERTEX
8
ENGRAVE
10
59.247
20
164.550
30
0
0
VERTEX
8
ENGRAVE
10
58.309
20
164.550
30
0
0
VERTEX
8
ENGRAVE
10
57.559
20
163.988
30
0
0
VERTEX
8
ENGRAVE
10
57.466
20
163.519
30
0
0
VERTEX
8
ENGRAVE
10
57.841
20
162.863
30
0
0
VERTEX
8
ENGRAVE
10
60.278
20
162.206
30
0
0
VERTEX
8
ENGRAVE
10
61.122
20
161.456
30
0
0
VERTEX
8
ENGRAVE
10
61.216
20
160.144
30
0
0
VERTEX
8
ENGRAVE
10
61.028
20
159.675
30
0
0
VERTEX
8
ENGRAVE
10
60.559
20
159.206
30
0
0
VERTEX
8
ENGRAVE
10
59.622
20
158.831
30
0
0
VERTEX
8
ENGRAVE
10
57.747
20
159.019
30
0
0
VERTEX
8
ENGRAVE
10
56.809
20
159.769
30
0
0
VERTEX
8
ENGRAVE
10
56.434
20
160.425
30
0
0
VERTEX
8
ENGRAVE
10
56.434
20
160.613
30
0
0
VERTEX
8
ENGRAVE
10
57.184
20
160.706
30
0
0
VERTEX
8
ENGRAVE
10
57.653
20
159.863
30
0
0
VERTEX
8
ENGRAVE
10
58.591
20
159.488
30
0
0
VERTEX
8
ENGRAVE
10
59.716
20
159.581
30
0
0
VERTEX
8
ENGRAVE
10
60.372
20
160.144
30
0
0
VERTEX
8
ENGRAVE
10
60.466
20
160.706
30
0
0
VERTEX
8
ENGRAVE
10
60.184
20
161.269
30
0
0
VERTEX
8
ENGRAVE
10
59.716
20
161.550
30
0
0
VERTEX
8
ENGRAVE
10
57.653
20
162.019
30
0
0
VERTEX
8
ENGRAVE
10
56.809
20
162.863
30
0
0
VERTEX
8
ENGRAVE
10
56.716
20
163.706
30
0
0
VERTEX
8
ENGRAVE
10
56.903
20
164.363
30
0
0
VERTEX
8
ENGRAVE
10
57.372
20
164.831
30
0
0
SEQEND
8
ENGRAVE
0
POLYLINE
8
ENGRAVE
66
1
70
1
10
0
20
0
30
0
0
VERTEX
8
ENGRAVE
10
42.559
20
165.113
30
0
0
VERTEX
8
ENGRAVE
10
43.497
20
165.019
30
0
0
VERTEX
8
ENGRAVE
10
45.372
20
158.925
30
0
0
VERTEX
8
ENGRAVE
10
44.528
20
159.019
30
0
0
VERTEX
8
ENGRAVE
10
44.059
20
160.706
30
0
0
VERTEX
8
ENGRAVE
10
41.716
20
160.706
30
0
0
VERTEX
8
ENGRAVE
10
41.247
20
159.019
30
0
0
VERTEX
8
ENGRAVE
10
40.497
20
158.925
30
0
0
SEQEND
8
ENGRAVE
0
POLYLINE
8
ENGRAVE
66
1
70
1
10
0
20
0
30
0
0
VERTEX
8
ENGRAVE
10
46.216
20
165.113
30
0
0
VERTEX
8
ENGRAVE
10
49.403
20
165.019
30
0
0
VERTEX
8
ENGRAVE
10
50.341
20
164.363
30
0
0
VERTEX
8
ENGRAVE
10
50.622
20
163.425
30
0
0
VERTEX
8
ENGRAVE
10
50.528
20
162.769
30
0
0
VERTEX
8
ENGRAVE
10
49.966
20
162.019
30
0
0
VERTEX
8
ENGRAVE
10
49.497
20
161.831
30
0
0
VERTEX
8
ENGRAVE
10
49.497
20
161.550
30
0
0
VERTEX
8
ENGRAVE
10
50.622
20
158.925
30
0
0
VERTEX
8
ENGRAVE
10
49.778
20
158.925
30
0
0
VERTEX
8
ENGRAVE
10
48.747
20
161.550
30
0
0
VERTEX
8
ENGRAVE
10
46.966
20
161.550
30
0
0
VERTEX
8
ENGRAVE
10
46.966
20
158.925
30
0
0
VERTEX
8
ENGRAVE
10
46.216
20
158.925
30
0
0
SEQEND
8
ENGRAVE
0
POLYLINE
8
ENGRAVE
66
1
70
1
10
0
20
0
30
0
0
VERTEX
8
ENGRAVE
10
51.747
20
165.113
30
0
0
VERTEX
8
ENGRAVE
10
55.684
20
165.113
30
0
0
VERTEX
8
ENGRAVE
10
55.684
20
164.456
30
0
0
VERTEX
8
ENGRAVE
10
52.591
20
164.456
30
0
0
VERTEX
8
ENGRAVE
10
52.591
20
162.488
30
0
0
VERTEX
8
ENGRAVE
10
55.028
20
162.488
30
0
0
VERTEX
8
ENGRAVE
10
55.028
20
161.831
30
0
0
VERTEX
8
ENGRAVE
10
52.591
20
161.831
30
0
0
VERTEX
8
ENGRAVE
10
52.591
20
159.581
30
0
0
VERTEX
8
ENGRAVE
10
55.778
20
159.581
30
0
0
VERTEX
8
ENGRAVE
10
55.778
20
158.925
30
0
0
VERTEX
8
ENGRAVE
10
51.747
20
158.925
30
0
0
SEQEND
8
ENGRAVE
0
POLYLINE
8
ENGRAVE
66
1
70
1
10
0
20
0
30
0
0
VERTEX
8
ENGRAVE
10
67.028
20
165.113
30
0
0
VERTEX
8
ENGRAVE
10
67.591
20
165.113
30
0
0
VERTEX
8
ENGRAVE
10
67.591
20
159.488
30
0
0
VERTEX
8
ENGRAVE
10
69.372
20
159.488
30
0
0
VERTEX
8
ENGRAVE
10
69.372
20
158.925
30
0
0
VERTEX
8
ENGRAVE
10
65.059
20
158.925
30
0
0
VERTEX
8
ENGRAVE
10
65.059
20
159.488
30
0
0
VERTEX
8
ENGRAVE
10
66.841
20
159.488
30
0
0
VERTEX
8
ENGRAVE
10
66.841
20
164.081
30
0
0
VERTEX
8
ENGRAVE
10
65.341
20
162.863
30
0
0
VERTEX
8
ENGRAVE
10
65.153
20
162.863
30
0
0
VERTEX
8
ENGRAVE
10
65.153
20
163.613
30
0
0
VERTEX
8
ENGRAVE
10
66.278
20
164.269
30
0
0
SEQEND
8
ENGRAVE
0
POLYLINE
8
ENGRAVE
66
1
70
1
10
0
20
0
30
0
0
VERTEX
8
ENGRAVE
10
47.059
20
164.456
30
0
0
VERTEX
8
ENGRAVE
10
46.966
20
162.206
30
0
0
VERTEX
8
ENGRAVE
10
49.122
20
162.300
30
0
0
VERTEX
8
ENGRAVE
10
49.684
20
162.769
30
0
0
VERTEX
8
ENGRAVE
10
49.778
20
163.706
30
0
0
VERTEX
8
ENGRAVE
10
49.497
20
164.175
30
0
0
VERTEX
8
ENGRAVE
10
48.747
20
164.456
30
0
0
SEQEND
8
ENGRAVE
0
POLYLINE
8
ENGRAVE
66
1
70
1
10
0
20
0
30
0
0
VERTEX
8
ENGRAVE
10
42.934
20
164.175
30
0
0
VERTEX
8
ENGRAVE
10
41.997
20
161.363
30
0
0
VERTEX
8
ENGRAVE
10
43.778
20
161.363
30
0
0
SEQEND
8
ENGRAVE
0
POLYLINE
8
ENGRAVE
66
1
70
1
10
0
20
0
30
0
0
VERTEX
8
ENGRAVE
10
61.684
20
161.550
30
0
0
VERTEX
8
ENGRAVE
10
63.559
20
161.550
30
0
0
VERTEX
8
ENGRAVE
10
63.559
20
160.988
30
0
0
VERTEX
8
ENGRAVE
10
61.591
20
160.988
30
0
0
SEQEND
8
ENGRAVE
0
POLYLINE
8
ENGRAVE
66
1
70
1
10
0
20
0
30
0
0
VERTEX
8
ENGRAVE
10
134.621
20
155.842
30
0
0
VERTEX
8
ENGRAVE
10
136.079
20
155.800
30
0
0
VERTEX
8
ENGRAVE
10
136.454
20
155.467
30
0
0
VERTEX
8
ENGRAVE
10
136.454
20
154.842
30
0
0
VERTEX
8
ENGRAVE
10
136.246
20
154.633
30
0
0
VERTEX
8
ENGRAVE
10
136.037
20
154.550
30
0
0
VERTEX
8
ENGRAVE
10
136.329
20
154.425
30
0
0
VERTEX
8
ENGRAVE
10
136.579
20
154.050
30
0
0
VERTEX
8
ENGRAVE
10
136.537
20
153.508
30
0
0
VERTEX
8
ENGRAVE
10
136.287
20
153.217
30
0
0
VERTEX
8
ENGRAVE
10
135.954
20
153.092
30
0
0
VERTEX
8
ENGRAVE
10
134.621
20
153.092
30
0
0
SEQEND
8
ENGRAVE
0
POLYLINE
8
ENGRAVE
66
1
70
1
10
0
20
0
30
0
0
VERTEX
8
ENGRAVE
10
138.162
20
155.842
30
0
0
VERTEX
8
ENGRAVE
10
138.579
20
155.842
30
0
0
VERTEX
8
ENGRAVE
10
138.579
20
154.008
30
0
0
VERTEX
8
ENGRAVE
10
139.037
20
154.008
30
0
0
VERTEX
8
ENGRAVE
10
139.037
20
153.717
30
0
0
VERTEX
8
ENGRAVE
10
138.579
20
153.717
30
0
0
VERTEX
8
ENGRAVE
10
138.579
20
153.092
30
0
0
VERTEX
8
ENGRAVE
10
138.246
20
153.092
30
0
0
VERTEX
8
ENGRAVE
10
138.246
20
153.717
30
0
0
VERTEX
8
ENGRAVE
10
136.912
20
153.717
30
0
0
VERTEX
8
ENGRAVE
10
136.912
20
154.008
30
0
0
SEQEND
8
ENGRAVE
0
POLYLINE
8
ENGRAVE
66
1
70
1
10
0
20
0
30
0
0
VERTEX
8
ENGRAVE
10
134.996
20
155.550
30
0
0
VERTEX
8
ENGRAVE
10
134.954
20
154.675
30
0
0
VERTEX
8
ENGRAVE
10
135.829
20
154.675
30
0
0
VERTEX
8
ENGRAVE
10
136.121
20
154.883
30
0
0
VERTEX
8
ENGRAVE
10
136.162
20
155.217
30
0
0
VERTEX
8
ENGRAVE
10
135.954
20
155.508
30
0
0
SEQEND
8
ENGRAVE
0
POLYLINE
8
ENGRAVE
66
1
70
1
10
0
20
0
30
0
0
VERTEX
8
ENGRAVE
10
138.246
20
155.508
30
0
0
VERTEX
8
ENGRAVE
10
138.079
20
155.342
30
0
0
VERTEX
8
ENGRAVE
10
137.287
20
154.008
30
0
0
VERTEX
8
ENGRAVE
10
138.246
20
154.008
30
0
0
SEQEND
8
ENGRAVE
0
POLYLINE
8
ENGRAVE
66
1
70
1
10
0
20
0
30
0
0
VERTEX
8
ENGRAVE
10
134.996
20
154.383
30
0
0
VERTEX
8
ENGRAVE
10
134.954
20
153.383
30
0
0
VERTEX
8
ENGRAVE
10
135.829
20
153.383
30
0
0
VERTEX
8
ENGRAVE
10
136.204
20
153.633
30
0
0
VERTEX
8
ENGRAVE
10
136.204
20
154.133
30
0
0
VERTEX
8
ENGRAVE
10
135.996
20
154.342
30
0
0
SEQEND
8
ENGRAVE
0
POLYLINE
8
ENGRAVE
66
1
70
1
10
0
20
0
30
0
0
VERTEX
8
ENGRAVE
10
93.036
20
82.360
30
0
0
VERTEX
8
ENGRAVE
10
93.036
20
82.694
30
0
0
VERTEX
8
ENGRAVE
10
94.161
20
82.694
30
0
0
VERTEX
8
ENGRAVE
10
94.161
20
83.985
30
0
0
VERTEX
8
ENGRAVE
10
93.036
20
83.985
30
0
0
VERTEX
8
ENGRAVE
10
93.036
20
84.319
30
0
0
VERTEX
8
ENGRAVE
10
95.786
20
84.319
30
0
0
VERTEX
8
ENGRAVE
10
95.786
20
83.985
30
0
0
VERTEX
8
ENGRAVE
10
94.494
20
83.985
30
0
0
VERTEX
8
ENGRAVE
10
94.494
20
82.694
30
0
0
VERTEX
8
ENGRAVE
10
95.786
20
82.694
30
0
0
VERTEX
8
ENGRAVE
10
95.786
20
82.360
30
0
0
SEQEND
8
ENGRAVE
0
POLYLINE
8
ENGRAVE
66
1
70
1
10
0
20
0
30
0
0
VERTEX
8
ENGRAVE
10
93.036
20
85.860
30
0
0
VERTEX
8
ENGRAVE
10
93.036
20
86.110
30
0
0
VERTEX
8
ENGRAVE
10
95.536
20
86.110
30
0
0
VERTEX
8
ENGRAVE
10
95.536
20
86.902
30
0
0
VERTEX
8
ENGRAVE
10
95.786
20
86.902
30
0
0
VERTEX
8
ENGRAVE
10
95.786
20
84.985
30
0
0
VERTEX
8
ENGRAVE
10
95.536
20
84.985
30
0
0
VERTEX
8
ENGRAVE
10
95.536
20
85.777
30
0
0
VERTEX
8
ENGRAVE
10
93.494
20
85.777
30
0
0
VERTEX
8
ENGRAVE
10
94.036
20
85.110
30
0
0
VERTEX
8
ENGRAVE
10
94.036
20
85.027
30
0
0
VERTEX
8
ENGRAVE
10
93.702
20
85.027
30
0
0
VERTEX
8
ENGRAVE
10
93.411
20
85.527
30
0
0
SEQEND
8
ENGRAVE
0
POLYLINE
8
SCORE
66
1
70
1
10
0
20
0
30
0
0
VERTEX
8
SCORE
10
84.725
20
97.775
30
0
0
VERTEX
8
SCORE
10
82.241
20
97.667
30
0
0
VERTEX
8
SCORE
10
79.776
20
97.342
30
0
0
VERTEX
8
SCORE
10
77.349
20
96.804
30
0
0
VERTEX
8
SCORE
10
74.977
20
96.056
30
0
0
VERTEX
8
SCORE
10
72.680
20
95.105
30
0
0
VERTEX
8
SCORE
10
70.475
20
93.957
30
0
0
VERTEX
8
SCORE
10
68.378
20
92.621
30
0
0
VERTEX
8
SCORE
10
66.406
20
91.107
30
0
0
VERTEX
8
SCORE
10
64.572
20
89.428
30
0
0
VERTEX
8
SCORE
10
62.893
20
87.594
30
0
0
VERTEX
8
SCORE
10
61.379
20
85.622
30
0
0
VERTEX
8
SCORE
10
60.043
20
83.525
30
0
0
VERTEX
8
SCORE
10
58.895
20
81.320
30
0
0
VERTEX
8
SCORE
10
57.944
20
79.023
30
0
0
VERTEX
8
SCORE
10
57.196
20
76.651
30
0
0
VERTEX
8
SCORE
10
56.658
20
74.224
30
0
0
VERTEX
8
SCORE
10
56.333
20
71.759
30
0
0
VERTEX
8
SCORE
10
56.225
20
69.275
30
0
0
VERTEX
8
SCORE
10
56.333
20
66.791
30
0
0
VERTEX
8
SCORE
10
56.658
20
64.326
30
0
0
VERTEX
8
SCORE
10
57.196
20
61.899
30
0
0
VERTEX
8
SCORE
10
57.944
20
59.527
30
0
0
VERTEX
8
SCORE
10
58.895
20
57.230
30
0
0
VERTEX
8
SCORE
10
60.043
20
55.025
30
0
0
VERTEX
8
SCORE
10
61.379
20
52.928
30
0
0
VERTEX
8
SCORE
10
62.893
20
50.956
30
0
0
VERTEX
8
SCORE
10
64.572
20
49.122
30
0
0
VERTEX
8
SCORE
10
66.406
20
47.443
30
0
0
VERTEX
8
SCORE
10
68.378
20
45.929
30
0
0
VERTEX
8
SCORE
10
70.475
20
44.593
30
0
0
VERTEX
8
SCORE
10
72.680
20
43.445
30
0
0
VERTEX
8
SCORE
10
74.977
20
42.494
30
0
0
VERTEX
8
SCORE
10
77.349
20
41.746
30
0
0
VERTEX
8
SCORE
10
79.776
20
41.208
30
0
0
VERTEX
8
SCORE
10
82.241
20
40.883
30
0
0
VERTEX
8
SCORE
10
84.725
20
40.775
30
0
0
VERTEX
8
SCORE
10
87.209
20
40.883
30
0
0
VERTEX
8
SCORE
10
89.674
20
41.208
30
0
0
VERTEX
8
SCORE
10
92.101
20
41.746
30
0
0
VERTEX
8
SCORE
10
94.473
20
42.494
30
0
0
VERTEX
8
SCORE
10
96.770
20
43.445
30
0
0
VERTEX
8
SCORE
10
98.975
20
44.593
30
0
0
VERTEX
8
SCORE
10
101.072
20
45.929
30
0
0
VERTEX
8
SCORE
10
103.044
20
47.443
30
0
0
VERTEX
8
SCORE
10
104.878
20
49.122
30
0
0
VERTEX
8
SCORE
10
106.557
20
50.956
30
0
0
VERTEX
8
SCORE
10
108.071
20
52.928
30
0
0
VERTEX
8
SCORE
10
109.407
20
55.025
30
0
0
VERTEX
8
SCORE
10
110.555
20
57.230
30
0
0
VERTEX
8
SCORE
10
111.506
20
59.527
30
0
0
VERTEX
8
SCORE
10
112.254
20
61.899
30
0
0
VERTEX
8
SCORE
10
112.792
20
64.326
30
0
0
VERTEX
8
SCORE
10
113.117
20
66.791
30
0
0
VERTEX
8
SCORE
10
113.225
20
69.275
30
0
0
VERTEX
8
SCORE
10
113.117
20
71.759
30
0
0
VERTEX
8
SCORE
10
112.792
20
74.224
30
0
0
VERTEX
8
SCORE
10
112.254
20
76.651
30
0
0
VERTEX
8
SCORE
10
111.506
20
79.023
30
0
0
VERTEX
8
SCORE
10
110.555
20
81.320
30
0
0
VERTEX
8
SCORE
10
109.407
20
83.525
30
0
0
VERTEX
8
SCORE
10
108.071
20
85.622
30
0
0
VERTEX
8
SCORE
10
106.557
20
87.594
30
0
0
VERTEX
8
SCORE
10
104.878
20
89.428
30
0
0
VERTEX
8
SCORE
10
103.044
20
91.107
30
0
0
VERTEX
8
SCORE
10
101.072
20
92.621
30
0
0
VERTEX
8
SCORE
10
98.975
20
93.957
30
0
0
VERTEX
8
SCORE
10
96.770
20
95.105
30
0
0
VERTEX
8
SCORE
10
94.473
20
96.056
30
0
0
VERTEX
8
SCORE
10
92.101
20
96.804
30
0
0
VERTEX
8
SCORE
10
89.674
20
97.342
30
0
0
VERTEX
8
SCORE
10
87.209
20
97.667
30
0
0
SEQEND
8
SCORE
0
POLYLINE
8
ENGRAVE
66
1
70
1
10
0
20
0
30
0
0
VERTEX
8
ENGRAVE
10
238.308
20
170.420
30
0
0
VERTEX
8
ENGRAVE
10
238.308
20
170.753
30
0
0
VERTEX
8
ENGRAVE
10
239.433
20
170.753
30
0
0
VERTEX
8
ENGRAVE
10
239.433
20
172.045
30
0
0
VERTEX
8
ENGRAVE
10
238.308
20
172.045
30
0
0
VERTEX
8
ENGRAVE
10
238.308
20
172.378
30
0
0
VERTEX
8
ENGRAVE
10
241.058
20
172.378
30
0
0
VERTEX
8
ENGRAVE
10
241.058
20
172.045
30
0
0
VERTEX
8
ENGRAVE
10
239.767
20
172.045
30
0
0
VERTEX
8
ENGRAVE
10
239.767
20
170.753
30
0
0
VERTEX
8
ENGRAVE
10
241.058
20
170.753
30
0
0
VERTEX
8
ENGRAVE
10
241.058
20
170.420
30
0
0
SEQEND
8
ENGRAVE
0
POLYLINE
8
ENGRAVE
66
1
70
1
10
0
20
0
30
0
0
VERTEX
8
ENGRAVE
10
238.308
20
173.920
30
0
0
VERTEX
8
ENGRAVE
10
238.350
20
174.212
30
0
0
VERTEX
8
ENGRAVE
10
240.808
20
174.212
30
0
0
VERTEX
8
ENGRAVE
10
240.808
20
174.962
30
0
0
VERTEX
8
ENGRAVE
10
241.058
20
174.962
30
0
0
VERTEX
8
ENGRAVE
10
241.058
20
173.045
30
0
0
VERTEX
8
ENGRAVE
10
240.808
20
173.045
30
0
0
VERTEX
8
ENGRAVE
10
240.808
20
173.837
30
0
0
VERTEX
8
ENGRAVE
10
238.767
20
173.837
30
0
0
VERTEX
8
ENGRAVE
10
239.308
20
173.170
30
0
0
VERTEX
8
ENGRAVE
10
239.308
20
173.087
30
0
0
VERTEX
8
ENGRAVE
10
238.975
20
173.087
30
0
0
VERTEX
8
ENGRAVE
10
238.725
20
173.545
30
0
0
SEQEND
8
ENGRAVE
0
POLYLINE
8
ENGRAVE
66
1
70
1
10
0
20
0
30
0
0
VERTEX
8
ENGRAVE
10
238.308
20
175.462
30
0
0
VERTEX
8
ENGRAVE
10
238.308
20
177.253
30
0
0
VERTEX
8
ENGRAVE
10
238.642
20
177.212
30
0
0
VERTEX
8
ENGRAVE
10
239.017
20
176.878
30
0
0
VERTEX
8
ENGRAVE
10
239.767
20
176.503
30
0
0
VERTEX
8
ENGRAVE
10
240.350
20
176.337
30
0
0
VERTEX
8
ENGRAVE
10
241.058
20
176.295
30
0
0
VERTEX
8
ENGRAVE
10
241.058
20
175.920
30
0
0
VERTEX
8
ENGRAVE
10
240.308
20
176.003
30
0
0
VERTEX
8
ENGRAVE
10
239.767
20
176.170
30
0
0
VERTEX
8
ENGRAVE
10
239.183
20
176.462
30
0
0
VERTEX
8
ENGRAVE
10
238.600
20
176.878
30
0
0
VERTEX
8
ENGRAVE
10
238.600
20
175.420
30
0
0
SEQEND
8
ENGRAVE
0
POLYLINE
8
ENGRAVE
66
1
70
1
10
0
20
0
30
0
0
VERTEX
8
ENGRAVE
10
270.725
20
164.315
30
0
0
VERTEX
8
ENGRAVE
10
271.016
20
164.315
30
0
0
VERTEX
8
ENGRAVE
10
271.391
20
164.190
30
0
0
VERTEX
8
ENGRAVE
10
271.683
20
163.898
30
0
0
VERTEX
8
ENGRAVE
10
271.933
20
163.190
30
0
0
VERTEX
8
ENGRAVE
10
271.933
20
162.565
30
0
0
VERTEX
8
ENGRAVE
10
271.683
20
161.898
30
0
0
VERTEX
8
ENGRAVE
10
271.391
20
161.607
30
0
0
VERTEX
8
ENGRAVE
10
271.058
20
161.482
30
0
0
VERTEX
8
ENGRAVE
10
270.725
20
161.482
30
0
0
VERTEX
8
ENGRAVE
10
270.391
20
161.607
30
0
0
VERTEX
8
ENGRAVE
10
270.100
20
161.898
30
0
0
VERTEX
8
ENGRAVE
10
269.850
20
162.607
30
0
0
VERTEX
8
ENGRAVE
10
269.850
20
163.190
30
0
0
VERTEX
8
ENGRAVE
10
269.975
20
163.690
30
0
0
VERTEX
8
ENGRAVE
10
270.266
20
164.107
30
0
0
SEQEND
8
ENGRAVE
0
POLYLINE
8
ENGRAVE
66
1
70
1
10
0
20
0
30
0
0
VERTEX
8
ENGRAVE
10
264.975
20
164.273
30
0
0
VERTEX
8
ENGRAVE
10
265.308
20
164.273
30
0
0
VERTEX
8
ENGRAVE
10
265.308
20
163.148
30
0
0
VERTEX
8
ENGRAVE
10
266.600
20
163.148
30
0
0
VERTEX
8
ENGRAVE
10
266.600
20
164.273
30
0
0
VERTEX
8
ENGRAVE
10
266.933
20
164.273
30
0
0
VERTEX
8
ENGRAVE
10
266.933
20
161.523
30
0
0
VERTEX
8
ENGRAVE
10
266.600
20
161.523
30
0
0
VERTEX
8
ENGRAVE
10
266.600
20
162.815
30
0
0
VERTEX
8
ENGRAVE
10
265.308
20
162.815
30
0
0
VERTEX
8
ENGRAVE
10
265.308
20
161.523
30
0
0
VERTEX
8
ENGRAVE
10
264.975
20
161.523
30
0
0
SEQEND
8
ENGRAVE
0
POLYLINE
8
ENGRAVE
66
1
70
1
10
0
20
0
30
0
0
VERTEX
8
ENGRAVE
10
268.475
20
164.273
30
0
0
VERTEX
8
ENGRAVE
10
268.766
20
164.232
30
0
0
VERTEX
8
ENGRAVE
10
268.766
20
161.773
30
0
0
VERTEX
8
ENGRAVE
10
269.516
20
161.773
30
0
0
VERTEX
8
ENGRAVE
10
269.516
20
161.523
30
0
0
VERTEX
8
ENGRAVE
10
267.600
20
161.523
30
0
0
VERTEX
8
ENGRAVE
10
267.600
20
161.773
30
0
0
VERTEX
8
ENGRAVE
10
268.391
20
161.773
30
0
0
VERTEX
8
ENGRAVE
10
268.391
20
163.815
30
0
0
VERTEX
8
ENGRAVE
10
267.725
20
163.273
30
0
0
VERTEX
8
ENGRAVE
10
267.641
20
163.273
30
0
0
VERTEX
8
ENGRAVE
10
267.641
20
163.607
30
0
0
VERTEX
8
ENGRAVE
10
268.100
20
163.857
30
0
0
SEQEND
8
ENGRAVE
0
POLYLINE
8
ENGRAVE
66
1
70
1
10
0
20
0
30
0
0
VERTEX
8
ENGRAVE
10
270.683
20
164.023
30
0
0
VERTEX
8
ENGRAVE
10
270.391
20
163.815
30
0
0
VERTEX
8
ENGRAVE
10
270.266
20
163.523
30
0
0
VERTEX
8
ENGRAVE
10
270.225
20
162.482
30
0
0
VERTEX
8
ENGRAVE
10
270.475
20
161.898
30
0
0
VERTEX
8
ENGRAVE
10
270.641
20
161.773
30
0
0
VERTEX
8
ENGRAVE
10
270.933
20
161.732
30
0
0
VERTEX
8
ENGRAVE
10
271.266
20
161.857
30
0
0
VERTEX
8
ENGRAVE
10
271.475
20
162.148
30
0
0
VERTEX
8
ENGRAVE
10
271.558
20
162.440
30
0
0
VERTEX
8
ENGRAVE
10
271.558
20
163.315
30
0
0
VERTEX
8
ENGRAVE
10
271.391
20
163.773
30
0
0
VERTEX
8
ENGRAVE
10
271.183
20
163.982
30
0
0
SEQEND
8
ENGRAVE
0
POLYLINE
8
CUT
66
1
70
1
10
0
20
0
30
0
0
VERTEX
8
CUT
10
89.452
20
124.925
30
0
0
VERTEX
8
CUT
10
89.613
20
125.629
30
0
0
VERTEX
8
CUT
10
90.063
20
126.194
30
0
0
VERTEX
8
CUT
10
90.714
20
126.507
30
0
0
VERTEX
8
CUT
10
91.436
20
126.507
30
0
0
VERTEX
8
CUT
10
92.087
20
126.194
30
0
0
VERTEX
8
CUT
10
92.537
20
125.629
30
0
0
VERTEX
8
CUT
10
92.698
20
124.925
30
0
0
VERTEX
8
CUT
10
92.537
20
124.221
30
0
0
VERTEX
8
CUT
10
92.087
20
123.656
30
0
0
VERTEX
8
CUT
10
91.436
20
123.343
30
0
0
VERTEX
8
CUT
10
90.714
20
123.343
30
0
0
VERTEX
8
CUT
10
90.063
20
123.656
30
0
0
VERTEX
8
CUT
10
89.613
20
124.221
30
0
0
SEQEND
8
CUT
0
POLYLINE
8
CUT
66
1
70
1
10
0
20
0
30
0
0
VERTEX
8
CUT
10
48.452
20
124.925
30
0
0
VERTEX
8
CUT
10
48.613
20
125.629
30
0
0
VERTEX
8
CUT
10
49.063
20
126.194
30
0
0
VERTEX
8
CUT
10
49.714
20
126.507
30
0
0
VERTEX
8
CUT
10
50.436
20
126.507
30
0
0
VERTEX
8
CUT
10
51.087
20
126.194
30
0
0
VERTEX
8
CUT
10
51.537
20
125.629
30
0
0
VERTEX
8
CUT
10
51.698
20
124.925
30
0
0
VERTEX
8
CUT
10
51.537
20
124.221
30
0
0
VERTEX
8
CUT
10
51.087
20
123.656
30
0
0
VERTEX
8
CUT
10
50.436
20
123.343
30
0
0
VERTEX
8
CUT
10
49.714
20
123.343
30
0
0
VERTEX
8
CUT
10
49.063
20
123.656
30
0
0
VERTEX
8
CUT
10
48.613
20
124.221
30
0
0
SEQEND
8
CUT
0
POLYLINE
8
CUT
66
1
70
1
10
0
20
0
30
0
0
VERTEX
8
CUT
10
11.050
20
131.450
30
0
0
VERTEX
8
CUT
10
8.100
20
131.450
30
0
0
VERTEX
8
CUT
10
8.100
20
141.400
30
0
0
VERTEX
8
CUT
10
11.050
20
141.400
30
0
0
SEQEND
8
CUT
0
POLYLINE
8
CUT
66
1
70
1
10
0
20
0
30
0
0
VERTEX
8
CUT
10
11.050
20
170.450
30
0
0
VERTEX
8
CUT
10
8.100
20
170.450
30
0
0
VERTEX
8
CUT
10
8.100
20
180.400
30
0
0
VERTEX
8
CUT
10
11.050
20
180.400
30
0
0
SEQEND
8
CUT
0
POLYLINE
8
CUT
66
1
70
1
10
0
20
0
30
0
0
VERTEX
8
CUT
10
102.050
20
131.450
30
0
0
VERTEX
8
CUT
10
99.100
20
131.450
30
0
0
VERTEX
8
CUT
10
99.100
20
141.400
30
0
0
VERTEX
8
CUT
10
102.050
20
141.400
30
0
0
SEQEND
8
CUT
0
POLYLINE
8
CUT
66
1
70
1
10
0
20
0
30
0
0
VERTEX
8
CUT
10
102.050
20
170.450
30
0
0
VERTEX
8
CUT
10
99.100
20
170.450
30
0
0
VERTEX
8
CUT
10
99.100
20
180.400
30
0
0
VERTEX
8
CUT
10
102.050
20
180.400
30
0
0
SEQEND
8
CUT
0
POLYLINE
8
CUT
66
1
70
1
10
0
20
0
30
0
0
VERTEX
8
CUT
10
103.080
20
116.850
30
0
0
VERTEX
8
CUT
10
7.070
20
116.850
30
0
0
VERTEX
8
CUT
10
6.538
20
116.920
30
0
0
VERTEX
8
CUT
10
6.037
20
117.127
30
0
0
VERTEX
8
CUT
10
5.607
20
117.457
30
0
0
VERTEX
8
CUT
10
5.277
20
117.887
30
0
0
VERTEX
8
CUT
10
5.070
20
118.388
30
0
0
VERTEX
8
CUT
10
5.000
20
118.920
30
0
0
VERTEX
8
CUT
10
5.000
20
192.930
30
0
0
VERTEX
8
CUT
10
5.070
20
193.462
30
0
0
VERTEX
8
CUT
10
5.277
20
193.963
30
0
0
VERTEX
8
CUT
10
5.607
20
194.393
30
0
0
VERTEX
8
CUT
10
6.037
20
194.723
30
0
0
VERTEX
8
CUT
10
6.538
20
194.930
30
0
0
VERTEX
8
CUT
10
7.070
20
195.000
30
0
0
VERTEX
8
CUT
10
103.080
20
195.000
30
0
0
VERTEX
8
CUT
10
103.612
20
194.930
30
0
0
VERTEX
8
CUT
10
104.113
20
194.723
30
0
0
VERTEX
8
CUT
10
104.543
20
194.393
30
0
0
VERTEX
8
CUT
10
104.873
20
193.963
30
0
0
VERTEX
8
CUT
10
105.080
20
193.462
30
0
0
VERTEX
8
CUT
10
105.150
20
192.930
30
0
0
VERTEX
8
CUT
10
105.150
20
118.920
30
0
0
VERTEX
8
CUT
10
105.080
20
118.388
30
0
0
VERTEX
8
CUT
10
104.873
20
117.887
30
0
0
VERTEX
8
CUT
10
104.543
20
117.457
30
0
0
VERTEX
8
CUT
10
104.113
20
117.127
30
0
0
VERTEX
8
CUT
10
103.612
20
116.920
30
0
0
SEQEND
8
CUT
0
POLYLINE
8
CUT
66
1
70
1
10
0
20
0
30
0
0
VERTEX
8
CUT
10
156.612
20
124.925
30
0
0
VERTEX
8
CUT
10
158.168
20
127.621
30
0
0
VERTEX
8
CUT
10
161.282
20
127.621
30
0
0
VERTEX
8
CUT
10
162.838
20
124.925
30
0
0
VERTEX
8
CUT
10
161.282
20
122.229
30
0
0
VERTEX
8
CUT
10
158.168
20
122.229
30
0
0
SEQEND
8
CUT
0
POLYLINE
8
CUT
66
1
70
1
10
0
20
0
30
0
0
VERTEX
8
CUT
10
115.612
20
124.925
30
0
0
VERTEX
8
CUT
10
117.168
20
127.621
30
0
0
VERTEX
8
CUT
10
120.282
20
127.621
30
0
0
VERTEX
8
CUT
10
121.838
20
124.925
30
0
0
VERTEX
8
CUT
10
120.282
20
122.229
30
0
0
VERTEX
8
CUT
10
117.168
20
122.229
30
0
0
SEQEND
8
CUT
0
POLYLINE
8
CUT
66
1
70
1
10
0
20
0
30
0
0
VERTEX
8
CUT
10
113.700
20
130.700
30
0
0
VERTEX
8
CUT
10
110.750
20
130.700
30
0
0
VERTEX
8
CUT
10
110.750
20
140.650
30
0
0
VERTEX
8
CUT
10
113.700
20
140.650
30
0
0
SEQEND
8
CUT
0
POLYLINE
8
CUT
66
1
70
1
10
0
20
0
30
0
0
VERTEX
8
CUT
10
113.700
20
168.200
30
0
0
VERTEX
8
CUT
10
110.750
20
168.200
30
0
0
VERTEX
8
CUT
10
110.750
20
178.150
30
0
0
VERTEX
8
CUT
10
113.700
20
178.150
30
0
0
SEQEND
8
CUT
0
POLYLINE
8
CUT
66
1
70
1
10
0
20
0
30
0
0
VERTEX
8
CUT
10
165.800
20
116.850
30
0
0
VERTEX
8
CUT
10
157.050
20
116.850
30
0
0
VERTEX
8
CUT
10
157.050
20
113.850
30
0
0
VERTEX
8
CUT
10
146.900
20
113.850
30
0
0
VERTEX
8
CUT
10
146.900
20
116.850
30
0
0
VERTEX
8
CUT
10
129.550
20
116.850
30
0
0
VERTEX
8
CUT
10
129.550
20
113.850
30
0
0
VERTEX
8
CUT
10
119.400
20
113.850
30
0
0
VERTEX
8
CUT
10
119.400
20
116.850
30
0
0
VERTEX
8
CUT
10
107.650
20
116.850
30
0
0
VERTEX
8
CUT
10
107.650
20
192.000
30
0
0
VERTEX
8
CUT
10
119.400
20
192.000
30
0
0
VERTEX
8
CUT
10
119.400
20
195.000
30
0
0
VERTEX
8
CUT
10
129.550
20
195.000
30
0
0
VERTEX
8
CUT
10
129.550
20
192.000
30
0
0
VERTEX
8
CUT
10
146.900
20
192.000
30
0
0
VERTEX
8
CUT
10
146.900
20
195.000
30
0
0
VERTEX
8
CUT
10
157.050
20
195.000
30
0
0
VERTEX
8
CUT
10
157.050
20
192.000
30
0
0
VERTEX
8
CUT
10
165.800
20
192.000
30
0
0
SEQEND
8
CUT
0
POLYLINE
8
CUT
66
1
70
1
10
0
20
0
30
0
0
VERTEX
8
CUT
10
45.075
20
52.304
30
0
0
VERTEX
8
CUT
10
44.681
20
52.432
30
0
0
VERTEX
8
CUT
10
44.437
20
52.768
30
0
0
VERTEX
8
CUT
10
44.437
20
53.182
30
0
0
VERTEX
8
CUT
10
44.681
20
53.518
30
0
0
VERTEX
8
CUT
10
45.075
20
53.646
30
0
0
VERTEX
8
CUT
10
45.469
20
53.518
30
0
0
VERTEX
8
CUT
10
45.713
20
53.182
30
0
0
VERTEX
8
CUT
10
45.713
20
52.768
30
0
0
VERTEX
8
CUT
10
45.469
20
52.432
30
0
0
SEQEND
8
CUT
0
POLYLINE
8
CUT
66
1
70
1
10
0
20
0
30
0
0
VERTEX
8
CUT
10
45.075
20
49.304
30
0
0
VERTEX
8
CUT
10
44.681
20
49.432
30
0
0
VERTEX
8
CUT
10
44.437
20
49.768
30
0
0
VERTEX
8
CUT
10
44.437
20
50.182
30
0
0
VERTEX
8
CUT
10
44.681
20
50.518
30
0
0
VERTEX
8
CUT
10
45.075
20
50.646
30
0
0
VERTEX
8
CUT
10
45.469
20
50.518
30
0
0
VERTEX
8
CUT
10
45.713
20
50.182
30
0
0
VERTEX
8
CUT
10
45.713
20
49.768
30
0
0
VERTEX
8
CUT
10
45.469
20
49.432
30
0
0
SEQEND
8
CUT
0
POLYLINE
8
CUT
66
1
70
1
10
0
20
0
30
0
0
VERTEX
8
CUT
10
45.075
20
46.304
30
0
0
VERTEX
8
CUT
10
44.681
20
46.432
30
0
0
VERTEX
8
CUT
10
44.437
20
46.768
30
0
0
VERTEX
8
CUT
10
44.437
20
47.182
30
0
0
VERTEX
8
CUT
10
44.681
20
47.518
30
0
0
VERTEX
8
CUT
10
45.075
20
47.646
30
0
0
VERTEX
8
CUT
10
45.469
20
47.518
30
0
0
VERTEX
8
CUT
10
45.713
20
47.182
30
0
0
VERTEX
8
CUT
10
45.713
20
46.768
30
0
0
VERTEX
8
CUT
10
45.469
20
46.432
30
0
0
SEQEND
8
CUT
0
POLYLINE
8
CUT
66
1
70
1
10
0
20
0
30
0
0
VERTEX
8
CUT
10
59.150
20
111.280
30
0
0
VERTEX
8
CUT
10
59.150
20
33.270
30
0
0
VERTEX
8
CUT
10
59.046
20
32.479
30
0
0
VERTEX
8
CUT
10
58.739
20
31.737
30
0
0
VERTEX
8
CUT
10
58.250
20
31.100
30
0
0
VERTEX
8
CUT
10
57.613
20
30.611
30
0
0
VERTEX
8
CUT
10
56.871
20
30.304
30
0
0
VERTEX
8
CUT
10
56.080
20
30.200
30
0
0
VERTEX
8
CUT
10
8.070
20
30.200
30
0
0
VERTEX
8
CUT
10
7.279
20
30.304
30
0
0
VERTEX
8
CUT
10
6.537
20
30.611
30
0
0
VERTEX
8
CUT
10
5.900
20
31.100
30
0
0
VERTEX
8
CUT
10
5.411
20
31.737
30
0
0
VERTEX
8
CUT
10
5.104
20
32.479
30
0
0
VERTEX
8
CUT
10
5.000
20
33.270
30
0
0
VERTEX
8
CUT
10
5.000
20
111.280
30
0
0
VERTEX
8
CUT
10
5.104
20
112.071
30
0
0
VERTEX
8
CUT
10
5.411
20
112.813
30
0
0
VERTEX
8
CUT
10
5.900
20
113.450
30
0
0
VERTEX
8
CUT
10
6.537
20
113.939
30
0
0
VERTEX
8
CUT
10
7.279
20
114.246
30
0
0
VERTEX
8
CUT
10
8.070
20
114.350
30
0
0
VERTEX
8
CUT
10
56.080
20
114.350
30
0
0
VERTEX
8
CUT
10
56.871
20
114.246
30
0
0
VERTEX
8
CUT
10
57.613
20
113.939
30
0
0
VERTEX
8
CUT
10
58.250
20
113.450
30
0
0
VERTEX
8
CUT
10
58.739
20
112.813
30
0
0
VERTEX
8
CUT
10
59.046
20
112.071
30
0
0
SEQEND
8
CUT
0
POLYLINE
8
CUT
66
1
70
1
10
0
20
0
30
0
0
VERTEX
8
CUT
10
178.581
20
172.600
30
0
0
VERTEX
8
CUT
10
178.228
20
172.656
30
0
0
VERTEX
8
CUT
10
177.914
20
172.816
30
0
0
VERTEX
8
CUT
10
177.666
20
173.064
30
0
0
VERTEX
8
CUT
10
177.506
20
173.378
30
0
0
VERTEX
8
CUT
10
177.450
20
173.731
30
0
0
VERTEX
8
CUT
10
177.450
20
174.119
30
0
0
VERTEX
8
CUT
10
177.506
20
174.472
30
0
0
VERTEX
8
CUT
10
177.666
20
174.786
30
0
0
VERTEX
8
CUT
10
177.914
20
175.034
30
0
0
VERTEX
8
CUT
10
178.228
20
175.194
30
0
0
VERTEX
8
CUT
10
178.581
20
175.250
30
0
0
VERTEX
8
CUT
10
192.009
20
175.250
30
0
0
VERTEX
8
CUT
10
192.362
20
175.194
30
0
0
VERTEX
8
CUT
10
192.676
20
175.034
30
0
0
VERTEX
8
CUT
10
192.924
20
174.786
30
0
0
VERTEX
8
CUT
10
193.084
20
174.472
30
0
0
VERTEX
8
CUT
10
193.140
20
174.119
30
0
0
VERTEX
8
CUT
10
193.140
20
173.731
30
0
0
VERTEX
8
CUT
10
193.084
20
173.378
30
0
0
VERTEX
8
CUT
10
192.924
20
173.064
30
0
0
VERTEX
8
CUT
10
192.676
20
172.816
30
0
0
VERTEX
8
CUT
10
192.362
20
172.656
30
0
0
VERTEX
8
CUT
10
192.009
20
172.600
30
0
0
SEQEND
8
CUT
0
POLYLINE
8
CUT
66
1
70
1
10
0
20
0
30
0
0
VERTEX
8
CUT
10
178.581
20
165.600
30
0
0
VERTEX
8
CUT
10
178.228
20
165.656
30
0
0
VERTEX
8
CUT
10
177.914
20
165.816
30
0
0
VERTEX
8
CUT
10
177.666
20
166.064
30
0
0
VERTEX
8
CUT
10
177.506
20
166.378
30
0
0
VERTEX
8
CUT
10
177.450
20
166.731
30
0
0
VERTEX
8
CUT
10
177.450
20
167.119
30
0
0
VERTEX
8
CUT
10
177.506
20
167.472
30
0
0
VERTEX
8
CUT
10
177.666
20
167.786
30
0
0
VERTEX
8
CUT
10
177.914
20
168.034
30
0
0
VERTEX
8
CUT
10
178.228
20
168.194
30
0
0
VERTEX
8
CUT
10
178.581
20
168.250
30
0
0
VERTEX
8
CUT
10
192.009
20
168.250
30
0
0
VERTEX
8
CUT
10
192.362
20
168.194
30
0
0
VERTEX
8
CUT
10
192.676
20
168.034
30
0
0
VERTEX
8
CUT
10
192.924
20
167.786
30
0
0
VERTEX
8
CUT
10
193.084
20
167.472
30
0
0
VERTEX
8
CUT
10
193.140
20
167.119
30
0
0
VERTEX
8
CUT
10
193.140
20
166.731
30
0
0
VERTEX
8
CUT
10
193.084
20
166.378
30
0
0
VERTEX
8
CUT
10
192.924
20
166.064
30
0
0
VERTEX
8
CUT
10
192.676
20
165.816
30
0
0
VERTEX
8
CUT
10
192.362
20
165.656
30
0
0
VERTEX
8
CUT
10
192.009
20
165.600
30
0
0
SEQEND
8
CUT
0
POLYLINE
8
CUT
66
1
70
1
10
0
20
0
30
0
0
VERTEX
8
CUT
10
178.581
20
158.600
30
0
0
VERTEX
8
CUT
10
178.228
20
158.656
30
0
0
VERTEX
8
CUT
10
177.914
20
158.816
30
0
0
VERTEX
8
CUT
10
177.666
20
159.064
30
0
0
VERTEX
8
CUT
10
177.506
20
159.378
30
0
0
VERTEX
8
CUT
10
177.450
20
159.731
30
0
0
VERTEX
8
CUT
10
177.450
20
160.119
30
0
0
VERTEX
8
CUT
10
177.506
20
160.472
30
0
0
VERTEX
8
CUT
10
177.666
20
160.786
30
0
0
VERTEX
8
CUT
10
177.914
20
161.034
30
0
0
VERTEX
8
CUT
10
178.228
20
161.194
30
0
0
VERTEX
8
CUT
10
178.581
20
161.250
30
0
0
VERTEX
8
CUT
10
192.009
20
161.250
30
0
0
VERTEX
8
CUT
10
192.362
20
161.194
30
0
0
VERTEX
8
CUT
10
192.676
20
161.034
30
0
0
VERTEX
8
CUT
10
192.924
20
160.786
30
0
0
VERTEX
8
CUT
10
193.084
20
160.472
30
0
0
VERTEX
8
CUT
10
193.140
20
160.119
30
0
0
VERTEX
8
CUT
10
193.140
20
159.731
30
0
0
VERTEX
8
CUT
10
193.084
20
159.378
30
0
0
VERTEX
8
CUT
10
192.924
20
159.064
30
0
0
VERTEX
8
CUT
10
192.676
20
158.816
30
0
0
VERTEX
8
CUT
10
192.362
20
158.656
30
0
0
VERTEX
8
CUT
10
192.009
20
158.600
30
0
0
SEQEND
8
CUT
0
POLYLINE
8
CUT
66
1
70
1
10
0
20
0
30
0
0
VERTEX
8
CUT
10
178.581
20
151.600
30
0
0
VERTEX
8
CUT
10
178.228
20
151.656
30
0
0
VERTEX
8
CUT
10
177.914
20
151.816
30
0
0
VERTEX
8
CUT
10
177.666
20
152.064
30
0
0
VERTEX
8
CUT
10
177.506
20
152.378
30
0
0
VERTEX
8
CUT
10
177.450
20
152.731
30
0
0
VERTEX
8
CUT
10
177.450
20
153.119
30
0
0
VERTEX
8
CUT
10
177.506
20
153.472
30
0
0
VERTEX
8
CUT
10
177.666
20
153.786
30
0
0
VERTEX
8
CUT
10
177.914
20
154.034
30
0
0
VERTEX
8
CUT
10
178.228
20
154.194
30
0
0
VERTEX
8
CUT
10
178.581
20
154.250
30
0
0
VERTEX
8
CUT
10
192.009
20
154.250
30
0
0
VERTEX
8
CUT
10
192.362
20
154.194
30
0
0
VERTEX
8
CUT
10
192.676
20
154.034
30
0
0
VERTEX
8
CUT
10
192.924
20
153.786
30
0
0
VERTEX
8
CUT
10
193.084
20
153.472
30
0
0
VERTEX
8
CUT
10
193.140
20
153.119
30
0
0
VERTEX
8
CUT
10
193.140
20
152.731
30
0
0
VERTEX
8
CUT
10
193.084
20
152.378
30
0
0
VERTEX
8
CUT
10
192.924
20
152.064
30
0
0
VERTEX
8
CUT
10
192.676
20
151.816
30
0
0
VERTEX
8
CUT
10
192.362
20
151.656
30
0
0
VERTEX
8
CUT
10
192.009
20
151.600
30
0
0
SEQEND
8
CUT
0
POLYLINE
8
CUT
66
1
70
1
10
0
20
0
30
0
0
VERTEX
8
CUT
10
178.581
20
144.600
30
0
0
VERTEX
8
CUT
10
178.228
20
144.656
30
0
0
VERTEX
8
CUT
10
177.914
20
144.816
30
0
0
VERTEX
8
CUT
10
177.666
20
145.064
30
0
0
VERTEX
8
CUT
10
177.506
20
145.378
30
0
0
VERTEX
8
CUT
10
177.450
20
145.731
30
0
0
VERTEX
8
CUT
10
177.450
20
146.119
30
0
0
VERTEX
8
CUT
10
177.506
20
146.472
30
0
0
VERTEX
8
CUT
10
177.666
20
146.786
30
0
0
VERTEX
8
CUT
10
177.914
20
147.034
30
0
0
VERTEX
8
CUT
10
178.228
20
147.194
30
0
0
VERTEX
8
CUT
10
178.581
20
147.250
30
0
0
VERTEX
8
CUT
10
192.009
20
147.250
30
0
0
VERTEX
8
CUT
10
192.362
20
147.194
30
0
0
VERTEX
8
CUT
10
192.676
20
147.034
30
0
0
VERTEX
8
CUT
10
192.924
20
146.786
30
0
0
VERTEX
8
CUT
10
193.084
20
146.472
30
0
0
VERTEX
8
CUT
10
193.140
20
146.119
30
0
0
VERTEX
8
CUT
10
193.140
20
145.731
30
0
0
VERTEX
8
CUT
10
193.084
20
145.378
30
0
0
VERTEX
8
CUT
10
192.924
20
145.064
30
0
0
VERTEX
8
CUT
10
192.676
20
144.816
30
0
0
VERTEX
8
CUT
10
192.362
20
144.656
30
0
0
VERTEX
8
CUT
10
192.009
20
144.600
30
0
0
SEQEND
8
CUT
0
POLYLINE
8
CUT
66
1
70
1
10
0
20
0
30
0
0
VERTEX
8
CUT
10
178.581
20
137.600
30
0
0
VERTEX
8
CUT
10
178.228
20
137.656
30
0
0
VERTEX
8
CUT
10
177.914
20
137.816
30
0
0
VERTEX
8
CUT
10
177.666
20
138.064
30
0
0
VERTEX
8
CUT
10
177.506
20
138.378
30
0
0
VERTEX
8
CUT
10
177.450
20
138.731
30
0
0
VERTEX
8
CUT
10
177.450
20
139.119
30
0
0
VERTEX
8
CUT
10
177.506
20
139.472
30
0
0
VERTEX
8
CUT
10
177.666
20
139.786
30
0
0
VERTEX
8
CUT
10
177.914
20
140.034
30
0
0
VERTEX
8
CUT
10
178.228
20
140.194
30
0
0
VERTEX
8
CUT
10
178.581
20
140.250
30
0
0
VERTEX
8
CUT
10
192.009
20
140.250
30
0
0
VERTEX
8
CUT
10
192.362
20
140.194
30
0
0
VERTEX
8
CUT
10
192.676
20
140.034
30
0
0
VERTEX
8
CUT
10
192.924
20
139.786
30
0
0
VERTEX
8
CUT
10
193.084
20
139.472
30
0
0
VERTEX
8
CUT
10
193.140
20
139.119
30
0
0
VERTEX
8
CUT
10
193.140
20
138.731
30
0
0
VERTEX
8
CUT
10
193.084
20
138.378
30
0
0
VERTEX
8
CUT
10
192.924
20
138.064
30
0
0
VERTEX
8
CUT
10
192.676
20
137.816
30
0
0
VERTEX
8
CUT
10
192.362
20
137.656
30
0
0
VERTEX
8
CUT
10
192.009
20
137.600
30
0
0
SEQEND
8
CUT
0
POLYLINE
8
CUT
66
1
70
1
10
0
20
0
30
0
0
VERTEX
8
CUT
10
178.581
20
130.600
30
0
0
VERTEX
8
CUT
10
178.228
20
130.656
30
0
0
VERTEX
8
CUT
10
177.914
20
130.816
30
0
0
VERTEX
8
CUT
10
177.666
20
131.064
30
0
0
VERTEX
8
CUT
10
177.506
20
131.378
30
0
0
VERTEX
8
CUT
10
177.450
20
131.731
30
0
0
VERTEX
8
CUT
10
177.450
20
132.119
30
0
0
VERTEX
8
CUT
10
177.506
20
132.472
30
0
0
VERTEX
8
CUT
10
177.666
20
132.786
30
0
0
VERTEX
8
CUT
10
177.914
20
133.034
30
0
0
VERTEX
8
CUT
10
178.228
20
133.194
30
0
0
VERTEX
8
CUT
10
178.581
20
133.250
30
0
0
VERTEX
8
CUT
10
192.009
20
133.250
30
0
0
VERTEX
8
CUT
10
192.362
20
133.194
30
0
0
VERTEX
8
CUT
10
192.676
20
133.034
30
0
0
VERTEX
8
CUT
10
192.924
20
132.786
30
0
0
VERTEX
8
CUT
10
193.084
20
132.472
30
0
0
VERTEX
8
CUT
10
193.140
20
132.119
30
0
0
VERTEX
8
CUT
10
193.140
20
131.731
30
0
0
VERTEX
8
CUT
10
193.084
20
131.378
30
0
0
VERTEX
8
CUT
10
192.924
20
131.064
30
0
0
VERTEX
8
CUT
10
192.676
20
130.816
30
0
0
VERTEX
8
CUT
10
192.362
20
130.656
30
0
0
VERTEX
8
CUT
10
192.009
20
130.600
30
0
0
SEQEND
8
CUT
0
POLYLINE
8
CUT
66
1
70
1
10
0
20
0
30
0
0
VERTEX
8
CUT
10
213.350
20
183.900
30
0
0
VERTEX
8
CUT
10
213.350
20
173.950
30
0
0
VERTEX
8
CUT
10
210.400
20
173.950
30
0
0
VERTEX
8
CUT
10
210.400
20
183.900
30
0
0
SEQEND
8
CUT
0
POLYLINE
8
CUT
66
1
70
1
10
0
20
0
30
0
0
VERTEX
8
CUT
10
213.350
20
157.900
30
0
0
VERTEX
8
CUT
10
213.350
20
147.950
30
0
0
VERTEX
8
CUT
10
210.400
20
147.950
30
0
0
VERTEX
8
CUT
10
210.400
20
157.900
30
0
0
SEQEND
8
CUT
0
POLYLINE
8
CUT
66
1
70
1
10
0
20
0
30
0
0
VERTEX
8
CUT
10
213.350
20
131.900
30
0
0
VERTEX
8
CUT
10
213.350
20
121.950
30
0
0
VERTEX
8
CUT
10
210.400
20
121.950
30
0
0
VERTEX
8
CUT
10
210.400
20
131.900
30
0
0
SEQEND
8
CUT
0
POLYLINE
8
CUT
66
1
70
1
10
0
20
0
30
0
0
VERTEX
8
CUT
10
216.450
20
192.000
30
0
0
VERTEX
8
CUT
10
216.450
20
113.850
30
0
0
VERTEX
8
CUT
10
209.450
20
113.850
30
0
0
VERTEX
8
CUT
10
209.450
20
110.850
30
0
0
VERTEX
8
CUT
10
199.300
20
110.850
30
0
0
VERTEX
8
CUT
10
199.300
20
113.850
30
0
0
VERTEX
8
CUT
10
185.450
20
113.850
30
0
0
VERTEX
8
CUT
10
185.450
20
110.850
30
0
0
VERTEX
8
CUT
10
175.300
20
110.850
30
0
0
VERTEX
8
CUT
10
175.300
20
113.850
30
0
0
VERTEX
8
CUT
10
168.300
20
113.850
30
0
0
VERTEX
8
CUT
10
168.300
20
192.000
30
0
0
VERTEX
8
CUT
10
175.300
20
192.000
30
0
0
VERTEX
8
CUT
10
175.300
20
195.000
30
0
0
VERTEX
8
CUT
10
185.450
20
195.000
30
0
0
VERTEX
8
CUT
10
185.450
20
192.000
30
0
0
VERTEX
8
CUT
10
199.300
20
192.000
30
0
0
VERTEX
8
CUT
10
199.300
20
195.000
30
0
0
VERTEX
8
CUT
10
209.450
20
195.000
30
0
0
VERTEX
8
CUT
10
209.450
20
192.000
30
0
0
SEQEND
8
CUT
0
POLYLINE
8
CUT
66
1
70
1
10
0
20
0
30
0
0
VERTEX
8
CUT
10
84.725
20
72.199
30
0
0
VERTEX
8
CUT
10
83.725
20
72.023
30
0
0
VERTEX
8
CUT
10
82.846
20
71.515
30
0
0
VERTEX
8
CUT
10
82.193
20
70.737
30
0
0
VERTEX
8
CUT
10
81.846
20
69.783
30
0
0
VERTEX
8
CUT
10
81.846
20
68.767
30
0
0
VERTEX
8
CUT
10
82.193
20
67.813
30
0
0
VERTEX
8
CUT
10
82.846
20
67.035
30
0
0
VERTEX
8
CUT
10
83.725
20
66.527
30
0
0
VERTEX
8
CUT
10
84.725
20
66.351
30
0
0
VERTEX
8
CUT
10
85.725
20
66.527
30
0
0
VERTEX
8
CUT
10
86.604
20
67.035
30
0
0
VERTEX
8
CUT
10
87.257
20
67.813
30
0
0
VERTEX
8
CUT
10
87.604
20
68.767
30
0
0
VERTEX
8
CUT
10
87.604
20
69.783
30
0
0
VERTEX
8
CUT
10
87.257
20
70.737
30
0
0
VERTEX
8
CUT
10
86.604
20
71.515
30
0
0
VERTEX
8
CUT
10
85.725
20
72.023
30
0
0
SEQEND
8
CUT
0
POLYLINE
8
CUT
66
1
70
1
10
0
20
0
30
0
0
VERTEX
8
CUT
10
100.725
20
73.199
30
0
0
VERTEX
8
CUT
10
99.512
20
73.007
30
0
0
VERTEX
8
CUT
10
98.418
20
72.450
30
0
0
VERTEX
8
CUT
10
97.550
20
71.582
30
0
0
VERTEX
8
CUT
10
96.993
20
70.488
30
0
0
VERTEX
8
CUT
10
96.801
20
69.275
30
0
0
VERTEX
8
CUT
10
96.993
20
68.062
30
0
0
VERTEX
8
CUT
10
97.550
20
66.968
30
0
0
VERTEX
8
CUT
10
98.418
20
66.100
30
0
0
VERTEX
8
CUT
10
99.512
20
65.543
30
0
0
VERTEX
8
CUT
10
100.725
20
65.351
30
0
0
VERTEX
8
CUT
10
101.938
20
65.543
30
0
0
VERTEX
8
CUT
10
103.032
20
66.100
30
0
0
VERTEX
8
CUT
10
103.900
20
66.968
30
0
0
VERTEX
8
CUT
10
104.457
20
68.062
30
0
0
VERTEX
8
CUT
10
104.649
20
69.275
30
0
0
VERTEX
8
CUT
10
104.457
20
70.488
30
0
0
VERTEX
8
CUT
10
103.900
20
71.582
30
0
0
VERTEX
8
CUT
10
103.032
20
72.450
30
0
0
VERTEX
8
CUT
10
101.938
20
73.007
30
0
0
SEQEND
8
CUT
0
POLYLINE
8
CUT
66
1
70
1
10
0
20
0
30
0
0
VERTEX
8
CUT
10
79.634
20
75.387
30
0
0
VERTEX
8
CUT
10
79.034
20
75.192
30
0
0
VERTEX
8
CUT
10
78.663
20
74.682
30
0
0
VERTEX
8
CUT
10
78.663
20
74.051
30
0
0
VERTEX
8
CUT
10
79.034
20
73.540
30
0
0
VERTEX
8
CUT
10
79.634
20
73.345
30
0
0
VERTEX
8
CUT
10
80.234
20
73.540
30
0
0
VERTEX
8
CUT
10
80.605
20
74.051
30
0
0
VERTEX
8
CUT
10
80.605
20
74.682
30
0
0
VERTEX
8
CUT
10
80.234
20
75.192
30
0
0
SEQEND
8
CUT
0
POLYLINE
8
CUT
66
1
70
1
10
0
20
0
30
0
0
VERTEX
8
CUT
10
79.634
20
65.205
30
0
0
VERTEX
8
CUT
10
79.034
20
65.010
30
0
0
VERTEX
8
CUT
10
78.663
20
64.499
30
0
0
VERTEX
8
CUT
10
78.663
20
63.868
30
0
0
VERTEX
8
CUT
10
79.034
20
63.358
30
0
0
VERTEX
8
CUT
10
79.634
20
63.163
30
0
0
VERTEX
8
CUT
10
80.234
20
63.358
30
0
0
VERTEX
8
CUT
10
80.605
20
63.868
30
0
0
VERTEX
8
CUT
10
80.605
20
64.499
30
0
0
VERTEX
8
CUT
10
80.234
20
65.010
30
0
0
SEQEND
8
CUT
0
POLYLINE
8
CUT
66
1
70
1
10
0
20
0
30
0
0
VERTEX
8
CUT
10
89.816
20
65.205
30
0
0
VERTEX
8
CUT
10
89.216
20
65.010
30
0
0
VERTEX
8
CUT
10
88.845
20
64.499
30
0
0
VERTEX
8
CUT
10
88.845
20
63.868
30
0
0
VERTEX
8
CUT
10
89.216
20
63.358
30
0
0
VERTEX
8
CUT
10
89.816
20
63.163
30
0
0
VERTEX
8
CUT
10
90.416
20
63.358
30
0
0
VERTEX
8
CUT
10
90.787
20
63.868
30
0
0
VERTEX
8
CUT
10
90.787
20
64.499
30
0
0
VERTEX
8
CUT
10
90.416
20
65.010
30
0
0
SEQEND
8
CUT
0
POLYLINE
8
CUT
66
1
70
1
10
0
20
0
30
0
0
VERTEX
8
CUT
10
89.816
20
75.387
30
0
0
VERTEX
8
CUT
10
89.216
20
75.192
30
0
0
VERTEX
8
CUT
10
88.845
20
74.682
30
0
0
VERTEX
8
CUT
10
88.845
20
74.051
30
0
0
VERTEX
8
CUT
10
89.216
20
73.540
30
0
0
VERTEX
8
CUT
10
89.816
20
73.345
30
0
0
VERTEX
8
CUT
10
90.416
20
73.540
30
0
0
VERTEX
8
CUT
10
90.787
20
74.051
30
0
0
VERTEX
8
CUT
10
90.787
20
74.682
30
0
0
VERTEX
8
CUT
10
90.416
20
75.192
30
0
0
SEQEND
8
CUT
0
POLYLINE
8
CUT
66
1
70
1
10
0
20
0
30
0
0
VERTEX
8
CUT
10
80.550
20
36.500
30
0
0
VERTEX
8
CUT
10
80.550
20
39.450
30
0
0
VERTEX
8
CUT
10
72.600
20
39.450
30
0
0
VERTEX
8
CUT
10
72.600
20
36.500
30
0
0
SEQEND
8
CUT
0
POLYLINE
8
CUT
66
1
70
1
10
0
20
0
30
0
0
VERTEX
8
CUT
10
80.550
20
99.100
30
0
0
VERTEX
8
CUT
10
80.550
20
102.050
30
0
0
VERTEX
8
CUT
10
72.600
20
102.050
30
0
0
VERTEX
8
CUT
10
72.600
20
99.100
30
0
0
SEQEND
8
CUT
0
POLYLINE
8
CUT
66
1
70
1
10
0
20
0
30
0
0
VERTEX
8
CUT
10
106.800
20
30.200
30
0
0
VERTEX
8
CUT
10
106.800
20
38.200
30
0
0
VERTEX
8
CUT
10
109.800
20
38.200
30
0
0
VERTEX
8
CUT
10
109.800
20
48.350
30
0
0
VERTEX
8
CUT
10
106.800
20
48.350
30
0
0
VERTEX
8
CUT
10
106.800
20
64.200
30
0
0
VERTEX
8
CUT
10
109.800
20
64.200
30
0
0
VERTEX
8
CUT
10
109.800
20
74.350
30
0
0
VERTEX
8
CUT
10
106.800
20
74.350
30
0
0
VERTEX
8
CUT
10
106.800
20
90.200
30
0
0
VERTEX
8
CUT
10
109.800
20
90.200
30
0
0
VERTEX
8
CUT
10
109.800
20
100.350
30
0
0
VERTEX
8
CUT
10
106.800
20
100.350
30
0
0
VERTEX
8
CUT
10
106.800
20
108.350
30
0
0
VERTEX
8
CUT
10
101.300
20
108.350
30
0
0
VERTEX
8
CUT
10
101.300
20
111.350
30
0
0
VERTEX
8
CUT
10
91.150
20
111.350
30
0
0
VERTEX
8
CUT
10
91.150
20
108.350
30
0
0
VERTEX
8
CUT
10
80.300
20
108.350
30
0
0
VERTEX
8
CUT
10
80.300
20
111.350
30
0
0
VERTEX
8
CUT
10
70.150
20
111.350
30
0
0
VERTEX
8
CUT
10
70.150
20
108.350
30
0
0
VERTEX
8
CUT
10
64.650
20
108.350
30
0
0
VERTEX
8
CUT
10
64.650
20
100.350
30
0
0
VERTEX
8
CUT
10
61.650
20
100.350
30
0
0
VERTEX
8
CUT
10
61.650
20
90.200
30
0
0
VERTEX
8
CUT
10
64.650
20
90.200
30
0
0
VERTEX
8
CUT
10
64.650
20
74.350
30
0
0
VERTEX
8
CUT
10
61.650
20
74.350
30
0
0
VERTEX
8
CUT
10
61.650
20
64.200
30
0
0
VERTEX
8
CUT
10
64.650
20
64.200
30
0
0
VERTEX
8
CUT
10
64.650
20
48.350
30
0
0
VERTEX
8
CUT
10
61.650
20
48.350
30
0
0
VERTEX
8
CUT
10
61.650
20
38.200
30
0
0
VERTEX
8
CUT
10
64.650
20
38.200
30
0
0
VERTEX
8
CUT
10
64.650
20
30.200
30
0
0
VERTEX
8
CUT
10
70.150
20
30.200
30
0
0
VERTEX
8
CUT
10
70.150
20
27.200
30
0
0
VERTEX
8
CUT
10
80.300
20
27.200
30
0
0
VERTEX
8
CUT
10
80.300
20
30.200
30
0
0
VERTEX
8
CUT
10
91.150
20
30.200
30
0
0
VERTEX
8
CUT
10
91.150
20
27.200
30
0
0
VERTEX
8
CUT
10
101.300
20
27.200
30
0
0
VERTEX
8
CUT
10
101.300
20
30.200
30
0
0
SEQEND
8
CUT
0
POLYLINE
8
CUT
66
1
70
1
10
0
20
0
30
0
0
VERTEX
8
CUT
10
115.450
20
79.775
30
0
0
VERTEX
8
CUT
10
115.547
20
81.991
30
0
0
VERTEX
8
CUT
10
115.836
20
84.190
30
0
0
VERTEX
8
CUT
10
116.316
20
86.355
30
0
0
VERTEX
8
CUT
10
116.983
20
88.471
30
0
0
VERTEX
8
CUT
10
117.832
20
90.520
30
0
0
VERTEX
8
CUT
10
118.856
20
92.487
30
0
0
VERTEX
8
CUT
10
120.048
20
94.358
30
0
0
VERTEX
8
CUT
10
121.398
20
96.118
30
0
0
VERTEX
8
CUT
10
122.897
20
97.753
30
0
0
VERTEX
8
CUT
10
124.532
20
99.252
30
0
0
VERTEX
8
CUT
10
126.292
20
100.602
30
0
0
VERTEX
8
CUT
10
128.163
20
101.794
30
0
0
VERTEX
8
CUT
10
130.130
20
102.818
30
0
0
VERTEX
8
CUT
10
132.179
20
103.667
30
0
0
VERTEX
8
CUT
10
134.295
20
104.334
30
0
0
VERTEX
8
CUT
10
136.460
20
104.814
30
0
0
VERTEX
8
CUT
10
138.659
20
105.103
30
0
0
VERTEX
8
CUT
10
140.875
20
105.200
30
0
0
VERTEX
8
CUT
10
143.091
20
105.103
30
0
0
VERTEX
8
CUT
10
145.290
20
104.814
30
0
0
VERTEX
8
CUT
10
147.456
20
104.334
30
0
0
VERTEX
8
CUT
10
149.571
20
103.667
30
0
0
VERTEX
8
CUT
10
151.620
20
102.818
30
0
0
VERTEX
8
CUT
10
153.588
20
101.794
30
0
0
VERTEX
8
CUT
10
155.458
20
100.602
30
0
0
VERTEX
8
CUT
10
157.218
20
99.252
30
0
0
VERTEX
8
CUT
10
158.853
20
97.753
30
0
0
VERTEX
8
CUT
10
160.352
20
96.118
30
0
0
VERTEX
8
CUT
10
161.702
20
94.358
30
0
0
VERTEX
8
CUT
10
162.894
20
92.487
30
0
0
VERTEX
8
CUT
10
163.918
20
90.520
30
0
0
VERTEX
8
CUT
10
164.767
20
88.471
30
0
0
VERTEX
8
CUT
10
165.434
20
86.355
30
0
0
VERTEX
8
CUT
10
165.914
20
84.190
30
0
0
VERTEX
8
CUT
10
166.203
20
81.991
30
0
0
VERTEX
8
CUT
10
166.300
20
79.775
30
0
0
VERTEX
8
CUT
10
166.203
20
77.559
30
0
0
VERTEX
8
CUT
10
165.914
20
75.360
30
0
0
VERTEX
8
CUT
10
165.434
20
73.194
30
0
0
VERTEX
8
CUT
10
164.767
20
71.079
30
0
0
VERTEX
8
CUT
10
163.918
20
69.030
30
0
0
VERTEX
8
CUT
10
162.894
20
67.062
30
0
0
VERTEX
8
CUT
10
161.702
20
65.192
30
0
0
VERTEX
8
CUT
10
160.352
20
63.432
30
0
0
VERTEX
8
CUT
10
158.853
20
61.797
30
0
0
VERTEX
8
CUT
10
157.218
20
60.298
30
0
0
VERTEX
8
CUT
10
155.458
20
58.948
30
0
0
VERTEX
8
CUT
10
153.588
20
57.756
30
0
0
VERTEX
8
CUT
10
151.620
20
56.732
30
0
0
VERTEX
8
CUT
10
149.571
20
55.883
30
0
0
VERTEX
8
CUT
10
147.456
20
55.216
30
0
0
VERTEX
8
CUT
10
145.290
20
54.736
30
0
0
VERTEX
8
CUT
10
143.091
20
54.447
30
0
0
VERTEX
8
CUT
10
140.875
20
54.350
30
0
0
VERTEX
8
CUT
10
138.659
20
54.447
30
0
0
VERTEX
8
CUT
10
136.460
20
54.736
30
0
0
VERTEX
8
CUT
10
134.295
20
55.216
30
0
0
VERTEX
8
CUT
10
132.179
20
55.883
30
0
0
VERTEX
8
CUT
10
130.130
20
56.732
30
0
0
VERTEX
8
CUT
10
128.163
20
57.756
30
0
0
VERTEX
8
CUT
10
126.292
20
58.948
30
0
0
VERTEX
8
CUT
10
124.532
20
60.298
30
0
0
VERTEX
8
CUT
10
122.897
20
61.797
30
0
0
VERTEX
8
CUT
10
121.398
20
63.432
30
0
0
VERTEX
8
CUT
10
120.048
20
65.192
30
0
0
VERTEX
8
CUT
10
118.856
20
67.062
30
0
0
VERTEX
8
CUT
10
117.832
20
69.030
30
0
0
VERTEX
8
CUT
10
116.983
20
71.079
30
0
0
VERTEX
8
CUT
10
116.316
20
73.194
30
0
0
VERTEX
8
CUT
10
115.836
20
75.360
30
0
0
VERTEX
8
CUT
10
115.547
20
77.559
30
0
0
SEQEND
8
CUT
0
POLYLINE
8
CUT
66
1
70
1
10
0
20
0
30
0
0
VERTEX
8
CUT
10
112.300
20
79.775
30
0
0
VERTEX
8
CUT
10
112.409
20
82.265
30
0
0
VERTEX
8
CUT
10
112.734
20
84.737
30
0
0
VERTEX
8
CUT
10
113.274
20
87.171
30
0
0
VERTEX
8
CUT
10
114.023
20
89.548
30
0
0
VERTEX
8
CUT
10
114.977
20
91.851
30
0
0
VERTEX
8
CUT
10
116.128
20
94.062
30
0
0
VERTEX
8
CUT
10
117.468
20
96.165
30
0
0
VERTEX
8
CUT
10
118.985
20
98.143
30
0
0
VERTEX
8
CUT
10
120.669
20
99.981
30
0
0
VERTEX
8
CUT
10
122.507
20
101.665
30
0
0
VERTEX
8
CUT
10
124.485
20
103.182
30
0
0
VERTEX
8
CUT
10
126.588
20
104.522
30
0
0
VERTEX
8
CUT
10
128.799
20
105.673
30
0
0
VERTEX
8
CUT
10
131.102
20
106.627
30
0
0
VERTEX
8
CUT
10
133.479
20
107.376
30
0
0
VERTEX
8
CUT
10
135.913
20
107.916
30
0
0
VERTEX
8
CUT
10
138.385
20
108.241
30
0
0
VERTEX
8
CUT
10
140.875
20
108.350
30
0
0
VERTEX
8
CUT
10
143.366
20
108.241
30
0
0
VERTEX
8
CUT
10
145.837
20
107.916
30
0
0
VERTEX
8
CUT
10
148.271
20
107.376
30
0
0
VERTEX
8
CUT
10
150.648
20
106.627
30
0
0
VERTEX
8
CUT
10
152.951
20
105.673
30
0
0
VERTEX
8
CUT
10
155.163
20
104.522
30
0
0
VERTEX
8
CUT
10
157.265
20
103.182
30
0
0
VERTEX
8
CUT
10
159.243
20
101.665
30
0
0
VERTEX
8
CUT
10
161.081
20
99.981
30
0
0
VERTEX
8
CUT
10
162.765
20
98.143
30
0
0
VERTEX
8
CUT
10
164.282
20
96.165
30
0
0
VERTEX
8
CUT
10
165.622
20
94.062
30
0
0
VERTEX
8
CUT
10
166.773
20
91.851
30
0
0
VERTEX
8
CUT
10
167.727
20
89.548
30
0
0
VERTEX
8
CUT
10
168.476
20
87.171
30
0
0
VERTEX
8
CUT
10
169.016
20
84.737
30
0
0
VERTEX
8
CUT
10
169.341
20
82.265
30
0
0
VERTEX
8
CUT
10
169.450
20
79.775
30
0
0
VERTEX
8
CUT
10
169.341
20
77.284
30
0
0
VERTEX
8
CUT
10
169.016
20
74.813
30
0
0
VERTEX
8
CUT
10
168.476
20
72.379
30
0
0
VERTEX
8
CUT
10
167.727
20
70.002
30
0
0
VERTEX
8
CUT
10
166.773
20
67.699
30
0
0
VERTEX
8
CUT
10
165.622
20
65.487
30
0
0
VERTEX
8
CUT
10
164.282
20
63.385
30
0
0
VERTEX
8
CUT
10
162.765
20
61.407
30
0
0
VERTEX
8
CUT
10
161.081
20
59.569
30
0
0
VERTEX
8
CUT
10
159.243
20
57.885
30
0
0
VERTEX
8
CUT
10
157.265
20
56.368
30
0
0
VERTEX
8
CUT
10
155.163
20
55.028
30
0
0
VERTEX
8
CUT
10
152.951
20
53.877
30
0
0
VERTEX
8
CUT
10
150.648
20
52.923
30
0
0
VERTEX
8
CUT
10
148.271
20
52.174
30
0
0
VERTEX
8
CUT
10
145.837
20
51.634
30
0
0
VERTEX
8
CUT
10
143.366
20
51.309
30
0
0
VERTEX
8
CUT
10
140.875
20
51.200
30
0
0
VERTEX
8
CUT
10
138.385
20
51.309
30
0
0
VERTEX
8
CUT
10
135.913
20
51.634
30
0
0
VERTEX
8
CUT
10
133.479
20
52.174
30
0
0
VERTEX
8
CUT
10
131.102
20
52.923
30
0
0
VERTEX
8
CUT
10
128.799
20
53.877
30
0
0
VERTEX
8
CUT
10
126.588
20
55.028
30
0
0
VERTEX
8
CUT
10
124.485
20
56.368
30
0
0
VERTEX
8
CUT
10
122.507
20
57.885
30
0
0
VERTEX
8
CUT
10
120.669
20
59.569
30
0
0
VERTEX
8
CUT
10
118.985
20
61.407
30
0
0
VERTEX
8
CUT
10
117.468
20
63.385
30
0
0
VERTEX
8
CUT
10
116.128
20
65.487
30
0
0
VERTEX
8
CUT
10
114.977
20
67.699
30
0
0
VERTEX
8
CUT
10
114.023
20
70.002
30
0
0
VERTEX
8
CUT
10
113.274
20
72.379
30
0
0
VERTEX
8
CUT
10
112.734
20
74.813
30
0
0
VERTEX
8
CUT
10
112.409
20
77.284
30
0
0
SEQEND
8
CUT
0
POLYLINE
8
CUT
66
1
70
1
10
0
20
0
30
0
0
VERTEX
8
CUT
10
175.100
20
79.775
30
0
0
VERTEX
8
CUT
10
175.197
20
81.991
30
0
0
VERTEX
8
CUT
10
175.487
20
84.190
30
0
0
VERTEX
8
CUT
10
175.967
20
86.355
30
0
0
VERTEX
8
CUT
10
176.634
20
88.471
30
0
0
VERTEX
8
CUT
10
177.482
20
90.520
30
0
0
VERTEX
8
CUT
10
178.507
20
92.487
30
0
0
VERTEX
8
CUT
10
179.698
20
94.358
30
0
0
VERTEX
8
CUT
10
181.049
20
96.118
30
0
0
VERTEX
8
CUT
10
182.547
20
97.753
30
0
0
VERTEX
8
CUT
10
184.182
20
99.252
30
0
0
VERTEX
8
CUT
10
185.942
20
100.602
30
0
0
VERTEX
8
CUT
10
187.813
20
101.794
30
0
0
VERTEX
8
CUT
10
189.780
20
102.818
30
0
0
VERTEX
8
CUT
10
191.829
20
103.667
30
0
0
VERTEX
8
CUT
10
193.945
20
104.334
30
0
0
VERTEX
8
CUT
10
196.110
20
104.814
30
0
0
VERTEX
8
CUT
10
198.309
20
105.103
30
0
0
VERTEX
8
CUT
10
200.525
20
105.200
30
0
0
VERTEX
8
CUT
10
202.741
20
105.103
30
0
0
VERTEX
8
CUT
10
204.940
20
104.814
30
0
0
VERTEX
8
CUT
10
207.106
20
104.334
30
0
0
VERTEX
8
CUT
10
209.221
20
103.667
30
0
0
VERTEX
8
CUT
10
211.270
20
102.818
30
0
0
VERTEX
8
CUT
10
213.238
20
101.794
30
0
0
VERTEX
8
CUT
10
215.108
20
100.602
30
0
0
VERTEX
8
CUT
10
216.868
20
99.252
30
0
0
VERTEX
8
CUT
10
218.503
20
97.753
30
0
0
VERTEX
8
CUT
10
220.002
20
96.118
30
0
0
VERTEX
8
CUT
10
221.352
20
94.358
30
0
0
VERTEX
8
CUT
10
222.544
20
92.487
30
0
0
VERTEX
8
CUT
10
223.568
20
90.520
30
0
0
VERTEX
8
CUT
10
224.417
20
88.471
30
0
0
VERTEX
8
CUT
10
225.084
20
86.355
30
0
0
VERTEX
8
CUT
10
225.564
20
84.190
30
0
0
VERTEX
8
CUT
10
225.853
20
81.991
30
0
0
VERTEX
8
CUT
10
225.950
20
79.775
30
0
0
VERTEX
8
CUT
10
225.853
20
77.559
30
0
0
VERTEX
8
CUT
10
225.564
20
75.360
30
0
0
VERTEX
8
CUT
10
225.084
20
73.194
30
0
0
VERTEX
8
CUT
10
224.417
20
71.079
30
0
0
VERTEX
8
CUT
10
223.568
20
69.030
30
0
0
VERTEX
8
CUT
10
222.544
20
67.062
30
0
0
VERTEX
8
CUT
10
221.352
20
65.192
30
0
0
VERTEX
8
CUT
10
220.002
20
63.432
30
0
0
VERTEX
8
CUT
10
218.503
20
61.797
30
0
0
VERTEX
8
CUT
10
216.868
20
60.298
30
0
0
VERTEX
8
CUT
10
215.108
20
58.948
30
0
0
VERTEX
8
CUT
10
213.238
20
57.756
30
0
0
VERTEX
8
CUT
10
211.270
20
56.732
30
0
0
VERTEX
8
CUT
10
209.221
20
55.883
30
0
0
VERTEX
8
CUT
10
207.106
20
55.216
30
0
0
VERTEX
8
CUT
10
204.940
20
54.736
30
0
0
VERTEX
8
CUT
10
202.741
20
54.447
30
0
0
VERTEX
8
CUT
10
200.525
20
54.350
30
0
0
VERTEX
8
CUT
10
198.309
20
54.447
30
0
0
VERTEX
8
CUT
10
196.110
20
54.736
30
0
0
VERTEX
8
CUT
10
193.945
20
55.216
30
0
0
VERTEX
8
CUT
10
191.829
20
55.883
30
0
0
VERTEX
8
CUT
10
189.780
20
56.732
30
0
0
VERTEX
8
CUT
10
187.813
20
57.756
30
0
0
VERTEX
8
CUT
10
185.942
20
58.948
30
0
0
VERTEX
8
CUT
10
184.182
20
60.298
30
0
0
VERTEX
8
CUT
10
182.547
20
61.797
30
0
0
VERTEX
8
CUT
10
181.049
20
63.432
30
0
0
VERTEX
8
CUT
10
179.698
20
65.192
30
0
0
VERTEX
8
CUT
10
178.507
20
67.062
30
0
0
VERTEX
8
CUT
10
177.482
20
69.030
30
0
0
VERTEX
8
CUT
10
176.634
20
71.079
30
0
0
VERTEX
8
CUT
10
175.967
20
73.194
30
0
0
VERTEX
8
CUT
10
175.487
20
75.360
30
0
0
VERTEX
8
CUT
10
175.197
20
77.559
30
0
0
SEQEND
8
CUT
0
POLYLINE
8
CUT
66
1
70
1
10
0
20
0
30
0
0
VERTEX
8
CUT
10
171.950
20
79.775
30
0
0
VERTEX
8
CUT
10
172.059
20
82.265
30
0
0
VERTEX
8
CUT
10
172.384
20
84.737
30
0
0
VERTEX
8
CUT
10
172.924
20
87.171
30
0
0
VERTEX
8
CUT
10
173.673
20
89.548
30
0
0
VERTEX
8
CUT
10
174.627
20
91.851
30
0
0
VERTEX
8
CUT
10
175.778
20
94.062
30
0
0
VERTEX
8
CUT
10
177.118
20
96.165
30
0
0
VERTEX
8
CUT
10
178.635
20
98.143
30
0
0
VERTEX
8
CUT
10
180.320
20
99.981
30
0
0
VERTEX
8
CUT
10
182.158
20
101.665
30
0
0
VERTEX
8
CUT
10
184.135
20
103.182
30
0
0
VERTEX
8
CUT
10
186.238
20
104.522
30
0
0
VERTEX
8
CUT
10
188.449
20
105.673
30
0
0
VERTEX
8
CUT
10
190.752
20
106.627
30
0
0
VERTEX
8
CUT
10
193.129
20
107.376
30
0
0
VERTEX
8
CUT
10
195.563
20
107.916
30
0
0
VERTEX
8
CUT
10
198.035
20
108.241
30
0
0
VERTEX
8
CUT
10
200.525
20
108.350
30
0
0
VERTEX
8
CUT
10
203.016
20
108.241
30
0
0
VERTEX
8
CUT
10
205.487
20
107.916
30
0
0
VERTEX
8
CUT
10
207.921
20
107.376
30
0
0
VERTEX
8
CUT
10
210.298
20
106.627
30
0
0
VERTEX
8
CUT
10
212.602
20
105.673
30
0
0
VERTEX
8
CUT
10
214.813
20
104.522
30
0
0
VERTEX
8
CUT
10
216.915
20
103.182
30
0
0
VERTEX
8
CUT
10
218.893
20
101.665
30
0
0
VERTEX
8
CUT
10
220.731
20
99.981
30
0
0
VERTEX
8
CUT
10
222.415
20
98.143
30
0
0
VERTEX
8
CUT
10
223.933
20
96.165
30
0
0
VERTEX
8
CUT
10
225.272
20
94.062
30
0
0
VERTEX
8
CUT
10
226.423
20
91.851
30
0
0
VERTEX
8
CUT
10
227.377
20
89.548
30
0
0
VERTEX
8
CUT
10
228.127
20
87.171
30
0
0
VERTEX
8
CUT
10
228.666
20
84.737
30
0
0
VERTEX
8
CUT
10
228.992
20
82.265
30
0
0
VERTEX
8
CUT
10
229.100
20
79.775
30
0
0
VERTEX
8
CUT
10
228.992
20
77.284
30
0
0
VERTEX
8
CUT
10
228.666
20
74.813
30
0
0
VERTEX
8
CUT
10
228.127
20
72.379
30
0
0
VERTEX
8
CUT
10
227.377
20
70.002
30
0
0
VERTEX
8
CUT
10
226.423
20
67.699
30
0
0
VERTEX
8
CUT
10
225.272
20
65.487
30
0
0
VERTEX
8
CUT
10
223.933
20
63.385
30
0
0
VERTEX
8
CUT
10
222.415
20
61.407
30
0
0
VERTEX
8
CUT
10
220.731
20
59.569
30
0
0
VERTEX
8
CUT
10
218.893
20
57.885
30
0
0
VERTEX
8
CUT
10
216.915
20
56.368
30
0
0
VERTEX
8
CUT
10
214.813
20
55.028
30
0
0
VERTEX
8
CUT
10
212.602
20
53.877
30
0
0
VERTEX
8
CUT
10
210.298
20
52.923
30
0
0
VERTEX
8
CUT
10
207.921
20
52.174
30
0
0
VERTEX
8
CUT
10
205.487
20
51.634
30
0
0
VERTEX
8
CUT
10
203.016
20
51.309
30
0
0
VERTEX
8
CUT
10
200.525
20
51.200
30
0
0
VERTEX
8
CUT
10
198.035
20
51.309
30
0
0
VERTEX
8
CUT
10
195.563
20
51.634
30
0
0
VERTEX
8
CUT
10
193.129
20
52.174
30
0
0
VERTEX
8
CUT
10
190.752
20
52.923
30
0
0
VERTEX
8
CUT
10
188.449
20
53.877
30
0
0
VERTEX
8
CUT
10
186.238
20
55.028
30
0
0
VERTEX
8
CUT
10
184.135
20
56.368
30
0
0
VERTEX
8
CUT
10
182.158
20
57.885
30
0
0
VERTEX
8
CUT
10
180.320
20
59.569
30
0
0
VERTEX
8
CUT
10
178.635
20
61.407
30
0
0
VERTEX
8
CUT
10
177.118
20
63.385
30
0
0
VERTEX
8
CUT
10
175.778
20
65.487
30
0
0
VERTEX
8
CUT
10
174.627
20
67.699
30
0
0
VERTEX
8
CUT
10
173.673
20
70.002
30
0
0
VERTEX
8
CUT
10
172.924
20
72.379
30
0
0
VERTEX
8
CUT
10
172.384
20
74.813
30
0
0
VERTEX
8
CUT
10
172.059
20
77.284
30
0
0
SEQEND
8
CUT
0
POLYLINE
8
CUT
66
1
70
1
10
0
20
0
30
0
0
VERTEX
8
CUT
10
252.725
20
130.501
30
0
0
VERTEX
8
CUT
10
251.554
20
130.708
30
0
0
VERTEX
8
CUT
10
250.524
20
131.302
30
0
0
VERTEX
8
CUT
10
249.760
20
132.213
30
0
0
VERTEX
8
CUT
10
249.353
20
133.330
30
0
0
VERTEX
8
CUT
10
249.353
20
134.520
30
0
0
VERTEX
8
CUT
10
249.760
20
135.637
30
0
0
VERTEX
8
CUT
10
250.524
20
136.548
30
0
0
VERTEX
8
CUT
10
251.554
20
137.142
30
0
0
VERTEX
8
CUT
10
252.725
20
137.349
30
0
0
VERTEX
8
CUT
10
253.896
20
137.142
30
0
0
VERTEX
8
CUT
10
254.926
20
136.548
30
0
0
VERTEX
8
CUT
10
255.690
20
135.637
30
0
0
VERTEX
8
CUT
10
256.097
20
134.520
30
0
0
VERTEX
8
CUT
10
256.097
20
133.330
30
0
0
VERTEX
8
CUT
10
255.690
20
132.213
30
0
0
VERTEX
8
CUT
10
254.926
20
131.302
30
0
0
VERTEX
8
CUT
10
253.896
20
130.708
30
0
0
SEQEND
8
CUT
0
POLYLINE
8
CUT
66
1
70
1
10
0
20
0
30
0
0
VERTEX
8
CUT
10
260.500
20
193.930
30
0
0
VERTEX
8
CUT
10
260.500
20
118.520
30
0
0
VERTEX
8
CUT
10
260.464
20
118.247
30
0
0
VERTEX
8
CUT
10
260.357
20
117.987
30
0
0
VERTEX
8
CUT
10
260.186
20
117.764
30
0
0
VERTEX
8
CUT
10
259.963
20
117.593
30
0
0
VERTEX
8
CUT
10
259.703
20
117.486
30
0
0
VERTEX
8
CUT
10
259.430
20
117.450
30
0
0
VERTEX
8
CUT
10
220.020
20
117.450
30
0
0
VERTEX
8
CUT
10
219.747
20
117.486
30
0
0
VERTEX
8
CUT
10
219.487
20
117.593
30
0
0
VERTEX
8
CUT
10
219.264
20
117.764
30
0
0
VERTEX
8
CUT
10
219.093
20
117.987
30
0
0
VERTEX
8
CUT
10
218.986
20
118.247
30
0
0
VERTEX
8
CUT
10
218.950
20
118.520
30
0
0
VERTEX
8
CUT
10
218.950
20
193.930
30
0
0
VERTEX
8
CUT
10
218.986
20
194.203
30
0
0
VERTEX
8
CUT
10
219.093
20
194.463
30
0
0
VERTEX
8
CUT
10
219.264
20
194.686
30
0
0
VERTEX
8
CUT
10
219.487
20
194.857
30
0
0
VERTEX
8
CUT
10
219.747
20
194.964
30
0
0
VERTEX
8
CUT
10
220.020
20
195.000
30
0
0
VERTEX
8
CUT
10
259.430
20
195.000
30
0
0
VERTEX
8
CUT
10
259.703
20
194.964
30
0
0
VERTEX
8
CUT
10
259.963
20
194.857
30
0
0
VERTEX
8
CUT
10
260.186
20
194.686
30
0
0
VERTEX
8
CUT
10
260.357
20
194.463
30
0
0
VERTEX
8
CUT
10
260.464
20
194.203
30
0
0
SEQEND
8
CUT
0
POLYLINE
8
CUT
66
1
70
1
10
0
20
0
30
0
0
VERTEX
8
CUT
10
276.650
20
93.400
30
0
0
VERTEX
8
CUT
10
276.650
20
103.350
30
0
0
VERTEX
8
CUT
10
273.700
20
103.350
30
0
0
VERTEX
8
CUT
10
273.700
20
93.400
30
0
0
SEQEND
8
CUT
0
POLYLINE
8
CUT
66
1
70
1
10
0
20
0
30
0
0
VERTEX
8
CUT
10
276.650
20
72.400
30
0
0
VERTEX
8
CUT
10
276.650
20
82.350
30
0
0
VERTEX
8
CUT
10
273.700
20
82.350
30
0
0
VERTEX
8
CUT
10
273.700
20
72.400
30
0
0
SEQEND
8
CUT
0
POLYLINE
8
CUT
66
1
70
1
10
0
20
0
30
0
0
VERTEX
8
CUT
10
248.650
20
108.900
30
0
0
VERTEX
8
CUT
10
248.650
20
111.850
30
0
0
VERTEX
8
CUT
10
238.700
20
111.850
30
0
0
VERTEX
8
CUT
10
238.700
20
108.900
30
0
0
SEQEND
8
CUT
0
POLYLINE
8
CUT
66
1
70
1
10
0
20
0
30
0
0
VERTEX
8
CUT
10
272.650
20
108.900
30
0
0
VERTEX
8
CUT
10
272.650
20
111.850
30
0
0
VERTEX
8
CUT
10
262.700
20
111.850
30
0
0
VERTEX
8
CUT
10
262.700
20
108.900
30
0
0
SEQEND
8
CUT
0
POLYLINE
8
CUT
66
1
70
1
10
0
20
0
30
0
0
VERTEX
8
CUT
10
248.650
20
63.900
30
0
0
VERTEX
8
CUT
10
248.650
20
66.850
30
0
0
VERTEX
8
CUT
10
238.700
20
66.850
30
0
0
VERTEX
8
CUT
10
238.700
20
63.900
30
0
0
SEQEND
8
CUT
0
POLYLINE
8
CUT
66
1
70
1
10
0
20
0
30
0
0
VERTEX
8
CUT
10
272.650
20
63.900
30
0
0
VERTEX
8
CUT
10
272.650
20
66.850
30
0
0
VERTEX
8
CUT
10
262.700
20
66.850
30
0
0
VERTEX
8
CUT
10
262.700
20
63.900
30
0
0
SEQEND
8
CUT
0
POLYLINE
8
CUT
66
1
70
1
10
0
20
0
30
0
0
VERTEX
8
CUT
10
279.750
20
62.870
30
0
0
VERTEX
8
CUT
10
279.750
20
112.880
30
0
0
VERTEX
8
CUT
10
279.680
20
113.412
30
0
0
VERTEX
8
CUT
10
279.473
20
113.913
30
0
0
VERTEX
8
CUT
10
279.143
20
114.343
30
0
0
VERTEX
8
CUT
10
278.713
20
114.673
30
0
0
VERTEX
8
CUT
10
278.213
20
114.880
30
0
0
VERTEX
8
CUT
10
277.680
20
114.950
30
0
0
VERTEX
8
CUT
10
233.670
20
114.950
30
0
0
VERTEX
8
CUT
10
233.138
20
114.880
30
0
0
VERTEX
8
CUT
10
232.637
20
114.673
30
0
0
VERTEX
8
CUT
10
232.208
20
114.343
30
0
0
VERTEX
8
CUT
10
231.878
20
113.913
30
0
0
VERTEX
8
CUT
10
231.670
20
113.412
30
0
0
VERTEX
8
CUT
10
231.600
20
112.880
30
0
0
VERTEX
8
CUT
10
231.600
20
62.870
30
0
0
VERTEX
8
CUT
10
231.670
20
62.338
30
0
0
VERTEX
8
CUT
10
231.878
20
61.837
30
0
0
VERTEX
8
CUT
10
232.208
20
61.407
30
0
0
VERTEX
8
CUT
10
232.637
20
61.077
30
0
0
VERTEX
8
CUT
10
233.138
20
60.870
30
0
0
VERTEX
8
CUT
10
233.670
20
60.800
30
0
0
VERTEX
8
CUT
10
277.680
20
60.800
30
0
0
VERTEX
8
CUT
10
278.213
20
60.870
30
0
0
VERTEX
8
CUT
10
278.713
20
61.077
30
0
0
VERTEX
8
CUT
10
279.143
20
61.407
30
0
0
VERTEX
8
CUT
10
279.473
20
61.837
30
0
0
VERTEX
8
CUT
10
279.680
20
62.338
30
0
0
SEQEND
8
CUT
0
POLYLINE
8
CUT
66
1
70
1
10
0
20
0
30
0
0
VERTEX
8
CUT
10
240.250
20
46.219
30
0
0
VERTEX
8
CUT
10
240.345
20
46.820
30
0
0
VERTEX
8
CUT
10
240.619
20
47.356
30
0
0
VERTEX
8
CUT
10
241.044
20
47.782
30
0
0
VERTEX
8
CUT
10
241.581
20
48.055
30
0
0
VERTEX
8
CUT
10
242.181
20
48.150
30
0
0
VERTEX
8
CUT
10
247.169
20
48.150
30
0
0
VERTEX
8
CUT
10
247.770
20
48.055
30
0
0
VERTEX
8
CUT
10
248.306
20
47.782
30
0
0
VERTEX
8
CUT
10
248.732
20
47.356
30
0
0
VERTEX
8
CUT
10
249.005
20
46.820
30
0
0
VERTEX
8
CUT
10
249.100
20
46.219
30
0
0
VERTEX
8
CUT
10
249.100
20
30.231
30
0
0
VERTEX
8
CUT
10
249.005
20
29.630
30
0
0
VERTEX
8
CUT
10
248.732
20
29.094
30
0
0
VERTEX
8
CUT
10
248.306
20
28.668
30
0
0
VERTEX
8
CUT
10
247.770
20
28.395
30
0
0
VERTEX
8
CUT
10
247.169
20
28.300
30
0
0
VERTEX
8
CUT
10
242.181
20
28.300
30
0
0
VERTEX
8
CUT
10
241.581
20
28.395
30
0
0
VERTEX
8
CUT
10
241.044
20
28.668
30
0
0
VERTEX
8
CUT
10
240.619
20
29.094
30
0
0
VERTEX
8
CUT
10
240.345
20
29.630
30
0
0
VERTEX
8
CUT
10
240.250
20
30.231
30
0
0
SEQEND
8
CUT
0
POLYLINE
8
CUT
66
1
70
1
10
0
20
0
30
0
0
VERTEX
8
CUT
10
274.150
20
13.250
30
0
0
VERTEX
8
CUT
10
264.200
20
13.250
30
0
0
VERTEX
8
CUT
10
264.200
20
16.200
30
0
0
VERTEX
8
CUT
10
274.150
20
16.200
30
0
0
SEQEND
8
CUT
0
POLYLINE
8
CUT
66
1
70
1
10
0
20
0
30
0
0
VERTEX
8
CUT
10
253.150
20
13.250
30
0
0
VERTEX
8
CUT
10
243.200
20
13.250
30
0
0
VERTEX
8
CUT
10
243.200
20
16.200
30
0
0
VERTEX
8
CUT
10
253.150
20
16.200
30
0
0
SEQEND
8
CUT
0
POLYLINE
8
CUT
66
1
70
1
10
0
20
0
30
0
0
VERTEX
8
CUT
10
237.650
20
17.250
30
0
0
VERTEX
8
CUT
10
234.700
20
17.250
30
0
0
VERTEX
8
CUT
10
234.700
20
27.200
30
0
0
VERTEX
8
CUT
10
237.650
20
27.200
30
0
0
SEQEND
8
CUT
0
POLYLINE
8
CUT
66
1
70
1
10
0
20
0
30
0
0
VERTEX
8
CUT
10
237.650
20
41.250
30
0
0
VERTEX
8
CUT
10
234.700
20
41.250
30
0
0
VERTEX
8
CUT
10
234.700
20
51.200
30
0
0
VERTEX
8
CUT
10
237.650
20
51.200
30
0
0
SEQEND
8
CUT
0
POLYLINE
8
CUT
66
1
70
1
10
0
20
0
30
0
0
VERTEX
8
CUT
10
282.650
20
17.250
30
0
0
VERTEX
8
CUT
10
279.700
20
17.250
30
0
0
VERTEX
8
CUT
10
279.700
20
27.200
30
0
0
VERTEX
8
CUT
10
282.650
20
27.200
30
0
0
SEQEND
8
CUT
0
POLYLINE
8
CUT
66
1
70
1
10
0
20
0
30
0
0
VERTEX
8
CUT
10
282.650
20
41.250
30
0
0
VERTEX
8
CUT
10
279.700
20
41.250
30
0
0
VERTEX
8
CUT
10
279.700
20
51.200
30
0
0
VERTEX
8
CUT
10
282.650
20
51.200
30
0
0
SEQEND
8
CUT
0
POLYLINE
8
CUT
66
1
70
1
10
0
20
0
30
0
0
VERTEX
8
CUT
10
283.680
20
10.150
30
0
0
VERTEX
8
CUT
10
233.670
20
10.150
30
0
0
VERTEX
8
CUT
10
233.138
20
10.220
30
0
0
VERTEX
8
CUT
10
232.637
20
10.427
30
0
0
VERTEX
8
CUT
10
232.208
20
10.757
30
0
0
VERTEX
8
CUT
10
231.878
20
11.187
30
0
0
VERTEX
8
CUT
10
231.670
20
11.688
30
0
0
VERTEX
8
CUT
10
231.600
20
12.220
30
0
0
VERTEX
8
CUT
10
231.600
20
56.230
30
0
0
VERTEX
8
CUT
10
231.670
20
56.762
30
0
0
VERTEX
8
CUT
10
231.878
20
57.263
30
0
0
VERTEX
8
CUT
10
232.208
20
57.693
30
0
0
VERTEX
8
CUT
10
232.637
20
58.023
30
0
0
VERTEX
8
CUT
10
233.138
20
58.230
30
0
0
VERTEX
8
CUT
10
233.670
20
58.300
30
0
0
VERTEX
8
CUT
10
283.680
20
58.300
30
0
0
VERTEX
8
CUT
10
284.213
20
58.230
30
0
0
VERTEX
8
CUT
10
284.713
20
58.023
30
0
0
VERTEX
8
CUT
10
285.143
20
57.693
30
0
0
VERTEX
8
CUT
10
285.473
20
57.263
30
0
0
VERTEX
8
CUT
10
285.680
20
56.762
30
0
0
VERTEX
8
CUT
10
285.750
20
56.230
30
0
0
VERTEX
8
CUT
10
285.750
20
12.220
30
0
0
VERTEX
8
CUT
10
285.680
20
11.688
30
0
0
VERTEX
8
CUT
10
285.473
20
11.187
30
0
0
VERTEX
8
CUT
10
285.143
20
10.757
30
0
0
VERTEX
8
CUT
10
284.713
20
10.427
30
0
0
VERTEX
8
CUT
10
284.213
20
10.220
30
0
0
SEQEND
8
CUT
0
POLYLINE
8
CUT
66
1
70
1
10
0
20
0
30
0
0
VERTEX
8
CUT
10
275.521
20
164.559
30
0
0
VERTEX
8
CUT
10
273.797
20
164.255
30
0
0
VERTEX
8
CUT
10
272.938
20
169.130
30
0
0
VERTEX
8
CUT
10
267.937
20
168.248
30
0
0
VERTEX
8
CUT
10
264.664
20
186.812
30
0
0
VERTEX
8
CUT
10
269.665
20
187.694
30
0
0
VERTEX
8
CUT
10
268.805
20
192.569
30
0
0
VERTEX
8
CUT
10
270.528
20
192.872
30
0
0
VERTEX
8
CUT
10
271.388
20
187.998
30
0
0
VERTEX
8
CUT
10
277.543
20
189.083
30
0
0
VERTEX
8
CUT
10
280.816
20
170.519
30
0
0
VERTEX
8
CUT
10
274.661
20
169.434
30
0
0
SEQEND
8
CUT
0
POLYLINE
8
CUT
66
1
70
1
10
0
20
0
30
0
0
VERTEX
8
CUT
10
286.450
20
156.350
30
0
0
VERTEX
8
CUT
10
278.800
20
156.350
30
0
0
VERTEX
8
CUT
10
278.800
20
153.350
30
0
0
VERTEX
8
CUT
10
270.650
20
153.350
30
0
0
VERTEX
8
CUT
10
270.650
20
156.350
30
0
0
VERTEX
8
CUT
10
263.000
20
156.350
30
0
0
VERTEX
8
CUT
10
263.000
20
195.000
30
0
0
VERTEX
8
CUT
10
286.450
20
195.000
30
0
0
SEQEND
8
CUT
0
POLYLINE
8
CUT
66
1
70
1
10
0
20
0
30
0
0
VERTEX
8
CUT
10
287.000
20
136.775
30
0
0
VERTEX
8
CUT
10
286.915
20
138.070
30
0
0
VERTEX
8
CUT
10
286.662
20
139.344
30
0
0
VERTEX
8
CUT
10
286.245
20
140.573
30
0
0
VERTEX
8
CUT
10
285.670
20
141.737
30
0
0
VERTEX
8
CUT
10
284.949
20
142.817
30
0
0
VERTEX
8
CUT
10
284.093
20
143.793
30
0
0
VERTEX
8
CUT
10
283.117
20
144.649
30
0
0
VERTEX
8
CUT
10
282.038
20
145.370
30
0
0
VERTEX
8
CUT
10
280.873
20
145.944
30
0
0
VERTEX
8
CUT
10
279.644
20
146.361
30
0
0
VERTEX
8
CUT
10
278.371
20
146.615
30
0
0
VERTEX
8
CUT
10
277.075
20
146.700
30
0
0
VERTEX
8
CUT
10
275.780
20
146.615
30
0
0
VERTEX
8
CUT
10
274.506
20
146.361
30
0
0
VERTEX
8
CUT
10
273.277
20
145.944
30
0
0
VERTEX
8
CUT
10
272.113
20
145.370
30
0
0
VERTEX
8
CUT
10
271.033
20
144.649
30
0
0
VERTEX
8
CUT
10
270.057
20
143.793
30
0
0
VERTEX
8
CUT
10
269.201
20
142.817
30
0
0
VERTEX
8
CUT
10
268.480
20
141.737
30
0
0
VERTEX
8
CUT
10
267.906
20
140.573
30
0
0
VERTEX
8
CUT
10
267.489
20
139.344
30
0
0
VERTEX
8
CUT
10
267.235
20
138.070
30
0
0
VERTEX
8
CUT
10
267.150
20
136.775
30
0
0
VERTEX
8
CUT
10
267.235
20
135.479
30
0
0
VERTEX
8
CUT
10
267.489
20
134.206
30
0
0
VERTEX
8
CUT
10
267.906
20
132.977
30
0
0
VERTEX
8
CUT
10
268.480
20
131.812
30
0
0
VERTEX
8
CUT
10
269.201
20
130.733
30
0
0
VERTEX
8
CUT
10
270.057
20
129.757
30
0
0
VERTEX
8
CUT
10
271.033
20
128.901
30
0
0
VERTEX
8
CUT
10
272.113
20
128.180
30
0
0
VERTEX
8
CUT
10
273.277
20
127.605
30
0
0
VERTEX
8
CUT
10
274.506
20
127.188
30
0
0
VERTEX
8
CUT
10
275.780
20
126.935
30
0
0
VERTEX
8
CUT
10
277.075
20
126.850
30
0
0
VERTEX
8
CUT
10
278.371
20
126.935
30
0
0
VERTEX
8
CUT
10
279.644
20
127.188
30
0
0
VERTEX
8
CUT
10
280.873
20
127.605
30
0
0
VERTEX
8
CUT
10
282.038
20
128.180
30
0
0
VERTEX
8
CUT
10
283.117
20
128.901
30
0
0
VERTEX
8
CUT
10
284.093
20
129.757
30
0
0
VERTEX
8
CUT
10
284.949
20
130.733
30
0
0
VERTEX
8
CUT
10
285.670
20
131.812
30
0
0
VERTEX
8
CUT
10
286.245
20
132.977
30
0
0
VERTEX
8
CUT
10
286.662
20
134.206
30
0
0
VERTEX
8
CUT
10
286.915
20
135.479
30
0
0
SEQEND
8
CUT
0
POLYLINE
8
CUT
66
1
70
1
10
0
20
0
30
0
0
VERTEX
8
CUT
10
291.150
20
136.775
30
0
0
VERTEX
8
CUT
10
291.030
20
138.612
30
0
0
VERTEX
8
CUT
10
290.671
20
140.418
30
0
0
VERTEX
8
CUT
10
290.079
20
142.161
30
0
0
VERTEX
8
CUT
10
289.265
20
143.812
30
0
0
VERTEX
8
CUT
10
288.242
20
145.343
30
0
0
VERTEX
8
CUT
10
287.028
20
146.727
30
0
0
VERTEX
8
CUT
10
285.644
20
147.941
30
0
0
VERTEX
8
CUT
10
284.113
20
148.964
30
0
0
VERTEX
8
CUT
10
282.461
20
149.779
30
0
0
VERTEX
8
CUT
10
280.718
20
150.370
30
0
0
VERTEX
8
CUT
10
278.912
20
150.730
30
0
0
VERTEX
8
CUT
10
277.075
20
150.850
30
0
0
VERTEX
8
CUT
10
275.238
20
150.730
30
0
0
VERTEX
8
CUT
10
273.432
20
150.370
30
0
0
VERTEX
8
CUT
10
271.689
20
149.779
30
0
0
VERTEX
8
CUT
10
270.038
20
148.964
30
0
0
VERTEX
8
CUT
10
268.507
20
147.941
30
0
0
VERTEX
8
CUT
10
267.123
20
146.727
30
0
0
VERTEX
8
CUT
10
265.909
20
145.343
30
0
0
VERTEX
8
CUT
10
264.886
20
143.812
30
0
0
VERTEX
8
CUT
10
264.071
20
142.161
30
0
0
VERTEX
8
CUT
10
263.480
20
140.418
30
0
0
VERTEX
8
CUT
10
263.120
20
138.612
30
0
0
VERTEX
8
CUT
10
263.000
20
136.775
30
0
0
VERTEX
8
CUT
10
263.120
20
134.938
30
0
0
VERTEX
8
CUT
10
263.480
20
133.132
30
0
0
VERTEX
8
CUT
10
264.071
20
131.389
30
0
0
VERTEX
8
CUT
10
264.886
20
129.737
30
0
0
VERTEX
8
CUT
10
265.909
20
128.206
30
0
0
VERTEX
8
CUT
10
267.123
20
126.822
30
0
0
VERTEX
8
CUT
10
268.507
20
125.608
30
0
0
VERTEX
8
CUT
10
270.038
20
124.585
30
0
0
VERTEX
8
CUT
10
271.689
20
123.771
30
0
0
VERTEX
8
CUT
10
273.432
20
123.179
30
0
0
VERTEX
8
CUT
10
275.238
20
122.820
30
0
0
VERTEX
8
CUT
10
277.075
20
122.700
30
0
0
VERTEX
8
CUT
10
278.912
20
122.820
30
0
0
VERTEX
8
CUT
10
280.718
20
123.179
30
0
0
VERTEX
8
CUT
10
282.461
20
123.771
30
0
0
VERTEX
8
CUT
10
284.113
20
124.585
30
0
0
VERTEX
8
CUT
10
285.644
20
125.608
30
0
0
VERTEX
8
CUT
10
287.028
20
126.822
30
0
0
VERTEX
8
CUT
10
288.242
20
128.206
30
0
0
VERTEX
8
CUT
10
289.265
20
129.737
30
0
0
VERTEX
8
CUT
10
290.079
20
131.389
30
0
0
VERTEX
8
CUT
10
290.671
20
133.132
30
0
0
VERTEX
8
CUT
10
291.030
20
134.938
30
0
0
SEQEND
8
CUT
0
POLYLINE
8
CUT
66
1
70
1
10
0
20
0
30
0
0
VERTEX
8
CUT
10
136.300
20
34.625
30
0
0
VERTEX
8
CUT
10
136.215
20
35.920
30
0
0
VERTEX
8
CUT
10
135.962
20
37.193
30
0
0
VERTEX
8
CUT
10
135.545
20
38.423
30
0
0
VERTEX
8
CUT
10
134.970
20
39.587
30
0
0
VERTEX
8
CUT
10
134.249
20
40.667
30
0
0
VERTEX
8
CUT
10
133.393
20
41.643
30
0
0
VERTEX
8
CUT
10
132.417
20
42.499
30
0
0
VERTEX
8
CUT
10
131.338
20
43.220
30
0
0
VERTEX
8
CUT
10
130.173
20
43.794
30
0
0
VERTEX
8
CUT
10
128.944
20
44.211
30
0
0
VERTEX
8
CUT
10
127.671
20
44.465
30
0
0
VERTEX
8
CUT
10
126.375
20
44.550
30
0
0
VERTEX
8
CUT
10
125.080
20
44.465
30
0
0
VERTEX
8
CUT
10
123.806
20
44.211
30
0
0
VERTEX
8
CUT
10
122.577
20
43.794
30
0
0
VERTEX
8
CUT
10
121.413
20
43.220
30
0
0
VERTEX
8
CUT
10
120.333
20
42.499
30
0
0
VERTEX
8
CUT
10
119.357
20
41.643
30
0
0
VERTEX
8
CUT
10
118.501
20
40.667
30
0
0
VERTEX
8
CUT
10
117.780
20
39.587
30
0
0
VERTEX
8
CUT
10
117.206
20
38.423
30
0
0
VERTEX
8
CUT
10
116.789
20
37.193
30
0
0
VERTEX
8
CUT
10
116.535
20
35.920
30
0
0
VERTEX
8
CUT
10
116.450
20
34.625
30
0
0
VERTEX
8
CUT
10
116.535
20
33.329
30
0
0
VERTEX
8
CUT
10
116.789
20
32.056
30
0
0
VERTEX
8
CUT
10
117.206
20
30.827
30
0
0
VERTEX
8
CUT
10
117.780
20
29.662
30
0
0
VERTEX
8
CUT
10
118.501
20
28.583
30
0
0
VERTEX
8
CUT
10
119.357
20
27.607
30
0
0
VERTEX
8
CUT
10
120.333
20
26.751
30
0
0
VERTEX
8
CUT
10
121.413
20
26.030
30
0
0
VERTEX
8
CUT
10
122.577
20
25.455
30
0
0
VERTEX
8
CUT
10
123.806
20
25.038
30
0
0
VERTEX
8
CUT
10
125.080
20
24.785
30
0
0
VERTEX
8
CUT
10
126.375
20
24.700
30
0
0
VERTEX
8
CUT
10
127.671
20
24.785
30
0
0
VERTEX
8
CUT
10
128.944
20
25.038
30
0
0
VERTEX
8
CUT
10
130.173
20
25.455
30
0
0
VERTEX
8
CUT
10
131.338
20
26.030
30
0
0
VERTEX
8
CUT
10
132.417
20
26.751
30
0
0
VERTEX
8
CUT
10
133.393
20
27.607
30
0
0
VERTEX
8
CUT
10
134.249
20
28.583
30
0
0
VERTEX
8
CUT
10
134.970
20
29.662
30
0
0
VERTEX
8
CUT
10
135.545
20
30.827
30
0
0
VERTEX
8
CUT
10
135.962
20
32.056
30
0
0
VERTEX
8
CUT
10
136.215
20
33.329
30
0
0
SEQEND
8
CUT
0
POLYLINE
8
CUT
66
1
70
1
10
0
20
0
30
0
0
VERTEX
8
CUT
10
140.450
20
34.625
30
0
0
VERTEX
8
CUT
10
140.330
20
36.462
30
0
0
VERTEX
8
CUT
10
139.971
20
38.268
30
0
0
VERTEX
8
CUT
10
139.379
20
40.011
30
0
0
VERTEX
8
CUT
10
138.565
20
41.662
30
0
0
VERTEX
8
CUT
10
137.542
20
43.193
30
0
0
VERTEX
8
CUT
10
136.328
20
44.577
30
0
0
VERTEX
8
CUT
10
134.944
20
45.791
30
0
0
VERTEX
8
CUT
10
133.413
20
46.814
30
0
0
VERTEX
8
CUT
10
131.761
20
47.628
30
0
0
VERTEX
8
CUT
10
130.018
20
48.220
30
0
0
VERTEX
8
CUT
10
128.212
20
48.579
30
0
0
VERTEX
8
CUT
10
126.375
20
48.700
30
0
0
VERTEX
8
CUT
10
124.538
20
48.579
30
0
0
VERTEX
8
CUT
10
122.732
20
48.220
30
0
0
VERTEX
8
CUT
10
120.989
20
47.628
30
0
0
VERTEX
8
CUT
10
119.338
20
46.814
30
0
0
VERTEX
8
CUT
10
117.807
20
45.791
30
0
0
VERTEX
8
CUT
10
116.423
20
44.577
30
0
0
VERTEX
8
CUT
10
115.209
20
43.193
30
0
0
VERTEX
8
CUT
10
114.186
20
41.662
30
0
0
VERTEX
8
CUT
10
113.371
20
40.011
30
0
0
VERTEX
8
CUT
10
112.780
20
38.268
30
0
0
VERTEX
8
CUT
10
112.420
20
36.462
30
0
0
VERTEX
8
CUT
10
112.300
20
34.625
30
0
0
VERTEX
8
CUT
10
112.420
20
32.788
30
0
0
VERTEX
8
CUT
10
112.780
20
30.982
30
0
0
VERTEX
8
CUT
10
113.371
20
29.238
30
0
0
VERTEX
8
CUT
10
114.186
20
27.587
30
0
0
VERTEX
8
CUT
10
115.209
20
26.056
30
0
0
VERTEX
8
CUT
10
116.423
20
24.672
30
0
0
VERTEX
8
CUT
10
117.807
20
23.458
30
0
0
VERTEX
8
CUT
10
119.338
20
22.435
30
0
0
VERTEX
8
CUT
10
120.989
20
21.621
30
0
0
VERTEX
8
CUT
10
122.732
20
21.029
30
0
0
VERTEX
8
CUT
10
124.538
20
20.670
30
0
0
VERTEX
8
CUT
10
126.375
20
20.550
30
0
0
VERTEX
8
CUT
10
128.212
20
20.670
30
0
0
VERTEX
8
CUT
10
130.018
20
21.029
30
0
0
VERTEX
8
CUT
10
131.761
20
21.621
30
0
0
VERTEX
8
CUT
10
133.413
20
22.435
30
0
0
VERTEX
8
CUT
10
134.944
20
23.458
30
0
0
VERTEX
8
CUT
10
136.328
20
24.672
30
0
0
VERTEX
8
CUT
10
137.542
20
26.056
30
0
0
VERTEX
8
CUT
10
138.565
20
27.587
30
0
0
VERTEX
8
CUT
10
139.379
20
29.238
30
0
0
VERTEX
8
CUT
10
139.971
20
30.982
30
0
0
VERTEX
8
CUT
10
140.330
20
32.788
30
0
0
SEQEND
8
CUT
0
ENDSEC
0
EOF
