0
SECTION
2
HEADER
9
$ACADVER
1
AC1009
9
$INSUNITS
70
4
0
ENDSEC
0
SECTION
2
TABLES
0
TABLE
2
LAYER
70
3
0
LAYER
2
CUT
70
0
62
1
6
CONTINUOUS
0
LAYER
2
SCORE
70
0
62
5
6
CONTINUOUS
0
LAYER
2
ENGRAVE
70
0
62
7
6
CONTINUOUS
0
ENDTAB
0
ENDSEC
0
SECTION
2
ENTITIES
0
POLYLINE
8
SCORE
66
1
70
1
10
0
20
0
30
0
0
VERTEX
8
SCORE
10
29.775
20
253.225
30
0
0
VERTEX
8
SCORE
10
29.870
20
255.404
30
0
0
VERTEX
8
SCORE
10
30.155
20
257.566
30
0
0
VERTEX
8
SCORE
10
30.627
20
259.695
30
0
0
VERTEX
8
SCORE
10
31.283
20
261.776
30
0
0
VERTEX
8
SCORE
10
32.117
20
263.790
30
0
0
VERTEX
8
SCORE
10
33.124
20
265.725
30
0
0
VERTEX
8
SCORE
10
34.296
20
267.564
30
0
0
VERTEX
8
SCORE
10
35.624
20
269.295
30
0
0
VERTEX
8
SCORE
10
37.097
20
270.903
30
0
0
VERTEX
8
SCORE
10
38.705
20
272.376
30
0
0
VERTEX
8
SCORE
10
40.436
20
273.704
30
0
0
VERTEX
8
SCORE
10
42.275
20
274.876
30
0
0
VERTEX
8
SCORE
10
44.210
20
275.883
30
0
0
VERTEX
8
SCORE
10
46.224
20
276.717
30
0
0
VERTEX
8
SCORE
10
48.305
20
277.373
30
0
0
VERTEX
8
SCORE
10
50.434
20
277.845
30
0
0
VERTEX
8
SCORE
10
52.596
20
278.130
30
0
0
VERTEX
8
SCORE
10
54.775
20
278.225
30
0
0
VERTEX
8
SCORE
10
56.954
20
278.130
30
0
0
VERTEX
8
SCORE
10
59.116
20
277.845
30
0
0
VERTEX
8
SCORE
10
61.245
20
277.373
30
0
0
VERTEX
8
SCORE
10
63.326
20
276.717
30
0
0
VERTEX
8
SCORE
10
65.340
20
275.883
30
0
0
VERTEX
8
SCORE
10
67.275
20
274.876
30
0
0
VERTEX
8
SCORE
10
69.114
20
273.704
30
0
0
VERTEX
8
SCORE
10
70.845
20
272.376
30
0
0
VERTEX
8
SCORE
10
72.453
20
270.903
30
0
0
VERTEX
8
SCORE
10
73.926
20
269.295
30
0
0
VERTEX
8
SCORE
10
75.254
20
267.564
30
0
0
VERTEX
8
SCORE
10
76.426
20
265.725
30
0
0
VERTEX
8
SCORE
10
77.433
20
263.790
30
0
0
VERTEX
8
SCORE
10
78.267
20
261.776
30
0
0
VERTEX
8
SCORE
10
78.923
20
259.695
30
0
0
VERTEX
8
SCORE
10
79.395
20
257.566
30
0
0
VERTEX
8
SCORE
10
79.680
20
255.404
30
0
0
VERTEX
8
SCORE
10
79.775
20
253.225
30
0
0
VERTEX
8
SCORE
10
79.680
20
251.046
30
0
0
VERTEX
8
SCORE
10
79.395
20
248.884
30
0
0
VERTEX
8
SCORE
10
78.923
20
246.755
30
0
0
VERTEX
8
SCORE
10
78.267
20
244.674
30
0
0
VERTEX
8
SCORE
10
77.433
20
242.660
30
0
0
VERTEX
8
SCORE
10
76.426
20
240.725
30
0
0
VERTEX
8
SCORE
10
75.254
20
238.886
30
0
0
VERTEX
8
SCORE
10
73.926
20
237.155
30
0
0
VERTEX
8
SCORE
10
72.453
20
235.547
30
0
0
VERTEX
8
SCORE
10
70.845
20
234.074
30
0
0
VERTEX
8
SCORE
10
69.114
20
232.746
30
0
0
VERTEX
8
SCORE
10
67.275
20
231.574
30
0
0
VERTEX
8
SCORE
10
65.340
20
230.567
30
0
0
VERTEX
8
SCORE
10
63.326
20
229.733
30
0
0
VERTEX
8
SCORE
10
61.245
20
229.077
30
0
0
VERTEX
8
SCORE
10
59.116
20
228.605
30
0
0
VERTEX
8
SCORE
10
56.954
20
228.320
30
0
0
VERTEX
8
SCORE
10
54.775
20
228.225
30
0
0
VERTEX
8
SCORE
10
52.596
20
228.320
30
0
0
VERTEX
8
SCORE
10
50.434
20
228.605
30
0
0
VERTEX
8
SCORE
10
48.305
20
229.077
30
0
0
VERTEX
8
SCORE
10
46.224
20
229.733
30
0
0
VERTEX
8
SCORE
10
44.210
20
230.567
30
0
0
VERTEX
8
SCORE
10
42.275
20
231.574
30
0
0
VERTEX
8
SCORE
10
40.436
20
232.746
30
0
0
VERTEX
8
SCORE
10
38.705
20
234.074
30
0
0
VERTEX
8
SCORE
10
37.097
20
235.547
30
0
0
VERTEX
8
SCORE
10
35.624
20
237.155
30
0
0
VERTEX
8
SCORE
10
34.296
20
238.886
30
0
0
VERTEX
8
SCORE
10
33.124
20
240.725
30
0
0
VERTEX
8
SCORE
10
32.117
20
242.660
30
0
0
VERTEX
8
SCORE
10
31.283
20
244.674
30
0
0
VERTEX
8
SCORE
10
30.627
20
246.755
30
0
0
VERTEX
8
SCORE
10
30.155
20
248.884
30
0
0
VERTEX
8
SCORE
10
29.870
20
251.046
30
0
0
SEQEND
8
SCORE
0
POLYLINE
8
ENGRAVE
66
1
70
1
10
0
20
0
30
0
0
VERTEX
8
ENGRAVE
10
161.997
20
267.206
30
0
0
VERTEX
8
ENGRAVE
10
162.747
20
267.206
30
0
0
VERTEX
8
ENGRAVE
10
163.591
20
266.925
30
0
0
VERTEX
8
ENGRAVE
10
164.247
20
266.363
30
0
0
VERTEX
8
ENGRAVE
10
164.528
20
265.800
30
0
0
VERTEX
8
ENGRAVE
10
164.434
20
265.613
30
0
0
VERTEX
8
ENGRAVE
10
163.778
20
265.519
30
0
0
VERTEX
8
ENGRAVE
10
163.684
20
265.988
30
0
0
VERTEX
8
ENGRAVE
10
162.747
20
266.550
30
0
0
VERTEX
8
ENGRAVE
10
161.809
20
266.550
30
0
0
VERTEX
8
ENGRAVE
10
161.059
20
265.988
30
0
0
VERTEX
8
ENGRAVE
10
160.966
20
265.519
30
0
0
VERTEX
8
ENGRAVE
10
161.341
20
264.863
30
0
0
VERTEX
8
ENGRAVE
10
163.778
20
264.206
30
0
0
VERTEX
8
ENGRAVE
10
164.622
20
263.456
30
0
0
VERTEX
8
ENGRAVE
10
164.716
20
262.144
30
0
0
VERTEX
8
ENGRAVE
10
164.528
20
261.675
30
0
0
VERTEX
8
ENGRAVE
10
164.059
20
261.206
30
0
0
VERTEX
8
ENGRAVE
10
163.122
20
260.831
30
0
0
VERTEX
8
ENGRAVE
10
161.247
20
261.019
30
0
0
VERTEX
8
ENGRAVE
10
160.309
20
261.769
30
0
0
VERTEX
8
ENGRAVE
10
159.934
20
262.425
30
0
0
VERTEX
8
ENGRAVE
10
159.934
20
262.613
30
0
0
VERTEX
8
ENGRAVE
10
160.684
20
262.706
30
0
0
VERTEX
8
ENGRAVE
10
161.153
20
261.863
30
0
0
VERTEX
8
ENGRAVE
10
162.091
20
261.488
30
0
0
VERTEX
8
ENGRAVE
10
163.216
20
261.581
30
0
0
VERTEX
8
ENGRAVE
10
163.872
20
262.144
30
0
0
VERTEX
8
ENGRAVE
10
163.966
20
262.706
30
0
0
VERTEX
8
ENGRAVE
10
163.684
20
263.269
30
0
0
VERTEX
8
ENGRAVE
10
163.216
20
263.550
30
0
0
VERTEX
8
ENGRAVE
10
161.153
20
264.019
30
0
0
VERTEX
8
ENGRAVE
10
160.309
20
264.863
30
0
0
VERTEX
8
ENGRAVE
10
160.216
20
265.706
30
0
0
VERTEX
8
ENGRAVE
10
160.403
20
266.363
30
0
0
VERTEX
8
ENGRAVE
10
160.872
20
266.831
30
0
0
SEQEND
8
ENGRAVE
0
POLYLINE
8
ENGRAVE
66
1
70
1
10
0
20
0
30
0
0
VERTEX
8
ENGRAVE
10
146.059
20
267.113
30
0
0
VERTEX
8
ENGRAVE
10
146.997
20
267.019
30
0
0
VERTEX
8
ENGRAVE
10
148.872
20
260.925
30
0
0
VERTEX
8
ENGRAVE
10
148.028
20
261.019
30
0
0
VERTEX
8
ENGRAVE
10
147.559
20
262.706
30
0
0
VERTEX
8
ENGRAVE
10
145.216
20
262.706
30
0
0
VERTEX
8
ENGRAVE
10
144.747
20
261.019
30
0
0
VERTEX
8
ENGRAVE
10
143.997
20
260.925
30
0
0
SEQEND
8
ENGRAVE
0
POLYLINE
8
ENGRAVE
66
1
70
1
10
0
20
0
30
0
0
VERTEX
8
ENGRAVE
10
149.716
20
267.113
30
0
0
VERTEX
8
ENGRAVE
10
152.903
20
267.019
30
0
0
VERTEX
8
ENGRAVE
10
153.841
20
266.363
30
0
0
VERTEX
8
ENGRAVE
10
154.122
20
265.425
30
0
0
VERTEX
8
ENGRAVE
10
154.028
20
264.769
30
0
0
VERTEX
8
ENGRAVE
10
153.466
20
264.019
30
0
0
VERTEX
8
ENGRAVE
10
152.997
20
263.831
30
0
0
VERTEX
8
ENGRAVE
10
152.997
20
263.550
30
0
0
VERTEX
8
ENGRAVE
10
154.122
20
260.925
30
0
0
VERTEX
8
ENGRAVE
10
153.278
20
260.925
30
0
0
VERTEX
8
ENGRAVE
10
152.247
20
263.550
30
0
0
VERTEX
8
ENGRAVE
10
150.466
20
263.550
30
0
0
VERTEX
8
ENGRAVE
10
150.466
20
260.925
30
0
0
VERTEX
8
ENGRAVE
10
149.716
20
260.925
30
0
0
SEQEND
8
ENGRAVE
0
POLYLINE
8
ENGRAVE
66
1
70
1
10
0
20
0
30
0
0
VERTEX
8
ENGRAVE
10
155.247
20
267.113
30
0
0
VERTEX
8
ENGRAVE
10
159.184
20
267.113
30
0
0
VERTEX
8
ENGRAVE
10
159.184
20
266.456
30
0
0
VERTEX
8
ENGRAVE
10
156.091
20
266.456
30
0
0
VERTEX
8
ENGRAVE
10
156.091
20
264.488
30
0
0
VERTEX
8
ENGRAVE
10
158.528
20
264.488
30
0
0
VERTEX
8
ENGRAVE
10
158.528
20
263.831
30
0
0
VERTEX
8
ENGRAVE
10
156.091
20
263.831
30
0
0
VERTEX
8
ENGRAVE
10
156.091
20
261.581
30
0
0
VERTEX
8
ENGRAVE
10
159.278
20
261.581
30
0
0
VERTEX
8
ENGRAVE
10
159.278
20
260.925
30
0
0
VERTEX
8
ENGRAVE
10
155.247
20
260.925
30
0
0
SEQEND
8
ENGRAVE
0
POLYLINE
8
ENGRAVE
66
1
70
1
10
0
20
0
30
0
0
VERTEX
8
ENGRAVE
10
170.528
20
267.113
30
0
0
VERTEX
8
ENGRAVE
10
171.091
20
267.113
30
0
0
VERTEX
8
ENGRAVE
10
171.091
20
261.488
30
0
0
VERTEX
8
ENGRAVE
10
172.872
20
261.488
30
0
0
VERTEX
8
ENGRAVE
10
172.872
20
260.925
30
0
0
VERTEX
8
ENGRAVE
10
168.559
20
260.925
30
0
0
VERTEX
8
ENGRAVE
10
168.559
20
261.488
30
0
0
VERTEX
8
ENGRAVE
10
170.341
20
261.488
30
0
0
VERTEX
8
ENGRAVE
10
170.341
20
266.081
30
0
0
VERTEX
8
ENGRAVE
10
168.841
20
264.863
30
0
0
VERTEX
8
ENGRAVE
10
168.653
20
264.863
30
0
0
VERTEX
8
ENGRAVE
10
168.653
20
265.613
30
0
0
VERTEX
8
ENGRAVE
10
169.778
20
266.269
30
0
0
SEQEND
8
ENGRAVE
0
POLYLINE
8
ENGRAVE
66
1
70
1
10
0
20
0
30
0
0
VERTEX
8
ENGRAVE
10
150.559
20
266.456
30
0
0
VERTEX
8
ENGRAVE
10
150.466
20
264.206
30
0
0
VERTEX
8
ENGRAVE
10
152.622
20
264.300
30
0
0
VERTEX
8
ENGRAVE
10
153.184
20
264.769
30
0
0
VERTEX
8
ENGRAVE
10
153.278
20
265.706
30
0
0
VERTEX
8
ENGRAVE
10
152.997
20
266.175
30
0
0
VERTEX
8
ENGRAVE
10
152.247
20
266.456
30
0
0
SEQEND
8
ENGRAVE
0
POLYLINE
8
ENGRAVE
66
1
70
1
10
0
20
0
30
0
0
VERTEX
8
ENGRAVE
10
146.434
20
266.175
30
0
0
VERTEX
8
ENGRAVE
10
145.497
20
263.363
30
0
0
VERTEX
8
ENGRAVE
10
147.278
20
263.363
30
0
0
SEQEND
8
ENGRAVE
0
POLYLINE
8
ENGRAVE
66
1
70
1
10
0
20
0
30
0
0
VERTEX
8
ENGRAVE
10
165.184
20
263.550
30
0
0
VERTEX
8
ENGRAVE
10
167.059
20
263.550
30
0
0
VERTEX
8
ENGRAVE
10
167.059
20
262.988
30
0
0
VERTEX
8
ENGRAVE
10
165.091
20
262.988
30
0
0
SEQEND
8
ENGRAVE
0
POLYLINE
8
ENGRAVE
66
1
70
1
10
0
20
0
30
0
0
VERTEX
8
ENGRAVE
10
263.997
20
267.206
30
0
0
VERTEX
8
ENGRAVE
10
264.747
20
267.206
30
0
0
VERTEX
8
ENGRAVE
10
265.591
20
266.925
30
0
0
VERTEX
8
ENGRAVE
10
266.247
20
266.363
30
0
0
VERTEX
8
ENGRAVE
10
266.528
20
265.800
30
0
0
VERTEX
8
ENGRAVE
10
266.434
20
265.613
30
0
0
VERTEX
8
ENGRAVE
10
265.778
20
265.519
30
0
0
VERTEX
8
ENGRAVE
10
265.684
20
265.988
30
0
0
VERTEX
8
ENGRAVE
10
264.747
20
266.550
30
0
0
VERTEX
8
ENGRAVE
10
263.809
20
266.550
30
0
0
VERTEX
8
ENGRAVE
10
263.059
20
265.988
30
0
0
VERTEX
8
ENGRAVE
10
262.966
20
265.519
30
0
0
VERTEX
8
ENGRAVE
10
263.341
20
264.863
30
0
0
VERTEX
8
ENGRAVE
10
265.778
20
264.206
30
0
0
VERTEX
8
ENGRAVE
10
266.622
20
263.456
30
0
0
VERTEX
8
ENGRAVE
10
266.716
20
262.144
30
0
0
VERTEX
8
ENGRAVE
10
266.528
20
261.675
30
0
0
VERTEX
8
ENGRAVE
10
266.059
20
261.206
30
0
0
VERTEX
8
ENGRAVE
10
265.122
20
260.831
30
0
0
VERTEX
8
ENGRAVE
10
263.247
20
261.019
30
0
0
VERTEX
8
ENGRAVE
10
262.309
20
261.769
30
0
0
VERTEX
8
ENGRAVE
10
261.934
20
262.425
30
0
0
VERTEX
8
ENGRAVE
10
261.934
20
262.613
30
0
0
VERTEX
8
ENGRAVE
10
262.684
20
262.706
30
0
0
VERTEX
8
ENGRAVE
10
263.153
20
261.863
30
0
0
VERTEX
8
ENGRAVE
10
264.091
20
261.488
30
0
0
VERTEX
8
ENGRAVE
10
265.216
20
261.581
30
0
0
VERTEX
8
ENGRAVE
10
265.872
20
262.144
30
0
0
VERTEX
8
ENGRAVE
10
265.966
20
262.706
30
0
0
VERTEX
8
ENGRAVE
10
265.684
20
263.269
30
0
0
VERTEX
8
ENGRAVE
10
265.216
20
263.550
30
0
0
VERTEX
8
ENGRAVE
10
263.153
20
264.019
30
0
0
VERTEX
8
ENGRAVE
10
262.309
20
264.863
30
0
0
VERTEX
8
ENGRAVE
10
262.216
20
265.706
30
0
0
VERTEX
8
ENGRAVE
10
262.403
20
266.363
30
0
0
VERTEX
8
ENGRAVE
10
262.872
20
266.831
30
0
0
SEQEND
8
ENGRAVE
0
POLYLINE
8
ENGRAVE
66
1
70
1
10
0
20
0
30
0
0
VERTEX
8
ENGRAVE
10
248.059
20
267.113
30
0
0
VERTEX
8
ENGRAVE
10
248.997
20
267.019
30
0
0
VERTEX
8
ENGRAVE
10
250.872
20
260.925
30
0
0
VERTEX
8
ENGRAVE
10
250.028
20
261.019
30
0
0
VERTEX
8
ENGRAVE
10
249.559
20
262.706
30
0
0
VERTEX
8
ENGRAVE
10
247.216
20
262.706
30
0
0
VERTEX
8
ENGRAVE
10
246.747
20
261.019
30
0
0
VERTEX
8
ENGRAVE
10
245.997
20
260.925
30
0
0
SEQEND
8
ENGRAVE
0
POLYLINE
8
ENGRAVE
66
1
70
1
10
0
20
0
30
0
0
VERTEX
8
ENGRAVE
10
251.716
20
267.113
30
0
0
VERTEX
8
ENGRAVE
10
254.903
20
267.019
30
0
0
VERTEX
8
ENGRAVE
10
255.841
20
266.363
30
0
0
VERTEX
8
ENGRAVE
10
256.122
20
265.425
30
0
0
VERTEX
8
ENGRAVE
10
256.028
20
264.769
30
0
0
VERTEX
8
ENGRAVE
10
255.466
20
264.019
30
0
0
VERTEX
8
ENGRAVE
10
254.997
20
263.831
30
0
0
VERTEX
8
ENGRAVE
10
254.997
20
263.550
30
0
0
VERTEX
8
ENGRAVE
10
256.122
20
260.925
30
0
0
VERTEX
8
ENGRAVE
10
255.278
20
260.925
30
0
0
VERTEX
8
ENGRAVE
10
254.247
20
263.550
30
0
0
VERTEX
8
ENGRAVE
10
252.466
20
263.550
30
0
0
VERTEX
8
ENGRAVE
10
252.466
20
260.925
30
0
0
VERTEX
8
ENGRAVE
10
251.716
20
260.925
30
0
0
SEQEND
8
ENGRAVE
0
POLYLINE
8
ENGRAVE
66
1
70
1
10
0
20
0
30
0
0
VERTEX
8
ENGRAVE
10
257.247
20
267.113
30
0
0
VERTEX
8
ENGRAVE
10
261.184
20
267.113
30
0
0
VERTEX
8
ENGRAVE
10
261.184
20
266.456
30
0
0
VERTEX
8
ENGRAVE
10
258.091
20
266.456
30
0
0
VERTEX
8
ENGRAVE
10
258.091
20
264.488
30
0
0
VERTEX
8
ENGRAVE
10
260.528
20
264.488
30
0
0
VERTEX
8
ENGRAVE
10
260.528
20
263.831
30
0
0
VERTEX
8
ENGRAVE
10
258.091
20
263.831
30
0
0
VERTEX
8
ENGRAVE
10
258.091
20
261.581
30
0
0
VERTEX
8
ENGRAVE
10
261.278
20
261.581
30
0
0
VERTEX
8
ENGRAVE
10
261.278
20
260.925
30
0
0
VERTEX
8
ENGRAVE
10
257.247
20
260.925
30
0
0
SEQEND
8
ENGRAVE
0
POLYLINE
8
ENGRAVE
66
1
70
1
10
0
20
0
30
0
0
VERTEX
8
ENGRAVE
10
272.528
20
267.113
30
0
0
VERTEX
8
ENGRAVE
10
273.091
20
267.113
30
0
0
VERTEX
8
ENGRAVE
10
273.091
20
261.488
30
0
0
VERTEX
8
ENGRAVE
10
274.872
20
261.488
30
0
0
VERTEX
8
ENGRAVE
10
274.872
20
260.925
30
0
0
VERTEX
8
ENGRAVE
10
270.559
20
260.925
30
0
0
VERTEX
8
ENGRAVE
10
270.559
20
261.488
30
0
0
VERTEX
8
ENGRAVE
10
272.341
20
261.488
30
0
0
VERTEX
8
ENGRAVE
10
272.341
20
266.081
30
0
0
VERTEX
8
ENGRAVE
10
270.841
20
264.863
30
0
0
VERTEX
8
ENGRAVE
10
270.653
20
264.863
30
0
0
VERTEX
8
ENGRAVE
10
270.653
20
265.613
30
0
0
VERTEX
8
ENGRAVE
10
271.778
20
266.269
30
0
0
SEQEND
8
ENGRAVE
0
POLYLINE
8
ENGRAVE
66
1
70
1
10
0
20
0
30
0
0
VERTEX
8
ENGRAVE
10
252.559
20
266.456
30
0
0
VERTEX
8
ENGRAVE
10
252.466
20
264.206
30
0
0
VERTEX
8
ENGRAVE
10
254.622
20
264.300
30
0
0
VERTEX
8
ENGRAVE
10
255.184
20
264.769
30
0
0
VERTEX
8
ENGRAVE
10
255.278
20
265.706
30
0
0
VERTEX
8
ENGRAVE
10
254.997
20
266.175
30
0
0
VERTEX
8
ENGRAVE
10
254.247
20
266.456
30
0
0
SEQEND
8
ENGRAVE
0
POLYLINE
8
ENGRAVE
66
1
70
1
10
0
20
0
30
0
0
VERTEX
8
ENGRAVE
10
248.434
20
266.175
30
0
0
VERTEX
8
ENGRAVE
10
247.497
20
263.363
30
0
0
VERTEX
8
ENGRAVE
10
249.278
20
263.363
30
0
0
SEQEND
8
ENGRAVE
0
POLYLINE
8
ENGRAVE
66
1
70
1
10
0
20
0
30
0
0
VERTEX
8
ENGRAVE
10
267.184
20
263.550
30
0
0
VERTEX
8
ENGRAVE
10
269.059
20
263.550
30
0
0
VERTEX
8
ENGRAVE
10
269.059
20
262.988
30
0
0
VERTEX
8
ENGRAVE
10
267.091
20
262.988
30
0
0
SEQEND
8
ENGRAVE
0
POLYLINE
8
ENGRAVE
66
1
70
1
10
0
20
0
30
0
0
VERTEX
8
ENGRAVE
10
350.479
20
265.247
30
0
0
VERTEX
8
ENGRAVE
10
350.979
20
265.205
30
0
0
VERTEX
8
ENGRAVE
10
351.313
20
265.039
30
0
0
VERTEX
8
ENGRAVE
10
351.563
20
264.705
30
0
0
VERTEX
8
ENGRAVE
10
351.604
20
264.330
30
0
0
VERTEX
8
ENGRAVE
10
351.563
20
264.122
30
0
0
VERTEX
8
ENGRAVE
10
351.313
20
263.705
30
0
0
VERTEX
8
ENGRAVE
10
350.146
20
262.747
30
0
0
VERTEX
8
ENGRAVE
10
351.604
20
262.747
30
0
0
VERTEX
8
ENGRAVE
10
351.604
20
262.455
30
0
0
VERTEX
8
ENGRAVE
10
349.646
20
262.455
30
0
0
VERTEX
8
ENGRAVE
10
349.646
20
262.747
30
0
0
VERTEX
8
ENGRAVE
10
350.813
20
263.622
30
0
0
VERTEX
8
ENGRAVE
10
351.146
20
263.997
30
0
0
VERTEX
8
ENGRAVE
10
351.229
20
264.205
30
0
0
VERTEX
8
ENGRAVE
10
351.188
20
264.705
30
0
0
VERTEX
8
ENGRAVE
10
350.813
20
264.955
30
0
0
VERTEX
8
ENGRAVE
10
350.438
20
264.955
30
0
0
VERTEX
8
ENGRAVE
10
350.188
20
264.830
30
0
0
VERTEX
8
ENGRAVE
10
349.979
20
264.497
30
0
0
VERTEX
8
ENGRAVE
10
349.979
20
264.330
30
0
0
VERTEX
8
ENGRAVE
10
349.646
20
264.414
30
0
0
VERTEX
8
ENGRAVE
10
349.813
20
264.872
30
0
0
VERTEX
8
ENGRAVE
10
350.021
20
265.080
30
0
0
SEQEND
8
ENGRAVE
0
POLYLINE
8
ENGRAVE
66
1
70
1
10
0
20
0
30
0
0
VERTEX
8
ENGRAVE
10
347.271
20
265.205
30
0
0
VERTEX
8
ENGRAVE
10
348.729
20
265.164
30
0
0
VERTEX
8
ENGRAVE
10
349.104
20
264.830
30
0
0
VERTEX
8
ENGRAVE
10
349.104
20
264.205
30
0
0
VERTEX
8
ENGRAVE
10
348.896
20
263.997
30
0
0
VERTEX
8
ENGRAVE
10
348.688
20
263.914
30
0
0
VERTEX
8
ENGRAVE
10
348.979
20
263.789
30
0
0
VERTEX
8
ENGRAVE
10
349.229
20
263.414
30
0
0
VERTEX
8
ENGRAVE
10
349.188
20
262.872
30
0
0
VERTEX
8
ENGRAVE
10
348.938
20
262.580
30
0
0
VERTEX
8
ENGRAVE
10
348.604
20
262.455
30
0
0
VERTEX
8
ENGRAVE
10
347.271
20
262.455
30
0
0
SEQEND
8
ENGRAVE
0
POLYLINE
8
ENGRAVE
66
1
70
1
10
0
20
0
30
0
0
VERTEX
8
ENGRAVE
10
347.646
20
264.914
30
0
0
VERTEX
8
ENGRAVE
10
347.604
20
264.039
30
0
0
VERTEX
8
ENGRAVE
10
348.479
20
264.039
30
0
0
VERTEX
8
ENGRAVE
10
348.771
20
264.247
30
0
0
VERTEX
8
ENGRAVE
10
348.813
20
264.580
30
0
0
VERTEX
8
ENGRAVE
10
348.604
20
264.872
30
0
0
SEQEND
8
ENGRAVE
0
POLYLINE
8
ENGRAVE
66
1
70
1
10
0
20
0
30
0
0
VERTEX
8
ENGRAVE
10
347.646
20
263.747
30
0
0
VERTEX
8
ENGRAVE
10
347.604
20
262.747
30
0
0
VERTEX
8
ENGRAVE
10
348.479
20
262.747
30
0
0
VERTEX
8
ENGRAVE
10
348.854
20
262.997
30
0
0
VERTEX
8
ENGRAVE
10
348.854
20
263.497
30
0
0
VERTEX
8
ENGRAVE
10
348.646
20
263.705
30
0
0
SEQEND
8
ENGRAVE
0
POLYLINE
8
ENGRAVE
66
1
70
1
10
0
20
0
30
0
0
VERTEX
8
ENGRAVE
10
147.492
20
190.029
30
0
0
VERTEX
8
ENGRAVE
10
147.450
20
188.571
30
0
0
VERTEX
8
ENGRAVE
10
147.117
20
188.196
30
0
0
VERTEX
8
ENGRAVE
10
146.492
20
188.196
30
0
0
VERTEX
8
ENGRAVE
10
146.283
20
188.404
30
0
0
VERTEX
8
ENGRAVE
10
146.200
20
188.613
30
0
0
VERTEX
8
ENGRAVE
10
146.075
20
188.321
30
0
0
VERTEX
8
ENGRAVE
10
145.700
20
188.071
30
0
0
VERTEX
8
ENGRAVE
10
145.158
20
188.113
30
0
0
VERTEX
8
ENGRAVE
10
144.867
20
188.363
30
0
0
VERTEX
8
ENGRAVE
10
144.742
20
188.696
30
0
0
VERTEX
8
ENGRAVE
10
144.742
20
190.029
30
0
0
SEQEND
8
ENGRAVE
0
POLYLINE
8
ENGRAVE
66
1
70
1
10
0
20
0
30
0
0
VERTEX
8
ENGRAVE
10
147.492
20
186.488
30
0
0
VERTEX
8
ENGRAVE
10
147.492
20
186.071
30
0
0
VERTEX
8
ENGRAVE
10
145.658
20
186.071
30
0
0
VERTEX
8
ENGRAVE
10
145.658
20
185.613
30
0
0
VERTEX
8
ENGRAVE
10
145.367
20
185.613
30
0
0
VERTEX
8
ENGRAVE
10
145.367
20
186.071
30
0
0
VERTEX
8
ENGRAVE
10
144.742
20
186.071
30
0
0
VERTEX
8
ENGRAVE
10
144.742
20
186.404
30
0
0
VERTEX
8
ENGRAVE
10
145.367
20
186.404
30
0
0
VERTEX
8
ENGRAVE
10
145.367
20
187.738
30
0
0
VERTEX
8
ENGRAVE
10
145.658
20
187.738
30
0
0
SEQEND
8
ENGRAVE
0
POLYLINE
8
ENGRAVE
66
1
70
1
10
0
20
0
30
0
0
VERTEX
8
ENGRAVE
10
147.200
20
189.654
30
0
0
VERTEX
8
ENGRAVE
10
146.325
20
189.696
30
0
0
VERTEX
8
ENGRAVE
10
146.325
20
188.821
30
0
0
VERTEX
8
ENGRAVE
10
146.533
20
188.529
30
0
0
VERTEX
8
ENGRAVE
10
146.867
20
188.488
30
0
0
VERTEX
8
ENGRAVE
10
147.158
20
188.696
30
0
0
SEQEND
8
ENGRAVE
0
POLYLINE
8
ENGRAVE
66
1
70
1
10
0
20
0
30
0
0
VERTEX
8
ENGRAVE
10
147.158
20
186.404
30
0
0
VERTEX
8
ENGRAVE
10
146.992
20
186.571
30
0
0
VERTEX
8
ENGRAVE
10
145.658
20
187.363
30
0
0
VERTEX
8
ENGRAVE
10
145.658
20
186.404
30
0
0
SEQEND
8
ENGRAVE
0
POLYLINE
8
ENGRAVE
66
1
70
1
10
0
20
0
30
0
0
VERTEX
8
ENGRAVE
10
146.033
20
189.654
30
0
0
VERTEX
8
ENGRAVE
10
145.033
20
189.696
30
0
0
VERTEX
8
ENGRAVE
10
145.033
20
188.821
30
0
0
VERTEX
8
ENGRAVE
10
145.283
20
188.446
30
0
0
VERTEX
8
ENGRAVE
10
145.783
20
188.446
30
0
0
VERTEX
8
ENGRAVE
10
145.992
20
188.654
30
0
0
SEQEND
8
ENGRAVE
0
POLYLINE
8
ENGRAVE
66
1
70
1
10
0
20
0
30
0
0
VERTEX
8
ENGRAVE
10
219.488
20
184.226
30
0
0
VERTEX
8
ENGRAVE
10
219.446
20
183.643
30
0
0
VERTEX
8
ENGRAVE
10
219.321
20
183.393
30
0
0
VERTEX
8
ENGRAVE
10
219.113
20
183.184
30
0
0
VERTEX
8
ENGRAVE
10
218.905
20
183.101
30
0
0
VERTEX
8
ENGRAVE
10
218.488
20
183.143
30
0
0
VERTEX
8
ENGRAVE
10
218.238
20
183.351
30
0
0
VERTEX
8
ENGRAVE
10
218.113
20
183.601
30
0
0
VERTEX
8
ENGRAVE
10
218.071
20
183.351
30
0
0
VERTEX
8
ENGRAVE
10
217.863
20
183.101
30
0
0
VERTEX
8
ENGRAVE
10
217.696
20
183.018
30
0
0
VERTEX
8
ENGRAVE
10
217.238
20
183.018
30
0
0
VERTEX
8
ENGRAVE
10
216.905
20
183.226
30
0
0
VERTEX
8
ENGRAVE
10
216.655
20
183.809
30
0
0
VERTEX
8
ENGRAVE
10
216.696
20
184.476
30
0
0
VERTEX
8
ENGRAVE
10
216.821
20
184.726
30
0
0
VERTEX
8
ENGRAVE
10
217.196
20
185.059
30
0
0
VERTEX
8
ENGRAVE
10
217.363
20
185.018
30
0
0
VERTEX
8
ENGRAVE
10
217.405
20
184.768
30
0
0
VERTEX
8
ENGRAVE
10
217.196
20
184.684
30
0
0
VERTEX
8
ENGRAVE
10
216.946
20
184.351
30
0
0
VERTEX
8
ENGRAVE
10
216.946
20
183.768
30
0
0
VERTEX
8
ENGRAVE
10
217.030
20
183.559
30
0
0
VERTEX
8
ENGRAVE
10
217.238
20
183.393
30
0
0
VERTEX
8
ENGRAVE
10
217.571
20
183.351
30
0
0
VERTEX
8
ENGRAVE
10
217.863
20
183.559
30
0
0
VERTEX
8
ENGRAVE
10
217.988
20
183.934
30
0
0
VERTEX
8
ENGRAVE
10
217.988
20
184.393
30
0
0
VERTEX
8
ENGRAVE
10
218.280
20
184.393
30
0
0
VERTEX
8
ENGRAVE
10
218.280
20
183.768
30
0
0
VERTEX
8
ENGRAVE
10
218.405
20
183.559
30
0
0
VERTEX
8
ENGRAVE
10
218.571
20
183.476
30
0
0
VERTEX
8
ENGRAVE
10
218.988
20
183.518
30
0
0
VERTEX
8
ENGRAVE
10
219.196
20
183.809
30
0
0
VERTEX
8
ENGRAVE
10
219.196
20
184.268
30
0
0
VERTEX
8
ENGRAVE
10
219.113
20
184.434
30
0
0
VERTEX
8
ENGRAVE
10
218.780
20
184.684
30
0
0
VERTEX
8
ENGRAVE
10
218.821
20
184.976
30
0
0
VERTEX
8
ENGRAVE
10
219.238
20
184.768
30
0
0
SEQEND
8
ENGRAVE
0
POLYLINE
8
ENGRAVE
66
1
70
1
10
0
20
0
30
0
0
VERTEX
8
ENGRAVE
10
219.446
20
187.393
30
0
0
VERTEX
8
ENGRAVE
10
219.405
20
185.934
30
0
0
VERTEX
8
ENGRAVE
10
219.071
20
185.559
30
0
0
VERTEX
8
ENGRAVE
10
218.446
20
185.559
30
0
0
VERTEX
8
ENGRAVE
10
218.238
20
185.768
30
0
0
VERTEX
8
ENGRAVE
10
218.155
20
185.976
30
0
0
VERTEX
8
ENGRAVE
10
218.030
20
185.684
30
0
0
VERTEX
8
ENGRAVE
10
217.655
20
185.434
30
0
0
VERTEX
8
ENGRAVE
10
217.113
20
185.476
30
0
0
VERTEX
8
ENGRAVE
10
216.821
20
185.726
30
0
0
VERTEX
8
ENGRAVE
10
216.696
20
186.059
30
0
0
VERTEX
8
ENGRAVE
10
216.696
20
187.393
30
0
0
SEQEND
8
ENGRAVE
0
POLYLINE
8
ENGRAVE
66
1
70
1
10
0
20
0
30
0
0
VERTEX
8
ENGRAVE
10
219.155
20
187.018
30
0
0
VERTEX
8
ENGRAVE
10
218.280
20
187.059
30
0
0
VERTEX
8
ENGRAVE
10
218.280
20
186.184
30
0
0
VERTEX
8
ENGRAVE
10
218.488
20
185.893
30
0
0
VERTEX
8
ENGRAVE
10
218.821
20
185.851
30
0
0
VERTEX
8
ENGRAVE
10
219.113
20
186.059
30
0
0
SEQEND
8
ENGRAVE
0
POLYLINE
8
ENGRAVE
66
1
70
1
10
0
20
0
30
0
0
VERTEX
8
ENGRAVE
10
217.988
20
187.018
30
0
0
VERTEX
8
ENGRAVE
10
216.988
20
187.059
30
0
0
VERTEX
8
ENGRAVE
10
216.988
20
186.184
30
0
0
VERTEX
8
ENGRAVE
10
217.238
20
185.809
30
0
0
VERTEX
8
ENGRAVE
10
217.738
20
185.809
30
0
0
VERTEX
8
ENGRAVE
10
217.946
20
186.018
30
0
0
SEQEND
8
ENGRAVE
0
POLYLINE
8
ENGRAVE
66
1
70
1
10
0
20
0
30
0
0
VERTEX
8
ENGRAVE
10
344.122
20
171.614
30
0
0
VERTEX
8
ENGRAVE
10
344.414
20
171.614
30
0
0
VERTEX
8
ENGRAVE
10
344.789
20
171.489
30
0
0
VERTEX
8
ENGRAVE
10
344.997
20
171.322
30
0
0
VERTEX
8
ENGRAVE
10
345.247
20
170.864
30
0
0
VERTEX
8
ENGRAVE
10
345.206
20
170.697
30
0
0
VERTEX
8
ENGRAVE
10
344.914
20
170.655
30
0
0
VERTEX
8
ENGRAVE
10
344.872
20
170.905
30
0
0
VERTEX
8
ENGRAVE
10
344.664
20
171.197
30
0
0
VERTEX
8
ENGRAVE
10
344.414
20
171.322
30
0
0
VERTEX
8
ENGRAVE
10
344.081
20
171.322
30
0
0
VERTEX
8
ENGRAVE
10
343.831
20
171.197
30
0
0
VERTEX
8
ENGRAVE
10
343.581
20
170.822
30
0
0
VERTEX
8
ENGRAVE
10
343.497
20
169.947
30
0
0
VERTEX
8
ENGRAVE
10
343.622
20
169.489
30
0
0
VERTEX
8
ENGRAVE
10
343.831
20
169.197
30
0
0
VERTEX
8
ENGRAVE
10
344.081
20
169.072
30
0
0
VERTEX
8
ENGRAVE
10
344.539
20
169.114
30
0
0
VERTEX
8
ENGRAVE
10
344.789
20
169.322
30
0
0
VERTEX
8
ENGRAVE
10
344.914
20
169.739
30
0
0
VERTEX
8
ENGRAVE
10
345.247
20
169.697
30
0
0
VERTEX
8
ENGRAVE
10
345.206
20
169.447
30
0
0
VERTEX
8
ENGRAVE
10
344.997
20
169.072
30
0
0
VERTEX
8
ENGRAVE
10
344.456
20
168.780
30
0
0
VERTEX
8
ENGRAVE
10
344.039
20
168.780
30
0
0
VERTEX
8
ENGRAVE
10
343.622
20
168.947
30
0
0
VERTEX
8
ENGRAVE
10
343.289
20
169.364
30
0
0
VERTEX
8
ENGRAVE
10
343.122
20
169.905
30
0
0
VERTEX
8
ENGRAVE
10
343.122
20
170.530
30
0
0
VERTEX
8
ENGRAVE
10
343.331
20
171.114
30
0
0
VERTEX
8
ENGRAVE
10
343.706
20
171.489
30
0
0
SEQEND
8
ENGRAVE
0
POLYLINE
8
ENGRAVE
66
1
70
1
10
0
20
0
30
0
0
VERTEX
8
ENGRAVE
10
346.831
20
171.572
30
0
0
VERTEX
8
ENGRAVE
10
347.247
20
171.572
30
0
0
VERTEX
8
ENGRAVE
10
347.247
20
169.739
30
0
0
VERTEX
8
ENGRAVE
10
347.706
20
169.739
30
0
0
VERTEX
8
ENGRAVE
10
347.706
20
169.447
30
0
0
VERTEX
8
ENGRAVE
10
347.247
20
169.447
30
0
0
VERTEX
8
ENGRAVE
10
347.247
20
168.822
30
0
0
VERTEX
8
ENGRAVE
10
346.914
20
168.822
30
0
0
VERTEX
8
ENGRAVE
10
346.914
20
169.447
30
0
0
VERTEX
8
ENGRAVE
10
345.581
20
169.447
30
0
0
VERTEX
8
ENGRAVE
10
345.581
20
169.739
30
0
0
SEQEND
8
ENGRAVE
0
POLYLINE
8
ENGRAVE
66
1
70
1
10
0
20
0
30
0
0
VERTEX
8
ENGRAVE
10
346.914
20
171.239
30
0
0
VERTEX
8
ENGRAVE
10
346.747
20
171.072
30
0
0
VERTEX
8
ENGRAVE
10
345.956
20
169.739
30
0
0
VERTEX
8
ENGRAVE
10
346.914
20
169.739
30
0
0
SEQEND
8
ENGRAVE
0
POLYLINE
8
ENGRAVE
66
1
70
1
10
0
20
0
30
0
0
VERTEX
8
ENGRAVE
10
413.764
20
161.840
30
0
0
VERTEX
8
ENGRAVE
10
413.764
20
161.506
30
0
0
VERTEX
8
ENGRAVE
10
412.639
20
161.506
30
0
0
VERTEX
8
ENGRAVE
10
412.639
20
160.215
30
0
0
VERTEX
8
ENGRAVE
10
413.764
20
160.215
30
0
0
VERTEX
8
ENGRAVE
10
413.764
20
159.881
30
0
0
VERTEX
8
ENGRAVE
10
411.014
20
159.881
30
0
0
VERTEX
8
ENGRAVE
10
411.014
20
160.215
30
0
0
VERTEX
8
ENGRAVE
10
412.306
20
160.215
30
0
0
VERTEX
8
ENGRAVE
10
412.306
20
161.506
30
0
0
VERTEX
8
ENGRAVE
10
411.014
20
161.506
30
0
0
VERTEX
8
ENGRAVE
10
411.014
20
161.840
30
0
0
SEQEND
8
ENGRAVE
0
POLYLINE
8
ENGRAVE
66
1
70
1
10
0
20
0
30
0
0
VERTEX
8
ENGRAVE
10
413.764
20
158.340
30
0
0
VERTEX
8
ENGRAVE
10
413.764
20
158.090
30
0
0
VERTEX
8
ENGRAVE
10
411.264
20
158.090
30
0
0
VERTEX
8
ENGRAVE
10
411.264
20
157.298
30
0
0
VERTEX
8
ENGRAVE
10
411.014
20
157.298
30
0
0
VERTEX
8
ENGRAVE
10
411.014
20
159.215
30
0
0
VERTEX
8
ENGRAVE
10
411.264
20
159.215
30
0
0
VERTEX
8
ENGRAVE
10
411.264
20
158.423
30
0
0
VERTEX
8
ENGRAVE
10
413.306
20
158.423
30
0
0
VERTEX
8
ENGRAVE
10
412.764
20
159.090
30
0
0
VERTEX
8
ENGRAVE
10
412.764
20
159.173
30
0
0
VERTEX
8
ENGRAVE
10
413.098
20
159.173
30
0
0
VERTEX
8
ENGRAVE
10
413.389
20
158.673
30
0
0
SEQEND
8
ENGRAVE
0
POLYLINE
8
SCORE
66
1
70
0
10
0
20
0
30
0
0
VERTEX
8
SCORE
10
442.228
20
195.078
30
0
0
VERTEX
8
SCORE
10
440.394
20
196.757
30
0
0
VERTEX
8
SCORE
10
438.422
20
198.271
30
0
0
VERTEX
8
SCORE
10
436.325
20
199.607
30
0
0
VERTEX
8
SCORE
10
434.120
20
200.755
30
0
0
VERTEX
8
SCORE
10
431.823
20
201.706
30
0
0
VERTEX
8
SCORE
10
429.451
20
202.454
30
0
0
VERTEX
8
SCORE
10
427.024
20
202.992
30
0
0
VERTEX
8
SCORE
10
424.559
20
203.317
30
0
0
VERTEX
8
SCORE
10
422.075
20
203.425
30
0
0
VERTEX
8
SCORE
10
419.591
20
203.317
30
0
0
VERTEX
8
SCORE
10
417.126
20
202.992
30
0
0
VERTEX
8
SCORE
10
414.699
20
202.454
30
0
0
VERTEX
8
SCORE
10
412.327
20
201.706
30
0
0
VERTEX
8
SCORE
10
410.030
20
200.755
30
0
0
VERTEX
8
SCORE
10
407.825
20
199.607
30
0
0
VERTEX
8
SCORE
10
405.728
20
198.271
30
0
0
VERTEX
8
SCORE
10
403.756
20
196.757
30
0
0
VERTEX
8
SCORE
10
401.922
20
195.078
30
0
0
VERTEX
8
SCORE
10
400.243
20
193.244
30
0
0
SEQEND
8
SCORE
0
POLYLINE
8
SCORE
66
1
70
0
10
0
20
0
30
0
0
VERTEX
8
SCORE
10
400.243
20
156.606
30
0
0
VERTEX
8
SCORE
10
401.922
20
154.772
30
0
0
VERTEX
8
SCORE
10
403.756
20
153.093
30
0
0
VERTEX
8
SCORE
10
405.728
20
151.579
30
0
0
VERTEX
8
SCORE
10
407.825
20
150.243
30
0
0
VERTEX
8
SCORE
10
410.030
20
149.095
30
0
0
VERTEX
8
SCORE
10
412.327
20
148.144
30
0
0
VERTEX
8
SCORE
10
414.699
20
147.396
30
0
0
VERTEX
8
SCORE
10
417.126
20
146.858
30
0
0
VERTEX
8
SCORE
10
419.591
20
146.533
30
0
0
VERTEX
8
SCORE
10
422.075
20
146.425
30
0
0
VERTEX
8
SCORE
10
424.559
20
146.533
30
0
0
VERTEX
8
SCORE
10
427.024
20
146.858
30
0
0
VERTEX
8
SCORE
10
429.451
20
147.396
30
0
0
VERTEX
8
SCORE
10
431.823
20
148.144
30
0
0
VERTEX
8
SCORE
10
434.120
20
149.095
30
0
0
VERTEX
8
SCORE
10
436.325
20
150.243
30
0
0
VERTEX
8
SCORE
10
438.422
20
151.579
30
0
0
VERTEX
8
SCORE
10
440.394
20
153.093
30
0
0
VERTEX
8
SCORE
10
442.228
20
154.772
30
0
0
SEQEND
8
SCORE
0
POLYLINE
8
ENGRAVE
66
1
70
1
10
0
20
0
30
0
0
VERTEX
8
ENGRAVE
10
177.069
20
129.597
30
0
0
VERTEX
8
ENGRAVE
10
177.069
20
129.422
30
0
0
VERTEX
8
ENGRAVE
10
176.478
20
129.422
30
0
0
VERTEX
8
ENGRAVE
10
176.478
20
128.744
30
0
0
VERTEX
8
ENGRAVE
10
177.069
20
128.744
30
0
0
VERTEX
8
ENGRAVE
10
177.069
20
128.569
30
0
0
VERTEX
8
ENGRAVE
10
175.625
20
128.569
30
0
0
VERTEX
8
ENGRAVE
10
175.625
20
128.744
30
0
0
VERTEX
8
ENGRAVE
10
176.303
20
128.744
30
0
0
VERTEX
8
ENGRAVE
10
176.303
20
129.422
30
0
0
VERTEX
8
ENGRAVE
10
175.625
20
129.422
30
0
0
VERTEX
8
ENGRAVE
10
175.625
20
129.597
30
0
0
SEQEND
8
ENGRAVE
0
POLYLINE
8
ENGRAVE
66
1
70
1
10
0
20
0
30
0
0
VERTEX
8
ENGRAVE
10
177.069
20
127.672
30
0
0
VERTEX
8
ENGRAVE
10
177.069
20
127.432
30
0
0
VERTEX
8
ENGRAVE
10
176.106
20
127.432
30
0
0
VERTEX
8
ENGRAVE
10
176.106
20
127.191
30
0
0
VERTEX
8
ENGRAVE
10
175.953
20
127.191
30
0
0
VERTEX
8
ENGRAVE
10
175.953
20
127.432
30
0
0
VERTEX
8
ENGRAVE
10
175.625
20
127.432
30
0
0
VERTEX
8
ENGRAVE
10
175.625
20
127.607
30
0
0
VERTEX
8
ENGRAVE
10
175.953
20
127.607
30
0
0
VERTEX
8
ENGRAVE
10
175.975
20
128.329
30
0
0
VERTEX
8
ENGRAVE
10
176.084
20
128.329
30
0
0
SEQEND
8
ENGRAVE
0
POLYLINE
8
ENGRAVE
66
1
70
1
10
0
20
0
30
0
0
VERTEX
8
ENGRAVE
10
176.916
20
127.607
30
0
0
VERTEX
8
ENGRAVE
10
176.194
20
128.088
30
0
0
VERTEX
8
ENGRAVE
10
176.106
20
128.110
30
0
0
VERTEX
8
ENGRAVE
10
176.106
20
127.607
30
0
0
SEQEND
8
ENGRAVE
0
POLYLINE
8
CUT
66
1
70
1
10
0
20
0
30
0
0
VERTEX
8
CUT
10
15.350
20
229.719
30
0
0
VERTEX
8
CUT
10
15.372
20
229.856
30
0
0
VERTEX
8
CUT
10
15.432
20
229.974
30
0
0
VERTEX
8
CUT
10
15.526
20
230.068
30
0
0
VERTEX
8
CUT
10
15.644
20
230.128
30
0
0
VERTEX
8
CUT
10
15.781
20
230.150
30
0
0
VERTEX
8
CUT
10
27.769
20
230.150
30
0
0
VERTEX
8
CUT
10
27.906
20
230.128
30
0
0
VERTEX
8
CUT
10
28.024
20
230.068
30
0
0
VERTEX
8
CUT
10
28.118
20
229.974
30
0
0
VERTEX
8
CUT
10
28.178
20
229.856
30
0
0
VERTEX
8
CUT
10
28.200
20
229.719
30
0
0
VERTEX
8
CUT
10
28.200
20
211.731
30
0
0
VERTEX
8
CUT
10
28.178
20
211.594
30
0
0
VERTEX
8
CUT
10
28.118
20
211.476
30
0
0
VERTEX
8
CUT
10
28.024
20
211.382
30
0
0
VERTEX
8
CUT
10
27.906
20
211.322
30
0
0
VERTEX
8
CUT
10
27.769
20
211.300
30
0
0
VERTEX
8
CUT
10
15.781
20
211.300
30
0
0
VERTEX
8
CUT
10
15.644
20
211.322
30
0
0
VERTEX
8
CUT
10
15.526
20
211.382
30
0
0
VERTEX
8
CUT
10
15.432
20
211.476
30
0
0
VERTEX
8
CUT
10
15.372
20
211.594
30
0
0
VERTEX
8
CUT
10
15.350
20
211.731
30
0
0
SEQEND
8
CUT
0
POLYLINE
8
CUT
66
1
70
1
10
0
20
0
30
0
0
VERTEX
8
CUT
10
37.300
20
259.019
30
0
0
VERTEX
8
CUT
10
37.322
20
259.156
30
0
0
VERTEX
8
CUT
10
37.382
20
259.274
30
0
0
VERTEX
8
CUT
10
37.476
20
259.368
30
0
0
VERTEX
8
CUT
10
37.594
20
259.428
30
0
0
VERTEX
8
CUT
10
37.731
20
259.450
30
0
0
VERTEX
8
CUT
10
60.419
20
259.450
30
0
0
VERTEX
8
CUT
10
60.556
20
259.428
30
0
0
VERTEX
8
CUT
10
60.674
20
259.368
30
0
0
VERTEX
8
CUT
10
60.768
20
259.274
30
0
0
VERTEX
8
CUT
10
60.828
20
259.156
30
0
0
VERTEX
8
CUT
10
60.850
20
259.019
30
0
0
VERTEX
8
CUT
10
60.850
20
247.431
30
0
0
VERTEX
8
CUT
10
60.828
20
247.294
30
0
0
VERTEX
8
CUT
10
60.768
20
247.176
30
0
0
VERTEX
8
CUT
10
60.674
20
247.082
30
0
0
VERTEX
8
CUT
10
60.556
20
247.022
30
0
0
VERTEX
8
CUT
10
60.419
20
247.000
30
0
0
VERTEX
8
CUT
10
37.731
20
247.000
30
0
0
VERTEX
8
CUT
10
37.594
20
247.022
30
0
0
VERTEX
8
CUT
10
37.476
20
247.082
30
0
0
VERTEX
8
CUT
10
37.382
20
247.176
30
0
0
VERTEX
8
CUT
10
37.322
20
247.294
30
0
0
VERTEX
8
CUT
10
37.300
20
247.431
30
0
0
SEQEND
8
CUT
0
POLYLINE
8
CUT
66
1
70
1
10
0
20
0
30
0
0
VERTEX
8
CUT
10
73.735
20
245.650
30
0
0
VERTEX
8
CUT
10
72.626
20
243.299
30
0
0
VERTEX
8
CUT
10
71.153
20
241.021
30
0
0
VERTEX
8
CUT
10
69.391
20
238.958
30
0
0
VERTEX
8
CUT
10
67.372
20
237.147
30
0
0
VERTEX
8
CUT
10
65.130
20
235.620
30
0
0
VERTEX
8
CUT
10
62.705
20
234.403
30
0
0
VERTEX
8
CUT
10
60.141
20
233.518
30
0
0
VERTEX
8
CUT
10
57.482
20
232.980
30
0
0
VERTEX
8
CUT
10
54.775
20
232.800
30
0
0
VERTEX
8
CUT
10
52.068
20
232.980
30
0
0
VERTEX
8
CUT
10
49.409
20
233.518
30
0
0
VERTEX
8
CUT
10
46.845
20
234.403
30
0
0
VERTEX
8
CUT
10
44.420
20
235.620
30
0
0
VERTEX
8
CUT
10
42.178
20
237.147
30
0
0
VERTEX
8
CUT
10
40.159
20
238.958
30
0
0
VERTEX
8
CUT
10
38.397
20
241.021
30
0
0
VERTEX
8
CUT
10
36.924
20
243.299
30
0
0
VERTEX
8
CUT
10
35.815
20
245.650
30
0
0
VERTEX
8
CUT
10
49.779
20
245.650
30
0
0
VERTEX
8
CUT
10
50.261
20
245.352
30
0
0
VERTEX
8
CUT
10
50.783
20
245.075
30
0
0
VERTEX
8
CUT
10
51.321
20
244.833
30
0
0
VERTEX
8
CUT
10
51.874
20
244.626
30
0
0
VERTEX
8
CUT
10
52.439
20
244.456
30
0
0
VERTEX
8
CUT
10
53.015
20
244.322
30
0
0
VERTEX
8
CUT
10
53.597
20
244.227
30
0
0
VERTEX
8
CUT
10
54.185
20
244.169
30
0
0
VERTEX
8
CUT
10
54.775
20
244.150
30
0
0
VERTEX
8
CUT
10
55.365
20
244.169
30
0
0
VERTEX
8
CUT
10
55.953
20
244.227
30
0
0
VERTEX
8
CUT
10
56.535
20
244.322
30
0
0
VERTEX
8
CUT
10
57.111
20
244.456
30
0
0
VERTEX
8
CUT
10
57.676
20
244.626
30
0
0
VERTEX
8
CUT
10
58.229
20
244.833
30
0
0
VERTEX
8
CUT
10
58.767
20
245.075
30
0
0
VERTEX
8
CUT
10
59.289
20
245.352
30
0
0
VERTEX
8
CUT
10
59.771
20
245.650
30
0
0
SEQEND
8
CUT
0
POLYLINE
8
CUT
66
1
70
1
10
0
20
0
30
0
0
VERTEX
8
CUT
10
62.254
20
253.225
30
0
0
VERTEX
8
CUT
10
62.392
20
253.649
30
0
0
VERTEX
8
CUT
10
62.752
20
253.911
30
0
0
VERTEX
8
CUT
10
63.198
20
253.911
30
0
0
VERTEX
8
CUT
10
63.558
20
253.649
30
0
0
VERTEX
8
CUT
10
63.696
20
253.225
30
0
0
VERTEX
8
CUT
10
63.558
20
252.801
30
0
0
VERTEX
8
CUT
10
63.198
20
252.539
30
0
0
VERTEX
8
CUT
10
62.752
20
252.539
30
0
0
VERTEX
8
CUT
10
62.392
20
252.801
30
0
0
SEQEND
8
CUT
0
POLYLINE
8
CUT
66
1
70
1
10
0
20
0
30
0
0
VERTEX
8
CUT
10
34.454
20
253.225
30
0
0
VERTEX
8
CUT
10
34.592
20
253.649
30
0
0
VERTEX
8
CUT
10
34.952
20
253.911
30
0
0
VERTEX
8
CUT
10
35.398
20
253.911
30
0
0
VERTEX
8
CUT
10
35.758
20
253.649
30
0
0
VERTEX
8
CUT
10
35.896
20
253.225
30
0
0
VERTEX
8
CUT
10
35.758
20
252.801
30
0
0
VERTEX
8
CUT
10
35.398
20
252.539
30
0
0
VERTEX
8
CUT
10
34.952
20
252.539
30
0
0
VERTEX
8
CUT
10
34.592
20
252.801
30
0
0
SEQEND
8
CUT
0
POLYLINE
8
CUT
66
1
70
1
10
0
20
0
30
0
0
VERTEX
8
CUT
10
24.050
20
263.250
30
0
0
VERTEX
8
CUT
10
14.100
20
263.250
30
0
0
VERTEX
8
CUT
10
14.100
20
266.200
30
0
0
VERTEX
8
CUT
10
24.050
20
266.200
30
0
0
SEQEND
8
CUT
0
POLYLINE
8
CUT
66
1
70
1
10
0
20
0
30
0
0
VERTEX
8
CUT
10
95.450
20
263.250
30
0
0
VERTEX
8
CUT
10
85.500
20
263.250
30
0
0
VERTEX
8
CUT
10
85.500
20
266.200
30
0
0
VERTEX
8
CUT
10
95.450
20
266.200
30
0
0
SEQEND
8
CUT
0
POLYLINE
8
CUT
66
1
70
1
10
0
20
0
30
0
0
VERTEX
8
CUT
10
105.350
20
247.500
30
0
0
VERTEX
8
CUT
10
102.400
20
247.500
30
0
0
VERTEX
8
CUT
10
102.400
20
257.450
30
0
0
VERTEX
8
CUT
10
105.350
20
257.450
30
0
0
SEQEND
8
CUT
0
POLYLINE
8
CUT
66
1
70
1
10
0
20
0
30
0
0
VERTEX
8
CUT
10
105.350
20
220.000
30
0
0
VERTEX
8
CUT
10
102.400
20
220.000
30
0
0
VERTEX
8
CUT
10
102.400
20
229.950
30
0
0
VERTEX
8
CUT
10
105.350
20
229.950
30
0
0
SEQEND
8
CUT
0
POLYLINE
8
CUT
66
1
70
1
10
0
20
0
30
0
0
VERTEX
8
CUT
10
7.150
20
247.500
30
0
0
VERTEX
8
CUT
10
4.200
20
247.500
30
0
0
VERTEX
8
CUT
10
4.200
20
257.450
30
0
0
VERTEX
8
CUT
10
7.150
20
257.450
30
0
0
SEQEND
8
CUT
0
POLYLINE
8
CUT
66
1
70
1
10
0
20
0
30
0
0
VERTEX
8
CUT
10
7.150
20
220.000
30
0
0
VERTEX
8
CUT
10
4.200
20
220.000
30
0
0
VERTEX
8
CUT
10
4.200
20
229.950
30
0
0
VERTEX
8
CUT
10
7.150
20
229.950
30
0
0
SEQEND
8
CUT
0
POLYLINE
8
CUT
66
1
70
1
10
0
20
0
30
0
0
VERTEX
8
CUT
10
29.218
20
232.822
30
0
0
VERTEX
8
CUT
10
26.268
20
232.822
30
0
0
VERTEX
8
CUT
10
26.268
20
235.772
30
0
0
VERTEX
8
CUT
10
29.218
20
235.772
30
0
0
SEQEND
8
CUT
0
POLYLINE
8
CUT
66
1
70
1
10
0
20
0
30
0
0
VERTEX
8
CUT
10
83.282
20
232.822
30
0
0
VERTEX
8
CUT
10
80.332
20
232.822
30
0
0
VERTEX
8
CUT
10
80.332
20
235.772
30
0
0
VERTEX
8
CUT
10
83.282
20
235.772
30
0
0
SEQEND
8
CUT
0
POLYLINE
8
CUT
66
1
70
1
10
0
20
0
30
0
0
VERTEX
8
CUT
10
104.480
20
209.450
30
0
0
VERTEX
8
CUT
10
5.070
20
209.450
30
0
0
VERTEX
8
CUT
10
4.538
20
209.520
30
0
0
VERTEX
8
CUT
10
4.037
20
209.727
30
0
0
VERTEX
8
CUT
10
3.607
20
210.057
30
0
0
VERTEX
8
CUT
10
3.277
20
210.487
30
0
0
VERTEX
8
CUT
10
3.070
20
210.988
30
0
0
VERTEX
8
CUT
10
3.000
20
211.520
30
0
0
VERTEX
8
CUT
10
3.000
20
294.930
30
0
0
VERTEX
8
CUT
10
3.070
20
295.462
30
0
0
VERTEX
8
CUT
10
3.277
20
295.963
30
0
0
VERTEX
8
CUT
10
3.607
20
296.393
30
0
0
VERTEX
8
CUT
10
4.037
20
296.723
30
0
0
VERTEX
8
CUT
10
4.538
20
296.930
30
0
0
VERTEX
8
CUT
10
5.070
20
297.000
30
0
0
VERTEX
8
CUT
10
104.480
20
297.000
30
0
0
VERTEX
8
CUT
10
105.012
20
296.930
30
0
0
VERTEX
8
CUT
10
105.513
20
296.723
30
0
0
VERTEX
8
CUT
10
105.943
20
296.393
30
0
0
VERTEX
8
CUT
10
106.273
20
295.963
30
0
0
VERTEX
8
CUT
10
106.480
20
295.462
30
0
0
VERTEX
8
CUT
10
106.550
20
294.930
30
0
0
VERTEX
8
CUT
10
106.550
20
211.520
30
0
0
VERTEX
8
CUT
10
106.480
20
210.988
30
0
0
VERTEX
8
CUT
10
106.273
20
210.487
30
0
0
VERTEX
8
CUT
10
105.943
20
210.057
30
0
0
VERTEX
8
CUT
10
105.513
20
209.727
30
0
0
VERTEX
8
CUT
10
105.012
20
209.520
30
0
0
SEQEND
8
CUT
0
POLYLINE
8
CUT
66
1
70
1
10
0
20
0
30
0
0
VERTEX
8
CUT
10
124.198
20
226.925
30
0
0
VERTEX
8
CUT
10
124.037
20
227.629
30
0
0
VERTEX
8
CUT
10
123.587
20
228.194
30
0
0
VERTEX
8
CUT
10
122.936
20
228.507
30
0
0
VERTEX
8
CUT
10
122.214
20
228.507
30
0
0
VERTEX
8
CUT
10
121.563
20
228.194
30
0
0
VERTEX
8
CUT
10
121.113
20
227.629
30
0
0
VERTEX
8
CUT
10
120.952
20
226.925
30
0
0
VERTEX
8
CUT
10
121.113
20
226.221
30
0
0
VERTEX
8
CUT
10
121.563
20
225.656
30
0
0
VERTEX
8
CUT
10
122.214
20
225.343
30
0
0
VERTEX
8
CUT
10
122.936
20
225.343
30
0
0
VERTEX
8
CUT
10
123.587
20
225.656
30
0
0
VERTEX
8
CUT
10
124.037
20
226.221
30
0
0
SEQEND
8
CUT
0
POLYLINE
8
CUT
66
1
70
1
10
0
20
0
30
0
0
VERTEX
8
CUT
10
165.198
20
226.925
30
0
0
VERTEX
8
CUT
10
165.037
20
227.629
30
0
0
VERTEX
8
CUT
10
164.587
20
228.194
30
0
0
VERTEX
8
CUT
10
163.936
20
228.507
30
0
0
VERTEX
8
CUT
10
163.214
20
228.507
30
0
0
VERTEX
8
CUT
10
162.563
20
228.194
30
0
0
VERTEX
8
CUT
10
162.113
20
227.629
30
0
0
VERTEX
8
CUT
10
161.952
20
226.925
30
0
0
VERTEX
8
CUT
10
162.113
20
226.221
30
0
0
VERTEX
8
CUT
10
162.563
20
225.656
30
0
0
VERTEX
8
CUT
10
163.214
20
225.343
30
0
0
VERTEX
8
CUT
10
163.936
20
225.343
30
0
0
VERTEX
8
CUT
10
164.587
20
225.656
30
0
0
VERTEX
8
CUT
10
165.037
20
226.221
30
0
0
SEQEND
8
CUT
0
POLYLINE
8
CUT
66
1
70
1
10
0
20
0
30
0
0
VERTEX
8
CUT
10
202.600
20
272.450
30
0
0
VERTEX
8
CUT
10
205.550
20
272.450
30
0
0
VERTEX
8
CUT
10
205.550
20
282.400
30
0
0
VERTEX
8
CUT
10
202.600
20
282.400
30
0
0
SEQEND
8
CUT
0
POLYLINE
8
CUT
66
1
70
1
10
0
20
0
30
0
0
VERTEX
8
CUT
10
202.600
20
233.450
30
0
0
VERTEX
8
CUT
10
205.550
20
233.450
30
0
0
VERTEX
8
CUT
10
205.550
20
243.400
30
0
0
VERTEX
8
CUT
10
202.600
20
243.400
30
0
0
SEQEND
8
CUT
0
POLYLINE
8
CUT
66
1
70
1
10
0
20
0
30
0
0
VERTEX
8
CUT
10
111.600
20
272.450
30
0
0
VERTEX
8
CUT
10
114.550
20
272.450
30
0
0
VERTEX
8
CUT
10
114.550
20
282.400
30
0
0
VERTEX
8
CUT
10
111.600
20
282.400
30
0
0
SEQEND
8
CUT
0
POLYLINE
8
CUT
66
1
70
1
10
0
20
0
30
0
0
VERTEX
8
CUT
10
111.600
20
233.450
30
0
0
VERTEX
8
CUT
10
114.550
20
233.450
30
0
0
VERTEX
8
CUT
10
114.550
20
243.400
30
0
0
VERTEX
8
CUT
10
111.600
20
243.400
30
0
0
SEQEND
8
CUT
0
POLYLINE
8
CUT
66
1
70
1
10
0
20
0
30
0
0
VERTEX
8
CUT
10
110.570
20
218.850
30
0
0
VERTEX
8
CUT
10
206.580
20
218.850
30
0
0
VERTEX
8
CUT
10
207.112
20
218.920
30
0
0
VERTEX
8
CUT
10
207.613
20
219.127
30
0
0
VERTEX
8
CUT
10
208.043
20
219.457
30
0
0
VERTEX
8
CUT
10
208.373
20
219.887
30
0
0
VERTEX
8
CUT
10
208.580
20
220.388
30
0
0
VERTEX
8
CUT
10
208.650
20
220.920
30
0
0
VERTEX
8
CUT
10
208.650
20
294.930
30
0
0
VERTEX
8
CUT
10
208.580
20
295.462
30
0
0
VERTEX
8
CUT
10
208.373
20
295.963
30
0
0
VERTEX
8
CUT
10
208.043
20
296.393
30
0
0
VERTEX
8
CUT
10
207.613
20
296.723
30
0
0
VERTEX
8
CUT
10
207.112
20
296.930
30
0
0
VERTEX
8
CUT
10
206.580
20
297.000
30
0
0
VERTEX
8
CUT
10
110.570
20
297.000
30
0
0
VERTEX
8
CUT
10
110.038
20
296.930
30
0
0
VERTEX
8
CUT
10
109.537
20
296.723
30
0
0
VERTEX
8
CUT
10
109.107
20
296.393
30
0
0
VERTEX
8
CUT
10
108.777
20
295.963
30
0
0
VERTEX
8
CUT
10
108.570
20
295.462
30
0
0
VERTEX
8
CUT
10
108.500
20
294.930
30
0
0
VERTEX
8
CUT
10
108.500
20
220.920
30
0
0
VERTEX
8
CUT
10
108.570
20
220.388
30
0
0
VERTEX
8
CUT
10
108.777
20
219.887
30
0
0
VERTEX
8
CUT
10
109.107
20
219.457
30
0
0
VERTEX
8
CUT
10
109.537
20
219.127
30
0
0
VERTEX
8
CUT
10
110.038
20
218.920
30
0
0
SEQEND
8
CUT
0
POLYLINE
8
CUT
66
1
70
1
10
0
20
0
30
0
0
VERTEX
8
CUT
10
294.952
20
226.925
30
0
0
VERTEX
8
CUT
10
295.113
20
227.629
30
0
0
VERTEX
8
CUT
10
295.563
20
228.194
30
0
0
VERTEX
8
CUT
10
296.214
20
228.507
30
0
0
VERTEX
8
CUT
10
296.936
20
228.507
30
0
0
VERTEX
8
CUT
10
297.587
20
228.194
30
0
0
VERTEX
8
CUT
10
298.037
20
227.629
30
0
0
VERTEX
8
CUT
10
298.198
20
226.925
30
0
0
VERTEX
8
CUT
10
298.037
20
226.221
30
0
0
VERTEX
8
CUT
10
297.587
20
225.656
30
0
0
VERTEX
8
CUT
10
296.936
20
225.343
30
0
0
VERTEX
8
CUT
10
296.214
20
225.343
30
0
0
VERTEX
8
CUT
10
295.563
20
225.656
30
0
0
VERTEX
8
CUT
10
295.113
20
226.221
30
0
0
SEQEND
8
CUT
0
POLYLINE
8
CUT
66
1
70
1
10
0
20
0
30
0
0
VERTEX
8
CUT
10
253.952
20
226.925
30
0
0
VERTEX
8
CUT
10
254.113
20
227.629
30
0
0
VERTEX
8
CUT
10
254.563
20
228.194
30
0
0
VERTEX
8
CUT
10
255.214
20
228.507
30
0
0
VERTEX
8
CUT
10
255.936
20
228.507
30
0
0
VERTEX
8
CUT
10
256.587
20
228.194
30
0
0
VERTEX
8
CUT
10
257.037
20
227.629
30
0
0
VERTEX
8
CUT
10
257.198
20
226.925
30
0
0
VERTEX
8
CUT
10
257.037
20
226.221
30
0
0
VERTEX
8
CUT
10
256.587
20
225.656
30
0
0
VERTEX
8
CUT
10
255.936
20
225.343
30
0
0
VERTEX
8
CUT
10
255.214
20
225.343
30
0
0
VERTEX
8
CUT
10
254.563
20
225.656
30
0
0
VERTEX
8
CUT
10
254.113
20
226.221
30
0
0
SEQEND
8
CUT
0
POLYLINE
8
CUT
66
1
70
1
10
0
20
0
30
0
0
VERTEX
8
CUT
10
216.550
20
233.450
30
0
0
VERTEX
8
CUT
10
213.600
20
233.450
30
0
0
VERTEX
8
CUT
10
213.600
20
243.400
30
0
0
VERTEX
8
CUT
10
216.550
20
243.400
30
0
0
SEQEND
8
CUT
0
POLYLINE
8
CUT
66
1
70
1
10
0
20
0
30
0
0
VERTEX
8
CUT
10
216.550
20
272.450
30
0
0
VERTEX
8
CUT
10
213.600
20
272.450
30
0
0
VERTEX
8
CUT
10
213.600
20
282.400
30
0
0
VERTEX
8
CUT
10
216.550
20
282.400
30
0
0
SEQEND
8
CUT
0
POLYLINE
8
CUT
66
1
70
1
10
0
20
0
30
0
0
VERTEX
8
CUT
10
307.550
20
233.450
30
0
0
VERTEX
8
CUT
10
304.600
20
233.450
30
0
0
VERTEX
8
CUT
10
304.600
20
243.400
30
0
0
VERTEX
8
CUT
10
307.550
20
243.400
30
0
0
SEQEND
8
CUT
0
POLYLINE
8
CUT
66
1
70
1
10
0
20
0
30
0
0
VERTEX
8
CUT
10
307.550
20
272.450
30
0
0
VERTEX
8
CUT
10
304.600
20
272.450
30
0
0
VERTEX
8
CUT
10
304.600
20
282.400
30
0
0
VERTEX
8
CUT
10
307.550
20
282.400
30
0
0
SEQEND
8
CUT
0
POLYLINE
8
CUT
66
1
70
1
10
0
20
0
30
0
0
VERTEX
8
CUT
10
308.580
20
218.850
30
0
0
VERTEX
8
CUT
10
212.570
20
218.850
30
0
0
VERTEX
8
CUT
10
212.038
20
218.920
30
0
0
VERTEX
8
CUT
10
211.537
20
219.127
30
0
0
VERTEX
8
CUT
10
211.107
20
219.457
30
0
0
VERTEX
8
CUT
10
210.777
20
219.887
30
0
0
VERTEX
8
CUT
10
210.570
20
220.388
30
0
0
VERTEX
8
CUT
10
210.500
20
220.920
30
0
0
VERTEX
8
CUT
10
210.500
20
294.930
30
0
0
VERTEX
8
CUT
10
210.570
20
295.462
30
0
0
VERTEX
8
CUT
10
210.777
20
295.963
30
0
0
VERTEX
8
CUT
10
211.107
20
296.393
30
0
0
VERTEX
8
CUT
10
211.537
20
296.723
30
0
0
VERTEX
8
CUT
10
212.038
20
296.930
30
0
0
VERTEX
8
CUT
10
212.570
20
297.000
30
0
0
VERTEX
8
CUT
10
308.580
20
297.000
30
0
0
VERTEX
8
CUT
10
309.112
20
296.930
30
0
0
VERTEX
8
CUT
10
309.613
20
296.723
30
0
0
VERTEX
8
CUT
10
310.043
20
296.393
30
0
0
VERTEX
8
CUT
10
310.373
20
295.963
30
0
0
VERTEX
8
CUT
10
310.580
20
295.462
30
0
0
VERTEX
8
CUT
10
310.650
20
294.930
30
0
0
VERTEX
8
CUT
10
310.650
20
220.920
30
0
0
VERTEX
8
CUT
10
310.580
20
220.388
30
0
0
VERTEX
8
CUT
10
310.373
20
219.887
30
0
0
VERTEX
8
CUT
10
310.043
20
219.457
30
0
0
VERTEX
8
CUT
10
309.613
20
219.127
30
0
0
VERTEX
8
CUT
10
309.112
20
218.920
30
0
0
SEQEND
8
CUT
0
POLYLINE
8
CUT
66
1
70
1
10
0
20
0
30
0
0
VERTEX
8
CUT
10
373.100
20
231.919
30
0
0
VERTEX
8
CUT
10
372.956
20
232.829
30
0
0
VERTEX
8
CUT
10
372.541
20
233.644
30
0
0
VERTEX
8
CUT
10
371.894
20
234.291
30
0
0
VERTEX
8
CUT
10
371.079
20
234.706
30
0
0
VERTEX
8
CUT
10
370.169
20
234.850
30
0
0
VERTEX
8
CUT
10
356.181
20
234.850
30
0
0
VERTEX
8
CUT
10
355.271
20
234.706
30
0
0
VERTEX
8
CUT
10
354.456
20
234.291
30
0
0
VERTEX
8
CUT
10
353.809
20
233.644
30
0
0
VERTEX
8
CUT
10
353.394
20
232.829
30
0
0
VERTEX
8
CUT
10
353.250
20
231.919
30
0
0
VERTEX
8
CUT
10
353.250
20
225.931
30
0
0
VERTEX
8
CUT
10
353.394
20
225.021
30
0
0
VERTEX
8
CUT
10
353.809
20
224.206
30
0
0
VERTEX
8
CUT
10
354.456
20
223.559
30
0
0
VERTEX
8
CUT
10
355.271
20
223.144
30
0
0
VERTEX
8
CUT
10
356.181
20
223.000
30
0
0
VERTEX
8
CUT
10
370.169
20
223.000
30
0
0
VERTEX
8
CUT
10
371.079
20
223.144
30
0
0
VERTEX
8
CUT
10
371.894
20
223.559
30
0
0
VERTEX
8
CUT
10
372.541
20
224.206
30
0
0
VERTEX
8
CUT
10
372.956
20
225.021
30
0
0
VERTEX
8
CUT
10
373.100
20
225.931
30
0
0
SEQEND
8
CUT
0
POLYLINE
8
CUT
66
1
70
1
10
0
20
0
30
0
0
VERTEX
8
CUT
10
391.796
20
239.975
30
0
0
VERTEX
8
CUT
10
391.620
20
240.516
30
0
0
VERTEX
8
CUT
10
391.160
20
240.851
30
0
0
VERTEX
8
CUT
10
390.590
20
240.851
30
0
0
VERTEX
8
CUT
10
390.130
20
240.516
30
0
0
VERTEX
8
CUT
10
389.954
20
239.975
30
0
0
VERTEX
8
CUT
10
390.130
20
239.434
30
0
0
VERTEX
8
CUT
10
390.590
20
239.099
30
0
0
VERTEX
8
CUT
10
391.160
20
239.099
30
0
0
VERTEX
8
CUT
10
391.620
20
239.434
30
0
0
SEQEND
8
CUT
0
POLYLINE
8
CUT
66
1
70
1
10
0
20
0
30
0
0
VERTEX
8
CUT
10
404.396
20
239.975
30
0
0
VERTEX
8
CUT
10
404.220
20
240.516
30
0
0
VERTEX
8
CUT
10
403.760
20
240.851
30
0
0
VERTEX
8
CUT
10
403.190
20
240.851
30
0
0
VERTEX
8
CUT
10
402.730
20
240.516
30
0
0
VERTEX
8
CUT
10
402.554
20
239.975
30
0
0
VERTEX
8
CUT
10
402.730
20
239.434
30
0
0
VERTEX
8
CUT
10
403.190
20
239.099
30
0
0
VERTEX
8
CUT
10
403.760
20
239.099
30
0
0
VERTEX
8
CUT
10
404.220
20
239.434
30
0
0
SEQEND
8
CUT
0
POLYLINE
8
CUT
66
1
70
1
10
0
20
0
30
0
0
VERTEX
8
CUT
10
315.500
20
218.850
30
0
0
VERTEX
8
CUT
10
322.400
20
218.850
30
0
0
VERTEX
8
CUT
10
322.400
20
215.850
30
0
0
VERTEX
8
CUT
10
332.550
20
215.850
30
0
0
VERTEX
8
CUT
10
332.550
20
218.850
30
0
0
VERTEX
8
CUT
10
393.800
20
218.850
30
0
0
VERTEX
8
CUT
10
393.800
20
215.850
30
0
0
VERTEX
8
CUT
10
403.950
20
215.850
30
0
0
VERTEX
8
CUT
10
403.950
20
218.850
30
0
0
VERTEX
8
CUT
10
410.850
20
218.850
30
0
0
VERTEX
8
CUT
10
410.850
20
232.600
30
0
0
VERTEX
8
CUT
10
413.850
20
232.600
30
0
0
VERTEX
8
CUT
10
413.850
20
242.750
30
0
0
VERTEX
8
CUT
10
410.850
20
242.750
30
0
0
VERTEX
8
CUT
10
410.850
20
270.100
30
0
0
VERTEX
8
CUT
10
413.850
20
270.100
30
0
0
VERTEX
8
CUT
10
413.850
20
280.250
30
0
0
VERTEX
8
CUT
10
410.850
20
280.250
30
0
0
VERTEX
8
CUT
10
410.850
20
294.000
30
0
0
VERTEX
8
CUT
10
403.950
20
294.000
30
0
0
VERTEX
8
CUT
10
403.950
20
297.000
30
0
0
VERTEX
8
CUT
10
393.800
20
297.000
30
0
0
VERTEX
8
CUT
10
393.800
20
294.000
30
0
0
VERTEX
8
CUT
10
332.550
20
294.000
30
0
0
VERTEX
8
CUT
10
332.550
20
297.000
30
0
0
VERTEX
8
CUT
10
322.400
20
297.000
30
0
0
VERTEX
8
CUT
10
322.400
20
294.000
30
0
0
VERTEX
8
CUT
10
315.500
20
294.000
30
0
0
VERTEX
8
CUT
10
315.500
20
280.250
30
0
0
VERTEX
8
CUT
10
312.500
20
280.250
30
0
0
VERTEX
8
CUT
10
312.500
20
270.100
30
0
0
VERTEX
8
CUT
10
315.500
20
270.100
30
0
0
VERTEX
8
CUT
10
315.500
20
242.750
30
0
0
VERTEX
8
CUT
10
312.500
20
242.750
30
0
0
VERTEX
8
CUT
10
312.500
20
232.600
30
0
0
VERTEX
8
CUT
10
315.500
20
232.600
30
0
0
SEQEND
8
CUT
0
POLYLINE
8
CUT
66
1
70
1
10
0
20
0
30
0
0
VERTEX
8
CUT
10
116.575
20
168.038
30
0
0
VERTEX
8
CUT
10
119.271
20
166.482
30
0
0
VERTEX
8
CUT
10
119.271
20
163.368
30
0
0
VERTEX
8
CUT
10
116.575
20
161.812
30
0
0
VERTEX
8
CUT
10
113.879
20
163.368
30
0
0
VERTEX
8
CUT
10
113.879
20
166.482
30
0
0
SEQEND
8
CUT
0
POLYLINE
8
CUT
66
1
70
1
10
0
20
0
30
0
0
VERTEX
8
CUT
10
116.575
20
209.038
30
0
0
VERTEX
8
CUT
10
119.271
20
207.482
30
0
0
VERTEX
8
CUT
10
119.271
20
204.368
30
0
0
VERTEX
8
CUT
10
116.575
20
202.812
30
0
0
VERTEX
8
CUT
10
113.879
20
204.368
30
0
0
VERTEX
8
CUT
10
113.879
20
207.482
30
0
0
SEQEND
8
CUT
0
POLYLINE
8
CUT
66
1
70
1
10
0
20
0
30
0
0
VERTEX
8
CUT
10
122.350
20
210.950
30
0
0
VERTEX
8
CUT
10
122.350
20
213.900
30
0
0
VERTEX
8
CUT
10
132.300
20
213.900
30
0
0
VERTEX
8
CUT
10
132.300
20
210.950
30
0
0
SEQEND
8
CUT
0
POLYLINE
8
CUT
66
1
70
1
10
0
20
0
30
0
0
VERTEX
8
CUT
10
159.850
20
210.950
30
0
0
VERTEX
8
CUT
10
159.850
20
213.900
30
0
0
VERTEX
8
CUT
10
169.800
20
213.900
30
0
0
VERTEX
8
CUT
10
169.800
20
210.950
30
0
0
SEQEND
8
CUT
0
POLYLINE
8
CUT
66
1
70
1
10
0
20
0
30
0
0
VERTEX
8
CUT
10
108.500
20
158.850
30
0
0
VERTEX
8
CUT
10
108.500
20
167.600
30
0
0
VERTEX
8
CUT
10
105.500
20
167.600
30
0
0
VERTEX
8
CUT
10
105.500
20
177.750
30
0
0
VERTEX
8
CUT
10
108.500
20
177.750
30
0
0
VERTEX
8
CUT
10
108.500
20
195.100
30
0
0
VERTEX
8
CUT
10
105.500
20
195.100
30
0
0
VERTEX
8
CUT
10
105.500
20
205.250
30
0
0
VERTEX
8
CUT
10
108.500
20
205.250
30
0
0
VERTEX
8
CUT
10
108.500
20
217.000
30
0
0
VERTEX
8
CUT
10
183.650
20
217.000
30
0
0
VERTEX
8
CUT
10
183.650
20
205.250
30
0
0
VERTEX
8
CUT
10
186.650
20
205.250
30
0
0
VERTEX
8
CUT
10
186.650
20
195.100
30
0
0
VERTEX
8
CUT
10
183.650
20
195.100
30
0
0
VERTEX
8
CUT
10
183.650
20
177.750
30
0
0
VERTEX
8
CUT
10
186.650
20
177.750
30
0
0
VERTEX
8
CUT
10
186.650
20
167.600
30
0
0
VERTEX
8
CUT
10
183.650
20
167.600
30
0
0
VERTEX
8
CUT
10
183.650
20
158.850
30
0
0
SEQEND
8
CUT
0
POLYLINE
8
CUT
66
1
70
1
10
0
20
0
30
0
0
VERTEX
8
CUT
10
199.575
20
168.038
30
0
0
VERTEX
8
CUT
10
202.271
20
166.482
30
0
0
VERTEX
8
CUT
10
202.271
20
163.368
30
0
0
VERTEX
8
CUT
10
199.575
20
161.812
30
0
0
VERTEX
8
CUT
10
196.879
20
163.368
30
0
0
VERTEX
8
CUT
10
196.879
20
166.482
30
0
0
SEQEND
8
CUT
0
POLYLINE
8
CUT
66
1
70
1
10
0
20
0
30
0
0
VERTEX
8
CUT
10
199.575
20
209.038
30
0
0
VERTEX
8
CUT
10
202.271
20
207.482
30
0
0
VERTEX
8
CUT
10
202.271
20
204.368
30
0
0
VERTEX
8
CUT
10
199.575
20
202.812
30
0
0
VERTEX
8
CUT
10
196.879
20
204.368
30
0
0
VERTEX
8
CUT
10
196.879
20
207.482
30
0
0
SEQEND
8
CUT
0
POLYLINE
8
CUT
66
1
70
1
10
0
20
0
30
0
0
VERTEX
8
CUT
10
238.150
20
197.500
30
0
0
VERTEX
8
CUT
10
238.150
20
200.350
30
0
0
VERTEX
8
CUT
10
242.000
20
200.350
30
0
0
VERTEX
8
CUT
10
242.000
20
197.500
30
0
0
SEQEND
8
CUT
0
POLYLINE
8
CUT
66
1
70
1
10
0
20
0
30
0
0
VERTEX
8
CUT
10
256.150
20
197.500
30
0
0
VERTEX
8
CUT
10
256.150
20
200.350
30
0
0
VERTEX
8
CUT
10
260.000
20
200.350
30
0
0
VERTEX
8
CUT
10
260.000
20
197.500
30
0
0
SEQEND
8
CUT
0
POLYLINE
8
CUT
66
1
70
1
10
0
20
0
30
0
0
VERTEX
8
CUT
10
238.150
20
169.500
30
0
0
VERTEX
8
CUT
10
238.150
20
172.350
30
0
0
VERTEX
8
CUT
10
242.000
20
172.350
30
0
0
VERTEX
8
CUT
10
242.000
20
169.500
30
0
0
SEQEND
8
CUT
0
POLYLINE
8
CUT
66
1
70
1
10
0
20
0
30
0
0
VERTEX
8
CUT
10
256.150
20
169.500
30
0
0
VERTEX
8
CUT
10
256.150
20
172.350
30
0
0
VERTEX
8
CUT
10
260.000
20
172.350
30
0
0
VERTEX
8
CUT
10
260.000
20
169.500
30
0
0
SEQEND
8
CUT
0
POLYLINE
8
CUT
66
1
70
1
10
0
20
0
30
0
0
VERTEX
8
CUT
10
242.850
20
210.950
30
0
0
VERTEX
8
CUT
10
242.850
20
213.900
30
0
0
VERTEX
8
CUT
10
252.800
20
213.900
30
0
0
VERTEX
8
CUT
10
252.800
20
210.950
30
0
0
SEQEND
8
CUT
0
POLYLINE
8
CUT
66
1
70
1
10
0
20
0
30
0
0
VERTEX
8
CUT
10
205.350
20
210.950
30
0
0
VERTEX
8
CUT
10
205.350
20
213.900
30
0
0
VERTEX
8
CUT
10
215.300
20
213.900
30
0
0
VERTEX
8
CUT
10
215.300
20
210.950
30
0
0
SEQEND
8
CUT
0
POLYLINE
8
CUT
66
1
70
1
10
0
20
0
30
0
0
VERTEX
8
CUT
10
191.500
20
158.850
30
0
0
VERTEX
8
CUT
10
191.500
20
167.600
30
0
0
VERTEX
8
CUT
10
188.500
20
167.600
30
0
0
VERTEX
8
CUT
10
188.500
20
177.750
30
0
0
VERTEX
8
CUT
10
191.500
20
177.750
30
0
0
VERTEX
8
CUT
10
191.500
20
195.100
30
0
0
VERTEX
8
CUT
10
188.500
20
195.100
30
0
0
VERTEX
8
CUT
10
188.500
20
205.250
30
0
0
VERTEX
8
CUT
10
191.500
20
205.250
30
0
0
VERTEX
8
CUT
10
191.500
20
217.000
30
0
0
VERTEX
8
CUT
10
266.650
20
217.000
30
0
0
VERTEX
8
CUT
10
266.650
20
205.250
30
0
0
VERTEX
8
CUT
10
269.650
20
205.250
30
0
0
VERTEX
8
CUT
10
269.650
20
195.100
30
0
0
VERTEX
8
CUT
10
266.650
20
195.100
30
0
0
VERTEX
8
CUT
10
266.650
20
177.750
30
0
0
VERTEX
8
CUT
10
269.650
20
177.750
30
0
0
VERTEX
8
CUT
10
269.650
20
167.600
30
0
0
VERTEX
8
CUT
10
266.650
20
167.600
30
0
0
VERTEX
8
CUT
10
266.650
20
158.850
30
0
0
SEQEND
8
CUT
0
POLYLINE
8
CUT
66
1
70
1
10
0
20
0
30
0
0
VERTEX
8
CUT
10
302.250
20
169.894
30
0
0
VERTEX
8
CUT
10
302.130
20
170.649
30
0
0
VERTEX
8
CUT
10
301.786
20
171.324
30
0
0
VERTEX
8
CUT
10
301.250
20
171.861
30
0
0
VERTEX
8
CUT
10
300.574
20
172.205
30
0
0
VERTEX
8
CUT
10
299.819
20
172.325
30
0
0
VERTEX
8
CUT
10
291.331
20
172.325
30
0
0
VERTEX
8
CUT
10
290.576
20
172.205
30
0
0
VERTEX
8
CUT
10
289.900
20
171.861
30
0
0
VERTEX
8
CUT
10
289.364
20
171.324
30
0
0
VERTEX
8
CUT
10
289.020
20
170.649
30
0
0
VERTEX
8
CUT
10
288.900
20
169.894
30
0
0
VERTEX
8
CUT
10
288.900
20
167.305
30
0
0
VERTEX
8
CUT
10
289.020
20
166.550
30
0
0
VERTEX
8
CUT
10
289.364
20
165.875
30
0
0
VERTEX
8
CUT
10
289.900
20
165.338
30
0
0
VERTEX
8
CUT
10
290.576
20
164.994
30
0
0
VERTEX
8
CUT
10
291.331
20
164.875
30
0
0
VERTEX
8
CUT
10
299.819
20
164.875
30
0
0
VERTEX
8
CUT
10
300.574
20
164.994
30
0
0
VERTEX
8
CUT
10
301.250
20
165.338
30
0
0
VERTEX
8
CUT
10
301.786
20
165.875
30
0
0
VERTEX
8
CUT
10
302.130
20
166.550
30
0
0
VERTEX
8
CUT
10
302.250
20
167.305
30
0
0
SEQEND
8
CUT
0
POLYLINE
8
CUT
66
1
70
1
10
0
20
0
30
0
0
VERTEX
8
CUT
10
287.933
20
159.425
30
0
0
VERTEX
8
CUT
10
297.883
20
159.425
30
0
0
VERTEX
8
CUT
10
297.883
20
162.375
30
0
0
VERTEX
8
CUT
10
287.933
20
162.375
30
0
0
SEQEND
8
CUT
0
POLYLINE
8
CUT
66
1
70
1
10
0
20
0
30
0
0
VERTEX
8
CUT
10
324.600
20
159.425
30
0
0
VERTEX
8
CUT
10
334.550
20
159.425
30
0
0
VERTEX
8
CUT
10
334.550
20
162.375
30
0
0
VERTEX
8
CUT
10
324.600
20
162.375
30
0
0
SEQEND
8
CUT
0
POLYLINE
8
CUT
66
1
70
1
10
0
20
0
30
0
0
VERTEX
8
CUT
10
361.267
20
159.425
30
0
0
VERTEX
8
CUT
10
371.217
20
159.425
30
0
0
VERTEX
8
CUT
10
371.217
20
162.375
30
0
0
VERTEX
8
CUT
10
361.267
20
162.375
30
0
0
SEQEND
8
CUT
0
POLYLINE
8
CUT
66
1
70
1
10
0
20
0
30
0
0
VERTEX
8
CUT
10
274.500
20
156.325
30
0
0
VERTEX
8
CUT
10
384.650
20
156.325
30
0
0
VERTEX
8
CUT
10
384.650
20
165.706
30
0
0
VERTEX
8
CUT
10
387.650
20
165.706
30
0
0
VERTEX
8
CUT
10
387.650
20
175.856
30
0
0
VERTEX
8
CUT
10
384.650
20
175.856
30
0
0
VERTEX
8
CUT
10
384.650
20
194.469
30
0
0
VERTEX
8
CUT
10
387.650
20
194.469
30
0
0
VERTEX
8
CUT
10
387.650
20
204.619
30
0
0
VERTEX
8
CUT
10
384.650
20
204.619
30
0
0
VERTEX
8
CUT
10
384.650
20
214.000
30
0
0
VERTEX
8
CUT
10
378.500
20
214.000
30
0
0
VERTEX
8
CUT
10
378.500
20
183.000
30
0
0
VERTEX
8
CUT
10
290.650
20
183.000
30
0
0
VERTEX
8
CUT
10
290.650
20
214.000
30
0
0
VERTEX
8
CUT
10
286.650
20
214.000
30
0
0
VERTEX
8
CUT
10
286.650
20
217.000
30
0
0
VERTEX
8
CUT
10
278.500
20
217.000
30
0
0
VERTEX
8
CUT
10
278.500
20
214.000
30
0
0
VERTEX
8
CUT
10
274.500
20
214.000
30
0
0
VERTEX
8
CUT
10
274.500
20
204.619
30
0
0
VERTEX
8
CUT
10
271.500
20
204.619
30
0
0
VERTEX
8
CUT
10
271.500
20
194.469
30
0
0
VERTEX
8
CUT
10
274.500
20
194.469
30
0
0
VERTEX
8
CUT
10
274.500
20
175.856
30
0
0
VERTEX
8
CUT
10
271.500
20
175.856
30
0
0
VERTEX
8
CUT
10
271.500
20
165.706
30
0
0
VERTEX
8
CUT
10
274.500
20
165.706
30
0
0
SEQEND
8
CUT
0
POLYLINE
8
CUT
66
1
70
1
10
0
20
0
30
0
0
VERTEX
8
CUT
10
64.750
20
197.719
30
0
0
VERTEX
8
CUT
10
64.806
20
198.072
30
0
0
VERTEX
8
CUT
10
64.966
20
198.386
30
0
0
VERTEX
8
CUT
10
65.214
20
198.634
30
0
0
VERTEX
8
CUT
10
65.528
20
198.794
30
0
0
VERTEX
8
CUT
10
65.881
20
198.850
30
0
0
VERTEX
8
CUT
10
66.269
20
198.850
30
0
0
VERTEX
8
CUT
10
66.622
20
198.794
30
0
0
VERTEX
8
CUT
10
66.936
20
198.634
30
0
0
VERTEX
8
CUT
10
67.184
20
198.386
30
0
0
VERTEX
8
CUT
10
67.344
20
198.072
30
0
0
VERTEX
8
CUT
10
67.400
20
197.719
30
0
0
VERTEX
8
CUT
10
67.400
20
184.291
30
0
0
VERTEX
8
CUT
10
67.344
20
183.938
30
0
0
VERTEX
8
CUT
10
67.184
20
183.624
30
0
0
VERTEX
8
CUT
10
66.936
20
183.376
30
0
0
VERTEX
8
CUT
10
66.622
20
183.216
30
0
0
VERTEX
8
CUT
10
66.269
20
183.160
30
0
0
VERTEX
8
CUT
10
65.881
20
183.160
30
0
0
VERTEX
8
CUT
10
65.528
20
183.216
30
0
0
VERTEX
8
CUT
10
65.214
20
183.376
30
0
0
VERTEX
8
CUT
10
64.966
20
183.624
30
0
0
VERTEX
8
CUT
10
64.806
20
183.938
30
0
0
VERTEX
8
CUT
10
64.750
20
184.291
30
0
0
SEQEND
8
CUT
0
POLYLINE
8
CUT
66
1
70
1
10
0
20
0
30
0
0
VERTEX
8
CUT
10
57.750
20
197.719
30
0
0
VERTEX
8
CUT
10
57.806
20
198.072
30
0
0
VERTEX
8
CUT
10
57.966
20
198.386
30
0
0
VERTEX
8
CUT
10
58.214
20
198.634
30
0
0
VERTEX
8
CUT
10
58.528
20
198.794
30
0
0
VERTEX
8
CUT
10
58.881
20
198.850
30
0
0
VERTEX
8
CUT
10
59.269
20
198.850
30
0
0
VERTEX
8
CUT
10
59.622
20
198.794
30
0
0
VERTEX
8
CUT
10
59.936
20
198.634
30
0
0
VERTEX
8
CUT
10
60.184
20
198.386
30
0
0
VERTEX
8
CUT
10
60.344
20
198.072
30
0
0
VERTEX
8
CUT
10
60.400
20
197.719
30
0
0
VERTEX
8
CUT
10
60.400
20
184.291
30
0
0
VERTEX
8
CUT
10
60.344
20
183.938
30
0
0
VERTEX
8
CUT
10
60.184
20
183.624
30
0
0
VERTEX
8
CUT
10
59.936
20
183.376
30
0
0
VERTEX
8
CUT
10
59.622
20
183.216
30
0
0
VERTEX
8
CUT
10
59.269
20
183.160
30
0
0
VERTEX
8
CUT
10
58.881
20
183.160
30
0
0
VERTEX
8
CUT
10
58.528
20
183.216
30
0
0
VERTEX
8
CUT
10
58.214
20
183.376
30
0
0
VERTEX
8
CUT
10
57.966
20
183.624
30
0
0
VERTEX
8
CUT
10
57.806
20
183.938
30
0
0
VERTEX
8
CUT
10
57.750
20
184.291
30
0
0
SEQEND
8
CUT
0
POLYLINE
8
CUT
66
1
70
1
10
0
20
0
30
0
0
VERTEX
8
CUT
10
50.750
20
197.719
30
0
0
VERTEX
8
CUT
10
50.806
20
198.072
30
0
0
VERTEX
8
CUT
10
50.966
20
198.386
30
0
0
VERTEX
8
CUT
10
51.214
20
198.634
30
0
0
VERTEX
8
CUT
10
51.528
20
198.794
30
0
0
VERTEX
8
CUT
10
51.881
20
198.850
30
0
0
VERTEX
8
CUT
10
52.269
20
198.850
30
0
0
VERTEX
8
CUT
10
52.622
20
198.794
30
0
0
VERTEX
8
CUT
10
52.936
20
198.634
30
0
0
VERTEX
8
CUT
10
53.184
20
198.386
30
0
0
VERTEX
8
CUT
10
53.344
20
198.072
30
0
0
VERTEX
8
CUT
10
53.400
20
197.719
30
0
0
VERTEX
8
CUT
10
53.400
20
184.291
30
0
0
VERTEX
8
CUT
10
53.344
20
183.938
30
0
0
VERTEX
8
CUT
10
53.184
20
183.624
30
0
0
VERTEX
8
CUT
10
52.936
20
183.376
30
0
0
VERTEX
8
CUT
10
52.622
20
183.216
30
0
0
VERTEX
8
CUT
10
52.269
20
183.160
30
0
0
VERTEX
8
CUT
10
51.881
20
183.160
30
0
0
VERTEX
8
CUT
10
51.528
20
183.216
30
0
0
VERTEX
8
CUT
10
51.214
20
183.376
30
0
0
VERTEX
8
CUT
10
50.966
20
183.624
30
0
0
VERTEX
8
CUT
10
50.806
20
183.938
30
0
0
VERTEX
8
CUT
10
50.750
20
184.291
30
0
0
SEQEND
8
CUT
0
POLYLINE
8
CUT
66
1
70
1
10
0
20
0
30
0
0
VERTEX
8
CUT
10
43.750
20
197.719
30
0
0
VERTEX
8
CUT
10
43.806
20
198.072
30
0
0
VERTEX
8
CUT
10
43.966
20
198.386
30
0
0
VERTEX
8
CUT
10
44.214
20
198.634
30
0
0
VERTEX
8
CUT
10
44.528
20
198.794
30
0
0
VERTEX
8
CUT
10
44.881
20
198.850
30
0
0
VERTEX
8
CUT
10
45.269
20
198.850
30
0
0
VERTEX
8
CUT
10
45.622
20
198.794
30
0
0
VERTEX
8
CUT
10
45.936
20
198.634
30
0
0
VERTEX
8
CUT
10
46.184
20
198.386
30
0
0
VERTEX
8
CUT
10
46.344
20
198.072
30
0
0
VERTEX
8
CUT
10
46.400
20
197.719
30
0
0
VERTEX
8
CUT
10
46.400
20
184.291
30
0
0
VERTEX
8
CUT
10
46.344
20
183.938
30
0
0
VERTEX
8
CUT
10
46.184
20
183.624
30
0
0
VERTEX
8
CUT
10
45.936
20
183.376
30
0
0
VERTEX
8
CUT
10
45.622
20
183.216
30
0
0
VERTEX
8
CUT
10
45.269
20
183.160
30
0
0
VERTEX
8
CUT
10
44.881
20
183.160
30
0
0
VERTEX
8
CUT
10
44.528
20
183.216
30
0
0
VERTEX
8
CUT
10
44.214
20
183.376
30
0
0
VERTEX
8
CUT
10
43.966
20
183.624
30
0
0
VERTEX
8
CUT
10
43.806
20
183.938
30
0
0
VERTEX
8
CUT
10
43.750
20
184.291
30
0
0
SEQEND
8
CUT
0
POLYLINE
8
CUT
66
1
70
1
10
0
20
0
30
0
0
VERTEX
8
CUT
10
36.750
20
197.719
30
0
0
VERTEX
8
CUT
10
36.806
20
198.072
30
0
0
VERTEX
8
CUT
10
36.966
20
198.386
30
0
0
VERTEX
8
CUT
10
37.214
20
198.634
30
0
0
VERTEX
8
CUT
10
37.528
20
198.794
30
0
0
VERTEX
8
CUT
10
37.881
20
198.850
30
0
0
VERTEX
8
CUT
10
38.269
20
198.850
30
0
0
VERTEX
8
CUT
10
38.622
20
198.794
30
0
0
VERTEX
8
CUT
10
38.936
20
198.634
30
0
0
VERTEX
8
CUT
10
39.184
20
198.386
30
0
0
VERTEX
8
CUT
10
39.344
20
198.072
30
0
0
VERTEX
8
CUT
10
39.400
20
197.719
30
0
0
VERTEX
8
CUT
10
39.400
20
184.291
30
0
0
VERTEX
8
CUT
10
39.344
20
183.938
30
0
0
VERTEX
8
CUT
10
39.184
20
183.624
30
0
0
VERTEX
8
CUT
10
38.936
20
183.376
30
0
0
VERTEX
8
CUT
10
38.622
20
183.216
30
0
0
VERTEX
8
CUT
10
38.269
20
183.160
30
0
0
VERTEX
8
CUT
10
37.881
20
183.160
30
0
0
VERTEX
8
CUT
10
37.528
20
183.216
30
0
0
VERTEX
8
CUT
10
37.214
20
183.376
30
0
0
VERTEX
8
CUT
10
36.966
20
183.624
30
0
0
VERTEX
8
CUT
10
36.806
20
183.938
30
0
0
VERTEX
8
CUT
10
36.750
20
184.291
30
0
0
SEQEND
8
CUT
0
POLYLINE
8
CUT
66
1
70
1
10
0
20
0
30
0
0
VERTEX
8
CUT
10
29.750
20
197.719
30
0
0
VERTEX
8
CUT
10
29.806
20
198.072
30
0
0
VERTEX
8
CUT
10
29.966
20
198.386
30
0
0
VERTEX
8
CUT
10
30.214
20
198.634
30
0
0
VERTEX
8
CUT
10
30.528
20
198.794
30
0
0
VERTEX
8
CUT
10
30.881
20
198.850
30
0
0
VERTEX
8
CUT
10
31.269
20
198.850
30
0
0
VERTEX
8
CUT
10
31.622
20
198.794
30
0
0
VERTEX
8
CUT
10
31.936
20
198.634
30
0
0
VERTEX
8
CUT
10
32.184
20
198.386
30
0
0
VERTEX
8
CUT
10
32.344
20
198.072
30
0
0
VERTEX
8
CUT
10
32.400
20
197.719
30
0
0
VERTEX
8
CUT
10
32.400
20
184.291
30
0
0
VERTEX
8
CUT
10
32.344
20
183.938
30
0
0
VERTEX
8
CUT
10
32.184
20
183.624
30
0
0
VERTEX
8
CUT
10
31.936
20
183.376
30
0
0
VERTEX
8
CUT
10
31.622
20
183.216
30
0
0
VERTEX
8
CUT
10
31.269
20
183.160
30
0
0
VERTEX
8
CUT
10
30.881
20
183.160
30
0
0
VERTEX
8
CUT
10
30.528
20
183.216
30
0
0
VERTEX
8
CUT
10
30.214
20
183.376
30
0
0
VERTEX
8
CUT
10
29.966
20
183.624
30
0
0
VERTEX
8
CUT
10
29.806
20
183.938
30
0
0
VERTEX
8
CUT
10
29.750
20
184.291
30
0
0
SEQEND
8
CUT
0
POLYLINE
8
CUT
66
1
70
1
10
0
20
0
30
0
0
VERTEX
8
CUT
10
22.750
20
197.719
30
0
0
VERTEX
8
CUT
10
22.806
20
198.072
30
0
0
VERTEX
8
CUT
10
22.966
20
198.386
30
0
0
VERTEX
8
CUT
10
23.214
20
198.634
30
0
0
VERTEX
8
CUT
10
23.528
20
198.794
30
0
0
VERTEX
8
CUT
10
23.881
20
198.850
30
0
0
VERTEX
8
CUT
10
24.269
20
198.850
30
0
0
VERTEX
8
CUT
10
24.622
20
198.794
30
0
0
VERTEX
8
CUT
10
24.936
20
198.634
30
0
0
VERTEX
8
CUT
10
25.184
20
198.386
30
0
0
VERTEX
8
CUT
10
25.344
20
198.072
30
0
0
VERTEX
8
CUT
10
25.400
20
197.719
30
0
0
VERTEX
8
CUT
10
25.400
20
184.291
30
0
0
VERTEX
8
CUT
10
25.344
20
183.938
30
0
0
VERTEX
8
CUT
10
25.184
20
183.624
30
0
0
VERTEX
8
CUT
10
24.936
20
183.376
30
0
0
VERTEX
8
CUT
10
24.622
20
183.216
30
0
0
VERTEX
8
CUT
10
24.269
20
183.160
30
0
0
VERTEX
8
CUT
10
23.881
20
183.160
30
0
0
VERTEX
8
CUT
10
23.528
20
183.216
30
0
0
VERTEX
8
CUT
10
23.214
20
183.376
30
0
0
VERTEX
8
CUT
10
22.966
20
183.624
30
0
0
VERTEX
8
CUT
10
22.806
20
183.938
30
0
0
VERTEX
8
CUT
10
22.750
20
184.291
30
0
0
SEQEND
8
CUT
0
POLYLINE
8
CUT
66
1
70
1
10
0
20
0
30
0
0
VERTEX
8
CUT
10
81.250
20
162.950
30
0
0
VERTEX
8
CUT
10
71.300
20
162.950
30
0
0
VERTEX
8
CUT
10
71.300
20
165.900
30
0
0
VERTEX
8
CUT
10
81.250
20
165.900
30
0
0
SEQEND
8
CUT
0
POLYLINE
8
CUT
66
1
70
1
10
0
20
0
30
0
0
VERTEX
8
CUT
10
18.850
20
162.950
30
0
0
VERTEX
8
CUT
10
8.900
20
162.950
30
0
0
VERTEX
8
CUT
10
8.900
20
165.900
30
0
0
VERTEX
8
CUT
10
18.850
20
165.900
30
0
0
SEQEND
8
CUT
0
POLYLINE
8
CUT
66
1
70
1
10
0
20
0
30
0
0
VERTEX
8
CUT
10
84.150
20
159.850
30
0
0
VERTEX
8
CUT
10
64.618
20
159.850
30
0
0
VERTEX
8
CUT
10
64.618
20
162.850
30
0
0
VERTEX
8
CUT
10
25.532
20
162.850
30
0
0
VERTEX
8
CUT
10
25.532
20
159.850
30
0
0
VERTEX
8
CUT
10
6.000
20
159.850
30
0
0
VERTEX
8
CUT
10
6.000
20
166.850
30
0
0
VERTEX
8
CUT
10
3.000
20
166.850
30
0
0
VERTEX
8
CUT
10
3.000
20
177.000
30
0
0
VERTEX
8
CUT
10
6.000
20
177.000
30
0
0
VERTEX
8
CUT
10
6.000
20
190.850
30
0
0
VERTEX
8
CUT
10
3.000
20
190.850
30
0
0
VERTEX
8
CUT
10
3.000
20
201.000
30
0
0
VERTEX
8
CUT
10
6.000
20
201.000
30
0
0
VERTEX
8
CUT
10
6.000
20
208.000
30
0
0
VERTEX
8
CUT
10
84.150
20
208.000
30
0
0
VERTEX
8
CUT
10
84.150
20
201.000
30
0
0
VERTEX
8
CUT
10
87.150
20
201.000
30
0
0
VERTEX
8
CUT
10
87.150
20
190.850
30
0
0
VERTEX
8
CUT
10
84.150
20
190.850
30
0
0
VERTEX
8
CUT
10
84.150
20
177.000
30
0
0
VERTEX
8
CUT
10
87.150
20
177.000
30
0
0
VERTEX
8
CUT
10
87.150
20
166.850
30
0
0
VERTEX
8
CUT
10
84.150
20
166.850
30
0
0
SEQEND
8
CUT
0
POLYLINE
8
CUT
66
1
70
1
10
0
20
0
30
0
0
VERTEX
8
CUT
10
422.075
20
172.001
30
0
0
VERTEX
8
CUT
10
423.075
20
172.177
30
0
0
VERTEX
8
CUT
10
423.954
20
172.685
30
0
0
VERTEX
8
CUT
10
424.607
20
173.463
30
0
0
VERTEX
8
CUT
10
424.954
20
174.417
30
0
0
VERTEX
8
CUT
10
424.954
20
175.433
30
0
0
VERTEX
8
CUT
10
424.607
20
176.387
30
0
0
VERTEX
8
CUT
10
423.954
20
177.165
30
0
0
VERTEX
8
CUT
10
423.075
20
177.673
30
0
0
VERTEX
8
CUT
10
422.075
20
177.849
30
0
0
VERTEX
8
CUT
10
421.075
20
177.673
30
0
0
VERTEX
8
CUT
10
420.196
20
177.165
30
0
0
VERTEX
8
CUT
10
419.543
20
176.387
30
0
0
VERTEX
8
CUT
10
419.196
20
175.433
30
0
0
VERTEX
8
CUT
10
419.196
20
174.417
30
0
0
VERTEX
8
CUT
10
419.543
20
173.463
30
0
0
VERTEX
8
CUT
10
420.196
20
172.685
30
0
0
VERTEX
8
CUT
10
421.075
20
172.177
30
0
0
SEQEND
8
CUT
0
POLYLINE
8
CUT
66
1
70
1
10
0
20
0
30
0
0
VERTEX
8
CUT
10
406.075
20
171.001
30
0
0
VERTEX
8
CUT
10
407.288
20
171.193
30
0
0
VERTEX
8
CUT
10
408.382
20
171.750
30
0
0
VERTEX
8
CUT
10
409.250
20
172.618
30
0
0
VERTEX
8
CUT
10
409.807
20
173.712
30
0
0
VERTEX
8
CUT
10
409.999
20
174.925
30
0
0
VERTEX
8
CUT
10
409.807
20
176.138
30
0
0
VERTEX
8
CUT
10
409.250
20
177.232
30
0
0
VERTEX
8
CUT
10
408.382
20
178.100
30
0
0
VERTEX
8
CUT
10
407.288
20
178.657
30
0
0
VERTEX
8
CUT
10
406.075
20
178.849
30
0
0
VERTEX
8
CUT
10
404.862
20
178.657
30
0
0
VERTEX
8
CUT
10
403.768
20
178.100
30
0
0
VERTEX
8
CUT
10
402.900
20
177.232
30
0
0
VERTEX
8
CUT
10
402.343
20
176.138
30
0
0
VERTEX
8
CUT
10
402.151
20
174.925
30
0
0
VERTEX
8
CUT
10
402.343
20
173.712
30
0
0
VERTEX
8
CUT
10
402.900
20
172.618
30
0
0
VERTEX
8
CUT
10
403.768
20
171.750
30
0
0
VERTEX
8
CUT
10
404.862
20
171.193
30
0
0
SEQEND
8
CUT
0
POLYLINE
8
CUT
66
1
70
1
10
0
20
0
30
0
0
VERTEX
8
CUT
10
427.166
20
168.813
30
0
0
VERTEX
8
CUT
10
427.766
20
169.008
30
0
0
VERTEX
8
CUT
10
428.137
20
169.518
30
0
0
VERTEX
8
CUT
10
428.137
20
170.149
30
0
0
VERTEX
8
CUT
10
427.766
20
170.660
30
0
0
VERTEX
8
CUT
10
427.166
20
170.855
30
0
0
VERTEX
8
CUT
10
426.566
20
170.660
30
0
0
VERTEX
8
CUT
10
426.195
20
170.149
30
0
0
VERTEX
8
CUT
10
426.195
20
169.518
30
0
0
VERTEX
8
CUT
10
426.566
20
169.008
30
0
0
SEQEND
8
CUT
0
POLYLINE
8
CUT
66
1
70
1
10
0
20
0
30
0
0
VERTEX
8
CUT
10
427.166
20
178.995
30
0
0
VERTEX
8
CUT
10
427.766
20
179.190
30
0
0
VERTEX
8
CUT
10
428.137
20
179.701
30
0
0
VERTEX
8
CUT
10
428.137
20
180.332
30
0
0
VERTEX
8
CUT
10
427.766
20
180.842
30
0
0
VERTEX
8
CUT
10
427.166
20
181.037
30
0
0
VERTEX
8
CUT
10
426.566
20
180.842
30
0
0
VERTEX
8
CUT
10
426.195
20
180.332
30
0
0
VERTEX
8
CUT
10
426.195
20
179.701
30
0
0
VERTEX
8
CUT
10
426.566
20
179.190
30
0
0
SEQEND
8
CUT
0
POLYLINE
8
CUT
66
1
70
1
10
0
20
0
30
0
0
VERTEX
8
CUT
10
416.984
20
178.995
30
0
0
VERTEX
8
CUT
10
417.584
20
179.190
30
0
0
VERTEX
8
CUT
10
417.955
20
179.701
30
0
0
VERTEX
8
CUT
10
417.955
20
180.332
30
0
0
VERTEX
8
CUT
10
417.584
20
180.842
30
0
0
VERTEX
8
CUT
10
416.984
20
181.037
30
0
0
VERTEX
8
CUT
10
416.384
20
180.842
30
0
0
VERTEX
8
CUT
10
416.013
20
180.332
30
0
0
VERTEX
8
CUT
10
416.013
20
179.701
30
0
0
VERTEX
8
CUT
10
416.384
20
179.190
30
0
0
SEQEND
8
CUT
0
POLYLINE
8
CUT
66
1
70
1
10
0
20
0
30
0
0
VERTEX
8
CUT
10
416.984
20
168.813
30
0
0
VERTEX
8
CUT
10
417.584
20
169.008
30
0
0
VERTEX
8
CUT
10
417.955
20
169.518
30
0
0
VERTEX
8
CUT
10
417.955
20
170.149
30
0
0
VERTEX
8
CUT
10
417.584
20
170.660
30
0
0
VERTEX
8
CUT
10
416.984
20
170.855
30
0
0
VERTEX
8
CUT
10
416.384
20
170.660
30
0
0
VERTEX
8
CUT
10
416.013
20
170.149
30
0
0
VERTEX
8
CUT
10
416.013
20
169.518
30
0
0
VERTEX
8
CUT
10
416.384
20
169.008
30
0
0
SEQEND
8
CUT
0
POLYLINE
8
CUT
66
1
70
1
10
0
20
0
30
0
0
VERTEX
8
CUT
10
426.250
20
207.700
30
0
0
VERTEX
8
CUT
10
426.250
20
204.750
30
0
0
VERTEX
8
CUT
10
434.200
20
204.750
30
0
0
VERTEX
8
CUT
10
434.200
20
207.700
30
0
0
SEQEND
8
CUT
0
POLYLINE
8
CUT
66
1
70
1
10
0
20
0
30
0
0
VERTEX
8
CUT
10
426.250
20
145.100
30
0
0
VERTEX
8
CUT
10
426.250
20
142.150
30
0
0
VERTEX
8
CUT
10
434.200
20
142.150
30
0
0
VERTEX
8
CUT
10
434.200
20
145.100
30
0
0
SEQEND
8
CUT
0
POLYLINE
8
CUT
66
1
70
1
10
0
20
0
30
0
0
VERTEX
8
CUT
10
400.000
20
214.000
30
0
0
VERTEX
8
CUT
10
400.000
20
211.200
30
0
0
VERTEX
8
CUT
10
397.000
20
211.200
30
0
0
VERTEX
8
CUT
10
397.000
20
201.050
30
0
0
VERTEX
8
CUT
10
400.000
20
201.050
30
0
0
VERTEX
8
CUT
10
400.000
20
148.800
30
0
0
VERTEX
8
CUT
10
397.000
20
148.800
30
0
0
VERTEX
8
CUT
10
397.000
20
138.650
30
0
0
VERTEX
8
CUT
10
400.000
20
138.650
30
0
0
VERTEX
8
CUT
10
400.000
20
135.850
30
0
0
VERTEX
8
CUT
10
405.500
20
135.850
30
0
0
VERTEX
8
CUT
10
405.500
20
132.850
30
0
0
VERTEX
8
CUT
10
415.650
20
132.850
30
0
0
VERTEX
8
CUT
10
415.650
20
135.850
30
0
0
VERTEX
8
CUT
10
426.500
20
135.850
30
0
0
VERTEX
8
CUT
10
426.500
20
132.850
30
0
0
VERTEX
8
CUT
10
436.650
20
132.850
30
0
0
VERTEX
8
CUT
10
436.650
20
135.850
30
0
0
VERTEX
8
CUT
10
442.150
20
135.850
30
0
0
VERTEX
8
CUT
10
442.150
20
138.650
30
0
0
VERTEX
8
CUT
10
445.150
20
138.650
30
0
0
VERTEX
8
CUT
10
445.150
20
148.800
30
0
0
VERTEX
8
CUT
10
442.150
20
148.800
30
0
0
VERTEX
8
CUT
10
442.150
20
201.050
30
0
0
VERTEX
8
CUT
10
445.150
20
201.050
30
0
0
VERTEX
8
CUT
10
445.150
20
211.200
30
0
0
VERTEX
8
CUT
10
442.150
20
211.200
30
0
0
VERTEX
8
CUT
10
442.150
20
214.000
30
0
0
VERTEX
8
CUT
10
436.650
20
214.000
30
0
0
VERTEX
8
CUT
10
436.650
20
217.000
30
0
0
VERTEX
8
CUT
10
426.500
20
217.000
30
0
0
VERTEX
8
CUT
10
426.500
20
214.000
30
0
0
VERTEX
8
CUT
10
415.650
20
214.000
30
0
0
VERTEX
8
CUT
10
415.650
20
217.000
30
0
0
VERTEX
8
CUT
10
405.500
20
217.000
30
0
0
VERTEX
8
CUT
10
405.500
20
214.000
30
0
0
SEQEND
8
CUT
0
POLYLINE
8
CUT
66
1
70
1
10
0
20
0
30
0
0
VERTEX
8
CUT
10
11.650
20
145.919
30
0
0
VERTEX
8
CUT
10
11.745
20
146.520
30
0
0
VERTEX
8
CUT
10
12.018
20
147.056
30
0
0
VERTEX
8
CUT
10
12.444
20
147.482
30
0
0
VERTEX
8
CUT
10
12.980
20
147.755
30
0
0
VERTEX
8
CUT
10
13.581
20
147.850
30
0
0
VERTEX
8
CUT
10
18.569
20
147.850
30
0
0
VERTEX
8
CUT
10
19.170
20
147.755
30
0
0
VERTEX
8
CUT
10
19.706
20
147.482
30
0
0
VERTEX
8
CUT
10
20.132
20
147.056
30
0
0
VERTEX
8
CUT
10
20.405
20
146.520
30
0
0
VERTEX
8
CUT
10
20.500
20
145.919
30
0
0
VERTEX
8
CUT
10
20.500
20
129.931
30
0
0
VERTEX
8
CUT
10
20.405
20
129.330
30
0
0
VERTEX
8
CUT
10
20.132
20
128.794
30
0
0
VERTEX
8
CUT
10
19.706
20
128.368
30
0
0
VERTEX
8
CUT
10
19.170
20
128.095
30
0
0
VERTEX
8
CUT
10
18.569
20
128.000
30
0
0
VERTEX
8
CUT
10
13.581
20
128.000
30
0
0
VERTEX
8
CUT
10
12.980
20
128.095
30
0
0
VERTEX
8
CUT
10
12.444
20
128.368
30
0
0
VERTEX
8
CUT
10
12.018
20
128.794
30
0
0
VERTEX
8
CUT
10
11.745
20
129.330
30
0
0
VERTEX
8
CUT
10
11.650
20
129.931
30
0
0
SEQEND
8
CUT
0
POLYLINE
8
CUT
66
1
70
1
10
0
20
0
30
0
0
VERTEX
8
CUT
10
45.550
20
112.950
30
0
0
VERTEX
8
CUT
10
35.600
20
112.950
30
0
0
VERTEX
8
CUT
10
35.600
20
115.900
30
0
0
VERTEX
8
CUT
10
45.550
20
115.900
30
0
0
SEQEND
8
CUT
0
POLYLINE
8
CUT
66
1
70
1
10
0
20
0
30
0
0
VERTEX
8
CUT
10
24.550
20
112.950
30
0
0
VERTEX
8
CUT
10
14.600
20
112.950
30
0
0
VERTEX
8
CUT
10
14.600
20
115.900
30
0
0
VERTEX
8
CUT
10
24.550
20
115.900
30
0
0
SEQEND
8
CUT
0
POLYLINE
8
CUT
66
1
70
1
10
0
20
0
30
0
0
VERTEX
8
CUT
10
9.050
20
116.950
30
0
0
VERTEX
8
CUT
10
6.100
20
116.950
30
0
0
VERTEX
8
CUT
10
6.100
20
126.900
30
0
0
VERTEX
8
CUT
10
9.050
20
126.900
30
0
0
SEQEND
8
CUT
0
POLYLINE
8
CUT
66
1
70
1
10
0
20
0
30
0
0
VERTEX
8
CUT
10
9.050
20
140.950
30
0
0
VERTEX
8
CUT
10
6.100
20
140.950
30
0
0
VERTEX
8
CUT
10
6.100
20
150.900
30
0
0
VERTEX
8
CUT
10
9.050
20
150.900
30
0
0
SEQEND
8
CUT
0
POLYLINE
8
CUT
66
1
70
1
10
0
20
0
30
0
0
VERTEX
8
CUT
10
54.050
20
116.950
30
0
0
VERTEX
8
CUT
10
51.100
20
116.950
30
0
0
VERTEX
8
CUT
10
51.100
20
126.900
30
0
0
VERTEX
8
CUT
10
54.050
20
126.900
30
0
0
SEQEND
8
CUT
0
POLYLINE
8
CUT
66
1
70
1
10
0
20
0
30
0
0
VERTEX
8
CUT
10
54.050
20
140.950
30
0
0
VERTEX
8
CUT
10
51.100
20
140.950
30
0
0
VERTEX
8
CUT
10
51.100
20
150.900
30
0
0
VERTEX
8
CUT
10
54.050
20
150.900
30
0
0
SEQEND
8
CUT
0
POLYLINE
8
CUT
66
1
70
1
10
0
20
0
30
0
0
VERTEX
8
CUT
10
55.080
20
109.850
30
0
0
VERTEX
8
CUT
10
5.070
20
109.850
30
0
0
VERTEX
8
CUT
10
4.538
20
109.920
30
0
0
VERTEX
8
CUT
10
4.037
20
110.127
30
0
0
VERTEX
8
CUT
10
3.607
20
110.457
30
0
0
VERTEX
8
CUT
10
3.277
20
110.887
30
0
0
VERTEX
8
CUT
10
3.070
20
111.388
30
0
0
VERTEX
8
CUT
10
3.000
20
111.920
30
0
0
VERTEX
8
CUT
10
3.000
20
155.930
30
0
0
VERTEX
8
CUT
10
3.070
20
156.462
30
0
0
VERTEX
8
CUT
10
3.277
20
156.963
30
0
0
VERTEX
8
CUT
10
3.607
20
157.393
30
0
0
VERTEX
8
CUT
10
4.037
20
157.723
30
0
0
VERTEX
8
CUT
10
4.538
20
157.930
30
0
0
VERTEX
8
CUT
10
5.070
20
158.000
30
0
0
VERTEX
8
CUT
10
55.080
20
158.000
30
0
0
VERTEX
8
CUT
10
55.612
20
157.930
30
0
0
VERTEX
8
CUT
10
56.113
20
157.723
30
0
0
VERTEX
8
CUT
10
56.543
20
157.393
30
0
0
VERTEX
8
CUT
10
56.873
20
156.963
30
0
0
VERTEX
8
CUT
10
57.080
20
156.462
30
0
0
VERTEX
8
CUT
10
57.150
20
155.930
30
0
0
VERTEX
8
CUT
10
57.150
20
111.920
30
0
0
VERTEX
8
CUT
10
57.080
20
111.388
30
0
0
VERTEX
8
CUT
10
56.873
20
110.887
30
0
0
VERTEX
8
CUT
10
56.543
20
110.457
30
0
0
VERTEX
8
CUT
10
56.113
20
110.127
30
0
0
VERTEX
8
CUT
10
55.612
20
109.920
30
0
0
SEQEND
8
CUT
0
POLYLINE
8
CUT
66
1
70
1
10
0
20
0
30
0
0
VERTEX
8
CUT
10
73.650
20
134.425
30
0
0
VERTEX
8
CUT
10
73.730
20
136.249
30
0
0
VERTEX
8
CUT
10
73.968
20
138.059
30
0
0
VERTEX
8
CUT
10
74.363
20
139.841
30
0
0
VERTEX
8
CUT
10
74.912
20
141.582
30
0
0
VERTEX
8
CUT
10
75.611
20
143.268
30
0
0
VERTEX
8
CUT
10
76.454
20
144.887
30
0
0
VERTEX
8
CUT
10
77.434
20
146.427
30
0
0
VERTEX
8
CUT
10
78.546
20
147.875
30
0
0
VERTEX
8
CUT
10
79.779
20
149.221
30
0
0
VERTEX
8
CUT
10
81.125
20
150.454
30
0
0
VERTEX
8
CUT
10
82.573
20
151.566
30
0
0
VERTEX
8
CUT
10
84.113
20
152.546
30
0
0
VERTEX
8
CUT
10
85.732
20
153.389
30
0
0
VERTEX
8
CUT
10
87.418
20
154.088
30
0
0
VERTEX
8
CUT
10
89.159
20
154.637
30
0
0
VERTEX
8
CUT
10
90.941
20
155.032
30
0
0
VERTEX
8
CUT
10
92.751
20
155.270
30
0
0
VERTEX
8
CUT
10
94.575
20
155.350
30
0
0
VERTEX
8
CUT
10
96.399
20
155.270
30
0
0
VERTEX
8
CUT
10
98.209
20
155.032
30
0
0
VERTEX
8
CUT
10
99.991
20
154.637
30
0
0
VERTEX
8
CUT
10
101.732
20
154.088
30
0
0
VERTEX
8
CUT
10
103.418
20
153.389
30
0
0
VERTEX
8
CUT
10
105.038
20
152.546
30
0
0
VERTEX
8
CUT
10
106.577
20
151.566
30
0
0
VERTEX
8
CUT
10
108.025
20
150.454
30
0
0
VERTEX
8
CUT
10
109.371
20
149.221
30
0
0
VERTEX
8
CUT
10
110.604
20
147.875
30
0
0
VERTEX
8
CUT
10
111.716
20
146.427
30
0
0
VERTEX
8
CUT
10
112.697
20
144.887
30
0
0
VERTEX
8
CUT
10
113.539
20
143.268
30
0
0
VERTEX
8
CUT
10
114.238
20
141.582
30
0
0
VERTEX
8
CUT
10
114.787
20
139.841
30
0
0
VERTEX
8
CUT
10
115.182
20
138.059
30
0
0
VERTEX
8
CUT
10
115.420
20
136.249
30
0
0
VERTEX
8
CUT
10
115.500
20
134.425
30
0
0
VERTEX
8
CUT
10
115.420
20
132.601
30
0
0
VERTEX
8
CUT
10
115.182
20
130.791
30
0
0
VERTEX
8
CUT
10
114.787
20
129.009
30
0
0
VERTEX
8
CUT
10
114.238
20
127.268
30
0
0
VERTEX
8
CUT
10
113.539
20
125.582
30
0
0
VERTEX
8
CUT
10
112.697
20
123.962
30
0
0
VERTEX
8
CUT
10
111.716
20
122.423
30
0
0
VERTEX
8
CUT
10
110.604
20
120.975
30
0
0
VERTEX
8
CUT
10
109.371
20
119.629
30
0
0
VERTEX
8
CUT
10
108.025
20
118.396
30
0
0
VERTEX
8
CUT
10
106.577
20
117.284
30
0
0
VERTEX
8
CUT
10
105.038
20
116.303
30
0
0
VERTEX
8
CUT
10
103.418
20
115.461
30
0
0
VERTEX
8
CUT
10
101.732
20
114.762
30
0
0
VERTEX
8
CUT
10
99.991
20
114.213
30
0
0
VERTEX
8
CUT
10
98.209
20
113.818
30
0
0
VERTEX
8
CUT
10
96.399
20
113.580
30
0
0
VERTEX
8
CUT
10
94.575
20
113.500
30
0
0
VERTEX
8
CUT
10
92.751
20
113.580
30
0
0
VERTEX
8
CUT
10
90.941
20
113.818
30
0
0
VERTEX
8
CUT
10
89.159
20
114.213
30
0
0
VERTEX
8
CUT
10
87.418
20
114.762
30
0
0
VERTEX
8
CUT
10
85.732
20
115.461
30
0
0
VERTEX
8
CUT
10
84.113
20
116.303
30
0
0
VERTEX
8
CUT
10
82.573
20
117.284
30
0
0
VERTEX
8
CUT
10
81.125
20
118.396
30
0
0
VERTEX
8
CUT
10
79.779
20
119.629
30
0
0
VERTEX
8
CUT
10
78.546
20
120.975
30
0
0
VERTEX
8
CUT
10
77.434
20
122.423
30
0
0
VERTEX
8
CUT
10
76.454
20
123.962
30
0
0
VERTEX
8
CUT
10
75.611
20
125.582
30
0
0
VERTEX
8
CUT
10
74.912
20
127.268
30
0
0
VERTEX
8
CUT
10
74.363
20
129.009
30
0
0
VERTEX
8
CUT
10
73.968
20
130.791
30
0
0
VERTEX
8
CUT
10
73.730
20
132.601
30
0
0
SEQEND
8
CUT
0
POLYLINE
8
CUT
66
1
70
1
10
0
20
0
30
0
0
VERTEX
8
CUT
10
69.500
20
134.425
30
0
0
VERTEX
8
CUT
10
69.595
20
136.610
30
0
0
VERTEX
8
CUT
10
69.881
20
138.779
30
0
0
VERTEX
8
CUT
10
70.354
20
140.915
30
0
0
VERTEX
8
CUT
10
71.012
20
143.001
30
0
0
VERTEX
8
CUT
10
71.849
20
145.022
30
0
0
VERTEX
8
CUT
10
72.859
20
146.962
30
0
0
VERTEX
8
CUT
10
74.035
20
148.807
30
0
0
VERTEX
8
CUT
10
75.366
20
150.543
30
0
0
VERTEX
8
CUT
10
76.844
20
152.156
30
0
0
VERTEX
8
CUT
10
78.457
20
153.634
30
0
0
VERTEX
8
CUT
10
80.193
20
154.965
30
0
0
VERTEX
8
CUT
10
82.038
20
156.141
30
0
0
VERTEX
8
CUT
10
83.978
20
157.151
30
0
0
VERTEX
8
CUT
10
85.999
20
157.988
30
0
0
VERTEX
8
CUT
10
88.085
20
158.646
30
0
0
VERTEX
8
CUT
10
90.221
20
159.119
30
0
0
VERTEX
8
CUT
10
92.390
20
159.405
30
0
0
VERTEX
8
CUT
10
94.575
20
159.500
30
0
0
VERTEX
8
CUT
10
96.761
20
159.405
30
0
0
VERTEX
8
CUT
10
98.929
20
159.119
30
0
0
VERTEX
8
CUT
10
101.065
20
158.646
30
0
0
VERTEX
8
CUT
10
103.151
20
157.988
30
0
0
VERTEX
8
CUT
10
105.172
20
157.151
30
0
0
VERTEX
8
CUT
10
107.113
20
156.141
30
0
0
VERTEX
8
CUT
10
108.958
20
154.965
30
0
0
VERTEX
8
CUT
10
110.693
20
153.634
30
0
0
VERTEX
8
CUT
10
112.306
20
152.156
30
0
0
VERTEX
8
CUT
10
113.784
20
150.543
30
0
0
VERTEX
8
CUT
10
115.115
20
148.807
30
0
0
VERTEX
8
CUT
10
116.291
20
146.962
30
0
0
VERTEX
8
CUT
10
117.301
20
145.022
30
0
0
VERTEX
8
CUT
10
118.138
20
143.001
30
0
0
VERTEX
8
CUT
10
118.796
20
140.915
30
0
0
VERTEX
8
CUT
10
119.269
20
138.779
30
0
0
VERTEX
8
CUT
10
119.555
20
136.610
30
0
0
VERTEX
8
CUT
10
119.650
20
134.425
30
0
0
VERTEX
8
CUT
10
119.555
20
132.239
30
0
0
VERTEX
8
CUT
10
119.269
20
130.071
30
0
0
VERTEX
8
CUT
10
118.796
20
127.935
30
0
0
VERTEX
8
CUT
10
118.138
20
125.849
30
0
0
VERTEX
8
CUT
10
117.301
20
123.828
30
0
0
VERTEX
8
CUT
10
116.291
20
121.887
30
0
0
VERTEX
8
CUT
10
115.115
20
120.042
30
0
0
VERTEX
8
CUT
10
113.784
20
118.307
30
0
0
VERTEX
8
CUT
10
112.306
20
116.694
30
0
0
VERTEX
8
CUT
10
110.693
20
115.216
30
0
0
VERTEX
8
CUT
10
108.958
20
113.885
30
0
0
VERTEX
8
CUT
10
107.113
20
112.709
30
0
0
VERTEX
8
CUT
10
105.172
20
111.699
30
0
0
VERTEX
8
CUT
10
103.151
20
110.862
30
0
0
VERTEX
8
CUT
10
101.065
20
110.204
30
0
0
VERTEX
8
CUT
10
98.929
20
109.731
30
0
0
VERTEX
8
CUT
10
96.761
20
109.445
30
0
0
VERTEX
8
CUT
10
94.575
20
109.350
30
0
0
VERTEX
8
CUT
10
92.390
20
109.445
30
0
0
VERTEX
8
CUT
10
90.221
20
109.731
30
0
0
VERTEX
8
CUT
10
88.085
20
110.204
30
0
0
VERTEX
8
CUT
10
85.999
20
110.862
30
0
0
VERTEX
8
CUT
10
83.978
20
111.699
30
0
0
VERTEX
8
CUT
10
82.038
20
112.709
30
0
0
VERTEX
8
CUT
10
80.193
20
113.885
30
0
0
VERTEX
8
CUT
10
78.457
20
115.216
30
0
0
VERTEX
8
CUT
10
76.844
20
116.694
30
0
0
VERTEX
8
CUT
10
75.366
20
118.307
30
0
0
VERTEX
8
CUT
10
74.035
20
120.042
30
0
0
VERTEX
8
CUT
10
72.859
20
121.887
30
0
0
VERTEX
8
CUT
10
71.849
20
123.828
30
0
0
VERTEX
8
CUT
10
71.012
20
125.849
30
0
0
VERTEX
8
CUT
10
70.354
20
127.935
30
0
0
VERTEX
8
CUT
10
69.881
20
130.071
30
0
0
VERTEX
8
CUT
10
69.595
20
132.239
30
0
0
SEQEND
8
CUT
0
POLYLINE
8
CUT
66
1
70
1
10
0
20
0
30
0
0
VERTEX
8
CUT
10
125.650
20
131.925
30
0
0
VERTEX
8
CUT
10
125.730
20
133.749
30
0
0
VERTEX
8
CUT
10
125.968
20
135.559
30
0
0
VERTEX
8
CUT
10
126.363
20
137.341
30
0
0
VERTEX
8
CUT
10
126.912
20
139.082
30
0
0
VERTEX
8
CUT
10
127.611
20
140.768
30
0
0
VERTEX
8
CUT
10
128.454
20
142.387
30
0
0
VERTEX
8
CUT
10
129.434
20
143.927
30
0
0
VERTEX
8
CUT
10
130.546
20
145.375
30
0
0
VERTEX
8
CUT
10
131.779
20
146.721
30
0
0
VERTEX
8
CUT
10
133.125
20
147.954
30
0
0
VERTEX
8
CUT
10
134.573
20
149.066
30
0
0
VERTEX
8
CUT
10
136.113
20
150.046
30
0
0
VERTEX
8
CUT
10
137.732
20
150.889
30
0
0
VERTEX
8
CUT
10
139.418
20
151.588
30
0
0
VERTEX
8
CUT
10
141.159
20
152.137
30
0
0
VERTEX
8
CUT
10
142.941
20
152.532
30
0
0
VERTEX
8
CUT
10
144.751
20
152.770
30
0
0
VERTEX
8
CUT
10
146.575
20
152.850
30
0
0
VERTEX
8
CUT
10
148.399
20
152.770
30
0
0
VERTEX
8
CUT
10
150.209
20
152.532
30
0
0
VERTEX
8
CUT
10
151.991
20
152.137
30
0
0
VERTEX
8
CUT
10
153.732
20
151.588
30
0
0
VERTEX
8
CUT
10
155.418
20
150.889
30
0
0
VERTEX
8
CUT
10
157.038
20
150.046
30
0
0
VERTEX
8
CUT
10
158.577
20
149.066
30
0
0
VERTEX
8
CUT
10
160.025
20
147.954
30
0
0
VERTEX
8
CUT
10
161.371
20
146.721
30
0
0
VERTEX
8
CUT
10
162.604
20
145.375
30
0
0
VERTEX
8
CUT
10
163.716
20
143.927
30
0
0
VERTEX
8
CUT
10
164.697
20
142.387
30
0
0
VERTEX
8
CUT
10
165.539
20
140.768
30
0
0
VERTEX
8
CUT
10
166.238
20
139.082
30
0
0
VERTEX
8
CUT
10
166.787
20
137.341
30
0
0
VERTEX
8
CUT
10
167.182
20
135.559
30
0
0
VERTEX
8
CUT
10
167.420
20
133.749
30
0
0
VERTEX
8
CUT
10
167.500
20
131.925
30
0
0
VERTEX
8
CUT
10
167.420
20
130.101
30
0
0
VERTEX
8
CUT
10
167.182
20
128.291
30
0
0
VERTEX
8
CUT
10
166.787
20
126.509
30
0
0
VERTEX
8
CUT
10
166.238
20
124.768
30
0
0
VERTEX
8
CUT
10
165.539
20
123.082
30
0
0
VERTEX
8
CUT
10
164.697
20
121.462
30
0
0
VERTEX
8
CUT
10
163.716
20
119.923
30
0
0
VERTEX
8
CUT
10
162.604
20
118.475
30
0
0
VERTEX
8
CUT
10
161.371
20
117.129
30
0
0
VERTEX
8
CUT
10
160.025
20
115.896
30
0
0
VERTEX
8
CUT
10
158.577
20
114.784
30
0
0
VERTEX
8
CUT
10
157.038
20
113.803
30
0
0
VERTEX
8
CUT
10
155.418
20
112.961
30
0
0
VERTEX
8
CUT
10
153.732
20
112.262
30
0
0
VERTEX
8
CUT
10
151.991
20
111.713
30
0
0
VERTEX
8
CUT
10
150.209
20
111.318
30
0
0
VERTEX
8
CUT
10
148.399
20
111.080
30
0
0
VERTEX
8
CUT
10
146.575
20
111.000
30
0
0
VERTEX
8
CUT
10
144.751
20
111.080
30
0
0
VERTEX
8
CUT
10
142.941
20
111.318
30
0
0
VERTEX
8
CUT
10
141.159
20
111.713
30
0
0
VERTEX
8
CUT
10
139.418
20
112.262
30
0
0
VERTEX
8
CUT
10
137.732
20
112.961
30
0
0
VERTEX
8
CUT
10
136.113
20
113.803
30
0
0
VERTEX
8
CUT
10
134.573
20
114.784
30
0
0
VERTEX
8
CUT
10
133.125
20
115.896
30
0
0
VERTEX
8
CUT
10
131.779
20
117.129
30
0
0
VERTEX
8
CUT
10
130.546
20
118.475
30
0
0
VERTEX
8
CUT
10
129.434
20
119.923
30
0
0
VERTEX
8
CUT
10
128.454
20
121.462
30
0
0
VERTEX
8
CUT
10
127.611
20
123.082
30
0
0
VERTEX
8
CUT
10
126.912
20
124.768
30
0
0
VERTEX
8
CUT
10
126.363
20
126.509
30
0
0
VERTEX
8
CUT
10
125.968
20
128.291
30
0
0
VERTEX
8
CUT
10
125.730
20
130.101
30
0
0
SEQEND
8
CUT
0
POLYLINE
8
CUT
66
1
70
1
10
0
20
0
30
0
0
VERTEX
8
CUT
10
121.500
20
131.925
30
0
0
VERTEX
8
CUT
10
121.595
20
134.110
30
0
0
VERTEX
8
CUT
10
121.881
20
136.279
30
0
0
VERTEX
8
CUT
10
122.354
20
138.415
30
0
0
VERTEX
8
CUT
10
123.012
20
140.501
30
0
0
VERTEX
8
CUT
10
123.849
20
142.522
30
0
0
VERTEX
8
CUT
10
124.859
20
144.462
30
0
0
VERTEX
8
CUT
10
126.035
20
146.307
30
0
0
VERTEX
8
CUT
10
127.366
20
148.043
30
0
0
VERTEX
8
CUT
10
128.844
20
149.656
30
0
0
VERTEX
8
CUT
10
130.457
20
151.134
30
0
0
VERTEX
8
CUT
10
132.193
20
152.465
30
0
0
VERTEX
8
CUT
10
134.038
20
153.641
30
0
0
VERTEX
8
CUT
10
135.978
20
154.651
30
0
0
VERTEX
8
CUT
10
137.999
20
155.488
30
0
0
VERTEX
8
CUT
10
140.085
20
156.146
30
0
0
VERTEX
8
CUT
10
142.221
20
156.619
30
0
0
VERTEX
8
CUT
10
144.390
20
156.905
30
0
0
VERTEX
8
CUT
10
146.575
20
157.000
30
0
0
VERTEX
8
CUT
10
148.761
20
156.905
30
0
0
VERTEX
8
CUT
10
150.929
20
156.619
30
0
0
VERTEX
8
CUT
10
153.065
20
156.146
30
0
0
VERTEX
8
CUT
10
155.151
20
155.488
30
0
0
VERTEX
8
CUT
10
157.172
20
154.651
30
0
0
VERTEX
8
CUT
10
159.113
20
153.641
30
0
0
VERTEX
8
CUT
10
160.958
20
152.465
30
0
0
VERTEX
8
CUT
10
162.693
20
151.134
30
0
0
VERTEX
8
CUT
10
164.306
20
149.656
30
0
0
VERTEX
8
CUT
10
165.784
20
148.043
30
0
0
VERTEX
8
CUT
10
167.115
20
146.307
30
0
0
VERTEX
8
CUT
10
168.291
20
144.462
30
0
0
VERTEX
8
CUT
10
169.301
20
142.522
30
0
0
VERTEX
8
CUT
10
170.138
20
140.501
30
0
0
VERTEX
8
CUT
10
170.796
20
138.415
30
0
0
VERTEX
8
CUT
10
171.269
20
136.279
30
0
0
VERTEX
8
CUT
10
171.555
20
134.110
30
0
0
VERTEX
8
CUT
10
171.650
20
131.925
30
0
0
VERTEX
8
CUT
10
171.555
20
129.739
30
0
0
VERTEX
8
CUT
10
171.269
20
127.571
30
0
0
VERTEX
8
CUT
10
170.796
20
125.435
30
0
0
VERTEX
8
CUT
10
170.138
20
123.349
30
0
0
VERTEX
8
CUT
10
169.301
20
121.328
30
0
0
VERTEX
8
CUT
10
168.291
20
119.387
30
0
0
VERTEX
8
CUT
10
167.115
20
117.542
30
0
0
VERTEX
8
CUT
10
165.784
20
115.807
30
0
0
VERTEX
8
CUT
10
164.306
20
114.194
30
0
0
VERTEX
8
CUT
10
162.693
20
112.716
30
0
0
VERTEX
8
CUT
10
160.958
20
111.385
30
0
0
VERTEX
8
CUT
10
159.113
20
110.209
30
0
0
VERTEX
8
CUT
10
157.172
20
109.199
30
0
0
VERTEX
8
CUT
10
155.151
20
108.362
30
0
0
VERTEX
8
CUT
10
153.065
20
107.704
30
0
0
VERTEX
8
CUT
10
150.929
20
107.231
30
0
0
VERTEX
8
CUT
10
148.761
20
106.945
30
0
0
VERTEX
8
CUT
10
146.575
20
106.850
30
0
0
VERTEX
8
CUT
10
144.390
20
106.945
30
0
0
VERTEX
8
CUT
10
142.221
20
107.231
30
0
0
VERTEX
8
CUT
10
140.085
20
107.704
30
0
0
VERTEX
8
CUT
10
137.999
20
108.362
30
0
0
VERTEX
8
CUT
10
135.978
20
109.199
30
0
0
VERTEX
8
CUT
10
134.038
20
110.209
30
0
0
VERTEX
8
CUT
10
132.193
20
111.385
30
0
0
VERTEX
8
CUT
10
130.457
20
112.716
30
0
0
VERTEX
8
CUT
10
128.844
20
114.194
30
0
0
VERTEX
8
CUT
10
127.366
20
115.807
30
0
0
VERTEX
8
CUT
10
126.035
20
117.542
30
0
0
VERTEX
8
CUT
10
124.859
20
119.387
30
0
0
VERTEX
8
CUT
10
123.849
20
121.328
30
0
0
VERTEX
8
CUT
10
123.012
20
123.349
30
0
0
VERTEX
8
CUT
10
122.354
20
125.435
30
0
0
VERTEX
8
CUT
10
121.881
20
127.571
30
0
0
VERTEX
8
CUT
10
121.595
20
129.739
30
0
0
SEQEND
8
CUT
0
POLYLINE
8
CUT
66
1
70
1
10
0
20
0
30
0
0
VERTEX
8
CUT
10
205.575
20
153.874
30
0
0
VERTEX
8
CUT
10
207.791
20
153.777
30
0
0
VERTEX
8
CUT
10
209.990
20
153.488
30
0
0
VERTEX
8
CUT
10
212.155
20
153.007
30
0
0
VERTEX
8
CUT
10
214.271
20
152.340
30
0
0
VERTEX
8
CUT
10
216.320
20
151.492
30
0
0
VERTEX
8
CUT
10
218.287
20
150.467
30
0
0
VERTEX
8
CUT
10
220.158
20
149.276
30
0
0
VERTEX
8
CUT
10
221.918
20
147.925
30
0
0
VERTEX
8
CUT
10
223.553
20
146.427
30
0
0
VERTEX
8
CUT
10
225.052
20
144.792
30
0
0
VERTEX
8
CUT
10
226.402
20
143.032
30
0
0
VERTEX
8
CUT
10
227.594
20
141.161
30
0
0
VERTEX
8
CUT
10
228.618
20
139.194
30
0
0
VERTEX
8
CUT
10
229.467
20
137.145
30
0
0
VERTEX
8
CUT
10
230.134
20
135.029
30
0
0
VERTEX
8
CUT
10
230.614
20
132.864
30
0
0
VERTEX
8
CUT
10
230.903
20
130.665
30
0
0
VERTEX
8
CUT
10
231.000
20
128.449
30
0
0
VERTEX
8
CUT
10
230.903
20
126.233
30
0
0
VERTEX
8
CUT
10
230.614
20
124.034
30
0
0
VERTEX
8
CUT
10
230.134
20
121.868
30
0
0
VERTEX
8
CUT
10
229.467
20
119.753
30
0
0
VERTEX
8
CUT
10
228.618
20
117.704
30
0
0
VERTEX
8
CUT
10
227.594
20
115.736
30
0
0
VERTEX
8
CUT
10
226.402
20
113.866
30
0
0
VERTEX
8
CUT
10
225.052
20
112.106
30
0
0
VERTEX
8
CUT
10
223.553
20
110.471
30
0
0
VERTEX
8
CUT
10
221.918
20
108.972
30
0
0
VERTEX
8
CUT
10
220.158
20
107.622
30
0
0
VERTEX
8
CUT
10
218.287
20
106.430
30
0
0
VERTEX
8
CUT
10
216.320
20
105.406
30
0
0
VERTEX
8
CUT
10
214.271
20
104.557
30
0
0
VERTEX
8
CUT
10
212.155
20
103.890
30
0
0
VERTEX
8
CUT
10
209.990
20
103.410
30
0
0
VERTEX
8
CUT
10
207.791
20
103.121
30
0
0
VERTEX
8
CUT
10
205.575
20
103.024
30
0
0
VERTEX
8
CUT
10
203.359
20
103.121
30
0
0
VERTEX
8
CUT
10
201.160
20
103.410
30
0
0
VERTEX
8
CUT
10
198.995
20
103.890
30
0
0
VERTEX
8
CUT
10
196.879
20
104.557
30
0
0
VERTEX
8
CUT
10
194.830
20
105.406
30
0
0
VERTEX
8
CUT
10
192.863
20
106.430
30
0
0
VERTEX
8
CUT
10
190.992
20
107.622
30
0
0
VERTEX
8
CUT
10
189.232
20
108.972
30
0
0
VERTEX
8
CUT
10
187.597
20
110.471
30
0
0
VERTEX
8
CUT
10
186.098
20
112.106
30
0
0
VERTEX
8
CUT
10
184.748
20
113.866
30
0
0
VERTEX
8
CUT
10
183.556
20
115.736
30
0
0
VERTEX
8
CUT
10
182.532
20
117.704
30
0
0
VERTEX
8
CUT
10
181.683
20
119.753
30
0
0
VERTEX
8
CUT
10
181.016
20
121.868
30
0
0
VERTEX
8
CUT
10
180.536
20
124.034
30
0
0
VERTEX
8
CUT
10
180.247
20
126.233
30
0
0
VERTEX
8
CUT
10
180.150
20
128.449
30
0
0
VERTEX
8
CUT
10
180.247
20
130.665
30
0
0
VERTEX
8
CUT
10
180.536
20
132.864
30
0
0
VERTEX
8
CUT
10
181.016
20
135.029
30
0
0
VERTEX
8
CUT
10
181.683
20
137.145
30
0
0
VERTEX
8
CUT
10
182.532
20
139.194
30
0
0
VERTEX
8
CUT
10
183.556
20
141.161
30
0
0
VERTEX
8
CUT
10
184.748
20
143.032
30
0
0
VERTEX
8
CUT
10
186.098
20
144.792
30
0
0
VERTEX
8
CUT
10
187.597
20
146.427
30
0
0
VERTEX
8
CUT
10
189.232
20
147.925
30
0
0
VERTEX
8
CUT
10
190.992
20
149.276
30
0
0
VERTEX
8
CUT
10
192.863
20
150.467
30
0
0
VERTEX
8
CUT
10
194.830
20
151.492
30
0
0
VERTEX
8
CUT
10
196.879
20
152.340
30
0
0
VERTEX
8
CUT
10
198.995
20
153.007
30
0
0
VERTEX
8
CUT
10
201.160
20
153.488
30
0
0
VERTEX
8
CUT
10
203.359
20
153.777
30
0
0
SEQEND
8
CUT
0
POLYLINE
8
CUT
66
1
70
1
10
0
20
0
30
0
0
VERTEX
8
CUT
10
177.119
20
131.024
30
0
0
VERTEX
8
CUT
10
177.425
20
133.358
30
0
0
VERTEX
8
CUT
10
177.942
20
135.725
30
0
0
VERTEX
8
CUT
10
178.658
20
138.041
30
0
0
VERTEX
8
CUT
10
179.567
20
140.287
30
0
0
VERTEX
8
CUT
10
180.664
20
142.448
30
0
0
VERTEX
8
CUT
10
181.939
20
144.508
30
0
0
VERTEX
8
CUT
10
183.385
20
146.453
30
0
0
VERTEX
8
CUT
10
184.990
20
148.268
30
0
0
VERTEX
8
CUT
10
186.743
20
149.941
30
0
0
VERTEX
8
CUT
10
188.632
20
151.459
30
0
0
VERTEX
8
CUT
10
190.642
20
152.812
30
0
0
VERTEX
8
CUT
10
192.760
20
153.989
30
0
0
VERTEX
8
CUT
10
194.970
20
154.983
30
0
0
VERTEX
8
CUT
10
197.256
20
155.786
30
0
0
VERTEX
8
CUT
10
199.602
20
156.393
30
0
0
VERTEX
8
CUT
10
201.992
20
156.798
30
0
0
VERTEX
8
CUT
10
204.406
20
157.000
30
0
0
VERTEX
8
CUT
10
206.830
20
156.996
30
0
0
VERTEX
8
CUT
10
209.244
20
156.787
30
0
0
VERTEX
8
CUT
10
211.631
20
156.375
30
0
0
VERTEX
8
CUT
10
213.976
20
155.761
30
0
0
VERTEX
8
CUT
10
216.260
20
154.951
30
0
0
VERTEX
8
CUT
10
218.467
20
153.951
30
0
0
VERTEX
8
CUT
10
220.581
20
152.767
30
0
0
VERTEX
8
CUT
10
222.587
20
151.408
30
0
0
VERTEX
8
CUT
10
224.471
20
149.884
30
0
0
VERTEX
8
CUT
10
226.219
20
148.206
30
0
0
VERTEX
8
CUT
10
227.819
20
146.386
30
0
0
VERTEX
8
CUT
10
229.259
20
144.437
30
0
0
VERTEX
8
CUT
10
230.528
20
142.373
30
0
0
VERTEX
8
CUT
10
231.618
20
140.208
30
0
0
VERTEX
8
CUT
10
232.521
20
137.960
30
0
0
VERTEX
8
CUT
10
233.230
20
135.642
30
0
0
VERTEX
8
CUT
10
233.740
20
133.273
30
0
0
VERTEX
8
CUT
10
234.047
20
130.870
30
0
0
VERTEX
8
CUT
10
234.150
20
128.449
30
0
0
VERTEX
8
CUT
10
234.047
20
126.028
30
0
0
VERTEX
8
CUT
10
233.740
20
123.624
30
0
0
VERTEX
8
CUT
10
233.230
20
121.255
30
0
0
VERTEX
8
CUT
10
232.521
20
118.938
30
0
0
VERTEX
8
CUT
10
231.618
20
116.689
30
0
0
VERTEX
8
CUT
10
230.528
20
114.525
30
0
0
VERTEX
8
CUT
10
229.259
20
112.461
30
0
0
VERTEX
8
CUT
10
227.819
20
110.512
30
0
0
VERTEX
8
CUT
10
226.219
20
108.692
30
0
0
VERTEX
8
CUT
10
224.471
20
107.014
30
0
0
VERTEX
8
CUT
10
222.587
20
105.490
30
0
0
VERTEX
8
CUT
10
220.581
20
104.131
30
0
0
VERTEX
8
CUT
10
218.467
20
102.947
30
0
0
VERTEX
8
CUT
10
216.260
20
101.946
30
0
0
VERTEX
8
CUT
10
213.976
20
101.137
30
0
0
VERTEX
8
CUT
10
211.631
20
100.523
30
0
0
VERTEX
8
CUT
10
209.244
20
100.110
30
0
0
VERTEX
8
CUT
10
206.830
20
99.901
30
0
0
VERTEX
8
CUT
10
204.406
20
99.898
30
0
0
VERTEX
8
CUT
10
201.992
20
100.099
30
0
0
VERTEX
8
CUT
10
199.602
20
100.505
30
0
0
VERTEX
8
CUT
10
197.256
20
101.111
30
0
0
VERTEX
8
CUT
10
194.970
20
101.914
30
0
0
VERTEX
8
CUT
10
192.760
20
102.908
30
0
0
VERTEX
8
CUT
10
190.642
20
104.086
30
0
0
VERTEX
8
CUT
10
188.632
20
105.439
30
0
0
VERTEX
8
CUT
10
186.743
20
106.957
30
0
0
VERTEX
8
CUT
10
184.990
20
108.630
30
0
0
VERTEX
8
CUT
10
183.385
20
110.445
30
0
0
VERTEX
8
CUT
10
181.939
20
112.390
30
0
0
VERTEX
8
CUT
10
180.664
20
114.450
30
0
0
VERTEX
8
CUT
10
179.567
20
116.611
30
0
0
VERTEX
8
CUT
10
178.658
20
118.857
30
0
0
VERTEX
8
CUT
10
177.942
20
121.172
30
0
0
VERTEX
8
CUT
10
177.425
20
123.540
30
0
0
VERTEX
8
CUT
10
177.119
20
125.874
30
0
0
VERTEX
8
CUT
10
173.500
20
125.874
30
0
0
VERTEX
8
CUT
10
173.500
20
131.024
30
0
0
SEQEND
8
CUT
0
POLYLINE
8
CUT
66
1
70
1
10
0
20
0
30
0
0
VERTEX
8
CUT
10
239.150
20
126.925
30
0
0
VERTEX
8
CUT
10
239.247
20
129.141
30
0
0
VERTEX
8
CUT
10
239.536
20
131.340
30
0
0
VERTEX
8
CUT
10
240.016
20
133.505
30
0
0
VERTEX
8
CUT
10
240.683
20
135.621
30
0
0
VERTEX
8
CUT
10
241.532
20
137.670
30
0
0
VERTEX
8
CUT
10
242.556
20
139.637
30
0
0
VERTEX
8
CUT
10
243.748
20
141.508
30
0
0
VERTEX
8
CUT
10
245.098
20
143.268
30
0
0
VERTEX
8
CUT
10
246.597
20
144.903
30
0
0
VERTEX
8
CUT
10
248.232
20
146.402
30
0
0
VERTEX
8
CUT
10
249.992
20
147.752
30
0
0
VERTEX
8
CUT
10
251.863
20
148.944
30
0
0
VERTEX
8
CUT
10
253.830
20
149.968
30
0
0
VERTEX
8
CUT
10
255.879
20
150.817
30
0
0
VERTEX
8
CUT
10
257.995
20
151.484
30
0
0
VERTEX
8
CUT
10
260.160
20
151.964
30
0
0
VERTEX
8
CUT
10
262.359
20
152.253
30
0
0
VERTEX
8
CUT
10
264.575
20
152.350
30
0
0
VERTEX
8
CUT
10
266.791
20
152.253
30
0
0
VERTEX
8
CUT
10
268.990
20
151.964
30
0
0
VERTEX
8
CUT
10
271.156
20
151.484
30
0
0
VERTEX
8
CUT
10
273.271
20
150.817
30
0
0
VERTEX
8
CUT
10
275.320
20
149.968
30
0
0
VERTEX
8
CUT
10
277.288
20
148.944
30
0
0
VERTEX
8
CUT
10
279.158
20
147.752
30
0
0
VERTEX
8
CUT
10
280.918
20
146.402
30
0
0
VERTEX
8
CUT
10
282.553
20
144.903
30
0
0
VERTEX
8
CUT
10
284.052
20
143.268
30
0
0
VERTEX
8
CUT
10
285.402
20
141.508
30
0
0
VERTEX
8
CUT
10
286.594
20
139.637
30
0
0
VERTEX
8
CUT
10
287.618
20
137.670
30
0
0
VERTEX
8
CUT
10
288.467
20
135.621
30
0
0
VERTEX
8
CUT
10
289.134
20
133.505
30
0
0
VERTEX
8
CUT
10
289.614
20
131.340
30
0
0
VERTEX
8
CUT
10
289.903
20
129.141
30
0
0
VERTEX
8
CUT
10
290.000
20
126.925
30
0
0
VERTEX
8
CUT
10
289.903
20
124.709
30
0
0
VERTEX
8
CUT
10
289.614
20
122.510
30
0
0
VERTEX
8
CUT
10
289.134
20
120.344
30
0
0
VERTEX
8
CUT
10
288.467
20
118.229
30
0
0
VERTEX
8
CUT
10
287.618
20
116.180
30
0
0
VERTEX
8
CUT
10
286.594
20
114.212
30
0
0
VERTEX
8
CUT
10
285.402
20
112.342
30
0
0
VERTEX
8
CUT
10
284.052
20
110.582
30
0
0
VERTEX
8
CUT
10
282.553
20
108.947
30
0
0
VERTEX
8
CUT
10
280.918
20
107.448
30
0
0
VERTEX
8
CUT
10
279.158
20
106.098
30
0
0
VERTEX
8
CUT
10
277.288
20
104.906
30
0
0
VERTEX
8
CUT
10
275.320
20
103.882
30
0
0
VERTEX
8
CUT
10
273.271
20
103.033
30
0
0
VERTEX
8
CUT
10
271.156
20
102.366
30
0
0
VERTEX
8
CUT
10
268.990
20
101.886
30
0
0
VERTEX
8
CUT
10
266.791
20
101.597
30
0
0
VERTEX
8
CUT
10
264.575
20
101.500
30
0
0
VERTEX
8
CUT
10
262.359
20
101.597
30
0
0
VERTEX
8
CUT
10
260.160
20
101.886
30
0
0
VERTEX
8
CUT
10
257.995
20
102.366
30
0
0
VERTEX
8
CUT
10
255.879
20
103.033
30
0
0
VERTEX
8
CUT
10
253.830
20
103.882
30
0
0
VERTEX
8
CUT
10
251.863
20
104.906
30
0
0
VERTEX
8
CUT
10
249.992
20
106.098
30
0
0
VERTEX
8
CUT
10
248.232
20
107.448
30
0
0
VERTEX
8
CUT
10
246.597
20
108.947
30
0
0
VERTEX
8
CUT
10
245.098
20
110.582
30
0
0
VERTEX
8
CUT
10
243.748
20
112.342
30
0
0
VERTEX
8
CUT
10
242.556
20
114.212
30
0
0
VERTEX
8
CUT
10
241.532
20
116.180
30
0
0
VERTEX
8
CUT
10
240.683
20
118.229
30
0
0
VERTEX
8
CUT
10
240.016
20
120.344
30
0
0
VERTEX
8
CUT
10
239.536
20
122.510
30
0
0
VERTEX
8
CUT
10
239.247
20
124.709
30
0
0
SEQEND
8
CUT
0
POLYLINE
8
CUT
66
1
70
1
10
0
20
0
30
0
0
VERTEX
8
CUT
10
236.000
20
126.925
30
0
0
VERTEX
8
CUT
10
236.109
20
129.415
30
0
0
VERTEX
8
CUT
10
236.434
20
131.887
30
0
0
VERTEX
8
CUT
10
236.974
20
134.321
30
0
0
VERTEX
8
CUT
10
237.723
20
136.698
30
0
0
VERTEX
8
CUT
10
238.677
20
139.001
30
0
0
VERTEX
8
CUT
10
239.828
20
141.212
30
0
0
VERTEX
8
CUT
10
241.168
20
143.315
30
0
0
VERTEX
8
CUT
10
242.685
20
145.293
30
0
0
VERTEX
8
CUT
10
244.369
20
147.131
30
0
0
VERTEX
8
CUT
10
246.207
20
148.815
30
0
0
VERTEX
8
CUT
10
248.185
20
150.332
30
0
0
VERTEX
8
CUT
10
250.288
20
151.672
30
0
0
VERTEX
8
CUT
10
252.499
20
152.823
30
0
0
VERTEX
8
CUT
10
254.802
20
153.777
30
0
0
VERTEX
8
CUT
10
257.179
20
154.526
30
0
0
VERTEX
8
CUT
10
259.613
20
155.066
30
0
0
VERTEX
8
CUT
10
262.085
20
155.391
30
0
0
VERTEX
8
CUT
10
264.575
20
155.500
30
0
0
VERTEX
8
CUT
10
267.066
20
155.391
30
0
0
VERTEX
8
CUT
10
269.537
20
155.066
30
0
0
VERTEX
8
CUT
10
271.971
20
154.526
30
0
0
VERTEX
8
CUT
10
274.348
20
153.777
30
0
0
VERTEX
8
CUT
10
276.651
20
152.823
30
0
0
VERTEX
8
CUT
10
278.863
20
151.672
30
0
0
VERTEX
8
CUT
10
280.965
20
150.332
30
0
0
VERTEX
8
CUT
10
282.943
20
148.815
30
0
0
VERTEX
8
CUT
10
284.781
20
147.131
30
0
0
VERTEX
8
CUT
10
286.465
20
145.293
30
0
0
VERTEX
8
CUT
10
287.982
20
143.315
30
0
0
VERTEX
8
CUT
10
289.322
20
141.212
30
0
0
VERTEX
8
CUT
10
290.473
20
139.001
30
0
0
VERTEX
8
CUT
10
291.427
20
136.698
30
0
0
VERTEX
8
CUT
10
292.176
20
134.321
30
0
0
VERTEX
8
CUT
10
292.716
20
131.887
30
0
0
VERTEX
8
CUT
10
293.041
20
129.415
30
0
0
VERTEX
8
CUT
10
293.150
20
126.925
30
0
0
VERTEX
8
CUT
10
293.041
20
124.434
30
0
0
VERTEX
8
CUT
10
292.716
20
121.963
30
0
0
VERTEX
8
CUT
10
292.176
20
119.529
30
0
0
VERTEX
8
CUT
10
291.427
20
117.152
30
0
0
VERTEX
8
CUT
10
290.473
20
114.849
30
0
0
VERTEX
8
CUT
10
289.322
20
112.637
30
0
0
VERTEX
8
CUT
10
287.982
20
110.535
30
0
0
VERTEX
8
CUT
10
286.465
20
108.557
30
0
0
VERTEX
8
CUT
10
284.781
20
106.719
30
0
0
VERTEX
8
CUT
10
282.943
20
105.035
30
0
0
VERTEX
8
CUT
10
280.965
20
103.518
30
0
0
VERTEX
8
CUT
10
278.863
20
102.178
30
0
0
VERTEX
8
CUT
10
276.651
20
101.027
30
0
0
VERTEX
8
CUT
10
274.348
20
100.073
30
0
0
VERTEX
8
CUT
10
271.971
20
99.324
30
0
0
VERTEX
8
CUT
10
269.537
20
98.784
30
0
0
VERTEX
8
CUT
10
267.066
20
98.459
30
0
0
VERTEX
8
CUT
10
264.575
20
98.350
30
0
0
VERTEX
8
CUT
10
262.085
20
98.459
30
0
0
VERTEX
8
CUT
10
259.613
20
98.784
30
0
0
VERTEX
8
CUT
10
257.179
20
99.324
30
0
0
VERTEX
8
CUT
10
254.802
20
100.073
30
0
0
VERTEX
8
CUT
10
252.499
20
101.027
30
0
0
VERTEX
8
CUT
10
250.288
20
102.178
30
0
0
VERTEX
8
CUT
10
248.185
20
103.518
30
0
0
VERTEX
8
CUT
10
246.207
20
105.035
30
0
0
VERTEX
8
CUT
10
244.369
20
106.719
30
0
0
VERTEX
8
CUT
10
242.685
20
108.557
30
0
0
VERTEX
8
CUT
10
241.168
20
110.535
30
0
0
VERTEX
8
CUT
10
239.828
20
112.637
30
0
0
VERTEX
8
CUT
10
238.677
20
114.849
30
0
0
VERTEX
8
CUT
10
237.723
20
117.152
30
0
0
VERTEX
8
CUT
10
236.974
20
119.529
30
0
0
VERTEX
8
CUT
10
236.434
20
121.963
30
0
0
VERTEX
8
CUT
10
236.109
20
124.434
30
0
0
SEQEND
8
CUT
0
POLYLINE
8
CUT
66
1
70
1
10
0
20
0
30
0
0
VERTEX
8
CUT
10
298.150
20
125.925
30
0
0
VERTEX
8
CUT
10
298.247
20
128.141
30
0
0
VERTEX
8
CUT
10
298.536
20
130.340
30
0
0
VERTEX
8
CUT
10
299.016
20
132.505
30
0
0
VERTEX
8
CUT
10
299.683
20
134.621
30
0
0
VERTEX
8
CUT
10
300.532
20
136.670
30
0
0
VERTEX
8
CUT
10
301.556
20
138.637
30
0
0
VERTEX
8
CUT
10
302.748
20
140.508
30
0
0
VERTEX
8
CUT
10
304.098
20
142.268
30
0
0
VERTEX
8
CUT
10
305.597
20
143.903
30
0
0
VERTEX
8
CUT
10
307.232
20
145.402
30
0
0
VERTEX
8
CUT
10
308.992
20
146.752
30
0
0
VERTEX
8
CUT
10
310.863
20
147.944
30
0
0
VERTEX
8
CUT
10
312.830
20
148.968
30
0
0
VERTEX
8
CUT
10
314.879
20
149.817
30
0
0
VERTEX
8
CUT
10
316.995
20
150.484
30
0
0
VERTEX
8
CUT
10
319.160
20
150.964
30
0
0
VERTEX
8
CUT
10
321.359
20
151.253
30
0
0
VERTEX
8
CUT
10
323.575
20
151.350
30
0
0
VERTEX
8
CUT
10
325.791
20
151.253
30
0
0
VERTEX
8
CUT
10
327.990
20
150.964
30
0
0
VERTEX
8
CUT
10
330.156
20
150.484
30
0
0
VERTEX
8
CUT
10
332.271
20
149.817
30
0
0
VERTEX
8
CUT
10
334.320
20
148.968
30
0
0
VERTEX
8
CUT
10
336.288
20
147.944
30
0
0
VERTEX
8
CUT
10
338.158
20
146.752
30
0
0
VERTEX
8
CUT
10
339.918
20
145.402
30
0
0
VERTEX
8
CUT
10
341.553
20
143.903
30
0
0
VERTEX
8
CUT
10
343.052
20
142.268
30
0
0
VERTEX
8
CUT
10
344.402
20
140.508
30
0
0
VERTEX
8
CUT
10
345.594
20
138.637
30
0
0
VERTEX
8
CUT
10
346.618
20
136.670
30
0
0
VERTEX
8
CUT
10
347.467
20
134.621
30
0
0
VERTEX
8
CUT
10
348.134
20
132.505
30
0
0
VERTEX
8
CUT
10
348.614
20
130.340
30
0
0
VERTEX
8
CUT
10
348.903
20
128.141
30
0
0
VERTEX
8
CUT
10
349.000
20
125.925
30
0
0
VERTEX
8
CUT
10
348.903
20
123.709
30
0
0
VERTEX
8
CUT
10
348.614
20
121.510
30
0
0
VERTEX
8
CUT
10
348.134
20
119.344
30
0
0
VERTEX
8
CUT
10
347.467
20
117.229
30
0
0
VERTEX
8
CUT
10
346.618
20
115.180
30
0
0
VERTEX
8
CUT
10
345.594
20
113.212
30
0
0
VERTEX
8
CUT
10
344.402
20
111.342
30
0
0
VERTEX
8
CUT
10
343.052
20
109.582
30
0
0
VERTEX
8
CUT
10
341.553
20
107.947
30
0
0
VERTEX
8
CUT
10
339.918
20
106.448
30
0
0
VERTEX
8
CUT
10
338.158
20
105.098
30
0
0
VERTEX
8
CUT
10
336.288
20
103.906
30
0
0
VERTEX
8
CUT
10
334.320
20
102.882
30
0
0
VERTEX
8
CUT
10
332.271
20
102.033
30
0
0
VERTEX
8
CUT
10
330.156
20
101.366
30
0
0
VERTEX
8
CUT
10
327.990
20
100.886
30
0
0
VERTEX
8
CUT
10
325.791
20
100.597
30
0
0
VERTEX
8
CUT
10
323.575
20
100.500
30
0
0
VERTEX
8
CUT
10
321.359
20
100.597
30
0
0
VERTEX
8
CUT
10
319.160
20
100.886
30
0
0
VERTEX
8
CUT
10
316.995
20
101.366
30
0
0
VERTEX
8
CUT
10
314.879
20
102.033
30
0
0
VERTEX
8
CUT
10
312.830
20
102.882
30
0
0
VERTEX
8
CUT
10
310.863
20
103.906
30
0
0
VERTEX
8
CUT
10
308.992
20
105.098
30
0
0
VERTEX
8
CUT
10
307.232
20
106.448
30
0
0
VERTEX
8
CUT
10
305.597
20
107.947
30
0
0
VERTEX
8
CUT
10
304.098
20
109.582
30
0
0
VERTEX
8
CUT
10
302.748
20
111.342
30
0
0
VERTEX
8
CUT
10
301.556
20
113.212
30
0
0
VERTEX
8
CUT
10
300.532
20
115.180
30
0
0
VERTEX
8
CUT
10
299.683
20
117.229
30
0
0
VERTEX
8
CUT
10
299.016
20
119.344
30
0
0
VERTEX
8
CUT
10
298.536
20
121.510
30
0
0
VERTEX
8
CUT
10
298.247
20
123.709
30
0
0
SEQEND
8
CUT
0
POLYLINE
8
CUT
66
1
70
1
10
0
20
0
30
0
0
VERTEX
8
CUT
10
295.000
20
125.925
30
0
0
VERTEX
8
CUT
10
295.109
20
128.415
30
0
0
VERTEX
8
CUT
10
295.434
20
130.887
30
0
0
VERTEX
8
CUT
10
295.974
20
133.321
30
0
0
VERTEX
8
CUT
10
296.723
20
135.698
30
0
0
VERTEX
8
CUT
10
297.677
20
138.001
30
0
0
VERTEX
8
CUT
10
298.828
20
140.212
30
0
0
VERTEX
8
CUT
10
300.168
20
142.315
30
0
0
VERTEX
8
CUT
10
301.685
20
144.293
30
0
0
VERTEX
8
CUT
10
303.369
20
146.131
30
0
0
VERTEX
8
CUT
10
305.207
20
147.815
30
0
0
VERTEX
8
CUT
10
307.185
20
149.332
30
0
0
VERTEX
8
CUT
10
309.288
20
150.672
30
0
0
VERTEX
8
CUT
10
311.499
20
151.823
30
0
0
VERTEX
8
CUT
10
313.802
20
152.777
30
0
0
VERTEX
8
CUT
10
316.179
20
153.526
30
0
0
VERTEX
8
CUT
10
318.613
20
154.066
30
0
0
VERTEX
8
CUT
10
321.085
20
154.391
30
0
0
VERTEX
8
CUT
10
323.575
20
154.500
30
0
0
VERTEX
8
CUT
10
326.066
20
154.391
30
0
0
VERTEX
8
CUT
10
328.537
20
154.066
30
0
0
VERTEX
8
CUT
10
330.971
20
153.526
30
0
0
VERTEX
8
CUT
10
333.348
20
152.777
30
0
0
VERTEX
8
CUT
10
335.651
20
151.823
30
0
0
VERTEX
8
CUT
10
337.863
20
150.672
30
0
0
VERTEX
8
CUT
10
339.965
20
149.332
30
0
0
VERTEX
8
CUT
10
341.943
20
147.815
30
0
0
VERTEX
8
CUT
10
343.781
20
146.131
30
0
0
VERTEX
8
CUT
10
345.465
20
144.293
30
0
0
VERTEX
8
CUT
10
346.982
20
142.315
30
0
0
VERTEX
8
CUT
10
348.322
20
140.212
30
0
0
VERTEX
8
CUT
10
349.473
20
138.001
30
0
0
VERTEX
8
CUT
10
350.427
20
135.698
30
0
0
VERTEX
8
CUT
10
351.176
20
133.321
30
0
0
VERTEX
8
CUT
10
351.716
20
130.887
30
0
0
VERTEX
8
CUT
10
352.041
20
128.415
30
0
0
VERTEX
8
CUT
10
352.150
20
125.925
30
0
0
VERTEX
8
CUT
10
352.041
20
123.434
30
0
0
VERTEX
8
CUT
10
351.716
20
120.963
30
0
0
VERTEX
8
CUT
10
351.176
20
118.529
30
0
0
VERTEX
8
CUT
10
350.427
20
116.152
30
0
0
VERTEX
8
CUT
10
349.473
20
113.849
30
0
0
VERTEX
8
CUT
10
348.322
20
111.637
30
0
0
VERTEX
8
CUT
10
346.982
20
109.535
30
0
0
VERTEX
8
CUT
10
345.465
20
107.557
30
0
0
VERTEX
8
CUT
10
343.781
20
105.719
30
0
0
VERTEX
8
CUT
10
341.943
20
104.035
30
0
0
VERTEX
8
CUT
10
339.965
20
102.518
30
0
0
VERTEX
8
CUT
10
337.863
20
101.178
30
0
0
VERTEX
8
CUT
10
335.651
20
100.027
30
0
0
VERTEX
8
CUT
10
333.348
20
99.073
30
0
0
VERTEX
8
CUT
10
330.971
20
98.324
30
0
0
VERTEX
8
CUT
10
328.537
20
97.784
30
0
0
VERTEX
8
CUT
10
326.066
20
97.459
30
0
0
VERTEX
8
CUT
10
323.575
20
97.350
30
0
0
VERTEX
8
CUT
10
321.085
20
97.459
30
0
0
VERTEX
8
CUT
10
318.613
20
97.784
30
0
0
VERTEX
8
CUT
10
316.179
20
98.324
30
0
0
VERTEX
8
CUT
10
313.802
20
99.073
30
0
0
VERTEX
8
CUT
10
311.499
20
100.027
30
0
0
VERTEX
8
CUT
10
309.288
20
101.178
30
0
0
VERTEX
8
CUT
10
307.185
20
102.518
30
0
0
VERTEX
8
CUT
10
305.207
20
104.035
30
0
0
VERTEX
8
CUT
10
303.369
20
105.719
30
0
0
VERTEX
8
CUT
10
301.685
20
107.557
30
0
0
VERTEX
8
CUT
10
300.168
20
109.535
30
0
0
VERTEX
8
CUT
10
298.828
20
111.637
30
0
0
VERTEX
8
CUT
10
297.677
20
113.849
30
0
0
VERTEX
8
CUT
10
296.723
20
116.152
30
0
0
VERTEX
8
CUT
10
295.974
20
118.529
30
0
0
VERTEX
8
CUT
10
295.434
20
120.963
30
0
0
VERTEX
8
CUT
10
295.109
20
123.434
30
0
0
SEQEND
8
CUT
0
ENDSEC
0
EOF
