0
SECTION
2
HEADER
9
$ACADVER
1
AC1009
9
$INSUNITS
70
4
0
ENDSEC
0
SECTION
2
TABLES
0
TABLE
2
LAYER
70
3
0
LAYER
2
CUT
70
0
62
1
6
CONTINUOUS
0
LAYER
2
SCORE
70
0
62
5
6
CONTINUOUS
0
LAYER
2
ENGRAVE
70
0
62
7
6
CONTINUOUS
0
ENDTAB
0
ENDSEC
0
SECTION
2
ENTITIES
0
POLYLINE
8
ENGRAVE
66
1
70
1
10
0
20
0
30
0
0
VERTEX
8
ENGRAVE
10
12.075
20
187.925
30
0
0
VERTEX
8
ENGRAVE
10
108.075
20
187.925
30
0
0
VERTEX
8
ENGRAVE
10
108.075
20
190.925
30
0
0
VERTEX
8
ENGRAVE
10
12.075
20
190.925
30
0
0
SEQEND
8
ENGRAVE
0
POLYLINE
8
ENGRAVE
66
1
70
1
10
0
20
0
30
0
0
VERTEX
8
ENGRAVE
10
62.736
20
130.477
30
0
0
VERTEX
8
ENGRAVE
10
63.320
20
130.477
30
0
0
VERTEX
8
ENGRAVE
10
63.976
20
130.258
30
0
0
VERTEX
8
ENGRAVE
10
64.486
20
129.821
30
0
0
VERTEX
8
ENGRAVE
10
64.705
20
129.383
30
0
0
VERTEX
8
ENGRAVE
10
64.632
20
129.238
30
0
0
VERTEX
8
ENGRAVE
10
64.122
20
129.165
30
0
0
VERTEX
8
ENGRAVE
10
64.049
20
129.529
30
0
0
VERTEX
8
ENGRAVE
10
63.320
20
129.967
30
0
0
VERTEX
8
ENGRAVE
10
62.591
20
129.967
30
0
0
VERTEX
8
ENGRAVE
10
62.007
20
129.529
30
0
0
VERTEX
8
ENGRAVE
10
61.934
20
129.165
30
0
0
VERTEX
8
ENGRAVE
10
62.226
20
128.654
30
0
0
VERTEX
8
ENGRAVE
10
64.122
20
128.144
30
0
0
VERTEX
8
ENGRAVE
10
64.778
20
127.560
30
0
0
VERTEX
8
ENGRAVE
10
64.851
20
126.540
30
0
0
VERTEX
8
ENGRAVE
10
64.705
20
126.175
30
0
0
VERTEX
8
ENGRAVE
10
64.341
20
125.810
30
0
0
VERTEX
8
ENGRAVE
10
63.611
20
125.519
30
0
0
VERTEX
8
ENGRAVE
10
62.153
20
125.665
30
0
0
VERTEX
8
ENGRAVE
10
61.424
20
126.248
30
0
0
VERTEX
8
ENGRAVE
10
61.132
20
126.758
30
0
0
VERTEX
8
ENGRAVE
10
61.132
20
126.904
30
0
0
VERTEX
8
ENGRAVE
10
61.716
20
126.977
30
0
0
VERTEX
8
ENGRAVE
10
62.080
20
126.321
30
0
0
VERTEX
8
ENGRAVE
10
62.809
20
126.029
30
0
0
VERTEX
8
ENGRAVE
10
63.684
20
126.102
30
0
0
VERTEX
8
ENGRAVE
10
64.195
20
126.540
30
0
0
VERTEX
8
ENGRAVE
10
64.268
20
126.977
30
0
0
VERTEX
8
ENGRAVE
10
64.049
20
127.415
30
0
0
VERTEX
8
ENGRAVE
10
63.684
20
127.633
30
0
0
VERTEX
8
ENGRAVE
10
62.080
20
127.998
30
0
0
VERTEX
8
ENGRAVE
10
61.424
20
128.654
30
0
0
VERTEX
8
ENGRAVE
10
61.351
20
129.310
30
0
0
VERTEX
8
ENGRAVE
10
61.497
20
129.821
30
0
0
VERTEX
8
ENGRAVE
10
61.861
20
130.185
30
0
0
SEQEND
8
ENGRAVE
0
POLYLINE
8
ENGRAVE
66
1
70
1
10
0
20
0
30
0
0
VERTEX
8
ENGRAVE
10
50.341
20
130.404
30
0
0
VERTEX
8
ENGRAVE
10
51.070
20
130.331
30
0
0
VERTEX
8
ENGRAVE
10
52.528
20
125.592
30
0
0
VERTEX
8
ENGRAVE
10
51.872
20
125.665
30
0
0
VERTEX
8
ENGRAVE
10
51.507
20
126.977
30
0
0
VERTEX
8
ENGRAVE
10
49.684
20
126.977
30
0
0
VERTEX
8
ENGRAVE
10
49.320
20
125.665
30
0
0
VERTEX
8
ENGRAVE
10
48.736
20
125.592
30
0
0
SEQEND
8
ENGRAVE
0
POLYLINE
8
ENGRAVE
66
1
70
1
10
0
20
0
30
0
0
VERTEX
8
ENGRAVE
10
53.184
20
130.404
30
0
0
VERTEX
8
ENGRAVE
10
55.664
20
130.331
30
0
0
VERTEX
8
ENGRAVE
10
56.393
20
129.821
30
0
0
VERTEX
8
ENGRAVE
10
56.611
20
129.092
30
0
0
VERTEX
8
ENGRAVE
10
56.539
20
128.581
30
0
0
VERTEX
8
ENGRAVE
10
56.101
20
127.998
30
0
0
VERTEX
8
ENGRAVE
10
55.736
20
127.852
30
0
0
VERTEX
8
ENGRAVE
10
55.736
20
127.633
30
0
0
VERTEX
8
ENGRAVE
10
56.611
20
125.592
30
0
0
VERTEX
8
ENGRAVE
10
55.955
20
125.592
30
0
0
VERTEX
8
ENGRAVE
10
55.153
20
127.633
30
0
0
VERTEX
8
ENGRAVE
10
53.768
20
127.633
30
0
0
VERTEX
8
ENGRAVE
10
53.768
20
125.592
30
0
0
VERTEX
8
ENGRAVE
10
53.184
20
125.592
30
0
0
SEQEND
8
ENGRAVE
0
POLYLINE
8
ENGRAVE
66
1
70
1
10
0
20
0
30
0
0
VERTEX
8
ENGRAVE
10
57.486
20
130.404
30
0
0
VERTEX
8
ENGRAVE
10
60.549
20
130.404
30
0
0
VERTEX
8
ENGRAVE
10
60.549
20
129.894
30
0
0
VERTEX
8
ENGRAVE
10
58.143
20
129.894
30
0
0
VERTEX
8
ENGRAVE
10
58.143
20
128.363
30
0
0
VERTEX
8
ENGRAVE
10
60.039
20
128.363
30
0
0
VERTEX
8
ENGRAVE
10
60.039
20
127.852
30
0
0
VERTEX
8
ENGRAVE
10
58.143
20
127.852
30
0
0
VERTEX
8
ENGRAVE
10
58.143
20
126.102
30
0
0
VERTEX
8
ENGRAVE
10
60.622
20
126.102
30
0
0
VERTEX
8
ENGRAVE
10
60.622
20
125.592
30
0
0
VERTEX
8
ENGRAVE
10
57.486
20
125.592
30
0
0
SEQEND
8
ENGRAVE
0
POLYLINE
8
ENGRAVE
66
1
70
1
10
0
20
0
30
0
0
VERTEX
8
ENGRAVE
10
69.372
20
130.404
30
0
0
VERTEX
8
ENGRAVE
10
69.809
20
130.404
30
0
0
VERTEX
8
ENGRAVE
10
69.809
20
126.029
30
0
0
VERTEX
8
ENGRAVE
10
71.195
20
126.029
30
0
0
VERTEX
8
ENGRAVE
10
71.195
20
125.592
30
0
0
VERTEX
8
ENGRAVE
10
67.841
20
125.592
30
0
0
VERTEX
8
ENGRAVE
10
67.841
20
126.029
30
0
0
VERTEX
8
ENGRAVE
10
69.226
20
126.029
30
0
0
VERTEX
8
ENGRAVE
10
69.226
20
129.602
30
0
0
VERTEX
8
ENGRAVE
10
68.059
20
128.654
30
0
0
VERTEX
8
ENGRAVE
10
67.914
20
128.654
30
0
0
VERTEX
8
ENGRAVE
10
67.914
20
129.238
30
0
0
VERTEX
8
ENGRAVE
10
68.789
20
129.748
30
0
0
SEQEND
8
ENGRAVE
0
POLYLINE
8
ENGRAVE
66
1
70
1
10
0
20
0
30
0
0
VERTEX
8
ENGRAVE
10
53.841
20
129.894
30
0
0
VERTEX
8
ENGRAVE
10
53.768
20
128.144
30
0
0
VERTEX
8
ENGRAVE
10
55.445
20
128.217
30
0
0
VERTEX
8
ENGRAVE
10
55.882
20
128.581
30
0
0
VERTEX
8
ENGRAVE
10
55.955
20
129.310
30
0
0
VERTEX
8
ENGRAVE
10
55.736
20
129.675
30
0
0
VERTEX
8
ENGRAVE
10
55.153
20
129.894
30
0
0
SEQEND
8
ENGRAVE
0
POLYLINE
8
ENGRAVE
66
1
70
1
10
0
20
0
30
0
0
VERTEX
8
ENGRAVE
10
50.632
20
129.675
30
0
0
VERTEX
8
ENGRAVE
10
49.903
20
127.488
30
0
0
VERTEX
8
ENGRAVE
10
51.289
20
127.488
30
0
0
SEQEND
8
ENGRAVE
0
POLYLINE
8
ENGRAVE
66
1
70
1
10
0
20
0
30
0
0
VERTEX
8
ENGRAVE
10
65.216
20
127.633
30
0
0
VERTEX
8
ENGRAVE
10
66.674
20
127.633
30
0
0
VERTEX
8
ENGRAVE
10
66.674
20
127.196
30
0
0
VERTEX
8
ENGRAVE
10
65.143
20
127.196
30
0
0
SEQEND
8
ENGRAVE
0
POLYLINE
8
ENGRAVE
66
1
70
1
10
0
20
0
30
0
0
VERTEX
8
ENGRAVE
10
42.979
20
82.597
30
0
0
VERTEX
8
ENGRAVE
10
43.479
20
82.555
30
0
0
VERTEX
8
ENGRAVE
10
43.813
20
82.389
30
0
0
VERTEX
8
ENGRAVE
10
44.063
20
82.055
30
0
0
VERTEX
8
ENGRAVE
10
44.104
20
81.680
30
0
0
VERTEX
8
ENGRAVE
10
44.063
20
81.472
30
0
0
VERTEX
8
ENGRAVE
10
43.813
20
81.055
30
0
0
VERTEX
8
ENGRAVE
10
42.646
20
80.097
30
0
0
VERTEX
8
ENGRAVE
10
44.104
20
80.097
30
0
0
VERTEX
8
ENGRAVE
10
44.104
20
79.805
30
0
0
VERTEX
8
ENGRAVE
10
42.146
20
79.805
30
0
0
VERTEX
8
ENGRAVE
10
42.146
20
80.097
30
0
0
VERTEX
8
ENGRAVE
10
43.313
20
80.972
30
0
0
VERTEX
8
ENGRAVE
10
43.646
20
81.347
30
0
0
VERTEX
8
ENGRAVE
10
43.729
20
81.555
30
0
0
VERTEX
8
ENGRAVE
10
43.688
20
82.055
30
0
0
VERTEX
8
ENGRAVE
10
43.313
20
82.305
30
0
0
VERTEX
8
ENGRAVE
10
42.938
20
82.305
30
0
0
VERTEX
8
ENGRAVE
10
42.688
20
82.180
30
0
0
VERTEX
8
ENGRAVE
10
42.479
20
81.847
30
0
0
VERTEX
8
ENGRAVE
10
42.479
20
81.680
30
0
0
VERTEX
8
ENGRAVE
10
42.146
20
81.764
30
0
0
VERTEX
8
ENGRAVE
10
42.313
20
82.222
30
0
0
VERTEX
8
ENGRAVE
10
42.521
20
82.430
30
0
0
SEQEND
8
ENGRAVE
0
POLYLINE
8
ENGRAVE
66
1
70
1
10
0
20
0
30
0
0
VERTEX
8
ENGRAVE
10
39.771
20
82.555
30
0
0
VERTEX
8
ENGRAVE
10
41.229
20
82.514
30
0
0
VERTEX
8
ENGRAVE
10
41.604
20
82.180
30
0
0
VERTEX
8
ENGRAVE
10
41.604
20
81.555
30
0
0
VERTEX
8
ENGRAVE
10
41.396
20
81.347
30
0
0
VERTEX
8
ENGRAVE
10
41.188
20
81.264
30
0
0
VERTEX
8
ENGRAVE
10
41.479
20
81.139
30
0
0
VERTEX
8
ENGRAVE
10
41.729
20
80.764
30
0
0
VERTEX
8
ENGRAVE
10
41.688
20
80.222
30
0
0
VERTEX
8
ENGRAVE
10
41.438
20
79.930
30
0
0
VERTEX
8
ENGRAVE
10
41.104
20
79.805
30
0
0
VERTEX
8
ENGRAVE
10
39.771
20
79.805
30
0
0
SEQEND
8
ENGRAVE
0
POLYLINE
8
ENGRAVE
66
1
70
1
10
0
20
0
30
0
0
VERTEX
8
ENGRAVE
10
40.146
20
82.264
30
0
0
VERTEX
8
ENGRAVE
10
40.104
20
81.389
30
0
0
VERTEX
8
ENGRAVE
10
40.979
20
81.389
30
0
0
VERTEX
8
ENGRAVE
10
41.271
20
81.597
30
0
0
VERTEX
8
ENGRAVE
10
41.313
20
81.930
30
0
0
VERTEX
8
ENGRAVE
10
41.104
20
82.222
30
0
0
SEQEND
8
ENGRAVE
0
POLYLINE
8
ENGRAVE
66
1
70
1
10
0
20
0
30
0
0
VERTEX
8
ENGRAVE
10
40.146
20
81.097
30
0
0
VERTEX
8
ENGRAVE
10
40.104
20
80.097
30
0
0
VERTEX
8
ENGRAVE
10
40.979
20
80.097
30
0
0
VERTEX
8
ENGRAVE
10
41.354
20
80.347
30
0
0
VERTEX
8
ENGRAVE
10
41.354
20
80.847
30
0
0
VERTEX
8
ENGRAVE
10
41.146
20
81.055
30
0
0
SEQEND
8
ENGRAVE
0
POLYLINE
8
ENGRAVE
66
1
70
1
10
0
20
0
30
0
0
VERTEX
8
ENGRAVE
10
228.094
20
148.347
30
0
0
VERTEX
8
ENGRAVE
10
228.094
20
149.097
30
0
0
VERTEX
8
ENGRAVE
10
228.375
20
149.941
30
0
0
VERTEX
8
ENGRAVE
10
228.938
20
150.597
30
0
0
VERTEX
8
ENGRAVE
10
229.500
20
150.878
30
0
0
VERTEX
8
ENGRAVE
10
229.688
20
150.784
30
0
0
VERTEX
8
ENGRAVE
10
229.781
20
150.128
30
0
0
VERTEX
8
ENGRAVE
10
229.313
20
150.034
30
0
0
VERTEX
8
ENGRAVE
10
228.750
20
149.097
30
0
0
VERTEX
8
ENGRAVE
10
228.750
20
148.159
30
0
0
VERTEX
8
ENGRAVE
10
229.313
20
147.409
30
0
0
VERTEX
8
ENGRAVE
10
229.781
20
147.316
30
0
0
VERTEX
8
ENGRAVE
10
230.438
20
147.691
30
0
0
VERTEX
8
ENGRAVE
10
231.094
20
150.128
30
0
0
VERTEX
8
ENGRAVE
10
231.844
20
150.972
30
0
0
VERTEX
8
ENGRAVE
10
233.156
20
151.066
30
0
0
VERTEX
8
ENGRAVE
10
233.625
20
150.878
30
0
0
VERTEX
8
ENGRAVE
10
234.094
20
150.409
30
0
0
VERTEX
8
ENGRAVE
10
234.469
20
149.472
30
0
0
VERTEX
8
ENGRAVE
10
234.281
20
147.597
30
0
0
VERTEX
8
ENGRAVE
10
233.531
20
146.659
30
0
0
VERTEX
8
ENGRAVE
10
232.875
20
146.284
30
0
0
VERTEX
8
ENGRAVE
10
232.688
20
146.284
30
0
0
VERTEX
8
ENGRAVE
10
232.594
20
147.034
30
0
0
VERTEX
8
ENGRAVE
10
233.438
20
147.503
30
0
0
VERTEX
8
ENGRAVE
10
233.813
20
148.441
30
0
0
VERTEX
8
ENGRAVE
10
233.719
20
149.566
30
0
0
VERTEX
8
ENGRAVE
10
233.156
20
150.222
30
0
0
VERTEX
8
ENGRAVE
10
232.594
20
150.316
30
0
0
VERTEX
8
ENGRAVE
10
232.031
20
150.034
30
0
0
VERTEX
8
ENGRAVE
10
231.750
20
149.566
30
0
0
VERTEX
8
ENGRAVE
10
231.281
20
147.503
30
0
0
VERTEX
8
ENGRAVE
10
230.438
20
146.659
30
0
0
VERTEX
8
ENGRAVE
10
229.594
20
146.566
30
0
0
VERTEX
8
ENGRAVE
10
228.938
20
146.753
30
0
0
VERTEX
8
ENGRAVE
10
228.469
20
147.222
30
0
0
SEQEND
8
ENGRAVE
0
POLYLINE
8
ENGRAVE
66
1
70
1
10
0
20
0
30
0
0
VERTEX
8
ENGRAVE
10
228.188
20
132.409
30
0
0
VERTEX
8
ENGRAVE
10
228.281
20
133.347
30
0
0
VERTEX
8
ENGRAVE
10
234.375
20
135.222
30
0
0
VERTEX
8
ENGRAVE
10
234.281
20
134.378
30
0
0
VERTEX
8
ENGRAVE
10
232.594
20
133.909
30
0
0
VERTEX
8
ENGRAVE
10
232.594
20
131.566
30
0
0
VERTEX
8
ENGRAVE
10
234.281
20
131.097
30
0
0
VERTEX
8
ENGRAVE
10
234.375
20
130.347
30
0
0
SEQEND
8
ENGRAVE
0
POLYLINE
8
ENGRAVE
66
1
70
1
10
0
20
0
30
0
0
VERTEX
8
ENGRAVE
10
228.188
20
136.066
30
0
0
VERTEX
8
ENGRAVE
10
228.281
20
139.253
30
0
0
VERTEX
8
ENGRAVE
10
228.938
20
140.191
30
0
0
VERTEX
8
ENGRAVE
10
229.875
20
140.472
30
0
0
VERTEX
8
ENGRAVE
10
230.531
20
140.378
30
0
0
VERTEX
8
ENGRAVE
10
231.281
20
139.816
30
0
0
VERTEX
8
ENGRAVE
10
231.469
20
139.347
30
0
0
VERTEX
8
ENGRAVE
10
231.750
20
139.347
30
0
0
VERTEX
8
ENGRAVE
10
234.375
20
140.472
30
0
0
VERTEX
8
ENGRAVE
10
234.375
20
139.628
30
0
0
VERTEX
8
ENGRAVE
10
231.750
20
138.597
30
0
0
VERTEX
8
ENGRAVE
10
231.750
20
136.816
30
0
0
VERTEX
8
ENGRAVE
10
234.375
20
136.816
30
0
0
VERTEX
8
ENGRAVE
10
234.375
20
136.066
30
0
0
SEQEND
8
ENGRAVE
0
POLYLINE
8
ENGRAVE
66
1
70
1
10
0
20
0
30
0
0
VERTEX
8
ENGRAVE
10
228.188
20
141.597
30
0
0
VERTEX
8
ENGRAVE
10
228.188
20
145.534
30
0
0
VERTEX
8
ENGRAVE
10
228.844
20
145.534
30
0
0
VERTEX
8
ENGRAVE
10
228.844
20
142.441
30
0
0
VERTEX
8
ENGRAVE
10
230.813
20
142.441
30
0
0
VERTEX
8
ENGRAVE
10
230.813
20
144.878
30
0
0
VERTEX
8
ENGRAVE
10
231.469
20
144.878
30
0
0
VERTEX
8
ENGRAVE
10
231.469
20
142.441
30
0
0
VERTEX
8
ENGRAVE
10
233.719
20
142.441
30
0
0
VERTEX
8
ENGRAVE
10
233.719
20
145.628
30
0
0
VERTEX
8
ENGRAVE
10
234.375
20
145.628
30
0
0
VERTEX
8
ENGRAVE
10
234.375
20
141.597
30
0
0
SEQEND
8
ENGRAVE
0
POLYLINE
8
ENGRAVE
66
1
70
1
10
0
20
0
30
0
0
VERTEX
8
ENGRAVE
10
228.188
20
156.878
30
0
0
VERTEX
8
ENGRAVE
10
228.188
20
157.441
30
0
0
VERTEX
8
ENGRAVE
10
233.813
20
157.441
30
0
0
VERTEX
8
ENGRAVE
10
233.813
20
159.222
30
0
0
VERTEX
8
ENGRAVE
10
234.375
20
159.222
30
0
0
VERTEX
8
ENGRAVE
10
234.375
20
154.909
30
0
0
VERTEX
8
ENGRAVE
10
233.813
20
154.909
30
0
0
VERTEX
8
ENGRAVE
10
233.813
20
156.691
30
0
0
VERTEX
8
ENGRAVE
10
229.219
20
156.691
30
0
0
VERTEX
8
ENGRAVE
10
230.438
20
155.191
30
0
0
VERTEX
8
ENGRAVE
10
230.438
20
155.003
30
0
0
VERTEX
8
ENGRAVE
10
229.688
20
155.003
30
0
0
VERTEX
8
ENGRAVE
10
229.031
20
156.128
30
0
0
SEQEND
8
ENGRAVE
0
POLYLINE
8
ENGRAVE
66
1
70
1
10
0
20
0
30
0
0
VERTEX
8
ENGRAVE
10
228.844
20
136.909
30
0
0
VERTEX
8
ENGRAVE
10
231.094
20
136.816
30
0
0
VERTEX
8
ENGRAVE
10
231.000
20
138.972
30
0
0
VERTEX
8
ENGRAVE
10
230.531
20
139.534
30
0
0
VERTEX
8
ENGRAVE
10
229.594
20
139.628
30
0
0
VERTEX
8
ENGRAVE
10
229.125
20
139.347
30
0
0
VERTEX
8
ENGRAVE
10
228.844
20
138.597
30
0
0
SEQEND
8
ENGRAVE
0
POLYLINE
8
ENGRAVE
66
1
70
1
10
0
20
0
30
0
0
VERTEX
8
ENGRAVE
10
229.125
20
132.784
30
0
0
VERTEX
8
ENGRAVE
10
231.938
20
131.847
30
0
0
VERTEX
8
ENGRAVE
10
231.938
20
133.628
30
0
0
SEQEND
8
ENGRAVE
0
POLYLINE
8
ENGRAVE
66
1
70
1
10
0
20
0
30
0
0
VERTEX
8
ENGRAVE
10
231.750
20
151.534
30
0
0
VERTEX
8
ENGRAVE
10
231.750
20
153.409
30
0
0
VERTEX
8
ENGRAVE
10
232.313
20
153.409
30
0
0
VERTEX
8
ENGRAVE
10
232.313
20
151.441
30
0
0
SEQEND
8
ENGRAVE
0
POLYLINE
8
ENGRAVE
66
1
70
1
10
0
20
0
30
0
0
VERTEX
8
ENGRAVE
10
202.563
20
61.724
30
0
0
VERTEX
8
ENGRAVE
10
202.855
20
61.724
30
0
0
VERTEX
8
ENGRAVE
10
203.230
20
61.599
30
0
0
VERTEX
8
ENGRAVE
10
203.438
20
61.432
30
0
0
VERTEX
8
ENGRAVE
10
203.688
20
60.974
30
0
0
VERTEX
8
ENGRAVE
10
203.647
20
60.807
30
0
0
VERTEX
8
ENGRAVE
10
203.355
20
60.766
30
0
0
VERTEX
8
ENGRAVE
10
203.313
20
61.016
30
0
0
VERTEX
8
ENGRAVE
10
203.105
20
61.307
30
0
0
VERTEX
8
ENGRAVE
10
202.855
20
61.432
30
0
0
VERTEX
8
ENGRAVE
10
202.522
20
61.432
30
0
0
VERTEX
8
ENGRAVE
10
202.272
20
61.307
30
0
0
VERTEX
8
ENGRAVE
10
202.022
20
60.932
30
0
0
VERTEX
8
ENGRAVE
10
201.938
20
60.057
30
0
0
VERTEX
8
ENGRAVE
10
202.063
20
59.599
30
0
0
VERTEX
8
ENGRAVE
10
202.272
20
59.307
30
0
0
VERTEX
8
ENGRAVE
10
202.522
20
59.182
30
0
0
VERTEX
8
ENGRAVE
10
202.980
20
59.224
30
0
0
VERTEX
8
ENGRAVE
10
203.230
20
59.432
30
0
0
VERTEX
8
ENGRAVE
10
203.355
20
59.849
30
0
0
VERTEX
8
ENGRAVE
10
203.688
20
59.807
30
0
0
VERTEX
8
ENGRAVE
10
203.647
20
59.557
30
0
0
VERTEX
8
ENGRAVE
10
203.438
20
59.182
30
0
0
VERTEX
8
ENGRAVE
10
202.897
20
58.891
30
0
0
VERTEX
8
ENGRAVE
10
202.480
20
58.891
30
0
0
VERTEX
8
ENGRAVE
10
202.063
20
59.057
30
0
0
VERTEX
8
ENGRAVE
10
201.730
20
59.474
30
0
0
VERTEX
8
ENGRAVE
10
201.563
20
60.016
30
0
0
VERTEX
8
ENGRAVE
10
201.563
20
60.641
30
0
0
VERTEX
8
ENGRAVE
10
201.772
20
61.224
30
0
0
VERTEX
8
ENGRAVE
10
202.147
20
61.599
30
0
0
SEQEND
8
ENGRAVE
0
POLYLINE
8
ENGRAVE
66
1
70
1
10
0
20
0
30
0
0
VERTEX
8
ENGRAVE
10
204.272
20
61.682
30
0
0
VERTEX
8
ENGRAVE
10
205.897
20
61.682
30
0
0
VERTEX
8
ENGRAVE
10
205.897
20
61.391
30
0
0
VERTEX
8
ENGRAVE
10
204.522
20
61.391
30
0
0
VERTEX
8
ENGRAVE
10
204.480
20
60.516
30
0
0
VERTEX
8
ENGRAVE
10
204.897
20
60.766
30
0
0
VERTEX
8
ENGRAVE
10
205.397
20
60.766
30
0
0
VERTEX
8
ENGRAVE
10
205.688
20
60.641
30
0
0
VERTEX
8
ENGRAVE
10
206.063
20
60.141
30
0
0
VERTEX
8
ENGRAVE
10
206.063
20
59.599
30
0
0
VERTEX
8
ENGRAVE
10
205.938
20
59.307
30
0
0
VERTEX
8
ENGRAVE
10
205.438
20
58.932
30
0
0
VERTEX
8
ENGRAVE
10
204.647
20
58.932
30
0
0
VERTEX
8
ENGRAVE
10
204.397
20
59.057
30
0
0
VERTEX
8
ENGRAVE
10
204.063
20
59.474
30
0
0
VERTEX
8
ENGRAVE
10
204.063
20
59.557
30
0
0
VERTEX
8
ENGRAVE
10
204.397
20
59.641
30
0
0
VERTEX
8
ENGRAVE
10
204.563
20
59.307
30
0
0
VERTEX
8
ENGRAVE
10
204.813
20
59.182
30
0
0
VERTEX
8
ENGRAVE
10
205.313
20
59.182
30
0
0
VERTEX
8
ENGRAVE
10
205.480
20
59.266
30
0
0
VERTEX
8
ENGRAVE
10
205.730
20
59.599
30
0
0
VERTEX
8
ENGRAVE
10
205.730
20
60.099
30
0
0
VERTEX
8
ENGRAVE
10
205.480
20
60.432
30
0
0
VERTEX
8
ENGRAVE
10
204.938
20
60.516
30
0
0
VERTEX
8
ENGRAVE
10
204.605
20
60.349
30
0
0
VERTEX
8
ENGRAVE
10
204.480
20
60.141
30
0
0
VERTEX
8
ENGRAVE
10
204.188
20
60.182
30
0
0
SEQEND
8
ENGRAVE
0
POLYLINE
8
ENGRAVE
66
1
70
1
10
0
20
0
30
0
0
VERTEX
8
ENGRAVE
10
260.274
20
42.188
30
0
0
VERTEX
8
ENGRAVE
10
260.857
20
42.146
30
0
0
VERTEX
8
ENGRAVE
10
261.107
20
42.021
30
0
0
VERTEX
8
ENGRAVE
10
261.316
20
41.813
30
0
0
VERTEX
8
ENGRAVE
10
261.399
20
41.605
30
0
0
VERTEX
8
ENGRAVE
10
261.357
20
41.188
30
0
0
VERTEX
8
ENGRAVE
10
261.149
20
40.938
30
0
0
VERTEX
8
ENGRAVE
10
260.899
20
40.813
30
0
0
VERTEX
8
ENGRAVE
10
261.149
20
40.771
30
0
0
VERTEX
8
ENGRAVE
10
261.399
20
40.563
30
0
0
VERTEX
8
ENGRAVE
10
261.482
20
40.396
30
0
0
VERTEX
8
ENGRAVE
10
261.482
20
39.938
30
0
0
VERTEX
8
ENGRAVE
10
261.274
20
39.605
30
0
0
VERTEX
8
ENGRAVE
10
260.691
20
39.355
30
0
0
VERTEX
8
ENGRAVE
10
260.024
20
39.396
30
0
0
VERTEX
8
ENGRAVE
10
259.774
20
39.521
30
0
0
VERTEX
8
ENGRAVE
10
259.441
20
39.896
30
0
0
VERTEX
8
ENGRAVE
10
259.482
20
40.063
30
0
0
VERTEX
8
ENGRAVE
10
259.732
20
40.105
30
0
0
VERTEX
8
ENGRAVE
10
259.816
20
39.896
30
0
0
VERTEX
8
ENGRAVE
10
260.149
20
39.646
30
0
0
VERTEX
8
ENGRAVE
10
260.732
20
39.646
30
0
0
VERTEX
8
ENGRAVE
10
260.941
20
39.730
30
0
0
VERTEX
8
ENGRAVE
10
261.107
20
39.938
30
0
0
VERTEX
8
ENGRAVE
10
261.149
20
40.271
30
0
0
VERTEX
8
ENGRAVE
10
260.941
20
40.563
30
0
0
VERTEX
8
ENGRAVE
10
260.566
20
40.688
30
0
0
VERTEX
8
ENGRAVE
10
260.107
20
40.688
30
0
0
VERTEX
8
ENGRAVE
10
260.107
20
40.980
30
0
0
VERTEX
8
ENGRAVE
10
260.732
20
40.980
30
0
0
VERTEX
8
ENGRAVE
10
260.941
20
41.105
30
0
0
VERTEX
8
ENGRAVE
10
261.024
20
41.271
30
0
0
VERTEX
8
ENGRAVE
10
260.982
20
41.688
30
0
0
VERTEX
8
ENGRAVE
10
260.691
20
41.896
30
0
0
VERTEX
8
ENGRAVE
10
260.232
20
41.896
30
0
0
VERTEX
8
ENGRAVE
10
260.066
20
41.813
30
0
0
VERTEX
8
ENGRAVE
10
259.816
20
41.480
30
0
0
VERTEX
8
ENGRAVE
10
259.524
20
41.521
30
0
0
VERTEX
8
ENGRAVE
10
259.732
20
41.938
30
0
0
SEQEND
8
ENGRAVE
0
POLYLINE
8
ENGRAVE
66
1
70
1
10
0
20
0
30
0
0
VERTEX
8
ENGRAVE
10
257.107
20
42.146
30
0
0
VERTEX
8
ENGRAVE
10
258.566
20
42.105
30
0
0
VERTEX
8
ENGRAVE
10
258.941
20
41.771
30
0
0
VERTEX
8
ENGRAVE
10
258.941
20
41.146
30
0
0
VERTEX
8
ENGRAVE
10
258.732
20
40.938
30
0
0
VERTEX
8
ENGRAVE
10
258.524
20
40.855
30
0
0
VERTEX
8
ENGRAVE
10
258.816
20
40.730
30
0
0
VERTEX
8
ENGRAVE
10
259.066
20
40.355
30
0
0
VERTEX
8
ENGRAVE
10
259.024
20
39.813
30
0
0
VERTEX
8
ENGRAVE
10
258.774
20
39.521
30
0
0
VERTEX
8
ENGRAVE
10
258.441
20
39.396
30
0
0
VERTEX
8
ENGRAVE
10
257.107
20
39.396
30
0
0
SEQEND
8
ENGRAVE
0
POLYLINE
8
ENGRAVE
66
1
70
1
10
0
20
0
30
0
0
VERTEX
8
ENGRAVE
10
257.482
20
41.855
30
0
0
VERTEX
8
ENGRAVE
10
257.441
20
40.980
30
0
0
VERTEX
8
ENGRAVE
10
258.316
20
40.980
30
0
0
VERTEX
8
ENGRAVE
10
258.607
20
41.188
30
0
0
VERTEX
8
ENGRAVE
10
258.649
20
41.521
30
0
0
VERTEX
8
ENGRAVE
10
258.441
20
41.813
30
0
0
SEQEND
8
ENGRAVE
0
POLYLINE
8
ENGRAVE
66
1
70
1
10
0
20
0
30
0
0
VERTEX
8
ENGRAVE
10
257.482
20
40.688
30
0
0
VERTEX
8
ENGRAVE
10
257.441
20
39.688
30
0
0
VERTEX
8
ENGRAVE
10
258.316
20
39.688
30
0
0
VERTEX
8
ENGRAVE
10
258.691
20
39.938
30
0
0
VERTEX
8
ENGRAVE
10
258.691
20
40.438
30
0
0
VERTEX
8
ENGRAVE
10
258.482
20
40.646
30
0
0
SEQEND
8
ENGRAVE
0
POLYLINE
8
ENGRAVE
66
1
70
1
10
0
20
0
30
0
0
VERTEX
8
ENGRAVE
10
133.509
20
16.058
30
0
0
VERTEX
8
ENGRAVE
10
134.009
20
16.016
30
0
0
VERTEX
8
ENGRAVE
10
134.342
20
15.850
30
0
0
VERTEX
8
ENGRAVE
10
134.592
20
15.475
30
0
0
VERTEX
8
ENGRAVE
10
134.592
20
14.975
30
0
0
VERTEX
8
ENGRAVE
10
134.217
20
14.391
30
0
0
VERTEX
8
ENGRAVE
10
134.134
20
14.391
30
0
0
VERTEX
8
ENGRAVE
10
133.926
20
14.141
30
0
0
VERTEX
8
ENGRAVE
10
133.134
20
13.558
30
0
0
VERTEX
8
ENGRAVE
10
134.592
20
13.558
30
0
0
VERTEX
8
ENGRAVE
10
134.634
20
13.266
30
0
0
VERTEX
8
ENGRAVE
10
132.676
20
13.266
30
0
0
VERTEX
8
ENGRAVE
10
132.676
20
13.558
30
0
0
VERTEX
8
ENGRAVE
10
133.676
20
14.308
30
0
0
VERTEX
8
ENGRAVE
10
134.134
20
14.766
30
0
0
VERTEX
8
ENGRAVE
10
134.259
20
15.058
30
0
0
VERTEX
8
ENGRAVE
10
134.259
20
15.391
30
0
0
VERTEX
8
ENGRAVE
10
134.176
20
15.558
30
0
0
VERTEX
8
ENGRAVE
10
133.842
20
15.766
30
0
0
VERTEX
8
ENGRAVE
10
133.426
20
15.766
30
0
0
VERTEX
8
ENGRAVE
10
133.259
20
15.683
30
0
0
VERTEX
8
ENGRAVE
10
133.051
20
15.433
30
0
0
VERTEX
8
ENGRAVE
10
132.967
20
15.141
30
0
0
VERTEX
8
ENGRAVE
10
132.676
20
15.225
30
0
0
VERTEX
8
ENGRAVE
10
132.801
20
15.641
30
0
0
VERTEX
8
ENGRAVE
10
133.176
20
15.975
30
0
0
SEQEND
8
ENGRAVE
0
POLYLINE
8
ENGRAVE
66
1
70
1
10
0
20
0
30
0
0
VERTEX
8
ENGRAVE
10
130.467
20
16.016
30
0
0
VERTEX
8
ENGRAVE
10
132.384
20
16.016
30
0
0
VERTEX
8
ENGRAVE
10
132.384
20
15.725
30
0
0
VERTEX
8
ENGRAVE
10
131.592
20
15.683
30
0
0
VERTEX
8
ENGRAVE
10
131.592
20
13.266
30
0
0
VERTEX
8
ENGRAVE
10
131.259
20
13.266
30
0
0
VERTEX
8
ENGRAVE
10
131.259
20
15.725
30
0
0
VERTEX
8
ENGRAVE
10
130.467
20
15.725
30
0
0
SEQEND
8
ENGRAVE
0
POLYLINE
8
ENGRAVE
66
1
70
1
10
0
20
0
30
0
0
VERTEX
8
ENGRAVE
10
169.967
20
11.120
30
0
0
VERTEX
8
ENGRAVE
10
169.967
20
11.454
30
0
0
VERTEX
8
ENGRAVE
10
170.133
20
11.870
30
0
0
VERTEX
8
ENGRAVE
10
170.425
20
12.120
30
0
0
VERTEX
8
ENGRAVE
10
170.717
20
12.245
30
0
0
VERTEX
8
ENGRAVE
10
170.883
20
12.245
30
0
0
VERTEX
8
ENGRAVE
10
170.925
20
11.954
30
0
0
VERTEX
8
ENGRAVE
10
170.508
20
11.787
30
0
0
VERTEX
8
ENGRAVE
10
170.258
20
11.412
30
0
0
VERTEX
8
ENGRAVE
10
170.342
20
10.912
30
0
0
VERTEX
8
ENGRAVE
10
170.675
20
10.620
30
0
0
VERTEX
8
ENGRAVE
10
171.300
20
10.495
30
0
0
VERTEX
8
ENGRAVE
10
171.800
20
10.537
30
0
0
VERTEX
8
ENGRAVE
10
172.217
20
10.704
30
0
0
VERTEX
8
ENGRAVE
10
172.425
20
10.912
30
0
0
VERTEX
8
ENGRAVE
10
172.508
20
11.079
30
0
0
VERTEX
8
ENGRAVE
10
172.508
20
11.454
30
0
0
VERTEX
8
ENGRAVE
10
172.217
20
11.829
30
0
0
VERTEX
8
ENGRAVE
10
171.842
20
11.954
30
0
0
VERTEX
8
ENGRAVE
10
171.883
20
12.245
30
0
0
VERTEX
8
ENGRAVE
10
172.175
20
12.204
30
0
0
VERTEX
8
ENGRAVE
10
172.467
20
12.037
30
0
0
VERTEX
8
ENGRAVE
10
172.800
20
11.495
30
0
0
VERTEX
8
ENGRAVE
10
172.758
20
10.870
30
0
0
VERTEX
8
ENGRAVE
10
172.508
20
10.495
30
0
0
VERTEX
8
ENGRAVE
10
172.092
20
10.245
30
0
0
VERTEX
8
ENGRAVE
10
171.592
20
10.120
30
0
0
VERTEX
8
ENGRAVE
10
170.925
20
10.162
30
0
0
VERTEX
8
ENGRAVE
10
170.467
20
10.329
30
0
0
VERTEX
8
ENGRAVE
10
170.050
20
10.787
30
0
0
SEQEND
8
ENGRAVE
0
POLYLINE
8
ENGRAVE
66
1
70
1
10
0
20
0
30
0
0
VERTEX
8
ENGRAVE
10
170.008
20
13.620
30
0
0
VERTEX
8
ENGRAVE
10
170.008
20
13.912
30
0
0
VERTEX
8
ENGRAVE
10
172.508
20
13.912
30
0
0
VERTEX
8
ENGRAVE
10
172.508
20
14.662
30
0
0
VERTEX
8
ENGRAVE
10
172.758
20
14.662
30
0
0
VERTEX
8
ENGRAVE
10
172.758
20
12.745
30
0
0
VERTEX
8
ENGRAVE
10
172.508
20
12.745
30
0
0
VERTEX
8
ENGRAVE
10
172.508
20
13.579
30
0
0
VERTEX
8
ENGRAVE
10
170.467
20
13.579
30
0
0
VERTEX
8
ENGRAVE
10
171.008
20
12.870
30
0
0
VERTEX
8
ENGRAVE
10
170.633
20
12.829
30
0
0
VERTEX
8
ENGRAVE
10
170.467
20
13.204
30
0
0
VERTEX
8
ENGRAVE
10
170.092
20
13.620
30
0
0
SEQEND
8
ENGRAVE
0
POLYLINE
8
ENGRAVE
66
1
70
1
10
0
20
0
30
0
0
VERTEX
8
ENGRAVE
10
170.008
20
16.204
30
0
0
VERTEX
8
ENGRAVE
10
170.008
20
16.662
30
0
0
VERTEX
8
ENGRAVE
10
171.842
20
16.662
30
0
0
VERTEX
8
ENGRAVE
10
171.842
20
17.120
30
0
0
VERTEX
8
ENGRAVE
10
172.133
20
17.120
30
0
0
VERTEX
8
ENGRAVE
10
172.133
20
16.662
30
0
0
VERTEX
8
ENGRAVE
10
172.758
20
16.662
30
0
0
VERTEX
8
ENGRAVE
10
172.758
20
16.329
30
0
0
VERTEX
8
ENGRAVE
10
172.133
20
16.329
30
0
0
VERTEX
8
ENGRAVE
10
172.092
20
14.954
30
0
0
VERTEX
8
ENGRAVE
10
171.883
20
14.954
30
0
0
SEQEND
8
ENGRAVE
0
POLYLINE
8
ENGRAVE
66
1
70
1
10
0
20
0
30
0
0
VERTEX
8
ENGRAVE
10
170.300
20
16.329
30
0
0
VERTEX
8
ENGRAVE
10
171.675
20
15.412
30
0
0
VERTEX
8
ENGRAVE
10
171.842
20
15.370
30
0
0
VERTEX
8
ENGRAVE
10
171.842
20
16.329
30
0
0
SEQEND
8
ENGRAVE
0
POLYLINE
8
CUT
66
1
70
1
10
0
20
0
30
0
0
VERTEX
8
CUT
10
61.496
20
155.925
30
0
0
VERTEX
8
CUT
10
61.225
20
156.760
30
0
0
VERTEX
8
CUT
10
60.514
20
157.277
30
0
0
VERTEX
8
CUT
10
59.636
20
157.277
30
0
0
VERTEX
8
CUT
10
58.925
20
156.760
30
0
0
VERTEX
8
CUT
10
58.654
20
155.925
30
0
0
VERTEX
8
CUT
10
58.925
20
155.090
30
0
0
VERTEX
8
CUT
10
59.636
20
154.573
30
0
0
VERTEX
8
CUT
10
60.514
20
154.573
30
0
0
VERTEX
8
CUT
10
61.225
20
155.090
30
0
0
SEQEND
8
CUT
0
POLYLINE
8
CUT
66
1
70
1
10
0
20
0
30
0
0
VERTEX
8
CUT
10
66.996
20
155.925
30
0
0
VERTEX
8
CUT
10
66.725
20
156.760
30
0
0
VERTEX
8
CUT
10
66.014
20
157.277
30
0
0
VERTEX
8
CUT
10
65.136
20
157.277
30
0
0
VERTEX
8
CUT
10
64.425
20
156.760
30
0
0
VERTEX
8
CUT
10
64.154
20
155.925
30
0
0
VERTEX
8
CUT
10
64.425
20
155.090
30
0
0
VERTEX
8
CUT
10
65.136
20
154.573
30
0
0
VERTEX
8
CUT
10
66.014
20
154.573
30
0
0
VERTEX
8
CUT
10
66.725
20
155.090
30
0
0
SEQEND
8
CUT
0
POLYLINE
8
CUT
66
1
70
1
10
0
20
0
30
0
0
VERTEX
8
CUT
10
64.246
20
160.688
30
0
0
VERTEX
8
CUT
10
63.975
20
161.523
30
0
0
VERTEX
8
CUT
10
63.264
20
162.040
30
0
0
VERTEX
8
CUT
10
62.386
20
162.040
30
0
0
VERTEX
8
CUT
10
61.675
20
161.523
30
0
0
VERTEX
8
CUT
10
61.404
20
160.688
30
0
0
VERTEX
8
CUT
10
61.675
20
159.853
30
0
0
VERTEX
8
CUT
10
62.386
20
159.337
30
0
0
VERTEX
8
CUT
10
63.264
20
159.337
30
0
0
VERTEX
8
CUT
10
63.975
20
159.853
30
0
0
SEQEND
8
CUT
0
POLYLINE
8
CUT
66
1
70
1
10
0
20
0
30
0
0
VERTEX
8
CUT
10
58.746
20
160.688
30
0
0
VERTEX
8
CUT
10
58.475
20
161.523
30
0
0
VERTEX
8
CUT
10
57.764
20
162.040
30
0
0
VERTEX
8
CUT
10
56.886
20
162.040
30
0
0
VERTEX
8
CUT
10
56.175
20
161.523
30
0
0
VERTEX
8
CUT
10
55.904
20
160.688
30
0
0
VERTEX
8
CUT
10
56.175
20
159.853
30
0
0
VERTEX
8
CUT
10
56.886
20
159.337
30
0
0
VERTEX
8
CUT
10
57.764
20
159.337
30
0
0
VERTEX
8
CUT
10
58.475
20
159.853
30
0
0
SEQEND
8
CUT
0
POLYLINE
8
CUT
66
1
70
1
10
0
20
0
30
0
0
VERTEX
8
CUT
10
55.996
20
155.925
30
0
0
VERTEX
8
CUT
10
55.725
20
156.760
30
0
0
VERTEX
8
CUT
10
55.014
20
157.277
30
0
0
VERTEX
8
CUT
10
54.136
20
157.277
30
0
0
VERTEX
8
CUT
10
53.425
20
156.760
30
0
0
VERTEX
8
CUT
10
53.154
20
155.925
30
0
0
VERTEX
8
CUT
10
53.425
20
155.090
30
0
0
VERTEX
8
CUT
10
54.136
20
154.573
30
0
0
VERTEX
8
CUT
10
55.014
20
154.573
30
0
0
VERTEX
8
CUT
10
55.725
20
155.090
30
0
0
SEQEND
8
CUT
0
POLYLINE
8
CUT
66
1
70
1
10
0
20
0
30
0
0
VERTEX
8
CUT
10
58.746
20
151.162
30
0
0
VERTEX
8
CUT
10
58.475
20
151.997
30
0
0
VERTEX
8
CUT
10
57.764
20
152.513
30
0
0
VERTEX
8
CUT
10
56.886
20
152.513
30
0
0
VERTEX
8
CUT
10
56.175
20
151.997
30
0
0
VERTEX
8
CUT
10
55.904
20
151.162
30
0
0
VERTEX
8
CUT
10
56.175
20
150.327
30
0
0
VERTEX
8
CUT
10
56.886
20
149.810
30
0
0
VERTEX
8
CUT
10
57.764
20
149.810
30
0
0
VERTEX
8
CUT
10
58.475
20
150.327
30
0
0
SEQEND
8
CUT
0
POLYLINE
8
CUT
66
1
70
1
10
0
20
0
30
0
0
VERTEX
8
CUT
10
64.246
20
151.162
30
0
0
VERTEX
8
CUT
10
63.975
20
151.997
30
0
0
VERTEX
8
CUT
10
63.264
20
152.513
30
0
0
VERTEX
8
CUT
10
62.386
20
152.513
30
0
0
VERTEX
8
CUT
10
61.675
20
151.997
30
0
0
VERTEX
8
CUT
10
61.404
20
151.162
30
0
0
VERTEX
8
CUT
10
61.675
20
150.327
30
0
0
VERTEX
8
CUT
10
62.386
20
149.810
30
0
0
VERTEX
8
CUT
10
63.264
20
149.810
30
0
0
VERTEX
8
CUT
10
63.975
20
150.327
30
0
0
SEQEND
8
CUT
0
POLYLINE
8
CUT
66
1
70
1
10
0
20
0
30
0
0
VERTEX
8
CUT
10
72.496
20
155.925
30
0
0
VERTEX
8
CUT
10
72.225
20
156.760
30
0
0
VERTEX
8
CUT
10
71.514
20
157.277
30
0
0
VERTEX
8
CUT
10
70.636
20
157.277
30
0
0
VERTEX
8
CUT
10
69.925
20
156.760
30
0
0
VERTEX
8
CUT
10
69.654
20
155.925
30
0
0
VERTEX
8
CUT
10
69.925
20
155.090
30
0
0
VERTEX
8
CUT
10
70.636
20
154.573
30
0
0
VERTEX
8
CUT
10
71.514
20
154.573
30
0
0
VERTEX
8
CUT
10
72.225
20
155.090
30
0
0
SEQEND
8
CUT
0
POLYLINE
8
CUT
66
1
70
1
10
0
20
0
30
0
0
VERTEX
8
CUT
10
71.022
20
161.425
30
0
0
VERTEX
8
CUT
10
70.751
20
162.260
30
0
0
VERTEX
8
CUT
10
70.040
20
162.777
30
0
0
VERTEX
8
CUT
10
69.162
20
162.777
30
0
0
VERTEX
8
CUT
10
68.452
20
162.260
30
0
0
VERTEX
8
CUT
10
68.180
20
161.425
30
0
0
VERTEX
8
CUT
10
68.452
20
160.590
30
0
0
VERTEX
8
CUT
10
69.162
20
160.073
30
0
0
VERTEX
8
CUT
10
70.040
20
160.073
30
0
0
VERTEX
8
CUT
10
70.751
20
160.590
30
0
0
SEQEND
8
CUT
0
POLYLINE
8
CUT
66
1
70
1
10
0
20
0
30
0
0
VERTEX
8
CUT
10
66.996
20
165.451
30
0
0
VERTEX
8
CUT
10
66.725
20
166.287
30
0
0
VERTEX
8
CUT
10
66.014
20
166.803
30
0
0
VERTEX
8
CUT
10
65.136
20
166.803
30
0
0
VERTEX
8
CUT
10
64.425
20
166.287
30
0
0
VERTEX
8
CUT
10
64.154
20
165.451
30
0
0
VERTEX
8
CUT
10
64.425
20
164.616
30
0
0
VERTEX
8
CUT
10
65.136
20
164.100
30
0
0
VERTEX
8
CUT
10
66.014
20
164.100
30
0
0
VERTEX
8
CUT
10
66.725
20
164.616
30
0
0
SEQEND
8
CUT
0
POLYLINE
8
CUT
66
1
70
1
10
0
20
0
30
0
0
VERTEX
8
CUT
10
61.496
20
166.925
30
0
0
VERTEX
8
CUT
10
61.225
20
167.760
30
0
0
VERTEX
8
CUT
10
60.514
20
168.277
30
0
0
VERTEX
8
CUT
10
59.636
20
168.277
30
0
0
VERTEX
8
CUT
10
58.925
20
167.760
30
0
0
VERTEX
8
CUT
10
58.654
20
166.925
30
0
0
VERTEX
8
CUT
10
58.925
20
166.090
30
0
0
VERTEX
8
CUT
10
59.636
20
165.573
30
0
0
VERTEX
8
CUT
10
60.514
20
165.573
30
0
0
VERTEX
8
CUT
10
61.225
20
166.090
30
0
0
SEQEND
8
CUT
0
POLYLINE
8
CUT
66
1
70
1
10
0
20
0
30
0
0
VERTEX
8
CUT
10
55.996
20
165.451
30
0
0
VERTEX
8
CUT
10
55.725
20
166.287
30
0
0
VERTEX
8
CUT
10
55.014
20
166.803
30
0
0
VERTEX
8
CUT
10
54.136
20
166.803
30
0
0
VERTEX
8
CUT
10
53.425
20
166.287
30
0
0
VERTEX
8
CUT
10
53.154
20
165.451
30
0
0
VERTEX
8
CUT
10
53.425
20
164.616
30
0
0
VERTEX
8
CUT
10
54.136
20
164.100
30
0
0
VERTEX
8
CUT
10
55.014
20
164.100
30
0
0
VERTEX
8
CUT
10
55.725
20
164.616
30
0
0
SEQEND
8
CUT
0
POLYLINE
8
CUT
66
1
70
1
10
0
20
0
30
0
0
VERTEX
8
CUT
10
51.970
20
161.425
30
0
0
VERTEX
8
CUT
10
51.698
20
162.260
30
0
0
VERTEX
8
CUT
10
50.988
20
162.777
30
0
0
VERTEX
8
CUT
10
50.110
20
162.777
30
0
0
VERTEX
8
CUT
10
49.399
20
162.260
30
0
0
VERTEX
8
CUT
10
49.128
20
161.425
30
0
0
VERTEX
8
CUT
10
49.399
20
160.590
30
0
0
VERTEX
8
CUT
10
50.110
20
160.073
30
0
0
VERTEX
8
CUT
10
50.988
20
160.073
30
0
0
VERTEX
8
CUT
10
51.698
20
160.590
30
0
0
SEQEND
8
CUT
0
POLYLINE
8
CUT
66
1
70
1
10
0
20
0
30
0
0
VERTEX
8
CUT
10
50.496
20
155.925
30
0
0
VERTEX
8
CUT
10
50.225
20
156.760
30
0
0
VERTEX
8
CUT
10
49.514
20
157.277
30
0
0
VERTEX
8
CUT
10
48.636
20
157.277
30
0
0
VERTEX
8
CUT
10
47.925
20
156.760
30
0
0
VERTEX
8
CUT
10
47.654
20
155.925
30
0
0
VERTEX
8
CUT
10
47.925
20
155.090
30
0
0
VERTEX
8
CUT
10
48.636
20
154.573
30
0
0
VERTEX
8
CUT
10
49.514
20
154.573
30
0
0
VERTEX
8
CUT
10
50.225
20
155.090
30
0
0
SEQEND
8
CUT
0
POLYLINE
8
CUT
66
1
70
1
10
0
20
0
30
0
0
VERTEX
8
CUT
10
51.970
20
150.425
30
0
0
VERTEX
8
CUT
10
51.698
20
151.260
30
0
0
VERTEX
8
CUT
10
50.988
20
151.777
30
0
0
VERTEX
8
CUT
10
50.110
20
151.777
30
0
0
VERTEX
8
CUT
10
49.399
20
151.260
30
0
0
VERTEX
8
CUT
10
49.128
20
150.425
30
0
0
VERTEX
8
CUT
10
49.399
20
149.590
30
0
0
VERTEX
8
CUT
10
50.110
20
149.073
30
0
0
VERTEX
8
CUT
10
50.988
20
149.073
30
0
0
VERTEX
8
CUT
10
51.698
20
149.590
30
0
0
SEQEND
8
CUT
0
POLYLINE
8
CUT
66
1
70
1
10
0
20
0
30
0
0
VERTEX
8
CUT
10
55.996
20
146.399
30
0
0
VERTEX
8
CUT
10
55.725
20
147.234
30
0
0
VERTEX
8
CUT
10
55.014
20
147.750
30
0
0
VERTEX
8
CUT
10
54.136
20
147.750
30
0
0
VERTEX
8
CUT
10
53.425
20
147.234
30
0
0
VERTEX
8
CUT
10
53.154
20
146.399
30
0
0
VERTEX
8
CUT
10
53.425
20
145.563
30
0
0
VERTEX
8
CUT
10
54.136
20
145.047
30
0
0
VERTEX
8
CUT
10
55.014
20
145.047
30
0
0
VERTEX
8
CUT
10
55.725
20
145.563
30
0
0
SEQEND
8
CUT
0
POLYLINE
8
CUT
66
1
70
1
10
0
20
0
30
0
0
VERTEX
8
CUT
10
61.496
20
144.925
30
0
0
VERTEX
8
CUT
10
61.225
20
145.760
30
0
0
VERTEX
8
CUT
10
60.514
20
146.277
30
0
0
VERTEX
8
CUT
10
59.636
20
146.277
30
0
0
VERTEX
8
CUT
10
58.925
20
145.760
30
0
0
VERTEX
8
CUT
10
58.654
20
144.925
30
0
0
VERTEX
8
CUT
10
58.925
20
144.090
30
0
0
VERTEX
8
CUT
10
59.636
20
143.573
30
0
0
VERTEX
8
CUT
10
60.514
20
143.573
30
0
0
VERTEX
8
CUT
10
61.225
20
144.090
30
0
0
SEQEND
8
CUT
0
POLYLINE
8
CUT
66
1
70
1
10
0
20
0
30
0
0
VERTEX
8
CUT
10
66.996
20
146.399
30
0
0
VERTEX
8
CUT
10
66.725
20
147.234
30
0
0
VERTEX
8
CUT
10
66.014
20
147.750
30
0
0
VERTEX
8
CUT
10
65.136
20
147.750
30
0
0
VERTEX
8
CUT
10
64.425
20
147.234
30
0
0
VERTEX
8
CUT
10
64.154
20
146.399
30
0
0
VERTEX
8
CUT
10
64.425
20
145.563
30
0
0
VERTEX
8
CUT
10
65.136
20
145.047
30
0
0
VERTEX
8
CUT
10
66.014
20
145.047
30
0
0
VERTEX
8
CUT
10
66.725
20
145.563
30
0
0
SEQEND
8
CUT
0
POLYLINE
8
CUT
66
1
70
1
10
0
20
0
30
0
0
VERTEX
8
CUT
10
71.022
20
150.425
30
0
0
VERTEX
8
CUT
10
70.751
20
151.260
30
0
0
VERTEX
8
CUT
10
70.040
20
151.777
30
0
0
VERTEX
8
CUT
10
69.162
20
151.777
30
0
0
VERTEX
8
CUT
10
68.452
20
151.260
30
0
0
VERTEX
8
CUT
10
68.180
20
150.425
30
0
0
VERTEX
8
CUT
10
68.452
20
149.590
30
0
0
VERTEX
8
CUT
10
69.162
20
149.073
30
0
0
VERTEX
8
CUT
10
70.040
20
149.073
30
0
0
VERTEX
8
CUT
10
70.751
20
149.590
30
0
0
SEQEND
8
CUT
0
POLYLINE
8
CUT
66
1
70
1
10
0
20
0
30
0
0
VERTEX
8
CUT
10
8.000
20
116.850
30
0
0
VERTEX
8
CUT
10
112.150
20
116.850
30
0
0
VERTEX
8
CUT
10
112.150
20
131.350
30
0
0
VERTEX
8
CUT
10
115.150
20
131.350
30
0
0
VERTEX
8
CUT
10
115.150
20
141.500
30
0
0
VERTEX
8
CUT
10
112.150
20
141.500
30
0
0
VERTEX
8
CUT
10
112.150
20
170.350
30
0
0
VERTEX
8
CUT
10
115.150
20
170.350
30
0
0
VERTEX
8
CUT
10
115.150
20
180.500
30
0
0
VERTEX
8
CUT
10
112.150
20
180.500
30
0
0
VERTEX
8
CUT
10
112.150
20
195.000
30
0
0
VERTEX
8
CUT
10
8.000
20
195.000
30
0
0
VERTEX
8
CUT
10
8.000
20
180.500
30
0
0
VERTEX
8
CUT
10
5.000
20
180.500
30
0
0
VERTEX
8
CUT
10
5.000
20
170.350
30
0
0
VERTEX
8
CUT
10
8.000
20
170.350
30
0
0
VERTEX
8
CUT
10
8.000
20
141.500
30
0
0
VERTEX
8
CUT
10
5.000
20
141.500
30
0
0
VERTEX
8
CUT
10
5.000
20
131.350
30
0
0
VERTEX
8
CUT
10
8.000
20
131.350
30
0
0
SEQEND
8
CUT
0
POLYLINE
8
CUT
66
1
70
1
10
0
20
0
30
0
0
VERTEX
8
CUT
10
144.931
20
153.750
30
0
0
VERTEX
8
CUT
10
144.578
20
153.806
30
0
0
VERTEX
8
CUT
10
144.264
20
153.966
30
0
0
VERTEX
8
CUT
10
144.016
20
154.214
30
0
0
VERTEX
8
CUT
10
143.856
20
154.528
30
0
0
VERTEX
8
CUT
10
143.800
20
154.881
30
0
0
VERTEX
8
CUT
10
143.800
20
154.969
30
0
0
VERTEX
8
CUT
10
143.856
20
155.322
30
0
0
VERTEX
8
CUT
10
144.016
20
155.636
30
0
0
VERTEX
8
CUT
10
144.264
20
155.884
30
0
0
VERTEX
8
CUT
10
144.578
20
156.044
30
0
0
VERTEX
8
CUT
10
144.931
20
156.100
30
0
0
VERTEX
8
CUT
10
156.519
20
156.100
30
0
0
VERTEX
8
CUT
10
156.872
20
156.044
30
0
0
VERTEX
8
CUT
10
157.186
20
155.884
30
0
0
VERTEX
8
CUT
10
157.434
20
155.636
30
0
0
VERTEX
8
CUT
10
157.594
20
155.322
30
0
0
VERTEX
8
CUT
10
157.650
20
154.969
30
0
0
VERTEX
8
CUT
10
157.650
20
154.881
30
0
0
VERTEX
8
CUT
10
157.594
20
154.528
30
0
0
VERTEX
8
CUT
10
157.434
20
154.214
30
0
0
VERTEX
8
CUT
10
157.186
20
153.966
30
0
0
VERTEX
8
CUT
10
156.872
20
153.806
30
0
0
VERTEX
8
CUT
10
156.519
20
153.750
30
0
0
SEQEND
8
CUT
0
POLYLINE
8
CUT
66
1
70
1
10
0
20
0
30
0
0
VERTEX
8
CUT
10
144.931
20
148.750
30
0
0
VERTEX
8
CUT
10
144.578
20
148.806
30
0
0
VERTEX
8
CUT
10
144.264
20
148.966
30
0
0
VERTEX
8
CUT
10
144.016
20
149.214
30
0
0
VERTEX
8
CUT
10
143.856
20
149.528
30
0
0
VERTEX
8
CUT
10
143.800
20
149.881
30
0
0
VERTEX
8
CUT
10
143.800
20
149.969
30
0
0
VERTEX
8
CUT
10
143.856
20
150.322
30
0
0
VERTEX
8
CUT
10
144.016
20
150.636
30
0
0
VERTEX
8
CUT
10
144.264
20
150.884
30
0
0
VERTEX
8
CUT
10
144.578
20
151.044
30
0
0
VERTEX
8
CUT
10
144.931
20
151.100
30
0
0
VERTEX
8
CUT
10
156.519
20
151.100
30
0
0
VERTEX
8
CUT
10
156.872
20
151.044
30
0
0
VERTEX
8
CUT
10
157.186
20
150.884
30
0
0
VERTEX
8
CUT
10
157.434
20
150.636
30
0
0
VERTEX
8
CUT
10
157.594
20
150.322
30
0
0
VERTEX
8
CUT
10
157.650
20
149.969
30
0
0
VERTEX
8
CUT
10
157.650
20
149.881
30
0
0
VERTEX
8
CUT
10
157.594
20
149.528
30
0
0
VERTEX
8
CUT
10
157.434
20
149.214
30
0
0
VERTEX
8
CUT
10
157.186
20
148.966
30
0
0
VERTEX
8
CUT
10
156.872
20
148.806
30
0
0
VERTEX
8
CUT
10
156.519
20
148.750
30
0
0
SEQEND
8
CUT
0
POLYLINE
8
CUT
66
1
70
1
10
0
20
0
30
0
0
VERTEX
8
CUT
10
144.931
20
143.750
30
0
0
VERTEX
8
CUT
10
144.578
20
143.806
30
0
0
VERTEX
8
CUT
10
144.264
20
143.966
30
0
0
VERTEX
8
CUT
10
144.016
20
144.214
30
0
0
VERTEX
8
CUT
10
143.856
20
144.528
30
0
0
VERTEX
8
CUT
10
143.800
20
144.881
30
0
0
VERTEX
8
CUT
10
143.800
20
144.969
30
0
0
VERTEX
8
CUT
10
143.856
20
145.322
30
0
0
VERTEX
8
CUT
10
144.016
20
145.636
30
0
0
VERTEX
8
CUT
10
144.264
20
145.884
30
0
0
VERTEX
8
CUT
10
144.578
20
146.044
30
0
0
VERTEX
8
CUT
10
144.931
20
146.100
30
0
0
VERTEX
8
CUT
10
156.519
20
146.100
30
0
0
VERTEX
8
CUT
10
156.872
20
146.044
30
0
0
VERTEX
8
CUT
10
157.186
20
145.884
30
0
0
VERTEX
8
CUT
10
157.434
20
145.636
30
0
0
VERTEX
8
CUT
10
157.594
20
145.322
30
0
0
VERTEX
8
CUT
10
157.650
20
144.969
30
0
0
VERTEX
8
CUT
10
157.650
20
144.881
30
0
0
VERTEX
8
CUT
10
157.594
20
144.528
30
0
0
VERTEX
8
CUT
10
157.434
20
144.214
30
0
0
VERTEX
8
CUT
10
157.186
20
143.966
30
0
0
VERTEX
8
CUT
10
156.872
20
143.806
30
0
0
VERTEX
8
CUT
10
156.519
20
143.750
30
0
0
SEQEND
8
CUT
0
POLYLINE
8
CUT
66
1
70
1
10
0
20
0
30
0
0
VERTEX
8
CUT
10
144.931
20
138.750
30
0
0
VERTEX
8
CUT
10
144.578
20
138.806
30
0
0
VERTEX
8
CUT
10
144.264
20
138.966
30
0
0
VERTEX
8
CUT
10
144.016
20
139.214
30
0
0
VERTEX
8
CUT
10
143.856
20
139.528
30
0
0
VERTEX
8
CUT
10
143.800
20
139.881
30
0
0
VERTEX
8
CUT
10
143.800
20
139.969
30
0
0
VERTEX
8
CUT
10
143.856
20
140.322
30
0
0
VERTEX
8
CUT
10
144.016
20
140.636
30
0
0
VERTEX
8
CUT
10
144.264
20
140.884
30
0
0
VERTEX
8
CUT
10
144.578
20
141.044
30
0
0
VERTEX
8
CUT
10
144.931
20
141.100
30
0
0
VERTEX
8
CUT
10
156.519
20
141.100
30
0
0
VERTEX
8
CUT
10
156.872
20
141.044
30
0
0
VERTEX
8
CUT
10
157.186
20
140.884
30
0
0
VERTEX
8
CUT
10
157.434
20
140.636
30
0
0
VERTEX
8
CUT
10
157.594
20
140.322
30
0
0
VERTEX
8
CUT
10
157.650
20
139.969
30
0
0
VERTEX
8
CUT
10
157.650
20
139.881
30
0
0
VERTEX
8
CUT
10
157.594
20
139.528
30
0
0
VERTEX
8
CUT
10
157.434
20
139.214
30
0
0
VERTEX
8
CUT
10
157.186
20
138.966
30
0
0
VERTEX
8
CUT
10
156.872
20
138.806
30
0
0
VERTEX
8
CUT
10
156.519
20
138.750
30
0
0
SEQEND
8
CUT
0
POLYLINE
8
CUT
66
1
70
1
10
0
20
0
30
0
0
VERTEX
8
CUT
10
144.931
20
133.750
30
0
0
VERTEX
8
CUT
10
144.578
20
133.806
30
0
0
VERTEX
8
CUT
10
144.264
20
133.966
30
0
0
VERTEX
8
CUT
10
144.016
20
134.214
30
0
0
VERTEX
8
CUT
10
143.856
20
134.528
30
0
0
VERTEX
8
CUT
10
143.800
20
134.881
30
0
0
VERTEX
8
CUT
10
143.800
20
134.969
30
0
0
VERTEX
8
CUT
10
143.856
20
135.322
30
0
0
VERTEX
8
CUT
10
144.016
20
135.636
30
0
0
VERTEX
8
CUT
10
144.264
20
135.884
30
0
0
VERTEX
8
CUT
10
144.578
20
136.044
30
0
0
VERTEX
8
CUT
10
144.931
20
136.100
30
0
0
VERTEX
8
CUT
10
156.519
20
136.100
30
0
0
VERTEX
8
CUT
10
156.872
20
136.044
30
0
0
VERTEX
8
CUT
10
157.186
20
135.884
30
0
0
VERTEX
8
CUT
10
157.434
20
135.636
30
0
0
VERTEX
8
CUT
10
157.594
20
135.322
30
0
0
VERTEX
8
CUT
10
157.650
20
134.969
30
0
0
VERTEX
8
CUT
10
157.650
20
134.881
30
0
0
VERTEX
8
CUT
10
157.594
20
134.528
30
0
0
VERTEX
8
CUT
10
157.434
20
134.214
30
0
0
VERTEX
8
CUT
10
157.186
20
133.966
30
0
0
VERTEX
8
CUT
10
156.872
20
133.806
30
0
0
VERTEX
8
CUT
10
156.519
20
133.750
30
0
0
SEQEND
8
CUT
0
POLYLINE
8
CUT
66
1
70
1
10
0
20
0
30
0
0
VERTEX
8
CUT
10
144.931
20
128.750
30
0
0
VERTEX
8
CUT
10
144.578
20
128.806
30
0
0
VERTEX
8
CUT
10
144.264
20
128.966
30
0
0
VERTEX
8
CUT
10
144.016
20
129.214
30
0
0
VERTEX
8
CUT
10
143.856
20
129.528
30
0
0
VERTEX
8
CUT
10
143.800
20
129.881
30
0
0
VERTEX
8
CUT
10
143.800
20
129.969
30
0
0
VERTEX
8
CUT
10
143.856
20
130.322
30
0
0
VERTEX
8
CUT
10
144.016
20
130.636
30
0
0
VERTEX
8
CUT
10
144.264
20
130.884
30
0
0
VERTEX
8
CUT
10
144.578
20
131.044
30
0
0
VERTEX
8
CUT
10
144.931
20
131.100
30
0
0
VERTEX
8
CUT
10
156.519
20
131.100
30
0
0
VERTEX
8
CUT
10
156.872
20
131.044
30
0
0
VERTEX
8
CUT
10
157.186
20
130.884
30
0
0
VERTEX
8
CUT
10
157.434
20
130.636
30
0
0
VERTEX
8
CUT
10
157.594
20
130.322
30
0
0
VERTEX
8
CUT
10
157.650
20
129.969
30
0
0
VERTEX
8
CUT
10
157.650
20
129.881
30
0
0
VERTEX
8
CUT
10
157.594
20
129.528
30
0
0
VERTEX
8
CUT
10
157.434
20
129.214
30
0
0
VERTEX
8
CUT
10
157.186
20
128.966
30
0
0
VERTEX
8
CUT
10
156.872
20
128.806
30
0
0
VERTEX
8
CUT
10
156.519
20
128.750
30
0
0
SEQEND
8
CUT
0
POLYLINE
8
CUT
66
1
70
1
10
0
20
0
30
0
0
VERTEX
8
CUT
10
144.931
20
123.750
30
0
0
VERTEX
8
CUT
10
144.578
20
123.806
30
0
0
VERTEX
8
CUT
10
144.264
20
123.966
30
0
0
VERTEX
8
CUT
10
144.016
20
124.214
30
0
0
VERTEX
8
CUT
10
143.856
20
124.528
30
0
0
VERTEX
8
CUT
10
143.800
20
124.881
30
0
0
VERTEX
8
CUT
10
143.800
20
124.969
30
0
0
VERTEX
8
CUT
10
143.856
20
125.322
30
0
0
VERTEX
8
CUT
10
144.016
20
125.636
30
0
0
VERTEX
8
CUT
10
144.264
20
125.884
30
0
0
VERTEX
8
CUT
10
144.578
20
126.044
30
0
0
VERTEX
8
CUT
10
144.931
20
126.100
30
0
0
VERTEX
8
CUT
10
156.519
20
126.100
30
0
0
VERTEX
8
CUT
10
156.872
20
126.044
30
0
0
VERTEX
8
CUT
10
157.186
20
125.884
30
0
0
VERTEX
8
CUT
10
157.434
20
125.636
30
0
0
VERTEX
8
CUT
10
157.594
20
125.322
30
0
0
VERTEX
8
CUT
10
157.650
20
124.969
30
0
0
VERTEX
8
CUT
10
157.650
20
124.881
30
0
0
VERTEX
8
CUT
10
157.594
20
124.528
30
0
0
VERTEX
8
CUT
10
157.434
20
124.214
30
0
0
VERTEX
8
CUT
10
157.186
20
123.966
30
0
0
VERTEX
8
CUT
10
156.872
20
123.806
30
0
0
VERTEX
8
CUT
10
156.519
20
123.750
30
0
0
SEQEND
8
CUT
0
POLYLINE
8
CUT
66
1
70
1
10
0
20
0
30
0
0
VERTEX
8
CUT
10
195.800
20
192.000
30
0
0
VERTEX
8
CUT
10
195.800
20
87.850
30
0
0
VERTEX
8
CUT
10
181.300
20
87.850
30
0
0
VERTEX
8
CUT
10
181.300
20
84.850
30
0
0
VERTEX
8
CUT
10
171.150
20
84.850
30
0
0
VERTEX
8
CUT
10
171.150
20
87.850
30
0
0
VERTEX
8
CUT
10
142.300
20
87.850
30
0
0
VERTEX
8
CUT
10
142.300
20
84.850
30
0
0
VERTEX
8
CUT
10
132.150
20
84.850
30
0
0
VERTEX
8
CUT
10
132.150
20
87.850
30
0
0
VERTEX
8
CUT
10
117.650
20
87.850
30
0
0
VERTEX
8
CUT
10
117.650
20
192.000
30
0
0
VERTEX
8
CUT
10
132.150
20
192.000
30
0
0
VERTEX
8
CUT
10
132.150
20
195.000
30
0
0
VERTEX
8
CUT
10
142.300
20
195.000
30
0
0
VERTEX
8
CUT
10
142.300
20
192.000
30
0
0
VERTEX
8
CUT
10
171.150
20
192.000
30
0
0
VERTEX
8
CUT
10
171.150
20
195.000
30
0
0
VERTEX
8
CUT
10
181.300
20
195.000
30
0
0
VERTEX
8
CUT
10
181.300
20
192.000
30
0
0
SEQEND
8
CUT
0
POLYLINE
8
CUT
66
1
70
1
10
0
20
0
30
0
0
VERTEX
8
CUT
10
65.600
20
49.269
30
0
0
VERTEX
8
CUT
10
65.456
20
50.179
30
0
0
VERTEX
8
CUT
10
65.041
20
50.994
30
0
0
VERTEX
8
CUT
10
64.394
20
51.641
30
0
0
VERTEX
8
CUT
10
63.579
20
52.056
30
0
0
VERTEX
8
CUT
10
62.669
20
52.200
30
0
0
VERTEX
8
CUT
10
48.681
20
52.200
30
0
0
VERTEX
8
CUT
10
47.771
20
52.056
30
0
0
VERTEX
8
CUT
10
46.956
20
51.641
30
0
0
VERTEX
8
CUT
10
46.309
20
50.994
30
0
0
VERTEX
8
CUT
10
45.894
20
50.179
30
0
0
VERTEX
8
CUT
10
45.750
20
49.269
30
0
0
VERTEX
8
CUT
10
45.750
20
43.281
30
0
0
VERTEX
8
CUT
10
45.894
20
42.371
30
0
0
VERTEX
8
CUT
10
46.309
20
41.556
30
0
0
VERTEX
8
CUT
10
46.956
20
40.909
30
0
0
VERTEX
8
CUT
10
47.771
20
40.494
30
0
0
VERTEX
8
CUT
10
48.681
20
40.350
30
0
0
VERTEX
8
CUT
10
62.669
20
40.350
30
0
0
VERTEX
8
CUT
10
63.579
20
40.494
30
0
0
VERTEX
8
CUT
10
64.394
20
40.909
30
0
0
VERTEX
8
CUT
10
65.041
20
41.556
30
0
0
VERTEX
8
CUT
10
65.456
20
42.371
30
0
0
VERTEX
8
CUT
10
65.600
20
43.281
30
0
0
SEQEND
8
CUT
0
POLYLINE
8
CUT
66
1
70
1
10
0
20
0
30
0
0
VERTEX
8
CUT
10
84.296
20
57.325
30
0
0
VERTEX
8
CUT
10
84.120
20
57.866
30
0
0
VERTEX
8
CUT
10
83.660
20
58.201
30
0
0
VERTEX
8
CUT
10
83.090
20
58.201
30
0
0
VERTEX
8
CUT
10
82.630
20
57.866
30
0
0
VERTEX
8
CUT
10
82.454
20
57.325
30
0
0
VERTEX
8
CUT
10
82.630
20
56.784
30
0
0
VERTEX
8
CUT
10
83.090
20
56.449
30
0
0
VERTEX
8
CUT
10
83.660
20
56.449
30
0
0
VERTEX
8
CUT
10
84.120
20
56.784
30
0
0
SEQEND
8
CUT
0
POLYLINE
8
CUT
66
1
70
1
10
0
20
0
30
0
0
VERTEX
8
CUT
10
96.896
20
57.325
30
0
0
VERTEX
8
CUT
10
96.720
20
57.866
30
0
0
VERTEX
8
CUT
10
96.260
20
58.201
30
0
0
VERTEX
8
CUT
10
95.690
20
58.201
30
0
0
VERTEX
8
CUT
10
95.230
20
57.866
30
0
0
VERTEX
8
CUT
10
95.054
20
57.325
30
0
0
VERTEX
8
CUT
10
95.230
20
56.784
30
0
0
VERTEX
8
CUT
10
95.690
20
56.449
30
0
0
VERTEX
8
CUT
10
96.260
20
56.449
30
0
0
VERTEX
8
CUT
10
96.720
20
56.784
30
0
0
SEQEND
8
CUT
0
POLYLINE
8
CUT
66
1
70
1
10
0
20
0
30
0
0
VERTEX
8
CUT
10
8.000
20
36.200
30
0
0
VERTEX
8
CUT
10
14.900
20
36.200
30
0
0
VERTEX
8
CUT
10
14.900
20
33.200
30
0
0
VERTEX
8
CUT
10
25.050
20
33.200
30
0
0
VERTEX
8
CUT
10
25.050
20
36.200
30
0
0
VERTEX
8
CUT
10
86.300
20
36.200
30
0
0
VERTEX
8
CUT
10
86.300
20
33.200
30
0
0
VERTEX
8
CUT
10
96.450
20
33.200
30
0
0
VERTEX
8
CUT
10
96.450
20
36.200
30
0
0
VERTEX
8
CUT
10
103.350
20
36.200
30
0
0
VERTEX
8
CUT
10
103.350
20
49.950
30
0
0
VERTEX
8
CUT
10
106.350
20
49.950
30
0
0
VERTEX
8
CUT
10
106.350
20
60.100
30
0
0
VERTEX
8
CUT
10
103.350
20
60.100
30
0
0
VERTEX
8
CUT
10
103.350
20
87.450
30
0
0
VERTEX
8
CUT
10
106.350
20
87.450
30
0
0
VERTEX
8
CUT
10
106.350
20
97.600
30
0
0
VERTEX
8
CUT
10
103.350
20
97.600
30
0
0
VERTEX
8
CUT
10
103.350
20
111.350
30
0
0
VERTEX
8
CUT
10
96.450
20
111.350
30
0
0
VERTEX
8
CUT
10
96.450
20
114.350
30
0
0
VERTEX
8
CUT
10
86.300
20
114.350
30
0
0
VERTEX
8
CUT
10
86.300
20
111.350
30
0
0
VERTEX
8
CUT
10
25.050
20
111.350
30
0
0
VERTEX
8
CUT
10
25.050
20
114.350
30
0
0
VERTEX
8
CUT
10
14.900
20
114.350
30
0
0
VERTEX
8
CUT
10
14.900
20
111.350
30
0
0
VERTEX
8
CUT
10
8.000
20
111.350
30
0
0
VERTEX
8
CUT
10
8.000
20
97.600
30
0
0
VERTEX
8
CUT
10
5.000
20
97.600
30
0
0
VERTEX
8
CUT
10
5.000
20
87.450
30
0
0
VERTEX
8
CUT
10
8.000
20
87.450
30
0
0
VERTEX
8
CUT
10
8.000
20
60.100
30
0
0
VERTEX
8
CUT
10
5.000
20
60.100
30
0
0
VERTEX
8
CUT
10
5.000
20
49.950
30
0
0
VERTEX
8
CUT
10
8.000
20
49.950
30
0
0
SEQEND
8
CUT
0
POLYLINE
8
CUT
66
1
70
1
10
0
20
0
30
0
0
VERTEX
8
CUT
10
268.375
20
110.548
30
0
0
VERTEX
8
CUT
10
267.671
20
110.387
30
0
0
VERTEX
8
CUT
10
267.106
20
109.937
30
0
0
VERTEX
8
CUT
10
266.793
20
109.286
30
0
0
VERTEX
8
CUT
10
266.793
20
108.564
30
0
0
VERTEX
8
CUT
10
267.106
20
107.913
30
0
0
VERTEX
8
CUT
10
267.671
20
107.463
30
0
0
VERTEX
8
CUT
10
268.375
20
107.302
30
0
0
VERTEX
8
CUT
10
269.079
20
107.463
30
0
0
VERTEX
8
CUT
10
269.644
20
107.913
30
0
0
VERTEX
8
CUT
10
269.957
20
108.564
30
0
0
VERTEX
8
CUT
10
269.957
20
109.286
30
0
0
VERTEX
8
CUT
10
269.644
20
109.937
30
0
0
VERTEX
8
CUT
10
269.079
20
110.387
30
0
0
SEQEND
8
CUT
0
POLYLINE
8
CUT
66
1
70
1
10
0
20
0
30
0
0
VERTEX
8
CUT
10
268.375
20
151.548
30
0
0
VERTEX
8
CUT
10
267.671
20
151.387
30
0
0
VERTEX
8
CUT
10
267.106
20
150.937
30
0
0
VERTEX
8
CUT
10
266.793
20
150.286
30
0
0
VERTEX
8
CUT
10
266.793
20
149.564
30
0
0
VERTEX
8
CUT
10
267.106
20
148.913
30
0
0
VERTEX
8
CUT
10
267.671
20
148.463
30
0
0
VERTEX
8
CUT
10
268.375
20
148.302
30
0
0
VERTEX
8
CUT
10
269.079
20
148.463
30
0
0
VERTEX
8
CUT
10
269.644
20
148.913
30
0
0
VERTEX
8
CUT
10
269.957
20
149.564
30
0
0
VERTEX
8
CUT
10
269.957
20
150.286
30
0
0
VERTEX
8
CUT
10
269.644
20
150.937
30
0
0
VERTEX
8
CUT
10
269.079
20
151.387
30
0
0
SEQEND
8
CUT
0
POLYLINE
8
CUT
66
1
70
1
10
0
20
0
30
0
0
VERTEX
8
CUT
10
222.850
20
188.950
30
0
0
VERTEX
8
CUT
10
222.850
20
191.900
30
0
0
VERTEX
8
CUT
10
212.900
20
191.900
30
0
0
VERTEX
8
CUT
10
212.900
20
188.950
30
0
0
SEQEND
8
CUT
0
POLYLINE
8
CUT
66
1
70
1
10
0
20
0
30
0
0
VERTEX
8
CUT
10
261.850
20
188.950
30
0
0
VERTEX
8
CUT
10
261.850
20
191.900
30
0
0
VERTEX
8
CUT
10
251.900
20
191.900
30
0
0
VERTEX
8
CUT
10
251.900
20
188.950
30
0
0
SEQEND
8
CUT
0
POLYLINE
8
CUT
66
1
70
1
10
0
20
0
30
0
0
VERTEX
8
CUT
10
222.850
20
97.950
30
0
0
VERTEX
8
CUT
10
222.850
20
100.900
30
0
0
VERTEX
8
CUT
10
212.900
20
100.900
30
0
0
VERTEX
8
CUT
10
212.900
20
97.950
30
0
0
SEQEND
8
CUT
0
POLYLINE
8
CUT
66
1
70
1
10
0
20
0
30
0
0
VERTEX
8
CUT
10
261.850
20
97.950
30
0
0
VERTEX
8
CUT
10
261.850
20
100.900
30
0
0
VERTEX
8
CUT
10
251.900
20
100.900
30
0
0
VERTEX
8
CUT
10
251.900
20
97.950
30
0
0
SEQEND
8
CUT
0
POLYLINE
8
CUT
66
1
70
1
10
0
20
0
30
0
0
VERTEX
8
CUT
10
276.450
20
96.920
30
0
0
VERTEX
8
CUT
10
276.450
20
192.930
30
0
0
VERTEX
8
CUT
10
276.380
20
193.462
30
0
0
VERTEX
8
CUT
10
276.173
20
193.963
30
0
0
VERTEX
8
CUT
10
275.843
20
194.393
30
0
0
VERTEX
8
CUT
10
275.413
20
194.723
30
0
0
VERTEX
8
CUT
10
274.912
20
194.930
30
0
0
VERTEX
8
CUT
10
274.380
20
195.000
30
0
0
VERTEX
8
CUT
10
200.370
20
195.000
30
0
0
VERTEX
8
CUT
10
199.838
20
194.930
30
0
0
VERTEX
8
CUT
10
199.337
20
194.723
30
0
0
VERTEX
8
CUT
10
198.907
20
194.393
30
0
0
VERTEX
8
CUT
10
198.577
20
193.963
30
0
0
VERTEX
8
CUT
10
198.370
20
193.462
30
0
0
VERTEX
8
CUT
10
198.300
20
192.930
30
0
0
VERTEX
8
CUT
10
198.300
20
96.920
30
0
0
VERTEX
8
CUT
10
198.370
20
96.388
30
0
0
VERTEX
8
CUT
10
198.577
20
95.887
30
0
0
VERTEX
8
CUT
10
198.907
20
95.457
30
0
0
VERTEX
8
CUT
10
199.337
20
95.127
30
0
0
VERTEX
8
CUT
10
199.838
20
94.920
30
0
0
VERTEX
8
CUT
10
200.370
20
94.850
30
0
0
VERTEX
8
CUT
10
274.380
20
94.850
30
0
0
VERTEX
8
CUT
10
274.912
20
94.920
30
0
0
VERTEX
8
CUT
10
275.413
20
95.127
30
0
0
VERTEX
8
CUT
10
275.843
20
95.457
30
0
0
VERTEX
8
CUT
10
276.173
20
95.887
30
0
0
VERTEX
8
CUT
10
276.380
20
96.388
30
0
0
SEQEND
8
CUT
0
POLYLINE
8
CUT
66
1
70
1
10
0
20
0
30
0
0
VERTEX
8
CUT
10
185.302
20
38.012
30
0
0
VERTEX
8
CUT
10
185.463
20
38.717
30
0
0
VERTEX
8
CUT
10
185.913
20
39.281
30
0
0
VERTEX
8
CUT
10
186.564
20
39.595
30
0
0
VERTEX
8
CUT
10
187.286
20
39.595
30
0
0
VERTEX
8
CUT
10
187.937
20
39.281
30
0
0
VERTEX
8
CUT
10
188.387
20
38.717
30
0
0
VERTEX
8
CUT
10
188.548
20
38.012
30
0
0
VERTEX
8
CUT
10
188.387
20
37.308
30
0
0
VERTEX
8
CUT
10
187.937
20
36.743
30
0
0
VERTEX
8
CUT
10
187.286
20
36.430
30
0
0
VERTEX
8
CUT
10
186.564
20
36.430
30
0
0
VERTEX
8
CUT
10
185.913
20
36.743
30
0
0
VERTEX
8
CUT
10
185.463
20
37.308
30
0
0
SEQEND
8
CUT
0
POLYLINE
8
CUT
66
1
70
1
10
0
20
0
30
0
0
VERTEX
8
CUT
10
145.302
20
38.012
30
0
0
VERTEX
8
CUT
10
145.463
20
38.717
30
0
0
VERTEX
8
CUT
10
145.913
20
39.281
30
0
0
VERTEX
8
CUT
10
146.564
20
39.595
30
0
0
VERTEX
8
CUT
10
147.286
20
39.595
30
0
0
VERTEX
8
CUT
10
147.937
20
39.281
30
0
0
VERTEX
8
CUT
10
148.387
20
38.717
30
0
0
VERTEX
8
CUT
10
148.548
20
38.012
30
0
0
VERTEX
8
CUT
10
148.387
20
37.308
30
0
0
VERTEX
8
CUT
10
147.937
20
36.743
30
0
0
VERTEX
8
CUT
10
147.286
20
36.430
30
0
0
VERTEX
8
CUT
10
146.564
20
36.430
30
0
0
VERTEX
8
CUT
10
145.913
20
36.743
30
0
0
VERTEX
8
CUT
10
145.463
20
37.308
30
0
0
SEQEND
8
CUT
0
POLYLINE
8
CUT
66
1
70
1
10
0
20
0
30
0
0
VERTEX
8
CUT
10
135.233
20
24.775
30
0
0
VERTEX
8
CUT
10
125.283
20
24.775
30
0
0
VERTEX
8
CUT
10
125.283
20
27.725
30
0
0
VERTEX
8
CUT
10
135.233
20
27.725
30
0
0
SEQEND
8
CUT
0
POLYLINE
8
CUT
66
1
70
1
10
0
20
0
30
0
0
VERTEX
8
CUT
10
171.900
20
24.775
30
0
0
VERTEX
8
CUT
10
161.950
20
24.775
30
0
0
VERTEX
8
CUT
10
161.950
20
27.725
30
0
0
VERTEX
8
CUT
10
171.900
20
27.725
30
0
0
SEQEND
8
CUT
0
POLYLINE
8
CUT
66
1
70
1
10
0
20
0
30
0
0
VERTEX
8
CUT
10
208.567
20
24.775
30
0
0
VERTEX
8
CUT
10
198.617
20
24.775
30
0
0
VERTEX
8
CUT
10
198.617
20
27.725
30
0
0
VERTEX
8
CUT
10
208.567
20
27.725
30
0
0
SEQEND
8
CUT
0
POLYLINE
8
CUT
66
1
70
1
10
0
20
0
30
0
0
VERTEX
8
CUT
10
147.900
20
48.300
30
0
0
VERTEX
8
CUT
10
135.950
20
48.300
30
0
0
VERTEX
8
CUT
10
135.950
20
51.250
30
0
0
VERTEX
8
CUT
10
147.900
20
51.250
30
0
0
SEQEND
8
CUT
0
POLYLINE
8
CUT
66
1
70
1
10
0
20
0
30
0
0
VERTEX
8
CUT
10
187.900
20
48.300
30
0
0
VERTEX
8
CUT
10
175.950
20
48.300
30
0
0
VERTEX
8
CUT
10
175.950
20
51.250
30
0
0
VERTEX
8
CUT
10
187.900
20
51.250
30
0
0
SEQEND
8
CUT
0
POLYLINE
8
CUT
66
1
70
1
10
0
20
0
30
0
0
VERTEX
8
CUT
10
222.000
20
21.675
30
0
0
VERTEX
8
CUT
10
111.850
20
21.675
30
0
0
VERTEX
8
CUT
10
111.850
20
31.056
30
0
0
VERTEX
8
CUT
10
108.850
20
31.056
30
0
0
VERTEX
8
CUT
10
108.850
20
41.206
30
0
0
VERTEX
8
CUT
10
111.850
20
41.206
30
0
0
VERTEX
8
CUT
10
111.850
20
59.819
30
0
0
VERTEX
8
CUT
10
108.850
20
59.819
30
0
0
VERTEX
8
CUT
10
108.850
20
69.969
30
0
0
VERTEX
8
CUT
10
111.850
20
69.969
30
0
0
VERTEX
8
CUT
10
111.850
20
79.350
30
0
0
VERTEX
8
CUT
10
125.183
20
79.350
30
0
0
VERTEX
8
CUT
10
125.183
20
82.350
30
0
0
VERTEX
8
CUT
10
135.333
20
82.350
30
0
0
VERTEX
8
CUT
10
135.333
20
79.350
30
0
0
VERTEX
8
CUT
10
161.850
20
79.350
30
0
0
VERTEX
8
CUT
10
161.850
20
82.350
30
0
0
VERTEX
8
CUT
10
172.000
20
82.350
30
0
0
VERTEX
8
CUT
10
172.000
20
79.350
30
0
0
VERTEX
8
CUT
10
198.517
20
79.350
30
0
0
VERTEX
8
CUT
10
198.517
20
82.350
30
0
0
VERTEX
8
CUT
10
208.667
20
82.350
30
0
0
VERTEX
8
CUT
10
208.667
20
79.350
30
0
0
VERTEX
8
CUT
10
222.000
20
79.350
30
0
0
VERTEX
8
CUT
10
222.000
20
69.969
30
0
0
VERTEX
8
CUT
10
225.000
20
69.969
30
0
0
VERTEX
8
CUT
10
225.000
20
59.819
30
0
0
VERTEX
8
CUT
10
222.000
20
59.819
30
0
0
VERTEX
8
CUT
10
222.000
20
41.206
30
0
0
VERTEX
8
CUT
10
225.000
20
41.206
30
0
0
VERTEX
8
CUT
10
225.000
20
31.056
30
0
0
VERTEX
8
CUT
10
222.000
20
31.056
30
0
0
SEQEND
8
CUT
0
POLYLINE
8
CUT
66
1
70
1
10
0
20
0
30
0
0
VERTEX
8
CUT
10
276.462
20
22.275
30
0
0
VERTEX
8
CUT
10
278.018
20
24.971
30
0
0
VERTEX
8
CUT
10
281.132
20
24.971
30
0
0
VERTEX
8
CUT
10
282.688
20
22.275
30
0
0
VERTEX
8
CUT
10
281.132
20
19.579
30
0
0
VERTEX
8
CUT
10
278.018
20
19.579
30
0
0
SEQEND
8
CUT
0
POLYLINE
8
CUT
66
1
70
1
10
0
20
0
30
0
0
VERTEX
8
CUT
10
235.462
20
22.275
30
0
0
VERTEX
8
CUT
10
237.018
20
24.971
30
0
0
VERTEX
8
CUT
10
240.132
20
24.971
30
0
0
VERTEX
8
CUT
10
241.688
20
22.275
30
0
0
VERTEX
8
CUT
10
240.132
20
19.579
30
0
0
VERTEX
8
CUT
10
237.018
20
19.579
30
0
0
SEQEND
8
CUT
0
POLYLINE
8
CUT
66
1
70
1
10
0
20
0
30
0
0
VERTEX
8
CUT
10
247.000
20
60.850
30
0
0
VERTEX
8
CUT
10
244.150
20
60.850
30
0
0
VERTEX
8
CUT
10
244.150
20
64.700
30
0
0
VERTEX
8
CUT
10
247.000
20
64.700
30
0
0
SEQEND
8
CUT
0
POLYLINE
8
CUT
66
1
70
1
10
0
20
0
30
0
0
VERTEX
8
CUT
10
247.000
20
78.850
30
0
0
VERTEX
8
CUT
10
244.150
20
78.850
30
0
0
VERTEX
8
CUT
10
244.150
20
82.700
30
0
0
VERTEX
8
CUT
10
247.000
20
82.700
30
0
0
SEQEND
8
CUT
0
POLYLINE
8
CUT
66
1
70
1
10
0
20
0
30
0
0
VERTEX
8
CUT
10
275.000
20
60.850
30
0
0
VERTEX
8
CUT
10
272.150
20
60.850
30
0
0
VERTEX
8
CUT
10
272.150
20
64.700
30
0
0
VERTEX
8
CUT
10
275.000
20
64.700
30
0
0
SEQEND
8
CUT
0
POLYLINE
8
CUT
66
1
70
1
10
0
20
0
30
0
0
VERTEX
8
CUT
10
275.000
20
78.850
30
0
0
VERTEX
8
CUT
10
272.150
20
78.850
30
0
0
VERTEX
8
CUT
10
272.150
20
82.700
30
0
0
VERTEX
8
CUT
10
275.000
20
82.700
30
0
0
SEQEND
8
CUT
0
POLYLINE
8
CUT
66
1
70
1
10
0
20
0
30
0
0
VERTEX
8
CUT
10
233.550
20
65.550
30
0
0
VERTEX
8
CUT
10
230.600
20
65.550
30
0
0
VERTEX
8
CUT
10
230.600
20
75.500
30
0
0
VERTEX
8
CUT
10
233.550
20
75.500
30
0
0
SEQEND
8
CUT
0
POLYLINE
8
CUT
66
1
70
1
10
0
20
0
30
0
0
VERTEX
8
CUT
10
233.550
20
28.050
30
0
0
VERTEX
8
CUT
10
230.600
20
28.050
30
0
0
VERTEX
8
CUT
10
230.600
20
38.000
30
0
0
VERTEX
8
CUT
10
233.550
20
38.000
30
0
0
SEQEND
8
CUT
0
POLYLINE
8
CUT
66
1
70
1
10
0
20
0
30
0
0
VERTEX
8
CUT
10
285.650
20
14.200
30
0
0
VERTEX
8
CUT
10
276.900
20
14.200
30
0
0
VERTEX
8
CUT
10
276.900
20
11.200
30
0
0
VERTEX
8
CUT
10
266.750
20
11.200
30
0
0
VERTEX
8
CUT
10
266.750
20
14.200
30
0
0
VERTEX
8
CUT
10
249.400
20
14.200
30
0
0
VERTEX
8
CUT
10
249.400
20
11.200
30
0
0
VERTEX
8
CUT
10
239.250
20
11.200
30
0
0
VERTEX
8
CUT
10
239.250
20
14.200
30
0
0
VERTEX
8
CUT
10
227.500
20
14.200
30
0
0
VERTEX
8
CUT
10
227.500
20
89.350
30
0
0
VERTEX
8
CUT
10
239.250
20
89.350
30
0
0
VERTEX
8
CUT
10
239.250
20
92.350
30
0
0
VERTEX
8
CUT
10
249.400
20
92.350
30
0
0
VERTEX
8
CUT
10
249.400
20
89.350
30
0
0
VERTEX
8
CUT
10
266.750
20
89.350
30
0
0
VERTEX
8
CUT
10
266.750
20
92.350
30
0
0
VERTEX
8
CUT
10
276.900
20
92.350
30
0
0
VERTEX
8
CUT
10
276.900
20
89.350
30
0
0
VERTEX
8
CUT
10
285.650
20
89.350
30
0
0
SEQEND
8
CUT
0
POLYLINE
8
CUT
66
1
70
1
10
0
20
0
30
0
0
VERTEX
8
CUT
10
152.850
20
11.025
30
0
0
VERTEX
8
CUT
10
139.388
20
11.025
30
0
0
VERTEX
8
CUT
10
139.388
20
8.025
30
0
0
VERTEX
8
CUT
10
129.238
20
8.025
30
0
0
VERTEX
8
CUT
10
129.238
20
11.025
30
0
0
VERTEX
8
CUT
10
102.463
20
11.025
30
0
0
VERTEX
8
CUT
10
102.463
20
8.025
30
0
0
VERTEX
8
CUT
10
92.313
20
8.025
30
0
0
VERTEX
8
CUT
10
92.313
20
11.025
30
0
0
VERTEX
8
CUT
10
65.538
20
11.025
30
0
0
VERTEX
8
CUT
10
65.538
20
8.025
30
0
0
VERTEX
8
CUT
10
55.388
20
8.025
30
0
0
VERTEX
8
CUT
10
55.388
20
11.025
30
0
0
VERTEX
8
CUT
10
28.613
20
11.025
30
0
0
VERTEX
8
CUT
10
28.613
20
8.025
30
0
0
VERTEX
8
CUT
10
18.463
20
8.025
30
0
0
VERTEX
8
CUT
10
18.463
20
11.025
30
0
0
VERTEX
8
CUT
10
5.000
20
11.025
30
0
0
VERTEX
8
CUT
10
5.000
20
19.175
30
0
0
VERTEX
8
CUT
10
152.850
20
19.175
30
0
0
SEQEND
8
CUT
0
POLYLINE
8
CUT
66
1
70
1
10
0
20
0
30
0
0
VERTEX
8
CUT
10
177.500
20
19.175
30
0
0
VERTEX
8
CUT
10
177.500
20
8.025
30
0
0
VERTEX
8
CUT
10
155.350
20
8.025
30
0
0
VERTEX
8
CUT
10
155.350
20
19.175
30
0
0
SEQEND
8
CUT
0
POLYLINE
8
CUT
66
1
70
1
10
0
20
0
30
0
0
VERTEX
8
CUT
10
186.575
20
19.175
30
0
0
VERTEX
8
CUT
10
185.293
20
19.048
30
0
0
VERTEX
8
CUT
10
184.059
20
18.674
30
0
0
VERTEX
8
CUT
10
182.922
20
18.066
30
0
0
VERTEX
8
CUT
10
181.926
20
17.249
30
0
0
VERTEX
8
CUT
10
181.108
20
16.252
30
0
0
VERTEX
8
CUT
10
180.501
20
15.115
30
0
0
VERTEX
8
CUT
10
180.126
20
13.882
30
0
0
VERTEX
8
CUT
10
180.000
20
12.599
30
0
0
VERTEX
8
CUT
10
180.126
20
11.316
30
0
0
VERTEX
8
CUT
10
180.501
20
10.083
30
0
0
VERTEX
8
CUT
10
181.108
20
8.946
30
0
0
VERTEX
8
CUT
10
181.926
20
7.950
30
0
0
VERTEX
8
CUT
10
182.922
20
7.132
30
0
0
VERTEX
8
CUT
10
184.059
20
6.524
30
0
0
VERTEX
8
CUT
10
185.293
20
6.150
30
0
0
VERTEX
8
CUT
10
186.575
20
6.024
30
0
0
VERTEX
8
CUT
10
187.858
20
6.150
30
0
0
VERTEX
8
CUT
10
189.092
20
6.524
30
0
0
VERTEX
8
CUT
10
190.228
20
7.132
30
0
0
VERTEX
8
CUT
10
191.225
20
7.950
30
0
0
VERTEX
8
CUT
10
192.043
20
8.946
30
0
0
VERTEX
8
CUT
10
192.650
20
10.083
30
0
0
VERTEX
8
CUT
10
193.024
20
11.316
30
0
0
VERTEX
8
CUT
10
193.151
20
12.599
30
0
0
VERTEX
8
CUT
10
193.024
20
13.882
30
0
0
VERTEX
8
CUT
10
192.650
20
15.115
30
0
0
VERTEX
8
CUT
10
192.043
20
16.252
30
0
0
VERTEX
8
CUT
10
191.225
20
17.249
30
0
0
VERTEX
8
CUT
10
190.228
20
18.066
30
0
0
VERTEX
8
CUT
10
189.092
20
18.674
30
0
0
VERTEX
8
CUT
10
187.858
20
19.048
30
0
0
SEQEND
8
CUT
0
ENDSEC
0
EOF
