0
SECTION
2
HEADER
9
$ACADVER
1
AC1009
9
$INSUNITS
70
4
0
ENDSEC
0
SECTION
2
TABLES
0
TABLE
2
LAYER
70
3
0
LAYER
2
CUT
70
0
62
1
6
CONTINUOUS
0
LAYER
2
SCORE
70
0
62
5
6
CONTINUOUS
0
LAYER
2
ENGRAVE
70
0
62
7
6
CONTINUOUS
0
ENDTAB
0
ENDSEC
0
SECTION
2
ENTITIES
0
POLYLINE
8
ENGRAVE
66
1
70
1
10
0
20
0
30
0
0
VERTEX
8
ENGRAVE
10
56.497
20
267.206
30
0
0
VERTEX
8
ENGRAVE
10
57.247
20
267.206
30
0
0
VERTEX
8
ENGRAVE
10
58.091
20
266.925
30
0
0
VERTEX
8
ENGRAVE
10
58.747
20
266.363
30
0
0
VERTEX
8
ENGRAVE
10
59.028
20
265.800
30
0
0
VERTEX
8
ENGRAVE
10
58.934
20
265.613
30
0
0
VERTEX
8
ENGRAVE
10
58.278
20
265.519
30
0
0
VERTEX
8
ENGRAVE
10
58.184
20
265.988
30
0
0
VERTEX
8
ENGRAVE
10
57.247
20
266.550
30
0
0
VERTEX
8
ENGRAVE
10
56.309
20
266.550
30
0
0
VERTEX
8
ENGRAVE
10
55.559
20
265.988
30
0
0
VERTEX
8
ENGRAVE
10
55.466
20
265.519
30
0
0
VERTEX
8
ENGRAVE
10
55.841
20
264.863
30
0
0
VERTEX
8
ENGRAVE
10
58.278
20
264.206
30
0
0
VERTEX
8
ENGRAVE
10
59.122
20
263.456
30
0
0
VERTEX
8
ENGRAVE
10
59.216
20
262.144
30
0
0
VERTEX
8
ENGRAVE
10
59.028
20
261.675
30
0
0
VERTEX
8
ENGRAVE
10
58.559
20
261.206
30
0
0
VERTEX
8
ENGRAVE
10
57.622
20
260.831
30
0
0
VERTEX
8
ENGRAVE
10
55.747
20
261.019
30
0
0
VERTEX
8
ENGRAVE
10
54.809
20
261.769
30
0
0
VERTEX
8
ENGRAVE
10
54.434
20
262.425
30
0
0
VERTEX
8
ENGRAVE
10
54.434
20
262.613
30
0
0
VERTEX
8
ENGRAVE
10
55.184
20
262.706
30
0
0
VERTEX
8
ENGRAVE
10
55.653
20
261.863
30
0
0
VERTEX
8
ENGRAVE
10
56.591
20
261.488
30
0
0
VERTEX
8
ENGRAVE
10
57.716
20
261.581
30
0
0
VERTEX
8
ENGRAVE
10
58.372
20
262.144
30
0
0
VERTEX
8
ENGRAVE
10
58.466
20
262.706
30
0
0
VERTEX
8
ENGRAVE
10
58.184
20
263.269
30
0
0
VERTEX
8
ENGRAVE
10
57.716
20
263.550
30
0
0
VERTEX
8
ENGRAVE
10
55.653
20
264.019
30
0
0
VERTEX
8
ENGRAVE
10
54.809
20
264.863
30
0
0
VERTEX
8
ENGRAVE
10
54.716
20
265.706
30
0
0
VERTEX
8
ENGRAVE
10
54.903
20
266.363
30
0
0
VERTEX
8
ENGRAVE
10
55.372
20
266.831
30
0
0
SEQEND
8
ENGRAVE
0
POLYLINE
8
ENGRAVE
66
1
70
1
10
0
20
0
30
0
0
VERTEX
8
ENGRAVE
10
40.559
20
267.113
30
0
0
VERTEX
8
ENGRAVE
10
41.497
20
267.019
30
0
0
VERTEX
8
ENGRAVE
10
43.372
20
260.925
30
0
0
VERTEX
8
ENGRAVE
10
42.528
20
261.019
30
0
0
VERTEX
8
ENGRAVE
10
42.059
20
262.706
30
0
0
VERTEX
8
ENGRAVE
10
39.716
20
262.706
30
0
0
VERTEX
8
ENGRAVE
10
39.247
20
261.019
30
0
0
VERTEX
8
ENGRAVE
10
38.497
20
260.925
30
0
0
SEQEND
8
ENGRAVE
0
POLYLINE
8
ENGRAVE
66
1
70
1
10
0
20
0
30
0
0
VERTEX
8
ENGRAVE
10
44.216
20
267.113
30
0
0
VERTEX
8
ENGRAVE
10
47.403
20
267.019
30
0
0
VERTEX
8
ENGRAVE
10
48.341
20
266.363
30
0
0
VERTEX
8
ENGRAVE
10
48.622
20
265.425
30
0
0
VERTEX
8
ENGRAVE
10
48.528
20
264.769
30
0
0
VERTEX
8
ENGRAVE
10
47.966
20
264.019
30
0
0
VERTEX
8
ENGRAVE
10
47.497
20
263.831
30
0
0
VERTEX
8
ENGRAVE
10
47.497
20
263.550
30
0
0
VERTEX
8
ENGRAVE
10
48.622
20
260.925
30
0
0
VERTEX
8
ENGRAVE
10
47.778
20
260.925
30
0
0
VERTEX
8
ENGRAVE
10
46.747
20
263.550
30
0
0
VERTEX
8
ENGRAVE
10
44.966
20
263.550
30
0
0
VERTEX
8
ENGRAVE
10
44.966
20
260.925
30
0
0
VERTEX
8
ENGRAVE
10
44.216
20
260.925
30
0
0
SEQEND
8
ENGRAVE
0
POLYLINE
8
ENGRAVE
66
1
70
1
10
0
20
0
30
0
0
VERTEX
8
ENGRAVE
10
49.747
20
267.113
30
0
0
VERTEX
8
ENGRAVE
10
53.684
20
267.113
30
0
0
VERTEX
8
ENGRAVE
10
53.684
20
266.456
30
0
0
VERTEX
8
ENGRAVE
10
50.591
20
266.456
30
0
0
VERTEX
8
ENGRAVE
10
50.591
20
264.488
30
0
0
VERTEX
8
ENGRAVE
10
53.028
20
264.488
30
0
0
VERTEX
8
ENGRAVE
10
53.028
20
263.831
30
0
0
VERTEX
8
ENGRAVE
10
50.591
20
263.831
30
0
0
VERTEX
8
ENGRAVE
10
50.591
20
261.581
30
0
0
VERTEX
8
ENGRAVE
10
53.778
20
261.581
30
0
0
VERTEX
8
ENGRAVE
10
53.778
20
260.925
30
0
0
VERTEX
8
ENGRAVE
10
49.747
20
260.925
30
0
0
SEQEND
8
ENGRAVE
0
POLYLINE
8
ENGRAVE
66
1
70
1
10
0
20
0
30
0
0
VERTEX
8
ENGRAVE
10
65.028
20
267.113
30
0
0
VERTEX
8
ENGRAVE
10
65.591
20
267.113
30
0
0
VERTEX
8
ENGRAVE
10
65.591
20
261.488
30
0
0
VERTEX
8
ENGRAVE
10
67.372
20
261.488
30
0
0
VERTEX
8
ENGRAVE
10
67.372
20
260.925
30
0
0
VERTEX
8
ENGRAVE
10
63.059
20
260.925
30
0
0
VERTEX
8
ENGRAVE
10
63.059
20
261.488
30
0
0
VERTEX
8
ENGRAVE
10
64.841
20
261.488
30
0
0
VERTEX
8
ENGRAVE
10
64.841
20
266.081
30
0
0
VERTEX
8
ENGRAVE
10
63.341
20
264.863
30
0
0
VERTEX
8
ENGRAVE
10
63.153
20
264.863
30
0
0
VERTEX
8
ENGRAVE
10
63.153
20
265.613
30
0
0
VERTEX
8
ENGRAVE
10
64.278
20
266.269
30
0
0
SEQEND
8
ENGRAVE
0
POLYLINE
8
ENGRAVE
66
1
70
1
10
0
20
0
30
0
0
VERTEX
8
ENGRAVE
10
45.059
20
266.456
30
0
0
VERTEX
8
ENGRAVE
10
44.966
20
264.206
30
0
0
VERTEX
8
ENGRAVE
10
47.122
20
264.300
30
0
0
VERTEX
8
ENGRAVE
10
47.684
20
264.769
30
0
0
VERTEX
8
ENGRAVE
10
47.778
20
265.706
30
0
0
VERTEX
8
ENGRAVE
10
47.497
20
266.175
30
0
0
VERTEX
8
ENGRAVE
10
46.747
20
266.456
30
0
0
SEQEND
8
ENGRAVE
0
POLYLINE
8
ENGRAVE
66
1
70
1
10
0
20
0
30
0
0
VERTEX
8
ENGRAVE
10
40.934
20
266.175
30
0
0
VERTEX
8
ENGRAVE
10
39.997
20
263.363
30
0
0
VERTEX
8
ENGRAVE
10
41.778
20
263.363
30
0
0
SEQEND
8
ENGRAVE
0
POLYLINE
8
ENGRAVE
66
1
70
1
10
0
20
0
30
0
0
VERTEX
8
ENGRAVE
10
59.684
20
263.550
30
0
0
VERTEX
8
ENGRAVE
10
61.559
20
263.550
30
0
0
VERTEX
8
ENGRAVE
10
61.559
20
262.988
30
0
0
VERTEX
8
ENGRAVE
10
59.591
20
262.988
30
0
0
SEQEND
8
ENGRAVE
0
POLYLINE
8
ENGRAVE
66
1
70
1
10
0
20
0
30
0
0
VERTEX
8
ENGRAVE
10
158.497
20
267.206
30
0
0
VERTEX
8
ENGRAVE
10
159.247
20
267.206
30
0
0
VERTEX
8
ENGRAVE
10
160.091
20
266.925
30
0
0
VERTEX
8
ENGRAVE
10
160.747
20
266.363
30
0
0
VERTEX
8
ENGRAVE
10
161.028
20
265.800
30
0
0
VERTEX
8
ENGRAVE
10
160.934
20
265.613
30
0
0
VERTEX
8
ENGRAVE
10
160.278
20
265.519
30
0
0
VERTEX
8
ENGRAVE
10
160.184
20
265.988
30
0
0
VERTEX
8
ENGRAVE
10
159.247
20
266.550
30
0
0
VERTEX
8
ENGRAVE
10
158.309
20
266.550
30
0
0
VERTEX
8
ENGRAVE
10
157.559
20
265.988
30
0
0
VERTEX
8
ENGRAVE
10
157.466
20
265.519
30
0
0
VERTEX
8
ENGRAVE
10
157.841
20
264.863
30
0
0
VERTEX
8
ENGRAVE
10
160.278
20
264.206
30
0
0
VERTEX
8
ENGRAVE
10
161.122
20
263.456
30
0
0
VERTEX
8
ENGRAVE
10
161.216
20
262.144
30
0
0
VERTEX
8
ENGRAVE
10
161.028
20
261.675
30
0
0
VERTEX
8
ENGRAVE
10
160.559
20
261.206
30
0
0
VERTEX
8
ENGRAVE
10
159.622
20
260.831
30
0
0
VERTEX
8
ENGRAVE
10
157.747
20
261.019
30
0
0
VERTEX
8
ENGRAVE
10
156.809
20
261.769
30
0
0
VERTEX
8
ENGRAVE
10
156.434
20
262.425
30
0
0
VERTEX
8
ENGRAVE
10
156.434
20
262.613
30
0
0
VERTEX
8
ENGRAVE
10
157.184
20
262.706
30
0
0
VERTEX
8
ENGRAVE
10
157.653
20
261.863
30
0
0
VERTEX
8
ENGRAVE
10
158.591
20
261.488
30
0
0
VERTEX
8
ENGRAVE
10
159.716
20
261.581
30
0
0
VERTEX
8
ENGRAVE
10
160.372
20
262.144
30
0
0
VERTEX
8
ENGRAVE
10
160.466
20
262.706
30
0
0
VERTEX
8
ENGRAVE
10
160.184
20
263.269
30
0
0
VERTEX
8
ENGRAVE
10
159.716
20
263.550
30
0
0
VERTEX
8
ENGRAVE
10
157.653
20
264.019
30
0
0
VERTEX
8
ENGRAVE
10
156.809
20
264.863
30
0
0
VERTEX
8
ENGRAVE
10
156.716
20
265.706
30
0
0
VERTEX
8
ENGRAVE
10
156.903
20
266.363
30
0
0
VERTEX
8
ENGRAVE
10
157.372
20
266.831
30
0
0
SEQEND
8
ENGRAVE
0
POLYLINE
8
ENGRAVE
66
1
70
1
10
0
20
0
30
0
0
VERTEX
8
ENGRAVE
10
142.559
20
267.113
30
0
0
VERTEX
8
ENGRAVE
10
143.497
20
267.019
30
0
0
VERTEX
8
ENGRAVE
10
145.372
20
260.925
30
0
0
VERTEX
8
ENGRAVE
10
144.528
20
261.019
30
0
0
VERTEX
8
ENGRAVE
10
144.059
20
262.706
30
0
0
VERTEX
8
ENGRAVE
10
141.716
20
262.706
30
0
0
VERTEX
8
ENGRAVE
10
141.247
20
261.019
30
0
0
VERTEX
8
ENGRAVE
10
140.497
20
260.925
30
0
0
SEQEND
8
ENGRAVE
0
POLYLINE
8
ENGRAVE
66
1
70
1
10
0
20
0
30
0
0
VERTEX
8
ENGRAVE
10
146.216
20
267.113
30
0
0
VERTEX
8
ENGRAVE
10
149.403
20
267.019
30
0
0
VERTEX
8
ENGRAVE
10
150.341
20
266.363
30
0
0
VERTEX
8
ENGRAVE
10
150.622
20
265.425
30
0
0
VERTEX
8
ENGRAVE
10
150.528
20
264.769
30
0
0
VERTEX
8
ENGRAVE
10
149.966
20
264.019
30
0
0
VERTEX
8
ENGRAVE
10
149.497
20
263.831
30
0
0
VERTEX
8
ENGRAVE
10
149.497
20
263.550
30
0
0
VERTEX
8
ENGRAVE
10
150.622
20
260.925
30
0
0
VERTEX
8
ENGRAVE
10
149.778
20
260.925
30
0
0
VERTEX
8
ENGRAVE
10
148.747
20
263.550
30
0
0
VERTEX
8
ENGRAVE
10
146.966
20
263.550
30
0
0
VERTEX
8
ENGRAVE
10
146.966
20
260.925
30
0
0
VERTEX
8
ENGRAVE
10
146.216
20
260.925
30
0
0
SEQEND
8
ENGRAVE
0
POLYLINE
8
ENGRAVE
66
1
70
1
10
0
20
0
30
0
0
VERTEX
8
ENGRAVE
10
151.747
20
267.113
30
0
0
VERTEX
8
ENGRAVE
10
155.684
20
267.113
30
0
0
VERTEX
8
ENGRAVE
10
155.684
20
266.456
30
0
0
VERTEX
8
ENGRAVE
10
152.591
20
266.456
30
0
0
VERTEX
8
ENGRAVE
10
152.591
20
264.488
30
0
0
VERTEX
8
ENGRAVE
10
155.028
20
264.488
30
0
0
VERTEX
8
ENGRAVE
10
155.028
20
263.831
30
0
0
VERTEX
8
ENGRAVE
10
152.591
20
263.831
30
0
0
VERTEX
8
ENGRAVE
10
152.591
20
261.581
30
0
0
VERTEX
8
ENGRAVE
10
155.778
20
261.581
30
0
0
VERTEX
8
ENGRAVE
10
155.778
20
260.925
30
0
0
VERTEX
8
ENGRAVE
10
151.747
20
260.925
30
0
0
SEQEND
8
ENGRAVE
0
POLYLINE
8
ENGRAVE
66
1
70
1
10
0
20
0
30
0
0
VERTEX
8
ENGRAVE
10
167.028
20
267.113
30
0
0
VERTEX
8
ENGRAVE
10
167.591
20
267.113
30
0
0
VERTEX
8
ENGRAVE
10
167.591
20
261.488
30
0
0
VERTEX
8
ENGRAVE
10
169.372
20
261.488
30
0
0
VERTEX
8
ENGRAVE
10
169.372
20
260.925
30
0
0
VERTEX
8
ENGRAVE
10
165.059
20
260.925
30
0
0
VERTEX
8
ENGRAVE
10
165.059
20
261.488
30
0
0
VERTEX
8
ENGRAVE
10
166.841
20
261.488
30
0
0
VERTEX
8
ENGRAVE
10
166.841
20
266.081
30
0
0
VERTEX
8
ENGRAVE
10
165.341
20
264.863
30
0
0
VERTEX
8
ENGRAVE
10
165.153
20
264.863
30
0
0
VERTEX
8
ENGRAVE
10
165.153
20
265.613
30
0
0
VERTEX
8
ENGRAVE
10
166.278
20
266.269
30
0
0
SEQEND
8
ENGRAVE
0
POLYLINE
8
ENGRAVE
66
1
70
1
10
0
20
0
30
0
0
VERTEX
8
ENGRAVE
10
147.059
20
266.456
30
0
0
VERTEX
8
ENGRAVE
10
146.966
20
264.206
30
0
0
VERTEX
8
ENGRAVE
10
149.122
20
264.300
30
0
0
VERTEX
8
ENGRAVE
10
149.684
20
264.769
30
0
0
VERTEX
8
ENGRAVE
10
149.778
20
265.706
30
0
0
VERTEX
8
ENGRAVE
10
149.497
20
266.175
30
0
0
VERTEX
8
ENGRAVE
10
148.747
20
266.456
30
0
0
SEQEND
8
ENGRAVE
0
POLYLINE
8
ENGRAVE
66
1
70
1
10
0
20
0
30
0
0
VERTEX
8
ENGRAVE
10
142.934
20
266.175
30
0
0
VERTEX
8
ENGRAVE
10
141.997
20
263.363
30
0
0
VERTEX
8
ENGRAVE
10
143.778
20
263.363
30
0
0
SEQEND
8
ENGRAVE
0
POLYLINE
8
ENGRAVE
66
1
70
1
10
0
20
0
30
0
0
VERTEX
8
ENGRAVE
10
161.684
20
263.550
30
0
0
VERTEX
8
ENGRAVE
10
163.559
20
263.550
30
0
0
VERTEX
8
ENGRAVE
10
163.559
20
262.988
30
0
0
VERTEX
8
ENGRAVE
10
161.591
20
262.988
30
0
0
SEQEND
8
ENGRAVE
0
POLYLINE
8
ENGRAVE
66
1
70
1
10
0
20
0
30
0
0
VERTEX
8
ENGRAVE
10
260.497
20
267.206
30
0
0
VERTEX
8
ENGRAVE
10
261.247
20
267.206
30
0
0
VERTEX
8
ENGRAVE
10
262.091
20
266.925
30
0
0
VERTEX
8
ENGRAVE
10
262.747
20
266.363
30
0
0
VERTEX
8
ENGRAVE
10
263.028
20
265.800
30
0
0
VERTEX
8
ENGRAVE
10
262.934
20
265.613
30
0
0
VERTEX
8
ENGRAVE
10
262.278
20
265.519
30
0
0
VERTEX
8
ENGRAVE
10
262.184
20
265.988
30
0
0
VERTEX
8
ENGRAVE
10
261.247
20
266.550
30
0
0
VERTEX
8
ENGRAVE
10
260.309
20
266.550
30
0
0
VERTEX
8
ENGRAVE
10
259.559
20
265.988
30
0
0
VERTEX
8
ENGRAVE
10
259.466
20
265.519
30
0
0
VERTEX
8
ENGRAVE
10
259.841
20
264.863
30
0
0
VERTEX
8
ENGRAVE
10
262.278
20
264.206
30
0
0
VERTEX
8
ENGRAVE
10
263.122
20
263.456
30
0
0
VERTEX
8
ENGRAVE
10
263.216
20
262.144
30
0
0
VERTEX
8
ENGRAVE
10
263.028
20
261.675
30
0
0
VERTEX
8
ENGRAVE
10
262.559
20
261.206
30
0
0
VERTEX
8
ENGRAVE
10
261.622
20
260.831
30
0
0
VERTEX
8
ENGRAVE
10
259.747
20
261.019
30
0
0
VERTEX
8
ENGRAVE
10
258.809
20
261.769
30
0
0
VERTEX
8
ENGRAVE
10
258.434
20
262.425
30
0
0
VERTEX
8
ENGRAVE
10
258.434
20
262.613
30
0
0
VERTEX
8
ENGRAVE
10
259.184
20
262.706
30
0
0
VERTEX
8
ENGRAVE
10
259.653
20
261.863
30
0
0
VERTEX
8
ENGRAVE
10
260.591
20
261.488
30
0
0
VERTEX
8
ENGRAVE
10
261.716
20
261.581
30
0
0
VERTEX
8
ENGRAVE
10
262.372
20
262.144
30
0
0
VERTEX
8
ENGRAVE
10
262.466
20
262.706
30
0
0
VERTEX
8
ENGRAVE
10
262.184
20
263.269
30
0
0
VERTEX
8
ENGRAVE
10
261.716
20
263.550
30
0
0
VERTEX
8
ENGRAVE
10
259.653
20
264.019
30
0
0
VERTEX
8
ENGRAVE
10
258.809
20
264.863
30
0
0
VERTEX
8
ENGRAVE
10
258.716
20
265.706
30
0
0
VERTEX
8
ENGRAVE
10
258.903
20
266.363
30
0
0
VERTEX
8
ENGRAVE
10
259.372
20
266.831
30
0
0
SEQEND
8
ENGRAVE
0
POLYLINE
8
ENGRAVE
66
1
70
1
10
0
20
0
30
0
0
VERTEX
8
ENGRAVE
10
244.559
20
267.113
30
0
0
VERTEX
8
ENGRAVE
10
245.497
20
267.019
30
0
0
VERTEX
8
ENGRAVE
10
247.372
20
260.925
30
0
0
VERTEX
8
ENGRAVE
10
246.528
20
261.019
30
0
0
VERTEX
8
ENGRAVE
10
246.059
20
262.706
30
0
0
VERTEX
8
ENGRAVE
10
243.716
20
262.706
30
0
0
VERTEX
8
ENGRAVE
10
243.247
20
261.019
30
0
0
VERTEX
8
ENGRAVE
10
242.497
20
260.925
30
0
0
SEQEND
8
ENGRAVE
0
POLYLINE
8
ENGRAVE
66
1
70
1
10
0
20
0
30
0
0
VERTEX
8
ENGRAVE
10
248.216
20
267.113
30
0
0
VERTEX
8
ENGRAVE
10
251.403
20
267.019
30
0
0
VERTEX
8
ENGRAVE
10
252.341
20
266.363
30
0
0
VERTEX
8
ENGRAVE
10
252.622
20
265.425
30
0
0
VERTEX
8
ENGRAVE
10
252.528
20
264.769
30
0
0
VERTEX
8
ENGRAVE
10
251.966
20
264.019
30
0
0
VERTEX
8
ENGRAVE
10
251.497
20
263.831
30
0
0
VERTEX
8
ENGRAVE
10
251.497
20
263.550
30
0
0
VERTEX
8
ENGRAVE
10
252.622
20
260.925
30
0
0
VERTEX
8
ENGRAVE
10
251.778
20
260.925
30
0
0
VERTEX
8
ENGRAVE
10
250.747
20
263.550
30
0
0
VERTEX
8
ENGRAVE
10
248.966
20
263.550
30
0
0
VERTEX
8
ENGRAVE
10
248.966
20
260.925
30
0
0
VERTEX
8
ENGRAVE
10
248.216
20
260.925
30
0
0
SEQEND
8
ENGRAVE
0
POLYLINE
8
ENGRAVE
66
1
70
1
10
0
20
0
30
0
0
VERTEX
8
ENGRAVE
10
253.747
20
267.113
30
0
0
VERTEX
8
ENGRAVE
10
257.684
20
267.113
30
0
0
VERTEX
8
ENGRAVE
10
257.684
20
266.456
30
0
0
VERTEX
8
ENGRAVE
10
254.591
20
266.456
30
0
0
VERTEX
8
ENGRAVE
10
254.591
20
264.488
30
0
0
VERTEX
8
ENGRAVE
10
257.028
20
264.488
30
0
0
VERTEX
8
ENGRAVE
10
257.028
20
263.831
30
0
0
VERTEX
8
ENGRAVE
10
254.591
20
263.831
30
0
0
VERTEX
8
ENGRAVE
10
254.591
20
261.581
30
0
0
VERTEX
8
ENGRAVE
10
257.778
20
261.581
30
0
0
VERTEX
8
ENGRAVE
10
257.778
20
260.925
30
0
0
VERTEX
8
ENGRAVE
10
253.747
20
260.925
30
0
0
SEQEND
8
ENGRAVE
0
POLYLINE
8
ENGRAVE
66
1
70
1
10
0
20
0
30
0
0
VERTEX
8
ENGRAVE
10
269.028
20
267.113
30
0
0
VERTEX
8
ENGRAVE
10
269.591
20
267.113
30
0
0
VERTEX
8
ENGRAVE
10
269.591
20
261.488
30
0
0
VERTEX
8
ENGRAVE
10
271.372
20
261.488
30
0
0
VERTEX
8
ENGRAVE
10
271.372
20
260.925
30
0
0
VERTEX
8
ENGRAVE
10
267.059
20
260.925
30
0
0
VERTEX
8
ENGRAVE
10
267.059
20
261.488
30
0
0
VERTEX
8
ENGRAVE
10
268.841
20
261.488
30
0
0
VERTEX
8
ENGRAVE
10
268.841
20
266.081
30
0
0
VERTEX
8
ENGRAVE
10
267.341
20
264.863
30
0
0
VERTEX
8
ENGRAVE
10
267.153
20
264.863
30
0
0
VERTEX
8
ENGRAVE
10
267.153
20
265.613
30
0
0
VERTEX
8
ENGRAVE
10
268.278
20
266.269
30
0
0
SEQEND
8
ENGRAVE
0
POLYLINE
8
ENGRAVE
66
1
70
1
10
0
20
0
30
0
0
VERTEX
8
ENGRAVE
10
249.059
20
266.456
30
0
0
VERTEX
8
ENGRAVE
10
248.966
20
264.206
30
0
0
VERTEX
8
ENGRAVE
10
251.122
20
264.300
30
0
0
VERTEX
8
ENGRAVE
10
251.684
20
264.769
30
0
0
VERTEX
8
ENGRAVE
10
251.778
20
265.706
30
0
0
VERTEX
8
ENGRAVE
10
251.497
20
266.175
30
0
0
VERTEX
8
ENGRAVE
10
250.747
20
266.456
30
0
0
SEQEND
8
ENGRAVE
0
POLYLINE
8
ENGRAVE
66
1
70
1
10
0
20
0
30
0
0
VERTEX
8
ENGRAVE
10
244.934
20
266.175
30
0
0
VERTEX
8
ENGRAVE
10
243.997
20
263.363
30
0
0
VERTEX
8
ENGRAVE
10
245.778
20
263.363
30
0
0
SEQEND
8
ENGRAVE
0
POLYLINE
8
ENGRAVE
66
1
70
1
10
0
20
0
30
0
0
VERTEX
8
ENGRAVE
10
263.684
20
263.550
30
0
0
VERTEX
8
ENGRAVE
10
265.559
20
263.550
30
0
0
VERTEX
8
ENGRAVE
10
265.559
20
262.988
30
0
0
VERTEX
8
ENGRAVE
10
263.591
20
262.988
30
0
0
SEQEND
8
ENGRAVE
0
POLYLINE
8
ENGRAVE
66
1
70
1
10
0
20
0
30
0
0
VERTEX
8
ENGRAVE
10
362.497
20
267.206
30
0
0
VERTEX
8
ENGRAVE
10
363.247
20
267.206
30
0
0
VERTEX
8
ENGRAVE
10
364.091
20
266.925
30
0
0
VERTEX
8
ENGRAVE
10
364.747
20
266.363
30
0
0
VERTEX
8
ENGRAVE
10
365.028
20
265.800
30
0
0
VERTEX
8
ENGRAVE
10
364.934
20
265.613
30
0
0
VERTEX
8
ENGRAVE
10
364.278
20
265.519
30
0
0
VERTEX
8
ENGRAVE
10
364.184
20
265.988
30
0
0
VERTEX
8
ENGRAVE
10
363.247
20
266.550
30
0
0
VERTEX
8
ENGRAVE
10
362.309
20
266.550
30
0
0
VERTEX
8
ENGRAVE
10
361.559
20
265.988
30
0
0
VERTEX
8
ENGRAVE
10
361.466
20
265.519
30
0
0
VERTEX
8
ENGRAVE
10
361.841
20
264.863
30
0
0
VERTEX
8
ENGRAVE
10
364.278
20
264.206
30
0
0
VERTEX
8
ENGRAVE
10
365.122
20
263.456
30
0
0
VERTEX
8
ENGRAVE
10
365.216
20
262.144
30
0
0
VERTEX
8
ENGRAVE
10
365.028
20
261.675
30
0
0
VERTEX
8
ENGRAVE
10
364.559
20
261.206
30
0
0
VERTEX
8
ENGRAVE
10
363.622
20
260.831
30
0
0
VERTEX
8
ENGRAVE
10
361.747
20
261.019
30
0
0
VERTEX
8
ENGRAVE
10
360.809
20
261.769
30
0
0
VERTEX
8
ENGRAVE
10
360.434
20
262.425
30
0
0
VERTEX
8
ENGRAVE
10
360.434
20
262.613
30
0
0
VERTEX
8
ENGRAVE
10
361.184
20
262.706
30
0
0
VERTEX
8
ENGRAVE
10
361.653
20
261.863
30
0
0
VERTEX
8
ENGRAVE
10
362.591
20
261.488
30
0
0
VERTEX
8
ENGRAVE
10
363.716
20
261.581
30
0
0
VERTEX
8
ENGRAVE
10
364.372
20
262.144
30
0
0
VERTEX
8
ENGRAVE
10
364.466
20
262.706
30
0
0
VERTEX
8
ENGRAVE
10
364.184
20
263.269
30
0
0
VERTEX
8
ENGRAVE
10
363.716
20
263.550
30
0
0
VERTEX
8
ENGRAVE
10
361.653
20
264.019
30
0
0
VERTEX
8
ENGRAVE
10
360.809
20
264.863
30
0
0
VERTEX
8
ENGRAVE
10
360.716
20
265.706
30
0
0
VERTEX
8
ENGRAVE
10
360.903
20
266.363
30
0
0
VERTEX
8
ENGRAVE
10
361.372
20
266.831
30
0
0
SEQEND
8
ENGRAVE
0
POLYLINE
8
ENGRAVE
66
1
70
1
10
0
20
0
30
0
0
VERTEX
8
ENGRAVE
10
346.559
20
267.113
30
0
0
VERTEX
8
ENGRAVE
10
347.497
20
267.019
30
0
0
VERTEX
8
ENGRAVE
10
349.372
20
260.925
30
0
0
VERTEX
8
ENGRAVE
10
348.528
20
261.019
30
0
0
VERTEX
8
ENGRAVE
10
348.059
20
262.706
30
0
0
VERTEX
8
ENGRAVE
10
345.716
20
262.706
30
0
0
VERTEX
8
ENGRAVE
10
345.247
20
261.019
30
0
0
VERTEX
8
ENGRAVE
10
344.497
20
260.925
30
0
0
SEQEND
8
ENGRAVE
0
POLYLINE
8
ENGRAVE
66
1
70
1
10
0
20
0
30
0
0
VERTEX
8
ENGRAVE
10
350.216
20
267.113
30
0
0
VERTEX
8
ENGRAVE
10
353.403
20
267.019
30
0
0
VERTEX
8
ENGRAVE
10
354.341
20
266.363
30
0
0
VERTEX
8
ENGRAVE
10
354.622
20
265.425
30
0
0
VERTEX
8
ENGRAVE
10
354.528
20
264.769
30
0
0
VERTEX
8
ENGRAVE
10
353.966
20
264.019
30
0
0
VERTEX
8
ENGRAVE
10
353.497
20
263.831
30
0
0
VERTEX
8
ENGRAVE
10
353.497
20
263.550
30
0
0
VERTEX
8
ENGRAVE
10
354.622
20
260.925
30
0
0
VERTEX
8
ENGRAVE
10
353.778
20
260.925
30
0
0
VERTEX
8
ENGRAVE
10
352.747
20
263.550
30
0
0
VERTEX
8
ENGRAVE
10
350.966
20
263.550
30
0
0
VERTEX
8
ENGRAVE
10
350.966
20
260.925
30
0
0
VERTEX
8
ENGRAVE
10
350.216
20
260.925
30
0
0
SEQEND
8
ENGRAVE
0
POLYLINE
8
ENGRAVE
66
1
70
1
10
0
20
0
30
0
0
VERTEX
8
ENGRAVE
10
355.747
20
267.113
30
0
0
VERTEX
8
ENGRAVE
10
359.684
20
267.113
30
0
0
VERTEX
8
ENGRAVE
10
359.684
20
266.456
30
0
0
VERTEX
8
ENGRAVE
10
356.591
20
266.456
30
0
0
VERTEX
8
ENGRAVE
10
356.591
20
264.488
30
0
0
VERTEX
8
ENGRAVE
10
359.028
20
264.488
30
0
0
VERTEX
8
ENGRAVE
10
359.028
20
263.831
30
0
0
VERTEX
8
ENGRAVE
10
356.591
20
263.831
30
0
0
VERTEX
8
ENGRAVE
10
356.591
20
261.581
30
0
0
VERTEX
8
ENGRAVE
10
359.778
20
261.581
30
0
0
VERTEX
8
ENGRAVE
10
359.778
20
260.925
30
0
0
VERTEX
8
ENGRAVE
10
355.747
20
260.925
30
0
0
SEQEND
8
ENGRAVE
0
POLYLINE
8
ENGRAVE
66
1
70
1
10
0
20
0
30
0
0
VERTEX
8
ENGRAVE
10
371.028
20
267.113
30
0
0
VERTEX
8
ENGRAVE
10
371.591
20
267.113
30
0
0
VERTEX
8
ENGRAVE
10
371.591
20
261.488
30
0
0
VERTEX
8
ENGRAVE
10
373.372
20
261.488
30
0
0
VERTEX
8
ENGRAVE
10
373.372
20
260.925
30
0
0
VERTEX
8
ENGRAVE
10
369.059
20
260.925
30
0
0
VERTEX
8
ENGRAVE
10
369.059
20
261.488
30
0
0
VERTEX
8
ENGRAVE
10
370.841
20
261.488
30
0
0
VERTEX
8
ENGRAVE
10
370.841
20
266.081
30
0
0
VERTEX
8
ENGRAVE
10
369.341
20
264.863
30
0
0
VERTEX
8
ENGRAVE
10
369.153
20
264.863
30
0
0
VERTEX
8
ENGRAVE
10
369.153
20
265.613
30
0
0
VERTEX
8
ENGRAVE
10
370.278
20
266.269
30
0
0
SEQEND
8
ENGRAVE
0
POLYLINE
8
ENGRAVE
66
1
70
1
10
0
20
0
30
0
0
VERTEX
8
ENGRAVE
10
351.059
20
266.456
30
0
0
VERTEX
8
ENGRAVE
10
350.966
20
264.206
30
0
0
VERTEX
8
ENGRAVE
10
353.122
20
264.300
30
0
0
VERTEX
8
ENGRAVE
10
353.684
20
264.769
30
0
0
VERTEX
8
ENGRAVE
10
353.778
20
265.706
30
0
0
VERTEX
8
ENGRAVE
10
353.497
20
266.175
30
0
0
VERTEX
8
ENGRAVE
10
352.747
20
266.456
30
0
0
SEQEND
8
ENGRAVE
0
POLYLINE
8
ENGRAVE
66
1
70
1
10
0
20
0
30
0
0
VERTEX
8
ENGRAVE
10
346.934
20
266.175
30
0
0
VERTEX
8
ENGRAVE
10
345.997
20
263.363
30
0
0
VERTEX
8
ENGRAVE
10
347.778
20
263.363
30
0
0
SEQEND
8
ENGRAVE
0
POLYLINE
8
ENGRAVE
66
1
70
1
10
0
20
0
30
0
0
VERTEX
8
ENGRAVE
10
365.684
20
263.550
30
0
0
VERTEX
8
ENGRAVE
10
367.559
20
263.550
30
0
0
VERTEX
8
ENGRAVE
10
367.559
20
262.988
30
0
0
VERTEX
8
ENGRAVE
10
365.591
20
262.988
30
0
0
SEQEND
8
ENGRAVE
0
POLYLINE
8
ENGRAVE
66
1
70
1
10
0
20
0
30
0
0
VERTEX
8
ENGRAVE
10
56.497
20
187.206
30
0
0
VERTEX
8
ENGRAVE
10
57.247
20
187.206
30
0
0
VERTEX
8
ENGRAVE
10
58.091
20
186.925
30
0
0
VERTEX
8
ENGRAVE
10
58.747
20
186.363
30
0
0
VERTEX
8
ENGRAVE
10
59.028
20
185.800
30
0
0
VERTEX
8
ENGRAVE
10
58.934
20
185.613
30
0
0
VERTEX
8
ENGRAVE
10
58.278
20
185.519
30
0
0
VERTEX
8
ENGRAVE
10
58.184
20
185.988
30
0
0
VERTEX
8
ENGRAVE
10
57.247
20
186.550
30
0
0
VERTEX
8
ENGRAVE
10
56.309
20
186.550
30
0
0
VERTEX
8
ENGRAVE
10
55.559
20
185.988
30
0
0
VERTEX
8
ENGRAVE
10
55.466
20
185.519
30
0
0
VERTEX
8
ENGRAVE
10
55.841
20
184.863
30
0
0
VERTEX
8
ENGRAVE
10
58.278
20
184.206
30
0
0
VERTEX
8
ENGRAVE
10
59.122
20
183.456
30
0
0
VERTEX
8
ENGRAVE
10
59.216
20
182.144
30
0
0
VERTEX
8
ENGRAVE
10
59.028
20
181.675
30
0
0
VERTEX
8
ENGRAVE
10
58.559
20
181.206
30
0
0
VERTEX
8
ENGRAVE
10
57.622
20
180.831
30
0
0
VERTEX
8
ENGRAVE
10
55.747
20
181.019
30
0
0
VERTEX
8
ENGRAVE
10
54.809
20
181.769
30
0
0
VERTEX
8
ENGRAVE
10
54.434
20
182.425
30
0
0
VERTEX
8
ENGRAVE
10
54.434
20
182.613
30
0
0
VERTEX
8
ENGRAVE
10
55.184
20
182.706
30
0
0
VERTEX
8
ENGRAVE
10
55.653
20
181.863
30
0
0
VERTEX
8
ENGRAVE
10
56.591
20
181.488
30
0
0
VERTEX
8
ENGRAVE
10
57.716
20
181.581
30
0
0
VERTEX
8
ENGRAVE
10
58.372
20
182.144
30
0
0
VERTEX
8
ENGRAVE
10
58.466
20
182.706
30
0
0
VERTEX
8
ENGRAVE
10
58.184
20
183.269
30
0
0
VERTEX
8
ENGRAVE
10
57.716
20
183.550
30
0
0
VERTEX
8
ENGRAVE
10
55.653
20
184.019
30
0
0
VERTEX
8
ENGRAVE
10
54.809
20
184.863
30
0
0
VERTEX
8
ENGRAVE
10
54.716
20
185.706
30
0
0
VERTEX
8
ENGRAVE
10
54.903
20
186.363
30
0
0
VERTEX
8
ENGRAVE
10
55.372
20
186.831
30
0
0
SEQEND
8
ENGRAVE
0
POLYLINE
8
ENGRAVE
66
1
70
1
10
0
20
0
30
0
0
VERTEX
8
ENGRAVE
10
40.559
20
187.113
30
0
0
VERTEX
8
ENGRAVE
10
41.497
20
187.019
30
0
0
VERTEX
8
ENGRAVE
10
43.372
20
180.925
30
0
0
VERTEX
8
ENGRAVE
10
42.528
20
181.019
30
0
0
VERTEX
8
ENGRAVE
10
42.059
20
182.706
30
0
0
VERTEX
8
ENGRAVE
10
39.716
20
182.706
30
0
0
VERTEX
8
ENGRAVE
10
39.247
20
181.019
30
0
0
VERTEX
8
ENGRAVE
10
38.497
20
180.925
30
0
0
SEQEND
8
ENGRAVE
0
POLYLINE
8
ENGRAVE
66
1
70
1
10
0
20
0
30
0
0
VERTEX
8
ENGRAVE
10
44.216
20
187.113
30
0
0
VERTEX
8
ENGRAVE
10
47.403
20
187.019
30
0
0
VERTEX
8
ENGRAVE
10
48.341
20
186.363
30
0
0
VERTEX
8
ENGRAVE
10
48.622
20
185.425
30
0
0
VERTEX
8
ENGRAVE
10
48.528
20
184.769
30
0
0
VERTEX
8
ENGRAVE
10
47.966
20
184.019
30
0
0
VERTEX
8
ENGRAVE
10
47.497
20
183.831
30
0
0
VERTEX
8
ENGRAVE
10
47.497
20
183.550
30
0
0
VERTEX
8
ENGRAVE
10
48.622
20
180.925
30
0
0
VERTEX
8
ENGRAVE
10
47.778
20
180.925
30
0
0
VERTEX
8
ENGRAVE
10
46.747
20
183.550
30
0
0
VERTEX
8
ENGRAVE
10
44.966
20
183.550
30
0
0
VERTEX
8
ENGRAVE
10
44.966
20
180.925
30
0
0
VERTEX
8
ENGRAVE
10
44.216
20
180.925
30
0
0
SEQEND
8
ENGRAVE
0
POLYLINE
8
ENGRAVE
66
1
70
1
10
0
20
0
30
0
0
VERTEX
8
ENGRAVE
10
49.747
20
187.113
30
0
0
VERTEX
8
ENGRAVE
10
53.684
20
187.113
30
0
0
VERTEX
8
ENGRAVE
10
53.684
20
186.456
30
0
0
VERTEX
8
ENGRAVE
10
50.591
20
186.456
30
0
0
VERTEX
8
ENGRAVE
10
50.591
20
184.488
30
0
0
VERTEX
8
ENGRAVE
10
53.028
20
184.488
30
0
0
VERTEX
8
ENGRAVE
10
53.028
20
183.831
30
0
0
VERTEX
8
ENGRAVE
10
50.591
20
183.831
30
0
0
VERTEX
8
ENGRAVE
10
50.591
20
181.581
30
0
0
VERTEX
8
ENGRAVE
10
53.778
20
181.581
30
0
0
VERTEX
8
ENGRAVE
10
53.778
20
180.925
30
0
0
VERTEX
8
ENGRAVE
10
49.747
20
180.925
30
0
0
SEQEND
8
ENGRAVE
0
POLYLINE
8
ENGRAVE
66
1
70
1
10
0
20
0
30
0
0
VERTEX
8
ENGRAVE
10
65.028
20
187.113
30
0
0
VERTEX
8
ENGRAVE
10
65.591
20
187.113
30
0
0
VERTEX
8
ENGRAVE
10
65.591
20
181.488
30
0
0
VERTEX
8
ENGRAVE
10
67.372
20
181.488
30
0
0
VERTEX
8
ENGRAVE
10
67.372
20
180.925
30
0
0
VERTEX
8
ENGRAVE
10
63.059
20
180.925
30
0
0
VERTEX
8
ENGRAVE
10
63.059
20
181.488
30
0
0
VERTEX
8
ENGRAVE
10
64.841
20
181.488
30
0
0
VERTEX
8
ENGRAVE
10
64.841
20
186.081
30
0
0
VERTEX
8
ENGRAVE
10
63.341
20
184.863
30
0
0
VERTEX
8
ENGRAVE
10
63.153
20
184.863
30
0
0
VERTEX
8
ENGRAVE
10
63.153
20
185.613
30
0
0
VERTEX
8
ENGRAVE
10
64.278
20
186.269
30
0
0
SEQEND
8
ENGRAVE
0
POLYLINE
8
ENGRAVE
66
1
70
1
10
0
20
0
30
0
0
VERTEX
8
ENGRAVE
10
45.059
20
186.456
30
0
0
VERTEX
8
ENGRAVE
10
44.966
20
184.206
30
0
0
VERTEX
8
ENGRAVE
10
47.122
20
184.300
30
0
0
VERTEX
8
ENGRAVE
10
47.684
20
184.769
30
0
0
VERTEX
8
ENGRAVE
10
47.778
20
185.706
30
0
0
VERTEX
8
ENGRAVE
10
47.497
20
186.175
30
0
0
VERTEX
8
ENGRAVE
10
46.747
20
186.456
30
0
0
SEQEND
8
ENGRAVE
0
POLYLINE
8
ENGRAVE
66
1
70
1
10
0
20
0
30
0
0
VERTEX
8
ENGRAVE
10
40.934
20
186.175
30
0
0
VERTEX
8
ENGRAVE
10
39.997
20
183.363
30
0
0
VERTEX
8
ENGRAVE
10
41.778
20
183.363
30
0
0
SEQEND
8
ENGRAVE
0
POLYLINE
8
ENGRAVE
66
1
70
1
10
0
20
0
30
0
0
VERTEX
8
ENGRAVE
10
59.684
20
183.550
30
0
0
VERTEX
8
ENGRAVE
10
61.559
20
183.550
30
0
0
VERTEX
8
ENGRAVE
10
61.559
20
182.988
30
0
0
VERTEX
8
ENGRAVE
10
59.591
20
182.988
30
0
0
SEQEND
8
ENGRAVE
0
POLYLINE
8
ENGRAVE
66
1
70
1
10
0
20
0
30
0
0
VERTEX
8
ENGRAVE
10
142.979
20
185.247
30
0
0
VERTEX
8
ENGRAVE
10
143.479
20
185.205
30
0
0
VERTEX
8
ENGRAVE
10
143.813
20
185.039
30
0
0
VERTEX
8
ENGRAVE
10
144.063
20
184.705
30
0
0
VERTEX
8
ENGRAVE
10
144.104
20
184.330
30
0
0
VERTEX
8
ENGRAVE
10
144.063
20
184.122
30
0
0
VERTEX
8
ENGRAVE
10
143.813
20
183.705
30
0
0
VERTEX
8
ENGRAVE
10
142.646
20
182.747
30
0
0
VERTEX
8
ENGRAVE
10
144.104
20
182.747
30
0
0
VERTEX
8
ENGRAVE
10
144.104
20
182.455
30
0
0
VERTEX
8
ENGRAVE
10
142.146
20
182.455
30
0
0
VERTEX
8
ENGRAVE
10
142.146
20
182.747
30
0
0
VERTEX
8
ENGRAVE
10
143.313
20
183.622
30
0
0
VERTEX
8
ENGRAVE
10
143.646
20
183.997
30
0
0
VERTEX
8
ENGRAVE
10
143.729
20
184.205
30
0
0
VERTEX
8
ENGRAVE
10
143.688
20
184.705
30
0
0
VERTEX
8
ENGRAVE
10
143.313
20
184.955
30
0
0
VERTEX
8
ENGRAVE
10
142.938
20
184.955
30
0
0
VERTEX
8
ENGRAVE
10
142.688
20
184.830
30
0
0
VERTEX
8
ENGRAVE
10
142.479
20
184.497
30
0
0
VERTEX
8
ENGRAVE
10
142.479
20
184.330
30
0
0
VERTEX
8
ENGRAVE
10
142.146
20
184.414
30
0
0
VERTEX
8
ENGRAVE
10
142.313
20
184.872
30
0
0
VERTEX
8
ENGRAVE
10
142.521
20
185.080
30
0
0
SEQEND
8
ENGRAVE
0
POLYLINE
8
ENGRAVE
66
1
70
1
10
0
20
0
30
0
0
VERTEX
8
ENGRAVE
10
139.771
20
185.205
30
0
0
VERTEX
8
ENGRAVE
10
141.229
20
185.164
30
0
0
VERTEX
8
ENGRAVE
10
141.604
20
184.830
30
0
0
VERTEX
8
ENGRAVE
10
141.604
20
184.205
30
0
0
VERTEX
8
ENGRAVE
10
141.396
20
183.997
30
0
0
VERTEX
8
ENGRAVE
10
141.188
20
183.914
30
0
0
VERTEX
8
ENGRAVE
10
141.479
20
183.789
30
0
0
VERTEX
8
ENGRAVE
10
141.729
20
183.414
30
0
0
VERTEX
8
ENGRAVE
10
141.688
20
182.872
30
0
0
VERTEX
8
ENGRAVE
10
141.438
20
182.580
30
0
0
VERTEX
8
ENGRAVE
10
141.104
20
182.455
30
0
0
VERTEX
8
ENGRAVE
10
139.771
20
182.455
30
0
0
SEQEND
8
ENGRAVE
0
POLYLINE
8
ENGRAVE
66
1
70
1
10
0
20
0
30
0
0
VERTEX
8
ENGRAVE
10
140.146
20
184.914
30
0
0
VERTEX
8
ENGRAVE
10
140.104
20
184.039
30
0
0
VERTEX
8
ENGRAVE
10
140.979
20
184.039
30
0
0
VERTEX
8
ENGRAVE
10
141.271
20
184.247
30
0
0
VERTEX
8
ENGRAVE
10
141.313
20
184.580
30
0
0
VERTEX
8
ENGRAVE
10
141.104
20
184.872
30
0
0
SEQEND
8
ENGRAVE
0
POLYLINE
8
ENGRAVE
66
1
70
1
10
0
20
0
30
0
0
VERTEX
8
ENGRAVE
10
140.146
20
183.747
30
0
0
VERTEX
8
ENGRAVE
10
140.104
20
182.747
30
0
0
VERTEX
8
ENGRAVE
10
140.979
20
182.747
30
0
0
VERTEX
8
ENGRAVE
10
141.354
20
182.997
30
0
0
VERTEX
8
ENGRAVE
10
141.354
20
183.497
30
0
0
VERTEX
8
ENGRAVE
10
141.146
20
183.705
30
0
0
SEQEND
8
ENGRAVE
0
POLYLINE
8
ENGRAVE
66
1
70
1
10
0
20
0
30
0
0
VERTEX
8
ENGRAVE
10
245.979
20
185.247
30
0
0
VERTEX
8
ENGRAVE
10
246.479
20
185.205
30
0
0
VERTEX
8
ENGRAVE
10
246.813
20
185.039
30
0
0
VERTEX
8
ENGRAVE
10
247.063
20
184.705
30
0
0
VERTEX
8
ENGRAVE
10
247.104
20
184.330
30
0
0
VERTEX
8
ENGRAVE
10
247.063
20
184.122
30
0
0
VERTEX
8
ENGRAVE
10
246.813
20
183.705
30
0
0
VERTEX
8
ENGRAVE
10
245.646
20
182.747
30
0
0
VERTEX
8
ENGRAVE
10
247.104
20
182.747
30
0
0
VERTEX
8
ENGRAVE
10
247.104
20
182.455
30
0
0
VERTEX
8
ENGRAVE
10
245.146
20
182.455
30
0
0
VERTEX
8
ENGRAVE
10
245.146
20
182.747
30
0
0
VERTEX
8
ENGRAVE
10
246.313
20
183.622
30
0
0
VERTEX
8
ENGRAVE
10
246.646
20
183.997
30
0
0
VERTEX
8
ENGRAVE
10
246.729
20
184.205
30
0
0
VERTEX
8
ENGRAVE
10
246.688
20
184.705
30
0
0
VERTEX
8
ENGRAVE
10
246.313
20
184.955
30
0
0
VERTEX
8
ENGRAVE
10
245.938
20
184.955
30
0
0
VERTEX
8
ENGRAVE
10
245.688
20
184.830
30
0
0
VERTEX
8
ENGRAVE
10
245.479
20
184.497
30
0
0
VERTEX
8
ENGRAVE
10
245.479
20
184.330
30
0
0
VERTEX
8
ENGRAVE
10
245.146
20
184.414
30
0
0
VERTEX
8
ENGRAVE
10
245.313
20
184.872
30
0
0
VERTEX
8
ENGRAVE
10
245.521
20
185.080
30
0
0
SEQEND
8
ENGRAVE
0
POLYLINE
8
ENGRAVE
66
1
70
1
10
0
20
0
30
0
0
VERTEX
8
ENGRAVE
10
242.771
20
185.205
30
0
0
VERTEX
8
ENGRAVE
10
244.229
20
185.164
30
0
0
VERTEX
8
ENGRAVE
10
244.604
20
184.830
30
0
0
VERTEX
8
ENGRAVE
10
244.604
20
184.205
30
0
0
VERTEX
8
ENGRAVE
10
244.396
20
183.997
30
0
0
VERTEX
8
ENGRAVE
10
244.188
20
183.914
30
0
0
VERTEX
8
ENGRAVE
10
244.479
20
183.789
30
0
0
VERTEX
8
ENGRAVE
10
244.729
20
183.414
30
0
0
VERTEX
8
ENGRAVE
10
244.688
20
182.872
30
0
0
VERTEX
8
ENGRAVE
10
244.438
20
182.580
30
0
0
VERTEX
8
ENGRAVE
10
244.104
20
182.455
30
0
0
VERTEX
8
ENGRAVE
10
242.771
20
182.455
30
0
0
SEQEND
8
ENGRAVE
0
POLYLINE
8
ENGRAVE
66
1
70
1
10
0
20
0
30
0
0
VERTEX
8
ENGRAVE
10
243.146
20
184.914
30
0
0
VERTEX
8
ENGRAVE
10
243.104
20
184.039
30
0
0
VERTEX
8
ENGRAVE
10
243.979
20
184.039
30
0
0
VERTEX
8
ENGRAVE
10
244.271
20
184.247
30
0
0
VERTEX
8
ENGRAVE
10
244.313
20
184.580
30
0
0
VERTEX
8
ENGRAVE
10
244.104
20
184.872
30
0
0
SEQEND
8
ENGRAVE
0
POLYLINE
8
ENGRAVE
66
1
70
1
10
0
20
0
30
0
0
VERTEX
8
ENGRAVE
10
243.146
20
183.747
30
0
0
VERTEX
8
ENGRAVE
10
243.104
20
182.747
30
0
0
VERTEX
8
ENGRAVE
10
243.979
20
182.747
30
0
0
VERTEX
8
ENGRAVE
10
244.354
20
182.997
30
0
0
VERTEX
8
ENGRAVE
10
244.354
20
183.497
30
0
0
VERTEX
8
ENGRAVE
10
244.146
20
183.705
30
0
0
SEQEND
8
ENGRAVE
0
POLYLINE
8
ENGRAVE
66
1
70
1
10
0
20
0
30
0
0
VERTEX
8
ENGRAVE
10
348.979
20
185.247
30
0
0
VERTEX
8
ENGRAVE
10
349.479
20
185.205
30
0
0
VERTEX
8
ENGRAVE
10
349.813
20
185.039
30
0
0
VERTEX
8
ENGRAVE
10
350.063
20
184.705
30
0
0
VERTEX
8
ENGRAVE
10
350.104
20
184.330
30
0
0
VERTEX
8
ENGRAVE
10
350.063
20
184.122
30
0
0
VERTEX
8
ENGRAVE
10
349.813
20
183.705
30
0
0
VERTEX
8
ENGRAVE
10
348.646
20
182.747
30
0
0
VERTEX
8
ENGRAVE
10
350.104
20
182.747
30
0
0
VERTEX
8
ENGRAVE
10
350.104
20
182.455
30
0
0
VERTEX
8
ENGRAVE
10
348.146
20
182.455
30
0
0
VERTEX
8
ENGRAVE
10
348.146
20
182.747
30
0
0
VERTEX
8
ENGRAVE
10
349.313
20
183.622
30
0
0
VERTEX
8
ENGRAVE
10
349.646
20
183.997
30
0
0
VERTEX
8
ENGRAVE
10
349.729
20
184.205
30
0
0
VERTEX
8
ENGRAVE
10
349.688
20
184.705
30
0
0
VERTEX
8
ENGRAVE
10
349.313
20
184.955
30
0
0
VERTEX
8
ENGRAVE
10
348.938
20
184.955
30
0
0
VERTEX
8
ENGRAVE
10
348.688
20
184.830
30
0
0
VERTEX
8
ENGRAVE
10
348.479
20
184.497
30
0
0
VERTEX
8
ENGRAVE
10
348.479
20
184.330
30
0
0
VERTEX
8
ENGRAVE
10
348.146
20
184.414
30
0
0
VERTEX
8
ENGRAVE
10
348.313
20
184.872
30
0
0
VERTEX
8
ENGRAVE
10
348.521
20
185.080
30
0
0
SEQEND
8
ENGRAVE
0
POLYLINE
8
ENGRAVE
66
1
70
1
10
0
20
0
30
0
0
VERTEX
8
ENGRAVE
10
345.771
20
185.205
30
0
0
VERTEX
8
ENGRAVE
10
347.229
20
185.164
30
0
0
VERTEX
8
ENGRAVE
10
347.604
20
184.830
30
0
0
VERTEX
8
ENGRAVE
10
347.604
20
184.205
30
0
0
VERTEX
8
ENGRAVE
10
347.396
20
183.997
30
0
0
VERTEX
8
ENGRAVE
10
347.188
20
183.914
30
0
0
VERTEX
8
ENGRAVE
10
347.479
20
183.789
30
0
0
VERTEX
8
ENGRAVE
10
347.729
20
183.414
30
0
0
VERTEX
8
ENGRAVE
10
347.688
20
182.872
30
0
0
VERTEX
8
ENGRAVE
10
347.438
20
182.580
30
0
0
VERTEX
8
ENGRAVE
10
347.104
20
182.455
30
0
0
VERTEX
8
ENGRAVE
10
345.771
20
182.455
30
0
0
SEQEND
8
ENGRAVE
0
POLYLINE
8
ENGRAVE
66
1
70
1
10
0
20
0
30
0
0
VERTEX
8
ENGRAVE
10
346.146
20
184.914
30
0
0
VERTEX
8
ENGRAVE
10
346.104
20
184.039
30
0
0
VERTEX
8
ENGRAVE
10
346.979
20
184.039
30
0
0
VERTEX
8
ENGRAVE
10
347.271
20
184.247
30
0
0
VERTEX
8
ENGRAVE
10
347.313
20
184.580
30
0
0
VERTEX
8
ENGRAVE
10
347.104
20
184.872
30
0
0
SEQEND
8
ENGRAVE
0
POLYLINE
8
ENGRAVE
66
1
70
1
10
0
20
0
30
0
0
VERTEX
8
ENGRAVE
10
346.146
20
183.747
30
0
0
VERTEX
8
ENGRAVE
10
346.104
20
182.747
30
0
0
VERTEX
8
ENGRAVE
10
346.979
20
182.747
30
0
0
VERTEX
8
ENGRAVE
10
347.354
20
182.997
30
0
0
VERTEX
8
ENGRAVE
10
347.354
20
183.497
30
0
0
VERTEX
8
ENGRAVE
10
347.146
20
183.705
30
0
0
SEQEND
8
ENGRAVE
0
POLYLINE
8
ENGRAVE
66
1
70
1
10
0
20
0
30
0
0
VERTEX
8
ENGRAVE
10
96.713
20
116.374
30
0
0
VERTEX
8
ENGRAVE
10
97.005
20
116.374
30
0
0
VERTEX
8
ENGRAVE
10
97.380
20
116.249
30
0
0
VERTEX
8
ENGRAVE
10
97.588
20
116.082
30
0
0
VERTEX
8
ENGRAVE
10
97.838
20
115.624
30
0
0
VERTEX
8
ENGRAVE
10
97.797
20
115.457
30
0
0
VERTEX
8
ENGRAVE
10
97.505
20
115.416
30
0
0
VERTEX
8
ENGRAVE
10
97.463
20
115.666
30
0
0
VERTEX
8
ENGRAVE
10
97.255
20
115.957
30
0
0
VERTEX
8
ENGRAVE
10
97.005
20
116.082
30
0
0
VERTEX
8
ENGRAVE
10
96.672
20
116.082
30
0
0
VERTEX
8
ENGRAVE
10
96.422
20
115.957
30
0
0
VERTEX
8
ENGRAVE
10
96.172
20
115.582
30
0
0
VERTEX
8
ENGRAVE
10
96.088
20
114.707
30
0
0
VERTEX
8
ENGRAVE
10
96.213
20
114.249
30
0
0
VERTEX
8
ENGRAVE
10
96.422
20
113.957
30
0
0
VERTEX
8
ENGRAVE
10
96.672
20
113.832
30
0
0
VERTEX
8
ENGRAVE
10
97.130
20
113.874
30
0
0
VERTEX
8
ENGRAVE
10
97.380
20
114.082
30
0
0
VERTEX
8
ENGRAVE
10
97.505
20
114.499
30
0
0
VERTEX
8
ENGRAVE
10
97.838
20
114.457
30
0
0
VERTEX
8
ENGRAVE
10
97.797
20
114.207
30
0
0
VERTEX
8
ENGRAVE
10
97.588
20
113.832
30
0
0
VERTEX
8
ENGRAVE
10
97.047
20
113.541
30
0
0
VERTEX
8
ENGRAVE
10
96.630
20
113.541
30
0
0
VERTEX
8
ENGRAVE
10
96.213
20
113.707
30
0
0
VERTEX
8
ENGRAVE
10
95.880
20
114.124
30
0
0
VERTEX
8
ENGRAVE
10
95.713
20
114.666
30
0
0
VERTEX
8
ENGRAVE
10
95.713
20
115.291
30
0
0
VERTEX
8
ENGRAVE
10
95.922
20
115.874
30
0
0
VERTEX
8
ENGRAVE
10
96.297
20
116.249
30
0
0
SEQEND
8
ENGRAVE
0
POLYLINE
8
ENGRAVE
66
1
70
1
10
0
20
0
30
0
0
VERTEX
8
ENGRAVE
10
98.422
20
116.332
30
0
0
VERTEX
8
ENGRAVE
10
100.047
20
116.332
30
0
0
VERTEX
8
ENGRAVE
10
100.047
20
116.041
30
0
0
VERTEX
8
ENGRAVE
10
98.672
20
116.041
30
0
0
VERTEX
8
ENGRAVE
10
98.630
20
115.166
30
0
0
VERTEX
8
ENGRAVE
10
99.047
20
115.416
30
0
0
VERTEX
8
ENGRAVE
10
99.547
20
115.416
30
0
0
VERTEX
8
ENGRAVE
10
99.838
20
115.291
30
0
0
VERTEX
8
ENGRAVE
10
100.213
20
114.791
30
0
0
VERTEX
8
ENGRAVE
10
100.213
20
114.249
30
0
0
VERTEX
8
ENGRAVE
10
100.088
20
113.957
30
0
0
VERTEX
8
ENGRAVE
10
99.588
20
113.582
30
0
0
VERTEX
8
ENGRAVE
10
98.797
20
113.582
30
0
0
VERTEX
8
ENGRAVE
10
98.547
20
113.707
30
0
0
VERTEX
8
ENGRAVE
10
98.213
20
114.124
30
0
0
VERTEX
8
ENGRAVE
10
98.213
20
114.207
30
0
0
VERTEX
8
ENGRAVE
10
98.547
20
114.291
30
0
0
VERTEX
8
ENGRAVE
10
98.713
20
113.957
30
0
0
VERTEX
8
ENGRAVE
10
98.963
20
113.832
30
0
0
VERTEX
8
ENGRAVE
10
99.463
20
113.832
30
0
0
VERTEX
8
ENGRAVE
10
99.630
20
113.916
30
0
0
VERTEX
8
ENGRAVE
10
99.880
20
114.249
30
0
0
VERTEX
8
ENGRAVE
10
99.880
20
114.749
30
0
0
VERTEX
8
ENGRAVE
10
99.630
20
115.082
30
0
0
VERTEX
8
ENGRAVE
10
99.088
20
115.166
30
0
0
VERTEX
8
ENGRAVE
10
98.755
20
114.999
30
0
0
VERTEX
8
ENGRAVE
10
98.630
20
114.791
30
0
0
VERTEX
8
ENGRAVE
10
98.338
20
114.832
30
0
0
SEQEND
8
ENGRAVE
0
POLYLINE
8
ENGRAVE
66
1
70
1
10
0
20
0
30
0
0
VERTEX
8
ENGRAVE
10
238.713
20
116.374
30
0
0
VERTEX
8
ENGRAVE
10
239.005
20
116.374
30
0
0
VERTEX
8
ENGRAVE
10
239.380
20
116.249
30
0
0
VERTEX
8
ENGRAVE
10
239.588
20
116.082
30
0
0
VERTEX
8
ENGRAVE
10
239.838
20
115.624
30
0
0
VERTEX
8
ENGRAVE
10
239.797
20
115.457
30
0
0
VERTEX
8
ENGRAVE
10
239.505
20
115.416
30
0
0
VERTEX
8
ENGRAVE
10
239.463
20
115.666
30
0
0
VERTEX
8
ENGRAVE
10
239.255
20
115.957
30
0
0
VERTEX
8
ENGRAVE
10
239.005
20
116.082
30
0
0
VERTEX
8
ENGRAVE
10
238.672
20
116.082
30
0
0
VERTEX
8
ENGRAVE
10
238.422
20
115.957
30
0
0
VERTEX
8
ENGRAVE
10
238.172
20
115.582
30
0
0
VERTEX
8
ENGRAVE
10
238.088
20
114.707
30
0
0
VERTEX
8
ENGRAVE
10
238.213
20
114.249
30
0
0
VERTEX
8
ENGRAVE
10
238.422
20
113.957
30
0
0
VERTEX
8
ENGRAVE
10
238.672
20
113.832
30
0
0
VERTEX
8
ENGRAVE
10
239.130
20
113.874
30
0
0
VERTEX
8
ENGRAVE
10
239.380
20
114.082
30
0
0
VERTEX
8
ENGRAVE
10
239.505
20
114.499
30
0
0
VERTEX
8
ENGRAVE
10
239.838
20
114.457
30
0
0
VERTEX
8
ENGRAVE
10
239.797
20
114.207
30
0
0
VERTEX
8
ENGRAVE
10
239.588
20
113.832
30
0
0
VERTEX
8
ENGRAVE
10
239.047
20
113.541
30
0
0
VERTEX
8
ENGRAVE
10
238.630
20
113.541
30
0
0
VERTEX
8
ENGRAVE
10
238.213
20
113.707
30
0
0
VERTEX
8
ENGRAVE
10
237.880
20
114.124
30
0
0
VERTEX
8
ENGRAVE
10
237.713
20
114.666
30
0
0
VERTEX
8
ENGRAVE
10
237.713
20
115.291
30
0
0
VERTEX
8
ENGRAVE
10
237.922
20
115.874
30
0
0
VERTEX
8
ENGRAVE
10
238.297
20
116.249
30
0
0
SEQEND
8
ENGRAVE
0
POLYLINE
8
ENGRAVE
66
1
70
1
10
0
20
0
30
0
0
VERTEX
8
ENGRAVE
10
240.422
20
116.332
30
0
0
VERTEX
8
ENGRAVE
10
242.047
20
116.332
30
0
0
VERTEX
8
ENGRAVE
10
242.047
20
116.041
30
0
0
VERTEX
8
ENGRAVE
10
240.672
20
116.041
30
0
0
VERTEX
8
ENGRAVE
10
240.630
20
115.166
30
0
0
VERTEX
8
ENGRAVE
10
241.047
20
115.416
30
0
0
VERTEX
8
ENGRAVE
10
241.547
20
115.416
30
0
0
VERTEX
8
ENGRAVE
10
241.838
20
115.291
30
0
0
VERTEX
8
ENGRAVE
10
242.213
20
114.791
30
0
0
VERTEX
8
ENGRAVE
10
242.213
20
114.249
30
0
0
VERTEX
8
ENGRAVE
10
242.088
20
113.957
30
0
0
VERTEX
8
ENGRAVE
10
241.588
20
113.582
30
0
0
VERTEX
8
ENGRAVE
10
240.797
20
113.582
30
0
0
VERTEX
8
ENGRAVE
10
240.547
20
113.707
30
0
0
VERTEX
8
ENGRAVE
10
240.213
20
114.124
30
0
0
VERTEX
8
ENGRAVE
10
240.213
20
114.207
30
0
0
VERTEX
8
ENGRAVE
10
240.547
20
114.291
30
0
0
VERTEX
8
ENGRAVE
10
240.713
20
113.957
30
0
0
VERTEX
8
ENGRAVE
10
240.963
20
113.832
30
0
0
VERTEX
8
ENGRAVE
10
241.463
20
113.832
30
0
0
VERTEX
8
ENGRAVE
10
241.630
20
113.916
30
0
0
VERTEX
8
ENGRAVE
10
241.880
20
114.249
30
0
0
VERTEX
8
ENGRAVE
10
241.880
20
114.749
30
0
0
VERTEX
8
ENGRAVE
10
241.630
20
115.082
30
0
0
VERTEX
8
ENGRAVE
10
241.088
20
115.166
30
0
0
VERTEX
8
ENGRAVE
10
240.755
20
114.999
30
0
0
VERTEX
8
ENGRAVE
10
240.630
20
114.791
30
0
0
VERTEX
8
ENGRAVE
10
240.338
20
114.832
30
0
0
SEQEND
8
ENGRAVE
0
POLYLINE
8
ENGRAVE
66
1
70
1
10
0
20
0
30
0
0
VERTEX
8
ENGRAVE
10
304.992
20
107.029
30
0
0
VERTEX
8
ENGRAVE
10
304.950
20
105.571
30
0
0
VERTEX
8
ENGRAVE
10
304.617
20
105.196
30
0
0
VERTEX
8
ENGRAVE
10
303.992
20
105.196
30
0
0
VERTEX
8
ENGRAVE
10
303.783
20
105.404
30
0
0
VERTEX
8
ENGRAVE
10
303.700
20
105.613
30
0
0
VERTEX
8
ENGRAVE
10
303.575
20
105.321
30
0
0
VERTEX
8
ENGRAVE
10
303.200
20
105.071
30
0
0
VERTEX
8
ENGRAVE
10
302.658
20
105.113
30
0
0
VERTEX
8
ENGRAVE
10
302.367
20
105.363
30
0
0
VERTEX
8
ENGRAVE
10
302.242
20
105.696
30
0
0
VERTEX
8
ENGRAVE
10
302.242
20
107.029
30
0
0
SEQEND
8
ENGRAVE
0
POLYLINE
8
ENGRAVE
66
1
70
1
10
0
20
0
30
0
0
VERTEX
8
ENGRAVE
10
304.992
20
103.488
30
0
0
VERTEX
8
ENGRAVE
10
304.992
20
103.071
30
0
0
VERTEX
8
ENGRAVE
10
303.158
20
103.071
30
0
0
VERTEX
8
ENGRAVE
10
303.158
20
102.613
30
0
0
VERTEX
8
ENGRAVE
10
302.867
20
102.613
30
0
0
VERTEX
8
ENGRAVE
10
302.867
20
103.071
30
0
0
VERTEX
8
ENGRAVE
10
302.242
20
103.071
30
0
0
VERTEX
8
ENGRAVE
10
302.242
20
103.404
30
0
0
VERTEX
8
ENGRAVE
10
302.867
20
103.404
30
0
0
VERTEX
8
ENGRAVE
10
302.867
20
104.738
30
0
0
VERTEX
8
ENGRAVE
10
303.158
20
104.738
30
0
0
SEQEND
8
ENGRAVE
0
POLYLINE
8
ENGRAVE
66
1
70
1
10
0
20
0
30
0
0
VERTEX
8
ENGRAVE
10
304.700
20
106.654
30
0
0
VERTEX
8
ENGRAVE
10
303.825
20
106.696
30
0
0
VERTEX
8
ENGRAVE
10
303.825
20
105.821
30
0
0
VERTEX
8
ENGRAVE
10
304.033
20
105.529
30
0
0
VERTEX
8
ENGRAVE
10
304.367
20
105.488
30
0
0
VERTEX
8
ENGRAVE
10
304.658
20
105.696
30
0
0
SEQEND
8
ENGRAVE
0
POLYLINE
8
ENGRAVE
66
1
70
1
10
0
20
0
30
0
0
VERTEX
8
ENGRAVE
10
304.658
20
103.404
30
0
0
VERTEX
8
ENGRAVE
10
304.492
20
103.571
30
0
0
VERTEX
8
ENGRAVE
10
303.158
20
104.363
30
0
0
VERTEX
8
ENGRAVE
10
303.158
20
103.404
30
0
0
SEQEND
8
ENGRAVE
0
POLYLINE
8
ENGRAVE
66
1
70
1
10
0
20
0
30
0
0
VERTEX
8
ENGRAVE
10
303.533
20
106.654
30
0
0
VERTEX
8
ENGRAVE
10
302.533
20
106.696
30
0
0
VERTEX
8
ENGRAVE
10
302.533
20
105.821
30
0
0
VERTEX
8
ENGRAVE
10
302.783
20
105.446
30
0
0
VERTEX
8
ENGRAVE
10
303.283
20
105.446
30
0
0
VERTEX
8
ENGRAVE
10
303.492
20
105.654
30
0
0
SEQEND
8
ENGRAVE
0
POLYLINE
8
ENGRAVE
66
1
70
1
10
0
20
0
30
0
0
VERTEX
8
ENGRAVE
10
387.992
20
107.029
30
0
0
VERTEX
8
ENGRAVE
10
387.950
20
105.571
30
0
0
VERTEX
8
ENGRAVE
10
387.617
20
105.196
30
0
0
VERTEX
8
ENGRAVE
10
386.992
20
105.196
30
0
0
VERTEX
8
ENGRAVE
10
386.783
20
105.404
30
0
0
VERTEX
8
ENGRAVE
10
386.700
20
105.613
30
0
0
VERTEX
8
ENGRAVE
10
386.575
20
105.321
30
0
0
VERTEX
8
ENGRAVE
10
386.200
20
105.071
30
0
0
VERTEX
8
ENGRAVE
10
385.658
20
105.113
30
0
0
VERTEX
8
ENGRAVE
10
385.367
20
105.363
30
0
0
VERTEX
8
ENGRAVE
10
385.242
20
105.696
30
0
0
VERTEX
8
ENGRAVE
10
385.242
20
107.029
30
0
0
SEQEND
8
ENGRAVE
0
POLYLINE
8
ENGRAVE
66
1
70
1
10
0
20
0
30
0
0
VERTEX
8
ENGRAVE
10
387.992
20
103.488
30
0
0
VERTEX
8
ENGRAVE
10
387.992
20
103.071
30
0
0
VERTEX
8
ENGRAVE
10
386.158
20
103.071
30
0
0
VERTEX
8
ENGRAVE
10
386.158
20
102.613
30
0
0
VERTEX
8
ENGRAVE
10
385.867
20
102.613
30
0
0
VERTEX
8
ENGRAVE
10
385.867
20
103.071
30
0
0
VERTEX
8
ENGRAVE
10
385.242
20
103.071
30
0
0
VERTEX
8
ENGRAVE
10
385.242
20
103.404
30
0
0
VERTEX
8
ENGRAVE
10
385.867
20
103.404
30
0
0
VERTEX
8
ENGRAVE
10
385.867
20
104.738
30
0
0
VERTEX
8
ENGRAVE
10
386.158
20
104.738
30
0
0
SEQEND
8
ENGRAVE
0
POLYLINE
8
ENGRAVE
66
1
70
1
10
0
20
0
30
0
0
VERTEX
8
ENGRAVE
10
387.700
20
106.654
30
0
0
VERTEX
8
ENGRAVE
10
386.825
20
106.696
30
0
0
VERTEX
8
ENGRAVE
10
386.825
20
105.821
30
0
0
VERTEX
8
ENGRAVE
10
387.033
20
105.529
30
0
0
VERTEX
8
ENGRAVE
10
387.367
20
105.488
30
0
0
VERTEX
8
ENGRAVE
10
387.658
20
105.696
30
0
0
SEQEND
8
ENGRAVE
0
POLYLINE
8
ENGRAVE
66
1
70
1
10
0
20
0
30
0
0
VERTEX
8
ENGRAVE
10
387.658
20
103.404
30
0
0
VERTEX
8
ENGRAVE
10
387.492
20
103.571
30
0
0
VERTEX
8
ENGRAVE
10
386.158
20
104.363
30
0
0
VERTEX
8
ENGRAVE
10
386.158
20
103.404
30
0
0
SEQEND
8
ENGRAVE
0
POLYLINE
8
ENGRAVE
66
1
70
1
10
0
20
0
30
0
0
VERTEX
8
ENGRAVE
10
386.533
20
106.654
30
0
0
VERTEX
8
ENGRAVE
10
385.533
20
106.696
30
0
0
VERTEX
8
ENGRAVE
10
385.533
20
105.821
30
0
0
VERTEX
8
ENGRAVE
10
385.783
20
105.446
30
0
0
VERTEX
8
ENGRAVE
10
386.283
20
105.446
30
0
0
VERTEX
8
ENGRAVE
10
386.492
20
105.654
30
0
0
SEQEND
8
ENGRAVE
0
POLYLINE
8
ENGRAVE
66
1
70
1
10
0
20
0
30
0
0
VERTEX
8
ENGRAVE
10
44.992
20
47.529
30
0
0
VERTEX
8
ENGRAVE
10
44.950
20
46.071
30
0
0
VERTEX
8
ENGRAVE
10
44.617
20
45.696
30
0
0
VERTEX
8
ENGRAVE
10
43.992
20
45.696
30
0
0
VERTEX
8
ENGRAVE
10
43.783
20
45.904
30
0
0
VERTEX
8
ENGRAVE
10
43.700
20
46.113
30
0
0
VERTEX
8
ENGRAVE
10
43.575
20
45.821
30
0
0
VERTEX
8
ENGRAVE
10
43.200
20
45.571
30
0
0
VERTEX
8
ENGRAVE
10
42.658
20
45.613
30
0
0
VERTEX
8
ENGRAVE
10
42.367
20
45.863
30
0
0
VERTEX
8
ENGRAVE
10
42.242
20
46.196
30
0
0
VERTEX
8
ENGRAVE
10
42.242
20
47.529
30
0
0
SEQEND
8
ENGRAVE
0
POLYLINE
8
ENGRAVE
66
1
70
1
10
0
20
0
30
0
0
VERTEX
8
ENGRAVE
10
44.992
20
43.988
30
0
0
VERTEX
8
ENGRAVE
10
44.992
20
43.571
30
0
0
VERTEX
8
ENGRAVE
10
43.158
20
43.571
30
0
0
VERTEX
8
ENGRAVE
10
43.158
20
43.113
30
0
0
VERTEX
8
ENGRAVE
10
42.867
20
43.113
30
0
0
VERTEX
8
ENGRAVE
10
42.867
20
43.571
30
0
0
VERTEX
8
ENGRAVE
10
42.242
20
43.571
30
0
0
VERTEX
8
ENGRAVE
10
42.242
20
43.904
30
0
0
VERTEX
8
ENGRAVE
10
42.867
20
43.904
30
0
0
VERTEX
8
ENGRAVE
10
42.867
20
45.238
30
0
0
VERTEX
8
ENGRAVE
10
43.158
20
45.238
30
0
0
SEQEND
8
ENGRAVE
0
POLYLINE
8
ENGRAVE
66
1
70
1
10
0
20
0
30
0
0
VERTEX
8
ENGRAVE
10
44.700
20
47.154
30
0
0
VERTEX
8
ENGRAVE
10
43.825
20
47.196
30
0
0
VERTEX
8
ENGRAVE
10
43.825
20
46.321
30
0
0
VERTEX
8
ENGRAVE
10
44.033
20
46.029
30
0
0
VERTEX
8
ENGRAVE
10
44.367
20
45.988
30
0
0
VERTEX
8
ENGRAVE
10
44.658
20
46.196
30
0
0
SEQEND
8
ENGRAVE
0
POLYLINE
8
ENGRAVE
66
1
70
1
10
0
20
0
30
0
0
VERTEX
8
ENGRAVE
10
44.658
20
43.904
30
0
0
VERTEX
8
ENGRAVE
10
44.492
20
44.071
30
0
0
VERTEX
8
ENGRAVE
10
43.158
20
44.863
30
0
0
VERTEX
8
ENGRAVE
10
43.158
20
43.904
30
0
0
SEQEND
8
ENGRAVE
0
POLYLINE
8
ENGRAVE
66
1
70
1
10
0
20
0
30
0
0
VERTEX
8
ENGRAVE
10
43.533
20
47.154
30
0
0
VERTEX
8
ENGRAVE
10
42.533
20
47.196
30
0
0
VERTEX
8
ENGRAVE
10
42.533
20
46.321
30
0
0
VERTEX
8
ENGRAVE
10
42.783
20
45.946
30
0
0
VERTEX
8
ENGRAVE
10
43.283
20
45.946
30
0
0
VERTEX
8
ENGRAVE
10
43.492
20
46.154
30
0
0
SEQEND
8
ENGRAVE
0
POLYLINE
8
ENGRAVE
66
1
70
1
10
0
20
0
30
0
0
VERTEX
8
ENGRAVE
10
116.988
20
41.726
30
0
0
VERTEX
8
ENGRAVE
10
116.946
20
41.143
30
0
0
VERTEX
8
ENGRAVE
10
116.821
20
40.893
30
0
0
VERTEX
8
ENGRAVE
10
116.613
20
40.684
30
0
0
VERTEX
8
ENGRAVE
10
116.405
20
40.601
30
0
0
VERTEX
8
ENGRAVE
10
115.988
20
40.643
30
0
0
VERTEX
8
ENGRAVE
10
115.738
20
40.851
30
0
0
VERTEX
8
ENGRAVE
10
115.613
20
41.101
30
0
0
VERTEX
8
ENGRAVE
10
115.571
20
40.851
30
0
0
VERTEX
8
ENGRAVE
10
115.363
20
40.601
30
0
0
VERTEX
8
ENGRAVE
10
115.196
20
40.518
30
0
0
VERTEX
8
ENGRAVE
10
114.738
20
40.518
30
0
0
VERTEX
8
ENGRAVE
10
114.405
20
40.726
30
0
0
VERTEX
8
ENGRAVE
10
114.155
20
41.309
30
0
0
VERTEX
8
ENGRAVE
10
114.196
20
41.976
30
0
0
VERTEX
8
ENGRAVE
10
114.321
20
42.226
30
0
0
VERTEX
8
ENGRAVE
10
114.696
20
42.559
30
0
0
VERTEX
8
ENGRAVE
10
114.863
20
42.518
30
0
0
VERTEX
8
ENGRAVE
10
114.905
20
42.268
30
0
0
VERTEX
8
ENGRAVE
10
114.696
20
42.184
30
0
0
VERTEX
8
ENGRAVE
10
114.446
20
41.851
30
0
0
VERTEX
8
ENGRAVE
10
114.446
20
41.268
30
0
0
VERTEX
8
ENGRAVE
10
114.530
20
41.059
30
0
0
VERTEX
8
ENGRAVE
10
114.738
20
40.893
30
0
0
VERTEX
8
ENGRAVE
10
115.071
20
40.851
30
0
0
VERTEX
8
ENGRAVE
10
115.363
20
41.059
30
0
0
VERTEX
8
ENGRAVE
10
115.488
20
41.434
30
0
0
VERTEX
8
ENGRAVE
10
115.488
20
41.893
30
0
0
VERTEX
8
ENGRAVE
10
115.780
20
41.893
30
0
0
VERTEX
8
ENGRAVE
10
115.780
20
41.268
30
0
0
VERTEX
8
ENGRAVE
10
115.905
20
41.059
30
0
0
VERTEX
8
ENGRAVE
10
116.071
20
40.976
30
0
0
VERTEX
8
ENGRAVE
10
116.488
20
41.018
30
0
0
VERTEX
8
ENGRAVE
10
116.696
20
41.309
30
0
0
VERTEX
8
ENGRAVE
10
116.696
20
41.768
30
0
0
VERTEX
8
ENGRAVE
10
116.613
20
41.934
30
0
0
VERTEX
8
ENGRAVE
10
116.280
20
42.184
30
0
0
VERTEX
8
ENGRAVE
10
116.321
20
42.476
30
0
0
VERTEX
8
ENGRAVE
10
116.738
20
42.268
30
0
0
SEQEND
8
ENGRAVE
0
POLYLINE
8
ENGRAVE
66
1
70
1
10
0
20
0
30
0
0
VERTEX
8
ENGRAVE
10
116.946
20
44.893
30
0
0
VERTEX
8
ENGRAVE
10
116.905
20
43.434
30
0
0
VERTEX
8
ENGRAVE
10
116.571
20
43.059
30
0
0
VERTEX
8
ENGRAVE
10
115.946
20
43.059
30
0
0
VERTEX
8
ENGRAVE
10
115.738
20
43.268
30
0
0
VERTEX
8
ENGRAVE
10
115.655
20
43.476
30
0
0
VERTEX
8
ENGRAVE
10
115.530
20
43.184
30
0
0
VERTEX
8
ENGRAVE
10
115.155
20
42.934
30
0
0
VERTEX
8
ENGRAVE
10
114.613
20
42.976
30
0
0
VERTEX
8
ENGRAVE
10
114.321
20
43.226
30
0
0
VERTEX
8
ENGRAVE
10
114.196
20
43.559
30
0
0
VERTEX
8
ENGRAVE
10
114.196
20
44.893
30
0
0
SEQEND
8
ENGRAVE
0
POLYLINE
8
ENGRAVE
66
1
70
1
10
0
20
0
30
0
0
VERTEX
8
ENGRAVE
10
116.655
20
44.518
30
0
0
VERTEX
8
ENGRAVE
10
115.780
20
44.559
30
0
0
VERTEX
8
ENGRAVE
10
115.780
20
43.684
30
0
0
VERTEX
8
ENGRAVE
10
115.988
20
43.393
30
0
0
VERTEX
8
ENGRAVE
10
116.321
20
43.351
30
0
0
VERTEX
8
ENGRAVE
10
116.613
20
43.559
30
0
0
SEQEND
8
ENGRAVE
0
POLYLINE
8
ENGRAVE
66
1
70
1
10
0
20
0
30
0
0
VERTEX
8
ENGRAVE
10
115.488
20
44.518
30
0
0
VERTEX
8
ENGRAVE
10
114.488
20
44.559
30
0
0
VERTEX
8
ENGRAVE
10
114.488
20
43.684
30
0
0
VERTEX
8
ENGRAVE
10
114.738
20
43.309
30
0
0
VERTEX
8
ENGRAVE
10
115.238
20
43.309
30
0
0
VERTEX
8
ENGRAVE
10
115.446
20
43.518
30
0
0
SEQEND
8
ENGRAVE
0
POLYLINE
8
ENGRAVE
66
1
70
1
10
0
20
0
30
0
0
VERTEX
8
ENGRAVE
10
199.988
20
41.726
30
0
0
VERTEX
8
ENGRAVE
10
199.946
20
41.143
30
0
0
VERTEX
8
ENGRAVE
10
199.821
20
40.893
30
0
0
VERTEX
8
ENGRAVE
10
199.613
20
40.684
30
0
0
VERTEX
8
ENGRAVE
10
199.405
20
40.601
30
0
0
VERTEX
8
ENGRAVE
10
198.988
20
40.643
30
0
0
VERTEX
8
ENGRAVE
10
198.738
20
40.851
30
0
0
VERTEX
8
ENGRAVE
10
198.613
20
41.101
30
0
0
VERTEX
8
ENGRAVE
10
198.571
20
40.851
30
0
0
VERTEX
8
ENGRAVE
10
198.363
20
40.601
30
0
0
VERTEX
8
ENGRAVE
10
198.196
20
40.518
30
0
0
VERTEX
8
ENGRAVE
10
197.738
20
40.518
30
0
0
VERTEX
8
ENGRAVE
10
197.405
20
40.726
30
0
0
VERTEX
8
ENGRAVE
10
197.155
20
41.309
30
0
0
VERTEX
8
ENGRAVE
10
197.196
20
41.976
30
0
0
VERTEX
8
ENGRAVE
10
197.321
20
42.226
30
0
0
VERTEX
8
ENGRAVE
10
197.696
20
42.559
30
0
0
VERTEX
8
ENGRAVE
10
197.863
20
42.518
30
0
0
VERTEX
8
ENGRAVE
10
197.905
20
42.268
30
0
0
VERTEX
8
ENGRAVE
10
197.696
20
42.184
30
0
0
VERTEX
8
ENGRAVE
10
197.446
20
41.851
30
0
0
VERTEX
8
ENGRAVE
10
197.446
20
41.268
30
0
0
VERTEX
8
ENGRAVE
10
197.530
20
41.059
30
0
0
VERTEX
8
ENGRAVE
10
197.738
20
40.893
30
0
0
VERTEX
8
ENGRAVE
10
198.071
20
40.851
30
0
0
VERTEX
8
ENGRAVE
10
198.363
20
41.059
30
0
0
VERTEX
8
ENGRAVE
10
198.488
20
41.434
30
0
0
VERTEX
8
ENGRAVE
10
198.488
20
41.893
30
0
0
VERTEX
8
ENGRAVE
10
198.780
20
41.893
30
0
0
VERTEX
8
ENGRAVE
10
198.780
20
41.268
30
0
0
VERTEX
8
ENGRAVE
10
198.905
20
41.059
30
0
0
VERTEX
8
ENGRAVE
10
199.071
20
40.976
30
0
0
VERTEX
8
ENGRAVE
10
199.488
20
41.018
30
0
0
VERTEX
8
ENGRAVE
10
199.696
20
41.309
30
0
0
VERTEX
8
ENGRAVE
10
199.696
20
41.768
30
0
0
VERTEX
8
ENGRAVE
10
199.613
20
41.934
30
0
0
VERTEX
8
ENGRAVE
10
199.280
20
42.184
30
0
0
VERTEX
8
ENGRAVE
10
199.321
20
42.476
30
0
0
VERTEX
8
ENGRAVE
10
199.738
20
42.268
30
0
0
SEQEND
8
ENGRAVE
0
POLYLINE
8
ENGRAVE
66
1
70
1
10
0
20
0
30
0
0
VERTEX
8
ENGRAVE
10
199.946
20
44.893
30
0
0
VERTEX
8
ENGRAVE
10
199.905
20
43.434
30
0
0
VERTEX
8
ENGRAVE
10
199.571
20
43.059
30
0
0
VERTEX
8
ENGRAVE
10
198.946
20
43.059
30
0
0
VERTEX
8
ENGRAVE
10
198.738
20
43.268
30
0
0
VERTEX
8
ENGRAVE
10
198.655
20
43.476
30
0
0
VERTEX
8
ENGRAVE
10
198.530
20
43.184
30
0
0
VERTEX
8
ENGRAVE
10
198.155
20
42.934
30
0
0
VERTEX
8
ENGRAVE
10
197.613
20
42.976
30
0
0
VERTEX
8
ENGRAVE
10
197.321
20
43.226
30
0
0
VERTEX
8
ENGRAVE
10
197.196
20
43.559
30
0
0
VERTEX
8
ENGRAVE
10
197.196
20
44.893
30
0
0
SEQEND
8
ENGRAVE
0
POLYLINE
8
ENGRAVE
66
1
70
1
10
0
20
0
30
0
0
VERTEX
8
ENGRAVE
10
199.655
20
44.518
30
0
0
VERTEX
8
ENGRAVE
10
198.780
20
44.559
30
0
0
VERTEX
8
ENGRAVE
10
198.780
20
43.684
30
0
0
VERTEX
8
ENGRAVE
10
198.988
20
43.393
30
0
0
VERTEX
8
ENGRAVE
10
199.321
20
43.351
30
0
0
VERTEX
8
ENGRAVE
10
199.613
20
43.559
30
0
0
SEQEND
8
ENGRAVE
0
POLYLINE
8
ENGRAVE
66
1
70
1
10
0
20
0
30
0
0
VERTEX
8
ENGRAVE
10
198.488
20
44.518
30
0
0
VERTEX
8
ENGRAVE
10
197.488
20
44.559
30
0
0
VERTEX
8
ENGRAVE
10
197.488
20
43.684
30
0
0
VERTEX
8
ENGRAVE
10
197.738
20
43.309
30
0
0
VERTEX
8
ENGRAVE
10
198.238
20
43.309
30
0
0
VERTEX
8
ENGRAVE
10
198.446
20
43.518
30
0
0
SEQEND
8
ENGRAVE
0
POLYLINE
8
ENGRAVE
66
1
70
1
10
0
20
0
30
0
0
VERTEX
8
ENGRAVE
10
282.988
20
41.226
30
0
0
VERTEX
8
ENGRAVE
10
282.946
20
40.643
30
0
0
VERTEX
8
ENGRAVE
10
282.821
20
40.393
30
0
0
VERTEX
8
ENGRAVE
10
282.613
20
40.184
30
0
0
VERTEX
8
ENGRAVE
10
282.405
20
40.101
30
0
0
VERTEX
8
ENGRAVE
10
281.988
20
40.143
30
0
0
VERTEX
8
ENGRAVE
10
281.738
20
40.351
30
0
0
VERTEX
8
ENGRAVE
10
281.613
20
40.601
30
0
0
VERTEX
8
ENGRAVE
10
281.571
20
40.351
30
0
0
VERTEX
8
ENGRAVE
10
281.363
20
40.101
30
0
0
VERTEX
8
ENGRAVE
10
281.196
20
40.018
30
0
0
VERTEX
8
ENGRAVE
10
280.738
20
40.018
30
0
0
VERTEX
8
ENGRAVE
10
280.405
20
40.226
30
0
0
VERTEX
8
ENGRAVE
10
280.155
20
40.809
30
0
0
VERTEX
8
ENGRAVE
10
280.196
20
41.476
30
0
0
VERTEX
8
ENGRAVE
10
280.321
20
41.726
30
0
0
VERTEX
8
ENGRAVE
10
280.696
20
42.059
30
0
0
VERTEX
8
ENGRAVE
10
280.863
20
42.018
30
0
0
VERTEX
8
ENGRAVE
10
280.905
20
41.768
30
0
0
VERTEX
8
ENGRAVE
10
280.696
20
41.684
30
0
0
VERTEX
8
ENGRAVE
10
280.446
20
41.351
30
0
0
VERTEX
8
ENGRAVE
10
280.446
20
40.768
30
0
0
VERTEX
8
ENGRAVE
10
280.530
20
40.559
30
0
0
VERTEX
8
ENGRAVE
10
280.738
20
40.393
30
0
0
VERTEX
8
ENGRAVE
10
281.071
20
40.351
30
0
0
VERTEX
8
ENGRAVE
10
281.363
20
40.559
30
0
0
VERTEX
8
ENGRAVE
10
281.488
20
40.934
30
0
0
VERTEX
8
ENGRAVE
10
281.488
20
41.393
30
0
0
VERTEX
8
ENGRAVE
10
281.780
20
41.393
30
0
0
VERTEX
8
ENGRAVE
10
281.780
20
40.768
30
0
0
VERTEX
8
ENGRAVE
10
281.905
20
40.559
30
0
0
VERTEX
8
ENGRAVE
10
282.071
20
40.476
30
0
0
VERTEX
8
ENGRAVE
10
282.488
20
40.518
30
0
0
VERTEX
8
ENGRAVE
10
282.696
20
40.809
30
0
0
VERTEX
8
ENGRAVE
10
282.696
20
41.268
30
0
0
VERTEX
8
ENGRAVE
10
282.613
20
41.434
30
0
0
VERTEX
8
ENGRAVE
10
282.280
20
41.684
30
0
0
VERTEX
8
ENGRAVE
10
282.321
20
41.976
30
0
0
VERTEX
8
ENGRAVE
10
282.738
20
41.768
30
0
0
SEQEND
8
ENGRAVE
0
POLYLINE
8
ENGRAVE
66
1
70
1
10
0
20
0
30
0
0
VERTEX
8
ENGRAVE
10
282.946
20
44.393
30
0
0
VERTEX
8
ENGRAVE
10
282.905
20
42.934
30
0
0
VERTEX
8
ENGRAVE
10
282.571
20
42.559
30
0
0
VERTEX
8
ENGRAVE
10
281.946
20
42.559
30
0
0
VERTEX
8
ENGRAVE
10
281.738
20
42.768
30
0
0
VERTEX
8
ENGRAVE
10
281.655
20
42.976
30
0
0
VERTEX
8
ENGRAVE
10
281.530
20
42.684
30
0
0
VERTEX
8
ENGRAVE
10
281.155
20
42.434
30
0
0
VERTEX
8
ENGRAVE
10
280.613
20
42.476
30
0
0
VERTEX
8
ENGRAVE
10
280.321
20
42.726
30
0
0
VERTEX
8
ENGRAVE
10
280.196
20
43.059
30
0
0
VERTEX
8
ENGRAVE
10
280.196
20
44.393
30
0
0
SEQEND
8
ENGRAVE
0
POLYLINE
8
ENGRAVE
66
1
70
1
10
0
20
0
30
0
0
VERTEX
8
ENGRAVE
10
282.655
20
44.018
30
0
0
VERTEX
8
ENGRAVE
10
281.780
20
44.059
30
0
0
VERTEX
8
ENGRAVE
10
281.780
20
43.184
30
0
0
VERTEX
8
ENGRAVE
10
281.988
20
42.893
30
0
0
VERTEX
8
ENGRAVE
10
282.321
20
42.851
30
0
0
VERTEX
8
ENGRAVE
10
282.613
20
43.059
30
0
0
SEQEND
8
ENGRAVE
0
POLYLINE
8
ENGRAVE
66
1
70
1
10
0
20
0
30
0
0
VERTEX
8
ENGRAVE
10
281.488
20
44.018
30
0
0
VERTEX
8
ENGRAVE
10
280.488
20
44.059
30
0
0
VERTEX
8
ENGRAVE
10
280.488
20
43.184
30
0
0
VERTEX
8
ENGRAVE
10
280.738
20
42.809
30
0
0
VERTEX
8
ENGRAVE
10
281.238
20
42.809
30
0
0
VERTEX
8
ENGRAVE
10
281.446
20
43.018
30
0
0
SEQEND
8
ENGRAVE
0
POLYLINE
8
ENGRAVE
66
1
70
1
10
0
20
0
30
0
0
VERTEX
8
ENGRAVE
10
413.075
20
57.925
30
0
0
VERTEX
8
ENGRAVE
10
412.635
20
60.706
30
0
0
VERTEX
8
ENGRAVE
10
411.356
20
63.215
30
0
0
VERTEX
8
ENGRAVE
10
409.365
20
65.206
30
0
0
VERTEX
8
ENGRAVE
10
406.856
20
66.485
30
0
0
VERTEX
8
ENGRAVE
10
404.075
20
66.925
30
0
0
VERTEX
8
ENGRAVE
10
350.075
20
66.925
30
0
0
VERTEX
8
ENGRAVE
10
347.294
20
66.485
30
0
0
VERTEX
8
ENGRAVE
10
344.785
20
65.206
30
0
0
VERTEX
8
ENGRAVE
10
342.794
20
63.215
30
0
0
VERTEX
8
ENGRAVE
10
341.515
20
60.706
30
0
0
VERTEX
8
ENGRAVE
10
341.075
20
57.925
30
0
0
VERTEX
8
ENGRAVE
10
341.075
20
49.925
30
0
0
VERTEX
8
ENGRAVE
10
341.515
20
47.144
30
0
0
VERTEX
8
ENGRAVE
10
342.794
20
44.635
30
0
0
VERTEX
8
ENGRAVE
10
344.785
20
42.644
30
0
0
VERTEX
8
ENGRAVE
10
347.294
20
41.365
30
0
0
VERTEX
8
ENGRAVE
10
350.075
20
40.925
30
0
0
VERTEX
8
ENGRAVE
10
404.075
20
40.925
30
0
0
VERTEX
8
ENGRAVE
10
406.856
20
41.365
30
0
0
VERTEX
8
ENGRAVE
10
409.365
20
42.644
30
0
0
VERTEX
8
ENGRAVE
10
411.356
20
44.635
30
0
0
VERTEX
8
ENGRAVE
10
412.635
20
47.144
30
0
0
VERTEX
8
ENGRAVE
10
413.075
20
49.925
30
0
0
SEQEND
8
ENGRAVE
0
POLYLINE
8
CUT
66
1
70
1
10
0
20
0
30
0
0
VERTEX
8
CUT
10
87.452
20
226.925
30
0
0
VERTEX
8
CUT
10
87.613
20
227.629
30
0
0
VERTEX
8
CUT
10
88.063
20
228.194
30
0
0
VERTEX
8
CUT
10
88.714
20
228.507
30
0
0
VERTEX
8
CUT
10
89.436
20
228.507
30
0
0
VERTEX
8
CUT
10
90.087
20
228.194
30
0
0
VERTEX
8
CUT
10
90.537
20
227.629
30
0
0
VERTEX
8
CUT
10
90.698
20
226.925
30
0
0
VERTEX
8
CUT
10
90.537
20
226.221
30
0
0
VERTEX
8
CUT
10
90.087
20
225.656
30
0
0
VERTEX
8
CUT
10
89.436
20
225.343
30
0
0
VERTEX
8
CUT
10
88.714
20
225.343
30
0
0
VERTEX
8
CUT
10
88.063
20
225.656
30
0
0
VERTEX
8
CUT
10
87.613
20
226.221
30
0
0
SEQEND
8
CUT
0
POLYLINE
8
CUT
66
1
70
1
10
0
20
0
30
0
0
VERTEX
8
CUT
10
46.452
20
226.925
30
0
0
VERTEX
8
CUT
10
46.613
20
227.629
30
0
0
VERTEX
8
CUT
10
47.063
20
228.194
30
0
0
VERTEX
8
CUT
10
47.714
20
228.507
30
0
0
VERTEX
8
CUT
10
48.436
20
228.507
30
0
0
VERTEX
8
CUT
10
49.087
20
228.194
30
0
0
VERTEX
8
CUT
10
49.537
20
227.629
30
0
0
VERTEX
8
CUT
10
49.698
20
226.925
30
0
0
VERTEX
8
CUT
10
49.537
20
226.221
30
0
0
VERTEX
8
CUT
10
49.087
20
225.656
30
0
0
VERTEX
8
CUT
10
48.436
20
225.343
30
0
0
VERTEX
8
CUT
10
47.714
20
225.343
30
0
0
VERTEX
8
CUT
10
47.063
20
225.656
30
0
0
VERTEX
8
CUT
10
46.613
20
226.221
30
0
0
SEQEND
8
CUT
0
POLYLINE
8
CUT
66
1
70
1
10
0
20
0
30
0
0
VERTEX
8
CUT
10
9.050
20
233.450
30
0
0
VERTEX
8
CUT
10
6.100
20
233.450
30
0
0
VERTEX
8
CUT
10
6.100
20
243.400
30
0
0
VERTEX
8
CUT
10
9.050
20
243.400
30
0
0
SEQEND
8
CUT
0
POLYLINE
8
CUT
66
1
70
1
10
0
20
0
30
0
0
VERTEX
8
CUT
10
9.050
20
272.450
30
0
0
VERTEX
8
CUT
10
6.100
20
272.450
30
0
0
VERTEX
8
CUT
10
6.100
20
282.400
30
0
0
VERTEX
8
CUT
10
9.050
20
282.400
30
0
0
SEQEND
8
CUT
0
POLYLINE
8
CUT
66
1
70
1
10
0
20
0
30
0
0
VERTEX
8
CUT
10
100.050
20
233.450
30
0
0
VERTEX
8
CUT
10
97.100
20
233.450
30
0
0
VERTEX
8
CUT
10
97.100
20
243.400
30
0
0
VERTEX
8
CUT
10
100.050
20
243.400
30
0
0
SEQEND
8
CUT
0
POLYLINE
8
CUT
66
1
70
1
10
0
20
0
30
0
0
VERTEX
8
CUT
10
100.050
20
272.450
30
0
0
VERTEX
8
CUT
10
97.100
20
272.450
30
0
0
VERTEX
8
CUT
10
97.100
20
282.400
30
0
0
VERTEX
8
CUT
10
100.050
20
282.400
30
0
0
SEQEND
8
CUT
0
POLYLINE
8
CUT
66
1
70
1
10
0
20
0
30
0
0
VERTEX
8
CUT
10
101.080
20
218.850
30
0
0
VERTEX
8
CUT
10
5.070
20
218.850
30
0
0
VERTEX
8
CUT
10
4.538
20
218.920
30
0
0
VERTEX
8
CUT
10
4.037
20
219.127
30
0
0
VERTEX
8
CUT
10
3.607
20
219.457
30
0
0
VERTEX
8
CUT
10
3.277
20
219.887
30
0
0
VERTEX
8
CUT
10
3.070
20
220.388
30
0
0
VERTEX
8
CUT
10
3.000
20
220.920
30
0
0
VERTEX
8
CUT
10
3.000
20
294.930
30
0
0
VERTEX
8
CUT
10
3.070
20
295.462
30
0
0
VERTEX
8
CUT
10
3.277
20
295.963
30
0
0
VERTEX
8
CUT
10
3.607
20
296.393
30
0
0
VERTEX
8
CUT
10
4.037
20
296.723
30
0
0
VERTEX
8
CUT
10
4.538
20
296.930
30
0
0
VERTEX
8
CUT
10
5.070
20
297.000
30
0
0
VERTEX
8
CUT
10
101.080
20
297.000
30
0
0
VERTEX
8
CUT
10
101.612
20
296.930
30
0
0
VERTEX
8
CUT
10
102.113
20
296.723
30
0
0
VERTEX
8
CUT
10
102.543
20
296.393
30
0
0
VERTEX
8
CUT
10
102.873
20
295.963
30
0
0
VERTEX
8
CUT
10
103.080
20
295.462
30
0
0
VERTEX
8
CUT
10
103.150
20
294.930
30
0
0
VERTEX
8
CUT
10
103.150
20
220.920
30
0
0
VERTEX
8
CUT
10
103.080
20
220.388
30
0
0
VERTEX
8
CUT
10
102.873
20
219.887
30
0
0
VERTEX
8
CUT
10
102.543
20
219.457
30
0
0
VERTEX
8
CUT
10
102.113
20
219.127
30
0
0
VERTEX
8
CUT
10
101.612
20
218.920
30
0
0
SEQEND
8
CUT
0
POLYLINE
8
CUT
66
1
70
1
10
0
20
0
30
0
0
VERTEX
8
CUT
10
120.698
20
226.925
30
0
0
VERTEX
8
CUT
10
120.537
20
227.629
30
0
0
VERTEX
8
CUT
10
120.087
20
228.194
30
0
0
VERTEX
8
CUT
10
119.436
20
228.507
30
0
0
VERTEX
8
CUT
10
118.714
20
228.507
30
0
0
VERTEX
8
CUT
10
118.063
20
228.194
30
0
0
VERTEX
8
CUT
10
117.613
20
227.629
30
0
0
VERTEX
8
CUT
10
117.452
20
226.925
30
0
0
VERTEX
8
CUT
10
117.613
20
226.221
30
0
0
VERTEX
8
CUT
10
118.063
20
225.656
30
0
0
VERTEX
8
CUT
10
118.714
20
225.343
30
0
0
VERTEX
8
CUT
10
119.436
20
225.343
30
0
0
VERTEX
8
CUT
10
120.087
20
225.656
30
0
0
VERTEX
8
CUT
10
120.537
20
226.221
30
0
0
SEQEND
8
CUT
0
POLYLINE
8
CUT
66
1
70
1
10
0
20
0
30
0
0
VERTEX
8
CUT
10
161.698
20
226.925
30
0
0
VERTEX
8
CUT
10
161.537
20
227.629
30
0
0
VERTEX
8
CUT
10
161.087
20
228.194
30
0
0
VERTEX
8
CUT
10
160.436
20
228.507
30
0
0
VERTEX
8
CUT
10
159.714
20
228.507
30
0
0
VERTEX
8
CUT
10
159.063
20
228.194
30
0
0
VERTEX
8
CUT
10
158.613
20
227.629
30
0
0
VERTEX
8
CUT
10
158.452
20
226.925
30
0
0
VERTEX
8
CUT
10
158.613
20
226.221
30
0
0
VERTEX
8
CUT
10
159.063
20
225.656
30
0
0
VERTEX
8
CUT
10
159.714
20
225.343
30
0
0
VERTEX
8
CUT
10
160.436
20
225.343
30
0
0
VERTEX
8
CUT
10
161.087
20
225.656
30
0
0
VERTEX
8
CUT
10
161.537
20
226.221
30
0
0
SEQEND
8
CUT
0
POLYLINE
8
CUT
66
1
70
1
10
0
20
0
30
0
0
VERTEX
8
CUT
10
199.100
20
272.450
30
0
0
VERTEX
8
CUT
10
202.050
20
272.450
30
0
0
VERTEX
8
CUT
10
202.050
20
282.400
30
0
0
VERTEX
8
CUT
10
199.100
20
282.400
30
0
0
SEQEND
8
CUT
0
POLYLINE
8
CUT
66
1
70
1
10
0
20
0
30
0
0
VERTEX
8
CUT
10
199.100
20
233.450
30
0
0
VERTEX
8
CUT
10
202.050
20
233.450
30
0
0
VERTEX
8
CUT
10
202.050
20
243.400
30
0
0
VERTEX
8
CUT
10
199.100
20
243.400
30
0
0
SEQEND
8
CUT
0
POLYLINE
8
CUT
66
1
70
1
10
0
20
0
30
0
0
VERTEX
8
CUT
10
108.100
20
272.450
30
0
0
VERTEX
8
CUT
10
111.050
20
272.450
30
0
0
VERTEX
8
CUT
10
111.050
20
282.400
30
0
0
VERTEX
8
CUT
10
108.100
20
282.400
30
0
0
SEQEND
8
CUT
0
POLYLINE
8
CUT
66
1
70
1
10
0
20
0
30
0
0
VERTEX
8
CUT
10
108.100
20
233.450
30
0
0
VERTEX
8
CUT
10
111.050
20
233.450
30
0
0
VERTEX
8
CUT
10
111.050
20
243.400
30
0
0
VERTEX
8
CUT
10
108.100
20
243.400
30
0
0
SEQEND
8
CUT
0
POLYLINE
8
CUT
66
1
70
1
10
0
20
0
30
0
0
VERTEX
8
CUT
10
107.070
20
218.850
30
0
0
VERTEX
8
CUT
10
203.080
20
218.850
30
0
0
VERTEX
8
CUT
10
203.612
20
218.920
30
0
0
VERTEX
8
CUT
10
204.113
20
219.127
30
0
0
VERTEX
8
CUT
10
204.543
20
219.457
30
0
0
VERTEX
8
CUT
10
204.873
20
219.887
30
0
0
VERTEX
8
CUT
10
205.080
20
220.388
30
0
0
VERTEX
8
CUT
10
205.150
20
220.920
30
0
0
VERTEX
8
CUT
10
205.150
20
294.930
30
0
0
VERTEX
8
CUT
10
205.080
20
295.462
30
0
0
VERTEX
8
CUT
10
204.873
20
295.963
30
0
0
VERTEX
8
CUT
10
204.543
20
296.393
30
0
0
VERTEX
8
CUT
10
204.113
20
296.723
30
0
0
VERTEX
8
CUT
10
203.612
20
296.930
30
0
0
VERTEX
8
CUT
10
203.080
20
297.000
30
0
0
VERTEX
8
CUT
10
107.070
20
297.000
30
0
0
VERTEX
8
CUT
10
106.538
20
296.930
30
0
0
VERTEX
8
CUT
10
106.037
20
296.723
30
0
0
VERTEX
8
CUT
10
105.607
20
296.393
30
0
0
VERTEX
8
CUT
10
105.277
20
295.963
30
0
0
VERTEX
8
CUT
10
105.070
20
295.462
30
0
0
VERTEX
8
CUT
10
105.000
20
294.930
30
0
0
VERTEX
8
CUT
10
105.000
20
220.920
30
0
0
VERTEX
8
CUT
10
105.070
20
220.388
30
0
0
VERTEX
8
CUT
10
105.277
20
219.887
30
0
0
VERTEX
8
CUT
10
105.607
20
219.457
30
0
0
VERTEX
8
CUT
10
106.037
20
219.127
30
0
0
VERTEX
8
CUT
10
106.538
20
218.920
30
0
0
SEQEND
8
CUT
0
POLYLINE
8
CUT
66
1
70
1
10
0
20
0
30
0
0
VERTEX
8
CUT
10
291.452
20
226.925
30
0
0
VERTEX
8
CUT
10
291.613
20
227.629
30
0
0
VERTEX
8
CUT
10
292.063
20
228.194
30
0
0
VERTEX
8
CUT
10
292.714
20
228.507
30
0
0
VERTEX
8
CUT
10
293.436
20
228.507
30
0
0
VERTEX
8
CUT
10
294.087
20
228.194
30
0
0
VERTEX
8
CUT
10
294.537
20
227.629
30
0
0
VERTEX
8
CUT
10
294.698
20
226.925
30
0
0
VERTEX
8
CUT
10
294.537
20
226.221
30
0
0
VERTEX
8
CUT
10
294.087
20
225.656
30
0
0
VERTEX
8
CUT
10
293.436
20
225.343
30
0
0
VERTEX
8
CUT
10
292.714
20
225.343
30
0
0
VERTEX
8
CUT
10
292.063
20
225.656
30
0
0
VERTEX
8
CUT
10
291.613
20
226.221
30
0
0
SEQEND
8
CUT
0
POLYLINE
8
CUT
66
1
70
1
10
0
20
0
30
0
0
VERTEX
8
CUT
10
250.452
20
226.925
30
0
0
VERTEX
8
CUT
10
250.613
20
227.629
30
0
0
VERTEX
8
CUT
10
251.063
20
228.194
30
0
0
VERTEX
8
CUT
10
251.714
20
228.507
30
0
0
VERTEX
8
CUT
10
252.436
20
228.507
30
0
0
VERTEX
8
CUT
10
253.087
20
228.194
30
0
0
VERTEX
8
CUT
10
253.537
20
227.629
30
0
0
VERTEX
8
CUT
10
253.698
20
226.925
30
0
0
VERTEX
8
CUT
10
253.537
20
226.221
30
0
0
VERTEX
8
CUT
10
253.087
20
225.656
30
0
0
VERTEX
8
CUT
10
252.436
20
225.343
30
0
0
VERTEX
8
CUT
10
251.714
20
225.343
30
0
0
VERTEX
8
CUT
10
251.063
20
225.656
30
0
0
VERTEX
8
CUT
10
250.613
20
226.221
30
0
0
SEQEND
8
CUT
0
POLYLINE
8
CUT
66
1
70
1
10
0
20
0
30
0
0
VERTEX
8
CUT
10
213.050
20
233.450
30
0
0
VERTEX
8
CUT
10
210.100
20
233.450
30
0
0
VERTEX
8
CUT
10
210.100
20
243.400
30
0
0
VERTEX
8
CUT
10
213.050
20
243.400
30
0
0
SEQEND
8
CUT
0
POLYLINE
8
CUT
66
1
70
1
10
0
20
0
30
0
0
VERTEX
8
CUT
10
213.050
20
272.450
30
0
0
VERTEX
8
CUT
10
210.100
20
272.450
30
0
0
VERTEX
8
CUT
10
210.100
20
282.400
30
0
0
VERTEX
8
CUT
10
213.050
20
282.400
30
0
0
SEQEND
8
CUT
0
POLYLINE
8
CUT
66
1
70
1
10
0
20
0
30
0
0
VERTEX
8
CUT
10
304.050
20
233.450
30
0
0
VERTEX
8
CUT
10
301.100
20
233.450
30
0
0
VERTEX
8
CUT
10
301.100
20
243.400
30
0
0
VERTEX
8
CUT
10
304.050
20
243.400
30
0
0
SEQEND
8
CUT
0
POLYLINE
8
CUT
66
1
70
1
10
0
20
0
30
0
0
VERTEX
8
CUT
10
304.050
20
272.450
30
0
0
VERTEX
8
CUT
10
301.100
20
272.450
30
0
0
VERTEX
8
CUT
10
301.100
20
282.400
30
0
0
VERTEX
8
CUT
10
304.050
20
282.400
30
0
0
SEQEND
8
CUT
0
POLYLINE
8
CUT
66
1
70
1
10
0
20
0
30
0
0
VERTEX
8
CUT
10
305.080
20
218.850
30
0
0
VERTEX
8
CUT
10
209.070
20
218.850
30
0
0
VERTEX
8
CUT
10
208.538
20
218.920
30
0
0
VERTEX
8
CUT
10
208.037
20
219.127
30
0
0
VERTEX
8
CUT
10
207.607
20
219.457
30
0
0
VERTEX
8
CUT
10
207.277
20
219.887
30
0
0
VERTEX
8
CUT
10
207.070
20
220.388
30
0
0
VERTEX
8
CUT
10
207.000
20
220.920
30
0
0
VERTEX
8
CUT
10
207.000
20
294.930
30
0
0
VERTEX
8
CUT
10
207.070
20
295.462
30
0
0
VERTEX
8
CUT
10
207.277
20
295.963
30
0
0
VERTEX
8
CUT
10
207.607
20
296.393
30
0
0
VERTEX
8
CUT
10
208.037
20
296.723
30
0
0
VERTEX
8
CUT
10
208.538
20
296.930
30
0
0
VERTEX
8
CUT
10
209.070
20
297.000
30
0
0
VERTEX
8
CUT
10
305.080
20
297.000
30
0
0
VERTEX
8
CUT
10
305.612
20
296.930
30
0
0
VERTEX
8
CUT
10
306.113
20
296.723
30
0
0
VERTEX
8
CUT
10
306.543
20
296.393
30
0
0
VERTEX
8
CUT
10
306.873
20
295.963
30
0
0
VERTEX
8
CUT
10
307.080
20
295.462
30
0
0
VERTEX
8
CUT
10
307.150
20
294.930
30
0
0
VERTEX
8
CUT
10
307.150
20
220.920
30
0
0
VERTEX
8
CUT
10
307.080
20
220.388
30
0
0
VERTEX
8
CUT
10
306.873
20
219.887
30
0
0
VERTEX
8
CUT
10
306.543
20
219.457
30
0
0
VERTEX
8
CUT
10
306.113
20
219.127
30
0
0
VERTEX
8
CUT
10
305.612
20
218.920
30
0
0
SEQEND
8
CUT
0
POLYLINE
8
CUT
66
1
70
1
10
0
20
0
30
0
0
VERTEX
8
CUT
10
324.698
20
226.925
30
0
0
VERTEX
8
CUT
10
324.537
20
227.629
30
0
0
VERTEX
8
CUT
10
324.087
20
228.194
30
0
0
VERTEX
8
CUT
10
323.436
20
228.507
30
0
0
VERTEX
8
CUT
10
322.714
20
228.507
30
0
0
VERTEX
8
CUT
10
322.063
20
228.194
30
0
0
VERTEX
8
CUT
10
321.613
20
227.629
30
0
0
VERTEX
8
CUT
10
321.452
20
226.925
30
0
0
VERTEX
8
CUT
10
321.613
20
226.221
30
0
0
VERTEX
8
CUT
10
322.063
20
225.656
30
0
0
VERTEX
8
CUT
10
322.714
20
225.343
30
0
0
VERTEX
8
CUT
10
323.436
20
225.343
30
0
0
VERTEX
8
CUT
10
324.087
20
225.656
30
0
0
VERTEX
8
CUT
10
324.537
20
226.221
30
0
0
SEQEND
8
CUT
0
POLYLINE
8
CUT
66
1
70
1
10
0
20
0
30
0
0
VERTEX
8
CUT
10
365.698
20
226.925
30
0
0
VERTEX
8
CUT
10
365.537
20
227.629
30
0
0
VERTEX
8
CUT
10
365.087
20
228.194
30
0
0
VERTEX
8
CUT
10
364.436
20
228.507
30
0
0
VERTEX
8
CUT
10
363.714
20
228.507
30
0
0
VERTEX
8
CUT
10
363.063
20
228.194
30
0
0
VERTEX
8
CUT
10
362.613
20
227.629
30
0
0
VERTEX
8
CUT
10
362.452
20
226.925
30
0
0
VERTEX
8
CUT
10
362.613
20
226.221
30
0
0
VERTEX
8
CUT
10
363.063
20
225.656
30
0
0
VERTEX
8
CUT
10
363.714
20
225.343
30
0
0
VERTEX
8
CUT
10
364.436
20
225.343
30
0
0
VERTEX
8
CUT
10
365.087
20
225.656
30
0
0
VERTEX
8
CUT
10
365.537
20
226.221
30
0
0
SEQEND
8
CUT
0
POLYLINE
8
CUT
66
1
70
1
10
0
20
0
30
0
0
VERTEX
8
CUT
10
403.100
20
272.450
30
0
0
VERTEX
8
CUT
10
406.050
20
272.450
30
0
0
VERTEX
8
CUT
10
406.050
20
282.400
30
0
0
VERTEX
8
CUT
10
403.100
20
282.400
30
0
0
SEQEND
8
CUT
0
POLYLINE
8
CUT
66
1
70
1
10
0
20
0
30
0
0
VERTEX
8
CUT
10
403.100
20
233.450
30
0
0
VERTEX
8
CUT
10
406.050
20
233.450
30
0
0
VERTEX
8
CUT
10
406.050
20
243.400
30
0
0
VERTEX
8
CUT
10
403.100
20
243.400
30
0
0
SEQEND
8
CUT
0
POLYLINE
8
CUT
66
1
70
1
10
0
20
0
30
0
0
VERTEX
8
CUT
10
312.100
20
272.450
30
0
0
VERTEX
8
CUT
10
315.050
20
272.450
30
0
0
VERTEX
8
CUT
10
315.050
20
282.400
30
0
0
VERTEX
8
CUT
10
312.100
20
282.400
30
0
0
SEQEND
8
CUT
0
POLYLINE
8
CUT
66
1
70
1
10
0
20
0
30
0
0
VERTEX
8
CUT
10
312.100
20
233.450
30
0
0
VERTEX
8
CUT
10
315.050
20
233.450
30
0
0
VERTEX
8
CUT
10
315.050
20
243.400
30
0
0
VERTEX
8
CUT
10
312.100
20
243.400
30
0
0
SEQEND
8
CUT
0
POLYLINE
8
CUT
66
1
70
1
10
0
20
0
30
0
0
VERTEX
8
CUT
10
311.070
20
218.850
30
0
0
VERTEX
8
CUT
10
407.080
20
218.850
30
0
0
VERTEX
8
CUT
10
407.612
20
218.920
30
0
0
VERTEX
8
CUT
10
408.113
20
219.127
30
0
0
VERTEX
8
CUT
10
408.543
20
219.457
30
0
0
VERTEX
8
CUT
10
408.873
20
219.887
30
0
0
VERTEX
8
CUT
10
409.080
20
220.388
30
0
0
VERTEX
8
CUT
10
409.150
20
220.920
30
0
0
VERTEX
8
CUT
10
409.150
20
294.930
30
0
0
VERTEX
8
CUT
10
409.080
20
295.462
30
0
0
VERTEX
8
CUT
10
408.873
20
295.963
30
0
0
VERTEX
8
CUT
10
408.543
20
296.393
30
0
0
VERTEX
8
CUT
10
408.113
20
296.723
30
0
0
VERTEX
8
CUT
10
407.612
20
296.930
30
0
0
VERTEX
8
CUT
10
407.080
20
297.000
30
0
0
VERTEX
8
CUT
10
311.070
20
297.000
30
0
0
VERTEX
8
CUT
10
310.538
20
296.930
30
0
0
VERTEX
8
CUT
10
310.037
20
296.723
30
0
0
VERTEX
8
CUT
10
309.607
20
296.393
30
0
0
VERTEX
8
CUT
10
309.277
20
295.963
30
0
0
VERTEX
8
CUT
10
309.070
20
295.462
30
0
0
VERTEX
8
CUT
10
309.000
20
294.930
30
0
0
VERTEX
8
CUT
10
309.000
20
220.920
30
0
0
VERTEX
8
CUT
10
309.070
20
220.388
30
0
0
VERTEX
8
CUT
10
309.277
20
219.887
30
0
0
VERTEX
8
CUT
10
309.607
20
219.457
30
0
0
VERTEX
8
CUT
10
310.037
20
219.127
30
0
0
VERTEX
8
CUT
10
310.538
20
218.920
30
0
0
SEQEND
8
CUT
0
POLYLINE
8
CUT
66
1
70
1
10
0
20
0
30
0
0
VERTEX
8
CUT
10
87.452
20
146.925
30
0
0
VERTEX
8
CUT
10
87.613
20
147.629
30
0
0
VERTEX
8
CUT
10
88.063
20
148.194
30
0
0
VERTEX
8
CUT
10
88.714
20
148.507
30
0
0
VERTEX
8
CUT
10
89.436
20
148.507
30
0
0
VERTEX
8
CUT
10
90.087
20
148.194
30
0
0
VERTEX
8
CUT
10
90.537
20
147.629
30
0
0
VERTEX
8
CUT
10
90.698
20
146.925
30
0
0
VERTEX
8
CUT
10
90.537
20
146.221
30
0
0
VERTEX
8
CUT
10
90.087
20
145.656
30
0
0
VERTEX
8
CUT
10
89.436
20
145.343
30
0
0
VERTEX
8
CUT
10
88.714
20
145.343
30
0
0
VERTEX
8
CUT
10
88.063
20
145.656
30
0
0
VERTEX
8
CUT
10
87.613
20
146.221
30
0
0
SEQEND
8
CUT
0
POLYLINE
8
CUT
66
1
70
1
10
0
20
0
30
0
0
VERTEX
8
CUT
10
46.452
20
146.925
30
0
0
VERTEX
8
CUT
10
46.613
20
147.629
30
0
0
VERTEX
8
CUT
10
47.063
20
148.194
30
0
0
VERTEX
8
CUT
10
47.714
20
148.507
30
0
0
VERTEX
8
CUT
10
48.436
20
148.507
30
0
0
VERTEX
8
CUT
10
49.087
20
148.194
30
0
0
VERTEX
8
CUT
10
49.537
20
147.629
30
0
0
VERTEX
8
CUT
10
49.698
20
146.925
30
0
0
VERTEX
8
CUT
10
49.537
20
146.221
30
0
0
VERTEX
8
CUT
10
49.087
20
145.656
30
0
0
VERTEX
8
CUT
10
48.436
20
145.343
30
0
0
VERTEX
8
CUT
10
47.714
20
145.343
30
0
0
VERTEX
8
CUT
10
47.063
20
145.656
30
0
0
VERTEX
8
CUT
10
46.613
20
146.221
30
0
0
SEQEND
8
CUT
0
POLYLINE
8
CUT
66
1
70
1
10
0
20
0
30
0
0
VERTEX
8
CUT
10
9.050
20
153.450
30
0
0
VERTEX
8
CUT
10
6.100
20
153.450
30
0
0
VERTEX
8
CUT
10
6.100
20
163.400
30
0
0
VERTEX
8
CUT
10
9.050
20
163.400
30
0
0
SEQEND
8
CUT
0
POLYLINE
8
CUT
66
1
70
1
10
0
20
0
30
0
0
VERTEX
8
CUT
10
9.050
20
192.450
30
0
0
VERTEX
8
CUT
10
6.100
20
192.450
30
0
0
VERTEX
8
CUT
10
6.100
20
202.400
30
0
0
VERTEX
8
CUT
10
9.050
20
202.400
30
0
0
SEQEND
8
CUT
0
POLYLINE
8
CUT
66
1
70
1
10
0
20
0
30
0
0
VERTEX
8
CUT
10
100.050
20
153.450
30
0
0
VERTEX
8
CUT
10
97.100
20
153.450
30
0
0
VERTEX
8
CUT
10
97.100
20
163.400
30
0
0
VERTEX
8
CUT
10
100.050
20
163.400
30
0
0
SEQEND
8
CUT
0
POLYLINE
8
CUT
66
1
70
1
10
0
20
0
30
0
0
VERTEX
8
CUT
10
100.050
20
192.450
30
0
0
VERTEX
8
CUT
10
97.100
20
192.450
30
0
0
VERTEX
8
CUT
10
97.100
20
202.400
30
0
0
VERTEX
8
CUT
10
100.050
20
202.400
30
0
0
SEQEND
8
CUT
0
POLYLINE
8
CUT
66
1
70
1
10
0
20
0
30
0
0
VERTEX
8
CUT
10
101.080
20
138.850
30
0
0
VERTEX
8
CUT
10
5.070
20
138.850
30
0
0
VERTEX
8
CUT
10
4.538
20
138.920
30
0
0
VERTEX
8
CUT
10
4.037
20
139.127
30
0
0
VERTEX
8
CUT
10
3.607
20
139.457
30
0
0
VERTEX
8
CUT
10
3.277
20
139.887
30
0
0
VERTEX
8
CUT
10
3.070
20
140.388
30
0
0
VERTEX
8
CUT
10
3.000
20
140.920
30
0
0
VERTEX
8
CUT
10
3.000
20
214.930
30
0
0
VERTEX
8
CUT
10
3.070
20
215.462
30
0
0
VERTEX
8
CUT
10
3.277
20
215.963
30
0
0
VERTEX
8
CUT
10
3.607
20
216.393
30
0
0
VERTEX
8
CUT
10
4.037
20
216.723
30
0
0
VERTEX
8
CUT
10
4.538
20
216.930
30
0
0
VERTEX
8
CUT
10
5.070
20
217.000
30
0
0
VERTEX
8
CUT
10
101.080
20
217.000
30
0
0
VERTEX
8
CUT
10
101.612
20
216.930
30
0
0
VERTEX
8
CUT
10
102.113
20
216.723
30
0
0
VERTEX
8
CUT
10
102.543
20
216.393
30
0
0
VERTEX
8
CUT
10
102.873
20
215.963
30
0
0
VERTEX
8
CUT
10
103.080
20
215.462
30
0
0
VERTEX
8
CUT
10
103.150
20
214.930
30
0
0
VERTEX
8
CUT
10
103.150
20
140.920
30
0
0
VERTEX
8
CUT
10
103.080
20
140.388
30
0
0
VERTEX
8
CUT
10
102.873
20
139.887
30
0
0
VERTEX
8
CUT
10
102.543
20
139.457
30
0
0
VERTEX
8
CUT
10
102.113
20
139.127
30
0
0
VERTEX
8
CUT
10
101.612
20
138.920
30
0
0
SEQEND
8
CUT
0
POLYLINE
8
CUT
66
1
70
1
10
0
20
0
30
0
0
VERTEX
8
CUT
10
165.600
20
151.919
30
0
0
VERTEX
8
CUT
10
165.456
20
152.829
30
0
0
VERTEX
8
CUT
10
165.041
20
153.644
30
0
0
VERTEX
8
CUT
10
164.394
20
154.291
30
0
0
VERTEX
8
CUT
10
163.579
20
154.706
30
0
0
VERTEX
8
CUT
10
162.669
20
154.850
30
0
0
VERTEX
8
CUT
10
148.681
20
154.850
30
0
0
VERTEX
8
CUT
10
147.771
20
154.706
30
0
0
VERTEX
8
CUT
10
146.956
20
154.291
30
0
0
VERTEX
8
CUT
10
146.309
20
153.644
30
0
0
VERTEX
8
CUT
10
145.894
20
152.829
30
0
0
VERTEX
8
CUT
10
145.750
20
151.919
30
0
0
VERTEX
8
CUT
10
145.750
20
145.931
30
0
0
VERTEX
8
CUT
10
145.894
20
145.021
30
0
0
VERTEX
8
CUT
10
146.309
20
144.206
30
0
0
VERTEX
8
CUT
10
146.956
20
143.559
30
0
0
VERTEX
8
CUT
10
147.771
20
143.144
30
0
0
VERTEX
8
CUT
10
148.681
20
143.000
30
0
0
VERTEX
8
CUT
10
162.669
20
143.000
30
0
0
VERTEX
8
CUT
10
163.579
20
143.144
30
0
0
VERTEX
8
CUT
10
164.394
20
143.559
30
0
0
VERTEX
8
CUT
10
165.041
20
144.206
30
0
0
VERTEX
8
CUT
10
165.456
20
145.021
30
0
0
VERTEX
8
CUT
10
165.600
20
145.931
30
0
0
SEQEND
8
CUT
0
POLYLINE
8
CUT
66
1
70
1
10
0
20
0
30
0
0
VERTEX
8
CUT
10
184.296
20
159.975
30
0
0
VERTEX
8
CUT
10
184.120
20
160.516
30
0
0
VERTEX
8
CUT
10
183.660
20
160.851
30
0
0
VERTEX
8
CUT
10
183.090
20
160.851
30
0
0
VERTEX
8
CUT
10
182.630
20
160.516
30
0
0
VERTEX
8
CUT
10
182.454
20
159.975
30
0
0
VERTEX
8
CUT
10
182.630
20
159.434
30
0
0
VERTEX
8
CUT
10
183.090
20
159.099
30
0
0
VERTEX
8
CUT
10
183.660
20
159.099
30
0
0
VERTEX
8
CUT
10
184.120
20
159.434
30
0
0
SEQEND
8
CUT
0
POLYLINE
8
CUT
66
1
70
1
10
0
20
0
30
0
0
VERTEX
8
CUT
10
196.896
20
159.975
30
0
0
VERTEX
8
CUT
10
196.720
20
160.516
30
0
0
VERTEX
8
CUT
10
196.260
20
160.851
30
0
0
VERTEX
8
CUT
10
195.690
20
160.851
30
0
0
VERTEX
8
CUT
10
195.230
20
160.516
30
0
0
VERTEX
8
CUT
10
195.054
20
159.975
30
0
0
VERTEX
8
CUT
10
195.230
20
159.434
30
0
0
VERTEX
8
CUT
10
195.690
20
159.099
30
0
0
VERTEX
8
CUT
10
196.260
20
159.099
30
0
0
VERTEX
8
CUT
10
196.720
20
159.434
30
0
0
SEQEND
8
CUT
0
POLYLINE
8
CUT
66
1
70
1
10
0
20
0
30
0
0
VERTEX
8
CUT
10
108.000
20
138.850
30
0
0
VERTEX
8
CUT
10
114.900
20
138.850
30
0
0
VERTEX
8
CUT
10
114.900
20
135.850
30
0
0
VERTEX
8
CUT
10
125.050
20
135.850
30
0
0
VERTEX
8
CUT
10
125.050
20
138.850
30
0
0
VERTEX
8
CUT
10
186.300
20
138.850
30
0
0
VERTEX
8
CUT
10
186.300
20
135.850
30
0
0
VERTEX
8
CUT
10
196.450
20
135.850
30
0
0
VERTEX
8
CUT
10
196.450
20
138.850
30
0
0
VERTEX
8
CUT
10
203.350
20
138.850
30
0
0
VERTEX
8
CUT
10
203.350
20
152.600
30
0
0
VERTEX
8
CUT
10
206.350
20
152.600
30
0
0
VERTEX
8
CUT
10
206.350
20
162.750
30
0
0
VERTEX
8
CUT
10
203.350
20
162.750
30
0
0
VERTEX
8
CUT
10
203.350
20
190.100
30
0
0
VERTEX
8
CUT
10
206.350
20
190.100
30
0
0
VERTEX
8
CUT
10
206.350
20
200.250
30
0
0
VERTEX
8
CUT
10
203.350
20
200.250
30
0
0
VERTEX
8
CUT
10
203.350
20
214.000
30
0
0
VERTEX
8
CUT
10
196.450
20
214.000
30
0
0
VERTEX
8
CUT
10
196.450
20
217.000
30
0
0
VERTEX
8
CUT
10
186.300
20
217.000
30
0
0
VERTEX
8
CUT
10
186.300
20
214.000
30
0
0
VERTEX
8
CUT
10
125.050
20
214.000
30
0
0
VERTEX
8
CUT
10
125.050
20
217.000
30
0
0
VERTEX
8
CUT
10
114.900
20
217.000
30
0
0
VERTEX
8
CUT
10
114.900
20
214.000
30
0
0
VERTEX
8
CUT
10
108.000
20
214.000
30
0
0
VERTEX
8
CUT
10
108.000
20
200.250
30
0
0
VERTEX
8
CUT
10
105.000
20
200.250
30
0
0
VERTEX
8
CUT
10
105.000
20
190.100
30
0
0
VERTEX
8
CUT
10
108.000
20
190.100
30
0
0
VERTEX
8
CUT
10
108.000
20
162.750
30
0
0
VERTEX
8
CUT
10
105.000
20
162.750
30
0
0
VERTEX
8
CUT
10
105.000
20
152.600
30
0
0
VERTEX
8
CUT
10
108.000
20
152.600
30
0
0
SEQEND
8
CUT
0
POLYLINE
8
CUT
66
1
70
1
10
0
20
0
30
0
0
VERTEX
8
CUT
10
268.600
20
151.919
30
0
0
VERTEX
8
CUT
10
268.456
20
152.829
30
0
0
VERTEX
8
CUT
10
268.041
20
153.644
30
0
0
VERTEX
8
CUT
10
267.394
20
154.291
30
0
0
VERTEX
8
CUT
10
266.579
20
154.706
30
0
0
VERTEX
8
CUT
10
265.669
20
154.850
30
0
0
VERTEX
8
CUT
10
251.681
20
154.850
30
0
0
VERTEX
8
CUT
10
250.771
20
154.706
30
0
0
VERTEX
8
CUT
10
249.956
20
154.291
30
0
0
VERTEX
8
CUT
10
249.309
20
153.644
30
0
0
VERTEX
8
CUT
10
248.894
20
152.829
30
0
0
VERTEX
8
CUT
10
248.750
20
151.919
30
0
0
VERTEX
8
CUT
10
248.750
20
145.931
30
0
0
VERTEX
8
CUT
10
248.894
20
145.021
30
0
0
VERTEX
8
CUT
10
249.309
20
144.206
30
0
0
VERTEX
8
CUT
10
249.956
20
143.559
30
0
0
VERTEX
8
CUT
10
250.771
20
143.144
30
0
0
VERTEX
8
CUT
10
251.681
20
143.000
30
0
0
VERTEX
8
CUT
10
265.669
20
143.000
30
0
0
VERTEX
8
CUT
10
266.579
20
143.144
30
0
0
VERTEX
8
CUT
10
267.394
20
143.559
30
0
0
VERTEX
8
CUT
10
268.041
20
144.206
30
0
0
VERTEX
8
CUT
10
268.456
20
145.021
30
0
0
VERTEX
8
CUT
10
268.600
20
145.931
30
0
0
SEQEND
8
CUT
0
POLYLINE
8
CUT
66
1
70
1
10
0
20
0
30
0
0
VERTEX
8
CUT
10
287.296
20
159.975
30
0
0
VERTEX
8
CUT
10
287.120
20
160.516
30
0
0
VERTEX
8
CUT
10
286.660
20
160.851
30
0
0
VERTEX
8
CUT
10
286.090
20
160.851
30
0
0
VERTEX
8
CUT
10
285.630
20
160.516
30
0
0
VERTEX
8
CUT
10
285.454
20
159.975
30
0
0
VERTEX
8
CUT
10
285.630
20
159.434
30
0
0
VERTEX
8
CUT
10
286.090
20
159.099
30
0
0
VERTEX
8
CUT
10
286.660
20
159.099
30
0
0
VERTEX
8
CUT
10
287.120
20
159.434
30
0
0
SEQEND
8
CUT
0
POLYLINE
8
CUT
66
1
70
1
10
0
20
0
30
0
0
VERTEX
8
CUT
10
299.896
20
159.975
30
0
0
VERTEX
8
CUT
10
299.720
20
160.516
30
0
0
VERTEX
8
CUT
10
299.260
20
160.851
30
0
0
VERTEX
8
CUT
10
298.690
20
160.851
30
0
0
VERTEX
8
CUT
10
298.230
20
160.516
30
0
0
VERTEX
8
CUT
10
298.054
20
159.975
30
0
0
VERTEX
8
CUT
10
298.230
20
159.434
30
0
0
VERTEX
8
CUT
10
298.690
20
159.099
30
0
0
VERTEX
8
CUT
10
299.260
20
159.099
30
0
0
VERTEX
8
CUT
10
299.720
20
159.434
30
0
0
SEQEND
8
CUT
0
POLYLINE
8
CUT
66
1
70
1
10
0
20
0
30
0
0
VERTEX
8
CUT
10
211.000
20
138.850
30
0
0
VERTEX
8
CUT
10
217.900
20
138.850
30
0
0
VERTEX
8
CUT
10
217.900
20
135.850
30
0
0
VERTEX
8
CUT
10
228.050
20
135.850
30
0
0
VERTEX
8
CUT
10
228.050
20
138.850
30
0
0
VERTEX
8
CUT
10
289.300
20
138.850
30
0
0
VERTEX
8
CUT
10
289.300
20
135.850
30
0
0
VERTEX
8
CUT
10
299.450
20
135.850
30
0
0
VERTEX
8
CUT
10
299.450
20
138.850
30
0
0
VERTEX
8
CUT
10
306.350
20
138.850
30
0
0
VERTEX
8
CUT
10
306.350
20
152.600
30
0
0
VERTEX
8
CUT
10
309.350
20
152.600
30
0
0
VERTEX
8
CUT
10
309.350
20
162.750
30
0
0
VERTEX
8
CUT
10
306.350
20
162.750
30
0
0
VERTEX
8
CUT
10
306.350
20
190.100
30
0
0
VERTEX
8
CUT
10
309.350
20
190.100
30
0
0
VERTEX
8
CUT
10
309.350
20
200.250
30
0
0
VERTEX
8
CUT
10
306.350
20
200.250
30
0
0
VERTEX
8
CUT
10
306.350
20
214.000
30
0
0
VERTEX
8
CUT
10
299.450
20
214.000
30
0
0
VERTEX
8
CUT
10
299.450
20
217.000
30
0
0
VERTEX
8
CUT
10
289.300
20
217.000
30
0
0
VERTEX
8
CUT
10
289.300
20
214.000
30
0
0
VERTEX
8
CUT
10
228.050
20
214.000
30
0
0
VERTEX
8
CUT
10
228.050
20
217.000
30
0
0
VERTEX
8
CUT
10
217.900
20
217.000
30
0
0
VERTEX
8
CUT
10
217.900
20
214.000
30
0
0
VERTEX
8
CUT
10
211.000
20
214.000
30
0
0
VERTEX
8
CUT
10
211.000
20
200.250
30
0
0
VERTEX
8
CUT
10
208.000
20
200.250
30
0
0
VERTEX
8
CUT
10
208.000
20
190.100
30
0
0
VERTEX
8
CUT
10
211.000
20
190.100
30
0
0
VERTEX
8
CUT
10
211.000
20
162.750
30
0
0
VERTEX
8
CUT
10
208.000
20
162.750
30
0
0
VERTEX
8
CUT
10
208.000
20
152.600
30
0
0
VERTEX
8
CUT
10
211.000
20
152.600
30
0
0
SEQEND
8
CUT
0
POLYLINE
8
CUT
66
1
70
1
10
0
20
0
30
0
0
VERTEX
8
CUT
10
371.600
20
151.919
30
0
0
VERTEX
8
CUT
10
371.456
20
152.829
30
0
0
VERTEX
8
CUT
10
371.041
20
153.644
30
0
0
VERTEX
8
CUT
10
370.394
20
154.291
30
0
0
VERTEX
8
CUT
10
369.579
20
154.706
30
0
0
VERTEX
8
CUT
10
368.669
20
154.850
30
0
0
VERTEX
8
CUT
10
354.681
20
154.850
30
0
0
VERTEX
8
CUT
10
353.771
20
154.706
30
0
0
VERTEX
8
CUT
10
352.956
20
154.291
30
0
0
VERTEX
8
CUT
10
352.309
20
153.644
30
0
0
VERTEX
8
CUT
10
351.894
20
152.829
30
0
0
VERTEX
8
CUT
10
351.750
20
151.919
30
0
0
VERTEX
8
CUT
10
351.750
20
145.931
30
0
0
VERTEX
8
CUT
10
351.894
20
145.021
30
0
0
VERTEX
8
CUT
10
352.309
20
144.206
30
0
0
VERTEX
8
CUT
10
352.956
20
143.559
30
0
0
VERTEX
8
CUT
10
353.771
20
143.144
30
0
0
VERTEX
8
CUT
10
354.681
20
143.000
30
0
0
VERTEX
8
CUT
10
368.669
20
143.000
30
0
0
VERTEX
8
CUT
10
369.579
20
143.144
30
0
0
VERTEX
8
CUT
10
370.394
20
143.559
30
0
0
VERTEX
8
CUT
10
371.041
20
144.206
30
0
0
VERTEX
8
CUT
10
371.456
20
145.021
30
0
0
VERTEX
8
CUT
10
371.600
20
145.931
30
0
0
SEQEND
8
CUT
0
POLYLINE
8
CUT
66
1
70
1
10
0
20
0
30
0
0
VERTEX
8
CUT
10
390.296
20
159.975
30
0
0
VERTEX
8
CUT
10
390.120
20
160.516
30
0
0
VERTEX
8
CUT
10
389.660
20
160.851
30
0
0
VERTEX
8
CUT
10
389.090
20
160.851
30
0
0
VERTEX
8
CUT
10
388.630
20
160.516
30
0
0
VERTEX
8
CUT
10
388.454
20
159.975
30
0
0
VERTEX
8
CUT
10
388.630
20
159.434
30
0
0
VERTEX
8
CUT
10
389.090
20
159.099
30
0
0
VERTEX
8
CUT
10
389.660
20
159.099
30
0
0
VERTEX
8
CUT
10
390.120
20
159.434
30
0
0
SEQEND
8
CUT
0
POLYLINE
8
CUT
66
1
70
1
10
0
20
0
30
0
0
VERTEX
8
CUT
10
402.896
20
159.975
30
0
0
VERTEX
8
CUT
10
402.720
20
160.516
30
0
0
VERTEX
8
CUT
10
402.260
20
160.851
30
0
0
VERTEX
8
CUT
10
401.690
20
160.851
30
0
0
VERTEX
8
CUT
10
401.230
20
160.516
30
0
0
VERTEX
8
CUT
10
401.054
20
159.975
30
0
0
VERTEX
8
CUT
10
401.230
20
159.434
30
0
0
VERTEX
8
CUT
10
401.690
20
159.099
30
0
0
VERTEX
8
CUT
10
402.260
20
159.099
30
0
0
VERTEX
8
CUT
10
402.720
20
159.434
30
0
0
SEQEND
8
CUT
0
POLYLINE
8
CUT
66
1
70
1
10
0
20
0
30
0
0
VERTEX
8
CUT
10
314.000
20
138.850
30
0
0
VERTEX
8
CUT
10
320.900
20
138.850
30
0
0
VERTEX
8
CUT
10
320.900
20
135.850
30
0
0
VERTEX
8
CUT
10
331.050
20
135.850
30
0
0
VERTEX
8
CUT
10
331.050
20
138.850
30
0
0
VERTEX
8
CUT
10
392.300
20
138.850
30
0
0
VERTEX
8
CUT
10
392.300
20
135.850
30
0
0
VERTEX
8
CUT
10
402.450
20
135.850
30
0
0
VERTEX
8
CUT
10
402.450
20
138.850
30
0
0
VERTEX
8
CUT
10
409.350
20
138.850
30
0
0
VERTEX
8
CUT
10
409.350
20
152.600
30
0
0
VERTEX
8
CUT
10
412.350
20
152.600
30
0
0
VERTEX
8
CUT
10
412.350
20
162.750
30
0
0
VERTEX
8
CUT
10
409.350
20
162.750
30
0
0
VERTEX
8
CUT
10
409.350
20
190.100
30
0
0
VERTEX
8
CUT
10
412.350
20
190.100
30
0
0
VERTEX
8
CUT
10
412.350
20
200.250
30
0
0
VERTEX
8
CUT
10
409.350
20
200.250
30
0
0
VERTEX
8
CUT
10
409.350
20
214.000
30
0
0
VERTEX
8
CUT
10
402.450
20
214.000
30
0
0
VERTEX
8
CUT
10
402.450
20
217.000
30
0
0
VERTEX
8
CUT
10
392.300
20
217.000
30
0
0
VERTEX
8
CUT
10
392.300
20
214.000
30
0
0
VERTEX
8
CUT
10
331.050
20
214.000
30
0
0
VERTEX
8
CUT
10
331.050
20
217.000
30
0
0
VERTEX
8
CUT
10
320.900
20
217.000
30
0
0
VERTEX
8
CUT
10
320.900
20
214.000
30
0
0
VERTEX
8
CUT
10
314.000
20
214.000
30
0
0
VERTEX
8
CUT
10
314.000
20
200.250
30
0
0
VERTEX
8
CUT
10
311.000
20
200.250
30
0
0
VERTEX
8
CUT
10
311.000
20
190.100
30
0
0
VERTEX
8
CUT
10
314.000
20
190.100
30
0
0
VERTEX
8
CUT
10
314.000
20
162.750
30
0
0
VERTEX
8
CUT
10
311.000
20
162.750
30
0
0
VERTEX
8
CUT
10
311.000
20
152.600
30
0
0
VERTEX
8
CUT
10
314.000
20
152.600
30
0
0
SEQEND
8
CUT
0
POLYLINE
8
CUT
66
1
70
1
10
0
20
0
30
0
0
VERTEX
8
CUT
10
79.452
20
92.662
30
0
0
VERTEX
8
CUT
10
79.613
20
93.367
30
0
0
VERTEX
8
CUT
10
80.063
20
93.931
30
0
0
VERTEX
8
CUT
10
80.714
20
94.245
30
0
0
VERTEX
8
CUT
10
81.436
20
94.245
30
0
0
VERTEX
8
CUT
10
82.087
20
93.931
30
0
0
VERTEX
8
CUT
10
82.537
20
93.367
30
0
0
VERTEX
8
CUT
10
82.698
20
92.662
30
0
0
VERTEX
8
CUT
10
82.537
20
91.958
30
0
0
VERTEX
8
CUT
10
82.087
20
91.393
30
0
0
VERTEX
8
CUT
10
81.436
20
91.080
30
0
0
VERTEX
8
CUT
10
80.714
20
91.080
30
0
0
VERTEX
8
CUT
10
80.063
20
91.393
30
0
0
VERTEX
8
CUT
10
79.613
20
91.958
30
0
0
SEQEND
8
CUT
0
POLYLINE
8
CUT
66
1
70
1
10
0
20
0
30
0
0
VERTEX
8
CUT
10
39.452
20
92.662
30
0
0
VERTEX
8
CUT
10
39.613
20
93.367
30
0
0
VERTEX
8
CUT
10
40.063
20
93.931
30
0
0
VERTEX
8
CUT
10
40.714
20
94.245
30
0
0
VERTEX
8
CUT
10
41.436
20
94.245
30
0
0
VERTEX
8
CUT
10
42.087
20
93.931
30
0
0
VERTEX
8
CUT
10
42.537
20
93.367
30
0
0
VERTEX
8
CUT
10
42.698
20
92.662
30
0
0
VERTEX
8
CUT
10
42.537
20
91.958
30
0
0
VERTEX
8
CUT
10
42.087
20
91.393
30
0
0
VERTEX
8
CUT
10
41.436
20
91.080
30
0
0
VERTEX
8
CUT
10
40.714
20
91.080
30
0
0
VERTEX
8
CUT
10
40.063
20
91.393
30
0
0
VERTEX
8
CUT
10
39.613
20
91.958
30
0
0
SEQEND
8
CUT
0
POLYLINE
8
CUT
66
1
70
1
10
0
20
0
30
0
0
VERTEX
8
CUT
10
29.383
20
79.425
30
0
0
VERTEX
8
CUT
10
19.433
20
79.425
30
0
0
VERTEX
8
CUT
10
19.433
20
82.375
30
0
0
VERTEX
8
CUT
10
29.383
20
82.375
30
0
0
SEQEND
8
CUT
0
POLYLINE
8
CUT
66
1
70
1
10
0
20
0
30
0
0
VERTEX
8
CUT
10
66.050
20
79.425
30
0
0
VERTEX
8
CUT
10
56.100
20
79.425
30
0
0
VERTEX
8
CUT
10
56.100
20
82.375
30
0
0
VERTEX
8
CUT
10
66.050
20
82.375
30
0
0
SEQEND
8
CUT
0
POLYLINE
8
CUT
66
1
70
1
10
0
20
0
30
0
0
VERTEX
8
CUT
10
102.717
20
79.425
30
0
0
VERTEX
8
CUT
10
92.767
20
79.425
30
0
0
VERTEX
8
CUT
10
92.767
20
82.375
30
0
0
VERTEX
8
CUT
10
102.717
20
82.375
30
0
0
SEQEND
8
CUT
0
POLYLINE
8
CUT
66
1
70
1
10
0
20
0
30
0
0
VERTEX
8
CUT
10
42.050
20
102.950
30
0
0
VERTEX
8
CUT
10
30.100
20
102.950
30
0
0
VERTEX
8
CUT
10
30.100
20
105.900
30
0
0
VERTEX
8
CUT
10
42.050
20
105.900
30
0
0
SEQEND
8
CUT
0
POLYLINE
8
CUT
66
1
70
1
10
0
20
0
30
0
0
VERTEX
8
CUT
10
82.050
20
102.950
30
0
0
VERTEX
8
CUT
10
70.100
20
102.950
30
0
0
VERTEX
8
CUT
10
70.100
20
105.900
30
0
0
VERTEX
8
CUT
10
82.050
20
105.900
30
0
0
SEQEND
8
CUT
0
POLYLINE
8
CUT
66
1
70
1
10
0
20
0
30
0
0
VERTEX
8
CUT
10
116.150
20
76.325
30
0
0
VERTEX
8
CUT
10
6.000
20
76.325
30
0
0
VERTEX
8
CUT
10
6.000
20
85.706
30
0
0
VERTEX
8
CUT
10
3.000
20
85.706
30
0
0
VERTEX
8
CUT
10
3.000
20
95.856
30
0
0
VERTEX
8
CUT
10
6.000
20
95.856
30
0
0
VERTEX
8
CUT
10
6.000
20
114.469
30
0
0
VERTEX
8
CUT
10
3.000
20
114.469
30
0
0
VERTEX
8
CUT
10
3.000
20
124.619
30
0
0
VERTEX
8
CUT
10
6.000
20
124.619
30
0
0
VERTEX
8
CUT
10
6.000
20
134.000
30
0
0
VERTEX
8
CUT
10
19.333
20
134.000
30
0
0
VERTEX
8
CUT
10
19.333
20
137.000
30
0
0
VERTEX
8
CUT
10
29.483
20
137.000
30
0
0
VERTEX
8
CUT
10
29.483
20
134.000
30
0
0
VERTEX
8
CUT
10
56.000
20
134.000
30
0
0
VERTEX
8
CUT
10
56.000
20
137.000
30
0
0
VERTEX
8
CUT
10
66.150
20
137.000
30
0
0
VERTEX
8
CUT
10
66.150
20
134.000
30
0
0
VERTEX
8
CUT
10
92.667
20
134.000
30
0
0
VERTEX
8
CUT
10
92.667
20
137.000
30
0
0
VERTEX
8
CUT
10
102.817
20
137.000
30
0
0
VERTEX
8
CUT
10
102.817
20
134.000
30
0
0
VERTEX
8
CUT
10
116.150
20
134.000
30
0
0
VERTEX
8
CUT
10
116.150
20
124.619
30
0
0
VERTEX
8
CUT
10
119.150
20
124.619
30
0
0
VERTEX
8
CUT
10
119.150
20
114.469
30
0
0
VERTEX
8
CUT
10
116.150
20
114.469
30
0
0
VERTEX
8
CUT
10
116.150
20
95.856
30
0
0
VERTEX
8
CUT
10
119.150
20
95.856
30
0
0
VERTEX
8
CUT
10
119.150
20
85.706
30
0
0
VERTEX
8
CUT
10
116.150
20
85.706
30
0
0
SEQEND
8
CUT
0
POLYLINE
8
CUT
66
1
70
1
10
0
20
0
30
0
0
VERTEX
8
CUT
10
221.452
20
92.662
30
0
0
VERTEX
8
CUT
10
221.613
20
93.367
30
0
0
VERTEX
8
CUT
10
222.063
20
93.931
30
0
0
VERTEX
8
CUT
10
222.714
20
94.245
30
0
0
VERTEX
8
CUT
10
223.436
20
94.245
30
0
0
VERTEX
8
CUT
10
224.087
20
93.931
30
0
0
VERTEX
8
CUT
10
224.537
20
93.367
30
0
0
VERTEX
8
CUT
10
224.698
20
92.662
30
0
0
VERTEX
8
CUT
10
224.537
20
91.958
30
0
0
VERTEX
8
CUT
10
224.087
20
91.393
30
0
0
VERTEX
8
CUT
10
223.436
20
91.080
30
0
0
VERTEX
8
CUT
10
222.714
20
91.080
30
0
0
VERTEX
8
CUT
10
222.063
20
91.393
30
0
0
VERTEX
8
CUT
10
221.613
20
91.958
30
0
0
SEQEND
8
CUT
0
POLYLINE
8
CUT
66
1
70
1
10
0
20
0
30
0
0
VERTEX
8
CUT
10
181.452
20
92.662
30
0
0
VERTEX
8
CUT
10
181.613
20
93.367
30
0
0
VERTEX
8
CUT
10
182.063
20
93.931
30
0
0
VERTEX
8
CUT
10
182.714
20
94.245
30
0
0
VERTEX
8
CUT
10
183.436
20
94.245
30
0
0
VERTEX
8
CUT
10
184.087
20
93.931
30
0
0
VERTEX
8
CUT
10
184.537
20
93.367
30
0
0
VERTEX
8
CUT
10
184.698
20
92.662
30
0
0
VERTEX
8
CUT
10
184.537
20
91.958
30
0
0
VERTEX
8
CUT
10
184.087
20
91.393
30
0
0
VERTEX
8
CUT
10
183.436
20
91.080
30
0
0
VERTEX
8
CUT
10
182.714
20
91.080
30
0
0
VERTEX
8
CUT
10
182.063
20
91.393
30
0
0
VERTEX
8
CUT
10
181.613
20
91.958
30
0
0
SEQEND
8
CUT
0
POLYLINE
8
CUT
66
1
70
1
10
0
20
0
30
0
0
VERTEX
8
CUT
10
171.383
20
79.425
30
0
0
VERTEX
8
CUT
10
161.433
20
79.425
30
0
0
VERTEX
8
CUT
10
161.433
20
82.375
30
0
0
VERTEX
8
CUT
10
171.383
20
82.375
30
0
0
SEQEND
8
CUT
0
POLYLINE
8
CUT
66
1
70
1
10
0
20
0
30
0
0
VERTEX
8
CUT
10
208.050
20
79.425
30
0
0
VERTEX
8
CUT
10
198.100
20
79.425
30
0
0
VERTEX
8
CUT
10
198.100
20
82.375
30
0
0
VERTEX
8
CUT
10
208.050
20
82.375
30
0
0
SEQEND
8
CUT
0
POLYLINE
8
CUT
66
1
70
1
10
0
20
0
30
0
0
VERTEX
8
CUT
10
244.717
20
79.425
30
0
0
VERTEX
8
CUT
10
234.767
20
79.425
30
0
0
VERTEX
8
CUT
10
234.767
20
82.375
30
0
0
VERTEX
8
CUT
10
244.717
20
82.375
30
0
0
SEQEND
8
CUT
0
POLYLINE
8
CUT
66
1
70
1
10
0
20
0
30
0
0
VERTEX
8
CUT
10
184.050
20
102.950
30
0
0
VERTEX
8
CUT
10
172.100
20
102.950
30
0
0
VERTEX
8
CUT
10
172.100
20
105.900
30
0
0
VERTEX
8
CUT
10
184.050
20
105.900
30
0
0
SEQEND
8
CUT
0
POLYLINE
8
CUT
66
1
70
1
10
0
20
0
30
0
0
VERTEX
8
CUT
10
224.050
20
102.950
30
0
0
VERTEX
8
CUT
10
212.100
20
102.950
30
0
0
VERTEX
8
CUT
10
212.100
20
105.900
30
0
0
VERTEX
8
CUT
10
224.050
20
105.900
30
0
0
SEQEND
8
CUT
0
POLYLINE
8
CUT
66
1
70
1
10
0
20
0
30
0
0
VERTEX
8
CUT
10
258.150
20
76.325
30
0
0
VERTEX
8
CUT
10
148.000
20
76.325
30
0
0
VERTEX
8
CUT
10
148.000
20
85.706
30
0
0
VERTEX
8
CUT
10
145.000
20
85.706
30
0
0
VERTEX
8
CUT
10
145.000
20
95.856
30
0
0
VERTEX
8
CUT
10
148.000
20
95.856
30
0
0
VERTEX
8
CUT
10
148.000
20
114.469
30
0
0
VERTEX
8
CUT
10
145.000
20
114.469
30
0
0
VERTEX
8
CUT
10
145.000
20
124.619
30
0
0
VERTEX
8
CUT
10
148.000
20
124.619
30
0
0
VERTEX
8
CUT
10
148.000
20
134.000
30
0
0
VERTEX
8
CUT
10
161.333
20
134.000
30
0
0
VERTEX
8
CUT
10
161.333
20
137.000
30
0
0
VERTEX
8
CUT
10
171.483
20
137.000
30
0
0
VERTEX
8
CUT
10
171.483
20
134.000
30
0
0
VERTEX
8
CUT
10
198.000
20
134.000
30
0
0
VERTEX
8
CUT
10
198.000
20
137.000
30
0
0
VERTEX
8
CUT
10
208.150
20
137.000
30
0
0
VERTEX
8
CUT
10
208.150
20
134.000
30
0
0
VERTEX
8
CUT
10
234.667
20
134.000
30
0
0
VERTEX
8
CUT
10
234.667
20
137.000
30
0
0
VERTEX
8
CUT
10
244.817
20
137.000
30
0
0
VERTEX
8
CUT
10
244.817
20
134.000
30
0
0
VERTEX
8
CUT
10
258.150
20
134.000
30
0
0
VERTEX
8
CUT
10
258.150
20
124.619
30
0
0
VERTEX
8
CUT
10
261.150
20
124.619
30
0
0
VERTEX
8
CUT
10
261.150
20
114.469
30
0
0
VERTEX
8
CUT
10
258.150
20
114.469
30
0
0
VERTEX
8
CUT
10
258.150
20
95.856
30
0
0
VERTEX
8
CUT
10
261.150
20
95.856
30
0
0
VERTEX
8
CUT
10
261.150
20
85.706
30
0
0
VERTEX
8
CUT
10
258.150
20
85.706
30
0
0
SEQEND
8
CUT
0
POLYLINE
8
CUT
66
1
70
1
10
0
20
0
30
0
0
VERTEX
8
CUT
10
274.075
20
85.038
30
0
0
VERTEX
8
CUT
10
276.771
20
83.482
30
0
0
VERTEX
8
CUT
10
276.771
20
80.368
30
0
0
VERTEX
8
CUT
10
274.075
20
78.812
30
0
0
VERTEX
8
CUT
10
271.379
20
80.368
30
0
0
VERTEX
8
CUT
10
271.379
20
83.482
30
0
0
SEQEND
8
CUT
0
POLYLINE
8
CUT
66
1
70
1
10
0
20
0
30
0
0
VERTEX
8
CUT
10
274.075
20
126.038
30
0
0
VERTEX
8
CUT
10
276.771
20
124.482
30
0
0
VERTEX
8
CUT
10
276.771
20
121.368
30
0
0
VERTEX
8
CUT
10
274.075
20
119.812
30
0
0
VERTEX
8
CUT
10
271.379
20
121.368
30
0
0
VERTEX
8
CUT
10
271.379
20
124.482
30
0
0
SEQEND
8
CUT
0
POLYLINE
8
CUT
66
1
70
1
10
0
20
0
30
0
0
VERTEX
8
CUT
10
279.850
20
127.950
30
0
0
VERTEX
8
CUT
10
279.850
20
130.900
30
0
0
VERTEX
8
CUT
10
289.800
20
130.900
30
0
0
VERTEX
8
CUT
10
289.800
20
127.950
30
0
0
SEQEND
8
CUT
0
POLYLINE
8
CUT
66
1
70
1
10
0
20
0
30
0
0
VERTEX
8
CUT
10
317.350
20
127.950
30
0
0
VERTEX
8
CUT
10
317.350
20
130.900
30
0
0
VERTEX
8
CUT
10
327.300
20
130.900
30
0
0
VERTEX
8
CUT
10
327.300
20
127.950
30
0
0
SEQEND
8
CUT
0
POLYLINE
8
CUT
66
1
70
1
10
0
20
0
30
0
0
VERTEX
8
CUT
10
266.000
20
75.850
30
0
0
VERTEX
8
CUT
10
266.000
20
84.600
30
0
0
VERTEX
8
CUT
10
263.000
20
84.600
30
0
0
VERTEX
8
CUT
10
263.000
20
94.750
30
0
0
VERTEX
8
CUT
10
266.000
20
94.750
30
0
0
VERTEX
8
CUT
10
266.000
20
112.100
30
0
0
VERTEX
8
CUT
10
263.000
20
112.100
30
0
0
VERTEX
8
CUT
10
263.000
20
122.250
30
0
0
VERTEX
8
CUT
10
266.000
20
122.250
30
0
0
VERTEX
8
CUT
10
266.000
20
134.000
30
0
0
VERTEX
8
CUT
10
341.150
20
134.000
30
0
0
VERTEX
8
CUT
10
341.150
20
122.250
30
0
0
VERTEX
8
CUT
10
344.150
20
122.250
30
0
0
VERTEX
8
CUT
10
344.150
20
112.100
30
0
0
VERTEX
8
CUT
10
341.150
20
112.100
30
0
0
VERTEX
8
CUT
10
341.150
20
94.750
30
0
0
VERTEX
8
CUT
10
344.150
20
94.750
30
0
0
VERTEX
8
CUT
10
344.150
20
84.600
30
0
0
VERTEX
8
CUT
10
341.150
20
84.600
30
0
0
VERTEX
8
CUT
10
341.150
20
75.850
30
0
0
SEQEND
8
CUT
0
POLYLINE
8
CUT
66
1
70
1
10
0
20
0
30
0
0
VERTEX
8
CUT
10
357.075
20
85.038
30
0
0
VERTEX
8
CUT
10
359.771
20
83.482
30
0
0
VERTEX
8
CUT
10
359.771
20
80.368
30
0
0
VERTEX
8
CUT
10
357.075
20
78.812
30
0
0
VERTEX
8
CUT
10
354.379
20
80.368
30
0
0
VERTEX
8
CUT
10
354.379
20
83.482
30
0
0
SEQEND
8
CUT
0
POLYLINE
8
CUT
66
1
70
1
10
0
20
0
30
0
0
VERTEX
8
CUT
10
357.075
20
126.038
30
0
0
VERTEX
8
CUT
10
359.771
20
124.482
30
0
0
VERTEX
8
CUT
10
359.771
20
121.368
30
0
0
VERTEX
8
CUT
10
357.075
20
119.812
30
0
0
VERTEX
8
CUT
10
354.379
20
121.368
30
0
0
VERTEX
8
CUT
10
354.379
20
124.482
30
0
0
SEQEND
8
CUT
0
POLYLINE
8
CUT
66
1
70
1
10
0
20
0
30
0
0
VERTEX
8
CUT
10
362.850
20
127.950
30
0
0
VERTEX
8
CUT
10
362.850
20
130.900
30
0
0
VERTEX
8
CUT
10
372.800
20
130.900
30
0
0
VERTEX
8
CUT
10
372.800
20
127.950
30
0
0
SEQEND
8
CUT
0
POLYLINE
8
CUT
66
1
70
1
10
0
20
0
30
0
0
VERTEX
8
CUT
10
400.350
20
127.950
30
0
0
VERTEX
8
CUT
10
400.350
20
130.900
30
0
0
VERTEX
8
CUT
10
410.300
20
130.900
30
0
0
VERTEX
8
CUT
10
410.300
20
127.950
30
0
0
SEQEND
8
CUT
0
POLYLINE
8
CUT
66
1
70
1
10
0
20
0
30
0
0
VERTEX
8
CUT
10
349.000
20
75.850
30
0
0
VERTEX
8
CUT
10
349.000
20
84.600
30
0
0
VERTEX
8
CUT
10
346.000
20
84.600
30
0
0
VERTEX
8
CUT
10
346.000
20
94.750
30
0
0
VERTEX
8
CUT
10
349.000
20
94.750
30
0
0
VERTEX
8
CUT
10
349.000
20
112.100
30
0
0
VERTEX
8
CUT
10
346.000
20
112.100
30
0
0
VERTEX
8
CUT
10
346.000
20
122.250
30
0
0
VERTEX
8
CUT
10
349.000
20
122.250
30
0
0
VERTEX
8
CUT
10
349.000
20
134.000
30
0
0
VERTEX
8
CUT
10
424.150
20
134.000
30
0
0
VERTEX
8
CUT
10
424.150
20
122.250
30
0
0
VERTEX
8
CUT
10
427.150
20
122.250
30
0
0
VERTEX
8
CUT
10
427.150
20
112.100
30
0
0
VERTEX
8
CUT
10
424.150
20
112.100
30
0
0
VERTEX
8
CUT
10
424.150
20
94.750
30
0
0
VERTEX
8
CUT
10
427.150
20
94.750
30
0
0
VERTEX
8
CUT
10
427.150
20
84.600
30
0
0
VERTEX
8
CUT
10
424.150
20
84.600
30
0
0
VERTEX
8
CUT
10
424.150
20
75.850
30
0
0
SEQEND
8
CUT
0
POLYLINE
8
CUT
66
1
70
1
10
0
20
0
30
0
0
VERTEX
8
CUT
10
14.075
20
25.538
30
0
0
VERTEX
8
CUT
10
16.771
20
23.982
30
0
0
VERTEX
8
CUT
10
16.771
20
20.868
30
0
0
VERTEX
8
CUT
10
14.075
20
19.312
30
0
0
VERTEX
8
CUT
10
11.379
20
20.868
30
0
0
VERTEX
8
CUT
10
11.379
20
23.982
30
0
0
SEQEND
8
CUT
0
POLYLINE
8
CUT
66
1
70
1
10
0
20
0
30
0
0
VERTEX
8
CUT
10
14.075
20
66.538
30
0
0
VERTEX
8
CUT
10
16.771
20
64.982
30
0
0
VERTEX
8
CUT
10
16.771
20
61.868
30
0
0
VERTEX
8
CUT
10
14.075
20
60.312
30
0
0
VERTEX
8
CUT
10
11.379
20
61.868
30
0
0
VERTEX
8
CUT
10
11.379
20
64.982
30
0
0
SEQEND
8
CUT
0
POLYLINE
8
CUT
66
1
70
1
10
0
20
0
30
0
0
VERTEX
8
CUT
10
19.850
20
68.450
30
0
0
VERTEX
8
CUT
10
19.850
20
71.400
30
0
0
VERTEX
8
CUT
10
29.800
20
71.400
30
0
0
VERTEX
8
CUT
10
29.800
20
68.450
30
0
0
SEQEND
8
CUT
0
POLYLINE
8
CUT
66
1
70
1
10
0
20
0
30
0
0
VERTEX
8
CUT
10
57.350
20
68.450
30
0
0
VERTEX
8
CUT
10
57.350
20
71.400
30
0
0
VERTEX
8
CUT
10
67.300
20
71.400
30
0
0
VERTEX
8
CUT
10
67.300
20
68.450
30
0
0
SEQEND
8
CUT
0
POLYLINE
8
CUT
66
1
70
1
10
0
20
0
30
0
0
VERTEX
8
CUT
10
6.000
20
16.350
30
0
0
VERTEX
8
CUT
10
6.000
20
25.100
30
0
0
VERTEX
8
CUT
10
3.000
20
25.100
30
0
0
VERTEX
8
CUT
10
3.000
20
35.250
30
0
0
VERTEX
8
CUT
10
6.000
20
35.250
30
0
0
VERTEX
8
CUT
10
6.000
20
52.600
30
0
0
VERTEX
8
CUT
10
3.000
20
52.600
30
0
0
VERTEX
8
CUT
10
3.000
20
62.750
30
0
0
VERTEX
8
CUT
10
6.000
20
62.750
30
0
0
VERTEX
8
CUT
10
6.000
20
74.500
30
0
0
VERTEX
8
CUT
10
81.150
20
74.500
30
0
0
VERTEX
8
CUT
10
81.150
20
62.750
30
0
0
VERTEX
8
CUT
10
84.150
20
62.750
30
0
0
VERTEX
8
CUT
10
84.150
20
52.600
30
0
0
VERTEX
8
CUT
10
81.150
20
52.600
30
0
0
VERTEX
8
CUT
10
81.150
20
35.250
30
0
0
VERTEX
8
CUT
10
84.150
20
35.250
30
0
0
VERTEX
8
CUT
10
84.150
20
25.100
30
0
0
VERTEX
8
CUT
10
81.150
20
25.100
30
0
0
VERTEX
8
CUT
10
81.150
20
16.350
30
0
0
SEQEND
8
CUT
0
POLYLINE
8
CUT
66
1
70
1
10
0
20
0
30
0
0
VERTEX
8
CUT
10
97.075
20
25.538
30
0
0
VERTEX
8
CUT
10
99.771
20
23.982
30
0
0
VERTEX
8
CUT
10
99.771
20
20.868
30
0
0
VERTEX
8
CUT
10
97.075
20
19.312
30
0
0
VERTEX
8
CUT
10
94.379
20
20.868
30
0
0
VERTEX
8
CUT
10
94.379
20
23.982
30
0
0
SEQEND
8
CUT
0
POLYLINE
8
CUT
66
1
70
1
10
0
20
0
30
0
0
VERTEX
8
CUT
10
97.075
20
66.538
30
0
0
VERTEX
8
CUT
10
99.771
20
64.982
30
0
0
VERTEX
8
CUT
10
99.771
20
61.868
30
0
0
VERTEX
8
CUT
10
97.075
20
60.312
30
0
0
VERTEX
8
CUT
10
94.379
20
61.868
30
0
0
VERTEX
8
CUT
10
94.379
20
64.982
30
0
0
SEQEND
8
CUT
0
POLYLINE
8
CUT
66
1
70
1
10
0
20
0
30
0
0
VERTEX
8
CUT
10
135.650
20
55.000
30
0
0
VERTEX
8
CUT
10
135.650
20
57.850
30
0
0
VERTEX
8
CUT
10
139.500
20
57.850
30
0
0
VERTEX
8
CUT
10
139.500
20
55.000
30
0
0
SEQEND
8
CUT
0
POLYLINE
8
CUT
66
1
70
1
10
0
20
0
30
0
0
VERTEX
8
CUT
10
153.650
20
55.000
30
0
0
VERTEX
8
CUT
10
153.650
20
57.850
30
0
0
VERTEX
8
CUT
10
157.500
20
57.850
30
0
0
VERTEX
8
CUT
10
157.500
20
55.000
30
0
0
SEQEND
8
CUT
0
POLYLINE
8
CUT
66
1
70
1
10
0
20
0
30
0
0
VERTEX
8
CUT
10
135.650
20
27.000
30
0
0
VERTEX
8
CUT
10
135.650
20
29.850
30
0
0
VERTEX
8
CUT
10
139.500
20
29.850
30
0
0
VERTEX
8
CUT
10
139.500
20
27.000
30
0
0
SEQEND
8
CUT
0
POLYLINE
8
CUT
66
1
70
1
10
0
20
0
30
0
0
VERTEX
8
CUT
10
153.650
20
27.000
30
0
0
VERTEX
8
CUT
10
153.650
20
29.850
30
0
0
VERTEX
8
CUT
10
157.500
20
29.850
30
0
0
VERTEX
8
CUT
10
157.500
20
27.000
30
0
0
SEQEND
8
CUT
0
POLYLINE
8
CUT
66
1
70
1
10
0
20
0
30
0
0
VERTEX
8
CUT
10
140.350
20
68.450
30
0
0
VERTEX
8
CUT
10
140.350
20
71.400
30
0
0
VERTEX
8
CUT
10
150.300
20
71.400
30
0
0
VERTEX
8
CUT
10
150.300
20
68.450
30
0
0
SEQEND
8
CUT
0
POLYLINE
8
CUT
66
1
70
1
10
0
20
0
30
0
0
VERTEX
8
CUT
10
102.850
20
68.450
30
0
0
VERTEX
8
CUT
10
102.850
20
71.400
30
0
0
VERTEX
8
CUT
10
112.800
20
71.400
30
0
0
VERTEX
8
CUT
10
112.800
20
68.450
30
0
0
SEQEND
8
CUT
0
POLYLINE
8
CUT
66
1
70
1
10
0
20
0
30
0
0
VERTEX
8
CUT
10
89.000
20
16.350
30
0
0
VERTEX
8
CUT
10
89.000
20
25.100
30
0
0
VERTEX
8
CUT
10
86.000
20
25.100
30
0
0
VERTEX
8
CUT
10
86.000
20
35.250
30
0
0
VERTEX
8
CUT
10
89.000
20
35.250
30
0
0
VERTEX
8
CUT
10
89.000
20
52.600
30
0
0
VERTEX
8
CUT
10
86.000
20
52.600
30
0
0
VERTEX
8
CUT
10
86.000
20
62.750
30
0
0
VERTEX
8
CUT
10
89.000
20
62.750
30
0
0
VERTEX
8
CUT
10
89.000
20
74.500
30
0
0
VERTEX
8
CUT
10
164.150
20
74.500
30
0
0
VERTEX
8
CUT
10
164.150
20
62.750
30
0
0
VERTEX
8
CUT
10
167.150
20
62.750
30
0
0
VERTEX
8
CUT
10
167.150
20
52.600
30
0
0
VERTEX
8
CUT
10
164.150
20
52.600
30
0
0
VERTEX
8
CUT
10
164.150
20
35.250
30
0
0
VERTEX
8
CUT
10
167.150
20
35.250
30
0
0
VERTEX
8
CUT
10
167.150
20
25.100
30
0
0
VERTEX
8
CUT
10
164.150
20
25.100
30
0
0
VERTEX
8
CUT
10
164.150
20
16.350
30
0
0
SEQEND
8
CUT
0
POLYLINE
8
CUT
66
1
70
1
10
0
20
0
30
0
0
VERTEX
8
CUT
10
180.075
20
25.538
30
0
0
VERTEX
8
CUT
10
182.771
20
23.982
30
0
0
VERTEX
8
CUT
10
182.771
20
20.868
30
0
0
VERTEX
8
CUT
10
180.075
20
19.312
30
0
0
VERTEX
8
CUT
10
177.379
20
20.868
30
0
0
VERTEX
8
CUT
10
177.379
20
23.982
30
0
0
SEQEND
8
CUT
0
POLYLINE
8
CUT
66
1
70
1
10
0
20
0
30
0
0
VERTEX
8
CUT
10
180.075
20
66.538
30
0
0
VERTEX
8
CUT
10
182.771
20
64.982
30
0
0
VERTEX
8
CUT
10
182.771
20
61.868
30
0
0
VERTEX
8
CUT
10
180.075
20
60.312
30
0
0
VERTEX
8
CUT
10
177.379
20
61.868
30
0
0
VERTEX
8
CUT
10
177.379
20
64.982
30
0
0
SEQEND
8
CUT
0
POLYLINE
8
CUT
66
1
70
1
10
0
20
0
30
0
0
VERTEX
8
CUT
10
218.650
20
55.000
30
0
0
VERTEX
8
CUT
10
218.650
20
57.850
30
0
0
VERTEX
8
CUT
10
222.500
20
57.850
30
0
0
VERTEX
8
CUT
10
222.500
20
55.000
30
0
0
SEQEND
8
CUT
0
POLYLINE
8
CUT
66
1
70
1
10
0
20
0
30
0
0
VERTEX
8
CUT
10
236.650
20
55.000
30
0
0
VERTEX
8
CUT
10
236.650
20
57.850
30
0
0
VERTEX
8
CUT
10
240.500
20
57.850
30
0
0
VERTEX
8
CUT
10
240.500
20
55.000
30
0
0
SEQEND
8
CUT
0
POLYLINE
8
CUT
66
1
70
1
10
0
20
0
30
0
0
VERTEX
8
CUT
10
218.650
20
27.000
30
0
0
VERTEX
8
CUT
10
218.650
20
29.850
30
0
0
VERTEX
8
CUT
10
222.500
20
29.850
30
0
0
VERTEX
8
CUT
10
222.500
20
27.000
30
0
0
SEQEND
8
CUT
0
POLYLINE
8
CUT
66
1
70
1
10
0
20
0
30
0
0
VERTEX
8
CUT
10
236.650
20
27.000
30
0
0
VERTEX
8
CUT
10
236.650
20
29.850
30
0
0
VERTEX
8
CUT
10
240.500
20
29.850
30
0
0
VERTEX
8
CUT
10
240.500
20
27.000
30
0
0
SEQEND
8
CUT
0
POLYLINE
8
CUT
66
1
70
1
10
0
20
0
30
0
0
VERTEX
8
CUT
10
223.350
20
68.450
30
0
0
VERTEX
8
CUT
10
223.350
20
71.400
30
0
0
VERTEX
8
CUT
10
233.300
20
71.400
30
0
0
VERTEX
8
CUT
10
233.300
20
68.450
30
0
0
SEQEND
8
CUT
0
POLYLINE
8
CUT
66
1
70
1
10
0
20
0
30
0
0
VERTEX
8
CUT
10
185.850
20
68.450
30
0
0
VERTEX
8
CUT
10
185.850
20
71.400
30
0
0
VERTEX
8
CUT
10
195.800
20
71.400
30
0
0
VERTEX
8
CUT
10
195.800
20
68.450
30
0
0
SEQEND
8
CUT
0
POLYLINE
8
CUT
66
1
70
1
10
0
20
0
30
0
0
VERTEX
8
CUT
10
172.000
20
16.350
30
0
0
VERTEX
8
CUT
10
172.000
20
25.100
30
0
0
VERTEX
8
CUT
10
169.000
20
25.100
30
0
0
VERTEX
8
CUT
10
169.000
20
35.250
30
0
0
VERTEX
8
CUT
10
172.000
20
35.250
30
0
0
VERTEX
8
CUT
10
172.000
20
52.600
30
0
0
VERTEX
8
CUT
10
169.000
20
52.600
30
0
0
VERTEX
8
CUT
10
169.000
20
62.750
30
0
0
VERTEX
8
CUT
10
172.000
20
62.750
30
0
0
VERTEX
8
CUT
10
172.000
20
74.500
30
0
0
VERTEX
8
CUT
10
247.150
20
74.500
30
0
0
VERTEX
8
CUT
10
247.150
20
62.750
30
0
0
VERTEX
8
CUT
10
250.150
20
62.750
30
0
0
VERTEX
8
CUT
10
250.150
20
52.600
30
0
0
VERTEX
8
CUT
10
247.150
20
52.600
30
0
0
VERTEX
8
CUT
10
247.150
20
35.250
30
0
0
VERTEX
8
CUT
10
250.150
20
35.250
30
0
0
VERTEX
8
CUT
10
250.150
20
25.100
30
0
0
VERTEX
8
CUT
10
247.150
20
25.100
30
0
0
VERTEX
8
CUT
10
247.150
20
16.350
30
0
0
SEQEND
8
CUT
0
POLYLINE
8
CUT
66
1
70
1
10
0
20
0
30
0
0
VERTEX
8
CUT
10
263.075
20
25.038
30
0
0
VERTEX
8
CUT
10
265.771
20
23.482
30
0
0
VERTEX
8
CUT
10
265.771
20
20.368
30
0
0
VERTEX
8
CUT
10
263.075
20
18.812
30
0
0
VERTEX
8
CUT
10
260.379
20
20.368
30
0
0
VERTEX
8
CUT
10
260.379
20
23.482
30
0
0
SEQEND
8
CUT
0
POLYLINE
8
CUT
66
1
70
1
10
0
20
0
30
0
0
VERTEX
8
CUT
10
263.075
20
66.038
30
0
0
VERTEX
8
CUT
10
265.771
20
64.482
30
0
0
VERTEX
8
CUT
10
265.771
20
61.368
30
0
0
VERTEX
8
CUT
10
263.075
20
59.812
30
0
0
VERTEX
8
CUT
10
260.379
20
61.368
30
0
0
VERTEX
8
CUT
10
260.379
20
64.482
30
0
0
SEQEND
8
CUT
0
POLYLINE
8
CUT
66
1
70
1
10
0
20
0
30
0
0
VERTEX
8
CUT
10
301.650
20
54.500
30
0
0
VERTEX
8
CUT
10
301.650
20
57.350
30
0
0
VERTEX
8
CUT
10
305.500
20
57.350
30
0
0
VERTEX
8
CUT
10
305.500
20
54.500
30
0
0
SEQEND
8
CUT
0
POLYLINE
8
CUT
66
1
70
1
10
0
20
0
30
0
0
VERTEX
8
CUT
10
319.650
20
54.500
30
0
0
VERTEX
8
CUT
10
319.650
20
57.350
30
0
0
VERTEX
8
CUT
10
323.500
20
57.350
30
0
0
VERTEX
8
CUT
10
323.500
20
54.500
30
0
0
SEQEND
8
CUT
0
POLYLINE
8
CUT
66
1
70
1
10
0
20
0
30
0
0
VERTEX
8
CUT
10
301.650
20
26.500
30
0
0
VERTEX
8
CUT
10
301.650
20
29.350
30
0
0
VERTEX
8
CUT
10
305.500
20
29.350
30
0
0
VERTEX
8
CUT
10
305.500
20
26.500
30
0
0
SEQEND
8
CUT
0
POLYLINE
8
CUT
66
1
70
1
10
0
20
0
30
0
0
VERTEX
8
CUT
10
319.650
20
26.500
30
0
0
VERTEX
8
CUT
10
319.650
20
29.350
30
0
0
VERTEX
8
CUT
10
323.500
20
29.350
30
0
0
VERTEX
8
CUT
10
323.500
20
26.500
30
0
0
SEQEND
8
CUT
0
POLYLINE
8
CUT
66
1
70
1
10
0
20
0
30
0
0
VERTEX
8
CUT
10
306.350
20
67.950
30
0
0
VERTEX
8
CUT
10
306.350
20
70.900
30
0
0
VERTEX
8
CUT
10
316.300
20
70.900
30
0
0
VERTEX
8
CUT
10
316.300
20
67.950
30
0
0
SEQEND
8
CUT
0
POLYLINE
8
CUT
66
1
70
1
10
0
20
0
30
0
0
VERTEX
8
CUT
10
268.850
20
67.950
30
0
0
VERTEX
8
CUT
10
268.850
20
70.900
30
0
0
VERTEX
8
CUT
10
278.800
20
70.900
30
0
0
VERTEX
8
CUT
10
278.800
20
67.950
30
0
0
SEQEND
8
CUT
0
POLYLINE
8
CUT
66
1
70
1
10
0
20
0
30
0
0
VERTEX
8
CUT
10
255.000
20
15.850
30
0
0
VERTEX
8
CUT
10
255.000
20
24.600
30
0
0
VERTEX
8
CUT
10
252.000
20
24.600
30
0
0
VERTEX
8
CUT
10
252.000
20
34.750
30
0
0
VERTEX
8
CUT
10
255.000
20
34.750
30
0
0
VERTEX
8
CUT
10
255.000
20
52.100
30
0
0
VERTEX
8
CUT
10
252.000
20
52.100
30
0
0
VERTEX
8
CUT
10
252.000
20
62.250
30
0
0
VERTEX
8
CUT
10
255.000
20
62.250
30
0
0
VERTEX
8
CUT
10
255.000
20
74.000
30
0
0
VERTEX
8
CUT
10
330.150
20
74.000
30
0
0
VERTEX
8
CUT
10
330.150
20
62.250
30
0
0
VERTEX
8
CUT
10
333.150
20
62.250
30
0
0
VERTEX
8
CUT
10
333.150
20
52.100
30
0
0
VERTEX
8
CUT
10
330.150
20
52.100
30
0
0
VERTEX
8
CUT
10
330.150
20
34.750
30
0
0
VERTEX
8
CUT
10
333.150
20
34.750
30
0
0
VERTEX
8
CUT
10
333.150
20
24.600
30
0
0
VERTEX
8
CUT
10
330.150
20
24.600
30
0
0
VERTEX
8
CUT
10
330.150
20
15.850
30
0
0
SEQEND
8
CUT
0
POLYLINE
8
CUT
66
1
70
1
10
0
20
0
30
0
0
VERTEX
8
CUT
10
363.000
20
53.925
30
0
0
VERTEX
8
CUT
10
362.851
20
55.243
30
0
0
VERTEX
8
CUT
10
362.413
20
56.496
30
0
0
VERTEX
8
CUT
10
361.707
20
57.619
30
0
0
VERTEX
8
CUT
10
360.769
20
58.557
30
0
0
VERTEX
8
CUT
10
359.646
20
59.263
30
0
0
VERTEX
8
CUT
10
358.393
20
59.701
30
0
0
VERTEX
8
CUT
10
357.075
20
59.850
30
0
0
VERTEX
8
CUT
10
355.757
20
59.701
30
0
0
VERTEX
8
CUT
10
354.504
20
59.263
30
0
0
VERTEX
8
CUT
10
353.381
20
58.557
30
0
0
VERTEX
8
CUT
10
352.443
20
57.619
30
0
0
VERTEX
8
CUT
10
351.737
20
56.496
30
0
0
VERTEX
8
CUT
10
351.299
20
55.243
30
0
0
VERTEX
8
CUT
10
351.150
20
53.925
30
0
0
VERTEX
8
CUT
10
351.299
20
52.607
30
0
0
VERTEX
8
CUT
10
351.737
20
51.354
30
0
0
VERTEX
8
CUT
10
352.443
20
50.231
30
0
0
VERTEX
8
CUT
10
353.381
20
49.293
30
0
0
VERTEX
8
CUT
10
354.504
20
48.587
30
0
0
VERTEX
8
CUT
10
355.757
20
48.149
30
0
0
VERTEX
8
CUT
10
357.075
20
48.000
30
0
0
VERTEX
8
CUT
10
358.393
20
48.149
30
0
0
VERTEX
8
CUT
10
359.646
20
48.587
30
0
0
VERTEX
8
CUT
10
360.769
20
49.293
30
0
0
VERTEX
8
CUT
10
361.707
20
50.231
30
0
0
VERTEX
8
CUT
10
362.413
20
51.354
30
0
0
VERTEX
8
CUT
10
362.851
20
52.607
30
0
0
SEQEND
8
CUT
0
POLYLINE
8
CUT
66
1
70
1
10
0
20
0
30
0
0
VERTEX
8
CUT
10
403.300
20
28.950
30
0
0
VERTEX
8
CUT
10
413.250
20
28.950
30
0
0
VERTEX
8
CUT
10
413.250
20
31.900
30
0
0
VERTEX
8
CUT
10
403.300
20
31.900
30
0
0
SEQEND
8
CUT
0
POLYLINE
8
CUT
66
1
70
1
10
0
20
0
30
0
0
VERTEX
8
CUT
10
340.900
20
28.950
30
0
0
VERTEX
8
CUT
10
350.850
20
28.950
30
0
0
VERTEX
8
CUT
10
350.850
20
31.900
30
0
0
VERTEX
8
CUT
10
340.900
20
31.900
30
0
0
SEQEND
8
CUT
0
POLYLINE
8
CUT
66
1
70
1
10
0
20
0
30
0
0
VERTEX
8
CUT
10
338.000
20
25.850
30
0
0
VERTEX
8
CUT
10
355.346
20
25.850
30
0
0
VERTEX
8
CUT
10
355.346
20
28.850
30
0
0
VERTEX
8
CUT
10
398.804
20
28.850
30
0
0
VERTEX
8
CUT
10
398.804
20
25.850
30
0
0
VERTEX
8
CUT
10
416.150
20
25.850
30
0
0
VERTEX
8
CUT
10
416.150
20
32.850
30
0
0
VERTEX
8
CUT
10
419.150
20
32.850
30
0
0
VERTEX
8
CUT
10
419.150
20
43.000
30
0
0
VERTEX
8
CUT
10
416.150
20
43.000
30
0
0
VERTEX
8
CUT
10
416.150
20
56.850
30
0
0
VERTEX
8
CUT
10
419.150
20
56.850
30
0
0
VERTEX
8
CUT
10
419.150
20
67.000
30
0
0
VERTEX
8
CUT
10
416.150
20
67.000
30
0
0
VERTEX
8
CUT
10
416.150
20
74.000
30
0
0
VERTEX
8
CUT
10
338.000
20
74.000
30
0
0
VERTEX
8
CUT
10
338.000
20
67.000
30
0
0
VERTEX
8
CUT
10
335.000
20
67.000
30
0
0
VERTEX
8
CUT
10
335.000
20
56.850
30
0
0
VERTEX
8
CUT
10
338.000
20
56.850
30
0
0
VERTEX
8
CUT
10
338.000
20
43.000
30
0
0
VERTEX
8
CUT
10
335.000
20
43.000
30
0
0
VERTEX
8
CUT
10
335.000
20
32.850
30
0
0
VERTEX
8
CUT
10
338.000
20
32.850
30
0
0
SEQEND
8
CUT
0
POLYLINE
8
CUT
66
1
70
1
10
0
20
0
30
0
0
VERTEX
8
CUT
10
435.000
20
282.925
30
0
0
VERTEX
8
CUT
10
434.915
20
284.220
30
0
0
VERTEX
8
CUT
10
434.662
20
285.494
30
0
0
VERTEX
8
CUT
10
434.245
20
286.723
30
0
0
VERTEX
8
CUT
10
433.670
20
287.887
30
0
0
VERTEX
8
CUT
10
432.949
20
288.967
30
0
0
VERTEX
8
CUT
10
432.093
20
289.943
30
0
0
VERTEX
8
CUT
10
431.117
20
290.799
30
0
0
VERTEX
8
CUT
10
430.038
20
291.520
30
0
0
VERTEX
8
CUT
10
428.873
20
292.094
30
0
0
VERTEX
8
CUT
10
427.644
20
292.511
30
0
0
VERTEX
8
CUT
10
426.371
20
292.765
30
0
0
VERTEX
8
CUT
10
425.075
20
292.850
30
0
0
VERTEX
8
CUT
10
423.780
20
292.765
30
0
0
VERTEX
8
CUT
10
422.506
20
292.511
30
0
0
VERTEX
8
CUT
10
421.277
20
292.094
30
0
0
VERTEX
8
CUT
10
420.113
20
291.520
30
0
0
VERTEX
8
CUT
10
419.033
20
290.799
30
0
0
VERTEX
8
CUT
10
418.057
20
289.943
30
0
0
VERTEX
8
CUT
10
417.201
20
288.967
30
0
0
VERTEX
8
CUT
10
416.480
20
287.887
30
0
0
VERTEX
8
CUT
10
415.906
20
286.723
30
0
0
VERTEX
8
CUT
10
415.489
20
285.494
30
0
0
VERTEX
8
CUT
10
415.235
20
284.220
30
0
0
VERTEX
8
CUT
10
415.150
20
282.925
30
0
0
VERTEX
8
CUT
10
415.235
20
281.629
30
0
0
VERTEX
8
CUT
10
415.489
20
280.356
30
0
0
VERTEX
8
CUT
10
415.906
20
279.127
30
0
0
VERTEX
8
CUT
10
416.480
20
277.962
30
0
0
VERTEX
8
CUT
10
417.201
20
276.883
30
0
0
VERTEX
8
CUT
10
418.057
20
275.907
30
0
0
VERTEX
8
CUT
10
419.033
20
275.051
30
0
0
VERTEX
8
CUT
10
420.113
20
274.330
30
0
0
VERTEX
8
CUT
10
421.277
20
273.755
30
0
0
VERTEX
8
CUT
10
422.506
20
273.338
30
0
0
VERTEX
8
CUT
10
423.780
20
273.085
30
0
0
VERTEX
8
CUT
10
425.075
20
273.000
30
0
0
VERTEX
8
CUT
10
426.371
20
273.085
30
0
0
VERTEX
8
CUT
10
427.644
20
273.338
30
0
0
VERTEX
8
CUT
10
428.873
20
273.755
30
0
0
VERTEX
8
CUT
10
430.038
20
274.330
30
0
0
VERTEX
8
CUT
10
431.117
20
275.051
30
0
0
VERTEX
8
CUT
10
432.093
20
275.907
30
0
0
VERTEX
8
CUT
10
432.949
20
276.883
30
0
0
VERTEX
8
CUT
10
433.670
20
277.962
30
0
0
VERTEX
8
CUT
10
434.245
20
279.127
30
0
0
VERTEX
8
CUT
10
434.662
20
280.356
30
0
0
VERTEX
8
CUT
10
434.915
20
281.629
30
0
0
SEQEND
8
CUT
0
POLYLINE
8
CUT
66
1
70
1
10
0
20
0
30
0
0
VERTEX
8
CUT
10
439.150
20
282.925
30
0
0
VERTEX
8
CUT
10
439.030
20
284.762
30
0
0
VERTEX
8
CUT
10
438.671
20
286.568
30
0
0
VERTEX
8
CUT
10
438.079
20
288.311
30
0
0
VERTEX
8
CUT
10
437.265
20
289.962
30
0
0
VERTEX
8
CUT
10
436.242
20
291.493
30
0
0
VERTEX
8
CUT
10
435.028
20
292.877
30
0
0
VERTEX
8
CUT
10
433.644
20
294.091
30
0
0
VERTEX
8
CUT
10
432.113
20
295.114
30
0
0
VERTEX
8
CUT
10
430.461
20
295.929
30
0
0
VERTEX
8
CUT
10
428.718
20
296.520
30
0
0
VERTEX
8
CUT
10
426.912
20
296.880
30
0
0
VERTEX
8
CUT
10
425.075
20
297.000
30
0
0
VERTEX
8
CUT
10
423.238
20
296.880
30
0
0
VERTEX
8
CUT
10
421.432
20
296.520
30
0
0
VERTEX
8
CUT
10
419.689
20
295.929
30
0
0
VERTEX
8
CUT
10
418.038
20
295.114
30
0
0
VERTEX
8
CUT
10
416.507
20
294.091
30
0
0
VERTEX
8
CUT
10
415.123
20
292.877
30
0
0
VERTEX
8
CUT
10
413.909
20
291.493
30
0
0
VERTEX
8
CUT
10
412.886
20
289.962
30
0
0
VERTEX
8
CUT
10
412.071
20
288.311
30
0
0
VERTEX
8
CUT
10
411.480
20
286.568
30
0
0
VERTEX
8
CUT
10
411.120
20
284.762
30
0
0
VERTEX
8
CUT
10
411.000
20
282.925
30
0
0
VERTEX
8
CUT
10
411.120
20
281.088
30
0
0
VERTEX
8
CUT
10
411.480
20
279.282
30
0
0
VERTEX
8
CUT
10
412.071
20
277.539
30
0
0
VERTEX
8
CUT
10
412.886
20
275.887
30
0
0
VERTEX
8
CUT
10
413.909
20
274.356
30
0
0
VERTEX
8
CUT
10
415.123
20
272.972
30
0
0
VERTEX
8
CUT
10
416.507
20
271.758
30
0
0
VERTEX
8
CUT
10
418.038
20
270.735
30
0
0
VERTEX
8
CUT
10
419.689
20
269.921
30
0
0
VERTEX
8
CUT
10
421.432
20
269.329
30
0
0
VERTEX
8
CUT
10
423.238
20
268.970
30
0
0
VERTEX
8
CUT
10
425.075
20
268.850
30
0
0
VERTEX
8
CUT
10
426.912
20
268.970
30
0
0
VERTEX
8
CUT
10
428.718
20
269.329
30
0
0
VERTEX
8
CUT
10
430.461
20
269.921
30
0
0
VERTEX
8
CUT
10
432.113
20
270.735
30
0
0
VERTEX
8
CUT
10
433.644
20
271.758
30
0
0
VERTEX
8
CUT
10
435.028
20
272.972
30
0
0
VERTEX
8
CUT
10
436.242
20
274.356
30
0
0
VERTEX
8
CUT
10
437.265
20
275.887
30
0
0
VERTEX
8
CUT
10
438.079
20
277.539
30
0
0
VERTEX
8
CUT
10
438.671
20
279.282
30
0
0
VERTEX
8
CUT
10
439.030
20
281.088
30
0
0
SEQEND
8
CUT
0
POLYLINE
8
CUT
66
1
70
1
10
0
20
0
30
0
0
VERTEX
8
CUT
10
441.500
20
253.425
30
0
0
VERTEX
8
CUT
10
441.415
20
254.720
30
0
0
VERTEX
8
CUT
10
441.162
20
255.994
30
0
0
VERTEX
8
CUT
10
440.745
20
257.223
30
0
0
VERTEX
8
CUT
10
440.170
20
258.387
30
0
0
VERTEX
8
CUT
10
439.449
20
259.467
30
0
0
VERTEX
8
CUT
10
438.593
20
260.443
30
0
0
VERTEX
8
CUT
10
437.617
20
261.299
30
0
0
VERTEX
8
CUT
10
436.538
20
262.020
30
0
0
VERTEX
8
CUT
10
435.373
20
262.594
30
0
0
VERTEX
8
CUT
10
434.144
20
263.011
30
0
0
VERTEX
8
CUT
10
432.871
20
263.265
30
0
0
VERTEX
8
CUT
10
431.575
20
263.350
30
0
0
VERTEX
8
CUT
10
430.280
20
263.265
30
0
0
VERTEX
8
CUT
10
429.006
20
263.011
30
0
0
VERTEX
8
CUT
10
427.777
20
262.594
30
0
0
VERTEX
8
CUT
10
426.613
20
262.020
30
0
0
VERTEX
8
CUT
10
425.533
20
261.299
30
0
0
VERTEX
8
CUT
10
424.557
20
260.443
30
0
0
VERTEX
8
CUT
10
423.701
20
259.467
30
0
0
VERTEX
8
CUT
10
422.980
20
258.387
30
0
0
VERTEX
8
CUT
10
422.406
20
257.223
30
0
0
VERTEX
8
CUT
10
421.989
20
255.994
30
0
0
VERTEX
8
CUT
10
421.735
20
254.720
30
0
0
VERTEX
8
CUT
10
421.650
20
253.425
30
0
0
VERTEX
8
CUT
10
421.735
20
252.129
30
0
0
VERTEX
8
CUT
10
421.989
20
250.856
30
0
0
VERTEX
8
CUT
10
422.406
20
249.627
30
0
0
VERTEX
8
CUT
10
422.980
20
248.462
30
0
0
VERTEX
8
CUT
10
423.701
20
247.383
30
0
0
VERTEX
8
CUT
10
424.557
20
246.407
30
0
0
VERTEX
8
CUT
10
425.533
20
245.551
30
0
0
VERTEX
8
CUT
10
426.613
20
244.830
30
0
0
VERTEX
8
CUT
10
427.777
20
244.255
30
0
0
VERTEX
8
CUT
10
429.006
20
243.838
30
0
0
VERTEX
8
CUT
10
430.280
20
243.585
30
0
0
VERTEX
8
CUT
10
431.575
20
243.500
30
0
0
VERTEX
8
CUT
10
432.871
20
243.585
30
0
0
VERTEX
8
CUT
10
434.144
20
243.838
30
0
0
VERTEX
8
CUT
10
435.373
20
244.255
30
0
0
VERTEX
8
CUT
10
436.538
20
244.830
30
0
0
VERTEX
8
CUT
10
437.617
20
245.551
30
0
0
VERTEX
8
CUT
10
438.593
20
246.407
30
0
0
VERTEX
8
CUT
10
439.449
20
247.383
30
0
0
VERTEX
8
CUT
10
440.170
20
248.462
30
0
0
VERTEX
8
CUT
10
440.745
20
249.627
30
0
0
VERTEX
8
CUT
10
441.162
20
250.856
30
0
0
VERTEX
8
CUT
10
441.415
20
252.129
30
0
0
SEQEND
8
CUT
0
POLYLINE
8
CUT
66
1
70
1
10
0
20
0
30
0
0
VERTEX
8
CUT
10
445.650
20
253.425
30
0
0
VERTEX
8
CUT
10
445.530
20
255.262
30
0
0
VERTEX
8
CUT
10
445.171
20
257.068
30
0
0
VERTEX
8
CUT
10
444.579
20
258.811
30
0
0
VERTEX
8
CUT
10
443.765
20
260.462
30
0
0
VERTEX
8
CUT
10
442.742
20
261.993
30
0
0
VERTEX
8
CUT
10
441.528
20
263.377
30
0
0
VERTEX
8
CUT
10
440.144
20
264.591
30
0
0
VERTEX
8
CUT
10
438.613
20
265.614
30
0
0
VERTEX
8
CUT
10
436.961
20
266.429
30
0
0
VERTEX
8
CUT
10
435.218
20
267.020
30
0
0
VERTEX
8
CUT
10
433.412
20
267.380
30
0
0
VERTEX
8
CUT
10
431.575
20
267.500
30
0
0
VERTEX
8
CUT
10
429.738
20
267.380
30
0
0
VERTEX
8
CUT
10
427.932
20
267.020
30
0
0
VERTEX
8
CUT
10
426.189
20
266.429
30
0
0
VERTEX
8
CUT
10
424.538
20
265.614
30
0
0
VERTEX
8
CUT
10
423.007
20
264.591
30
0
0
VERTEX
8
CUT
10
421.623
20
263.377
30
0
0
VERTEX
8
CUT
10
420.409
20
261.993
30
0
0
VERTEX
8
CUT
10
419.386
20
260.462
30
0
0
VERTEX
8
CUT
10
418.571
20
258.811
30
0
0
VERTEX
8
CUT
10
417.980
20
257.068
30
0
0
VERTEX
8
CUT
10
417.620
20
255.262
30
0
0
VERTEX
8
CUT
10
417.500
20
253.425
30
0
0
VERTEX
8
CUT
10
417.620
20
251.588
30
0
0
VERTEX
8
CUT
10
417.980
20
249.782
30
0
0
VERTEX
8
CUT
10
418.571
20
248.039
30
0
0
VERTEX
8
CUT
10
419.386
20
246.387
30
0
0
VERTEX
8
CUT
10
420.409
20
244.856
30
0
0
VERTEX
8
CUT
10
421.623
20
243.472
30
0
0
VERTEX
8
CUT
10
423.007
20
242.258
30
0
0
VERTEX
8
CUT
10
424.538
20
241.235
30
0
0
VERTEX
8
CUT
10
426.189
20
240.421
30
0
0
VERTEX
8
CUT
10
427.932
20
239.829
30
0
0
VERTEX
8
CUT
10
429.738
20
239.470
30
0
0
VERTEX
8
CUT
10
431.575
20
239.350
30
0
0
VERTEX
8
CUT
10
433.412
20
239.470
30
0
0
VERTEX
8
CUT
10
435.218
20
239.829
30
0
0
VERTEX
8
CUT
10
436.961
20
240.421
30
0
0
VERTEX
8
CUT
10
438.613
20
241.235
30
0
0
VERTEX
8
CUT
10
440.144
20
242.258
30
0
0
VERTEX
8
CUT
10
441.528
20
243.472
30
0
0
VERTEX
8
CUT
10
442.742
20
244.856
30
0
0
VERTEX
8
CUT
10
443.765
20
246.387
30
0
0
VERTEX
8
CUT
10
444.579
20
248.039
30
0
0
VERTEX
8
CUT
10
445.171
20
249.782
30
0
0
VERTEX
8
CUT
10
445.530
20
251.588
30
0
0
SEQEND
8
CUT
0
POLYLINE
8
CUT
66
1
70
1
10
0
20
0
30
0
0
VERTEX
8
CUT
10
435.000
20
223.425
30
0
0
VERTEX
8
CUT
10
434.915
20
224.720
30
0
0
VERTEX
8
CUT
10
434.662
20
225.994
30
0
0
VERTEX
8
CUT
10
434.245
20
227.223
30
0
0
VERTEX
8
CUT
10
433.670
20
228.387
30
0
0
VERTEX
8
CUT
10
432.949
20
229.467
30
0
0
VERTEX
8
CUT
10
432.093
20
230.443
30
0
0
VERTEX
8
CUT
10
431.117
20
231.299
30
0
0
VERTEX
8
CUT
10
430.038
20
232.020
30
0
0
VERTEX
8
CUT
10
428.873
20
232.594
30
0
0
VERTEX
8
CUT
10
427.644
20
233.011
30
0
0
VERTEX
8
CUT
10
426.371
20
233.265
30
0
0
VERTEX
8
CUT
10
425.075
20
233.350
30
0
0
VERTEX
8
CUT
10
423.780
20
233.265
30
0
0
VERTEX
8
CUT
10
422.506
20
233.011
30
0
0
VERTEX
8
CUT
10
421.277
20
232.594
30
0
0
VERTEX
8
CUT
10
420.113
20
232.020
30
0
0
VERTEX
8
CUT
10
419.033
20
231.299
30
0
0
VERTEX
8
CUT
10
418.057
20
230.443
30
0
0
VERTEX
8
CUT
10
417.201
20
229.467
30
0
0
VERTEX
8
CUT
10
416.480
20
228.387
30
0
0
VERTEX
8
CUT
10
415.906
20
227.223
30
0
0
VERTEX
8
CUT
10
415.489
20
225.994
30
0
0
VERTEX
8
CUT
10
415.235
20
224.720
30
0
0
VERTEX
8
CUT
10
415.150
20
223.425
30
0
0
VERTEX
8
CUT
10
415.235
20
222.129
30
0
0
VERTEX
8
CUT
10
415.489
20
220.856
30
0
0
VERTEX
8
CUT
10
415.906
20
219.627
30
0
0
VERTEX
8
CUT
10
416.480
20
218.462
30
0
0
VERTEX
8
CUT
10
417.201
20
217.383
30
0
0
VERTEX
8
CUT
10
418.057
20
216.407
30
0
0
VERTEX
8
CUT
10
419.033
20
215.551
30
0
0
VERTEX
8
CUT
10
420.113
20
214.830
30
0
0
VERTEX
8
CUT
10
421.277
20
214.255
30
0
0
VERTEX
8
CUT
10
422.506
20
213.838
30
0
0
VERTEX
8
CUT
10
423.780
20
213.585
30
0
0
VERTEX
8
CUT
10
425.075
20
213.500
30
0
0
VERTEX
8
CUT
10
426.371
20
213.585
30
0
0
VERTEX
8
CUT
10
427.644
20
213.838
30
0
0
VERTEX
8
CUT
10
428.873
20
214.255
30
0
0
VERTEX
8
CUT
10
430.038
20
214.830
30
0
0
VERTEX
8
CUT
10
431.117
20
215.551
30
0
0
VERTEX
8
CUT
10
432.093
20
216.407
30
0
0
VERTEX
8
CUT
10
432.949
20
217.383
30
0
0
VERTEX
8
CUT
10
433.670
20
218.462
30
0
0
VERTEX
8
CUT
10
434.245
20
219.627
30
0
0
VERTEX
8
CUT
10
434.662
20
220.856
30
0
0
VERTEX
8
CUT
10
434.915
20
222.129
30
0
0
SEQEND
8
CUT
0
POLYLINE
8
CUT
66
1
70
1
10
0
20
0
30
0
0
VERTEX
8
CUT
10
439.150
20
223.425
30
0
0
VERTEX
8
CUT
10
439.030
20
225.262
30
0
0
VERTEX
8
CUT
10
438.671
20
227.068
30
0
0
VERTEX
8
CUT
10
438.079
20
228.811
30
0
0
VERTEX
8
CUT
10
437.265
20
230.462
30
0
0
VERTEX
8
CUT
10
436.242
20
231.993
30
0
0
VERTEX
8
CUT
10
435.028
20
233.377
30
0
0
VERTEX
8
CUT
10
433.644
20
234.591
30
0
0
VERTEX
8
CUT
10
432.113
20
235.614
30
0
0
VERTEX
8
CUT
10
430.461
20
236.429
30
0
0
VERTEX
8
CUT
10
428.718
20
237.020
30
0
0
VERTEX
8
CUT
10
426.912
20
237.380
30
0
0
VERTEX
8
CUT
10
425.075
20
237.500
30
0
0
VERTEX
8
CUT
10
423.238
20
237.380
30
0
0
VERTEX
8
CUT
10
421.432
20
237.020
30
0
0
VERTEX
8
CUT
10
419.689
20
236.429
30
0
0
VERTEX
8
CUT
10
418.038
20
235.614
30
0
0
VERTEX
8
CUT
10
416.507
20
234.591
30
0
0
VERTEX
8
CUT
10
415.123
20
233.377
30
0
0
VERTEX
8
CUT
10
413.909
20
231.993
30
0
0
VERTEX
8
CUT
10
412.886
20
230.462
30
0
0
VERTEX
8
CUT
10
412.071
20
228.811
30
0
0
VERTEX
8
CUT
10
411.480
20
227.068
30
0
0
VERTEX
8
CUT
10
411.120
20
225.262
30
0
0
VERTEX
8
CUT
10
411.000
20
223.425
30
0
0
VERTEX
8
CUT
10
411.120
20
221.588
30
0
0
VERTEX
8
CUT
10
411.480
20
219.782
30
0
0
VERTEX
8
CUT
10
412.071
20
218.039
30
0
0
VERTEX
8
CUT
10
412.886
20
216.387
30
0
0
VERTEX
8
CUT
10
413.909
20
214.856
30
0
0
VERTEX
8
CUT
10
415.123
20
213.472
30
0
0
VERTEX
8
CUT
10
416.507
20
212.258
30
0
0
VERTEX
8
CUT
10
418.038
20
211.235
30
0
0
VERTEX
8
CUT
10
419.689
20
210.421
30
0
0
VERTEX
8
CUT
10
421.432
20
209.829
30
0
0
VERTEX
8
CUT
10
423.238
20
209.470
30
0
0
VERTEX
8
CUT
10
425.075
20
209.350
30
0
0
VERTEX
8
CUT
10
426.912
20
209.470
30
0
0
VERTEX
8
CUT
10
428.718
20
209.829
30
0
0
VERTEX
8
CUT
10
430.461
20
210.421
30
0
0
VERTEX
8
CUT
10
432.113
20
211.235
30
0
0
VERTEX
8
CUT
10
433.644
20
212.258
30
0
0
VERTEX
8
CUT
10
435.028
20
213.472
30
0
0
VERTEX
8
CUT
10
436.242
20
214.856
30
0
0
VERTEX
8
CUT
10
437.265
20
216.387
30
0
0
VERTEX
8
CUT
10
438.079
20
218.039
30
0
0
VERTEX
8
CUT
10
438.671
20
219.782
30
0
0
VERTEX
8
CUT
10
439.030
20
221.588
30
0
0
SEQEND
8
CUT
0
POLYLINE
8
CUT
66
1
70
1
10
0
20
0
30
0
0
VERTEX
8
CUT
10
441.500
20
193.925
30
0
0
VERTEX
8
CUT
10
441.415
20
195.220
30
0
0
VERTEX
8
CUT
10
441.162
20
196.494
30
0
0
VERTEX
8
CUT
10
440.745
20
197.723
30
0
0
VERTEX
8
CUT
10
440.170
20
198.887
30
0
0
VERTEX
8
CUT
10
439.449
20
199.967
30
0
0
VERTEX
8
CUT
10
438.593
20
200.943
30
0
0
VERTEX
8
CUT
10
437.617
20
201.799
30
0
0
VERTEX
8
CUT
10
436.538
20
202.520
30
0
0
VERTEX
8
CUT
10
435.373
20
203.094
30
0
0
VERTEX
8
CUT
10
434.144
20
203.511
30
0
0
VERTEX
8
CUT
10
432.871
20
203.765
30
0
0
VERTEX
8
CUT
10
431.575
20
203.850
30
0
0
VERTEX
8
CUT
10
430.280
20
203.765
30
0
0
VERTEX
8
CUT
10
429.006
20
203.511
30
0
0
VERTEX
8
CUT
10
427.777
20
203.094
30
0
0
VERTEX
8
CUT
10
426.613
20
202.520
30
0
0
VERTEX
8
CUT
10
425.533
20
201.799
30
0
0
VERTEX
8
CUT
10
424.557
20
200.943
30
0
0
VERTEX
8
CUT
10
423.701
20
199.967
30
0
0
VERTEX
8
CUT
10
422.980
20
198.887
30
0
0
VERTEX
8
CUT
10
422.406
20
197.723
30
0
0
VERTEX
8
CUT
10
421.989
20
196.494
30
0
0
VERTEX
8
CUT
10
421.735
20
195.220
30
0
0
VERTEX
8
CUT
10
421.650
20
193.925
30
0
0
VERTEX
8
CUT
10
421.735
20
192.629
30
0
0
VERTEX
8
CUT
10
421.989
20
191.356
30
0
0
VERTEX
8
CUT
10
422.406
20
190.127
30
0
0
VERTEX
8
CUT
10
422.980
20
188.962
30
0
0
VERTEX
8
CUT
10
423.701
20
187.883
30
0
0
VERTEX
8
CUT
10
424.557
20
186.907
30
0
0
VERTEX
8
CUT
10
425.533
20
186.051
30
0
0
VERTEX
8
CUT
10
426.613
20
185.330
30
0
0
VERTEX
8
CUT
10
427.777
20
184.755
30
0
0
VERTEX
8
CUT
10
429.006
20
184.338
30
0
0
VERTEX
8
CUT
10
430.280
20
184.085
30
0
0
VERTEX
8
CUT
10
431.575
20
184.000
30
0
0
VERTEX
8
CUT
10
432.871
20
184.085
30
0
0
VERTEX
8
CUT
10
434.144
20
184.338
30
0
0
VERTEX
8
CUT
10
435.373
20
184.755
30
0
0
VERTEX
8
CUT
10
436.538
20
185.330
30
0
0
VERTEX
8
CUT
10
437.617
20
186.051
30
0
0
VERTEX
8
CUT
10
438.593
20
186.907
30
0
0
VERTEX
8
CUT
10
439.449
20
187.883
30
0
0
VERTEX
8
CUT
10
440.170
20
188.962
30
0
0
VERTEX
8
CUT
10
440.745
20
190.127
30
0
0
VERTEX
8
CUT
10
441.162
20
191.356
30
0
0
VERTEX
8
CUT
10
441.415
20
192.629
30
0
0
SEQEND
8
CUT
0
POLYLINE
8
CUT
66
1
70
1
10
0
20
0
30
0
0
VERTEX
8
CUT
10
445.650
20
193.925
30
0
0
VERTEX
8
CUT
10
445.530
20
195.762
30
0
0
VERTEX
8
CUT
10
445.171
20
197.568
30
0
0
VERTEX
8
CUT
10
444.579
20
199.311
30
0
0
VERTEX
8
CUT
10
443.765
20
200.962
30
0
0
VERTEX
8
CUT
10
442.742
20
202.493
30
0
0
VERTEX
8
CUT
10
441.528
20
203.877
30
0
0
VERTEX
8
CUT
10
440.144
20
205.091
30
0
0
VERTEX
8
CUT
10
438.613
20
206.114
30
0
0
VERTEX
8
CUT
10
436.961
20
206.929
30
0
0
VERTEX
8
CUT
10
435.218
20
207.520
30
0
0
VERTEX
8
CUT
10
433.412
20
207.880
30
0
0
VERTEX
8
CUT
10
431.575
20
208.000
30
0
0
VERTEX
8
CUT
10
429.738
20
207.880
30
0
0
VERTEX
8
CUT
10
427.932
20
207.520
30
0
0
VERTEX
8
CUT
10
426.189
20
206.929
30
0
0
VERTEX
8
CUT
10
424.538
20
206.114
30
0
0
VERTEX
8
CUT
10
423.007
20
205.091
30
0
0
VERTEX
8
CUT
10
421.623
20
203.877
30
0
0
VERTEX
8
CUT
10
420.409
20
202.493
30
0
0
VERTEX
8
CUT
10
419.386
20
200.962
30
0
0
VERTEX
8
CUT
10
418.571
20
199.311
30
0
0
VERTEX
8
CUT
10
417.980
20
197.568
30
0
0
VERTEX
8
CUT
10
417.620
20
195.762
30
0
0
VERTEX
8
CUT
10
417.500
20
193.925
30
0
0
VERTEX
8
CUT
10
417.620
20
192.088
30
0
0
VERTEX
8
CUT
10
417.980
20
190.282
30
0
0
VERTEX
8
CUT
10
418.571
20
188.539
30
0
0
VERTEX
8
CUT
10
419.386
20
186.887
30
0
0
VERTEX
8
CUT
10
420.409
20
185.356
30
0
0
VERTEX
8
CUT
10
421.623
20
183.972
30
0
0
VERTEX
8
CUT
10
423.007
20
182.758
30
0
0
VERTEX
8
CUT
10
424.538
20
181.735
30
0
0
VERTEX
8
CUT
10
426.189
20
180.921
30
0
0
VERTEX
8
CUT
10
427.932
20
180.329
30
0
0
VERTEX
8
CUT
10
429.738
20
179.970
30
0
0
VERTEX
8
CUT
10
431.575
20
179.850
30
0
0
VERTEX
8
CUT
10
433.412
20
179.970
30
0
0
VERTEX
8
CUT
10
435.218
20
180.329
30
0
0
VERTEX
8
CUT
10
436.961
20
180.921
30
0
0
VERTEX
8
CUT
10
438.613
20
181.735
30
0
0
VERTEX
8
CUT
10
440.144
20
182.758
30
0
0
VERTEX
8
CUT
10
441.528
20
183.972
30
0
0
VERTEX
8
CUT
10
442.742
20
185.356
30
0
0
VERTEX
8
CUT
10
443.765
20
186.887
30
0
0
VERTEX
8
CUT
10
444.579
20
188.539
30
0
0
VERTEX
8
CUT
10
445.171
20
190.282
30
0
0
VERTEX
8
CUT
10
445.530
20
192.088
30
0
0
SEQEND
8
CUT
0
ENDSEC
0
EOF
