0
SECTION
2
HEADER
9
$ACADVER
1
AC1009
9
$INSUNITS
70
4
0
ENDSEC
0
SECTION
2
TABLES
0
TABLE
2
LAYER
70
3
0
LAYER
2
CUT
70
0
62
1
6
CONTINUOUS
0
LAYER
2
SCORE
70
0
62
5
6
CONTINUOUS
0
LAYER
2
ENGRAVE
70
0
62
7
6
CONTINUOUS
0
ENDTAB
0
ENDSEC
0
SECTION
2
ENTITIES
0
POLYLINE
8
ENGRAVE
66
1
70
1
10
0
20
0
30
0
0
VERTEX
8
ENGRAVE
10
137.522
20
157.595
30
0
0
VERTEX
8
ENGRAVE
10
137.522
20
159.511
30
0
0
VERTEX
8
ENGRAVE
10
137.814
20
159.511
30
0
0
VERTEX
8
ENGRAVE
10
137.855
20
158.720
30
0
0
VERTEX
8
ENGRAVE
10
140.272
20
158.720
30
0
0
VERTEX
8
ENGRAVE
10
140.272
20
158.386
30
0
0
VERTEX
8
ENGRAVE
10
137.814
20
158.386
30
0
0
VERTEX
8
ENGRAVE
10
137.814
20
157.595
30
0
0
SEQEND
8
ENGRAVE
0
POLYLINE
8
ENGRAVE
66
1
70
1
10
0
20
0
30
0
0
VERTEX
8
ENGRAVE
10
137.522
20
160.761
30
0
0
VERTEX
8
ENGRAVE
10
137.522
20
161.011
30
0
0
VERTEX
8
ENGRAVE
10
140.022
20
161.011
30
0
0
VERTEX
8
ENGRAVE
10
140.022
20
161.803
30
0
0
VERTEX
8
ENGRAVE
10
140.272
20
161.803
30
0
0
VERTEX
8
ENGRAVE
10
140.272
20
159.886
30
0
0
VERTEX
8
ENGRAVE
10
140.022
20
159.886
30
0
0
VERTEX
8
ENGRAVE
10
140.022
20
160.678
30
0
0
VERTEX
8
ENGRAVE
10
137.980
20
160.678
30
0
0
VERTEX
8
ENGRAVE
10
138.522
20
160.011
30
0
0
VERTEX
8
ENGRAVE
10
138.522
20
159.928
30
0
0
VERTEX
8
ENGRAVE
10
138.189
20
159.928
30
0
0
VERTEX
8
ENGRAVE
10
137.897
20
160.428
30
0
0
SEQEND
8
ENGRAVE
0
POLYLINE
8
ENGRAVE
66
1
70
1
10
0
20
0
30
0
0
VERTEX
8
ENGRAVE
10
191.529
20
113.154
30
0
0
VERTEX
8
ENGRAVE
10
191.529
20
113.446
30
0
0
VERTEX
8
ENGRAVE
10
191.654
20
113.821
30
0
0
VERTEX
8
ENGRAVE
10
191.821
20
114.029
30
0
0
VERTEX
8
ENGRAVE
10
192.279
20
114.279
30
0
0
VERTEX
8
ENGRAVE
10
192.446
20
114.237
30
0
0
VERTEX
8
ENGRAVE
10
192.488
20
113.946
30
0
0
VERTEX
8
ENGRAVE
10
192.238
20
113.904
30
0
0
VERTEX
8
ENGRAVE
10
191.946
20
113.696
30
0
0
VERTEX
8
ENGRAVE
10
191.821
20
113.446
30
0
0
VERTEX
8
ENGRAVE
10
191.821
20
113.112
30
0
0
VERTEX
8
ENGRAVE
10
191.946
20
112.862
30
0
0
VERTEX
8
ENGRAVE
10
192.321
20
112.612
30
0
0
VERTEX
8
ENGRAVE
10
193.196
20
112.529
30
0
0
VERTEX
8
ENGRAVE
10
193.654
20
112.654
30
0
0
VERTEX
8
ENGRAVE
10
193.946
20
112.862
30
0
0
VERTEX
8
ENGRAVE
10
194.071
20
113.112
30
0
0
VERTEX
8
ENGRAVE
10
194.029
20
113.571
30
0
0
VERTEX
8
ENGRAVE
10
193.821
20
113.821
30
0
0
VERTEX
8
ENGRAVE
10
193.404
20
113.946
30
0
0
VERTEX
8
ENGRAVE
10
193.446
20
114.279
30
0
0
VERTEX
8
ENGRAVE
10
193.696
20
114.237
30
0
0
VERTEX
8
ENGRAVE
10
194.071
20
114.029
30
0
0
VERTEX
8
ENGRAVE
10
194.363
20
113.487
30
0
0
VERTEX
8
ENGRAVE
10
194.363
20
113.071
30
0
0
VERTEX
8
ENGRAVE
10
194.196
20
112.654
30
0
0
VERTEX
8
ENGRAVE
10
193.779
20
112.321
30
0
0
VERTEX
8
ENGRAVE
10
193.238
20
112.154
30
0
0
VERTEX
8
ENGRAVE
10
192.613
20
112.154
30
0
0
VERTEX
8
ENGRAVE
10
192.029
20
112.362
30
0
0
VERTEX
8
ENGRAVE
10
191.654
20
112.737
30
0
0
SEQEND
8
ENGRAVE
0
POLYLINE
8
ENGRAVE
66
1
70
1
10
0
20
0
30
0
0
VERTEX
8
ENGRAVE
10
191.529
20
115.487
30
0
0
VERTEX
8
ENGRAVE
10
191.571
20
116.071
30
0
0
VERTEX
8
ENGRAVE
10
191.696
20
116.321
30
0
0
VERTEX
8
ENGRAVE
10
191.904
20
116.529
30
0
0
VERTEX
8
ENGRAVE
10
192.113
20
116.612
30
0
0
VERTEX
8
ENGRAVE
10
192.529
20
116.571
30
0
0
VERTEX
8
ENGRAVE
10
192.779
20
116.362
30
0
0
VERTEX
8
ENGRAVE
10
192.904
20
116.112
30
0
0
VERTEX
8
ENGRAVE
10
192.946
20
116.362
30
0
0
VERTEX
8
ENGRAVE
10
193.154
20
116.612
30
0
0
VERTEX
8
ENGRAVE
10
193.321
20
116.696
30
0
0
VERTEX
8
ENGRAVE
10
193.779
20
116.696
30
0
0
VERTEX
8
ENGRAVE
10
194.113
20
116.487
30
0
0
VERTEX
8
ENGRAVE
10
194.363
20
115.904
30
0
0
VERTEX
8
ENGRAVE
10
194.321
20
115.237
30
0
0
VERTEX
8
ENGRAVE
10
194.196
20
114.987
30
0
0
VERTEX
8
ENGRAVE
10
193.821
20
114.654
30
0
0
VERTEX
8
ENGRAVE
10
193.654
20
114.696
30
0
0
VERTEX
8
ENGRAVE
10
193.613
20
114.946
30
0
0
VERTEX
8
ENGRAVE
10
193.821
20
115.029
30
0
0
VERTEX
8
ENGRAVE
10
194.071
20
115.362
30
0
0
VERTEX
8
ENGRAVE
10
194.071
20
115.946
30
0
0
VERTEX
8
ENGRAVE
10
193.988
20
116.154
30
0
0
VERTEX
8
ENGRAVE
10
193.779
20
116.321
30
0
0
VERTEX
8
ENGRAVE
10
193.446
20
116.362
30
0
0
VERTEX
8
ENGRAVE
10
193.154
20
116.154
30
0
0
VERTEX
8
ENGRAVE
10
193.029
20
115.779
30
0
0
VERTEX
8
ENGRAVE
10
193.029
20
115.321
30
0
0
VERTEX
8
ENGRAVE
10
192.738
20
115.321
30
0
0
VERTEX
8
ENGRAVE
10
192.738
20
115.946
30
0
0
VERTEX
8
ENGRAVE
10
192.613
20
116.154
30
0
0
VERTEX
8
ENGRAVE
10
192.446
20
116.237
30
0
0
VERTEX
8
ENGRAVE
10
192.029
20
116.196
30
0
0
VERTEX
8
ENGRAVE
10
191.821
20
115.904
30
0
0
VERTEX
8
ENGRAVE
10
191.821
20
115.446
30
0
0
VERTEX
8
ENGRAVE
10
191.904
20
115.279
30
0
0
VERTEX
8
ENGRAVE
10
192.238
20
115.029
30
0
0
VERTEX
8
ENGRAVE
10
192.196
20
114.737
30
0
0
VERTEX
8
ENGRAVE
10
191.779
20
114.946
30
0
0
SEQEND
8
ENGRAVE
0
POLYLINE
8
SCORE
66
1
70
1
10
0
20
0
30
0
0
VERTEX
8
SCORE
10
31.775
20
51.875
30
0
0
VERTEX
8
SCORE
10
31.870
20
54.054
30
0
0
VERTEX
8
SCORE
10
32.155
20
56.216
30
0
0
VERTEX
8
SCORE
10
32.627
20
58.345
30
0
0
VERTEX
8
SCORE
10
33.283
20
60.426
30
0
0
VERTEX
8
SCORE
10
34.117
20
62.440
30
0
0
VERTEX
8
SCORE
10
35.124
20
64.375
30
0
0
VERTEX
8
SCORE
10
36.296
20
66.214
30
0
0
VERTEX
8
SCORE
10
37.624
20
67.945
30
0
0
VERTEX
8
SCORE
10
39.097
20
69.553
30
0
0
VERTEX
8
SCORE
10
40.705
20
71.026
30
0
0
VERTEX
8
SCORE
10
42.436
20
72.354
30
0
0
VERTEX
8
SCORE
10
44.275
20
73.526
30
0
0
VERTEX
8
SCORE
10
46.210
20
74.533
30
0
0
VERTEX
8
SCORE
10
48.224
20
75.367
30
0
0
VERTEX
8
SCORE
10
50.305
20
76.023
30
0
0
VERTEX
8
SCORE
10
52.434
20
76.495
30
0
0
VERTEX
8
SCORE
10
54.596
20
76.780
30
0
0
VERTEX
8
SCORE
10
56.775
20
76.875
30
0
0
VERTEX
8
SCORE
10
58.954
20
76.780
30
0
0
VERTEX
8
SCORE
10
61.116
20
76.495
30
0
0
VERTEX
8
SCORE
10
63.245
20
76.023
30
0
0
VERTEX
8
SCORE
10
65.326
20
75.367
30
0
0
VERTEX
8
SCORE
10
67.340
20
74.533
30
0
0
VERTEX
8
SCORE
10
69.275
20
73.526
30
0
0
VERTEX
8
SCORE
10
71.114
20
72.354
30
0
0
VERTEX
8
SCORE
10
72.845
20
71.026
30
0
0
VERTEX
8
SCORE
10
74.453
20
69.553
30
0
0
VERTEX
8
SCORE
10
75.926
20
67.945
30
0
0
VERTEX
8
SCORE
10
77.254
20
66.214
30
0
0
VERTEX
8
SCORE
10
78.426
20
64.375
30
0
0
VERTEX
8
SCORE
10
79.433
20
62.440
30
0
0
VERTEX
8
SCORE
10
80.267
20
60.426
30
0
0
VERTEX
8
SCORE
10
80.923
20
58.345
30
0
0
VERTEX
8
SCORE
10
81.395
20
56.216
30
0
0
VERTEX
8
SCORE
10
81.680
20
54.054
30
0
0
VERTEX
8
SCORE
10
81.775
20
51.875
30
0
0
VERTEX
8
SCORE
10
81.680
20
49.696
30
0
0
VERTEX
8
SCORE
10
81.395
20
47.534
30
0
0
VERTEX
8
SCORE
10
80.923
20
45.405
30
0
0
VERTEX
8
SCORE
10
80.267
20
43.324
30
0
0
VERTEX
8
SCORE
10
79.433
20
41.310
30
0
0
VERTEX
8
SCORE
10
78.426
20
39.375
30
0
0
VERTEX
8
SCORE
10
77.254
20
37.536
30
0
0
VERTEX
8
SCORE
10
75.926
20
35.805
30
0
0
VERTEX
8
SCORE
10
74.453
20
34.197
30
0
0
VERTEX
8
SCORE
10
72.845
20
32.724
30
0
0
VERTEX
8
SCORE
10
71.114
20
31.396
30
0
0
VERTEX
8
SCORE
10
69.275
20
30.224
30
0
0
VERTEX
8
SCORE
10
67.340
20
29.217
30
0
0
VERTEX
8
SCORE
10
65.326
20
28.383
30
0
0
VERTEX
8
SCORE
10
63.245
20
27.727
30
0
0
VERTEX
8
SCORE
10
61.116
20
27.255
30
0
0
VERTEX
8
SCORE
10
58.954
20
26.970
30
0
0
VERTEX
8
SCORE
10
56.775
20
26.875
30
0
0
VERTEX
8
SCORE
10
54.596
20
26.970
30
0
0
VERTEX
8
SCORE
10
52.434
20
27.255
30
0
0
VERTEX
8
SCORE
10
50.305
20
27.727
30
0
0
VERTEX
8
SCORE
10
48.224
20
28.383
30
0
0
VERTEX
8
SCORE
10
46.210
20
29.217
30
0
0
VERTEX
8
SCORE
10
44.275
20
30.224
30
0
0
VERTEX
8
SCORE
10
42.436
20
31.396
30
0
0
VERTEX
8
SCORE
10
40.705
20
32.724
30
0
0
VERTEX
8
SCORE
10
39.097
20
34.197
30
0
0
VERTEX
8
SCORE
10
37.624
20
35.805
30
0
0
VERTEX
8
SCORE
10
36.296
20
37.536
30
0
0
VERTEX
8
SCORE
10
35.124
20
39.375
30
0
0
VERTEX
8
SCORE
10
34.117
20
41.310
30
0
0
VERTEX
8
SCORE
10
33.283
20
43.324
30
0
0
VERTEX
8
SCORE
10
32.627
20
45.405
30
0
0
VERTEX
8
SCORE
10
32.155
20
47.534
30
0
0
VERTEX
8
SCORE
10
31.870
20
49.696
30
0
0
SEQEND
8
SCORE
0
POLYLINE
8
ENGRAVE
66
1
70
1
10
0
20
0
30
0
0
VERTEX
8
ENGRAVE
10
271.212
20
151.472
30
0
0
VERTEX
8
ENGRAVE
10
271.212
20
151.764
30
0
0
VERTEX
8
ENGRAVE
10
271.337
20
152.139
30
0
0
VERTEX
8
ENGRAVE
10
271.503
20
152.347
30
0
0
VERTEX
8
ENGRAVE
10
271.962
20
152.597
30
0
0
VERTEX
8
ENGRAVE
10
272.128
20
152.556
30
0
0
VERTEX
8
ENGRAVE
10
272.170
20
152.264
30
0
0
VERTEX
8
ENGRAVE
10
271.920
20
152.222
30
0
0
VERTEX
8
ENGRAVE
10
271.628
20
152.014
30
0
0
VERTEX
8
ENGRAVE
10
271.503
20
151.764
30
0
0
VERTEX
8
ENGRAVE
10
271.503
20
151.431
30
0
0
VERTEX
8
ENGRAVE
10
271.628
20
151.181
30
0
0
VERTEX
8
ENGRAVE
10
272.003
20
150.931
30
0
0
VERTEX
8
ENGRAVE
10
272.878
20
150.847
30
0
0
VERTEX
8
ENGRAVE
10
273.337
20
150.972
30
0
0
VERTEX
8
ENGRAVE
10
273.628
20
151.181
30
0
0
VERTEX
8
ENGRAVE
10
273.753
20
151.431
30
0
0
VERTEX
8
ENGRAVE
10
273.712
20
151.889
30
0
0
VERTEX
8
ENGRAVE
10
273.503
20
152.139
30
0
0
VERTEX
8
ENGRAVE
10
273.087
20
152.264
30
0
0
VERTEX
8
ENGRAVE
10
273.128
20
152.597
30
0
0
VERTEX
8
ENGRAVE
10
273.378
20
152.556
30
0
0
VERTEX
8
ENGRAVE
10
273.753
20
152.347
30
0
0
VERTEX
8
ENGRAVE
10
274.045
20
151.806
30
0
0
VERTEX
8
ENGRAVE
10
274.045
20
151.389
30
0
0
VERTEX
8
ENGRAVE
10
273.878
20
150.972
30
0
0
VERTEX
8
ENGRAVE
10
273.462
20
150.639
30
0
0
VERTEX
8
ENGRAVE
10
272.920
20
150.472
30
0
0
VERTEX
8
ENGRAVE
10
272.295
20
150.472
30
0
0
VERTEX
8
ENGRAVE
10
271.712
20
150.681
30
0
0
VERTEX
8
ENGRAVE
10
271.337
20
151.056
30
0
0
SEQEND
8
ENGRAVE
0
POLYLINE
8
ENGRAVE
66
1
70
1
10
0
20
0
30
0
0
VERTEX
8
ENGRAVE
10
271.253
20
154.181
30
0
0
VERTEX
8
ENGRAVE
10
271.253
20
154.597
30
0
0
VERTEX
8
ENGRAVE
10
273.087
20
154.597
30
0
0
VERTEX
8
ENGRAVE
10
273.087
20
155.056
30
0
0
VERTEX
8
ENGRAVE
10
273.378
20
155.056
30
0
0
VERTEX
8
ENGRAVE
10
273.378
20
154.597
30
0
0
VERTEX
8
ENGRAVE
10
274.003
20
154.597
30
0
0
VERTEX
8
ENGRAVE
10
274.003
20
154.264
30
0
0
VERTEX
8
ENGRAVE
10
273.378
20
154.264
30
0
0
VERTEX
8
ENGRAVE
10
273.378
20
152.931
30
0
0
VERTEX
8
ENGRAVE
10
273.087
20
152.931
30
0
0
SEQEND
8
ENGRAVE
0
POLYLINE
8
ENGRAVE
66
1
70
1
10
0
20
0
30
0
0
VERTEX
8
ENGRAVE
10
271.587
20
154.264
30
0
0
VERTEX
8
ENGRAVE
10
271.753
20
154.097
30
0
0
VERTEX
8
ENGRAVE
10
273.087
20
153.306
30
0
0
VERTEX
8
ENGRAVE
10
273.087
20
154.264
30
0
0
SEQEND
8
ENGRAVE
0
POLYLINE
8
ENGRAVE
66
1
70
1
10
0
20
0
30
0
0
VERTEX
8
ENGRAVE
10
127.125
20
89.575
30
0
0
VERTEX
8
ENGRAVE
10
124.344
20
89.135
30
0
0
VERTEX
8
ENGRAVE
10
121.835
20
87.856
30
0
0
VERTEX
8
ENGRAVE
10
119.844
20
85.865
30
0
0
VERTEX
8
ENGRAVE
10
118.565
20
83.356
30
0
0
VERTEX
8
ENGRAVE
10
118.125
20
80.575
30
0
0
VERTEX
8
ENGRAVE
10
118.125
20
26.575
30
0
0
VERTEX
8
ENGRAVE
10
118.565
20
23.794
30
0
0
VERTEX
8
ENGRAVE
10
119.844
20
21.285
30
0
0
VERTEX
8
ENGRAVE
10
121.835
20
19.294
30
0
0
VERTEX
8
ENGRAVE
10
124.344
20
18.015
30
0
0
VERTEX
8
ENGRAVE
10
127.125
20
17.575
30
0
0
VERTEX
8
ENGRAVE
10
135.125
20
17.575
30
0
0
VERTEX
8
ENGRAVE
10
137.906
20
18.015
30
0
0
VERTEX
8
ENGRAVE
10
140.415
20
19.294
30
0
0
VERTEX
8
ENGRAVE
10
142.406
20
21.285
30
0
0
VERTEX
8
ENGRAVE
10
143.685
20
23.794
30
0
0
VERTEX
8
ENGRAVE
10
144.125
20
26.575
30
0
0
VERTEX
8
ENGRAVE
10
144.125
20
80.575
30
0
0
VERTEX
8
ENGRAVE
10
143.685
20
83.356
30
0
0
VERTEX
8
ENGRAVE
10
142.406
20
85.865
30
0
0
VERTEX
8
ENGRAVE
10
140.415
20
87.856
30
0
0
VERTEX
8
ENGRAVE
10
137.906
20
89.135
30
0
0
VERTEX
8
ENGRAVE
10
135.125
20
89.575
30
0
0
SEQEND
8
ENGRAVE
0
POLYLINE
8
ENGRAVE
66
1
70
1
10
0
20
0
30
0
0
VERTEX
8
ENGRAVE
10
253.228
20
19.269
30
0
0
VERTEX
8
ENGRAVE
10
253.403
20
19.269
30
0
0
VERTEX
8
ENGRAVE
10
253.403
20
18.678
30
0
0
VERTEX
8
ENGRAVE
10
254.081
20
18.678
30
0
0
VERTEX
8
ENGRAVE
10
254.081
20
19.269
30
0
0
VERTEX
8
ENGRAVE
10
254.256
20
19.269
30
0
0
VERTEX
8
ENGRAVE
10
254.256
20
17.825
30
0
0
VERTEX
8
ENGRAVE
10
254.081
20
17.825
30
0
0
VERTEX
8
ENGRAVE
10
254.081
20
18.503
30
0
0
VERTEX
8
ENGRAVE
10
253.403
20
18.503
30
0
0
VERTEX
8
ENGRAVE
10
253.403
20
17.825
30
0
0
VERTEX
8
ENGRAVE
10
253.228
20
17.825
30
0
0
SEQEND
8
ENGRAVE
0
POLYLINE
8
ENGRAVE
66
1
70
1
10
0
20
0
30
0
0
VERTEX
8
ENGRAVE
10
255.153
20
19.269
30
0
0
VERTEX
8
ENGRAVE
10
255.394
20
19.269
30
0
0
VERTEX
8
ENGRAVE
10
255.394
20
18.306
30
0
0
VERTEX
8
ENGRAVE
10
255.634
20
18.306
30
0
0
VERTEX
8
ENGRAVE
10
255.634
20
18.153
30
0
0
VERTEX
8
ENGRAVE
10
255.394
20
18.153
30
0
0
VERTEX
8
ENGRAVE
10
255.394
20
17.825
30
0
0
VERTEX
8
ENGRAVE
10
255.219
20
17.825
30
0
0
VERTEX
8
ENGRAVE
10
255.219
20
18.153
30
0
0
VERTEX
8
ENGRAVE
10
254.497
20
18.175
30
0
0
VERTEX
8
ENGRAVE
10
254.497
20
18.284
30
0
0
SEQEND
8
ENGRAVE
0
POLYLINE
8
ENGRAVE
66
1
70
1
10
0
20
0
30
0
0
VERTEX
8
ENGRAVE
10
255.219
20
19.116
30
0
0
VERTEX
8
ENGRAVE
10
254.738
20
18.394
30
0
0
VERTEX
8
ENGRAVE
10
254.716
20
18.306
30
0
0
VERTEX
8
ENGRAVE
10
255.219
20
18.306
30
0
0
SEQEND
8
ENGRAVE
0
POLYLINE
8
ENGRAVE
66
1
70
1
10
0
20
0
30
0
0
VERTEX
8
ENGRAVE
10
192.385
20
14.333
30
0
0
VERTEX
8
ENGRAVE
10
192.385
20
14.708
30
0
0
VERTEX
8
ENGRAVE
10
192.552
20
15.166
30
0
0
VERTEX
8
ENGRAVE
10
192.843
20
15.416
30
0
0
VERTEX
8
ENGRAVE
10
193.343
20
15.583
30
0
0
VERTEX
8
ENGRAVE
10
194.177
20
15.583
30
0
0
VERTEX
8
ENGRAVE
10
194.593
20
15.458
30
0
0
VERTEX
8
ENGRAVE
10
195.052
20
15.083
30
0
0
VERTEX
8
ENGRAVE
10
195.218
20
14.666
30
0
0
VERTEX
8
ENGRAVE
10
195.218
20
14.250
30
0
0
VERTEX
8
ENGRAVE
10
195.135
20
14.000
30
0
0
VERTEX
8
ENGRAVE
10
194.718
20
13.625
30
0
0
VERTEX
8
ENGRAVE
10
194.635
20
13.666
30
0
0
VERTEX
8
ENGRAVE
10
194.593
20
13.916
30
0
0
VERTEX
8
ENGRAVE
10
194.718
20
13.958
30
0
0
VERTEX
8
ENGRAVE
10
194.927
20
14.250
30
0
0
VERTEX
8
ENGRAVE
10
194.927
20
14.750
30
0
0
VERTEX
8
ENGRAVE
10
194.718
20
15.041
30
0
0
VERTEX
8
ENGRAVE
10
194.385
20
15.208
30
0
0
VERTEX
8
ENGRAVE
10
193.760
20
15.291
30
0
0
VERTEX
8
ENGRAVE
10
194.177
20
14.833
30
0
0
VERTEX
8
ENGRAVE
10
194.218
20
14.250
30
0
0
VERTEX
8
ENGRAVE
10
194.093
20
13.958
30
0
0
VERTEX
8
ENGRAVE
10
193.593
20
13.583
30
0
0
VERTEX
8
ENGRAVE
10
193.052
20
13.583
30
0
0
VERTEX
8
ENGRAVE
10
192.843
20
13.666
30
0
0
VERTEX
8
ENGRAVE
10
192.593
20
13.875
30
0
0
SEQEND
8
ENGRAVE
0
POLYLINE
8
ENGRAVE
66
1
70
1
10
0
20
0
30
0
0
VERTEX
8
ENGRAVE
10
192.427
20
11.083
30
0
0
VERTEX
8
ENGRAVE
10
192.427
20
11.416
30
0
0
VERTEX
8
ENGRAVE
10
193.552
20
11.416
30
0
0
VERTEX
8
ENGRAVE
10
193.552
20
12.708
30
0
0
VERTEX
8
ENGRAVE
10
192.427
20
12.708
30
0
0
VERTEX
8
ENGRAVE
10
192.427
20
13.041
30
0
0
VERTEX
8
ENGRAVE
10
195.177
20
13.041
30
0
0
VERTEX
8
ENGRAVE
10
195.177
20
12.708
30
0
0
VERTEX
8
ENGRAVE
10
193.885
20
12.708
30
0
0
VERTEX
8
ENGRAVE
10
193.885
20
11.416
30
0
0
VERTEX
8
ENGRAVE
10
195.177
20
11.416
30
0
0
VERTEX
8
ENGRAVE
10
195.177
20
11.083
30
0
0
SEQEND
8
ENGRAVE
0
POLYLINE
8
ENGRAVE
66
1
70
1
10
0
20
0
30
0
0
VERTEX
8
ENGRAVE
10
192.677
20
14.458
30
0
0
VERTEX
8
ENGRAVE
10
192.760
20
14.166
30
0
0
VERTEX
8
ENGRAVE
10
192.927
20
14.000
30
0
0
VERTEX
8
ENGRAVE
10
193.093
20
13.916
30
0
0
VERTEX
8
ENGRAVE
10
193.552
20
13.916
30
0
0
VERTEX
8
ENGRAVE
10
193.885
20
14.208
30
0
0
VERTEX
8
ENGRAVE
10
193.927
20
14.791
30
0
0
VERTEX
8
ENGRAVE
10
193.718
20
15.083
30
0
0
VERTEX
8
ENGRAVE
10
193.468
20
15.208
30
0
0
VERTEX
8
ENGRAVE
10
193.135
20
15.208
30
0
0
VERTEX
8
ENGRAVE
10
192.760
20
14.958
30
0
0
SEQEND
8
ENGRAVE
0
POLYLINE
8
ENGRAVE
66
1
70
1
10
0
20
0
30
0
0
VERTEX
8
ENGRAVE
10
209.446
20
16.733
30
0
0
VERTEX
8
ENGRAVE
10
209.779
20
16.733
30
0
0
VERTEX
8
ENGRAVE
10
210.196
20
16.567
30
0
0
VERTEX
8
ENGRAVE
10
210.446
20
16.275
30
0
0
VERTEX
8
ENGRAVE
10
210.571
20
15.983
30
0
0
VERTEX
8
ENGRAVE
10
210.571
20
15.817
30
0
0
VERTEX
8
ENGRAVE
10
210.279
20
15.775
30
0
0
VERTEX
8
ENGRAVE
10
210.113
20
16.192
30
0
0
VERTEX
8
ENGRAVE
10
209.738
20
16.442
30
0
0
VERTEX
8
ENGRAVE
10
209.238
20
16.358
30
0
0
VERTEX
8
ENGRAVE
10
208.946
20
16.025
30
0
0
VERTEX
8
ENGRAVE
10
208.821
20
15.400
30
0
0
VERTEX
8
ENGRAVE
10
208.863
20
14.900
30
0
0
VERTEX
8
ENGRAVE
10
209.029
20
14.483
30
0
0
VERTEX
8
ENGRAVE
10
209.238
20
14.275
30
0
0
VERTEX
8
ENGRAVE
10
209.404
20
14.192
30
0
0
VERTEX
8
ENGRAVE
10
209.779
20
14.192
30
0
0
VERTEX
8
ENGRAVE
10
210.154
20
14.483
30
0
0
VERTEX
8
ENGRAVE
10
210.279
20
14.858
30
0
0
VERTEX
8
ENGRAVE
10
210.571
20
14.817
30
0
0
VERTEX
8
ENGRAVE
10
210.529
20
14.525
30
0
0
VERTEX
8
ENGRAVE
10
210.363
20
14.233
30
0
0
VERTEX
8
ENGRAVE
10
209.821
20
13.900
30
0
0
VERTEX
8
ENGRAVE
10
209.196
20
13.942
30
0
0
VERTEX
8
ENGRAVE
10
208.821
20
14.192
30
0
0
VERTEX
8
ENGRAVE
10
208.571
20
14.608
30
0
0
VERTEX
8
ENGRAVE
10
208.446
20
15.108
30
0
0
VERTEX
8
ENGRAVE
10
208.488
20
15.775
30
0
0
VERTEX
8
ENGRAVE
10
208.654
20
16.233
30
0
0
VERTEX
8
ENGRAVE
10
209.113
20
16.650
30
0
0
SEQEND
8
ENGRAVE
0
POLYLINE
8
ENGRAVE
66
1
70
1
10
0
20
0
30
0
0
VERTEX
8
ENGRAVE
10
214.238
20
16.733
30
0
0
VERTEX
8
ENGRAVE
10
214.738
20
16.692
30
0
0
VERTEX
8
ENGRAVE
10
215.071
20
16.525
30
0
0
VERTEX
8
ENGRAVE
10
215.321
20
16.150
30
0
0
VERTEX
8
ENGRAVE
10
215.321
20
15.650
30
0
0
VERTEX
8
ENGRAVE
10
214.946
20
15.067
30
0
0
VERTEX
8
ENGRAVE
10
214.863
20
15.067
30
0
0
VERTEX
8
ENGRAVE
10
214.654
20
14.817
30
0
0
VERTEX
8
ENGRAVE
10
213.863
20
14.233
30
0
0
VERTEX
8
ENGRAVE
10
215.321
20
14.233
30
0
0
VERTEX
8
ENGRAVE
10
215.363
20
13.942
30
0
0
VERTEX
8
ENGRAVE
10
213.404
20
13.942
30
0
0
VERTEX
8
ENGRAVE
10
213.404
20
14.233
30
0
0
VERTEX
8
ENGRAVE
10
214.404
20
14.983
30
0
0
VERTEX
8
ENGRAVE
10
214.863
20
15.442
30
0
0
VERTEX
8
ENGRAVE
10
214.988
20
15.733
30
0
0
VERTEX
8
ENGRAVE
10
214.988
20
16.067
30
0
0
VERTEX
8
ENGRAVE
10
214.904
20
16.233
30
0
0
VERTEX
8
ENGRAVE
10
214.571
20
16.442
30
0
0
VERTEX
8
ENGRAVE
10
214.154
20
16.442
30
0
0
VERTEX
8
ENGRAVE
10
213.988
20
16.358
30
0
0
VERTEX
8
ENGRAVE
10
213.779
20
16.108
30
0
0
VERTEX
8
ENGRAVE
10
213.696
20
15.817
30
0
0
VERTEX
8
ENGRAVE
10
213.404
20
15.900
30
0
0
VERTEX
8
ENGRAVE
10
213.529
20
16.317
30
0
0
VERTEX
8
ENGRAVE
10
213.904
20
16.650
30
0
0
SEQEND
8
ENGRAVE
0
POLYLINE
8
ENGRAVE
66
1
70
1
10
0
20
0
30
0
0
VERTEX
8
ENGRAVE
10
211.946
20
16.692
30
0
0
VERTEX
8
ENGRAVE
10
212.238
20
16.692
30
0
0
VERTEX
8
ENGRAVE
10
212.238
20
14.192
30
0
0
VERTEX
8
ENGRAVE
10
212.988
20
14.192
30
0
0
VERTEX
8
ENGRAVE
10
212.988
20
13.942
30
0
0
VERTEX
8
ENGRAVE
10
211.071
20
13.942
30
0
0
VERTEX
8
ENGRAVE
10
211.071
20
14.192
30
0
0
VERTEX
8
ENGRAVE
10
211.904
20
14.192
30
0
0
VERTEX
8
ENGRAVE
10
211.904
20
16.233
30
0
0
VERTEX
8
ENGRAVE
10
211.196
20
15.692
30
0
0
VERTEX
8
ENGRAVE
10
211.154
20
16.067
30
0
0
VERTEX
8
ENGRAVE
10
211.529
20
16.233
30
0
0
VERTEX
8
ENGRAVE
10
211.946
20
16.608
30
0
0
SEQEND
8
ENGRAVE
0
POLYLINE
8
CUT
66
1
70
1
10
0
20
0
30
0
0
VERTEX
8
CUT
10
109.581
20
120.000
30
0
0
VERTEX
8
CUT
10
108.362
20
120.193
30
0
0
VERTEX
8
CUT
10
107.268
20
120.750
30
0
0
VERTEX
8
CUT
10
106.400
20
121.618
30
0
0
VERTEX
8
CUT
10
105.843
20
122.712
30
0
0
VERTEX
8
CUT
10
105.650
20
123.931
30
0
0
VERTEX
8
CUT
10
105.650
20
168.919
30
0
0
VERTEX
8
CUT
10
105.843
20
170.138
30
0
0
VERTEX
8
CUT
10
106.400
20
171.232
30
0
0
VERTEX
8
CUT
10
107.268
20
172.100
30
0
0
VERTEX
8
CUT
10
108.362
20
172.657
30
0
0
VERTEX
8
CUT
10
109.581
20
172.850
30
0
0
VERTEX
8
CUT
10
120.569
20
172.850
30
0
0
VERTEX
8
CUT
10
121.788
20
172.657
30
0
0
VERTEX
8
CUT
10
122.882
20
172.100
30
0
0
VERTEX
8
CUT
10
123.750
20
171.232
30
0
0
VERTEX
8
CUT
10
124.307
20
170.138
30
0
0
VERTEX
8
CUT
10
124.500
20
168.919
30
0
0
VERTEX
8
CUT
10
124.500
20
123.931
30
0
0
VERTEX
8
CUT
10
124.307
20
122.712
30
0
0
VERTEX
8
CUT
10
123.750
20
121.618
30
0
0
VERTEX
8
CUT
10
122.882
20
120.750
30
0
0
VERTEX
8
CUT
10
121.788
20
120.193
30
0
0
VERTEX
8
CUT
10
120.569
20
120.000
30
0
0
SEQEND
8
CUT
0
POLYLINE
8
CUT
66
1
70
1
10
0
20
0
30
0
0
VERTEX
8
CUT
10
64.581
20
120.000
30
0
0
VERTEX
8
CUT
10
63.362
20
120.193
30
0
0
VERTEX
8
CUT
10
62.268
20
120.750
30
0
0
VERTEX
8
CUT
10
61.400
20
121.618
30
0
0
VERTEX
8
CUT
10
60.843
20
122.712
30
0
0
VERTEX
8
CUT
10
60.650
20
123.931
30
0
0
VERTEX
8
CUT
10
60.650
20
168.919
30
0
0
VERTEX
8
CUT
10
60.843
20
170.138
30
0
0
VERTEX
8
CUT
10
61.400
20
171.232
30
0
0
VERTEX
8
CUT
10
62.268
20
172.100
30
0
0
VERTEX
8
CUT
10
63.362
20
172.657
30
0
0
VERTEX
8
CUT
10
64.581
20
172.850
30
0
0
VERTEX
8
CUT
10
75.569
20
172.850
30
0
0
VERTEX
8
CUT
10
76.788
20
172.657
30
0
0
VERTEX
8
CUT
10
77.882
20
172.100
30
0
0
VERTEX
8
CUT
10
78.750
20
171.232
30
0
0
VERTEX
8
CUT
10
79.307
20
170.138
30
0
0
VERTEX
8
CUT
10
79.500
20
168.919
30
0
0
VERTEX
8
CUT
10
79.500
20
123.931
30
0
0
VERTEX
8
CUT
10
79.307
20
122.712
30
0
0
VERTEX
8
CUT
10
78.750
20
121.618
30
0
0
VERTEX
8
CUT
10
77.882
20
120.750
30
0
0
VERTEX
8
CUT
10
76.788
20
120.193
30
0
0
VERTEX
8
CUT
10
75.569
20
120.000
30
0
0
SEQEND
8
CUT
0
POLYLINE
8
CUT
66
1
70
1
10
0
20
0
30
0
0
VERTEX
8
CUT
10
18.081
20
120.000
30
0
0
VERTEX
8
CUT
10
16.862
20
120.193
30
0
0
VERTEX
8
CUT
10
15.768
20
120.750
30
0
0
VERTEX
8
CUT
10
14.900
20
121.618
30
0
0
VERTEX
8
CUT
10
14.343
20
122.712
30
0
0
VERTEX
8
CUT
10
14.150
20
123.931
30
0
0
VERTEX
8
CUT
10
14.150
20
168.919
30
0
0
VERTEX
8
CUT
10
14.343
20
170.138
30
0
0
VERTEX
8
CUT
10
14.900
20
171.232
30
0
0
VERTEX
8
CUT
10
15.768
20
172.100
30
0
0
VERTEX
8
CUT
10
16.862
20
172.657
30
0
0
VERTEX
8
CUT
10
18.081
20
172.850
30
0
0
VERTEX
8
CUT
10
30.569
20
172.850
30
0
0
VERTEX
8
CUT
10
31.788
20
172.657
30
0
0
VERTEX
8
CUT
10
32.882
20
172.100
30
0
0
VERTEX
8
CUT
10
33.750
20
171.232
30
0
0
VERTEX
8
CUT
10
34.307
20
170.138
30
0
0
VERTEX
8
CUT
10
34.500
20
168.919
30
0
0
VERTEX
8
CUT
10
34.500
20
123.931
30
0
0
VERTEX
8
CUT
10
34.307
20
122.712
30
0
0
VERTEX
8
CUT
10
33.750
20
121.618
30
0
0
VERTEX
8
CUT
10
32.882
20
120.750
30
0
0
VERTEX
8
CUT
10
31.788
20
120.193
30
0
0
VERTEX
8
CUT
10
30.569
20
120.000
30
0
0
SEQEND
8
CUT
0
POLYLINE
8
CUT
66
1
70
1
10
0
20
0
30
0
0
VERTEX
8
CUT
10
127.981
20
185.000
30
0
0
VERTEX
8
CUT
10
127.566
20
185.066
30
0
0
VERTEX
8
CUT
10
127.197
20
185.254
30
0
0
VERTEX
8
CUT
10
126.904
20
185.547
30
0
0
VERTEX
8
CUT
10
126.716
20
185.916
30
0
0
VERTEX
8
CUT
10
126.650
20
186.331
30
0
0
VERTEX
8
CUT
10
126.650
20
186.519
30
0
0
VERTEX
8
CUT
10
126.716
20
186.934
30
0
0
VERTEX
8
CUT
10
126.904
20
187.303
30
0
0
VERTEX
8
CUT
10
127.197
20
187.596
30
0
0
VERTEX
8
CUT
10
127.566
20
187.784
30
0
0
VERTEX
8
CUT
10
127.981
20
187.850
30
0
0
VERTEX
8
CUT
10
147.169
20
187.850
30
0
0
VERTEX
8
CUT
10
147.584
20
187.784
30
0
0
VERTEX
8
CUT
10
147.953
20
187.596
30
0
0
VERTEX
8
CUT
10
148.246
20
187.303
30
0
0
VERTEX
8
CUT
10
148.434
20
186.934
30
0
0
VERTEX
8
CUT
10
148.500
20
186.519
30
0
0
VERTEX
8
CUT
10
148.500
20
186.331
30
0
0
VERTEX
8
CUT
10
148.434
20
185.916
30
0
0
VERTEX
8
CUT
10
148.246
20
185.547
30
0
0
VERTEX
8
CUT
10
147.953
20
185.254
30
0
0
VERTEX
8
CUT
10
147.584
20
185.066
30
0
0
VERTEX
8
CUT
10
147.169
20
185.000
30
0
0
SEQEND
8
CUT
0
POLYLINE
8
CUT
66
1
70
1
10
0
20
0
30
0
0
VERTEX
8
CUT
10
127.981
20
177.000
30
0
0
VERTEX
8
CUT
10
127.566
20
177.066
30
0
0
VERTEX
8
CUT
10
127.197
20
177.254
30
0
0
VERTEX
8
CUT
10
126.904
20
177.547
30
0
0
VERTEX
8
CUT
10
126.716
20
177.916
30
0
0
VERTEX
8
CUT
10
126.650
20
178.331
30
0
0
VERTEX
8
CUT
10
126.650
20
178.519
30
0
0
VERTEX
8
CUT
10
126.716
20
178.934
30
0
0
VERTEX
8
CUT
10
126.904
20
179.303
30
0
0
VERTEX
8
CUT
10
127.197
20
179.596
30
0
0
VERTEX
8
CUT
10
127.566
20
179.784
30
0
0
VERTEX
8
CUT
10
127.981
20
179.850
30
0
0
VERTEX
8
CUT
10
147.169
20
179.850
30
0
0
VERTEX
8
CUT
10
147.584
20
179.784
30
0
0
VERTEX
8
CUT
10
147.953
20
179.596
30
0
0
VERTEX
8
CUT
10
148.246
20
179.303
30
0
0
VERTEX
8
CUT
10
148.434
20
178.934
30
0
0
VERTEX
8
CUT
10
148.500
20
178.519
30
0
0
VERTEX
8
CUT
10
148.500
20
178.331
30
0
0
VERTEX
8
CUT
10
148.434
20
177.916
30
0
0
VERTEX
8
CUT
10
148.246
20
177.547
30
0
0
VERTEX
8
CUT
10
147.953
20
177.254
30
0
0
VERTEX
8
CUT
10
147.584
20
177.066
30
0
0
VERTEX
8
CUT
10
147.169
20
177.000
30
0
0
SEQEND
8
CUT
0
POLYLINE
8
CUT
66
1
70
1
10
0
20
0
30
0
0
VERTEX
8
CUT
10
127.981
20
113.000
30
0
0
VERTEX
8
CUT
10
127.566
20
113.066
30
0
0
VERTEX
8
CUT
10
127.197
20
113.254
30
0
0
VERTEX
8
CUT
10
126.904
20
113.547
30
0
0
VERTEX
8
CUT
10
126.716
20
113.916
30
0
0
VERTEX
8
CUT
10
126.650
20
114.331
30
0
0
VERTEX
8
CUT
10
126.650
20
114.519
30
0
0
VERTEX
8
CUT
10
126.716
20
114.934
30
0
0
VERTEX
8
CUT
10
126.904
20
115.303
30
0
0
VERTEX
8
CUT
10
127.197
20
115.596
30
0
0
VERTEX
8
CUT
10
127.566
20
115.784
30
0
0
VERTEX
8
CUT
10
127.981
20
115.850
30
0
0
VERTEX
8
CUT
10
147.169
20
115.850
30
0
0
VERTEX
8
CUT
10
147.584
20
115.784
30
0
0
VERTEX
8
CUT
10
147.953
20
115.596
30
0
0
VERTEX
8
CUT
10
148.246
20
115.303
30
0
0
VERTEX
8
CUT
10
148.434
20
114.934
30
0
0
VERTEX
8
CUT
10
148.500
20
114.519
30
0
0
VERTEX
8
CUT
10
148.500
20
114.331
30
0
0
VERTEX
8
CUT
10
148.434
20
113.916
30
0
0
VERTEX
8
CUT
10
148.246
20
113.547
30
0
0
VERTEX
8
CUT
10
147.953
20
113.254
30
0
0
VERTEX
8
CUT
10
147.584
20
113.066
30
0
0
VERTEX
8
CUT
10
147.169
20
113.000
30
0
0
SEQEND
8
CUT
0
POLYLINE
8
CUT
66
1
70
1
10
0
20
0
30
0
0
VERTEX
8
CUT
10
127.981
20
105.000
30
0
0
VERTEX
8
CUT
10
127.566
20
105.066
30
0
0
VERTEX
8
CUT
10
127.197
20
105.254
30
0
0
VERTEX
8
CUT
10
126.904
20
105.547
30
0
0
VERTEX
8
CUT
10
126.716
20
105.916
30
0
0
VERTEX
8
CUT
10
126.650
20
106.331
30
0
0
VERTEX
8
CUT
10
126.650
20
106.519
30
0
0
VERTEX
8
CUT
10
126.716
20
106.934
30
0
0
VERTEX
8
CUT
10
126.904
20
107.303
30
0
0
VERTEX
8
CUT
10
127.197
20
107.596
30
0
0
VERTEX
8
CUT
10
127.566
20
107.784
30
0
0
VERTEX
8
CUT
10
127.981
20
107.850
30
0
0
VERTEX
8
CUT
10
147.169
20
107.850
30
0
0
VERTEX
8
CUT
10
147.584
20
107.784
30
0
0
VERTEX
8
CUT
10
147.953
20
107.596
30
0
0
VERTEX
8
CUT
10
148.246
20
107.303
30
0
0
VERTEX
8
CUT
10
148.434
20
106.934
30
0
0
VERTEX
8
CUT
10
148.500
20
106.519
30
0
0
VERTEX
8
CUT
10
148.500
20
106.331
30
0
0
VERTEX
8
CUT
10
148.434
20
105.916
30
0
0
VERTEX
8
CUT
10
148.246
20
105.547
30
0
0
VERTEX
8
CUT
10
147.953
20
105.254
30
0
0
VERTEX
8
CUT
10
147.584
20
105.066
30
0
0
VERTEX
8
CUT
10
147.169
20
105.000
30
0
0
SEQEND
8
CUT
0
POLYLINE
8
CUT
66
1
70
1
10
0
20
0
30
0
0
VERTEX
8
CUT
10
82.981
20
185.000
30
0
0
VERTEX
8
CUT
10
82.566
20
185.066
30
0
0
VERTEX
8
CUT
10
82.197
20
185.254
30
0
0
VERTEX
8
CUT
10
81.904
20
185.547
30
0
0
VERTEX
8
CUT
10
81.716
20
185.916
30
0
0
VERTEX
8
CUT
10
81.650
20
186.331
30
0
0
VERTEX
8
CUT
10
81.650
20
186.519
30
0
0
VERTEX
8
CUT
10
81.716
20
186.934
30
0
0
VERTEX
8
CUT
10
81.904
20
187.303
30
0
0
VERTEX
8
CUT
10
82.197
20
187.596
30
0
0
VERTEX
8
CUT
10
82.566
20
187.784
30
0
0
VERTEX
8
CUT
10
82.981
20
187.850
30
0
0
VERTEX
8
CUT
10
102.169
20
187.850
30
0
0
VERTEX
8
CUT
10
102.584
20
187.784
30
0
0
VERTEX
8
CUT
10
102.953
20
187.596
30
0
0
VERTEX
8
CUT
10
103.246
20
187.303
30
0
0
VERTEX
8
CUT
10
103.434
20
186.934
30
0
0
VERTEX
8
CUT
10
103.500
20
186.519
30
0
0
VERTEX
8
CUT
10
103.500
20
186.331
30
0
0
VERTEX
8
CUT
10
103.434
20
185.916
30
0
0
VERTEX
8
CUT
10
103.246
20
185.547
30
0
0
VERTEX
8
CUT
10
102.953
20
185.254
30
0
0
VERTEX
8
CUT
10
102.584
20
185.066
30
0
0
VERTEX
8
CUT
10
102.169
20
185.000
30
0
0
SEQEND
8
CUT
0
POLYLINE
8
CUT
66
1
70
1
10
0
20
0
30
0
0
VERTEX
8
CUT
10
82.981
20
177.000
30
0
0
VERTEX
8
CUT
10
82.566
20
177.066
30
0
0
VERTEX
8
CUT
10
82.197
20
177.254
30
0
0
VERTEX
8
CUT
10
81.904
20
177.547
30
0
0
VERTEX
8
CUT
10
81.716
20
177.916
30
0
0
VERTEX
8
CUT
10
81.650
20
178.331
30
0
0
VERTEX
8
CUT
10
81.650
20
178.519
30
0
0
VERTEX
8
CUT
10
81.716
20
178.934
30
0
0
VERTEX
8
CUT
10
81.904
20
179.303
30
0
0
VERTEX
8
CUT
10
82.197
20
179.596
30
0
0
VERTEX
8
CUT
10
82.566
20
179.784
30
0
0
VERTEX
8
CUT
10
82.981
20
179.850
30
0
0
VERTEX
8
CUT
10
102.169
20
179.850
30
0
0
VERTEX
8
CUT
10
102.584
20
179.784
30
0
0
VERTEX
8
CUT
10
102.953
20
179.596
30
0
0
VERTEX
8
CUT
10
103.246
20
179.303
30
0
0
VERTEX
8
CUT
10
103.434
20
178.934
30
0
0
VERTEX
8
CUT
10
103.500
20
178.519
30
0
0
VERTEX
8
CUT
10
103.500
20
178.331
30
0
0
VERTEX
8
CUT
10
103.434
20
177.916
30
0
0
VERTEX
8
CUT
10
103.246
20
177.547
30
0
0
VERTEX
8
CUT
10
102.953
20
177.254
30
0
0
VERTEX
8
CUT
10
102.584
20
177.066
30
0
0
VERTEX
8
CUT
10
102.169
20
177.000
30
0
0
SEQEND
8
CUT
0
POLYLINE
8
CUT
66
1
70
1
10
0
20
0
30
0
0
VERTEX
8
CUT
10
82.981
20
113.000
30
0
0
VERTEX
8
CUT
10
82.566
20
113.066
30
0
0
VERTEX
8
CUT
10
82.197
20
113.254
30
0
0
VERTEX
8
CUT
10
81.904
20
113.547
30
0
0
VERTEX
8
CUT
10
81.716
20
113.916
30
0
0
VERTEX
8
CUT
10
81.650
20
114.331
30
0
0
VERTEX
8
CUT
10
81.650
20
114.519
30
0
0
VERTEX
8
CUT
10
81.716
20
114.934
30
0
0
VERTEX
8
CUT
10
81.904
20
115.303
30
0
0
VERTEX
8
CUT
10
82.197
20
115.596
30
0
0
VERTEX
8
CUT
10
82.566
20
115.784
30
0
0
VERTEX
8
CUT
10
82.981
20
115.850
30
0
0
VERTEX
8
CUT
10
102.169
20
115.850
30
0
0
VERTEX
8
CUT
10
102.584
20
115.784
30
0
0
VERTEX
8
CUT
10
102.953
20
115.596
30
0
0
VERTEX
8
CUT
10
103.246
20
115.303
30
0
0
VERTEX
8
CUT
10
103.434
20
114.934
30
0
0
VERTEX
8
CUT
10
103.500
20
114.519
30
0
0
VERTEX
8
CUT
10
103.500
20
114.331
30
0
0
VERTEX
8
CUT
10
103.434
20
113.916
30
0
0
VERTEX
8
CUT
10
103.246
20
113.547
30
0
0
VERTEX
8
CUT
10
102.953
20
113.254
30
0
0
VERTEX
8
CUT
10
102.584
20
113.066
30
0
0
VERTEX
8
CUT
10
102.169
20
113.000
30
0
0
SEQEND
8
CUT
0
POLYLINE
8
CUT
66
1
70
1
10
0
20
0
30
0
0
VERTEX
8
CUT
10
82.981
20
105.000
30
0
0
VERTEX
8
CUT
10
82.566
20
105.066
30
0
0
VERTEX
8
CUT
10
82.197
20
105.254
30
0
0
VERTEX
8
CUT
10
81.904
20
105.547
30
0
0
VERTEX
8
CUT
10
81.716
20
105.916
30
0
0
VERTEX
8
CUT
10
81.650
20
106.331
30
0
0
VERTEX
8
CUT
10
81.650
20
106.519
30
0
0
VERTEX
8
CUT
10
81.716
20
106.934
30
0
0
VERTEX
8
CUT
10
81.904
20
107.303
30
0
0
VERTEX
8
CUT
10
82.197
20
107.596
30
0
0
VERTEX
8
CUT
10
82.566
20
107.784
30
0
0
VERTEX
8
CUT
10
82.981
20
107.850
30
0
0
VERTEX
8
CUT
10
102.169
20
107.850
30
0
0
VERTEX
8
CUT
10
102.584
20
107.784
30
0
0
VERTEX
8
CUT
10
102.953
20
107.596
30
0
0
VERTEX
8
CUT
10
103.246
20
107.303
30
0
0
VERTEX
8
CUT
10
103.434
20
106.934
30
0
0
VERTEX
8
CUT
10
103.500
20
106.519
30
0
0
VERTEX
8
CUT
10
103.500
20
106.331
30
0
0
VERTEX
8
CUT
10
103.434
20
105.916
30
0
0
VERTEX
8
CUT
10
103.246
20
105.547
30
0
0
VERTEX
8
CUT
10
102.953
20
105.254
30
0
0
VERTEX
8
CUT
10
102.584
20
105.066
30
0
0
VERTEX
8
CUT
10
102.169
20
105.000
30
0
0
SEQEND
8
CUT
0
POLYLINE
8
CUT
66
1
70
1
10
0
20
0
30
0
0
VERTEX
8
CUT
10
37.981
20
185.000
30
0
0
VERTEX
8
CUT
10
37.566
20
185.066
30
0
0
VERTEX
8
CUT
10
37.197
20
185.254
30
0
0
VERTEX
8
CUT
10
36.904
20
185.547
30
0
0
VERTEX
8
CUT
10
36.716
20
185.916
30
0
0
VERTEX
8
CUT
10
36.650
20
186.331
30
0
0
VERTEX
8
CUT
10
36.650
20
186.519
30
0
0
VERTEX
8
CUT
10
36.716
20
186.934
30
0
0
VERTEX
8
CUT
10
36.904
20
187.303
30
0
0
VERTEX
8
CUT
10
37.197
20
187.596
30
0
0
VERTEX
8
CUT
10
37.566
20
187.784
30
0
0
VERTEX
8
CUT
10
37.981
20
187.850
30
0
0
VERTEX
8
CUT
10
57.169
20
187.850
30
0
0
VERTEX
8
CUT
10
57.584
20
187.784
30
0
0
VERTEX
8
CUT
10
57.953
20
187.596
30
0
0
VERTEX
8
CUT
10
58.246
20
187.303
30
0
0
VERTEX
8
CUT
10
58.434
20
186.934
30
0
0
VERTEX
8
CUT
10
58.500
20
186.519
30
0
0
VERTEX
8
CUT
10
58.500
20
186.331
30
0
0
VERTEX
8
CUT
10
58.434
20
185.916
30
0
0
VERTEX
8
CUT
10
58.246
20
185.547
30
0
0
VERTEX
8
CUT
10
57.953
20
185.254
30
0
0
VERTEX
8
CUT
10
57.584
20
185.066
30
0
0
VERTEX
8
CUT
10
57.169
20
185.000
30
0
0
SEQEND
8
CUT
0
POLYLINE
8
CUT
66
1
70
1
10
0
20
0
30
0
0
VERTEX
8
CUT
10
37.981
20
177.000
30
0
0
VERTEX
8
CUT
10
37.566
20
177.066
30
0
0
VERTEX
8
CUT
10
37.197
20
177.254
30
0
0
VERTEX
8
CUT
10
36.904
20
177.547
30
0
0
VERTEX
8
CUT
10
36.716
20
177.916
30
0
0
VERTEX
8
CUT
10
36.650
20
178.331
30
0
0
VERTEX
8
CUT
10
36.650
20
178.519
30
0
0
VERTEX
8
CUT
10
36.716
20
178.934
30
0
0
VERTEX
8
CUT
10
36.904
20
179.303
30
0
0
VERTEX
8
CUT
10
37.197
20
179.596
30
0
0
VERTEX
8
CUT
10
37.566
20
179.784
30
0
0
VERTEX
8
CUT
10
37.981
20
179.850
30
0
0
VERTEX
8
CUT
10
57.169
20
179.850
30
0
0
VERTEX
8
CUT
10
57.584
20
179.784
30
0
0
VERTEX
8
CUT
10
57.953
20
179.596
30
0
0
VERTEX
8
CUT
10
58.246
20
179.303
30
0
0
VERTEX
8
CUT
10
58.434
20
178.934
30
0
0
VERTEX
8
CUT
10
58.500
20
178.519
30
0
0
VERTEX
8
CUT
10
58.500
20
178.331
30
0
0
VERTEX
8
CUT
10
58.434
20
177.916
30
0
0
VERTEX
8
CUT
10
58.246
20
177.547
30
0
0
VERTEX
8
CUT
10
57.953
20
177.254
30
0
0
VERTEX
8
CUT
10
57.584
20
177.066
30
0
0
VERTEX
8
CUT
10
57.169
20
177.000
30
0
0
SEQEND
8
CUT
0
POLYLINE
8
CUT
66
1
70
1
10
0
20
0
30
0
0
VERTEX
8
CUT
10
37.981
20
113.000
30
0
0
VERTEX
8
CUT
10
37.566
20
113.066
30
0
0
VERTEX
8
CUT
10
37.197
20
113.254
30
0
0
VERTEX
8
CUT
10
36.904
20
113.547
30
0
0
VERTEX
8
CUT
10
36.716
20
113.916
30
0
0
VERTEX
8
CUT
10
36.650
20
114.331
30
0
0
VERTEX
8
CUT
10
36.650
20
114.519
30
0
0
VERTEX
8
CUT
10
36.716
20
114.934
30
0
0
VERTEX
8
CUT
10
36.904
20
115.303
30
0
0
VERTEX
8
CUT
10
37.197
20
115.596
30
0
0
VERTEX
8
CUT
10
37.566
20
115.784
30
0
0
VERTEX
8
CUT
10
37.981
20
115.850
30
0
0
VERTEX
8
CUT
10
57.169
20
115.850
30
0
0
VERTEX
8
CUT
10
57.584
20
115.784
30
0
0
VERTEX
8
CUT
10
57.953
20
115.596
30
0
0
VERTEX
8
CUT
10
58.246
20
115.303
30
0
0
VERTEX
8
CUT
10
58.434
20
114.934
30
0
0
VERTEX
8
CUT
10
58.500
20
114.519
30
0
0
VERTEX
8
CUT
10
58.500
20
114.331
30
0
0
VERTEX
8
CUT
10
58.434
20
113.916
30
0
0
VERTEX
8
CUT
10
58.246
20
113.547
30
0
0
VERTEX
8
CUT
10
57.953
20
113.254
30
0
0
VERTEX
8
CUT
10
57.584
20
113.066
30
0
0
VERTEX
8
CUT
10
57.169
20
113.000
30
0
0
SEQEND
8
CUT
0
POLYLINE
8
CUT
66
1
70
1
10
0
20
0
30
0
0
VERTEX
8
CUT
10
37.981
20
105.000
30
0
0
VERTEX
8
CUT
10
37.566
20
105.066
30
0
0
VERTEX
8
CUT
10
37.197
20
105.254
30
0
0
VERTEX
8
CUT
10
36.904
20
105.547
30
0
0
VERTEX
8
CUT
10
36.716
20
105.916
30
0
0
VERTEX
8
CUT
10
36.650
20
106.331
30
0
0
VERTEX
8
CUT
10
36.650
20
106.519
30
0
0
VERTEX
8
CUT
10
36.716
20
106.934
30
0
0
VERTEX
8
CUT
10
36.904
20
107.303
30
0
0
VERTEX
8
CUT
10
37.197
20
107.596
30
0
0
VERTEX
8
CUT
10
37.566
20
107.784
30
0
0
VERTEX
8
CUT
10
37.981
20
107.850
30
0
0
VERTEX
8
CUT
10
57.169
20
107.850
30
0
0
VERTEX
8
CUT
10
57.584
20
107.784
30
0
0
VERTEX
8
CUT
10
57.953
20
107.596
30
0
0
VERTEX
8
CUT
10
58.246
20
107.303
30
0
0
VERTEX
8
CUT
10
58.434
20
106.934
30
0
0
VERTEX
8
CUT
10
58.500
20
106.519
30
0
0
VERTEX
8
CUT
10
58.500
20
106.331
30
0
0
VERTEX
8
CUT
10
58.434
20
105.916
30
0
0
VERTEX
8
CUT
10
58.246
20
105.547
30
0
0
VERTEX
8
CUT
10
57.953
20
105.254
30
0
0
VERTEX
8
CUT
10
57.584
20
105.066
30
0
0
VERTEX
8
CUT
10
57.169
20
105.000
30
0
0
SEQEND
8
CUT
0
POLYLINE
8
CUT
66
1
70
1
10
0
20
0
30
0
0
VERTEX
8
CUT
10
144.588
20
191.900
30
0
0
VERTEX
8
CUT
10
144.588
20
188.950
30
0
0
VERTEX
8
CUT
10
134.638
20
188.950
30
0
0
VERTEX
8
CUT
10
134.638
20
191.900
30
0
0
SEQEND
8
CUT
0
POLYLINE
8
CUT
66
1
70
1
10
0
20
0
30
0
0
VERTEX
8
CUT
10
107.663
20
191.900
30
0
0
VERTEX
8
CUT
10
107.663
20
188.950
30
0
0
VERTEX
8
CUT
10
97.713
20
188.950
30
0
0
VERTEX
8
CUT
10
97.713
20
191.900
30
0
0
SEQEND
8
CUT
0
POLYLINE
8
CUT
66
1
70
1
10
0
20
0
30
0
0
VERTEX
8
CUT
10
70.738
20
191.900
30
0
0
VERTEX
8
CUT
10
70.738
20
188.950
30
0
0
VERTEX
8
CUT
10
60.788
20
188.950
30
0
0
VERTEX
8
CUT
10
60.788
20
191.900
30
0
0
SEQEND
8
CUT
0
POLYLINE
8
CUT
66
1
70
1
10
0
20
0
30
0
0
VERTEX
8
CUT
10
33.813
20
191.900
30
0
0
VERTEX
8
CUT
10
33.813
20
188.950
30
0
0
VERTEX
8
CUT
10
23.863
20
188.950
30
0
0
VERTEX
8
CUT
10
23.863
20
191.900
30
0
0
SEQEND
8
CUT
0
POLYLINE
8
CUT
66
1
70
1
10
0
20
0
30
0
0
VERTEX
8
CUT
10
153.650
20
195.000
30
0
0
VERTEX
8
CUT
10
153.650
20
192.000
30
0
0
VERTEX
8
CUT
10
160.150
20
192.000
30
0
0
VERTEX
8
CUT
10
160.150
20
104.150
30
0
0
VERTEX
8
CUT
10
153.650
20
104.150
30
0
0
VERTEX
8
CUT
10
153.650
20
98.150
30
0
0
VERTEX
8
CUT
10
8.300
20
98.150
30
0
0
VERTEX
8
CUT
10
8.300
20
121.850
30
0
0
VERTEX
8
CUT
10
5.000
20
121.850
30
0
0
VERTEX
8
CUT
10
5.000
20
134.000
30
0
0
VERTEX
8
CUT
10
8.300
20
134.000
30
0
0
VERTEX
8
CUT
10
8.300
20
161.850
30
0
0
VERTEX
8
CUT
10
5.000
20
161.850
30
0
0
VERTEX
8
CUT
10
5.000
20
174.000
30
0
0
VERTEX
8
CUT
10
8.300
20
174.000
30
0
0
VERTEX
8
CUT
10
8.300
20
195.000
30
0
0
SEQEND
8
CUT
0
POLYLINE
8
CUT
66
1
70
1
10
0
20
0
30
0
0
VERTEX
8
CUT
10
210.025
20
54.551
30
0
0
VERTEX
8
CUT
10
208.958
20
54.691
30
0
0
VERTEX
8
CUT
10
207.963
20
55.103
30
0
0
VERTEX
8
CUT
10
207.109
20
55.759
30
0
0
VERTEX
8
CUT
10
206.453
20
56.613
30
0
0
VERTEX
8
CUT
10
206.041
20
57.608
30
0
0
VERTEX
8
CUT
10
205.901
20
58.675
30
0
0
VERTEX
8
CUT
10
206.041
20
59.742
30
0
0
VERTEX
8
CUT
10
206.453
20
60.737
30
0
0
VERTEX
8
CUT
10
207.109
20
61.591
30
0
0
VERTEX
8
CUT
10
207.963
20
62.247
30
0
0
VERTEX
8
CUT
10
208.958
20
62.659
30
0
0
VERTEX
8
CUT
10
210.025
20
62.799
30
0
0
VERTEX
8
CUT
10
211.092
20
62.659
30
0
0
VERTEX
8
CUT
10
212.087
20
62.247
30
0
0
VERTEX
8
CUT
10
212.941
20
61.591
30
0
0
VERTEX
8
CUT
10
213.597
20
60.737
30
0
0
VERTEX
8
CUT
10
214.009
20
59.742
30
0
0
VERTEX
8
CUT
10
214.149
20
58.675
30
0
0
VERTEX
8
CUT
10
214.009
20
57.608
30
0
0
VERTEX
8
CUT
10
213.597
20
56.613
30
0
0
VERTEX
8
CUT
10
212.941
20
55.759
30
0
0
VERTEX
8
CUT
10
212.087
20
55.103
30
0
0
VERTEX
8
CUT
10
211.092
20
54.691
30
0
0
SEQEND
8
CUT
0
POLYLINE
8
CUT
66
1
70
1
10
0
20
0
30
0
0
VERTEX
8
CUT
10
210.025
20
48.552
30
0
0
VERTEX
8
CUT
10
209.321
20
48.713
30
0
0
VERTEX
8
CUT
10
208.756
20
49.163
30
0
0
VERTEX
8
CUT
10
208.443
20
49.814
30
0
0
VERTEX
8
CUT
10
208.443
20
50.536
30
0
0
VERTEX
8
CUT
10
208.756
20
51.187
30
0
0
VERTEX
8
CUT
10
209.321
20
51.637
30
0
0
VERTEX
8
CUT
10
210.025
20
51.798
30
0
0
VERTEX
8
CUT
10
210.729
20
51.637
30
0
0
VERTEX
8
CUT
10
211.294
20
51.187
30
0
0
VERTEX
8
CUT
10
211.607
20
50.536
30
0
0
VERTEX
8
CUT
10
211.607
20
49.814
30
0
0
VERTEX
8
CUT
10
211.294
20
49.163
30
0
0
VERTEX
8
CUT
10
210.729
20
48.713
30
0
0
SEQEND
8
CUT
0
POLYLINE
8
CUT
66
1
70
1
10
0
20
0
30
0
0
VERTEX
8
CUT
10
210.025
20
65.552
30
0
0
VERTEX
8
CUT
10
209.321
20
65.713
30
0
0
VERTEX
8
CUT
10
208.756
20
66.163
30
0
0
VERTEX
8
CUT
10
208.443
20
66.814
30
0
0
VERTEX
8
CUT
10
208.443
20
67.536
30
0
0
VERTEX
8
CUT
10
208.756
20
68.187
30
0
0
VERTEX
8
CUT
10
209.321
20
68.637
30
0
0
VERTEX
8
CUT
10
210.025
20
68.798
30
0
0
VERTEX
8
CUT
10
210.729
20
68.637
30
0
0
VERTEX
8
CUT
10
211.294
20
68.187
30
0
0
VERTEX
8
CUT
10
211.607
20
67.536
30
0
0
VERTEX
8
CUT
10
211.607
20
66.814
30
0
0
VERTEX
8
CUT
10
211.294
20
66.163
30
0
0
VERTEX
8
CUT
10
210.729
20
65.713
30
0
0
SEQEND
8
CUT
0
POLYLINE
8
CUT
66
1
70
1
10
0
20
0
30
0
0
VERTEX
8
CUT
10
209.931
20
164.050
30
0
0
VERTEX
8
CUT
10
209.300
20
164.150
30
0
0
VERTEX
8
CUT
10
208.735
20
164.437
30
0
0
VERTEX
8
CUT
10
208.287
20
164.885
30
0
0
VERTEX
8
CUT
10
208.000
20
165.450
30
0
0
VERTEX
8
CUT
10
207.900
20
166.081
30
0
0
VERTEX
8
CUT
10
207.900
20
174.269
30
0
0
VERTEX
8
CUT
10
208.000
20
174.900
30
0
0
VERTEX
8
CUT
10
208.287
20
175.465
30
0
0
VERTEX
8
CUT
10
208.735
20
175.913
30
0
0
VERTEX
8
CUT
10
209.300
20
176.200
30
0
0
VERTEX
8
CUT
10
209.931
20
176.300
30
0
0
VERTEX
8
CUT
10
210.119
20
176.300
30
0
0
VERTEX
8
CUT
10
210.750
20
176.200
30
0
0
VERTEX
8
CUT
10
211.315
20
175.913
30
0
0
VERTEX
8
CUT
10
211.763
20
175.465
30
0
0
VERTEX
8
CUT
10
212.050
20
174.900
30
0
0
VERTEX
8
CUT
10
212.150
20
174.269
30
0
0
VERTEX
8
CUT
10
212.150
20
166.081
30
0
0
VERTEX
8
CUT
10
212.050
20
165.450
30
0
0
VERTEX
8
CUT
10
211.763
20
164.885
30
0
0
VERTEX
8
CUT
10
211.315
20
164.437
30
0
0
VERTEX
8
CUT
10
210.750
20
164.150
30
0
0
VERTEX
8
CUT
10
210.119
20
164.050
30
0
0
SEQEND
8
CUT
0
POLYLINE
8
CUT
66
1
70
1
10
0
20
0
30
0
0
VERTEX
8
CUT
10
220.225
20
100.775
30
0
0
VERTEX
8
CUT
10
220.225
20
90.825
30
0
0
VERTEX
8
CUT
10
217.275
20
90.825
30
0
0
VERTEX
8
CUT
10
217.275
20
100.775
30
0
0
SEQEND
8
CUT
0
POLYLINE
8
CUT
66
1
70
1
10
0
20
0
30
0
0
VERTEX
8
CUT
10
220.225
20
138.025
30
0
0
VERTEX
8
CUT
10
220.225
20
128.075
30
0
0
VERTEX
8
CUT
10
217.275
20
128.075
30
0
0
VERTEX
8
CUT
10
217.275
20
138.025
30
0
0
SEQEND
8
CUT
0
POLYLINE
8
CUT
66
1
70
1
10
0
20
0
30
0
0
VERTEX
8
CUT
10
220.225
20
175.275
30
0
0
VERTEX
8
CUT
10
220.225
20
165.325
30
0
0
VERTEX
8
CUT
10
217.275
20
165.325
30
0
0
VERTEX
8
CUT
10
217.275
20
175.275
30
0
0
SEQEND
8
CUT
0
POLYLINE
8
CUT
66
1
70
1
10
0
20
0
30
0
0
VERTEX
8
CUT
10
185.081
20
191.900
30
0
0
VERTEX
8
CUT
10
185.081
20
188.950
30
0
0
VERTEX
8
CUT
10
175.131
20
188.950
30
0
0
VERTEX
8
CUT
10
175.131
20
191.900
30
0
0
SEQEND
8
CUT
0
POLYLINE
8
CUT
66
1
70
1
10
0
20
0
30
0
0
VERTEX
8
CUT
10
213.844
20
191.900
30
0
0
VERTEX
8
CUT
10
213.844
20
188.950
30
0
0
VERTEX
8
CUT
10
203.894
20
188.950
30
0
0
VERTEX
8
CUT
10
203.894
20
191.900
30
0
0
SEQEND
8
CUT
0
POLYLINE
8
CUT
66
1
70
1
10
0
20
0
30
0
0
VERTEX
8
CUT
10
185.081
20
39.900
30
0
0
VERTEX
8
CUT
10
185.081
20
36.950
30
0
0
VERTEX
8
CUT
10
175.131
20
36.950
30
0
0
VERTEX
8
CUT
10
175.131
20
39.900
30
0
0
SEQEND
8
CUT
0
POLYLINE
8
CUT
66
1
70
1
10
0
20
0
30
0
0
VERTEX
8
CUT
10
213.844
20
39.900
30
0
0
VERTEX
8
CUT
10
213.844
20
36.950
30
0
0
VERTEX
8
CUT
10
203.894
20
36.950
30
0
0
VERTEX
8
CUT
10
203.894
20
39.900
30
0
0
SEQEND
8
CUT
0
POLYLINE
8
CUT
66
1
70
1
10
0
20
0
30
0
0
VERTEX
8
CUT
10
223.325
20
195.000
30
0
0
VERTEX
8
CUT
10
223.325
20
33.850
30
0
0
VERTEX
8
CUT
10
165.650
20
33.850
30
0
0
VERTEX
8
CUT
10
165.650
20
44.950
30
0
0
VERTEX
8
CUT
10
162.650
20
44.950
30
0
0
VERTEX
8
CUT
10
162.650
20
55.100
30
0
0
VERTEX
8
CUT
10
165.650
20
55.100
30
0
0
VERTEX
8
CUT
10
165.650
20
82.800
30
0
0
VERTEX
8
CUT
10
172.500
20
82.800
30
0
0
VERTEX
8
CUT
10
172.500
20
81.600
30
0
0
VERTEX
8
CUT
10
174.950
20
81.600
30
0
0
VERTEX
8
CUT
10
174.950
20
82.800
30
0
0
VERTEX
8
CUT
10
178.650
20
82.800
30
0
0
VERTEX
8
CUT
10
178.650
20
86.050
30
0
0
VERTEX
8
CUT
10
174.950
20
86.050
30
0
0
VERTEX
8
CUT
10
174.950
20
87.250
30
0
0
VERTEX
8
CUT
10
172.500
20
87.250
30
0
0
VERTEX
8
CUT
10
172.500
20
86.050
30
0
0
VERTEX
8
CUT
10
165.650
20
86.050
30
0
0
VERTEX
8
CUT
10
165.650
20
109.350
30
0
0
VERTEX
8
CUT
10
162.650
20
109.350
30
0
0
VERTEX
8
CUT
10
162.650
20
119.500
30
0
0
VERTEX
8
CUT
10
165.650
20
119.500
30
0
0
VERTEX
8
CUT
10
165.650
20
142.800
30
0
0
VERTEX
8
CUT
10
172.500
20
142.800
30
0
0
VERTEX
8
CUT
10
172.500
20
141.600
30
0
0
VERTEX
8
CUT
10
174.950
20
141.600
30
0
0
VERTEX
8
CUT
10
174.950
20
142.800
30
0
0
VERTEX
8
CUT
10
178.650
20
142.800
30
0
0
VERTEX
8
CUT
10
178.650
20
146.050
30
0
0
VERTEX
8
CUT
10
174.950
20
146.050
30
0
0
VERTEX
8
CUT
10
174.950
20
147.250
30
0
0
VERTEX
8
CUT
10
172.500
20
147.250
30
0
0
VERTEX
8
CUT
10
172.500
20
146.050
30
0
0
VERTEX
8
CUT
10
165.650
20
146.050
30
0
0
VERTEX
8
CUT
10
165.650
20
173.750
30
0
0
VERTEX
8
CUT
10
162.650
20
173.750
30
0
0
VERTEX
8
CUT
10
162.650
20
183.900
30
0
0
VERTEX
8
CUT
10
165.650
20
183.900
30
0
0
VERTEX
8
CUT
10
165.650
20
195.000
30
0
0
SEQEND
8
CUT
0
POLYLINE
8
CUT
66
1
70
1
10
0
20
0
30
0
0
VERTEX
8
CUT
10
17.350
20
28.369
30
0
0
VERTEX
8
CUT
10
17.372
20
28.506
30
0
0
VERTEX
8
CUT
10
17.432
20
28.624
30
0
0
VERTEX
8
CUT
10
17.526
20
28.718
30
0
0
VERTEX
8
CUT
10
17.644
20
28.778
30
0
0
VERTEX
8
CUT
10
17.781
20
28.800
30
0
0
VERTEX
8
CUT
10
29.769
20
28.800
30
0
0
VERTEX
8
CUT
10
29.906
20
28.778
30
0
0
VERTEX
8
CUT
10
30.024
20
28.718
30
0
0
VERTEX
8
CUT
10
30.118
20
28.624
30
0
0
VERTEX
8
CUT
10
30.178
20
28.506
30
0
0
VERTEX
8
CUT
10
30.200
20
28.369
30
0
0
VERTEX
8
CUT
10
30.200
20
10.381
30
0
0
VERTEX
8
CUT
10
30.178
20
10.244
30
0
0
VERTEX
8
CUT
10
30.118
20
10.126
30
0
0
VERTEX
8
CUT
10
30.024
20
10.032
30
0
0
VERTEX
8
CUT
10
29.906
20
9.972
30
0
0
VERTEX
8
CUT
10
29.769
20
9.950
30
0
0
VERTEX
8
CUT
10
17.781
20
9.950
30
0
0
VERTEX
8
CUT
10
17.644
20
9.972
30
0
0
VERTEX
8
CUT
10
17.526
20
10.032
30
0
0
VERTEX
8
CUT
10
17.432
20
10.126
30
0
0
VERTEX
8
CUT
10
17.372
20
10.244
30
0
0
VERTEX
8
CUT
10
17.350
20
10.381
30
0
0
SEQEND
8
CUT
0
POLYLINE
8
CUT
66
1
70
1
10
0
20
0
30
0
0
VERTEX
8
CUT
10
39.300
20
57.669
30
0
0
VERTEX
8
CUT
10
39.322
20
57.806
30
0
0
VERTEX
8
CUT
10
39.382
20
57.924
30
0
0
VERTEX
8
CUT
10
39.476
20
58.018
30
0
0
VERTEX
8
CUT
10
39.594
20
58.078
30
0
0
VERTEX
8
CUT
10
39.731
20
58.100
30
0
0
VERTEX
8
CUT
10
62.419
20
58.100
30
0
0
VERTEX
8
CUT
10
62.556
20
58.078
30
0
0
VERTEX
8
CUT
10
62.674
20
58.018
30
0
0
VERTEX
8
CUT
10
62.768
20
57.924
30
0
0
VERTEX
8
CUT
10
62.828
20
57.806
30
0
0
VERTEX
8
CUT
10
62.850
20
57.669
30
0
0
VERTEX
8
CUT
10
62.850
20
46.081
30
0
0
VERTEX
8
CUT
10
62.828
20
45.944
30
0
0
VERTEX
8
CUT
10
62.768
20
45.826
30
0
0
VERTEX
8
CUT
10
62.674
20
45.732
30
0
0
VERTEX
8
CUT
10
62.556
20
45.672
30
0
0
VERTEX
8
CUT
10
62.419
20
45.650
30
0
0
VERTEX
8
CUT
10
39.731
20
45.650
30
0
0
VERTEX
8
CUT
10
39.594
20
45.672
30
0
0
VERTEX
8
CUT
10
39.476
20
45.732
30
0
0
VERTEX
8
CUT
10
39.382
20
45.826
30
0
0
VERTEX
8
CUT
10
39.322
20
45.944
30
0
0
VERTEX
8
CUT
10
39.300
20
46.081
30
0
0
SEQEND
8
CUT
0
POLYLINE
8
CUT
66
1
70
1
10
0
20
0
30
0
0
VERTEX
8
CUT
10
75.735
20
44.300
30
0
0
VERTEX
8
CUT
10
74.626
20
41.949
30
0
0
VERTEX
8
CUT
10
73.153
20
39.671
30
0
0
VERTEX
8
CUT
10
71.391
20
37.608
30
0
0
VERTEX
8
CUT
10
69.372
20
35.797
30
0
0
VERTEX
8
CUT
10
67.130
20
34.270
30
0
0
VERTEX
8
CUT
10
64.705
20
33.053
30
0
0
VERTEX
8
CUT
10
62.141
20
32.168
30
0
0
VERTEX
8
CUT
10
59.482
20
31.630
30
0
0
VERTEX
8
CUT
10
56.775
20
31.450
30
0
0
VERTEX
8
CUT
10
54.068
20
31.630
30
0
0
VERTEX
8
CUT
10
51.409
20
32.168
30
0
0
VERTEX
8
CUT
10
48.845
20
33.053
30
0
0
VERTEX
8
CUT
10
46.420
20
34.270
30
0
0
VERTEX
8
CUT
10
44.178
20
35.797
30
0
0
VERTEX
8
CUT
10
42.159
20
37.608
30
0
0
VERTEX
8
CUT
10
40.397
20
39.671
30
0
0
VERTEX
8
CUT
10
38.924
20
41.949
30
0
0
VERTEX
8
CUT
10
37.815
20
44.300
30
0
0
VERTEX
8
CUT
10
51.779
20
44.300
30
0
0
VERTEX
8
CUT
10
52.261
20
44.002
30
0
0
VERTEX
8
CUT
10
52.783
20
43.725
30
0
0
VERTEX
8
CUT
10
53.321
20
43.483
30
0
0
VERTEX
8
CUT
10
53.874
20
43.276
30
0
0
VERTEX
8
CUT
10
54.439
20
43.106
30
0
0
VERTEX
8
CUT
10
55.015
20
42.972
30
0
0
VERTEX
8
CUT
10
55.597
20
42.877
30
0
0
VERTEX
8
CUT
10
56.185
20
42.819
30
0
0
VERTEX
8
CUT
10
56.775
20
42.800
30
0
0
VERTEX
8
CUT
10
57.365
20
42.819
30
0
0
VERTEX
8
CUT
10
57.953
20
42.877
30
0
0
VERTEX
8
CUT
10
58.535
20
42.972
30
0
0
VERTEX
8
CUT
10
59.111
20
43.106
30
0
0
VERTEX
8
CUT
10
59.676
20
43.276
30
0
0
VERTEX
8
CUT
10
60.229
20
43.483
30
0
0
VERTEX
8
CUT
10
60.767
20
43.725
30
0
0
VERTEX
8
CUT
10
61.289
20
44.002
30
0
0
VERTEX
8
CUT
10
61.771
20
44.300
30
0
0
SEQEND
8
CUT
0
POLYLINE
8
CUT
66
1
70
1
10
0
20
0
30
0
0
VERTEX
8
CUT
10
64.254
20
51.875
30
0
0
VERTEX
8
CUT
10
64.392
20
52.299
30
0
0
VERTEX
8
CUT
10
64.752
20
52.561
30
0
0
VERTEX
8
CUT
10
65.198
20
52.561
30
0
0
VERTEX
8
CUT
10
65.558
20
52.299
30
0
0
VERTEX
8
CUT
10
65.696
20
51.875
30
0
0
VERTEX
8
CUT
10
65.558
20
51.451
30
0
0
VERTEX
8
CUT
10
65.198
20
51.189
30
0
0
VERTEX
8
CUT
10
64.752
20
51.189
30
0
0
VERTEX
8
CUT
10
64.392
20
51.451
30
0
0
SEQEND
8
CUT
0
POLYLINE
8
CUT
66
1
70
1
10
0
20
0
30
0
0
VERTEX
8
CUT
10
36.454
20
51.875
30
0
0
VERTEX
8
CUT
10
36.592
20
52.299
30
0
0
VERTEX
8
CUT
10
36.952
20
52.561
30
0
0
VERTEX
8
CUT
10
37.398
20
52.561
30
0
0
VERTEX
8
CUT
10
37.758
20
52.299
30
0
0
VERTEX
8
CUT
10
37.896
20
51.875
30
0
0
VERTEX
8
CUT
10
37.758
20
51.451
30
0
0
VERTEX
8
CUT
10
37.398
20
51.189
30
0
0
VERTEX
8
CUT
10
36.952
20
51.189
30
0
0
VERTEX
8
CUT
10
36.592
20
51.451
30
0
0
SEQEND
8
CUT
0
POLYLINE
8
CUT
66
1
70
1
10
0
20
0
30
0
0
VERTEX
8
CUT
10
26.050
20
61.900
30
0
0
VERTEX
8
CUT
10
16.100
20
61.900
30
0
0
VERTEX
8
CUT
10
16.100
20
64.850
30
0
0
VERTEX
8
CUT
10
26.050
20
64.850
30
0
0
SEQEND
8
CUT
0
POLYLINE
8
CUT
66
1
70
1
10
0
20
0
30
0
0
VERTEX
8
CUT
10
97.450
20
61.900
30
0
0
VERTEX
8
CUT
10
87.500
20
61.900
30
0
0
VERTEX
8
CUT
10
87.500
20
64.850
30
0
0
VERTEX
8
CUT
10
97.450
20
64.850
30
0
0
SEQEND
8
CUT
0
POLYLINE
8
CUT
66
1
70
1
10
0
20
0
30
0
0
VERTEX
8
CUT
10
107.350
20
46.150
30
0
0
VERTEX
8
CUT
10
104.400
20
46.150
30
0
0
VERTEX
8
CUT
10
104.400
20
56.100
30
0
0
VERTEX
8
CUT
10
107.350
20
56.100
30
0
0
SEQEND
8
CUT
0
POLYLINE
8
CUT
66
1
70
1
10
0
20
0
30
0
0
VERTEX
8
CUT
10
107.350
20
18.650
30
0
0
VERTEX
8
CUT
10
104.400
20
18.650
30
0
0
VERTEX
8
CUT
10
104.400
20
28.600
30
0
0
VERTEX
8
CUT
10
107.350
20
28.600
30
0
0
SEQEND
8
CUT
0
POLYLINE
8
CUT
66
1
70
1
10
0
20
0
30
0
0
VERTEX
8
CUT
10
9.150
20
46.150
30
0
0
VERTEX
8
CUT
10
6.200
20
46.150
30
0
0
VERTEX
8
CUT
10
6.200
20
56.100
30
0
0
VERTEX
8
CUT
10
9.150
20
56.100
30
0
0
SEQEND
8
CUT
0
POLYLINE
8
CUT
66
1
70
1
10
0
20
0
30
0
0
VERTEX
8
CUT
10
9.150
20
18.650
30
0
0
VERTEX
8
CUT
10
6.200
20
18.650
30
0
0
VERTEX
8
CUT
10
6.200
20
28.600
30
0
0
VERTEX
8
CUT
10
9.150
20
28.600
30
0
0
SEQEND
8
CUT
0
POLYLINE
8
CUT
66
1
70
1
10
0
20
0
30
0
0
VERTEX
8
CUT
10
31.218
20
31.472
30
0
0
VERTEX
8
CUT
10
28.268
20
31.472
30
0
0
VERTEX
8
CUT
10
28.268
20
34.422
30
0
0
VERTEX
8
CUT
10
31.218
20
34.422
30
0
0
SEQEND
8
CUT
0
POLYLINE
8
CUT
66
1
70
1
10
0
20
0
30
0
0
VERTEX
8
CUT
10
85.282
20
31.472
30
0
0
VERTEX
8
CUT
10
82.332
20
31.472
30
0
0
VERTEX
8
CUT
10
82.332
20
34.422
30
0
0
VERTEX
8
CUT
10
85.282
20
34.422
30
0
0
SEQEND
8
CUT
0
POLYLINE
8
CUT
66
1
70
1
10
0
20
0
30
0
0
VERTEX
8
CUT
10
106.480
20
8.100
30
0
0
VERTEX
8
CUT
10
7.070
20
8.100
30
0
0
VERTEX
8
CUT
10
6.538
20
8.170
30
0
0
VERTEX
8
CUT
10
6.037
20
8.377
30
0
0
VERTEX
8
CUT
10
5.607
20
8.707
30
0
0
VERTEX
8
CUT
10
5.277
20
9.137
30
0
0
VERTEX
8
CUT
10
5.070
20
9.638
30
0
0
VERTEX
8
CUT
10
5.000
20
10.170
30
0
0
VERTEX
8
CUT
10
5.000
20
93.580
30
0
0
VERTEX
8
CUT
10
5.070
20
94.112
30
0
0
VERTEX
8
CUT
10
5.277
20
94.613
30
0
0
VERTEX
8
CUT
10
5.607
20
95.043
30
0
0
VERTEX
8
CUT
10
6.037
20
95.373
30
0
0
VERTEX
8
CUT
10
6.538
20
95.580
30
0
0
VERTEX
8
CUT
10
7.070
20
95.650
30
0
0
VERTEX
8
CUT
10
106.480
20
95.650
30
0
0
VERTEX
8
CUT
10
107.012
20
95.580
30
0
0
VERTEX
8
CUT
10
107.513
20
95.373
30
0
0
VERTEX
8
CUT
10
107.943
20
95.043
30
0
0
VERTEX
8
CUT
10
108.273
20
94.613
30
0
0
VERTEX
8
CUT
10
108.480
20
94.112
30
0
0
VERTEX
8
CUT
10
108.550
20
93.580
30
0
0
VERTEX
8
CUT
10
108.550
20
10.170
30
0
0
VERTEX
8
CUT
10
108.480
20
9.638
30
0
0
VERTEX
8
CUT
10
108.273
20
9.137
30
0
0
VERTEX
8
CUT
10
107.943
20
8.707
30
0
0
VERTEX
8
CUT
10
107.513
20
8.377
30
0
0
VERTEX
8
CUT
10
107.012
20
8.170
30
0
0
SEQEND
8
CUT
0
POLYLINE
8
CUT
66
1
70
1
10
0
20
0
30
0
0
VERTEX
8
CUT
10
272.932
20
109.600
30
0
0
VERTEX
8
CUT
10
272.177
20
109.480
30
0
0
VERTEX
8
CUT
10
271.501
20
109.136
30
0
0
VERTEX
8
CUT
10
270.965
20
108.600
30
0
0
VERTEX
8
CUT
10
270.620
20
107.924
30
0
0
VERTEX
8
CUT
10
270.501
20
107.169
30
0
0
VERTEX
8
CUT
10
270.501
20
98.681
30
0
0
VERTEX
8
CUT
10
270.620
20
97.926
30
0
0
VERTEX
8
CUT
10
270.965
20
97.250
30
0
0
VERTEX
8
CUT
10
271.501
20
96.714
30
0
0
VERTEX
8
CUT
10
272.177
20
96.370
30
0
0
VERTEX
8
CUT
10
272.932
20
96.250
30
0
0
VERTEX
8
CUT
10
275.520
20
96.250
30
0
0
VERTEX
8
CUT
10
276.275
20
96.370
30
0
0
VERTEX
8
CUT
10
276.951
20
96.714
30
0
0
VERTEX
8
CUT
10
277.487
20
97.250
30
0
0
VERTEX
8
CUT
10
277.831
20
97.926
30
0
0
VERTEX
8
CUT
10
277.951
20
98.681
30
0
0
VERTEX
8
CUT
10
277.951
20
107.169
30
0
0
VERTEX
8
CUT
10
277.831
20
107.924
30
0
0
VERTEX
8
CUT
10
277.487
20
108.600
30
0
0
VERTEX
8
CUT
10
276.951
20
109.136
30
0
0
VERTEX
8
CUT
10
276.275
20
109.480
30
0
0
VERTEX
8
CUT
10
275.520
20
109.600
30
0
0
SEQEND
8
CUT
0
POLYLINE
8
CUT
66
1
70
1
10
0
20
0
30
0
0
VERTEX
8
CUT
10
283.401
20
95.283
30
0
0
VERTEX
8
CUT
10
283.401
20
105.233
30
0
0
VERTEX
8
CUT
10
280.451
20
105.233
30
0
0
VERTEX
8
CUT
10
280.451
20
95.283
30
0
0
SEQEND
8
CUT
0
POLYLINE
8
CUT
66
1
70
1
10
0
20
0
30
0
0
VERTEX
8
CUT
10
283.401
20
131.950
30
0
0
VERTEX
8
CUT
10
283.401
20
141.900
30
0
0
VERTEX
8
CUT
10
280.451
20
141.900
30
0
0
VERTEX
8
CUT
10
280.451
20
131.950
30
0
0
SEQEND
8
CUT
0
POLYLINE
8
CUT
66
1
70
1
10
0
20
0
30
0
0
VERTEX
8
CUT
10
283.401
20
168.617
30
0
0
VERTEX
8
CUT
10
283.401
20
178.567
30
0
0
VERTEX
8
CUT
10
280.451
20
178.567
30
0
0
VERTEX
8
CUT
10
280.451
20
168.617
30
0
0
SEQEND
8
CUT
0
POLYLINE
8
CUT
66
1
70
1
10
0
20
0
30
0
0
VERTEX
8
CUT
10
286.501
20
81.850
30
0
0
VERTEX
8
CUT
10
286.501
20
192.000
30
0
0
VERTEX
8
CUT
10
277.119
20
192.000
30
0
0
VERTEX
8
CUT
10
277.119
20
195.000
30
0
0
VERTEX
8
CUT
10
266.969
20
195.000
30
0
0
VERTEX
8
CUT
10
266.969
20
192.000
30
0
0
VERTEX
8
CUT
10
248.357
20
192.000
30
0
0
VERTEX
8
CUT
10
248.357
20
195.000
30
0
0
VERTEX
8
CUT
10
238.207
20
195.000
30
0
0
VERTEX
8
CUT
10
238.207
20
192.000
30
0
0
VERTEX
8
CUT
10
228.825
20
192.000
30
0
0
VERTEX
8
CUT
10
228.825
20
185.850
30
0
0
VERTEX
8
CUT
10
259.825
20
185.850
30
0
0
VERTEX
8
CUT
10
259.825
20
98.000
30
0
0
VERTEX
8
CUT
10
228.825
20
98.000
30
0
0
VERTEX
8
CUT
10
228.825
20
94.000
30
0
0
VERTEX
8
CUT
10
225.825
20
94.000
30
0
0
VERTEX
8
CUT
10
225.825
20
85.850
30
0
0
VERTEX
8
CUT
10
228.825
20
85.850
30
0
0
VERTEX
8
CUT
10
228.825
20
81.850
30
0
0
VERTEX
8
CUT
10
238.207
20
81.850
30
0
0
VERTEX
8
CUT
10
238.207
20
78.850
30
0
0
VERTEX
8
CUT
10
248.357
20
78.850
30
0
0
VERTEX
8
CUT
10
248.357
20
81.850
30
0
0
VERTEX
8
CUT
10
266.969
20
81.850
30
0
0
VERTEX
8
CUT
10
266.969
20
78.850
30
0
0
VERTEX
8
CUT
10
277.119
20
78.850
30
0
0
VERTEX
8
CUT
10
277.119
20
81.850
30
0
0
SEQEND
8
CUT
0
POLYLINE
8
CUT
66
1
70
1
10
0
20
0
30
0
0
VERTEX
8
CUT
10
131.125
20
39.500
30
0
0
VERTEX
8
CUT
10
129.807
20
39.351
30
0
0
VERTEX
8
CUT
10
128.554
20
38.913
30
0
0
VERTEX
8
CUT
10
127.431
20
38.207
30
0
0
VERTEX
8
CUT
10
126.493
20
37.269
30
0
0
VERTEX
8
CUT
10
125.787
20
36.146
30
0
0
VERTEX
8
CUT
10
125.349
20
34.893
30
0
0
VERTEX
8
CUT
10
125.200
20
33.575
30
0
0
VERTEX
8
CUT
10
125.349
20
32.257
30
0
0
VERTEX
8
CUT
10
125.787
20
31.004
30
0
0
VERTEX
8
CUT
10
126.493
20
29.881
30
0
0
VERTEX
8
CUT
10
127.431
20
28.943
30
0
0
VERTEX
8
CUT
10
128.554
20
28.237
30
0
0
VERTEX
8
CUT
10
129.807
20
27.799
30
0
0
VERTEX
8
CUT
10
131.125
20
27.650
30
0
0
VERTEX
8
CUT
10
132.443
20
27.799
30
0
0
VERTEX
8
CUT
10
133.696
20
28.237
30
0
0
VERTEX
8
CUT
10
134.819
20
28.943
30
0
0
VERTEX
8
CUT
10
135.757
20
29.881
30
0
0
VERTEX
8
CUT
10
136.463
20
31.004
30
0
0
VERTEX
8
CUT
10
136.901
20
32.257
30
0
0
VERTEX
8
CUT
10
137.050
20
33.575
30
0
0
VERTEX
8
CUT
10
136.901
20
34.893
30
0
0
VERTEX
8
CUT
10
136.463
20
36.146
30
0
0
VERTEX
8
CUT
10
135.757
20
37.269
30
0
0
VERTEX
8
CUT
10
134.819
20
38.207
30
0
0
VERTEX
8
CUT
10
133.696
20
38.913
30
0
0
VERTEX
8
CUT
10
132.443
20
39.351
30
0
0
SEQEND
8
CUT
0
POLYLINE
8
CUT
66
1
70
1
10
0
20
0
30
0
0
VERTEX
8
CUT
10
156.100
20
74.600
30
0
0
VERTEX
8
CUT
10
156.100
20
84.550
30
0
0
VERTEX
8
CUT
10
153.150
20
84.550
30
0
0
VERTEX
8
CUT
10
153.150
20
74.600
30
0
0
SEQEND
8
CUT
0
POLYLINE
8
CUT
66
1
70
1
10
0
20
0
30
0
0
VERTEX
8
CUT
10
156.100
20
48.600
30
0
0
VERTEX
8
CUT
10
156.100
20
58.550
30
0
0
VERTEX
8
CUT
10
153.150
20
58.550
30
0
0
VERTEX
8
CUT
10
153.150
20
48.600
30
0
0
SEQEND
8
CUT
0
POLYLINE
8
CUT
66
1
70
1
10
0
20
0
30
0
0
VERTEX
8
CUT
10
156.100
20
22.600
30
0
0
VERTEX
8
CUT
10
156.100
20
32.550
30
0
0
VERTEX
8
CUT
10
153.150
20
32.550
30
0
0
VERTEX
8
CUT
10
153.150
20
22.600
30
0
0
SEQEND
8
CUT
0
POLYLINE
8
CUT
66
1
70
1
10
0
20
0
30
0
0
VERTEX
8
CUT
10
159.200
20
14.500
30
0
0
VERTEX
8
CUT
10
159.200
20
92.650
30
0
0
VERTEX
8
CUT
10
152.200
20
92.650
30
0
0
VERTEX
8
CUT
10
152.200
20
95.650
30
0
0
VERTEX
8
CUT
10
142.050
20
95.650
30
0
0
VERTEX
8
CUT
10
142.050
20
92.650
30
0
0
VERTEX
8
CUT
10
128.200
20
92.650
30
0
0
VERTEX
8
CUT
10
128.200
20
95.650
30
0
0
VERTEX
8
CUT
10
118.050
20
95.650
30
0
0
VERTEX
8
CUT
10
118.050
20
92.650
30
0
0
VERTEX
8
CUT
10
111.050
20
92.650
30
0
0
VERTEX
8
CUT
10
111.050
20
14.500
30
0
0
VERTEX
8
CUT
10
118.050
20
14.500
30
0
0
VERTEX
8
CUT
10
118.050
20
11.500
30
0
0
VERTEX
8
CUT
10
128.200
20
11.500
30
0
0
VERTEX
8
CUT
10
128.200
20
14.500
30
0
0
VERTEX
8
CUT
10
142.050
20
14.500
30
0
0
VERTEX
8
CUT
10
142.050
20
11.500
30
0
0
VERTEX
8
CUT
10
152.200
20
11.500
30
0
0
VERTEX
8
CUT
10
152.200
20
14.500
30
0
0
SEQEND
8
CUT
0
POLYLINE
8
CUT
66
1
70
1
10
0
20
0
30
0
0
VERTEX
8
CUT
10
228.952
20
47.775
30
0
0
VERTEX
8
CUT
10
229.048
20
49.991
30
0
0
VERTEX
8
CUT
10
229.338
20
52.190
30
0
0
VERTEX
8
CUT
10
229.818
20
54.355
30
0
0
VERTEX
8
CUT
10
230.485
20
56.471
30
0
0
VERTEX
8
CUT
10
231.334
20
58.520
30
0
0
VERTEX
8
CUT
10
232.358
20
60.487
30
0
0
VERTEX
8
CUT
10
233.550
20
62.358
30
0
0
VERTEX
8
CUT
10
234.900
20
64.118
30
0
0
VERTEX
8
CUT
10
236.398
20
65.753
30
0
0
VERTEX
8
CUT
10
238.034
20
67.252
30
0
0
VERTEX
8
CUT
10
239.793
20
68.602
30
0
0
VERTEX
8
CUT
10
241.664
20
69.794
30
0
0
VERTEX
8
CUT
10
243.632
20
70.818
30
0
0
VERTEX
8
CUT
10
245.681
20
71.667
30
0
0
VERTEX
8
CUT
10
247.796
20
72.334
30
0
0
VERTEX
8
CUT
10
249.962
20
72.814
30
0
0
VERTEX
8
CUT
10
252.161
20
73.103
30
0
0
VERTEX
8
CUT
10
254.377
20
73.200
30
0
0
VERTEX
8
CUT
10
256.593
20
73.103
30
0
0
VERTEX
8
CUT
10
258.792
20
72.814
30
0
0
VERTEX
8
CUT
10
260.957
20
72.334
30
0
0
VERTEX
8
CUT
10
263.072
20
71.667
30
0
0
VERTEX
8
CUT
10
265.122
20
70.818
30
0
0
VERTEX
8
CUT
10
267.089
20
69.794
30
0
0
VERTEX
8
CUT
10
268.960
20
68.602
30
0
0
VERTEX
8
CUT
10
270.719
20
67.252
30
0
0
VERTEX
8
CUT
10
272.355
20
65.753
30
0
0
VERTEX
8
CUT
10
273.853
20
64.118
30
0
0
VERTEX
8
CUT
10
275.203
20
62.358
30
0
0
VERTEX
8
CUT
10
276.395
20
60.487
30
0
0
VERTEX
8
CUT
10
277.419
20
58.520
30
0
0
VERTEX
8
CUT
10
278.268
20
56.471
30
0
0
VERTEX
8
CUT
10
278.935
20
54.355
30
0
0
VERTEX
8
CUT
10
279.415
20
52.190
30
0
0
VERTEX
8
CUT
10
279.705
20
49.991
30
0
0
VERTEX
8
CUT
10
279.802
20
47.775
30
0
0
VERTEX
8
CUT
10
279.705
20
45.559
30
0
0
VERTEX
8
CUT
10
279.415
20
43.360
30
0
0
VERTEX
8
CUT
10
278.935
20
41.194
30
0
0
VERTEX
8
CUT
10
278.268
20
39.079
30
0
0
VERTEX
8
CUT
10
277.419
20
37.030
30
0
0
VERTEX
8
CUT
10
276.395
20
35.062
30
0
0
VERTEX
8
CUT
10
275.203
20
33.192
30
0
0
VERTEX
8
CUT
10
273.853
20
31.432
30
0
0
VERTEX
8
CUT
10
272.355
20
29.797
30
0
0
VERTEX
8
CUT
10
270.719
20
28.298
30
0
0
VERTEX
8
CUT
10
268.960
20
26.948
30
0
0
VERTEX
8
CUT
10
267.089
20
25.756
30
0
0
VERTEX
8
CUT
10
265.122
20
24.732
30
0
0
VERTEX
8
CUT
10
263.072
20
23.883
30
0
0
VERTEX
8
CUT
10
260.957
20
23.216
30
0
0
VERTEX
8
CUT
10
258.792
20
22.736
30
0
0
VERTEX
8
CUT
10
256.593
20
22.447
30
0
0
VERTEX
8
CUT
10
254.377
20
22.350
30
0
0
VERTEX
8
CUT
10
252.161
20
22.447
30
0
0
VERTEX
8
CUT
10
249.962
20
22.736
30
0
0
VERTEX
8
CUT
10
247.796
20
23.216
30
0
0
VERTEX
8
CUT
10
245.681
20
23.883
30
0
0
VERTEX
8
CUT
10
243.632
20
24.732
30
0
0
VERTEX
8
CUT
10
241.664
20
25.756
30
0
0
VERTEX
8
CUT
10
239.793
20
26.948
30
0
0
VERTEX
8
CUT
10
238.034
20
28.298
30
0
0
VERTEX
8
CUT
10
236.398
20
29.797
30
0
0
VERTEX
8
CUT
10
234.900
20
31.432
30
0
0
VERTEX
8
CUT
10
233.550
20
33.192
30
0
0
VERTEX
8
CUT
10
232.358
20
35.062
30
0
0
VERTEX
8
CUT
10
231.334
20
37.030
30
0
0
VERTEX
8
CUT
10
230.485
20
39.079
30
0
0
VERTEX
8
CUT
10
229.818
20
41.194
30
0
0
VERTEX
8
CUT
10
229.338
20
43.360
30
0
0
VERTEX
8
CUT
10
229.048
20
45.559
30
0
0
SEQEND
8
CUT
0
POLYLINE
8
CUT
66
1
70
1
10
0
20
0
30
0
0
VERTEX
8
CUT
10
251.802
20
19.319
30
0
0
VERTEX
8
CUT
10
249.467
20
19.625
30
0
0
VERTEX
8
CUT
10
247.100
20
20.142
30
0
0
VERTEX
8
CUT
10
244.785
20
20.858
30
0
0
VERTEX
8
CUT
10
242.539
20
21.767
30
0
0
VERTEX
8
CUT
10
240.378
20
22.864
30
0
0
VERTEX
8
CUT
10
238.318
20
24.139
30
0
0
VERTEX
8
CUT
10
236.373
20
25.585
30
0
0
VERTEX
8
CUT
10
234.558
20
27.190
30
0
0
VERTEX
8
CUT
10
232.885
20
28.943
30
0
0
VERTEX
8
CUT
10
231.366
20
30.832
30
0
0
VERTEX
8
CUT
10
230.014
20
32.842
30
0
0
VERTEX
8
CUT
10
228.836
20
34.960
30
0
0
VERTEX
8
CUT
10
227.842
20
37.170
30
0
0
VERTEX
8
CUT
10
227.039
20
39.456
30
0
0
VERTEX
8
CUT
10
226.433
20
41.802
30
0
0
VERTEX
8
CUT
10
226.027
20
44.191
30
0
0
VERTEX
8
CUT
10
225.825
20
46.606
30
0
0
VERTEX
8
CUT
10
225.829
20
49.029
30
0
0
VERTEX
8
CUT
10
226.038
20
51.444
30
0
0
VERTEX
8
CUT
10
226.451
20
53.831
30
0
0
VERTEX
8
CUT
10
227.064
20
56.176
30
0
0
VERTEX
8
CUT
10
227.874
20
58.459
30
0
0
VERTEX
8
CUT
10
228.875
20
60.666
30
0
0
VERTEX
8
CUT
10
230.059
20
62.781
30
0
0
VERTEX
8
CUT
10
231.418
20
64.787
30
0
0
VERTEX
8
CUT
10
232.941
20
66.671
30
0
0
VERTEX
8
CUT
10
234.619
20
68.419
30
0
0
VERTEX
8
CUT
10
236.440
20
70.019
30
0
0
VERTEX
8
CUT
10
238.389
20
71.459
30
0
0
VERTEX
8
CUT
10
240.453
20
72.728
30
0
0
VERTEX
8
CUT
10
242.617
20
73.818
30
0
0
VERTEX
8
CUT
10
244.866
20
74.721
30
0
0
VERTEX
8
CUT
10
247.183
20
75.430
30
0
0
VERTEX
8
CUT
10
249.552
20
75.940
30
0
0
VERTEX
8
CUT
10
251.956
20
76.247
30
0
0
VERTEX
8
CUT
10
254.377
20
76.350
30
0
0
VERTEX
8
CUT
10
256.798
20
76.247
30
0
0
VERTEX
8
CUT
10
259.201
20
75.940
30
0
0
VERTEX
8
CUT
10
261.570
20
75.430
30
0
0
VERTEX
8
CUT
10
263.887
20
74.721
30
0
0
VERTEX
8
CUT
10
266.136
20
73.818
30
0
0
VERTEX
8
CUT
10
268.300
20
72.728
30
0
0
VERTEX
8
CUT
10
270.364
20
71.459
30
0
0
VERTEX
8
CUT
10
272.314
20
70.019
30
0
0
VERTEX
8
CUT
10
274.134
20
68.419
30
0
0
VERTEX
8
CUT
10
275.812
20
66.671
30
0
0
VERTEX
8
CUT
10
277.336
20
64.787
30
0
0
VERTEX
8
CUT
10
278.694
20
62.781
30
0
0
VERTEX
8
CUT
10
279.878
20
60.666
30
0
0
VERTEX
8
CUT
10
280.879
20
58.459
30
0
0
VERTEX
8
CUT
10
281.689
20
56.176
30
0
0
VERTEX
8
CUT
10
282.302
20
53.831
30
0
0
VERTEX
8
CUT
10
282.715
20
51.444
30
0
0
VERTEX
8
CUT
10
282.924
20
49.029
30
0
0
VERTEX
8
CUT
10
282.928
20
46.606
30
0
0
VERTEX
8
CUT
10
282.726
20
44.191
30
0
0
VERTEX
8
CUT
10
282.321
20
41.802
30
0
0
VERTEX
8
CUT
10
281.714
20
39.456
30
0
0
VERTEX
8
CUT
10
280.911
20
37.170
30
0
0
VERTEX
8
CUT
10
279.917
20
34.960
30
0
0
VERTEX
8
CUT
10
278.739
20
32.842
30
0
0
VERTEX
8
CUT
10
277.387
20
30.832
30
0
0
VERTEX
8
CUT
10
275.868
20
28.943
30
0
0
VERTEX
8
CUT
10
274.196
20
27.190
30
0
0
VERTEX
8
CUT
10
272.380
20
25.585
30
0
0
VERTEX
8
CUT
10
270.436
20
24.139
30
0
0
VERTEX
8
CUT
10
268.375
20
22.864
30
0
0
VERTEX
8
CUT
10
266.214
20
21.767
30
0
0
VERTEX
8
CUT
10
263.968
20
20.858
30
0
0
VERTEX
8
CUT
10
261.653
20
20.142
30
0
0
VERTEX
8
CUT
10
259.286
20
19.625
30
0
0
VERTEX
8
CUT
10
256.952
20
19.319
30
0
0
VERTEX
8
CUT
10
256.952
20
15.700
30
0
0
VERTEX
8
CUT
10
251.802
20
15.700
30
0
0
SEQEND
8
CUT
0
POLYLINE
8
CUT
66
1
70
1
10
0
20
0
30
0
0
VERTEX
8
CUT
10
192.141
20
20.421
30
0
0
VERTEX
8
CUT
10
192.445
20
18.697
30
0
0
VERTEX
8
CUT
10
187.570
20
17.838
30
0
0
VERTEX
8
CUT
10
188.452
20
12.837
30
0
0
VERTEX
8
CUT
10
169.888
20
9.564
30
0
0
VERTEX
8
CUT
10
169.006
20
14.565
30
0
0
VERTEX
8
CUT
10
164.131
20
13.705
30
0
0
VERTEX
8
CUT
10
163.828
20
15.428
30
0
0
VERTEX
8
CUT
10
168.702
20
16.288
30
0
0
VERTEX
8
CUT
10
167.617
20
22.443
30
0
0
VERTEX
8
CUT
10
186.181
20
25.716
30
0
0
VERTEX
8
CUT
10
187.266
20
19.561
30
0
0
SEQEND
8
CUT
0
POLYLINE
8
CUT
66
1
70
1
10
0
20
0
30
0
0
VERTEX
8
CUT
10
200.350
20
31.350
30
0
0
VERTEX
8
CUT
10
200.350
20
23.700
30
0
0
VERTEX
8
CUT
10
203.350
20
23.700
30
0
0
VERTEX
8
CUT
10
203.350
20
15.550
30
0
0
VERTEX
8
CUT
10
200.350
20
15.550
30
0
0
VERTEX
8
CUT
10
200.350
20
7.900
30
0
0
VERTEX
8
CUT
10
161.700
20
7.900
30
0
0
VERTEX
8
CUT
10
161.700
20
31.350
30
0
0
SEQEND
8
CUT
0
POLYLINE
8
CUT
66
1
70
1
10
0
20
0
30
0
0
VERTEX
8
CUT
10
218.000
20
9.200
30
0
0
VERTEX
8
CUT
10
205.850
20
9.200
30
0
0
VERTEX
8
CUT
10
205.850
20
31.350
30
0
0
VERTEX
8
CUT
10
218.000
20
31.350
30
0
0
SEQEND
8
CUT
0
ENDSEC
0
EOF
