0
SECTION
2
HEADER
9
$ACADVER
1
AC1009
9
$INSUNITS
70
4
0
ENDSEC
0
SECTION
2
TABLES
0
TABLE
2
LAYER
70
3
0
LAYER
2
CUT
70
0
62
1
6
CONTINUOUS
0
LAYER
2
SCORE
70
0
62
5
6
CONTINUOUS
0
LAYER
2
ENGRAVE
70
0
62
7
6
CONTINUOUS
0
ENDTAB
0
ENDSEC
0
SECTION
2
ENTITIES
0
POLYLINE
8
CUT
66
1
70
1
10
0
20
0
30
0
0
VERTEX
8
CUT
10
9.150
20
169.925
30
0
0
VERTEX
8
CUT
10
9.230
20
171.749
30
0
0
VERTEX
8
CUT
10
9.468
20
173.559
30
0
0
VERTEX
8
CUT
10
9.863
20
175.341
30
0
0
VERTEX
8
CUT
10
10.412
20
177.082
30
0
0
VERTEX
8
CUT
10
11.111
20
178.768
30
0
0
VERTEX
8
CUT
10
11.954
20
180.387
30
0
0
VERTEX
8
CUT
10
12.934
20
181.927
30
0
0
VERTEX
8
CUT
10
14.046
20
183.375
30
0
0
VERTEX
8
CUT
10
15.279
20
184.721
30
0
0
VERTEX
8
CUT
10
16.625
20
185.954
30
0
0
VERTEX
8
CUT
10
18.073
20
187.066
30
0
0
VERTEX
8
CUT
10
19.613
20
188.046
30
0
0
VERTEX
8
CUT
10
21.232
20
188.889
30
0
0
VERTEX
8
CUT
10
22.918
20
189.588
30
0
0
VERTEX
8
CUT
10
24.659
20
190.137
30
0
0
VERTEX
8
CUT
10
26.441
20
190.532
30
0
0
VERTEX
8
CUT
10
28.251
20
190.770
30
0
0
VERTEX
8
CUT
10
30.075
20
190.850
30
0
0
VERTEX
8
CUT
10
31.899
20
190.770
30
0
0
VERTEX
8
CUT
10
33.709
20
190.532
30
0
0
VERTEX
8
CUT
10
35.491
20
190.137
30
0
0
VERTEX
8
CUT
10
37.232
20
189.588
30
0
0
VERTEX
8
CUT
10
38.918
20
188.889
30
0
0
VERTEX
8
CUT
10
40.538
20
188.046
30
0
0
VERTEX
8
CUT
10
42.077
20
187.066
30
0
0
VERTEX
8
CUT
10
43.525
20
185.954
30
0
0
VERTEX
8
CUT
10
44.871
20
184.721
30
0
0
VERTEX
8
CUT
10
46.104
20
183.375
30
0
0
VERTEX
8
CUT
10
47.216
20
181.927
30
0
0
VERTEX
8
CUT
10
48.197
20
180.387
30
0
0
VERTEX
8
CUT
10
49.039
20
178.768
30
0
0
VERTEX
8
CUT
10
49.738
20
177.082
30
0
0
VERTEX
8
CUT
10
50.287
20
175.341
30
0
0
VERTEX
8
CUT
10
50.682
20
173.559
30
0
0
VERTEX
8
CUT
10
50.920
20
171.749
30
0
0
VERTEX
8
CUT
10
51.000
20
169.925
30
0
0
VERTEX
8
CUT
10
50.920
20
168.101
30
0
0
VERTEX
8
CUT
10
50.682
20
166.291
30
0
0
VERTEX
8
CUT
10
50.287
20
164.509
30
0
0
VERTEX
8
CUT
10
49.738
20
162.768
30
0
0
VERTEX
8
CUT
10
49.039
20
161.082
30
0
0
VERTEX
8
CUT
10
48.197
20
159.462
30
0
0
VERTEX
8
CUT
10
47.216
20
157.923
30
0
0
VERTEX
8
CUT
10
46.104
20
156.475
30
0
0
VERTEX
8
CUT
10
44.871
20
155.129
30
0
0
VERTEX
8
CUT
10
43.525
20
153.896
30
0
0
VERTEX
8
CUT
10
42.077
20
152.784
30
0
0
VERTEX
8
CUT
10
40.538
20
151.803
30
0
0
VERTEX
8
CUT
10
38.918
20
150.961
30
0
0
VERTEX
8
CUT
10
37.232
20
150.262
30
0
0
VERTEX
8
CUT
10
35.491
20
149.713
30
0
0
VERTEX
8
CUT
10
33.709
20
149.318
30
0
0
VERTEX
8
CUT
10
31.899
20
149.080
30
0
0
VERTEX
8
CUT
10
30.075
20
149.000
30
0
0
VERTEX
8
CUT
10
28.251
20
149.080
30
0
0
VERTEX
8
CUT
10
26.441
20
149.318
30
0
0
VERTEX
8
CUT
10
24.659
20
149.713
30
0
0
VERTEX
8
CUT
10
22.918
20
150.262
30
0
0
VERTEX
8
CUT
10
21.232
20
150.961
30
0
0
VERTEX
8
CUT
10
19.613
20
151.803
30
0
0
VERTEX
8
CUT
10
18.073
20
152.784
30
0
0
VERTEX
8
CUT
10
16.625
20
153.896
30
0
0
VERTEX
8
CUT
10
15.279
20
155.129
30
0
0
VERTEX
8
CUT
10
14.046
20
156.475
30
0
0
VERTEX
8
CUT
10
12.934
20
157.923
30
0
0
VERTEX
8
CUT
10
11.954
20
159.462
30
0
0
VERTEX
8
CUT
10
11.111
20
161.082
30
0
0
VERTEX
8
CUT
10
10.412
20
162.768
30
0
0
VERTEX
8
CUT
10
9.863
20
164.509
30
0
0
VERTEX
8
CUT
10
9.468
20
166.291
30
0
0
VERTEX
8
CUT
10
9.230
20
168.101
30
0
0
SEQEND
8
CUT
0
POLYLINE
8
CUT
66
1
70
1
10
0
20
0
30
0
0
VERTEX
8
CUT
10
5.000
20
169.925
30
0
0
VERTEX
8
CUT
10
5.095
20
172.110
30
0
0
VERTEX
8
CUT
10
5.381
20
174.279
30
0
0
VERTEX
8
CUT
10
5.854
20
176.415
30
0
0
VERTEX
8
CUT
10
6.512
20
178.501
30
0
0
VERTEX
8
CUT
10
7.349
20
180.522
30
0
0
VERTEX
8
CUT
10
8.359
20
182.462
30
0
0
VERTEX
8
CUT
10
9.535
20
184.307
30
0
0
VERTEX
8
CUT
10
10.866
20
186.043
30
0
0
VERTEX
8
CUT
10
12.344
20
187.656
30
0
0
VERTEX
8
CUT
10
13.957
20
189.134
30
0
0
VERTEX
8
CUT
10
15.693
20
190.465
30
0
0
VERTEX
8
CUT
10
17.538
20
191.641
30
0
0
VERTEX
8
CUT
10
19.478
20
192.651
30
0
0
VERTEX
8
CUT
10
21.499
20
193.488
30
0
0
VERTEX
8
CUT
10
23.585
20
194.146
30
0
0
VERTEX
8
CUT
10
25.721
20
194.619
30
0
0
VERTEX
8
CUT
10
27.890
20
194.905
30
0
0
VERTEX
8
CUT
10
30.075
20
195.000
30
0
0
VERTEX
8
CUT
10
32.261
20
194.905
30
0
0
VERTEX
8
CUT
10
34.429
20
194.619
30
0
0
VERTEX
8
CUT
10
36.565
20
194.146
30
0
0
VERTEX
8
CUT
10
38.651
20
193.488
30
0
0
VERTEX
8
CUT
10
40.672
20
192.651
30
0
0
VERTEX
8
CUT
10
42.613
20
191.641
30
0
0
VERTEX
8
CUT
10
44.458
20
190.465
30
0
0
VERTEX
8
CUT
10
46.193
20
189.134
30
0
0
VERTEX
8
CUT
10
47.806
20
187.656
30
0
0
VERTEX
8
CUT
10
49.284
20
186.043
30
0
0
VERTEX
8
CUT
10
50.615
20
184.307
30
0
0
VERTEX
8
CUT
10
51.791
20
182.462
30
0
0
VERTEX
8
CUT
10
52.801
20
180.522
30
0
0
VERTEX
8
CUT
10
53.638
20
178.501
30
0
0
VERTEX
8
CUT
10
54.296
20
176.415
30
0
0
VERTEX
8
CUT
10
54.769
20
174.279
30
0
0
VERTEX
8
CUT
10
55.055
20
172.110
30
0
0
VERTEX
8
CUT
10
55.150
20
169.925
30
0
0
VERTEX
8
CUT
10
55.055
20
167.739
30
0
0
VERTEX
8
CUT
10
54.769
20
165.571
30
0
0
VERTEX
8
CUT
10
54.296
20
163.435
30
0
0
VERTEX
8
CUT
10
53.638
20
161.349
30
0
0
VERTEX
8
CUT
10
52.801
20
159.328
30
0
0
VERTEX
8
CUT
10
51.791
20
157.387
30
0
0
VERTEX
8
CUT
10
50.615
20
155.542
30
0
0
VERTEX
8
CUT
10
49.284
20
153.807
30
0
0
VERTEX
8
CUT
10
47.806
20
152.194
30
0
0
VERTEX
8
CUT
10
46.193
20
150.716
30
0
0
VERTEX
8
CUT
10
44.458
20
149.385
30
0
0
VERTEX
8
CUT
10
42.613
20
148.209
30
0
0
VERTEX
8
CUT
10
40.672
20
147.199
30
0
0
VERTEX
8
CUT
10
38.651
20
146.362
30
0
0
VERTEX
8
CUT
10
36.565
20
145.704
30
0
0
VERTEX
8
CUT
10
34.429
20
145.231
30
0
0
VERTEX
8
CUT
10
32.261
20
144.945
30
0
0
VERTEX
8
CUT
10
30.075
20
144.850
30
0
0
VERTEX
8
CUT
10
27.890
20
144.945
30
0
0
VERTEX
8
CUT
10
25.721
20
145.231
30
0
0
VERTEX
8
CUT
10
23.585
20
145.704
30
0
0
VERTEX
8
CUT
10
21.499
20
146.362
30
0
0
VERTEX
8
CUT
10
19.478
20
147.199
30
0
0
VERTEX
8
CUT
10
17.538
20
148.209
30
0
0
VERTEX
8
CUT
10
15.693
20
149.385
30
0
0
VERTEX
8
CUT
10
13.957
20
150.716
30
0
0
VERTEX
8
CUT
10
12.344
20
152.194
30
0
0
VERTEX
8
CUT
10
10.866
20
153.807
30
0
0
VERTEX
8
CUT
10
9.535
20
155.542
30
0
0
VERTEX
8
CUT
10
8.359
20
157.387
30
0
0
VERTEX
8
CUT
10
7.349
20
159.328
30
0
0
VERTEX
8
CUT
10
6.512
20
161.349
30
0
0
VERTEX
8
CUT
10
5.854
20
163.435
30
0
0
VERTEX
8
CUT
10
5.381
20
165.571
30
0
0
VERTEX
8
CUT
10
5.095
20
167.739
30
0
0
SEQEND
8
CUT
0
POLYLINE
8
CUT
66
1
70
1
10
0
20
0
30
0
0
VERTEX
8
CUT
10
61.800
20
169.925
30
0
0
VERTEX
8
CUT
10
61.880
20
171.749
30
0
0
VERTEX
8
CUT
10
62.118
20
173.559
30
0
0
VERTEX
8
CUT
10
62.513
20
175.341
30
0
0
VERTEX
8
CUT
10
63.062
20
177.082
30
0
0
VERTEX
8
CUT
10
63.761
20
178.768
30
0
0
VERTEX
8
CUT
10
64.604
20
180.387
30
0
0
VERTEX
8
CUT
10
65.585
20
181.927
30
0
0
VERTEX
8
CUT
10
66.696
20
183.375
30
0
0
VERTEX
8
CUT
10
67.929
20
184.721
30
0
0
VERTEX
8
CUT
10
69.275
20
185.954
30
0
0
VERTEX
8
CUT
10
70.723
20
187.066
30
0
0
VERTEX
8
CUT
10
72.263
20
188.046
30
0
0
VERTEX
8
CUT
10
73.882
20
188.889
30
0
0
VERTEX
8
CUT
10
75.568
20
189.588
30
0
0
VERTEX
8
CUT
10
77.309
20
190.137
30
0
0
VERTEX
8
CUT
10
79.092
20
190.532
30
0
0
VERTEX
8
CUT
10
80.901
20
190.770
30
0
0
VERTEX
8
CUT
10
82.725
20
190.850
30
0
0
VERTEX
8
CUT
10
84.549
20
190.770
30
0
0
VERTEX
8
CUT
10
86.359
20
190.532
30
0
0
VERTEX
8
CUT
10
88.141
20
190.137
30
0
0
VERTEX
8
CUT
10
89.882
20
189.588
30
0
0
VERTEX
8
CUT
10
91.568
20
188.889
30
0
0
VERTEX
8
CUT
10
93.188
20
188.046
30
0
0
VERTEX
8
CUT
10
94.727
20
187.066
30
0
0
VERTEX
8
CUT
10
96.175
20
185.954
30
0
0
VERTEX
8
CUT
10
97.521
20
184.721
30
0
0
VERTEX
8
CUT
10
98.755
20
183.375
30
0
0
VERTEX
8
CUT
10
99.866
20
181.927
30
0
0
VERTEX
8
CUT
10
100.847
20
180.387
30
0
0
VERTEX
8
CUT
10
101.690
20
178.768
30
0
0
VERTEX
8
CUT
10
102.388
20
177.082
30
0
0
VERTEX
8
CUT
10
102.937
20
175.341
30
0
0
VERTEX
8
CUT
10
103.332
20
173.559
30
0
0
VERTEX
8
CUT
10
103.571
20
171.749
30
0
0
VERTEX
8
CUT
10
103.650
20
169.925
30
0
0
VERTEX
8
CUT
10
103.571
20
168.101
30
0
0
VERTEX
8
CUT
10
103.332
20
166.291
30
0
0
VERTEX
8
CUT
10
102.937
20
164.509
30
0
0
VERTEX
8
CUT
10
102.388
20
162.768
30
0
0
VERTEX
8
CUT
10
101.690
20
161.082
30
0
0
VERTEX
8
CUT
10
100.847
20
159.462
30
0
0
VERTEX
8
CUT
10
99.866
20
157.923
30
0
0
VERTEX
8
CUT
10
98.755
20
156.475
30
0
0
VERTEX
8
CUT
10
97.521
20
155.129
30
0
0
VERTEX
8
CUT
10
96.175
20
153.896
30
0
0
VERTEX
8
CUT
10
94.727
20
152.784
30
0
0
VERTEX
8
CUT
10
93.188
20
151.803
30
0
0
VERTEX
8
CUT
10
91.568
20
150.961
30
0
0
VERTEX
8
CUT
10
89.882
20
150.262
30
0
0
VERTEX
8
CUT
10
88.141
20
149.713
30
0
0
VERTEX
8
CUT
10
86.359
20
149.318
30
0
0
VERTEX
8
CUT
10
84.549
20
149.080
30
0
0
VERTEX
8
CUT
10
82.725
20
149.000
30
0
0
VERTEX
8
CUT
10
80.901
20
149.080
30
0
0
VERTEX
8
CUT
10
79.092
20
149.318
30
0
0
VERTEX
8
CUT
10
77.309
20
149.713
30
0
0
VERTEX
8
CUT
10
75.568
20
150.262
30
0
0
VERTEX
8
CUT
10
73.882
20
150.961
30
0
0
VERTEX
8
CUT
10
72.263
20
151.803
30
0
0
VERTEX
8
CUT
10
70.723
20
152.784
30
0
0
VERTEX
8
CUT
10
69.275
20
153.896
30
0
0
VERTEX
8
CUT
10
67.929
20
155.129
30
0
0
VERTEX
8
CUT
10
66.696
20
156.475
30
0
0
VERTEX
8
CUT
10
65.585
20
157.923
30
0
0
VERTEX
8
CUT
10
64.604
20
159.462
30
0
0
VERTEX
8
CUT
10
63.761
20
161.082
30
0
0
VERTEX
8
CUT
10
63.062
20
162.768
30
0
0
VERTEX
8
CUT
10
62.513
20
164.509
30
0
0
VERTEX
8
CUT
10
62.118
20
166.291
30
0
0
VERTEX
8
CUT
10
61.880
20
168.101
30
0
0
SEQEND
8
CUT
0
POLYLINE
8
CUT
66
1
70
1
10
0
20
0
30
0
0
VERTEX
8
CUT
10
57.650
20
169.925
30
0
0
VERTEX
8
CUT
10
57.746
20
172.110
30
0
0
VERTEX
8
CUT
10
58.031
20
174.279
30
0
0
VERTEX
8
CUT
10
58.505
20
176.415
30
0
0
VERTEX
8
CUT
10
59.162
20
178.501
30
0
0
VERTEX
8
CUT
10
59.999
20
180.522
30
0
0
VERTEX
8
CUT
10
61.010
20
182.462
30
0
0
VERTEX
8
CUT
10
62.185
20
184.307
30
0
0
VERTEX
8
CUT
10
63.517
20
186.043
30
0
0
VERTEX
8
CUT
10
64.994
20
187.656
30
0
0
VERTEX
8
CUT
10
66.607
20
189.134
30
0
0
VERTEX
8
CUT
10
68.343
20
190.465
30
0
0
VERTEX
8
CUT
10
70.188
20
191.641
30
0
0
VERTEX
8
CUT
10
72.128
20
192.651
30
0
0
VERTEX
8
CUT
10
74.149
20
193.488
30
0
0
VERTEX
8
CUT
10
76.235
20
194.146
30
0
0
VERTEX
8
CUT
10
78.371
20
194.619
30
0
0
VERTEX
8
CUT
10
80.540
20
194.905
30
0
0
VERTEX
8
CUT
10
82.725
20
195.000
30
0
0
VERTEX
8
CUT
10
84.911
20
194.905
30
0
0
VERTEX
8
CUT
10
87.079
20
194.619
30
0
0
VERTEX
8
CUT
10
89.215
20
194.146
30
0
0
VERTEX
8
CUT
10
91.301
20
193.488
30
0
0
VERTEX
8
CUT
10
93.322
20
192.651
30
0
0
VERTEX
8
CUT
10
95.263
20
191.641
30
0
0
VERTEX
8
CUT
10
97.108
20
190.465
30
0
0
VERTEX
8
CUT
10
98.843
20
189.134
30
0
0
VERTEX
8
CUT
10
100.456
20
187.656
30
0
0
VERTEX
8
CUT
10
101.934
20
186.043
30
0
0
VERTEX
8
CUT
10
103.266
20
184.307
30
0
0
VERTEX
8
CUT
10
104.441
20
182.462
30
0
0
VERTEX
8
CUT
10
105.451
20
180.522
30
0
0
VERTEX
8
CUT
10
106.288
20
178.501
30
0
0
VERTEX
8
CUT
10
106.946
20
176.415
30
0
0
VERTEX
8
CUT
10
107.419
20
174.279
30
0
0
VERTEX
8
CUT
10
107.705
20
172.110
30
0
0
VERTEX
8
CUT
10
107.800
20
169.925
30
0
0
VERTEX
8
CUT
10
107.705
20
167.739
30
0
0
VERTEX
8
CUT
10
107.419
20
165.571
30
0
0
VERTEX
8
CUT
10
106.946
20
163.435
30
0
0
VERTEX
8
CUT
10
106.288
20
161.349
30
0
0
VERTEX
8
CUT
10
105.451
20
159.328
30
0
0
VERTEX
8
CUT
10
104.441
20
157.387
30
0
0
VERTEX
8
CUT
10
103.266
20
155.542
30
0
0
VERTEX
8
CUT
10
101.934
20
153.807
30
0
0
VERTEX
8
CUT
10
100.456
20
152.194
30
0
0
VERTEX
8
CUT
10
98.843
20
150.716
30
0
0
VERTEX
8
CUT
10
97.108
20
149.385
30
0
0
VERTEX
8
CUT
10
95.263
20
148.209
30
0
0
VERTEX
8
CUT
10
93.322
20
147.199
30
0
0
VERTEX
8
CUT
10
91.301
20
146.362
30
0
0
VERTEX
8
CUT
10
89.215
20
145.704
30
0
0
VERTEX
8
CUT
10
87.079
20
145.231
30
0
0
VERTEX
8
CUT
10
84.911
20
144.945
30
0
0
VERTEX
8
CUT
10
82.725
20
144.850
30
0
0
VERTEX
8
CUT
10
80.540
20
144.945
30
0
0
VERTEX
8
CUT
10
78.371
20
145.231
30
0
0
VERTEX
8
CUT
10
76.235
20
145.704
30
0
0
VERTEX
8
CUT
10
74.149
20
146.362
30
0
0
VERTEX
8
CUT
10
72.128
20
147.199
30
0
0
VERTEX
8
CUT
10
70.188
20
148.209
30
0
0
VERTEX
8
CUT
10
68.343
20
149.385
30
0
0
VERTEX
8
CUT
10
66.607
20
150.716
30
0
0
VERTEX
8
CUT
10
64.994
20
152.194
30
0
0
VERTEX
8
CUT
10
63.517
20
153.807
30
0
0
VERTEX
8
CUT
10
62.185
20
155.542
30
0
0
VERTEX
8
CUT
10
61.010
20
157.387
30
0
0
VERTEX
8
CUT
10
59.999
20
159.328
30
0
0
VERTEX
8
CUT
10
59.162
20
161.349
30
0
0
VERTEX
8
CUT
10
58.505
20
163.435
30
0
0
VERTEX
8
CUT
10
58.031
20
165.571
30
0
0
VERTEX
8
CUT
10
57.746
20
167.739
30
0
0
SEQEND
8
CUT
0
ENDSEC
0
EOF
