0
SECTION
2
HEADER
9
$ACADVER
1
AC1009
9
$INSUNITS
70
4
0
ENDSEC
0
SECTION
2
TABLES
0
TABLE
2
LAYER
70
3
0
LAYER
2
CUT
70
0
62
1
6
CONTINUOUS
0
LAYER
2
SCORE
70
0
62
5
6
CONTINUOUS
0
LAYER
2
ENGRAVE
70
0
62
7
6
CONTINUOUS
0
ENDTAB
0
ENDSEC
0
SECTION
2
ENTITIES
0
POLYLINE
8
ENGRAVE
66
1
70
1
10
0
20
0
30
0
0
VERTEX
8
ENGRAVE
10
16.050
20
22.738
30
0
0
VERTEX
8
ENGRAVE
10
16.500
20
22.700
30
0
0
VERTEX
8
ENGRAVE
10
16.837
20
22.512
30
0
0
VERTEX
8
ENGRAVE
10
17.025
20
22.175
30
0
0
VERTEX
8
ENGRAVE
10
17.025
20
21.800
30
0
0
VERTEX
8
ENGRAVE
10
16.837
20
21.425
30
0
0
VERTEX
8
ENGRAVE
10
16.462
20
21.050
30
0
0
VERTEX
8
ENGRAVE
10
15.712
20
20.488
30
0
0
VERTEX
8
ENGRAVE
10
17.025
20
20.488
30
0
0
VERTEX
8
ENGRAVE
10
17.025
20
20.225
30
0
0
VERTEX
8
ENGRAVE
10
15.262
20
20.225
30
0
0
VERTEX
8
ENGRAVE
10
15.300
20
20.525
30
0
0
VERTEX
8
ENGRAVE
10
16.237
20
21.200
30
0
0
VERTEX
8
ENGRAVE
10
16.575
20
21.538
30
0
0
VERTEX
8
ENGRAVE
10
16.725
20
21.875
30
0
0
VERTEX
8
ENGRAVE
10
16.688
20
22.213
30
0
0
VERTEX
8
ENGRAVE
10
16.350
20
22.475
30
0
0
VERTEX
8
ENGRAVE
10
15.975
20
22.475
30
0
0
VERTEX
8
ENGRAVE
10
15.825
20
22.400
30
0
0
VERTEX
8
ENGRAVE
10
15.675
20
22.250
30
0
0
VERTEX
8
ENGRAVE
10
15.563
20
21.913
30
0
0
VERTEX
8
ENGRAVE
10
15.300
20
21.988
30
0
0
VERTEX
8
ENGRAVE
10
15.300
20
22.137
30
0
0
VERTEX
8
ENGRAVE
10
15.450
20
22.438
30
0
0
VERTEX
8
ENGRAVE
10
15.525
20
22.438
30
0
0
VERTEX
8
ENGRAVE
10
15.675
20
22.625
30
0
0
SEQEND
8
ENGRAVE
0
POLYLINE
8
ENGRAVE
66
1
70
1
10
0
20
0
30
0
0
VERTEX
8
ENGRAVE
10
12.938
20
21.275
30
0
0
VERTEX
8
ENGRAVE
10
13.688
20
21.275
30
0
0
VERTEX
8
ENGRAVE
10
13.688
20
21.050
30
0
0
VERTEX
8
ENGRAVE
10
12.900
20
21.050
30
0
0
SEQEND
8
ENGRAVE
0
POLYLINE
8
ENGRAVE
66
1
70
1
10
0
20
0
30
0
0
VERTEX
8
ENGRAVE
10
14.362
20
20.638
30
0
0
VERTEX
8
ENGRAVE
10
14.737
20
20.638
30
0
0
VERTEX
8
ENGRAVE
10
14.737
20
20.225
30
0
0
VERTEX
8
ENGRAVE
10
14.362
20
20.225
30
0
0
SEQEND
8
ENGRAVE
0
POLYLINE
8
ENGRAVE
66
1
70
1
10
0
20
0
30
0
0
VERTEX
8
ENGRAVE
10
32.162
20
22.700
30
0
0
VERTEX
8
ENGRAVE
10
32.388
20
22.700
30
0
0
VERTEX
8
ENGRAVE
10
32.388
20
20.450
30
0
0
VERTEX
8
ENGRAVE
10
33.063
20
20.450
30
0
0
VERTEX
8
ENGRAVE
10
33.063
20
20.225
30
0
0
VERTEX
8
ENGRAVE
10
31.337
20
20.225
30
0
0
VERTEX
8
ENGRAVE
10
31.337
20
20.450
30
0
0
VERTEX
8
ENGRAVE
10
32.087
20
20.450
30
0
0
VERTEX
8
ENGRAVE
10
32.087
20
22.288
30
0
0
VERTEX
8
ENGRAVE
10
31.450
20
21.800
30
0
0
VERTEX
8
ENGRAVE
10
31.412
20
22.100
30
0
0
VERTEX
8
ENGRAVE
10
31.863
20
22.363
30
0
0
SEQEND
8
ENGRAVE
0
POLYLINE
8
ENGRAVE
66
1
70
1
10
0
20
0
30
0
0
VERTEX
8
ENGRAVE
10
28.938
20
21.275
30
0
0
VERTEX
8
ENGRAVE
10
29.688
20
21.275
30
0
0
VERTEX
8
ENGRAVE
10
29.688
20
21.050
30
0
0
VERTEX
8
ENGRAVE
10
28.900
20
21.050
30
0
0
SEQEND
8
ENGRAVE
0
POLYLINE
8
ENGRAVE
66
1
70
1
10
0
20
0
30
0
0
VERTEX
8
ENGRAVE
10
30.363
20
20.638
30
0
0
VERTEX
8
ENGRAVE
10
30.738
20
20.638
30
0
0
VERTEX
8
ENGRAVE
10
30.738
20
20.225
30
0
0
VERTEX
8
ENGRAVE
10
30.363
20
20.225
30
0
0
SEQEND
8
ENGRAVE
0
POLYLINE
8
ENGRAVE
66
1
70
1
10
0
20
0
30
0
0
VERTEX
8
ENGRAVE
10
46.925
20
22.738
30
0
0
VERTEX
8
ENGRAVE
10
47.188
20
22.738
30
0
0
VERTEX
8
ENGRAVE
10
47.525
20
22.625
30
0
0
VERTEX
8
ENGRAVE
10
47.788
20
22.363
30
0
0
VERTEX
8
ENGRAVE
10
48.013
20
21.725
30
0
0
VERTEX
8
ENGRAVE
10
48.013
20
21.163
30
0
0
VERTEX
8
ENGRAVE
10
47.788
20
20.563
30
0
0
VERTEX
8
ENGRAVE
10
47.525
20
20.300
30
0
0
VERTEX
8
ENGRAVE
10
47.225
20
20.188
30
0
0
VERTEX
8
ENGRAVE
10
46.925
20
20.188
30
0
0
VERTEX
8
ENGRAVE
10
46.625
20
20.300
30
0
0
VERTEX
8
ENGRAVE
10
46.363
20
20.563
30
0
0
VERTEX
8
ENGRAVE
10
46.138
20
21.200
30
0
0
VERTEX
8
ENGRAVE
10
46.138
20
21.725
30
0
0
VERTEX
8
ENGRAVE
10
46.250
20
22.175
30
0
0
VERTEX
8
ENGRAVE
10
46.513
20
22.550
30
0
0
SEQEND
8
ENGRAVE
0
POLYLINE
8
ENGRAVE
66
1
70
1
10
0
20
0
30
0
0
VERTEX
8
ENGRAVE
10
46.888
20
22.475
30
0
0
VERTEX
8
ENGRAVE
10
46.625
20
22.288
30
0
0
VERTEX
8
ENGRAVE
10
46.513
20
22.025
30
0
0
VERTEX
8
ENGRAVE
10
46.475
20
21.087
30
0
0
VERTEX
8
ENGRAVE
10
46.700
20
20.563
30
0
0
VERTEX
8
ENGRAVE
10
46.850
20
20.450
30
0
0
VERTEX
8
ENGRAVE
10
47.113
20
20.413
30
0
0
VERTEX
8
ENGRAVE
10
47.413
20
20.525
30
0
0
VERTEX
8
ENGRAVE
10
47.600
20
20.788
30
0
0
VERTEX
8
ENGRAVE
10
47.675
20
21.050
30
0
0
VERTEX
8
ENGRAVE
10
47.675
20
21.837
30
0
0
VERTEX
8
ENGRAVE
10
47.525
20
22.250
30
0
0
VERTEX
8
ENGRAVE
10
47.338
20
22.438
30
0
0
SEQEND
8
ENGRAVE
0
POLYLINE
8
ENGRAVE
66
1
70
1
10
0
20
0
30
0
0
VERTEX
8
ENGRAVE
10
64.688
20
22.700
30
0
0
VERTEX
8
ENGRAVE
10
64.950
20
22.663
30
0
0
VERTEX
8
ENGRAVE
10
64.950
20
20.450
30
0
0
VERTEX
8
ENGRAVE
10
65.625
20
20.450
30
0
0
VERTEX
8
ENGRAVE
10
65.625
20
20.225
30
0
0
VERTEX
8
ENGRAVE
10
63.900
20
20.225
30
0
0
VERTEX
8
ENGRAVE
10
63.900
20
20.450
30
0
0
VERTEX
8
ENGRAVE
10
64.613
20
20.450
30
0
0
VERTEX
8
ENGRAVE
10
64.613
20
22.288
30
0
0
VERTEX
8
ENGRAVE
10
64.013
20
21.800
30
0
0
VERTEX
8
ENGRAVE
10
63.938
20
21.800
30
0
0
VERTEX
8
ENGRAVE
10
63.938
20
22.100
30
0
0
VERTEX
8
ENGRAVE
10
64.350
20
22.325
30
0
0
SEQEND
8
ENGRAVE
0
POLYLINE
8
ENGRAVE
66
1
70
1
10
0
20
0
30
0
0
VERTEX
8
ENGRAVE
10
61.350
20
22.213
30
0
0
VERTEX
8
ENGRAVE
10
61.575
20
22.175
30
0
0
VERTEX
8
ENGRAVE
10
61.575
20
21.388
30
0
0
VERTEX
8
ENGRAVE
10
62.400
20
21.350
30
0
0
VERTEX
8
ENGRAVE
10
62.363
20
21.125
30
0
0
VERTEX
8
ENGRAVE
10
61.575
20
21.125
30
0
0
VERTEX
8
ENGRAVE
10
61.575
20
20.337
30
0
0
VERTEX
8
ENGRAVE
10
61.350
20
20.337
30
0
0
VERTEX
8
ENGRAVE
10
61.350
20
21.125
30
0
0
VERTEX
8
ENGRAVE
10
60.525
20
21.125
30
0
0
VERTEX
8
ENGRAVE
10
60.525
20
21.388
30
0
0
VERTEX
8
ENGRAVE
10
61.350
20
21.388
30
0
0
SEQEND
8
ENGRAVE
0
POLYLINE
8
ENGRAVE
66
1
70
1
10
0
20
0
30
0
0
VERTEX
8
ENGRAVE
10
62.888
20
20.638
30
0
0
VERTEX
8
ENGRAVE
10
63.300
20
20.638
30
0
0
VERTEX
8
ENGRAVE
10
63.300
20
20.225
30
0
0
VERTEX
8
ENGRAVE
10
62.888
20
20.225
30
0
0
SEQEND
8
ENGRAVE
0
POLYLINE
8
ENGRAVE
66
1
70
1
10
0
20
0
30
0
0
VERTEX
8
ENGRAVE
10
80.575
20
22.738
30
0
0
VERTEX
8
ENGRAVE
10
81.025
20
22.700
30
0
0
VERTEX
8
ENGRAVE
10
81.325
20
22.550
30
0
0
VERTEX
8
ENGRAVE
10
81.550
20
22.250
30
0
0
VERTEX
8
ENGRAVE
10
81.588
20
21.913
30
0
0
VERTEX
8
ENGRAVE
10
81.550
20
21.725
30
0
0
VERTEX
8
ENGRAVE
10
81.325
20
21.350
30
0
0
VERTEX
8
ENGRAVE
10
80.275
20
20.488
30
0
0
VERTEX
8
ENGRAVE
10
81.588
20
20.488
30
0
0
VERTEX
8
ENGRAVE
10
81.588
20
20.225
30
0
0
VERTEX
8
ENGRAVE
10
79.825
20
20.225
30
0
0
VERTEX
8
ENGRAVE
10
79.825
20
20.488
30
0
0
VERTEX
8
ENGRAVE
10
80.875
20
21.275
30
0
0
VERTEX
8
ENGRAVE
10
81.175
20
21.613
30
0
0
VERTEX
8
ENGRAVE
10
81.250
20
21.800
30
0
0
VERTEX
8
ENGRAVE
10
81.213
20
22.250
30
0
0
VERTEX
8
ENGRAVE
10
80.875
20
22.475
30
0
0
VERTEX
8
ENGRAVE
10
80.538
20
22.475
30
0
0
VERTEX
8
ENGRAVE
10
80.313
20
22.363
30
0
0
VERTEX
8
ENGRAVE
10
80.125
20
22.063
30
0
0
VERTEX
8
ENGRAVE
10
80.125
20
21.913
30
0
0
VERTEX
8
ENGRAVE
10
79.825
20
21.988
30
0
0
VERTEX
8
ENGRAVE
10
79.975
20
22.400
30
0
0
VERTEX
8
ENGRAVE
10
80.163
20
22.588
30
0
0
SEQEND
8
ENGRAVE
0
POLYLINE
8
ENGRAVE
66
1
70
1
10
0
20
0
30
0
0
VERTEX
8
ENGRAVE
10
77.350
20
22.213
30
0
0
VERTEX
8
ENGRAVE
10
77.575
20
22.175
30
0
0
VERTEX
8
ENGRAVE
10
77.575
20
21.388
30
0
0
VERTEX
8
ENGRAVE
10
78.400
20
21.350
30
0
0
VERTEX
8
ENGRAVE
10
78.362
20
21.125
30
0
0
VERTEX
8
ENGRAVE
10
77.575
20
21.125
30
0
0
VERTEX
8
ENGRAVE
10
77.575
20
20.337
30
0
0
VERTEX
8
ENGRAVE
10
77.350
20
20.337
30
0
0
VERTEX
8
ENGRAVE
10
77.350
20
21.125
30
0
0
VERTEX
8
ENGRAVE
10
76.525
20
21.125
30
0
0
VERTEX
8
ENGRAVE
10
76.525
20
21.388
30
0
0
VERTEX
8
ENGRAVE
10
77.350
20
21.388
30
0
0
SEQEND
8
ENGRAVE
0
POLYLINE
8
ENGRAVE
66
1
70
1
10
0
20
0
30
0
0
VERTEX
8
ENGRAVE
10
78.888
20
20.638
30
0
0
VERTEX
8
ENGRAVE
10
79.300
20
20.638
30
0
0
VERTEX
8
ENGRAVE
10
79.300
20
20.225
30
0
0
VERTEX
8
ENGRAVE
10
78.888
20
20.225
30
0
0
SEQEND
8
ENGRAVE
0
POLYLINE
8
ENGRAVE
66
1
70
1
10
0
20
0
30
0
0
VERTEX
8
ENGRAVE
10
10.586
20
14.160
30
0
0
VERTEX
8
ENGRAVE
10
10.961
20
14.160
30
0
0
VERTEX
8
ENGRAVE
10
11.545
20
13.160
30
0
0
VERTEX
8
ENGRAVE
10
12.086
20
14.077
30
0
0
VERTEX
8
ENGRAVE
10
12.170
20
14.160
30
0
0
VERTEX
8
ENGRAVE
10
12.461
20
14.160
30
0
0
VERTEX
8
ENGRAVE
10
11.711
20
12.868
30
0
0
VERTEX
8
ENGRAVE
10
12.586
20
11.410
30
0
0
VERTEX
8
ENGRAVE
10
12.170
20
11.410
30
0
0
VERTEX
8
ENGRAVE
10
11.545
20
12.535
30
0
0
VERTEX
8
ENGRAVE
10
11.461
20
12.535
30
0
0
VERTEX
8
ENGRAVE
10
11.295
20
12.285
30
0
0
VERTEX
8
ENGRAVE
10
10.836
20
11.452
30
0
0
VERTEX
8
ENGRAVE
10
10.461
20
11.410
30
0
0
VERTEX
8
ENGRAVE
10
11.336
20
12.785
30
0
0
SEQEND
8
ENGRAVE
0
POLYLINE
8
ENGRAVE
66
1
70
1
10
0
20
0
30
0
0
VERTEX
8
ENGRAVE
10
13.795
20
14.160
30
0
0
VERTEX
8
ENGRAVE
10
14.045
20
14.160
30
0
0
VERTEX
8
ENGRAVE
10
14.045
20
11.660
30
0
0
VERTEX
8
ENGRAVE
10
14.795
20
11.660
30
0
0
VERTEX
8
ENGRAVE
10
14.795
20
11.410
30
0
0
VERTEX
8
ENGRAVE
10
12.878
20
11.410
30
0
0
VERTEX
8
ENGRAVE
10
12.878
20
11.660
30
0
0
VERTEX
8
ENGRAVE
10
13.711
20
11.660
30
0
0
VERTEX
8
ENGRAVE
10
13.711
20
13.702
30
0
0
VERTEX
8
ENGRAVE
10
13.003
20
13.160
30
0
0
VERTEX
8
ENGRAVE
10
12.961
20
13.493
30
0
0
VERTEX
8
ENGRAVE
10
13.461
20
13.785
30
0
0
SEQEND
8
ENGRAVE
0
POLYLINE
8
ENGRAVE
66
1
70
1
10
0
20
0
30
0
0
VERTEX
8
ENGRAVE
10
98.194
20
21.375
30
0
0
VERTEX
8
ENGRAVE
10
98.238
20
21.900
30
0
0
VERTEX
8
ENGRAVE
10
98.413
20
22.250
30
0
0
VERTEX
8
ENGRAVE
10
98.763
20
22.512
30
0
0
VERTEX
8
ENGRAVE
10
99.156
20
22.556
30
0
0
VERTEX
8
ENGRAVE
10
99.375
20
22.512
30
0
0
VERTEX
8
ENGRAVE
10
99.813
20
22.250
30
0
0
VERTEX
8
ENGRAVE
10
100.819
20
21.025
30
0
0
VERTEX
8
ENGRAVE
10
100.819
20
22.556
30
0
0
VERTEX
8
ENGRAVE
10
101.125
20
22.556
30
0
0
VERTEX
8
ENGRAVE
10
101.125
20
20.500
30
0
0
VERTEX
8
ENGRAVE
10
100.819
20
20.500
30
0
0
VERTEX
8
ENGRAVE
10
99.900
20
21.725
30
0
0
VERTEX
8
ENGRAVE
10
99.506
20
22.075
30
0
0
VERTEX
8
ENGRAVE
10
99.288
20
22.163
30
0
0
VERTEX
8
ENGRAVE
10
98.763
20
22.119
30
0
0
VERTEX
8
ENGRAVE
10
98.500
20
21.725
30
0
0
VERTEX
8
ENGRAVE
10
98.500
20
21.331
30
0
0
VERTEX
8
ENGRAVE
10
98.631
20
21.069
30
0
0
VERTEX
8
ENGRAVE
10
98.981
20
20.850
30
0
0
VERTEX
8
ENGRAVE
10
99.156
20
20.850
30
0
0
VERTEX
8
ENGRAVE
10
99.069
20
20.500
30
0
0
VERTEX
8
ENGRAVE
10
98.588
20
20.675
30
0
0
VERTEX
8
ENGRAVE
10
98.369
20
20.894
30
0
0
SEQEND
8
ENGRAVE
0
POLYLINE
8
ENGRAVE
66
1
70
1
10
0
20
0
30
0
0
VERTEX
8
ENGRAVE
10
98.194
20
23.869
30
0
0
VERTEX
8
ENGRAVE
10
98.194
20
24.175
30
0
0
VERTEX
8
ENGRAVE
10
98.325
20
24.569
30
0
0
VERTEX
8
ENGRAVE
10
98.719
20
24.919
30
0
0
VERTEX
8
ENGRAVE
10
99.463
20
25.138
30
0
0
VERTEX
8
ENGRAVE
10
100.206
20
25.094
30
0
0
VERTEX
8
ENGRAVE
10
100.731
20
24.875
30
0
0
VERTEX
8
ENGRAVE
10
101.038
20
24.569
30
0
0
VERTEX
8
ENGRAVE
10
101.169
20
24.219
30
0
0
VERTEX
8
ENGRAVE
10
101.169
20
23.825
30
0
0
VERTEX
8
ENGRAVE
10
100.950
20
23.388
30
0
0
VERTEX
8
ENGRAVE
10
100.600
20
23.125
30
0
0
VERTEX
8
ENGRAVE
10
100.075
20
22.950
30
0
0
VERTEX
8
ENGRAVE
10
99.288
20
22.950
30
0
0
VERTEX
8
ENGRAVE
10
98.850
20
23.081
30
0
0
VERTEX
8
ENGRAVE
10
98.413
20
23.388
30
0
0
SEQEND
8
ENGRAVE
0
POLYLINE
8
ENGRAVE
66
1
70
1
10
0
20
0
30
0
0
VERTEX
8
ENGRAVE
10
98.194
20
27.631
30
0
0
VERTEX
8
ENGRAVE
10
98.238
20
28.156
30
0
0
VERTEX
8
ENGRAVE
10
98.413
20
28.462
30
0
0
VERTEX
8
ENGRAVE
10
98.763
20
28.725
30
0
0
VERTEX
8
ENGRAVE
10
99.288
20
28.900
30
0
0
VERTEX
8
ENGRAVE
10
100.075
20
28.900
30
0
0
VERTEX
8
ENGRAVE
10
100.513
20
28.769
30
0
0
VERTEX
8
ENGRAVE
10
100.994
20
28.419
30
0
0
VERTEX
8
ENGRAVE
10
101.169
20
28.025
30
0
0
VERTEX
8
ENGRAVE
10
101.169
20
27.631
30
0
0
VERTEX
8
ENGRAVE
10
101.038
20
27.281
30
0
0
VERTEX
8
ENGRAVE
10
100.556
20
26.888
30
0
0
VERTEX
8
ENGRAVE
10
99.856
20
26.712
30
0
0
VERTEX
8
ENGRAVE
10
99.200
20
26.756
30
0
0
VERTEX
8
ENGRAVE
10
98.719
20
26.931
30
0
0
VERTEX
8
ENGRAVE
10
98.369
20
27.238
30
0
0
SEQEND
8
ENGRAVE
0
POLYLINE
8
ENGRAVE
66
1
70
1
10
0
20
0
30
0
0
VERTEX
8
ENGRAVE
10
98.194
20
30.169
30
0
0
VERTEX
8
ENGRAVE
10
98.194
20
30.475
30
0
0
VERTEX
8
ENGRAVE
10
98.325
20
30.869
30
0
0
VERTEX
8
ENGRAVE
10
98.719
20
31.219
30
0
0
VERTEX
8
ENGRAVE
10
99.463
20
31.438
30
0
0
VERTEX
8
ENGRAVE
10
100.206
20
31.394
30
0
0
VERTEX
8
ENGRAVE
10
100.731
20
31.175
30
0
0
VERTEX
8
ENGRAVE
10
101.038
20
30.869
30
0
0
VERTEX
8
ENGRAVE
10
101.169
20
30.519
30
0
0
VERTEX
8
ENGRAVE
10
101.169
20
30.125
30
0
0
VERTEX
8
ENGRAVE
10
100.950
20
29.688
30
0
0
VERTEX
8
ENGRAVE
10
100.600
20
29.425
30
0
0
VERTEX
8
ENGRAVE
10
100.075
20
29.250
30
0
0
VERTEX
8
ENGRAVE
10
99.288
20
29.250
30
0
0
VERTEX
8
ENGRAVE
10
98.850
20
29.381
30
0
0
VERTEX
8
ENGRAVE
10
98.413
20
29.688
30
0
0
SEQEND
8
ENGRAVE
0
POLYLINE
8
ENGRAVE
66
1
70
1
10
0
20
0
30
0
0
VERTEX
8
ENGRAVE
10
98.500
20
23.825
30
0
0
VERTEX
8
ENGRAVE
10
98.719
20
23.519
30
0
0
VERTEX
8
ENGRAVE
10
98.981
20
23.388
30
0
0
VERTEX
8
ENGRAVE
10
99.813
20
23.300
30
0
0
VERTEX
8
ENGRAVE
10
100.381
20
23.388
30
0
0
VERTEX
8
ENGRAVE
10
100.644
20
23.519
30
0
0
VERTEX
8
ENGRAVE
10
100.863
20
23.781
30
0
0
VERTEX
8
ENGRAVE
10
100.906
20
24.087
30
0
0
VERTEX
8
ENGRAVE
10
100.775
20
24.438
30
0
0
VERTEX
8
ENGRAVE
10
100.556
20
24.613
30
0
0
VERTEX
8
ENGRAVE
10
100.119
20
24.744
30
0
0
VERTEX
8
ENGRAVE
10
99.331
20
24.744
30
0
0
VERTEX
8
ENGRAVE
10
98.850
20
24.613
30
0
0
VERTEX
8
ENGRAVE
10
98.588
20
24.394
30
0
0
VERTEX
8
ENGRAVE
10
98.500
20
24.219
30
0
0
SEQEND
8
ENGRAVE
0
POLYLINE
8
ENGRAVE
66
1
70
1
10
0
20
0
30
0
0
VERTEX
8
ENGRAVE
10
98.500
20
27.631
30
0
0
VERTEX
8
ENGRAVE
10
98.588
20
27.413
30
0
0
VERTEX
8
ENGRAVE
10
98.938
20
27.194
30
0
0
VERTEX
8
ENGRAVE
10
99.288
20
27.106
30
0
0
VERTEX
8
ENGRAVE
10
100.075
20
27.106
30
0
0
VERTEX
8
ENGRAVE
10
100.600
20
27.281
30
0
0
VERTEX
8
ENGRAVE
10
100.819
20
27.500
30
0
0
VERTEX
8
ENGRAVE
10
100.906
20
27.894
30
0
0
VERTEX
8
ENGRAVE
10
100.819
20
28.156
30
0
0
VERTEX
8
ENGRAVE
10
100.381
20
28.462
30
0
0
VERTEX
8
ENGRAVE
10
99.506
20
28.550
30
0
0
VERTEX
8
ENGRAVE
10
98.806
20
28.375
30
0
0
VERTEX
8
ENGRAVE
10
98.500
20
28.025
30
0
0
SEQEND
8
ENGRAVE
0
POLYLINE
8
ENGRAVE
66
1
70
1
10
0
20
0
30
0
0
VERTEX
8
ENGRAVE
10
98.500
20
30.125
30
0
0
VERTEX
8
ENGRAVE
10
98.719
20
29.819
30
0
0
VERTEX
8
ENGRAVE
10
98.981
20
29.688
30
0
0
VERTEX
8
ENGRAVE
10
99.813
20
29.600
30
0
0
VERTEX
8
ENGRAVE
10
100.381
20
29.688
30
0
0
VERTEX
8
ENGRAVE
10
100.644
20
29.819
30
0
0
VERTEX
8
ENGRAVE
10
100.863
20
30.081
30
0
0
VERTEX
8
ENGRAVE
10
100.906
20
30.388
30
0
0
VERTEX
8
ENGRAVE
10
100.775
20
30.738
30
0
0
VERTEX
8
ENGRAVE
10
100.556
20
30.913
30
0
0
VERTEX
8
ENGRAVE
10
100.119
20
31.044
30
0
0
VERTEX
8
ENGRAVE
10
99.331
20
31.044
30
0
0
VERTEX
8
ENGRAVE
10
98.850
20
30.913
30
0
0
VERTEX
8
ENGRAVE
10
98.588
20
30.694
30
0
0
VERTEX
8
ENGRAVE
10
98.500
20
30.519
30
0
0
SEQEND
8
ENGRAVE
0
POLYLINE
8
ENGRAVE
66
1
70
1
10
0
20
0
30
0
0
VERTEX
8
ENGRAVE
10
100.644
20
25.706
30
0
0
VERTEX
8
ENGRAVE
10
100.644
20
26.188
30
0
0
VERTEX
8
ENGRAVE
10
101.125
20
26.188
30
0
0
VERTEX
8
ENGRAVE
10
101.125
20
25.706
30
0
0
SEQEND
8
ENGRAVE
0
POLYLINE
8
ENGRAVE
66
1
70
1
10
0
20
0
30
0
0
VERTEX
8
ENGRAVE
10
105.163
20
23.144
30
0
0
VERTEX
8
ENGRAVE
10
105.163
20
23.394
30
0
0
VERTEX
8
ENGRAVE
10
106.444
20
23.394
30
0
0
VERTEX
8
ENGRAVE
10
105.694
20
24.081
30
0
0
VERTEX
8
ENGRAVE
10
105.694
20
24.331
30
0
0
VERTEX
8
ENGRAVE
10
106.256
20
23.863
30
0
0
VERTEX
8
ENGRAVE
10
107.225
20
24.394
30
0
0
VERTEX
8
ENGRAVE
10
107.194
20
24.113
30
0
0
VERTEX
8
ENGRAVE
10
106.381
20
23.706
30
0
0
VERTEX
8
ENGRAVE
10
106.725
20
23.394
30
0
0
VERTEX
8
ENGRAVE
10
107.225
20
23.394
30
0
0
VERTEX
8
ENGRAVE
10
107.225
20
23.144
30
0
0
SEQEND
8
ENGRAVE
0
POLYLINE
8
ENGRAVE
66
1
70
1
10
0
20
0
30
0
0
VERTEX
8
ENGRAVE
10
105.163
20
26.206
30
0
0
VERTEX
8
ENGRAVE
10
105.163
20
26.425
30
0
0
VERTEX
8
ENGRAVE
10
107.038
20
26.425
30
0
0
VERTEX
8
ENGRAVE
10
107.038
20
26.988
30
0
0
VERTEX
8
ENGRAVE
10
107.225
20
26.988
30
0
0
VERTEX
8
ENGRAVE
10
107.225
20
25.550
30
0
0
VERTEX
8
ENGRAVE
10
107.038
20
25.550
30
0
0
VERTEX
8
ENGRAVE
10
107.038
20
26.175
30
0
0
VERTEX
8
ENGRAVE
10
105.506
20
26.175
30
0
0
VERTEX
8
ENGRAVE
10
105.913
20
25.644
30
0
0
VERTEX
8
ENGRAVE
10
105.631
20
25.613
30
0
0
VERTEX
8
ENGRAVE
10
105.506
20
25.894
30
0
0
VERTEX
8
ENGRAVE
10
105.225
20
26.206
30
0
0
SEQEND
8
ENGRAVE
0
POLYLINE
8
ENGRAVE
66
1
70
1
10
0
20
0
30
0
0
VERTEX
8
ENGRAVE
10
105.163
20
27.425
30
0
0
VERTEX
8
ENGRAVE
10
105.163
20
28.644
30
0
0
VERTEX
8
ENGRAVE
10
105.381
20
28.644
30
0
0
VERTEX
8
ENGRAVE
10
105.381
20
27.613
30
0
0
VERTEX
8
ENGRAVE
10
106.038
20
27.581
30
0
0
VERTEX
8
ENGRAVE
10
105.850
20
27.894
30
0
0
VERTEX
8
ENGRAVE
10
105.850
20
28.269
30
0
0
VERTEX
8
ENGRAVE
10
105.944
20
28.488
30
0
0
VERTEX
8
ENGRAVE
10
106.319
20
28.769
30
0
0
VERTEX
8
ENGRAVE
10
106.725
20
28.769
30
0
0
VERTEX
8
ENGRAVE
10
106.944
20
28.675
30
0
0
VERTEX
8
ENGRAVE
10
107.225
20
28.300
30
0
0
VERTEX
8
ENGRAVE
10
107.225
20
27.706
30
0
0
VERTEX
8
ENGRAVE
10
107.131
20
27.519
30
0
0
VERTEX
8
ENGRAVE
10
106.819
20
27.269
30
0
0
VERTEX
8
ENGRAVE
10
106.756
20
27.269
30
0
0
VERTEX
8
ENGRAVE
10
106.694
20
27.519
30
0
0
VERTEX
8
ENGRAVE
10
106.944
20
27.644
30
0
0
VERTEX
8
ENGRAVE
10
107.038
20
27.831
30
0
0
VERTEX
8
ENGRAVE
10
107.038
20
28.206
30
0
0
VERTEX
8
ENGRAVE
10
106.975
20
28.331
30
0
0
VERTEX
8
ENGRAVE
10
106.725
20
28.519
30
0
0
VERTEX
8
ENGRAVE
10
106.350
20
28.519
30
0
0
VERTEX
8
ENGRAVE
10
106.100
20
28.331
30
0
0
VERTEX
8
ENGRAVE
10
106.038
20
27.925
30
0
0
VERTEX
8
ENGRAVE
10
106.163
20
27.675
30
0
0
VERTEX
8
ENGRAVE
10
106.319
20
27.581
30
0
0
VERTEX
8
ENGRAVE
10
106.288
20
27.363
30
0
0
SEQEND
8
ENGRAVE
0
POLYLINE
8
ENGRAVE
66
1
70
1
10
0
20
0
30
0
0
VERTEX
8
ENGRAVE
10
106.881
20
24.706
30
0
0
VERTEX
8
ENGRAVE
10
106.881
20
25.050
30
0
0
VERTEX
8
ENGRAVE
10
107.225
20
25.050
30
0
0
VERTEX
8
ENGRAVE
10
107.225
20
24.706
30
0
0
SEQEND
8
ENGRAVE
0
POLYLINE
8
ENGRAVE
66
1
70
1
10
0
20
0
30
0
0
VERTEX
8
ENGRAVE
10
110.568
20
24.778
30
0
0
VERTEX
8
ENGRAVE
10
110.597
20
25.128
30
0
0
VERTEX
8
ENGRAVE
10
110.743
20
25.390
30
0
0
VERTEX
8
ENGRAVE
10
111.005
20
25.536
30
0
0
VERTEX
8
ENGRAVE
10
111.297
20
25.536
30
0
0
VERTEX
8
ENGRAVE
10
111.589
20
25.390
30
0
0
VERTEX
8
ENGRAVE
10
111.880
20
25.098
30
0
0
VERTEX
8
ENGRAVE
10
112.318
20
24.515
30
0
0
VERTEX
8
ENGRAVE
10
112.318
20
25.536
30
0
0
VERTEX
8
ENGRAVE
10
112.522
20
25.536
30
0
0
VERTEX
8
ENGRAVE
10
112.522
20
24.165
30
0
0
VERTEX
8
ENGRAVE
10
112.289
20
24.194
30
0
0
VERTEX
8
ENGRAVE
10
111.764
20
24.923
30
0
0
VERTEX
8
ENGRAVE
10
111.501
20
25.186
30
0
0
VERTEX
8
ENGRAVE
10
111.239
20
25.303
30
0
0
VERTEX
8
ENGRAVE
10
110.976
20
25.273
30
0
0
VERTEX
8
ENGRAVE
10
110.772
20
25.011
30
0
0
VERTEX
8
ENGRAVE
10
110.772
20
24.719
30
0
0
VERTEX
8
ENGRAVE
10
110.830
20
24.603
30
0
0
VERTEX
8
ENGRAVE
10
110.947
20
24.486
30
0
0
VERTEX
8
ENGRAVE
10
111.209
20
24.398
30
0
0
VERTEX
8
ENGRAVE
10
111.151
20
24.194
30
0
0
VERTEX
8
ENGRAVE
10
111.034
20
24.194
30
0
0
VERTEX
8
ENGRAVE
10
110.801
20
24.311
30
0
0
VERTEX
8
ENGRAVE
10
110.801
20
24.369
30
0
0
VERTEX
8
ENGRAVE
10
110.655
20
24.486
30
0
0
SEQEND
8
ENGRAVE
0
POLYLINE
8
ENGRAVE
66
1
70
1
10
0
20
0
30
0
0
VERTEX
8
ENGRAVE
10
110.597
20
22.619
30
0
0
VERTEX
8
ENGRAVE
10
110.597
20
22.882
30
0
0
VERTEX
8
ENGRAVE
10
111.297
20
23.290
30
0
0
VERTEX
8
ENGRAVE
10
110.655
20
23.669
30
0
0
VERTEX
8
ENGRAVE
10
110.597
20
23.728
30
0
0
VERTEX
8
ENGRAVE
10
110.597
20
23.932
30
0
0
VERTEX
8
ENGRAVE
10
111.501
20
23.407
30
0
0
VERTEX
8
ENGRAVE
10
112.522
20
24.019
30
0
0
VERTEX
8
ENGRAVE
10
112.522
20
23.728
30
0
0
VERTEX
8
ENGRAVE
10
111.734
20
23.290
30
0
0
VERTEX
8
ENGRAVE
10
111.734
20
23.232
30
0
0
VERTEX
8
ENGRAVE
10
111.909
20
23.115
30
0
0
VERTEX
8
ENGRAVE
10
112.493
20
22.794
30
0
0
VERTEX
8
ENGRAVE
10
112.522
20
22.532
30
0
0
VERTEX
8
ENGRAVE
10
111.559
20
23.144
30
0
0
SEQEND
8
ENGRAVE
0
POLYLINE
8
CUT
66
1
70
1
10
0
20
0
30
0
0
VERTEX
8
CUT
10
42.100
20
10.000
30
0
0
VERTEX
8
CUT
10
52.050
20
10.000
30
0
0
VERTEX
8
CUT
10
52.050
20
12.950
30
0
0
VERTEX
8
CUT
10
42.100
20
12.950
30
0
0
SEQEND
8
CUT
0
POLYLINE
8
CUT
66
1
70
1
10
0
20
0
30
0
0
VERTEX
8
CUT
10
6.570
20
5.850
30
0
0
VERTEX
8
CUT
10
87.580
20
5.850
30
0
0
VERTEX
8
CUT
10
87.983
20
5.903
30
0
0
VERTEX
8
CUT
10
88.363
20
6.060
30
0
0
VERTEX
8
CUT
10
88.689
20
6.311
30
0
0
VERTEX
8
CUT
10
88.940
20
6.637
30
0
0
VERTEX
8
CUT
10
89.097
20
7.017
30
0
0
VERTEX
8
CUT
10
89.150
20
7.420
30
0
0
VERTEX
8
CUT
10
89.150
20
34.430
30
0
0
VERTEX
8
CUT
10
89.097
20
34.833
30
0
0
VERTEX
8
CUT
10
88.940
20
35.213
30
0
0
VERTEX
8
CUT
10
88.689
20
35.539
30
0
0
VERTEX
8
CUT
10
88.363
20
35.790
30
0
0
VERTEX
8
CUT
10
87.983
20
35.947
30
0
0
VERTEX
8
CUT
10
87.580
20
36.000
30
0
0
VERTEX
8
CUT
10
80.650
20
36.000
30
0
0
VERTEX
8
CUT
10
80.650
20
26.000
30
0
0
VERTEX
8
CUT
10
77.500
20
26.000
30
0
0
VERTEX
8
CUT
10
77.500
20
36.000
30
0
0
VERTEX
8
CUT
10
64.600
20
36.000
30
0
0
VERTEX
8
CUT
10
64.600
20
26.000
30
0
0
VERTEX
8
CUT
10
61.550
20
26.000
30
0
0
VERTEX
8
CUT
10
61.550
20
36.000
30
0
0
VERTEX
8
CUT
10
48.550
20
36.000
30
0
0
VERTEX
8
CUT
10
48.550
20
26.000
30
0
0
VERTEX
8
CUT
10
45.600
20
26.000
30
0
0
VERTEX
8
CUT
10
45.600
20
36.000
30
0
0
VERTEX
8
CUT
10
32.500
20
36.000
30
0
0
VERTEX
8
CUT
10
32.500
20
26.000
30
0
0
VERTEX
8
CUT
10
29.650
20
26.000
30
0
0
VERTEX
8
CUT
10
29.650
20
36.000
30
0
0
VERTEX
8
CUT
10
16.450
20
36.000
30
0
0
VERTEX
8
CUT
10
16.450
20
26.000
30
0
0
VERTEX
8
CUT
10
13.700
20
26.000
30
0
0
VERTEX
8
CUT
10
13.700
20
36.000
30
0
0
VERTEX
8
CUT
10
6.570
20
36.000
30
0
0
VERTEX
8
CUT
10
6.167
20
35.947
30
0
0
VERTEX
8
CUT
10
5.787
20
35.790
30
0
0
VERTEX
8
CUT
10
5.461
20
35.539
30
0
0
VERTEX
8
CUT
10
5.210
20
35.213
30
0
0
VERTEX
8
CUT
10
5.053
20
34.833
30
0
0
VERTEX
8
CUT
10
5.000
20
34.430
30
0
0
VERTEX
8
CUT
10
5.000
20
7.420
30
0
0
VERTEX
8
CUT
10
5.053
20
7.017
30
0
0
VERTEX
8
CUT
10
5.210
20
6.637
30
0
0
VERTEX
8
CUT
10
5.461
20
6.311
30
0
0
VERTEX
8
CUT
10
5.787
20
6.060
30
0
0
VERTEX
8
CUT
10
6.167
20
5.903
30
0
0
SEQEND
8
CUT
0
POLYLINE
8
CUT
66
1
70
1
10
0
20
0
30
0
0
VERTEX
8
CUT
10
111.800
20
15.850
30
0
0
VERTEX
8
CUT
10
111.800
20
20.850
30
0
0
VERTEX
8
CUT
10
114.800
20
20.850
30
0
0
VERTEX
8
CUT
10
114.800
20
31.000
30
0
0
VERTEX
8
CUT
10
111.800
20
31.000
30
0
0
VERTEX
8
CUT
10
111.800
20
36.000
30
0
0
VERTEX
8
CUT
10
91.650
20
36.000
30
0
0
VERTEX
8
CUT
10
91.650
20
15.850
30
0
0
SEQEND
8
CUT
0
ENDSEC
0
EOF
