0
SECTION
2
HEADER
9
$ACADVER
1
AC1009
9
$INSUNITS
70
4
0
ENDSEC
0
SECTION
2
TABLES
0
TABLE
2
LAYER
70
3
0
LAYER
2
CUT
70
0
62
1
6
CONTINUOUS
0
LAYER
2
SCORE
70
0
62
5
6
CONTINUOUS
0
LAYER
2
ENGRAVE
70
0
62
7
6
CONTINUOUS
0
ENDTAB
0
ENDSEC
0
SECTION
2
ENTITIES
0
POLYLINE
8
ENGRAVE
66
1
70
1
10
0
20
0
30
0
0
VERTEX
8
ENGRAVE
10
152.471
20
248.118
30
0
0
VERTEX
8
ENGRAVE
10
151.742
20
247.441
30
0
0
VERTEX
8
ENGRAVE
10
151.585
20
247.545
30
0
0
VERTEX
8
ENGRAVE
10
151.585
20
246.764
30
0
0
VERTEX
8
ENGRAVE
10
152.471
20
246.034
30
0
0
VERTEX
8
ENGRAVE
10
152.210
20
245.774
30
0
0
VERTEX
8
ENGRAVE
10
151.585
20
246.295
30
0
0
VERTEX
8
ENGRAVE
10
151.585
20
244.680
30
0
0
VERTEX
8
ENGRAVE
10
151.325
20
244.680
30
0
0
VERTEX
8
ENGRAVE
10
151.325
20
249.368
30
0
0
VERTEX
8
ENGRAVE
10
151.585
20
249.368
30
0
0
VERTEX
8
ENGRAVE
10
151.585
20
247.857
30
0
0
VERTEX
8
ENGRAVE
10
152.002
20
248.118
30
0
0
VERTEX
8
ENGRAVE
10
152.210
20
248.378
30
0
0
SEQEND
8
ENGRAVE
0
POLYLINE
8
ENGRAVE
66
1
70
1
10
0
20
0
30
0
0
VERTEX
8
ENGRAVE
10
151.898
20
236.034
30
0
0
VERTEX
8
ENGRAVE
10
151.898
20
235.618
30
0
0
VERTEX
8
ENGRAVE
10
151.742
20
235.149
30
0
0
VERTEX
8
ENGRAVE
10
151.325
20
234.732
30
0
0
VERTEX
8
ENGRAVE
10
150.387
20
234.420
30
0
0
VERTEX
8
ENGRAVE
10
149.606
20
234.472
30
0
0
VERTEX
8
ENGRAVE
10
149.137
20
234.628
30
0
0
VERTEX
8
ENGRAVE
10
148.565
20
235.097
30
0
0
VERTEX
8
ENGRAVE
10
148.356
20
235.618
30
0
0
VERTEX
8
ENGRAVE
10
148.356
20
236.139
30
0
0
VERTEX
8
ENGRAVE
10
148.512
20
236.555
30
0
0
VERTEX
8
ENGRAVE
10
148.929
20
236.972
30
0
0
VERTEX
8
ENGRAVE
10
149.554
20
237.232
30
0
0
VERTEX
8
ENGRAVE
10
150.179
20
237.284
30
0
0
VERTEX
8
ENGRAVE
10
151.117
20
237.076
30
0
0
VERTEX
8
ENGRAVE
10
151.637
20
236.659
30
0
0
SEQEND
8
ENGRAVE
0
POLYLINE
8
ENGRAVE
66
1
70
1
10
0
20
0
30
0
0
VERTEX
8
ENGRAVE
10
151.846
20
242.545
30
0
0
VERTEX
8
ENGRAVE
10
151.846
20
240.461
30
0
0
VERTEX
8
ENGRAVE
10
151.481
20
240.461
30
0
0
VERTEX
8
ENGRAVE
10
151.481
20
242.128
30
0
0
VERTEX
8
ENGRAVE
10
150.387
20
242.128
30
0
0
VERTEX
8
ENGRAVE
10
150.387
20
240.722
30
0
0
VERTEX
8
ENGRAVE
10
150.023
20
240.722
30
0
0
VERTEX
8
ENGRAVE
10
150.023
20
242.128
30
0
0
VERTEX
8
ENGRAVE
10
148.408
20
242.128
30
0
0
VERTEX
8
ENGRAVE
10
148.408
20
242.545
30
0
0
SEQEND
8
ENGRAVE
0
POLYLINE
8
ENGRAVE
66
1
70
1
10
0
20
0
30
0
0
VERTEX
8
ENGRAVE
10
151.846
20
240.149
30
0
0
VERTEX
8
ENGRAVE
10
151.794
20
238.378
30
0
0
VERTEX
8
ENGRAVE
10
151.429
20
237.857
30
0
0
VERTEX
8
ENGRAVE
10
150.908
20
237.701
30
0
0
VERTEX
8
ENGRAVE
10
150.544
20
237.753
30
0
0
VERTEX
8
ENGRAVE
10
150.127
20
238.066
30
0
0
VERTEX
8
ENGRAVE
10
150.023
20
238.326
30
0
0
VERTEX
8
ENGRAVE
10
149.867
20
238.326
30
0
0
VERTEX
8
ENGRAVE
10
148.408
20
237.701
30
0
0
VERTEX
8
ENGRAVE
10
148.408
20
238.170
30
0
0
VERTEX
8
ENGRAVE
10
149.867
20
238.743
30
0
0
VERTEX
8
ENGRAVE
10
149.867
20
239.732
30
0
0
VERTEX
8
ENGRAVE
10
148.408
20
239.732
30
0
0
VERTEX
8
ENGRAVE
10
148.408
20
240.149
30
0
0
SEQEND
8
ENGRAVE
0
POLYLINE
8
ENGRAVE
66
1
70
1
10
0
20
0
30
0
0
VERTEX
8
ENGRAVE
10
151.846
20
233.743
30
0
0
VERTEX
8
ENGRAVE
10
151.794
20
233.170
30
0
0
VERTEX
8
ENGRAVE
10
149.085
20
231.659
30
0
0
VERTEX
8
ENGRAVE
10
151.846
20
231.607
30
0
0
VERTEX
8
ENGRAVE
10
151.846
20
231.243
30
0
0
VERTEX
8
ENGRAVE
10
148.408
20
231.243
30
0
0
VERTEX
8
ENGRAVE
10
148.460
20
231.711
30
0
0
VERTEX
8
ENGRAVE
10
150.700
20
232.961
30
0
0
VERTEX
8
ENGRAVE
10
151.012
20
233.222
30
0
0
VERTEX
8
ENGRAVE
10
151.325
20
233.326
30
0
0
VERTEX
8
ENGRAVE
10
148.408
20
233.378
30
0
0
VERTEX
8
ENGRAVE
10
148.408
20
233.743
30
0
0
SEQEND
8
ENGRAVE
0
POLYLINE
8
ENGRAVE
66
1
70
1
10
0
20
0
30
0
0
VERTEX
8
ENGRAVE
10
151.846
20
230.826
30
0
0
VERTEX
8
ENGRAVE
10
151.846
20
228.430
30
0
0
VERTEX
8
ENGRAVE
10
151.481
20
228.430
30
0
0
VERTEX
8
ENGRAVE
10
151.481
20
229.420
30
0
0
VERTEX
8
ENGRAVE
10
148.408
20
229.420
30
0
0
VERTEX
8
ENGRAVE
10
148.408
20
229.836
30
0
0
VERTEX
8
ENGRAVE
10
151.481
20
229.836
30
0
0
VERTEX
8
ENGRAVE
10
151.481
20
230.826
30
0
0
SEQEND
8
ENGRAVE
0
POLYLINE
8
ENGRAVE
66
1
70
1
10
0
20
0
30
0
0
VERTEX
8
ENGRAVE
10
151.533
20
235.982
30
0
0
VERTEX
8
ENGRAVE
10
151.429
20
236.295
30
0
0
VERTEX
8
ENGRAVE
10
150.856
20
236.711
30
0
0
VERTEX
8
ENGRAVE
10
149.762
20
236.816
30
0
0
VERTEX
8
ENGRAVE
10
149.137
20
236.607
30
0
0
VERTEX
8
ENGRAVE
10
148.773
20
236.243
30
0
0
VERTEX
8
ENGRAVE
10
148.721
20
235.566
30
0
0
VERTEX
8
ENGRAVE
10
149.033
20
235.149
30
0
0
VERTEX
8
ENGRAVE
10
149.346
20
234.993
30
0
0
VERTEX
8
ENGRAVE
10
150.440
20
234.889
30
0
0
VERTEX
8
ENGRAVE
10
150.908
20
234.993
30
0
0
VERTEX
8
ENGRAVE
10
151.273
20
235.201
30
0
0
VERTEX
8
ENGRAVE
10
151.481
20
235.514
30
0
0
SEQEND
8
ENGRAVE
0
POLYLINE
8
ENGRAVE
66
1
70
1
10
0
20
0
30
0
0
VERTEX
8
ENGRAVE
10
151.481
20
239.680
30
0
0
VERTEX
8
ENGRAVE
10
150.231
20
239.732
30
0
0
VERTEX
8
ENGRAVE
10
150.283
20
238.534
30
0
0
VERTEX
8
ENGRAVE
10
150.544
20
238.222
30
0
0
VERTEX
8
ENGRAVE
10
151.065
20
238.170
30
0
0
VERTEX
8
ENGRAVE
10
151.325
20
238.326
30
0
0
VERTEX
8
ENGRAVE
10
151.481
20
238.743
30
0
0
SEQEND
8
ENGRAVE
0
POLYLINE
8
ENGRAVE
66
1
70
1
10
0
20
0
30
0
0
VERTEX
8
ENGRAVE
10
151.065
20
245.566
30
0
0
VERTEX
8
ENGRAVE
10
151.065
20
245.201
30
0
0
VERTEX
8
ENGRAVE
10
148.304
20
245.201
30
0
0
VERTEX
8
ENGRAVE
10
147.887
20
245.409
30
0
0
VERTEX
8
ENGRAVE
10
147.783
20
246.034
30
0
0
VERTEX
8
ENGRAVE
10
148.200
20
246.139
30
0
0
VERTEX
8
ENGRAVE
10
148.148
20
245.722
30
0
0
VERTEX
8
ENGRAVE
10
148.252
20
245.566
30
0
0
SEQEND
8
ENGRAVE
0
POLYLINE
8
ENGRAVE
66
1
70
1
10
0
20
0
30
0
0
VERTEX
8
ENGRAVE
10
150.960
20
248.795
30
0
0
VERTEX
8
ENGRAVE
10
150.960
20
247.180
30
0
0
VERTEX
8
ENGRAVE
10
148.148
20
247.180
30
0
0
VERTEX
8
ENGRAVE
10
147.887
20
247.441
30
0
0
VERTEX
8
ENGRAVE
10
147.835
20
247.805
30
0
0
VERTEX
8
ENGRAVE
10
148.200
20
247.857
30
0
0
VERTEX
8
ENGRAVE
10
148.304
20
247.493
30
0
0
VERTEX
8
ENGRAVE
10
148.981
20
247.493
30
0
0
VERTEX
8
ENGRAVE
10
148.981
20
248.482
30
0
0
VERTEX
8
ENGRAVE
10
147.887
20
248.430
30
0
0
VERTEX
8
ENGRAVE
10
147.887
20
248.847
30
0
0
SEQEND
8
ENGRAVE
0
POLYLINE
8
ENGRAVE
66
1
70
1
10
0
20
0
30
0
0
VERTEX
8
ENGRAVE
10
150.700
20
248.430
30
0
0
VERTEX
8
ENGRAVE
10
150.127
20
248.482
30
0
0
VERTEX
8
ENGRAVE
10
150.127
20
247.493
30
0
0
VERTEX
8
ENGRAVE
10
150.700
20
247.493
30
0
0
SEQEND
8
ENGRAVE
0
POLYLINE
8
ENGRAVE
66
1
70
1
10
0
20
0
30
0
0
VERTEX
8
ENGRAVE
10
150.752
20
246.555
30
0
0
VERTEX
8
ENGRAVE
10
150.700
20
246.191
30
0
0
VERTEX
8
ENGRAVE
10
148.617
20
246.191
30
0
0
VERTEX
8
ENGRAVE
10
148.617
20
246.555
30
0
0
SEQEND
8
ENGRAVE
0
POLYLINE
8
ENGRAVE
66
1
70
1
10
0
20
0
30
0
0
VERTEX
8
ENGRAVE
10
149.867
20
248.430
30
0
0
VERTEX
8
ENGRAVE
10
149.294
20
248.482
30
0
0
VERTEX
8
ENGRAVE
10
149.294
20
247.493
30
0
0
VERTEX
8
ENGRAVE
10
149.867
20
247.493
30
0
0
SEQEND
8
ENGRAVE
0
POLYLINE
8
ENGRAVE
66
1
70
1
10
0
20
0
30
0
0
VERTEX
8
ENGRAVE
10
96.124
20
261.287
30
0
0
VERTEX
8
ENGRAVE
10
96.124
20
260.995
30
0
0
VERTEX
8
ENGRAVE
10
95.999
20
260.620
30
0
0
VERTEX
8
ENGRAVE
10
95.833
20
260.412
30
0
0
VERTEX
8
ENGRAVE
10
95.374
20
260.162
30
0
0
VERTEX
8
ENGRAVE
10
95.208
20
260.203
30
0
0
VERTEX
8
ENGRAVE
10
95.166
20
260.495
30
0
0
VERTEX
8
ENGRAVE
10
95.416
20
260.537
30
0
0
VERTEX
8
ENGRAVE
10
95.708
20
260.745
30
0
0
VERTEX
8
ENGRAVE
10
95.833
20
260.995
30
0
0
VERTEX
8
ENGRAVE
10
95.833
20
261.328
30
0
0
VERTEX
8
ENGRAVE
10
95.708
20
261.578
30
0
0
VERTEX
8
ENGRAVE
10
95.333
20
261.828
30
0
0
VERTEX
8
ENGRAVE
10
94.458
20
261.912
30
0
0
VERTEX
8
ENGRAVE
10
93.999
20
261.787
30
0
0
VERTEX
8
ENGRAVE
10
93.708
20
261.578
30
0
0
VERTEX
8
ENGRAVE
10
93.583
20
261.328
30
0
0
VERTEX
8
ENGRAVE
10
93.624
20
260.870
30
0
0
VERTEX
8
ENGRAVE
10
93.833
20
260.620
30
0
0
VERTEX
8
ENGRAVE
10
94.249
20
260.495
30
0
0
VERTEX
8
ENGRAVE
10
94.208
20
260.162
30
0
0
VERTEX
8
ENGRAVE
10
93.958
20
260.203
30
0
0
VERTEX
8
ENGRAVE
10
93.583
20
260.412
30
0
0
VERTEX
8
ENGRAVE
10
93.291
20
260.953
30
0
0
VERTEX
8
ENGRAVE
10
93.291
20
261.370
30
0
0
VERTEX
8
ENGRAVE
10
93.458
20
261.787
30
0
0
VERTEX
8
ENGRAVE
10
93.874
20
262.120
30
0
0
VERTEX
8
ENGRAVE
10
94.416
20
262.287
30
0
0
VERTEX
8
ENGRAVE
10
95.041
20
262.287
30
0
0
VERTEX
8
ENGRAVE
10
95.624
20
262.078
30
0
0
VERTEX
8
ENGRAVE
10
95.999
20
261.703
30
0
0
SEQEND
8
ENGRAVE
0
POLYLINE
8
ENGRAVE
66
1
70
1
10
0
20
0
30
0
0
VERTEX
8
ENGRAVE
10
96.083
20
258.787
30
0
0
VERTEX
8
ENGRAVE
10
96.041
20
258.495
30
0
0
VERTEX
8
ENGRAVE
10
93.583
20
258.495
30
0
0
VERTEX
8
ENGRAVE
10
93.583
20
257.745
30
0
0
VERTEX
8
ENGRAVE
10
93.333
20
257.745
30
0
0
VERTEX
8
ENGRAVE
10
93.333
20
259.662
30
0
0
VERTEX
8
ENGRAVE
10
93.583
20
259.662
30
0
0
VERTEX
8
ENGRAVE
10
93.583
20
258.870
30
0
0
VERTEX
8
ENGRAVE
10
95.624
20
258.870
30
0
0
VERTEX
8
ENGRAVE
10
95.083
20
259.537
30
0
0
VERTEX
8
ENGRAVE
10
95.083
20
259.620
30
0
0
VERTEX
8
ENGRAVE
10
95.416
20
259.620
30
0
0
VERTEX
8
ENGRAVE
10
95.666
20
259.162
30
0
0
SEQEND
8
ENGRAVE
0
POLYLINE
8
SCORE
66
1
70
1
10
0
20
0
30
0
0
VERTEX
8
SCORE
10
6.075
20
198.925
30
0
0
VERTEX
8
SCORE
10
6.075
20
210.925
30
0
0
VERTEX
8
SCORE
10
28.075
20
210.925
30
0
0
VERTEX
8
SCORE
10
28.075
20
198.925
30
0
0
SEQEND
8
SCORE
0
POLYLINE
8
SCORE
66
1
70
0
10
0
20
0
30
0
0
VERTEX
8
SCORE
10
28.575
20
229.425
30
0
0
VERTEX
8
SCORE
10
28.575
20
212.425
30
0
0
VERTEX
8
SCORE
10
6.575
20
212.425
30
0
0
VERTEX
8
SCORE
10
6.575
20
229.425
30
0
0
SEQEND
8
SCORE
0
POLYLINE
8
SCORE
66
1
70
1
10
0
20
0
30
0
0
VERTEX
8
SCORE
10
14.075
20
184.925
30
0
0
VERTEX
8
SCORE
10
14.075
20
195.925
30
0
0
VERTEX
8
SCORE
10
36.075
20
195.925
30
0
0
VERTEX
8
SCORE
10
36.075
20
184.925
30
0
0
SEQEND
8
SCORE
0
POLYLINE
8
SCORE
66
1
70
1
10
0
20
0
30
0
0
VERTEX
8
SCORE
10
48.575
20
219.425
30
0
0
VERTEX
8
SCORE
10
48.575
20
229.425
30
0
0
VERTEX
8
SCORE
10
68.575
20
229.425
30
0
0
VERTEX
8
SCORE
10
68.575
20
219.425
30
0
0
SEQEND
8
SCORE
0
POLYLINE
8
SCORE
66
1
70
1
10
0
20
0
30
0
0
VERTEX
8
SCORE
10
44.575
20
187.925
30
0
0
VERTEX
8
SCORE
10
44.575
20
217.925
30
0
0
VERTEX
8
SCORE
10
92.575
20
217.925
30
0
0
VERTEX
8
SCORE
10
92.575
20
187.925
30
0
0
SEQEND
8
SCORE
0
POLYLINE
8
ENGRAVE
66
1
70
1
10
0
20
0
30
0
0
VERTEX
8
ENGRAVE
10
182.628
20
237.555
30
0
0
VERTEX
8
ENGRAVE
10
182.628
20
235.639
30
0
0
VERTEX
8
ENGRAVE
10
182.336
20
235.639
30
0
0
VERTEX
8
ENGRAVE
10
182.295
20
236.430
30
0
0
VERTEX
8
ENGRAVE
10
179.878
20
236.430
30
0
0
VERTEX
8
ENGRAVE
10
179.878
20
236.764
30
0
0
VERTEX
8
ENGRAVE
10
182.336
20
236.764
30
0
0
VERTEX
8
ENGRAVE
10
182.336
20
237.555
30
0
0
SEQEND
8
ENGRAVE
0
POLYLINE
8
ENGRAVE
66
1
70
1
10
0
20
0
30
0
0
VERTEX
8
ENGRAVE
10
182.628
20
234.389
30
0
0
VERTEX
8
ENGRAVE
10
182.628
20
234.139
30
0
0
VERTEX
8
ENGRAVE
10
180.128
20
234.139
30
0
0
VERTEX
8
ENGRAVE
10
180.128
20
233.347
30
0
0
VERTEX
8
ENGRAVE
10
179.878
20
233.347
30
0
0
VERTEX
8
ENGRAVE
10
179.878
20
235.264
30
0
0
VERTEX
8
ENGRAVE
10
180.128
20
235.264
30
0
0
VERTEX
8
ENGRAVE
10
180.128
20
234.472
30
0
0
VERTEX
8
ENGRAVE
10
182.170
20
234.472
30
0
0
VERTEX
8
ENGRAVE
10
181.628
20
235.139
30
0
0
VERTEX
8
ENGRAVE
10
181.628
20
235.222
30
0
0
VERTEX
8
ENGRAVE
10
181.961
20
235.222
30
0
0
VERTEX
8
ENGRAVE
10
182.253
20
234.722
30
0
0
SEQEND
8
ENGRAVE
0
POLYLINE
8
ENGRAVE
66
1
70
1
10
0
20
0
30
0
0
VERTEX
8
ENGRAVE
10
376.445
20
164.478
30
0
0
VERTEX
8
ENGRAVE
10
378.361
20
164.478
30
0
0
VERTEX
8
ENGRAVE
10
378.361
20
164.186
30
0
0
VERTEX
8
ENGRAVE
10
377.570
20
164.145
30
0
0
VERTEX
8
ENGRAVE
10
377.570
20
161.728
30
0
0
VERTEX
8
ENGRAVE
10
377.236
20
161.728
30
0
0
VERTEX
8
ENGRAVE
10
377.236
20
164.186
30
0
0
VERTEX
8
ENGRAVE
10
376.445
20
164.186
30
0
0
SEQEND
8
ENGRAVE
0
POLYLINE
8
ENGRAVE
66
1
70
1
10
0
20
0
30
0
0
VERTEX
8
ENGRAVE
10
379.611
20
164.478
30
0
0
VERTEX
8
ENGRAVE
10
379.861
20
164.478
30
0
0
VERTEX
8
ENGRAVE
10
379.861
20
161.978
30
0
0
VERTEX
8
ENGRAVE
10
380.653
20
161.978
30
0
0
VERTEX
8
ENGRAVE
10
380.653
20
161.728
30
0
0
VERTEX
8
ENGRAVE
10
378.736
20
161.728
30
0
0
VERTEX
8
ENGRAVE
10
378.736
20
161.978
30
0
0
VERTEX
8
ENGRAVE
10
379.528
20
161.978
30
0
0
VERTEX
8
ENGRAVE
10
379.528
20
164.020
30
0
0
VERTEX
8
ENGRAVE
10
378.861
20
163.478
30
0
0
VERTEX
8
ENGRAVE
10
378.778
20
163.478
30
0
0
VERTEX
8
ENGRAVE
10
378.778
20
163.811
30
0
0
VERTEX
8
ENGRAVE
10
379.278
20
164.103
30
0
0
SEQEND
8
ENGRAVE
0
POLYLINE
8
ENGRAVE
66
1
70
1
10
0
20
0
30
0
0
VERTEX
8
ENGRAVE
10
179.628
20
139.055
30
0
0
VERTEX
8
ENGRAVE
10
179.628
20
137.139
30
0
0
VERTEX
8
ENGRAVE
10
179.336
20
137.139
30
0
0
VERTEX
8
ENGRAVE
10
179.295
20
137.930
30
0
0
VERTEX
8
ENGRAVE
10
176.878
20
137.930
30
0
0
VERTEX
8
ENGRAVE
10
176.878
20
138.264
30
0
0
VERTEX
8
ENGRAVE
10
179.336
20
138.264
30
0
0
VERTEX
8
ENGRAVE
10
179.336
20
139.055
30
0
0
SEQEND
8
ENGRAVE
0
POLYLINE
8
ENGRAVE
66
1
70
1
10
0
20
0
30
0
0
VERTEX
8
ENGRAVE
10
179.628
20
135.889
30
0
0
VERTEX
8
ENGRAVE
10
179.628
20
135.639
30
0
0
VERTEX
8
ENGRAVE
10
177.128
20
135.639
30
0
0
VERTEX
8
ENGRAVE
10
177.128
20
134.847
30
0
0
VERTEX
8
ENGRAVE
10
176.878
20
134.847
30
0
0
VERTEX
8
ENGRAVE
10
176.878
20
136.764
30
0
0
VERTEX
8
ENGRAVE
10
177.128
20
136.764
30
0
0
VERTEX
8
ENGRAVE
10
177.128
20
135.972
30
0
0
VERTEX
8
ENGRAVE
10
179.170
20
135.972
30
0
0
VERTEX
8
ENGRAVE
10
178.628
20
136.639
30
0
0
VERTEX
8
ENGRAVE
10
178.628
20
136.722
30
0
0
VERTEX
8
ENGRAVE
10
178.961
20
136.722
30
0
0
VERTEX
8
ENGRAVE
10
179.253
20
136.222
30
0
0
SEQEND
8
ENGRAVE
0
POLYLINE
8
ENGRAVE
66
1
70
1
10
0
20
0
30
0
0
VERTEX
8
ENGRAVE
10
82.304
20
74.121
30
0
0
VERTEX
8
ENGRAVE
10
82.596
20
74.121
30
0
0
VERTEX
8
ENGRAVE
10
82.971
20
73.996
30
0
0
VERTEX
8
ENGRAVE
10
83.179
20
73.829
30
0
0
VERTEX
8
ENGRAVE
10
83.429
20
73.371
30
0
0
VERTEX
8
ENGRAVE
10
83.388
20
73.204
30
0
0
VERTEX
8
ENGRAVE
10
83.096
20
73.162
30
0
0
VERTEX
8
ENGRAVE
10
83.054
20
73.412
30
0
0
VERTEX
8
ENGRAVE
10
82.846
20
73.704
30
0
0
VERTEX
8
ENGRAVE
10
82.596
20
73.829
30
0
0
VERTEX
8
ENGRAVE
10
82.263
20
73.829
30
0
0
VERTEX
8
ENGRAVE
10
82.013
20
73.704
30
0
0
VERTEX
8
ENGRAVE
10
81.763
20
73.329
30
0
0
VERTEX
8
ENGRAVE
10
81.679
20
72.454
30
0
0
VERTEX
8
ENGRAVE
10
81.804
20
71.996
30
0
0
VERTEX
8
ENGRAVE
10
82.013
20
71.704
30
0
0
VERTEX
8
ENGRAVE
10
82.263
20
71.579
30
0
0
VERTEX
8
ENGRAVE
10
82.721
20
71.621
30
0
0
VERTEX
8
ENGRAVE
10
82.971
20
71.829
30
0
0
VERTEX
8
ENGRAVE
10
83.096
20
72.246
30
0
0
VERTEX
8
ENGRAVE
10
83.429
20
72.204
30
0
0
VERTEX
8
ENGRAVE
10
83.388
20
71.954
30
0
0
VERTEX
8
ENGRAVE
10
83.179
20
71.579
30
0
0
VERTEX
8
ENGRAVE
10
82.638
20
71.287
30
0
0
VERTEX
8
ENGRAVE
10
82.221
20
71.287
30
0
0
VERTEX
8
ENGRAVE
10
81.804
20
71.454
30
0
0
VERTEX
8
ENGRAVE
10
81.471
20
71.871
30
0
0
VERTEX
8
ENGRAVE
10
81.304
20
72.412
30
0
0
VERTEX
8
ENGRAVE
10
81.304
20
73.037
30
0
0
VERTEX
8
ENGRAVE
10
81.513
20
73.621
30
0
0
VERTEX
8
ENGRAVE
10
81.888
20
73.996
30
0
0
SEQEND
8
ENGRAVE
0
POLYLINE
8
ENGRAVE
66
1
70
1
10
0
20
0
30
0
0
VERTEX
8
ENGRAVE
10
84.638
20
74.121
30
0
0
VERTEX
8
ENGRAVE
10
85.221
20
74.079
30
0
0
VERTEX
8
ENGRAVE
10
85.471
20
73.954
30
0
0
VERTEX
8
ENGRAVE
10
85.679
20
73.746
30
0
0
VERTEX
8
ENGRAVE
10
85.763
20
73.537
30
0
0
VERTEX
8
ENGRAVE
10
85.721
20
73.121
30
0
0
VERTEX
8
ENGRAVE
10
85.513
20
72.871
30
0
0
VERTEX
8
ENGRAVE
10
85.263
20
72.746
30
0
0
VERTEX
8
ENGRAVE
10
85.513
20
72.704
30
0
0
VERTEX
8
ENGRAVE
10
85.763
20
72.496
30
0
0
VERTEX
8
ENGRAVE
10
85.846
20
72.329
30
0
0
VERTEX
8
ENGRAVE
10
85.846
20
71.871
30
0
0
VERTEX
8
ENGRAVE
10
85.638
20
71.537
30
0
0
VERTEX
8
ENGRAVE
10
85.054
20
71.287
30
0
0
VERTEX
8
ENGRAVE
10
84.388
20
71.329
30
0
0
VERTEX
8
ENGRAVE
10
84.138
20
71.454
30
0
0
VERTEX
8
ENGRAVE
10
83.804
20
71.829
30
0
0
VERTEX
8
ENGRAVE
10
83.846
20
71.996
30
0
0
VERTEX
8
ENGRAVE
10
84.096
20
72.037
30
0
0
VERTEX
8
ENGRAVE
10
84.179
20
71.829
30
0
0
VERTEX
8
ENGRAVE
10
84.513
20
71.579
30
0
0
VERTEX
8
ENGRAVE
10
85.096
20
71.579
30
0
0
VERTEX
8
ENGRAVE
10
85.304
20
71.662
30
0
0
VERTEX
8
ENGRAVE
10
85.471
20
71.871
30
0
0
VERTEX
8
ENGRAVE
10
85.513
20
72.204
30
0
0
VERTEX
8
ENGRAVE
10
85.304
20
72.496
30
0
0
VERTEX
8
ENGRAVE
10
84.929
20
72.621
30
0
0
VERTEX
8
ENGRAVE
10
84.471
20
72.621
30
0
0
VERTEX
8
ENGRAVE
10
84.471
20
72.912
30
0
0
VERTEX
8
ENGRAVE
10
85.096
20
72.912
30
0
0
VERTEX
8
ENGRAVE
10
85.304
20
73.037
30
0
0
VERTEX
8
ENGRAVE
10
85.388
20
73.204
30
0
0
VERTEX
8
ENGRAVE
10
85.346
20
73.621
30
0
0
VERTEX
8
ENGRAVE
10
85.054
20
73.829
30
0
0
VERTEX
8
ENGRAVE
10
84.596
20
73.829
30
0
0
VERTEX
8
ENGRAVE
10
84.429
20
73.746
30
0
0
VERTEX
8
ENGRAVE
10
84.179
20
73.412
30
0
0
VERTEX
8
ENGRAVE
10
83.888
20
73.454
30
0
0
VERTEX
8
ENGRAVE
10
84.096
20
73.871
30
0
0
SEQEND
8
ENGRAVE
0
POLYLINE
8
ENGRAVE
66
1
70
1
10
0
20
0
30
0
0
VERTEX
8
ENGRAVE
10
245.304
20
71.121
30
0
0
VERTEX
8
ENGRAVE
10
245.596
20
71.121
30
0
0
VERTEX
8
ENGRAVE
10
245.971
20
70.996
30
0
0
VERTEX
8
ENGRAVE
10
246.179
20
70.829
30
0
0
VERTEX
8
ENGRAVE
10
246.429
20
70.371
30
0
0
VERTEX
8
ENGRAVE
10
246.387
20
70.204
30
0
0
VERTEX
8
ENGRAVE
10
246.096
20
70.162
30
0
0
VERTEX
8
ENGRAVE
10
246.054
20
70.412
30
0
0
VERTEX
8
ENGRAVE
10
245.846
20
70.704
30
0
0
VERTEX
8
ENGRAVE
10
245.596
20
70.829
30
0
0
VERTEX
8
ENGRAVE
10
245.262
20
70.829
30
0
0
VERTEX
8
ENGRAVE
10
245.012
20
70.704
30
0
0
VERTEX
8
ENGRAVE
10
244.762
20
70.329
30
0
0
VERTEX
8
ENGRAVE
10
244.679
20
69.454
30
0
0
VERTEX
8
ENGRAVE
10
244.804
20
68.996
30
0
0
VERTEX
8
ENGRAVE
10
245.012
20
68.704
30
0
0
VERTEX
8
ENGRAVE
10
245.262
20
68.579
30
0
0
VERTEX
8
ENGRAVE
10
245.721
20
68.621
30
0
0
VERTEX
8
ENGRAVE
10
245.971
20
68.829
30
0
0
VERTEX
8
ENGRAVE
10
246.096
20
69.246
30
0
0
VERTEX
8
ENGRAVE
10
246.429
20
69.204
30
0
0
VERTEX
8
ENGRAVE
10
246.387
20
68.954
30
0
0
VERTEX
8
ENGRAVE
10
246.179
20
68.579
30
0
0
VERTEX
8
ENGRAVE
10
245.637
20
68.287
30
0
0
VERTEX
8
ENGRAVE
10
245.221
20
68.287
30
0
0
VERTEX
8
ENGRAVE
10
244.804
20
68.454
30
0
0
VERTEX
8
ENGRAVE
10
244.471
20
68.871
30
0
0
VERTEX
8
ENGRAVE
10
244.304
20
69.412
30
0
0
VERTEX
8
ENGRAVE
10
244.304
20
70.037
30
0
0
VERTEX
8
ENGRAVE
10
244.512
20
70.621
30
0
0
VERTEX
8
ENGRAVE
10
244.887
20
70.996
30
0
0
SEQEND
8
ENGRAVE
0
POLYLINE
8
ENGRAVE
66
1
70
1
10
0
20
0
30
0
0
VERTEX
8
ENGRAVE
10
247.637
20
71.121
30
0
0
VERTEX
8
ENGRAVE
10
248.221
20
71.079
30
0
0
VERTEX
8
ENGRAVE
10
248.471
20
70.954
30
0
0
VERTEX
8
ENGRAVE
10
248.679
20
70.746
30
0
0
VERTEX
8
ENGRAVE
10
248.762
20
70.537
30
0
0
VERTEX
8
ENGRAVE
10
248.721
20
70.121
30
0
0
VERTEX
8
ENGRAVE
10
248.512
20
69.871
30
0
0
VERTEX
8
ENGRAVE
10
248.262
20
69.746
30
0
0
VERTEX
8
ENGRAVE
10
248.512
20
69.704
30
0
0
VERTEX
8
ENGRAVE
10
248.762
20
69.496
30
0
0
VERTEX
8
ENGRAVE
10
248.846
20
69.329
30
0
0
VERTEX
8
ENGRAVE
10
248.846
20
68.871
30
0
0
VERTEX
8
ENGRAVE
10
248.637
20
68.537
30
0
0
VERTEX
8
ENGRAVE
10
248.054
20
68.287
30
0
0
VERTEX
8
ENGRAVE
10
247.387
20
68.329
30
0
0
VERTEX
8
ENGRAVE
10
247.137
20
68.454
30
0
0
VERTEX
8
ENGRAVE
10
246.804
20
68.829
30
0
0
VERTEX
8
ENGRAVE
10
246.846
20
68.996
30
0
0
VERTEX
8
ENGRAVE
10
247.096
20
69.037
30
0
0
VERTEX
8
ENGRAVE
10
247.179
20
68.829
30
0
0
VERTEX
8
ENGRAVE
10
247.512
20
68.579
30
0
0
VERTEX
8
ENGRAVE
10
248.096
20
68.579
30
0
0
VERTEX
8
ENGRAVE
10
248.304
20
68.662
30
0
0
VERTEX
8
ENGRAVE
10
248.471
20
68.871
30
0
0
VERTEX
8
ENGRAVE
10
248.512
20
69.204
30
0
0
VERTEX
8
ENGRAVE
10
248.304
20
69.496
30
0
0
VERTEX
8
ENGRAVE
10
247.929
20
69.621
30
0
0
VERTEX
8
ENGRAVE
10
247.471
20
69.621
30
0
0
VERTEX
8
ENGRAVE
10
247.471
20
69.912
30
0
0
VERTEX
8
ENGRAVE
10
248.096
20
69.912
30
0
0
VERTEX
8
ENGRAVE
10
248.304
20
70.037
30
0
0
VERTEX
8
ENGRAVE
10
248.387
20
70.204
30
0
0
VERTEX
8
ENGRAVE
10
248.346
20
70.621
30
0
0
VERTEX
8
ENGRAVE
10
248.054
20
70.829
30
0
0
VERTEX
8
ENGRAVE
10
247.596
20
70.829
30
0
0
VERTEX
8
ENGRAVE
10
247.429
20
70.746
30
0
0
VERTEX
8
ENGRAVE
10
247.179
20
70.412
30
0
0
VERTEX
8
ENGRAVE
10
246.887
20
70.454
30
0
0
VERTEX
8
ENGRAVE
10
247.096
20
70.871
30
0
0
SEQEND
8
ENGRAVE
0
POLYLINE
8
ENGRAVE
66
1
70
1
10
0
20
0
30
0
0
VERTEX
8
ENGRAVE
10
336.075
20
132.925
30
0
0
VERTEX
8
ENGRAVE
10
432.075
20
132.925
30
0
0
VERTEX
8
ENGRAVE
10
432.075
20
135.925
30
0
0
VERTEX
8
ENGRAVE
10
336.075
20
135.925
30
0
0
SEQEND
8
ENGRAVE
0
POLYLINE
8
ENGRAVE
66
1
70
1
10
0
20
0
30
0
0
VERTEX
8
ENGRAVE
10
386.736
20
75.477
30
0
0
VERTEX
8
ENGRAVE
10
387.320
20
75.477
30
0
0
VERTEX
8
ENGRAVE
10
387.976
20
75.258
30
0
0
VERTEX
8
ENGRAVE
10
388.486
20
74.821
30
0
0
VERTEX
8
ENGRAVE
10
388.705
20
74.383
30
0
0
VERTEX
8
ENGRAVE
10
388.632
20
74.238
30
0
0
VERTEX
8
ENGRAVE
10
388.122
20
74.165
30
0
0
VERTEX
8
ENGRAVE
10
388.049
20
74.529
30
0
0
VERTEX
8
ENGRAVE
10
387.320
20
74.967
30
0
0
VERTEX
8
ENGRAVE
10
386.591
20
74.967
30
0
0
VERTEX
8
ENGRAVE
10
386.007
20
74.529
30
0
0
VERTEX
8
ENGRAVE
10
385.934
20
74.165
30
0
0
VERTEX
8
ENGRAVE
10
386.226
20
73.654
30
0
0
VERTEX
8
ENGRAVE
10
388.122
20
73.144
30
0
0
VERTEX
8
ENGRAVE
10
388.778
20
72.560
30
0
0
VERTEX
8
ENGRAVE
10
388.851
20
71.540
30
0
0
VERTEX
8
ENGRAVE
10
388.705
20
71.175
30
0
0
VERTEX
8
ENGRAVE
10
388.341
20
70.810
30
0
0
VERTEX
8
ENGRAVE
10
387.611
20
70.519
30
0
0
VERTEX
8
ENGRAVE
10
386.153
20
70.665
30
0
0
VERTEX
8
ENGRAVE
10
385.424
20
71.248
30
0
0
VERTEX
8
ENGRAVE
10
385.132
20
71.758
30
0
0
VERTEX
8
ENGRAVE
10
385.132
20
71.904
30
0
0
VERTEX
8
ENGRAVE
10
385.716
20
71.977
30
0
0
VERTEX
8
ENGRAVE
10
386.080
20
71.321
30
0
0
VERTEX
8
ENGRAVE
10
386.809
20
71.029
30
0
0
VERTEX
8
ENGRAVE
10
387.684
20
71.102
30
0
0
VERTEX
8
ENGRAVE
10
388.195
20
71.540
30
0
0
VERTEX
8
ENGRAVE
10
388.268
20
71.977
30
0
0
VERTEX
8
ENGRAVE
10
388.049
20
72.415
30
0
0
VERTEX
8
ENGRAVE
10
387.684
20
72.633
30
0
0
VERTEX
8
ENGRAVE
10
386.080
20
72.998
30
0
0
VERTEX
8
ENGRAVE
10
385.424
20
73.654
30
0
0
VERTEX
8
ENGRAVE
10
385.351
20
74.310
30
0
0
VERTEX
8
ENGRAVE
10
385.497
20
74.821
30
0
0
VERTEX
8
ENGRAVE
10
385.861
20
75.185
30
0
0
SEQEND
8
ENGRAVE
0
POLYLINE
8
ENGRAVE
66
1
70
1
10
0
20
0
30
0
0
VERTEX
8
ENGRAVE
10
374.341
20
75.404
30
0
0
VERTEX
8
ENGRAVE
10
375.070
20
75.331
30
0
0
VERTEX
8
ENGRAVE
10
376.528
20
70.592
30
0
0
VERTEX
8
ENGRAVE
10
375.872
20
70.665
30
0
0
VERTEX
8
ENGRAVE
10
375.507
20
71.977
30
0
0
VERTEX
8
ENGRAVE
10
373.684
20
71.977
30
0
0
VERTEX
8
ENGRAVE
10
373.320
20
70.665
30
0
0
VERTEX
8
ENGRAVE
10
372.736
20
70.592
30
0
0
SEQEND
8
ENGRAVE
0
POLYLINE
8
ENGRAVE
66
1
70
1
10
0
20
0
30
0
0
VERTEX
8
ENGRAVE
10
377.184
20
75.404
30
0
0
VERTEX
8
ENGRAVE
10
379.664
20
75.331
30
0
0
VERTEX
8
ENGRAVE
10
380.393
20
74.821
30
0
0
VERTEX
8
ENGRAVE
10
380.611
20
74.092
30
0
0
VERTEX
8
ENGRAVE
10
380.539
20
73.581
30
0
0
VERTEX
8
ENGRAVE
10
380.101
20
72.998
30
0
0
VERTEX
8
ENGRAVE
10
379.736
20
72.852
30
0
0
VERTEX
8
ENGRAVE
10
379.736
20
72.633
30
0
0
VERTEX
8
ENGRAVE
10
380.611
20
70.592
30
0
0
VERTEX
8
ENGRAVE
10
379.955
20
70.592
30
0
0
VERTEX
8
ENGRAVE
10
379.153
20
72.633
30
0
0
VERTEX
8
ENGRAVE
10
377.768
20
72.633
30
0
0
VERTEX
8
ENGRAVE
10
377.768
20
70.592
30
0
0
VERTEX
8
ENGRAVE
10
377.184
20
70.592
30
0
0
SEQEND
8
ENGRAVE
0
POLYLINE
8
ENGRAVE
66
1
70
1
10
0
20
0
30
0
0
VERTEX
8
ENGRAVE
10
381.486
20
75.404
30
0
0
VERTEX
8
ENGRAVE
10
384.549
20
75.404
30
0
0
VERTEX
8
ENGRAVE
10
384.549
20
74.894
30
0
0
VERTEX
8
ENGRAVE
10
382.143
20
74.894
30
0
0
VERTEX
8
ENGRAVE
10
382.143
20
73.363
30
0
0
VERTEX
8
ENGRAVE
10
384.039
20
73.363
30
0
0
VERTEX
8
ENGRAVE
10
384.039
20
72.852
30
0
0
VERTEX
8
ENGRAVE
10
382.143
20
72.852
30
0
0
VERTEX
8
ENGRAVE
10
382.143
20
71.102
30
0
0
VERTEX
8
ENGRAVE
10
384.622
20
71.102
30
0
0
VERTEX
8
ENGRAVE
10
384.622
20
70.592
30
0
0
VERTEX
8
ENGRAVE
10
381.486
20
70.592
30
0
0
SEQEND
8
ENGRAVE
0
POLYLINE
8
ENGRAVE
66
1
70
1
10
0
20
0
30
0
0
VERTEX
8
ENGRAVE
10
393.372
20
75.404
30
0
0
VERTEX
8
ENGRAVE
10
393.809
20
75.404
30
0
0
VERTEX
8
ENGRAVE
10
393.809
20
71.029
30
0
0
VERTEX
8
ENGRAVE
10
395.195
20
71.029
30
0
0
VERTEX
8
ENGRAVE
10
395.195
20
70.592
30
0
0
VERTEX
8
ENGRAVE
10
391.841
20
70.592
30
0
0
VERTEX
8
ENGRAVE
10
391.841
20
71.029
30
0
0
VERTEX
8
ENGRAVE
10
393.226
20
71.029
30
0
0
VERTEX
8
ENGRAVE
10
393.226
20
74.602
30
0
0
VERTEX
8
ENGRAVE
10
392.059
20
73.654
30
0
0
VERTEX
8
ENGRAVE
10
391.914
20
73.654
30
0
0
VERTEX
8
ENGRAVE
10
391.914
20
74.238
30
0
0
VERTEX
8
ENGRAVE
10
392.789
20
74.748
30
0
0
SEQEND
8
ENGRAVE
0
POLYLINE
8
ENGRAVE
66
1
70
1
10
0
20
0
30
0
0
VERTEX
8
ENGRAVE
10
377.841
20
74.894
30
0
0
VERTEX
8
ENGRAVE
10
377.768
20
73.144
30
0
0
VERTEX
8
ENGRAVE
10
379.445
20
73.217
30
0
0
VERTEX
8
ENGRAVE
10
379.882
20
73.581
30
0
0
VERTEX
8
ENGRAVE
10
379.955
20
74.310
30
0
0
VERTEX
8
ENGRAVE
10
379.736
20
74.675
30
0
0
VERTEX
8
ENGRAVE
10
379.153
20
74.894
30
0
0
SEQEND
8
ENGRAVE
0
POLYLINE
8
ENGRAVE
66
1
70
1
10
0
20
0
30
0
0
VERTEX
8
ENGRAVE
10
374.632
20
74.675
30
0
0
VERTEX
8
ENGRAVE
10
373.903
20
72.488
30
0
0
VERTEX
8
ENGRAVE
10
375.289
20
72.488
30
0
0
SEQEND
8
ENGRAVE
0
POLYLINE
8
ENGRAVE
66
1
70
1
10
0
20
0
30
0
0
VERTEX
8
ENGRAVE
10
389.216
20
72.633
30
0
0
VERTEX
8
ENGRAVE
10
390.674
20
72.633
30
0
0
VERTEX
8
ENGRAVE
10
390.674
20
72.196
30
0
0
VERTEX
8
ENGRAVE
10
389.143
20
72.196
30
0
0
SEQEND
8
ENGRAVE
0
POLYLINE
8
ENGRAVE
66
1
70
1
10
0
20
0
30
0
0
VERTEX
8
ENGRAVE
10
110.213
20
161.374
30
0
0
VERTEX
8
ENGRAVE
10
110.505
20
161.374
30
0
0
VERTEX
8
ENGRAVE
10
110.880
20
161.249
30
0
0
VERTEX
8
ENGRAVE
10
111.088
20
161.082
30
0
0
VERTEX
8
ENGRAVE
10
111.338
20
160.624
30
0
0
VERTEX
8
ENGRAVE
10
111.297
20
160.457
30
0
0
VERTEX
8
ENGRAVE
10
111.005
20
160.416
30
0
0
VERTEX
8
ENGRAVE
10
110.963
20
160.666
30
0
0
VERTEX
8
ENGRAVE
10
110.755
20
160.957
30
0
0
VERTEX
8
ENGRAVE
10
110.505
20
161.082
30
0
0
VERTEX
8
ENGRAVE
10
110.172
20
161.082
30
0
0
VERTEX
8
ENGRAVE
10
109.922
20
160.957
30
0
0
VERTEX
8
ENGRAVE
10
109.672
20
160.582
30
0
0
VERTEX
8
ENGRAVE
10
109.588
20
159.707
30
0
0
VERTEX
8
ENGRAVE
10
109.713
20
159.249
30
0
0
VERTEX
8
ENGRAVE
10
109.922
20
158.957
30
0
0
VERTEX
8
ENGRAVE
10
110.172
20
158.832
30
0
0
VERTEX
8
ENGRAVE
10
110.630
20
158.874
30
0
0
VERTEX
8
ENGRAVE
10
110.880
20
159.082
30
0
0
VERTEX
8
ENGRAVE
10
111.005
20
159.499
30
0
0
VERTEX
8
ENGRAVE
10
111.338
20
159.457
30
0
0
VERTEX
8
ENGRAVE
10
111.297
20
159.207
30
0
0
VERTEX
8
ENGRAVE
10
111.088
20
158.832
30
0
0
VERTEX
8
ENGRAVE
10
110.547
20
158.541
30
0
0
VERTEX
8
ENGRAVE
10
110.130
20
158.541
30
0
0
VERTEX
8
ENGRAVE
10
109.713
20
158.707
30
0
0
VERTEX
8
ENGRAVE
10
109.380
20
159.124
30
0
0
VERTEX
8
ENGRAVE
10
109.213
20
159.666
30
0
0
VERTEX
8
ENGRAVE
10
109.213
20
160.291
30
0
0
VERTEX
8
ENGRAVE
10
109.422
20
160.874
30
0
0
VERTEX
8
ENGRAVE
10
109.797
20
161.249
30
0
0
SEQEND
8
ENGRAVE
0
POLYLINE
8
ENGRAVE
66
1
70
1
10
0
20
0
30
0
0
VERTEX
8
ENGRAVE
10
111.922
20
161.332
30
0
0
VERTEX
8
ENGRAVE
10
113.547
20
161.332
30
0
0
VERTEX
8
ENGRAVE
10
113.547
20
161.041
30
0
0
VERTEX
8
ENGRAVE
10
112.172
20
161.041
30
0
0
VERTEX
8
ENGRAVE
10
112.130
20
160.166
30
0
0
VERTEX
8
ENGRAVE
10
112.547
20
160.416
30
0
0
VERTEX
8
ENGRAVE
10
113.047
20
160.416
30
0
0
VERTEX
8
ENGRAVE
10
113.338
20
160.291
30
0
0
VERTEX
8
ENGRAVE
10
113.713
20
159.791
30
0
0
VERTEX
8
ENGRAVE
10
113.713
20
159.249
30
0
0
VERTEX
8
ENGRAVE
10
113.588
20
158.957
30
0
0
VERTEX
8
ENGRAVE
10
113.088
20
158.582
30
0
0
VERTEX
8
ENGRAVE
10
112.297
20
158.582
30
0
0
VERTEX
8
ENGRAVE
10
112.047
20
158.707
30
0
0
VERTEX
8
ENGRAVE
10
111.713
20
159.124
30
0
0
VERTEX
8
ENGRAVE
10
111.713
20
159.207
30
0
0
VERTEX
8
ENGRAVE
10
112.047
20
159.291
30
0
0
VERTEX
8
ENGRAVE
10
112.213
20
158.957
30
0
0
VERTEX
8
ENGRAVE
10
112.463
20
158.832
30
0
0
VERTEX
8
ENGRAVE
10
112.963
20
158.832
30
0
0
VERTEX
8
ENGRAVE
10
113.130
20
158.916
30
0
0
VERTEX
8
ENGRAVE
10
113.380
20
159.249
30
0
0
VERTEX
8
ENGRAVE
10
113.380
20
159.749
30
0
0
VERTEX
8
ENGRAVE
10
113.130
20
160.082
30
0
0
VERTEX
8
ENGRAVE
10
112.588
20
160.166
30
0
0
VERTEX
8
ENGRAVE
10
112.255
20
159.999
30
0
0
VERTEX
8
ENGRAVE
10
112.130
20
159.791
30
0
0
VERTEX
8
ENGRAVE
10
111.838
20
159.832
30
0
0
SEQEND
8
ENGRAVE
0
POLYLINE
8
ENGRAVE
66
1
70
1
10
0
20
0
30
0
0
VERTEX
8
ENGRAVE
10
423.533
20
168.491
30
0
0
VERTEX
8
ENGRAVE
10
423.492
20
167.991
30
0
0
VERTEX
8
ENGRAVE
10
423.325
20
167.658
30
0
0
VERTEX
8
ENGRAVE
10
422.950
20
167.408
30
0
0
VERTEX
8
ENGRAVE
10
422.450
20
167.408
30
0
0
VERTEX
8
ENGRAVE
10
421.867
20
167.783
30
0
0
VERTEX
8
ENGRAVE
10
421.867
20
167.866
30
0
0
VERTEX
8
ENGRAVE
10
421.617
20
168.074
30
0
0
VERTEX
8
ENGRAVE
10
421.033
20
168.866
30
0
0
VERTEX
8
ENGRAVE
10
421.033
20
167.408
30
0
0
VERTEX
8
ENGRAVE
10
420.742
20
167.366
30
0
0
VERTEX
8
ENGRAVE
10
420.742
20
169.324
30
0
0
VERTEX
8
ENGRAVE
10
421.033
20
169.324
30
0
0
VERTEX
8
ENGRAVE
10
421.783
20
168.324
30
0
0
VERTEX
8
ENGRAVE
10
422.242
20
167.866
30
0
0
VERTEX
8
ENGRAVE
10
422.533
20
167.741
30
0
0
VERTEX
8
ENGRAVE
10
422.867
20
167.741
30
0
0
VERTEX
8
ENGRAVE
10
423.033
20
167.824
30
0
0
VERTEX
8
ENGRAVE
10
423.242
20
168.158
30
0
0
VERTEX
8
ENGRAVE
10
423.242
20
168.574
30
0
0
VERTEX
8
ENGRAVE
10
423.158
20
168.741
30
0
0
VERTEX
8
ENGRAVE
10
422.908
20
168.949
30
0
0
VERTEX
8
ENGRAVE
10
422.617
20
169.033
30
0
0
VERTEX
8
ENGRAVE
10
422.700
20
169.324
30
0
0
VERTEX
8
ENGRAVE
10
423.117
20
169.199
30
0
0
VERTEX
8
ENGRAVE
10
423.450
20
168.824
30
0
0
SEQEND
8
ENGRAVE
0
POLYLINE
8
ENGRAVE
66
1
70
1
10
0
20
0
30
0
0
VERTEX
8
ENGRAVE
10
423.492
20
171.533
30
0
0
VERTEX
8
ENGRAVE
10
423.492
20
169.616
30
0
0
VERTEX
8
ENGRAVE
10
423.200
20
169.616
30
0
0
VERTEX
8
ENGRAVE
10
423.158
20
170.408
30
0
0
VERTEX
8
ENGRAVE
10
420.742
20
170.408
30
0
0
VERTEX
8
ENGRAVE
10
420.742
20
170.741
30
0
0
VERTEX
8
ENGRAVE
10
423.200
20
170.741
30
0
0
VERTEX
8
ENGRAVE
10
423.200
20
171.533
30
0
0
SEQEND
8
ENGRAVE
0
POLYLINE
8
ENGRAVE
66
1
70
1
10
0
20
0
30
0
0
VERTEX
8
ENGRAVE
10
436.533
20
168.491
30
0
0
VERTEX
8
ENGRAVE
10
436.492
20
167.991
30
0
0
VERTEX
8
ENGRAVE
10
436.325
20
167.658
30
0
0
VERTEX
8
ENGRAVE
10
435.950
20
167.408
30
0
0
VERTEX
8
ENGRAVE
10
435.450
20
167.408
30
0
0
VERTEX
8
ENGRAVE
10
434.867
20
167.783
30
0
0
VERTEX
8
ENGRAVE
10
434.867
20
167.866
30
0
0
VERTEX
8
ENGRAVE
10
434.617
20
168.074
30
0
0
VERTEX
8
ENGRAVE
10
434.033
20
168.866
30
0
0
VERTEX
8
ENGRAVE
10
434.033
20
167.408
30
0
0
VERTEX
8
ENGRAVE
10
433.742
20
167.366
30
0
0
VERTEX
8
ENGRAVE
10
433.742
20
169.324
30
0
0
VERTEX
8
ENGRAVE
10
434.033
20
169.324
30
0
0
VERTEX
8
ENGRAVE
10
434.783
20
168.324
30
0
0
VERTEX
8
ENGRAVE
10
435.242
20
167.866
30
0
0
VERTEX
8
ENGRAVE
10
435.533
20
167.741
30
0
0
VERTEX
8
ENGRAVE
10
435.867
20
167.741
30
0
0
VERTEX
8
ENGRAVE
10
436.033
20
167.824
30
0
0
VERTEX
8
ENGRAVE
10
436.242
20
168.158
30
0
0
VERTEX
8
ENGRAVE
10
436.242
20
168.574
30
0
0
VERTEX
8
ENGRAVE
10
436.158
20
168.741
30
0
0
VERTEX
8
ENGRAVE
10
435.908
20
168.949
30
0
0
VERTEX
8
ENGRAVE
10
435.617
20
169.033
30
0
0
VERTEX
8
ENGRAVE
10
435.700
20
169.324
30
0
0
VERTEX
8
ENGRAVE
10
436.117
20
169.199
30
0
0
VERTEX
8
ENGRAVE
10
436.450
20
168.824
30
0
0
SEQEND
8
ENGRAVE
0
POLYLINE
8
ENGRAVE
66
1
70
1
10
0
20
0
30
0
0
VERTEX
8
ENGRAVE
10
436.492
20
171.533
30
0
0
VERTEX
8
ENGRAVE
10
436.492
20
169.616
30
0
0
VERTEX
8
ENGRAVE
10
436.200
20
169.616
30
0
0
VERTEX
8
ENGRAVE
10
436.158
20
170.408
30
0
0
VERTEX
8
ENGRAVE
10
433.742
20
170.408
30
0
0
VERTEX
8
ENGRAVE
10
433.742
20
170.741
30
0
0
VERTEX
8
ENGRAVE
10
436.200
20
170.741
30
0
0
VERTEX
8
ENGRAVE
10
436.200
20
171.533
30
0
0
SEQEND
8
ENGRAVE
0
POLYLINE
8
ENGRAVE
66
1
70
1
10
0
20
0
30
0
0
VERTEX
8
ENGRAVE
10
131.509
20
116.383
30
0
0
VERTEX
8
ENGRAVE
10
132.009
20
116.342
30
0
0
VERTEX
8
ENGRAVE
10
132.342
20
116.175
30
0
0
VERTEX
8
ENGRAVE
10
132.592
20
115.800
30
0
0
VERTEX
8
ENGRAVE
10
132.592
20
115.300
30
0
0
VERTEX
8
ENGRAVE
10
132.217
20
114.717
30
0
0
VERTEX
8
ENGRAVE
10
132.134
20
114.717
30
0
0
VERTEX
8
ENGRAVE
10
131.926
20
114.467
30
0
0
VERTEX
8
ENGRAVE
10
131.134
20
113.883
30
0
0
VERTEX
8
ENGRAVE
10
132.592
20
113.883
30
0
0
VERTEX
8
ENGRAVE
10
132.634
20
113.592
30
0
0
VERTEX
8
ENGRAVE
10
130.676
20
113.592
30
0
0
VERTEX
8
ENGRAVE
10
130.676
20
113.883
30
0
0
VERTEX
8
ENGRAVE
10
131.676
20
114.633
30
0
0
VERTEX
8
ENGRAVE
10
132.134
20
115.092
30
0
0
VERTEX
8
ENGRAVE
10
132.259
20
115.383
30
0
0
VERTEX
8
ENGRAVE
10
132.259
20
115.717
30
0
0
VERTEX
8
ENGRAVE
10
132.176
20
115.883
30
0
0
VERTEX
8
ENGRAVE
10
131.842
20
116.092
30
0
0
VERTEX
8
ENGRAVE
10
131.426
20
116.092
30
0
0
VERTEX
8
ENGRAVE
10
131.259
20
116.008
30
0
0
VERTEX
8
ENGRAVE
10
131.051
20
115.758
30
0
0
VERTEX
8
ENGRAVE
10
130.967
20
115.467
30
0
0
VERTEX
8
ENGRAVE
10
130.676
20
115.550
30
0
0
VERTEX
8
ENGRAVE
10
130.801
20
115.967
30
0
0
VERTEX
8
ENGRAVE
10
131.176
20
116.300
30
0
0
SEQEND
8
ENGRAVE
0
POLYLINE
8
ENGRAVE
66
1
70
1
10
0
20
0
30
0
0
VERTEX
8
ENGRAVE
10
128.467
20
116.342
30
0
0
VERTEX
8
ENGRAVE
10
130.384
20
116.342
30
0
0
VERTEX
8
ENGRAVE
10
130.384
20
116.050
30
0
0
VERTEX
8
ENGRAVE
10
129.592
20
116.008
30
0
0
VERTEX
8
ENGRAVE
10
129.592
20
113.592
30
0
0
VERTEX
8
ENGRAVE
10
129.259
20
113.592
30
0
0
VERTEX
8
ENGRAVE
10
129.259
20
116.050
30
0
0
VERTEX
8
ENGRAVE
10
128.467
20
116.050
30
0
0
SEQEND
8
ENGRAVE
0
POLYLINE
8
ENGRAVE
66
1
70
1
10
0
20
0
30
0
0
VERTEX
8
ENGRAVE
10
134.804
20
190.008
30
0
0
VERTEX
8
ENGRAVE
10
135.096
20
190.008
30
0
0
VERTEX
8
ENGRAVE
10
135.471
20
189.883
30
0
0
VERTEX
8
ENGRAVE
10
135.679
20
189.717
30
0
0
VERTEX
8
ENGRAVE
10
135.929
20
189.258
30
0
0
VERTEX
8
ENGRAVE
10
135.887
20
189.092
30
0
0
VERTEX
8
ENGRAVE
10
135.596
20
189.050
30
0
0
VERTEX
8
ENGRAVE
10
135.554
20
189.300
30
0
0
VERTEX
8
ENGRAVE
10
135.346
20
189.592
30
0
0
VERTEX
8
ENGRAVE
10
135.096
20
189.717
30
0
0
VERTEX
8
ENGRAVE
10
134.762
20
189.717
30
0
0
VERTEX
8
ENGRAVE
10
134.512
20
189.592
30
0
0
VERTEX
8
ENGRAVE
10
134.262
20
189.217
30
0
0
VERTEX
8
ENGRAVE
10
134.179
20
188.342
30
0
0
VERTEX
8
ENGRAVE
10
134.304
20
187.883
30
0
0
VERTEX
8
ENGRAVE
10
134.512
20
187.592
30
0
0
VERTEX
8
ENGRAVE
10
134.762
20
187.467
30
0
0
VERTEX
8
ENGRAVE
10
135.221
20
187.508
30
0
0
VERTEX
8
ENGRAVE
10
135.471
20
187.717
30
0
0
VERTEX
8
ENGRAVE
10
135.596
20
188.133
30
0
0
VERTEX
8
ENGRAVE
10
135.929
20
188.092
30
0
0
VERTEX
8
ENGRAVE
10
135.887
20
187.842
30
0
0
VERTEX
8
ENGRAVE
10
135.679
20
187.467
30
0
0
VERTEX
8
ENGRAVE
10
135.137
20
187.175
30
0
0
VERTEX
8
ENGRAVE
10
134.721
20
187.175
30
0
0
VERTEX
8
ENGRAVE
10
134.304
20
187.342
30
0
0
VERTEX
8
ENGRAVE
10
133.971
20
187.758
30
0
0
VERTEX
8
ENGRAVE
10
133.804
20
188.300
30
0
0
VERTEX
8
ENGRAVE
10
133.804
20
188.925
30
0
0
VERTEX
8
ENGRAVE
10
134.012
20
189.508
30
0
0
VERTEX
8
ENGRAVE
10
134.387
20
189.883
30
0
0
SEQEND
8
ENGRAVE
0
POLYLINE
8
ENGRAVE
66
1
70
1
10
0
20
0
30
0
0
VERTEX
8
ENGRAVE
10
137.262
20
190.008
30
0
0
VERTEX
8
ENGRAVE
10
137.929
20
189.883
30
0
0
VERTEX
8
ENGRAVE
10
138.304
20
189.425
30
0
0
VERTEX
8
ENGRAVE
10
137.971
20
189.300
30
0
0
VERTEX
8
ENGRAVE
10
137.929
20
189.467
30
0
0
VERTEX
8
ENGRAVE
10
137.762
20
189.633
30
0
0
VERTEX
8
ENGRAVE
10
137.221
20
189.717
30
0
0
VERTEX
8
ENGRAVE
10
136.846
20
189.467
30
0
0
VERTEX
8
ENGRAVE
10
136.679
20
189.133
30
0
0
VERTEX
8
ENGRAVE
10
136.637
20
188.550
30
0
0
VERTEX
8
ENGRAVE
10
136.929
20
188.883
30
0
0
VERTEX
8
ENGRAVE
10
137.096
20
188.967
30
0
0
VERTEX
8
ENGRAVE
10
137.637
20
189.008
30
0
0
VERTEX
8
ENGRAVE
10
138.012
20
188.842
30
0
0
VERTEX
8
ENGRAVE
10
138.304
20
188.425
30
0
0
VERTEX
8
ENGRAVE
10
138.346
20
187.967
30
0
0
VERTEX
8
ENGRAVE
10
138.179
20
187.550
30
0
0
VERTEX
8
ENGRAVE
10
137.971
20
187.342
30
0
0
VERTEX
8
ENGRAVE
10
137.596
20
187.175
30
0
0
VERTEX
8
ENGRAVE
10
137.137
20
187.175
30
0
0
VERTEX
8
ENGRAVE
10
136.804
20
187.300
30
0
0
VERTEX
8
ENGRAVE
10
136.512
20
187.592
30
0
0
VERTEX
8
ENGRAVE
10
136.304
20
188.175
30
0
0
VERTEX
8
ENGRAVE
10
136.304
20
188.925
30
0
0
VERTEX
8
ENGRAVE
10
136.512
20
189.508
30
0
0
VERTEX
8
ENGRAVE
10
136.804
20
189.842
30
0
0
SEQEND
8
ENGRAVE
0
POLYLINE
8
ENGRAVE
66
1
70
1
10
0
20
0
30
0
0
VERTEX
8
ENGRAVE
10
137.221
20
188.717
30
0
0
VERTEX
8
ENGRAVE
10
136.971
20
188.633
30
0
0
VERTEX
8
ENGRAVE
10
136.804
20
188.467
30
0
0
VERTEX
8
ENGRAVE
10
136.679
20
188.175
30
0
0
VERTEX
8
ENGRAVE
10
136.721
20
187.842
30
0
0
VERTEX
8
ENGRAVE
10
137.137
20
187.467
30
0
0
VERTEX
8
ENGRAVE
10
137.554
20
187.467
30
0
0
VERTEX
8
ENGRAVE
10
137.887
20
187.675
30
0
0
VERTEX
8
ENGRAVE
10
138.012
20
187.967
30
0
0
VERTEX
8
ENGRAVE
10
138.012
20
188.258
30
0
0
VERTEX
8
ENGRAVE
10
137.762
20
188.633
30
0
0
VERTEX
8
ENGRAVE
10
137.596
20
188.717
30
0
0
SEQEND
8
ENGRAVE
0
POLYLINE
8
ENGRAVE
66
1
70
1
10
0
20
0
30
0
0
VERTEX
8
ENGRAVE
10
62.908
20
37.196
30
0
0
VERTEX
8
ENGRAVE
10
62.908
20
36.904
30
0
0
VERTEX
8
ENGRAVE
10
62.783
20
36.529
30
0
0
VERTEX
8
ENGRAVE
10
62.617
20
36.321
30
0
0
VERTEX
8
ENGRAVE
10
62.158
20
36.071
30
0
0
VERTEX
8
ENGRAVE
10
61.992
20
36.113
30
0
0
VERTEX
8
ENGRAVE
10
61.950
20
36.404
30
0
0
VERTEX
8
ENGRAVE
10
62.200
20
36.446
30
0
0
VERTEX
8
ENGRAVE
10
62.492
20
36.654
30
0
0
VERTEX
8
ENGRAVE
10
62.617
20
36.904
30
0
0
VERTEX
8
ENGRAVE
10
62.617
20
37.238
30
0
0
VERTEX
8
ENGRAVE
10
62.492
20
37.488
30
0
0
VERTEX
8
ENGRAVE
10
62.117
20
37.738
30
0
0
VERTEX
8
ENGRAVE
10
61.242
20
37.821
30
0
0
VERTEX
8
ENGRAVE
10
60.783
20
37.696
30
0
0
VERTEX
8
ENGRAVE
10
60.492
20
37.488
30
0
0
VERTEX
8
ENGRAVE
10
60.367
20
37.238
30
0
0
VERTEX
8
ENGRAVE
10
60.408
20
36.779
30
0
0
VERTEX
8
ENGRAVE
10
60.617
20
36.529
30
0
0
VERTEX
8
ENGRAVE
10
61.033
20
36.404
30
0
0
VERTEX
8
ENGRAVE
10
60.992
20
36.071
30
0
0
VERTEX
8
ENGRAVE
10
60.742
20
36.113
30
0
0
VERTEX
8
ENGRAVE
10
60.367
20
36.321
30
0
0
VERTEX
8
ENGRAVE
10
60.075
20
36.863
30
0
0
VERTEX
8
ENGRAVE
10
60.075
20
37.279
30
0
0
VERTEX
8
ENGRAVE
10
60.242
20
37.696
30
0
0
VERTEX
8
ENGRAVE
10
60.658
20
38.029
30
0
0
VERTEX
8
ENGRAVE
10
61.200
20
38.196
30
0
0
VERTEX
8
ENGRAVE
10
61.825
20
38.196
30
0
0
VERTEX
8
ENGRAVE
10
62.408
20
37.988
30
0
0
VERTEX
8
ENGRAVE
10
62.783
20
37.613
30
0
0
SEQEND
8
ENGRAVE
0
POLYLINE
8
ENGRAVE
66
1
70
1
10
0
20
0
30
0
0
VERTEX
8
ENGRAVE
10
62.908
20
34.738
30
0
0
VERTEX
8
ENGRAVE
10
62.783
20
34.071
30
0
0
VERTEX
8
ENGRAVE
10
62.325
20
33.696
30
0
0
VERTEX
8
ENGRAVE
10
62.200
20
34.029
30
0
0
VERTEX
8
ENGRAVE
10
62.367
20
34.071
30
0
0
VERTEX
8
ENGRAVE
10
62.533
20
34.238
30
0
0
VERTEX
8
ENGRAVE
10
62.617
20
34.779
30
0
0
VERTEX
8
ENGRAVE
10
62.367
20
35.154
30
0
0
VERTEX
8
ENGRAVE
10
62.033
20
35.321
30
0
0
VERTEX
8
ENGRAVE
10
61.450
20
35.363
30
0
0
VERTEX
8
ENGRAVE
10
61.783
20
35.071
30
0
0
VERTEX
8
ENGRAVE
10
61.867
20
34.904
30
0
0
VERTEX
8
ENGRAVE
10
61.908
20
34.363
30
0
0
VERTEX
8
ENGRAVE
10
61.742
20
33.988
30
0
0
VERTEX
8
ENGRAVE
10
61.325
20
33.696
30
0
0
VERTEX
8
ENGRAVE
10
60.867
20
33.654
30
0
0
VERTEX
8
ENGRAVE
10
60.450
20
33.821
30
0
0
VERTEX
8
ENGRAVE
10
60.242
20
34.029
30
0
0
VERTEX
8
ENGRAVE
10
60.075
20
34.404
30
0
0
VERTEX
8
ENGRAVE
10
60.075
20
34.863
30
0
0
VERTEX
8
ENGRAVE
10
60.200
20
35.196
30
0
0
VERTEX
8
ENGRAVE
10
60.492
20
35.488
30
0
0
VERTEX
8
ENGRAVE
10
61.075
20
35.696
30
0
0
VERTEX
8
ENGRAVE
10
61.825
20
35.696
30
0
0
VERTEX
8
ENGRAVE
10
62.408
20
35.488
30
0
0
VERTEX
8
ENGRAVE
10
62.742
20
35.196
30
0
0
SEQEND
8
ENGRAVE
0
POLYLINE
8
ENGRAVE
66
1
70
1
10
0
20
0
30
0
0
VERTEX
8
ENGRAVE
10
61.617
20
34.779
30
0
0
VERTEX
8
ENGRAVE
10
61.533
20
35.029
30
0
0
VERTEX
8
ENGRAVE
10
61.367
20
35.196
30
0
0
VERTEX
8
ENGRAVE
10
61.075
20
35.321
30
0
0
VERTEX
8
ENGRAVE
10
60.742
20
35.279
30
0
0
VERTEX
8
ENGRAVE
10
60.367
20
34.863
30
0
0
VERTEX
8
ENGRAVE
10
60.367
20
34.446
30
0
0
VERTEX
8
ENGRAVE
10
60.575
20
34.113
30
0
0
VERTEX
8
ENGRAVE
10
60.867
20
33.988
30
0
0
VERTEX
8
ENGRAVE
10
61.158
20
33.988
30
0
0
VERTEX
8
ENGRAVE
10
61.533
20
34.238
30
0
0
VERTEX
8
ENGRAVE
10
61.617
20
34.404
30
0
0
SEQEND
8
ENGRAVE
0
POLYLINE
8
ENGRAVE
66
1
70
1
10
0
20
0
30
0
0
VERTEX
8
ENGRAVE
10
422.725
20
29.315
30
0
0
VERTEX
8
ENGRAVE
10
423.016
20
29.315
30
0
0
VERTEX
8
ENGRAVE
10
423.391
20
29.190
30
0
0
VERTEX
8
ENGRAVE
10
423.683
20
28.898
30
0
0
VERTEX
8
ENGRAVE
10
423.933
20
28.190
30
0
0
VERTEX
8
ENGRAVE
10
423.933
20
27.565
30
0
0
VERTEX
8
ENGRAVE
10
423.683
20
26.898
30
0
0
VERTEX
8
ENGRAVE
10
423.391
20
26.607
30
0
0
VERTEX
8
ENGRAVE
10
423.058
20
26.482
30
0
0
VERTEX
8
ENGRAVE
10
422.725
20
26.482
30
0
0
VERTEX
8
ENGRAVE
10
422.391
20
26.607
30
0
0
VERTEX
8
ENGRAVE
10
422.100
20
26.898
30
0
0
VERTEX
8
ENGRAVE
10
421.850
20
27.607
30
0
0
VERTEX
8
ENGRAVE
10
421.850
20
28.190
30
0
0
VERTEX
8
ENGRAVE
10
421.975
20
28.690
30
0
0
VERTEX
8
ENGRAVE
10
422.266
20
29.107
30
0
0
SEQEND
8
ENGRAVE
0
POLYLINE
8
ENGRAVE
66
1
70
1
10
0
20
0
30
0
0
VERTEX
8
ENGRAVE
10
416.975
20
29.273
30
0
0
VERTEX
8
ENGRAVE
10
417.308
20
29.273
30
0
0
VERTEX
8
ENGRAVE
10
417.308
20
28.148
30
0
0
VERTEX
8
ENGRAVE
10
418.600
20
28.148
30
0
0
VERTEX
8
ENGRAVE
10
418.600
20
29.273
30
0
0
VERTEX
8
ENGRAVE
10
418.933
20
29.273
30
0
0
VERTEX
8
ENGRAVE
10
418.933
20
26.523
30
0
0
VERTEX
8
ENGRAVE
10
418.600
20
26.523
30
0
0
VERTEX
8
ENGRAVE
10
418.600
20
27.815
30
0
0
VERTEX
8
ENGRAVE
10
417.308
20
27.815
30
0
0
VERTEX
8
ENGRAVE
10
417.308
20
26.523
30
0
0
VERTEX
8
ENGRAVE
10
416.975
20
26.523
30
0
0
SEQEND
8
ENGRAVE
0
POLYLINE
8
ENGRAVE
66
1
70
1
10
0
20
0
30
0
0
VERTEX
8
ENGRAVE
10
420.475
20
29.273
30
0
0
VERTEX
8
ENGRAVE
10
420.766
20
29.232
30
0
0
VERTEX
8
ENGRAVE
10
420.766
20
26.773
30
0
0
VERTEX
8
ENGRAVE
10
421.516
20
26.773
30
0
0
VERTEX
8
ENGRAVE
10
421.516
20
26.523
30
0
0
VERTEX
8
ENGRAVE
10
419.600
20
26.523
30
0
0
VERTEX
8
ENGRAVE
10
419.600
20
26.773
30
0
0
VERTEX
8
ENGRAVE
10
420.391
20
26.773
30
0
0
VERTEX
8
ENGRAVE
10
420.391
20
28.815
30
0
0
VERTEX
8
ENGRAVE
10
419.725
20
28.273
30
0
0
VERTEX
8
ENGRAVE
10
419.641
20
28.273
30
0
0
VERTEX
8
ENGRAVE
10
419.641
20
28.607
30
0
0
VERTEX
8
ENGRAVE
10
420.100
20
28.857
30
0
0
SEQEND
8
ENGRAVE
0
POLYLINE
8
ENGRAVE
66
1
70
1
10
0
20
0
30
0
0
VERTEX
8
ENGRAVE
10
422.683
20
29.023
30
0
0
VERTEX
8
ENGRAVE
10
422.391
20
28.815
30
0
0
VERTEX
8
ENGRAVE
10
422.266
20
28.523
30
0
0
VERTEX
8
ENGRAVE
10
422.225
20
27.482
30
0
0
VERTEX
8
ENGRAVE
10
422.475
20
26.898
30
0
0
VERTEX
8
ENGRAVE
10
422.641
20
26.773
30
0
0
VERTEX
8
ENGRAVE
10
422.933
20
26.732
30
0
0
VERTEX
8
ENGRAVE
10
423.266
20
26.857
30
0
0
VERTEX
8
ENGRAVE
10
423.475
20
27.148
30
0
0
VERTEX
8
ENGRAVE
10
423.558
20
27.440
30
0
0
VERTEX
8
ENGRAVE
10
423.558
20
28.315
30
0
0
VERTEX
8
ENGRAVE
10
423.391
20
28.773
30
0
0
VERTEX
8
ENGRAVE
10
423.183
20
28.982
30
0
0
SEQEND
8
ENGRAVE
0
POLYLINE
8
ENGRAVE
66
1
70
1
10
0
20
0
30
0
0
VERTEX
8
ENGRAVE
10
132.465
20
34.067
30
0
0
VERTEX
8
ENGRAVE
10
132.465
20
33.692
30
0
0
VERTEX
8
ENGRAVE
10
132.298
20
33.234
30
0
0
VERTEX
8
ENGRAVE
10
132.007
20
32.984
30
0
0
VERTEX
8
ENGRAVE
10
131.507
20
32.817
30
0
0
VERTEX
8
ENGRAVE
10
130.673
20
32.817
30
0
0
VERTEX
8
ENGRAVE
10
130.257
20
32.942
30
0
0
VERTEX
8
ENGRAVE
10
129.798
20
33.317
30
0
0
VERTEX
8
ENGRAVE
10
129.632
20
33.734
30
0
0
VERTEX
8
ENGRAVE
10
129.632
20
34.150
30
0
0
VERTEX
8
ENGRAVE
10
129.715
20
34.400
30
0
0
VERTEX
8
ENGRAVE
10
130.132
20
34.775
30
0
0
VERTEX
8
ENGRAVE
10
130.215
20
34.734
30
0
0
VERTEX
8
ENGRAVE
10
130.257
20
34.484
30
0
0
VERTEX
8
ENGRAVE
10
130.132
20
34.442
30
0
0
VERTEX
8
ENGRAVE
10
129.923
20
34.150
30
0
0
VERTEX
8
ENGRAVE
10
129.923
20
33.650
30
0
0
VERTEX
8
ENGRAVE
10
130.132
20
33.359
30
0
0
VERTEX
8
ENGRAVE
10
130.465
20
33.192
30
0
0
VERTEX
8
ENGRAVE
10
131.090
20
33.109
30
0
0
VERTEX
8
ENGRAVE
10
130.673
20
33.567
30
0
0
VERTEX
8
ENGRAVE
10
130.632
20
34.150
30
0
0
VERTEX
8
ENGRAVE
10
130.757
20
34.442
30
0
0
VERTEX
8
ENGRAVE
10
131.257
20
34.817
30
0
0
VERTEX
8
ENGRAVE
10
131.798
20
34.817
30
0
0
VERTEX
8
ENGRAVE
10
132.007
20
34.734
30
0
0
VERTEX
8
ENGRAVE
10
132.257
20
34.525
30
0
0
SEQEND
8
ENGRAVE
0
POLYLINE
8
ENGRAVE
66
1
70
1
10
0
20
0
30
0
0
VERTEX
8
ENGRAVE
10
132.423
20
37.317
30
0
0
VERTEX
8
ENGRAVE
10
132.423
20
36.984
30
0
0
VERTEX
8
ENGRAVE
10
131.298
20
36.984
30
0
0
VERTEX
8
ENGRAVE
10
131.298
20
35.692
30
0
0
VERTEX
8
ENGRAVE
10
132.423
20
35.692
30
0
0
VERTEX
8
ENGRAVE
10
132.423
20
35.359
30
0
0
VERTEX
8
ENGRAVE
10
129.673
20
35.359
30
0
0
VERTEX
8
ENGRAVE
10
129.673
20
35.692
30
0
0
VERTEX
8
ENGRAVE
10
130.965
20
35.692
30
0
0
VERTEX
8
ENGRAVE
10
130.965
20
36.984
30
0
0
VERTEX
8
ENGRAVE
10
129.673
20
36.984
30
0
0
VERTEX
8
ENGRAVE
10
129.673
20
37.317
30
0
0
SEQEND
8
ENGRAVE
0
POLYLINE
8
ENGRAVE
66
1
70
1
10
0
20
0
30
0
0
VERTEX
8
ENGRAVE
10
132.173
20
33.942
30
0
0
VERTEX
8
ENGRAVE
10
132.090
20
34.234
30
0
0
VERTEX
8
ENGRAVE
10
131.923
20
34.400
30
0
0
VERTEX
8
ENGRAVE
10
131.757
20
34.484
30
0
0
VERTEX
8
ENGRAVE
10
131.298
20
34.484
30
0
0
VERTEX
8
ENGRAVE
10
130.965
20
34.192
30
0
0
VERTEX
8
ENGRAVE
10
130.923
20
33.609
30
0
0
VERTEX
8
ENGRAVE
10
131.132
20
33.317
30
0
0
VERTEX
8
ENGRAVE
10
131.382
20
33.192
30
0
0
VERTEX
8
ENGRAVE
10
131.715
20
33.192
30
0
0
VERTEX
8
ENGRAVE
10
132.090
20
33.442
30
0
0
SEQEND
8
ENGRAVE
0
POLYLINE
8
ENGRAVE
66
1
70
1
10
0
20
0
30
0
0
VERTEX
8
ENGRAVE
10
175.965
20
29.775
30
0
0
VERTEX
8
ENGRAVE
10
175.965
20
29.484
30
0
0
VERTEX
8
ENGRAVE
10
175.840
20
29.109
30
0
0
VERTEX
8
ENGRAVE
10
175.548
20
28.817
30
0
0
VERTEX
8
ENGRAVE
10
174.840
20
28.567
30
0
0
VERTEX
8
ENGRAVE
10
174.215
20
28.567
30
0
0
VERTEX
8
ENGRAVE
10
173.548
20
28.817
30
0
0
VERTEX
8
ENGRAVE
10
173.257
20
29.109
30
0
0
VERTEX
8
ENGRAVE
10
173.132
20
29.442
30
0
0
VERTEX
8
ENGRAVE
10
173.132
20
29.775
30
0
0
VERTEX
8
ENGRAVE
10
173.257
20
30.109
30
0
0
VERTEX
8
ENGRAVE
10
173.548
20
30.400
30
0
0
VERTEX
8
ENGRAVE
10
174.257
20
30.650
30
0
0
VERTEX
8
ENGRAVE
10
174.840
20
30.650
30
0
0
VERTEX
8
ENGRAVE
10
175.340
20
30.525
30
0
0
VERTEX
8
ENGRAVE
10
175.757
20
30.234
30
0
0
SEQEND
8
ENGRAVE
0
POLYLINE
8
ENGRAVE
66
1
70
1
10
0
20
0
30
0
0
VERTEX
8
ENGRAVE
10
175.923
20
35.525
30
0
0
VERTEX
8
ENGRAVE
10
175.923
20
35.192
30
0
0
VERTEX
8
ENGRAVE
10
174.798
20
35.192
30
0
0
VERTEX
8
ENGRAVE
10
174.798
20
33.900
30
0
0
VERTEX
8
ENGRAVE
10
175.923
20
33.900
30
0
0
VERTEX
8
ENGRAVE
10
175.923
20
33.567
30
0
0
VERTEX
8
ENGRAVE
10
173.173
20
33.567
30
0
0
VERTEX
8
ENGRAVE
10
173.173
20
33.900
30
0
0
VERTEX
8
ENGRAVE
10
174.465
20
33.900
30
0
0
VERTEX
8
ENGRAVE
10
174.465
20
35.192
30
0
0
VERTEX
8
ENGRAVE
10
173.173
20
35.192
30
0
0
VERTEX
8
ENGRAVE
10
173.173
20
35.525
30
0
0
SEQEND
8
ENGRAVE
0
POLYLINE
8
ENGRAVE
66
1
70
1
10
0
20
0
30
0
0
VERTEX
8
ENGRAVE
10
175.923
20
32.025
30
0
0
VERTEX
8
ENGRAVE
10
175.882
20
31.734
30
0
0
VERTEX
8
ENGRAVE
10
173.423
20
31.734
30
0
0
VERTEX
8
ENGRAVE
10
173.423
20
30.984
30
0
0
VERTEX
8
ENGRAVE
10
173.173
20
30.984
30
0
0
VERTEX
8
ENGRAVE
10
173.173
20
32.900
30
0
0
VERTEX
8
ENGRAVE
10
173.423
20
32.900
30
0
0
VERTEX
8
ENGRAVE
10
173.423
20
32.109
30
0
0
VERTEX
8
ENGRAVE
10
175.465
20
32.109
30
0
0
VERTEX
8
ENGRAVE
10
174.923
20
32.775
30
0
0
VERTEX
8
ENGRAVE
10
174.923
20
32.859
30
0
0
VERTEX
8
ENGRAVE
10
175.257
20
32.859
30
0
0
VERTEX
8
ENGRAVE
10
175.507
20
32.400
30
0
0
SEQEND
8
ENGRAVE
0
POLYLINE
8
ENGRAVE
66
1
70
1
10
0
20
0
30
0
0
VERTEX
8
ENGRAVE
10
175.673
20
29.817
30
0
0
VERTEX
8
ENGRAVE
10
175.465
20
30.109
30
0
0
VERTEX
8
ENGRAVE
10
175.173
20
30.234
30
0
0
VERTEX
8
ENGRAVE
10
174.132
20
30.275
30
0
0
VERTEX
8
ENGRAVE
10
173.548
20
30.025
30
0
0
VERTEX
8
ENGRAVE
10
173.423
20
29.859
30
0
0
VERTEX
8
ENGRAVE
10
173.382
20
29.567
30
0
0
VERTEX
8
ENGRAVE
10
173.507
20
29.234
30
0
0
VERTEX
8
ENGRAVE
10
173.798
20
29.025
30
0
0
VERTEX
8
ENGRAVE
10
174.090
20
28.942
30
0
0
VERTEX
8
ENGRAVE
10
174.965
20
28.942
30
0
0
VERTEX
8
ENGRAVE
10
175.423
20
29.109
30
0
0
VERTEX
8
ENGRAVE
10
175.632
20
29.317
30
0
0
SEQEND
8
ENGRAVE
0
POLYLINE
8
ENGRAVE
66
1
70
1
10
0
20
0
30
0
0
VERTEX
8
ENGRAVE
10
219.465
20
31.067
30
0
0
VERTEX
8
ENGRAVE
10
219.465
20
30.692
30
0
0
VERTEX
8
ENGRAVE
10
219.298
20
30.234
30
0
0
VERTEX
8
ENGRAVE
10
219.007
20
29.984
30
0
0
VERTEX
8
ENGRAVE
10
218.507
20
29.817
30
0
0
VERTEX
8
ENGRAVE
10
217.673
20
29.817
30
0
0
VERTEX
8
ENGRAVE
10
217.257
20
29.942
30
0
0
VERTEX
8
ENGRAVE
10
216.798
20
30.317
30
0
0
VERTEX
8
ENGRAVE
10
216.632
20
30.734
30
0
0
VERTEX
8
ENGRAVE
10
216.632
20
31.150
30
0
0
VERTEX
8
ENGRAVE
10
216.715
20
31.400
30
0
0
VERTEX
8
ENGRAVE
10
217.132
20
31.775
30
0
0
VERTEX
8
ENGRAVE
10
217.215
20
31.734
30
0
0
VERTEX
8
ENGRAVE
10
217.257
20
31.484
30
0
0
VERTEX
8
ENGRAVE
10
217.132
20
31.442
30
0
0
VERTEX
8
ENGRAVE
10
216.923
20
31.150
30
0
0
VERTEX
8
ENGRAVE
10
216.923
20
30.650
30
0
0
VERTEX
8
ENGRAVE
10
217.132
20
30.359
30
0
0
VERTEX
8
ENGRAVE
10
217.465
20
30.192
30
0
0
VERTEX
8
ENGRAVE
10
218.090
20
30.109
30
0
0
VERTEX
8
ENGRAVE
10
217.673
20
30.567
30
0
0
VERTEX
8
ENGRAVE
10
217.632
20
31.150
30
0
0
VERTEX
8
ENGRAVE
10
217.757
20
31.442
30
0
0
VERTEX
8
ENGRAVE
10
218.257
20
31.817
30
0
0
VERTEX
8
ENGRAVE
10
218.798
20
31.817
30
0
0
VERTEX
8
ENGRAVE
10
219.007
20
31.734
30
0
0
VERTEX
8
ENGRAVE
10
219.257
20
31.525
30
0
0
SEQEND
8
ENGRAVE
0
POLYLINE
8
ENGRAVE
66
1
70
1
10
0
20
0
30
0
0
VERTEX
8
ENGRAVE
10
219.423
20
34.317
30
0
0
VERTEX
8
ENGRAVE
10
219.423
20
33.984
30
0
0
VERTEX
8
ENGRAVE
10
218.298
20
33.984
30
0
0
VERTEX
8
ENGRAVE
10
218.298
20
32.692
30
0
0
VERTEX
8
ENGRAVE
10
219.423
20
32.692
30
0
0
VERTEX
8
ENGRAVE
10
219.423
20
32.359
30
0
0
VERTEX
8
ENGRAVE
10
216.673
20
32.359
30
0
0
VERTEX
8
ENGRAVE
10
216.673
20
32.692
30
0
0
VERTEX
8
ENGRAVE
10
217.965
20
32.692
30
0
0
VERTEX
8
ENGRAVE
10
217.965
20
33.984
30
0
0
VERTEX
8
ENGRAVE
10
216.673
20
33.984
30
0
0
VERTEX
8
ENGRAVE
10
216.673
20
34.317
30
0
0
SEQEND
8
ENGRAVE
0
POLYLINE
8
ENGRAVE
66
1
70
1
10
0
20
0
30
0
0
VERTEX
8
ENGRAVE
10
219.173
20
30.942
30
0
0
VERTEX
8
ENGRAVE
10
219.090
20
31.234
30
0
0
VERTEX
8
ENGRAVE
10
218.923
20
31.400
30
0
0
VERTEX
8
ENGRAVE
10
218.757
20
31.484
30
0
0
VERTEX
8
ENGRAVE
10
218.298
20
31.484
30
0
0
VERTEX
8
ENGRAVE
10
217.965
20
31.192
30
0
0
VERTEX
8
ENGRAVE
10
217.923
20
30.609
30
0
0
VERTEX
8
ENGRAVE
10
218.132
20
30.317
30
0
0
VERTEX
8
ENGRAVE
10
218.382
20
30.192
30
0
0
VERTEX
8
ENGRAVE
10
218.715
20
30.192
30
0
0
VERTEX
8
ENGRAVE
10
219.090
20
30.442
30
0
0
SEQEND
8
ENGRAVE
0
POLYLINE
8
ENGRAVE
66
1
70
1
10
0
20
0
30
0
0
VERTEX
8
ENGRAVE
10
262.965
20
29.775
30
0
0
VERTEX
8
ENGRAVE
10
262.965
20
29.484
30
0
0
VERTEX
8
ENGRAVE
10
262.840
20
29.109
30
0
0
VERTEX
8
ENGRAVE
10
262.548
20
28.817
30
0
0
VERTEX
8
ENGRAVE
10
261.840
20
28.567
30
0
0
VERTEX
8
ENGRAVE
10
261.215
20
28.567
30
0
0
VERTEX
8
ENGRAVE
10
260.548
20
28.817
30
0
0
VERTEX
8
ENGRAVE
10
260.257
20
29.109
30
0
0
VERTEX
8
ENGRAVE
10
260.132
20
29.442
30
0
0
VERTEX
8
ENGRAVE
10
260.132
20
29.775
30
0
0
VERTEX
8
ENGRAVE
10
260.257
20
30.109
30
0
0
VERTEX
8
ENGRAVE
10
260.548
20
30.400
30
0
0
VERTEX
8
ENGRAVE
10
261.257
20
30.650
30
0
0
VERTEX
8
ENGRAVE
10
261.840
20
30.650
30
0
0
VERTEX
8
ENGRAVE
10
262.340
20
30.525
30
0
0
VERTEX
8
ENGRAVE
10
262.757
20
30.234
30
0
0
SEQEND
8
ENGRAVE
0
POLYLINE
8
ENGRAVE
66
1
70
1
10
0
20
0
30
0
0
VERTEX
8
ENGRAVE
10
262.923
20
35.525
30
0
0
VERTEX
8
ENGRAVE
10
262.923
20
35.192
30
0
0
VERTEX
8
ENGRAVE
10
261.798
20
35.192
30
0
0
VERTEX
8
ENGRAVE
10
261.798
20
33.900
30
0
0
VERTEX
8
ENGRAVE
10
262.923
20
33.900
30
0
0
VERTEX
8
ENGRAVE
10
262.923
20
33.567
30
0
0
VERTEX
8
ENGRAVE
10
260.173
20
33.567
30
0
0
VERTEX
8
ENGRAVE
10
260.173
20
33.900
30
0
0
VERTEX
8
ENGRAVE
10
261.465
20
33.900
30
0
0
VERTEX
8
ENGRAVE
10
261.465
20
35.192
30
0
0
VERTEX
8
ENGRAVE
10
260.173
20
35.192
30
0
0
VERTEX
8
ENGRAVE
10
260.173
20
35.525
30
0
0
SEQEND
8
ENGRAVE
0
POLYLINE
8
ENGRAVE
66
1
70
1
10
0
20
0
30
0
0
VERTEX
8
ENGRAVE
10
262.923
20
32.025
30
0
0
VERTEX
8
ENGRAVE
10
262.882
20
31.734
30
0
0
VERTEX
8
ENGRAVE
10
260.423
20
31.734
30
0
0
VERTEX
8
ENGRAVE
10
260.423
20
30.984
30
0
0
VERTEX
8
ENGRAVE
10
260.173
20
30.984
30
0
0
VERTEX
8
ENGRAVE
10
260.173
20
32.900
30
0
0
VERTEX
8
ENGRAVE
10
260.423
20
32.900
30
0
0
VERTEX
8
ENGRAVE
10
260.423
20
32.109
30
0
0
VERTEX
8
ENGRAVE
10
262.465
20
32.109
30
0
0
VERTEX
8
ENGRAVE
10
261.923
20
32.775
30
0
0
VERTEX
8
ENGRAVE
10
261.923
20
32.859
30
0
0
VERTEX
8
ENGRAVE
10
262.257
20
32.859
30
0
0
VERTEX
8
ENGRAVE
10
262.507
20
32.400
30
0
0
SEQEND
8
ENGRAVE
0
POLYLINE
8
ENGRAVE
66
1
70
1
10
0
20
0
30
0
0
VERTEX
8
ENGRAVE
10
262.673
20
29.817
30
0
0
VERTEX
8
ENGRAVE
10
262.465
20
30.109
30
0
0
VERTEX
8
ENGRAVE
10
262.173
20
30.234
30
0
0
VERTEX
8
ENGRAVE
10
261.132
20
30.275
30
0
0
VERTEX
8
ENGRAVE
10
260.548
20
30.025
30
0
0
VERTEX
8
ENGRAVE
10
260.423
20
29.859
30
0
0
VERTEX
8
ENGRAVE
10
260.382
20
29.567
30
0
0
VERTEX
8
ENGRAVE
10
260.507
20
29.234
30
0
0
VERTEX
8
ENGRAVE
10
260.798
20
29.025
30
0
0
VERTEX
8
ENGRAVE
10
261.090
20
28.942
30
0
0
VERTEX
8
ENGRAVE
10
261.965
20
28.942
30
0
0
VERTEX
8
ENGRAVE
10
262.423
20
29.109
30
0
0
VERTEX
8
ENGRAVE
10
262.632
20
29.317
30
0
0
SEQEND
8
ENGRAVE
0
POLYLINE
8
ENGRAVE
66
1
70
1
10
0
20
0
30
0
0
VERTEX
8
ENGRAVE
10
306.033
20
31.404
30
0
0
VERTEX
8
ENGRAVE
10
306.033
20
31.071
30
0
0
VERTEX
8
ENGRAVE
10
305.867
20
30.654
30
0
0
VERTEX
8
ENGRAVE
10
305.575
20
30.404
30
0
0
VERTEX
8
ENGRAVE
10
305.283
20
30.279
30
0
0
VERTEX
8
ENGRAVE
10
305.117
20
30.279
30
0
0
VERTEX
8
ENGRAVE
10
305.075
20
30.571
30
0
0
VERTEX
8
ENGRAVE
10
305.492
20
30.738
30
0
0
VERTEX
8
ENGRAVE
10
305.742
20
31.113
30
0
0
VERTEX
8
ENGRAVE
10
305.658
20
31.613
30
0
0
VERTEX
8
ENGRAVE
10
305.325
20
31.904
30
0
0
VERTEX
8
ENGRAVE
10
304.700
20
32.029
30
0
0
VERTEX
8
ENGRAVE
10
304.200
20
31.988
30
0
0
VERTEX
8
ENGRAVE
10
303.783
20
31.821
30
0
0
VERTEX
8
ENGRAVE
10
303.575
20
31.613
30
0
0
VERTEX
8
ENGRAVE
10
303.492
20
31.446
30
0
0
VERTEX
8
ENGRAVE
10
303.492
20
31.071
30
0
0
VERTEX
8
ENGRAVE
10
303.783
20
30.696
30
0
0
VERTEX
8
ENGRAVE
10
304.158
20
30.571
30
0
0
VERTEX
8
ENGRAVE
10
304.117
20
30.279
30
0
0
VERTEX
8
ENGRAVE
10
303.825
20
30.321
30
0
0
VERTEX
8
ENGRAVE
10
303.533
20
30.488
30
0
0
VERTEX
8
ENGRAVE
10
303.200
20
31.029
30
0
0
VERTEX
8
ENGRAVE
10
303.242
20
31.654
30
0
0
VERTEX
8
ENGRAVE
10
303.492
20
32.029
30
0
0
VERTEX
8
ENGRAVE
10
303.908
20
32.279
30
0
0
VERTEX
8
ENGRAVE
10
304.408
20
32.404
30
0
0
VERTEX
8
ENGRAVE
10
305.075
20
32.363
30
0
0
VERTEX
8
ENGRAVE
10
305.533
20
32.196
30
0
0
VERTEX
8
ENGRAVE
10
305.950
20
31.738
30
0
0
SEQEND
8
ENGRAVE
0
POLYLINE
8
ENGRAVE
66
1
70
1
10
0
20
0
30
0
0
VERTEX
8
ENGRAVE
10
306.033
20
26.654
30
0
0
VERTEX
8
ENGRAVE
10
305.992
20
26.071
30
0
0
VERTEX
8
ENGRAVE
10
305.867
20
25.821
30
0
0
VERTEX
8
ENGRAVE
10
305.700
20
25.654
30
0
0
VERTEX
8
ENGRAVE
10
305.367
20
25.529
30
0
0
VERTEX
8
ENGRAVE
10
304.908
20
25.654
30
0
0
VERTEX
8
ENGRAVE
10
304.658
20
26.071
30
0
0
VERTEX
8
ENGRAVE
10
304.658
20
25.904
30
0
0
VERTEX
8
ENGRAVE
10
304.450
20
25.571
30
0
0
VERTEX
8
ENGRAVE
10
304.200
20
25.446
30
0
0
VERTEX
8
ENGRAVE
10
303.700
20
25.488
30
0
0
VERTEX
8
ENGRAVE
10
303.367
20
25.779
30
0
0
VERTEX
8
ENGRAVE
10
303.200
20
26.279
30
0
0
VERTEX
8
ENGRAVE
10
303.242
20
26.904
30
0
0
VERTEX
8
ENGRAVE
10
303.450
20
27.279
30
0
0
VERTEX
8
ENGRAVE
10
303.825
20
27.529
30
0
0
VERTEX
8
ENGRAVE
10
303.908
20
27.488
30
0
0
VERTEX
8
ENGRAVE
10
303.950
20
27.196
30
0
0
VERTEX
8
ENGRAVE
10
303.742
20
27.113
30
0
0
VERTEX
8
ENGRAVE
10
303.492
20
26.779
30
0
0
VERTEX
8
ENGRAVE
10
303.533
20
26.071
30
0
0
VERTEX
8
ENGRAVE
10
303.825
20
25.821
30
0
0
VERTEX
8
ENGRAVE
10
304.200
20
25.821
30
0
0
VERTEX
8
ENGRAVE
10
304.408
20
25.988
30
0
0
VERTEX
8
ENGRAVE
10
304.533
20
26.363
30
0
0
VERTEX
8
ENGRAVE
10
304.533
20
26.863
30
0
0
VERTEX
8
ENGRAVE
10
304.825
20
26.821
30
0
0
VERTEX
8
ENGRAVE
10
304.825
20
26.238
30
0
0
VERTEX
8
ENGRAVE
10
305.033
20
25.946
30
0
0
VERTEX
8
ENGRAVE
10
305.450
20
25.904
30
0
0
VERTEX
8
ENGRAVE
10
305.658
20
26.071
30
0
0
VERTEX
8
ENGRAVE
10
305.742
20
26.238
30
0
0
VERTEX
8
ENGRAVE
10
305.742
20
26.696
30
0
0
VERTEX
8
ENGRAVE
10
305.617
20
26.946
30
0
0
VERTEX
8
ENGRAVE
10
305.325
20
27.113
30
0
0
VERTEX
8
ENGRAVE
10
305.367
20
27.404
30
0
0
VERTEX
8
ENGRAVE
10
305.575
20
27.363
30
0
0
VERTEX
8
ENGRAVE
10
305.825
20
27.154
30
0
0
SEQEND
8
ENGRAVE
0
POLYLINE
8
ENGRAVE
66
1
70
1
10
0
20
0
30
0
0
VERTEX
8
ENGRAVE
10
305.992
20
28.904
30
0
0
VERTEX
8
ENGRAVE
10
305.992
20
28.613
30
0
0
VERTEX
8
ENGRAVE
10
303.492
20
28.613
30
0
0
VERTEX
8
ENGRAVE
10
303.492
20
27.863
30
0
0
VERTEX
8
ENGRAVE
10
303.242
20
27.863
30
0
0
VERTEX
8
ENGRAVE
10
303.242
20
29.779
30
0
0
VERTEX
8
ENGRAVE
10
303.492
20
29.779
30
0
0
VERTEX
8
ENGRAVE
10
303.492
20
28.946
30
0
0
VERTEX
8
ENGRAVE
10
305.533
20
28.946
30
0
0
VERTEX
8
ENGRAVE
10
304.992
20
29.654
30
0
0
VERTEX
8
ENGRAVE
10
305.367
20
29.696
30
0
0
VERTEX
8
ENGRAVE
10
305.533
20
29.321
30
0
0
VERTEX
8
ENGRAVE
10
305.908
20
28.904
30
0
0
SEQEND
8
ENGRAVE
0
POLYLINE
8
ENGRAVE
66
1
70
1
10
0
20
0
30
0
0
VERTEX
8
ENGRAVE
10
13.533
20
23.404
30
0
0
VERTEX
8
ENGRAVE
10
13.533
20
23.071
30
0
0
VERTEX
8
ENGRAVE
10
13.367
20
22.654
30
0
0
VERTEX
8
ENGRAVE
10
13.075
20
22.404
30
0
0
VERTEX
8
ENGRAVE
10
12.783
20
22.279
30
0
0
VERTEX
8
ENGRAVE
10
12.617
20
22.279
30
0
0
VERTEX
8
ENGRAVE
10
12.575
20
22.571
30
0
0
VERTEX
8
ENGRAVE
10
12.992
20
22.738
30
0
0
VERTEX
8
ENGRAVE
10
13.242
20
23.113
30
0
0
VERTEX
8
ENGRAVE
10
13.158
20
23.613
30
0
0
VERTEX
8
ENGRAVE
10
12.825
20
23.904
30
0
0
VERTEX
8
ENGRAVE
10
12.200
20
24.029
30
0
0
VERTEX
8
ENGRAVE
10
11.700
20
23.988
30
0
0
VERTEX
8
ENGRAVE
10
11.283
20
23.821
30
0
0
VERTEX
8
ENGRAVE
10
11.075
20
23.613
30
0
0
VERTEX
8
ENGRAVE
10
10.992
20
23.446
30
0
0
VERTEX
8
ENGRAVE
10
10.992
20
23.071
30
0
0
VERTEX
8
ENGRAVE
10
11.283
20
22.696
30
0
0
VERTEX
8
ENGRAVE
10
11.658
20
22.571
30
0
0
VERTEX
8
ENGRAVE
10
11.617
20
22.279
30
0
0
VERTEX
8
ENGRAVE
10
11.325
20
22.321
30
0
0
VERTEX
8
ENGRAVE
10
11.033
20
22.488
30
0
0
VERTEX
8
ENGRAVE
10
10.700
20
23.029
30
0
0
VERTEX
8
ENGRAVE
10
10.742
20
23.654
30
0
0
VERTEX
8
ENGRAVE
10
10.992
20
24.029
30
0
0
VERTEX
8
ENGRAVE
10
11.408
20
24.279
30
0
0
VERTEX
8
ENGRAVE
10
11.908
20
24.404
30
0
0
VERTEX
8
ENGRAVE
10
12.575
20
24.363
30
0
0
VERTEX
8
ENGRAVE
10
13.033
20
24.196
30
0
0
VERTEX
8
ENGRAVE
10
13.450
20
23.738
30
0
0
SEQEND
8
ENGRAVE
0
POLYLINE
8
ENGRAVE
66
1
70
1
10
0
20
0
30
0
0
VERTEX
8
ENGRAVE
10
13.533
20
18.654
30
0
0
VERTEX
8
ENGRAVE
10
13.492
20
18.071
30
0
0
VERTEX
8
ENGRAVE
10
13.367
20
17.821
30
0
0
VERTEX
8
ENGRAVE
10
13.200
20
17.654
30
0
0
VERTEX
8
ENGRAVE
10
12.867
20
17.529
30
0
0
VERTEX
8
ENGRAVE
10
12.408
20
17.654
30
0
0
VERTEX
8
ENGRAVE
10
12.158
20
18.071
30
0
0
VERTEX
8
ENGRAVE
10
12.158
20
17.904
30
0
0
VERTEX
8
ENGRAVE
10
11.950
20
17.571
30
0
0
VERTEX
8
ENGRAVE
10
11.700
20
17.446
30
0
0
VERTEX
8
ENGRAVE
10
11.200
20
17.488
30
0
0
VERTEX
8
ENGRAVE
10
10.867
20
17.779
30
0
0
VERTEX
8
ENGRAVE
10
10.700
20
18.279
30
0
0
VERTEX
8
ENGRAVE
10
10.742
20
18.904
30
0
0
VERTEX
8
ENGRAVE
10
10.950
20
19.279
30
0
0
VERTEX
8
ENGRAVE
10
11.325
20
19.529
30
0
0
VERTEX
8
ENGRAVE
10
11.408
20
19.488
30
0
0
VERTEX
8
ENGRAVE
10
11.450
20
19.196
30
0
0
VERTEX
8
ENGRAVE
10
11.242
20
19.113
30
0
0
VERTEX
8
ENGRAVE
10
10.992
20
18.779
30
0
0
VERTEX
8
ENGRAVE
10
11.033
20
18.071
30
0
0
VERTEX
8
ENGRAVE
10
11.325
20
17.821
30
0
0
VERTEX
8
ENGRAVE
10
11.700
20
17.821
30
0
0
VERTEX
8
ENGRAVE
10
11.908
20
17.988
30
0
0
VERTEX
8
ENGRAVE
10
12.033
20
18.363
30
0
0
VERTEX
8
ENGRAVE
10
12.033
20
18.863
30
0
0
VERTEX
8
ENGRAVE
10
12.325
20
18.821
30
0
0
VERTEX
8
ENGRAVE
10
12.325
20
18.238
30
0
0
VERTEX
8
ENGRAVE
10
12.533
20
17.946
30
0
0
VERTEX
8
ENGRAVE
10
12.950
20
17.904
30
0
0
VERTEX
8
ENGRAVE
10
13.158
20
18.071
30
0
0
VERTEX
8
ENGRAVE
10
13.242
20
18.238
30
0
0
VERTEX
8
ENGRAVE
10
13.242
20
18.696
30
0
0
VERTEX
8
ENGRAVE
10
13.117
20
18.946
30
0
0
VERTEX
8
ENGRAVE
10
12.825
20
19.113
30
0
0
VERTEX
8
ENGRAVE
10
12.867
20
19.404
30
0
0
VERTEX
8
ENGRAVE
10
13.075
20
19.363
30
0
0
VERTEX
8
ENGRAVE
10
13.325
20
19.154
30
0
0
SEQEND
8
ENGRAVE
0
POLYLINE
8
ENGRAVE
66
1
70
1
10
0
20
0
30
0
0
VERTEX
8
ENGRAVE
10
13.492
20
20.904
30
0
0
VERTEX
8
ENGRAVE
10
13.492
20
20.613
30
0
0
VERTEX
8
ENGRAVE
10
10.992
20
20.613
30
0
0
VERTEX
8
ENGRAVE
10
10.992
20
19.863
30
0
0
VERTEX
8
ENGRAVE
10
10.742
20
19.863
30
0
0
VERTEX
8
ENGRAVE
10
10.742
20
21.779
30
0
0
VERTEX
8
ENGRAVE
10
10.992
20
21.779
30
0
0
VERTEX
8
ENGRAVE
10
10.992
20
20.946
30
0
0
VERTEX
8
ENGRAVE
10
13.033
20
20.946
30
0
0
VERTEX
8
ENGRAVE
10
12.492
20
21.654
30
0
0
VERTEX
8
ENGRAVE
10
12.867
20
21.696
30
0
0
VERTEX
8
ENGRAVE
10
13.033
20
21.321
30
0
0
VERTEX
8
ENGRAVE
10
13.408
20
20.904
30
0
0
SEQEND
8
ENGRAVE
0
POLYLINE
8
ENGRAVE
66
1
70
1
10
0
20
0
30
0
0
VERTEX
8
ENGRAVE
10
37.533
20
23.404
30
0
0
VERTEX
8
ENGRAVE
10
37.533
20
23.071
30
0
0
VERTEX
8
ENGRAVE
10
37.367
20
22.654
30
0
0
VERTEX
8
ENGRAVE
10
37.075
20
22.404
30
0
0
VERTEX
8
ENGRAVE
10
36.783
20
22.279
30
0
0
VERTEX
8
ENGRAVE
10
36.617
20
22.279
30
0
0
VERTEX
8
ENGRAVE
10
36.575
20
22.571
30
0
0
VERTEX
8
ENGRAVE
10
36.992
20
22.738
30
0
0
VERTEX
8
ENGRAVE
10
37.242
20
23.113
30
0
0
VERTEX
8
ENGRAVE
10
37.158
20
23.613
30
0
0
VERTEX
8
ENGRAVE
10
36.825
20
23.904
30
0
0
VERTEX
8
ENGRAVE
10
36.200
20
24.029
30
0
0
VERTEX
8
ENGRAVE
10
35.700
20
23.988
30
0
0
VERTEX
8
ENGRAVE
10
35.283
20
23.821
30
0
0
VERTEX
8
ENGRAVE
10
35.075
20
23.613
30
0
0
VERTEX
8
ENGRAVE
10
34.992
20
23.446
30
0
0
VERTEX
8
ENGRAVE
10
34.992
20
23.071
30
0
0
VERTEX
8
ENGRAVE
10
35.283
20
22.696
30
0
0
VERTEX
8
ENGRAVE
10
35.658
20
22.571
30
0
0
VERTEX
8
ENGRAVE
10
35.617
20
22.279
30
0
0
VERTEX
8
ENGRAVE
10
35.325
20
22.321
30
0
0
VERTEX
8
ENGRAVE
10
35.033
20
22.488
30
0
0
VERTEX
8
ENGRAVE
10
34.700
20
23.029
30
0
0
VERTEX
8
ENGRAVE
10
34.742
20
23.654
30
0
0
VERTEX
8
ENGRAVE
10
34.992
20
24.029
30
0
0
VERTEX
8
ENGRAVE
10
35.408
20
24.279
30
0
0
VERTEX
8
ENGRAVE
10
35.908
20
24.404
30
0
0
VERTEX
8
ENGRAVE
10
36.575
20
24.363
30
0
0
VERTEX
8
ENGRAVE
10
37.033
20
24.196
30
0
0
VERTEX
8
ENGRAVE
10
37.450
20
23.738
30
0
0
SEQEND
8
ENGRAVE
0
POLYLINE
8
ENGRAVE
66
1
70
1
10
0
20
0
30
0
0
VERTEX
8
ENGRAVE
10
37.533
20
18.654
30
0
0
VERTEX
8
ENGRAVE
10
37.492
20
18.071
30
0
0
VERTEX
8
ENGRAVE
10
37.367
20
17.821
30
0
0
VERTEX
8
ENGRAVE
10
37.200
20
17.654
30
0
0
VERTEX
8
ENGRAVE
10
36.867
20
17.529
30
0
0
VERTEX
8
ENGRAVE
10
36.408
20
17.654
30
0
0
VERTEX
8
ENGRAVE
10
36.158
20
18.071
30
0
0
VERTEX
8
ENGRAVE
10
36.158
20
17.904
30
0
0
VERTEX
8
ENGRAVE
10
35.950
20
17.571
30
0
0
VERTEX
8
ENGRAVE
10
35.700
20
17.446
30
0
0
VERTEX
8
ENGRAVE
10
35.200
20
17.488
30
0
0
VERTEX
8
ENGRAVE
10
34.867
20
17.779
30
0
0
VERTEX
8
ENGRAVE
10
34.700
20
18.279
30
0
0
VERTEX
8
ENGRAVE
10
34.742
20
18.904
30
0
0
VERTEX
8
ENGRAVE
10
34.950
20
19.279
30
0
0
VERTEX
8
ENGRAVE
10
35.325
20
19.529
30
0
0
VERTEX
8
ENGRAVE
10
35.408
20
19.488
30
0
0
VERTEX
8
ENGRAVE
10
35.450
20
19.196
30
0
0
VERTEX
8
ENGRAVE
10
35.242
20
19.113
30
0
0
VERTEX
8
ENGRAVE
10
34.992
20
18.779
30
0
0
VERTEX
8
ENGRAVE
10
35.033
20
18.071
30
0
0
VERTEX
8
ENGRAVE
10
35.325
20
17.821
30
0
0
VERTEX
8
ENGRAVE
10
35.700
20
17.821
30
0
0
VERTEX
8
ENGRAVE
10
35.908
20
17.988
30
0
0
VERTEX
8
ENGRAVE
10
36.033
20
18.363
30
0
0
VERTEX
8
ENGRAVE
10
36.033
20
18.863
30
0
0
VERTEX
8
ENGRAVE
10
36.325
20
18.821
30
0
0
VERTEX
8
ENGRAVE
10
36.325
20
18.238
30
0
0
VERTEX
8
ENGRAVE
10
36.533
20
17.946
30
0
0
VERTEX
8
ENGRAVE
10
36.950
20
17.904
30
0
0
VERTEX
8
ENGRAVE
10
37.158
20
18.071
30
0
0
VERTEX
8
ENGRAVE
10
37.242
20
18.238
30
0
0
VERTEX
8
ENGRAVE
10
37.242
20
18.696
30
0
0
VERTEX
8
ENGRAVE
10
37.117
20
18.946
30
0
0
VERTEX
8
ENGRAVE
10
36.825
20
19.113
30
0
0
VERTEX
8
ENGRAVE
10
36.867
20
19.404
30
0
0
VERTEX
8
ENGRAVE
10
37.075
20
19.363
30
0
0
VERTEX
8
ENGRAVE
10
37.325
20
19.154
30
0
0
SEQEND
8
ENGRAVE
0
POLYLINE
8
ENGRAVE
66
1
70
1
10
0
20
0
30
0
0
VERTEX
8
ENGRAVE
10
37.492
20
20.904
30
0
0
VERTEX
8
ENGRAVE
10
37.492
20
20.613
30
0
0
VERTEX
8
ENGRAVE
10
34.992
20
20.613
30
0
0
VERTEX
8
ENGRAVE
10
34.992
20
19.863
30
0
0
VERTEX
8
ENGRAVE
10
34.742
20
19.863
30
0
0
VERTEX
8
ENGRAVE
10
34.742
20
21.779
30
0
0
VERTEX
8
ENGRAVE
10
34.992
20
21.779
30
0
0
VERTEX
8
ENGRAVE
10
34.992
20
20.946
30
0
0
VERTEX
8
ENGRAVE
10
37.033
20
20.946
30
0
0
VERTEX
8
ENGRAVE
10
36.492
20
21.654
30
0
0
VERTEX
8
ENGRAVE
10
36.867
20
21.696
30
0
0
VERTEX
8
ENGRAVE
10
37.033
20
21.321
30
0
0
VERTEX
8
ENGRAVE
10
37.408
20
20.904
30
0
0
SEQEND
8
ENGRAVE
0
POLYLINE
8
CUT
66
1
70
1
10
0
20
0
30
0
0
VERTEX
8
CUT
10
369.392
20
274.695
30
0
0
VERTEX
8
CUT
10
369.358
20
276.570
30
0
0
VERTEX
8
CUT
10
368.769
20
278.375
30
0
0
VERTEX
8
CUT
10
367.649
20
280.115
30
0
0
VERTEX
8
CUT
10
366.043
20
281.725
30
0
0
VERTEX
8
CUT
10
364.012
20
283.145
30
0
0
VERTEX
8
CUT
10
361.636
20
284.322
30
0
0
VERTEX
8
CUT
10
359.004
20
285.210
30
0
0
VERTEX
8
CUT
10
356.218
20
285.777
30
0
0
VERTEX
8
CUT
10
353.383
20
286.000
30
0
0
VERTEX
8
CUT
10
350.609
20
285.872
30
0
0
VERTEX
8
CUT
10
348.000
20
285.396
30
0
0
VERTEX
8
CUT
10
345.657
20
284.590
30
0
0
VERTEX
8
CUT
10
343.669
20
283.485
30
0
0
VERTEX
8
CUT
10
342.113
20
282.121
30
0
0
VERTEX
8
CUT
10
341.049
20
280.548
30
0
0
VERTEX
8
CUT
10
340.500
20
278.756
30
0
0
SEQEND
8
CUT
0
POLYLINE
8
CUT
66
1
70
1
10
0
20
0
30
0
0
VERTEX
8
CUT
10
204.744
20
273.500
30
0
0
VERTEX
8
CUT
10
202.952
20
272.951
30
0
0
VERTEX
8
CUT
10
201.379
20
271.887
30
0
0
VERTEX
8
CUT
10
200.015
20
270.331
30
0
0
VERTEX
8
CUT
10
198.910
20
268.343
30
0
0
VERTEX
8
CUT
10
198.104
20
266.000
30
0
0
VERTEX
8
CUT
10
197.628
20
263.391
30
0
0
VERTEX
8
CUT
10
197.500
20
260.617
30
0
0
VERTEX
8
CUT
10
197.723
20
257.782
30
0
0
VERTEX
8
CUT
10
198.290
20
254.996
30
0
0
VERTEX
8
CUT
10
199.178
20
252.364
30
0
0
VERTEX
8
CUT
10
200.355
20
249.988
30
0
0
VERTEX
8
CUT
10
201.775
20
247.957
30
0
0
VERTEX
8
CUT
10
203.385
20
246.351
30
0
0
VERTEX
8
CUT
10
205.125
20
245.231
30
0
0
VERTEX
8
CUT
10
206.930
20
244.642
30
0
0
VERTEX
8
CUT
10
208.805
20
244.608
30
0
0
SEQEND
8
CUT
0
POLYLINE
8
CUT
66
1
70
1
10
0
20
0
30
0
0
VERTEX
8
CUT
10
249.744
20
273.500
30
0
0
VERTEX
8
CUT
10
247.952
20
272.951
30
0
0
VERTEX
8
CUT
10
246.379
20
271.887
30
0
0
VERTEX
8
CUT
10
245.015
20
270.331
30
0
0
VERTEX
8
CUT
10
243.910
20
268.343
30
0
0
VERTEX
8
CUT
10
243.104
20
266.000
30
0
0
VERTEX
8
CUT
10
242.628
20
263.391
30
0
0
VERTEX
8
CUT
10
242.500
20
260.617
30
0
0
VERTEX
8
CUT
10
242.723
20
257.782
30
0
0
VERTEX
8
CUT
10
243.290
20
254.996
30
0
0
VERTEX
8
CUT
10
244.178
20
252.364
30
0
0
VERTEX
8
CUT
10
245.355
20
249.988
30
0
0
VERTEX
8
CUT
10
246.775
20
247.957
30
0
0
VERTEX
8
CUT
10
248.385
20
246.351
30
0
0
VERTEX
8
CUT
10
250.125
20
245.231
30
0
0
VERTEX
8
CUT
10
251.930
20
244.642
30
0
0
VERTEX
8
CUT
10
253.805
20
244.608
30
0
0
SEQEND
8
CUT
0
POLYLINE
8
CUT
66
1
70
1
10
0
20
0
30
0
0
VERTEX
8
CUT
10
294.744
20
273.500
30
0
0
VERTEX
8
CUT
10
292.952
20
272.951
30
0
0
VERTEX
8
CUT
10
291.379
20
271.887
30
0
0
VERTEX
8
CUT
10
290.015
20
270.331
30
0
0
VERTEX
8
CUT
10
288.910
20
268.343
30
0
0
VERTEX
8
CUT
10
288.104
20
266.000
30
0
0
VERTEX
8
CUT
10
287.628
20
263.391
30
0
0
VERTEX
8
CUT
10
287.500
20
260.617
30
0
0
VERTEX
8
CUT
10
287.723
20
257.782
30
0
0
VERTEX
8
CUT
10
288.290
20
254.996
30
0
0
VERTEX
8
CUT
10
289.178
20
252.364
30
0
0
VERTEX
8
CUT
10
290.355
20
249.988
30
0
0
VERTEX
8
CUT
10
291.775
20
247.957
30
0
0
VERTEX
8
CUT
10
293.385
20
246.351
30
0
0
VERTEX
8
CUT
10
295.125
20
245.231
30
0
0
VERTEX
8
CUT
10
296.930
20
244.642
30
0
0
VERTEX
8
CUT
10
298.805
20
244.608
30
0
0
SEQEND
8
CUT
0
POLYLINE
8
CUT
66
1
70
1
10
0
20
0
30
0
0
VERTEX
8
CUT
10
48.175
20
193.049
30
0
0
VERTEX
8
CUT
10
48.758
20
192.933
30
0
0
VERTEX
8
CUT
10
49.252
20
192.602
30
0
0
VERTEX
8
CUT
10
49.583
20
192.108
30
0
0
VERTEX
8
CUT
10
49.699
20
191.525
30
0
0
VERTEX
8
CUT
10
49.583
20
190.942
30
0
0
VERTEX
8
CUT
10
49.252
20
190.448
30
0
0
VERTEX
8
CUT
10
48.758
20
190.117
30
0
0
VERTEX
8
CUT
10
48.175
20
190.001
30
0
0
VERTEX
8
CUT
10
47.592
20
190.117
30
0
0
VERTEX
8
CUT
10
47.098
20
190.448
30
0
0
VERTEX
8
CUT
10
46.767
20
190.942
30
0
0
VERTEX
8
CUT
10
46.651
20
191.525
30
0
0
VERTEX
8
CUT
10
46.767
20
192.108
30
0
0
VERTEX
8
CUT
10
47.098
20
192.602
30
0
0
VERTEX
8
CUT
10
47.592
20
192.933
30
0
0
SEQEND
8
CUT
0
POLYLINE
8
CUT
66
1
70
1
10
0
20
0
30
0
0
VERTEX
8
CUT
10
88.975
20
193.049
30
0
0
VERTEX
8
CUT
10
89.558
20
192.933
30
0
0
VERTEX
8
CUT
10
90.052
20
192.602
30
0
0
VERTEX
8
CUT
10
90.383
20
192.108
30
0
0
VERTEX
8
CUT
10
90.499
20
191.525
30
0
0
VERTEX
8
CUT
10
90.383
20
190.942
30
0
0
VERTEX
8
CUT
10
90.052
20
190.448
30
0
0
VERTEX
8
CUT
10
89.558
20
190.117
30
0
0
VERTEX
8
CUT
10
88.975
20
190.001
30
0
0
VERTEX
8
CUT
10
88.392
20
190.117
30
0
0
VERTEX
8
CUT
10
87.898
20
190.448
30
0
0
VERTEX
8
CUT
10
87.567
20
190.942
30
0
0
VERTEX
8
CUT
10
87.451
20
191.525
30
0
0
VERTEX
8
CUT
10
87.567
20
192.108
30
0
0
VERTEX
8
CUT
10
87.898
20
192.602
30
0
0
VERTEX
8
CUT
10
88.392
20
192.933
30
0
0
SEQEND
8
CUT
0
POLYLINE
8
CUT
66
1
70
1
10
0
20
0
30
0
0
VERTEX
8
CUT
10
48.175
20
215.849
30
0
0
VERTEX
8
CUT
10
48.758
20
215.733
30
0
0
VERTEX
8
CUT
10
49.252
20
215.402
30
0
0
VERTEX
8
CUT
10
49.583
20
214.908
30
0
0
VERTEX
8
CUT
10
49.699
20
214.325
30
0
0
VERTEX
8
CUT
10
49.583
20
213.742
30
0
0
VERTEX
8
CUT
10
49.252
20
213.248
30
0
0
VERTEX
8
CUT
10
48.758
20
212.917
30
0
0
VERTEX
8
CUT
10
48.175
20
212.801
30
0
0
VERTEX
8
CUT
10
47.592
20
212.917
30
0
0
VERTEX
8
CUT
10
47.098
20
213.248
30
0
0
VERTEX
8
CUT
10
46.767
20
213.742
30
0
0
VERTEX
8
CUT
10
46.651
20
214.325
30
0
0
VERTEX
8
CUT
10
46.767
20
214.908
30
0
0
VERTEX
8
CUT
10
47.098
20
215.402
30
0
0
VERTEX
8
CUT
10
47.592
20
215.733
30
0
0
SEQEND
8
CUT
0
POLYLINE
8
CUT
66
1
70
1
10
0
20
0
30
0
0
VERTEX
8
CUT
10
88.975
20
215.849
30
0
0
VERTEX
8
CUT
10
89.558
20
215.733
30
0
0
VERTEX
8
CUT
10
90.052
20
215.402
30
0
0
VERTEX
8
CUT
10
90.383
20
214.908
30
0
0
VERTEX
8
CUT
10
90.499
20
214.325
30
0
0
VERTEX
8
CUT
10
90.383
20
213.742
30
0
0
VERTEX
8
CUT
10
90.052
20
213.248
30
0
0
VERTEX
8
CUT
10
89.558
20
212.917
30
0
0
VERTEX
8
CUT
10
88.975
20
212.801
30
0
0
VERTEX
8
CUT
10
88.392
20
212.917
30
0
0
VERTEX
8
CUT
10
87.898
20
213.248
30
0
0
VERTEX
8
CUT
10
87.567
20
213.742
30
0
0
VERTEX
8
CUT
10
87.451
20
214.325
30
0
0
VERTEX
8
CUT
10
87.567
20
214.908
30
0
0
VERTEX
8
CUT
10
87.898
20
215.402
30
0
0
VERTEX
8
CUT
10
88.392
20
215.733
30
0
0
SEQEND
8
CUT
0
POLYLINE
8
CUT
66
1
70
1
10
0
20
0
30
0
0
VERTEX
8
CUT
10
150.575
20
210.548
30
0
0
VERTEX
8
CUT
10
151.279
20
210.387
30
0
0
VERTEX
8
CUT
10
151.844
20
209.937
30
0
0
VERTEX
8
CUT
10
152.157
20
209.286
30
0
0
VERTEX
8
CUT
10
152.157
20
208.564
30
0
0
VERTEX
8
CUT
10
151.844
20
207.913
30
0
0
VERTEX
8
CUT
10
151.279
20
207.463
30
0
0
VERTEX
8
CUT
10
150.575
20
207.302
30
0
0
VERTEX
8
CUT
10
149.871
20
207.463
30
0
0
VERTEX
8
CUT
10
149.306
20
207.913
30
0
0
VERTEX
8
CUT
10
148.993
20
208.564
30
0
0
VERTEX
8
CUT
10
148.993
20
209.286
30
0
0
VERTEX
8
CUT
10
149.306
20
209.937
30
0
0
VERTEX
8
CUT
10
149.871
20
210.387
30
0
0
SEQEND
8
CUT
0
POLYLINE
8
CUT
66
1
70
1
10
0
20
0
30
0
0
VERTEX
8
CUT
10
150.575
20
270.548
30
0
0
VERTEX
8
CUT
10
151.279
20
270.387
30
0
0
VERTEX
8
CUT
10
151.844
20
269.937
30
0
0
VERTEX
8
CUT
10
152.157
20
269.286
30
0
0
VERTEX
8
CUT
10
152.157
20
268.564
30
0
0
VERTEX
8
CUT
10
151.844
20
267.913
30
0
0
VERTEX
8
CUT
10
151.279
20
267.463
30
0
0
VERTEX
8
CUT
10
150.575
20
267.302
30
0
0
VERTEX
8
CUT
10
149.871
20
267.463
30
0
0
VERTEX
8
CUT
10
149.306
20
267.913
30
0
0
VERTEX
8
CUT
10
148.993
20
268.564
30
0
0
VERTEX
8
CUT
10
148.993
20
269.286
30
0
0
VERTEX
8
CUT
10
149.306
20
269.937
30
0
0
VERTEX
8
CUT
10
149.871
20
270.387
30
0
0
SEQEND
8
CUT
0
POLYLINE
8
CUT
66
1
70
1
10
0
20
0
30
0
0
VERTEX
8
CUT
10
101.600
20
199.950
30
0
0
VERTEX
8
CUT
10
101.600
20
202.900
30
0
0
VERTEX
8
CUT
10
109.550
20
202.900
30
0
0
VERTEX
8
CUT
10
109.550
20
199.950
30
0
0
SEQEND
8
CUT
0
POLYLINE
8
CUT
66
1
70
1
10
0
20
0
30
0
0
VERTEX
8
CUT
10
8.050
20
245.450
30
0
0
VERTEX
8
CUT
10
8.050
20
248.400
30
0
0
VERTEX
8
CUT
10
11.000
20
248.400
30
0
0
VERTEX
8
CUT
10
11.000
20
245.450
30
0
0
SEQEND
8
CUT
0
POLYLINE
8
CUT
66
1
70
1
10
0
20
0
30
0
0
VERTEX
8
CUT
10
38.650
20
245.450
30
0
0
VERTEX
8
CUT
10
38.650
20
248.400
30
0
0
VERTEX
8
CUT
10
41.600
20
248.400
30
0
0
VERTEX
8
CUT
10
41.600
20
245.450
30
0
0
SEQEND
8
CUT
0
POLYLINE
8
CUT
66
1
70
1
10
0
20
0
30
0
0
VERTEX
8
CUT
10
119.550
20
229.450
30
0
0
VERTEX
8
CUT
10
119.550
20
232.400
30
0
0
VERTEX
8
CUT
10
122.500
20
232.400
30
0
0
VERTEX
8
CUT
10
122.500
20
229.450
30
0
0
SEQEND
8
CUT
0
POLYLINE
8
CUT
66
1
70
1
10
0
20
0
30
0
0
VERTEX
8
CUT
10
150.150
20
229.450
30
0
0
VERTEX
8
CUT
10
150.150
20
232.400
30
0
0
VERTEX
8
CUT
10
153.100
20
232.400
30
0
0
VERTEX
8
CUT
10
153.100
20
229.450
30
0
0
SEQEND
8
CUT
0
POLYLINE
8
CUT
66
1
70
1
10
0
20
0
30
0
0
VERTEX
8
CUT
10
6.000
20
183.850
30
0
0
VERTEX
8
CUT
10
6.000
20
197.183
30
0
0
VERTEX
8
CUT
10
3.000
20
197.183
30
0
0
VERTEX
8
CUT
10
3.000
20
207.333
30
0
0
VERTEX
8
CUT
10
6.000
20
207.333
30
0
0
VERTEX
8
CUT
10
6.000
20
233.850
30
0
0
VERTEX
8
CUT
10
3.000
20
233.850
30
0
0
VERTEX
8
CUT
10
3.000
20
244.000
30
0
0
VERTEX
8
CUT
10
6.000
20
244.000
30
0
0
VERTEX
8
CUT
10
6.000
20
270.517
30
0
0
VERTEX
8
CUT
10
3.000
20
270.517
30
0
0
VERTEX
8
CUT
10
3.000
20
280.667
30
0
0
VERTEX
8
CUT
10
6.000
20
280.667
30
0
0
VERTEX
8
CUT
10
6.000
20
294.000
30
0
0
VERTEX
8
CUT
10
15.900
20
294.000
30
0
0
VERTEX
8
CUT
10
15.900
20
229.000
30
0
0
VERTEX
8
CUT
10
33.750
20
229.000
30
0
0
VERTEX
8
CUT
10
33.750
20
294.000
30
0
0
VERTEX
8
CUT
10
56.875
20
294.000
30
0
0
VERTEX
8
CUT
10
56.875
20
297.000
30
0
0
VERTEX
8
CUT
10
67.025
20
297.000
30
0
0
VERTEX
8
CUT
10
67.025
20
294.000
30
0
0
VERTEX
8
CUT
10
94.125
20
294.000
30
0
0
VERTEX
8
CUT
10
94.125
20
297.000
30
0
0
VERTEX
8
CUT
10
104.275
20
297.000
30
0
0
VERTEX
8
CUT
10
104.275
20
294.000
30
0
0
VERTEX
8
CUT
10
131.375
20
294.000
30
0
0
VERTEX
8
CUT
10
131.375
20
297.000
30
0
0
VERTEX
8
CUT
10
141.525
20
297.000
30
0
0
VERTEX
8
CUT
10
141.525
20
294.000
30
0
0
VERTEX
8
CUT
10
155.150
20
294.000
30
0
0
VERTEX
8
CUT
10
155.150
20
280.667
30
0
0
VERTEX
8
CUT
10
158.150
20
280.667
30
0
0
VERTEX
8
CUT
10
158.150
20
270.517
30
0
0
VERTEX
8
CUT
10
155.150
20
270.517
30
0
0
VERTEX
8
CUT
10
155.150
20
244.000
30
0
0
VERTEX
8
CUT
10
158.150
20
244.000
30
0
0
VERTEX
8
CUT
10
158.150
20
233.850
30
0
0
VERTEX
8
CUT
10
155.150
20
233.850
30
0
0
VERTEX
8
CUT
10
155.150
20
207.333
30
0
0
VERTEX
8
CUT
10
158.150
20
207.333
30
0
0
VERTEX
8
CUT
10
158.150
20
197.183
30
0
0
VERTEX
8
CUT
10
155.150
20
197.183
30
0
0
VERTEX
8
CUT
10
155.150
20
183.850
30
0
0
VERTEX
8
CUT
10
145.250
20
183.850
30
0
0
VERTEX
8
CUT
10
145.250
20
248.850
30
0
0
VERTEX
8
CUT
10
127.400
20
248.850
30
0
0
VERTEX
8
CUT
10
127.400
20
183.850
30
0
0
VERTEX
8
CUT
10
104.275
20
183.850
30
0
0
VERTEX
8
CUT
10
104.275
20
180.850
30
0
0
VERTEX
8
CUT
10
94.125
20
180.850
30
0
0
VERTEX
8
CUT
10
94.125
20
183.850
30
0
0
VERTEX
8
CUT
10
67.025
20
183.850
30
0
0
VERTEX
8
CUT
10
67.025
20
180.850
30
0
0
VERTEX
8
CUT
10
56.875
20
180.850
30
0
0
VERTEX
8
CUT
10
56.875
20
183.850
30
0
0
VERTEX
8
CUT
10
29.775
20
183.850
30
0
0
VERTEX
8
CUT
10
29.775
20
180.850
30
0
0
VERTEX
8
CUT
10
19.625
20
180.850
30
0
0
VERTEX
8
CUT
10
19.625
20
183.850
30
0
0
SEQEND
8
CUT
0
POLYLINE
8
CUT
66
1
70
1
10
0
20
0
30
0
0
VERTEX
8
CUT
10
210.569
20
275.150
30
0
0
VERTEX
8
CUT
10
211.788
20
274.957
30
0
0
VERTEX
8
CUT
10
212.882
20
274.400
30
0
0
VERTEX
8
CUT
10
213.750
20
273.532
30
0
0
VERTEX
8
CUT
10
214.307
20
272.438
30
0
0
VERTEX
8
CUT
10
214.500
20
271.219
30
0
0
VERTEX
8
CUT
10
214.500
20
226.231
30
0
0
VERTEX
8
CUT
10
214.307
20
225.012
30
0
0
VERTEX
8
CUT
10
213.750
20
223.918
30
0
0
VERTEX
8
CUT
10
212.882
20
223.050
30
0
0
VERTEX
8
CUT
10
211.788
20
222.493
30
0
0
VERTEX
8
CUT
10
210.569
20
222.300
30
0
0
VERTEX
8
CUT
10
199.581
20
222.300
30
0
0
VERTEX
8
CUT
10
198.362
20
222.493
30
0
0
VERTEX
8
CUT
10
197.268
20
223.050
30
0
0
VERTEX
8
CUT
10
196.400
20
223.918
30
0
0
VERTEX
8
CUT
10
195.843
20
225.012
30
0
0
VERTEX
8
CUT
10
195.650
20
226.231
30
0
0
VERTEX
8
CUT
10
195.650
20
271.219
30
0
0
VERTEX
8
CUT
10
195.843
20
272.438
30
0
0
VERTEX
8
CUT
10
196.400
20
273.532
30
0
0
VERTEX
8
CUT
10
197.268
20
274.400
30
0
0
VERTEX
8
CUT
10
198.362
20
274.957
30
0
0
VERTEX
8
CUT
10
199.581
20
275.150
30
0
0
SEQEND
8
CUT
0
POLYLINE
8
CUT
66
1
70
1
10
0
20
0
30
0
0
VERTEX
8
CUT
10
255.569
20
275.150
30
0
0
VERTEX
8
CUT
10
256.788
20
274.957
30
0
0
VERTEX
8
CUT
10
257.882
20
274.400
30
0
0
VERTEX
8
CUT
10
258.750
20
273.532
30
0
0
VERTEX
8
CUT
10
259.307
20
272.438
30
0
0
VERTEX
8
CUT
10
259.500
20
271.219
30
0
0
VERTEX
8
CUT
10
259.500
20
226.231
30
0
0
VERTEX
8
CUT
10
259.307
20
225.012
30
0
0
VERTEX
8
CUT
10
258.750
20
223.918
30
0
0
VERTEX
8
CUT
10
257.882
20
223.050
30
0
0
VERTEX
8
CUT
10
256.788
20
222.493
30
0
0
VERTEX
8
CUT
10
255.569
20
222.300
30
0
0
VERTEX
8
CUT
10
244.581
20
222.300
30
0
0
VERTEX
8
CUT
10
243.362
20
222.493
30
0
0
VERTEX
8
CUT
10
242.268
20
223.050
30
0
0
VERTEX
8
CUT
10
241.400
20
223.918
30
0
0
VERTEX
8
CUT
10
240.843
20
225.012
30
0
0
VERTEX
8
CUT
10
240.650
20
226.231
30
0
0
VERTEX
8
CUT
10
240.650
20
271.219
30
0
0
VERTEX
8
CUT
10
240.843
20
272.438
30
0
0
VERTEX
8
CUT
10
241.400
20
273.532
30
0
0
VERTEX
8
CUT
10
242.268
20
274.400
30
0
0
VERTEX
8
CUT
10
243.362
20
274.957
30
0
0
VERTEX
8
CUT
10
244.581
20
275.150
30
0
0
SEQEND
8
CUT
0
POLYLINE
8
CUT
66
1
70
1
10
0
20
0
30
0
0
VERTEX
8
CUT
10
302.069
20
275.150
30
0
0
VERTEX
8
CUT
10
303.288
20
274.957
30
0
0
VERTEX
8
CUT
10
304.382
20
274.400
30
0
0
VERTEX
8
CUT
10
305.250
20
273.532
30
0
0
VERTEX
8
CUT
10
305.807
20
272.438
30
0
0
VERTEX
8
CUT
10
306.000
20
271.219
30
0
0
VERTEX
8
CUT
10
306.000
20
226.231
30
0
0
VERTEX
8
CUT
10
305.807
20
225.012
30
0
0
VERTEX
8
CUT
10
305.250
20
223.918
30
0
0
VERTEX
8
CUT
10
304.382
20
223.050
30
0
0
VERTEX
8
CUT
10
303.288
20
222.493
30
0
0
VERTEX
8
CUT
10
302.069
20
222.300
30
0
0
VERTEX
8
CUT
10
289.581
20
222.300
30
0
0
VERTEX
8
CUT
10
288.362
20
222.493
30
0
0
VERTEX
8
CUT
10
287.268
20
223.050
30
0
0
VERTEX
8
CUT
10
286.400
20
223.918
30
0
0
VERTEX
8
CUT
10
285.843
20
225.012
30
0
0
VERTEX
8
CUT
10
285.650
20
226.231
30
0
0
VERTEX
8
CUT
10
285.650
20
271.219
30
0
0
VERTEX
8
CUT
10
285.843
20
272.438
30
0
0
VERTEX
8
CUT
10
286.400
20
273.532
30
0
0
VERTEX
8
CUT
10
287.268
20
274.400
30
0
0
VERTEX
8
CUT
10
288.362
20
274.957
30
0
0
VERTEX
8
CUT
10
289.581
20
275.150
30
0
0
SEQEND
8
CUT
0
POLYLINE
8
CUT
66
1
70
1
10
0
20
0
30
0
0
VERTEX
8
CUT
10
192.169
20
210.150
30
0
0
VERTEX
8
CUT
10
192.584
20
210.084
30
0
0
VERTEX
8
CUT
10
192.953
20
209.896
30
0
0
VERTEX
8
CUT
10
193.246
20
209.603
30
0
0
VERTEX
8
CUT
10
193.434
20
209.234
30
0
0
VERTEX
8
CUT
10
193.500
20
208.819
30
0
0
VERTEX
8
CUT
10
193.500
20
208.631
30
0
0
VERTEX
8
CUT
10
193.434
20
208.216
30
0
0
VERTEX
8
CUT
10
193.246
20
207.847
30
0
0
VERTEX
8
CUT
10
192.953
20
207.554
30
0
0
VERTEX
8
CUT
10
192.584
20
207.366
30
0
0
VERTEX
8
CUT
10
192.169
20
207.300
30
0
0
VERTEX
8
CUT
10
172.981
20
207.300
30
0
0
VERTEX
8
CUT
10
172.566
20
207.366
30
0
0
VERTEX
8
CUT
10
172.197
20
207.554
30
0
0
VERTEX
8
CUT
10
171.904
20
207.847
30
0
0
VERTEX
8
CUT
10
171.716
20
208.216
30
0
0
VERTEX
8
CUT
10
171.650
20
208.631
30
0
0
VERTEX
8
CUT
10
171.650
20
208.819
30
0
0
VERTEX
8
CUT
10
171.716
20
209.234
30
0
0
VERTEX
8
CUT
10
171.904
20
209.603
30
0
0
VERTEX
8
CUT
10
172.197
20
209.896
30
0
0
VERTEX
8
CUT
10
172.566
20
210.084
30
0
0
VERTEX
8
CUT
10
172.981
20
210.150
30
0
0
SEQEND
8
CUT
0
POLYLINE
8
CUT
66
1
70
1
10
0
20
0
30
0
0
VERTEX
8
CUT
10
192.169
20
218.150
30
0
0
VERTEX
8
CUT
10
192.584
20
218.084
30
0
0
VERTEX
8
CUT
10
192.953
20
217.896
30
0
0
VERTEX
8
CUT
10
193.246
20
217.603
30
0
0
VERTEX
8
CUT
10
193.434
20
217.234
30
0
0
VERTEX
8
CUT
10
193.500
20
216.819
30
0
0
VERTEX
8
CUT
10
193.500
20
216.631
30
0
0
VERTEX
8
CUT
10
193.434
20
216.216
30
0
0
VERTEX
8
CUT
10
193.246
20
215.847
30
0
0
VERTEX
8
CUT
10
192.953
20
215.554
30
0
0
VERTEX
8
CUT
10
192.584
20
215.366
30
0
0
VERTEX
8
CUT
10
192.169
20
215.300
30
0
0
VERTEX
8
CUT
10
172.981
20
215.300
30
0
0
VERTEX
8
CUT
10
172.566
20
215.366
30
0
0
VERTEX
8
CUT
10
172.197
20
215.554
30
0
0
VERTEX
8
CUT
10
171.904
20
215.847
30
0
0
VERTEX
8
CUT
10
171.716
20
216.216
30
0
0
VERTEX
8
CUT
10
171.650
20
216.631
30
0
0
VERTEX
8
CUT
10
171.650
20
216.819
30
0
0
VERTEX
8
CUT
10
171.716
20
217.234
30
0
0
VERTEX
8
CUT
10
171.904
20
217.603
30
0
0
VERTEX
8
CUT
10
172.197
20
217.896
30
0
0
VERTEX
8
CUT
10
172.566
20
218.084
30
0
0
VERTEX
8
CUT
10
172.981
20
218.150
30
0
0
SEQEND
8
CUT
0
POLYLINE
8
CUT
66
1
70
1
10
0
20
0
30
0
0
VERTEX
8
CUT
10
192.169
20
282.150
30
0
0
VERTEX
8
CUT
10
192.584
20
282.084
30
0
0
VERTEX
8
CUT
10
192.953
20
281.896
30
0
0
VERTEX
8
CUT
10
193.246
20
281.603
30
0
0
VERTEX
8
CUT
10
193.434
20
281.234
30
0
0
VERTEX
8
CUT
10
193.500
20
280.819
30
0
0
VERTEX
8
CUT
10
193.500
20
280.631
30
0
0
VERTEX
8
CUT
10
193.434
20
280.216
30
0
0
VERTEX
8
CUT
10
193.246
20
279.847
30
0
0
VERTEX
8
CUT
10
192.953
20
279.554
30
0
0
VERTEX
8
CUT
10
192.584
20
279.366
30
0
0
VERTEX
8
CUT
10
192.169
20
279.300
30
0
0
VERTEX
8
CUT
10
172.981
20
279.300
30
0
0
VERTEX
8
CUT
10
172.566
20
279.366
30
0
0
VERTEX
8
CUT
10
172.197
20
279.554
30
0
0
VERTEX
8
CUT
10
171.904
20
279.847
30
0
0
VERTEX
8
CUT
10
171.716
20
280.216
30
0
0
VERTEX
8
CUT
10
171.650
20
280.631
30
0
0
VERTEX
8
CUT
10
171.650
20
280.819
30
0
0
VERTEX
8
CUT
10
171.716
20
281.234
30
0
0
VERTEX
8
CUT
10
171.904
20
281.603
30
0
0
VERTEX
8
CUT
10
172.197
20
281.896
30
0
0
VERTEX
8
CUT
10
172.566
20
282.084
30
0
0
VERTEX
8
CUT
10
172.981
20
282.150
30
0
0
SEQEND
8
CUT
0
POLYLINE
8
CUT
66
1
70
1
10
0
20
0
30
0
0
VERTEX
8
CUT
10
192.169
20
290.150
30
0
0
VERTEX
8
CUT
10
192.584
20
290.084
30
0
0
VERTEX
8
CUT
10
192.953
20
289.896
30
0
0
VERTEX
8
CUT
10
193.246
20
289.603
30
0
0
VERTEX
8
CUT
10
193.434
20
289.234
30
0
0
VERTEX
8
CUT
10
193.500
20
288.819
30
0
0
VERTEX
8
CUT
10
193.500
20
288.631
30
0
0
VERTEX
8
CUT
10
193.434
20
288.216
30
0
0
VERTEX
8
CUT
10
193.246
20
287.847
30
0
0
VERTEX
8
CUT
10
192.953
20
287.554
30
0
0
VERTEX
8
CUT
10
192.584
20
287.366
30
0
0
VERTEX
8
CUT
10
192.169
20
287.300
30
0
0
VERTEX
8
CUT
10
172.981
20
287.300
30
0
0
VERTEX
8
CUT
10
172.566
20
287.366
30
0
0
VERTEX
8
CUT
10
172.197
20
287.554
30
0
0
VERTEX
8
CUT
10
171.904
20
287.847
30
0
0
VERTEX
8
CUT
10
171.716
20
288.216
30
0
0
VERTEX
8
CUT
10
171.650
20
288.631
30
0
0
VERTEX
8
CUT
10
171.650
20
288.819
30
0
0
VERTEX
8
CUT
10
171.716
20
289.234
30
0
0
VERTEX
8
CUT
10
171.904
20
289.603
30
0
0
VERTEX
8
CUT
10
172.197
20
289.896
30
0
0
VERTEX
8
CUT
10
172.566
20
290.084
30
0
0
VERTEX
8
CUT
10
172.981
20
290.150
30
0
0
SEQEND
8
CUT
0
POLYLINE
8
CUT
66
1
70
1
10
0
20
0
30
0
0
VERTEX
8
CUT
10
237.169
20
210.150
30
0
0
VERTEX
8
CUT
10
237.584
20
210.084
30
0
0
VERTEX
8
CUT
10
237.953
20
209.896
30
0
0
VERTEX
8
CUT
10
238.246
20
209.603
30
0
0
VERTEX
8
CUT
10
238.434
20
209.234
30
0
0
VERTEX
8
CUT
10
238.500
20
208.819
30
0
0
VERTEX
8
CUT
10
238.500
20
208.631
30
0
0
VERTEX
8
CUT
10
238.434
20
208.216
30
0
0
VERTEX
8
CUT
10
238.246
20
207.847
30
0
0
VERTEX
8
CUT
10
237.953
20
207.554
30
0
0
VERTEX
8
CUT
10
237.584
20
207.366
30
0
0
VERTEX
8
CUT
10
237.169
20
207.300
30
0
0
VERTEX
8
CUT
10
217.981
20
207.300
30
0
0
VERTEX
8
CUT
10
217.566
20
207.366
30
0
0
VERTEX
8
CUT
10
217.197
20
207.554
30
0
0
VERTEX
8
CUT
10
216.904
20
207.847
30
0
0
VERTEX
8
CUT
10
216.716
20
208.216
30
0
0
VERTEX
8
CUT
10
216.650
20
208.631
30
0
0
VERTEX
8
CUT
10
216.650
20
208.819
30
0
0
VERTEX
8
CUT
10
216.716
20
209.234
30
0
0
VERTEX
8
CUT
10
216.904
20
209.603
30
0
0
VERTEX
8
CUT
10
217.197
20
209.896
30
0
0
VERTEX
8
CUT
10
217.566
20
210.084
30
0
0
VERTEX
8
CUT
10
217.981
20
210.150
30
0
0
SEQEND
8
CUT
0
POLYLINE
8
CUT
66
1
70
1
10
0
20
0
30
0
0
VERTEX
8
CUT
10
237.169
20
218.150
30
0
0
VERTEX
8
CUT
10
237.584
20
218.084
30
0
0
VERTEX
8
CUT
10
237.953
20
217.896
30
0
0
VERTEX
8
CUT
10
238.246
20
217.603
30
0
0
VERTEX
8
CUT
10
238.434
20
217.234
30
0
0
VERTEX
8
CUT
10
238.500
20
216.819
30
0
0
VERTEX
8
CUT
10
238.500
20
216.631
30
0
0
VERTEX
8
CUT
10
238.434
20
216.216
30
0
0
VERTEX
8
CUT
10
238.246
20
215.847
30
0
0
VERTEX
8
CUT
10
237.953
20
215.554
30
0
0
VERTEX
8
CUT
10
237.584
20
215.366
30
0
0
VERTEX
8
CUT
10
237.169
20
215.300
30
0
0
VERTEX
8
CUT
10
217.981
20
215.300
30
0
0
VERTEX
8
CUT
10
217.566
20
215.366
30
0
0
VERTEX
8
CUT
10
217.197
20
215.554
30
0
0
VERTEX
8
CUT
10
216.904
20
215.847
30
0
0
VERTEX
8
CUT
10
216.716
20
216.216
30
0
0
VERTEX
8
CUT
10
216.650
20
216.631
30
0
0
VERTEX
8
CUT
10
216.650
20
216.819
30
0
0
VERTEX
8
CUT
10
216.716
20
217.234
30
0
0
VERTEX
8
CUT
10
216.904
20
217.603
30
0
0
VERTEX
8
CUT
10
217.197
20
217.896
30
0
0
VERTEX
8
CUT
10
217.566
20
218.084
30
0
0
VERTEX
8
CUT
10
217.981
20
218.150
30
0
0
SEQEND
8
CUT
0
POLYLINE
8
CUT
66
1
70
1
10
0
20
0
30
0
0
VERTEX
8
CUT
10
237.169
20
282.150
30
0
0
VERTEX
8
CUT
10
237.584
20
282.084
30
0
0
VERTEX
8
CUT
10
237.953
20
281.896
30
0
0
VERTEX
8
CUT
10
238.246
20
281.603
30
0
0
VERTEX
8
CUT
10
238.434
20
281.234
30
0
0
VERTEX
8
CUT
10
238.500
20
280.819
30
0
0
VERTEX
8
CUT
10
238.500
20
280.631
30
0
0
VERTEX
8
CUT
10
238.434
20
280.216
30
0
0
VERTEX
8
CUT
10
238.246
20
279.847
30
0
0
VERTEX
8
CUT
10
237.953
20
279.554
30
0
0
VERTEX
8
CUT
10
237.584
20
279.366
30
0
0
VERTEX
8
CUT
10
237.169
20
279.300
30
0
0
VERTEX
8
CUT
10
217.981
20
279.300
30
0
0
VERTEX
8
CUT
10
217.566
20
279.366
30
0
0
VERTEX
8
CUT
10
217.197
20
279.554
30
0
0
VERTEX
8
CUT
10
216.904
20
279.847
30
0
0
VERTEX
8
CUT
10
216.716
20
280.216
30
0
0
VERTEX
8
CUT
10
216.650
20
280.631
30
0
0
VERTEX
8
CUT
10
216.650
20
280.819
30
0
0
VERTEX
8
CUT
10
216.716
20
281.234
30
0
0
VERTEX
8
CUT
10
216.904
20
281.603
30
0
0
VERTEX
8
CUT
10
217.197
20
281.896
30
0
0
VERTEX
8
CUT
10
217.566
20
282.084
30
0
0
VERTEX
8
CUT
10
217.981
20
282.150
30
0
0
SEQEND
8
CUT
0
POLYLINE
8
CUT
66
1
70
1
10
0
20
0
30
0
0
VERTEX
8
CUT
10
237.169
20
290.150
30
0
0
VERTEX
8
CUT
10
237.584
20
290.084
30
0
0
VERTEX
8
CUT
10
237.953
20
289.896
30
0
0
VERTEX
8
CUT
10
238.246
20
289.603
30
0
0
VERTEX
8
CUT
10
238.434
20
289.234
30
0
0
VERTEX
8
CUT
10
238.500
20
288.819
30
0
0
VERTEX
8
CUT
10
238.500
20
288.631
30
0
0
VERTEX
8
CUT
10
238.434
20
288.216
30
0
0
VERTEX
8
CUT
10
238.246
20
287.847
30
0
0
VERTEX
8
CUT
10
237.953
20
287.554
30
0
0
VERTEX
8
CUT
10
237.584
20
287.366
30
0
0
VERTEX
8
CUT
10
237.169
20
287.300
30
0
0
VERTEX
8
CUT
10
217.981
20
287.300
30
0
0
VERTEX
8
CUT
10
217.566
20
287.366
30
0
0
VERTEX
8
CUT
10
217.197
20
287.554
30
0
0
VERTEX
8
CUT
10
216.904
20
287.847
30
0
0
VERTEX
8
CUT
10
216.716
20
288.216
30
0
0
VERTEX
8
CUT
10
216.650
20
288.631
30
0
0
VERTEX
8
CUT
10
216.650
20
288.819
30
0
0
VERTEX
8
CUT
10
216.716
20
289.234
30
0
0
VERTEX
8
CUT
10
216.904
20
289.603
30
0
0
VERTEX
8
CUT
10
217.197
20
289.896
30
0
0
VERTEX
8
CUT
10
217.566
20
290.084
30
0
0
VERTEX
8
CUT
10
217.981
20
290.150
30
0
0
SEQEND
8
CUT
0
POLYLINE
8
CUT
66
1
70
1
10
0
20
0
30
0
0
VERTEX
8
CUT
10
282.169
20
210.150
30
0
0
VERTEX
8
CUT
10
282.584
20
210.084
30
0
0
VERTEX
8
CUT
10
282.953
20
209.896
30
0
0
VERTEX
8
CUT
10
283.246
20
209.603
30
0
0
VERTEX
8
CUT
10
283.434
20
209.234
30
0
0
VERTEX
8
CUT
10
283.500
20
208.819
30
0
0
VERTEX
8
CUT
10
283.500
20
208.631
30
0
0
VERTEX
8
CUT
10
283.434
20
208.216
30
0
0
VERTEX
8
CUT
10
283.246
20
207.847
30
0
0
VERTEX
8
CUT
10
282.953
20
207.554
30
0
0
VERTEX
8
CUT
10
282.584
20
207.366
30
0
0
VERTEX
8
CUT
10
282.169
20
207.300
30
0
0
VERTEX
8
CUT
10
262.981
20
207.300
30
0
0
VERTEX
8
CUT
10
262.566
20
207.366
30
0
0
VERTEX
8
CUT
10
262.197
20
207.554
30
0
0
VERTEX
8
CUT
10
261.904
20
207.847
30
0
0
VERTEX
8
CUT
10
261.716
20
208.216
30
0
0
VERTEX
8
CUT
10
261.650
20
208.631
30
0
0
VERTEX
8
CUT
10
261.650
20
208.819
30
0
0
VERTEX
8
CUT
10
261.716
20
209.234
30
0
0
VERTEX
8
CUT
10
261.904
20
209.603
30
0
0
VERTEX
8
CUT
10
262.197
20
209.896
30
0
0
VERTEX
8
CUT
10
262.566
20
210.084
30
0
0
VERTEX
8
CUT
10
262.981
20
210.150
30
0
0
SEQEND
8
CUT
0
POLYLINE
8
CUT
66
1
70
1
10
0
20
0
30
0
0
VERTEX
8
CUT
10
282.169
20
218.150
30
0
0
VERTEX
8
CUT
10
282.584
20
218.084
30
0
0
VERTEX
8
CUT
10
282.953
20
217.896
30
0
0
VERTEX
8
CUT
10
283.246
20
217.603
30
0
0
VERTEX
8
CUT
10
283.434
20
217.234
30
0
0
VERTEX
8
CUT
10
283.500
20
216.819
30
0
0
VERTEX
8
CUT
10
283.500
20
216.631
30
0
0
VERTEX
8
CUT
10
283.434
20
216.216
30
0
0
VERTEX
8
CUT
10
283.246
20
215.847
30
0
0
VERTEX
8
CUT
10
282.953
20
215.554
30
0
0
VERTEX
8
CUT
10
282.584
20
215.366
30
0
0
VERTEX
8
CUT
10
282.169
20
215.300
30
0
0
VERTEX
8
CUT
10
262.981
20
215.300
30
0
0
VERTEX
8
CUT
10
262.566
20
215.366
30
0
0
VERTEX
8
CUT
10
262.197
20
215.554
30
0
0
VERTEX
8
CUT
10
261.904
20
215.847
30
0
0
VERTEX
8
CUT
10
261.716
20
216.216
30
0
0
VERTEX
8
CUT
10
261.650
20
216.631
30
0
0
VERTEX
8
CUT
10
261.650
20
216.819
30
0
0
VERTEX
8
CUT
10
261.716
20
217.234
30
0
0
VERTEX
8
CUT
10
261.904
20
217.603
30
0
0
VERTEX
8
CUT
10
262.197
20
217.896
30
0
0
VERTEX
8
CUT
10
262.566
20
218.084
30
0
0
VERTEX
8
CUT
10
262.981
20
218.150
30
0
0
SEQEND
8
CUT
0
POLYLINE
8
CUT
66
1
70
1
10
0
20
0
30
0
0
VERTEX
8
CUT
10
282.169
20
282.150
30
0
0
VERTEX
8
CUT
10
282.584
20
282.084
30
0
0
VERTEX
8
CUT
10
282.953
20
281.896
30
0
0
VERTEX
8
CUT
10
283.246
20
281.603
30
0
0
VERTEX
8
CUT
10
283.434
20
281.234
30
0
0
VERTEX
8
CUT
10
283.500
20
280.819
30
0
0
VERTEX
8
CUT
10
283.500
20
280.631
30
0
0
VERTEX
8
CUT
10
283.434
20
280.216
30
0
0
VERTEX
8
CUT
10
283.246
20
279.847
30
0
0
VERTEX
8
CUT
10
282.953
20
279.554
30
0
0
VERTEX
8
CUT
10
282.584
20
279.366
30
0
0
VERTEX
8
CUT
10
282.169
20
279.300
30
0
0
VERTEX
8
CUT
10
262.981
20
279.300
30
0
0
VERTEX
8
CUT
10
262.566
20
279.366
30
0
0
VERTEX
8
CUT
10
262.197
20
279.554
30
0
0
VERTEX
8
CUT
10
261.904
20
279.847
30
0
0
VERTEX
8
CUT
10
261.716
20
280.216
30
0
0
VERTEX
8
CUT
10
261.650
20
280.631
30
0
0
VERTEX
8
CUT
10
261.650
20
280.819
30
0
0
VERTEX
8
CUT
10
261.716
20
281.234
30
0
0
VERTEX
8
CUT
10
261.904
20
281.603
30
0
0
VERTEX
8
CUT
10
262.197
20
281.896
30
0
0
VERTEX
8
CUT
10
262.566
20
282.084
30
0
0
VERTEX
8
CUT
10
262.981
20
282.150
30
0
0
SEQEND
8
CUT
0
POLYLINE
8
CUT
66
1
70
1
10
0
20
0
30
0
0
VERTEX
8
CUT
10
282.169
20
290.150
30
0
0
VERTEX
8
CUT
10
282.584
20
290.084
30
0
0
VERTEX
8
CUT
10
282.953
20
289.896
30
0
0
VERTEX
8
CUT
10
283.246
20
289.603
30
0
0
VERTEX
8
CUT
10
283.434
20
289.234
30
0
0
VERTEX
8
CUT
10
283.500
20
288.819
30
0
0
VERTEX
8
CUT
10
283.500
20
288.631
30
0
0
VERTEX
8
CUT
10
283.434
20
288.216
30
0
0
VERTEX
8
CUT
10
283.246
20
287.847
30
0
0
VERTEX
8
CUT
10
282.953
20
287.554
30
0
0
VERTEX
8
CUT
10
282.584
20
287.366
30
0
0
VERTEX
8
CUT
10
282.169
20
287.300
30
0
0
VERTEX
8
CUT
10
262.981
20
287.300
30
0
0
VERTEX
8
CUT
10
262.566
20
287.366
30
0
0
VERTEX
8
CUT
10
262.197
20
287.554
30
0
0
VERTEX
8
CUT
10
261.904
20
287.847
30
0
0
VERTEX
8
CUT
10
261.716
20
288.216
30
0
0
VERTEX
8
CUT
10
261.650
20
288.631
30
0
0
VERTEX
8
CUT
10
261.650
20
288.819
30
0
0
VERTEX
8
CUT
10
261.716
20
289.234
30
0
0
VERTEX
8
CUT
10
261.904
20
289.603
30
0
0
VERTEX
8
CUT
10
262.197
20
289.896
30
0
0
VERTEX
8
CUT
10
262.566
20
290.084
30
0
0
VERTEX
8
CUT
10
262.981
20
290.150
30
0
0
SEQEND
8
CUT
0
POLYLINE
8
CUT
66
1
70
1
10
0
20
0
30
0
0
VERTEX
8
CUT
10
175.563
20
203.250
30
0
0
VERTEX
8
CUT
10
175.563
20
206.200
30
0
0
VERTEX
8
CUT
10
185.512
20
206.200
30
0
0
VERTEX
8
CUT
10
185.512
20
203.250
30
0
0
SEQEND
8
CUT
0
POLYLINE
8
CUT
66
1
70
1
10
0
20
0
30
0
0
VERTEX
8
CUT
10
212.487
20
203.250
30
0
0
VERTEX
8
CUT
10
212.487
20
206.200
30
0
0
VERTEX
8
CUT
10
222.438
20
206.200
30
0
0
VERTEX
8
CUT
10
222.438
20
203.250
30
0
0
SEQEND
8
CUT
0
POLYLINE
8
CUT
66
1
70
1
10
0
20
0
30
0
0
VERTEX
8
CUT
10
249.412
20
203.250
30
0
0
VERTEX
8
CUT
10
249.412
20
206.200
30
0
0
VERTEX
8
CUT
10
259.363
20
206.200
30
0
0
VERTEX
8
CUT
10
259.363
20
203.250
30
0
0
SEQEND
8
CUT
0
POLYLINE
8
CUT
66
1
70
1
10
0
20
0
30
0
0
VERTEX
8
CUT
10
286.337
20
203.250
30
0
0
VERTEX
8
CUT
10
286.337
20
206.200
30
0
0
VERTEX
8
CUT
10
296.287
20
206.200
30
0
0
VERTEX
8
CUT
10
296.287
20
203.250
30
0
0
SEQEND
8
CUT
0
POLYLINE
8
CUT
66
1
70
1
10
0
20
0
30
0
0
VERTEX
8
CUT
10
166.500
20
200.150
30
0
0
VERTEX
8
CUT
10
166.500
20
203.150
30
0
0
VERTEX
8
CUT
10
160.000
20
203.150
30
0
0
VERTEX
8
CUT
10
160.000
20
291.000
30
0
0
VERTEX
8
CUT
10
166.500
20
291.000
30
0
0
VERTEX
8
CUT
10
166.500
20
297.000
30
0
0
VERTEX
8
CUT
10
311.850
20
297.000
30
0
0
VERTEX
8
CUT
10
311.850
20
273.300
30
0
0
VERTEX
8
CUT
10
315.150
20
273.300
30
0
0
VERTEX
8
CUT
10
315.150
20
261.150
30
0
0
VERTEX
8
CUT
10
311.850
20
261.150
30
0
0
VERTEX
8
CUT
10
311.850
20
233.300
30
0
0
VERTEX
8
CUT
10
315.150
20
233.300
30
0
0
VERTEX
8
CUT
10
315.150
20
221.150
30
0
0
VERTEX
8
CUT
10
311.850
20
221.150
30
0
0
VERTEX
8
CUT
10
311.850
20
200.150
30
0
0
SEQEND
8
CUT
0
POLYLINE
8
CUT
66
1
70
1
10
0
20
0
30
0
0
VERTEX
8
CUT
10
338.850
20
192.419
30
0
0
VERTEX
8
CUT
10
339.043
20
193.638
30
0
0
VERTEX
8
CUT
10
339.600
20
194.732
30
0
0
VERTEX
8
CUT
10
340.468
20
195.600
30
0
0
VERTEX
8
CUT
10
341.562
20
196.157
30
0
0
VERTEX
8
CUT
10
342.781
20
196.350
30
0
0
VERTEX
8
CUT
10
387.769
20
196.350
30
0
0
VERTEX
8
CUT
10
388.988
20
196.157
30
0
0
VERTEX
8
CUT
10
390.082
20
195.600
30
0
0
VERTEX
8
CUT
10
390.950
20
194.732
30
0
0
VERTEX
8
CUT
10
391.507
20
193.638
30
0
0
VERTEX
8
CUT
10
391.700
20
192.419
30
0
0
VERTEX
8
CUT
10
391.700
20
181.431
30
0
0
VERTEX
8
CUT
10
391.507
20
180.212
30
0
0
VERTEX
8
CUT
10
390.950
20
179.118
30
0
0
VERTEX
8
CUT
10
390.082
20
178.250
30
0
0
VERTEX
8
CUT
10
388.988
20
177.693
30
0
0
VERTEX
8
CUT
10
387.769
20
177.500
30
0
0
VERTEX
8
CUT
10
342.781
20
177.500
30
0
0
VERTEX
8
CUT
10
341.562
20
177.693
30
0
0
VERTEX
8
CUT
10
340.468
20
178.250
30
0
0
VERTEX
8
CUT
10
339.600
20
179.118
30
0
0
VERTEX
8
CUT
10
339.043
20
180.212
30
0
0
VERTEX
8
CUT
10
338.850
20
181.431
30
0
0
SEQEND
8
CUT
0
POLYLINE
8
CUT
66
1
70
1
10
0
20
0
30
0
0
VERTEX
8
CUT
10
338.850
20
237.419
30
0
0
VERTEX
8
CUT
10
339.043
20
238.638
30
0
0
VERTEX
8
CUT
10
339.600
20
239.732
30
0
0
VERTEX
8
CUT
10
340.468
20
240.600
30
0
0
VERTEX
8
CUT
10
341.562
20
241.157
30
0
0
VERTEX
8
CUT
10
342.781
20
241.350
30
0
0
VERTEX
8
CUT
10
387.769
20
241.350
30
0
0
VERTEX
8
CUT
10
388.988
20
241.157
30
0
0
VERTEX
8
CUT
10
390.082
20
240.600
30
0
0
VERTEX
8
CUT
10
390.950
20
239.732
30
0
0
VERTEX
8
CUT
10
391.507
20
238.638
30
0
0
VERTEX
8
CUT
10
391.700
20
237.419
30
0
0
VERTEX
8
CUT
10
391.700
20
226.431
30
0
0
VERTEX
8
CUT
10
391.507
20
225.212
30
0
0
VERTEX
8
CUT
10
390.950
20
224.118
30
0
0
VERTEX
8
CUT
10
390.082
20
223.250
30
0
0
VERTEX
8
CUT
10
388.988
20
222.693
30
0
0
VERTEX
8
CUT
10
387.769
20
222.500
30
0
0
VERTEX
8
CUT
10
342.781
20
222.500
30
0
0
VERTEX
8
CUT
10
341.562
20
222.693
30
0
0
VERTEX
8
CUT
10
340.468
20
223.250
30
0
0
VERTEX
8
CUT
10
339.600
20
224.118
30
0
0
VERTEX
8
CUT
10
339.043
20
225.212
30
0
0
VERTEX
8
CUT
10
338.850
20
226.431
30
0
0
SEQEND
8
CUT
0
POLYLINE
8
CUT
66
1
70
1
10
0
20
0
30
0
0
VERTEX
8
CUT
10
338.850
20
283.919
30
0
0
VERTEX
8
CUT
10
339.043
20
285.138
30
0
0
VERTEX
8
CUT
10
339.600
20
286.232
30
0
0
VERTEX
8
CUT
10
340.468
20
287.100
30
0
0
VERTEX
8
CUT
10
341.562
20
287.657
30
0
0
VERTEX
8
CUT
10
342.781
20
287.850
30
0
0
VERTEX
8
CUT
10
387.769
20
287.850
30
0
0
VERTEX
8
CUT
10
388.988
20
287.657
30
0
0
VERTEX
8
CUT
10
390.082
20
287.100
30
0
0
VERTEX
8
CUT
10
390.950
20
286.232
30
0
0
VERTEX
8
CUT
10
391.507
20
285.138
30
0
0
VERTEX
8
CUT
10
391.700
20
283.919
30
0
0
VERTEX
8
CUT
10
391.700
20
271.431
30
0
0
VERTEX
8
CUT
10
391.507
20
270.212
30
0
0
VERTEX
8
CUT
10
390.950
20
269.118
30
0
0
VERTEX
8
CUT
10
390.082
20
268.250
30
0
0
VERTEX
8
CUT
10
388.988
20
267.693
30
0
0
VERTEX
8
CUT
10
387.769
20
267.500
30
0
0
VERTEX
8
CUT
10
342.781
20
267.500
30
0
0
VERTEX
8
CUT
10
341.562
20
267.693
30
0
0
VERTEX
8
CUT
10
340.468
20
268.250
30
0
0
VERTEX
8
CUT
10
339.600
20
269.118
30
0
0
VERTEX
8
CUT
10
339.043
20
270.212
30
0
0
VERTEX
8
CUT
10
338.850
20
271.431
30
0
0
SEQEND
8
CUT
0
POLYLINE
8
CUT
66
1
70
1
10
0
20
0
30
0
0
VERTEX
8
CUT
10
403.850
20
174.019
30
0
0
VERTEX
8
CUT
10
403.916
20
174.434
30
0
0
VERTEX
8
CUT
10
404.104
20
174.803
30
0
0
VERTEX
8
CUT
10
404.397
20
175.096
30
0
0
VERTEX
8
CUT
10
404.766
20
175.284
30
0
0
VERTEX
8
CUT
10
405.181
20
175.350
30
0
0
VERTEX
8
CUT
10
405.369
20
175.350
30
0
0
VERTEX
8
CUT
10
405.784
20
175.284
30
0
0
VERTEX
8
CUT
10
406.153
20
175.096
30
0
0
VERTEX
8
CUT
10
406.446
20
174.803
30
0
0
VERTEX
8
CUT
10
406.634
20
174.434
30
0
0
VERTEX
8
CUT
10
406.700
20
174.019
30
0
0
VERTEX
8
CUT
10
406.700
20
154.831
30
0
0
VERTEX
8
CUT
10
406.634
20
154.416
30
0
0
VERTEX
8
CUT
10
406.446
20
154.047
30
0
0
VERTEX
8
CUT
10
406.153
20
153.754
30
0
0
VERTEX
8
CUT
10
405.784
20
153.566
30
0
0
VERTEX
8
CUT
10
405.369
20
153.500
30
0
0
VERTEX
8
CUT
10
405.181
20
153.500
30
0
0
VERTEX
8
CUT
10
404.766
20
153.566
30
0
0
VERTEX
8
CUT
10
404.397
20
153.754
30
0
0
VERTEX
8
CUT
10
404.104
20
154.047
30
0
0
VERTEX
8
CUT
10
403.916
20
154.416
30
0
0
VERTEX
8
CUT
10
403.850
20
154.831
30
0
0
SEQEND
8
CUT
0
POLYLINE
8
CUT
66
1
70
1
10
0
20
0
30
0
0
VERTEX
8
CUT
10
395.850
20
174.019
30
0
0
VERTEX
8
CUT
10
395.916
20
174.434
30
0
0
VERTEX
8
CUT
10
396.104
20
174.803
30
0
0
VERTEX
8
CUT
10
396.397
20
175.096
30
0
0
VERTEX
8
CUT
10
396.766
20
175.284
30
0
0
VERTEX
8
CUT
10
397.181
20
175.350
30
0
0
VERTEX
8
CUT
10
397.369
20
175.350
30
0
0
VERTEX
8
CUT
10
397.784
20
175.284
30
0
0
VERTEX
8
CUT
10
398.153
20
175.096
30
0
0
VERTEX
8
CUT
10
398.446
20
174.803
30
0
0
VERTEX
8
CUT
10
398.634
20
174.434
30
0
0
VERTEX
8
CUT
10
398.700
20
174.019
30
0
0
VERTEX
8
CUT
10
398.700
20
154.831
30
0
0
VERTEX
8
CUT
10
398.634
20
154.416
30
0
0
VERTEX
8
CUT
10
398.446
20
154.047
30
0
0
VERTEX
8
CUT
10
398.153
20
153.754
30
0
0
VERTEX
8
CUT
10
397.784
20
153.566
30
0
0
VERTEX
8
CUT
10
397.369
20
153.500
30
0
0
VERTEX
8
CUT
10
397.181
20
153.500
30
0
0
VERTEX
8
CUT
10
396.766
20
153.566
30
0
0
VERTEX
8
CUT
10
396.397
20
153.754
30
0
0
VERTEX
8
CUT
10
396.104
20
154.047
30
0
0
VERTEX
8
CUT
10
395.916
20
154.416
30
0
0
VERTEX
8
CUT
10
395.850
20
154.831
30
0
0
SEQEND
8
CUT
0
POLYLINE
8
CUT
66
1
70
1
10
0
20
0
30
0
0
VERTEX
8
CUT
10
331.850
20
174.019
30
0
0
VERTEX
8
CUT
10
331.916
20
174.434
30
0
0
VERTEX
8
CUT
10
332.104
20
174.803
30
0
0
VERTEX
8
CUT
10
332.397
20
175.096
30
0
0
VERTEX
8
CUT
10
332.766
20
175.284
30
0
0
VERTEX
8
CUT
10
333.181
20
175.350
30
0
0
VERTEX
8
CUT
10
333.369
20
175.350
30
0
0
VERTEX
8
CUT
10
333.784
20
175.284
30
0
0
VERTEX
8
CUT
10
334.153
20
175.096
30
0
0
VERTEX
8
CUT
10
334.446
20
174.803
30
0
0
VERTEX
8
CUT
10
334.634
20
174.434
30
0
0
VERTEX
8
CUT
10
334.700
20
174.019
30
0
0
VERTEX
8
CUT
10
334.700
20
154.831
30
0
0
VERTEX
8
CUT
10
334.634
20
154.416
30
0
0
VERTEX
8
CUT
10
334.446
20
154.047
30
0
0
VERTEX
8
CUT
10
334.153
20
153.754
30
0
0
VERTEX
8
CUT
10
333.784
20
153.566
30
0
0
VERTEX
8
CUT
10
333.369
20
153.500
30
0
0
VERTEX
8
CUT
10
333.181
20
153.500
30
0
0
VERTEX
8
CUT
10
332.766
20
153.566
30
0
0
VERTEX
8
CUT
10
332.397
20
153.754
30
0
0
VERTEX
8
CUT
10
332.104
20
154.047
30
0
0
VERTEX
8
CUT
10
331.916
20
154.416
30
0
0
VERTEX
8
CUT
10
331.850
20
154.831
30
0
0
SEQEND
8
CUT
0
POLYLINE
8
CUT
66
1
70
1
10
0
20
0
30
0
0
VERTEX
8
CUT
10
323.850
20
174.019
30
0
0
VERTEX
8
CUT
10
323.916
20
174.434
30
0
0
VERTEX
8
CUT
10
324.104
20
174.803
30
0
0
VERTEX
8
CUT
10
324.397
20
175.096
30
0
0
VERTEX
8
CUT
10
324.766
20
175.284
30
0
0
VERTEX
8
CUT
10
325.181
20
175.350
30
0
0
VERTEX
8
CUT
10
325.369
20
175.350
30
0
0
VERTEX
8
CUT
10
325.784
20
175.284
30
0
0
VERTEX
8
CUT
10
326.153
20
175.096
30
0
0
VERTEX
8
CUT
10
326.446
20
174.803
30
0
0
VERTEX
8
CUT
10
326.634
20
174.434
30
0
0
VERTEX
8
CUT
10
326.700
20
174.019
30
0
0
VERTEX
8
CUT
10
326.700
20
154.831
30
0
0
VERTEX
8
CUT
10
326.634
20
154.416
30
0
0
VERTEX
8
CUT
10
326.446
20
154.047
30
0
0
VERTEX
8
CUT
10
326.153
20
153.754
30
0
0
VERTEX
8
CUT
10
325.784
20
153.566
30
0
0
VERTEX
8
CUT
10
325.369
20
153.500
30
0
0
VERTEX
8
CUT
10
325.181
20
153.500
30
0
0
VERTEX
8
CUT
10
324.766
20
153.566
30
0
0
VERTEX
8
CUT
10
324.397
20
153.754
30
0
0
VERTEX
8
CUT
10
324.104
20
154.047
30
0
0
VERTEX
8
CUT
10
323.916
20
154.416
30
0
0
VERTEX
8
CUT
10
323.850
20
154.831
30
0
0
SEQEND
8
CUT
0
POLYLINE
8
CUT
66
1
70
1
10
0
20
0
30
0
0
VERTEX
8
CUT
10
403.850
20
219.019
30
0
0
VERTEX
8
CUT
10
403.916
20
219.434
30
0
0
VERTEX
8
CUT
10
404.104
20
219.803
30
0
0
VERTEX
8
CUT
10
404.397
20
220.096
30
0
0
VERTEX
8
CUT
10
404.766
20
220.284
30
0
0
VERTEX
8
CUT
10
405.181
20
220.350
30
0
0
VERTEX
8
CUT
10
405.369
20
220.350
30
0
0
VERTEX
8
CUT
10
405.784
20
220.284
30
0
0
VERTEX
8
CUT
10
406.153
20
220.096
30
0
0
VERTEX
8
CUT
10
406.446
20
219.803
30
0
0
VERTEX
8
CUT
10
406.634
20
219.434
30
0
0
VERTEX
8
CUT
10
406.700
20
219.019
30
0
0
VERTEX
8
CUT
10
406.700
20
199.831
30
0
0
VERTEX
8
CUT
10
406.634
20
199.416
30
0
0
VERTEX
8
CUT
10
406.446
20
199.047
30
0
0
VERTEX
8
CUT
10
406.153
20
198.754
30
0
0
VERTEX
8
CUT
10
405.784
20
198.566
30
0
0
VERTEX
8
CUT
10
405.369
20
198.500
30
0
0
VERTEX
8
CUT
10
405.181
20
198.500
30
0
0
VERTEX
8
CUT
10
404.766
20
198.566
30
0
0
VERTEX
8
CUT
10
404.397
20
198.754
30
0
0
VERTEX
8
CUT
10
404.104
20
199.047
30
0
0
VERTEX
8
CUT
10
403.916
20
199.416
30
0
0
VERTEX
8
CUT
10
403.850
20
199.831
30
0
0
SEQEND
8
CUT
0
POLYLINE
8
CUT
66
1
70
1
10
0
20
0
30
0
0
VERTEX
8
CUT
10
395.850
20
219.019
30
0
0
VERTEX
8
CUT
10
395.916
20
219.434
30
0
0
VERTEX
8
CUT
10
396.104
20
219.803
30
0
0
VERTEX
8
CUT
10
396.397
20
220.096
30
0
0
VERTEX
8
CUT
10
396.766
20
220.284
30
0
0
VERTEX
8
CUT
10
397.181
20
220.350
30
0
0
VERTEX
8
CUT
10
397.369
20
220.350
30
0
0
VERTEX
8
CUT
10
397.784
20
220.284
30
0
0
VERTEX
8
CUT
10
398.153
20
220.096
30
0
0
VERTEX
8
CUT
10
398.446
20
219.803
30
0
0
VERTEX
8
CUT
10
398.634
20
219.434
30
0
0
VERTEX
8
CUT
10
398.700
20
219.019
30
0
0
VERTEX
8
CUT
10
398.700
20
199.831
30
0
0
VERTEX
8
CUT
10
398.634
20
199.416
30
0
0
VERTEX
8
CUT
10
398.446
20
199.047
30
0
0
VERTEX
8
CUT
10
398.153
20
198.754
30
0
0
VERTEX
8
CUT
10
397.784
20
198.566
30
0
0
VERTEX
8
CUT
10
397.369
20
198.500
30
0
0
VERTEX
8
CUT
10
397.181
20
198.500
30
0
0
VERTEX
8
CUT
10
396.766
20
198.566
30
0
0
VERTEX
8
CUT
10
396.397
20
198.754
30
0
0
VERTEX
8
CUT
10
396.104
20
199.047
30
0
0
VERTEX
8
CUT
10
395.916
20
199.416
30
0
0
VERTEX
8
CUT
10
395.850
20
199.831
30
0
0
SEQEND
8
CUT
0
POLYLINE
8
CUT
66
1
70
1
10
0
20
0
30
0
0
VERTEX
8
CUT
10
331.850
20
219.019
30
0
0
VERTEX
8
CUT
10
331.916
20
219.434
30
0
0
VERTEX
8
CUT
10
332.104
20
219.803
30
0
0
VERTEX
8
CUT
10
332.397
20
220.096
30
0
0
VERTEX
8
CUT
10
332.766
20
220.284
30
0
0
VERTEX
8
CUT
10
333.181
20
220.350
30
0
0
VERTEX
8
CUT
10
333.369
20
220.350
30
0
0
VERTEX
8
CUT
10
333.784
20
220.284
30
0
0
VERTEX
8
CUT
10
334.153
20
220.096
30
0
0
VERTEX
8
CUT
10
334.446
20
219.803
30
0
0
VERTEX
8
CUT
10
334.634
20
219.434
30
0
0
VERTEX
8
CUT
10
334.700
20
219.019
30
0
0
VERTEX
8
CUT
10
334.700
20
199.831
30
0
0
VERTEX
8
CUT
10
334.634
20
199.416
30
0
0
VERTEX
8
CUT
10
334.446
20
199.047
30
0
0
VERTEX
8
CUT
10
334.153
20
198.754
30
0
0
VERTEX
8
CUT
10
333.784
20
198.566
30
0
0
VERTEX
8
CUT
10
333.369
20
198.500
30
0
0
VERTEX
8
CUT
10
333.181
20
198.500
30
0
0
VERTEX
8
CUT
10
332.766
20
198.566
30
0
0
VERTEX
8
CUT
10
332.397
20
198.754
30
0
0
VERTEX
8
CUT
10
332.104
20
199.047
30
0
0
VERTEX
8
CUT
10
331.916
20
199.416
30
0
0
VERTEX
8
CUT
10
331.850
20
199.831
30
0
0
SEQEND
8
CUT
0
POLYLINE
8
CUT
66
1
70
1
10
0
20
0
30
0
0
VERTEX
8
CUT
10
323.850
20
219.019
30
0
0
VERTEX
8
CUT
10
323.916
20
219.434
30
0
0
VERTEX
8
CUT
10
324.104
20
219.803
30
0
0
VERTEX
8
CUT
10
324.397
20
220.096
30
0
0
VERTEX
8
CUT
10
324.766
20
220.284
30
0
0
VERTEX
8
CUT
10
325.181
20
220.350
30
0
0
VERTEX
8
CUT
10
325.369
20
220.350
30
0
0
VERTEX
8
CUT
10
325.784
20
220.284
30
0
0
VERTEX
8
CUT
10
326.153
20
220.096
30
0
0
VERTEX
8
CUT
10
326.446
20
219.803
30
0
0
VERTEX
8
CUT
10
326.634
20
219.434
30
0
0
VERTEX
8
CUT
10
326.700
20
219.019
30
0
0
VERTEX
8
CUT
10
326.700
20
199.831
30
0
0
VERTEX
8
CUT
10
326.634
20
199.416
30
0
0
VERTEX
8
CUT
10
326.446
20
199.047
30
0
0
VERTEX
8
CUT
10
326.153
20
198.754
30
0
0
VERTEX
8
CUT
10
325.784
20
198.566
30
0
0
VERTEX
8
CUT
10
325.369
20
198.500
30
0
0
VERTEX
8
CUT
10
325.181
20
198.500
30
0
0
VERTEX
8
CUT
10
324.766
20
198.566
30
0
0
VERTEX
8
CUT
10
324.397
20
198.754
30
0
0
VERTEX
8
CUT
10
324.104
20
199.047
30
0
0
VERTEX
8
CUT
10
323.916
20
199.416
30
0
0
VERTEX
8
CUT
10
323.850
20
199.831
30
0
0
SEQEND
8
CUT
0
POLYLINE
8
CUT
66
1
70
1
10
0
20
0
30
0
0
VERTEX
8
CUT
10
403.850
20
264.019
30
0
0
VERTEX
8
CUT
10
403.916
20
264.434
30
0
0
VERTEX
8
CUT
10
404.104
20
264.803
30
0
0
VERTEX
8
CUT
10
404.397
20
265.096
30
0
0
VERTEX
8
CUT
10
404.766
20
265.284
30
0
0
VERTEX
8
CUT
10
405.181
20
265.350
30
0
0
VERTEX
8
CUT
10
405.369
20
265.350
30
0
0
VERTEX
8
CUT
10
405.784
20
265.284
30
0
0
VERTEX
8
CUT
10
406.153
20
265.096
30
0
0
VERTEX
8
CUT
10
406.446
20
264.803
30
0
0
VERTEX
8
CUT
10
406.634
20
264.434
30
0
0
VERTEX
8
CUT
10
406.700
20
264.019
30
0
0
VERTEX
8
CUT
10
406.700
20
244.831
30
0
0
VERTEX
8
CUT
10
406.634
20
244.416
30
0
0
VERTEX
8
CUT
10
406.446
20
244.047
30
0
0
VERTEX
8
CUT
10
406.153
20
243.754
30
0
0
VERTEX
8
CUT
10
405.784
20
243.566
30
0
0
VERTEX
8
CUT
10
405.369
20
243.500
30
0
0
VERTEX
8
CUT
10
405.181
20
243.500
30
0
0
VERTEX
8
CUT
10
404.766
20
243.566
30
0
0
VERTEX
8
CUT
10
404.397
20
243.754
30
0
0
VERTEX
8
CUT
10
404.104
20
244.047
30
0
0
VERTEX
8
CUT
10
403.916
20
244.416
30
0
0
VERTEX
8
CUT
10
403.850
20
244.831
30
0
0
SEQEND
8
CUT
0
POLYLINE
8
CUT
66
1
70
1
10
0
20
0
30
0
0
VERTEX
8
CUT
10
395.850
20
264.019
30
0
0
VERTEX
8
CUT
10
395.916
20
264.434
30
0
0
VERTEX
8
CUT
10
396.104
20
264.803
30
0
0
VERTEX
8
CUT
10
396.397
20
265.096
30
0
0
VERTEX
8
CUT
10
396.766
20
265.284
30
0
0
VERTEX
8
CUT
10
397.181
20
265.350
30
0
0
VERTEX
8
CUT
10
397.369
20
265.350
30
0
0
VERTEX
8
CUT
10
397.784
20
265.284
30
0
0
VERTEX
8
CUT
10
398.153
20
265.096
30
0
0
VERTEX
8
CUT
10
398.446
20
264.803
30
0
0
VERTEX
8
CUT
10
398.634
20
264.434
30
0
0
VERTEX
8
CUT
10
398.700
20
264.019
30
0
0
VERTEX
8
CUT
10
398.700
20
244.831
30
0
0
VERTEX
8
CUT
10
398.634
20
244.416
30
0
0
VERTEX
8
CUT
10
398.446
20
244.047
30
0
0
VERTEX
8
CUT
10
398.153
20
243.754
30
0
0
VERTEX
8
CUT
10
397.784
20
243.566
30
0
0
VERTEX
8
CUT
10
397.369
20
243.500
30
0
0
VERTEX
8
CUT
10
397.181
20
243.500
30
0
0
VERTEX
8
CUT
10
396.766
20
243.566
30
0
0
VERTEX
8
CUT
10
396.397
20
243.754
30
0
0
VERTEX
8
CUT
10
396.104
20
244.047
30
0
0
VERTEX
8
CUT
10
395.916
20
244.416
30
0
0
VERTEX
8
CUT
10
395.850
20
244.831
30
0
0
SEQEND
8
CUT
0
POLYLINE
8
CUT
66
1
70
1
10
0
20
0
30
0
0
VERTEX
8
CUT
10
331.850
20
264.019
30
0
0
VERTEX
8
CUT
10
331.916
20
264.434
30
0
0
VERTEX
8
CUT
10
332.104
20
264.803
30
0
0
VERTEX
8
CUT
10
332.397
20
265.096
30
0
0
VERTEX
8
CUT
10
332.766
20
265.284
30
0
0
VERTEX
8
CUT
10
333.181
20
265.350
30
0
0
VERTEX
8
CUT
10
333.369
20
265.350
30
0
0
VERTEX
8
CUT
10
333.784
20
265.284
30
0
0
VERTEX
8
CUT
10
334.153
20
265.096
30
0
0
VERTEX
8
CUT
10
334.446
20
264.803
30
0
0
VERTEX
8
CUT
10
334.634
20
264.434
30
0
0
VERTEX
8
CUT
10
334.700
20
264.019
30
0
0
VERTEX
8
CUT
10
334.700
20
244.831
30
0
0
VERTEX
8
CUT
10
334.634
20
244.416
30
0
0
VERTEX
8
CUT
10
334.446
20
244.047
30
0
0
VERTEX
8
CUT
10
334.153
20
243.754
30
0
0
VERTEX
8
CUT
10
333.784
20
243.566
30
0
0
VERTEX
8
CUT
10
333.369
20
243.500
30
0
0
VERTEX
8
CUT
10
333.181
20
243.500
30
0
0
VERTEX
8
CUT
10
332.766
20
243.566
30
0
0
VERTEX
8
CUT
10
332.397
20
243.754
30
0
0
VERTEX
8
CUT
10
332.104
20
244.047
30
0
0
VERTEX
8
CUT
10
331.916
20
244.416
30
0
0
VERTEX
8
CUT
10
331.850
20
244.831
30
0
0
SEQEND
8
CUT
0
POLYLINE
8
CUT
66
1
70
1
10
0
20
0
30
0
0
VERTEX
8
CUT
10
323.850
20
264.019
30
0
0
VERTEX
8
CUT
10
323.916
20
264.434
30
0
0
VERTEX
8
CUT
10
324.104
20
264.803
30
0
0
VERTEX
8
CUT
10
324.397
20
265.096
30
0
0
VERTEX
8
CUT
10
324.766
20
265.284
30
0
0
VERTEX
8
CUT
10
325.181
20
265.350
30
0
0
VERTEX
8
CUT
10
325.369
20
265.350
30
0
0
VERTEX
8
CUT
10
325.784
20
265.284
30
0
0
VERTEX
8
CUT
10
326.153
20
265.096
30
0
0
VERTEX
8
CUT
10
326.446
20
264.803
30
0
0
VERTEX
8
CUT
10
326.634
20
264.434
30
0
0
VERTEX
8
CUT
10
326.700
20
264.019
30
0
0
VERTEX
8
CUT
10
326.700
20
244.831
30
0
0
VERTEX
8
CUT
10
326.634
20
244.416
30
0
0
VERTEX
8
CUT
10
326.446
20
244.047
30
0
0
VERTEX
8
CUT
10
326.153
20
243.754
30
0
0
VERTEX
8
CUT
10
325.784
20
243.566
30
0
0
VERTEX
8
CUT
10
325.369
20
243.500
30
0
0
VERTEX
8
CUT
10
325.181
20
243.500
30
0
0
VERTEX
8
CUT
10
324.766
20
243.566
30
0
0
VERTEX
8
CUT
10
324.397
20
243.754
30
0
0
VERTEX
8
CUT
10
324.104
20
244.047
30
0
0
VERTEX
8
CUT
10
323.916
20
244.416
30
0
0
VERTEX
8
CUT
10
323.850
20
244.831
30
0
0
SEQEND
8
CUT
0
POLYLINE
8
CUT
66
1
70
1
10
0
20
0
30
0
0
VERTEX
8
CUT
10
410.750
20
157.412
30
0
0
VERTEX
8
CUT
10
407.800
20
157.412
30
0
0
VERTEX
8
CUT
10
407.800
20
167.362
30
0
0
VERTEX
8
CUT
10
410.750
20
167.362
30
0
0
SEQEND
8
CUT
0
POLYLINE
8
CUT
66
1
70
1
10
0
20
0
30
0
0
VERTEX
8
CUT
10
410.750
20
194.337
30
0
0
VERTEX
8
CUT
10
407.800
20
194.337
30
0
0
VERTEX
8
CUT
10
407.800
20
204.287
30
0
0
VERTEX
8
CUT
10
410.750
20
204.287
30
0
0
SEQEND
8
CUT
0
POLYLINE
8
CUT
66
1
70
1
10
0
20
0
30
0
0
VERTEX
8
CUT
10
410.750
20
231.262
30
0
0
VERTEX
8
CUT
10
407.800
20
231.262
30
0
0
VERTEX
8
CUT
10
407.800
20
241.213
30
0
0
VERTEX
8
CUT
10
410.750
20
241.213
30
0
0
SEQEND
8
CUT
0
POLYLINE
8
CUT
66
1
70
1
10
0
20
0
30
0
0
VERTEX
8
CUT
10
410.750
20
268.188
30
0
0
VERTEX
8
CUT
10
407.800
20
268.188
30
0
0
VERTEX
8
CUT
10
407.800
20
278.137
30
0
0
VERTEX
8
CUT
10
410.750
20
278.137
30
0
0
SEQEND
8
CUT
0
POLYLINE
8
CUT
66
1
70
1
10
0
20
0
30
0
0
VERTEX
8
CUT
10
413.850
20
148.350
30
0
0
VERTEX
8
CUT
10
410.850
20
148.350
30
0
0
VERTEX
8
CUT
10
410.850
20
141.850
30
0
0
VERTEX
8
CUT
10
323.000
20
141.850
30
0
0
VERTEX
8
CUT
10
323.000
20
148.350
30
0
0
VERTEX
8
CUT
10
317.000
20
148.350
30
0
0
VERTEX
8
CUT
10
317.000
20
293.700
30
0
0
VERTEX
8
CUT
10
340.700
20
293.700
30
0
0
VERTEX
8
CUT
10
340.700
20
297.000
30
0
0
VERTEX
8
CUT
10
352.850
20
297.000
30
0
0
VERTEX
8
CUT
10
352.850
20
293.700
30
0
0
VERTEX
8
CUT
10
380.700
20
293.700
30
0
0
VERTEX
8
CUT
10
380.700
20
297.000
30
0
0
VERTEX
8
CUT
10
392.850
20
297.000
30
0
0
VERTEX
8
CUT
10
392.850
20
293.700
30
0
0
VERTEX
8
CUT
10
413.850
20
293.700
30
0
0
SEQEND
8
CUT
0
POLYLINE
8
CUT
66
1
70
1
10
0
20
0
30
0
0
VERTEX
8
CUT
10
207.569
20
176.650
30
0
0
VERTEX
8
CUT
10
208.788
20
176.457
30
0
0
VERTEX
8
CUT
10
209.882
20
175.900
30
0
0
VERTEX
8
CUT
10
210.750
20
175.032
30
0
0
VERTEX
8
CUT
10
211.307
20
173.938
30
0
0
VERTEX
8
CUT
10
211.500
20
172.719
30
0
0
VERTEX
8
CUT
10
211.500
20
127.731
30
0
0
VERTEX
8
CUT
10
211.307
20
126.512
30
0
0
VERTEX
8
CUT
10
210.750
20
125.418
30
0
0
VERTEX
8
CUT
10
209.882
20
124.550
30
0
0
VERTEX
8
CUT
10
208.788
20
123.993
30
0
0
VERTEX
8
CUT
10
207.569
20
123.800
30
0
0
VERTEX
8
CUT
10
196.581
20
123.800
30
0
0
VERTEX
8
CUT
10
195.362
20
123.993
30
0
0
VERTEX
8
CUT
10
194.268
20
124.550
30
0
0
VERTEX
8
CUT
10
193.400
20
125.418
30
0
0
VERTEX
8
CUT
10
192.843
20
126.512
30
0
0
VERTEX
8
CUT
10
192.650
20
127.731
30
0
0
VERTEX
8
CUT
10
192.650
20
172.719
30
0
0
VERTEX
8
CUT
10
192.843
20
173.938
30
0
0
VERTEX
8
CUT
10
193.400
20
175.032
30
0
0
VERTEX
8
CUT
10
194.268
20
175.900
30
0
0
VERTEX
8
CUT
10
195.362
20
176.457
30
0
0
VERTEX
8
CUT
10
196.581
20
176.650
30
0
0
SEQEND
8
CUT
0
POLYLINE
8
CUT
66
1
70
1
10
0
20
0
30
0
0
VERTEX
8
CUT
10
252.569
20
176.650
30
0
0
VERTEX
8
CUT
10
253.788
20
176.457
30
0
0
VERTEX
8
CUT
10
254.882
20
175.900
30
0
0
VERTEX
8
CUT
10
255.750
20
175.032
30
0
0
VERTEX
8
CUT
10
256.307
20
173.938
30
0
0
VERTEX
8
CUT
10
256.500
20
172.719
30
0
0
VERTEX
8
CUT
10
256.500
20
127.731
30
0
0
VERTEX
8
CUT
10
256.307
20
126.512
30
0
0
VERTEX
8
CUT
10
255.750
20
125.418
30
0
0
VERTEX
8
CUT
10
254.882
20
124.550
30
0
0
VERTEX
8
CUT
10
253.788
20
123.993
30
0
0
VERTEX
8
CUT
10
252.569
20
123.800
30
0
0
VERTEX
8
CUT
10
241.581
20
123.800
30
0
0
VERTEX
8
CUT
10
240.362
20
123.993
30
0
0
VERTEX
8
CUT
10
239.268
20
124.550
30
0
0
VERTEX
8
CUT
10
238.400
20
125.418
30
0
0
VERTEX
8
CUT
10
237.843
20
126.512
30
0
0
VERTEX
8
CUT
10
237.650
20
127.731
30
0
0
VERTEX
8
CUT
10
237.650
20
172.719
30
0
0
VERTEX
8
CUT
10
237.843
20
173.938
30
0
0
VERTEX
8
CUT
10
238.400
20
175.032
30
0
0
VERTEX
8
CUT
10
239.268
20
175.900
30
0
0
VERTEX
8
CUT
10
240.362
20
176.457
30
0
0
VERTEX
8
CUT
10
241.581
20
176.650
30
0
0
SEQEND
8
CUT
0
POLYLINE
8
CUT
66
1
70
1
10
0
20
0
30
0
0
VERTEX
8
CUT
10
299.069
20
176.650
30
0
0
VERTEX
8
CUT
10
300.288
20
176.457
30
0
0
VERTEX
8
CUT
10
301.382
20
175.900
30
0
0
VERTEX
8
CUT
10
302.250
20
175.032
30
0
0
VERTEX
8
CUT
10
302.807
20
173.938
30
0
0
VERTEX
8
CUT
10
303.000
20
172.719
30
0
0
VERTEX
8
CUT
10
303.000
20
127.731
30
0
0
VERTEX
8
CUT
10
302.807
20
126.512
30
0
0
VERTEX
8
CUT
10
302.250
20
125.418
30
0
0
VERTEX
8
CUT
10
301.382
20
124.550
30
0
0
VERTEX
8
CUT
10
300.288
20
123.993
30
0
0
VERTEX
8
CUT
10
299.069
20
123.800
30
0
0
VERTEX
8
CUT
10
286.581
20
123.800
30
0
0
VERTEX
8
CUT
10
285.362
20
123.993
30
0
0
VERTEX
8
CUT
10
284.268
20
124.550
30
0
0
VERTEX
8
CUT
10
283.400
20
125.418
30
0
0
VERTEX
8
CUT
10
282.843
20
126.512
30
0
0
VERTEX
8
CUT
10
282.650
20
127.731
30
0
0
VERTEX
8
CUT
10
282.650
20
172.719
30
0
0
VERTEX
8
CUT
10
282.843
20
173.938
30
0
0
VERTEX
8
CUT
10
283.400
20
175.032
30
0
0
VERTEX
8
CUT
10
284.268
20
175.900
30
0
0
VERTEX
8
CUT
10
285.362
20
176.457
30
0
0
VERTEX
8
CUT
10
286.581
20
176.650
30
0
0
SEQEND
8
CUT
0
POLYLINE
8
CUT
66
1
70
1
10
0
20
0
30
0
0
VERTEX
8
CUT
10
189.169
20
111.650
30
0
0
VERTEX
8
CUT
10
189.584
20
111.584
30
0
0
VERTEX
8
CUT
10
189.953
20
111.396
30
0
0
VERTEX
8
CUT
10
190.246
20
111.103
30
0
0
VERTEX
8
CUT
10
190.434
20
110.734
30
0
0
VERTEX
8
CUT
10
190.500
20
110.319
30
0
0
VERTEX
8
CUT
10
190.500
20
110.131
30
0
0
VERTEX
8
CUT
10
190.434
20
109.716
30
0
0
VERTEX
8
CUT
10
190.246
20
109.347
30
0
0
VERTEX
8
CUT
10
189.953
20
109.054
30
0
0
VERTEX
8
CUT
10
189.584
20
108.866
30
0
0
VERTEX
8
CUT
10
189.169
20
108.800
30
0
0
VERTEX
8
CUT
10
169.981
20
108.800
30
0
0
VERTEX
8
CUT
10
169.566
20
108.866
30
0
0
VERTEX
8
CUT
10
169.197
20
109.054
30
0
0
VERTEX
8
CUT
10
168.904
20
109.347
30
0
0
VERTEX
8
CUT
10
168.716
20
109.716
30
0
0
VERTEX
8
CUT
10
168.650
20
110.131
30
0
0
VERTEX
8
CUT
10
168.650
20
110.319
30
0
0
VERTEX
8
CUT
10
168.716
20
110.734
30
0
0
VERTEX
8
CUT
10
168.904
20
111.103
30
0
0
VERTEX
8
CUT
10
169.197
20
111.396
30
0
0
VERTEX
8
CUT
10
169.566
20
111.584
30
0
0
VERTEX
8
CUT
10
169.981
20
111.650
30
0
0
SEQEND
8
CUT
0
POLYLINE
8
CUT
66
1
70
1
10
0
20
0
30
0
0
VERTEX
8
CUT
10
189.169
20
119.650
30
0
0
VERTEX
8
CUT
10
189.584
20
119.584
30
0
0
VERTEX
8
CUT
10
189.953
20
119.396
30
0
0
VERTEX
8
CUT
10
190.246
20
119.103
30
0
0
VERTEX
8
CUT
10
190.434
20
118.734
30
0
0
VERTEX
8
CUT
10
190.500
20
118.319
30
0
0
VERTEX
8
CUT
10
190.500
20
118.131
30
0
0
VERTEX
8
CUT
10
190.434
20
117.716
30
0
0
VERTEX
8
CUT
10
190.246
20
117.347
30
0
0
VERTEX
8
CUT
10
189.953
20
117.054
30
0
0
VERTEX
8
CUT
10
189.584
20
116.866
30
0
0
VERTEX
8
CUT
10
189.169
20
116.800
30
0
0
VERTEX
8
CUT
10
169.981
20
116.800
30
0
0
VERTEX
8
CUT
10
169.566
20
116.866
30
0
0
VERTEX
8
CUT
10
169.197
20
117.054
30
0
0
VERTEX
8
CUT
10
168.904
20
117.347
30
0
0
VERTEX
8
CUT
10
168.716
20
117.716
30
0
0
VERTEX
8
CUT
10
168.650
20
118.131
30
0
0
VERTEX
8
CUT
10
168.650
20
118.319
30
0
0
VERTEX
8
CUT
10
168.716
20
118.734
30
0
0
VERTEX
8
CUT
10
168.904
20
119.103
30
0
0
VERTEX
8
CUT
10
169.197
20
119.396
30
0
0
VERTEX
8
CUT
10
169.566
20
119.584
30
0
0
VERTEX
8
CUT
10
169.981
20
119.650
30
0
0
SEQEND
8
CUT
0
POLYLINE
8
CUT
66
1
70
1
10
0
20
0
30
0
0
VERTEX
8
CUT
10
189.169
20
183.650
30
0
0
VERTEX
8
CUT
10
189.584
20
183.584
30
0
0
VERTEX
8
CUT
10
189.953
20
183.396
30
0
0
VERTEX
8
CUT
10
190.246
20
183.103
30
0
0
VERTEX
8
CUT
10
190.434
20
182.734
30
0
0
VERTEX
8
CUT
10
190.500
20
182.319
30
0
0
VERTEX
8
CUT
10
190.500
20
182.131
30
0
0
VERTEX
8
CUT
10
190.434
20
181.716
30
0
0
VERTEX
8
CUT
10
190.246
20
181.347
30
0
0
VERTEX
8
CUT
10
189.953
20
181.054
30
0
0
VERTEX
8
CUT
10
189.584
20
180.866
30
0
0
VERTEX
8
CUT
10
189.169
20
180.800
30
0
0
VERTEX
8
CUT
10
169.981
20
180.800
30
0
0
VERTEX
8
CUT
10
169.566
20
180.866
30
0
0
VERTEX
8
CUT
10
169.197
20
181.054
30
0
0
VERTEX
8
CUT
10
168.904
20
181.347
30
0
0
VERTEX
8
CUT
10
168.716
20
181.716
30
0
0
VERTEX
8
CUT
10
168.650
20
182.131
30
0
0
VERTEX
8
CUT
10
168.650
20
182.319
30
0
0
VERTEX
8
CUT
10
168.716
20
182.734
30
0
0
VERTEX
8
CUT
10
168.904
20
183.103
30
0
0
VERTEX
8
CUT
10
169.197
20
183.396
30
0
0
VERTEX
8
CUT
10
169.566
20
183.584
30
0
0
VERTEX
8
CUT
10
169.981
20
183.650
30
0
0
SEQEND
8
CUT
0
POLYLINE
8
CUT
66
1
70
1
10
0
20
0
30
0
0
VERTEX
8
CUT
10
189.169
20
191.650
30
0
0
VERTEX
8
CUT
10
189.584
20
191.584
30
0
0
VERTEX
8
CUT
10
189.953
20
191.396
30
0
0
VERTEX
8
CUT
10
190.246
20
191.103
30
0
0
VERTEX
8
CUT
10
190.434
20
190.734
30
0
0
VERTEX
8
CUT
10
190.500
20
190.319
30
0
0
VERTEX
8
CUT
10
190.500
20
190.131
30
0
0
VERTEX
8
CUT
10
190.434
20
189.716
30
0
0
VERTEX
8
CUT
10
190.246
20
189.347
30
0
0
VERTEX
8
CUT
10
189.953
20
189.054
30
0
0
VERTEX
8
CUT
10
189.584
20
188.866
30
0
0
VERTEX
8
CUT
10
189.169
20
188.800
30
0
0
VERTEX
8
CUT
10
169.981
20
188.800
30
0
0
VERTEX
8
CUT
10
169.566
20
188.866
30
0
0
VERTEX
8
CUT
10
169.197
20
189.054
30
0
0
VERTEX
8
CUT
10
168.904
20
189.347
30
0
0
VERTEX
8
CUT
10
168.716
20
189.716
30
0
0
VERTEX
8
CUT
10
168.650
20
190.131
30
0
0
VERTEX
8
CUT
10
168.650
20
190.319
30
0
0
VERTEX
8
CUT
10
168.716
20
190.734
30
0
0
VERTEX
8
CUT
10
168.904
20
191.103
30
0
0
VERTEX
8
CUT
10
169.197
20
191.396
30
0
0
VERTEX
8
CUT
10
169.566
20
191.584
30
0
0
VERTEX
8
CUT
10
169.981
20
191.650
30
0
0
SEQEND
8
CUT
0
POLYLINE
8
CUT
66
1
70
1
10
0
20
0
30
0
0
VERTEX
8
CUT
10
234.169
20
111.650
30
0
0
VERTEX
8
CUT
10
234.584
20
111.584
30
0
0
VERTEX
8
CUT
10
234.953
20
111.396
30
0
0
VERTEX
8
CUT
10
235.246
20
111.103
30
0
0
VERTEX
8
CUT
10
235.434
20
110.734
30
0
0
VERTEX
8
CUT
10
235.500
20
110.319
30
0
0
VERTEX
8
CUT
10
235.500
20
110.131
30
0
0
VERTEX
8
CUT
10
235.434
20
109.716
30
0
0
VERTEX
8
CUT
10
235.246
20
109.347
30
0
0
VERTEX
8
CUT
10
234.953
20
109.054
30
0
0
VERTEX
8
CUT
10
234.584
20
108.866
30
0
0
VERTEX
8
CUT
10
234.169
20
108.800
30
0
0
VERTEX
8
CUT
10
214.981
20
108.800
30
0
0
VERTEX
8
CUT
10
214.566
20
108.866
30
0
0
VERTEX
8
CUT
10
214.197
20
109.054
30
0
0
VERTEX
8
CUT
10
213.904
20
109.347
30
0
0
VERTEX
8
CUT
10
213.716
20
109.716
30
0
0
VERTEX
8
CUT
10
213.650
20
110.131
30
0
0
VERTEX
8
CUT
10
213.650
20
110.319
30
0
0
VERTEX
8
CUT
10
213.716
20
110.734
30
0
0
VERTEX
8
CUT
10
213.904
20
111.103
30
0
0
VERTEX
8
CUT
10
214.197
20
111.396
30
0
0
VERTEX
8
CUT
10
214.566
20
111.584
30
0
0
VERTEX
8
CUT
10
214.981
20
111.650
30
0
0
SEQEND
8
CUT
0
POLYLINE
8
CUT
66
1
70
1
10
0
20
0
30
0
0
VERTEX
8
CUT
10
234.169
20
119.650
30
0
0
VERTEX
8
CUT
10
234.584
20
119.584
30
0
0
VERTEX
8
CUT
10
234.953
20
119.396
30
0
0
VERTEX
8
CUT
10
235.246
20
119.103
30
0
0
VERTEX
8
CUT
10
235.434
20
118.734
30
0
0
VERTEX
8
CUT
10
235.500
20
118.319
30
0
0
VERTEX
8
CUT
10
235.500
20
118.131
30
0
0
VERTEX
8
CUT
10
235.434
20
117.716
30
0
0
VERTEX
8
CUT
10
235.246
20
117.347
30
0
0
VERTEX
8
CUT
10
234.953
20
117.054
30
0
0
VERTEX
8
CUT
10
234.584
20
116.866
30
0
0
VERTEX
8
CUT
10
234.169
20
116.800
30
0
0
VERTEX
8
CUT
10
214.981
20
116.800
30
0
0
VERTEX
8
CUT
10
214.566
20
116.866
30
0
0
VERTEX
8
CUT
10
214.197
20
117.054
30
0
0
VERTEX
8
CUT
10
213.904
20
117.347
30
0
0
VERTEX
8
CUT
10
213.716
20
117.716
30
0
0
VERTEX
8
CUT
10
213.650
20
118.131
30
0
0
VERTEX
8
CUT
10
213.650
20
118.319
30
0
0
VERTEX
8
CUT
10
213.716
20
118.734
30
0
0
VERTEX
8
CUT
10
213.904
20
119.103
30
0
0
VERTEX
8
CUT
10
214.197
20
119.396
30
0
0
VERTEX
8
CUT
10
214.566
20
119.584
30
0
0
VERTEX
8
CUT
10
214.981
20
119.650
30
0
0
SEQEND
8
CUT
0
POLYLINE
8
CUT
66
1
70
1
10
0
20
0
30
0
0
VERTEX
8
CUT
10
234.169
20
183.650
30
0
0
VERTEX
8
CUT
10
234.584
20
183.584
30
0
0
VERTEX
8
CUT
10
234.953
20
183.396
30
0
0
VERTEX
8
CUT
10
235.246
20
183.103
30
0
0
VERTEX
8
CUT
10
235.434
20
182.734
30
0
0
VERTEX
8
CUT
10
235.500
20
182.319
30
0
0
VERTEX
8
CUT
10
235.500
20
182.131
30
0
0
VERTEX
8
CUT
10
235.434
20
181.716
30
0
0
VERTEX
8
CUT
10
235.246
20
181.347
30
0
0
VERTEX
8
CUT
10
234.953
20
181.054
30
0
0
VERTEX
8
CUT
10
234.584
20
180.866
30
0
0
VERTEX
8
CUT
10
234.169
20
180.800
30
0
0
VERTEX
8
CUT
10
214.981
20
180.800
30
0
0
VERTEX
8
CUT
10
214.566
20
180.866
30
0
0
VERTEX
8
CUT
10
214.197
20
181.054
30
0
0
VERTEX
8
CUT
10
213.904
20
181.347
30
0
0
VERTEX
8
CUT
10
213.716
20
181.716
30
0
0
VERTEX
8
CUT
10
213.650
20
182.131
30
0
0
VERTEX
8
CUT
10
213.650
20
182.319
30
0
0
VERTEX
8
CUT
10
213.716
20
182.734
30
0
0
VERTEX
8
CUT
10
213.904
20
183.103
30
0
0
VERTEX
8
CUT
10
214.197
20
183.396
30
0
0
VERTEX
8
CUT
10
214.566
20
183.584
30
0
0
VERTEX
8
CUT
10
214.981
20
183.650
30
0
0
SEQEND
8
CUT
0
POLYLINE
8
CUT
66
1
70
1
10
0
20
0
30
0
0
VERTEX
8
CUT
10
234.169
20
191.650
30
0
0
VERTEX
8
CUT
10
234.584
20
191.584
30
0
0
VERTEX
8
CUT
10
234.953
20
191.396
30
0
0
VERTEX
8
CUT
10
235.246
20
191.103
30
0
0
VERTEX
8
CUT
10
235.434
20
190.734
30
0
0
VERTEX
8
CUT
10
235.500
20
190.319
30
0
0
VERTEX
8
CUT
10
235.500
20
190.131
30
0
0
VERTEX
8
CUT
10
235.434
20
189.716
30
0
0
VERTEX
8
CUT
10
235.246
20
189.347
30
0
0
VERTEX
8
CUT
10
234.953
20
189.054
30
0
0
VERTEX
8
CUT
10
234.584
20
188.866
30
0
0
VERTEX
8
CUT
10
234.169
20
188.800
30
0
0
VERTEX
8
CUT
10
214.981
20
188.800
30
0
0
VERTEX
8
CUT
10
214.566
20
188.866
30
0
0
VERTEX
8
CUT
10
214.197
20
189.054
30
0
0
VERTEX
8
CUT
10
213.904
20
189.347
30
0
0
VERTEX
8
CUT
10
213.716
20
189.716
30
0
0
VERTEX
8
CUT
10
213.650
20
190.131
30
0
0
VERTEX
8
CUT
10
213.650
20
190.319
30
0
0
VERTEX
8
CUT
10
213.716
20
190.734
30
0
0
VERTEX
8
CUT
10
213.904
20
191.103
30
0
0
VERTEX
8
CUT
10
214.197
20
191.396
30
0
0
VERTEX
8
CUT
10
214.566
20
191.584
30
0
0
VERTEX
8
CUT
10
214.981
20
191.650
30
0
0
SEQEND
8
CUT
0
POLYLINE
8
CUT
66
1
70
1
10
0
20
0
30
0
0
VERTEX
8
CUT
10
279.169
20
111.650
30
0
0
VERTEX
8
CUT
10
279.584
20
111.584
30
0
0
VERTEX
8
CUT
10
279.953
20
111.396
30
0
0
VERTEX
8
CUT
10
280.246
20
111.103
30
0
0
VERTEX
8
CUT
10
280.434
20
110.734
30
0
0
VERTEX
8
CUT
10
280.500
20
110.319
30
0
0
VERTEX
8
CUT
10
280.500
20
110.131
30
0
0
VERTEX
8
CUT
10
280.434
20
109.716
30
0
0
VERTEX
8
CUT
10
280.246
20
109.347
30
0
0
VERTEX
8
CUT
10
279.953
20
109.054
30
0
0
VERTEX
8
CUT
10
279.584
20
108.866
30
0
0
VERTEX
8
CUT
10
279.169
20
108.800
30
0
0
VERTEX
8
CUT
10
259.981
20
108.800
30
0
0
VERTEX
8
CUT
10
259.566
20
108.866
30
0
0
VERTEX
8
CUT
10
259.197
20
109.054
30
0
0
VERTEX
8
CUT
10
258.904
20
109.347
30
0
0
VERTEX
8
CUT
10
258.716
20
109.716
30
0
0
VERTEX
8
CUT
10
258.650
20
110.131
30
0
0
VERTEX
8
CUT
10
258.650
20
110.319
30
0
0
VERTEX
8
CUT
10
258.716
20
110.734
30
0
0
VERTEX
8
CUT
10
258.904
20
111.103
30
0
0
VERTEX
8
CUT
10
259.197
20
111.396
30
0
0
VERTEX
8
CUT
10
259.566
20
111.584
30
0
0
VERTEX
8
CUT
10
259.981
20
111.650
30
0
0
SEQEND
8
CUT
0
POLYLINE
8
CUT
66
1
70
1
10
0
20
0
30
0
0
VERTEX
8
CUT
10
279.169
20
119.650
30
0
0
VERTEX
8
CUT
10
279.584
20
119.584
30
0
0
VERTEX
8
CUT
10
279.953
20
119.396
30
0
0
VERTEX
8
CUT
10
280.246
20
119.103
30
0
0
VERTEX
8
CUT
10
280.434
20
118.734
30
0
0
VERTEX
8
CUT
10
280.500
20
118.319
30
0
0
VERTEX
8
CUT
10
280.500
20
118.131
30
0
0
VERTEX
8
CUT
10
280.434
20
117.716
30
0
0
VERTEX
8
CUT
10
280.246
20
117.347
30
0
0
VERTEX
8
CUT
10
279.953
20
117.054
30
0
0
VERTEX
8
CUT
10
279.584
20
116.866
30
0
0
VERTEX
8
CUT
10
279.169
20
116.800
30
0
0
VERTEX
8
CUT
10
259.981
20
116.800
30
0
0
VERTEX
8
CUT
10
259.566
20
116.866
30
0
0
VERTEX
8
CUT
10
259.197
20
117.054
30
0
0
VERTEX
8
CUT
10
258.904
20
117.347
30
0
0
VERTEX
8
CUT
10
258.716
20
117.716
30
0
0
VERTEX
8
CUT
10
258.650
20
118.131
30
0
0
VERTEX
8
CUT
10
258.650
20
118.319
30
0
0
VERTEX
8
CUT
10
258.716
20
118.734
30
0
0
VERTEX
8
CUT
10
258.904
20
119.103
30
0
0
VERTEX
8
CUT
10
259.197
20
119.396
30
0
0
VERTEX
8
CUT
10
259.566
20
119.584
30
0
0
VERTEX
8
CUT
10
259.981
20
119.650
30
0
0
SEQEND
8
CUT
0
POLYLINE
8
CUT
66
1
70
1
10
0
20
0
30
0
0
VERTEX
8
CUT
10
279.169
20
183.650
30
0
0
VERTEX
8
CUT
10
279.584
20
183.584
30
0
0
VERTEX
8
CUT
10
279.953
20
183.396
30
0
0
VERTEX
8
CUT
10
280.246
20
183.103
30
0
0
VERTEX
8
CUT
10
280.434
20
182.734
30
0
0
VERTEX
8
CUT
10
280.500
20
182.319
30
0
0
VERTEX
8
CUT
10
280.500
20
182.131
30
0
0
VERTEX
8
CUT
10
280.434
20
181.716
30
0
0
VERTEX
8
CUT
10
280.246
20
181.347
30
0
0
VERTEX
8
CUT
10
279.953
20
181.054
30
0
0
VERTEX
8
CUT
10
279.584
20
180.866
30
0
0
VERTEX
8
CUT
10
279.169
20
180.800
30
0
0
VERTEX
8
CUT
10
259.981
20
180.800
30
0
0
VERTEX
8
CUT
10
259.566
20
180.866
30
0
0
VERTEX
8
CUT
10
259.197
20
181.054
30
0
0
VERTEX
8
CUT
10
258.904
20
181.347
30
0
0
VERTEX
8
CUT
10
258.716
20
181.716
30
0
0
VERTEX
8
CUT
10
258.650
20
182.131
30
0
0
VERTEX
8
CUT
10
258.650
20
182.319
30
0
0
VERTEX
8
CUT
10
258.716
20
182.734
30
0
0
VERTEX
8
CUT
10
258.904
20
183.103
30
0
0
VERTEX
8
CUT
10
259.197
20
183.396
30
0
0
VERTEX
8
CUT
10
259.566
20
183.584
30
0
0
VERTEX
8
CUT
10
259.981
20
183.650
30
0
0
SEQEND
8
CUT
0
POLYLINE
8
CUT
66
1
70
1
10
0
20
0
30
0
0
VERTEX
8
CUT
10
279.169
20
191.650
30
0
0
VERTEX
8
CUT
10
279.584
20
191.584
30
0
0
VERTEX
8
CUT
10
279.953
20
191.396
30
0
0
VERTEX
8
CUT
10
280.246
20
191.103
30
0
0
VERTEX
8
CUT
10
280.434
20
190.734
30
0
0
VERTEX
8
CUT
10
280.500
20
190.319
30
0
0
VERTEX
8
CUT
10
280.500
20
190.131
30
0
0
VERTEX
8
CUT
10
280.434
20
189.716
30
0
0
VERTEX
8
CUT
10
280.246
20
189.347
30
0
0
VERTEX
8
CUT
10
279.953
20
189.054
30
0
0
VERTEX
8
CUT
10
279.584
20
188.866
30
0
0
VERTEX
8
CUT
10
279.169
20
188.800
30
0
0
VERTEX
8
CUT
10
259.981
20
188.800
30
0
0
VERTEX
8
CUT
10
259.566
20
188.866
30
0
0
VERTEX
8
CUT
10
259.197
20
189.054
30
0
0
VERTEX
8
CUT
10
258.904
20
189.347
30
0
0
VERTEX
8
CUT
10
258.716
20
189.716
30
0
0
VERTEX
8
CUT
10
258.650
20
190.131
30
0
0
VERTEX
8
CUT
10
258.650
20
190.319
30
0
0
VERTEX
8
CUT
10
258.716
20
190.734
30
0
0
VERTEX
8
CUT
10
258.904
20
191.103
30
0
0
VERTEX
8
CUT
10
259.197
20
191.396
30
0
0
VERTEX
8
CUT
10
259.566
20
191.584
30
0
0
VERTEX
8
CUT
10
259.981
20
191.650
30
0
0
SEQEND
8
CUT
0
POLYLINE
8
CUT
66
1
70
1
10
0
20
0
30
0
0
VERTEX
8
CUT
10
172.563
20
104.750
30
0
0
VERTEX
8
CUT
10
172.563
20
107.700
30
0
0
VERTEX
8
CUT
10
182.512
20
107.700
30
0
0
VERTEX
8
CUT
10
182.512
20
104.750
30
0
0
SEQEND
8
CUT
0
POLYLINE
8
CUT
66
1
70
1
10
0
20
0
30
0
0
VERTEX
8
CUT
10
209.487
20
104.750
30
0
0
VERTEX
8
CUT
10
209.487
20
107.700
30
0
0
VERTEX
8
CUT
10
219.438
20
107.700
30
0
0
VERTEX
8
CUT
10
219.438
20
104.750
30
0
0
SEQEND
8
CUT
0
POLYLINE
8
CUT
66
1
70
1
10
0
20
0
30
0
0
VERTEX
8
CUT
10
246.412
20
104.750
30
0
0
VERTEX
8
CUT
10
246.412
20
107.700
30
0
0
VERTEX
8
CUT
10
256.363
20
107.700
30
0
0
VERTEX
8
CUT
10
256.363
20
104.750
30
0
0
SEQEND
8
CUT
0
POLYLINE
8
CUT
66
1
70
1
10
0
20
0
30
0
0
VERTEX
8
CUT
10
283.337
20
104.750
30
0
0
VERTEX
8
CUT
10
283.337
20
107.700
30
0
0
VERTEX
8
CUT
10
293.287
20
107.700
30
0
0
VERTEX
8
CUT
10
293.287
20
104.750
30
0
0
SEQEND
8
CUT
0
POLYLINE
8
CUT
66
1
70
1
10
0
20
0
30
0
0
VERTEX
8
CUT
10
163.500
20
101.650
30
0
0
VERTEX
8
CUT
10
163.500
20
104.650
30
0
0
VERTEX
8
CUT
10
157.000
20
104.650
30
0
0
VERTEX
8
CUT
10
157.000
20
192.500
30
0
0
VERTEX
8
CUT
10
163.500
20
192.500
30
0
0
VERTEX
8
CUT
10
163.500
20
198.500
30
0
0
VERTEX
8
CUT
10
308.850
20
198.500
30
0
0
VERTEX
8
CUT
10
308.850
20
174.800
30
0
0
VERTEX
8
CUT
10
312.150
20
174.800
30
0
0
VERTEX
8
CUT
10
312.150
20
162.650
30
0
0
VERTEX
8
CUT
10
308.850
20
162.650
30
0
0
VERTEX
8
CUT
10
308.850
20
134.800
30
0
0
VERTEX
8
CUT
10
312.150
20
134.800
30
0
0
VERTEX
8
CUT
10
312.150
20
122.650
30
0
0
VERTEX
8
CUT
10
308.850
20
122.650
30
0
0
VERTEX
8
CUT
10
308.850
20
101.650
30
0
0
SEQEND
8
CUT
0
POLYLINE
8
CUT
66
1
70
1
10
0
20
0
30
0
0
VERTEX
8
CUT
10
23.701
20
55.625
30
0
0
VERTEX
8
CUT
10
23.841
20
56.692
30
0
0
VERTEX
8
CUT
10
24.253
20
57.687
30
0
0
VERTEX
8
CUT
10
24.909
20
58.541
30
0
0
VERTEX
8
CUT
10
25.763
20
59.197
30
0
0
VERTEX
8
CUT
10
26.758
20
59.609
30
0
0
VERTEX
8
CUT
10
27.825
20
59.749
30
0
0
VERTEX
8
CUT
10
28.892
20
59.609
30
0
0
VERTEX
8
CUT
10
29.887
20
59.197
30
0
0
VERTEX
8
CUT
10
30.741
20
58.541
30
0
0
VERTEX
8
CUT
10
31.397
20
57.687
30
0
0
VERTEX
8
CUT
10
31.809
20
56.692
30
0
0
VERTEX
8
CUT
10
31.949
20
55.625
30
0
0
VERTEX
8
CUT
10
31.809
20
54.558
30
0
0
VERTEX
8
CUT
10
31.397
20
53.563
30
0
0
VERTEX
8
CUT
10
30.741
20
52.709
30
0
0
VERTEX
8
CUT
10
29.887
20
52.053
30
0
0
VERTEX
8
CUT
10
28.892
20
51.641
30
0
0
VERTEX
8
CUT
10
27.825
20
51.501
30
0
0
VERTEX
8
CUT
10
26.758
20
51.641
30
0
0
VERTEX
8
CUT
10
25.763
20
52.053
30
0
0
VERTEX
8
CUT
10
24.909
20
52.709
30
0
0
VERTEX
8
CUT
10
24.253
20
53.563
30
0
0
VERTEX
8
CUT
10
23.841
20
54.558
30
0
0
SEQEND
8
CUT
0
POLYLINE
8
CUT
66
1
70
1
10
0
20
0
30
0
0
VERTEX
8
CUT
10
17.702
20
55.625
30
0
0
VERTEX
8
CUT
10
17.863
20
56.329
30
0
0
VERTEX
8
CUT
10
18.313
20
56.894
30
0
0
VERTEX
8
CUT
10
18.964
20
57.207
30
0
0
VERTEX
8
CUT
10
19.686
20
57.207
30
0
0
VERTEX
8
CUT
10
20.337
20
56.894
30
0
0
VERTEX
8
CUT
10
20.787
20
56.329
30
0
0
VERTEX
8
CUT
10
20.948
20
55.625
30
0
0
VERTEX
8
CUT
10
20.787
20
54.921
30
0
0
VERTEX
8
CUT
10
20.337
20
54.356
30
0
0
VERTEX
8
CUT
10
19.686
20
54.043
30
0
0
VERTEX
8
CUT
10
18.964
20
54.043
30
0
0
VERTEX
8
CUT
10
18.313
20
54.356
30
0
0
VERTEX
8
CUT
10
17.863
20
54.921
30
0
0
SEQEND
8
CUT
0
POLYLINE
8
CUT
66
1
70
1
10
0
20
0
30
0
0
VERTEX
8
CUT
10
34.702
20
55.625
30
0
0
VERTEX
8
CUT
10
34.863
20
56.329
30
0
0
VERTEX
8
CUT
10
35.313
20
56.894
30
0
0
VERTEX
8
CUT
10
35.964
20
57.207
30
0
0
VERTEX
8
CUT
10
36.686
20
57.207
30
0
0
VERTEX
8
CUT
10
37.337
20
56.894
30
0
0
VERTEX
8
CUT
10
37.787
20
56.329
30
0
0
VERTEX
8
CUT
10
37.948
20
55.625
30
0
0
VERTEX
8
CUT
10
37.787
20
54.921
30
0
0
VERTEX
8
CUT
10
37.337
20
54.356
30
0
0
VERTEX
8
CUT
10
36.686
20
54.043
30
0
0
VERTEX
8
CUT
10
35.964
20
54.043
30
0
0
VERTEX
8
CUT
10
35.313
20
54.356
30
0
0
VERTEX
8
CUT
10
34.863
20
54.921
30
0
0
SEQEND
8
CUT
0
POLYLINE
8
CUT
66
1
70
1
10
0
20
0
30
0
0
VERTEX
8
CUT
10
133.200
20
55.719
30
0
0
VERTEX
8
CUT
10
133.300
20
56.350
30
0
0
VERTEX
8
CUT
10
133.587
20
56.915
30
0
0
VERTEX
8
CUT
10
134.035
20
57.363
30
0
0
VERTEX
8
CUT
10
134.600
20
57.650
30
0
0
VERTEX
8
CUT
10
135.231
20
57.750
30
0
0
VERTEX
8
CUT
10
143.419
20
57.750
30
0
0
VERTEX
8
CUT
10
144.050
20
57.650
30
0
0
VERTEX
8
CUT
10
144.615
20
57.363
30
0
0
VERTEX
8
CUT
10
145.063
20
56.915
30
0
0
VERTEX
8
CUT
10
145.350
20
56.350
30
0
0
VERTEX
8
CUT
10
145.450
20
55.719
30
0
0
VERTEX
8
CUT
10
145.450
20
55.531
30
0
0
VERTEX
8
CUT
10
145.350
20
54.900
30
0
0
VERTEX
8
CUT
10
145.063
20
54.335
30
0
0
VERTEX
8
CUT
10
144.615
20
53.887
30
0
0
VERTEX
8
CUT
10
144.050
20
53.600
30
0
0
VERTEX
8
CUT
10
143.419
20
53.500
30
0
0
VERTEX
8
CUT
10
135.231
20
53.500
30
0
0
VERTEX
8
CUT
10
134.600
20
53.600
30
0
0
VERTEX
8
CUT
10
134.035
20
53.887
30
0
0
VERTEX
8
CUT
10
133.587
20
54.335
30
0
0
VERTEX
8
CUT
10
133.300
20
54.900
30
0
0
VERTEX
8
CUT
10
133.200
20
55.531
30
0
0
SEQEND
8
CUT
0
POLYLINE
8
CUT
66
1
70
1
10
0
20
0
30
0
0
VERTEX
8
CUT
10
69.925
20
45.425
30
0
0
VERTEX
8
CUT
10
59.975
20
45.425
30
0
0
VERTEX
8
CUT
10
59.975
20
48.375
30
0
0
VERTEX
8
CUT
10
69.925
20
48.375
30
0
0
SEQEND
8
CUT
0
POLYLINE
8
CUT
66
1
70
1
10
0
20
0
30
0
0
VERTEX
8
CUT
10
107.175
20
45.425
30
0
0
VERTEX
8
CUT
10
97.225
20
45.425
30
0
0
VERTEX
8
CUT
10
97.225
20
48.375
30
0
0
VERTEX
8
CUT
10
107.175
20
48.375
30
0
0
SEQEND
8
CUT
0
POLYLINE
8
CUT
66
1
70
1
10
0
20
0
30
0
0
VERTEX
8
CUT
10
144.425
20
45.425
30
0
0
VERTEX
8
CUT
10
134.475
20
45.425
30
0
0
VERTEX
8
CUT
10
134.475
20
48.375
30
0
0
VERTEX
8
CUT
10
144.425
20
48.375
30
0
0
SEQEND
8
CUT
0
POLYLINE
8
CUT
66
1
70
1
10
0
20
0
30
0
0
VERTEX
8
CUT
10
161.050
20
80.569
30
0
0
VERTEX
8
CUT
10
158.100
20
80.569
30
0
0
VERTEX
8
CUT
10
158.100
20
90.519
30
0
0
VERTEX
8
CUT
10
161.050
20
90.519
30
0
0
SEQEND
8
CUT
0
POLYLINE
8
CUT
66
1
70
1
10
0
20
0
30
0
0
VERTEX
8
CUT
10
161.050
20
51.806
30
0
0
VERTEX
8
CUT
10
158.100
20
51.806
30
0
0
VERTEX
8
CUT
10
158.100
20
61.756
30
0
0
VERTEX
8
CUT
10
161.050
20
61.756
30
0
0
SEQEND
8
CUT
0
POLYLINE
8
CUT
66
1
70
1
10
0
20
0
30
0
0
VERTEX
8
CUT
10
9.050
20
80.569
30
0
0
VERTEX
8
CUT
10
6.100
20
80.569
30
0
0
VERTEX
8
CUT
10
6.100
20
90.519
30
0
0
VERTEX
8
CUT
10
9.050
20
90.519
30
0
0
SEQEND
8
CUT
0
POLYLINE
8
CUT
66
1
70
1
10
0
20
0
30
0
0
VERTEX
8
CUT
10
9.050
20
51.806
30
0
0
VERTEX
8
CUT
10
6.100
20
51.806
30
0
0
VERTEX
8
CUT
10
6.100
20
61.756
30
0
0
VERTEX
8
CUT
10
9.050
20
61.756
30
0
0
SEQEND
8
CUT
0
POLYLINE
8
CUT
66
1
70
1
10
0
20
0
30
0
0
VERTEX
8
CUT
10
164.150
20
42.325
30
0
0
VERTEX
8
CUT
10
3.000
20
42.325
30
0
0
VERTEX
8
CUT
10
3.000
20
100.000
30
0
0
VERTEX
8
CUT
10
14.100
20
100.000
30
0
0
VERTEX
8
CUT
10
14.100
20
103.000
30
0
0
VERTEX
8
CUT
10
24.250
20
103.000
30
0
0
VERTEX
8
CUT
10
24.250
20
100.000
30
0
0
VERTEX
8
CUT
10
51.950
20
100.000
30
0
0
VERTEX
8
CUT
10
51.950
20
93.150
30
0
0
VERTEX
8
CUT
10
50.750
20
93.150
30
0
0
VERTEX
8
CUT
10
50.750
20
90.700
30
0
0
VERTEX
8
CUT
10
51.950
20
90.700
30
0
0
VERTEX
8
CUT
10
51.950
20
87.000
30
0
0
VERTEX
8
CUT
10
55.200
20
87.000
30
0
0
VERTEX
8
CUT
10
55.200
20
90.700
30
0
0
VERTEX
8
CUT
10
56.400
20
90.700
30
0
0
VERTEX
8
CUT
10
56.400
20
93.150
30
0
0
VERTEX
8
CUT
10
55.200
20
93.150
30
0
0
VERTEX
8
CUT
10
55.200
20
100.000
30
0
0
VERTEX
8
CUT
10
78.500
20
100.000
30
0
0
VERTEX
8
CUT
10
78.500
20
103.000
30
0
0
VERTEX
8
CUT
10
88.650
20
103.000
30
0
0
VERTEX
8
CUT
10
88.650
20
100.000
30
0
0
VERTEX
8
CUT
10
111.950
20
100.000
30
0
0
VERTEX
8
CUT
10
111.950
20
93.150
30
0
0
VERTEX
8
CUT
10
110.750
20
93.150
30
0
0
VERTEX
8
CUT
10
110.750
20
90.700
30
0
0
VERTEX
8
CUT
10
111.950
20
90.700
30
0
0
VERTEX
8
CUT
10
111.950
20
87.000
30
0
0
VERTEX
8
CUT
10
115.200
20
87.000
30
0
0
VERTEX
8
CUT
10
115.200
20
90.700
30
0
0
VERTEX
8
CUT
10
116.400
20
90.700
30
0
0
VERTEX
8
CUT
10
116.400
20
93.150
30
0
0
VERTEX
8
CUT
10
115.200
20
93.150
30
0
0
VERTEX
8
CUT
10
115.200
20
100.000
30
0
0
VERTEX
8
CUT
10
142.900
20
100.000
30
0
0
VERTEX
8
CUT
10
142.900
20
103.000
30
0
0
VERTEX
8
CUT
10
153.050
20
103.000
30
0
0
VERTEX
8
CUT
10
153.050
20
100.000
30
0
0
VERTEX
8
CUT
10
164.150
20
100.000
30
0
0
SEQEND
8
CUT
0
POLYLINE
8
CUT
66
1
70
1
10
0
20
0
30
0
0
VERTEX
8
CUT
10
186.701
20
52.625
30
0
0
VERTEX
8
CUT
10
186.841
20
53.692
30
0
0
VERTEX
8
CUT
10
187.253
20
54.687
30
0
0
VERTEX
8
CUT
10
187.909
20
55.541
30
0
0
VERTEX
8
CUT
10
188.763
20
56.197
30
0
0
VERTEX
8
CUT
10
189.758
20
56.609
30
0
0
VERTEX
8
CUT
10
190.825
20
56.749
30
0
0
VERTEX
8
CUT
10
191.892
20
56.609
30
0
0
VERTEX
8
CUT
10
192.887
20
56.197
30
0
0
VERTEX
8
CUT
10
193.741
20
55.541
30
0
0
VERTEX
8
CUT
10
194.397
20
54.687
30
0
0
VERTEX
8
CUT
10
194.809
20
53.692
30
0
0
VERTEX
8
CUT
10
194.949
20
52.625
30
0
0
VERTEX
8
CUT
10
194.809
20
51.558
30
0
0
VERTEX
8
CUT
10
194.397
20
50.563
30
0
0
VERTEX
8
CUT
10
193.741
20
49.709
30
0
0
VERTEX
8
CUT
10
192.887
20
49.053
30
0
0
VERTEX
8
CUT
10
191.892
20
48.641
30
0
0
VERTEX
8
CUT
10
190.825
20
48.501
30
0
0
VERTEX
8
CUT
10
189.758
20
48.641
30
0
0
VERTEX
8
CUT
10
188.763
20
49.053
30
0
0
VERTEX
8
CUT
10
187.909
20
49.709
30
0
0
VERTEX
8
CUT
10
187.253
20
50.563
30
0
0
VERTEX
8
CUT
10
186.841
20
51.558
30
0
0
SEQEND
8
CUT
0
POLYLINE
8
CUT
66
1
70
1
10
0
20
0
30
0
0
VERTEX
8
CUT
10
180.702
20
52.625
30
0
0
VERTEX
8
CUT
10
180.863
20
53.329
30
0
0
VERTEX
8
CUT
10
181.313
20
53.894
30
0
0
VERTEX
8
CUT
10
181.964
20
54.207
30
0
0
VERTEX
8
CUT
10
182.686
20
54.207
30
0
0
VERTEX
8
CUT
10
183.337
20
53.894
30
0
0
VERTEX
8
CUT
10
183.787
20
53.329
30
0
0
VERTEX
8
CUT
10
183.948
20
52.625
30
0
0
VERTEX
8
CUT
10
183.787
20
51.921
30
0
0
VERTEX
8
CUT
10
183.337
20
51.356
30
0
0
VERTEX
8
CUT
10
182.686
20
51.043
30
0
0
VERTEX
8
CUT
10
181.964
20
51.043
30
0
0
VERTEX
8
CUT
10
181.313
20
51.356
30
0
0
VERTEX
8
CUT
10
180.863
20
51.921
30
0
0
SEQEND
8
CUT
0
POLYLINE
8
CUT
66
1
70
1
10
0
20
0
30
0
0
VERTEX
8
CUT
10
197.702
20
52.625
30
0
0
VERTEX
8
CUT
10
197.863
20
53.329
30
0
0
VERTEX
8
CUT
10
198.313
20
53.894
30
0
0
VERTEX
8
CUT
10
198.964
20
54.207
30
0
0
VERTEX
8
CUT
10
199.686
20
54.207
30
0
0
VERTEX
8
CUT
10
200.337
20
53.894
30
0
0
VERTEX
8
CUT
10
200.787
20
53.329
30
0
0
VERTEX
8
CUT
10
200.948
20
52.625
30
0
0
VERTEX
8
CUT
10
200.787
20
51.921
30
0
0
VERTEX
8
CUT
10
200.337
20
51.356
30
0
0
VERTEX
8
CUT
10
199.686
20
51.043
30
0
0
VERTEX
8
CUT
10
198.964
20
51.043
30
0
0
VERTEX
8
CUT
10
198.313
20
51.356
30
0
0
VERTEX
8
CUT
10
197.863
20
51.921
30
0
0
SEQEND
8
CUT
0
POLYLINE
8
CUT
66
1
70
1
10
0
20
0
30
0
0
VERTEX
8
CUT
10
296.200
20
52.719
30
0
0
VERTEX
8
CUT
10
296.300
20
53.350
30
0
0
VERTEX
8
CUT
10
296.587
20
53.915
30
0
0
VERTEX
8
CUT
10
297.035
20
54.363
30
0
0
VERTEX
8
CUT
10
297.600
20
54.650
30
0
0
VERTEX
8
CUT
10
298.231
20
54.750
30
0
0
VERTEX
8
CUT
10
306.419
20
54.750
30
0
0
VERTEX
8
CUT
10
307.050
20
54.650
30
0
0
VERTEX
8
CUT
10
307.615
20
54.363
30
0
0
VERTEX
8
CUT
10
308.063
20
53.915
30
0
0
VERTEX
8
CUT
10
308.350
20
53.350
30
0
0
VERTEX
8
CUT
10
308.450
20
52.719
30
0
0
VERTEX
8
CUT
10
308.450
20
52.531
30
0
0
VERTEX
8
CUT
10
308.350
20
51.900
30
0
0
VERTEX
8
CUT
10
308.063
20
51.335
30
0
0
VERTEX
8
CUT
10
307.615
20
50.887
30
0
0
VERTEX
8
CUT
10
307.050
20
50.600
30
0
0
VERTEX
8
CUT
10
306.419
20
50.500
30
0
0
VERTEX
8
CUT
10
298.231
20
50.500
30
0
0
VERTEX
8
CUT
10
297.600
20
50.600
30
0
0
VERTEX
8
CUT
10
297.035
20
50.887
30
0
0
VERTEX
8
CUT
10
296.587
20
51.335
30
0
0
VERTEX
8
CUT
10
296.300
20
51.900
30
0
0
VERTEX
8
CUT
10
296.200
20
52.531
30
0
0
SEQEND
8
CUT
0
POLYLINE
8
CUT
66
1
70
1
10
0
20
0
30
0
0
VERTEX
8
CUT
10
232.925
20
42.425
30
0
0
VERTEX
8
CUT
10
222.975
20
42.425
30
0
0
VERTEX
8
CUT
10
222.975
20
45.375
30
0
0
VERTEX
8
CUT
10
232.925
20
45.375
30
0
0
SEQEND
8
CUT
0
POLYLINE
8
CUT
66
1
70
1
10
0
20
0
30
0
0
VERTEX
8
CUT
10
270.175
20
42.425
30
0
0
VERTEX
8
CUT
10
260.225
20
42.425
30
0
0
VERTEX
8
CUT
10
260.225
20
45.375
30
0
0
VERTEX
8
CUT
10
270.175
20
45.375
30
0
0
SEQEND
8
CUT
0
POLYLINE
8
CUT
66
1
70
1
10
0
20
0
30
0
0
VERTEX
8
CUT
10
307.425
20
42.425
30
0
0
VERTEX
8
CUT
10
297.475
20
42.425
30
0
0
VERTEX
8
CUT
10
297.475
20
45.375
30
0
0
VERTEX
8
CUT
10
307.425
20
45.375
30
0
0
SEQEND
8
CUT
0
POLYLINE
8
CUT
66
1
70
1
10
0
20
0
30
0
0
VERTEX
8
CUT
10
324.050
20
77.569
30
0
0
VERTEX
8
CUT
10
321.100
20
77.569
30
0
0
VERTEX
8
CUT
10
321.100
20
87.519
30
0
0
VERTEX
8
CUT
10
324.050
20
87.519
30
0
0
SEQEND
8
CUT
0
POLYLINE
8
CUT
66
1
70
1
10
0
20
0
30
0
0
VERTEX
8
CUT
10
324.050
20
48.806
30
0
0
VERTEX
8
CUT
10
321.100
20
48.806
30
0
0
VERTEX
8
CUT
10
321.100
20
58.756
30
0
0
VERTEX
8
CUT
10
324.050
20
58.756
30
0
0
SEQEND
8
CUT
0
POLYLINE
8
CUT
66
1
70
1
10
0
20
0
30
0
0
VERTEX
8
CUT
10
172.050
20
77.569
30
0
0
VERTEX
8
CUT
10
169.100
20
77.569
30
0
0
VERTEX
8
CUT
10
169.100
20
87.519
30
0
0
VERTEX
8
CUT
10
172.050
20
87.519
30
0
0
SEQEND
8
CUT
0
POLYLINE
8
CUT
66
1
70
1
10
0
20
0
30
0
0
VERTEX
8
CUT
10
172.050
20
48.806
30
0
0
VERTEX
8
CUT
10
169.100
20
48.806
30
0
0
VERTEX
8
CUT
10
169.100
20
58.756
30
0
0
VERTEX
8
CUT
10
172.050
20
58.756
30
0
0
SEQEND
8
CUT
0
POLYLINE
8
CUT
66
1
70
1
10
0
20
0
30
0
0
VERTEX
8
CUT
10
327.150
20
39.325
30
0
0
VERTEX
8
CUT
10
166.000
20
39.325
30
0
0
VERTEX
8
CUT
10
166.000
20
97.000
30
0
0
VERTEX
8
CUT
10
177.100
20
97.000
30
0
0
VERTEX
8
CUT
10
177.100
20
100.000
30
0
0
VERTEX
8
CUT
10
187.250
20
100.000
30
0
0
VERTEX
8
CUT
10
187.250
20
97.000
30
0
0
VERTEX
8
CUT
10
214.950
20
97.000
30
0
0
VERTEX
8
CUT
10
214.950
20
90.150
30
0
0
VERTEX
8
CUT
10
213.750
20
90.150
30
0
0
VERTEX
8
CUT
10
213.750
20
87.700
30
0
0
VERTEX
8
CUT
10
214.950
20
87.700
30
0
0
VERTEX
8
CUT
10
214.950
20
84.000
30
0
0
VERTEX
8
CUT
10
218.200
20
84.000
30
0
0
VERTEX
8
CUT
10
218.200
20
87.700
30
0
0
VERTEX
8
CUT
10
219.400
20
87.700
30
0
0
VERTEX
8
CUT
10
219.400
20
90.150
30
0
0
VERTEX
8
CUT
10
218.200
20
90.150
30
0
0
VERTEX
8
CUT
10
218.200
20
97.000
30
0
0
VERTEX
8
CUT
10
241.500
20
97.000
30
0
0
VERTEX
8
CUT
10
241.500
20
100.000
30
0
0
VERTEX
8
CUT
10
251.650
20
100.000
30
0
0
VERTEX
8
CUT
10
251.650
20
97.000
30
0
0
VERTEX
8
CUT
10
274.950
20
97.000
30
0
0
VERTEX
8
CUT
10
274.950
20
90.150
30
0
0
VERTEX
8
CUT
10
273.750
20
90.150
30
0
0
VERTEX
8
CUT
10
273.750
20
87.700
30
0
0
VERTEX
8
CUT
10
274.950
20
87.700
30
0
0
VERTEX
8
CUT
10
274.950
20
84.000
30
0
0
VERTEX
8
CUT
10
278.200
20
84.000
30
0
0
VERTEX
8
CUT
10
278.200
20
87.700
30
0
0
VERTEX
8
CUT
10
279.400
20
87.700
30
0
0
VERTEX
8
CUT
10
279.400
20
90.150
30
0
0
VERTEX
8
CUT
10
278.200
20
90.150
30
0
0
VERTEX
8
CUT
10
278.200
20
97.000
30
0
0
VERTEX
8
CUT
10
305.900
20
97.000
30
0
0
VERTEX
8
CUT
10
305.900
20
100.000
30
0
0
VERTEX
8
CUT
10
316.050
20
100.000
30
0
0
VERTEX
8
CUT
10
316.050
20
97.000
30
0
0
VERTEX
8
CUT
10
327.150
20
97.000
30
0
0
SEQEND
8
CUT
0
POLYLINE
8
CUT
66
1
70
1
10
0
20
0
30
0
0
VERTEX
8
CUT
10
385.496
20
100.925
30
0
0
VERTEX
8
CUT
10
385.225
20
101.760
30
0
0
VERTEX
8
CUT
10
384.514
20
102.277
30
0
0
VERTEX
8
CUT
10
383.636
20
102.277
30
0
0
VERTEX
8
CUT
10
382.925
20
101.760
30
0
0
VERTEX
8
CUT
10
382.654
20
100.925
30
0
0
VERTEX
8
CUT
10
382.925
20
100.090
30
0
0
VERTEX
8
CUT
10
383.636
20
99.573
30
0
0
VERTEX
8
CUT
10
384.514
20
99.573
30
0
0
VERTEX
8
CUT
10
385.225
20
100.090
30
0
0
SEQEND
8
CUT
0
POLYLINE
8
CUT
66
1
70
1
10
0
20
0
30
0
0
VERTEX
8
CUT
10
390.996
20
100.925
30
0
0
VERTEX
8
CUT
10
390.725
20
101.760
30
0
0
VERTEX
8
CUT
10
390.014
20
102.277
30
0
0
VERTEX
8
CUT
10
389.136
20
102.277
30
0
0
VERTEX
8
CUT
10
388.425
20
101.760
30
0
0
VERTEX
8
CUT
10
388.154
20
100.925
30
0
0
VERTEX
8
CUT
10
388.425
20
100.090
30
0
0
VERTEX
8
CUT
10
389.136
20
99.573
30
0
0
VERTEX
8
CUT
10
390.014
20
99.573
30
0
0
VERTEX
8
CUT
10
390.725
20
100.090
30
0
0
SEQEND
8
CUT
0
POLYLINE
8
CUT
66
1
70
1
10
0
20
0
30
0
0
VERTEX
8
CUT
10
388.246
20
105.688
30
0
0
VERTEX
8
CUT
10
387.975
20
106.523
30
0
0
VERTEX
8
CUT
10
387.264
20
107.040
30
0
0
VERTEX
8
CUT
10
386.386
20
107.040
30
0
0
VERTEX
8
CUT
10
385.675
20
106.523
30
0
0
VERTEX
8
CUT
10
385.404
20
105.688
30
0
0
VERTEX
8
CUT
10
385.675
20
104.853
30
0
0
VERTEX
8
CUT
10
386.386
20
104.337
30
0
0
VERTEX
8
CUT
10
387.264
20
104.337
30
0
0
VERTEX
8
CUT
10
387.975
20
104.853
30
0
0
SEQEND
8
CUT
0
POLYLINE
8
CUT
66
1
70
1
10
0
20
0
30
0
0
VERTEX
8
CUT
10
382.746
20
105.688
30
0
0
VERTEX
8
CUT
10
382.475
20
106.523
30
0
0
VERTEX
8
CUT
10
381.764
20
107.040
30
0
0
VERTEX
8
CUT
10
380.886
20
107.040
30
0
0
VERTEX
8
CUT
10
380.175
20
106.523
30
0
0
VERTEX
8
CUT
10
379.904
20
105.688
30
0
0
VERTEX
8
CUT
10
380.175
20
104.853
30
0
0
VERTEX
8
CUT
10
380.886
20
104.337
30
0
0
VERTEX
8
CUT
10
381.764
20
104.337
30
0
0
VERTEX
8
CUT
10
382.475
20
104.853
30
0
0
SEQEND
8
CUT
0
POLYLINE
8
CUT
66
1
70
1
10
0
20
0
30
0
0
VERTEX
8
CUT
10
379.996
20
100.925
30
0
0
VERTEX
8
CUT
10
379.725
20
101.760
30
0
0
VERTEX
8
CUT
10
379.014
20
102.277
30
0
0
VERTEX
8
CUT
10
378.136
20
102.277
30
0
0
VERTEX
8
CUT
10
377.425
20
101.760
30
0
0
VERTEX
8
CUT
10
377.154
20
100.925
30
0
0
VERTEX
8
CUT
10
377.425
20
100.090
30
0
0
VERTEX
8
CUT
10
378.136
20
99.573
30
0
0
VERTEX
8
CUT
10
379.014
20
99.573
30
0
0
VERTEX
8
CUT
10
379.725
20
100.090
30
0
0
SEQEND
8
CUT
0
POLYLINE
8
CUT
66
1
70
1
10
0
20
0
30
0
0
VERTEX
8
CUT
10
382.746
20
96.162
30
0
0
VERTEX
8
CUT
10
382.475
20
96.997
30
0
0
VERTEX
8
CUT
10
381.764
20
97.513
30
0
0
VERTEX
8
CUT
10
380.886
20
97.513
30
0
0
VERTEX
8
CUT
10
380.175
20
96.997
30
0
0
VERTEX
8
CUT
10
379.904
20
96.162
30
0
0
VERTEX
8
CUT
10
380.175
20
95.327
30
0
0
VERTEX
8
CUT
10
380.886
20
94.810
30
0
0
VERTEX
8
CUT
10
381.764
20
94.810
30
0
0
VERTEX
8
CUT
10
382.475
20
95.327
30
0
0
SEQEND
8
CUT
0
POLYLINE
8
CUT
66
1
70
1
10
0
20
0
30
0
0
VERTEX
8
CUT
10
388.246
20
96.162
30
0
0
VERTEX
8
CUT
10
387.975
20
96.997
30
0
0
VERTEX
8
CUT
10
387.264
20
97.513
30
0
0
VERTEX
8
CUT
10
386.386
20
97.513
30
0
0
VERTEX
8
CUT
10
385.675
20
96.997
30
0
0
VERTEX
8
CUT
10
385.404
20
96.162
30
0
0
VERTEX
8
CUT
10
385.675
20
95.327
30
0
0
VERTEX
8
CUT
10
386.386
20
94.810
30
0
0
VERTEX
8
CUT
10
387.264
20
94.810
30
0
0
VERTEX
8
CUT
10
387.975
20
95.327
30
0
0
SEQEND
8
CUT
0
POLYLINE
8
CUT
66
1
70
1
10
0
20
0
30
0
0
VERTEX
8
CUT
10
396.496
20
100.925
30
0
0
VERTEX
8
CUT
10
396.225
20
101.760
30
0
0
VERTEX
8
CUT
10
395.514
20
102.277
30
0
0
VERTEX
8
CUT
10
394.636
20
102.277
30
0
0
VERTEX
8
CUT
10
393.925
20
101.760
30
0
0
VERTEX
8
CUT
10
393.654
20
100.925
30
0
0
VERTEX
8
CUT
10
393.925
20
100.090
30
0
0
VERTEX
8
CUT
10
394.636
20
99.573
30
0
0
VERTEX
8
CUT
10
395.514
20
99.573
30
0
0
VERTEX
8
CUT
10
396.225
20
100.090
30
0
0
SEQEND
8
CUT
0
POLYLINE
8
CUT
66
1
70
1
10
0
20
0
30
0
0
VERTEX
8
CUT
10
395.022
20
106.425
30
0
0
VERTEX
8
CUT
10
394.751
20
107.260
30
0
0
VERTEX
8
CUT
10
394.040
20
107.777
30
0
0
VERTEX
8
CUT
10
393.162
20
107.777
30
0
0
VERTEX
8
CUT
10
392.452
20
107.260
30
0
0
VERTEX
8
CUT
10
392.180
20
106.425
30
0
0
VERTEX
8
CUT
10
392.452
20
105.590
30
0
0
VERTEX
8
CUT
10
393.162
20
105.073
30
0
0
VERTEX
8
CUT
10
394.040
20
105.073
30
0
0
VERTEX
8
CUT
10
394.751
20
105.590
30
0
0
SEQEND
8
CUT
0
POLYLINE
8
CUT
66
1
70
1
10
0
20
0
30
0
0
VERTEX
8
CUT
10
390.996
20
110.451
30
0
0
VERTEX
8
CUT
10
390.725
20
111.287
30
0
0
VERTEX
8
CUT
10
390.014
20
111.803
30
0
0
VERTEX
8
CUT
10
389.136
20
111.803
30
0
0
VERTEX
8
CUT
10
388.425
20
111.287
30
0
0
VERTEX
8
CUT
10
388.154
20
110.451
30
0
0
VERTEX
8
CUT
10
388.425
20
109.616
30
0
0
VERTEX
8
CUT
10
389.136
20
109.100
30
0
0
VERTEX
8
CUT
10
390.014
20
109.100
30
0
0
VERTEX
8
CUT
10
390.725
20
109.616
30
0
0
SEQEND
8
CUT
0
POLYLINE
8
CUT
66
1
70
1
10
0
20
0
30
0
0
VERTEX
8
CUT
10
385.496
20
111.925
30
0
0
VERTEX
8
CUT
10
385.225
20
112.760
30
0
0
VERTEX
8
CUT
10
384.514
20
113.277
30
0
0
VERTEX
8
CUT
10
383.636
20
113.277
30
0
0
VERTEX
8
CUT
10
382.925
20
112.760
30
0
0
VERTEX
8
CUT
10
382.654
20
111.925
30
0
0
VERTEX
8
CUT
10
382.925
20
111.090
30
0
0
VERTEX
8
CUT
10
383.636
20
110.573
30
0
0
VERTEX
8
CUT
10
384.514
20
110.573
30
0
0
VERTEX
8
CUT
10
385.225
20
111.090
30
0
0
SEQEND
8
CUT
0
POLYLINE
8
CUT
66
1
70
1
10
0
20
0
30
0
0
VERTEX
8
CUT
10
379.996
20
110.451
30
0
0
VERTEX
8
CUT
10
379.725
20
111.287
30
0
0
VERTEX
8
CUT
10
379.014
20
111.803
30
0
0
VERTEX
8
CUT
10
378.136
20
111.803
30
0
0
VERTEX
8
CUT
10
377.425
20
111.287
30
0
0
VERTEX
8
CUT
10
377.154
20
110.451
30
0
0
VERTEX
8
CUT
10
377.425
20
109.616
30
0
0
VERTEX
8
CUT
10
378.136
20
109.100
30
0
0
VERTEX
8
CUT
10
379.014
20
109.100
30
0
0
VERTEX
8
CUT
10
379.725
20
109.616
30
0
0
SEQEND
8
CUT
0
POLYLINE
8
CUT
66
1
70
1
10
0
20
0
30
0
0
VERTEX
8
CUT
10
375.970
20
106.425
30
0
0
VERTEX
8
CUT
10
375.698
20
107.260
30
0
0
VERTEX
8
CUT
10
374.988
20
107.777
30
0
0
VERTEX
8
CUT
10
374.110
20
107.777
30
0
0
VERTEX
8
CUT
10
373.399
20
107.260
30
0
0
VERTEX
8
CUT
10
373.128
20
106.425
30
0
0
VERTEX
8
CUT
10
373.399
20
105.590
30
0
0
VERTEX
8
CUT
10
374.110
20
105.073
30
0
0
VERTEX
8
CUT
10
374.988
20
105.073
30
0
0
VERTEX
8
CUT
10
375.698
20
105.590
30
0
0
SEQEND
8
CUT
0
POLYLINE
8
CUT
66
1
70
1
10
0
20
0
30
0
0
VERTEX
8
CUT
10
374.496
20
100.925
30
0
0
VERTEX
8
CUT
10
374.225
20
101.760
30
0
0
VERTEX
8
CUT
10
373.514
20
102.277
30
0
0
VERTEX
8
CUT
10
372.636
20
102.277
30
0
0
VERTEX
8
CUT
10
371.925
20
101.760
30
0
0
VERTEX
8
CUT
10
371.654
20
100.925
30
0
0
VERTEX
8
CUT
10
371.925
20
100.090
30
0
0
VERTEX
8
CUT
10
372.636
20
99.573
30
0
0
VERTEX
8
CUT
10
373.514
20
99.573
30
0
0
VERTEX
8
CUT
10
374.225
20
100.090
30
0
0
SEQEND
8
CUT
0
POLYLINE
8
CUT
66
1
70
1
10
0
20
0
30
0
0
VERTEX
8
CUT
10
375.970
20
95.425
30
0
0
VERTEX
8
CUT
10
375.698
20
96.260
30
0
0
VERTEX
8
CUT
10
374.988
20
96.777
30
0
0
VERTEX
8
CUT
10
374.110
20
96.777
30
0
0
VERTEX
8
CUT
10
373.399
20
96.260
30
0
0
VERTEX
8
CUT
10
373.128
20
95.425
30
0
0
VERTEX
8
CUT
10
373.399
20
94.590
30
0
0
VERTEX
8
CUT
10
374.110
20
94.073
30
0
0
VERTEX
8
CUT
10
374.988
20
94.073
30
0
0
VERTEX
8
CUT
10
375.698
20
94.590
30
0
0
SEQEND
8
CUT
0
POLYLINE
8
CUT
66
1
70
1
10
0
20
0
30
0
0
VERTEX
8
CUT
10
379.996
20
91.399
30
0
0
VERTEX
8
CUT
10
379.725
20
92.234
30
0
0
VERTEX
8
CUT
10
379.014
20
92.750
30
0
0
VERTEX
8
CUT
10
378.136
20
92.750
30
0
0
VERTEX
8
CUT
10
377.425
20
92.234
30
0
0
VERTEX
8
CUT
10
377.154
20
91.399
30
0
0
VERTEX
8
CUT
10
377.425
20
90.563
30
0
0
VERTEX
8
CUT
10
378.136
20
90.047
30
0
0
VERTEX
8
CUT
10
379.014
20
90.047
30
0
0
VERTEX
8
CUT
10
379.725
20
90.563
30
0
0
SEQEND
8
CUT
0
POLYLINE
8
CUT
66
1
70
1
10
0
20
0
30
0
0
VERTEX
8
CUT
10
385.496
20
89.925
30
0
0
VERTEX
8
CUT
10
385.225
20
90.760
30
0
0
VERTEX
8
CUT
10
384.514
20
91.277
30
0
0
VERTEX
8
CUT
10
383.636
20
91.277
30
0
0
VERTEX
8
CUT
10
382.925
20
90.760
30
0
0
VERTEX
8
CUT
10
382.654
20
89.925
30
0
0
VERTEX
8
CUT
10
382.925
20
89.090
30
0
0
VERTEX
8
CUT
10
383.636
20
88.573
30
0
0
VERTEX
8
CUT
10
384.514
20
88.573
30
0
0
VERTEX
8
CUT
10
385.225
20
89.090
30
0
0
SEQEND
8
CUT
0
POLYLINE
8
CUT
66
1
70
1
10
0
20
0
30
0
0
VERTEX
8
CUT
10
390.996
20
91.399
30
0
0
VERTEX
8
CUT
10
390.725
20
92.234
30
0
0
VERTEX
8
CUT
10
390.014
20
92.750
30
0
0
VERTEX
8
CUT
10
389.136
20
92.750
30
0
0
VERTEX
8
CUT
10
388.425
20
92.234
30
0
0
VERTEX
8
CUT
10
388.154
20
91.399
30
0
0
VERTEX
8
CUT
10
388.425
20
90.563
30
0
0
VERTEX
8
CUT
10
389.136
20
90.047
30
0
0
VERTEX
8
CUT
10
390.014
20
90.047
30
0
0
VERTEX
8
CUT
10
390.725
20
90.563
30
0
0
SEQEND
8
CUT
0
POLYLINE
8
CUT
66
1
70
1
10
0
20
0
30
0
0
VERTEX
8
CUT
10
395.022
20
95.425
30
0
0
VERTEX
8
CUT
10
394.751
20
96.260
30
0
0
VERTEX
8
CUT
10
394.040
20
96.777
30
0
0
VERTEX
8
CUT
10
393.162
20
96.777
30
0
0
VERTEX
8
CUT
10
392.452
20
96.260
30
0
0
VERTEX
8
CUT
10
392.180
20
95.425
30
0
0
VERTEX
8
CUT
10
392.452
20
94.590
30
0
0
VERTEX
8
CUT
10
393.162
20
94.073
30
0
0
VERTEX
8
CUT
10
394.040
20
94.073
30
0
0
VERTEX
8
CUT
10
394.751
20
94.590
30
0
0
SEQEND
8
CUT
0
POLYLINE
8
CUT
66
1
70
1
10
0
20
0
30
0
0
VERTEX
8
CUT
10
332.000
20
61.850
30
0
0
VERTEX
8
CUT
10
436.150
20
61.850
30
0
0
VERTEX
8
CUT
10
436.150
20
76.350
30
0
0
VERTEX
8
CUT
10
439.150
20
76.350
30
0
0
VERTEX
8
CUT
10
439.150
20
86.500
30
0
0
VERTEX
8
CUT
10
436.150
20
86.500
30
0
0
VERTEX
8
CUT
10
436.150
20
115.350
30
0
0
VERTEX
8
CUT
10
439.150
20
115.350
30
0
0
VERTEX
8
CUT
10
439.150
20
125.500
30
0
0
VERTEX
8
CUT
10
436.150
20
125.500
30
0
0
VERTEX
8
CUT
10
436.150
20
140.000
30
0
0
VERTEX
8
CUT
10
332.000
20
140.000
30
0
0
VERTEX
8
CUT
10
332.000
20
125.500
30
0
0
VERTEX
8
CUT
10
329.000
20
125.500
30
0
0
VERTEX
8
CUT
10
329.000
20
115.350
30
0
0
VERTEX
8
CUT
10
332.000
20
115.350
30
0
0
VERTEX
8
CUT
10
332.000
20
86.500
30
0
0
VERTEX
8
CUT
10
329.000
20
86.500
30
0
0
VERTEX
8
CUT
10
329.000
20
76.350
30
0
0
VERTEX
8
CUT
10
332.000
20
76.350
30
0
0
SEQEND
8
CUT
0
POLYLINE
8
CUT
66
1
70
1
10
0
20
0
30
0
0
VERTEX
8
CUT
10
92.952
20
137.662
30
0
0
VERTEX
8
CUT
10
93.113
20
138.367
30
0
0
VERTEX
8
CUT
10
93.563
20
138.931
30
0
0
VERTEX
8
CUT
10
94.214
20
139.245
30
0
0
VERTEX
8
CUT
10
94.936
20
139.245
30
0
0
VERTEX
8
CUT
10
95.587
20
138.931
30
0
0
VERTEX
8
CUT
10
96.037
20
138.367
30
0
0
VERTEX
8
CUT
10
96.198
20
137.662
30
0
0
VERTEX
8
CUT
10
96.037
20
136.958
30
0
0
VERTEX
8
CUT
10
95.587
20
136.393
30
0
0
VERTEX
8
CUT
10
94.936
20
136.080
30
0
0
VERTEX
8
CUT
10
94.214
20
136.080
30
0
0
VERTEX
8
CUT
10
93.563
20
136.393
30
0
0
VERTEX
8
CUT
10
93.113
20
136.958
30
0
0
SEQEND
8
CUT
0
POLYLINE
8
CUT
66
1
70
1
10
0
20
0
30
0
0
VERTEX
8
CUT
10
52.952
20
137.662
30
0
0
VERTEX
8
CUT
10
53.113
20
138.367
30
0
0
VERTEX
8
CUT
10
53.563
20
138.931
30
0
0
VERTEX
8
CUT
10
54.214
20
139.245
30
0
0
VERTEX
8
CUT
10
54.936
20
139.245
30
0
0
VERTEX
8
CUT
10
55.587
20
138.931
30
0
0
VERTEX
8
CUT
10
56.037
20
138.367
30
0
0
VERTEX
8
CUT
10
56.198
20
137.662
30
0
0
VERTEX
8
CUT
10
56.037
20
136.958
30
0
0
VERTEX
8
CUT
10
55.587
20
136.393
30
0
0
VERTEX
8
CUT
10
54.936
20
136.080
30
0
0
VERTEX
8
CUT
10
54.214
20
136.080
30
0
0
VERTEX
8
CUT
10
53.563
20
136.393
30
0
0
VERTEX
8
CUT
10
53.113
20
136.958
30
0
0
SEQEND
8
CUT
0
POLYLINE
8
CUT
66
1
70
1
10
0
20
0
30
0
0
VERTEX
8
CUT
10
42.883
20
124.425
30
0
0
VERTEX
8
CUT
10
32.933
20
124.425
30
0
0
VERTEX
8
CUT
10
32.933
20
127.375
30
0
0
VERTEX
8
CUT
10
42.883
20
127.375
30
0
0
SEQEND
8
CUT
0
POLYLINE
8
CUT
66
1
70
1
10
0
20
0
30
0
0
VERTEX
8
CUT
10
79.550
20
124.425
30
0
0
VERTEX
8
CUT
10
69.600
20
124.425
30
0
0
VERTEX
8
CUT
10
69.600
20
127.375
30
0
0
VERTEX
8
CUT
10
79.550
20
127.375
30
0
0
SEQEND
8
CUT
0
POLYLINE
8
CUT
66
1
70
1
10
0
20
0
30
0
0
VERTEX
8
CUT
10
116.217
20
124.425
30
0
0
VERTEX
8
CUT
10
106.267
20
124.425
30
0
0
VERTEX
8
CUT
10
106.267
20
127.375
30
0
0
VERTEX
8
CUT
10
116.217
20
127.375
30
0
0
SEQEND
8
CUT
0
POLYLINE
8
CUT
66
1
70
1
10
0
20
0
30
0
0
VERTEX
8
CUT
10
55.550
20
147.950
30
0
0
VERTEX
8
CUT
10
43.600
20
147.950
30
0
0
VERTEX
8
CUT
10
43.600
20
150.900
30
0
0
VERTEX
8
CUT
10
55.550
20
150.900
30
0
0
SEQEND
8
CUT
0
POLYLINE
8
CUT
66
1
70
1
10
0
20
0
30
0
0
VERTEX
8
CUT
10
95.550
20
147.950
30
0
0
VERTEX
8
CUT
10
83.600
20
147.950
30
0
0
VERTEX
8
CUT
10
83.600
20
150.900
30
0
0
VERTEX
8
CUT
10
95.550
20
150.900
30
0
0
SEQEND
8
CUT
0
POLYLINE
8
CUT
66
1
70
1
10
0
20
0
30
0
0
VERTEX
8
CUT
10
129.650
20
121.325
30
0
0
VERTEX
8
CUT
10
19.500
20
121.325
30
0
0
VERTEX
8
CUT
10
19.500
20
130.706
30
0
0
VERTEX
8
CUT
10
16.500
20
130.706
30
0
0
VERTEX
8
CUT
10
16.500
20
140.856
30
0
0
VERTEX
8
CUT
10
19.500
20
140.856
30
0
0
VERTEX
8
CUT
10
19.500
20
159.469
30
0
0
VERTEX
8
CUT
10
16.500
20
159.469
30
0
0
VERTEX
8
CUT
10
16.500
20
169.619
30
0
0
VERTEX
8
CUT
10
19.500
20
169.619
30
0
0
VERTEX
8
CUT
10
19.500
20
179.000
30
0
0
VERTEX
8
CUT
10
32.833
20
179.000
30
0
0
VERTEX
8
CUT
10
32.833
20
182.000
30
0
0
VERTEX
8
CUT
10
42.983
20
182.000
30
0
0
VERTEX
8
CUT
10
42.983
20
179.000
30
0
0
VERTEX
8
CUT
10
69.500
20
179.000
30
0
0
VERTEX
8
CUT
10
69.500
20
182.000
30
0
0
VERTEX
8
CUT
10
79.650
20
182.000
30
0
0
VERTEX
8
CUT
10
79.650
20
179.000
30
0
0
VERTEX
8
CUT
10
106.167
20
179.000
30
0
0
VERTEX
8
CUT
10
106.167
20
182.000
30
0
0
VERTEX
8
CUT
10
116.317
20
182.000
30
0
0
VERTEX
8
CUT
10
116.317
20
179.000
30
0
0
VERTEX
8
CUT
10
129.650
20
179.000
30
0
0
VERTEX
8
CUT
10
129.650
20
169.619
30
0
0
VERTEX
8
CUT
10
132.650
20
169.619
30
0
0
VERTEX
8
CUT
10
132.650
20
159.469
30
0
0
VERTEX
8
CUT
10
129.650
20
159.469
30
0
0
VERTEX
8
CUT
10
129.650
20
140.856
30
0
0
VERTEX
8
CUT
10
132.650
20
140.856
30
0
0
VERTEX
8
CUT
10
132.650
20
130.706
30
0
0
VERTEX
8
CUT
10
129.650
20
130.706
30
0
0
SEQEND
8
CUT
0
POLYLINE
8
CUT
66
1
70
1
10
0
20
0
30
0
0
VERTEX
8
CUT
10
351.104
20
19.925
30
0
0
VERTEX
8
CUT
10
351.232
20
20.319
30
0
0
VERTEX
8
CUT
10
351.568
20
20.563
30
0
0
VERTEX
8
CUT
10
351.982
20
20.563
30
0
0
VERTEX
8
CUT
10
352.318
20
20.319
30
0
0
VERTEX
8
CUT
10
352.446
20
19.925
30
0
0
VERTEX
8
CUT
10
352.318
20
19.531
30
0
0
VERTEX
8
CUT
10
351.982
20
19.287
30
0
0
VERTEX
8
CUT
10
351.568
20
19.287
30
0
0
VERTEX
8
CUT
10
351.232
20
19.531
30
0
0
SEQEND
8
CUT
0
POLYLINE
8
CUT
66
1
70
1
10
0
20
0
30
0
0
VERTEX
8
CUT
10
348.104
20
19.925
30
0
0
VERTEX
8
CUT
10
348.232
20
20.319
30
0
0
VERTEX
8
CUT
10
348.568
20
20.563
30
0
0
VERTEX
8
CUT
10
348.982
20
20.563
30
0
0
VERTEX
8
CUT
10
349.318
20
20.319
30
0
0
VERTEX
8
CUT
10
349.446
20
19.925
30
0
0
VERTEX
8
CUT
10
349.318
20
19.531
30
0
0
VERTEX
8
CUT
10
348.982
20
19.287
30
0
0
VERTEX
8
CUT
10
348.568
20
19.287
30
0
0
VERTEX
8
CUT
10
348.232
20
19.531
30
0
0
SEQEND
8
CUT
0
POLYLINE
8
CUT
66
1
70
1
10
0
20
0
30
0
0
VERTEX
8
CUT
10
345.104
20
19.925
30
0
0
VERTEX
8
CUT
10
345.232
20
20.319
30
0
0
VERTEX
8
CUT
10
345.568
20
20.563
30
0
0
VERTEX
8
CUT
10
345.982
20
20.563
30
0
0
VERTEX
8
CUT
10
346.318
20
20.319
30
0
0
VERTEX
8
CUT
10
346.446
20
19.925
30
0
0
VERTEX
8
CUT
10
346.318
20
19.531
30
0
0
VERTEX
8
CUT
10
345.982
20
19.287
30
0
0
VERTEX
8
CUT
10
345.568
20
19.287
30
0
0
VERTEX
8
CUT
10
345.232
20
19.531
30
0
0
SEQEND
8
CUT
0
POLYLINE
8
CUT
66
1
70
1
10
0
20
0
30
0
0
VERTEX
8
CUT
10
410.080
20
5.850
30
0
0
VERTEX
8
CUT
10
332.070
20
5.850
30
0
0
VERTEX
8
CUT
10
331.279
20
5.954
30
0
0
VERTEX
8
CUT
10
330.537
20
6.261
30
0
0
VERTEX
8
CUT
10
329.900
20
6.750
30
0
0
VERTEX
8
CUT
10
329.411
20
7.387
30
0
0
VERTEX
8
CUT
10
329.104
20
8.129
30
0
0
VERTEX
8
CUT
10
329.000
20
8.920
30
0
0
VERTEX
8
CUT
10
329.000
20
56.930
30
0
0
VERTEX
8
CUT
10
329.104
20
57.721
30
0
0
VERTEX
8
CUT
10
329.411
20
58.463
30
0
0
VERTEX
8
CUT
10
329.900
20
59.100
30
0
0
VERTEX
8
CUT
10
330.537
20
59.589
30
0
0
VERTEX
8
CUT
10
331.279
20
59.896
30
0
0
VERTEX
8
CUT
10
332.070
20
60.000
30
0
0
VERTEX
8
CUT
10
410.080
20
60.000
30
0
0
VERTEX
8
CUT
10
410.871
20
59.896
30
0
0
VERTEX
8
CUT
10
411.613
20
59.589
30
0
0
VERTEX
8
CUT
10
412.250
20
59.100
30
0
0
VERTEX
8
CUT
10
412.739
20
58.463
30
0
0
VERTEX
8
CUT
10
413.046
20
57.721
30
0
0
VERTEX
8
CUT
10
413.150
20
56.930
30
0
0
VERTEX
8
CUT
10
413.150
20
8.920
30
0
0
VERTEX
8
CUT
10
413.046
20
8.129
30
0
0
VERTEX
8
CUT
10
412.739
20
7.387
30
0
0
VERTEX
8
CUT
10
412.250
20
6.750
30
0
0
VERTEX
8
CUT
10
411.613
20
6.261
30
0
0
VERTEX
8
CUT
10
410.871
20
5.954
30
0
0
SEQEND
8
CUT
0
POLYLINE
8
CUT
66
1
70
1
10
0
20
0
30
0
0
VERTEX
8
CUT
10
418.500
20
149.150
30
0
0
VERTEX
8
CUT
10
418.500
20
162.612
30
0
0
VERTEX
8
CUT
10
415.500
20
162.612
30
0
0
VERTEX
8
CUT
10
415.500
20
172.762
30
0
0
VERTEX
8
CUT
10
418.500
20
172.762
30
0
0
VERTEX
8
CUT
10
418.500
20
199.537
30
0
0
VERTEX
8
CUT
10
415.500
20
199.537
30
0
0
VERTEX
8
CUT
10
415.500
20
209.688
30
0
0
VERTEX
8
CUT
10
418.500
20
209.688
30
0
0
VERTEX
8
CUT
10
418.500
20
236.462
30
0
0
VERTEX
8
CUT
10
415.500
20
236.462
30
0
0
VERTEX
8
CUT
10
415.500
20
246.613
30
0
0
VERTEX
8
CUT
10
418.500
20
246.613
30
0
0
VERTEX
8
CUT
10
418.500
20
273.387
30
0
0
VERTEX
8
CUT
10
415.500
20
273.387
30
0
0
VERTEX
8
CUT
10
415.500
20
283.537
30
0
0
VERTEX
8
CUT
10
418.500
20
283.537
30
0
0
VERTEX
8
CUT
10
418.500
20
297.000
30
0
0
VERTEX
8
CUT
10
426.650
20
297.000
30
0
0
VERTEX
8
CUT
10
426.650
20
149.150
30
0
0
SEQEND
8
CUT
0
POLYLINE
8
CUT
66
1
70
1
10
0
20
0
30
0
0
VERTEX
8
CUT
10
431.500
20
149.150
30
0
0
VERTEX
8
CUT
10
431.500
20
162.612
30
0
0
VERTEX
8
CUT
10
428.500
20
162.612
30
0
0
VERTEX
8
CUT
10
428.500
20
172.762
30
0
0
VERTEX
8
CUT
10
431.500
20
172.762
30
0
0
VERTEX
8
CUT
10
431.500
20
199.537
30
0
0
VERTEX
8
CUT
10
428.500
20
199.537
30
0
0
VERTEX
8
CUT
10
428.500
20
209.688
30
0
0
VERTEX
8
CUT
10
431.500
20
209.688
30
0
0
VERTEX
8
CUT
10
431.500
20
236.462
30
0
0
VERTEX
8
CUT
10
428.500
20
236.462
30
0
0
VERTEX
8
CUT
10
428.500
20
246.613
30
0
0
VERTEX
8
CUT
10
431.500
20
246.613
30
0
0
VERTEX
8
CUT
10
431.500
20
273.387
30
0
0
VERTEX
8
CUT
10
428.500
20
273.387
30
0
0
VERTEX
8
CUT
10
428.500
20
283.537
30
0
0
VERTEX
8
CUT
10
431.500
20
283.537
30
0
0
VERTEX
8
CUT
10
431.500
20
297.000
30
0
0
VERTEX
8
CUT
10
439.650
20
297.000
30
0
0
VERTEX
8
CUT
10
439.650
20
149.150
30
0
0
SEQEND
8
CUT
0
POLYLINE
8
CUT
66
1
70
1
10
0
20
0
30
0
0
VERTEX
8
CUT
10
150.850
20
111.350
30
0
0
VERTEX
8
CUT
10
137.388
20
111.350
30
0
0
VERTEX
8
CUT
10
137.388
20
108.350
30
0
0
VERTEX
8
CUT
10
127.238
20
108.350
30
0
0
VERTEX
8
CUT
10
127.238
20
111.350
30
0
0
VERTEX
8
CUT
10
100.463
20
111.350
30
0
0
VERTEX
8
CUT
10
100.463
20
108.350
30
0
0
VERTEX
8
CUT
10
90.313
20
108.350
30
0
0
VERTEX
8
CUT
10
90.313
20
111.350
30
0
0
VERTEX
8
CUT
10
63.538
20
111.350
30
0
0
VERTEX
8
CUT
10
63.538
20
108.350
30
0
0
VERTEX
8
CUT
10
53.388
20
108.350
30
0
0
VERTEX
8
CUT
10
53.388
20
111.350
30
0
0
VERTEX
8
CUT
10
26.613
20
111.350
30
0
0
VERTEX
8
CUT
10
26.613
20
108.350
30
0
0
VERTEX
8
CUT
10
16.463
20
108.350
30
0
0
VERTEX
8
CUT
10
16.463
20
111.350
30
0
0
VERTEX
8
CUT
10
3.000
20
111.350
30
0
0
VERTEX
8
CUT
10
3.000
20
119.500
30
0
0
VERTEX
8
CUT
10
150.850
20
119.500
30
0
0
SEQEND
8
CUT
0
POLYLINE
8
CUT
66
1
70
1
10
0
20
0
30
0
0
VERTEX
8
CUT
10
140.650
20
130.100
30
0
0
VERTEX
8
CUT
10
134.500
20
130.100
30
0
0
VERTEX
8
CUT
10
134.500
20
144.558
30
0
0
VERTEX
8
CUT
10
131.500
20
144.558
30
0
0
VERTEX
8
CUT
10
131.500
20
154.708
30
0
0
VERTEX
8
CUT
10
134.500
20
154.708
30
0
0
VERTEX
8
CUT
10
134.500
20
183.475
30
0
0
VERTEX
8
CUT
10
131.500
20
183.475
30
0
0
VERTEX
8
CUT
10
131.500
20
193.625
30
0
0
VERTEX
8
CUT
10
134.500
20
193.625
30
0
0
VERTEX
8
CUT
10
134.500
20
222.392
30
0
0
VERTEX
8
CUT
10
131.500
20
222.392
30
0
0
VERTEX
8
CUT
10
131.500
20
232.542
30
0
0
VERTEX
8
CUT
10
134.500
20
232.542
30
0
0
VERTEX
8
CUT
10
134.500
20
247.000
30
0
0
VERTEX
8
CUT
10
140.650
20
247.000
30
0
0
SEQEND
8
CUT
0
POLYLINE
8
CUT
66
1
70
1
10
0
20
0
30
0
0
VERTEX
8
CUT
10
3.000
20
31.350
30
0
0
VERTEX
8
CUT
10
3.000
20
37.500
30
0
0
VERTEX
8
CUT
10
17.458
20
37.500
30
0
0
VERTEX
8
CUT
10
17.458
20
40.500
30
0
0
VERTEX
8
CUT
10
27.608
20
40.500
30
0
0
VERTEX
8
CUT
10
27.608
20
37.500
30
0
0
VERTEX
8
CUT
10
56.375
20
37.500
30
0
0
VERTEX
8
CUT
10
56.375
20
40.500
30
0
0
VERTEX
8
CUT
10
66.525
20
40.500
30
0
0
VERTEX
8
CUT
10
66.525
20
37.500
30
0
0
VERTEX
8
CUT
10
95.292
20
37.500
30
0
0
VERTEX
8
CUT
10
95.292
20
40.500
30
0
0
VERTEX
8
CUT
10
105.442
20
40.500
30
0
0
VERTEX
8
CUT
10
105.442
20
37.500
30
0
0
VERTEX
8
CUT
10
119.900
20
37.500
30
0
0
VERTEX
8
CUT
10
119.900
20
31.350
30
0
0
SEQEND
8
CUT
0
POLYLINE
8
CUT
66
1
70
1
10
0
20
0
30
0
0
VERTEX
8
CUT
10
427.521
20
29.559
30
0
0
VERTEX
8
CUT
10
425.797
20
29.255
30
0
0
VERTEX
8
CUT
10
424.938
20
34.130
30
0
0
VERTEX
8
CUT
10
419.937
20
33.248
30
0
0
VERTEX
8
CUT
10
416.664
20
51.812
30
0
0
VERTEX
8
CUT
10
421.665
20
52.694
30
0
0
VERTEX
8
CUT
10
420.805
20
57.569
30
0
0
VERTEX
8
CUT
10
422.528
20
57.872
30
0
0
VERTEX
8
CUT
10
423.388
20
52.998
30
0
0
VERTEX
8
CUT
10
429.543
20
54.083
30
0
0
VERTEX
8
CUT
10
432.816
20
35.519
30
0
0
VERTEX
8
CUT
10
426.661
20
34.434
30
0
0
SEQEND
8
CUT
0
POLYLINE
8
CUT
66
1
70
1
10
0
20
0
30
0
0
VERTEX
8
CUT
10
438.450
20
21.350
30
0
0
VERTEX
8
CUT
10
430.800
20
21.350
30
0
0
VERTEX
8
CUT
10
430.800
20
18.350
30
0
0
VERTEX
8
CUT
10
422.650
20
18.350
30
0
0
VERTEX
8
CUT
10
422.650
20
21.350
30
0
0
VERTEX
8
CUT
10
415.000
20
21.350
30
0
0
VERTEX
8
CUT
10
415.000
20
60.000
30
0
0
VERTEX
8
CUT
10
438.450
20
60.000
30
0
0
SEQEND
8
CUT
0
POLYLINE
8
CUT
66
1
70
1
10
0
20
0
30
0
0
VERTEX
8
CUT
10
132.709
20
27.979
30
0
0
VERTEX
8
CUT
10
132.405
20
29.703
30
0
0
VERTEX
8
CUT
10
137.280
20
30.562
30
0
0
VERTEX
8
CUT
10
136.398
20
35.563
30
0
0
VERTEX
8
CUT
10
154.962
20
38.836
30
0
0
VERTEX
8
CUT
10
155.844
20
33.835
30
0
0
VERTEX
8
CUT
10
160.719
20
34.695
30
0
0
VERTEX
8
CUT
10
161.022
20
32.972
30
0
0
VERTEX
8
CUT
10
156.148
20
32.112
30
0
0
VERTEX
8
CUT
10
157.233
20
25.957
30
0
0
VERTEX
8
CUT
10
138.669
20
22.684
30
0
0
VERTEX
8
CUT
10
137.584
20
28.839
30
0
0
SEQEND
8
CUT
0
POLYLINE
8
CUT
66
1
70
1
10
0
20
0
30
0
0
VERTEX
8
CUT
10
124.500
20
17.050
30
0
0
VERTEX
8
CUT
10
124.500
20
24.700
30
0
0
VERTEX
8
CUT
10
121.500
20
24.700
30
0
0
VERTEX
8
CUT
10
121.500
20
32.850
30
0
0
VERTEX
8
CUT
10
124.500
20
32.850
30
0
0
VERTEX
8
CUT
10
124.500
20
40.500
30
0
0
VERTEX
8
CUT
10
163.150
20
40.500
30
0
0
VERTEX
8
CUT
10
163.150
20
17.050
30
0
0
SEQEND
8
CUT
0
POLYLINE
8
CUT
66
1
70
1
10
0
20
0
30
0
0
VERTEX
8
CUT
10
176.209
20
24.979
30
0
0
VERTEX
8
CUT
10
175.905
20
26.703
30
0
0
VERTEX
8
CUT
10
180.780
20
27.562
30
0
0
VERTEX
8
CUT
10
179.898
20
32.563
30
0
0
VERTEX
8
CUT
10
198.462
20
35.836
30
0
0
VERTEX
8
CUT
10
199.344
20
30.835
30
0
0
VERTEX
8
CUT
10
204.219
20
31.695
30
0
0
VERTEX
8
CUT
10
204.522
20
29.972
30
0
0
VERTEX
8
CUT
10
199.648
20
29.112
30
0
0
VERTEX
8
CUT
10
200.733
20
22.957
30
0
0
VERTEX
8
CUT
10
182.169
20
19.684
30
0
0
VERTEX
8
CUT
10
181.084
20
25.839
30
0
0
SEQEND
8
CUT
0
POLYLINE
8
CUT
66
1
70
1
10
0
20
0
30
0
0
VERTEX
8
CUT
10
168.000
20
14.050
30
0
0
VERTEX
8
CUT
10
168.000
20
21.700
30
0
0
VERTEX
8
CUT
10
165.000
20
21.700
30
0
0
VERTEX
8
CUT
10
165.000
20
29.850
30
0
0
VERTEX
8
CUT
10
168.000
20
29.850
30
0
0
VERTEX
8
CUT
10
168.000
20
37.500
30
0
0
VERTEX
8
CUT
10
206.650
20
37.500
30
0
0
VERTEX
8
CUT
10
206.650
20
14.050
30
0
0
SEQEND
8
CUT
0
POLYLINE
8
CUT
66
1
70
1
10
0
20
0
30
0
0
VERTEX
8
CUT
10
219.709
20
24.979
30
0
0
VERTEX
8
CUT
10
219.405
20
26.703
30
0
0
VERTEX
8
CUT
10
224.280
20
27.562
30
0
0
VERTEX
8
CUT
10
223.398
20
32.563
30
0
0
VERTEX
8
CUT
10
241.962
20
35.836
30
0
0
VERTEX
8
CUT
10
242.844
20
30.835
30
0
0
VERTEX
8
CUT
10
247.719
20
31.695
30
0
0
VERTEX
8
CUT
10
248.022
20
29.972
30
0
0
VERTEX
8
CUT
10
243.148
20
29.112
30
0
0
VERTEX
8
CUT
10
244.233
20
22.957
30
0
0
VERTEX
8
CUT
10
225.669
20
19.684
30
0
0
VERTEX
8
CUT
10
224.584
20
25.839
30
0
0
SEQEND
8
CUT
0
POLYLINE
8
CUT
66
1
70
1
10
0
20
0
30
0
0
VERTEX
8
CUT
10
211.500
20
14.050
30
0
0
VERTEX
8
CUT
10
211.500
20
21.700
30
0
0
VERTEX
8
CUT
10
208.500
20
21.700
30
0
0
VERTEX
8
CUT
10
208.500
20
29.850
30
0
0
VERTEX
8
CUT
10
211.500
20
29.850
30
0
0
VERTEX
8
CUT
10
211.500
20
37.500
30
0
0
VERTEX
8
CUT
10
250.150
20
37.500
30
0
0
VERTEX
8
CUT
10
250.150
20
14.050
30
0
0
SEQEND
8
CUT
0
POLYLINE
8
CUT
66
1
70
1
10
0
20
0
30
0
0
VERTEX
8
CUT
10
263.209
20
24.979
30
0
0
VERTEX
8
CUT
10
262.905
20
26.703
30
0
0
VERTEX
8
CUT
10
267.780
20
27.562
30
0
0
VERTEX
8
CUT
10
266.898
20
32.563
30
0
0
VERTEX
8
CUT
10
285.462
20
35.836
30
0
0
VERTEX
8
CUT
10
286.344
20
30.835
30
0
0
VERTEX
8
CUT
10
291.219
20
31.695
30
0
0
VERTEX
8
CUT
10
291.522
20
29.972
30
0
0
VERTEX
8
CUT
10
286.648
20
29.112
30
0
0
VERTEX
8
CUT
10
287.733
20
22.957
30
0
0
VERTEX
8
CUT
10
269.169
20
19.684
30
0
0
VERTEX
8
CUT
10
268.084
20
25.839
30
0
0
SEQEND
8
CUT
0
POLYLINE
8
CUT
66
1
70
1
10
0
20
0
30
0
0
VERTEX
8
CUT
10
255.000
20
14.050
30
0
0
VERTEX
8
CUT
10
255.000
20
21.700
30
0
0
VERTEX
8
CUT
10
252.000
20
21.700
30
0
0
VERTEX
8
CUT
10
252.000
20
29.850
30
0
0
VERTEX
8
CUT
10
255.000
20
29.850
30
0
0
VERTEX
8
CUT
10
255.000
20
37.500
30
0
0
VERTEX
8
CUT
10
293.650
20
37.500
30
0
0
VERTEX
8
CUT
10
293.650
20
14.050
30
0
0
SEQEND
8
CUT
0
POLYLINE
8
CUT
66
1
70
1
10
0
20
0
30
0
0
VERTEX
8
CUT
10
295.500
20
20.350
30
0
0
VERTEX
8
CUT
10
295.500
20
37.500
30
0
0
VERTEX
8
CUT
10
317.650
20
37.500
30
0
0
VERTEX
8
CUT
10
317.650
20
20.350
30
0
0
SEQEND
8
CUT
0
POLYLINE
8
CUT
66
1
70
1
10
0
20
0
30
0
0
VERTEX
8
CUT
10
3.000
20
12.350
30
0
0
VERTEX
8
CUT
10
3.000
20
29.500
30
0
0
VERTEX
8
CUT
10
25.150
20
29.500
30
0
0
VERTEX
8
CUT
10
25.150
20
12.350
30
0
0
SEQEND
8
CUT
0
POLYLINE
8
CUT
66
1
70
1
10
0
20
0
30
0
0
VERTEX
8
CUT
10
27.000
20
12.350
30
0
0
VERTEX
8
CUT
10
27.000
20
29.500
30
0
0
VERTEX
8
CUT
10
49.150
20
29.500
30
0
0
VERTEX
8
CUT
10
49.150
20
12.350
30
0
0
SEQEND
8
CUT
0
POLYLINE
8
CUT
66
1
70
1
10
0
20
0
30
0
0
VERTEX
8
CUT
10
17.500
20
268.108
30
0
0
VERTEX
8
CUT
10
19.375
20
268.142
30
0
0
VERTEX
8
CUT
10
21.179
20
268.731
30
0
0
VERTEX
8
CUT
10
22.920
20
269.851
30
0
0
VERTEX
8
CUT
10
24.530
20
271.457
30
0
0
VERTEX
8
CUT
10
25.950
20
273.488
30
0
0
VERTEX
8
CUT
10
27.127
20
275.864
30
0
0
VERTEX
8
CUT
10
28.015
20
278.496
30
0
0
VERTEX
8
CUT
10
28.581
20
281.282
30
0
0
VERTEX
8
CUT
10
28.805
20
284.117
30
0
0
VERTEX
8
CUT
10
28.676
20
286.891
30
0
0
VERTEX
8
CUT
10
28.201
20
289.500
30
0
0
VERTEX
8
CUT
10
27.395
20
291.843
30
0
0
VERTEX
8
CUT
10
26.290
20
293.831
30
0
0
VERTEX
8
CUT
10
24.926
20
295.387
30
0
0
VERTEX
8
CUT
10
23.353
20
296.451
30
0
0
VERTEX
8
CUT
10
21.560
20
297.000
30
0
0
SEQEND
8
CUT
0
ENDSEC
0
EOF
