0
SECTION
2
HEADER
9
$ACADVER
1
AC1009
9
$INSUNITS
70
4
0
ENDSEC
0
SECTION
2
TABLES
0
TABLE
2
LAYER
70
3
0
LAYER
2
CUT
70
0
62
1
6
CONTINUOUS
0
LAYER
2
SCORE
70
0
62
5
6
CONTINUOUS
0
LAYER
2
ENGRAVE
70
0
62
7
6
CONTINUOUS
0
ENDTAB
0
ENDSEC
0
SECTION
2
ENTITIES
0
POLYLINE
8
ENGRAVE
66
1
70
1
10
0
20
0
30
0
0
VERTEX
8
ENGRAVE
10
36.753
20
231.629
30
0
0
VERTEX
8
ENGRAVE
10
36.795
20
232.129
30
0
0
VERTEX
8
ENGRAVE
10
36.961
20
232.463
30
0
0
VERTEX
8
ENGRAVE
10
37.295
20
232.713
30
0
0
VERTEX
8
ENGRAVE
10
37.670
20
232.754
30
0
0
VERTEX
8
ENGRAVE
10
37.878
20
232.713
30
0
0
VERTEX
8
ENGRAVE
10
38.295
20
232.463
30
0
0
VERTEX
8
ENGRAVE
10
39.253
20
231.296
30
0
0
VERTEX
8
ENGRAVE
10
39.253
20
232.754
30
0
0
VERTEX
8
ENGRAVE
10
39.545
20
232.754
30
0
0
VERTEX
8
ENGRAVE
10
39.545
20
230.796
30
0
0
VERTEX
8
ENGRAVE
10
39.253
20
230.796
30
0
0
VERTEX
8
ENGRAVE
10
38.378
20
231.963
30
0
0
VERTEX
8
ENGRAVE
10
38.003
20
232.296
30
0
0
VERTEX
8
ENGRAVE
10
37.795
20
232.379
30
0
0
VERTEX
8
ENGRAVE
10
37.295
20
232.338
30
0
0
VERTEX
8
ENGRAVE
10
37.045
20
231.963
30
0
0
VERTEX
8
ENGRAVE
10
37.045
20
231.588
30
0
0
VERTEX
8
ENGRAVE
10
37.170
20
231.338
30
0
0
VERTEX
8
ENGRAVE
10
37.503
20
231.129
30
0
0
VERTEX
8
ENGRAVE
10
37.670
20
231.129
30
0
0
VERTEX
8
ENGRAVE
10
37.586
20
230.796
30
0
0
VERTEX
8
ENGRAVE
10
37.128
20
230.963
30
0
0
VERTEX
8
ENGRAVE
10
36.920
20
231.171
30
0
0
SEQEND
8
ENGRAVE
0
POLYLINE
8
ENGRAVE
66
1
70
1
10
0
20
0
30
0
0
VERTEX
8
ENGRAVE
10
36.795
20
228.421
30
0
0
VERTEX
8
ENGRAVE
10
36.836
20
229.879
30
0
0
VERTEX
8
ENGRAVE
10
37.170
20
230.254
30
0
0
VERTEX
8
ENGRAVE
10
37.795
20
230.254
30
0
0
VERTEX
8
ENGRAVE
10
38.003
20
230.046
30
0
0
VERTEX
8
ENGRAVE
10
38.086
20
229.838
30
0
0
VERTEX
8
ENGRAVE
10
38.211
20
230.129
30
0
0
VERTEX
8
ENGRAVE
10
38.586
20
230.379
30
0
0
VERTEX
8
ENGRAVE
10
39.128
20
230.338
30
0
0
VERTEX
8
ENGRAVE
10
39.420
20
230.088
30
0
0
VERTEX
8
ENGRAVE
10
39.545
20
229.754
30
0
0
VERTEX
8
ENGRAVE
10
39.545
20
228.421
30
0
0
SEQEND
8
ENGRAVE
0
POLYLINE
8
ENGRAVE
66
1
70
1
10
0
20
0
30
0
0
VERTEX
8
ENGRAVE
10
37.086
20
228.796
30
0
0
VERTEX
8
ENGRAVE
10
37.961
20
228.754
30
0
0
VERTEX
8
ENGRAVE
10
37.961
20
229.629
30
0
0
VERTEX
8
ENGRAVE
10
37.753
20
229.921
30
0
0
VERTEX
8
ENGRAVE
10
37.420
20
229.963
30
0
0
VERTEX
8
ENGRAVE
10
37.128
20
229.754
30
0
0
SEQEND
8
ENGRAVE
0
POLYLINE
8
ENGRAVE
66
1
70
1
10
0
20
0
30
0
0
VERTEX
8
ENGRAVE
10
38.253
20
228.796
30
0
0
VERTEX
8
ENGRAVE
10
39.253
20
228.754
30
0
0
VERTEX
8
ENGRAVE
10
39.253
20
229.629
30
0
0
VERTEX
8
ENGRAVE
10
39.003
20
230.004
30
0
0
VERTEX
8
ENGRAVE
10
38.503
20
230.004
30
0
0
VERTEX
8
ENGRAVE
10
38.295
20
229.796
30
0
0
SEQEND
8
ENGRAVE
0
POLYLINE
8
ENGRAVE
66
1
70
1
10
0
20
0
30
0
0
VERTEX
8
ENGRAVE
10
34.794
20
144.497
30
0
0
VERTEX
8
ENGRAVE
10
34.794
20
145.247
30
0
0
VERTEX
8
ENGRAVE
10
35.075
20
146.091
30
0
0
VERTEX
8
ENGRAVE
10
35.637
20
146.747
30
0
0
VERTEX
8
ENGRAVE
10
36.200
20
147.028
30
0
0
VERTEX
8
ENGRAVE
10
36.387
20
146.934
30
0
0
VERTEX
8
ENGRAVE
10
36.481
20
146.278
30
0
0
VERTEX
8
ENGRAVE
10
36.012
20
146.184
30
0
0
VERTEX
8
ENGRAVE
10
35.450
20
145.247
30
0
0
VERTEX
8
ENGRAVE
10
35.450
20
144.309
30
0
0
VERTEX
8
ENGRAVE
10
36.012
20
143.559
30
0
0
VERTEX
8
ENGRAVE
10
36.481
20
143.466
30
0
0
VERTEX
8
ENGRAVE
10
37.137
20
143.841
30
0
0
VERTEX
8
ENGRAVE
10
37.794
20
146.278
30
0
0
VERTEX
8
ENGRAVE
10
38.544
20
147.122
30
0
0
VERTEX
8
ENGRAVE
10
39.856
20
147.216
30
0
0
VERTEX
8
ENGRAVE
10
40.325
20
147.028
30
0
0
VERTEX
8
ENGRAVE
10
40.794
20
146.559
30
0
0
VERTEX
8
ENGRAVE
10
41.169
20
145.622
30
0
0
VERTEX
8
ENGRAVE
10
40.981
20
143.747
30
0
0
VERTEX
8
ENGRAVE
10
40.231
20
142.809
30
0
0
VERTEX
8
ENGRAVE
10
39.575
20
142.434
30
0
0
VERTEX
8
ENGRAVE
10
39.387
20
142.434
30
0
0
VERTEX
8
ENGRAVE
10
39.294
20
143.184
30
0
0
VERTEX
8
ENGRAVE
10
40.137
20
143.653
30
0
0
VERTEX
8
ENGRAVE
10
40.512
20
144.591
30
0
0
VERTEX
8
ENGRAVE
10
40.419
20
145.716
30
0
0
VERTEX
8
ENGRAVE
10
39.856
20
146.372
30
0
0
VERTEX
8
ENGRAVE
10
39.294
20
146.466
30
0
0
VERTEX
8
ENGRAVE
10
38.731
20
146.184
30
0
0
VERTEX
8
ENGRAVE
10
38.450
20
145.716
30
0
0
VERTEX
8
ENGRAVE
10
37.981
20
143.653
30
0
0
VERTEX
8
ENGRAVE
10
37.137
20
142.809
30
0
0
VERTEX
8
ENGRAVE
10
36.294
20
142.716
30
0
0
VERTEX
8
ENGRAVE
10
35.637
20
142.903
30
0
0
VERTEX
8
ENGRAVE
10
35.169
20
143.372
30
0
0
SEQEND
8
ENGRAVE
0
POLYLINE
8
ENGRAVE
66
1
70
1
10
0
20
0
30
0
0
VERTEX
8
ENGRAVE
10
34.887
20
128.559
30
0
0
VERTEX
8
ENGRAVE
10
34.981
20
129.497
30
0
0
VERTEX
8
ENGRAVE
10
41.075
20
131.372
30
0
0
VERTEX
8
ENGRAVE
10
40.981
20
130.528
30
0
0
VERTEX
8
ENGRAVE
10
39.294
20
130.059
30
0
0
VERTEX
8
ENGRAVE
10
39.294
20
127.716
30
0
0
VERTEX
8
ENGRAVE
10
40.981
20
127.247
30
0
0
VERTEX
8
ENGRAVE
10
41.075
20
126.497
30
0
0
SEQEND
8
ENGRAVE
0
POLYLINE
8
ENGRAVE
66
1
70
1
10
0
20
0
30
0
0
VERTEX
8
ENGRAVE
10
34.887
20
132.216
30
0
0
VERTEX
8
ENGRAVE
10
34.981
20
135.403
30
0
0
VERTEX
8
ENGRAVE
10
35.637
20
136.341
30
0
0
VERTEX
8
ENGRAVE
10
36.575
20
136.622
30
0
0
VERTEX
8
ENGRAVE
10
37.231
20
136.528
30
0
0
VERTEX
8
ENGRAVE
10
37.981
20
135.966
30
0
0
VERTEX
8
ENGRAVE
10
38.169
20
135.497
30
0
0
VERTEX
8
ENGRAVE
10
38.450
20
135.497
30
0
0
VERTEX
8
ENGRAVE
10
41.075
20
136.622
30
0
0
VERTEX
8
ENGRAVE
10
41.075
20
135.778
30
0
0
VERTEX
8
ENGRAVE
10
38.450
20
134.747
30
0
0
VERTEX
8
ENGRAVE
10
38.450
20
132.966
30
0
0
VERTEX
8
ENGRAVE
10
41.075
20
132.966
30
0
0
VERTEX
8
ENGRAVE
10
41.075
20
132.216
30
0
0
SEQEND
8
ENGRAVE
0
POLYLINE
8
ENGRAVE
66
1
70
1
10
0
20
0
30
0
0
VERTEX
8
ENGRAVE
10
34.887
20
137.747
30
0
0
VERTEX
8
ENGRAVE
10
34.887
20
141.684
30
0
0
VERTEX
8
ENGRAVE
10
35.544
20
141.684
30
0
0
VERTEX
8
ENGRAVE
10
35.544
20
138.591
30
0
0
VERTEX
8
ENGRAVE
10
37.512
20
138.591
30
0
0
VERTEX
8
ENGRAVE
10
37.512
20
141.028
30
0
0
VERTEX
8
ENGRAVE
10
38.169
20
141.028
30
0
0
VERTEX
8
ENGRAVE
10
38.169
20
138.591
30
0
0
VERTEX
8
ENGRAVE
10
40.419
20
138.591
30
0
0
VERTEX
8
ENGRAVE
10
40.419
20
141.778
30
0
0
VERTEX
8
ENGRAVE
10
41.075
20
141.778
30
0
0
VERTEX
8
ENGRAVE
10
41.075
20
137.747
30
0
0
SEQEND
8
ENGRAVE
0
POLYLINE
8
ENGRAVE
66
1
70
1
10
0
20
0
30
0
0
VERTEX
8
ENGRAVE
10
34.887
20
153.028
30
0
0
VERTEX
8
ENGRAVE
10
34.887
20
153.591
30
0
0
VERTEX
8
ENGRAVE
10
40.512
20
153.591
30
0
0
VERTEX
8
ENGRAVE
10
40.512
20
155.372
30
0
0
VERTEX
8
ENGRAVE
10
41.075
20
155.372
30
0
0
VERTEX
8
ENGRAVE
10
41.075
20
151.059
30
0
0
VERTEX
8
ENGRAVE
10
40.512
20
151.059
30
0
0
VERTEX
8
ENGRAVE
10
40.512
20
152.841
30
0
0
VERTEX
8
ENGRAVE
10
35.919
20
152.841
30
0
0
VERTEX
8
ENGRAVE
10
37.137
20
151.341
30
0
0
VERTEX
8
ENGRAVE
10
37.137
20
151.153
30
0
0
VERTEX
8
ENGRAVE
10
36.387
20
151.153
30
0
0
VERTEX
8
ENGRAVE
10
35.731
20
152.278
30
0
0
SEQEND
8
ENGRAVE
0
POLYLINE
8
ENGRAVE
66
1
70
1
10
0
20
0
30
0
0
VERTEX
8
ENGRAVE
10
35.544
20
133.059
30
0
0
VERTEX
8
ENGRAVE
10
37.794
20
132.966
30
0
0
VERTEX
8
ENGRAVE
10
37.700
20
135.122
30
0
0
VERTEX
8
ENGRAVE
10
37.231
20
135.684
30
0
0
VERTEX
8
ENGRAVE
10
36.294
20
135.778
30
0
0
VERTEX
8
ENGRAVE
10
35.825
20
135.497
30
0
0
VERTEX
8
ENGRAVE
10
35.544
20
134.747
30
0
0
SEQEND
8
ENGRAVE
0
POLYLINE
8
ENGRAVE
66
1
70
1
10
0
20
0
30
0
0
VERTEX
8
ENGRAVE
10
35.825
20
128.934
30
0
0
VERTEX
8
ENGRAVE
10
38.637
20
127.997
30
0
0
VERTEX
8
ENGRAVE
10
38.637
20
129.778
30
0
0
SEQEND
8
ENGRAVE
0
POLYLINE
8
ENGRAVE
66
1
70
1
10
0
20
0
30
0
0
VERTEX
8
ENGRAVE
10
38.450
20
147.684
30
0
0
VERTEX
8
ENGRAVE
10
38.450
20
149.559
30
0
0
VERTEX
8
ENGRAVE
10
39.012
20
149.559
30
0
0
VERTEX
8
ENGRAVE
10
39.012
20
147.591
30
0
0
SEQEND
8
ENGRAVE
0
POLYLINE
8
ENGRAVE
66
1
70
1
10
0
20
0
30
0
0
VERTEX
8
ENGRAVE
10
58.497
20
58.706
30
0
0
VERTEX
8
ENGRAVE
10
59.247
20
58.706
30
0
0
VERTEX
8
ENGRAVE
10
60.091
20
58.425
30
0
0
VERTEX
8
ENGRAVE
10
60.747
20
57.863
30
0
0
VERTEX
8
ENGRAVE
10
61.028
20
57.300
30
0
0
VERTEX
8
ENGRAVE
10
60.934
20
57.113
30
0
0
VERTEX
8
ENGRAVE
10
60.278
20
57.019
30
0
0
VERTEX
8
ENGRAVE
10
60.184
20
57.488
30
0
0
VERTEX
8
ENGRAVE
10
59.247
20
58.050
30
0
0
VERTEX
8
ENGRAVE
10
58.309
20
58.050
30
0
0
VERTEX
8
ENGRAVE
10
57.559
20
57.488
30
0
0
VERTEX
8
ENGRAVE
10
57.466
20
57.019
30
0
0
VERTEX
8
ENGRAVE
10
57.841
20
56.363
30
0
0
VERTEX
8
ENGRAVE
10
60.278
20
55.706
30
0
0
VERTEX
8
ENGRAVE
10
61.122
20
54.956
30
0
0
VERTEX
8
ENGRAVE
10
61.216
20
53.644
30
0
0
VERTEX
8
ENGRAVE
10
61.028
20
53.175
30
0
0
VERTEX
8
ENGRAVE
10
60.559
20
52.706
30
0
0
VERTEX
8
ENGRAVE
10
59.622
20
52.331
30
0
0
VERTEX
8
ENGRAVE
10
57.747
20
52.519
30
0
0
VERTEX
8
ENGRAVE
10
56.809
20
53.269
30
0
0
VERTEX
8
ENGRAVE
10
56.434
20
53.925
30
0
0
VERTEX
8
ENGRAVE
10
56.434
20
54.113
30
0
0
VERTEX
8
ENGRAVE
10
57.184
20
54.206
30
0
0
VERTEX
8
ENGRAVE
10
57.653
20
53.363
30
0
0
VERTEX
8
ENGRAVE
10
58.591
20
52.988
30
0
0
VERTEX
8
ENGRAVE
10
59.716
20
53.081
30
0
0
VERTEX
8
ENGRAVE
10
60.372
20
53.644
30
0
0
VERTEX
8
ENGRAVE
10
60.466
20
54.206
30
0
0
VERTEX
8
ENGRAVE
10
60.184
20
54.769
30
0
0
VERTEX
8
ENGRAVE
10
59.716
20
55.050
30
0
0
VERTEX
8
ENGRAVE
10
57.653
20
55.519
30
0
0
VERTEX
8
ENGRAVE
10
56.809
20
56.363
30
0
0
VERTEX
8
ENGRAVE
10
56.716
20
57.206
30
0
0
VERTEX
8
ENGRAVE
10
56.903
20
57.863
30
0
0
VERTEX
8
ENGRAVE
10
57.372
20
58.331
30
0
0
SEQEND
8
ENGRAVE
0
POLYLINE
8
ENGRAVE
66
1
70
1
10
0
20
0
30
0
0
VERTEX
8
ENGRAVE
10
42.559
20
58.613
30
0
0
VERTEX
8
ENGRAVE
10
43.497
20
58.519
30
0
0
VERTEX
8
ENGRAVE
10
45.372
20
52.425
30
0
0
VERTEX
8
ENGRAVE
10
44.528
20
52.519
30
0
0
VERTEX
8
ENGRAVE
10
44.059
20
54.206
30
0
0
VERTEX
8
ENGRAVE
10
41.716
20
54.206
30
0
0
VERTEX
8
ENGRAVE
10
41.247
20
52.519
30
0
0
VERTEX
8
ENGRAVE
10
40.497
20
52.425
30
0
0
SEQEND
8
ENGRAVE
0
POLYLINE
8
ENGRAVE
66
1
70
1
10
0
20
0
30
0
0
VERTEX
8
ENGRAVE
10
46.216
20
58.613
30
0
0
VERTEX
8
ENGRAVE
10
49.403
20
58.519
30
0
0
VERTEX
8
ENGRAVE
10
50.341
20
57.863
30
0
0
VERTEX
8
ENGRAVE
10
50.622
20
56.925
30
0
0
VERTEX
8
ENGRAVE
10
50.528
20
56.269
30
0
0
VERTEX
8
ENGRAVE
10
49.966
20
55.519
30
0
0
VERTEX
8
ENGRAVE
10
49.497
20
55.331
30
0
0
VERTEX
8
ENGRAVE
10
49.497
20
55.050
30
0
0
VERTEX
8
ENGRAVE
10
50.622
20
52.425
30
0
0
VERTEX
8
ENGRAVE
10
49.778
20
52.425
30
0
0
VERTEX
8
ENGRAVE
10
48.747
20
55.050
30
0
0
VERTEX
8
ENGRAVE
10
46.966
20
55.050
30
0
0
VERTEX
8
ENGRAVE
10
46.966
20
52.425
30
0
0
VERTEX
8
ENGRAVE
10
46.216
20
52.425
30
0
0
SEQEND
8
ENGRAVE
0
POLYLINE
8
ENGRAVE
66
1
70
1
10
0
20
0
30
0
0
VERTEX
8
ENGRAVE
10
51.747
20
58.613
30
0
0
VERTEX
8
ENGRAVE
10
55.684
20
58.613
30
0
0
VERTEX
8
ENGRAVE
10
55.684
20
57.956
30
0
0
VERTEX
8
ENGRAVE
10
52.591
20
57.956
30
0
0
VERTEX
8
ENGRAVE
10
52.591
20
55.988
30
0
0
VERTEX
8
ENGRAVE
10
55.028
20
55.988
30
0
0
VERTEX
8
ENGRAVE
10
55.028
20
55.331
30
0
0
VERTEX
8
ENGRAVE
10
52.591
20
55.331
30
0
0
VERTEX
8
ENGRAVE
10
52.591
20
53.081
30
0
0
VERTEX
8
ENGRAVE
10
55.778
20
53.081
30
0
0
VERTEX
8
ENGRAVE
10
55.778
20
52.425
30
0
0
VERTEX
8
ENGRAVE
10
51.747
20
52.425
30
0
0
SEQEND
8
ENGRAVE
0
POLYLINE
8
ENGRAVE
66
1
70
1
10
0
20
0
30
0
0
VERTEX
8
ENGRAVE
10
67.028
20
58.613
30
0
0
VERTEX
8
ENGRAVE
10
67.591
20
58.613
30
0
0
VERTEX
8
ENGRAVE
10
67.591
20
52.988
30
0
0
VERTEX
8
ENGRAVE
10
69.372
20
52.988
30
0
0
VERTEX
8
ENGRAVE
10
69.372
20
52.425
30
0
0
VERTEX
8
ENGRAVE
10
65.059
20
52.425
30
0
0
VERTEX
8
ENGRAVE
10
65.059
20
52.988
30
0
0
VERTEX
8
ENGRAVE
10
66.841
20
52.988
30
0
0
VERTEX
8
ENGRAVE
10
66.841
20
57.581
30
0
0
VERTEX
8
ENGRAVE
10
65.341
20
56.363
30
0
0
VERTEX
8
ENGRAVE
10
65.153
20
56.363
30
0
0
VERTEX
8
ENGRAVE
10
65.153
20
57.113
30
0
0
VERTEX
8
ENGRAVE
10
66.278
20
57.769
30
0
0
SEQEND
8
ENGRAVE
0
POLYLINE
8
ENGRAVE
66
1
70
1
10
0
20
0
30
0
0
VERTEX
8
ENGRAVE
10
47.059
20
57.956
30
0
0
VERTEX
8
ENGRAVE
10
46.966
20
55.706
30
0
0
VERTEX
8
ENGRAVE
10
49.122
20
55.800
30
0
0
VERTEX
8
ENGRAVE
10
49.684
20
56.269
30
0
0
VERTEX
8
ENGRAVE
10
49.778
20
57.206
30
0
0
VERTEX
8
ENGRAVE
10
49.497
20
57.675
30
0
0
VERTEX
8
ENGRAVE
10
48.747
20
57.956
30
0
0
SEQEND
8
ENGRAVE
0
POLYLINE
8
ENGRAVE
66
1
70
1
10
0
20
0
30
0
0
VERTEX
8
ENGRAVE
10
42.934
20
57.675
30
0
0
VERTEX
8
ENGRAVE
10
41.997
20
54.863
30
0
0
VERTEX
8
ENGRAVE
10
43.778
20
54.863
30
0
0
SEQEND
8
ENGRAVE
0
POLYLINE
8
ENGRAVE
66
1
70
1
10
0
20
0
30
0
0
VERTEX
8
ENGRAVE
10
61.684
20
55.050
30
0
0
VERTEX
8
ENGRAVE
10
63.559
20
55.050
30
0
0
VERTEX
8
ENGRAVE
10
63.559
20
54.488
30
0
0
VERTEX
8
ENGRAVE
10
61.591
20
54.488
30
0
0
SEQEND
8
ENGRAVE
0
POLYLINE
8
ENGRAVE
66
1
70
1
10
0
20
0
30
0
0
VERTEX
8
ENGRAVE
10
158.272
20
145.764
30
0
0
VERTEX
8
ENGRAVE
10
158.564
20
145.764
30
0
0
VERTEX
8
ENGRAVE
10
158.939
20
145.639
30
0
0
VERTEX
8
ENGRAVE
10
159.147
20
145.472
30
0
0
VERTEX
8
ENGRAVE
10
159.397
20
145.014
30
0
0
VERTEX
8
ENGRAVE
10
159.356
20
144.847
30
0
0
VERTEX
8
ENGRAVE
10
159.064
20
144.805
30
0
0
VERTEX
8
ENGRAVE
10
159.022
20
145.055
30
0
0
VERTEX
8
ENGRAVE
10
158.814
20
145.347
30
0
0
VERTEX
8
ENGRAVE
10
158.564
20
145.472
30
0
0
VERTEX
8
ENGRAVE
10
158.231
20
145.472
30
0
0
VERTEX
8
ENGRAVE
10
157.981
20
145.347
30
0
0
VERTEX
8
ENGRAVE
10
157.731
20
144.972
30
0
0
VERTEX
8
ENGRAVE
10
157.647
20
144.097
30
0
0
VERTEX
8
ENGRAVE
10
157.772
20
143.639
30
0
0
VERTEX
8
ENGRAVE
10
157.981
20
143.347
30
0
0
VERTEX
8
ENGRAVE
10
158.231
20
143.222
30
0
0
VERTEX
8
ENGRAVE
10
158.689
20
143.264
30
0
0
VERTEX
8
ENGRAVE
10
158.939
20
143.472
30
0
0
VERTEX
8
ENGRAVE
10
159.064
20
143.889
30
0
0
VERTEX
8
ENGRAVE
10
159.397
20
143.847
30
0
0
VERTEX
8
ENGRAVE
10
159.356
20
143.597
30
0
0
VERTEX
8
ENGRAVE
10
159.147
20
143.222
30
0
0
VERTEX
8
ENGRAVE
10
158.606
20
142.930
30
0
0
VERTEX
8
ENGRAVE
10
158.189
20
142.930
30
0
0
VERTEX
8
ENGRAVE
10
157.772
20
143.097
30
0
0
VERTEX
8
ENGRAVE
10
157.439
20
143.514
30
0
0
VERTEX
8
ENGRAVE
10
157.272
20
144.055
30
0
0
VERTEX
8
ENGRAVE
10
157.272
20
144.680
30
0
0
VERTEX
8
ENGRAVE
10
157.481
20
145.264
30
0
0
VERTEX
8
ENGRAVE
10
157.856
20
145.639
30
0
0
SEQEND
8
ENGRAVE
0
POLYLINE
8
ENGRAVE
66
1
70
1
10
0
20
0
30
0
0
VERTEX
8
ENGRAVE
10
160.981
20
145.722
30
0
0
VERTEX
8
ENGRAVE
10
161.397
20
145.722
30
0
0
VERTEX
8
ENGRAVE
10
161.397
20
143.889
30
0
0
VERTEX
8
ENGRAVE
10
161.856
20
143.889
30
0
0
VERTEX
8
ENGRAVE
10
161.856
20
143.597
30
0
0
VERTEX
8
ENGRAVE
10
161.397
20
143.597
30
0
0
VERTEX
8
ENGRAVE
10
161.397
20
142.972
30
0
0
VERTEX
8
ENGRAVE
10
161.064
20
142.972
30
0
0
VERTEX
8
ENGRAVE
10
161.064
20
143.597
30
0
0
VERTEX
8
ENGRAVE
10
159.731
20
143.597
30
0
0
VERTEX
8
ENGRAVE
10
159.731
20
143.889
30
0
0
SEQEND
8
ENGRAVE
0
POLYLINE
8
ENGRAVE
66
1
70
1
10
0
20
0
30
0
0
VERTEX
8
ENGRAVE
10
161.064
20
145.389
30
0
0
VERTEX
8
ENGRAVE
10
160.897
20
145.222
30
0
0
VERTEX
8
ENGRAVE
10
160.106
20
143.889
30
0
0
VERTEX
8
ENGRAVE
10
161.064
20
143.889
30
0
0
SEQEND
8
ENGRAVE
0
POLYLINE
8
ENGRAVE
66
1
70
1
10
0
20
0
30
0
0
VERTEX
8
ENGRAVE
10
128.276
20
105.538
30
0
0
VERTEX
8
ENGRAVE
10
128.276
20
105.829
30
0
0
VERTEX
8
ENGRAVE
10
128.401
20
106.204
30
0
0
VERTEX
8
ENGRAVE
10
128.568
20
106.413
30
0
0
VERTEX
8
ENGRAVE
10
129.026
20
106.663
30
0
0
VERTEX
8
ENGRAVE
10
129.193
20
106.621
30
0
0
VERTEX
8
ENGRAVE
10
129.234
20
106.329
30
0
0
VERTEX
8
ENGRAVE
10
128.984
20
106.288
30
0
0
VERTEX
8
ENGRAVE
10
128.693
20
106.079
30
0
0
VERTEX
8
ENGRAVE
10
128.568
20
105.829
30
0
0
VERTEX
8
ENGRAVE
10
128.568
20
105.496
30
0
0
VERTEX
8
ENGRAVE
10
128.693
20
105.246
30
0
0
VERTEX
8
ENGRAVE
10
129.068
20
104.996
30
0
0
VERTEX
8
ENGRAVE
10
129.943
20
104.913
30
0
0
VERTEX
8
ENGRAVE
10
130.401
20
105.038
30
0
0
VERTEX
8
ENGRAVE
10
130.693
20
105.246
30
0
0
VERTEX
8
ENGRAVE
10
130.818
20
105.496
30
0
0
VERTEX
8
ENGRAVE
10
130.776
20
105.954
30
0
0
VERTEX
8
ENGRAVE
10
130.568
20
106.204
30
0
0
VERTEX
8
ENGRAVE
10
130.151
20
106.329
30
0
0
VERTEX
8
ENGRAVE
10
130.193
20
106.663
30
0
0
VERTEX
8
ENGRAVE
10
130.443
20
106.621
30
0
0
VERTEX
8
ENGRAVE
10
130.818
20
106.413
30
0
0
VERTEX
8
ENGRAVE
10
131.109
20
105.871
30
0
0
VERTEX
8
ENGRAVE
10
131.109
20
105.454
30
0
0
VERTEX
8
ENGRAVE
10
130.943
20
105.038
30
0
0
VERTEX
8
ENGRAVE
10
130.526
20
104.704
30
0
0
VERTEX
8
ENGRAVE
10
129.984
20
104.538
30
0
0
VERTEX
8
ENGRAVE
10
129.359
20
104.538
30
0
0
VERTEX
8
ENGRAVE
10
128.776
20
104.746
30
0
0
VERTEX
8
ENGRAVE
10
128.401
20
105.121
30
0
0
SEQEND
8
ENGRAVE
0
POLYLINE
8
ENGRAVE
66
1
70
1
10
0
20
0
30
0
0
VERTEX
8
ENGRAVE
10
128.318
20
107.246
30
0
0
VERTEX
8
ENGRAVE
10
128.318
20
108.871
30
0
0
VERTEX
8
ENGRAVE
10
128.609
20
108.871
30
0
0
VERTEX
8
ENGRAVE
10
128.609
20
107.496
30
0
0
VERTEX
8
ENGRAVE
10
129.484
20
107.454
30
0
0
VERTEX
8
ENGRAVE
10
129.234
20
107.871
30
0
0
VERTEX
8
ENGRAVE
10
129.234
20
108.371
30
0
0
VERTEX
8
ENGRAVE
10
129.359
20
108.663
30
0
0
VERTEX
8
ENGRAVE
10
129.859
20
109.038
30
0
0
VERTEX
8
ENGRAVE
10
130.401
20
109.038
30
0
0
VERTEX
8
ENGRAVE
10
130.693
20
108.913
30
0
0
VERTEX
8
ENGRAVE
10
131.068
20
108.413
30
0
0
VERTEX
8
ENGRAVE
10
131.068
20
107.621
30
0
0
VERTEX
8
ENGRAVE
10
130.943
20
107.371
30
0
0
VERTEX
8
ENGRAVE
10
130.526
20
107.038
30
0
0
VERTEX
8
ENGRAVE
10
130.443
20
107.038
30
0
0
VERTEX
8
ENGRAVE
10
130.359
20
107.371
30
0
0
VERTEX
8
ENGRAVE
10
130.693
20
107.538
30
0
0
VERTEX
8
ENGRAVE
10
130.818
20
107.788
30
0
0
VERTEX
8
ENGRAVE
10
130.818
20
108.288
30
0
0
VERTEX
8
ENGRAVE
10
130.734
20
108.454
30
0
0
VERTEX
8
ENGRAVE
10
130.401
20
108.704
30
0
0
VERTEX
8
ENGRAVE
10
129.901
20
108.704
30
0
0
VERTEX
8
ENGRAVE
10
129.568
20
108.454
30
0
0
VERTEX
8
ENGRAVE
10
129.484
20
107.913
30
0
0
VERTEX
8
ENGRAVE
10
129.651
20
107.579
30
0
0
VERTEX
8
ENGRAVE
10
129.859
20
107.454
30
0
0
VERTEX
8
ENGRAVE
10
129.818
20
107.163
30
0
0
SEQEND
8
ENGRAVE
0
POLYLINE
8
ENGRAVE
66
1
70
1
10
0
20
0
30
0
0
VERTEX
8
ENGRAVE
10
121.424
20
244.838
30
0
0
VERTEX
8
ENGRAVE
10
122.007
20
244.796
30
0
0
VERTEX
8
ENGRAVE
10
122.257
20
244.671
30
0
0
VERTEX
8
ENGRAVE
10
122.466
20
244.463
30
0
0
VERTEX
8
ENGRAVE
10
122.549
20
244.255
30
0
0
VERTEX
8
ENGRAVE
10
122.507
20
243.838
30
0
0
VERTEX
8
ENGRAVE
10
122.299
20
243.588
30
0
0
VERTEX
8
ENGRAVE
10
122.049
20
243.463
30
0
0
VERTEX
8
ENGRAVE
10
122.299
20
243.421
30
0
0
VERTEX
8
ENGRAVE
10
122.549
20
243.213
30
0
0
VERTEX
8
ENGRAVE
10
122.632
20
243.046
30
0
0
VERTEX
8
ENGRAVE
10
122.632
20
242.588
30
0
0
VERTEX
8
ENGRAVE
10
122.424
20
242.255
30
0
0
VERTEX
8
ENGRAVE
10
121.841
20
242.005
30
0
0
VERTEX
8
ENGRAVE
10
121.174
20
242.046
30
0
0
VERTEX
8
ENGRAVE
10
120.924
20
242.171
30
0
0
VERTEX
8
ENGRAVE
10
120.591
20
242.546
30
0
0
VERTEX
8
ENGRAVE
10
120.632
20
242.713
30
0
0
VERTEX
8
ENGRAVE
10
120.882
20
242.755
30
0
0
VERTEX
8
ENGRAVE
10
120.966
20
242.546
30
0
0
VERTEX
8
ENGRAVE
10
121.299
20
242.296
30
0
0
VERTEX
8
ENGRAVE
10
121.882
20
242.296
30
0
0
VERTEX
8
ENGRAVE
10
122.091
20
242.380
30
0
0
VERTEX
8
ENGRAVE
10
122.257
20
242.588
30
0
0
VERTEX
8
ENGRAVE
10
122.299
20
242.921
30
0
0
VERTEX
8
ENGRAVE
10
122.091
20
243.213
30
0
0
VERTEX
8
ENGRAVE
10
121.716
20
243.338
30
0
0
VERTEX
8
ENGRAVE
10
121.257
20
243.338
30
0
0
VERTEX
8
ENGRAVE
10
121.257
20
243.630
30
0
0
VERTEX
8
ENGRAVE
10
121.882
20
243.630
30
0
0
VERTEX
8
ENGRAVE
10
122.091
20
243.755
30
0
0
VERTEX
8
ENGRAVE
10
122.174
20
243.921
30
0
0
VERTEX
8
ENGRAVE
10
122.132
20
244.338
30
0
0
VERTEX
8
ENGRAVE
10
121.841
20
244.546
30
0
0
VERTEX
8
ENGRAVE
10
121.382
20
244.546
30
0
0
VERTEX
8
ENGRAVE
10
121.216
20
244.463
30
0
0
VERTEX
8
ENGRAVE
10
120.966
20
244.130
30
0
0
VERTEX
8
ENGRAVE
10
120.674
20
244.171
30
0
0
VERTEX
8
ENGRAVE
10
120.882
20
244.588
30
0
0
SEQEND
8
ENGRAVE
0
POLYLINE
8
ENGRAVE
66
1
70
1
10
0
20
0
30
0
0
VERTEX
8
ENGRAVE
10
118.257
20
244.796
30
0
0
VERTEX
8
ENGRAVE
10
119.716
20
244.755
30
0
0
VERTEX
8
ENGRAVE
10
120.091
20
244.421
30
0
0
VERTEX
8
ENGRAVE
10
120.091
20
243.796
30
0
0
VERTEX
8
ENGRAVE
10
119.882
20
243.588
30
0
0
VERTEX
8
ENGRAVE
10
119.674
20
243.505
30
0
0
VERTEX
8
ENGRAVE
10
119.966
20
243.380
30
0
0
VERTEX
8
ENGRAVE
10
120.216
20
243.005
30
0
0
VERTEX
8
ENGRAVE
10
120.174
20
242.463
30
0
0
VERTEX
8
ENGRAVE
10
119.924
20
242.171
30
0
0
VERTEX
8
ENGRAVE
10
119.591
20
242.046
30
0
0
VERTEX
8
ENGRAVE
10
118.257
20
242.046
30
0
0
SEQEND
8
ENGRAVE
0
POLYLINE
8
ENGRAVE
66
1
70
1
10
0
20
0
30
0
0
VERTEX
8
ENGRAVE
10
118.632
20
244.505
30
0
0
VERTEX
8
ENGRAVE
10
118.591
20
243.630
30
0
0
VERTEX
8
ENGRAVE
10
119.466
20
243.630
30
0
0
VERTEX
8
ENGRAVE
10
119.757
20
243.838
30
0
0
VERTEX
8
ENGRAVE
10
119.799
20
244.171
30
0
0
VERTEX
8
ENGRAVE
10
119.591
20
244.463
30
0
0
SEQEND
8
ENGRAVE
0
POLYLINE
8
ENGRAVE
66
1
70
1
10
0
20
0
30
0
0
VERTEX
8
ENGRAVE
10
118.632
20
243.338
30
0
0
VERTEX
8
ENGRAVE
10
118.591
20
242.338
30
0
0
VERTEX
8
ENGRAVE
10
119.466
20
242.338
30
0
0
VERTEX
8
ENGRAVE
10
119.841
20
242.588
30
0
0
VERTEX
8
ENGRAVE
10
119.841
20
243.088
30
0
0
VERTEX
8
ENGRAVE
10
119.632
20
243.296
30
0
0
SEQEND
8
ENGRAVE
0
POLYLINE
8
ENGRAVE
66
1
70
1
10
0
20
0
30
0
0
VERTEX
8
ENGRAVE
10
176.271
20
255.842
30
0
0
VERTEX
8
ENGRAVE
10
177.729
20
255.800
30
0
0
VERTEX
8
ENGRAVE
10
178.104
20
255.467
30
0
0
VERTEX
8
ENGRAVE
10
178.104
20
254.842
30
0
0
VERTEX
8
ENGRAVE
10
177.896
20
254.633
30
0
0
VERTEX
8
ENGRAVE
10
177.688
20
254.550
30
0
0
VERTEX
8
ENGRAVE
10
177.979
20
254.425
30
0
0
VERTEX
8
ENGRAVE
10
178.229
20
254.050
30
0
0
VERTEX
8
ENGRAVE
10
178.188
20
253.508
30
0
0
VERTEX
8
ENGRAVE
10
177.938
20
253.217
30
0
0
VERTEX
8
ENGRAVE
10
177.604
20
253.092
30
0
0
VERTEX
8
ENGRAVE
10
176.271
20
253.092
30
0
0
SEQEND
8
ENGRAVE
0
POLYLINE
8
ENGRAVE
66
1
70
1
10
0
20
0
30
0
0
VERTEX
8
ENGRAVE
10
179.813
20
255.842
30
0
0
VERTEX
8
ENGRAVE
10
180.229
20
255.842
30
0
0
VERTEX
8
ENGRAVE
10
180.229
20
254.008
30
0
0
VERTEX
8
ENGRAVE
10
180.688
20
254.008
30
0
0
VERTEX
8
ENGRAVE
10
180.688
20
253.717
30
0
0
VERTEX
8
ENGRAVE
10
180.229
20
253.717
30
0
0
VERTEX
8
ENGRAVE
10
180.229
20
253.092
30
0
0
VERTEX
8
ENGRAVE
10
179.896
20
253.092
30
0
0
VERTEX
8
ENGRAVE
10
179.896
20
253.717
30
0
0
VERTEX
8
ENGRAVE
10
178.563
20
253.717
30
0
0
VERTEX
8
ENGRAVE
10
178.563
20
254.008
30
0
0
SEQEND
8
ENGRAVE
0
POLYLINE
8
ENGRAVE
66
1
70
1
10
0
20
0
30
0
0
VERTEX
8
ENGRAVE
10
176.646
20
255.550
30
0
0
VERTEX
8
ENGRAVE
10
176.604
20
254.675
30
0
0
VERTEX
8
ENGRAVE
10
177.479
20
254.675
30
0
0
VERTEX
8
ENGRAVE
10
177.771
20
254.883
30
0
0
VERTEX
8
ENGRAVE
10
177.813
20
255.217
30
0
0
VERTEX
8
ENGRAVE
10
177.604
20
255.508
30
0
0
SEQEND
8
ENGRAVE
0
POLYLINE
8
ENGRAVE
66
1
70
1
10
0
20
0
30
0
0
VERTEX
8
ENGRAVE
10
179.896
20
255.508
30
0
0
VERTEX
8
ENGRAVE
10
179.729
20
255.342
30
0
0
VERTEX
8
ENGRAVE
10
178.938
20
254.008
30
0
0
VERTEX
8
ENGRAVE
10
179.896
20
254.008
30
0
0
SEQEND
8
ENGRAVE
0
POLYLINE
8
ENGRAVE
66
1
70
1
10
0
20
0
30
0
0
VERTEX
8
ENGRAVE
10
176.646
20
254.383
30
0
0
VERTEX
8
ENGRAVE
10
176.604
20
253.383
30
0
0
VERTEX
8
ENGRAVE
10
177.479
20
253.383
30
0
0
VERTEX
8
ENGRAVE
10
177.854
20
253.633
30
0
0
VERTEX
8
ENGRAVE
10
177.854
20
254.133
30
0
0
VERTEX
8
ENGRAVE
10
177.646
20
254.342
30
0
0
SEQEND
8
ENGRAVE
0
POLYLINE
8
ENGRAVE
66
1
70
1
10
0
20
0
30
0
0
VERTEX
8
ENGRAVE
10
282.375
20
195.275
30
0
0
VERTEX
8
ENGRAVE
10
281.935
20
198.056
30
0
0
VERTEX
8
ENGRAVE
10
280.656
20
200.565
30
0
0
VERTEX
8
ENGRAVE
10
278.665
20
202.556
30
0
0
VERTEX
8
ENGRAVE
10
276.156
20
203.835
30
0
0
VERTEX
8
ENGRAVE
10
273.375
20
204.275
30
0
0
VERTEX
8
ENGRAVE
10
219.375
20
204.275
30
0
0
VERTEX
8
ENGRAVE
10
216.594
20
203.835
30
0
0
VERTEX
8
ENGRAVE
10
214.085
20
202.556
30
0
0
VERTEX
8
ENGRAVE
10
212.094
20
200.565
30
0
0
VERTEX
8
ENGRAVE
10
210.815
20
198.056
30
0
0
VERTEX
8
ENGRAVE
10
210.375
20
195.275
30
0
0
VERTEX
8
ENGRAVE
10
210.375
20
187.275
30
0
0
VERTEX
8
ENGRAVE
10
210.815
20
184.494
30
0
0
VERTEX
8
ENGRAVE
10
212.094
20
181.985
30
0
0
VERTEX
8
ENGRAVE
10
214.085
20
179.994
30
0
0
VERTEX
8
ENGRAVE
10
216.594
20
178.715
30
0
0
VERTEX
8
ENGRAVE
10
219.375
20
178.275
30
0
0
VERTEX
8
ENGRAVE
10
273.375
20
178.275
30
0
0
VERTEX
8
ENGRAVE
10
276.156
20
178.715
30
0
0
VERTEX
8
ENGRAVE
10
278.665
20
179.994
30
0
0
VERTEX
8
ENGRAVE
10
280.656
20
181.985
30
0
0
VERTEX
8
ENGRAVE
10
281.935
20
184.494
30
0
0
VERTEX
8
ENGRAVE
10
282.375
20
187.275
30
0
0
SEQEND
8
ENGRAVE
0
POLYLINE
8
ENGRAVE
66
1
70
1
10
0
20
0
30
0
0
VERTEX
8
ENGRAVE
10
346.110
20
212.964
30
0
0
VERTEX
8
ENGRAVE
10
346.444
20
212.964
30
0
0
VERTEX
8
ENGRAVE
10
346.444
20
211.839
30
0
0
VERTEX
8
ENGRAVE
10
347.735
20
211.839
30
0
0
VERTEX
8
ENGRAVE
10
347.735
20
212.964
30
0
0
VERTEX
8
ENGRAVE
10
348.069
20
212.964
30
0
0
VERTEX
8
ENGRAVE
10
348.069
20
210.214
30
0
0
VERTEX
8
ENGRAVE
10
347.735
20
210.214
30
0
0
VERTEX
8
ENGRAVE
10
347.735
20
211.506
30
0
0
VERTEX
8
ENGRAVE
10
346.444
20
211.506
30
0
0
VERTEX
8
ENGRAVE
10
346.444
20
210.214
30
0
0
VERTEX
8
ENGRAVE
10
346.110
20
210.214
30
0
0
SEQEND
8
ENGRAVE
0
POLYLINE
8
ENGRAVE
66
1
70
1
10
0
20
0
30
0
0
VERTEX
8
ENGRAVE
10
349.610
20
212.964
30
0
0
VERTEX
8
ENGRAVE
10
349.860
20
212.964
30
0
0
VERTEX
8
ENGRAVE
10
349.860
20
210.464
30
0
0
VERTEX
8
ENGRAVE
10
350.652
20
210.464
30
0
0
VERTEX
8
ENGRAVE
10
350.652
20
210.214
30
0
0
VERTEX
8
ENGRAVE
10
348.735
20
210.214
30
0
0
VERTEX
8
ENGRAVE
10
348.735
20
210.464
30
0
0
VERTEX
8
ENGRAVE
10
349.527
20
210.464
30
0
0
VERTEX
8
ENGRAVE
10
349.527
20
212.506
30
0
0
VERTEX
8
ENGRAVE
10
348.860
20
211.964
30
0
0
VERTEX
8
ENGRAVE
10
348.777
20
211.964
30
0
0
VERTEX
8
ENGRAVE
10
348.777
20
212.298
30
0
0
VERTEX
8
ENGRAVE
10
349.277
20
212.589
30
0
0
SEQEND
8
ENGRAVE
0
POLYLINE
8
SCORE
66
1
70
1
10
0
20
0
30
0
0
VERTEX
8
SCORE
10
361.525
20
221.275
30
0
0
VERTEX
8
SCORE
10
361.417
20
223.759
30
0
0
VERTEX
8
SCORE
10
361.092
20
226.224
30
0
0
VERTEX
8
SCORE
10
360.554
20
228.651
30
0
0
VERTEX
8
SCORE
10
359.806
20
231.023
30
0
0
VERTEX
8
SCORE
10
358.855
20
233.320
30
0
0
VERTEX
8
SCORE
10
357.707
20
235.525
30
0
0
VERTEX
8
SCORE
10
356.371
20
237.622
30
0
0
VERTEX
8
SCORE
10
354.857
20
239.594
30
0
0
VERTEX
8
SCORE
10
353.178
20
241.428
30
0
0
VERTEX
8
SCORE
10
351.344
20
243.107
30
0
0
VERTEX
8
SCORE
10
349.372
20
244.621
30
0
0
VERTEX
8
SCORE
10
347.275
20
245.957
30
0
0
VERTEX
8
SCORE
10
345.070
20
247.105
30
0
0
VERTEX
8
SCORE
10
342.773
20
248.056
30
0
0
VERTEX
8
SCORE
10
340.401
20
248.804
30
0
0
VERTEX
8
SCORE
10
337.974
20
249.342
30
0
0
VERTEX
8
SCORE
10
335.509
20
249.667
30
0
0
VERTEX
8
SCORE
10
333.025
20
249.775
30
0
0
VERTEX
8
SCORE
10
330.541
20
249.667
30
0
0
VERTEX
8
SCORE
10
328.076
20
249.342
30
0
0
VERTEX
8
SCORE
10
325.649
20
248.804
30
0
0
VERTEX
8
SCORE
10
323.277
20
248.056
30
0
0
VERTEX
8
SCORE
10
320.980
20
247.105
30
0
0
VERTEX
8
SCORE
10
318.775
20
245.957
30
0
0
VERTEX
8
SCORE
10
316.678
20
244.621
30
0
0
VERTEX
8
SCORE
10
314.706
20
243.107
30
0
0
VERTEX
8
SCORE
10
312.872
20
241.428
30
0
0
VERTEX
8
SCORE
10
311.193
20
239.594
30
0
0
VERTEX
8
SCORE
10
309.679
20
237.622
30
0
0
VERTEX
8
SCORE
10
308.343
20
235.525
30
0
0
VERTEX
8
SCORE
10
307.195
20
233.320
30
0
0
VERTEX
8
SCORE
10
306.244
20
231.023
30
0
0
VERTEX
8
SCORE
10
305.496
20
228.651
30
0
0
VERTEX
8
SCORE
10
304.958
20
226.224
30
0
0
VERTEX
8
SCORE
10
304.633
20
223.759
30
0
0
VERTEX
8
SCORE
10
304.525
20
221.275
30
0
0
VERTEX
8
SCORE
10
304.633
20
218.791
30
0
0
VERTEX
8
SCORE
10
304.958
20
216.326
30
0
0
VERTEX
8
SCORE
10
305.496
20
213.899
30
0
0
VERTEX
8
SCORE
10
306.244
20
211.527
30
0
0
VERTEX
8
SCORE
10
307.195
20
209.230
30
0
0
VERTEX
8
SCORE
10
308.343
20
207.025
30
0
0
VERTEX
8
SCORE
10
309.679
20
204.928
30
0
0
VERTEX
8
SCORE
10
311.193
20
202.956
30
0
0
VERTEX
8
SCORE
10
312.872
20
201.122
30
0
0
VERTEX
8
SCORE
10
314.706
20
199.443
30
0
0
VERTEX
8
SCORE
10
316.678
20
197.929
30
0
0
VERTEX
8
SCORE
10
318.775
20
196.593
30
0
0
VERTEX
8
SCORE
10
320.980
20
195.445
30
0
0
VERTEX
8
SCORE
10
323.277
20
194.494
30
0
0
VERTEX
8
SCORE
10
325.649
20
193.746
30
0
0
VERTEX
8
SCORE
10
328.076
20
193.208
30
0
0
VERTEX
8
SCORE
10
330.541
20
192.883
30
0
0
VERTEX
8
SCORE
10
333.025
20
192.775
30
0
0
VERTEX
8
SCORE
10
335.509
20
192.883
30
0
0
VERTEX
8
SCORE
10
337.974
20
193.208
30
0
0
VERTEX
8
SCORE
10
340.401
20
193.746
30
0
0
VERTEX
8
SCORE
10
342.773
20
194.494
30
0
0
VERTEX
8
SCORE
10
345.070
20
195.445
30
0
0
VERTEX
8
SCORE
10
347.275
20
196.593
30
0
0
VERTEX
8
SCORE
10
349.372
20
197.929
30
0
0
VERTEX
8
SCORE
10
351.344
20
199.443
30
0
0
VERTEX
8
SCORE
10
353.178
20
201.122
30
0
0
VERTEX
8
SCORE
10
354.857
20
202.956
30
0
0
VERTEX
8
SCORE
10
356.371
20
204.928
30
0
0
VERTEX
8
SCORE
10
357.707
20
207.025
30
0
0
VERTEX
8
SCORE
10
358.855
20
209.230
30
0
0
VERTEX
8
SCORE
10
359.806
20
211.527
30
0
0
VERTEX
8
SCORE
10
360.554
20
213.899
30
0
0
VERTEX
8
SCORE
10
361.092
20
216.326
30
0
0
VERTEX
8
SCORE
10
361.417
20
218.791
30
0
0
SEQEND
8
SCORE
0
POLYLINE
8
ENGRAVE
66
1
70
1
10
0
20
0
30
0
0
VERTEX
8
ENGRAVE
10
267.031
20
265.300
30
0
0
VERTEX
8
ENGRAVE
10
267.031
20
265.475
30
0
0
VERTEX
8
ENGRAVE
10
267.622
20
265.475
30
0
0
VERTEX
8
ENGRAVE
10
267.622
20
266.154
30
0
0
VERTEX
8
ENGRAVE
10
267.031
20
266.154
30
0
0
VERTEX
8
ENGRAVE
10
267.031
20
266.329
30
0
0
VERTEX
8
ENGRAVE
10
268.475
20
266.329
30
0
0
VERTEX
8
ENGRAVE
10
268.475
20
266.154
30
0
0
VERTEX
8
ENGRAVE
10
267.797
20
266.154
30
0
0
VERTEX
8
ENGRAVE
10
267.797
20
265.475
30
0
0
VERTEX
8
ENGRAVE
10
268.475
20
265.475
30
0
0
VERTEX
8
ENGRAVE
10
268.475
20
265.300
30
0
0
SEQEND
8
ENGRAVE
0
POLYLINE
8
ENGRAVE
66
1
70
1
10
0
20
0
30
0
0
VERTEX
8
ENGRAVE
10
267.031
20
267.225
30
0
0
VERTEX
8
ENGRAVE
10
267.031
20
267.466
30
0
0
VERTEX
8
ENGRAVE
10
267.994
20
267.466
30
0
0
VERTEX
8
ENGRAVE
10
267.994
20
267.707
30
0
0
VERTEX
8
ENGRAVE
10
268.147
20
267.707
30
0
0
VERTEX
8
ENGRAVE
10
268.147
20
267.466
30
0
0
VERTEX
8
ENGRAVE
10
268.475
20
267.466
30
0
0
VERTEX
8
ENGRAVE
10
268.475
20
267.291
30
0
0
VERTEX
8
ENGRAVE
10
268.147
20
267.291
30
0
0
VERTEX
8
ENGRAVE
10
268.125
20
266.569
30
0
0
VERTEX
8
ENGRAVE
10
268.016
20
266.569
30
0
0
SEQEND
8
ENGRAVE
0
POLYLINE
8
ENGRAVE
66
1
70
1
10
0
20
0
30
0
0
VERTEX
8
ENGRAVE
10
267.184
20
267.291
30
0
0
VERTEX
8
ENGRAVE
10
267.906
20
266.810
30
0
0
VERTEX
8
ENGRAVE
10
267.994
20
266.788
30
0
0
VERTEX
8
ENGRAVE
10
267.994
20
267.291
30
0
0
SEQEND
8
ENGRAVE
0
POLYLINE
8
ENGRAVE
66
1
70
1
10
0
20
0
30
0
0
VERTEX
8
ENGRAVE
10
369.958
20
169.120
30
0
0
VERTEX
8
ENGRAVE
10
369.958
20
169.453
30
0
0
VERTEX
8
ENGRAVE
10
371.083
20
169.453
30
0
0
VERTEX
8
ENGRAVE
10
371.083
20
170.745
30
0
0
VERTEX
8
ENGRAVE
10
369.958
20
170.745
30
0
0
VERTEX
8
ENGRAVE
10
369.958
20
171.078
30
0
0
VERTEX
8
ENGRAVE
10
372.708
20
171.078
30
0
0
VERTEX
8
ENGRAVE
10
372.708
20
170.745
30
0
0
VERTEX
8
ENGRAVE
10
371.417
20
170.745
30
0
0
VERTEX
8
ENGRAVE
10
371.417
20
169.453
30
0
0
VERTEX
8
ENGRAVE
10
372.708
20
169.453
30
0
0
VERTEX
8
ENGRAVE
10
372.708
20
169.120
30
0
0
SEQEND
8
ENGRAVE
0
POLYLINE
8
ENGRAVE
66
1
70
1
10
0
20
0
30
0
0
VERTEX
8
ENGRAVE
10
369.958
20
172.620
30
0
0
VERTEX
8
ENGRAVE
10
370.000
20
172.912
30
0
0
VERTEX
8
ENGRAVE
10
372.458
20
172.912
30
0
0
VERTEX
8
ENGRAVE
10
372.458
20
173.662
30
0
0
VERTEX
8
ENGRAVE
10
372.708
20
173.662
30
0
0
VERTEX
8
ENGRAVE
10
372.708
20
171.745
30
0
0
VERTEX
8
ENGRAVE
10
372.458
20
171.745
30
0
0
VERTEX
8
ENGRAVE
10
372.458
20
172.537
30
0
0
VERTEX
8
ENGRAVE
10
370.417
20
172.537
30
0
0
VERTEX
8
ENGRAVE
10
370.958
20
171.870
30
0
0
VERTEX
8
ENGRAVE
10
370.958
20
171.787
30
0
0
VERTEX
8
ENGRAVE
10
370.625
20
171.787
30
0
0
VERTEX
8
ENGRAVE
10
370.375
20
172.245
30
0
0
SEQEND
8
ENGRAVE
0
POLYLINE
8
ENGRAVE
66
1
70
1
10
0
20
0
30
0
0
VERTEX
8
ENGRAVE
10
369.958
20
174.162
30
0
0
VERTEX
8
ENGRAVE
10
369.958
20
175.953
30
0
0
VERTEX
8
ENGRAVE
10
370.292
20
175.912
30
0
0
VERTEX
8
ENGRAVE
10
370.667
20
175.578
30
0
0
VERTEX
8
ENGRAVE
10
371.417
20
175.203
30
0
0
VERTEX
8
ENGRAVE
10
372.000
20
175.037
30
0
0
VERTEX
8
ENGRAVE
10
372.708
20
174.995
30
0
0
VERTEX
8
ENGRAVE
10
372.708
20
174.620
30
0
0
VERTEX
8
ENGRAVE
10
371.958
20
174.703
30
0
0
VERTEX
8
ENGRAVE
10
371.417
20
174.870
30
0
0
VERTEX
8
ENGRAVE
10
370.833
20
175.162
30
0
0
VERTEX
8
ENGRAVE
10
370.250
20
175.578
30
0
0
VERTEX
8
ENGRAVE
10
370.250
20
174.120
30
0
0
SEQEND
8
ENGRAVE
0
POLYLINE
8
ENGRAVE
66
1
70
1
10
0
20
0
30
0
0
VERTEX
8
ENGRAVE
10
276.696
20
280.383
30
0
0
VERTEX
8
ENGRAVE
10
277.029
20
280.383
30
0
0
VERTEX
8
ENGRAVE
10
277.446
20
280.217
30
0
0
VERTEX
8
ENGRAVE
10
277.696
20
279.925
30
0
0
VERTEX
8
ENGRAVE
10
277.821
20
279.633
30
0
0
VERTEX
8
ENGRAVE
10
277.821
20
279.467
30
0
0
VERTEX
8
ENGRAVE
10
277.529
20
279.425
30
0
0
VERTEX
8
ENGRAVE
10
277.363
20
279.842
30
0
0
VERTEX
8
ENGRAVE
10
276.988
20
280.092
30
0
0
VERTEX
8
ENGRAVE
10
276.488
20
280.008
30
0
0
VERTEX
8
ENGRAVE
10
276.196
20
279.675
30
0
0
VERTEX
8
ENGRAVE
10
276.071
20
279.050
30
0
0
VERTEX
8
ENGRAVE
10
276.113
20
278.550
30
0
0
VERTEX
8
ENGRAVE
10
276.279
20
278.133
30
0
0
VERTEX
8
ENGRAVE
10
276.488
20
277.925
30
0
0
VERTEX
8
ENGRAVE
10
276.654
20
277.842
30
0
0
VERTEX
8
ENGRAVE
10
277.029
20
277.842
30
0
0
VERTEX
8
ENGRAVE
10
277.404
20
278.133
30
0
0
VERTEX
8
ENGRAVE
10
277.529
20
278.508
30
0
0
VERTEX
8
ENGRAVE
10
277.821
20
278.467
30
0
0
VERTEX
8
ENGRAVE
10
277.779
20
278.175
30
0
0
VERTEX
8
ENGRAVE
10
277.613
20
277.883
30
0
0
VERTEX
8
ENGRAVE
10
277.071
20
277.550
30
0
0
VERTEX
8
ENGRAVE
10
276.446
20
277.592
30
0
0
VERTEX
8
ENGRAVE
10
276.071
20
277.842
30
0
0
VERTEX
8
ENGRAVE
10
275.821
20
278.258
30
0
0
VERTEX
8
ENGRAVE
10
275.696
20
278.758
30
0
0
VERTEX
8
ENGRAVE
10
275.738
20
279.425
30
0
0
VERTEX
8
ENGRAVE
10
275.904
20
279.883
30
0
0
VERTEX
8
ENGRAVE
10
276.363
20
280.300
30
0
0
SEQEND
8
ENGRAVE
0
POLYLINE
8
ENGRAVE
66
1
70
1
10
0
20
0
30
0
0
VERTEX
8
ENGRAVE
10
281.488
20
280.383
30
0
0
VERTEX
8
ENGRAVE
10
281.988
20
280.342
30
0
0
VERTEX
8
ENGRAVE
10
282.321
20
280.175
30
0
0
VERTEX
8
ENGRAVE
10
282.571
20
279.800
30
0
0
VERTEX
8
ENGRAVE
10
282.571
20
279.300
30
0
0
VERTEX
8
ENGRAVE
10
282.196
20
278.717
30
0
0
VERTEX
8
ENGRAVE
10
282.113
20
278.717
30
0
0
VERTEX
8
ENGRAVE
10
281.904
20
278.467
30
0
0
VERTEX
8
ENGRAVE
10
281.113
20
277.883
30
0
0
VERTEX
8
ENGRAVE
10
282.571
20
277.883
30
0
0
VERTEX
8
ENGRAVE
10
282.613
20
277.592
30
0
0
VERTEX
8
ENGRAVE
10
280.654
20
277.592
30
0
0
VERTEX
8
ENGRAVE
10
280.654
20
277.883
30
0
0
VERTEX
8
ENGRAVE
10
281.654
20
278.633
30
0
0
VERTEX
8
ENGRAVE
10
282.113
20
279.092
30
0
0
VERTEX
8
ENGRAVE
10
282.238
20
279.383
30
0
0
VERTEX
8
ENGRAVE
10
282.238
20
279.717
30
0
0
VERTEX
8
ENGRAVE
10
282.154
20
279.883
30
0
0
VERTEX
8
ENGRAVE
10
281.821
20
280.092
30
0
0
VERTEX
8
ENGRAVE
10
281.404
20
280.092
30
0
0
VERTEX
8
ENGRAVE
10
281.238
20
280.008
30
0
0
VERTEX
8
ENGRAVE
10
281.029
20
279.758
30
0
0
VERTEX
8
ENGRAVE
10
280.946
20
279.467
30
0
0
VERTEX
8
ENGRAVE
10
280.654
20
279.550
30
0
0
VERTEX
8
ENGRAVE
10
280.779
20
279.967
30
0
0
VERTEX
8
ENGRAVE
10
281.154
20
280.300
30
0
0
SEQEND
8
ENGRAVE
0
POLYLINE
8
ENGRAVE
66
1
70
1
10
0
20
0
30
0
0
VERTEX
8
ENGRAVE
10
279.196
20
280.342
30
0
0
VERTEX
8
ENGRAVE
10
279.488
20
280.342
30
0
0
VERTEX
8
ENGRAVE
10
279.488
20
277.842
30
0
0
VERTEX
8
ENGRAVE
10
280.238
20
277.842
30
0
0
VERTEX
8
ENGRAVE
10
280.238
20
277.592
30
0
0
VERTEX
8
ENGRAVE
10
278.321
20
277.592
30
0
0
VERTEX
8
ENGRAVE
10
278.321
20
277.842
30
0
0
VERTEX
8
ENGRAVE
10
279.154
20
277.842
30
0
0
VERTEX
8
ENGRAVE
10
279.154
20
279.883
30
0
0
VERTEX
8
ENGRAVE
10
278.446
20
279.342
30
0
0
VERTEX
8
ENGRAVE
10
278.404
20
279.717
30
0
0
VERTEX
8
ENGRAVE
10
278.779
20
279.883
30
0
0
VERTEX
8
ENGRAVE
10
279.196
20
280.258
30
0
0
SEQEND
8
ENGRAVE
0
POLYLINE
8
ENGRAVE
66
1
70
1
10
0
20
0
30
0
0
VERTEX
8
ENGRAVE
10
276.196
20
255.733
30
0
0
VERTEX
8
ENGRAVE
10
276.529
20
255.733
30
0
0
VERTEX
8
ENGRAVE
10
276.946
20
255.567
30
0
0
VERTEX
8
ENGRAVE
10
277.196
20
255.275
30
0
0
VERTEX
8
ENGRAVE
10
277.321
20
254.983
30
0
0
VERTEX
8
ENGRAVE
10
277.321
20
254.817
30
0
0
VERTEX
8
ENGRAVE
10
277.029
20
254.775
30
0
0
VERTEX
8
ENGRAVE
10
276.863
20
255.192
30
0
0
VERTEX
8
ENGRAVE
10
276.488
20
255.442
30
0
0
VERTEX
8
ENGRAVE
10
275.988
20
255.358
30
0
0
VERTEX
8
ENGRAVE
10
275.696
20
255.025
30
0
0
VERTEX
8
ENGRAVE
10
275.571
20
254.400
30
0
0
VERTEX
8
ENGRAVE
10
275.613
20
253.900
30
0
0
VERTEX
8
ENGRAVE
10
275.779
20
253.483
30
0
0
VERTEX
8
ENGRAVE
10
275.988
20
253.275
30
0
0
VERTEX
8
ENGRAVE
10
276.154
20
253.192
30
0
0
VERTEX
8
ENGRAVE
10
276.529
20
253.192
30
0
0
VERTEX
8
ENGRAVE
10
276.904
20
253.483
30
0
0
VERTEX
8
ENGRAVE
10
277.029
20
253.858
30
0
0
VERTEX
8
ENGRAVE
10
277.321
20
253.817
30
0
0
VERTEX
8
ENGRAVE
10
277.279
20
253.525
30
0
0
VERTEX
8
ENGRAVE
10
277.113
20
253.233
30
0
0
VERTEX
8
ENGRAVE
10
276.571
20
252.900
30
0
0
VERTEX
8
ENGRAVE
10
275.946
20
252.942
30
0
0
VERTEX
8
ENGRAVE
10
275.571
20
253.192
30
0
0
VERTEX
8
ENGRAVE
10
275.321
20
253.608
30
0
0
VERTEX
8
ENGRAVE
10
275.196
20
254.108
30
0
0
VERTEX
8
ENGRAVE
10
275.238
20
254.775
30
0
0
VERTEX
8
ENGRAVE
10
275.404
20
255.233
30
0
0
VERTEX
8
ENGRAVE
10
275.863
20
255.650
30
0
0
SEQEND
8
ENGRAVE
0
POLYLINE
8
ENGRAVE
66
1
70
1
10
0
20
0
30
0
0
VERTEX
8
ENGRAVE
10
278.696
20
255.692
30
0
0
VERTEX
8
ENGRAVE
10
278.988
20
255.692
30
0
0
VERTEX
8
ENGRAVE
10
278.988
20
253.192
30
0
0
VERTEX
8
ENGRAVE
10
279.738
20
253.192
30
0
0
VERTEX
8
ENGRAVE
10
279.738
20
252.942
30
0
0
VERTEX
8
ENGRAVE
10
277.821
20
252.942
30
0
0
VERTEX
8
ENGRAVE
10
277.821
20
253.192
30
0
0
VERTEX
8
ENGRAVE
10
278.654
20
253.192
30
0
0
VERTEX
8
ENGRAVE
10
278.654
20
255.233
30
0
0
VERTEX
8
ENGRAVE
10
277.946
20
254.692
30
0
0
VERTEX
8
ENGRAVE
10
277.904
20
255.067
30
0
0
VERTEX
8
ENGRAVE
10
278.279
20
255.233
30
0
0
VERTEX
8
ENGRAVE
10
278.696
20
255.608
30
0
0
SEQEND
8
ENGRAVE
0
POLYLINE
8
ENGRAVE
66
1
70
1
10
0
20
0
30
0
0
VERTEX
8
ENGRAVE
10
281.279
20
255.692
30
0
0
VERTEX
8
ENGRAVE
10
281.738
20
255.692
30
0
0
VERTEX
8
ENGRAVE
10
281.738
20
253.858
30
0
0
VERTEX
8
ENGRAVE
10
282.196
20
253.858
30
0
0
VERTEX
8
ENGRAVE
10
282.196
20
253.567
30
0
0
VERTEX
8
ENGRAVE
10
281.738
20
253.567
30
0
0
VERTEX
8
ENGRAVE
10
281.738
20
252.942
30
0
0
VERTEX
8
ENGRAVE
10
281.404
20
252.942
30
0
0
VERTEX
8
ENGRAVE
10
281.404
20
253.567
30
0
0
VERTEX
8
ENGRAVE
10
280.029
20
253.608
30
0
0
VERTEX
8
ENGRAVE
10
280.029
20
253.817
30
0
0
SEQEND
8
ENGRAVE
0
POLYLINE
8
ENGRAVE
66
1
70
1
10
0
20
0
30
0
0
VERTEX
8
ENGRAVE
10
281.404
20
255.400
30
0
0
VERTEX
8
ENGRAVE
10
280.488
20
254.025
30
0
0
VERTEX
8
ENGRAVE
10
280.446
20
253.858
30
0
0
VERTEX
8
ENGRAVE
10
281.404
20
253.858
30
0
0
SEQEND
8
ENGRAVE
0
POLYLINE
8
CUT
66
1
70
1
10
0
20
0
30
0
0
VERTEX
8
CUT
10
70.081
20
254.250
30
0
0
VERTEX
8
CUT
10
69.171
20
254.106
30
0
0
VERTEX
8
CUT
10
68.356
20
253.691
30
0
0
VERTEX
8
CUT
10
67.709
20
253.044
30
0
0
VERTEX
8
CUT
10
67.294
20
252.229
30
0
0
VERTEX
8
CUT
10
67.150
20
251.319
30
0
0
VERTEX
8
CUT
10
67.150
20
237.331
30
0
0
VERTEX
8
CUT
10
67.294
20
236.421
30
0
0
VERTEX
8
CUT
10
67.709
20
235.606
30
0
0
VERTEX
8
CUT
10
68.356
20
234.959
30
0
0
VERTEX
8
CUT
10
69.171
20
234.544
30
0
0
VERTEX
8
CUT
10
70.081
20
234.400
30
0
0
VERTEX
8
CUT
10
76.069
20
234.400
30
0
0
VERTEX
8
CUT
10
76.979
20
234.544
30
0
0
VERTEX
8
CUT
10
77.794
20
234.959
30
0
0
VERTEX
8
CUT
10
78.441
20
235.606
30
0
0
VERTEX
8
CUT
10
78.856
20
236.421
30
0
0
VERTEX
8
CUT
10
79.000
20
237.331
30
0
0
VERTEX
8
CUT
10
79.000
20
251.319
30
0
0
VERTEX
8
CUT
10
78.856
20
252.229
30
0
0
VERTEX
8
CUT
10
78.441
20
253.044
30
0
0
VERTEX
8
CUT
10
77.794
20
253.691
30
0
0
VERTEX
8
CUT
10
76.979
20
254.106
30
0
0
VERTEX
8
CUT
10
76.069
20
254.250
30
0
0
SEQEND
8
CUT
0
POLYLINE
8
CUT
66
1
70
1
10
0
20
0
30
0
0
VERTEX
8
CUT
10
62.025
20
272.946
30
0
0
VERTEX
8
CUT
10
61.484
20
272.770
30
0
0
VERTEX
8
CUT
10
61.149
20
272.310
30
0
0
VERTEX
8
CUT
10
61.149
20
271.740
30
0
0
VERTEX
8
CUT
10
61.484
20
271.280
30
0
0
VERTEX
8
CUT
10
62.025
20
271.104
30
0
0
VERTEX
8
CUT
10
62.566
20
271.280
30
0
0
VERTEX
8
CUT
10
62.901
20
271.740
30
0
0
VERTEX
8
CUT
10
62.901
20
272.310
30
0
0
VERTEX
8
CUT
10
62.566
20
272.770
30
0
0
SEQEND
8
CUT
0
POLYLINE
8
CUT
66
1
70
1
10
0
20
0
30
0
0
VERTEX
8
CUT
10
62.025
20
285.546
30
0
0
VERTEX
8
CUT
10
61.484
20
285.370
30
0
0
VERTEX
8
CUT
10
61.149
20
284.910
30
0
0
VERTEX
8
CUT
10
61.149
20
284.340
30
0
0
VERTEX
8
CUT
10
61.484
20
283.880
30
0
0
VERTEX
8
CUT
10
62.025
20
283.704
30
0
0
VERTEX
8
CUT
10
62.566
20
283.880
30
0
0
VERTEX
8
CUT
10
62.901
20
284.340
30
0
0
VERTEX
8
CUT
10
62.901
20
284.910
30
0
0
VERTEX
8
CUT
10
62.566
20
285.370
30
0
0
SEQEND
8
CUT
0
POLYLINE
8
CUT
66
1
70
1
10
0
20
0
30
0
0
VERTEX
8
CUT
10
83.150
20
196.650
30
0
0
VERTEX
8
CUT
10
83.150
20
203.550
30
0
0
VERTEX
8
CUT
10
86.150
20
203.550
30
0
0
VERTEX
8
CUT
10
86.150
20
213.700
30
0
0
VERTEX
8
CUT
10
83.150
20
213.700
30
0
0
VERTEX
8
CUT
10
83.150
20
274.950
30
0
0
VERTEX
8
CUT
10
86.150
20
274.950
30
0
0
VERTEX
8
CUT
10
86.150
20
285.100
30
0
0
VERTEX
8
CUT
10
83.150
20
285.100
30
0
0
VERTEX
8
CUT
10
83.150
20
292.000
30
0
0
VERTEX
8
CUT
10
69.400
20
292.000
30
0
0
VERTEX
8
CUT
10
69.400
20
295.000
30
0
0
VERTEX
8
CUT
10
59.250
20
295.000
30
0
0
VERTEX
8
CUT
10
59.250
20
292.000
30
0
0
VERTEX
8
CUT
10
31.900
20
292.000
30
0
0
VERTEX
8
CUT
10
31.900
20
295.000
30
0
0
VERTEX
8
CUT
10
21.750
20
295.000
30
0
0
VERTEX
8
CUT
10
21.750
20
292.000
30
0
0
VERTEX
8
CUT
10
8.000
20
292.000
30
0
0
VERTEX
8
CUT
10
8.000
20
285.100
30
0
0
VERTEX
8
CUT
10
5.000
20
285.100
30
0
0
VERTEX
8
CUT
10
5.000
20
274.950
30
0
0
VERTEX
8
CUT
10
8.000
20
274.950
30
0
0
VERTEX
8
CUT
10
8.000
20
213.700
30
0
0
VERTEX
8
CUT
10
5.000
20
213.700
30
0
0
VERTEX
8
CUT
10
5.000
20
203.550
30
0
0
VERTEX
8
CUT
10
8.000
20
203.550
30
0
0
VERTEX
8
CUT
10
8.000
20
196.650
30
0
0
VERTEX
8
CUT
10
21.750
20
196.650
30
0
0
VERTEX
8
CUT
10
21.750
20
193.650
30
0
0
VERTEX
8
CUT
10
31.900
20
193.650
30
0
0
VERTEX
8
CUT
10
31.900
20
196.650
30
0
0
VERTEX
8
CUT
10
59.250
20
196.650
30
0
0
VERTEX
8
CUT
10
59.250
20
193.650
30
0
0
VERTEX
8
CUT
10
69.400
20
193.650
30
0
0
VERTEX
8
CUT
10
69.400
20
196.650
30
0
0
SEQEND
8
CUT
0
POLYLINE
8
CUT
66
1
70
1
10
0
20
0
30
0
0
VERTEX
8
CUT
10
75.075
20
106.698
30
0
0
VERTEX
8
CUT
10
74.371
20
106.537
30
0
0
VERTEX
8
CUT
10
73.806
20
106.087
30
0
0
VERTEX
8
CUT
10
73.493
20
105.436
30
0
0
VERTEX
8
CUT
10
73.493
20
104.714
30
0
0
VERTEX
8
CUT
10
73.806
20
104.063
30
0
0
VERTEX
8
CUT
10
74.371
20
103.613
30
0
0
VERTEX
8
CUT
10
75.075
20
103.452
30
0
0
VERTEX
8
CUT
10
75.779
20
103.613
30
0
0
VERTEX
8
CUT
10
76.344
20
104.063
30
0
0
VERTEX
8
CUT
10
76.657
20
104.714
30
0
0
VERTEX
8
CUT
10
76.657
20
105.436
30
0
0
VERTEX
8
CUT
10
76.344
20
106.087
30
0
0
VERTEX
8
CUT
10
75.779
20
106.537
30
0
0
SEQEND
8
CUT
0
POLYLINE
8
CUT
66
1
70
1
10
0
20
0
30
0
0
VERTEX
8
CUT
10
75.075
20
147.698
30
0
0
VERTEX
8
CUT
10
74.371
20
147.537
30
0
0
VERTEX
8
CUT
10
73.806
20
147.087
30
0
0
VERTEX
8
CUT
10
73.493
20
146.436
30
0
0
VERTEX
8
CUT
10
73.493
20
145.714
30
0
0
VERTEX
8
CUT
10
73.806
20
145.063
30
0
0
VERTEX
8
CUT
10
74.371
20
144.613
30
0
0
VERTEX
8
CUT
10
75.075
20
144.452
30
0
0
VERTEX
8
CUT
10
75.779
20
144.613
30
0
0
VERTEX
8
CUT
10
76.344
20
145.063
30
0
0
VERTEX
8
CUT
10
76.657
20
145.714
30
0
0
VERTEX
8
CUT
10
76.657
20
146.436
30
0
0
VERTEX
8
CUT
10
76.344
20
147.087
30
0
0
VERTEX
8
CUT
10
75.779
20
147.537
30
0
0
SEQEND
8
CUT
0
POLYLINE
8
CUT
66
1
70
1
10
0
20
0
30
0
0
VERTEX
8
CUT
10
29.550
20
185.100
30
0
0
VERTEX
8
CUT
10
29.550
20
188.050
30
0
0
VERTEX
8
CUT
10
19.600
20
188.050
30
0
0
VERTEX
8
CUT
10
19.600
20
185.100
30
0
0
SEQEND
8
CUT
0
POLYLINE
8
CUT
66
1
70
1
10
0
20
0
30
0
0
VERTEX
8
CUT
10
68.550
20
185.100
30
0
0
VERTEX
8
CUT
10
68.550
20
188.050
30
0
0
VERTEX
8
CUT
10
58.600
20
188.050
30
0
0
VERTEX
8
CUT
10
58.600
20
185.100
30
0
0
SEQEND
8
CUT
0
POLYLINE
8
CUT
66
1
70
1
10
0
20
0
30
0
0
VERTEX
8
CUT
10
29.550
20
94.100
30
0
0
VERTEX
8
CUT
10
29.550
20
97.050
30
0
0
VERTEX
8
CUT
10
19.600
20
97.050
30
0
0
VERTEX
8
CUT
10
19.600
20
94.100
30
0
0
SEQEND
8
CUT
0
POLYLINE
8
CUT
66
1
70
1
10
0
20
0
30
0
0
VERTEX
8
CUT
10
68.550
20
94.100
30
0
0
VERTEX
8
CUT
10
68.550
20
97.050
30
0
0
VERTEX
8
CUT
10
58.600
20
97.050
30
0
0
VERTEX
8
CUT
10
58.600
20
94.100
30
0
0
SEQEND
8
CUT
0
POLYLINE
8
CUT
66
1
70
1
10
0
20
0
30
0
0
VERTEX
8
CUT
10
83.150
20
93.070
30
0
0
VERTEX
8
CUT
10
83.150
20
189.080
30
0
0
VERTEX
8
CUT
10
83.080
20
189.612
30
0
0
VERTEX
8
CUT
10
82.873
20
190.113
30
0
0
VERTEX
8
CUT
10
82.543
20
190.543
30
0
0
VERTEX
8
CUT
10
82.113
20
190.873
30
0
0
VERTEX
8
CUT
10
81.612
20
191.080
30
0
0
VERTEX
8
CUT
10
81.080
20
191.150
30
0
0
VERTEX
8
CUT
10
7.070
20
191.150
30
0
0
VERTEX
8
CUT
10
6.538
20
191.080
30
0
0
VERTEX
8
CUT
10
6.037
20
190.873
30
0
0
VERTEX
8
CUT
10
5.607
20
190.543
30
0
0
VERTEX
8
CUT
10
5.277
20
190.113
30
0
0
VERTEX
8
CUT
10
5.070
20
189.612
30
0
0
VERTEX
8
CUT
10
5.000
20
189.080
30
0
0
VERTEX
8
CUT
10
5.000
20
93.070
30
0
0
VERTEX
8
CUT
10
5.070
20
92.538
30
0
0
VERTEX
8
CUT
10
5.277
20
92.037
30
0
0
VERTEX
8
CUT
10
5.607
20
91.607
30
0
0
VERTEX
8
CUT
10
6.037
20
91.277
30
0
0
VERTEX
8
CUT
10
6.538
20
91.070
30
0
0
VERTEX
8
CUT
10
7.070
20
91.000
30
0
0
VERTEX
8
CUT
10
81.080
20
91.000
30
0
0
VERTEX
8
CUT
10
81.612
20
91.070
30
0
0
VERTEX
8
CUT
10
82.113
20
91.277
30
0
0
VERTEX
8
CUT
10
82.543
20
91.607
30
0
0
VERTEX
8
CUT
10
82.873
20
92.037
30
0
0
VERTEX
8
CUT
10
83.080
20
92.538
30
0
0
SEQEND
8
CUT
0
POLYLINE
8
CUT
66
1
70
1
10
0
20
0
30
0
0
VERTEX
8
CUT
10
89.452
20
18.425
30
0
0
VERTEX
8
CUT
10
89.613
20
19.129
30
0
0
VERTEX
8
CUT
10
90.063
20
19.694
30
0
0
VERTEX
8
CUT
10
90.714
20
20.007
30
0
0
VERTEX
8
CUT
10
91.436
20
20.007
30
0
0
VERTEX
8
CUT
10
92.087
20
19.694
30
0
0
VERTEX
8
CUT
10
92.537
20
19.129
30
0
0
VERTEX
8
CUT
10
92.698
20
18.425
30
0
0
VERTEX
8
CUT
10
92.537
20
17.721
30
0
0
VERTEX
8
CUT
10
92.087
20
17.156
30
0
0
VERTEX
8
CUT
10
91.436
20
16.843
30
0
0
VERTEX
8
CUT
10
90.714
20
16.843
30
0
0
VERTEX
8
CUT
10
90.063
20
17.156
30
0
0
VERTEX
8
CUT
10
89.613
20
17.721
30
0
0
SEQEND
8
CUT
0
POLYLINE
8
CUT
66
1
70
1
10
0
20
0
30
0
0
VERTEX
8
CUT
10
48.452
20
18.425
30
0
0
VERTEX
8
CUT
10
48.613
20
19.129
30
0
0
VERTEX
8
CUT
10
49.063
20
19.694
30
0
0
VERTEX
8
CUT
10
49.714
20
20.007
30
0
0
VERTEX
8
CUT
10
50.436
20
20.007
30
0
0
VERTEX
8
CUT
10
51.087
20
19.694
30
0
0
VERTEX
8
CUT
10
51.537
20
19.129
30
0
0
VERTEX
8
CUT
10
51.698
20
18.425
30
0
0
VERTEX
8
CUT
10
51.537
20
17.721
30
0
0
VERTEX
8
CUT
10
51.087
20
17.156
30
0
0
VERTEX
8
CUT
10
50.436
20
16.843
30
0
0
VERTEX
8
CUT
10
49.714
20
16.843
30
0
0
VERTEX
8
CUT
10
49.063
20
17.156
30
0
0
VERTEX
8
CUT
10
48.613
20
17.721
30
0
0
SEQEND
8
CUT
0
POLYLINE
8
CUT
66
1
70
1
10
0
20
0
30
0
0
VERTEX
8
CUT
10
11.050
20
24.950
30
0
0
VERTEX
8
CUT
10
8.100
20
24.950
30
0
0
VERTEX
8
CUT
10
8.100
20
34.900
30
0
0
VERTEX
8
CUT
10
11.050
20
34.900
30
0
0
SEQEND
8
CUT
0
POLYLINE
8
CUT
66
1
70
1
10
0
20
0
30
0
0
VERTEX
8
CUT
10
11.050
20
63.950
30
0
0
VERTEX
8
CUT
10
8.100
20
63.950
30
0
0
VERTEX
8
CUT
10
8.100
20
73.900
30
0
0
VERTEX
8
CUT
10
11.050
20
73.900
30
0
0
SEQEND
8
CUT
0
POLYLINE
8
CUT
66
1
70
1
10
0
20
0
30
0
0
VERTEX
8
CUT
10
102.050
20
24.950
30
0
0
VERTEX
8
CUT
10
99.100
20
24.950
30
0
0
VERTEX
8
CUT
10
99.100
20
34.900
30
0
0
VERTEX
8
CUT
10
102.050
20
34.900
30
0
0
SEQEND
8
CUT
0
POLYLINE
8
CUT
66
1
70
1
10
0
20
0
30
0
0
VERTEX
8
CUT
10
102.050
20
63.950
30
0
0
VERTEX
8
CUT
10
99.100
20
63.950
30
0
0
VERTEX
8
CUT
10
99.100
20
73.900
30
0
0
VERTEX
8
CUT
10
102.050
20
73.900
30
0
0
SEQEND
8
CUT
0
POLYLINE
8
CUT
66
1
70
1
10
0
20
0
30
0
0
VERTEX
8
CUT
10
103.080
20
10.350
30
0
0
VERTEX
8
CUT
10
7.070
20
10.350
30
0
0
VERTEX
8
CUT
10
6.538
20
10.420
30
0
0
VERTEX
8
CUT
10
6.037
20
10.627
30
0
0
VERTEX
8
CUT
10
5.607
20
10.957
30
0
0
VERTEX
8
CUT
10
5.277
20
11.387
30
0
0
VERTEX
8
CUT
10
5.070
20
11.888
30
0
0
VERTEX
8
CUT
10
5.000
20
12.420
30
0
0
VERTEX
8
CUT
10
5.000
20
86.430
30
0
0
VERTEX
8
CUT
10
5.070
20
86.962
30
0
0
VERTEX
8
CUT
10
5.277
20
87.463
30
0
0
VERTEX
8
CUT
10
5.607
20
87.893
30
0
0
VERTEX
8
CUT
10
6.037
20
88.223
30
0
0
VERTEX
8
CUT
10
6.538
20
88.430
30
0
0
VERTEX
8
CUT
10
7.070
20
88.500
30
0
0
VERTEX
8
CUT
10
103.080
20
88.500
30
0
0
VERTEX
8
CUT
10
103.612
20
88.430
30
0
0
VERTEX
8
CUT
10
104.113
20
88.223
30
0
0
VERTEX
8
CUT
10
104.543
20
87.893
30
0
0
VERTEX
8
CUT
10
104.873
20
87.463
30
0
0
VERTEX
8
CUT
10
105.080
20
86.962
30
0
0
VERTEX
8
CUT
10
105.150
20
86.430
30
0
0
VERTEX
8
CUT
10
105.150
20
12.420
30
0
0
VERTEX
8
CUT
10
105.080
20
11.888
30
0
0
VERTEX
8
CUT
10
104.873
20
11.387
30
0
0
VERTEX
8
CUT
10
104.543
20
10.957
30
0
0
VERTEX
8
CUT
10
104.113
20
10.627
30
0
0
VERTEX
8
CUT
10
103.612
20
10.420
30
0
0
SEQEND
8
CUT
0
POLYLINE
8
CUT
66
1
70
1
10
0
20
0
30
0
0
VERTEX
8
CUT
10
116.400
20
144.044
30
0
0
VERTEX
8
CUT
10
116.280
20
144.799
30
0
0
VERTEX
8
CUT
10
115.936
20
145.474
30
0
0
VERTEX
8
CUT
10
115.400
20
146.011
30
0
0
VERTEX
8
CUT
10
114.724
20
146.355
30
0
0
VERTEX
8
CUT
10
113.969
20
146.475
30
0
0
VERTEX
8
CUT
10
105.481
20
146.475
30
0
0
VERTEX
8
CUT
10
104.726
20
146.355
30
0
0
VERTEX
8
CUT
10
104.050
20
146.011
30
0
0
VERTEX
8
CUT
10
103.514
20
145.474
30
0
0
VERTEX
8
CUT
10
103.170
20
144.799
30
0
0
VERTEX
8
CUT
10
103.050
20
144.044
30
0
0
VERTEX
8
CUT
10
103.050
20
141.455
30
0
0
VERTEX
8
CUT
10
103.170
20
140.700
30
0
0
VERTEX
8
CUT
10
103.514
20
140.025
30
0
0
VERTEX
8
CUT
10
104.050
20
139.488
30
0
0
VERTEX
8
CUT
10
104.726
20
139.144
30
0
0
VERTEX
8
CUT
10
105.481
20
139.025
30
0
0
VERTEX
8
CUT
10
113.969
20
139.025
30
0
0
VERTEX
8
CUT
10
114.724
20
139.144
30
0
0
VERTEX
8
CUT
10
115.400
20
139.488
30
0
0
VERTEX
8
CUT
10
115.936
20
140.025
30
0
0
VERTEX
8
CUT
10
116.280
20
140.700
30
0
0
VERTEX
8
CUT
10
116.400
20
141.455
30
0
0
SEQEND
8
CUT
0
POLYLINE
8
CUT
66
1
70
1
10
0
20
0
30
0
0
VERTEX
8
CUT
10
102.083
20
133.575
30
0
0
VERTEX
8
CUT
10
112.033
20
133.575
30
0
0
VERTEX
8
CUT
10
112.033
20
136.525
30
0
0
VERTEX
8
CUT
10
102.083
20
136.525
30
0
0
SEQEND
8
CUT
0
POLYLINE
8
CUT
66
1
70
1
10
0
20
0
30
0
0
VERTEX
8
CUT
10
138.750
20
133.575
30
0
0
VERTEX
8
CUT
10
148.700
20
133.575
30
0
0
VERTEX
8
CUT
10
148.700
20
136.525
30
0
0
VERTEX
8
CUT
10
138.750
20
136.525
30
0
0
SEQEND
8
CUT
0
POLYLINE
8
CUT
66
1
70
1
10
0
20
0
30
0
0
VERTEX
8
CUT
10
175.417
20
133.575
30
0
0
VERTEX
8
CUT
10
185.367
20
133.575
30
0
0
VERTEX
8
CUT
10
185.367
20
136.525
30
0
0
VERTEX
8
CUT
10
175.417
20
136.525
30
0
0
SEQEND
8
CUT
0
POLYLINE
8
CUT
66
1
70
1
10
0
20
0
30
0
0
VERTEX
8
CUT
10
88.650
20
130.475
30
0
0
VERTEX
8
CUT
10
198.800
20
130.475
30
0
0
VERTEX
8
CUT
10
198.800
20
139.856
30
0
0
VERTEX
8
CUT
10
201.800
20
139.856
30
0
0
VERTEX
8
CUT
10
201.800
20
150.006
30
0
0
VERTEX
8
CUT
10
198.800
20
150.006
30
0
0
VERTEX
8
CUT
10
198.800
20
168.619
30
0
0
VERTEX
8
CUT
10
201.800
20
168.619
30
0
0
VERTEX
8
CUT
10
201.800
20
178.769
30
0
0
VERTEX
8
CUT
10
198.800
20
178.769
30
0
0
VERTEX
8
CUT
10
198.800
20
188.150
30
0
0
VERTEX
8
CUT
10
192.650
20
188.150
30
0
0
VERTEX
8
CUT
10
192.650
20
157.150
30
0
0
VERTEX
8
CUT
10
104.800
20
157.150
30
0
0
VERTEX
8
CUT
10
104.800
20
188.150
30
0
0
VERTEX
8
CUT
10
100.800
20
188.150
30
0
0
VERTEX
8
CUT
10
100.800
20
191.150
30
0
0
VERTEX
8
CUT
10
92.650
20
191.150
30
0
0
VERTEX
8
CUT
10
92.650
20
188.150
30
0
0
VERTEX
8
CUT
10
88.650
20
188.150
30
0
0
VERTEX
8
CUT
10
88.650
20
178.769
30
0
0
VERTEX
8
CUT
10
85.650
20
178.769
30
0
0
VERTEX
8
CUT
10
85.650
20
168.619
30
0
0
VERTEX
8
CUT
10
88.650
20
168.619
30
0
0
VERTEX
8
CUT
10
88.650
20
150.006
30
0
0
VERTEX
8
CUT
10
85.650
20
150.006
30
0
0
VERTEX
8
CUT
10
85.650
20
139.856
30
0
0
VERTEX
8
CUT
10
88.650
20
139.856
30
0
0
SEQEND
8
CUT
0
POLYLINE
8
CUT
66
1
70
1
10
0
20
0
30
0
0
VERTEX
8
CUT
10
151.988
20
88.277
30
0
0
VERTEX
8
CUT
10
151.283
20
88.437
30
0
0
VERTEX
8
CUT
10
150.719
20
88.888
30
0
0
VERTEX
8
CUT
10
150.405
20
89.538
30
0
0
VERTEX
8
CUT
10
150.405
20
90.261
30
0
0
VERTEX
8
CUT
10
150.719
20
90.912
30
0
0
VERTEX
8
CUT
10
151.283
20
91.362
30
0
0
VERTEX
8
CUT
10
151.988
20
91.523
30
0
0
VERTEX
8
CUT
10
152.692
20
91.362
30
0
0
VERTEX
8
CUT
10
153.257
20
90.912
30
0
0
VERTEX
8
CUT
10
153.570
20
90.261
30
0
0
VERTEX
8
CUT
10
153.570
20
89.538
30
0
0
VERTEX
8
CUT
10
153.257
20
88.888
30
0
0
VERTEX
8
CUT
10
152.692
20
88.437
30
0
0
SEQEND
8
CUT
0
POLYLINE
8
CUT
66
1
70
1
10
0
20
0
30
0
0
VERTEX
8
CUT
10
151.988
20
48.277
30
0
0
VERTEX
8
CUT
10
151.283
20
48.437
30
0
0
VERTEX
8
CUT
10
150.719
20
48.888
30
0
0
VERTEX
8
CUT
10
150.405
20
49.538
30
0
0
VERTEX
8
CUT
10
150.405
20
50.261
30
0
0
VERTEX
8
CUT
10
150.719
20
50.912
30
0
0
VERTEX
8
CUT
10
151.283
20
51.362
30
0
0
VERTEX
8
CUT
10
151.988
20
51.523
30
0
0
VERTEX
8
CUT
10
152.692
20
51.362
30
0
0
VERTEX
8
CUT
10
153.257
20
50.912
30
0
0
VERTEX
8
CUT
10
153.570
20
50.261
30
0
0
VERTEX
8
CUT
10
153.570
20
49.538
30
0
0
VERTEX
8
CUT
10
153.257
20
48.888
30
0
0
VERTEX
8
CUT
10
152.692
20
48.437
30
0
0
SEQEND
8
CUT
0
POLYLINE
8
CUT
66
1
70
1
10
0
20
0
30
0
0
VERTEX
8
CUT
10
165.225
20
38.208
30
0
0
VERTEX
8
CUT
10
165.225
20
28.258
30
0
0
VERTEX
8
CUT
10
162.275
20
28.258
30
0
0
VERTEX
8
CUT
10
162.275
20
38.208
30
0
0
SEQEND
8
CUT
0
POLYLINE
8
CUT
66
1
70
1
10
0
20
0
30
0
0
VERTEX
8
CUT
10
165.225
20
74.875
30
0
0
VERTEX
8
CUT
10
165.225
20
64.925
30
0
0
VERTEX
8
CUT
10
162.275
20
64.925
30
0
0
VERTEX
8
CUT
10
162.275
20
74.875
30
0
0
SEQEND
8
CUT
0
POLYLINE
8
CUT
66
1
70
1
10
0
20
0
30
0
0
VERTEX
8
CUT
10
165.225
20
111.541
30
0
0
VERTEX
8
CUT
10
165.225
20
101.591
30
0
0
VERTEX
8
CUT
10
162.275
20
101.591
30
0
0
VERTEX
8
CUT
10
162.275
20
111.541
30
0
0
SEQEND
8
CUT
0
POLYLINE
8
CUT
66
1
70
1
10
0
20
0
30
0
0
VERTEX
8
CUT
10
141.700
20
50.875
30
0
0
VERTEX
8
CUT
10
141.700
20
38.925
30
0
0
VERTEX
8
CUT
10
138.750
20
38.925
30
0
0
VERTEX
8
CUT
10
138.750
20
50.875
30
0
0
SEQEND
8
CUT
0
POLYLINE
8
CUT
66
1
70
1
10
0
20
0
30
0
0
VERTEX
8
CUT
10
141.700
20
90.875
30
0
0
VERTEX
8
CUT
10
141.700
20
78.925
30
0
0
VERTEX
8
CUT
10
138.750
20
78.925
30
0
0
VERTEX
8
CUT
10
138.750
20
90.875
30
0
0
SEQEND
8
CUT
0
POLYLINE
8
CUT
66
1
70
1
10
0
20
0
30
0
0
VERTEX
8
CUT
10
168.325
20
124.975
30
0
0
VERTEX
8
CUT
10
168.325
20
14.825
30
0
0
VERTEX
8
CUT
10
158.944
20
14.825
30
0
0
VERTEX
8
CUT
10
158.944
20
11.825
30
0
0
VERTEX
8
CUT
10
148.794
20
11.825
30
0
0
VERTEX
8
CUT
10
148.794
20
14.825
30
0
0
VERTEX
8
CUT
10
130.181
20
14.825
30
0
0
VERTEX
8
CUT
10
130.181
20
11.825
30
0
0
VERTEX
8
CUT
10
120.031
20
11.825
30
0
0
VERTEX
8
CUT
10
120.031
20
14.825
30
0
0
VERTEX
8
CUT
10
110.650
20
14.825
30
0
0
VERTEX
8
CUT
10
110.650
20
28.158
30
0
0
VERTEX
8
CUT
10
107.650
20
28.158
30
0
0
VERTEX
8
CUT
10
107.650
20
38.308
30
0
0
VERTEX
8
CUT
10
110.650
20
38.308
30
0
0
VERTEX
8
CUT
10
110.650
20
64.825
30
0
0
VERTEX
8
CUT
10
107.650
20
64.825
30
0
0
VERTEX
8
CUT
10
107.650
20
74.975
30
0
0
VERTEX
8
CUT
10
110.650
20
74.975
30
0
0
VERTEX
8
CUT
10
110.650
20
101.491
30
0
0
VERTEX
8
CUT
10
107.650
20
101.491
30
0
0
VERTEX
8
CUT
10
107.650
20
111.641
30
0
0
VERTEX
8
CUT
10
110.650
20
111.641
30
0
0
VERTEX
8
CUT
10
110.650
20
124.975
30
0
0
VERTEX
8
CUT
10
120.031
20
124.975
30
0
0
VERTEX
8
CUT
10
120.031
20
127.975
30
0
0
VERTEX
8
CUT
10
130.181
20
127.975
30
0
0
VERTEX
8
CUT
10
130.181
20
124.975
30
0
0
VERTEX
8
CUT
10
148.794
20
124.975
30
0
0
VERTEX
8
CUT
10
148.794
20
127.975
30
0
0
VERTEX
8
CUT
10
158.944
20
127.975
30
0
0
VERTEX
8
CUT
10
158.944
20
124.975
30
0
0
SEQEND
8
CUT
0
POLYLINE
8
CUT
66
1
70
1
10
0
20
0
30
0
0
VERTEX
8
CUT
10
137.612
20
224.925
30
0
0
VERTEX
8
CUT
10
139.168
20
227.621
30
0
0
VERTEX
8
CUT
10
142.282
20
227.621
30
0
0
VERTEX
8
CUT
10
143.838
20
224.925
30
0
0
VERTEX
8
CUT
10
142.282
20
222.229
30
0
0
VERTEX
8
CUT
10
139.168
20
222.229
30
0
0
SEQEND
8
CUT
0
POLYLINE
8
CUT
66
1
70
1
10
0
20
0
30
0
0
VERTEX
8
CUT
10
96.612
20
224.925
30
0
0
VERTEX
8
CUT
10
98.168
20
227.621
30
0
0
VERTEX
8
CUT
10
101.282
20
227.621
30
0
0
VERTEX
8
CUT
10
102.838
20
224.925
30
0
0
VERTEX
8
CUT
10
101.282
20
222.229
30
0
0
VERTEX
8
CUT
10
98.168
20
222.229
30
0
0
SEQEND
8
CUT
0
POLYLINE
8
CUT
66
1
70
1
10
0
20
0
30
0
0
VERTEX
8
CUT
10
108.150
20
263.500
30
0
0
VERTEX
8
CUT
10
105.300
20
263.500
30
0
0
VERTEX
8
CUT
10
105.300
20
267.350
30
0
0
VERTEX
8
CUT
10
108.150
20
267.350
30
0
0
SEQEND
8
CUT
0
POLYLINE
8
CUT
66
1
70
1
10
0
20
0
30
0
0
VERTEX
8
CUT
10
108.150
20
281.500
30
0
0
VERTEX
8
CUT
10
105.300
20
281.500
30
0
0
VERTEX
8
CUT
10
105.300
20
285.350
30
0
0
VERTEX
8
CUT
10
108.150
20
285.350
30
0
0
SEQEND
8
CUT
0
POLYLINE
8
CUT
66
1
70
1
10
0
20
0
30
0
0
VERTEX
8
CUT
10
136.150
20
263.500
30
0
0
VERTEX
8
CUT
10
133.300
20
263.500
30
0
0
VERTEX
8
CUT
10
133.300
20
267.350
30
0
0
VERTEX
8
CUT
10
136.150
20
267.350
30
0
0
SEQEND
8
CUT
0
POLYLINE
8
CUT
66
1
70
1
10
0
20
0
30
0
0
VERTEX
8
CUT
10
136.150
20
281.500
30
0
0
VERTEX
8
CUT
10
133.300
20
281.500
30
0
0
VERTEX
8
CUT
10
133.300
20
285.350
30
0
0
VERTEX
8
CUT
10
136.150
20
285.350
30
0
0
SEQEND
8
CUT
0
POLYLINE
8
CUT
66
1
70
1
10
0
20
0
30
0
0
VERTEX
8
CUT
10
94.700
20
268.200
30
0
0
VERTEX
8
CUT
10
91.750
20
268.200
30
0
0
VERTEX
8
CUT
10
91.750
20
278.150
30
0
0
VERTEX
8
CUT
10
94.700
20
278.150
30
0
0
SEQEND
8
CUT
0
POLYLINE
8
CUT
66
1
70
1
10
0
20
0
30
0
0
VERTEX
8
CUT
10
94.700
20
230.700
30
0
0
VERTEX
8
CUT
10
91.750
20
230.700
30
0
0
VERTEX
8
CUT
10
91.750
20
240.650
30
0
0
VERTEX
8
CUT
10
94.700
20
240.650
30
0
0
SEQEND
8
CUT
0
POLYLINE
8
CUT
66
1
70
1
10
0
20
0
30
0
0
VERTEX
8
CUT
10
146.800
20
216.850
30
0
0
VERTEX
8
CUT
10
138.050
20
216.850
30
0
0
VERTEX
8
CUT
10
138.050
20
213.850
30
0
0
VERTEX
8
CUT
10
127.900
20
213.850
30
0
0
VERTEX
8
CUT
10
127.900
20
216.850
30
0
0
VERTEX
8
CUT
10
110.550
20
216.850
30
0
0
VERTEX
8
CUT
10
110.550
20
213.850
30
0
0
VERTEX
8
CUT
10
100.400
20
213.850
30
0
0
VERTEX
8
CUT
10
100.400
20
216.850
30
0
0
VERTEX
8
CUT
10
88.650
20
216.850
30
0
0
VERTEX
8
CUT
10
88.650
20
292.000
30
0
0
VERTEX
8
CUT
10
100.400
20
292.000
30
0
0
VERTEX
8
CUT
10
100.400
20
295.000
30
0
0
VERTEX
8
CUT
10
110.550
20
295.000
30
0
0
VERTEX
8
CUT
10
110.550
20
292.000
30
0
0
VERTEX
8
CUT
10
127.900
20
292.000
30
0
0
VERTEX
8
CUT
10
127.900
20
295.000
30
0
0
VERTEX
8
CUT
10
138.050
20
295.000
30
0
0
VERTEX
8
CUT
10
138.050
20
292.000
30
0
0
VERTEX
8
CUT
10
146.800
20
292.000
30
0
0
SEQEND
8
CUT
0
POLYLINE
8
CUT
66
1
70
1
10
0
20
0
30
0
0
VERTEX
8
CUT
10
198.262
20
224.925
30
0
0
VERTEX
8
CUT
10
199.818
20
227.621
30
0
0
VERTEX
8
CUT
10
202.932
20
227.621
30
0
0
VERTEX
8
CUT
10
204.488
20
224.925
30
0
0
VERTEX
8
CUT
10
202.932
20
222.229
30
0
0
VERTEX
8
CUT
10
199.818
20
222.229
30
0
0
SEQEND
8
CUT
0
POLYLINE
8
CUT
66
1
70
1
10
0
20
0
30
0
0
VERTEX
8
CUT
10
157.262
20
224.925
30
0
0
VERTEX
8
CUT
10
158.818
20
227.621
30
0
0
VERTEX
8
CUT
10
161.932
20
227.621
30
0
0
VERTEX
8
CUT
10
163.488
20
224.925
30
0
0
VERTEX
8
CUT
10
161.932
20
222.229
30
0
0
VERTEX
8
CUT
10
158.818
20
222.229
30
0
0
SEQEND
8
CUT
0
POLYLINE
8
CUT
66
1
70
1
10
0
20
0
30
0
0
VERTEX
8
CUT
10
155.350
20
230.700
30
0
0
VERTEX
8
CUT
10
152.400
20
230.700
30
0
0
VERTEX
8
CUT
10
152.400
20
240.650
30
0
0
VERTEX
8
CUT
10
155.350
20
240.650
30
0
0
SEQEND
8
CUT
0
POLYLINE
8
CUT
66
1
70
1
10
0
20
0
30
0
0
VERTEX
8
CUT
10
155.350
20
268.200
30
0
0
VERTEX
8
CUT
10
152.400
20
268.200
30
0
0
VERTEX
8
CUT
10
152.400
20
278.150
30
0
0
VERTEX
8
CUT
10
155.350
20
278.150
30
0
0
SEQEND
8
CUT
0
POLYLINE
8
CUT
66
1
70
1
10
0
20
0
30
0
0
VERTEX
8
CUT
10
207.450
20
216.850
30
0
0
VERTEX
8
CUT
10
198.700
20
216.850
30
0
0
VERTEX
8
CUT
10
198.700
20
213.850
30
0
0
VERTEX
8
CUT
10
188.550
20
213.850
30
0
0
VERTEX
8
CUT
10
188.550
20
216.850
30
0
0
VERTEX
8
CUT
10
171.200
20
216.850
30
0
0
VERTEX
8
CUT
10
171.200
20
213.850
30
0
0
VERTEX
8
CUT
10
161.050
20
213.850
30
0
0
VERTEX
8
CUT
10
161.050
20
216.850
30
0
0
VERTEX
8
CUT
10
149.300
20
216.850
30
0
0
VERTEX
8
CUT
10
149.300
20
292.000
30
0
0
VERTEX
8
CUT
10
161.050
20
292.000
30
0
0
VERTEX
8
CUT
10
161.050
20
295.000
30
0
0
VERTEX
8
CUT
10
171.200
20
295.000
30
0
0
VERTEX
8
CUT
10
171.200
20
292.000
30
0
0
VERTEX
8
CUT
10
188.550
20
292.000
30
0
0
VERTEX
8
CUT
10
188.550
20
295.000
30
0
0
VERTEX
8
CUT
10
198.700
20
295.000
30
0
0
VERTEX
8
CUT
10
198.700
20
292.000
30
0
0
VERTEX
8
CUT
10
207.450
20
292.000
30
0
0
SEQEND
8
CUT
0
POLYLINE
8
CUT
66
1
70
1
10
0
20
0
30
0
0
VERTEX
8
CUT
10
210.900
20
65.928
30
0
0
VERTEX
8
CUT
10
210.506
20
66.057
30
0
0
VERTEX
8
CUT
10
210.262
20
66.392
30
0
0
VERTEX
8
CUT
10
210.262
20
66.807
30
0
0
VERTEX
8
CUT
10
210.506
20
67.143
30
0
0
VERTEX
8
CUT
10
210.900
20
67.271
30
0
0
VERTEX
8
CUT
10
211.295
20
67.143
30
0
0
VERTEX
8
CUT
10
211.539
20
66.807
30
0
0
VERTEX
8
CUT
10
211.539
20
66.392
30
0
0
VERTEX
8
CUT
10
211.295
20
66.057
30
0
0
SEQEND
8
CUT
0
POLYLINE
8
CUT
66
1
70
1
10
0
20
0
30
0
0
VERTEX
8
CUT
10
210.900
20
62.928
30
0
0
VERTEX
8
CUT
10
210.506
20
63.057
30
0
0
VERTEX
8
CUT
10
210.262
20
63.392
30
0
0
VERTEX
8
CUT
10
210.262
20
63.807
30
0
0
VERTEX
8
CUT
10
210.506
20
64.143
30
0
0
VERTEX
8
CUT
10
210.900
20
64.271
30
0
0
VERTEX
8
CUT
10
211.295
20
64.143
30
0
0
VERTEX
8
CUT
10
211.539
20
63.807
30
0
0
VERTEX
8
CUT
10
211.539
20
63.392
30
0
0
VERTEX
8
CUT
10
211.295
20
63.057
30
0
0
SEQEND
8
CUT
0
POLYLINE
8
CUT
66
1
70
1
10
0
20
0
30
0
0
VERTEX
8
CUT
10
210.900
20
59.928
30
0
0
VERTEX
8
CUT
10
210.506
20
60.057
30
0
0
VERTEX
8
CUT
10
210.262
20
60.392
30
0
0
VERTEX
8
CUT
10
210.262
20
60.807
30
0
0
VERTEX
8
CUT
10
210.506
20
61.143
30
0
0
VERTEX
8
CUT
10
210.900
20
61.271
30
0
0
VERTEX
8
CUT
10
211.295
20
61.143
30
0
0
VERTEX
8
CUT
10
211.539
20
60.807
30
0
0
VERTEX
8
CUT
10
211.539
20
60.392
30
0
0
VERTEX
8
CUT
10
211.295
20
60.057
30
0
0
SEQEND
8
CUT
0
POLYLINE
8
CUT
66
1
70
1
10
0
20
0
30
0
0
VERTEX
8
CUT
10
224.975
20
124.904
30
0
0
VERTEX
8
CUT
10
224.975
20
46.895
30
0
0
VERTEX
8
CUT
10
224.871
20
46.104
30
0
0
VERTEX
8
CUT
10
224.564
20
45.362
30
0
0
VERTEX
8
CUT
10
224.075
20
44.725
30
0
0
VERTEX
8
CUT
10
223.438
20
44.236
30
0
0
VERTEX
8
CUT
10
222.696
20
43.929
30
0
0
VERTEX
8
CUT
10
221.905
20
43.825
30
0
0
VERTEX
8
CUT
10
173.896
20
43.825
30
0
0
VERTEX
8
CUT
10
173.104
20
43.929
30
0
0
VERTEX
8
CUT
10
172.363
20
44.236
30
0
0
VERTEX
8
CUT
10
171.726
20
44.725
30
0
0
VERTEX
8
CUT
10
171.237
20
45.362
30
0
0
VERTEX
8
CUT
10
170.930
20
46.104
30
0
0
VERTEX
8
CUT
10
170.825
20
46.895
30
0
0
VERTEX
8
CUT
10
170.825
20
124.904
30
0
0
VERTEX
8
CUT
10
170.930
20
125.696
30
0
0
VERTEX
8
CUT
10
171.237
20
126.437
30
0
0
VERTEX
8
CUT
10
171.726
20
127.074
30
0
0
VERTEX
8
CUT
10
172.363
20
127.563
30
0
0
VERTEX
8
CUT
10
173.104
20
127.870
30
0
0
VERTEX
8
CUT
10
173.896
20
127.975
30
0
0
VERTEX
8
CUT
10
221.905
20
127.975
30
0
0
VERTEX
8
CUT
10
222.696
20
127.870
30
0
0
VERTEX
8
CUT
10
223.438
20
127.563
30
0
0
VERTEX
8
CUT
10
224.075
20
127.074
30
0
0
VERTEX
8
CUT
10
224.564
20
126.437
30
0
0
VERTEX
8
CUT
10
224.871
20
125.696
30
0
0
SEQEND
8
CUT
0
POLYLINE
8
CUT
66
1
70
1
10
0
20
0
30
0
0
VERTEX
8
CUT
10
232.300
20
191.275
30
0
0
VERTEX
8
CUT
10
232.151
20
192.593
30
0
0
VERTEX
8
CUT
10
231.713
20
193.846
30
0
0
VERTEX
8
CUT
10
231.007
20
194.969
30
0
0
VERTEX
8
CUT
10
230.069
20
195.907
30
0
0
VERTEX
8
CUT
10
228.946
20
196.613
30
0
0
VERTEX
8
CUT
10
227.693
20
197.051
30
0
0
VERTEX
8
CUT
10
226.375
20
197.200
30
0
0
VERTEX
8
CUT
10
225.057
20
197.051
30
0
0
VERTEX
8
CUT
10
223.804
20
196.613
30
0
0
VERTEX
8
CUT
10
222.681
20
195.907
30
0
0
VERTEX
8
CUT
10
221.743
20
194.969
30
0
0
VERTEX
8
CUT
10
221.037
20
193.846
30
0
0
VERTEX
8
CUT
10
220.599
20
192.593
30
0
0
VERTEX
8
CUT
10
220.450
20
191.275
30
0
0
VERTEX
8
CUT
10
220.599
20
189.957
30
0
0
VERTEX
8
CUT
10
221.037
20
188.704
30
0
0
VERTEX
8
CUT
10
221.743
20
187.581
30
0
0
VERTEX
8
CUT
10
222.681
20
186.643
30
0
0
VERTEX
8
CUT
10
223.804
20
185.937
30
0
0
VERTEX
8
CUT
10
225.057
20
185.499
30
0
0
VERTEX
8
CUT
10
226.375
20
185.350
30
0
0
VERTEX
8
CUT
10
227.693
20
185.499
30
0
0
VERTEX
8
CUT
10
228.946
20
185.937
30
0
0
VERTEX
8
CUT
10
230.069
20
186.643
30
0
0
VERTEX
8
CUT
10
231.007
20
187.581
30
0
0
VERTEX
8
CUT
10
231.713
20
188.704
30
0
0
VERTEX
8
CUT
10
232.151
20
189.957
30
0
0
SEQEND
8
CUT
0
POLYLINE
8
CUT
66
1
70
1
10
0
20
0
30
0
0
VERTEX
8
CUT
10
267.400
20
166.300
30
0
0
VERTEX
8
CUT
10
277.350
20
166.300
30
0
0
VERTEX
8
CUT
10
277.350
20
169.250
30
0
0
VERTEX
8
CUT
10
267.400
20
169.250
30
0
0
SEQEND
8
CUT
0
POLYLINE
8
CUT
66
1
70
1
10
0
20
0
30
0
0
VERTEX
8
CUT
10
241.400
20
166.300
30
0
0
VERTEX
8
CUT
10
251.350
20
166.300
30
0
0
VERTEX
8
CUT
10
251.350
20
169.250
30
0
0
VERTEX
8
CUT
10
241.400
20
169.250
30
0
0
SEQEND
8
CUT
0
POLYLINE
8
CUT
66
1
70
1
10
0
20
0
30
0
0
VERTEX
8
CUT
10
215.400
20
166.300
30
0
0
VERTEX
8
CUT
10
225.350
20
166.300
30
0
0
VERTEX
8
CUT
10
225.350
20
169.250
30
0
0
VERTEX
8
CUT
10
215.400
20
169.250
30
0
0
SEQEND
8
CUT
0
POLYLINE
8
CUT
66
1
70
1
10
0
20
0
30
0
0
VERTEX
8
CUT
10
207.300
20
163.200
30
0
0
VERTEX
8
CUT
10
285.450
20
163.200
30
0
0
VERTEX
8
CUT
10
285.450
20
170.200
30
0
0
VERTEX
8
CUT
10
288.450
20
170.200
30
0
0
VERTEX
8
CUT
10
288.450
20
180.350
30
0
0
VERTEX
8
CUT
10
285.450
20
180.350
30
0
0
VERTEX
8
CUT
10
285.450
20
194.200
30
0
0
VERTEX
8
CUT
10
288.450
20
194.200
30
0
0
VERTEX
8
CUT
10
288.450
20
204.350
30
0
0
VERTEX
8
CUT
10
285.450
20
204.350
30
0
0
VERTEX
8
CUT
10
285.450
20
211.350
30
0
0
VERTEX
8
CUT
10
207.300
20
211.350
30
0
0
VERTEX
8
CUT
10
207.300
20
204.350
30
0
0
VERTEX
8
CUT
10
204.300
20
204.350
30
0
0
VERTEX
8
CUT
10
204.300
20
194.200
30
0
0
VERTEX
8
CUT
10
207.300
20
194.200
30
0
0
VERTEX
8
CUT
10
207.300
20
180.350
30
0
0
VERTEX
8
CUT
10
204.300
20
180.350
30
0
0
VERTEX
8
CUT
10
204.300
20
170.200
30
0
0
VERTEX
8
CUT
10
207.300
20
170.200
30
0
0
SEQEND
8
CUT
0
POLYLINE
8
CUT
66
1
70
1
10
0
20
0
30
0
0
VERTEX
8
CUT
10
352.700
20
284.719
30
0
0
VERTEX
8
CUT
10
352.756
20
285.072
30
0
0
VERTEX
8
CUT
10
352.916
20
285.386
30
0
0
VERTEX
8
CUT
10
353.164
20
285.634
30
0
0
VERTEX
8
CUT
10
353.478
20
285.794
30
0
0
VERTEX
8
CUT
10
353.831
20
285.850
30
0
0
VERTEX
8
CUT
10
354.219
20
285.850
30
0
0
VERTEX
8
CUT
10
354.572
20
285.794
30
0
0
VERTEX
8
CUT
10
354.886
20
285.634
30
0
0
VERTEX
8
CUT
10
355.134
20
285.386
30
0
0
VERTEX
8
CUT
10
355.294
20
285.072
30
0
0
VERTEX
8
CUT
10
355.350
20
284.719
30
0
0
VERTEX
8
CUT
10
355.350
20
271.291
30
0
0
VERTEX
8
CUT
10
355.294
20
270.938
30
0
0
VERTEX
8
CUT
10
355.134
20
270.624
30
0
0
VERTEX
8
CUT
10
354.886
20
270.376
30
0
0
VERTEX
8
CUT
10
354.572
20
270.216
30
0
0
VERTEX
8
CUT
10
354.219
20
270.160
30
0
0
VERTEX
8
CUT
10
353.831
20
270.160
30
0
0
VERTEX
8
CUT
10
353.478
20
270.216
30
0
0
VERTEX
8
CUT
10
353.164
20
270.376
30
0
0
VERTEX
8
CUT
10
352.916
20
270.624
30
0
0
VERTEX
8
CUT
10
352.756
20
270.938
30
0
0
VERTEX
8
CUT
10
352.700
20
271.291
30
0
0
SEQEND
8
CUT
0
POLYLINE
8
CUT
66
1
70
1
10
0
20
0
30
0
0
VERTEX
8
CUT
10
345.700
20
284.719
30
0
0
VERTEX
8
CUT
10
345.756
20
285.072
30
0
0
VERTEX
8
CUT
10
345.916
20
285.386
30
0
0
VERTEX
8
CUT
10
346.164
20
285.634
30
0
0
VERTEX
8
CUT
10
346.478
20
285.794
30
0
0
VERTEX
8
CUT
10
346.831
20
285.850
30
0
0
VERTEX
8
CUT
10
347.219
20
285.850
30
0
0
VERTEX
8
CUT
10
347.572
20
285.794
30
0
0
VERTEX
8
CUT
10
347.886
20
285.634
30
0
0
VERTEX
8
CUT
10
348.134
20
285.386
30
0
0
VERTEX
8
CUT
10
348.294
20
285.072
30
0
0
VERTEX
8
CUT
10
348.350
20
284.719
30
0
0
VERTEX
8
CUT
10
348.350
20
271.291
30
0
0
VERTEX
8
CUT
10
348.294
20
270.938
30
0
0
VERTEX
8
CUT
10
348.134
20
270.624
30
0
0
VERTEX
8
CUT
10
347.886
20
270.376
30
0
0
VERTEX
8
CUT
10
347.572
20
270.216
30
0
0
VERTEX
8
CUT
10
347.219
20
270.160
30
0
0
VERTEX
8
CUT
10
346.831
20
270.160
30
0
0
VERTEX
8
CUT
10
346.478
20
270.216
30
0
0
VERTEX
8
CUT
10
346.164
20
270.376
30
0
0
VERTEX
8
CUT
10
345.916
20
270.624
30
0
0
VERTEX
8
CUT
10
345.756
20
270.938
30
0
0
VERTEX
8
CUT
10
345.700
20
271.291
30
0
0
SEQEND
8
CUT
0
POLYLINE
8
CUT
66
1
70
1
10
0
20
0
30
0
0
VERTEX
8
CUT
10
338.700
20
284.719
30
0
0
VERTEX
8
CUT
10
338.756
20
285.072
30
0
0
VERTEX
8
CUT
10
338.916
20
285.386
30
0
0
VERTEX
8
CUT
10
339.164
20
285.634
30
0
0
VERTEX
8
CUT
10
339.478
20
285.794
30
0
0
VERTEX
8
CUT
10
339.831
20
285.850
30
0
0
VERTEX
8
CUT
10
340.219
20
285.850
30
0
0
VERTEX
8
CUT
10
340.572
20
285.794
30
0
0
VERTEX
8
CUT
10
340.886
20
285.634
30
0
0
VERTEX
8
CUT
10
341.134
20
285.386
30
0
0
VERTEX
8
CUT
10
341.294
20
285.072
30
0
0
VERTEX
8
CUT
10
341.350
20
284.719
30
0
0
VERTEX
8
CUT
10
341.350
20
271.291
30
0
0
VERTEX
8
CUT
10
341.294
20
270.938
30
0
0
VERTEX
8
CUT
10
341.134
20
270.624
30
0
0
VERTEX
8
CUT
10
340.886
20
270.376
30
0
0
VERTEX
8
CUT
10
340.572
20
270.216
30
0
0
VERTEX
8
CUT
10
340.219
20
270.160
30
0
0
VERTEX
8
CUT
10
339.831
20
270.160
30
0
0
VERTEX
8
CUT
10
339.478
20
270.216
30
0
0
VERTEX
8
CUT
10
339.164
20
270.376
30
0
0
VERTEX
8
CUT
10
338.916
20
270.624
30
0
0
VERTEX
8
CUT
10
338.756
20
270.938
30
0
0
VERTEX
8
CUT
10
338.700
20
271.291
30
0
0
SEQEND
8
CUT
0
POLYLINE
8
CUT
66
1
70
1
10
0
20
0
30
0
0
VERTEX
8
CUT
10
331.700
20
284.719
30
0
0
VERTEX
8
CUT
10
331.756
20
285.072
30
0
0
VERTEX
8
CUT
10
331.916
20
285.386
30
0
0
VERTEX
8
CUT
10
332.164
20
285.634
30
0
0
VERTEX
8
CUT
10
332.478
20
285.794
30
0
0
VERTEX
8
CUT
10
332.831
20
285.850
30
0
0
VERTEX
8
CUT
10
333.219
20
285.850
30
0
0
VERTEX
8
CUT
10
333.572
20
285.794
30
0
0
VERTEX
8
CUT
10
333.886
20
285.634
30
0
0
VERTEX
8
CUT
10
334.134
20
285.386
30
0
0
VERTEX
8
CUT
10
334.294
20
285.072
30
0
0
VERTEX
8
CUT
10
334.350
20
284.719
30
0
0
VERTEX
8
CUT
10
334.350
20
271.291
30
0
0
VERTEX
8
CUT
10
334.294
20
270.938
30
0
0
VERTEX
8
CUT
10
334.134
20
270.624
30
0
0
VERTEX
8
CUT
10
333.886
20
270.376
30
0
0
VERTEX
8
CUT
10
333.572
20
270.216
30
0
0
VERTEX
8
CUT
10
333.219
20
270.160
30
0
0
VERTEX
8
CUT
10
332.831
20
270.160
30
0
0
VERTEX
8
CUT
10
332.478
20
270.216
30
0
0
VERTEX
8
CUT
10
332.164
20
270.376
30
0
0
VERTEX
8
CUT
10
331.916
20
270.624
30
0
0
VERTEX
8
CUT
10
331.756
20
270.938
30
0
0
VERTEX
8
CUT
10
331.700
20
271.291
30
0
0
SEQEND
8
CUT
0
POLYLINE
8
CUT
66
1
70
1
10
0
20
0
30
0
0
VERTEX
8
CUT
10
324.700
20
284.719
30
0
0
VERTEX
8
CUT
10
324.756
20
285.072
30
0
0
VERTEX
8
CUT
10
324.916
20
285.386
30
0
0
VERTEX
8
CUT
10
325.164
20
285.634
30
0
0
VERTEX
8
CUT
10
325.478
20
285.794
30
0
0
VERTEX
8
CUT
10
325.831
20
285.850
30
0
0
VERTEX
8
CUT
10
326.219
20
285.850
30
0
0
VERTEX
8
CUT
10
326.572
20
285.794
30
0
0
VERTEX
8
CUT
10
326.886
20
285.634
30
0
0
VERTEX
8
CUT
10
327.134
20
285.386
30
0
0
VERTEX
8
CUT
10
327.294
20
285.072
30
0
0
VERTEX
8
CUT
10
327.350
20
284.719
30
0
0
VERTEX
8
CUT
10
327.350
20
271.291
30
0
0
VERTEX
8
CUT
10
327.294
20
270.938
30
0
0
VERTEX
8
CUT
10
327.134
20
270.624
30
0
0
VERTEX
8
CUT
10
326.886
20
270.376
30
0
0
VERTEX
8
CUT
10
326.572
20
270.216
30
0
0
VERTEX
8
CUT
10
326.219
20
270.160
30
0
0
VERTEX
8
CUT
10
325.831
20
270.160
30
0
0
VERTEX
8
CUT
10
325.478
20
270.216
30
0
0
VERTEX
8
CUT
10
325.164
20
270.376
30
0
0
VERTEX
8
CUT
10
324.916
20
270.624
30
0
0
VERTEX
8
CUT
10
324.756
20
270.938
30
0
0
VERTEX
8
CUT
10
324.700
20
271.291
30
0
0
SEQEND
8
CUT
0
POLYLINE
8
CUT
66
1
70
1
10
0
20
0
30
0
0
VERTEX
8
CUT
10
317.700
20
284.719
30
0
0
VERTEX
8
CUT
10
317.756
20
285.072
30
0
0
VERTEX
8
CUT
10
317.916
20
285.386
30
0
0
VERTEX
8
CUT
10
318.164
20
285.634
30
0
0
VERTEX
8
CUT
10
318.478
20
285.794
30
0
0
VERTEX
8
CUT
10
318.831
20
285.850
30
0
0
VERTEX
8
CUT
10
319.219
20
285.850
30
0
0
VERTEX
8
CUT
10
319.572
20
285.794
30
0
0
VERTEX
8
CUT
10
319.886
20
285.634
30
0
0
VERTEX
8
CUT
10
320.134
20
285.386
30
0
0
VERTEX
8
CUT
10
320.294
20
285.072
30
0
0
VERTEX
8
CUT
10
320.350
20
284.719
30
0
0
VERTEX
8
CUT
10
320.350
20
271.291
30
0
0
VERTEX
8
CUT
10
320.294
20
270.938
30
0
0
VERTEX
8
CUT
10
320.134
20
270.624
30
0
0
VERTEX
8
CUT
10
319.886
20
270.376
30
0
0
VERTEX
8
CUT
10
319.572
20
270.216
30
0
0
VERTEX
8
CUT
10
319.219
20
270.160
30
0
0
VERTEX
8
CUT
10
318.831
20
270.160
30
0
0
VERTEX
8
CUT
10
318.478
20
270.216
30
0
0
VERTEX
8
CUT
10
318.164
20
270.376
30
0
0
VERTEX
8
CUT
10
317.916
20
270.624
30
0
0
VERTEX
8
CUT
10
317.756
20
270.938
30
0
0
VERTEX
8
CUT
10
317.700
20
271.291
30
0
0
SEQEND
8
CUT
0
POLYLINE
8
CUT
66
1
70
1
10
0
20
0
30
0
0
VERTEX
8
CUT
10
310.700
20
284.719
30
0
0
VERTEX
8
CUT
10
310.756
20
285.072
30
0
0
VERTEX
8
CUT
10
310.916
20
285.386
30
0
0
VERTEX
8
CUT
10
311.164
20
285.634
30
0
0
VERTEX
8
CUT
10
311.478
20
285.794
30
0
0
VERTEX
8
CUT
10
311.831
20
285.850
30
0
0
VERTEX
8
CUT
10
312.219
20
285.850
30
0
0
VERTEX
8
CUT
10
312.572
20
285.794
30
0
0
VERTEX
8
CUT
10
312.886
20
285.634
30
0
0
VERTEX
8
CUT
10
313.134
20
285.386
30
0
0
VERTEX
8
CUT
10
313.294
20
285.072
30
0
0
VERTEX
8
CUT
10
313.350
20
284.719
30
0
0
VERTEX
8
CUT
10
313.350
20
271.291
30
0
0
VERTEX
8
CUT
10
313.294
20
270.938
30
0
0
VERTEX
8
CUT
10
313.134
20
270.624
30
0
0
VERTEX
8
CUT
10
312.886
20
270.376
30
0
0
VERTEX
8
CUT
10
312.572
20
270.216
30
0
0
VERTEX
8
CUT
10
312.219
20
270.160
30
0
0
VERTEX
8
CUT
10
311.831
20
270.160
30
0
0
VERTEX
8
CUT
10
311.478
20
270.216
30
0
0
VERTEX
8
CUT
10
311.164
20
270.376
30
0
0
VERTEX
8
CUT
10
310.916
20
270.624
30
0
0
VERTEX
8
CUT
10
310.756
20
270.938
30
0
0
VERTEX
8
CUT
10
310.700
20
271.291
30
0
0
SEQEND
8
CUT
0
POLYLINE
8
CUT
66
1
70
1
10
0
20
0
30
0
0
VERTEX
8
CUT
10
364.000
20
249.950
30
0
0
VERTEX
8
CUT
10
354.050
20
249.950
30
0
0
VERTEX
8
CUT
10
354.050
20
252.900
30
0
0
VERTEX
8
CUT
10
364.000
20
252.900
30
0
0
SEQEND
8
CUT
0
POLYLINE
8
CUT
66
1
70
1
10
0
20
0
30
0
0
VERTEX
8
CUT
10
338.000
20
249.950
30
0
0
VERTEX
8
CUT
10
328.050
20
249.950
30
0
0
VERTEX
8
CUT
10
328.050
20
252.900
30
0
0
VERTEX
8
CUT
10
338.000
20
252.900
30
0
0
SEQEND
8
CUT
0
POLYLINE
8
CUT
66
1
70
1
10
0
20
0
30
0
0
VERTEX
8
CUT
10
312.000
20
249.950
30
0
0
VERTEX
8
CUT
10
302.050
20
249.950
30
0
0
VERTEX
8
CUT
10
302.050
20
252.900
30
0
0
VERTEX
8
CUT
10
312.000
20
252.900
30
0
0
SEQEND
8
CUT
0
POLYLINE
8
CUT
66
1
70
1
10
0
20
0
30
0
0
VERTEX
8
CUT
10
372.100
20
246.850
30
0
0
VERTEX
8
CUT
10
293.950
20
246.850
30
0
0
VERTEX
8
CUT
10
293.950
20
253.850
30
0
0
VERTEX
8
CUT
10
290.950
20
253.850
30
0
0
VERTEX
8
CUT
10
290.950
20
264.000
30
0
0
VERTEX
8
CUT
10
293.950
20
264.000
30
0
0
VERTEX
8
CUT
10
293.950
20
277.850
30
0
0
VERTEX
8
CUT
10
290.950
20
277.850
30
0
0
VERTEX
8
CUT
10
290.950
20
288.000
30
0
0
VERTEX
8
CUT
10
293.950
20
288.000
30
0
0
VERTEX
8
CUT
10
293.950
20
295.000
30
0
0
VERTEX
8
CUT
10
372.100
20
295.000
30
0
0
VERTEX
8
CUT
10
372.100
20
288.000
30
0
0
VERTEX
8
CUT
10
375.100
20
288.000
30
0
0
VERTEX
8
CUT
10
375.100
20
277.850
30
0
0
VERTEX
8
CUT
10
372.100
20
277.850
30
0
0
VERTEX
8
CUT
10
372.100
20
264.000
30
0
0
VERTEX
8
CUT
10
375.100
20
264.000
30
0
0
VERTEX
8
CUT
10
375.100
20
253.850
30
0
0
VERTEX
8
CUT
10
372.100
20
253.850
30
0
0
SEQEND
8
CUT
0
POLYLINE
8
CUT
66
1
70
1
10
0
20
0
30
0
0
VERTEX
8
CUT
10
335.949
20
221.275
30
0
0
VERTEX
8
CUT
10
335.773
20
222.275
30
0
0
VERTEX
8
CUT
10
335.265
20
223.154
30
0
0
VERTEX
8
CUT
10
334.487
20
223.807
30
0
0
VERTEX
8
CUT
10
333.533
20
224.154
30
0
0
VERTEX
8
CUT
10
332.517
20
224.154
30
0
0
VERTEX
8
CUT
10
331.563
20
223.807
30
0
0
VERTEX
8
CUT
10
330.785
20
223.154
30
0
0
VERTEX
8
CUT
10
330.277
20
222.275
30
0
0
VERTEX
8
CUT
10
330.101
20
221.275
30
0
0
VERTEX
8
CUT
10
330.277
20
220.275
30
0
0
VERTEX
8
CUT
10
330.785
20
219.396
30
0
0
VERTEX
8
CUT
10
331.563
20
218.743
30
0
0
VERTEX
8
CUT
10
332.517
20
218.396
30
0
0
VERTEX
8
CUT
10
333.533
20
218.396
30
0
0
VERTEX
8
CUT
10
334.487
20
218.743
30
0
0
VERTEX
8
CUT
10
335.265
20
219.396
30
0
0
VERTEX
8
CUT
10
335.773
20
220.275
30
0
0
SEQEND
8
CUT
0
POLYLINE
8
CUT
66
1
70
1
10
0
20
0
30
0
0
VERTEX
8
CUT
10
336.949
20
205.275
30
0
0
VERTEX
8
CUT
10
336.757
20
206.488
30
0
0
VERTEX
8
CUT
10
336.200
20
207.582
30
0
0
VERTEX
8
CUT
10
335.332
20
208.450
30
0
0
VERTEX
8
CUT
10
334.238
20
209.007
30
0
0
VERTEX
8
CUT
10
333.025
20
209.199
30
0
0
VERTEX
8
CUT
10
331.812
20
209.007
30
0
0
VERTEX
8
CUT
10
330.718
20
208.450
30
0
0
VERTEX
8
CUT
10
329.850
20
207.582
30
0
0
VERTEX
8
CUT
10
329.293
20
206.488
30
0
0
VERTEX
8
CUT
10
329.101
20
205.275
30
0
0
VERTEX
8
CUT
10
329.293
20
204.062
30
0
0
VERTEX
8
CUT
10
329.850
20
202.968
30
0
0
VERTEX
8
CUT
10
330.718
20
202.100
30
0
0
VERTEX
8
CUT
10
331.812
20
201.543
30
0
0
VERTEX
8
CUT
10
333.025
20
201.351
30
0
0
VERTEX
8
CUT
10
334.238
20
201.543
30
0
0
VERTEX
8
CUT
10
335.332
20
202.100
30
0
0
VERTEX
8
CUT
10
336.200
20
202.968
30
0
0
VERTEX
8
CUT
10
336.757
20
204.062
30
0
0
SEQEND
8
CUT
0
POLYLINE
8
CUT
66
1
70
1
10
0
20
0
30
0
0
VERTEX
8
CUT
10
339.137
20
226.366
30
0
0
VERTEX
8
CUT
10
338.942
20
226.966
30
0
0
VERTEX
8
CUT
10
338.432
20
227.337
30
0
0
VERTEX
8
CUT
10
337.801
20
227.337
30
0
0
VERTEX
8
CUT
10
337.290
20
226.966
30
0
0
VERTEX
8
CUT
10
337.095
20
226.366
30
0
0
VERTEX
8
CUT
10
337.290
20
225.766
30
0
0
VERTEX
8
CUT
10
337.801
20
225.395
30
0
0
VERTEX
8
CUT
10
338.432
20
225.395
30
0
0
VERTEX
8
CUT
10
338.942
20
225.766
30
0
0
SEQEND
8
CUT
0
POLYLINE
8
CUT
66
1
70
1
10
0
20
0
30
0
0
VERTEX
8
CUT
10
328.955
20
226.366
30
0
0
VERTEX
8
CUT
10
328.760
20
226.966
30
0
0
VERTEX
8
CUT
10
328.249
20
227.337
30
0
0
VERTEX
8
CUT
10
327.618
20
227.337
30
0
0
VERTEX
8
CUT
10
327.108
20
226.966
30
0
0
VERTEX
8
CUT
10
326.913
20
226.366
30
0
0
VERTEX
8
CUT
10
327.108
20
225.766
30
0
0
VERTEX
8
CUT
10
327.618
20
225.395
30
0
0
VERTEX
8
CUT
10
328.249
20
225.395
30
0
0
VERTEX
8
CUT
10
328.760
20
225.766
30
0
0
SEQEND
8
CUT
0
POLYLINE
8
CUT
66
1
70
1
10
0
20
0
30
0
0
VERTEX
8
CUT
10
328.955
20
216.184
30
0
0
VERTEX
8
CUT
10
328.760
20
216.784
30
0
0
VERTEX
8
CUT
10
328.249
20
217.155
30
0
0
VERTEX
8
CUT
10
327.618
20
217.155
30
0
0
VERTEX
8
CUT
10
327.108
20
216.784
30
0
0
VERTEX
8
CUT
10
326.913
20
216.184
30
0
0
VERTEX
8
CUT
10
327.108
20
215.584
30
0
0
VERTEX
8
CUT
10
327.618
20
215.213
30
0
0
VERTEX
8
CUT
10
328.249
20
215.213
30
0
0
VERTEX
8
CUT
10
328.760
20
215.584
30
0
0
SEQEND
8
CUT
0
POLYLINE
8
CUT
66
1
70
1
10
0
20
0
30
0
0
VERTEX
8
CUT
10
339.137
20
216.184
30
0
0
VERTEX
8
CUT
10
338.942
20
216.784
30
0
0
VERTEX
8
CUT
10
338.432
20
217.155
30
0
0
VERTEX
8
CUT
10
337.801
20
217.155
30
0
0
VERTEX
8
CUT
10
337.290
20
216.784
30
0
0
VERTEX
8
CUT
10
337.095
20
216.184
30
0
0
VERTEX
8
CUT
10
337.290
20
215.584
30
0
0
VERTEX
8
CUT
10
337.801
20
215.213
30
0
0
VERTEX
8
CUT
10
338.432
20
215.213
30
0
0
VERTEX
8
CUT
10
338.942
20
215.584
30
0
0
SEQEND
8
CUT
0
POLYLINE
8
CUT
66
1
70
1
10
0
20
0
30
0
0
VERTEX
8
CUT
10
300.250
20
225.450
30
0
0
VERTEX
8
CUT
10
303.200
20
225.450
30
0
0
VERTEX
8
CUT
10
303.200
20
233.400
30
0
0
VERTEX
8
CUT
10
300.250
20
233.400
30
0
0
SEQEND
8
CUT
0
POLYLINE
8
CUT
66
1
70
1
10
0
20
0
30
0
0
VERTEX
8
CUT
10
362.850
20
225.450
30
0
0
VERTEX
8
CUT
10
365.800
20
225.450
30
0
0
VERTEX
8
CUT
10
365.800
20
233.400
30
0
0
VERTEX
8
CUT
10
362.850
20
233.400
30
0
0
SEQEND
8
CUT
0
POLYLINE
8
CUT
66
1
70
1
10
0
20
0
30
0
0
VERTEX
8
CUT
10
293.950
20
199.200
30
0
0
VERTEX
8
CUT
10
301.950
20
199.200
30
0
0
VERTEX
8
CUT
10
301.950
20
196.200
30
0
0
VERTEX
8
CUT
10
312.100
20
196.200
30
0
0
VERTEX
8
CUT
10
312.100
20
199.200
30
0
0
VERTEX
8
CUT
10
327.950
20
199.200
30
0
0
VERTEX
8
CUT
10
327.950
20
196.200
30
0
0
VERTEX
8
CUT
10
338.100
20
196.200
30
0
0
VERTEX
8
CUT
10
338.100
20
199.200
30
0
0
VERTEX
8
CUT
10
353.950
20
199.200
30
0
0
VERTEX
8
CUT
10
353.950
20
196.200
30
0
0
VERTEX
8
CUT
10
364.100
20
196.200
30
0
0
VERTEX
8
CUT
10
364.100
20
199.200
30
0
0
VERTEX
8
CUT
10
372.100
20
199.200
30
0
0
VERTEX
8
CUT
10
372.100
20
204.700
30
0
0
VERTEX
8
CUT
10
375.100
20
204.700
30
0
0
VERTEX
8
CUT
10
375.100
20
214.850
30
0
0
VERTEX
8
CUT
10
372.100
20
214.850
30
0
0
VERTEX
8
CUT
10
372.100
20
225.700
30
0
0
VERTEX
8
CUT
10
375.100
20
225.700
30
0
0
VERTEX
8
CUT
10
375.100
20
235.850
30
0
0
VERTEX
8
CUT
10
372.100
20
235.850
30
0
0
VERTEX
8
CUT
10
372.100
20
241.350
30
0
0
VERTEX
8
CUT
10
364.100
20
241.350
30
0
0
VERTEX
8
CUT
10
364.100
20
244.350
30
0
0
VERTEX
8
CUT
10
353.950
20
244.350
30
0
0
VERTEX
8
CUT
10
353.950
20
241.350
30
0
0
VERTEX
8
CUT
10
338.100
20
241.350
30
0
0
VERTEX
8
CUT
10
338.100
20
244.350
30
0
0
VERTEX
8
CUT
10
327.950
20
244.350
30
0
0
VERTEX
8
CUT
10
327.950
20
241.350
30
0
0
VERTEX
8
CUT
10
312.100
20
241.350
30
0
0
VERTEX
8
CUT
10
312.100
20
244.350
30
0
0
VERTEX
8
CUT
10
301.950
20
244.350
30
0
0
VERTEX
8
CUT
10
301.950
20
241.350
30
0
0
VERTEX
8
CUT
10
293.950
20
241.350
30
0
0
VERTEX
8
CUT
10
293.950
20
235.850
30
0
0
VERTEX
8
CUT
10
290.950
20
235.850
30
0
0
VERTEX
8
CUT
10
290.950
20
225.700
30
0
0
VERTEX
8
CUT
10
293.950
20
225.700
30
0
0
VERTEX
8
CUT
10
293.950
20
214.850
30
0
0
VERTEX
8
CUT
10
290.950
20
214.850
30
0
0
VERTEX
8
CUT
10
290.950
20
204.700
30
0
0
VERTEX
8
CUT
10
293.950
20
204.700
30
0
0
SEQEND
8
CUT
0
POLYLINE
8
CUT
66
1
70
1
10
0
20
0
30
0
0
VERTEX
8
CUT
10
238.525
20
241.024
30
0
0
VERTEX
8
CUT
10
236.309
20
241.121
30
0
0
VERTEX
8
CUT
10
234.110
20
241.410
30
0
0
VERTEX
8
CUT
10
231.945
20
241.890
30
0
0
VERTEX
8
CUT
10
229.829
20
242.557
30
0
0
VERTEX
8
CUT
10
227.780
20
243.406
30
0
0
VERTEX
8
CUT
10
225.813
20
244.430
30
0
0
VERTEX
8
CUT
10
223.942
20
245.622
30
0
0
VERTEX
8
CUT
10
222.182
20
246.972
30
0
0
VERTEX
8
CUT
10
220.547
20
248.471
30
0
0
VERTEX
8
CUT
10
219.048
20
250.106
30
0
0
VERTEX
8
CUT
10
217.698
20
251.866
30
0
0
VERTEX
8
CUT
10
216.506
20
253.736
30
0
0
VERTEX
8
CUT
10
215.482
20
255.704
30
0
0
VERTEX
8
CUT
10
214.633
20
257.753
30
0
0
VERTEX
8
CUT
10
213.966
20
259.868
30
0
0
VERTEX
8
CUT
10
213.486
20
262.034
30
0
0
VERTEX
8
CUT
10
213.197
20
264.233
30
0
0
VERTEX
8
CUT
10
213.100
20
266.449
30
0
0
VERTEX
8
CUT
10
213.197
20
268.665
30
0
0
VERTEX
8
CUT
10
213.486
20
270.864
30
0
0
VERTEX
8
CUT
10
213.966
20
273.029
30
0
0
VERTEX
8
CUT
10
214.633
20
275.145
30
0
0
VERTEX
8
CUT
10
215.482
20
277.194
30
0
0
VERTEX
8
CUT
10
216.506
20
279.161
30
0
0
VERTEX
8
CUT
10
217.698
20
281.032
30
0
0
VERTEX
8
CUT
10
219.048
20
282.792
30
0
0
VERTEX
8
CUT
10
220.547
20
284.427
30
0
0
VERTEX
8
CUT
10
222.182
20
285.925
30
0
0
VERTEX
8
CUT
10
223.942
20
287.276
30
0
0
VERTEX
8
CUT
10
225.813
20
288.467
30
0
0
VERTEX
8
CUT
10
227.780
20
289.492
30
0
0
VERTEX
8
CUT
10
229.829
20
290.340
30
0
0
VERTEX
8
CUT
10
231.945
20
291.007
30
0
0
VERTEX
8
CUT
10
234.110
20
291.488
30
0
0
VERTEX
8
CUT
10
236.309
20
291.777
30
0
0
VERTEX
8
CUT
10
238.525
20
291.874
30
0
0
VERTEX
8
CUT
10
240.741
20
291.777
30
0
0
VERTEX
8
CUT
10
242.940
20
291.488
30
0
0
VERTEX
8
CUT
10
245.106
20
291.007
30
0
0
VERTEX
8
CUT
10
247.221
20
290.340
30
0
0
VERTEX
8
CUT
10
249.270
20
289.492
30
0
0
VERTEX
8
CUT
10
251.238
20
288.467
30
0
0
VERTEX
8
CUT
10
253.108
20
287.276
30
0
0
VERTEX
8
CUT
10
254.868
20
285.925
30
0
0
VERTEX
8
CUT
10
256.503
20
284.427
30
0
0
VERTEX
8
CUT
10
258.002
20
282.792
30
0
0
VERTEX
8
CUT
10
259.352
20
281.032
30
0
0
VERTEX
8
CUT
10
260.544
20
279.161
30
0
0
VERTEX
8
CUT
10
261.568
20
277.194
30
0
0
VERTEX
8
CUT
10
262.417
20
275.145
30
0
0
VERTEX
8
CUT
10
263.084
20
273.029
30
0
0
VERTEX
8
CUT
10
263.564
20
270.864
30
0
0
VERTEX
8
CUT
10
263.853
20
268.665
30
0
0
VERTEX
8
CUT
10
263.950
20
266.449
30
0
0
VERTEX
8
CUT
10
263.853
20
264.233
30
0
0
VERTEX
8
CUT
10
263.564
20
262.034
30
0
0
VERTEX
8
CUT
10
263.084
20
259.868
30
0
0
VERTEX
8
CUT
10
262.417
20
257.753
30
0
0
VERTEX
8
CUT
10
261.568
20
255.704
30
0
0
VERTEX
8
CUT
10
260.544
20
253.736
30
0
0
VERTEX
8
CUT
10
259.352
20
251.866
30
0
0
VERTEX
8
CUT
10
258.002
20
250.106
30
0
0
VERTEX
8
CUT
10
256.503
20
248.471
30
0
0
VERTEX
8
CUT
10
254.868
20
246.972
30
0
0
VERTEX
8
CUT
10
253.108
20
245.622
30
0
0
VERTEX
8
CUT
10
251.238
20
244.430
30
0
0
VERTEX
8
CUT
10
249.270
20
243.406
30
0
0
VERTEX
8
CUT
10
247.221
20
242.557
30
0
0
VERTEX
8
CUT
10
245.106
20
241.890
30
0
0
VERTEX
8
CUT
10
242.940
20
241.410
30
0
0
VERTEX
8
CUT
10
240.741
20
241.121
30
0
0
SEQEND
8
CUT
0
POLYLINE
8
CUT
66
1
70
1
10
0
20
0
30
0
0
VERTEX
8
CUT
10
266.981
20
263.874
30
0
0
VERTEX
8
CUT
10
266.675
20
261.540
30
0
0
VERTEX
8
CUT
10
266.158
20
259.172
30
0
0
VERTEX
8
CUT
10
265.442
20
256.857
30
0
0
VERTEX
8
CUT
10
264.533
20
254.611
30
0
0
VERTEX
8
CUT
10
263.436
20
252.450
30
0
0
VERTEX
8
CUT
10
262.161
20
250.390
30
0
0
VERTEX
8
CUT
10
260.715
20
248.445
30
0
0
VERTEX
8
CUT
10
259.110
20
246.630
30
0
0
VERTEX
8
CUT
10
257.357
20
244.957
30
0
0
VERTEX
8
CUT
10
255.468
20
243.439
30
0
0
VERTEX
8
CUT
10
253.458
20
242.086
30
0
0
VERTEX
8
CUT
10
251.340
20
240.908
30
0
0
VERTEX
8
CUT
10
249.130
20
239.914
30
0
0
VERTEX
8
CUT
10
246.844
20
239.111
30
0
0
VERTEX
8
CUT
10
244.498
20
238.505
30
0
0
VERTEX
8
CUT
10
242.109
20
238.099
30
0
0
VERTEX
8
CUT
10
239.694
20
237.898
30
0
0
VERTEX
8
CUT
10
237.271
20
237.901
30
0
0
VERTEX
8
CUT
10
234.856
20
238.110
30
0
0
VERTEX
8
CUT
10
232.469
20
238.523
30
0
0
VERTEX
8
CUT
10
230.124
20
239.137
30
0
0
VERTEX
8
CUT
10
227.841
20
239.946
30
0
0
VERTEX
8
CUT
10
225.634
20
240.947
30
0
0
VERTEX
8
CUT
10
223.519
20
242.131
30
0
0
VERTEX
8
CUT
10
221.513
20
243.490
30
0
0
VERTEX
8
CUT
10
219.629
20
245.014
30
0
0
VERTEX
8
CUT
10
217.881
20
246.692
30
0
0
VERTEX
8
CUT
10
216.281
20
248.512
30
0
0
VERTEX
8
CUT
10
214.841
20
250.461
30
0
0
VERTEX
8
CUT
10
213.572
20
252.525
30
0
0
VERTEX
8
CUT
10
212.482
20
254.689
30
0
0
VERTEX
8
CUT
10
211.579
20
256.938
30
0
0
VERTEX
8
CUT
10
210.870
20
259.255
30
0
0
VERTEX
8
CUT
10
210.360
20
261.624
30
0
0
VERTEX
8
CUT
10
210.053
20
264.028
30
0
0
VERTEX
8
CUT
10
209.950
20
266.449
30
0
0
VERTEX
8
CUT
10
210.053
20
268.870
30
0
0
VERTEX
8
CUT
10
210.360
20
271.273
30
0
0
VERTEX
8
CUT
10
210.870
20
273.642
30
0
0
VERTEX
8
CUT
10
211.579
20
275.960
30
0
0
VERTEX
8
CUT
10
212.482
20
278.208
30
0
0
VERTEX
8
CUT
10
213.572
20
280.373
30
0
0
VERTEX
8
CUT
10
214.841
20
282.437
30
0
0
VERTEX
8
CUT
10
216.281
20
284.386
30
0
0
VERTEX
8
CUT
10
217.881
20
286.206
30
0
0
VERTEX
8
CUT
10
219.629
20
287.884
30
0
0
VERTEX
8
CUT
10
221.513
20
289.408
30
0
0
VERTEX
8
CUT
10
223.519
20
290.767
30
0
0
VERTEX
8
CUT
10
225.634
20
291.951
30
0
0
VERTEX
8
CUT
10
227.841
20
292.951
30
0
0
VERTEX
8
CUT
10
230.124
20
293.761
30
0
0
VERTEX
8
CUT
10
232.469
20
294.375
30
0
0
VERTEX
8
CUT
10
234.856
20
294.787
30
0
0
VERTEX
8
CUT
10
237.271
20
294.996
30
0
0
VERTEX
8
CUT
10
239.694
20
295.000
30
0
0
VERTEX
8
CUT
10
242.109
20
294.798
30
0
0
VERTEX
8
CUT
10
244.498
20
294.393
30
0
0
VERTEX
8
CUT
10
246.844
20
293.786
30
0
0
VERTEX
8
CUT
10
249.130
20
292.983
30
0
0
VERTEX
8
CUT
10
251.340
20
291.989
30
0
0
VERTEX
8
CUT
10
253.458
20
290.812
30
0
0
VERTEX
8
CUT
10
255.468
20
289.459
30
0
0
VERTEX
8
CUT
10
257.357
20
287.941
30
0
0
VERTEX
8
CUT
10
259.110
20
286.268
30
0
0
VERTEX
8
CUT
10
260.715
20
284.453
30
0
0
VERTEX
8
CUT
10
262.161
20
282.508
30
0
0
VERTEX
8
CUT
10
263.436
20
280.448
30
0
0
VERTEX
8
CUT
10
264.533
20
278.287
30
0
0
VERTEX
8
CUT
10
265.442
20
276.041
30
0
0
VERTEX
8
CUT
10
266.158
20
273.725
30
0
0
VERTEX
8
CUT
10
266.675
20
271.358
30
0
0
VERTEX
8
CUT
10
266.981
20
269.024
30
0
0
VERTEX
8
CUT
10
270.600
20
269.024
30
0
0
VERTEX
8
CUT
10
270.600
20
263.874
30
0
0
SEQEND
8
CUT
0
POLYLINE
8
CUT
66
1
70
1
10
0
20
0
30
0
0
VERTEX
8
CUT
10
294.100
20
165.125
30
0
0
VERTEX
8
CUT
10
294.197
20
167.341
30
0
0
VERTEX
8
CUT
10
294.486
20
169.540
30
0
0
VERTEX
8
CUT
10
294.966
20
171.705
30
0
0
VERTEX
8
CUT
10
295.633
20
173.821
30
0
0
VERTEX
8
CUT
10
296.482
20
175.870
30
0
0
VERTEX
8
CUT
10
297.506
20
177.837
30
0
0
VERTEX
8
CUT
10
298.698
20
179.708
30
0
0
VERTEX
8
CUT
10
300.048
20
181.468
30
0
0
VERTEX
8
CUT
10
301.547
20
183.103
30
0
0
VERTEX
8
CUT
10
303.182
20
184.602
30
0
0
VERTEX
8
CUT
10
304.942
20
185.952
30
0
0
VERTEX
8
CUT
10
306.813
20
187.144
30
0
0
VERTEX
8
CUT
10
308.780
20
188.168
30
0
0
VERTEX
8
CUT
10
310.829
20
189.017
30
0
0
VERTEX
8
CUT
10
312.945
20
189.684
30
0
0
VERTEX
8
CUT
10
315.110
20
190.164
30
0
0
VERTEX
8
CUT
10
317.309
20
190.453
30
0
0
VERTEX
8
CUT
10
319.525
20
190.550
30
0
0
VERTEX
8
CUT
10
321.741
20
190.453
30
0
0
VERTEX
8
CUT
10
323.940
20
190.164
30
0
0
VERTEX
8
CUT
10
326.106
20
189.684
30
0
0
VERTEX
8
CUT
10
328.221
20
189.017
30
0
0
VERTEX
8
CUT
10
330.270
20
188.168
30
0
0
VERTEX
8
CUT
10
332.238
20
187.144
30
0
0
VERTEX
8
CUT
10
334.108
20
185.952
30
0
0
VERTEX
8
CUT
10
335.868
20
184.602
30
0
0
VERTEX
8
CUT
10
337.503
20
183.103
30
0
0
VERTEX
8
CUT
10
339.002
20
181.468
30
0
0
VERTEX
8
CUT
10
340.352
20
179.708
30
0
0
VERTEX
8
CUT
10
341.544
20
177.837
30
0
0
VERTEX
8
CUT
10
342.568
20
175.870
30
0
0
VERTEX
8
CUT
10
343.417
20
173.821
30
0
0
VERTEX
8
CUT
10
344.084
20
171.705
30
0
0
VERTEX
8
CUT
10
344.564
20
169.540
30
0
0
VERTEX
8
CUT
10
344.853
20
167.341
30
0
0
VERTEX
8
CUT
10
344.950
20
165.125
30
0
0
VERTEX
8
CUT
10
344.853
20
162.909
30
0
0
VERTEX
8
CUT
10
344.564
20
160.710
30
0
0
VERTEX
8
CUT
10
344.084
20
158.544
30
0
0
VERTEX
8
CUT
10
343.417
20
156.429
30
0
0
VERTEX
8
CUT
10
342.568
20
154.380
30
0
0
VERTEX
8
CUT
10
341.544
20
152.412
30
0
0
VERTEX
8
CUT
10
340.352
20
150.542
30
0
0
VERTEX
8
CUT
10
339.002
20
148.782
30
0
0
VERTEX
8
CUT
10
337.503
20
147.147
30
0
0
VERTEX
8
CUT
10
335.868
20
145.648
30
0
0
VERTEX
8
CUT
10
334.108
20
144.298
30
0
0
VERTEX
8
CUT
10
332.238
20
143.106
30
0
0
VERTEX
8
CUT
10
330.270
20
142.082
30
0
0
VERTEX
8
CUT
10
328.221
20
141.233
30
0
0
VERTEX
8
CUT
10
326.106
20
140.566
30
0
0
VERTEX
8
CUT
10
323.940
20
140.086
30
0
0
VERTEX
8
CUT
10
321.741
20
139.797
30
0
0
VERTEX
8
CUT
10
319.525
20
139.700
30
0
0
VERTEX
8
CUT
10
317.309
20
139.797
30
0
0
VERTEX
8
CUT
10
315.110
20
140.086
30
0
0
VERTEX
8
CUT
10
312.945
20
140.566
30
0
0
VERTEX
8
CUT
10
310.829
20
141.233
30
0
0
VERTEX
8
CUT
10
308.780
20
142.082
30
0
0
VERTEX
8
CUT
10
306.813
20
143.106
30
0
0
VERTEX
8
CUT
10
304.942
20
144.298
30
0
0
VERTEX
8
CUT
10
303.182
20
145.648
30
0
0
VERTEX
8
CUT
10
301.547
20
147.147
30
0
0
VERTEX
8
CUT
10
300.048
20
148.782
30
0
0
VERTEX
8
CUT
10
298.698
20
150.542
30
0
0
VERTEX
8
CUT
10
297.506
20
152.412
30
0
0
VERTEX
8
CUT
10
296.482
20
154.380
30
0
0
VERTEX
8
CUT
10
295.633
20
156.429
30
0
0
VERTEX
8
CUT
10
294.966
20
158.544
30
0
0
VERTEX
8
CUT
10
294.486
20
160.710
30
0
0
VERTEX
8
CUT
10
294.197
20
162.909
30
0
0
SEQEND
8
CUT
0
POLYLINE
8
CUT
66
1
70
1
10
0
20
0
30
0
0
VERTEX
8
CUT
10
290.950
20
165.125
30
0
0
VERTEX
8
CUT
10
291.059
20
167.615
30
0
0
VERTEX
8
CUT
10
291.384
20
170.087
30
0
0
VERTEX
8
CUT
10
291.924
20
172.521
30
0
0
VERTEX
8
CUT
10
292.673
20
174.898
30
0
0
VERTEX
8
CUT
10
293.627
20
177.201
30
0
0
VERTEX
8
CUT
10
294.778
20
179.412
30
0
0
VERTEX
8
CUT
10
296.118
20
181.515
30
0
0
VERTEX
8
CUT
10
297.635
20
183.493
30
0
0
VERTEX
8
CUT
10
299.319
20
185.331
30
0
0
VERTEX
8
CUT
10
301.157
20
187.015
30
0
0
VERTEX
8
CUT
10
303.135
20
188.532
30
0
0
VERTEX
8
CUT
10
305.238
20
189.872
30
0
0
VERTEX
8
CUT
10
307.449
20
191.023
30
0
0
VERTEX
8
CUT
10
309.752
20
191.977
30
0
0
VERTEX
8
CUT
10
312.129
20
192.726
30
0
0
VERTEX
8
CUT
10
314.563
20
193.266
30
0
0
VERTEX
8
CUT
10
317.035
20
193.591
30
0
0
VERTEX
8
CUT
10
319.525
20
193.700
30
0
0
VERTEX
8
CUT
10
322.016
20
193.591
30
0
0
VERTEX
8
CUT
10
324.487
20
193.266
30
0
0
VERTEX
8
CUT
10
326.921
20
192.726
30
0
0
VERTEX
8
CUT
10
329.298
20
191.977
30
0
0
VERTEX
8
CUT
10
331.601
20
191.023
30
0
0
VERTEX
8
CUT
10
333.813
20
189.872
30
0
0
VERTEX
8
CUT
10
335.915
20
188.532
30
0
0
VERTEX
8
CUT
10
337.893
20
187.015
30
0
0
VERTEX
8
CUT
10
339.731
20
185.331
30
0
0
VERTEX
8
CUT
10
341.415
20
183.493
30
0
0
VERTEX
8
CUT
10
342.932
20
181.515
30
0
0
VERTEX
8
CUT
10
344.272
20
179.412
30
0
0
VERTEX
8
CUT
10
345.423
20
177.201
30
0
0
VERTEX
8
CUT
10
346.377
20
174.898
30
0
0
VERTEX
8
CUT
10
347.126
20
172.521
30
0
0
VERTEX
8
CUT
10
347.666
20
170.087
30
0
0
VERTEX
8
CUT
10
347.991
20
167.615
30
0
0
VERTEX
8
CUT
10
348.100
20
165.125
30
0
0
VERTEX
8
CUT
10
347.991
20
162.634
30
0
0
VERTEX
8
CUT
10
347.666
20
160.163
30
0
0
VERTEX
8
CUT
10
347.126
20
157.729
30
0
0
VERTEX
8
CUT
10
346.377
20
155.352
30
0
0
VERTEX
8
CUT
10
345.423
20
153.049
30
0
0
VERTEX
8
CUT
10
344.272
20
150.837
30
0
0
VERTEX
8
CUT
10
342.932
20
148.735
30
0
0
VERTEX
8
CUT
10
341.415
20
146.757
30
0
0
VERTEX
8
CUT
10
339.731
20
144.919
30
0
0
VERTEX
8
CUT
10
337.893
20
143.235
30
0
0
VERTEX
8
CUT
10
335.915
20
141.718
30
0
0
VERTEX
8
CUT
10
333.813
20
140.378
30
0
0
VERTEX
8
CUT
10
331.601
20
139.227
30
0
0
VERTEX
8
CUT
10
329.298
20
138.273
30
0
0
VERTEX
8
CUT
10
326.921
20
137.524
30
0
0
VERTEX
8
CUT
10
324.487
20
136.984
30
0
0
VERTEX
8
CUT
10
322.016
20
136.659
30
0
0
VERTEX
8
CUT
10
319.525
20
136.550
30
0
0
VERTEX
8
CUT
10
317.035
20
136.659
30
0
0
VERTEX
8
CUT
10
314.563
20
136.984
30
0
0
VERTEX
8
CUT
10
312.129
20
137.524
30
0
0
VERTEX
8
CUT
10
309.752
20
138.273
30
0
0
VERTEX
8
CUT
10
307.449
20
139.227
30
0
0
VERTEX
8
CUT
10
305.238
20
140.378
30
0
0
VERTEX
8
CUT
10
303.135
20
141.718
30
0
0
VERTEX
8
CUT
10
301.157
20
143.235
30
0
0
VERTEX
8
CUT
10
299.319
20
144.919
30
0
0
VERTEX
8
CUT
10
297.635
20
146.757
30
0
0
VERTEX
8
CUT
10
296.118
20
148.735
30
0
0
VERTEX
8
CUT
10
294.778
20
150.837
30
0
0
VERTEX
8
CUT
10
293.627
20
153.049
30
0
0
VERTEX
8
CUT
10
292.673
20
155.352
30
0
0
VERTEX
8
CUT
10
291.924
20
157.729
30
0
0
VERTEX
8
CUT
10
291.384
20
160.163
30
0
0
VERTEX
8
CUT
10
291.059
20
162.634
30
0
0
SEQEND
8
CUT
0
POLYLINE
8
CUT
66
1
70
1
10
0
20
0
30
0
0
VERTEX
8
CUT
10
230.626
20
132.125
30
0
0
VERTEX
8
CUT
10
230.722
20
134.341
30
0
0
VERTEX
8
CUT
10
231.012
20
136.540
30
0
0
VERTEX
8
CUT
10
231.492
20
138.705
30
0
0
VERTEX
8
CUT
10
232.159
20
140.821
30
0
0
VERTEX
8
CUT
10
233.008
20
142.870
30
0
0
VERTEX
8
CUT
10
234.032
20
144.837
30
0
0
VERTEX
8
CUT
10
235.224
20
146.708
30
0
0
VERTEX
8
CUT
10
236.574
20
148.468
30
0
0
VERTEX
8
CUT
10
238.072
20
150.103
30
0
0
VERTEX
8
CUT
10
239.708
20
151.602
30
0
0
VERTEX
8
CUT
10
241.467
20
152.952
30
0
0
VERTEX
8
CUT
10
243.338
20
154.144
30
0
0
VERTEX
8
CUT
10
245.305
20
155.168
30
0
0
VERTEX
8
CUT
10
247.355
20
156.017
30
0
0
VERTEX
8
CUT
10
249.470
20
156.684
30
0
0
VERTEX
8
CUT
10
251.636
20
157.164
30
0
0
VERTEX
8
CUT
10
253.835
20
157.453
30
0
0
VERTEX
8
CUT
10
256.050
20
157.550
30
0
0
VERTEX
8
CUT
10
258.266
20
157.453
30
0
0
VERTEX
8
CUT
10
260.465
20
157.164
30
0
0
VERTEX
8
CUT
10
262.631
20
156.684
30
0
0
VERTEX
8
CUT
10
264.746
20
156.017
30
0
0
VERTEX
8
CUT
10
266.796
20
155.168
30
0
0
VERTEX
8
CUT
10
268.763
20
154.144
30
0
0
VERTEX
8
CUT
10
270.634
20
152.952
30
0
0
VERTEX
8
CUT
10
272.393
20
151.602
30
0
0
VERTEX
8
CUT
10
274.029
20
150.103
30
0
0
VERTEX
8
CUT
10
275.527
20
148.468
30
0
0
VERTEX
8
CUT
10
276.877
20
146.708
30
0
0
VERTEX
8
CUT
10
278.069
20
144.837
30
0
0
VERTEX
8
CUT
10
279.093
20
142.870
30
0
0
VERTEX
8
CUT
10
279.942
20
140.821
30
0
0
VERTEX
8
CUT
10
280.609
20
138.705
30
0
0
VERTEX
8
CUT
10
281.089
20
136.540
30
0
0
VERTEX
8
CUT
10
281.379
20
134.341
30
0
0
VERTEX
8
CUT
10
281.475
20
132.125
30
0
0
VERTEX
8
CUT
10
281.379
20
129.909
30
0
0
VERTEX
8
CUT
10
281.089
20
127.710
30
0
0
VERTEX
8
CUT
10
280.609
20
125.544
30
0
0
VERTEX
8
CUT
10
279.942
20
123.429
30
0
0
VERTEX
8
CUT
10
279.093
20
121.380
30
0
0
VERTEX
8
CUT
10
278.069
20
119.412
30
0
0
VERTEX
8
CUT
10
276.877
20
117.542
30
0
0
VERTEX
8
CUT
10
275.527
20
115.782
30
0
0
VERTEX
8
CUT
10
274.029
20
114.147
30
0
0
VERTEX
8
CUT
10
272.393
20
112.648
30
0
0
VERTEX
8
CUT
10
270.634
20
111.298
30
0
0
VERTEX
8
CUT
10
268.763
20
110.106
30
0
0
VERTEX
8
CUT
10
266.796
20
109.082
30
0
0
VERTEX
8
CUT
10
264.746
20
108.233
30
0
0
VERTEX
8
CUT
10
262.631
20
107.566
30
0
0
VERTEX
8
CUT
10
260.465
20
107.086
30
0
0
VERTEX
8
CUT
10
258.266
20
106.797
30
0
0
VERTEX
8
CUT
10
256.050
20
106.700
30
0
0
VERTEX
8
CUT
10
253.835
20
106.797
30
0
0
VERTEX
8
CUT
10
251.636
20
107.086
30
0
0
VERTEX
8
CUT
10
249.470
20
107.566
30
0
0
VERTEX
8
CUT
10
247.355
20
108.233
30
0
0
VERTEX
8
CUT
10
245.305
20
109.082
30
0
0
VERTEX
8
CUT
10
243.338
20
110.106
30
0
0
VERTEX
8
CUT
10
241.467
20
111.298
30
0
0
VERTEX
8
CUT
10
239.708
20
112.648
30
0
0
VERTEX
8
CUT
10
238.072
20
114.147
30
0
0
VERTEX
8
CUT
10
236.574
20
115.782
30
0
0
VERTEX
8
CUT
10
235.224
20
117.542
30
0
0
VERTEX
8
CUT
10
234.032
20
119.412
30
0
0
VERTEX
8
CUT
10
233.008
20
121.380
30
0
0
VERTEX
8
CUT
10
232.159
20
123.429
30
0
0
VERTEX
8
CUT
10
231.492
20
125.544
30
0
0
VERTEX
8
CUT
10
231.012
20
127.710
30
0
0
VERTEX
8
CUT
10
230.722
20
129.909
30
0
0
SEQEND
8
CUT
0
POLYLINE
8
CUT
66
1
70
1
10
0
20
0
30
0
0
VERTEX
8
CUT
10
227.475
20
132.125
30
0
0
VERTEX
8
CUT
10
227.584
20
134.615
30
0
0
VERTEX
8
CUT
10
227.910
20
137.087
30
0
0
VERTEX
8
CUT
10
228.449
20
139.521
30
0
0
VERTEX
8
CUT
10
229.199
20
141.898
30
0
0
VERTEX
8
CUT
10
230.153
20
144.201
30
0
0
VERTEX
8
CUT
10
231.304
20
146.412
30
0
0
VERTEX
8
CUT
10
232.643
20
148.515
30
0
0
VERTEX
8
CUT
10
234.161
20
150.493
30
0
0
VERTEX
8
CUT
10
235.845
20
152.331
30
0
0
VERTEX
8
CUT
10
237.683
20
154.015
30
0
0
VERTEX
8
CUT
10
239.661
20
155.532
30
0
0
VERTEX
8
CUT
10
241.763
20
156.872
30
0
0
VERTEX
8
CUT
10
243.974
20
158.023
30
0
0
VERTEX
8
CUT
10
246.277
20
158.977
30
0
0
VERTEX
8
CUT
10
248.655
20
159.726
30
0
0
VERTEX
8
CUT
10
251.088
20
160.266
30
0
0
VERTEX
8
CUT
10
253.560
20
160.591
30
0
0
VERTEX
8
CUT
10
256.050
20
160.700
30
0
0
VERTEX
8
CUT
10
258.541
20
160.591
30
0
0
VERTEX
8
CUT
10
261.013
20
160.266
30
0
0
VERTEX
8
CUT
10
263.446
20
159.726
30
0
0
VERTEX
8
CUT
10
265.824
20
158.977
30
0
0
VERTEX
8
CUT
10
268.127
20
158.023
30
0
0
VERTEX
8
CUT
10
270.338
20
156.872
30
0
0
VERTEX
8
CUT
10
272.440
20
155.532
30
0
0
VERTEX
8
CUT
10
274.418
20
154.015
30
0
0
VERTEX
8
CUT
10
276.256
20
152.331
30
0
0
VERTEX
8
CUT
10
277.940
20
150.493
30
0
0
VERTEX
8
CUT
10
279.458
20
148.515
30
0
0
VERTEX
8
CUT
10
280.797
20
146.412
30
0
0
VERTEX
8
CUT
10
281.948
20
144.201
30
0
0
VERTEX
8
CUT
10
282.902
20
141.898
30
0
0
VERTEX
8
CUT
10
283.652
20
139.521
30
0
0
VERTEX
8
CUT
10
284.191
20
137.087
30
0
0
VERTEX
8
CUT
10
284.517
20
134.615
30
0
0
VERTEX
8
CUT
10
284.626
20
132.125
30
0
0
VERTEX
8
CUT
10
284.517
20
129.634
30
0
0
VERTEX
8
CUT
10
284.191
20
127.163
30
0
0
VERTEX
8
CUT
10
283.652
20
124.729
30
0
0
VERTEX
8
CUT
10
282.902
20
122.352
30
0
0
VERTEX
8
CUT
10
281.948
20
120.049
30
0
0
VERTEX
8
CUT
10
280.797
20
117.837
30
0
0
VERTEX
8
CUT
10
279.458
20
115.735
30
0
0
VERTEX
8
CUT
10
277.940
20
113.757
30
0
0
VERTEX
8
CUT
10
276.256
20
111.919
30
0
0
VERTEX
8
CUT
10
274.418
20
110.235
30
0
0
VERTEX
8
CUT
10
272.440
20
108.718
30
0
0
VERTEX
8
CUT
10
270.338
20
107.378
30
0
0
VERTEX
8
CUT
10
268.127
20
106.227
30
0
0
VERTEX
8
CUT
10
265.824
20
105.273
30
0
0
VERTEX
8
CUT
10
263.446
20
104.524
30
0
0
VERTEX
8
CUT
10
261.013
20
103.984
30
0
0
VERTEX
8
CUT
10
258.541
20
103.659
30
0
0
VERTEX
8
CUT
10
256.050
20
103.550
30
0
0
VERTEX
8
CUT
10
253.560
20
103.659
30
0
0
VERTEX
8
CUT
10
251.088
20
103.984
30
0
0
VERTEX
8
CUT
10
248.655
20
104.524
30
0
0
VERTEX
8
CUT
10
246.277
20
105.273
30
0
0
VERTEX
8
CUT
10
243.974
20
106.227
30
0
0
VERTEX
8
CUT
10
241.763
20
107.378
30
0
0
VERTEX
8
CUT
10
239.661
20
108.718
30
0
0
VERTEX
8
CUT
10
237.683
20
110.235
30
0
0
VERTEX
8
CUT
10
235.845
20
111.919
30
0
0
VERTEX
8
CUT
10
234.161
20
113.757
30
0
0
VERTEX
8
CUT
10
232.643
20
115.735
30
0
0
VERTEX
8
CUT
10
231.304
20
117.837
30
0
0
VERTEX
8
CUT
10
230.153
20
120.049
30
0
0
VERTEX
8
CUT
10
229.199
20
122.352
30
0
0
VERTEX
8
CUT
10
228.449
20
124.729
30
0
0
VERTEX
8
CUT
10
227.910
20
127.163
30
0
0
VERTEX
8
CUT
10
227.584
20
129.634
30
0
0
SEQEND
8
CUT
0
POLYLINE
8
CUT
66
1
70
1
10
0
20
0
30
0
0
VERTEX
8
CUT
10
384.375
20
129.201
30
0
0
VERTEX
8
CUT
10
383.204
20
129.408
30
0
0
VERTEX
8
CUT
10
382.174
20
130.002
30
0
0
VERTEX
8
CUT
10
381.410
20
130.913
30
0
0
VERTEX
8
CUT
10
381.003
20
132.030
30
0
0
VERTEX
8
CUT
10
381.003
20
133.220
30
0
0
VERTEX
8
CUT
10
381.410
20
134.337
30
0
0
VERTEX
8
CUT
10
382.174
20
135.248
30
0
0
VERTEX
8
CUT
10
383.204
20
135.842
30
0
0
VERTEX
8
CUT
10
384.375
20
136.049
30
0
0
VERTEX
8
CUT
10
385.546
20
135.842
30
0
0
VERTEX
8
CUT
10
386.576
20
135.248
30
0
0
VERTEX
8
CUT
10
387.340
20
134.337
30
0
0
VERTEX
8
CUT
10
387.747
20
133.220
30
0
0
VERTEX
8
CUT
10
387.747
20
132.030
30
0
0
VERTEX
8
CUT
10
387.340
20
130.913
30
0
0
VERTEX
8
CUT
10
386.576
20
130.002
30
0
0
VERTEX
8
CUT
10
385.546
20
129.408
30
0
0
SEQEND
8
CUT
0
POLYLINE
8
CUT
66
1
70
1
10
0
20
0
30
0
0
VERTEX
8
CUT
10
392.150
20
192.630
30
0
0
VERTEX
8
CUT
10
392.150
20
117.220
30
0
0
VERTEX
8
CUT
10
392.114
20
116.947
30
0
0
VERTEX
8
CUT
10
392.007
20
116.687
30
0
0
VERTEX
8
CUT
10
391.836
20
116.464
30
0
0
VERTEX
8
CUT
10
391.613
20
116.293
30
0
0
VERTEX
8
CUT
10
391.354
20
116.186
30
0
0
VERTEX
8
CUT
10
391.080
20
116.150
30
0
0
VERTEX
8
CUT
10
351.670
20
116.150
30
0
0
VERTEX
8
CUT
10
351.397
20
116.186
30
0
0
VERTEX
8
CUT
10
351.137
20
116.293
30
0
0
VERTEX
8
CUT
10
350.915
20
116.464
30
0
0
VERTEX
8
CUT
10
350.744
20
116.687
30
0
0
VERTEX
8
CUT
10
350.636
20
116.947
30
0
0
VERTEX
8
CUT
10
350.600
20
117.220
30
0
0
VERTEX
8
CUT
10
350.600
20
192.630
30
0
0
VERTEX
8
CUT
10
350.636
20
192.903
30
0
0
VERTEX
8
CUT
10
350.744
20
193.163
30
0
0
VERTEX
8
CUT
10
350.915
20
193.386
30
0
0
VERTEX
8
CUT
10
351.137
20
193.557
30
0
0
VERTEX
8
CUT
10
351.397
20
193.664
30
0
0
VERTEX
8
CUT
10
351.670
20
193.700
30
0
0
VERTEX
8
CUT
10
391.080
20
193.700
30
0
0
VERTEX
8
CUT
10
391.354
20
193.664
30
0
0
VERTEX
8
CUT
10
391.613
20
193.557
30
0
0
VERTEX
8
CUT
10
391.836
20
193.386
30
0
0
VERTEX
8
CUT
10
392.007
20
193.163
30
0
0
VERTEX
8
CUT
10
392.114
20
192.903
30
0
0
SEQEND
8
CUT
0
POLYLINE
8
CUT
66
1
70
1
10
0
20
0
30
0
0
VERTEX
8
CUT
10
319.726
20
89.000
30
0
0
VERTEX
8
CUT
10
329.676
20
89.000
30
0
0
VERTEX
8
CUT
10
329.676
20
91.950
30
0
0
VERTEX
8
CUT
10
319.726
20
91.950
30
0
0
SEQEND
8
CUT
0
POLYLINE
8
CUT
66
1
70
1
10
0
20
0
30
0
0
VERTEX
8
CUT
10
298.726
20
89.000
30
0
0
VERTEX
8
CUT
10
308.676
20
89.000
30
0
0
VERTEX
8
CUT
10
308.676
20
91.950
30
0
0
VERTEX
8
CUT
10
298.726
20
91.950
30
0
0
SEQEND
8
CUT
0
POLYLINE
8
CUT
66
1
70
1
10
0
20
0
30
0
0
VERTEX
8
CUT
10
335.226
20
117.000
30
0
0
VERTEX
8
CUT
10
338.176
20
117.000
30
0
0
VERTEX
8
CUT
10
338.176
20
126.950
30
0
0
VERTEX
8
CUT
10
335.226
20
126.950
30
0
0
SEQEND
8
CUT
0
POLYLINE
8
CUT
66
1
70
1
10
0
20
0
30
0
0
VERTEX
8
CUT
10
335.226
20
93.000
30
0
0
VERTEX
8
CUT
10
338.176
20
93.000
30
0
0
VERTEX
8
CUT
10
338.176
20
102.950
30
0
0
VERTEX
8
CUT
10
335.226
20
102.950
30
0
0
SEQEND
8
CUT
0
POLYLINE
8
CUT
66
1
70
1
10
0
20
0
30
0
0
VERTEX
8
CUT
10
290.226
20
117.000
30
0
0
VERTEX
8
CUT
10
293.176
20
117.000
30
0
0
VERTEX
8
CUT
10
293.176
20
126.950
30
0
0
VERTEX
8
CUT
10
290.226
20
126.950
30
0
0
SEQEND
8
CUT
0
POLYLINE
8
CUT
66
1
70
1
10
0
20
0
30
0
0
VERTEX
8
CUT
10
290.226
20
93.000
30
0
0
VERTEX
8
CUT
10
293.176
20
93.000
30
0
0
VERTEX
8
CUT
10
293.176
20
102.950
30
0
0
VERTEX
8
CUT
10
290.226
20
102.950
30
0
0
SEQEND
8
CUT
0
POLYLINE
8
CUT
66
1
70
1
10
0
20
0
30
0
0
VERTEX
8
CUT
10
289.196
20
85.900
30
0
0
VERTEX
8
CUT
10
339.205
20
85.900
30
0
0
VERTEX
8
CUT
10
339.738
20
85.970
30
0
0
VERTEX
8
CUT
10
340.238
20
86.177
30
0
0
VERTEX
8
CUT
10
340.668
20
86.507
30
0
0
VERTEX
8
CUT
10
340.998
20
86.937
30
0
0
VERTEX
8
CUT
10
341.205
20
87.438
30
0
0
VERTEX
8
CUT
10
341.276
20
87.970
30
0
0
VERTEX
8
CUT
10
341.276
20
131.980
30
0
0
VERTEX
8
CUT
10
341.205
20
132.512
30
0
0
VERTEX
8
CUT
10
340.998
20
133.013
30
0
0
VERTEX
8
CUT
10
340.668
20
133.443
30
0
0
VERTEX
8
CUT
10
340.238
20
133.772
30
0
0
VERTEX
8
CUT
10
339.738
20
133.980
30
0
0
VERTEX
8
CUT
10
339.205
20
134.050
30
0
0
VERTEX
8
CUT
10
289.196
20
134.050
30
0
0
VERTEX
8
CUT
10
288.663
20
133.980
30
0
0
VERTEX
8
CUT
10
288.163
20
133.772
30
0
0
VERTEX
8
CUT
10
287.733
20
133.443
30
0
0
VERTEX
8
CUT
10
287.403
20
133.013
30
0
0
VERTEX
8
CUT
10
287.196
20
132.512
30
0
0
VERTEX
8
CUT
10
287.126
20
131.980
30
0
0
VERTEX
8
CUT
10
287.126
20
87.970
30
0
0
VERTEX
8
CUT
10
287.196
20
87.438
30
0
0
VERTEX
8
CUT
10
287.403
20
86.937
30
0
0
VERTEX
8
CUT
10
287.733
20
86.507
30
0
0
VERTEX
8
CUT
10
288.163
20
86.177
30
0
0
VERTEX
8
CUT
10
288.663
20
85.970
30
0
0
SEQEND
8
CUT
0
POLYLINE
8
CUT
66
1
70
1
10
0
20
0
30
0
0
VERTEX
8
CUT
10
236.125
20
88.969
30
0
0
VERTEX
8
CUT
10
236.221
20
89.569
30
0
0
VERTEX
8
CUT
10
236.494
20
90.106
30
0
0
VERTEX
8
CUT
10
236.919
20
90.531
30
0
0
VERTEX
8
CUT
10
237.456
20
90.805
30
0
0
VERTEX
8
CUT
10
238.056
20
90.900
30
0
0
VERTEX
8
CUT
10
243.045
20
90.900
30
0
0
VERTEX
8
CUT
10
243.645
20
90.805
30
0
0
VERTEX
8
CUT
10
244.181
20
90.531
30
0
0
VERTEX
8
CUT
10
244.607
20
90.106
30
0
0
VERTEX
8
CUT
10
244.880
20
89.569
30
0
0
VERTEX
8
CUT
10
244.975
20
88.969
30
0
0
VERTEX
8
CUT
10
244.975
20
72.981
30
0
0
VERTEX
8
CUT
10
244.880
20
72.380
30
0
0
VERTEX
8
CUT
10
244.607
20
71.844
30
0
0
VERTEX
8
CUT
10
244.181
20
71.418
30
0
0
VERTEX
8
CUT
10
243.645
20
71.145
30
0
0
VERTEX
8
CUT
10
243.045
20
71.050
30
0
0
VERTEX
8
CUT
10
238.056
20
71.050
30
0
0
VERTEX
8
CUT
10
237.456
20
71.145
30
0
0
VERTEX
8
CUT
10
236.919
20
71.418
30
0
0
VERTEX
8
CUT
10
236.494
20
71.844
30
0
0
VERTEX
8
CUT
10
236.221
20
72.380
30
0
0
VERTEX
8
CUT
10
236.125
20
72.981
30
0
0
SEQEND
8
CUT
0
POLYLINE
8
CUT
66
1
70
1
10
0
20
0
30
0
0
VERTEX
8
CUT
10
270.025
20
56.000
30
0
0
VERTEX
8
CUT
10
260.075
20
56.000
30
0
0
VERTEX
8
CUT
10
260.075
20
58.950
30
0
0
VERTEX
8
CUT
10
270.025
20
58.950
30
0
0
SEQEND
8
CUT
0
POLYLINE
8
CUT
66
1
70
1
10
0
20
0
30
0
0
VERTEX
8
CUT
10
249.025
20
56.000
30
0
0
VERTEX
8
CUT
10
239.075
20
56.000
30
0
0
VERTEX
8
CUT
10
239.075
20
58.950
30
0
0
VERTEX
8
CUT
10
249.025
20
58.950
30
0
0
SEQEND
8
CUT
0
POLYLINE
8
CUT
66
1
70
1
10
0
20
0
30
0
0
VERTEX
8
CUT
10
233.525
20
60.000
30
0
0
VERTEX
8
CUT
10
230.575
20
60.000
30
0
0
VERTEX
8
CUT
10
230.575
20
69.950
30
0
0
VERTEX
8
CUT
10
233.525
20
69.950
30
0
0
SEQEND
8
CUT
0
POLYLINE
8
CUT
66
1
70
1
10
0
20
0
30
0
0
VERTEX
8
CUT
10
233.525
20
84.000
30
0
0
VERTEX
8
CUT
10
230.575
20
84.000
30
0
0
VERTEX
8
CUT
10
230.575
20
93.950
30
0
0
VERTEX
8
CUT
10
233.525
20
93.950
30
0
0
SEQEND
8
CUT
0
POLYLINE
8
CUT
66
1
70
1
10
0
20
0
30
0
0
VERTEX
8
CUT
10
278.525
20
60.000
30
0
0
VERTEX
8
CUT
10
275.575
20
60.000
30
0
0
VERTEX
8
CUT
10
275.575
20
69.950
30
0
0
VERTEX
8
CUT
10
278.525
20
69.950
30
0
0
SEQEND
8
CUT
0
POLYLINE
8
CUT
66
1
70
1
10
0
20
0
30
0
0
VERTEX
8
CUT
10
278.525
20
84.000
30
0
0
VERTEX
8
CUT
10
275.575
20
84.000
30
0
0
VERTEX
8
CUT
10
275.575
20
93.950
30
0
0
VERTEX
8
CUT
10
278.525
20
93.950
30
0
0
SEQEND
8
CUT
0
POLYLINE
8
CUT
66
1
70
1
10
0
20
0
30
0
0
VERTEX
8
CUT
10
279.555
20
52.900
30
0
0
VERTEX
8
CUT
10
229.546
20
52.900
30
0
0
VERTEX
8
CUT
10
229.013
20
52.970
30
0
0
VERTEX
8
CUT
10
228.513
20
53.177
30
0
0
VERTEX
8
CUT
10
228.083
20
53.507
30
0
0
VERTEX
8
CUT
10
227.753
20
53.937
30
0
0
VERTEX
8
CUT
10
227.546
20
54.438
30
0
0
VERTEX
8
CUT
10
227.475
20
54.970
30
0
0
VERTEX
8
CUT
10
227.475
20
98.980
30
0
0
VERTEX
8
CUT
10
227.546
20
99.512
30
0
0
VERTEX
8
CUT
10
227.753
20
100.013
30
0
0
VERTEX
8
CUT
10
228.083
20
100.443
30
0
0
VERTEX
8
CUT
10
228.513
20
100.772
30
0
0
VERTEX
8
CUT
10
229.013
20
100.980
30
0
0
VERTEX
8
CUT
10
229.546
20
101.050
30
0
0
VERTEX
8
CUT
10
279.555
20
101.050
30
0
0
VERTEX
8
CUT
10
280.088
20
100.980
30
0
0
VERTEX
8
CUT
10
280.588
20
100.772
30
0
0
VERTEX
8
CUT
10
281.018
20
100.443
30
0
0
VERTEX
8
CUT
10
281.348
20
100.013
30
0
0
VERTEX
8
CUT
10
281.555
20
99.512
30
0
0
VERTEX
8
CUT
10
281.625
20
98.980
30
0
0
VERTEX
8
CUT
10
281.625
20
54.970
30
0
0
VERTEX
8
CUT
10
281.555
20
54.438
30
0
0
VERTEX
8
CUT
10
281.348
20
53.937
30
0
0
VERTEX
8
CUT
10
281.018
20
53.507
30
0
0
VERTEX
8
CUT
10
280.588
20
53.177
30
0
0
VERTEX
8
CUT
10
280.088
20
52.970
30
0
0
SEQEND
8
CUT
0
POLYLINE
8
CUT
66
1
70
1
10
0
20
0
30
0
0
VERTEX
8
CUT
10
347.926
20
88.575
30
0
0
VERTEX
8
CUT
10
348.005
20
90.399
30
0
0
VERTEX
8
CUT
10
348.244
20
92.209
30
0
0
VERTEX
8
CUT
10
348.639
20
93.991
30
0
0
VERTEX
8
CUT
10
349.188
20
95.732
30
0
0
VERTEX
8
CUT
10
349.886
20
97.418
30
0
0
VERTEX
8
CUT
10
350.729
20
99.037
30
0
0
VERTEX
8
CUT
10
351.710
20
100.577
30
0
0
VERTEX
8
CUT
10
352.821
20
102.025
30
0
0
VERTEX
8
CUT
10
354.054
20
103.371
30
0
0
VERTEX
8
CUT
10
355.400
20
104.604
30
0
0
VERTEX
8
CUT
10
356.849
20
105.716
30
0
0
VERTEX
8
CUT
10
358.388
20
106.696
30
0
0
VERTEX
8
CUT
10
360.007
20
107.539
30
0
0
VERTEX
8
CUT
10
361.694
20
108.238
30
0
0
VERTEX
8
CUT
10
363.435
20
108.787
30
0
0
VERTEX
8
CUT
10
365.217
20
109.182
30
0
0
VERTEX
8
CUT
10
367.027
20
109.420
30
0
0
VERTEX
8
CUT
10
368.851
20
109.500
30
0
0
VERTEX
8
CUT
10
370.674
20
109.420
30
0
0
VERTEX
8
CUT
10
372.484
20
109.182
30
0
0
VERTEX
8
CUT
10
374.266
20
108.787
30
0
0
VERTEX
8
CUT
10
376.007
20
108.238
30
0
0
VERTEX
8
CUT
10
377.694
20
107.539
30
0
0
VERTEX
8
CUT
10
379.313
20
106.696
30
0
0
VERTEX
8
CUT
10
380.853
20
105.716
30
0
0
VERTEX
8
CUT
10
382.301
20
104.604
30
0
0
VERTEX
8
CUT
10
383.647
20
103.371
30
0
0
VERTEX
8
CUT
10
384.880
20
102.025
30
0
0
VERTEX
8
CUT
10
385.991
20
100.577
30
0
0
VERTEX
8
CUT
10
386.972
20
99.037
30
0
0
VERTEX
8
CUT
10
387.815
20
97.418
30
0
0
VERTEX
8
CUT
10
388.514
20
95.732
30
0
0
VERTEX
8
CUT
10
389.063
20
93.991
30
0
0
VERTEX
8
CUT
10
389.458
20
92.209
30
0
0
VERTEX
8
CUT
10
389.696
20
90.399
30
0
0
VERTEX
8
CUT
10
389.776
20
88.575
30
0
0
VERTEX
8
CUT
10
389.696
20
86.751
30
0
0
VERTEX
8
CUT
10
389.458
20
84.941
30
0
0
VERTEX
8
CUT
10
389.063
20
83.159
30
0
0
VERTEX
8
CUT
10
388.514
20
81.418
30
0
0
VERTEX
8
CUT
10
387.815
20
79.732
30
0
0
VERTEX
8
CUT
10
386.972
20
78.112
30
0
0
VERTEX
8
CUT
10
385.991
20
76.573
30
0
0
VERTEX
8
CUT
10
384.880
20
75.125
30
0
0
VERTEX
8
CUT
10
383.647
20
73.779
30
0
0
VERTEX
8
CUT
10
382.301
20
72.546
30
0
0
VERTEX
8
CUT
10
380.853
20
71.434
30
0
0
VERTEX
8
CUT
10
379.313
20
70.453
30
0
0
VERTEX
8
CUT
10
377.694
20
69.611
30
0
0
VERTEX
8
CUT
10
376.007
20
68.912
30
0
0
VERTEX
8
CUT
10
374.266
20
68.363
30
0
0
VERTEX
8
CUT
10
372.484
20
67.968
30
0
0
VERTEX
8
CUT
10
370.674
20
67.730
30
0
0
VERTEX
8
CUT
10
368.851
20
67.650
30
0
0
VERTEX
8
CUT
10
367.027
20
67.730
30
0
0
VERTEX
8
CUT
10
365.217
20
67.968
30
0
0
VERTEX
8
CUT
10
363.435
20
68.363
30
0
0
VERTEX
8
CUT
10
361.694
20
68.912
30
0
0
VERTEX
8
CUT
10
360.007
20
69.611
30
0
0
VERTEX
8
CUT
10
358.388
20
70.453
30
0
0
VERTEX
8
CUT
10
356.849
20
71.434
30
0
0
VERTEX
8
CUT
10
355.400
20
72.546
30
0
0
VERTEX
8
CUT
10
354.054
20
73.779
30
0
0
VERTEX
8
CUT
10
352.821
20
75.125
30
0
0
VERTEX
8
CUT
10
351.710
20
76.573
30
0
0
VERTEX
8
CUT
10
350.729
20
78.112
30
0
0
VERTEX
8
CUT
10
349.886
20
79.732
30
0
0
VERTEX
8
CUT
10
349.188
20
81.418
30
0
0
VERTEX
8
CUT
10
348.639
20
83.159
30
0
0
VERTEX
8
CUT
10
348.244
20
84.941
30
0
0
VERTEX
8
CUT
10
348.005
20
86.751
30
0
0
SEQEND
8
CUT
0
POLYLINE
8
CUT
66
1
70
1
10
0
20
0
30
0
0
VERTEX
8
CUT
10
343.776
20
88.575
30
0
0
VERTEX
8
CUT
10
343.871
20
90.760
30
0
0
VERTEX
8
CUT
10
344.157
20
92.929
30
0
0
VERTEX
8
CUT
10
344.630
20
95.065
30
0
0
VERTEX
8
CUT
10
345.288
20
97.151
30
0
0
VERTEX
8
CUT
10
346.125
20
99.172
30
0
0
VERTEX
8
CUT
10
347.135
20
101.112
30
0
0
VERTEX
8
CUT
10
348.310
20
102.957
30
0
0
VERTEX
8
CUT
10
349.642
20
104.693
30
0
0
VERTEX
8
CUT
10
351.120
20
106.306
30
0
0
VERTEX
8
CUT
10
352.733
20
107.784
30
0
0
VERTEX
8
CUT
10
354.468
20
109.115
30
0
0
VERTEX
8
CUT
10
356.313
20
110.291
30
0
0
VERTEX
8
CUT
10
358.253
20
111.301
30
0
0
VERTEX
8
CUT
10
360.274
20
112.138
30
0
0
VERTEX
8
CUT
10
362.361
20
112.796
30
0
0
VERTEX
8
CUT
10
364.496
20
113.269
30
0
0
VERTEX
8
CUT
10
366.665
20
113.555
30
0
0
VERTEX
8
CUT
10
368.851
20
113.650
30
0
0
VERTEX
8
CUT
10
371.036
20
113.555
30
0
0
VERTEX
8
CUT
10
373.205
20
113.269
30
0
0
VERTEX
8
CUT
10
375.341
20
112.796
30
0
0
VERTEX
8
CUT
10
377.427
20
112.138
30
0
0
VERTEX
8
CUT
10
379.448
20
111.301
30
0
0
VERTEX
8
CUT
10
381.388
20
110.291
30
0
0
VERTEX
8
CUT
10
383.233
20
109.115
30
0
0
VERTEX
8
CUT
10
384.969
20
107.784
30
0
0
VERTEX
8
CUT
10
386.581
20
106.306
30
0
0
VERTEX
8
CUT
10
388.059
20
104.693
30
0
0
VERTEX
8
CUT
10
389.391
20
102.957
30
0
0
VERTEX
8
CUT
10
390.566
20
101.112
30
0
0
VERTEX
8
CUT
10
391.576
20
99.172
30
0
0
VERTEX
8
CUT
10
392.413
20
97.151
30
0
0
VERTEX
8
CUT
10
393.071
20
95.065
30
0
0
VERTEX
8
CUT
10
393.545
20
92.929
30
0
0
VERTEX
8
CUT
10
393.830
20
90.760
30
0
0
VERTEX
8
CUT
10
393.926
20
88.575
30
0
0
VERTEX
8
CUT
10
393.830
20
86.389
30
0
0
VERTEX
8
CUT
10
393.545
20
84.221
30
0
0
VERTEX
8
CUT
10
393.071
20
82.085
30
0
0
VERTEX
8
CUT
10
392.413
20
79.999
30
0
0
VERTEX
8
CUT
10
391.576
20
77.978
30
0
0
VERTEX
8
CUT
10
390.566
20
76.037
30
0
0
VERTEX
8
CUT
10
389.391
20
74.192
30
0
0
VERTEX
8
CUT
10
388.059
20
72.457
30
0
0
VERTEX
8
CUT
10
386.581
20
70.844
30
0
0
VERTEX
8
CUT
10
384.969
20
69.366
30
0
0
VERTEX
8
CUT
10
383.233
20
68.035
30
0
0
VERTEX
8
CUT
10
381.388
20
66.859
30
0
0
VERTEX
8
CUT
10
379.448
20
65.849
30
0
0
VERTEX
8
CUT
10
377.427
20
65.012
30
0
0
VERTEX
8
CUT
10
375.341
20
64.354
30
0
0
VERTEX
8
CUT
10
373.205
20
63.881
30
0
0
VERTEX
8
CUT
10
371.036
20
63.595
30
0
0
VERTEX
8
CUT
10
368.851
20
63.500
30
0
0
VERTEX
8
CUT
10
366.665
20
63.595
30
0
0
VERTEX
8
CUT
10
364.496
20
63.881
30
0
0
VERTEX
8
CUT
10
362.361
20
64.354
30
0
0
VERTEX
8
CUT
10
360.274
20
65.012
30
0
0
VERTEX
8
CUT
10
358.253
20
65.849
30
0
0
VERTEX
8
CUT
10
356.313
20
66.859
30
0
0
VERTEX
8
CUT
10
354.468
20
68.035
30
0
0
VERTEX
8
CUT
10
352.733
20
69.366
30
0
0
VERTEX
8
CUT
10
351.120
20
70.844
30
0
0
VERTEX
8
CUT
10
349.642
20
72.457
30
0
0
VERTEX
8
CUT
10
348.310
20
74.192
30
0
0
VERTEX
8
CUT
10
347.135
20
76.037
30
0
0
VERTEX
8
CUT
10
346.125
20
77.978
30
0
0
VERTEX
8
CUT
10
345.288
20
79.999
30
0
0
VERTEX
8
CUT
10
344.630
20
82.085
30
0
0
VERTEX
8
CUT
10
344.157
20
84.221
30
0
0
VERTEX
8
CUT
10
343.871
20
86.389
30
0
0
SEQEND
8
CUT
0
POLYLINE
8
CUT
66
1
70
1
10
0
20
0
30
0
0
VERTEX
8
CUT
10
288.276
20
35.925
30
0
0
VERTEX
8
CUT
10
288.355
20
37.749
30
0
0
VERTEX
8
CUT
10
288.593
20
39.558
30
0
0
VERTEX
8
CUT
10
288.989
20
41.341
30
0
0
VERTEX
8
CUT
10
289.537
20
43.082
30
0
0
VERTEX
8
CUT
10
290.236
20
44.768
30
0
0
VERTEX
8
CUT
10
291.079
20
46.387
30
0
0
VERTEX
8
CUT
10
292.060
20
47.927
30
0
0
VERTEX
8
CUT
10
293.171
20
49.375
30
0
0
VERTEX
8
CUT
10
294.404
20
50.721
30
0
0
VERTEX
8
CUT
10
295.750
20
51.954
30
0
0
VERTEX
8
CUT
10
297.198
20
53.065
30
0
0
VERTEX
8
CUT
10
298.738
20
54.046
30
0
0
VERTEX
8
CUT
10
300.357
20
54.889
30
0
0
VERTEX
8
CUT
10
302.044
20
55.588
30
0
0
VERTEX
8
CUT
10
303.785
20
56.137
30
0
0
VERTEX
8
CUT
10
305.567
20
56.532
30
0
0
VERTEX
8
CUT
10
307.377
20
56.770
30
0
0
VERTEX
8
CUT
10
309.200
20
56.850
30
0
0
VERTEX
8
CUT
10
311.024
20
56.770
30
0
0
VERTEX
8
CUT
10
312.834
20
56.532
30
0
0
VERTEX
8
CUT
10
314.616
20
56.137
30
0
0
VERTEX
8
CUT
10
316.357
20
55.588
30
0
0
VERTEX
8
CUT
10
318.044
20
54.889
30
0
0
VERTEX
8
CUT
10
319.663
20
54.046
30
0
0
VERTEX
8
CUT
10
321.203
20
53.065
30
0
0
VERTEX
8
CUT
10
322.651
20
51.954
30
0
0
VERTEX
8
CUT
10
323.997
20
50.721
30
0
0
VERTEX
8
CUT
10
325.230
20
49.375
30
0
0
VERTEX
8
CUT
10
326.341
20
47.927
30
0
0
VERTEX
8
CUT
10
327.322
20
46.387
30
0
0
VERTEX
8
CUT
10
328.165
20
44.768
30
0
0
VERTEX
8
CUT
10
328.863
20
43.082
30
0
0
VERTEX
8
CUT
10
329.412
20
41.341
30
0
0
VERTEX
8
CUT
10
329.808
20
39.558
30
0
0
VERTEX
8
CUT
10
330.046
20
37.749
30
0
0
VERTEX
8
CUT
10
330.125
20
35.925
30
0
0
VERTEX
8
CUT
10
330.046
20
34.101
30
0
0
VERTEX
8
CUT
10
329.808
20
32.291
30
0
0
VERTEX
8
CUT
10
329.412
20
30.509
30
0
0
VERTEX
8
CUT
10
328.863
20
28.768
30
0
0
VERTEX
8
CUT
10
328.165
20
27.082
30
0
0
VERTEX
8
CUT
10
327.322
20
25.462
30
0
0
VERTEX
8
CUT
10
326.341
20
23.923
30
0
0
VERTEX
8
CUT
10
325.230
20
22.475
30
0
0
VERTEX
8
CUT
10
323.997
20
21.129
30
0
0
VERTEX
8
CUT
10
322.651
20
19.895
30
0
0
VERTEX
8
CUT
10
321.203
20
18.784
30
0
0
VERTEX
8
CUT
10
319.663
20
17.803
30
0
0
VERTEX
8
CUT
10
318.044
20
16.960
30
0
0
VERTEX
8
CUT
10
316.357
20
16.262
30
0
0
VERTEX
8
CUT
10
314.616
20
15.713
30
0
0
VERTEX
8
CUT
10
312.834
20
15.318
30
0
0
VERTEX
8
CUT
10
311.024
20
15.079
30
0
0
VERTEX
8
CUT
10
309.200
20
15.000
30
0
0
VERTEX
8
CUT
10
307.377
20
15.079
30
0
0
VERTEX
8
CUT
10
305.567
20
15.318
30
0
0
VERTEX
8
CUT
10
303.785
20
15.713
30
0
0
VERTEX
8
CUT
10
302.044
20
16.262
30
0
0
VERTEX
8
CUT
10
300.357
20
16.960
30
0
0
VERTEX
8
CUT
10
298.738
20
17.803
30
0
0
VERTEX
8
CUT
10
297.198
20
18.784
30
0
0
VERTEX
8
CUT
10
295.750
20
19.895
30
0
0
VERTEX
8
CUT
10
294.404
20
21.129
30
0
0
VERTEX
8
CUT
10
293.171
20
22.475
30
0
0
VERTEX
8
CUT
10
292.060
20
23.923
30
0
0
VERTEX
8
CUT
10
291.079
20
25.462
30
0
0
VERTEX
8
CUT
10
290.236
20
27.082
30
0
0
VERTEX
8
CUT
10
289.537
20
28.768
30
0
0
VERTEX
8
CUT
10
288.989
20
30.509
30
0
0
VERTEX
8
CUT
10
288.593
20
32.291
30
0
0
VERTEX
8
CUT
10
288.355
20
34.101
30
0
0
SEQEND
8
CUT
0
POLYLINE
8
CUT
66
1
70
1
10
0
20
0
30
0
0
VERTEX
8
CUT
10
284.125
20
35.925
30
0
0
VERTEX
8
CUT
10
284.221
20
38.110
30
0
0
VERTEX
8
CUT
10
284.506
20
40.279
30
0
0
VERTEX
8
CUT
10
284.980
20
42.415
30
0
0
VERTEX
8
CUT
10
285.638
20
44.501
30
0
0
VERTEX
8
CUT
10
286.475
20
46.522
30
0
0
VERTEX
8
CUT
10
287.485
20
48.462
30
0
0
VERTEX
8
CUT
10
288.660
20
50.307
30
0
0
VERTEX
8
CUT
10
289.992
20
52.043
30
0
0
VERTEX
8
CUT
10
291.470
20
53.656
30
0
0
VERTEX
8
CUT
10
293.083
20
55.133
30
0
0
VERTEX
8
CUT
10
294.818
20
56.465
30
0
0
VERTEX
8
CUT
10
296.663
20
57.640
30
0
0
VERTEX
8
CUT
10
298.603
20
58.651
30
0
0
VERTEX
8
CUT
10
300.624
20
59.488
30
0
0
VERTEX
8
CUT
10
302.711
20
60.145
30
0
0
VERTEX
8
CUT
10
304.846
20
60.619
30
0
0
VERTEX
8
CUT
10
307.015
20
60.904
30
0
0
VERTEX
8
CUT
10
309.200
20
61.000
30
0
0
VERTEX
8
CUT
10
311.386
20
60.904
30
0
0
VERTEX
8
CUT
10
313.555
20
60.619
30
0
0
VERTEX
8
CUT
10
315.690
20
60.145
30
0
0
VERTEX
8
CUT
10
317.777
20
59.488
30
0
0
VERTEX
8
CUT
10
319.798
20
58.651
30
0
0
VERTEX
8
CUT
10
321.738
20
57.640
30
0
0
VERTEX
8
CUT
10
323.583
20
56.465
30
0
0
VERTEX
8
CUT
10
325.318
20
55.133
30
0
0
VERTEX
8
CUT
10
326.931
20
53.656
30
0
0
VERTEX
8
CUT
10
328.409
20
52.043
30
0
0
VERTEX
8
CUT
10
329.741
20
50.307
30
0
0
VERTEX
8
CUT
10
330.916
20
48.462
30
0
0
VERTEX
8
CUT
10
331.926
20
46.522
30
0
0
VERTEX
8
CUT
10
332.763
20
44.501
30
0
0
VERTEX
8
CUT
10
333.421
20
42.415
30
0
0
VERTEX
8
CUT
10
333.895
20
40.279
30
0
0
VERTEX
8
CUT
10
334.180
20
38.110
30
0
0
VERTEX
8
CUT
10
334.276
20
35.925
30
0
0
VERTEX
8
CUT
10
334.180
20
33.739
30
0
0
VERTEX
8
CUT
10
333.895
20
31.571
30
0
0
VERTEX
8
CUT
10
333.421
20
29.435
30
0
0
VERTEX
8
CUT
10
332.763
20
27.349
30
0
0
VERTEX
8
CUT
10
331.926
20
25.328
30
0
0
VERTEX
8
CUT
10
330.916
20
23.387
30
0
0
VERTEX
8
CUT
10
329.741
20
21.542
30
0
0
VERTEX
8
CUT
10
328.409
20
19.807
30
0
0
VERTEX
8
CUT
10
326.931
20
18.194
30
0
0
VERTEX
8
CUT
10
325.318
20
16.716
30
0
0
VERTEX
8
CUT
10
323.583
20
15.384
30
0
0
VERTEX
8
CUT
10
321.738
20
14.209
30
0
0
VERTEX
8
CUT
10
319.798
20
13.199
30
0
0
VERTEX
8
CUT
10
317.777
20
12.362
30
0
0
VERTEX
8
CUT
10
315.690
20
11.704
30
0
0
VERTEX
8
CUT
10
313.555
20
11.231
30
0
0
VERTEX
8
CUT
10
311.386
20
10.945
30
0
0
VERTEX
8
CUT
10
309.200
20
10.850
30
0
0
VERTEX
8
CUT
10
307.015
20
10.945
30
0
0
VERTEX
8
CUT
10
304.846
20
11.231
30
0
0
VERTEX
8
CUT
10
302.711
20
11.704
30
0
0
VERTEX
8
CUT
10
300.624
20
12.362
30
0
0
VERTEX
8
CUT
10
298.603
20
13.199
30
0
0
VERTEX
8
CUT
10
296.663
20
14.209
30
0
0
VERTEX
8
CUT
10
294.818
20
15.384
30
0
0
VERTEX
8
CUT
10
293.083
20
16.716
30
0
0
VERTEX
8
CUT
10
291.470
20
18.194
30
0
0
VERTEX
8
CUT
10
289.992
20
19.807
30
0
0
VERTEX
8
CUT
10
288.660
20
21.542
30
0
0
VERTEX
8
CUT
10
287.485
20
23.387
30
0
0
VERTEX
8
CUT
10
286.475
20
25.328
30
0
0
VERTEX
8
CUT
10
285.638
20
27.349
30
0
0
VERTEX
8
CUT
10
284.980
20
29.435
30
0
0
VERTEX
8
CUT
10
284.506
20
31.571
30
0
0
VERTEX
8
CUT
10
284.221
20
33.739
30
0
0
SEQEND
8
CUT
0
POLYLINE
8
CUT
66
1
70
1
10
0
20
0
30
0
0
VERTEX
8
CUT
10
194.825
20
27.249
30
0
0
VERTEX
8
CUT
10
194.741
20
28.545
30
0
0
VERTEX
8
CUT
10
194.487
20
29.818
30
0
0
VERTEX
8
CUT
10
194.070
20
31.047
30
0
0
VERTEX
8
CUT
10
193.496
20
32.212
30
0
0
VERTEX
8
CUT
10
192.774
20
33.291
30
0
0
VERTEX
8
CUT
10
191.919
20
34.267
30
0
0
VERTEX
8
CUT
10
190.942
20
35.123
30
0
0
VERTEX
8
CUT
10
189.863
20
35.845
30
0
0
VERTEX
8
CUT
10
188.699
20
36.419
30
0
0
VERTEX
8
CUT
10
187.469
20
36.836
30
0
0
VERTEX
8
CUT
10
186.196
20
37.089
30
0
0
VERTEX
8
CUT
10
184.901
20
37.174
30
0
0
VERTEX
8
CUT
10
183.605
20
37.089
30
0
0
VERTEX
8
CUT
10
182.332
20
36.836
30
0
0
VERTEX
8
CUT
10
181.103
20
36.419
30
0
0
VERTEX
8
CUT
10
179.938
20
35.845
30
0
0
VERTEX
8
CUT
10
178.859
20
35.123
30
0
0
VERTEX
8
CUT
10
177.883
20
34.267
30
0
0
VERTEX
8
CUT
10
177.027
20
33.291
30
0
0
VERTEX
8
CUT
10
176.305
20
32.212
30
0
0
VERTEX
8
CUT
10
175.731
20
31.047
30
0
0
VERTEX
8
CUT
10
175.314
20
29.818
30
0
0
VERTEX
8
CUT
10
175.061
20
28.545
30
0
0
VERTEX
8
CUT
10
174.976
20
27.249
30
0
0
VERTEX
8
CUT
10
175.061
20
25.954
30
0
0
VERTEX
8
CUT
10
175.314
20
24.681
30
0
0
VERTEX
8
CUT
10
175.731
20
23.451
30
0
0
VERTEX
8
CUT
10
176.305
20
22.287
30
0
0
VERTEX
8
CUT
10
177.027
20
21.208
30
0
0
VERTEX
8
CUT
10
177.883
20
20.231
30
0
0
VERTEX
8
CUT
10
178.859
20
19.376
30
0
0
VERTEX
8
CUT
10
179.938
20
18.654
30
0
0
VERTEX
8
CUT
10
181.103
20
18.080
30
0
0
VERTEX
8
CUT
10
182.332
20
17.663
30
0
0
VERTEX
8
CUT
10
183.605
20
17.409
30
0
0
VERTEX
8
CUT
10
184.901
20
17.325
30
0
0
VERTEX
8
CUT
10
186.196
20
17.409
30
0
0
VERTEX
8
CUT
10
187.469
20
17.663
30
0
0
VERTEX
8
CUT
10
188.699
20
18.080
30
0
0
VERTEX
8
CUT
10
189.863
20
18.654
30
0
0
VERTEX
8
CUT
10
190.942
20
19.376
30
0
0
VERTEX
8
CUT
10
191.919
20
20.231
30
0
0
VERTEX
8
CUT
10
192.774
20
21.208
30
0
0
VERTEX
8
CUT
10
193.496
20
22.287
30
0
0
VERTEX
8
CUT
10
194.070
20
23.451
30
0
0
VERTEX
8
CUT
10
194.487
20
24.681
30
0
0
VERTEX
8
CUT
10
194.741
20
25.954
30
0
0
SEQEND
8
CUT
0
POLYLINE
8
CUT
66
1
70
1
10
0
20
0
30
0
0
VERTEX
8
CUT
10
198.976
20
27.249
30
0
0
VERTEX
8
CUT
10
198.855
20
29.087
30
0
0
VERTEX
8
CUT
10
198.496
20
30.892
30
0
0
VERTEX
8
CUT
10
197.904
20
32.636
30
0
0
VERTEX
8
CUT
10
197.090
20
34.287
30
0
0
VERTEX
8
CUT
10
196.067
20
35.818
30
0
0
VERTEX
8
CUT
10
194.853
20
37.202
30
0
0
VERTEX
8
CUT
10
193.469
20
38.416
30
0
0
VERTEX
8
CUT
10
191.938
20
39.439
30
0
0
VERTEX
8
CUT
10
190.287
20
40.253
30
0
0
VERTEX
8
CUT
10
188.544
20
40.845
30
0
0
VERTEX
8
CUT
10
186.738
20
41.204
30
0
0
VERTEX
8
CUT
10
184.901
20
41.325
30
0
0
VERTEX
8
CUT
10
183.063
20
41.204
30
0
0
VERTEX
8
CUT
10
181.258
20
40.845
30
0
0
VERTEX
8
CUT
10
179.514
20
40.253
30
0
0
VERTEX
8
CUT
10
177.863
20
39.439
30
0
0
VERTEX
8
CUT
10
176.332
20
38.416
30
0
0
VERTEX
8
CUT
10
174.948
20
37.202
30
0
0
VERTEX
8
CUT
10
173.734
20
35.818
30
0
0
VERTEX
8
CUT
10
172.711
20
34.287
30
0
0
VERTEX
8
CUT
10
171.897
20
32.636
30
0
0
VERTEX
8
CUT
10
171.305
20
30.892
30
0
0
VERTEX
8
CUT
10
170.946
20
29.087
30
0
0
VERTEX
8
CUT
10
170.825
20
27.249
30
0
0
VERTEX
8
CUT
10
170.946
20
25.412
30
0
0
VERTEX
8
CUT
10
171.305
20
23.606
30
0
0
VERTEX
8
CUT
10
171.897
20
21.863
30
0
0
VERTEX
8
CUT
10
172.711
20
20.212
30
0
0
VERTEX
8
CUT
10
173.734
20
18.681
30
0
0
VERTEX
8
CUT
10
174.948
20
17.297
30
0
0
VERTEX
8
CUT
10
176.332
20
16.083
30
0
0
VERTEX
8
CUT
10
177.863
20
15.060
30
0
0
VERTEX
8
CUT
10
179.514
20
14.246
30
0
0
VERTEX
8
CUT
10
181.258
20
13.654
30
0
0
VERTEX
8
CUT
10
183.063
20
13.295
30
0
0
VERTEX
8
CUT
10
184.901
20
13.174
30
0
0
VERTEX
8
CUT
10
186.738
20
13.295
30
0
0
VERTEX
8
CUT
10
188.544
20
13.654
30
0
0
VERTEX
8
CUT
10
190.287
20
14.246
30
0
0
VERTEX
8
CUT
10
191.938
20
15.060
30
0
0
VERTEX
8
CUT
10
193.469
20
16.083
30
0
0
VERTEX
8
CUT
10
194.853
20
17.297
30
0
0
VERTEX
8
CUT
10
196.067
20
18.681
30
0
0
VERTEX
8
CUT
10
197.090
20
20.212
30
0
0
VERTEX
8
CUT
10
197.904
20
21.863
30
0
0
VERTEX
8
CUT
10
198.496
20
23.606
30
0
0
VERTEX
8
CUT
10
198.855
20
25.412
30
0
0
SEQEND
8
CUT
0
POLYLINE
8
CUT
66
1
70
1
10
0
20
0
30
0
0
VERTEX
8
CUT
10
225.476
20
27.249
30
0
0
VERTEX
8
CUT
10
225.391
20
28.545
30
0
0
VERTEX
8
CUT
10
225.138
20
29.818
30
0
0
VERTEX
8
CUT
10
224.720
20
31.047
30
0
0
VERTEX
8
CUT
10
224.146
20
32.212
30
0
0
VERTEX
8
CUT
10
223.425
20
33.291
30
0
0
VERTEX
8
CUT
10
222.569
20
34.267
30
0
0
VERTEX
8
CUT
10
221.593
20
35.123
30
0
0
VERTEX
8
CUT
10
220.513
20
35.845
30
0
0
VERTEX
8
CUT
10
219.349
20
36.419
30
0
0
VERTEX
8
CUT
10
218.120
20
36.836
30
0
0
VERTEX
8
CUT
10
216.846
20
37.089
30
0
0
VERTEX
8
CUT
10
215.551
20
37.174
30
0
0
VERTEX
8
CUT
10
214.255
20
37.089
30
0
0
VERTEX
8
CUT
10
212.982
20
36.836
30
0
0
VERTEX
8
CUT
10
211.753
20
36.419
30
0
0
VERTEX
8
CUT
10
210.588
20
35.845
30
0
0
VERTEX
8
CUT
10
209.509
20
35.123
30
0
0
VERTEX
8
CUT
10
208.533
20
34.267
30
0
0
VERTEX
8
CUT
10
207.677
20
33.291
30
0
0
VERTEX
8
CUT
10
206.956
20
32.212
30
0
0
VERTEX
8
CUT
10
206.382
20
31.047
30
0
0
VERTEX
8
CUT
10
205.964
20
29.818
30
0
0
VERTEX
8
CUT
10
205.711
20
28.545
30
0
0
VERTEX
8
CUT
10
205.626
20
27.249
30
0
0
VERTEX
8
CUT
10
205.711
20
25.954
30
0
0
VERTEX
8
CUT
10
205.964
20
24.681
30
0
0
VERTEX
8
CUT
10
206.382
20
23.451
30
0
0
VERTEX
8
CUT
10
206.956
20
22.287
30
0
0
VERTEX
8
CUT
10
207.677
20
21.208
30
0
0
VERTEX
8
CUT
10
208.533
20
20.231
30
0
0
VERTEX
8
CUT
10
209.509
20
19.376
30
0
0
VERTEX
8
CUT
10
210.588
20
18.654
30
0
0
VERTEX
8
CUT
10
211.753
20
18.080
30
0
0
VERTEX
8
CUT
10
212.982
20
17.663
30
0
0
VERTEX
8
CUT
10
214.255
20
17.409
30
0
0
VERTEX
8
CUT
10
215.551
20
17.325
30
0
0
VERTEX
8
CUT
10
216.846
20
17.409
30
0
0
VERTEX
8
CUT
10
218.120
20
17.663
30
0
0
VERTEX
8
CUT
10
219.349
20
18.080
30
0
0
VERTEX
8
CUT
10
220.513
20
18.654
30
0
0
VERTEX
8
CUT
10
221.593
20
19.376
30
0
0
VERTEX
8
CUT
10
222.569
20
20.231
30
0
0
VERTEX
8
CUT
10
223.425
20
21.208
30
0
0
VERTEX
8
CUT
10
224.146
20
22.287
30
0
0
VERTEX
8
CUT
10
224.720
20
23.451
30
0
0
VERTEX
8
CUT
10
225.138
20
24.681
30
0
0
VERTEX
8
CUT
10
225.391
20
25.954
30
0
0
SEQEND
8
CUT
0
POLYLINE
8
CUT
66
1
70
1
10
0
20
0
30
0
0
VERTEX
8
CUT
10
229.626
20
27.249
30
0
0
VERTEX
8
CUT
10
229.506
20
29.087
30
0
0
VERTEX
8
CUT
10
229.146
20
30.892
30
0
0
VERTEX
8
CUT
10
228.555
20
32.636
30
0
0
VERTEX
8
CUT
10
227.740
20
34.287
30
0
0
VERTEX
8
CUT
10
226.717
20
35.818
30
0
0
VERTEX
8
CUT
10
225.504
20
37.202
30
0
0
VERTEX
8
CUT
10
224.119
20
38.416
30
0
0
VERTEX
8
CUT
10
222.588
20
39.439
30
0
0
VERTEX
8
CUT
10
220.937
20
40.253
30
0
0
VERTEX
8
CUT
10
219.194
20
40.845
30
0
0
VERTEX
8
CUT
10
217.388
20
41.204
30
0
0
VERTEX
8
CUT
10
215.551
20
41.325
30
0
0
VERTEX
8
CUT
10
213.714
20
41.204
30
0
0
VERTEX
8
CUT
10
211.908
20
40.845
30
0
0
VERTEX
8
CUT
10
210.165
20
40.253
30
0
0
VERTEX
8
CUT
10
208.513
20
39.439
30
0
0
VERTEX
8
CUT
10
206.982
20
38.416
30
0
0
VERTEX
8
CUT
10
205.598
20
37.202
30
0
0
VERTEX
8
CUT
10
204.384
20
35.818
30
0
0
VERTEX
8
CUT
10
203.361
20
34.287
30
0
0
VERTEX
8
CUT
10
202.547
20
32.636
30
0
0
VERTEX
8
CUT
10
201.955
20
30.892
30
0
0
VERTEX
8
CUT
10
201.596
20
29.087
30
0
0
VERTEX
8
CUT
10
201.476
20
27.249
30
0
0
VERTEX
8
CUT
10
201.596
20
25.412
30
0
0
VERTEX
8
CUT
10
201.955
20
23.606
30
0
0
VERTEX
8
CUT
10
202.547
20
21.863
30
0
0
VERTEX
8
CUT
10
203.361
20
20.212
30
0
0
VERTEX
8
CUT
10
204.384
20
18.681
30
0
0
VERTEX
8
CUT
10
205.598
20
17.297
30
0
0
VERTEX
8
CUT
10
206.982
20
16.083
30
0
0
VERTEX
8
CUT
10
208.513
20
15.060
30
0
0
VERTEX
8
CUT
10
210.165
20
14.246
30
0
0
VERTEX
8
CUT
10
211.908
20
13.654
30
0
0
VERTEX
8
CUT
10
213.714
20
13.295
30
0
0
VERTEX
8
CUT
10
215.551
20
13.174
30
0
0
VERTEX
8
CUT
10
217.388
20
13.295
30
0
0
VERTEX
8
CUT
10
219.194
20
13.654
30
0
0
VERTEX
8
CUT
10
220.937
20
14.246
30
0
0
VERTEX
8
CUT
10
222.588
20
15.060
30
0
0
VERTEX
8
CUT
10
224.119
20
16.083
30
0
0
VERTEX
8
CUT
10
225.504
20
17.297
30
0
0
VERTEX
8
CUT
10
226.717
20
18.681
30
0
0
VERTEX
8
CUT
10
227.740
20
20.212
30
0
0
VERTEX
8
CUT
10
228.555
20
21.863
30
0
0
VERTEX
8
CUT
10
229.146
20
23.606
30
0
0
VERTEX
8
CUT
10
229.506
20
25.412
30
0
0
SEQEND
8
CUT
0
POLYLINE
8
CUT
66
1
70
1
10
0
20
0
30
0
0
VERTEX
8
CUT
10
215.605
20
160.700
30
0
0
VERTEX
8
CUT
10
213.730
20
160.666
30
0
0
VERTEX
8
CUT
10
211.925
20
160.078
30
0
0
VERTEX
8
CUT
10
210.185
20
158.957
30
0
0
VERTEX
8
CUT
10
208.575
20
157.351
30
0
0
VERTEX
8
CUT
10
207.155
20
155.321
30
0
0
VERTEX
8
CUT
10
205.978
20
152.944
30
0
0
VERTEX
8
CUT
10
205.090
20
150.312
30
0
0
VERTEX
8
CUT
10
204.523
20
147.526
30
0
0
VERTEX
8
CUT
10
204.300
20
144.692
30
0
0
VERTEX
8
CUT
10
204.428
20
141.917
30
0
0
VERTEX
8
CUT
10
204.904
20
139.308
30
0
0
VERTEX
8
CUT
10
205.710
20
136.965
30
0
0
VERTEX
8
CUT
10
206.815
20
134.977
30
0
0
VERTEX
8
CUT
10
208.179
20
133.421
30
0
0
VERTEX
8
CUT
10
209.752
20
132.357
30
0
0
VERTEX
8
CUT
10
211.544
20
131.808
30
0
0
SEQEND
8
CUT
0
POLYLINE
8
CUT
66
1
70
1
10
0
20
0
30
0
0
VERTEX
8
CUT
10
285.250
20
272.850
30
0
0
VERTEX
8
CUT
10
273.100
20
272.850
30
0
0
VERTEX
8
CUT
10
273.100
20
295.000
30
0
0
VERTEX
8
CUT
10
285.250
20
295.000
30
0
0
SEQEND
8
CUT
0
POLYLINE
8
CUT
66
1
70
1
10
0
20
0
30
0
0
VERTEX
8
CUT
10
284.250
20
248.200
30
0
0
VERTEX
8
CUT
10
273.100
20
248.200
30
0
0
VERTEX
8
CUT
10
273.100
20
270.350
30
0
0
VERTEX
8
CUT
10
284.250
20
270.350
30
0
0
SEQEND
8
CUT
0
POLYLINE
8
CUT
66
1
70
1
10
0
20
0
30
0
0
VERTEX
8
CUT
10
286.251
20
239.125
30
0
0
VERTEX
8
CUT
10
286.124
20
240.407
30
0
0
VERTEX
8
CUT
10
285.750
20
241.641
30
0
0
VERTEX
8
CUT
10
285.143
20
242.778
30
0
0
VERTEX
8
CUT
10
284.325
20
243.774
30
0
0
VERTEX
8
CUT
10
283.329
20
244.592
30
0
0
VERTEX
8
CUT
10
282.192
20
245.199
30
0
0
VERTEX
8
CUT
10
280.958
20
245.574
30
0
0
VERTEX
8
CUT
10
279.675
20
245.700
30
0
0
VERTEX
8
CUT
10
278.393
20
245.574
30
0
0
VERTEX
8
CUT
10
277.159
20
245.199
30
0
0
VERTEX
8
CUT
10
276.022
20
244.592
30
0
0
VERTEX
8
CUT
10
275.026
20
243.774
30
0
0
VERTEX
8
CUT
10
274.208
20
242.778
30
0
0
VERTEX
8
CUT
10
273.601
20
241.641
30
0
0
VERTEX
8
CUT
10
273.226
20
240.407
30
0
0
VERTEX
8
CUT
10
273.100
20
239.125
30
0
0
VERTEX
8
CUT
10
273.226
20
237.842
30
0
0
VERTEX
8
CUT
10
273.601
20
236.608
30
0
0
VERTEX
8
CUT
10
274.208
20
235.472
30
0
0
VERTEX
8
CUT
10
275.026
20
234.475
30
0
0
VERTEX
8
CUT
10
276.022
20
233.657
30
0
0
VERTEX
8
CUT
10
277.159
20
233.050
30
0
0
VERTEX
8
CUT
10
278.393
20
232.676
30
0
0
VERTEX
8
CUT
10
279.675
20
232.549
30
0
0
VERTEX
8
CUT
10
280.958
20
232.676
30
0
0
VERTEX
8
CUT
10
282.192
20
233.050
30
0
0
VERTEX
8
CUT
10
283.329
20
233.657
30
0
0
VERTEX
8
CUT
10
284.325
20
234.475
30
0
0
VERTEX
8
CUT
10
285.143
20
235.472
30
0
0
VERTEX
8
CUT
10
285.750
20
236.608
30
0
0
VERTEX
8
CUT
10
286.124
20
237.842
30
0
0
SEQEND
8
CUT
0
ENDSEC
0
EOF
