0
SECTION
2
HEADER
9
$ACADVER
1
AC1009
9
$INSUNITS
70
4
0
ENDSEC
0
SECTION
2
TABLES
0
TABLE
2
LAYER
70
3
0
LAYER
2
CUT
70
0
62
1
6
CONTINUOUS
0
LAYER
2
SCORE
70
0
62
5
6
CONTINUOUS
0
LAYER
2
ENGRAVE
70
0
62
7
6
CONTINUOUS
0
ENDTAB
0
ENDSEC
0
SECTION
2
ENTITIES
0
POLYLINE
8
ENGRAVE
66
1
70
1
10
0
20
0
30
0
0
VERTEX
8
ENGRAVE
10
416.877
20
45.547
30
0
0
VERTEX
8
ENGRAVE
10
416.702
20
45.547
30
0
0
VERTEX
8
ENGRAVE
10
416.483
20
45.634
30
0
0
VERTEX
8
ENGRAVE
10
416.352
20
45.787
30
0
0
VERTEX
8
ENGRAVE
10
416.286
20
45.940
30
0
0
VERTEX
8
ENGRAVE
10
416.286
20
46.028
30
0
0
VERTEX
8
ENGRAVE
10
416.439
20
46.050
30
0
0
VERTEX
8
ENGRAVE
10
416.527
20
45.831
30
0
0
VERTEX
8
ENGRAVE
10
416.723
20
45.700
30
0
0
VERTEX
8
ENGRAVE
10
416.986
20
45.744
30
0
0
VERTEX
8
ENGRAVE
10
417.139
20
45.919
30
0
0
VERTEX
8
ENGRAVE
10
417.205
20
46.247
30
0
0
VERTEX
8
ENGRAVE
10
417.183
20
46.509
30
0
0
VERTEX
8
ENGRAVE
10
417.095
20
46.728
30
0
0
VERTEX
8
ENGRAVE
10
416.986
20
46.837
30
0
0
VERTEX
8
ENGRAVE
10
416.898
20
46.881
30
0
0
VERTEX
8
ENGRAVE
10
416.702
20
46.881
30
0
0
VERTEX
8
ENGRAVE
10
416.505
20
46.728
30
0
0
VERTEX
8
ENGRAVE
10
416.439
20
46.531
30
0
0
VERTEX
8
ENGRAVE
10
416.286
20
46.553
30
0
0
VERTEX
8
ENGRAVE
10
416.308
20
46.706
30
0
0
VERTEX
8
ENGRAVE
10
416.395
20
46.859
30
0
0
VERTEX
8
ENGRAVE
10
416.680
20
47.034
30
0
0
VERTEX
8
ENGRAVE
10
417.008
20
47.012
30
0
0
VERTEX
8
ENGRAVE
10
417.205
20
46.881
30
0
0
VERTEX
8
ENGRAVE
10
417.336
20
46.662
30
0
0
VERTEX
8
ENGRAVE
10
417.402
20
46.400
30
0
0
VERTEX
8
ENGRAVE
10
417.380
20
46.050
30
0
0
VERTEX
8
ENGRAVE
10
417.292
20
45.809
30
0
0
VERTEX
8
ENGRAVE
10
417.052
20
45.590
30
0
0
SEQEND
8
ENGRAVE
0
POLYLINE
8
ENGRAVE
66
1
70
1
10
0
20
0
30
0
0
VERTEX
8
ENGRAVE
10
415.564
20
45.569
30
0
0
VERTEX
8
ENGRAVE
10
415.411
20
45.569
30
0
0
VERTEX
8
ENGRAVE
10
415.411
20
46.881
30
0
0
VERTEX
8
ENGRAVE
10
415.017
20
46.881
30
0
0
VERTEX
8
ENGRAVE
10
415.017
20
47.012
30
0
0
VERTEX
8
ENGRAVE
10
416.023
20
47.012
30
0
0
VERTEX
8
ENGRAVE
10
416.023
20
46.881
30
0
0
VERTEX
8
ENGRAVE
10
415.586
20
46.881
30
0
0
VERTEX
8
ENGRAVE
10
415.586
20
45.809
30
0
0
VERTEX
8
ENGRAVE
10
415.958
20
46.094
30
0
0
VERTEX
8
ENGRAVE
10
415.980
20
45.897
30
0
0
VERTEX
8
ENGRAVE
10
415.783
20
45.809
30
0
0
VERTEX
8
ENGRAVE
10
415.564
20
45.612
30
0
0
SEQEND
8
ENGRAVE
0
POLYLINE
8
ENGRAVE
66
1
70
1
10
0
20
0
30
0
0
VERTEX
8
ENGRAVE
10
414.295
20
45.569
30
0
0
VERTEX
8
ENGRAVE
10
414.164
20
45.569
30
0
0
VERTEX
8
ENGRAVE
10
414.164
20
46.881
30
0
0
VERTEX
8
ENGRAVE
10
413.748
20
46.881
30
0
0
VERTEX
8
ENGRAVE
10
413.748
20
47.012
30
0
0
VERTEX
8
ENGRAVE
10
414.755
20
47.012
30
0
0
VERTEX
8
ENGRAVE
10
414.755
20
46.881
30
0
0
VERTEX
8
ENGRAVE
10
414.339
20
46.881
30
0
0
VERTEX
8
ENGRAVE
10
414.339
20
45.809
30
0
0
VERTEX
8
ENGRAVE
10
414.689
20
46.094
30
0
0
VERTEX
8
ENGRAVE
10
414.733
20
46.094
30
0
0
VERTEX
8
ENGRAVE
10
414.733
20
45.919
30
0
0
VERTEX
8
ENGRAVE
10
414.470
20
45.765
30
0
0
SEQEND
8
ENGRAVE
0
POLYLINE
8
ENGRAVE
66
1
70
1
10
0
20
0
30
0
0
VERTEX
8
ENGRAVE
10
48.401
20
244.029
30
0
0
VERTEX
8
ENGRAVE
10
48.359
20
242.571
30
0
0
VERTEX
8
ENGRAVE
10
48.026
20
242.196
30
0
0
VERTEX
8
ENGRAVE
10
47.401
20
242.196
30
0
0
VERTEX
8
ENGRAVE
10
47.192
20
242.404
30
0
0
VERTEX
8
ENGRAVE
10
47.109
20
242.613
30
0
0
VERTEX
8
ENGRAVE
10
46.984
20
242.321
30
0
0
VERTEX
8
ENGRAVE
10
46.609
20
242.071
30
0
0
VERTEX
8
ENGRAVE
10
46.067
20
242.113
30
0
0
VERTEX
8
ENGRAVE
10
45.776
20
242.363
30
0
0
VERTEX
8
ENGRAVE
10
45.651
20
242.696
30
0
0
VERTEX
8
ENGRAVE
10
45.651
20
244.029
30
0
0
SEQEND
8
ENGRAVE
0
POLYLINE
8
ENGRAVE
66
1
70
1
10
0
20
0
30
0
0
VERTEX
8
ENGRAVE
10
48.401
20
240.696
30
0
0
VERTEX
8
ENGRAVE
10
48.359
20
240.404
30
0
0
VERTEX
8
ENGRAVE
10
45.901
20
240.404
30
0
0
VERTEX
8
ENGRAVE
10
45.901
20
239.654
30
0
0
VERTEX
8
ENGRAVE
10
45.651
20
239.654
30
0
0
VERTEX
8
ENGRAVE
10
45.651
20
241.571
30
0
0
VERTEX
8
ENGRAVE
10
45.901
20
241.571
30
0
0
VERTEX
8
ENGRAVE
10
45.901
20
240.779
30
0
0
VERTEX
8
ENGRAVE
10
47.942
20
240.779
30
0
0
VERTEX
8
ENGRAVE
10
47.401
20
241.446
30
0
0
VERTEX
8
ENGRAVE
10
47.401
20
241.529
30
0
0
VERTEX
8
ENGRAVE
10
47.734
20
241.529
30
0
0
VERTEX
8
ENGRAVE
10
47.984
20
241.071
30
0
0
SEQEND
8
ENGRAVE
0
POLYLINE
8
ENGRAVE
66
1
70
1
10
0
20
0
30
0
0
VERTEX
8
ENGRAVE
10
48.109
20
243.654
30
0
0
VERTEX
8
ENGRAVE
10
47.234
20
243.696
30
0
0
VERTEX
8
ENGRAVE
10
47.234
20
242.821
30
0
0
VERTEX
8
ENGRAVE
10
47.442
20
242.529
30
0
0
VERTEX
8
ENGRAVE
10
47.776
20
242.488
30
0
0
VERTEX
8
ENGRAVE
10
48.067
20
242.696
30
0
0
SEQEND
8
ENGRAVE
0
POLYLINE
8
ENGRAVE
66
1
70
1
10
0
20
0
30
0
0
VERTEX
8
ENGRAVE
10
46.942
20
243.654
30
0
0
VERTEX
8
ENGRAVE
10
45.942
20
243.696
30
0
0
VERTEX
8
ENGRAVE
10
45.942
20
242.821
30
0
0
VERTEX
8
ENGRAVE
10
46.192
20
242.446
30
0
0
VERTEX
8
ENGRAVE
10
46.692
20
242.446
30
0
0
VERTEX
8
ENGRAVE
10
46.901
20
242.654
30
0
0
SEQEND
8
ENGRAVE
0
POLYLINE
8
ENGRAVE
66
1
70
1
10
0
20
0
30
0
0
VERTEX
8
ENGRAVE
10
211.401
20
244.029
30
0
0
VERTEX
8
ENGRAVE
10
211.359
20
242.571
30
0
0
VERTEX
8
ENGRAVE
10
211.026
20
242.196
30
0
0
VERTEX
8
ENGRAVE
10
210.401
20
242.196
30
0
0
VERTEX
8
ENGRAVE
10
210.192
20
242.404
30
0
0
VERTEX
8
ENGRAVE
10
210.109
20
242.613
30
0
0
VERTEX
8
ENGRAVE
10
209.984
20
242.321
30
0
0
VERTEX
8
ENGRAVE
10
209.609
20
242.071
30
0
0
VERTEX
8
ENGRAVE
10
209.067
20
242.113
30
0
0
VERTEX
8
ENGRAVE
10
208.776
20
242.363
30
0
0
VERTEX
8
ENGRAVE
10
208.651
20
242.696
30
0
0
VERTEX
8
ENGRAVE
10
208.651
20
244.029
30
0
0
SEQEND
8
ENGRAVE
0
POLYLINE
8
ENGRAVE
66
1
70
1
10
0
20
0
30
0
0
VERTEX
8
ENGRAVE
10
211.401
20
240.696
30
0
0
VERTEX
8
ENGRAVE
10
211.359
20
240.404
30
0
0
VERTEX
8
ENGRAVE
10
208.901
20
240.404
30
0
0
VERTEX
8
ENGRAVE
10
208.901
20
239.654
30
0
0
VERTEX
8
ENGRAVE
10
208.651
20
239.654
30
0
0
VERTEX
8
ENGRAVE
10
208.651
20
241.571
30
0
0
VERTEX
8
ENGRAVE
10
208.901
20
241.571
30
0
0
VERTEX
8
ENGRAVE
10
208.901
20
240.779
30
0
0
VERTEX
8
ENGRAVE
10
210.942
20
240.779
30
0
0
VERTEX
8
ENGRAVE
10
210.401
20
241.446
30
0
0
VERTEX
8
ENGRAVE
10
210.401
20
241.529
30
0
0
VERTEX
8
ENGRAVE
10
210.734
20
241.529
30
0
0
VERTEX
8
ENGRAVE
10
210.984
20
241.071
30
0
0
SEQEND
8
ENGRAVE
0
POLYLINE
8
ENGRAVE
66
1
70
1
10
0
20
0
30
0
0
VERTEX
8
ENGRAVE
10
211.109
20
243.654
30
0
0
VERTEX
8
ENGRAVE
10
210.234
20
243.696
30
0
0
VERTEX
8
ENGRAVE
10
210.234
20
242.821
30
0
0
VERTEX
8
ENGRAVE
10
210.442
20
242.529
30
0
0
VERTEX
8
ENGRAVE
10
210.776
20
242.488
30
0
0
VERTEX
8
ENGRAVE
10
211.067
20
242.696
30
0
0
SEQEND
8
ENGRAVE
0
POLYLINE
8
ENGRAVE
66
1
70
1
10
0
20
0
30
0
0
VERTEX
8
ENGRAVE
10
209.942
20
243.654
30
0
0
VERTEX
8
ENGRAVE
10
208.942
20
243.696
30
0
0
VERTEX
8
ENGRAVE
10
208.942
20
242.821
30
0
0
VERTEX
8
ENGRAVE
10
209.192
20
242.446
30
0
0
VERTEX
8
ENGRAVE
10
209.692
20
242.446
30
0
0
VERTEX
8
ENGRAVE
10
209.901
20
242.654
30
0
0
SEQEND
8
ENGRAVE
0
POLYLINE
8
ENGRAVE
66
1
70
1
10
0
20
0
30
0
0
VERTEX
8
ENGRAVE
10
48.401
20
121.029
30
0
0
VERTEX
8
ENGRAVE
10
48.359
20
119.571
30
0
0
VERTEX
8
ENGRAVE
10
48.026
20
119.196
30
0
0
VERTEX
8
ENGRAVE
10
47.401
20
119.196
30
0
0
VERTEX
8
ENGRAVE
10
47.192
20
119.404
30
0
0
VERTEX
8
ENGRAVE
10
47.109
20
119.613
30
0
0
VERTEX
8
ENGRAVE
10
46.984
20
119.321
30
0
0
VERTEX
8
ENGRAVE
10
46.609
20
119.071
30
0
0
VERTEX
8
ENGRAVE
10
46.067
20
119.113
30
0
0
VERTEX
8
ENGRAVE
10
45.776
20
119.363
30
0
0
VERTEX
8
ENGRAVE
10
45.651
20
119.696
30
0
0
VERTEX
8
ENGRAVE
10
45.651
20
121.029
30
0
0
SEQEND
8
ENGRAVE
0
POLYLINE
8
ENGRAVE
66
1
70
1
10
0
20
0
30
0
0
VERTEX
8
ENGRAVE
10
48.401
20
117.696
30
0
0
VERTEX
8
ENGRAVE
10
48.359
20
117.404
30
0
0
VERTEX
8
ENGRAVE
10
45.901
20
117.404
30
0
0
VERTEX
8
ENGRAVE
10
45.901
20
116.654
30
0
0
VERTEX
8
ENGRAVE
10
45.651
20
116.654
30
0
0
VERTEX
8
ENGRAVE
10
45.651
20
118.571
30
0
0
VERTEX
8
ENGRAVE
10
45.901
20
118.571
30
0
0
VERTEX
8
ENGRAVE
10
45.901
20
117.779
30
0
0
VERTEX
8
ENGRAVE
10
47.942
20
117.779
30
0
0
VERTEX
8
ENGRAVE
10
47.401
20
118.446
30
0
0
VERTEX
8
ENGRAVE
10
47.401
20
118.529
30
0
0
VERTEX
8
ENGRAVE
10
47.734
20
118.529
30
0
0
VERTEX
8
ENGRAVE
10
47.984
20
118.071
30
0
0
SEQEND
8
ENGRAVE
0
POLYLINE
8
ENGRAVE
66
1
70
1
10
0
20
0
30
0
0
VERTEX
8
ENGRAVE
10
48.109
20
120.654
30
0
0
VERTEX
8
ENGRAVE
10
47.234
20
120.696
30
0
0
VERTEX
8
ENGRAVE
10
47.234
20
119.821
30
0
0
VERTEX
8
ENGRAVE
10
47.442
20
119.529
30
0
0
VERTEX
8
ENGRAVE
10
47.776
20
119.488
30
0
0
VERTEX
8
ENGRAVE
10
48.067
20
119.696
30
0
0
SEQEND
8
ENGRAVE
0
POLYLINE
8
ENGRAVE
66
1
70
1
10
0
20
0
30
0
0
VERTEX
8
ENGRAVE
10
46.942
20
120.654
30
0
0
VERTEX
8
ENGRAVE
10
45.942
20
120.696
30
0
0
VERTEX
8
ENGRAVE
10
45.942
20
119.821
30
0
0
VERTEX
8
ENGRAVE
10
46.192
20
119.446
30
0
0
VERTEX
8
ENGRAVE
10
46.692
20
119.446
30
0
0
VERTEX
8
ENGRAVE
10
46.901
20
119.654
30
0
0
SEQEND
8
ENGRAVE
0
POLYLINE
8
ENGRAVE
66
1
70
1
10
0
20
0
30
0
0
VERTEX
8
ENGRAVE
10
377.882
20
291.321
30
0
0
VERTEX
8
ENGRAVE
10
378.559
20
290.592
30
0
0
VERTEX
8
ENGRAVE
10
378.455
20
290.435
30
0
0
VERTEX
8
ENGRAVE
10
379.236
20
290.435
30
0
0
VERTEX
8
ENGRAVE
10
379.966
20
291.321
30
0
0
VERTEX
8
ENGRAVE
10
380.226
20
291.060
30
0
0
VERTEX
8
ENGRAVE
10
379.705
20
290.435
30
0
0
VERTEX
8
ENGRAVE
10
381.320
20
290.435
30
0
0
VERTEX
8
ENGRAVE
10
381.320
20
290.175
30
0
0
VERTEX
8
ENGRAVE
10
376.632
20
290.175
30
0
0
VERTEX
8
ENGRAVE
10
376.632
20
290.435
30
0
0
VERTEX
8
ENGRAVE
10
378.143
20
290.435
30
0
0
VERTEX
8
ENGRAVE
10
377.882
20
290.852
30
0
0
VERTEX
8
ENGRAVE
10
377.622
20
291.060
30
0
0
SEQEND
8
ENGRAVE
0
POLYLINE
8
ENGRAVE
66
1
70
1
10
0
20
0
30
0
0
VERTEX
8
ENGRAVE
10
389.966
20
290.748
30
0
0
VERTEX
8
ENGRAVE
10
390.382
20
290.748
30
0
0
VERTEX
8
ENGRAVE
10
390.851
20
290.592
30
0
0
VERTEX
8
ENGRAVE
10
391.268
20
290.175
30
0
0
VERTEX
8
ENGRAVE
10
391.580
20
289.238
30
0
0
VERTEX
8
ENGRAVE
10
391.528
20
288.456
30
0
0
VERTEX
8
ENGRAVE
10
391.372
20
287.988
30
0
0
VERTEX
8
ENGRAVE
10
390.903
20
287.415
30
0
0
VERTEX
8
ENGRAVE
10
390.382
20
287.206
30
0
0
VERTEX
8
ENGRAVE
10
389.861
20
287.206
30
0
0
VERTEX
8
ENGRAVE
10
389.445
20
287.363
30
0
0
VERTEX
8
ENGRAVE
10
389.028
20
287.779
30
0
0
VERTEX
8
ENGRAVE
10
388.768
20
288.404
30
0
0
VERTEX
8
ENGRAVE
10
388.716
20
289.029
30
0
0
VERTEX
8
ENGRAVE
10
388.924
20
289.967
30
0
0
VERTEX
8
ENGRAVE
10
389.341
20
290.488
30
0
0
SEQEND
8
ENGRAVE
0
POLYLINE
8
ENGRAVE
66
1
70
1
10
0
20
0
30
0
0
VERTEX
8
ENGRAVE
10
383.455
20
290.696
30
0
0
VERTEX
8
ENGRAVE
10
385.539
20
290.696
30
0
0
VERTEX
8
ENGRAVE
10
385.539
20
290.331
30
0
0
VERTEX
8
ENGRAVE
10
383.872
20
290.331
30
0
0
VERTEX
8
ENGRAVE
10
383.872
20
289.238
30
0
0
VERTEX
8
ENGRAVE
10
385.278
20
289.238
30
0
0
VERTEX
8
ENGRAVE
10
385.278
20
288.873
30
0
0
VERTEX
8
ENGRAVE
10
383.872
20
288.873
30
0
0
VERTEX
8
ENGRAVE
10
383.872
20
287.258
30
0
0
VERTEX
8
ENGRAVE
10
383.455
20
287.258
30
0
0
SEQEND
8
ENGRAVE
0
POLYLINE
8
ENGRAVE
66
1
70
1
10
0
20
0
30
0
0
VERTEX
8
ENGRAVE
10
385.851
20
290.696
30
0
0
VERTEX
8
ENGRAVE
10
387.622
20
290.644
30
0
0
VERTEX
8
ENGRAVE
10
388.143
20
290.279
30
0
0
VERTEX
8
ENGRAVE
10
388.299
20
289.758
30
0
0
VERTEX
8
ENGRAVE
10
388.247
20
289.394
30
0
0
VERTEX
8
ENGRAVE
10
387.934
20
288.977
30
0
0
VERTEX
8
ENGRAVE
10
387.674
20
288.873
30
0
0
VERTEX
8
ENGRAVE
10
387.674
20
288.717
30
0
0
VERTEX
8
ENGRAVE
10
388.299
20
287.258
30
0
0
VERTEX
8
ENGRAVE
10
387.830
20
287.258
30
0
0
VERTEX
8
ENGRAVE
10
387.257
20
288.717
30
0
0
VERTEX
8
ENGRAVE
10
386.268
20
288.717
30
0
0
VERTEX
8
ENGRAVE
10
386.268
20
287.258
30
0
0
VERTEX
8
ENGRAVE
10
385.851
20
287.258
30
0
0
SEQEND
8
ENGRAVE
0
POLYLINE
8
ENGRAVE
66
1
70
1
10
0
20
0
30
0
0
VERTEX
8
ENGRAVE
10
392.257
20
290.696
30
0
0
VERTEX
8
ENGRAVE
10
392.830
20
290.644
30
0
0
VERTEX
8
ENGRAVE
10
394.341
20
287.935
30
0
0
VERTEX
8
ENGRAVE
10
394.393
20
290.696
30
0
0
VERTEX
8
ENGRAVE
10
394.757
20
290.696
30
0
0
VERTEX
8
ENGRAVE
10
394.757
20
287.258
30
0
0
VERTEX
8
ENGRAVE
10
394.289
20
287.310
30
0
0
VERTEX
8
ENGRAVE
10
393.039
20
289.550
30
0
0
VERTEX
8
ENGRAVE
10
392.778
20
289.863
30
0
0
VERTEX
8
ENGRAVE
10
392.674
20
290.175
30
0
0
VERTEX
8
ENGRAVE
10
392.622
20
287.258
30
0
0
VERTEX
8
ENGRAVE
10
392.257
20
287.258
30
0
0
SEQEND
8
ENGRAVE
0
POLYLINE
8
ENGRAVE
66
1
70
1
10
0
20
0
30
0
0
VERTEX
8
ENGRAVE
10
395.174
20
290.696
30
0
0
VERTEX
8
ENGRAVE
10
397.570
20
290.696
30
0
0
VERTEX
8
ENGRAVE
10
397.570
20
290.331
30
0
0
VERTEX
8
ENGRAVE
10
396.580
20
290.331
30
0
0
VERTEX
8
ENGRAVE
10
396.580
20
287.258
30
0
0
VERTEX
8
ENGRAVE
10
396.164
20
287.258
30
0
0
VERTEX
8
ENGRAVE
10
396.164
20
290.331
30
0
0
VERTEX
8
ENGRAVE
10
395.174
20
290.331
30
0
0
SEQEND
8
ENGRAVE
0
POLYLINE
8
ENGRAVE
66
1
70
1
10
0
20
0
30
0
0
VERTEX
8
ENGRAVE
10
390.018
20
290.383
30
0
0
VERTEX
8
ENGRAVE
10
389.705
20
290.279
30
0
0
VERTEX
8
ENGRAVE
10
389.289
20
289.706
30
0
0
VERTEX
8
ENGRAVE
10
389.184
20
288.613
30
0
0
VERTEX
8
ENGRAVE
10
389.393
20
287.988
30
0
0
VERTEX
8
ENGRAVE
10
389.757
20
287.623
30
0
0
VERTEX
8
ENGRAVE
10
390.434
20
287.571
30
0
0
VERTEX
8
ENGRAVE
10
390.851
20
287.883
30
0
0
VERTEX
8
ENGRAVE
10
391.007
20
288.196
30
0
0
VERTEX
8
ENGRAVE
10
391.111
20
289.290
30
0
0
VERTEX
8
ENGRAVE
10
391.007
20
289.758
30
0
0
VERTEX
8
ENGRAVE
10
390.799
20
290.123
30
0
0
VERTEX
8
ENGRAVE
10
390.486
20
290.331
30
0
0
SEQEND
8
ENGRAVE
0
POLYLINE
8
ENGRAVE
66
1
70
1
10
0
20
0
30
0
0
VERTEX
8
ENGRAVE
10
386.320
20
290.331
30
0
0
VERTEX
8
ENGRAVE
10
386.268
20
289.081
30
0
0
VERTEX
8
ENGRAVE
10
387.466
20
289.133
30
0
0
VERTEX
8
ENGRAVE
10
387.778
20
289.394
30
0
0
VERTEX
8
ENGRAVE
10
387.830
20
289.915
30
0
0
VERTEX
8
ENGRAVE
10
387.674
20
290.175
30
0
0
VERTEX
8
ENGRAVE
10
387.257
20
290.331
30
0
0
SEQEND
8
ENGRAVE
0
POLYLINE
8
ENGRAVE
66
1
70
1
10
0
20
0
30
0
0
VERTEX
8
ENGRAVE
10
380.434
20
289.915
30
0
0
VERTEX
8
ENGRAVE
10
380.799
20
289.915
30
0
0
VERTEX
8
ENGRAVE
10
380.799
20
287.154
30
0
0
VERTEX
8
ENGRAVE
10
380.591
20
286.738
30
0
0
VERTEX
8
ENGRAVE
10
379.966
20
286.633
30
0
0
VERTEX
8
ENGRAVE
10
379.861
20
287.050
30
0
0
VERTEX
8
ENGRAVE
10
380.278
20
286.998
30
0
0
VERTEX
8
ENGRAVE
10
380.434
20
287.102
30
0
0
SEQEND
8
ENGRAVE
0
POLYLINE
8
ENGRAVE
66
1
70
1
10
0
20
0
30
0
0
VERTEX
8
ENGRAVE
10
377.205
20
289.810
30
0
0
VERTEX
8
ENGRAVE
10
378.820
20
289.810
30
0
0
VERTEX
8
ENGRAVE
10
378.820
20
286.998
30
0
0
VERTEX
8
ENGRAVE
10
378.559
20
286.738
30
0
0
VERTEX
8
ENGRAVE
10
378.195
20
286.685
30
0
0
VERTEX
8
ENGRAVE
10
378.143
20
287.050
30
0
0
VERTEX
8
ENGRAVE
10
378.507
20
287.154
30
0
0
VERTEX
8
ENGRAVE
10
378.507
20
287.831
30
0
0
VERTEX
8
ENGRAVE
10
377.518
20
287.831
30
0
0
VERTEX
8
ENGRAVE
10
377.570
20
286.738
30
0
0
VERTEX
8
ENGRAVE
10
377.153
20
286.738
30
0
0
SEQEND
8
ENGRAVE
0
POLYLINE
8
ENGRAVE
66
1
70
1
10
0
20
0
30
0
0
VERTEX
8
ENGRAVE
10
377.570
20
289.550
30
0
0
VERTEX
8
ENGRAVE
10
377.518
20
288.977
30
0
0
VERTEX
8
ENGRAVE
10
378.507
20
288.977
30
0
0
VERTEX
8
ENGRAVE
10
378.507
20
289.550
30
0
0
SEQEND
8
ENGRAVE
0
POLYLINE
8
ENGRAVE
66
1
70
1
10
0
20
0
30
0
0
VERTEX
8
ENGRAVE
10
379.445
20
289.602
30
0
0
VERTEX
8
ENGRAVE
10
379.809
20
289.550
30
0
0
VERTEX
8
ENGRAVE
10
379.809
20
287.467
30
0
0
VERTEX
8
ENGRAVE
10
379.445
20
287.467
30
0
0
SEQEND
8
ENGRAVE
0
POLYLINE
8
ENGRAVE
66
1
70
1
10
0
20
0
30
0
0
VERTEX
8
ENGRAVE
10
377.570
20
288.717
30
0
0
VERTEX
8
ENGRAVE
10
377.518
20
288.144
30
0
0
VERTEX
8
ENGRAVE
10
378.507
20
288.144
30
0
0
VERTEX
8
ENGRAVE
10
378.507
20
288.717
30
0
0
SEQEND
8
ENGRAVE
0
POLYLINE
8
ENGRAVE
66
1
70
1
10
0
20
0
30
0
0
VERTEX
8
ENGRAVE
10
364.713
20
234.974
30
0
0
VERTEX
8
ENGRAVE
10
365.005
20
234.974
30
0
0
VERTEX
8
ENGRAVE
10
365.380
20
234.849
30
0
0
VERTEX
8
ENGRAVE
10
365.588
20
234.683
30
0
0
VERTEX
8
ENGRAVE
10
365.838
20
234.224
30
0
0
VERTEX
8
ENGRAVE
10
365.797
20
234.058
30
0
0
VERTEX
8
ENGRAVE
10
365.505
20
234.016
30
0
0
VERTEX
8
ENGRAVE
10
365.463
20
234.266
30
0
0
VERTEX
8
ENGRAVE
10
365.255
20
234.558
30
0
0
VERTEX
8
ENGRAVE
10
365.005
20
234.683
30
0
0
VERTEX
8
ENGRAVE
10
364.672
20
234.683
30
0
0
VERTEX
8
ENGRAVE
10
364.422
20
234.558
30
0
0
VERTEX
8
ENGRAVE
10
364.172
20
234.183
30
0
0
VERTEX
8
ENGRAVE
10
364.088
20
233.308
30
0
0
VERTEX
8
ENGRAVE
10
364.213
20
232.849
30
0
0
VERTEX
8
ENGRAVE
10
364.422
20
232.558
30
0
0
VERTEX
8
ENGRAVE
10
364.672
20
232.433
30
0
0
VERTEX
8
ENGRAVE
10
365.130
20
232.474
30
0
0
VERTEX
8
ENGRAVE
10
365.380
20
232.683
30
0
0
VERTEX
8
ENGRAVE
10
365.505
20
233.099
30
0
0
VERTEX
8
ENGRAVE
10
365.838
20
233.058
30
0
0
VERTEX
8
ENGRAVE
10
365.797
20
232.808
30
0
0
VERTEX
8
ENGRAVE
10
365.588
20
232.433
30
0
0
VERTEX
8
ENGRAVE
10
365.047
20
232.141
30
0
0
VERTEX
8
ENGRAVE
10
364.630
20
232.141
30
0
0
VERTEX
8
ENGRAVE
10
364.213
20
232.308
30
0
0
VERTEX
8
ENGRAVE
10
363.880
20
232.724
30
0
0
VERTEX
8
ENGRAVE
10
363.713
20
233.266
30
0
0
VERTEX
8
ENGRAVE
10
363.713
20
233.891
30
0
0
VERTEX
8
ENGRAVE
10
363.922
20
234.474
30
0
0
VERTEX
8
ENGRAVE
10
364.297
20
234.849
30
0
0
SEQEND
8
ENGRAVE
0
POLYLINE
8
ENGRAVE
66
1
70
1
10
0
20
0
30
0
0
VERTEX
8
ENGRAVE
10
367.213
20
234.933
30
0
0
VERTEX
8
ENGRAVE
10
367.505
20
234.891
30
0
0
VERTEX
8
ENGRAVE
10
367.505
20
232.433
30
0
0
VERTEX
8
ENGRAVE
10
368.255
20
232.433
30
0
0
VERTEX
8
ENGRAVE
10
368.255
20
232.183
30
0
0
VERTEX
8
ENGRAVE
10
366.338
20
232.183
30
0
0
VERTEX
8
ENGRAVE
10
366.338
20
232.433
30
0
0
VERTEX
8
ENGRAVE
10
367.130
20
232.433
30
0
0
VERTEX
8
ENGRAVE
10
367.130
20
234.474
30
0
0
VERTEX
8
ENGRAVE
10
366.463
20
233.933
30
0
0
VERTEX
8
ENGRAVE
10
366.380
20
233.933
30
0
0
VERTEX
8
ENGRAVE
10
366.380
20
234.266
30
0
0
VERTEX
8
ENGRAVE
10
366.838
20
234.516
30
0
0
SEQEND
8
ENGRAVE
0
POLYLINE
8
SCORE
66
1
70
1
10
0
20
0
30
0
0
VERTEX
8
SCORE
10
427.075
20
144.925
30
0
0
VERTEX
8
SCORE
10
415.075
20
144.925
30
0
0
VERTEX
8
SCORE
10
415.075
20
166.925
30
0
0
VERTEX
8
SCORE
10
427.075
20
166.925
30
0
0
SEQEND
8
SCORE
0
POLYLINE
8
SCORE
66
1
70
0
10
0
20
0
30
0
0
VERTEX
8
SCORE
10
396.575
20
167.425
30
0
0
VERTEX
8
SCORE
10
413.575
20
167.425
30
0
0
VERTEX
8
SCORE
10
413.575
20
145.425
30
0
0
VERTEX
8
SCORE
10
396.575
20
145.425
30
0
0
SEQEND
8
SCORE
0
POLYLINE
8
SCORE
66
1
70
1
10
0
20
0
30
0
0
VERTEX
8
SCORE
10
441.075
20
152.925
30
0
0
VERTEX
8
SCORE
10
430.075
20
152.925
30
0
0
VERTEX
8
SCORE
10
430.075
20
174.925
30
0
0
VERTEX
8
SCORE
10
441.075
20
174.925
30
0
0
SEQEND
8
SCORE
0
POLYLINE
8
SCORE
66
1
70
1
10
0
20
0
30
0
0
VERTEX
8
SCORE
10
406.575
20
187.425
30
0
0
VERTEX
8
SCORE
10
396.575
20
187.425
30
0
0
VERTEX
8
SCORE
10
396.575
20
207.425
30
0
0
VERTEX
8
SCORE
10
406.575
20
207.425
30
0
0
SEQEND
8
SCORE
0
POLYLINE
8
SCORE
66
1
70
1
10
0
20
0
30
0
0
VERTEX
8
SCORE
10
438.075
20
183.425
30
0
0
VERTEX
8
SCORE
10
408.075
20
183.425
30
0
0
VERTEX
8
SCORE
10
408.075
20
231.425
30
0
0
VERTEX
8
SCORE
10
438.075
20
231.425
30
0
0
SEQEND
8
SCORE
0
POLYLINE
8
ENGRAVE
66
1
70
1
10
0
20
0
30
0
0
VERTEX
8
ENGRAVE
10
315.471
20
125.118
30
0
0
VERTEX
8
ENGRAVE
10
314.742
20
124.441
30
0
0
VERTEX
8
ENGRAVE
10
314.585
20
124.545
30
0
0
VERTEX
8
ENGRAVE
10
314.585
20
123.764
30
0
0
VERTEX
8
ENGRAVE
10
315.471
20
123.034
30
0
0
VERTEX
8
ENGRAVE
10
315.210
20
122.774
30
0
0
VERTEX
8
ENGRAVE
10
314.585
20
123.295
30
0
0
VERTEX
8
ENGRAVE
10
314.585
20
121.680
30
0
0
VERTEX
8
ENGRAVE
10
314.325
20
121.680
30
0
0
VERTEX
8
ENGRAVE
10
314.325
20
126.368
30
0
0
VERTEX
8
ENGRAVE
10
314.585
20
126.368
30
0
0
VERTEX
8
ENGRAVE
10
314.585
20
124.857
30
0
0
VERTEX
8
ENGRAVE
10
315.002
20
125.118
30
0
0
VERTEX
8
ENGRAVE
10
315.210
20
125.378
30
0
0
SEQEND
8
ENGRAVE
0
POLYLINE
8
ENGRAVE
66
1
70
1
10
0
20
0
30
0
0
VERTEX
8
ENGRAVE
10
314.898
20
113.034
30
0
0
VERTEX
8
ENGRAVE
10
314.898
20
112.618
30
0
0
VERTEX
8
ENGRAVE
10
314.742
20
112.149
30
0
0
VERTEX
8
ENGRAVE
10
314.325
20
111.732
30
0
0
VERTEX
8
ENGRAVE
10
313.387
20
111.420
30
0
0
VERTEX
8
ENGRAVE
10
312.606
20
111.472
30
0
0
VERTEX
8
ENGRAVE
10
312.137
20
111.628
30
0
0
VERTEX
8
ENGRAVE
10
311.565
20
112.097
30
0
0
VERTEX
8
ENGRAVE
10
311.356
20
112.618
30
0
0
VERTEX
8
ENGRAVE
10
311.356
20
113.139
30
0
0
VERTEX
8
ENGRAVE
10
311.512
20
113.555
30
0
0
VERTEX
8
ENGRAVE
10
311.929
20
113.972
30
0
0
VERTEX
8
ENGRAVE
10
312.554
20
114.232
30
0
0
VERTEX
8
ENGRAVE
10
313.179
20
114.284
30
0
0
VERTEX
8
ENGRAVE
10
314.117
20
114.076
30
0
0
VERTEX
8
ENGRAVE
10
314.637
20
113.659
30
0
0
SEQEND
8
ENGRAVE
0
POLYLINE
8
ENGRAVE
66
1
70
1
10
0
20
0
30
0
0
VERTEX
8
ENGRAVE
10
314.846
20
119.545
30
0
0
VERTEX
8
ENGRAVE
10
314.846
20
117.461
30
0
0
VERTEX
8
ENGRAVE
10
314.481
20
117.461
30
0
0
VERTEX
8
ENGRAVE
10
314.481
20
119.128
30
0
0
VERTEX
8
ENGRAVE
10
313.387
20
119.128
30
0
0
VERTEX
8
ENGRAVE
10
313.387
20
117.722
30
0
0
VERTEX
8
ENGRAVE
10
313.023
20
117.722
30
0
0
VERTEX
8
ENGRAVE
10
313.023
20
119.128
30
0
0
VERTEX
8
ENGRAVE
10
311.408
20
119.128
30
0
0
VERTEX
8
ENGRAVE
10
311.408
20
119.545
30
0
0
SEQEND
8
ENGRAVE
0
POLYLINE
8
ENGRAVE
66
1
70
1
10
0
20
0
30
0
0
VERTEX
8
ENGRAVE
10
314.846
20
117.149
30
0
0
VERTEX
8
ENGRAVE
10
314.794
20
115.378
30
0
0
VERTEX
8
ENGRAVE
10
314.429
20
114.857
30
0
0
VERTEX
8
ENGRAVE
10
313.908
20
114.701
30
0
0
VERTEX
8
ENGRAVE
10
313.544
20
114.753
30
0
0
VERTEX
8
ENGRAVE
10
313.127
20
115.066
30
0
0
VERTEX
8
ENGRAVE
10
313.023
20
115.326
30
0
0
VERTEX
8
ENGRAVE
10
312.867
20
115.326
30
0
0
VERTEX
8
ENGRAVE
10
311.408
20
114.701
30
0
0
VERTEX
8
ENGRAVE
10
311.408
20
115.170
30
0
0
VERTEX
8
ENGRAVE
10
312.867
20
115.743
30
0
0
VERTEX
8
ENGRAVE
10
312.867
20
116.732
30
0
0
VERTEX
8
ENGRAVE
10
311.408
20
116.732
30
0
0
VERTEX
8
ENGRAVE
10
311.408
20
117.149
30
0
0
SEQEND
8
ENGRAVE
0
POLYLINE
8
ENGRAVE
66
1
70
1
10
0
20
0
30
0
0
VERTEX
8
ENGRAVE
10
314.846
20
110.743
30
0
0
VERTEX
8
ENGRAVE
10
314.794
20
110.170
30
0
0
VERTEX
8
ENGRAVE
10
312.085
20
108.659
30
0
0
VERTEX
8
ENGRAVE
10
314.846
20
108.607
30
0
0
VERTEX
8
ENGRAVE
10
314.846
20
108.243
30
0
0
VERTEX
8
ENGRAVE
10
311.408
20
108.243
30
0
0
VERTEX
8
ENGRAVE
10
311.460
20
108.711
30
0
0
VERTEX
8
ENGRAVE
10
313.700
20
109.961
30
0
0
VERTEX
8
ENGRAVE
10
314.012
20
110.222
30
0
0
VERTEX
8
ENGRAVE
10
314.325
20
110.326
30
0
0
VERTEX
8
ENGRAVE
10
311.408
20
110.378
30
0
0
VERTEX
8
ENGRAVE
10
311.408
20
110.743
30
0
0
SEQEND
8
ENGRAVE
0
POLYLINE
8
ENGRAVE
66
1
70
1
10
0
20
0
30
0
0
VERTEX
8
ENGRAVE
10
314.846
20
107.826
30
0
0
VERTEX
8
ENGRAVE
10
314.846
20
105.430
30
0
0
VERTEX
8
ENGRAVE
10
314.481
20
105.430
30
0
0
VERTEX
8
ENGRAVE
10
314.481
20
106.420
30
0
0
VERTEX
8
ENGRAVE
10
311.408
20
106.420
30
0
0
VERTEX
8
ENGRAVE
10
311.408
20
106.836
30
0
0
VERTEX
8
ENGRAVE
10
314.481
20
106.836
30
0
0
VERTEX
8
ENGRAVE
10
314.481
20
107.826
30
0
0
SEQEND
8
ENGRAVE
0
POLYLINE
8
ENGRAVE
66
1
70
1
10
0
20
0
30
0
0
VERTEX
8
ENGRAVE
10
314.533
20
112.982
30
0
0
VERTEX
8
ENGRAVE
10
314.429
20
113.295
30
0
0
VERTEX
8
ENGRAVE
10
313.856
20
113.711
30
0
0
VERTEX
8
ENGRAVE
10
312.762
20
113.816
30
0
0
VERTEX
8
ENGRAVE
10
312.137
20
113.607
30
0
0
VERTEX
8
ENGRAVE
10
311.773
20
113.243
30
0
0
VERTEX
8
ENGRAVE
10
311.721
20
112.566
30
0
0
VERTEX
8
ENGRAVE
10
312.033
20
112.149
30
0
0
VERTEX
8
ENGRAVE
10
312.346
20
111.993
30
0
0
VERTEX
8
ENGRAVE
10
313.440
20
111.889
30
0
0
VERTEX
8
ENGRAVE
10
313.908
20
111.993
30
0
0
VERTEX
8
ENGRAVE
10
314.273
20
112.201
30
0
0
VERTEX
8
ENGRAVE
10
314.481
20
112.514
30
0
0
SEQEND
8
ENGRAVE
0
POLYLINE
8
ENGRAVE
66
1
70
1
10
0
20
0
30
0
0
VERTEX
8
ENGRAVE
10
314.481
20
116.680
30
0
0
VERTEX
8
ENGRAVE
10
313.231
20
116.732
30
0
0
VERTEX
8
ENGRAVE
10
313.283
20
115.534
30
0
0
VERTEX
8
ENGRAVE
10
313.544
20
115.222
30
0
0
VERTEX
8
ENGRAVE
10
314.065
20
115.170
30
0
0
VERTEX
8
ENGRAVE
10
314.325
20
115.326
30
0
0
VERTEX
8
ENGRAVE
10
314.481
20
115.743
30
0
0
SEQEND
8
ENGRAVE
0
POLYLINE
8
ENGRAVE
66
1
70
1
10
0
20
0
30
0
0
VERTEX
8
ENGRAVE
10
314.065
20
122.566
30
0
0
VERTEX
8
ENGRAVE
10
314.065
20
122.201
30
0
0
VERTEX
8
ENGRAVE
10
311.304
20
122.201
30
0
0
VERTEX
8
ENGRAVE
10
310.887
20
122.409
30
0
0
VERTEX
8
ENGRAVE
10
310.783
20
123.034
30
0
0
VERTEX
8
ENGRAVE
10
311.200
20
123.139
30
0
0
VERTEX
8
ENGRAVE
10
311.148
20
122.722
30
0
0
VERTEX
8
ENGRAVE
10
311.252
20
122.566
30
0
0
SEQEND
8
ENGRAVE
0
POLYLINE
8
ENGRAVE
66
1
70
1
10
0
20
0
30
0
0
VERTEX
8
ENGRAVE
10
313.960
20
125.795
30
0
0
VERTEX
8
ENGRAVE
10
313.960
20
124.180
30
0
0
VERTEX
8
ENGRAVE
10
311.148
20
124.180
30
0
0
VERTEX
8
ENGRAVE
10
310.887
20
124.441
30
0
0
VERTEX
8
ENGRAVE
10
310.835
20
124.805
30
0
0
VERTEX
8
ENGRAVE
10
311.200
20
124.857
30
0
0
VERTEX
8
ENGRAVE
10
311.304
20
124.493
30
0
0
VERTEX
8
ENGRAVE
10
311.981
20
124.493
30
0
0
VERTEX
8
ENGRAVE
10
311.981
20
125.482
30
0
0
VERTEX
8
ENGRAVE
10
310.887
20
125.430
30
0
0
VERTEX
8
ENGRAVE
10
310.887
20
125.847
30
0
0
SEQEND
8
ENGRAVE
0
POLYLINE
8
ENGRAVE
66
1
70
1
10
0
20
0
30
0
0
VERTEX
8
ENGRAVE
10
313.700
20
125.430
30
0
0
VERTEX
8
ENGRAVE
10
313.127
20
125.482
30
0
0
VERTEX
8
ENGRAVE
10
313.127
20
124.493
30
0
0
VERTEX
8
ENGRAVE
10
313.700
20
124.493
30
0
0
SEQEND
8
ENGRAVE
0
POLYLINE
8
ENGRAVE
66
1
70
1
10
0
20
0
30
0
0
VERTEX
8
ENGRAVE
10
313.752
20
123.555
30
0
0
VERTEX
8
ENGRAVE
10
313.700
20
123.191
30
0
0
VERTEX
8
ENGRAVE
10
311.617
20
123.191
30
0
0
VERTEX
8
ENGRAVE
10
311.617
20
123.555
30
0
0
SEQEND
8
ENGRAVE
0
POLYLINE
8
ENGRAVE
66
1
70
1
10
0
20
0
30
0
0
VERTEX
8
ENGRAVE
10
312.867
20
125.430
30
0
0
VERTEX
8
ENGRAVE
10
312.294
20
125.482
30
0
0
VERTEX
8
ENGRAVE
10
312.294
20
124.493
30
0
0
VERTEX
8
ENGRAVE
10
312.867
20
124.493
30
0
0
SEQEND
8
ENGRAVE
0
POLYLINE
8
ENGRAVE
66
1
70
1
10
0
20
0
30
0
0
VERTEX
8
ENGRAVE
10
259.124
20
138.287
30
0
0
VERTEX
8
ENGRAVE
10
259.124
20
137.995
30
0
0
VERTEX
8
ENGRAVE
10
258.999
20
137.620
30
0
0
VERTEX
8
ENGRAVE
10
258.833
20
137.412
30
0
0
VERTEX
8
ENGRAVE
10
258.374
20
137.162
30
0
0
VERTEX
8
ENGRAVE
10
258.208
20
137.203
30
0
0
VERTEX
8
ENGRAVE
10
258.166
20
137.495
30
0
0
VERTEX
8
ENGRAVE
10
258.416
20
137.537
30
0
0
VERTEX
8
ENGRAVE
10
258.708
20
137.745
30
0
0
VERTEX
8
ENGRAVE
10
258.833
20
137.995
30
0
0
VERTEX
8
ENGRAVE
10
258.833
20
138.328
30
0
0
VERTEX
8
ENGRAVE
10
258.708
20
138.578
30
0
0
VERTEX
8
ENGRAVE
10
258.333
20
138.828
30
0
0
VERTEX
8
ENGRAVE
10
257.458
20
138.912
30
0
0
VERTEX
8
ENGRAVE
10
256.999
20
138.787
30
0
0
VERTEX
8
ENGRAVE
10
256.708
20
138.578
30
0
0
VERTEX
8
ENGRAVE
10
256.583
20
138.328
30
0
0
VERTEX
8
ENGRAVE
10
256.624
20
137.870
30
0
0
VERTEX
8
ENGRAVE
10
256.833
20
137.620
30
0
0
VERTEX
8
ENGRAVE
10
257.249
20
137.495
30
0
0
VERTEX
8
ENGRAVE
10
257.208
20
137.162
30
0
0
VERTEX
8
ENGRAVE
10
256.958
20
137.203
30
0
0
VERTEX
8
ENGRAVE
10
256.583
20
137.412
30
0
0
VERTEX
8
ENGRAVE
10
256.291
20
137.953
30
0
0
VERTEX
8
ENGRAVE
10
256.291
20
138.370
30
0
0
VERTEX
8
ENGRAVE
10
256.458
20
138.787
30
0
0
VERTEX
8
ENGRAVE
10
256.874
20
139.120
30
0
0
VERTEX
8
ENGRAVE
10
257.416
20
139.287
30
0
0
VERTEX
8
ENGRAVE
10
258.041
20
139.287
30
0
0
VERTEX
8
ENGRAVE
10
258.624
20
139.078
30
0
0
VERTEX
8
ENGRAVE
10
258.999
20
138.703
30
0
0
SEQEND
8
ENGRAVE
0
POLYLINE
8
ENGRAVE
66
1
70
1
10
0
20
0
30
0
0
VERTEX
8
ENGRAVE
10
259.083
20
135.787
30
0
0
VERTEX
8
ENGRAVE
10
259.041
20
135.495
30
0
0
VERTEX
8
ENGRAVE
10
256.583
20
135.495
30
0
0
VERTEX
8
ENGRAVE
10
256.583
20
134.745
30
0
0
VERTEX
8
ENGRAVE
10
256.333
20
134.745
30
0
0
VERTEX
8
ENGRAVE
10
256.333
20
136.662
30
0
0
VERTEX
8
ENGRAVE
10
256.583
20
136.662
30
0
0
VERTEX
8
ENGRAVE
10
256.583
20
135.870
30
0
0
VERTEX
8
ENGRAVE
10
258.624
20
135.870
30
0
0
VERTEX
8
ENGRAVE
10
258.083
20
136.537
30
0
0
VERTEX
8
ENGRAVE
10
258.083
20
136.620
30
0
0
VERTEX
8
ENGRAVE
10
258.416
20
136.620
30
0
0
VERTEX
8
ENGRAVE
10
258.666
20
136.162
30
0
0
SEQEND
8
ENGRAVE
0
POLYLINE
8
SCORE
66
1
70
1
10
0
20
0
30
0
0
VERTEX
8
SCORE
10
169.075
20
75.925
30
0
0
VERTEX
8
SCORE
10
169.075
20
87.925
30
0
0
VERTEX
8
SCORE
10
191.075
20
87.925
30
0
0
VERTEX
8
SCORE
10
191.075
20
75.925
30
0
0
SEQEND
8
SCORE
0
POLYLINE
8
SCORE
66
1
70
0
10
0
20
0
30
0
0
VERTEX
8
SCORE
10
191.575
20
106.425
30
0
0
VERTEX
8
SCORE
10
191.575
20
89.425
30
0
0
VERTEX
8
SCORE
10
169.575
20
89.425
30
0
0
VERTEX
8
SCORE
10
169.575
20
106.425
30
0
0
SEQEND
8
SCORE
0
POLYLINE
8
SCORE
66
1
70
1
10
0
20
0
30
0
0
VERTEX
8
SCORE
10
177.075
20
61.925
30
0
0
VERTEX
8
SCORE
10
177.075
20
72.925
30
0
0
VERTEX
8
SCORE
10
199.075
20
72.925
30
0
0
VERTEX
8
SCORE
10
199.075
20
61.925
30
0
0
SEQEND
8
SCORE
0
POLYLINE
8
SCORE
66
1
70
1
10
0
20
0
30
0
0
VERTEX
8
SCORE
10
211.575
20
96.425
30
0
0
VERTEX
8
SCORE
10
211.575
20
106.425
30
0
0
VERTEX
8
SCORE
10
231.575
20
106.425
30
0
0
VERTEX
8
SCORE
10
231.575
20
96.425
30
0
0
SEQEND
8
SCORE
0
POLYLINE
8
SCORE
66
1
70
1
10
0
20
0
30
0
0
VERTEX
8
SCORE
10
207.575
20
64.925
30
0
0
VERTEX
8
SCORE
10
207.575
20
94.925
30
0
0
VERTEX
8
SCORE
10
255.575
20
94.925
30
0
0
VERTEX
8
SCORE
10
255.575
20
64.925
30
0
0
SEQEND
8
SCORE
0
POLYLINE
8
ENGRAVE
66
1
70
1
10
0
20
0
30
0
0
VERTEX
8
ENGRAVE
10
330.075
20
132.925
30
0
0
VERTEX
8
ENGRAVE
10
426.075
20
132.925
30
0
0
VERTEX
8
ENGRAVE
10
426.075
20
135.925
30
0
0
VERTEX
8
ENGRAVE
10
330.075
20
135.925
30
0
0
SEQEND
8
ENGRAVE
0
POLYLINE
8
ENGRAVE
66
1
70
1
10
0
20
0
30
0
0
VERTEX
8
ENGRAVE
10
380.736
20
75.477
30
0
0
VERTEX
8
ENGRAVE
10
381.320
20
75.477
30
0
0
VERTEX
8
ENGRAVE
10
381.976
20
75.258
30
0
0
VERTEX
8
ENGRAVE
10
382.486
20
74.821
30
0
0
VERTEX
8
ENGRAVE
10
382.705
20
74.383
30
0
0
VERTEX
8
ENGRAVE
10
382.632
20
74.238
30
0
0
VERTEX
8
ENGRAVE
10
382.122
20
74.165
30
0
0
VERTEX
8
ENGRAVE
10
382.049
20
74.529
30
0
0
VERTEX
8
ENGRAVE
10
381.320
20
74.967
30
0
0
VERTEX
8
ENGRAVE
10
380.591
20
74.967
30
0
0
VERTEX
8
ENGRAVE
10
380.007
20
74.529
30
0
0
VERTEX
8
ENGRAVE
10
379.934
20
74.165
30
0
0
VERTEX
8
ENGRAVE
10
380.226
20
73.654
30
0
0
VERTEX
8
ENGRAVE
10
382.122
20
73.144
30
0
0
VERTEX
8
ENGRAVE
10
382.778
20
72.560
30
0
0
VERTEX
8
ENGRAVE
10
382.851
20
71.540
30
0
0
VERTEX
8
ENGRAVE
10
382.705
20
71.175
30
0
0
VERTEX
8
ENGRAVE
10
382.341
20
70.810
30
0
0
VERTEX
8
ENGRAVE
10
381.611
20
70.519
30
0
0
VERTEX
8
ENGRAVE
10
380.153
20
70.665
30
0
0
VERTEX
8
ENGRAVE
10
379.424
20
71.248
30
0
0
VERTEX
8
ENGRAVE
10
379.132
20
71.758
30
0
0
VERTEX
8
ENGRAVE
10
379.132
20
71.904
30
0
0
VERTEX
8
ENGRAVE
10
379.716
20
71.977
30
0
0
VERTEX
8
ENGRAVE
10
380.080
20
71.321
30
0
0
VERTEX
8
ENGRAVE
10
380.809
20
71.029
30
0
0
VERTEX
8
ENGRAVE
10
381.684
20
71.102
30
0
0
VERTEX
8
ENGRAVE
10
382.195
20
71.540
30
0
0
VERTEX
8
ENGRAVE
10
382.268
20
71.977
30
0
0
VERTEX
8
ENGRAVE
10
382.049
20
72.415
30
0
0
VERTEX
8
ENGRAVE
10
381.684
20
72.633
30
0
0
VERTEX
8
ENGRAVE
10
380.080
20
72.998
30
0
0
VERTEX
8
ENGRAVE
10
379.424
20
73.654
30
0
0
VERTEX
8
ENGRAVE
10
379.351
20
74.310
30
0
0
VERTEX
8
ENGRAVE
10
379.497
20
74.821
30
0
0
VERTEX
8
ENGRAVE
10
379.861
20
75.185
30
0
0
SEQEND
8
ENGRAVE
0
POLYLINE
8
ENGRAVE
66
1
70
1
10
0
20
0
30
0
0
VERTEX
8
ENGRAVE
10
368.341
20
75.404
30
0
0
VERTEX
8
ENGRAVE
10
369.070
20
75.331
30
0
0
VERTEX
8
ENGRAVE
10
370.528
20
70.592
30
0
0
VERTEX
8
ENGRAVE
10
369.872
20
70.665
30
0
0
VERTEX
8
ENGRAVE
10
369.507
20
71.977
30
0
0
VERTEX
8
ENGRAVE
10
367.684
20
71.977
30
0
0
VERTEX
8
ENGRAVE
10
367.320
20
70.665
30
0
0
VERTEX
8
ENGRAVE
10
366.736
20
70.592
30
0
0
SEQEND
8
ENGRAVE
0
POLYLINE
8
ENGRAVE
66
1
70
1
10
0
20
0
30
0
0
VERTEX
8
ENGRAVE
10
371.184
20
75.404
30
0
0
VERTEX
8
ENGRAVE
10
373.664
20
75.331
30
0
0
VERTEX
8
ENGRAVE
10
374.393
20
74.821
30
0
0
VERTEX
8
ENGRAVE
10
374.611
20
74.092
30
0
0
VERTEX
8
ENGRAVE
10
374.539
20
73.581
30
0
0
VERTEX
8
ENGRAVE
10
374.101
20
72.998
30
0
0
VERTEX
8
ENGRAVE
10
373.736
20
72.852
30
0
0
VERTEX
8
ENGRAVE
10
373.736
20
72.633
30
0
0
VERTEX
8
ENGRAVE
10
374.611
20
70.592
30
0
0
VERTEX
8
ENGRAVE
10
373.955
20
70.592
30
0
0
VERTEX
8
ENGRAVE
10
373.153
20
72.633
30
0
0
VERTEX
8
ENGRAVE
10
371.768
20
72.633
30
0
0
VERTEX
8
ENGRAVE
10
371.768
20
70.592
30
0
0
VERTEX
8
ENGRAVE
10
371.184
20
70.592
30
0
0
SEQEND
8
ENGRAVE
0
POLYLINE
8
ENGRAVE
66
1
70
1
10
0
20
0
30
0
0
VERTEX
8
ENGRAVE
10
375.486
20
75.404
30
0
0
VERTEX
8
ENGRAVE
10
378.549
20
75.404
30
0
0
VERTEX
8
ENGRAVE
10
378.549
20
74.894
30
0
0
VERTEX
8
ENGRAVE
10
376.143
20
74.894
30
0
0
VERTEX
8
ENGRAVE
10
376.143
20
73.363
30
0
0
VERTEX
8
ENGRAVE
10
378.039
20
73.363
30
0
0
VERTEX
8
ENGRAVE
10
378.039
20
72.852
30
0
0
VERTEX
8
ENGRAVE
10
376.143
20
72.852
30
0
0
VERTEX
8
ENGRAVE
10
376.143
20
71.102
30
0
0
VERTEX
8
ENGRAVE
10
378.622
20
71.102
30
0
0
VERTEX
8
ENGRAVE
10
378.622
20
70.592
30
0
0
VERTEX
8
ENGRAVE
10
375.486
20
70.592
30
0
0
SEQEND
8
ENGRAVE
0
POLYLINE
8
ENGRAVE
66
1
70
1
10
0
20
0
30
0
0
VERTEX
8
ENGRAVE
10
387.372
20
75.404
30
0
0
VERTEX
8
ENGRAVE
10
387.809
20
75.404
30
0
0
VERTEX
8
ENGRAVE
10
387.809
20
71.029
30
0
0
VERTEX
8
ENGRAVE
10
389.195
20
71.029
30
0
0
VERTEX
8
ENGRAVE
10
389.195
20
70.592
30
0
0
VERTEX
8
ENGRAVE
10
385.841
20
70.592
30
0
0
VERTEX
8
ENGRAVE
10
385.841
20
71.029
30
0
0
VERTEX
8
ENGRAVE
10
387.226
20
71.029
30
0
0
VERTEX
8
ENGRAVE
10
387.226
20
74.602
30
0
0
VERTEX
8
ENGRAVE
10
386.059
20
73.654
30
0
0
VERTEX
8
ENGRAVE
10
385.914
20
73.654
30
0
0
VERTEX
8
ENGRAVE
10
385.914
20
74.238
30
0
0
VERTEX
8
ENGRAVE
10
386.789
20
74.748
30
0
0
SEQEND
8
ENGRAVE
0
POLYLINE
8
ENGRAVE
66
1
70
1
10
0
20
0
30
0
0
VERTEX
8
ENGRAVE
10
371.841
20
74.894
30
0
0
VERTEX
8
ENGRAVE
10
371.768
20
73.144
30
0
0
VERTEX
8
ENGRAVE
10
373.445
20
73.217
30
0
0
VERTEX
8
ENGRAVE
10
373.882
20
73.581
30
0
0
VERTEX
8
ENGRAVE
10
373.955
20
74.310
30
0
0
VERTEX
8
ENGRAVE
10
373.736
20
74.675
30
0
0
VERTEX
8
ENGRAVE
10
373.153
20
74.894
30
0
0
SEQEND
8
ENGRAVE
0
POLYLINE
8
ENGRAVE
66
1
70
1
10
0
20
0
30
0
0
VERTEX
8
ENGRAVE
10
368.632
20
74.675
30
0
0
VERTEX
8
ENGRAVE
10
367.903
20
72.488
30
0
0
VERTEX
8
ENGRAVE
10
369.289
20
72.488
30
0
0
SEQEND
8
ENGRAVE
0
POLYLINE
8
ENGRAVE
66
1
70
1
10
0
20
0
30
0
0
VERTEX
8
ENGRAVE
10
383.216
20
72.633
30
0
0
VERTEX
8
ENGRAVE
10
384.674
20
72.633
30
0
0
VERTEX
8
ENGRAVE
10
384.674
20
72.196
30
0
0
VERTEX
8
ENGRAVE
10
383.143
20
72.196
30
0
0
SEQEND
8
ENGRAVE
0
POLYLINE
8
ENGRAVE
66
1
70
1
10
0
20
0
30
0
0
VERTEX
8
ENGRAVE
10
235.075
20
26.925
30
0
0
VERTEX
8
ENGRAVE
10
235.515
20
24.144
30
0
0
VERTEX
8
ENGRAVE
10
236.794
20
21.635
30
0
0
VERTEX
8
ENGRAVE
10
238.785
20
19.644
30
0
0
VERTEX
8
ENGRAVE
10
241.294
20
18.365
30
0
0
VERTEX
8
ENGRAVE
10
244.075
20
17.925
30
0
0
VERTEX
8
ENGRAVE
10
298.075
20
17.925
30
0
0
VERTEX
8
ENGRAVE
10
300.856
20
18.365
30
0
0
VERTEX
8
ENGRAVE
10
303.365
20
19.644
30
0
0
VERTEX
8
ENGRAVE
10
305.356
20
21.635
30
0
0
VERTEX
8
ENGRAVE
10
306.635
20
24.144
30
0
0
VERTEX
8
ENGRAVE
10
307.075
20
26.925
30
0
0
VERTEX
8
ENGRAVE
10
307.075
20
34.925
30
0
0
VERTEX
8
ENGRAVE
10
306.635
20
37.706
30
0
0
VERTEX
8
ENGRAVE
10
305.356
20
40.215
30
0
0
VERTEX
8
ENGRAVE
10
303.365
20
42.206
30
0
0
VERTEX
8
ENGRAVE
10
300.856
20
43.485
30
0
0
VERTEX
8
ENGRAVE
10
298.075
20
43.925
30
0
0
VERTEX
8
ENGRAVE
10
244.075
20
43.925
30
0
0
VERTEX
8
ENGRAVE
10
241.294
20
43.485
30
0
0
VERTEX
8
ENGRAVE
10
238.785
20
42.206
30
0
0
VERTEX
8
ENGRAVE
10
236.794
20
40.215
30
0
0
VERTEX
8
ENGRAVE
10
235.515
20
37.706
30
0
0
VERTEX
8
ENGRAVE
10
235.075
20
34.925
30
0
0
SEQEND
8
ENGRAVE
0
POLYLINE
8
ENGRAVE
66
1
70
1
10
0
20
0
30
0
0
VERTEX
8
ENGRAVE
10
55.970
20
31.642
30
0
0
VERTEX
8
ENGRAVE
10
56.303
20
31.642
30
0
0
VERTEX
8
ENGRAVE
10
56.303
20
30.517
30
0
0
VERTEX
8
ENGRAVE
10
57.595
20
30.517
30
0
0
VERTEX
8
ENGRAVE
10
57.595
20
31.642
30
0
0
VERTEX
8
ENGRAVE
10
57.928
20
31.642
30
0
0
VERTEX
8
ENGRAVE
10
57.928
20
28.892
30
0
0
VERTEX
8
ENGRAVE
10
57.595
20
28.892
30
0
0
VERTEX
8
ENGRAVE
10
57.595
20
30.183
30
0
0
VERTEX
8
ENGRAVE
10
56.303
20
30.183
30
0
0
VERTEX
8
ENGRAVE
10
56.303
20
28.892
30
0
0
VERTEX
8
ENGRAVE
10
55.970
20
28.892
30
0
0
SEQEND
8
ENGRAVE
0
POLYLINE
8
ENGRAVE
66
1
70
1
10
0
20
0
30
0
0
VERTEX
8
ENGRAVE
10
59.470
20
31.642
30
0
0
VERTEX
8
ENGRAVE
10
59.762
20
31.600
30
0
0
VERTEX
8
ENGRAVE
10
59.762
20
29.142
30
0
0
VERTEX
8
ENGRAVE
10
60.512
20
29.142
30
0
0
VERTEX
8
ENGRAVE
10
60.512
20
28.892
30
0
0
VERTEX
8
ENGRAVE
10
58.595
20
28.892
30
0
0
VERTEX
8
ENGRAVE
10
58.595
20
29.142
30
0
0
VERTEX
8
ENGRAVE
10
59.387
20
29.142
30
0
0
VERTEX
8
ENGRAVE
10
59.387
20
31.183
30
0
0
VERTEX
8
ENGRAVE
10
58.720
20
30.642
30
0
0
VERTEX
8
ENGRAVE
10
58.637
20
30.642
30
0
0
VERTEX
8
ENGRAVE
10
58.637
20
30.975
30
0
0
VERTEX
8
ENGRAVE
10
59.095
20
31.225
30
0
0
SEQEND
8
ENGRAVE
0
POLYLINE
8
ENGRAVE
66
1
70
1
10
0
20
0
30
0
0
VERTEX
8
ENGRAVE
10
61.012
20
31.642
30
0
0
VERTEX
8
ENGRAVE
10
62.803
20
31.642
30
0
0
VERTEX
8
ENGRAVE
10
62.762
20
31.308
30
0
0
VERTEX
8
ENGRAVE
10
62.428
20
30.933
30
0
0
VERTEX
8
ENGRAVE
10
62.053
20
30.183
30
0
0
VERTEX
8
ENGRAVE
10
61.887
20
29.600
30
0
0
VERTEX
8
ENGRAVE
10
61.845
20
28.892
30
0
0
VERTEX
8
ENGRAVE
10
61.470
20
28.892
30
0
0
VERTEX
8
ENGRAVE
10
61.553
20
29.642
30
0
0
VERTEX
8
ENGRAVE
10
61.720
20
30.183
30
0
0
VERTEX
8
ENGRAVE
10
62.012
20
30.767
30
0
0
VERTEX
8
ENGRAVE
10
62.428
20
31.350
30
0
0
VERTEX
8
ENGRAVE
10
60.970
20
31.350
30
0
0
SEQEND
8
ENGRAVE
0
POLYLINE
8
ENGRAVE
66
1
70
1
10
0
20
0
30
0
0
VERTEX
8
ENGRAVE
10
135.470
20
31.642
30
0
0
VERTEX
8
ENGRAVE
10
135.803
20
31.642
30
0
0
VERTEX
8
ENGRAVE
10
135.803
20
30.517
30
0
0
VERTEX
8
ENGRAVE
10
137.095
20
30.517
30
0
0
VERTEX
8
ENGRAVE
10
137.095
20
31.642
30
0
0
VERTEX
8
ENGRAVE
10
137.428
20
31.642
30
0
0
VERTEX
8
ENGRAVE
10
137.428
20
28.892
30
0
0
VERTEX
8
ENGRAVE
10
137.095
20
28.892
30
0
0
VERTEX
8
ENGRAVE
10
137.095
20
30.183
30
0
0
VERTEX
8
ENGRAVE
10
135.803
20
30.183
30
0
0
VERTEX
8
ENGRAVE
10
135.803
20
28.892
30
0
0
VERTEX
8
ENGRAVE
10
135.470
20
28.892
30
0
0
SEQEND
8
ENGRAVE
0
POLYLINE
8
ENGRAVE
66
1
70
1
10
0
20
0
30
0
0
VERTEX
8
ENGRAVE
10
138.970
20
31.642
30
0
0
VERTEX
8
ENGRAVE
10
139.262
20
31.600
30
0
0
VERTEX
8
ENGRAVE
10
139.262
20
29.142
30
0
0
VERTEX
8
ENGRAVE
10
140.012
20
29.142
30
0
0
VERTEX
8
ENGRAVE
10
140.012
20
28.892
30
0
0
VERTEX
8
ENGRAVE
10
138.095
20
28.892
30
0
0
VERTEX
8
ENGRAVE
10
138.095
20
29.142
30
0
0
VERTEX
8
ENGRAVE
10
138.887
20
29.142
30
0
0
VERTEX
8
ENGRAVE
10
138.887
20
31.183
30
0
0
VERTEX
8
ENGRAVE
10
138.220
20
30.642
30
0
0
VERTEX
8
ENGRAVE
10
138.137
20
30.642
30
0
0
VERTEX
8
ENGRAVE
10
138.137
20
30.975
30
0
0
VERTEX
8
ENGRAVE
10
138.595
20
31.225
30
0
0
SEQEND
8
ENGRAVE
0
POLYLINE
8
ENGRAVE
66
1
70
1
10
0
20
0
30
0
0
VERTEX
8
ENGRAVE
10
140.512
20
31.642
30
0
0
VERTEX
8
ENGRAVE
10
142.303
20
31.642
30
0
0
VERTEX
8
ENGRAVE
10
142.262
20
31.308
30
0
0
VERTEX
8
ENGRAVE
10
141.928
20
30.933
30
0
0
VERTEX
8
ENGRAVE
10
141.553
20
30.183
30
0
0
VERTEX
8
ENGRAVE
10
141.387
20
29.600
30
0
0
VERTEX
8
ENGRAVE
10
141.345
20
28.892
30
0
0
VERTEX
8
ENGRAVE
10
140.970
20
28.892
30
0
0
VERTEX
8
ENGRAVE
10
141.053
20
29.642
30
0
0
VERTEX
8
ENGRAVE
10
141.220
20
30.183
30
0
0
VERTEX
8
ENGRAVE
10
141.512
20
30.767
30
0
0
VERTEX
8
ENGRAVE
10
141.928
20
31.350
30
0
0
VERTEX
8
ENGRAVE
10
140.470
20
31.350
30
0
0
SEQEND
8
ENGRAVE
0
POLYLINE
8
ENGRAVE
66
1
70
1
10
0
20
0
30
0
0
VERTEX
8
ENGRAVE
10
438.304
20
86.008
30
0
0
VERTEX
8
ENGRAVE
10
438.596
20
86.008
30
0
0
VERTEX
8
ENGRAVE
10
438.971
20
85.883
30
0
0
VERTEX
8
ENGRAVE
10
439.179
20
85.717
30
0
0
VERTEX
8
ENGRAVE
10
439.429
20
85.258
30
0
0
VERTEX
8
ENGRAVE
10
439.387
20
85.092
30
0
0
VERTEX
8
ENGRAVE
10
439.096
20
85.050
30
0
0
VERTEX
8
ENGRAVE
10
439.054
20
85.300
30
0
0
VERTEX
8
ENGRAVE
10
438.846
20
85.592
30
0
0
VERTEX
8
ENGRAVE
10
438.596
20
85.717
30
0
0
VERTEX
8
ENGRAVE
10
438.262
20
85.717
30
0
0
VERTEX
8
ENGRAVE
10
438.012
20
85.592
30
0
0
VERTEX
8
ENGRAVE
10
437.762
20
85.217
30
0
0
VERTEX
8
ENGRAVE
10
437.679
20
84.342
30
0
0
VERTEX
8
ENGRAVE
10
437.804
20
83.883
30
0
0
VERTEX
8
ENGRAVE
10
438.012
20
83.592
30
0
0
VERTEX
8
ENGRAVE
10
438.262
20
83.467
30
0
0
VERTEX
8
ENGRAVE
10
438.721
20
83.508
30
0
0
VERTEX
8
ENGRAVE
10
438.971
20
83.717
30
0
0
VERTEX
8
ENGRAVE
10
439.096
20
84.133
30
0
0
VERTEX
8
ENGRAVE
10
439.429
20
84.092
30
0
0
VERTEX
8
ENGRAVE
10
439.387
20
83.842
30
0
0
VERTEX
8
ENGRAVE
10
439.179
20
83.467
30
0
0
VERTEX
8
ENGRAVE
10
438.637
20
83.175
30
0
0
VERTEX
8
ENGRAVE
10
438.221
20
83.175
30
0
0
VERTEX
8
ENGRAVE
10
437.804
20
83.342
30
0
0
VERTEX
8
ENGRAVE
10
437.471
20
83.758
30
0
0
VERTEX
8
ENGRAVE
10
437.304
20
84.300
30
0
0
VERTEX
8
ENGRAVE
10
437.304
20
84.925
30
0
0
VERTEX
8
ENGRAVE
10
437.512
20
85.508
30
0
0
VERTEX
8
ENGRAVE
10
437.887
20
85.883
30
0
0
SEQEND
8
ENGRAVE
0
POLYLINE
8
ENGRAVE
66
1
70
1
10
0
20
0
30
0
0
VERTEX
8
ENGRAVE
10
440.762
20
86.008
30
0
0
VERTEX
8
ENGRAVE
10
441.429
20
85.883
30
0
0
VERTEX
8
ENGRAVE
10
441.804
20
85.425
30
0
0
VERTEX
8
ENGRAVE
10
441.471
20
85.300
30
0
0
VERTEX
8
ENGRAVE
10
441.429
20
85.467
30
0
0
VERTEX
8
ENGRAVE
10
441.262
20
85.633
30
0
0
VERTEX
8
ENGRAVE
10
440.721
20
85.717
30
0
0
VERTEX
8
ENGRAVE
10
440.346
20
85.467
30
0
0
VERTEX
8
ENGRAVE
10
440.179
20
85.133
30
0
0
VERTEX
8
ENGRAVE
10
440.137
20
84.550
30
0
0
VERTEX
8
ENGRAVE
10
440.429
20
84.883
30
0
0
VERTEX
8
ENGRAVE
10
440.596
20
84.967
30
0
0
VERTEX
8
ENGRAVE
10
441.137
20
85.008
30
0
0
VERTEX
8
ENGRAVE
10
441.512
20
84.842
30
0
0
VERTEX
8
ENGRAVE
10
441.804
20
84.425
30
0
0
VERTEX
8
ENGRAVE
10
441.846
20
83.967
30
0
0
VERTEX
8
ENGRAVE
10
441.679
20
83.550
30
0
0
VERTEX
8
ENGRAVE
10
441.471
20
83.342
30
0
0
VERTEX
8
ENGRAVE
10
441.096
20
83.175
30
0
0
VERTEX
8
ENGRAVE
10
440.637
20
83.175
30
0
0
VERTEX
8
ENGRAVE
10
440.304
20
83.300
30
0
0
VERTEX
8
ENGRAVE
10
440.012
20
83.592
30
0
0
VERTEX
8
ENGRAVE
10
439.804
20
84.175
30
0
0
VERTEX
8
ENGRAVE
10
439.804
20
84.925
30
0
0
VERTEX
8
ENGRAVE
10
440.012
20
85.508
30
0
0
VERTEX
8
ENGRAVE
10
440.304
20
85.842
30
0
0
SEQEND
8
ENGRAVE
0
POLYLINE
8
ENGRAVE
66
1
70
1
10
0
20
0
30
0
0
VERTEX
8
ENGRAVE
10
440.721
20
84.717
30
0
0
VERTEX
8
ENGRAVE
10
440.471
20
84.633
30
0
0
VERTEX
8
ENGRAVE
10
440.304
20
84.467
30
0
0
VERTEX
8
ENGRAVE
10
440.179
20
84.175
30
0
0
VERTEX
8
ENGRAVE
10
440.221
20
83.842
30
0
0
VERTEX
8
ENGRAVE
10
440.637
20
83.467
30
0
0
VERTEX
8
ENGRAVE
10
441.054
20
83.467
30
0
0
VERTEX
8
ENGRAVE
10
441.387
20
83.675
30
0
0
VERTEX
8
ENGRAVE
10
441.512
20
83.967
30
0
0
VERTEX
8
ENGRAVE
10
441.512
20
84.258
30
0
0
VERTEX
8
ENGRAVE
10
441.262
20
84.633
30
0
0
VERTEX
8
ENGRAVE
10
441.096
20
84.717
30
0
0
SEQEND
8
ENGRAVE
0
POLYLINE
8
ENGRAVE
66
1
70
1
10
0
20
0
30
0
0
VERTEX
8
ENGRAVE
10
411.933
20
29.315
30
0
0
VERTEX
8
ENGRAVE
10
412.308
20
29.315
30
0
0
VERTEX
8
ENGRAVE
10
412.766
20
29.148
30
0
0
VERTEX
8
ENGRAVE
10
413.016
20
28.857
30
0
0
VERTEX
8
ENGRAVE
10
413.183
20
28.357
30
0
0
VERTEX
8
ENGRAVE
10
413.183
20
27.523
30
0
0
VERTEX
8
ENGRAVE
10
413.058
20
27.107
30
0
0
VERTEX
8
ENGRAVE
10
412.683
20
26.648
30
0
0
VERTEX
8
ENGRAVE
10
412.266
20
26.482
30
0
0
VERTEX
8
ENGRAVE
10
411.850
20
26.482
30
0
0
VERTEX
8
ENGRAVE
10
411.600
20
26.565
30
0
0
VERTEX
8
ENGRAVE
10
411.225
20
26.982
30
0
0
VERTEX
8
ENGRAVE
10
411.266
20
27.065
30
0
0
VERTEX
8
ENGRAVE
10
411.516
20
27.107
30
0
0
VERTEX
8
ENGRAVE
10
411.558
20
26.982
30
0
0
VERTEX
8
ENGRAVE
10
411.850
20
26.773
30
0
0
VERTEX
8
ENGRAVE
10
412.350
20
26.773
30
0
0
VERTEX
8
ENGRAVE
10
412.641
20
26.982
30
0
0
VERTEX
8
ENGRAVE
10
412.808
20
27.315
30
0
0
VERTEX
8
ENGRAVE
10
412.891
20
27.940
30
0
0
VERTEX
8
ENGRAVE
10
412.433
20
27.523
30
0
0
VERTEX
8
ENGRAVE
10
411.850
20
27.482
30
0
0
VERTEX
8
ENGRAVE
10
411.558
20
27.607
30
0
0
VERTEX
8
ENGRAVE
10
411.183
20
28.107
30
0
0
VERTEX
8
ENGRAVE
10
411.183
20
28.648
30
0
0
VERTEX
8
ENGRAVE
10
411.266
20
28.857
30
0
0
VERTEX
8
ENGRAVE
10
411.475
20
29.107
30
0
0
SEQEND
8
ENGRAVE
0
POLYLINE
8
ENGRAVE
66
1
70
1
10
0
20
0
30
0
0
VERTEX
8
ENGRAVE
10
408.683
20
29.273
30
0
0
VERTEX
8
ENGRAVE
10
409.016
20
29.273
30
0
0
VERTEX
8
ENGRAVE
10
409.016
20
28.148
30
0
0
VERTEX
8
ENGRAVE
10
410.308
20
28.148
30
0
0
VERTEX
8
ENGRAVE
10
410.308
20
29.273
30
0
0
VERTEX
8
ENGRAVE
10
410.641
20
29.273
30
0
0
VERTEX
8
ENGRAVE
10
410.641
20
26.523
30
0
0
VERTEX
8
ENGRAVE
10
410.308
20
26.523
30
0
0
VERTEX
8
ENGRAVE
10
410.308
20
27.815
30
0
0
VERTEX
8
ENGRAVE
10
409.016
20
27.815
30
0
0
VERTEX
8
ENGRAVE
10
409.016
20
26.523
30
0
0
VERTEX
8
ENGRAVE
10
408.683
20
26.523
30
0
0
SEQEND
8
ENGRAVE
0
POLYLINE
8
ENGRAVE
66
1
70
1
10
0
20
0
30
0
0
VERTEX
8
ENGRAVE
10
412.058
20
29.023
30
0
0
VERTEX
8
ENGRAVE
10
411.766
20
28.940
30
0
0
VERTEX
8
ENGRAVE
10
411.600
20
28.773
30
0
0
VERTEX
8
ENGRAVE
10
411.516
20
28.607
30
0
0
VERTEX
8
ENGRAVE
10
411.516
20
28.148
30
0
0
VERTEX
8
ENGRAVE
10
411.808
20
27.815
30
0
0
VERTEX
8
ENGRAVE
10
412.391
20
27.773
30
0
0
VERTEX
8
ENGRAVE
10
412.683
20
27.982
30
0
0
VERTEX
8
ENGRAVE
10
412.808
20
28.232
30
0
0
VERTEX
8
ENGRAVE
10
412.808
20
28.565
30
0
0
VERTEX
8
ENGRAVE
10
412.558
20
28.940
30
0
0
SEQEND
8
ENGRAVE
0
POLYLINE
8
ENGRAVE
66
1
70
1
10
0
20
0
30
0
0
VERTEX
8
ENGRAVE
10
390.157
20
276.696
30
0
0
VERTEX
8
ENGRAVE
10
390.157
20
276.404
30
0
0
VERTEX
8
ENGRAVE
10
390.032
20
276.029
30
0
0
VERTEX
8
ENGRAVE
10
389.866
20
275.821
30
0
0
VERTEX
8
ENGRAVE
10
389.407
20
275.571
30
0
0
VERTEX
8
ENGRAVE
10
389.241
20
275.613
30
0
0
VERTEX
8
ENGRAVE
10
389.199
20
275.904
30
0
0
VERTEX
8
ENGRAVE
10
389.449
20
275.946
30
0
0
VERTEX
8
ENGRAVE
10
389.741
20
276.154
30
0
0
VERTEX
8
ENGRAVE
10
389.866
20
276.404
30
0
0
VERTEX
8
ENGRAVE
10
389.866
20
276.738
30
0
0
VERTEX
8
ENGRAVE
10
389.741
20
276.988
30
0
0
VERTEX
8
ENGRAVE
10
389.366
20
277.238
30
0
0
VERTEX
8
ENGRAVE
10
388.491
20
277.321
30
0
0
VERTEX
8
ENGRAVE
10
388.032
20
277.196
30
0
0
VERTEX
8
ENGRAVE
10
387.741
20
276.988
30
0
0
VERTEX
8
ENGRAVE
10
387.616
20
276.738
30
0
0
VERTEX
8
ENGRAVE
10
387.657
20
276.279
30
0
0
VERTEX
8
ENGRAVE
10
387.866
20
276.029
30
0
0
VERTEX
8
ENGRAVE
10
388.282
20
275.904
30
0
0
VERTEX
8
ENGRAVE
10
388.241
20
275.571
30
0
0
VERTEX
8
ENGRAVE
10
387.991
20
275.613
30
0
0
VERTEX
8
ENGRAVE
10
387.616
20
275.821
30
0
0
VERTEX
8
ENGRAVE
10
387.324
20
276.363
30
0
0
VERTEX
8
ENGRAVE
10
387.324
20
276.779
30
0
0
VERTEX
8
ENGRAVE
10
387.491
20
277.196
30
0
0
VERTEX
8
ENGRAVE
10
387.907
20
277.529
30
0
0
VERTEX
8
ENGRAVE
10
388.449
20
277.696
30
0
0
VERTEX
8
ENGRAVE
10
389.074
20
277.696
30
0
0
VERTEX
8
ENGRAVE
10
389.657
20
277.488
30
0
0
VERTEX
8
ENGRAVE
10
390.032
20
277.113
30
0
0
SEQEND
8
ENGRAVE
0
POLYLINE
8
ENGRAVE
66
1
70
1
10
0
20
0
30
0
0
VERTEX
8
ENGRAVE
10
390.116
20
275.071
30
0
0
VERTEX
8
ENGRAVE
10
390.074
20
273.238
30
0
0
VERTEX
8
ENGRAVE
10
389.824
20
273.279
30
0
0
VERTEX
8
ENGRAVE
10
389.324
20
273.696
30
0
0
VERTEX
8
ENGRAVE
10
388.741
20
273.988
30
0
0
VERTEX
8
ENGRAVE
10
387.991
20
274.196
30
0
0
VERTEX
8
ENGRAVE
10
387.366
20
274.238
30
0
0
VERTEX
8
ENGRAVE
10
387.366
20
274.571
30
0
0
VERTEX
8
ENGRAVE
10
388.074
20
274.529
30
0
0
VERTEX
8
ENGRAVE
10
388.741
20
274.321
30
0
0
VERTEX
8
ENGRAVE
10
389.824
20
273.654
30
0
0
VERTEX
8
ENGRAVE
10
389.824
20
275.113
30
0
0
SEQEND
8
ENGRAVE
0
POLYLINE
8
ENGRAVE
66
1
70
1
10
0
20
0
30
0
0
VERTEX
8
ENGRAVE
10
415.657
20
276.696
30
0
0
VERTEX
8
ENGRAVE
10
415.657
20
276.404
30
0
0
VERTEX
8
ENGRAVE
10
415.532
20
276.029
30
0
0
VERTEX
8
ENGRAVE
10
415.366
20
275.821
30
0
0
VERTEX
8
ENGRAVE
10
414.907
20
275.571
30
0
0
VERTEX
8
ENGRAVE
10
414.741
20
275.613
30
0
0
VERTEX
8
ENGRAVE
10
414.699
20
275.904
30
0
0
VERTEX
8
ENGRAVE
10
414.949
20
275.946
30
0
0
VERTEX
8
ENGRAVE
10
415.241
20
276.154
30
0
0
VERTEX
8
ENGRAVE
10
415.366
20
276.404
30
0
0
VERTEX
8
ENGRAVE
10
415.366
20
276.738
30
0
0
VERTEX
8
ENGRAVE
10
415.241
20
276.988
30
0
0
VERTEX
8
ENGRAVE
10
414.866
20
277.238
30
0
0
VERTEX
8
ENGRAVE
10
413.991
20
277.321
30
0
0
VERTEX
8
ENGRAVE
10
413.532
20
277.196
30
0
0
VERTEX
8
ENGRAVE
10
413.241
20
276.988
30
0
0
VERTEX
8
ENGRAVE
10
413.116
20
276.738
30
0
0
VERTEX
8
ENGRAVE
10
413.157
20
276.279
30
0
0
VERTEX
8
ENGRAVE
10
413.366
20
276.029
30
0
0
VERTEX
8
ENGRAVE
10
413.782
20
275.904
30
0
0
VERTEX
8
ENGRAVE
10
413.741
20
275.571
30
0
0
VERTEX
8
ENGRAVE
10
413.491
20
275.613
30
0
0
VERTEX
8
ENGRAVE
10
413.116
20
275.821
30
0
0
VERTEX
8
ENGRAVE
10
412.824
20
276.363
30
0
0
VERTEX
8
ENGRAVE
10
412.824
20
276.779
30
0
0
VERTEX
8
ENGRAVE
10
412.991
20
277.196
30
0
0
VERTEX
8
ENGRAVE
10
413.407
20
277.529
30
0
0
VERTEX
8
ENGRAVE
10
413.949
20
277.696
30
0
0
VERTEX
8
ENGRAVE
10
414.574
20
277.696
30
0
0
VERTEX
8
ENGRAVE
10
415.157
20
277.488
30
0
0
VERTEX
8
ENGRAVE
10
415.532
20
277.113
30
0
0
SEQEND
8
ENGRAVE
0
POLYLINE
8
ENGRAVE
66
1
70
1
10
0
20
0
30
0
0
VERTEX
8
ENGRAVE
10
415.616
20
275.071
30
0
0
VERTEX
8
ENGRAVE
10
415.574
20
273.238
30
0
0
VERTEX
8
ENGRAVE
10
415.324
20
273.279
30
0
0
VERTEX
8
ENGRAVE
10
414.824
20
273.696
30
0
0
VERTEX
8
ENGRAVE
10
414.241
20
273.988
30
0
0
VERTEX
8
ENGRAVE
10
413.491
20
274.196
30
0
0
VERTEX
8
ENGRAVE
10
412.866
20
274.238
30
0
0
VERTEX
8
ENGRAVE
10
412.866
20
274.571
30
0
0
VERTEX
8
ENGRAVE
10
413.574
20
274.529
30
0
0
VERTEX
8
ENGRAVE
10
414.241
20
274.321
30
0
0
VERTEX
8
ENGRAVE
10
415.324
20
273.654
30
0
0
VERTEX
8
ENGRAVE
10
415.324
20
275.113
30
0
0
SEQEND
8
ENGRAVE
0
POLYLINE
8
ENGRAVE
66
1
70
1
10
0
20
0
30
0
0
VERTEX
8
ENGRAVE
10
331.157
20
165.196
30
0
0
VERTEX
8
ENGRAVE
10
331.157
20
164.904
30
0
0
VERTEX
8
ENGRAVE
10
331.032
20
164.529
30
0
0
VERTEX
8
ENGRAVE
10
330.866
20
164.321
30
0
0
VERTEX
8
ENGRAVE
10
330.407
20
164.071
30
0
0
VERTEX
8
ENGRAVE
10
330.241
20
164.113
30
0
0
VERTEX
8
ENGRAVE
10
330.199
20
164.404
30
0
0
VERTEX
8
ENGRAVE
10
330.449
20
164.446
30
0
0
VERTEX
8
ENGRAVE
10
330.741
20
164.654
30
0
0
VERTEX
8
ENGRAVE
10
330.866
20
164.904
30
0
0
VERTEX
8
ENGRAVE
10
330.866
20
165.238
30
0
0
VERTEX
8
ENGRAVE
10
330.741
20
165.488
30
0
0
VERTEX
8
ENGRAVE
10
330.366
20
165.738
30
0
0
VERTEX
8
ENGRAVE
10
329.491
20
165.821
30
0
0
VERTEX
8
ENGRAVE
10
329.032
20
165.696
30
0
0
VERTEX
8
ENGRAVE
10
328.741
20
165.488
30
0
0
VERTEX
8
ENGRAVE
10
328.616
20
165.238
30
0
0
VERTEX
8
ENGRAVE
10
328.657
20
164.779
30
0
0
VERTEX
8
ENGRAVE
10
328.866
20
164.529
30
0
0
VERTEX
8
ENGRAVE
10
329.282
20
164.404
30
0
0
VERTEX
8
ENGRAVE
10
329.241
20
164.071
30
0
0
VERTEX
8
ENGRAVE
10
328.991
20
164.113
30
0
0
VERTEX
8
ENGRAVE
10
328.616
20
164.321
30
0
0
VERTEX
8
ENGRAVE
10
328.324
20
164.863
30
0
0
VERTEX
8
ENGRAVE
10
328.324
20
165.279
30
0
0
VERTEX
8
ENGRAVE
10
328.491
20
165.696
30
0
0
VERTEX
8
ENGRAVE
10
328.907
20
166.029
30
0
0
VERTEX
8
ENGRAVE
10
329.449
20
166.196
30
0
0
VERTEX
8
ENGRAVE
10
330.074
20
166.196
30
0
0
VERTEX
8
ENGRAVE
10
330.657
20
165.988
30
0
0
VERTEX
8
ENGRAVE
10
331.032
20
165.613
30
0
0
SEQEND
8
ENGRAVE
0
POLYLINE
8
ENGRAVE
66
1
70
1
10
0
20
0
30
0
0
VERTEX
8
ENGRAVE
10
331.116
20
163.571
30
0
0
VERTEX
8
ENGRAVE
10
331.074
20
161.738
30
0
0
VERTEX
8
ENGRAVE
10
330.824
20
161.779
30
0
0
VERTEX
8
ENGRAVE
10
330.324
20
162.196
30
0
0
VERTEX
8
ENGRAVE
10
329.741
20
162.488
30
0
0
VERTEX
8
ENGRAVE
10
328.991
20
162.696
30
0
0
VERTEX
8
ENGRAVE
10
328.366
20
162.738
30
0
0
VERTEX
8
ENGRAVE
10
328.366
20
163.071
30
0
0
VERTEX
8
ENGRAVE
10
329.074
20
163.029
30
0
0
VERTEX
8
ENGRAVE
10
329.741
20
162.821
30
0
0
VERTEX
8
ENGRAVE
10
330.824
20
162.154
30
0
0
VERTEX
8
ENGRAVE
10
330.824
20
163.613
30
0
0
SEQEND
8
ENGRAVE
0
POLYLINE
8
ENGRAVE
66
1
70
1
10
0
20
0
30
0
0
VERTEX
8
ENGRAVE
10
353.033
20
167.404
30
0
0
VERTEX
8
ENGRAVE
10
353.033
20
167.071
30
0
0
VERTEX
8
ENGRAVE
10
352.867
20
166.654
30
0
0
VERTEX
8
ENGRAVE
10
352.575
20
166.404
30
0
0
VERTEX
8
ENGRAVE
10
352.283
20
166.279
30
0
0
VERTEX
8
ENGRAVE
10
352.117
20
166.279
30
0
0
VERTEX
8
ENGRAVE
10
352.075
20
166.571
30
0
0
VERTEX
8
ENGRAVE
10
352.492
20
166.738
30
0
0
VERTEX
8
ENGRAVE
10
352.742
20
167.113
30
0
0
VERTEX
8
ENGRAVE
10
352.658
20
167.613
30
0
0
VERTEX
8
ENGRAVE
10
352.325
20
167.904
30
0
0
VERTEX
8
ENGRAVE
10
351.700
20
168.029
30
0
0
VERTEX
8
ENGRAVE
10
351.200
20
167.988
30
0
0
VERTEX
8
ENGRAVE
10
350.783
20
167.821
30
0
0
VERTEX
8
ENGRAVE
10
350.575
20
167.613
30
0
0
VERTEX
8
ENGRAVE
10
350.492
20
167.446
30
0
0
VERTEX
8
ENGRAVE
10
350.492
20
167.071
30
0
0
VERTEX
8
ENGRAVE
10
350.783
20
166.696
30
0
0
VERTEX
8
ENGRAVE
10
351.158
20
166.571
30
0
0
VERTEX
8
ENGRAVE
10
351.117
20
166.279
30
0
0
VERTEX
8
ENGRAVE
10
350.825
20
166.321
30
0
0
VERTEX
8
ENGRAVE
10
350.533
20
166.488
30
0
0
VERTEX
8
ENGRAVE
10
350.200
20
167.029
30
0
0
VERTEX
8
ENGRAVE
10
350.242
20
167.654
30
0
0
VERTEX
8
ENGRAVE
10
350.492
20
168.029
30
0
0
VERTEX
8
ENGRAVE
10
350.908
20
168.279
30
0
0
VERTEX
8
ENGRAVE
10
351.408
20
168.404
30
0
0
VERTEX
8
ENGRAVE
10
352.075
20
168.363
30
0
0
VERTEX
8
ENGRAVE
10
352.533
20
168.196
30
0
0
VERTEX
8
ENGRAVE
10
352.950
20
167.738
30
0
0
SEQEND
8
ENGRAVE
0
POLYLINE
8
ENGRAVE
66
1
70
1
10
0
20
0
30
0
0
VERTEX
8
ENGRAVE
10
353.033
20
162.613
30
0
0
VERTEX
8
ENGRAVE
10
352.992
20
162.113
30
0
0
VERTEX
8
ENGRAVE
10
352.825
20
161.779
30
0
0
VERTEX
8
ENGRAVE
10
352.450
20
161.529
30
0
0
VERTEX
8
ENGRAVE
10
351.950
20
161.529
30
0
0
VERTEX
8
ENGRAVE
10
351.367
20
161.904
30
0
0
VERTEX
8
ENGRAVE
10
351.367
20
161.988
30
0
0
VERTEX
8
ENGRAVE
10
351.117
20
162.196
30
0
0
VERTEX
8
ENGRAVE
10
350.533
20
162.988
30
0
0
VERTEX
8
ENGRAVE
10
350.533
20
161.529
30
0
0
VERTEX
8
ENGRAVE
10
350.242
20
161.488
30
0
0
VERTEX
8
ENGRAVE
10
350.242
20
163.446
30
0
0
VERTEX
8
ENGRAVE
10
350.533
20
163.446
30
0
0
VERTEX
8
ENGRAVE
10
351.283
20
162.446
30
0
0
VERTEX
8
ENGRAVE
10
351.742
20
161.988
30
0
0
VERTEX
8
ENGRAVE
10
352.033
20
161.863
30
0
0
VERTEX
8
ENGRAVE
10
352.367
20
161.863
30
0
0
VERTEX
8
ENGRAVE
10
352.533
20
161.946
30
0
0
VERTEX
8
ENGRAVE
10
352.742
20
162.279
30
0
0
VERTEX
8
ENGRAVE
10
352.742
20
162.696
30
0
0
VERTEX
8
ENGRAVE
10
352.658
20
162.863
30
0
0
VERTEX
8
ENGRAVE
10
352.408
20
163.071
30
0
0
VERTEX
8
ENGRAVE
10
352.117
20
163.154
30
0
0
VERTEX
8
ENGRAVE
10
352.200
20
163.446
30
0
0
VERTEX
8
ENGRAVE
10
352.617
20
163.321
30
0
0
VERTEX
8
ENGRAVE
10
352.950
20
162.946
30
0
0
SEQEND
8
ENGRAVE
0
POLYLINE
8
ENGRAVE
66
1
70
1
10
0
20
0
30
0
0
VERTEX
8
ENGRAVE
10
352.992
20
164.904
30
0
0
VERTEX
8
ENGRAVE
10
352.992
20
164.613
30
0
0
VERTEX
8
ENGRAVE
10
350.492
20
164.613
30
0
0
VERTEX
8
ENGRAVE
10
350.492
20
163.863
30
0
0
VERTEX
8
ENGRAVE
10
350.242
20
163.863
30
0
0
VERTEX
8
ENGRAVE
10
350.242
20
165.779
30
0
0
VERTEX
8
ENGRAVE
10
350.492
20
165.779
30
0
0
VERTEX
8
ENGRAVE
10
350.492
20
164.946
30
0
0
VERTEX
8
ENGRAVE
10
352.533
20
164.946
30
0
0
VERTEX
8
ENGRAVE
10
351.992
20
165.654
30
0
0
VERTEX
8
ENGRAVE
10
352.367
20
165.696
30
0
0
VERTEX
8
ENGRAVE
10
352.533
20
165.321
30
0
0
VERTEX
8
ENGRAVE
10
352.908
20
164.904
30
0
0
SEQEND
8
ENGRAVE
0
POLYLINE
8
ENGRAVE
66
1
70
1
10
0
20
0
30
0
0
VERTEX
8
ENGRAVE
10
377.033
20
167.404
30
0
0
VERTEX
8
ENGRAVE
10
377.033
20
167.071
30
0
0
VERTEX
8
ENGRAVE
10
376.867
20
166.654
30
0
0
VERTEX
8
ENGRAVE
10
376.575
20
166.404
30
0
0
VERTEX
8
ENGRAVE
10
376.283
20
166.279
30
0
0
VERTEX
8
ENGRAVE
10
376.117
20
166.279
30
0
0
VERTEX
8
ENGRAVE
10
376.075
20
166.571
30
0
0
VERTEX
8
ENGRAVE
10
376.492
20
166.738
30
0
0
VERTEX
8
ENGRAVE
10
376.742
20
167.113
30
0
0
VERTEX
8
ENGRAVE
10
376.658
20
167.613
30
0
0
VERTEX
8
ENGRAVE
10
376.325
20
167.904
30
0
0
VERTEX
8
ENGRAVE
10
375.700
20
168.029
30
0
0
VERTEX
8
ENGRAVE
10
375.200
20
167.988
30
0
0
VERTEX
8
ENGRAVE
10
374.783
20
167.821
30
0
0
VERTEX
8
ENGRAVE
10
374.575
20
167.613
30
0
0
VERTEX
8
ENGRAVE
10
374.492
20
167.446
30
0
0
VERTEX
8
ENGRAVE
10
374.492
20
167.071
30
0
0
VERTEX
8
ENGRAVE
10
374.783
20
166.696
30
0
0
VERTEX
8
ENGRAVE
10
375.158
20
166.571
30
0
0
VERTEX
8
ENGRAVE
10
375.117
20
166.279
30
0
0
VERTEX
8
ENGRAVE
10
374.825
20
166.321
30
0
0
VERTEX
8
ENGRAVE
10
374.533
20
166.488
30
0
0
VERTEX
8
ENGRAVE
10
374.200
20
167.029
30
0
0
VERTEX
8
ENGRAVE
10
374.242
20
167.654
30
0
0
VERTEX
8
ENGRAVE
10
374.492
20
168.029
30
0
0
VERTEX
8
ENGRAVE
10
374.908
20
168.279
30
0
0
VERTEX
8
ENGRAVE
10
375.408
20
168.404
30
0
0
VERTEX
8
ENGRAVE
10
376.075
20
168.363
30
0
0
VERTEX
8
ENGRAVE
10
376.533
20
168.196
30
0
0
VERTEX
8
ENGRAVE
10
376.950
20
167.738
30
0
0
SEQEND
8
ENGRAVE
0
POLYLINE
8
ENGRAVE
66
1
70
1
10
0
20
0
30
0
0
VERTEX
8
ENGRAVE
10
377.033
20
162.613
30
0
0
VERTEX
8
ENGRAVE
10
376.992
20
162.113
30
0
0
VERTEX
8
ENGRAVE
10
376.825
20
161.779
30
0
0
VERTEX
8
ENGRAVE
10
376.450
20
161.529
30
0
0
VERTEX
8
ENGRAVE
10
375.950
20
161.529
30
0
0
VERTEX
8
ENGRAVE
10
375.367
20
161.904
30
0
0
VERTEX
8
ENGRAVE
10
375.367
20
161.988
30
0
0
VERTEX
8
ENGRAVE
10
375.117
20
162.196
30
0
0
VERTEX
8
ENGRAVE
10
374.533
20
162.988
30
0
0
VERTEX
8
ENGRAVE
10
374.533
20
161.529
30
0
0
VERTEX
8
ENGRAVE
10
374.242
20
161.488
30
0
0
VERTEX
8
ENGRAVE
10
374.242
20
163.446
30
0
0
VERTEX
8
ENGRAVE
10
374.533
20
163.446
30
0
0
VERTEX
8
ENGRAVE
10
375.283
20
162.446
30
0
0
VERTEX
8
ENGRAVE
10
375.742
20
161.988
30
0
0
VERTEX
8
ENGRAVE
10
376.033
20
161.863
30
0
0
VERTEX
8
ENGRAVE
10
376.367
20
161.863
30
0
0
VERTEX
8
ENGRAVE
10
376.533
20
161.946
30
0
0
VERTEX
8
ENGRAVE
10
376.742
20
162.279
30
0
0
VERTEX
8
ENGRAVE
10
376.742
20
162.696
30
0
0
VERTEX
8
ENGRAVE
10
376.658
20
162.863
30
0
0
VERTEX
8
ENGRAVE
10
376.408
20
163.071
30
0
0
VERTEX
8
ENGRAVE
10
376.117
20
163.154
30
0
0
VERTEX
8
ENGRAVE
10
376.200
20
163.446
30
0
0
VERTEX
8
ENGRAVE
10
376.617
20
163.321
30
0
0
VERTEX
8
ENGRAVE
10
376.950
20
162.946
30
0
0
SEQEND
8
ENGRAVE
0
POLYLINE
8
ENGRAVE
66
1
70
1
10
0
20
0
30
0
0
VERTEX
8
ENGRAVE
10
376.992
20
164.904
30
0
0
VERTEX
8
ENGRAVE
10
376.992
20
164.613
30
0
0
VERTEX
8
ENGRAVE
10
374.492
20
164.613
30
0
0
VERTEX
8
ENGRAVE
10
374.492
20
163.863
30
0
0
VERTEX
8
ENGRAVE
10
374.242
20
163.863
30
0
0
VERTEX
8
ENGRAVE
10
374.242
20
165.779
30
0
0
VERTEX
8
ENGRAVE
10
374.492
20
165.779
30
0
0
VERTEX
8
ENGRAVE
10
374.492
20
164.946
30
0
0
VERTEX
8
ENGRAVE
10
376.533
20
164.946
30
0
0
VERTEX
8
ENGRAVE
10
375.992
20
165.654
30
0
0
VERTEX
8
ENGRAVE
10
376.367
20
165.696
30
0
0
VERTEX
8
ENGRAVE
10
376.533
20
165.321
30
0
0
VERTEX
8
ENGRAVE
10
376.908
20
164.904
30
0
0
SEQEND
8
ENGRAVE
0
POLYLINE
8
ENGRAVE
66
1
70
1
10
0
20
0
30
0
0
VERTEX
8
ENGRAVE
10
184.096
20
159.383
30
0
0
VERTEX
8
ENGRAVE
10
184.429
20
159.383
30
0
0
VERTEX
8
ENGRAVE
10
184.846
20
159.217
30
0
0
VERTEX
8
ENGRAVE
10
185.096
20
158.925
30
0
0
VERTEX
8
ENGRAVE
10
185.221
20
158.633
30
0
0
VERTEX
8
ENGRAVE
10
185.221
20
158.467
30
0
0
VERTEX
8
ENGRAVE
10
184.929
20
158.425
30
0
0
VERTEX
8
ENGRAVE
10
184.762
20
158.842
30
0
0
VERTEX
8
ENGRAVE
10
184.387
20
159.092
30
0
0
VERTEX
8
ENGRAVE
10
183.887
20
159.008
30
0
0
VERTEX
8
ENGRAVE
10
183.596
20
158.675
30
0
0
VERTEX
8
ENGRAVE
10
183.471
20
158.050
30
0
0
VERTEX
8
ENGRAVE
10
183.512
20
157.550
30
0
0
VERTEX
8
ENGRAVE
10
183.679
20
157.133
30
0
0
VERTEX
8
ENGRAVE
10
183.887
20
156.925
30
0
0
VERTEX
8
ENGRAVE
10
184.054
20
156.842
30
0
0
VERTEX
8
ENGRAVE
10
184.429
20
156.842
30
0
0
VERTEX
8
ENGRAVE
10
184.804
20
157.133
30
0
0
VERTEX
8
ENGRAVE
10
184.929
20
157.508
30
0
0
VERTEX
8
ENGRAVE
10
185.221
20
157.467
30
0
0
VERTEX
8
ENGRAVE
10
185.179
20
157.175
30
0
0
VERTEX
8
ENGRAVE
10
185.012
20
156.883
30
0
0
VERTEX
8
ENGRAVE
10
184.471
20
156.550
30
0
0
VERTEX
8
ENGRAVE
10
183.846
20
156.592
30
0
0
VERTEX
8
ENGRAVE
10
183.471
20
156.842
30
0
0
VERTEX
8
ENGRAVE
10
183.221
20
157.258
30
0
0
VERTEX
8
ENGRAVE
10
183.096
20
157.758
30
0
0
VERTEX
8
ENGRAVE
10
183.137
20
158.425
30
0
0
VERTEX
8
ENGRAVE
10
183.304
20
158.883
30
0
0
VERTEX
8
ENGRAVE
10
183.762
20
159.300
30
0
0
SEQEND
8
ENGRAVE
0
POLYLINE
8
ENGRAVE
66
1
70
1
10
0
20
0
30
0
0
VERTEX
8
ENGRAVE
10
188.887
20
159.383
30
0
0
VERTEX
8
ENGRAVE
10
189.387
20
159.342
30
0
0
VERTEX
8
ENGRAVE
10
189.721
20
159.175
30
0
0
VERTEX
8
ENGRAVE
10
189.971
20
158.800
30
0
0
VERTEX
8
ENGRAVE
10
189.971
20
158.300
30
0
0
VERTEX
8
ENGRAVE
10
189.596
20
157.717
30
0
0
VERTEX
8
ENGRAVE
10
189.512
20
157.717
30
0
0
VERTEX
8
ENGRAVE
10
189.304
20
157.467
30
0
0
VERTEX
8
ENGRAVE
10
188.512
20
156.883
30
0
0
VERTEX
8
ENGRAVE
10
189.971
20
156.883
30
0
0
VERTEX
8
ENGRAVE
10
190.012
20
156.592
30
0
0
VERTEX
8
ENGRAVE
10
188.054
20
156.592
30
0
0
VERTEX
8
ENGRAVE
10
188.054
20
156.883
30
0
0
VERTEX
8
ENGRAVE
10
189.054
20
157.633
30
0
0
VERTEX
8
ENGRAVE
10
189.512
20
158.092
30
0
0
VERTEX
8
ENGRAVE
10
189.637
20
158.383
30
0
0
VERTEX
8
ENGRAVE
10
189.637
20
158.717
30
0
0
VERTEX
8
ENGRAVE
10
189.554
20
158.883
30
0
0
VERTEX
8
ENGRAVE
10
189.221
20
159.092
30
0
0
VERTEX
8
ENGRAVE
10
188.804
20
159.092
30
0
0
VERTEX
8
ENGRAVE
10
188.637
20
159.008
30
0
0
VERTEX
8
ENGRAVE
10
188.429
20
158.758
30
0
0
VERTEX
8
ENGRAVE
10
188.346
20
158.467
30
0
0
VERTEX
8
ENGRAVE
10
188.054
20
158.550
30
0
0
VERTEX
8
ENGRAVE
10
188.179
20
158.967
30
0
0
VERTEX
8
ENGRAVE
10
188.554
20
159.300
30
0
0
SEQEND
8
ENGRAVE
0
POLYLINE
8
ENGRAVE
66
1
70
1
10
0
20
0
30
0
0
VERTEX
8
ENGRAVE
10
186.596
20
159.342
30
0
0
VERTEX
8
ENGRAVE
10
186.887
20
159.342
30
0
0
VERTEX
8
ENGRAVE
10
186.887
20
156.842
30
0
0
VERTEX
8
ENGRAVE
10
187.637
20
156.842
30
0
0
VERTEX
8
ENGRAVE
10
187.637
20
156.592
30
0
0
VERTEX
8
ENGRAVE
10
185.721
20
156.592
30
0
0
VERTEX
8
ENGRAVE
10
185.721
20
156.842
30
0
0
VERTEX
8
ENGRAVE
10
186.554
20
156.842
30
0
0
VERTEX
8
ENGRAVE
10
186.554
20
158.883
30
0
0
VERTEX
8
ENGRAVE
10
185.846
20
158.342
30
0
0
VERTEX
8
ENGRAVE
10
185.804
20
158.717
30
0
0
VERTEX
8
ENGRAVE
10
186.179
20
158.883
30
0
0
VERTEX
8
ENGRAVE
10
186.596
20
159.258
30
0
0
SEQEND
8
ENGRAVE
0
POLYLINE
8
ENGRAVE
66
1
70
1
10
0
20
0
30
0
0
VERTEX
8
ENGRAVE
10
183.596
20
135.383
30
0
0
VERTEX
8
ENGRAVE
10
183.929
20
135.383
30
0
0
VERTEX
8
ENGRAVE
10
184.346
20
135.217
30
0
0
VERTEX
8
ENGRAVE
10
184.596
20
134.925
30
0
0
VERTEX
8
ENGRAVE
10
184.721
20
134.633
30
0
0
VERTEX
8
ENGRAVE
10
184.721
20
134.467
30
0
0
VERTEX
8
ENGRAVE
10
184.429
20
134.425
30
0
0
VERTEX
8
ENGRAVE
10
184.262
20
134.842
30
0
0
VERTEX
8
ENGRAVE
10
183.887
20
135.092
30
0
0
VERTEX
8
ENGRAVE
10
183.387
20
135.008
30
0
0
VERTEX
8
ENGRAVE
10
183.096
20
134.675
30
0
0
VERTEX
8
ENGRAVE
10
182.971
20
134.050
30
0
0
VERTEX
8
ENGRAVE
10
183.012
20
133.550
30
0
0
VERTEX
8
ENGRAVE
10
183.179
20
133.133
30
0
0
VERTEX
8
ENGRAVE
10
183.387
20
132.925
30
0
0
VERTEX
8
ENGRAVE
10
183.554
20
132.842
30
0
0
VERTEX
8
ENGRAVE
10
183.929
20
132.842
30
0
0
VERTEX
8
ENGRAVE
10
184.304
20
133.133
30
0
0
VERTEX
8
ENGRAVE
10
184.429
20
133.508
30
0
0
VERTEX
8
ENGRAVE
10
184.721
20
133.467
30
0
0
VERTEX
8
ENGRAVE
10
184.679
20
133.175
30
0
0
VERTEX
8
ENGRAVE
10
184.512
20
132.883
30
0
0
VERTEX
8
ENGRAVE
10
183.971
20
132.550
30
0
0
VERTEX
8
ENGRAVE
10
183.346
20
132.592
30
0
0
VERTEX
8
ENGRAVE
10
182.971
20
132.842
30
0
0
VERTEX
8
ENGRAVE
10
182.721
20
133.258
30
0
0
VERTEX
8
ENGRAVE
10
182.596
20
133.758
30
0
0
VERTEX
8
ENGRAVE
10
182.637
20
134.425
30
0
0
VERTEX
8
ENGRAVE
10
182.804
20
134.883
30
0
0
VERTEX
8
ENGRAVE
10
183.262
20
135.300
30
0
0
SEQEND
8
ENGRAVE
0
POLYLINE
8
ENGRAVE
66
1
70
1
10
0
20
0
30
0
0
VERTEX
8
ENGRAVE
10
186.096
20
135.342
30
0
0
VERTEX
8
ENGRAVE
10
186.387
20
135.342
30
0
0
VERTEX
8
ENGRAVE
10
186.387
20
132.842
30
0
0
VERTEX
8
ENGRAVE
10
187.137
20
132.842
30
0
0
VERTEX
8
ENGRAVE
10
187.137
20
132.592
30
0
0
VERTEX
8
ENGRAVE
10
185.221
20
132.592
30
0
0
VERTEX
8
ENGRAVE
10
185.221
20
132.842
30
0
0
VERTEX
8
ENGRAVE
10
186.054
20
132.842
30
0
0
VERTEX
8
ENGRAVE
10
186.054
20
134.883
30
0
0
VERTEX
8
ENGRAVE
10
185.346
20
134.342
30
0
0
VERTEX
8
ENGRAVE
10
185.304
20
134.717
30
0
0
VERTEX
8
ENGRAVE
10
185.679
20
134.883
30
0
0
VERTEX
8
ENGRAVE
10
186.096
20
135.258
30
0
0
SEQEND
8
ENGRAVE
0
POLYLINE
8
ENGRAVE
66
1
70
1
10
0
20
0
30
0
0
VERTEX
8
ENGRAVE
10
188.679
20
135.342
30
0
0
VERTEX
8
ENGRAVE
10
189.137
20
135.342
30
0
0
VERTEX
8
ENGRAVE
10
189.137
20
133.508
30
0
0
VERTEX
8
ENGRAVE
10
189.596
20
133.508
30
0
0
VERTEX
8
ENGRAVE
10
189.596
20
133.217
30
0
0
VERTEX
8
ENGRAVE
10
189.137
20
133.217
30
0
0
VERTEX
8
ENGRAVE
10
189.137
20
132.592
30
0
0
VERTEX
8
ENGRAVE
10
188.804
20
132.592
30
0
0
VERTEX
8
ENGRAVE
10
188.804
20
133.217
30
0
0
VERTEX
8
ENGRAVE
10
187.429
20
133.258
30
0
0
VERTEX
8
ENGRAVE
10
187.429
20
133.467
30
0
0
SEQEND
8
ENGRAVE
0
POLYLINE
8
ENGRAVE
66
1
70
1
10
0
20
0
30
0
0
VERTEX
8
ENGRAVE
10
188.804
20
135.050
30
0
0
VERTEX
8
ENGRAVE
10
187.887
20
133.675
30
0
0
VERTEX
8
ENGRAVE
10
187.846
20
133.508
30
0
0
VERTEX
8
ENGRAVE
10
188.804
20
133.508
30
0
0
SEQEND
8
ENGRAVE
0
POLYLINE
8
ENGRAVE
66
1
70
1
10
0
20
0
30
0
0
VERTEX
8
ENGRAVE
10
295.096
20
109.383
30
0
0
VERTEX
8
ENGRAVE
10
295.429
20
109.383
30
0
0
VERTEX
8
ENGRAVE
10
295.846
20
109.217
30
0
0
VERTEX
8
ENGRAVE
10
296.096
20
108.925
30
0
0
VERTEX
8
ENGRAVE
10
296.221
20
108.633
30
0
0
VERTEX
8
ENGRAVE
10
296.221
20
108.467
30
0
0
VERTEX
8
ENGRAVE
10
295.929
20
108.425
30
0
0
VERTEX
8
ENGRAVE
10
295.762
20
108.842
30
0
0
VERTEX
8
ENGRAVE
10
295.387
20
109.092
30
0
0
VERTEX
8
ENGRAVE
10
294.887
20
109.008
30
0
0
VERTEX
8
ENGRAVE
10
294.596
20
108.675
30
0
0
VERTEX
8
ENGRAVE
10
294.471
20
108.050
30
0
0
VERTEX
8
ENGRAVE
10
294.512
20
107.550
30
0
0
VERTEX
8
ENGRAVE
10
294.679
20
107.133
30
0
0
VERTEX
8
ENGRAVE
10
294.887
20
106.925
30
0
0
VERTEX
8
ENGRAVE
10
295.054
20
106.842
30
0
0
VERTEX
8
ENGRAVE
10
295.429
20
106.842
30
0
0
VERTEX
8
ENGRAVE
10
295.804
20
107.133
30
0
0
VERTEX
8
ENGRAVE
10
295.929
20
107.508
30
0
0
VERTEX
8
ENGRAVE
10
296.221
20
107.467
30
0
0
VERTEX
8
ENGRAVE
10
296.179
20
107.175
30
0
0
VERTEX
8
ENGRAVE
10
296.012
20
106.883
30
0
0
VERTEX
8
ENGRAVE
10
295.471
20
106.550
30
0
0
VERTEX
8
ENGRAVE
10
294.846
20
106.592
30
0
0
VERTEX
8
ENGRAVE
10
294.471
20
106.842
30
0
0
VERTEX
8
ENGRAVE
10
294.221
20
107.258
30
0
0
VERTEX
8
ENGRAVE
10
294.096
20
107.758
30
0
0
VERTEX
8
ENGRAVE
10
294.137
20
108.425
30
0
0
VERTEX
8
ENGRAVE
10
294.304
20
108.883
30
0
0
VERTEX
8
ENGRAVE
10
294.762
20
109.300
30
0
0
SEQEND
8
ENGRAVE
0
POLYLINE
8
ENGRAVE
66
1
70
1
10
0
20
0
30
0
0
VERTEX
8
ENGRAVE
10
297.596
20
109.342
30
0
0
VERTEX
8
ENGRAVE
10
297.887
20
109.342
30
0
0
VERTEX
8
ENGRAVE
10
297.887
20
106.842
30
0
0
VERTEX
8
ENGRAVE
10
298.637
20
106.842
30
0
0
VERTEX
8
ENGRAVE
10
298.637
20
106.592
30
0
0
VERTEX
8
ENGRAVE
10
296.721
20
106.592
30
0
0
VERTEX
8
ENGRAVE
10
296.721
20
106.842
30
0
0
VERTEX
8
ENGRAVE
10
297.554
20
106.842
30
0
0
VERTEX
8
ENGRAVE
10
297.554
20
108.883
30
0
0
VERTEX
8
ENGRAVE
10
296.846
20
108.342
30
0
0
VERTEX
8
ENGRAVE
10
296.804
20
108.717
30
0
0
VERTEX
8
ENGRAVE
10
297.179
20
108.883
30
0
0
VERTEX
8
ENGRAVE
10
297.596
20
109.258
30
0
0
SEQEND
8
ENGRAVE
0
POLYLINE
8
ENGRAVE
66
1
70
1
10
0
20
0
30
0
0
VERTEX
8
ENGRAVE
10
300.179
20
109.342
30
0
0
VERTEX
8
ENGRAVE
10
300.637
20
109.342
30
0
0
VERTEX
8
ENGRAVE
10
300.637
20
107.508
30
0
0
VERTEX
8
ENGRAVE
10
301.096
20
107.508
30
0
0
VERTEX
8
ENGRAVE
10
301.096
20
107.217
30
0
0
VERTEX
8
ENGRAVE
10
300.637
20
107.217
30
0
0
VERTEX
8
ENGRAVE
10
300.637
20
106.592
30
0
0
VERTEX
8
ENGRAVE
10
300.304
20
106.592
30
0
0
VERTEX
8
ENGRAVE
10
300.304
20
107.217
30
0
0
VERTEX
8
ENGRAVE
10
298.929
20
107.258
30
0
0
VERTEX
8
ENGRAVE
10
298.929
20
107.467
30
0
0
SEQEND
8
ENGRAVE
0
POLYLINE
8
ENGRAVE
66
1
70
1
10
0
20
0
30
0
0
VERTEX
8
ENGRAVE
10
300.304
20
109.050
30
0
0
VERTEX
8
ENGRAVE
10
299.387
20
107.675
30
0
0
VERTEX
8
ENGRAVE
10
299.346
20
107.508
30
0
0
VERTEX
8
ENGRAVE
10
300.304
20
107.508
30
0
0
SEQEND
8
ENGRAVE
0
POLYLINE
8
ENGRAVE
66
1
70
1
10
0
20
0
30
0
0
VERTEX
8
ENGRAVE
10
295.096
20
85.383
30
0
0
VERTEX
8
ENGRAVE
10
295.429
20
85.383
30
0
0
VERTEX
8
ENGRAVE
10
295.846
20
85.217
30
0
0
VERTEX
8
ENGRAVE
10
296.096
20
84.925
30
0
0
VERTEX
8
ENGRAVE
10
296.221
20
84.633
30
0
0
VERTEX
8
ENGRAVE
10
296.221
20
84.467
30
0
0
VERTEX
8
ENGRAVE
10
295.929
20
84.425
30
0
0
VERTEX
8
ENGRAVE
10
295.762
20
84.842
30
0
0
VERTEX
8
ENGRAVE
10
295.387
20
85.092
30
0
0
VERTEX
8
ENGRAVE
10
294.887
20
85.008
30
0
0
VERTEX
8
ENGRAVE
10
294.596
20
84.675
30
0
0
VERTEX
8
ENGRAVE
10
294.471
20
84.050
30
0
0
VERTEX
8
ENGRAVE
10
294.512
20
83.550
30
0
0
VERTEX
8
ENGRAVE
10
294.679
20
83.133
30
0
0
VERTEX
8
ENGRAVE
10
294.887
20
82.925
30
0
0
VERTEX
8
ENGRAVE
10
295.054
20
82.842
30
0
0
VERTEX
8
ENGRAVE
10
295.429
20
82.842
30
0
0
VERTEX
8
ENGRAVE
10
295.804
20
83.133
30
0
0
VERTEX
8
ENGRAVE
10
295.929
20
83.508
30
0
0
VERTEX
8
ENGRAVE
10
296.221
20
83.467
30
0
0
VERTEX
8
ENGRAVE
10
296.179
20
83.175
30
0
0
VERTEX
8
ENGRAVE
10
296.012
20
82.883
30
0
0
VERTEX
8
ENGRAVE
10
295.471
20
82.550
30
0
0
VERTEX
8
ENGRAVE
10
294.846
20
82.592
30
0
0
VERTEX
8
ENGRAVE
10
294.471
20
82.842
30
0
0
VERTEX
8
ENGRAVE
10
294.221
20
83.258
30
0
0
VERTEX
8
ENGRAVE
10
294.096
20
83.758
30
0
0
VERTEX
8
ENGRAVE
10
294.137
20
84.425
30
0
0
VERTEX
8
ENGRAVE
10
294.304
20
84.883
30
0
0
VERTEX
8
ENGRAVE
10
294.762
20
85.300
30
0
0
SEQEND
8
ENGRAVE
0
POLYLINE
8
ENGRAVE
66
1
70
1
10
0
20
0
30
0
0
VERTEX
8
ENGRAVE
10
297.596
20
85.342
30
0
0
VERTEX
8
ENGRAVE
10
297.887
20
85.342
30
0
0
VERTEX
8
ENGRAVE
10
297.887
20
82.842
30
0
0
VERTEX
8
ENGRAVE
10
298.637
20
82.842
30
0
0
VERTEX
8
ENGRAVE
10
298.637
20
82.592
30
0
0
VERTEX
8
ENGRAVE
10
296.721
20
82.592
30
0
0
VERTEX
8
ENGRAVE
10
296.721
20
82.842
30
0
0
VERTEX
8
ENGRAVE
10
297.554
20
82.842
30
0
0
VERTEX
8
ENGRAVE
10
297.554
20
84.883
30
0
0
VERTEX
8
ENGRAVE
10
296.846
20
84.342
30
0
0
VERTEX
8
ENGRAVE
10
296.804
20
84.717
30
0
0
VERTEX
8
ENGRAVE
10
297.179
20
84.883
30
0
0
VERTEX
8
ENGRAVE
10
297.596
20
85.258
30
0
0
SEQEND
8
ENGRAVE
0
POLYLINE
8
ENGRAVE
66
1
70
1
10
0
20
0
30
0
0
VERTEX
8
ENGRAVE
10
300.179
20
85.342
30
0
0
VERTEX
8
ENGRAVE
10
300.637
20
85.342
30
0
0
VERTEX
8
ENGRAVE
10
300.637
20
83.508
30
0
0
VERTEX
8
ENGRAVE
10
301.096
20
83.508
30
0
0
VERTEX
8
ENGRAVE
10
301.096
20
83.217
30
0
0
VERTEX
8
ENGRAVE
10
300.637
20
83.217
30
0
0
VERTEX
8
ENGRAVE
10
300.637
20
82.592
30
0
0
VERTEX
8
ENGRAVE
10
300.304
20
82.592
30
0
0
VERTEX
8
ENGRAVE
10
300.304
20
83.217
30
0
0
VERTEX
8
ENGRAVE
10
298.929
20
83.258
30
0
0
VERTEX
8
ENGRAVE
10
298.929
20
83.467
30
0
0
SEQEND
8
ENGRAVE
0
POLYLINE
8
ENGRAVE
66
1
70
1
10
0
20
0
30
0
0
VERTEX
8
ENGRAVE
10
300.304
20
85.050
30
0
0
VERTEX
8
ENGRAVE
10
299.387
20
83.675
30
0
0
VERTEX
8
ENGRAVE
10
299.346
20
83.508
30
0
0
VERTEX
8
ENGRAVE
10
300.304
20
83.508
30
0
0
SEQEND
8
ENGRAVE
0
POLYLINE
8
ENGRAVE
66
1
70
1
10
0
20
0
30
0
0
VERTEX
8
ENGRAVE
10
324.908
20
150.578
30
0
0
VERTEX
8
ENGRAVE
10
325.061
20
150.578
30
0
0
VERTEX
8
ENGRAVE
10
325.258
20
150.512
30
0
0
VERTEX
8
ENGRAVE
10
325.367
20
150.425
30
0
0
VERTEX
8
ENGRAVE
10
325.498
20
150.184
30
0
0
VERTEX
8
ENGRAVE
10
325.477
20
150.097
30
0
0
VERTEX
8
ENGRAVE
10
325.323
20
150.075
30
0
0
VERTEX
8
ENGRAVE
10
325.302
20
150.206
30
0
0
VERTEX
8
ENGRAVE
10
325.192
20
150.359
30
0
0
VERTEX
8
ENGRAVE
10
325.061
20
150.425
30
0
0
VERTEX
8
ENGRAVE
10
324.886
20
150.425
30
0
0
VERTEX
8
ENGRAVE
10
324.755
20
150.359
30
0
0
VERTEX
8
ENGRAVE
10
324.623
20
150.162
30
0
0
VERTEX
8
ENGRAVE
10
324.580
20
149.703
30
0
0
VERTEX
8
ENGRAVE
10
324.645
20
149.462
30
0
0
VERTEX
8
ENGRAVE
10
324.755
20
149.309
30
0
0
VERTEX
8
ENGRAVE
10
324.886
20
149.244
30
0
0
VERTEX
8
ENGRAVE
10
325.127
20
149.265
30
0
0
VERTEX
8
ENGRAVE
10
325.258
20
149.375
30
0
0
VERTEX
8
ENGRAVE
10
325.323
20
149.594
30
0
0
VERTEX
8
ENGRAVE
10
325.498
20
149.572
30
0
0
VERTEX
8
ENGRAVE
10
325.477
20
149.440
30
0
0
VERTEX
8
ENGRAVE
10
325.367
20
149.244
30
0
0
VERTEX
8
ENGRAVE
10
325.083
20
149.090
30
0
0
VERTEX
8
ENGRAVE
10
324.864
20
149.090
30
0
0
VERTEX
8
ENGRAVE
10
324.645
20
149.178
30
0
0
VERTEX
8
ENGRAVE
10
324.470
20
149.397
30
0
0
VERTEX
8
ENGRAVE
10
324.383
20
149.681
30
0
0
VERTEX
8
ENGRAVE
10
324.383
20
150.009
30
0
0
VERTEX
8
ENGRAVE
10
324.492
20
150.315
30
0
0
VERTEX
8
ENGRAVE
10
324.689
20
150.512
30
0
0
SEQEND
8
ENGRAVE
0
POLYLINE
8
ENGRAVE
66
1
70
1
10
0
20
0
30
0
0
VERTEX
8
ENGRAVE
10
326.155
20
150.578
30
0
0
VERTEX
8
ENGRAVE
10
326.461
20
150.556
30
0
0
VERTEX
8
ENGRAVE
10
326.614
20
150.469
30
0
0
VERTEX
8
ENGRAVE
10
326.723
20
150.294
30
0
0
VERTEX
8
ENGRAVE
10
326.680
20
150.031
30
0
0
VERTEX
8
ENGRAVE
10
326.461
20
149.878
30
0
0
VERTEX
8
ENGRAVE
10
326.723
20
149.703
30
0
0
VERTEX
8
ENGRAVE
10
326.789
20
149.550
30
0
0
VERTEX
8
ENGRAVE
10
326.767
20
149.353
30
0
0
VERTEX
8
ENGRAVE
10
326.658
20
149.200
30
0
0
VERTEX
8
ENGRAVE
10
326.352
20
149.090
30
0
0
VERTEX
8
ENGRAVE
10
326.089
20
149.090
30
0
0
VERTEX
8
ENGRAVE
10
325.936
20
149.134
30
0
0
VERTEX
8
ENGRAVE
10
325.783
20
149.222
30
0
0
VERTEX
8
ENGRAVE
10
325.673
20
149.375
30
0
0
VERTEX
8
ENGRAVE
10
325.673
20
149.572
30
0
0
VERTEX
8
ENGRAVE
10
325.739
20
149.703
30
0
0
VERTEX
8
ENGRAVE
10
325.870
20
149.812
30
0
0
VERTEX
8
ENGRAVE
10
326.002
20
149.856
30
0
0
VERTEX
8
ENGRAVE
10
325.805
20
149.987
30
0
0
VERTEX
8
ENGRAVE
10
325.739
20
150.140
30
0
0
VERTEX
8
ENGRAVE
10
325.761
20
150.337
30
0
0
VERTEX
8
ENGRAVE
10
325.892
20
150.490
30
0
0
SEQEND
8
ENGRAVE
0
POLYLINE
8
ENGRAVE
66
1
70
1
10
0
20
0
30
0
0
VERTEX
8
ENGRAVE
10
326.198
20
150.447
30
0
0
VERTEX
8
ENGRAVE
10
326.023
20
150.403
30
0
0
VERTEX
8
ENGRAVE
10
325.958
20
150.337
30
0
0
VERTEX
8
ENGRAVE
10
325.936
20
150.119
30
0
0
VERTEX
8
ENGRAVE
10
326.023
20
150.031
30
0
0
VERTEX
8
ENGRAVE
10
326.242
20
149.944
30
0
0
VERTEX
8
ENGRAVE
10
326.461
20
150.031
30
0
0
VERTEX
8
ENGRAVE
10
326.548
20
150.119
30
0
0
VERTEX
8
ENGRAVE
10
326.570
20
150.228
30
0
0
VERTEX
8
ENGRAVE
10
326.548
20
150.315
30
0
0
VERTEX
8
ENGRAVE
10
326.461
20
150.403
30
0
0
SEQEND
8
ENGRAVE
0
POLYLINE
8
ENGRAVE
66
1
70
1
10
0
20
0
30
0
0
VERTEX
8
ENGRAVE
10
326.220
20
149.790
30
0
0
VERTEX
8
ENGRAVE
10
325.914
20
149.659
30
0
0
VERTEX
8
ENGRAVE
10
325.848
20
149.550
30
0
0
VERTEX
8
ENGRAVE
10
325.848
20
149.419
30
0
0
VERTEX
8
ENGRAVE
10
325.914
20
149.309
30
0
0
VERTEX
8
ENGRAVE
10
326.045
20
149.244
30
0
0
VERTEX
8
ENGRAVE
10
326.417
20
149.244
30
0
0
VERTEX
8
ENGRAVE
10
326.592
20
149.375
30
0
0
VERTEX
8
ENGRAVE
10
326.592
20
149.572
30
0
0
VERTEX
8
ENGRAVE
10
326.483
20
149.681
30
0
0
SEQEND
8
ENGRAVE
0
POLYLINE
8
ENGRAVE
66
1
70
1
10
0
20
0
30
0
0
VERTEX
8
ENGRAVE
10
434.242
20
57.047
30
0
0
VERTEX
8
ENGRAVE
10
434.089
20
57.047
30
0
0
VERTEX
8
ENGRAVE
10
433.892
20
57.112
30
0
0
VERTEX
8
ENGRAVE
10
433.783
20
57.200
30
0
0
VERTEX
8
ENGRAVE
10
433.652
20
57.440
30
0
0
VERTEX
8
ENGRAVE
10
433.673
20
57.528
30
0
0
VERTEX
8
ENGRAVE
10
433.827
20
57.550
30
0
0
VERTEX
8
ENGRAVE
10
433.848
20
57.419
30
0
0
VERTEX
8
ENGRAVE
10
433.958
20
57.265
30
0
0
VERTEX
8
ENGRAVE
10
434.089
20
57.200
30
0
0
VERTEX
8
ENGRAVE
10
434.264
20
57.200
30
0
0
VERTEX
8
ENGRAVE
10
434.395
20
57.265
30
0
0
VERTEX
8
ENGRAVE
10
434.527
20
57.462
30
0
0
VERTEX
8
ENGRAVE
10
434.570
20
57.922
30
0
0
VERTEX
8
ENGRAVE
10
434.505
20
58.162
30
0
0
VERTEX
8
ENGRAVE
10
434.395
20
58.315
30
0
0
VERTEX
8
ENGRAVE
10
434.264
20
58.381
30
0
0
VERTEX
8
ENGRAVE
10
434.023
20
58.359
30
0
0
VERTEX
8
ENGRAVE
10
433.892
20
58.250
30
0
0
VERTEX
8
ENGRAVE
10
433.827
20
58.031
30
0
0
VERTEX
8
ENGRAVE
10
433.652
20
58.053
30
0
0
VERTEX
8
ENGRAVE
10
433.673
20
58.184
30
0
0
VERTEX
8
ENGRAVE
10
433.783
20
58.381
30
0
0
VERTEX
8
ENGRAVE
10
434.067
20
58.534
30
0
0
VERTEX
8
ENGRAVE
10
434.286
20
58.534
30
0
0
VERTEX
8
ENGRAVE
10
434.505
20
58.447
30
0
0
VERTEX
8
ENGRAVE
10
434.680
20
58.228
30
0
0
VERTEX
8
ENGRAVE
10
434.767
20
57.944
30
0
0
VERTEX
8
ENGRAVE
10
434.767
20
57.615
30
0
0
VERTEX
8
ENGRAVE
10
434.658
20
57.309
30
0
0
VERTEX
8
ENGRAVE
10
434.461
20
57.112
30
0
0
SEQEND
8
ENGRAVE
0
POLYLINE
8
ENGRAVE
66
1
70
1
10
0
20
0
30
0
0
VERTEX
8
ENGRAVE
10
433.061
20
57.047
30
0
0
VERTEX
8
ENGRAVE
10
432.864
20
57.047
30
0
0
VERTEX
8
ENGRAVE
10
432.623
20
57.134
30
0
0
VERTEX
8
ENGRAVE
10
432.514
20
57.244
30
0
0
VERTEX
8
ENGRAVE
10
432.427
20
57.419
30
0
0
VERTEX
8
ENGRAVE
10
432.383
20
57.681
30
0
0
VERTEX
8
ENGRAVE
10
432.405
20
58.009
30
0
0
VERTEX
8
ENGRAVE
10
432.514
20
58.294
30
0
0
VERTEX
8
ENGRAVE
10
432.689
20
58.469
30
0
0
VERTEX
8
ENGRAVE
10
432.886
20
58.534
30
0
0
VERTEX
8
ENGRAVE
10
433.170
20
58.512
30
0
0
VERTEX
8
ENGRAVE
10
433.323
20
58.425
30
0
0
VERTEX
8
ENGRAVE
10
433.411
20
58.294
30
0
0
VERTEX
8
ENGRAVE
10
433.411
20
58.228
30
0
0
VERTEX
8
ENGRAVE
10
433.258
20
58.206
30
0
0
VERTEX
8
ENGRAVE
10
433.236
20
58.294
30
0
0
VERTEX
8
ENGRAVE
10
433.105
20
58.381
30
0
0
VERTEX
8
ENGRAVE
10
432.842
20
58.381
30
0
0
VERTEX
8
ENGRAVE
10
432.667
20
58.250
30
0
0
VERTEX
8
ENGRAVE
10
432.580
20
58.031
30
0
0
VERTEX
8
ENGRAVE
10
432.558
20
57.769
30
0
0
VERTEX
8
ENGRAVE
10
432.711
20
57.944
30
0
0
VERTEX
8
ENGRAVE
10
432.798
20
57.987
30
0
0
VERTEX
8
ENGRAVE
10
433.083
20
58.009
30
0
0
VERTEX
8
ENGRAVE
10
433.258
20
57.944
30
0
0
VERTEX
8
ENGRAVE
10
433.433
20
57.725
30
0
0
VERTEX
8
ENGRAVE
10
433.455
20
57.419
30
0
0
VERTEX
8
ENGRAVE
10
433.389
20
57.265
30
0
0
VERTEX
8
ENGRAVE
10
433.192
20
57.090
30
0
0
SEQEND
8
ENGRAVE
0
POLYLINE
8
ENGRAVE
66
1
70
1
10
0
20
0
30
0
0
VERTEX
8
ENGRAVE
10
432.995
20
57.200
30
0
0
VERTEX
8
ENGRAVE
10
433.236
20
57.331
30
0
0
VERTEX
8
ENGRAVE
10
433.280
20
57.440
30
0
0
VERTEX
8
ENGRAVE
10
433.280
20
57.637
30
0
0
VERTEX
8
ENGRAVE
10
433.214
20
57.769
30
0
0
VERTEX
8
ENGRAVE
10
433.061
20
57.856
30
0
0
VERTEX
8
ENGRAVE
10
432.820
20
57.856
30
0
0
VERTEX
8
ENGRAVE
10
432.623
20
57.681
30
0
0
VERTEX
8
ENGRAVE
10
432.602
20
57.419
30
0
0
VERTEX
8
ENGRAVE
10
432.733
20
57.244
30
0
0
SEQEND
8
ENGRAVE
0
POLYLINE
8
ENGRAVE
66
1
70
1
10
0
20
0
30
0
0
VERTEX
8
ENGRAVE
10
223.273
20
51.578
30
0
0
VERTEX
8
ENGRAVE
10
223.448
20
51.578
30
0
0
VERTEX
8
ENGRAVE
10
223.667
20
51.490
30
0
0
VERTEX
8
ENGRAVE
10
223.798
20
51.337
30
0
0
VERTEX
8
ENGRAVE
10
223.864
20
51.184
30
0
0
VERTEX
8
ENGRAVE
10
223.864
20
51.097
30
0
0
VERTEX
8
ENGRAVE
10
223.711
20
51.075
30
0
0
VERTEX
8
ENGRAVE
10
223.623
20
51.294
30
0
0
VERTEX
8
ENGRAVE
10
223.427
20
51.425
30
0
0
VERTEX
8
ENGRAVE
10
223.164
20
51.381
30
0
0
VERTEX
8
ENGRAVE
10
223.011
20
51.206
30
0
0
VERTEX
8
ENGRAVE
10
222.945
20
50.878
30
0
0
VERTEX
8
ENGRAVE
10
222.967
20
50.615
30
0
0
VERTEX
8
ENGRAVE
10
223.055
20
50.397
30
0
0
VERTEX
8
ENGRAVE
10
223.164
20
50.287
30
0
0
VERTEX
8
ENGRAVE
10
223.252
20
50.244
30
0
0
VERTEX
8
ENGRAVE
10
223.448
20
50.244
30
0
0
VERTEX
8
ENGRAVE
10
223.645
20
50.397
30
0
0
VERTEX
8
ENGRAVE
10
223.711
20
50.594
30
0
0
VERTEX
8
ENGRAVE
10
223.864
20
50.572
30
0
0
VERTEX
8
ENGRAVE
10
223.842
20
50.419
30
0
0
VERTEX
8
ENGRAVE
10
223.755
20
50.265
30
0
0
VERTEX
8
ENGRAVE
10
223.470
20
50.090
30
0
0
VERTEX
8
ENGRAVE
10
223.142
20
50.112
30
0
0
VERTEX
8
ENGRAVE
10
222.945
20
50.244
30
0
0
VERTEX
8
ENGRAVE
10
222.814
20
50.462
30
0
0
VERTEX
8
ENGRAVE
10
222.748
20
50.725
30
0
0
VERTEX
8
ENGRAVE
10
222.770
20
51.075
30
0
0
VERTEX
8
ENGRAVE
10
222.858
20
51.315
30
0
0
VERTEX
8
ENGRAVE
10
223.098
20
51.534
30
0
0
SEQEND
8
ENGRAVE
0
POLYLINE
8
ENGRAVE
66
1
70
1
10
0
20
0
30
0
0
VERTEX
8
ENGRAVE
10
225.767
20
51.578
30
0
0
VERTEX
8
ENGRAVE
10
225.920
20
51.578
30
0
0
VERTEX
8
ENGRAVE
10
226.117
20
51.512
30
0
0
VERTEX
8
ENGRAVE
10
226.270
20
51.359
30
0
0
VERTEX
8
ENGRAVE
10
226.402
20
50.987
30
0
0
VERTEX
8
ENGRAVE
10
226.402
20
50.659
30
0
0
VERTEX
8
ENGRAVE
10
226.270
20
50.309
30
0
0
VERTEX
8
ENGRAVE
10
226.117
20
50.156
30
0
0
VERTEX
8
ENGRAVE
10
225.942
20
50.090
30
0
0
VERTEX
8
ENGRAVE
10
225.767
20
50.090
30
0
0
VERTEX
8
ENGRAVE
10
225.592
20
50.156
30
0
0
VERTEX
8
ENGRAVE
10
225.439
20
50.309
30
0
0
VERTEX
8
ENGRAVE
10
225.308
20
50.681
30
0
0
VERTEX
8
ENGRAVE
10
225.308
20
50.987
30
0
0
VERTEX
8
ENGRAVE
10
225.373
20
51.250
30
0
0
VERTEX
8
ENGRAVE
10
225.527
20
51.469
30
0
0
SEQEND
8
ENGRAVE
0
POLYLINE
8
ENGRAVE
66
1
70
1
10
0
20
0
30
0
0
VERTEX
8
ENGRAVE
10
224.586
20
51.556
30
0
0
VERTEX
8
ENGRAVE
10
224.739
20
51.556
30
0
0
VERTEX
8
ENGRAVE
10
224.739
20
50.244
30
0
0
VERTEX
8
ENGRAVE
10
225.133
20
50.244
30
0
0
VERTEX
8
ENGRAVE
10
225.133
20
50.112
30
0
0
VERTEX
8
ENGRAVE
10
224.127
20
50.112
30
0
0
VERTEX
8
ENGRAVE
10
224.127
20
50.244
30
0
0
VERTEX
8
ENGRAVE
10
224.564
20
50.244
30
0
0
VERTEX
8
ENGRAVE
10
224.564
20
51.315
30
0
0
VERTEX
8
ENGRAVE
10
224.192
20
51.031
30
0
0
VERTEX
8
ENGRAVE
10
224.170
20
51.228
30
0
0
VERTEX
8
ENGRAVE
10
224.367
20
51.315
30
0
0
VERTEX
8
ENGRAVE
10
224.586
20
51.512
30
0
0
SEQEND
8
ENGRAVE
0
POLYLINE
8
ENGRAVE
66
1
70
1
10
0
20
0
30
0
0
VERTEX
8
ENGRAVE
10
225.745
20
51.425
30
0
0
VERTEX
8
ENGRAVE
10
225.592
20
51.315
30
0
0
VERTEX
8
ENGRAVE
10
225.527
20
51.162
30
0
0
VERTEX
8
ENGRAVE
10
225.505
20
50.615
30
0
0
VERTEX
8
ENGRAVE
10
225.636
20
50.309
30
0
0
VERTEX
8
ENGRAVE
10
225.723
20
50.244
30
0
0
VERTEX
8
ENGRAVE
10
225.877
20
50.222
30
0
0
VERTEX
8
ENGRAVE
10
226.052
20
50.287
30
0
0
VERTEX
8
ENGRAVE
10
226.161
20
50.440
30
0
0
VERTEX
8
ENGRAVE
10
226.205
20
50.594
30
0
0
VERTEX
8
ENGRAVE
10
226.205
20
51.053
30
0
0
VERTEX
8
ENGRAVE
10
226.117
20
51.294
30
0
0
VERTEX
8
ENGRAVE
10
226.008
20
51.403
30
0
0
SEQEND
8
ENGRAVE
0
POLYLINE
8
ENGRAVE
66
1
70
1
10
0
20
0
30
0
0
VERTEX
8
ENGRAVE
10
223.908
20
39.578
30
0
0
VERTEX
8
ENGRAVE
10
224.061
20
39.578
30
0
0
VERTEX
8
ENGRAVE
10
224.258
20
39.512
30
0
0
VERTEX
8
ENGRAVE
10
224.367
20
39.425
30
0
0
VERTEX
8
ENGRAVE
10
224.498
20
39.184
30
0
0
VERTEX
8
ENGRAVE
10
224.477
20
39.097
30
0
0
VERTEX
8
ENGRAVE
10
224.323
20
39.075
30
0
0
VERTEX
8
ENGRAVE
10
224.302
20
39.206
30
0
0
VERTEX
8
ENGRAVE
10
224.192
20
39.359
30
0
0
VERTEX
8
ENGRAVE
10
224.061
20
39.425
30
0
0
VERTEX
8
ENGRAVE
10
223.886
20
39.425
30
0
0
VERTEX
8
ENGRAVE
10
223.755
20
39.359
30
0
0
VERTEX
8
ENGRAVE
10
223.623
20
39.162
30
0
0
VERTEX
8
ENGRAVE
10
223.580
20
38.703
30
0
0
VERTEX
8
ENGRAVE
10
223.645
20
38.462
30
0
0
VERTEX
8
ENGRAVE
10
223.755
20
38.309
30
0
0
VERTEX
8
ENGRAVE
10
223.886
20
38.244
30
0
0
VERTEX
8
ENGRAVE
10
224.127
20
38.265
30
0
0
VERTEX
8
ENGRAVE
10
224.258
20
38.375
30
0
0
VERTEX
8
ENGRAVE
10
224.323
20
38.594
30
0
0
VERTEX
8
ENGRAVE
10
224.498
20
38.572
30
0
0
VERTEX
8
ENGRAVE
10
224.477
20
38.440
30
0
0
VERTEX
8
ENGRAVE
10
224.367
20
38.244
30
0
0
VERTEX
8
ENGRAVE
10
224.083
20
38.090
30
0
0
VERTEX
8
ENGRAVE
10
223.864
20
38.090
30
0
0
VERTEX
8
ENGRAVE
10
223.645
20
38.178
30
0
0
VERTEX
8
ENGRAVE
10
223.470
20
38.397
30
0
0
VERTEX
8
ENGRAVE
10
223.383
20
38.681
30
0
0
VERTEX
8
ENGRAVE
10
223.383
20
39.009
30
0
0
VERTEX
8
ENGRAVE
10
223.492
20
39.315
30
0
0
VERTEX
8
ENGRAVE
10
223.689
20
39.512
30
0
0
SEQEND
8
ENGRAVE
0
POLYLINE
8
ENGRAVE
66
1
70
1
10
0
20
0
30
0
0
VERTEX
8
ENGRAVE
10
225.155
20
39.578
30
0
0
VERTEX
8
ENGRAVE
10
225.461
20
39.556
30
0
0
VERTEX
8
ENGRAVE
10
225.614
20
39.469
30
0
0
VERTEX
8
ENGRAVE
10
225.723
20
39.294
30
0
0
VERTEX
8
ENGRAVE
10
225.680
20
39.031
30
0
0
VERTEX
8
ENGRAVE
10
225.461
20
38.878
30
0
0
VERTEX
8
ENGRAVE
10
225.723
20
38.703
30
0
0
VERTEX
8
ENGRAVE
10
225.789
20
38.550
30
0
0
VERTEX
8
ENGRAVE
10
225.767
20
38.353
30
0
0
VERTEX
8
ENGRAVE
10
225.658
20
38.200
30
0
0
VERTEX
8
ENGRAVE
10
225.352
20
38.090
30
0
0
VERTEX
8
ENGRAVE
10
225.089
20
38.090
30
0
0
VERTEX
8
ENGRAVE
10
224.936
20
38.134
30
0
0
VERTEX
8
ENGRAVE
10
224.783
20
38.222
30
0
0
VERTEX
8
ENGRAVE
10
224.673
20
38.375
30
0
0
VERTEX
8
ENGRAVE
10
224.673
20
38.572
30
0
0
VERTEX
8
ENGRAVE
10
224.739
20
38.703
30
0
0
VERTEX
8
ENGRAVE
10
224.870
20
38.812
30
0
0
VERTEX
8
ENGRAVE
10
225.002
20
38.856
30
0
0
VERTEX
8
ENGRAVE
10
224.805
20
38.987
30
0
0
VERTEX
8
ENGRAVE
10
224.739
20
39.140
30
0
0
VERTEX
8
ENGRAVE
10
224.761
20
39.337
30
0
0
VERTEX
8
ENGRAVE
10
224.892
20
39.490
30
0
0
SEQEND
8
ENGRAVE
0
POLYLINE
8
ENGRAVE
66
1
70
1
10
0
20
0
30
0
0
VERTEX
8
ENGRAVE
10
225.198
20
39.447
30
0
0
VERTEX
8
ENGRAVE
10
225.023
20
39.403
30
0
0
VERTEX
8
ENGRAVE
10
224.958
20
39.337
30
0
0
VERTEX
8
ENGRAVE
10
224.936
20
39.119
30
0
0
VERTEX
8
ENGRAVE
10
225.023
20
39.031
30
0
0
VERTEX
8
ENGRAVE
10
225.242
20
38.944
30
0
0
VERTEX
8
ENGRAVE
10
225.461
20
39.031
30
0
0
VERTEX
8
ENGRAVE
10
225.548
20
39.119
30
0
0
VERTEX
8
ENGRAVE
10
225.570
20
39.228
30
0
0
VERTEX
8
ENGRAVE
10
225.548
20
39.315
30
0
0
VERTEX
8
ENGRAVE
10
225.461
20
39.403
30
0
0
SEQEND
8
ENGRAVE
0
POLYLINE
8
ENGRAVE
66
1
70
1
10
0
20
0
30
0
0
VERTEX
8
ENGRAVE
10
225.220
20
38.790
30
0
0
VERTEX
8
ENGRAVE
10
224.914
20
38.659
30
0
0
VERTEX
8
ENGRAVE
10
224.848
20
38.550
30
0
0
VERTEX
8
ENGRAVE
10
224.848
20
38.419
30
0
0
VERTEX
8
ENGRAVE
10
224.914
20
38.309
30
0
0
VERTEX
8
ENGRAVE
10
225.045
20
38.244
30
0
0
VERTEX
8
ENGRAVE
10
225.417
20
38.244
30
0
0
VERTEX
8
ENGRAVE
10
225.592
20
38.375
30
0
0
VERTEX
8
ENGRAVE
10
225.592
20
38.572
30
0
0
VERTEX
8
ENGRAVE
10
225.483
20
38.681
30
0
0
SEQEND
8
ENGRAVE
0
POLYLINE
8
ENGRAVE
66
1
70
1
10
0
20
0
30
0
0
VERTEX
8
ENGRAVE
10
313.908
20
35.578
30
0
0
VERTEX
8
ENGRAVE
10
314.061
20
35.578
30
0
0
VERTEX
8
ENGRAVE
10
314.258
20
35.512
30
0
0
VERTEX
8
ENGRAVE
10
314.367
20
35.425
30
0
0
VERTEX
8
ENGRAVE
10
314.498
20
35.184
30
0
0
VERTEX
8
ENGRAVE
10
314.477
20
35.097
30
0
0
VERTEX
8
ENGRAVE
10
314.323
20
35.075
30
0
0
VERTEX
8
ENGRAVE
10
314.302
20
35.206
30
0
0
VERTEX
8
ENGRAVE
10
314.192
20
35.359
30
0
0
VERTEX
8
ENGRAVE
10
314.061
20
35.425
30
0
0
VERTEX
8
ENGRAVE
10
313.886
20
35.425
30
0
0
VERTEX
8
ENGRAVE
10
313.755
20
35.359
30
0
0
VERTEX
8
ENGRAVE
10
313.623
20
35.162
30
0
0
VERTEX
8
ENGRAVE
10
313.580
20
34.703
30
0
0
VERTEX
8
ENGRAVE
10
313.645
20
34.462
30
0
0
VERTEX
8
ENGRAVE
10
313.755
20
34.309
30
0
0
VERTEX
8
ENGRAVE
10
313.886
20
34.244
30
0
0
VERTEX
8
ENGRAVE
10
314.127
20
34.265
30
0
0
VERTEX
8
ENGRAVE
10
314.258
20
34.375
30
0
0
VERTEX
8
ENGRAVE
10
314.323
20
34.594
30
0
0
VERTEX
8
ENGRAVE
10
314.498
20
34.572
30
0
0
VERTEX
8
ENGRAVE
10
314.477
20
34.440
30
0
0
VERTEX
8
ENGRAVE
10
314.367
20
34.244
30
0
0
VERTEX
8
ENGRAVE
10
314.083
20
34.090
30
0
0
VERTEX
8
ENGRAVE
10
313.864
20
34.090
30
0
0
VERTEX
8
ENGRAVE
10
313.645
20
34.178
30
0
0
VERTEX
8
ENGRAVE
10
313.470
20
34.397
30
0
0
VERTEX
8
ENGRAVE
10
313.383
20
34.681
30
0
0
VERTEX
8
ENGRAVE
10
313.383
20
35.009
30
0
0
VERTEX
8
ENGRAVE
10
313.492
20
35.315
30
0
0
VERTEX
8
ENGRAVE
10
313.689
20
35.512
30
0
0
SEQEND
8
ENGRAVE
0
POLYLINE
8
ENGRAVE
66
1
70
1
10
0
20
0
30
0
0
VERTEX
8
ENGRAVE
10
315.089
20
35.578
30
0
0
VERTEX
8
ENGRAVE
10
315.286
20
35.578
30
0
0
VERTEX
8
ENGRAVE
10
315.527
20
35.490
30
0
0
VERTEX
8
ENGRAVE
10
315.636
20
35.381
30
0
0
VERTEX
8
ENGRAVE
10
315.723
20
35.206
30
0
0
VERTEX
8
ENGRAVE
10
315.767
20
34.944
30
0
0
VERTEX
8
ENGRAVE
10
315.745
20
34.615
30
0
0
VERTEX
8
ENGRAVE
10
315.636
20
34.331
30
0
0
VERTEX
8
ENGRAVE
10
315.461
20
34.156
30
0
0
VERTEX
8
ENGRAVE
10
315.264
20
34.090
30
0
0
VERTEX
8
ENGRAVE
10
314.980
20
34.112
30
0
0
VERTEX
8
ENGRAVE
10
314.827
20
34.200
30
0
0
VERTEX
8
ENGRAVE
10
314.739
20
34.331
30
0
0
VERTEX
8
ENGRAVE
10
314.739
20
34.397
30
0
0
VERTEX
8
ENGRAVE
10
314.892
20
34.419
30
0
0
VERTEX
8
ENGRAVE
10
314.914
20
34.331
30
0
0
VERTEX
8
ENGRAVE
10
315.045
20
34.244
30
0
0
VERTEX
8
ENGRAVE
10
315.308
20
34.244
30
0
0
VERTEX
8
ENGRAVE
10
315.483
20
34.375
30
0
0
VERTEX
8
ENGRAVE
10
315.570
20
34.594
30
0
0
VERTEX
8
ENGRAVE
10
315.592
20
34.856
30
0
0
VERTEX
8
ENGRAVE
10
315.439
20
34.681
30
0
0
VERTEX
8
ENGRAVE
10
315.352
20
34.637
30
0
0
VERTEX
8
ENGRAVE
10
315.067
20
34.615
30
0
0
VERTEX
8
ENGRAVE
10
314.892
20
34.681
30
0
0
VERTEX
8
ENGRAVE
10
314.717
20
34.900
30
0
0
VERTEX
8
ENGRAVE
10
314.695
20
35.206
30
0
0
VERTEX
8
ENGRAVE
10
314.761
20
35.359
30
0
0
VERTEX
8
ENGRAVE
10
314.958
20
35.534
30
0
0
SEQEND
8
ENGRAVE
0
POLYLINE
8
ENGRAVE
66
1
70
1
10
0
20
0
30
0
0
VERTEX
8
ENGRAVE
10
315.155
20
35.425
30
0
0
VERTEX
8
ENGRAVE
10
314.914
20
35.294
30
0
0
VERTEX
8
ENGRAVE
10
314.870
20
35.184
30
0
0
VERTEX
8
ENGRAVE
10
314.870
20
34.987
30
0
0
VERTEX
8
ENGRAVE
10
314.936
20
34.856
30
0
0
VERTEX
8
ENGRAVE
10
315.089
20
34.769
30
0
0
VERTEX
8
ENGRAVE
10
315.330
20
34.769
30
0
0
VERTEX
8
ENGRAVE
10
315.527
20
34.944
30
0
0
VERTEX
8
ENGRAVE
10
315.548
20
35.206
30
0
0
VERTEX
8
ENGRAVE
10
315.417
20
35.381
30
0
0
SEQEND
8
ENGRAVE
0
POLYLINE
8
ENGRAVE
66
1
70
1
10
0
20
0
30
0
0
VERTEX
8
ENGRAVE
10
431.773
20
34.578
30
0
0
VERTEX
8
ENGRAVE
10
431.948
20
34.578
30
0
0
VERTEX
8
ENGRAVE
10
432.167
20
34.490
30
0
0
VERTEX
8
ENGRAVE
10
432.298
20
34.337
30
0
0
VERTEX
8
ENGRAVE
10
432.364
20
34.184
30
0
0
VERTEX
8
ENGRAVE
10
432.364
20
34.097
30
0
0
VERTEX
8
ENGRAVE
10
432.211
20
34.075
30
0
0
VERTEX
8
ENGRAVE
10
432.123
20
34.294
30
0
0
VERTEX
8
ENGRAVE
10
431.927
20
34.425
30
0
0
VERTEX
8
ENGRAVE
10
431.664
20
34.381
30
0
0
VERTEX
8
ENGRAVE
10
431.511
20
34.206
30
0
0
VERTEX
8
ENGRAVE
10
431.445
20
33.878
30
0
0
VERTEX
8
ENGRAVE
10
431.467
20
33.615
30
0
0
VERTEX
8
ENGRAVE
10
431.555
20
33.397
30
0
0
VERTEX
8
ENGRAVE
10
431.664
20
33.287
30
0
0
VERTEX
8
ENGRAVE
10
431.752
20
33.244
30
0
0
VERTEX
8
ENGRAVE
10
431.948
20
33.244
30
0
0
VERTEX
8
ENGRAVE
10
432.145
20
33.397
30
0
0
VERTEX
8
ENGRAVE
10
432.211
20
33.594
30
0
0
VERTEX
8
ENGRAVE
10
432.364
20
33.572
30
0
0
VERTEX
8
ENGRAVE
10
432.342
20
33.419
30
0
0
VERTEX
8
ENGRAVE
10
432.255
20
33.265
30
0
0
VERTEX
8
ENGRAVE
10
431.970
20
33.090
30
0
0
VERTEX
8
ENGRAVE
10
431.642
20
33.112
30
0
0
VERTEX
8
ENGRAVE
10
431.445
20
33.244
30
0
0
VERTEX
8
ENGRAVE
10
431.314
20
33.462
30
0
0
VERTEX
8
ENGRAVE
10
431.248
20
33.725
30
0
0
VERTEX
8
ENGRAVE
10
431.270
20
34.075
30
0
0
VERTEX
8
ENGRAVE
10
431.358
20
34.315
30
0
0
VERTEX
8
ENGRAVE
10
431.598
20
34.534
30
0
0
SEQEND
8
ENGRAVE
0
POLYLINE
8
ENGRAVE
66
1
70
1
10
0
20
0
30
0
0
VERTEX
8
ENGRAVE
10
434.267
20
34.578
30
0
0
VERTEX
8
ENGRAVE
10
434.420
20
34.578
30
0
0
VERTEX
8
ENGRAVE
10
434.617
20
34.512
30
0
0
VERTEX
8
ENGRAVE
10
434.770
20
34.359
30
0
0
VERTEX
8
ENGRAVE
10
434.902
20
33.987
30
0
0
VERTEX
8
ENGRAVE
10
434.902
20
33.659
30
0
0
VERTEX
8
ENGRAVE
10
434.770
20
33.309
30
0
0
VERTEX
8
ENGRAVE
10
434.617
20
33.156
30
0
0
VERTEX
8
ENGRAVE
10
434.442
20
33.090
30
0
0
VERTEX
8
ENGRAVE
10
434.267
20
33.090
30
0
0
VERTEX
8
ENGRAVE
10
434.092
20
33.156
30
0
0
VERTEX
8
ENGRAVE
10
433.939
20
33.309
30
0
0
VERTEX
8
ENGRAVE
10
433.808
20
33.681
30
0
0
VERTEX
8
ENGRAVE
10
433.808
20
33.987
30
0
0
VERTEX
8
ENGRAVE
10
433.873
20
34.250
30
0
0
VERTEX
8
ENGRAVE
10
434.027
20
34.469
30
0
0
SEQEND
8
ENGRAVE
0
POLYLINE
8
ENGRAVE
66
1
70
1
10
0
20
0
30
0
0
VERTEX
8
ENGRAVE
10
433.086
20
34.556
30
0
0
VERTEX
8
ENGRAVE
10
433.239
20
34.556
30
0
0
VERTEX
8
ENGRAVE
10
433.239
20
33.244
30
0
0
VERTEX
8
ENGRAVE
10
433.633
20
33.244
30
0
0
VERTEX
8
ENGRAVE
10
433.633
20
33.112
30
0
0
VERTEX
8
ENGRAVE
10
432.627
20
33.112
30
0
0
VERTEX
8
ENGRAVE
10
432.627
20
33.244
30
0
0
VERTEX
8
ENGRAVE
10
433.064
20
33.244
30
0
0
VERTEX
8
ENGRAVE
10
433.064
20
34.315
30
0
0
VERTEX
8
ENGRAVE
10
432.692
20
34.031
30
0
0
VERTEX
8
ENGRAVE
10
432.670
20
34.228
30
0
0
VERTEX
8
ENGRAVE
10
432.867
20
34.315
30
0
0
VERTEX
8
ENGRAVE
10
433.086
20
34.512
30
0
0
SEQEND
8
ENGRAVE
0
POLYLINE
8
ENGRAVE
66
1
70
1
10
0
20
0
30
0
0
VERTEX
8
ENGRAVE
10
434.245
20
34.425
30
0
0
VERTEX
8
ENGRAVE
10
434.092
20
34.315
30
0
0
VERTEX
8
ENGRAVE
10
434.027
20
34.162
30
0
0
VERTEX
8
ENGRAVE
10
434.005
20
33.615
30
0
0
VERTEX
8
ENGRAVE
10
434.136
20
33.309
30
0
0
VERTEX
8
ENGRAVE
10
434.223
20
33.244
30
0
0
VERTEX
8
ENGRAVE
10
434.377
20
33.222
30
0
0
VERTEX
8
ENGRAVE
10
434.552
20
33.287
30
0
0
VERTEX
8
ENGRAVE
10
434.661
20
33.440
30
0
0
VERTEX
8
ENGRAVE
10
434.705
20
33.594
30
0
0
VERTEX
8
ENGRAVE
10
434.705
20
34.053
30
0
0
VERTEX
8
ENGRAVE
10
434.617
20
34.294
30
0
0
VERTEX
8
ENGRAVE
10
434.508
20
34.403
30
0
0
SEQEND
8
ENGRAVE
0
POLYLINE
8
ENGRAVE
66
1
70
1
10
0
20
0
30
0
0
VERTEX
8
ENGRAVE
10
223.273
20
27.578
30
0
0
VERTEX
8
ENGRAVE
10
223.448
20
27.578
30
0
0
VERTEX
8
ENGRAVE
10
223.667
20
27.490
30
0
0
VERTEX
8
ENGRAVE
10
223.798
20
27.337
30
0
0
VERTEX
8
ENGRAVE
10
223.864
20
27.184
30
0
0
VERTEX
8
ENGRAVE
10
223.864
20
27.097
30
0
0
VERTEX
8
ENGRAVE
10
223.711
20
27.075
30
0
0
VERTEX
8
ENGRAVE
10
223.623
20
27.294
30
0
0
VERTEX
8
ENGRAVE
10
223.427
20
27.425
30
0
0
VERTEX
8
ENGRAVE
10
223.164
20
27.381
30
0
0
VERTEX
8
ENGRAVE
10
223.011
20
27.206
30
0
0
VERTEX
8
ENGRAVE
10
222.945
20
26.878
30
0
0
VERTEX
8
ENGRAVE
10
222.967
20
26.615
30
0
0
VERTEX
8
ENGRAVE
10
223.055
20
26.397
30
0
0
VERTEX
8
ENGRAVE
10
223.164
20
26.287
30
0
0
VERTEX
8
ENGRAVE
10
223.252
20
26.244
30
0
0
VERTEX
8
ENGRAVE
10
223.448
20
26.244
30
0
0
VERTEX
8
ENGRAVE
10
223.645
20
26.397
30
0
0
VERTEX
8
ENGRAVE
10
223.711
20
26.594
30
0
0
VERTEX
8
ENGRAVE
10
223.864
20
26.572
30
0
0
VERTEX
8
ENGRAVE
10
223.842
20
26.419
30
0
0
VERTEX
8
ENGRAVE
10
223.755
20
26.265
30
0
0
VERTEX
8
ENGRAVE
10
223.470
20
26.090
30
0
0
VERTEX
8
ENGRAVE
10
223.142
20
26.112
30
0
0
VERTEX
8
ENGRAVE
10
222.945
20
26.244
30
0
0
VERTEX
8
ENGRAVE
10
222.814
20
26.462
30
0
0
VERTEX
8
ENGRAVE
10
222.748
20
26.725
30
0
0
VERTEX
8
ENGRAVE
10
222.770
20
27.075
30
0
0
VERTEX
8
ENGRAVE
10
222.858
20
27.315
30
0
0
VERTEX
8
ENGRAVE
10
223.098
20
27.534
30
0
0
SEQEND
8
ENGRAVE
0
POLYLINE
8
ENGRAVE
66
1
70
1
10
0
20
0
30
0
0
VERTEX
8
ENGRAVE
10
224.586
20
27.556
30
0
0
VERTEX
8
ENGRAVE
10
224.739
20
27.556
30
0
0
VERTEX
8
ENGRAVE
10
224.739
20
26.244
30
0
0
VERTEX
8
ENGRAVE
10
225.133
20
26.244
30
0
0
VERTEX
8
ENGRAVE
10
225.133
20
26.112
30
0
0
VERTEX
8
ENGRAVE
10
224.127
20
26.112
30
0
0
VERTEX
8
ENGRAVE
10
224.127
20
26.244
30
0
0
VERTEX
8
ENGRAVE
10
224.564
20
26.244
30
0
0
VERTEX
8
ENGRAVE
10
224.564
20
27.315
30
0
0
VERTEX
8
ENGRAVE
10
224.192
20
27.031
30
0
0
VERTEX
8
ENGRAVE
10
224.170
20
27.228
30
0
0
VERTEX
8
ENGRAVE
10
224.367
20
27.315
30
0
0
VERTEX
8
ENGRAVE
10
224.586
20
27.512
30
0
0
SEQEND
8
ENGRAVE
0
POLYLINE
8
ENGRAVE
66
1
70
1
10
0
20
0
30
0
0
VERTEX
8
ENGRAVE
10
225.855
20
27.556
30
0
0
VERTEX
8
ENGRAVE
10
225.986
20
27.556
30
0
0
VERTEX
8
ENGRAVE
10
225.986
20
26.244
30
0
0
VERTEX
8
ENGRAVE
10
226.402
20
26.244
30
0
0
VERTEX
8
ENGRAVE
10
226.402
20
26.112
30
0
0
VERTEX
8
ENGRAVE
10
225.395
20
26.112
30
0
0
VERTEX
8
ENGRAVE
10
225.395
20
26.244
30
0
0
VERTEX
8
ENGRAVE
10
225.811
20
26.244
30
0
0
VERTEX
8
ENGRAVE
10
225.811
20
27.315
30
0
0
VERTEX
8
ENGRAVE
10
225.461
20
27.031
30
0
0
VERTEX
8
ENGRAVE
10
225.417
20
27.031
30
0
0
VERTEX
8
ENGRAVE
10
225.417
20
27.206
30
0
0
VERTEX
8
ENGRAVE
10
225.680
20
27.359
30
0
0
SEQEND
8
ENGRAVE
0
POLYLINE
8
ENGRAVE
66
1
70
1
10
0
20
0
30
0
0
VERTEX
8
ENGRAVE
10
439.453
20
22.592
30
0
0
VERTEX
8
ENGRAVE
10
439.453
20
22.439
30
0
0
VERTEX
8
ENGRAVE
10
439.388
20
22.242
30
0
0
VERTEX
8
ENGRAVE
10
439.300
20
22.133
30
0
0
VERTEX
8
ENGRAVE
10
439.060
20
22.002
30
0
0
VERTEX
8
ENGRAVE
10
438.972
20
22.023
30
0
0
VERTEX
8
ENGRAVE
10
438.950
20
22.177
30
0
0
VERTEX
8
ENGRAVE
10
439.081
20
22.198
30
0
0
VERTEX
8
ENGRAVE
10
439.235
20
22.308
30
0
0
VERTEX
8
ENGRAVE
10
439.300
20
22.439
30
0
0
VERTEX
8
ENGRAVE
10
439.300
20
22.614
30
0
0
VERTEX
8
ENGRAVE
10
439.235
20
22.745
30
0
0
VERTEX
8
ENGRAVE
10
439.038
20
22.877
30
0
0
VERTEX
8
ENGRAVE
10
438.578
20
22.920
30
0
0
VERTEX
8
ENGRAVE
10
438.338
20
22.855
30
0
0
VERTEX
8
ENGRAVE
10
438.185
20
22.745
30
0
0
VERTEX
8
ENGRAVE
10
438.119
20
22.614
30
0
0
VERTEX
8
ENGRAVE
10
438.141
20
22.373
30
0
0
VERTEX
8
ENGRAVE
10
438.250
20
22.242
30
0
0
VERTEX
8
ENGRAVE
10
438.469
20
22.177
30
0
0
VERTEX
8
ENGRAVE
10
438.447
20
22.002
30
0
0
VERTEX
8
ENGRAVE
10
438.316
20
22.023
30
0
0
VERTEX
8
ENGRAVE
10
438.119
20
22.133
30
0
0
VERTEX
8
ENGRAVE
10
437.966
20
22.417
30
0
0
VERTEX
8
ENGRAVE
10
437.966
20
22.636
30
0
0
VERTEX
8
ENGRAVE
10
438.053
20
22.855
30
0
0
VERTEX
8
ENGRAVE
10
438.272
20
23.030
30
0
0
VERTEX
8
ENGRAVE
10
438.556
20
23.117
30
0
0
VERTEX
8
ENGRAVE
10
438.885
20
23.117
30
0
0
VERTEX
8
ENGRAVE
10
439.191
20
23.008
30
0
0
VERTEX
8
ENGRAVE
10
439.388
20
22.811
30
0
0
SEQEND
8
ENGRAVE
0
POLYLINE
8
ENGRAVE
66
1
70
1
10
0
20
0
30
0
0
VERTEX
8
ENGRAVE
10
439.453
20
21.345
30
0
0
VERTEX
8
ENGRAVE
10
439.431
20
21.039
30
0
0
VERTEX
8
ENGRAVE
10
439.344
20
20.886
30
0
0
VERTEX
8
ENGRAVE
10
439.169
20
20.777
30
0
0
VERTEX
8
ENGRAVE
10
438.906
20
20.820
30
0
0
VERTEX
8
ENGRAVE
10
438.753
20
21.039
30
0
0
VERTEX
8
ENGRAVE
10
438.578
20
20.777
30
0
0
VERTEX
8
ENGRAVE
10
438.425
20
20.711
30
0
0
VERTEX
8
ENGRAVE
10
438.228
20
20.733
30
0
0
VERTEX
8
ENGRAVE
10
438.075
20
20.842
30
0
0
VERTEX
8
ENGRAVE
10
437.966
20
21.148
30
0
0
VERTEX
8
ENGRAVE
10
437.966
20
21.411
30
0
0
VERTEX
8
ENGRAVE
10
438.010
20
21.564
30
0
0
VERTEX
8
ENGRAVE
10
438.097
20
21.717
30
0
0
VERTEX
8
ENGRAVE
10
438.250
20
21.827
30
0
0
VERTEX
8
ENGRAVE
10
438.447
20
21.827
30
0
0
VERTEX
8
ENGRAVE
10
438.578
20
21.761
30
0
0
VERTEX
8
ENGRAVE
10
438.688
20
21.630
30
0
0
VERTEX
8
ENGRAVE
10
438.731
20
21.498
30
0
0
VERTEX
8
ENGRAVE
10
438.863
20
21.695
30
0
0
VERTEX
8
ENGRAVE
10
439.016
20
21.761
30
0
0
VERTEX
8
ENGRAVE
10
439.213
20
21.739
30
0
0
VERTEX
8
ENGRAVE
10
439.366
20
21.608
30
0
0
SEQEND
8
ENGRAVE
0
POLYLINE
8
ENGRAVE
66
1
70
1
10
0
20
0
30
0
0
VERTEX
8
ENGRAVE
10
439.322
20
21.302
30
0
0
VERTEX
8
ENGRAVE
10
439.278
20
21.477
30
0
0
VERTEX
8
ENGRAVE
10
439.213
20
21.542
30
0
0
VERTEX
8
ENGRAVE
10
438.994
20
21.564
30
0
0
VERTEX
8
ENGRAVE
10
438.906
20
21.477
30
0
0
VERTEX
8
ENGRAVE
10
438.819
20
21.258
30
0
0
VERTEX
8
ENGRAVE
10
438.906
20
21.039
30
0
0
VERTEX
8
ENGRAVE
10
438.994
20
20.952
30
0
0
VERTEX
8
ENGRAVE
10
439.103
20
20.930
30
0
0
VERTEX
8
ENGRAVE
10
439.191
20
20.952
30
0
0
VERTEX
8
ENGRAVE
10
439.278
20
21.039
30
0
0
SEQEND
8
ENGRAVE
0
POLYLINE
8
ENGRAVE
66
1
70
1
10
0
20
0
30
0
0
VERTEX
8
ENGRAVE
10
438.666
20
21.280
30
0
0
VERTEX
8
ENGRAVE
10
438.535
20
21.586
30
0
0
VERTEX
8
ENGRAVE
10
438.425
20
21.652
30
0
0
VERTEX
8
ENGRAVE
10
438.294
20
21.652
30
0
0
VERTEX
8
ENGRAVE
10
438.185
20
21.586
30
0
0
VERTEX
8
ENGRAVE
10
438.119
20
21.455
30
0
0
VERTEX
8
ENGRAVE
10
438.119
20
21.083
30
0
0
VERTEX
8
ENGRAVE
10
438.250
20
20.908
30
0
0
VERTEX
8
ENGRAVE
10
438.447
20
20.908
30
0
0
VERTEX
8
ENGRAVE
10
438.556
20
21.017
30
0
0
SEQEND
8
ENGRAVE
0
POLYLINE
8
ENGRAVE
66
1
70
1
10
0
20
0
30
0
0
VERTEX
8
ENGRAVE
10
411.453
20
14.592
30
0
0
VERTEX
8
ENGRAVE
10
411.453
20
14.439
30
0
0
VERTEX
8
ENGRAVE
10
411.388
20
14.242
30
0
0
VERTEX
8
ENGRAVE
10
411.300
20
14.133
30
0
0
VERTEX
8
ENGRAVE
10
411.060
20
14.002
30
0
0
VERTEX
8
ENGRAVE
10
410.972
20
14.023
30
0
0
VERTEX
8
ENGRAVE
10
410.950
20
14.177
30
0
0
VERTEX
8
ENGRAVE
10
411.081
20
14.198
30
0
0
VERTEX
8
ENGRAVE
10
411.235
20
14.308
30
0
0
VERTEX
8
ENGRAVE
10
411.300
20
14.439
30
0
0
VERTEX
8
ENGRAVE
10
411.300
20
14.614
30
0
0
VERTEX
8
ENGRAVE
10
411.235
20
14.745
30
0
0
VERTEX
8
ENGRAVE
10
411.038
20
14.877
30
0
0
VERTEX
8
ENGRAVE
10
410.578
20
14.920
30
0
0
VERTEX
8
ENGRAVE
10
410.338
20
14.855
30
0
0
VERTEX
8
ENGRAVE
10
410.185
20
14.745
30
0
0
VERTEX
8
ENGRAVE
10
410.119
20
14.614
30
0
0
VERTEX
8
ENGRAVE
10
410.141
20
14.373
30
0
0
VERTEX
8
ENGRAVE
10
410.250
20
14.242
30
0
0
VERTEX
8
ENGRAVE
10
410.469
20
14.177
30
0
0
VERTEX
8
ENGRAVE
10
410.447
20
14.002
30
0
0
VERTEX
8
ENGRAVE
10
410.316
20
14.023
30
0
0
VERTEX
8
ENGRAVE
10
410.119
20
14.133
30
0
0
VERTEX
8
ENGRAVE
10
409.966
20
14.417
30
0
0
VERTEX
8
ENGRAVE
10
409.966
20
14.636
30
0
0
VERTEX
8
ENGRAVE
10
410.053
20
14.855
30
0
0
VERTEX
8
ENGRAVE
10
410.272
20
15.030
30
0
0
VERTEX
8
ENGRAVE
10
410.556
20
15.117
30
0
0
VERTEX
8
ENGRAVE
10
410.885
20
15.117
30
0
0
VERTEX
8
ENGRAVE
10
411.191
20
15.008
30
0
0
VERTEX
8
ENGRAVE
10
411.388
20
14.811
30
0
0
SEQEND
8
ENGRAVE
0
POLYLINE
8
ENGRAVE
66
1
70
1
10
0
20
0
30
0
0
VERTEX
8
ENGRAVE
10
411.453
20
13.411
30
0
0
VERTEX
8
ENGRAVE
10
411.453
20
13.214
30
0
0
VERTEX
8
ENGRAVE
10
411.366
20
12.973
30
0
0
VERTEX
8
ENGRAVE
10
411.256
20
12.864
30
0
0
VERTEX
8
ENGRAVE
10
411.081
20
12.777
30
0
0
VERTEX
8
ENGRAVE
10
410.819
20
12.733
30
0
0
VERTEX
8
ENGRAVE
10
410.491
20
12.755
30
0
0
VERTEX
8
ENGRAVE
10
410.206
20
12.864
30
0
0
VERTEX
8
ENGRAVE
10
410.031
20
13.039
30
0
0
VERTEX
8
ENGRAVE
10
409.966
20
13.236
30
0
0
VERTEX
8
ENGRAVE
10
409.988
20
13.520
30
0
0
VERTEX
8
ENGRAVE
10
410.075
20
13.673
30
0
0
VERTEX
8
ENGRAVE
10
410.206
20
13.761
30
0
0
VERTEX
8
ENGRAVE
10
410.272
20
13.761
30
0
0
VERTEX
8
ENGRAVE
10
410.294
20
13.608
30
0
0
VERTEX
8
ENGRAVE
10
410.206
20
13.586
30
0
0
VERTEX
8
ENGRAVE
10
410.119
20
13.455
30
0
0
VERTEX
8
ENGRAVE
10
410.119
20
13.192
30
0
0
VERTEX
8
ENGRAVE
10
410.250
20
13.017
30
0
0
VERTEX
8
ENGRAVE
10
410.469
20
12.930
30
0
0
VERTEX
8
ENGRAVE
10
410.731
20
12.908
30
0
0
VERTEX
8
ENGRAVE
10
410.556
20
13.061
30
0
0
VERTEX
8
ENGRAVE
10
410.513
20
13.148
30
0
0
VERTEX
8
ENGRAVE
10
410.491
20
13.433
30
0
0
VERTEX
8
ENGRAVE
10
410.556
20
13.608
30
0
0
VERTEX
8
ENGRAVE
10
410.775
20
13.783
30
0
0
VERTEX
8
ENGRAVE
10
411.081
20
13.805
30
0
0
VERTEX
8
ENGRAVE
10
411.235
20
13.739
30
0
0
VERTEX
8
ENGRAVE
10
411.410
20
13.542
30
0
0
SEQEND
8
ENGRAVE
0
POLYLINE
8
ENGRAVE
66
1
70
1
10
0
20
0
30
0
0
VERTEX
8
ENGRAVE
10
411.300
20
13.345
30
0
0
VERTEX
8
ENGRAVE
10
411.169
20
13.586
30
0
0
VERTEX
8
ENGRAVE
10
411.060
20
13.630
30
0
0
VERTEX
8
ENGRAVE
10
410.863
20
13.630
30
0
0
VERTEX
8
ENGRAVE
10
410.731
20
13.564
30
0
0
VERTEX
8
ENGRAVE
10
410.644
20
13.411
30
0
0
VERTEX
8
ENGRAVE
10
410.644
20
13.170
30
0
0
VERTEX
8
ENGRAVE
10
410.819
20
12.973
30
0
0
VERTEX
8
ENGRAVE
10
411.081
20
12.952
30
0
0
VERTEX
8
ENGRAVE
10
411.256
20
13.083
30
0
0
SEQEND
8
ENGRAVE
0
POLYLINE
8
ENGRAVE
66
1
70
1
10
0
20
0
30
0
0
VERTEX
8
ENGRAVE
10
223.273
20
15.578
30
0
0
VERTEX
8
ENGRAVE
10
223.448
20
15.578
30
0
0
VERTEX
8
ENGRAVE
10
223.667
20
15.490
30
0
0
VERTEX
8
ENGRAVE
10
223.798
20
15.337
30
0
0
VERTEX
8
ENGRAVE
10
223.864
20
15.184
30
0
0
VERTEX
8
ENGRAVE
10
223.864
20
15.097
30
0
0
VERTEX
8
ENGRAVE
10
223.711
20
15.075
30
0
0
VERTEX
8
ENGRAVE
10
223.623
20
15.294
30
0
0
VERTEX
8
ENGRAVE
10
223.427
20
15.425
30
0
0
VERTEX
8
ENGRAVE
10
223.164
20
15.381
30
0
0
VERTEX
8
ENGRAVE
10
223.011
20
15.206
30
0
0
VERTEX
8
ENGRAVE
10
222.945
20
14.878
30
0
0
VERTEX
8
ENGRAVE
10
222.967
20
14.615
30
0
0
VERTEX
8
ENGRAVE
10
223.055
20
14.397
30
0
0
VERTEX
8
ENGRAVE
10
223.164
20
14.287
30
0
0
VERTEX
8
ENGRAVE
10
223.252
20
14.244
30
0
0
VERTEX
8
ENGRAVE
10
223.448
20
14.244
30
0
0
VERTEX
8
ENGRAVE
10
223.645
20
14.397
30
0
0
VERTEX
8
ENGRAVE
10
223.711
20
14.594
30
0
0
VERTEX
8
ENGRAVE
10
223.864
20
14.572
30
0
0
VERTEX
8
ENGRAVE
10
223.842
20
14.419
30
0
0
VERTEX
8
ENGRAVE
10
223.755
20
14.265
30
0
0
VERTEX
8
ENGRAVE
10
223.470
20
14.090
30
0
0
VERTEX
8
ENGRAVE
10
223.142
20
14.112
30
0
0
VERTEX
8
ENGRAVE
10
222.945
20
14.244
30
0
0
VERTEX
8
ENGRAVE
10
222.814
20
14.462
30
0
0
VERTEX
8
ENGRAVE
10
222.748
20
14.725
30
0
0
VERTEX
8
ENGRAVE
10
222.770
20
15.075
30
0
0
VERTEX
8
ENGRAVE
10
222.858
20
15.315
30
0
0
VERTEX
8
ENGRAVE
10
223.098
20
15.534
30
0
0
SEQEND
8
ENGRAVE
0
POLYLINE
8
ENGRAVE
66
1
70
1
10
0
20
0
30
0
0
VERTEX
8
ENGRAVE
10
225.767
20
15.578
30
0
0
VERTEX
8
ENGRAVE
10
225.920
20
15.578
30
0
0
VERTEX
8
ENGRAVE
10
226.117
20
15.512
30
0
0
VERTEX
8
ENGRAVE
10
226.270
20
15.359
30
0
0
VERTEX
8
ENGRAVE
10
226.402
20
14.987
30
0
0
VERTEX
8
ENGRAVE
10
226.402
20
14.659
30
0
0
VERTEX
8
ENGRAVE
10
226.270
20
14.309
30
0
0
VERTEX
8
ENGRAVE
10
226.117
20
14.156
30
0
0
VERTEX
8
ENGRAVE
10
225.942
20
14.090
30
0
0
VERTEX
8
ENGRAVE
10
225.767
20
14.090
30
0
0
VERTEX
8
ENGRAVE
10
225.592
20
14.156
30
0
0
VERTEX
8
ENGRAVE
10
225.439
20
14.309
30
0
0
VERTEX
8
ENGRAVE
10
225.308
20
14.681
30
0
0
VERTEX
8
ENGRAVE
10
225.308
20
14.987
30
0
0
VERTEX
8
ENGRAVE
10
225.373
20
15.250
30
0
0
VERTEX
8
ENGRAVE
10
225.527
20
15.469
30
0
0
SEQEND
8
ENGRAVE
0
POLYLINE
8
ENGRAVE
66
1
70
1
10
0
20
0
30
0
0
VERTEX
8
ENGRAVE
10
224.586
20
15.556
30
0
0
VERTEX
8
ENGRAVE
10
224.739
20
15.556
30
0
0
VERTEX
8
ENGRAVE
10
224.739
20
14.244
30
0
0
VERTEX
8
ENGRAVE
10
225.133
20
14.244
30
0
0
VERTEX
8
ENGRAVE
10
225.133
20
14.112
30
0
0
VERTEX
8
ENGRAVE
10
224.127
20
14.112
30
0
0
VERTEX
8
ENGRAVE
10
224.127
20
14.244
30
0
0
VERTEX
8
ENGRAVE
10
224.564
20
14.244
30
0
0
VERTEX
8
ENGRAVE
10
224.564
20
15.315
30
0
0
VERTEX
8
ENGRAVE
10
224.192
20
15.031
30
0
0
VERTEX
8
ENGRAVE
10
224.170
20
15.228
30
0
0
VERTEX
8
ENGRAVE
10
224.367
20
15.315
30
0
0
VERTEX
8
ENGRAVE
10
224.586
20
15.512
30
0
0
SEQEND
8
ENGRAVE
0
POLYLINE
8
ENGRAVE
66
1
70
1
10
0
20
0
30
0
0
VERTEX
8
ENGRAVE
10
225.745
20
15.425
30
0
0
VERTEX
8
ENGRAVE
10
225.592
20
15.315
30
0
0
VERTEX
8
ENGRAVE
10
225.527
20
15.162
30
0
0
VERTEX
8
ENGRAVE
10
225.505
20
14.615
30
0
0
VERTEX
8
ENGRAVE
10
225.636
20
14.309
30
0
0
VERTEX
8
ENGRAVE
10
225.723
20
14.244
30
0
0
VERTEX
8
ENGRAVE
10
225.877
20
14.222
30
0
0
VERTEX
8
ENGRAVE
10
226.052
20
14.287
30
0
0
VERTEX
8
ENGRAVE
10
226.161
20
14.440
30
0
0
VERTEX
8
ENGRAVE
10
226.205
20
14.594
30
0
0
VERTEX
8
ENGRAVE
10
226.205
20
15.053
30
0
0
VERTEX
8
ENGRAVE
10
226.117
20
15.294
30
0
0
VERTEX
8
ENGRAVE
10
226.008
20
15.403
30
0
0
SEQEND
8
ENGRAVE
0
POLYLINE
8
ENGRAVE
66
1
70
1
10
0
20
0
30
0
0
VERTEX
8
ENGRAVE
10
313.273
20
11.578
30
0
0
VERTEX
8
ENGRAVE
10
313.448
20
11.578
30
0
0
VERTEX
8
ENGRAVE
10
313.667
20
11.490
30
0
0
VERTEX
8
ENGRAVE
10
313.798
20
11.337
30
0
0
VERTEX
8
ENGRAVE
10
313.864
20
11.184
30
0
0
VERTEX
8
ENGRAVE
10
313.864
20
11.097
30
0
0
VERTEX
8
ENGRAVE
10
313.711
20
11.075
30
0
0
VERTEX
8
ENGRAVE
10
313.623
20
11.294
30
0
0
VERTEX
8
ENGRAVE
10
313.427
20
11.425
30
0
0
VERTEX
8
ENGRAVE
10
313.164
20
11.381
30
0
0
VERTEX
8
ENGRAVE
10
313.011
20
11.206
30
0
0
VERTEX
8
ENGRAVE
10
312.945
20
10.878
30
0
0
VERTEX
8
ENGRAVE
10
312.967
20
10.615
30
0
0
VERTEX
8
ENGRAVE
10
313.055
20
10.397
30
0
0
VERTEX
8
ENGRAVE
10
313.164
20
10.287
30
0
0
VERTEX
8
ENGRAVE
10
313.252
20
10.244
30
0
0
VERTEX
8
ENGRAVE
10
313.448
20
10.244
30
0
0
VERTEX
8
ENGRAVE
10
313.645
20
10.397
30
0
0
VERTEX
8
ENGRAVE
10
313.711
20
10.594
30
0
0
VERTEX
8
ENGRAVE
10
313.864
20
10.572
30
0
0
VERTEX
8
ENGRAVE
10
313.842
20
10.419
30
0
0
VERTEX
8
ENGRAVE
10
313.755
20
10.265
30
0
0
VERTEX
8
ENGRAVE
10
313.470
20
10.090
30
0
0
VERTEX
8
ENGRAVE
10
313.142
20
10.112
30
0
0
VERTEX
8
ENGRAVE
10
312.945
20
10.244
30
0
0
VERTEX
8
ENGRAVE
10
312.814
20
10.462
30
0
0
VERTEX
8
ENGRAVE
10
312.748
20
10.725
30
0
0
VERTEX
8
ENGRAVE
10
312.770
20
11.075
30
0
0
VERTEX
8
ENGRAVE
10
312.858
20
11.315
30
0
0
VERTEX
8
ENGRAVE
10
313.098
20
11.534
30
0
0
SEQEND
8
ENGRAVE
0
POLYLINE
8
ENGRAVE
66
1
70
1
10
0
20
0
30
0
0
VERTEX
8
ENGRAVE
10
314.586
20
11.556
30
0
0
VERTEX
8
ENGRAVE
10
314.739
20
11.556
30
0
0
VERTEX
8
ENGRAVE
10
314.739
20
10.244
30
0
0
VERTEX
8
ENGRAVE
10
315.133
20
10.244
30
0
0
VERTEX
8
ENGRAVE
10
315.133
20
10.112
30
0
0
VERTEX
8
ENGRAVE
10
314.127
20
10.112
30
0
0
VERTEX
8
ENGRAVE
10
314.127
20
10.244
30
0
0
VERTEX
8
ENGRAVE
10
314.564
20
10.244
30
0
0
VERTEX
8
ENGRAVE
10
314.564
20
11.315
30
0
0
VERTEX
8
ENGRAVE
10
314.192
20
11.031
30
0
0
VERTEX
8
ENGRAVE
10
314.170
20
11.228
30
0
0
VERTEX
8
ENGRAVE
10
314.367
20
11.315
30
0
0
VERTEX
8
ENGRAVE
10
314.586
20
11.512
30
0
0
SEQEND
8
ENGRAVE
0
POLYLINE
8
ENGRAVE
66
1
70
1
10
0
20
0
30
0
0
VERTEX
8
ENGRAVE
10
315.855
20
11.556
30
0
0
VERTEX
8
ENGRAVE
10
315.986
20
11.556
30
0
0
VERTEX
8
ENGRAVE
10
315.986
20
10.244
30
0
0
VERTEX
8
ENGRAVE
10
316.402
20
10.244
30
0
0
VERTEX
8
ENGRAVE
10
316.402
20
10.112
30
0
0
VERTEX
8
ENGRAVE
10
315.395
20
10.112
30
0
0
VERTEX
8
ENGRAVE
10
315.395
20
10.244
30
0
0
VERTEX
8
ENGRAVE
10
315.811
20
10.244
30
0
0
VERTEX
8
ENGRAVE
10
315.811
20
11.315
30
0
0
VERTEX
8
ENGRAVE
10
315.461
20
11.031
30
0
0
VERTEX
8
ENGRAVE
10
315.417
20
11.031
30
0
0
VERTEX
8
ENGRAVE
10
315.417
20
11.206
30
0
0
VERTEX
8
ENGRAVE
10
315.680
20
11.359
30
0
0
SEQEND
8
ENGRAVE
0
POLYLINE
8
ENGRAVE
66
1
70
1
10
0
20
0
30
0
0
VERTEX
8
ENGRAVE
10
411.637
20
8.073
30
0
0
VERTEX
8
ENGRAVE
10
411.637
20
7.855
30
0
0
VERTEX
8
ENGRAVE
10
411.593
20
7.811
30
0
0
VERTEX
8
ENGRAVE
10
410.499
20
7.198
30
0
0
VERTEX
8
ENGRAVE
10
411.637
20
7.177
30
0
0
VERTEX
8
ENGRAVE
10
411.637
20
7.023
30
0
0
VERTEX
8
ENGRAVE
10
410.193
20
7.023
30
0
0
VERTEX
8
ENGRAVE
10
410.215
20
7.220
30
0
0
VERTEX
8
ENGRAVE
10
411.418
20
7.898
30
0
0
VERTEX
8
ENGRAVE
10
410.193
20
7.920
30
0
0
VERTEX
8
ENGRAVE
10
410.193
20
8.073
30
0
0
SEQEND
8
ENGRAVE
0
POLYLINE
8
ENGRAVE
66
1
70
1
10
0
20
0
30
0
0
VERTEX
8
ENGRAVE
10
411.637
20
6.148
30
0
0
VERTEX
8
ENGRAVE
10
411.637
20
5.908
30
0
0
VERTEX
8
ENGRAVE
10
410.674
20
5.908
30
0
0
VERTEX
8
ENGRAVE
10
410.674
20
5.667
30
0
0
VERTEX
8
ENGRAVE
10
410.521
20
5.667
30
0
0
VERTEX
8
ENGRAVE
10
410.521
20
5.908
30
0
0
VERTEX
8
ENGRAVE
10
410.193
20
5.908
30
0
0
VERTEX
8
ENGRAVE
10
410.193
20
6.083
30
0
0
VERTEX
8
ENGRAVE
10
410.521
20
6.083
30
0
0
VERTEX
8
ENGRAVE
10
410.543
20
6.805
30
0
0
VERTEX
8
ENGRAVE
10
410.653
20
6.805
30
0
0
SEQEND
8
ENGRAVE
0
POLYLINE
8
ENGRAVE
66
1
70
1
10
0
20
0
30
0
0
VERTEX
8
ENGRAVE
10
411.484
20
6.083
30
0
0
VERTEX
8
ENGRAVE
10
410.762
20
6.564
30
0
0
VERTEX
8
ENGRAVE
10
410.674
20
6.586
30
0
0
VERTEX
8
ENGRAVE
10
410.674
20
6.083
30
0
0
SEQEND
8
ENGRAVE
0
POLYLINE
8
ENGRAVE
66
1
70
1
10
0
20
0
30
0
0
VERTEX
8
ENGRAVE
10
231.137
20
7.573
30
0
0
VERTEX
8
ENGRAVE
10
231.137
20
7.355
30
0
0
VERTEX
8
ENGRAVE
10
231.093
20
7.311
30
0
0
VERTEX
8
ENGRAVE
10
229.999
20
6.698
30
0
0
VERTEX
8
ENGRAVE
10
231.137
20
6.677
30
0
0
VERTEX
8
ENGRAVE
10
231.137
20
6.523
30
0
0
VERTEX
8
ENGRAVE
10
229.693
20
6.523
30
0
0
VERTEX
8
ENGRAVE
10
229.715
20
6.720
30
0
0
VERTEX
8
ENGRAVE
10
230.918
20
7.398
30
0
0
VERTEX
8
ENGRAVE
10
229.693
20
7.420
30
0
0
VERTEX
8
ENGRAVE
10
229.693
20
7.573
30
0
0
SEQEND
8
ENGRAVE
0
POLYLINE
8
ENGRAVE
66
1
70
1
10
0
20
0
30
0
0
VERTEX
8
ENGRAVE
10
231.137
20
6.152
30
0
0
VERTEX
8
ENGRAVE
10
231.137
20
5.298
30
0
0
VERTEX
8
ENGRAVE
10
230.984
20
5.320
30
0
0
VERTEX
8
ENGRAVE
10
230.984
20
6.020
30
0
0
VERTEX
8
ENGRAVE
10
230.831
20
6.042
30
0
0
VERTEX
8
ENGRAVE
10
230.524
20
6.042
30
0
0
VERTEX
8
ENGRAVE
10
230.656
20
5.845
30
0
0
VERTEX
8
ENGRAVE
10
230.678
20
5.692
30
0
0
VERTEX
8
ENGRAVE
10
230.590
20
5.408
30
0
0
VERTEX
8
ENGRAVE
10
230.459
20
5.277
30
0
0
VERTEX
8
ENGRAVE
10
230.306
20
5.211
30
0
0
VERTEX
8
ENGRAVE
10
230.043
20
5.211
30
0
0
VERTEX
8
ENGRAVE
10
229.868
20
5.298
30
0
0
VERTEX
8
ENGRAVE
10
229.759
20
5.408
30
0
0
VERTEX
8
ENGRAVE
10
229.671
20
5.627
30
0
0
VERTEX
8
ENGRAVE
10
229.671
20
5.867
30
0
0
VERTEX
8
ENGRAVE
10
229.759
20
6.086
30
0
0
VERTEX
8
ENGRAVE
10
229.890
20
6.217
30
0
0
VERTEX
8
ENGRAVE
10
230.021
20
6.261
30
0
0
VERTEX
8
ENGRAVE
10
230.065
20
6.108
30
0
0
VERTEX
8
ENGRAVE
10
229.956
20
6.064
30
0
0
VERTEX
8
ENGRAVE
10
229.846
20
5.933
30
0
0
VERTEX
8
ENGRAVE
10
229.824
20
5.605
30
0
0
VERTEX
8
ENGRAVE
10
229.956
20
5.430
30
0
0
VERTEX
8
ENGRAVE
10
230.065
20
5.386
30
0
0
VERTEX
8
ENGRAVE
10
230.349
20
5.408
30
0
0
VERTEX
8
ENGRAVE
10
230.503
20
5.583
30
0
0
VERTEX
8
ENGRAVE
10
230.524
20
5.802
30
0
0
VERTEX
8
ENGRAVE
10
230.459
20
5.955
30
0
0
VERTEX
8
ENGRAVE
10
230.328
20
6.042
30
0
0
VERTEX
8
ENGRAVE
10
230.349
20
6.195
30
0
0
SEQEND
8
ENGRAVE
0
POLYLINE
8
ENGRAVE
66
1
70
1
10
0
20
0
30
0
0
VERTEX
8
ENGRAVE
10
242.137
20
7.573
30
0
0
VERTEX
8
ENGRAVE
10
242.137
20
7.355
30
0
0
VERTEX
8
ENGRAVE
10
242.093
20
7.311
30
0
0
VERTEX
8
ENGRAVE
10
240.999
20
6.698
30
0
0
VERTEX
8
ENGRAVE
10
242.137
20
6.677
30
0
0
VERTEX
8
ENGRAVE
10
242.137
20
6.523
30
0
0
VERTEX
8
ENGRAVE
10
240.693
20
6.523
30
0
0
VERTEX
8
ENGRAVE
10
240.715
20
6.720
30
0
0
VERTEX
8
ENGRAVE
10
241.918
20
7.398
30
0
0
VERTEX
8
ENGRAVE
10
240.693
20
7.420
30
0
0
VERTEX
8
ENGRAVE
10
240.693
20
7.573
30
0
0
SEQEND
8
ENGRAVE
0
POLYLINE
8
ENGRAVE
66
1
70
1
10
0
20
0
30
0
0
VERTEX
8
ENGRAVE
10
242.137
20
5.648
30
0
0
VERTEX
8
ENGRAVE
10
242.137
20
5.408
30
0
0
VERTEX
8
ENGRAVE
10
241.174
20
5.408
30
0
0
VERTEX
8
ENGRAVE
10
241.174
20
5.167
30
0
0
VERTEX
8
ENGRAVE
10
241.021
20
5.167
30
0
0
VERTEX
8
ENGRAVE
10
241.021
20
5.408
30
0
0
VERTEX
8
ENGRAVE
10
240.693
20
5.408
30
0
0
VERTEX
8
ENGRAVE
10
240.693
20
5.583
30
0
0
VERTEX
8
ENGRAVE
10
241.021
20
5.583
30
0
0
VERTEX
8
ENGRAVE
10
241.043
20
6.305
30
0
0
VERTEX
8
ENGRAVE
10
241.153
20
6.305
30
0
0
SEQEND
8
ENGRAVE
0
POLYLINE
8
ENGRAVE
66
1
70
1
10
0
20
0
30
0
0
VERTEX
8
ENGRAVE
10
241.984
20
5.583
30
0
0
VERTEX
8
ENGRAVE
10
241.262
20
6.064
30
0
0
VERTEX
8
ENGRAVE
10
241.174
20
6.086
30
0
0
VERTEX
8
ENGRAVE
10
241.174
20
5.583
30
0
0
SEQEND
8
ENGRAVE
0
POLYLINE
8
ENGRAVE
66
1
70
1
10
0
20
0
30
0
0
VERTEX
8
ENGRAVE
10
253.137
20
7.573
30
0
0
VERTEX
8
ENGRAVE
10
253.137
20
7.355
30
0
0
VERTEX
8
ENGRAVE
10
253.093
20
7.311
30
0
0
VERTEX
8
ENGRAVE
10
251.999
20
6.698
30
0
0
VERTEX
8
ENGRAVE
10
253.137
20
6.677
30
0
0
VERTEX
8
ENGRAVE
10
253.137
20
6.523
30
0
0
VERTEX
8
ENGRAVE
10
251.693
20
6.523
30
0
0
VERTEX
8
ENGRAVE
10
251.715
20
6.720
30
0
0
VERTEX
8
ENGRAVE
10
252.918
20
7.398
30
0
0
VERTEX
8
ENGRAVE
10
251.693
20
7.420
30
0
0
VERTEX
8
ENGRAVE
10
251.693
20
7.573
30
0
0
SEQEND
8
ENGRAVE
0
POLYLINE
8
ENGRAVE
66
1
70
1
10
0
20
0
30
0
0
VERTEX
8
ENGRAVE
10
253.137
20
6.152
30
0
0
VERTEX
8
ENGRAVE
10
253.137
20
5.298
30
0
0
VERTEX
8
ENGRAVE
10
252.984
20
5.320
30
0
0
VERTEX
8
ENGRAVE
10
252.984
20
6.020
30
0
0
VERTEX
8
ENGRAVE
10
252.831
20
6.042
30
0
0
VERTEX
8
ENGRAVE
10
252.524
20
6.042
30
0
0
VERTEX
8
ENGRAVE
10
252.656
20
5.845
30
0
0
VERTEX
8
ENGRAVE
10
252.678
20
5.692
30
0
0
VERTEX
8
ENGRAVE
10
252.590
20
5.408
30
0
0
VERTEX
8
ENGRAVE
10
252.459
20
5.277
30
0
0
VERTEX
8
ENGRAVE
10
252.306
20
5.211
30
0
0
VERTEX
8
ENGRAVE
10
252.043
20
5.211
30
0
0
VERTEX
8
ENGRAVE
10
251.868
20
5.298
30
0
0
VERTEX
8
ENGRAVE
10
251.759
20
5.408
30
0
0
VERTEX
8
ENGRAVE
10
251.671
20
5.627
30
0
0
VERTEX
8
ENGRAVE
10
251.671
20
5.867
30
0
0
VERTEX
8
ENGRAVE
10
251.759
20
6.086
30
0
0
VERTEX
8
ENGRAVE
10
251.890
20
6.217
30
0
0
VERTEX
8
ENGRAVE
10
252.021
20
6.261
30
0
0
VERTEX
8
ENGRAVE
10
252.065
20
6.108
30
0
0
VERTEX
8
ENGRAVE
10
251.956
20
6.064
30
0
0
VERTEX
8
ENGRAVE
10
251.846
20
5.933
30
0
0
VERTEX
8
ENGRAVE
10
251.824
20
5.605
30
0
0
VERTEX
8
ENGRAVE
10
251.956
20
5.430
30
0
0
VERTEX
8
ENGRAVE
10
252.065
20
5.386
30
0
0
VERTEX
8
ENGRAVE
10
252.349
20
5.408
30
0
0
VERTEX
8
ENGRAVE
10
252.503
20
5.583
30
0
0
VERTEX
8
ENGRAVE
10
252.524
20
5.802
30
0
0
VERTEX
8
ENGRAVE
10
252.459
20
5.955
30
0
0
VERTEX
8
ENGRAVE
10
252.328
20
6.042
30
0
0
VERTEX
8
ENGRAVE
10
252.349
20
6.195
30
0
0
SEQEND
8
ENGRAVE
0
POLYLINE
8
ENGRAVE
66
1
70
1
10
0
20
0
30
0
0
VERTEX
8
ENGRAVE
10
264.137
20
7.573
30
0
0
VERTEX
8
ENGRAVE
10
264.137
20
7.355
30
0
0
VERTEX
8
ENGRAVE
10
264.093
20
7.311
30
0
0
VERTEX
8
ENGRAVE
10
262.999
20
6.698
30
0
0
VERTEX
8
ENGRAVE
10
264.137
20
6.677
30
0
0
VERTEX
8
ENGRAVE
10
264.137
20
6.523
30
0
0
VERTEX
8
ENGRAVE
10
262.693
20
6.523
30
0
0
VERTEX
8
ENGRAVE
10
262.715
20
6.720
30
0
0
VERTEX
8
ENGRAVE
10
263.918
20
7.398
30
0
0
VERTEX
8
ENGRAVE
10
262.693
20
7.420
30
0
0
VERTEX
8
ENGRAVE
10
262.693
20
7.573
30
0
0
SEQEND
8
ENGRAVE
0
POLYLINE
8
ENGRAVE
66
1
70
1
10
0
20
0
30
0
0
VERTEX
8
ENGRAVE
10
264.137
20
5.648
30
0
0
VERTEX
8
ENGRAVE
10
264.137
20
5.408
30
0
0
VERTEX
8
ENGRAVE
10
263.174
20
5.408
30
0
0
VERTEX
8
ENGRAVE
10
263.174
20
5.167
30
0
0
VERTEX
8
ENGRAVE
10
263.021
20
5.167
30
0
0
VERTEX
8
ENGRAVE
10
263.021
20
5.408
30
0
0
VERTEX
8
ENGRAVE
10
262.693
20
5.408
30
0
0
VERTEX
8
ENGRAVE
10
262.693
20
5.583
30
0
0
VERTEX
8
ENGRAVE
10
263.021
20
5.583
30
0
0
VERTEX
8
ENGRAVE
10
263.043
20
6.305
30
0
0
VERTEX
8
ENGRAVE
10
263.153
20
6.305
30
0
0
SEQEND
8
ENGRAVE
0
POLYLINE
8
ENGRAVE
66
1
70
1
10
0
20
0
30
0
0
VERTEX
8
ENGRAVE
10
263.984
20
5.583
30
0
0
VERTEX
8
ENGRAVE
10
263.262
20
6.064
30
0
0
VERTEX
8
ENGRAVE
10
263.174
20
6.086
30
0
0
VERTEX
8
ENGRAVE
10
263.174
20
5.583
30
0
0
SEQEND
8
ENGRAVE
0
POLYLINE
8
ENGRAVE
66
1
70
1
10
0
20
0
30
0
0
VERTEX
8
ENGRAVE
10
275.137
20
7.573
30
0
0
VERTEX
8
ENGRAVE
10
275.137
20
7.355
30
0
0
VERTEX
8
ENGRAVE
10
275.093
20
7.311
30
0
0
VERTEX
8
ENGRAVE
10
273.999
20
6.698
30
0
0
VERTEX
8
ENGRAVE
10
275.137
20
6.677
30
0
0
VERTEX
8
ENGRAVE
10
275.137
20
6.523
30
0
0
VERTEX
8
ENGRAVE
10
273.693
20
6.523
30
0
0
VERTEX
8
ENGRAVE
10
273.715
20
6.720
30
0
0
VERTEX
8
ENGRAVE
10
274.918
20
7.398
30
0
0
VERTEX
8
ENGRAVE
10
273.693
20
7.420
30
0
0
VERTEX
8
ENGRAVE
10
273.693
20
7.573
30
0
0
SEQEND
8
ENGRAVE
0
POLYLINE
8
ENGRAVE
66
1
70
1
10
0
20
0
30
0
0
VERTEX
8
ENGRAVE
10
275.137
20
6.152
30
0
0
VERTEX
8
ENGRAVE
10
275.137
20
5.298
30
0
0
VERTEX
8
ENGRAVE
10
274.984
20
5.320
30
0
0
VERTEX
8
ENGRAVE
10
274.984
20
6.020
30
0
0
VERTEX
8
ENGRAVE
10
274.831
20
6.042
30
0
0
VERTEX
8
ENGRAVE
10
274.524
20
6.042
30
0
0
VERTEX
8
ENGRAVE
10
274.656
20
5.845
30
0
0
VERTEX
8
ENGRAVE
10
274.678
20
5.692
30
0
0
VERTEX
8
ENGRAVE
10
274.590
20
5.408
30
0
0
VERTEX
8
ENGRAVE
10
274.459
20
5.277
30
0
0
VERTEX
8
ENGRAVE
10
274.306
20
5.211
30
0
0
VERTEX
8
ENGRAVE
10
274.043
20
5.211
30
0
0
VERTEX
8
ENGRAVE
10
273.868
20
5.298
30
0
0
VERTEX
8
ENGRAVE
10
273.759
20
5.408
30
0
0
VERTEX
8
ENGRAVE
10
273.671
20
5.627
30
0
0
VERTEX
8
ENGRAVE
10
273.671
20
5.867
30
0
0
VERTEX
8
ENGRAVE
10
273.759
20
6.086
30
0
0
VERTEX
8
ENGRAVE
10
273.890
20
6.217
30
0
0
VERTEX
8
ENGRAVE
10
274.021
20
6.261
30
0
0
VERTEX
8
ENGRAVE
10
274.065
20
6.108
30
0
0
VERTEX
8
ENGRAVE
10
273.956
20
6.064
30
0
0
VERTEX
8
ENGRAVE
10
273.846
20
5.933
30
0
0
VERTEX
8
ENGRAVE
10
273.824
20
5.605
30
0
0
VERTEX
8
ENGRAVE
10
273.956
20
5.430
30
0
0
VERTEX
8
ENGRAVE
10
274.065
20
5.386
30
0
0
VERTEX
8
ENGRAVE
10
274.349
20
5.408
30
0
0
VERTEX
8
ENGRAVE
10
274.503
20
5.583
30
0
0
VERTEX
8
ENGRAVE
10
274.524
20
5.802
30
0
0
VERTEX
8
ENGRAVE
10
274.459
20
5.955
30
0
0
VERTEX
8
ENGRAVE
10
274.328
20
6.042
30
0
0
VERTEX
8
ENGRAVE
10
274.349
20
6.195
30
0
0
SEQEND
8
ENGRAVE
0
POLYLINE
8
CUT
66
1
70
1
10
0
20
0
30
0
0
VERTEX
8
CUT
10
413.000
20
48.500
30
0
0
VERTEX
8
CUT
10
414.000
20
48.500
30
0
0
VERTEX
8
CUT
10
414.000
20
51.500
30
0
0
VERTEX
8
CUT
10
417.150
20
51.500
30
0
0
VERTEX
8
CUT
10
417.150
20
48.500
30
0
0
VERTEX
8
CUT
10
418.150
20
48.500
30
0
0
VERTEX
8
CUT
10
418.150
20
41.125
30
0
0
VERTEX
8
CUT
10
413.000
20
41.125
30
0
0
SEQEND
8
CUT
0
POLYLINE
8
CUT
66
1
70
1
10
0
20
0
30
0
0
VERTEX
8
CUT
10
71.569
20
196.350
30
0
0
VERTEX
8
CUT
10
72.170
20
196.255
30
0
0
VERTEX
8
CUT
10
72.706
20
195.982
30
0
0
VERTEX
8
CUT
10
73.132
20
195.556
30
0
0
VERTEX
8
CUT
10
73.405
20
195.020
30
0
0
VERTEX
8
CUT
10
73.500
20
194.419
30
0
0
VERTEX
8
CUT
10
73.500
20
192.081
30
0
0
VERTEX
8
CUT
10
73.405
20
191.480
30
0
0
VERTEX
8
CUT
10
73.132
20
190.944
30
0
0
VERTEX
8
CUT
10
72.706
20
190.518
30
0
0
VERTEX
8
CUT
10
72.170
20
190.245
30
0
0
VERTEX
8
CUT
10
71.569
20
190.150
30
0
0
VERTEX
8
CUT
10
49.581
20
190.150
30
0
0
VERTEX
8
CUT
10
48.980
20
190.245
30
0
0
VERTEX
8
CUT
10
48.444
20
190.518
30
0
0
VERTEX
8
CUT
10
48.018
20
190.944
30
0
0
VERTEX
8
CUT
10
47.745
20
191.480
30
0
0
VERTEX
8
CUT
10
47.650
20
192.081
30
0
0
VERTEX
8
CUT
10
47.650
20
194.419
30
0
0
VERTEX
8
CUT
10
47.745
20
195.020
30
0
0
VERTEX
8
CUT
10
48.018
20
195.556
30
0
0
VERTEX
8
CUT
10
48.444
20
195.982
30
0
0
VERTEX
8
CUT
10
48.980
20
196.255
30
0
0
VERTEX
8
CUT
10
49.581
20
196.350
30
0
0
SEQEND
8
CUT
0
POLYLINE
8
CUT
66
1
70
1
10
0
20
0
30
0
0
VERTEX
8
CUT
10
53.575
20
294.548
30
0
0
VERTEX
8
CUT
10
54.279
20
294.387
30
0
0
VERTEX
8
CUT
10
54.844
20
293.937
30
0
0
VERTEX
8
CUT
10
55.157
20
293.286
30
0
0
VERTEX
8
CUT
10
55.157
20
292.564
30
0
0
VERTEX
8
CUT
10
54.844
20
291.913
30
0
0
VERTEX
8
CUT
10
54.279
20
291.463
30
0
0
VERTEX
8
CUT
10
53.575
20
291.302
30
0
0
VERTEX
8
CUT
10
52.871
20
291.463
30
0
0
VERTEX
8
CUT
10
52.306
20
291.913
30
0
0
VERTEX
8
CUT
10
51.993
20
292.564
30
0
0
VERTEX
8
CUT
10
51.993
20
293.286
30
0
0
VERTEX
8
CUT
10
52.306
20
293.937
30
0
0
VERTEX
8
CUT
10
52.871
20
294.387
30
0
0
SEQEND
8
CUT
0
POLYLINE
8
CUT
66
1
70
1
10
0
20
0
30
0
0
VERTEX
8
CUT
10
113.575
20
294.548
30
0
0
VERTEX
8
CUT
10
114.279
20
294.387
30
0
0
VERTEX
8
CUT
10
114.844
20
293.937
30
0
0
VERTEX
8
CUT
10
115.157
20
293.286
30
0
0
VERTEX
8
CUT
10
115.157
20
292.564
30
0
0
VERTEX
8
CUT
10
114.844
20
291.913
30
0
0
VERTEX
8
CUT
10
114.279
20
291.463
30
0
0
VERTEX
8
CUT
10
113.575
20
291.302
30
0
0
VERTEX
8
CUT
10
112.871
20
291.463
30
0
0
VERTEX
8
CUT
10
112.306
20
291.913
30
0
0
VERTEX
8
CUT
10
111.993
20
292.564
30
0
0
VERTEX
8
CUT
10
111.993
20
293.286
30
0
0
VERTEX
8
CUT
10
112.306
20
293.937
30
0
0
VERTEX
8
CUT
10
112.871
20
294.387
30
0
0
SEQEND
8
CUT
0
POLYLINE
8
CUT
66
1
70
1
10
0
20
0
30
0
0
VERTEX
8
CUT
10
53.575
20
181.548
30
0
0
VERTEX
8
CUT
10
54.279
20
181.387
30
0
0
VERTEX
8
CUT
10
54.844
20
180.937
30
0
0
VERTEX
8
CUT
10
55.157
20
180.286
30
0
0
VERTEX
8
CUT
10
55.157
20
179.564
30
0
0
VERTEX
8
CUT
10
54.844
20
178.913
30
0
0
VERTEX
8
CUT
10
54.279
20
178.463
30
0
0
VERTEX
8
CUT
10
53.575
20
178.302
30
0
0
VERTEX
8
CUT
10
52.871
20
178.463
30
0
0
VERTEX
8
CUT
10
52.306
20
178.913
30
0
0
VERTEX
8
CUT
10
51.993
20
179.564
30
0
0
VERTEX
8
CUT
10
51.993
20
180.286
30
0
0
VERTEX
8
CUT
10
52.306
20
180.937
30
0
0
VERTEX
8
CUT
10
52.871
20
181.387
30
0
0
SEQEND
8
CUT
0
POLYLINE
8
CUT
66
1
70
1
10
0
20
0
30
0
0
VERTEX
8
CUT
10
113.575
20
181.548
30
0
0
VERTEX
8
CUT
10
114.279
20
181.387
30
0
0
VERTEX
8
CUT
10
114.844
20
180.937
30
0
0
VERTEX
8
CUT
10
115.157
20
180.286
30
0
0
VERTEX
8
CUT
10
115.157
20
179.564
30
0
0
VERTEX
8
CUT
10
114.844
20
178.913
30
0
0
VERTEX
8
CUT
10
114.279
20
178.463
30
0
0
VERTEX
8
CUT
10
113.575
20
178.302
30
0
0
VERTEX
8
CUT
10
112.871
20
178.463
30
0
0
VERTEX
8
CUT
10
112.306
20
178.913
30
0
0
VERTEX
8
CUT
10
111.993
20
179.564
30
0
0
VERTEX
8
CUT
10
111.993
20
180.286
30
0
0
VERTEX
8
CUT
10
112.306
20
180.937
30
0
0
VERTEX
8
CUT
10
112.871
20
181.387
30
0
0
SEQEND
8
CUT
0
POLYLINE
8
CUT
66
1
70
1
10
0
20
0
30
0
0
VERTEX
8
CUT
10
153.075
20
208.048
30
0
0
VERTEX
8
CUT
10
153.779
20
207.887
30
0
0
VERTEX
8
CUT
10
154.344
20
207.437
30
0
0
VERTEX
8
CUT
10
154.657
20
206.786
30
0
0
VERTEX
8
CUT
10
154.657
20
206.064
30
0
0
VERTEX
8
CUT
10
154.344
20
205.413
30
0
0
VERTEX
8
CUT
10
153.779
20
204.963
30
0
0
VERTEX
8
CUT
10
153.075
20
204.802
30
0
0
VERTEX
8
CUT
10
152.371
20
204.963
30
0
0
VERTEX
8
CUT
10
151.806
20
205.413
30
0
0
VERTEX
8
CUT
10
151.493
20
206.064
30
0
0
VERTEX
8
CUT
10
151.493
20
206.786
30
0
0
VERTEX
8
CUT
10
151.806
20
207.437
30
0
0
VERTEX
8
CUT
10
152.371
20
207.887
30
0
0
SEQEND
8
CUT
0
POLYLINE
8
CUT
66
1
70
1
10
0
20
0
30
0
0
VERTEX
8
CUT
10
153.075
20
268.048
30
0
0
VERTEX
8
CUT
10
153.779
20
267.887
30
0
0
VERTEX
8
CUT
10
154.344
20
267.437
30
0
0
VERTEX
8
CUT
10
154.657
20
266.786
30
0
0
VERTEX
8
CUT
10
154.657
20
266.064
30
0
0
VERTEX
8
CUT
10
154.344
20
265.413
30
0
0
VERTEX
8
CUT
10
153.779
20
264.963
30
0
0
VERTEX
8
CUT
10
153.075
20
264.802
30
0
0
VERTEX
8
CUT
10
152.371
20
264.963
30
0
0
VERTEX
8
CUT
10
151.806
20
265.413
30
0
0
VERTEX
8
CUT
10
151.493
20
266.064
30
0
0
VERTEX
8
CUT
10
151.493
20
266.786
30
0
0
VERTEX
8
CUT
10
151.806
20
267.437
30
0
0
VERTEX
8
CUT
10
152.371
20
267.887
30
0
0
SEQEND
8
CUT
0
POLYLINE
8
CUT
66
1
70
1
10
0
20
0
30
0
0
VERTEX
8
CUT
10
143.000
20
291.450
30
0
0
VERTEX
8
CUT
10
143.000
20
294.400
30
0
0
VERTEX
8
CUT
10
152.950
20
294.400
30
0
0
VERTEX
8
CUT
10
152.950
20
291.450
30
0
0
SEQEND
8
CUT
0
POLYLINE
8
CUT
66
1
70
1
10
0
20
0
30
0
0
VERTEX
8
CUT
10
78.600
20
291.450
30
0
0
VERTEX
8
CUT
10
78.600
20
294.400
30
0
0
VERTEX
8
CUT
10
88.550
20
294.400
30
0
0
VERTEX
8
CUT
10
88.550
20
291.450
30
0
0
SEQEND
8
CUT
0
POLYLINE
8
CUT
66
1
70
1
10
0
20
0
30
0
0
VERTEX
8
CUT
10
14.200
20
291.450
30
0
0
VERTEX
8
CUT
10
14.200
20
294.400
30
0
0
VERTEX
8
CUT
10
24.150
20
294.400
30
0
0
VERTEX
8
CUT
10
24.150
20
291.450
30
0
0
SEQEND
8
CUT
0
POLYLINE
8
CUT
66
1
70
1
10
0
20
0
30
0
0
VERTEX
8
CUT
10
143.000
20
178.450
30
0
0
VERTEX
8
CUT
10
143.000
20
181.400
30
0
0
VERTEX
8
CUT
10
152.950
20
181.400
30
0
0
VERTEX
8
CUT
10
152.950
20
178.450
30
0
0
SEQEND
8
CUT
0
POLYLINE
8
CUT
66
1
70
1
10
0
20
0
30
0
0
VERTEX
8
CUT
10
78.600
20
178.450
30
0
0
VERTEX
8
CUT
10
78.600
20
181.400
30
0
0
VERTEX
8
CUT
10
88.550
20
181.400
30
0
0
VERTEX
8
CUT
10
88.550
20
178.450
30
0
0
SEQEND
8
CUT
0
POLYLINE
8
CUT
66
1
70
1
10
0
20
0
30
0
0
VERTEX
8
CUT
10
14.200
20
178.450
30
0
0
VERTEX
8
CUT
10
14.200
20
181.400
30
0
0
VERTEX
8
CUT
10
24.150
20
181.400
30
0
0
VERTEX
8
CUT
10
24.150
20
178.450
30
0
0
SEQEND
8
CUT
0
POLYLINE
8
CUT
66
1
70
1
10
0
20
0
30
0
0
VERTEX
8
CUT
10
6.100
20
185.450
30
0
0
VERTEX
8
CUT
10
6.100
20
193.400
30
0
0
VERTEX
8
CUT
10
9.050
20
193.400
30
0
0
VERTEX
8
CUT
10
9.050
20
185.450
30
0
0
SEQEND
8
CUT
0
POLYLINE
8
CUT
66
1
70
1
10
0
20
0
30
0
0
VERTEX
8
CUT
10
158.100
20
268.117
30
0
0
VERTEX
8
CUT
10
158.100
20
278.067
30
0
0
VERTEX
8
CUT
10
161.050
20
278.067
30
0
0
VERTEX
8
CUT
10
161.050
20
268.117
30
0
0
SEQEND
8
CUT
0
POLYLINE
8
CUT
66
1
70
1
10
0
20
0
30
0
0
VERTEX
8
CUT
10
158.100
20
231.450
30
0
0
VERTEX
8
CUT
10
158.100
20
241.400
30
0
0
VERTEX
8
CUT
10
161.050
20
241.400
30
0
0
VERTEX
8
CUT
10
161.050
20
231.450
30
0
0
SEQEND
8
CUT
0
POLYLINE
8
CUT
66
1
70
1
10
0
20
0
30
0
0
VERTEX
8
CUT
10
158.100
20
194.783
30
0
0
VERTEX
8
CUT
10
158.100
20
204.733
30
0
0
VERTEX
8
CUT
10
161.050
20
204.733
30
0
0
VERTEX
8
CUT
10
161.050
20
194.783
30
0
0
SEQEND
8
CUT
0
POLYLINE
8
CUT
66
1
70
1
10
0
20
0
30
0
0
VERTEX
8
CUT
10
93.600
20
195.750
30
0
0
VERTEX
8
CUT
10
93.600
20
205.700
30
0
0
VERTEX
8
CUT
10
96.550
20
205.700
30
0
0
VERTEX
8
CUT
10
96.550
20
195.750
30
0
0
SEQEND
8
CUT
0
POLYLINE
8
CUT
66
1
70
1
10
0
20
0
30
0
0
VERTEX
8
CUT
10
93.600
20
267.150
30
0
0
VERTEX
8
CUT
10
93.600
20
277.100
30
0
0
VERTEX
8
CUT
10
96.550
20
277.100
30
0
0
VERTEX
8
CUT
10
96.550
20
267.150
30
0
0
SEQEND
8
CUT
0
POLYLINE
8
CUT
66
1
70
1
10
0
20
0
30
0
0
VERTEX
8
CUT
10
50.350
20
185.850
30
0
0
VERTEX
8
CUT
10
50.350
20
188.800
30
0
0
VERTEX
8
CUT
10
60.300
20
188.800
30
0
0
VERTEX
8
CUT
10
60.300
20
185.850
30
0
0
SEQEND
8
CUT
0
POLYLINE
8
CUT
66
1
70
1
10
0
20
0
30
0
0
VERTEX
8
CUT
10
77.850
20
185.850
30
0
0
VERTEX
8
CUT
10
77.850
20
188.800
30
0
0
VERTEX
8
CUT
10
87.800
20
188.800
30
0
0
VERTEX
8
CUT
10
87.800
20
185.850
30
0
0
SEQEND
8
CUT
0
POLYLINE
8
CUT
66
1
70
1
10
0
20
0
30
0
0
VERTEX
8
CUT
10
50.350
20
284.050
30
0
0
VERTEX
8
CUT
10
50.350
20
287.000
30
0
0
VERTEX
8
CUT
10
60.300
20
287.000
30
0
0
VERTEX
8
CUT
10
60.300
20
284.050
30
0
0
SEQEND
8
CUT
0
POLYLINE
8
CUT
66
1
70
1
10
0
20
0
30
0
0
VERTEX
8
CUT
10
77.850
20
284.050
30
0
0
VERTEX
8
CUT
10
77.850
20
287.000
30
0
0
VERTEX
8
CUT
10
87.800
20
287.000
30
0
0
VERTEX
8
CUT
10
87.800
20
284.050
30
0
0
SEQEND
8
CUT
0
POLYLINE
8
CUT
66
1
70
1
10
0
20
0
30
0
0
VERTEX
8
CUT
10
3.000
20
179.920
30
0
0
VERTEX
8
CUT
10
3.000
20
292.930
30
0
0
VERTEX
8
CUT
10
3.138
20
293.980
30
0
0
VERTEX
8
CUT
10
3.545
20
294.963
30
0
0
VERTEX
8
CUT
10
4.193
20
295.807
30
0
0
VERTEX
8
CUT
10
5.037
20
296.455
30
0
0
VERTEX
8
CUT
10
6.020
20
296.862
30
0
0
VERTEX
8
CUT
10
7.070
20
297.000
30
0
0
VERTEX
8
CUT
10
160.080
20
297.000
30
0
0
VERTEX
8
CUT
10
161.130
20
296.862
30
0
0
VERTEX
8
CUT
10
162.113
20
296.455
30
0
0
VERTEX
8
CUT
10
162.957
20
295.807
30
0
0
VERTEX
8
CUT
10
163.605
20
294.963
30
0
0
VERTEX
8
CUT
10
164.012
20
293.980
30
0
0
VERTEX
8
CUT
10
164.150
20
292.930
30
0
0
VERTEX
8
CUT
10
164.150
20
179.920
30
0
0
VERTEX
8
CUT
10
164.012
20
178.870
30
0
0
VERTEX
8
CUT
10
163.605
20
177.887
30
0
0
VERTEX
8
CUT
10
162.957
20
177.043
30
0
0
VERTEX
8
CUT
10
162.113
20
176.395
30
0
0
VERTEX
8
CUT
10
161.130
20
175.988
30
0
0
VERTEX
8
CUT
10
160.080
20
175.850
30
0
0
VERTEX
8
CUT
10
7.070
20
175.850
30
0
0
VERTEX
8
CUT
10
6.020
20
175.988
30
0
0
VERTEX
8
CUT
10
5.037
20
176.395
30
0
0
VERTEX
8
CUT
10
4.193
20
177.043
30
0
0
VERTEX
8
CUT
10
3.545
20
177.887
30
0
0
VERTEX
8
CUT
10
3.138
20
178.870
30
0
0
SEQEND
8
CUT
0
POLYLINE
8
CUT
66
1
70
1
10
0
20
0
30
0
0
VERTEX
8
CUT
10
234.569
20
196.350
30
0
0
VERTEX
8
CUT
10
235.170
20
196.255
30
0
0
VERTEX
8
CUT
10
235.706
20
195.982
30
0
0
VERTEX
8
CUT
10
236.132
20
195.556
30
0
0
VERTEX
8
CUT
10
236.405
20
195.020
30
0
0
VERTEX
8
CUT
10
236.500
20
194.419
30
0
0
VERTEX
8
CUT
10
236.500
20
192.081
30
0
0
VERTEX
8
CUT
10
236.405
20
191.480
30
0
0
VERTEX
8
CUT
10
236.132
20
190.944
30
0
0
VERTEX
8
CUT
10
235.706
20
190.518
30
0
0
VERTEX
8
CUT
10
235.170
20
190.245
30
0
0
VERTEX
8
CUT
10
234.569
20
190.150
30
0
0
VERTEX
8
CUT
10
212.581
20
190.150
30
0
0
VERTEX
8
CUT
10
211.980
20
190.245
30
0
0
VERTEX
8
CUT
10
211.444
20
190.518
30
0
0
VERTEX
8
CUT
10
211.018
20
190.944
30
0
0
VERTEX
8
CUT
10
210.745
20
191.480
30
0
0
VERTEX
8
CUT
10
210.650
20
192.081
30
0
0
VERTEX
8
CUT
10
210.650
20
194.419
30
0
0
VERTEX
8
CUT
10
210.745
20
195.020
30
0
0
VERTEX
8
CUT
10
211.018
20
195.556
30
0
0
VERTEX
8
CUT
10
211.444
20
195.982
30
0
0
VERTEX
8
CUT
10
211.980
20
196.255
30
0
0
VERTEX
8
CUT
10
212.581
20
196.350
30
0
0
SEQEND
8
CUT
0
POLYLINE
8
CUT
66
1
70
1
10
0
20
0
30
0
0
VERTEX
8
CUT
10
216.575
20
294.548
30
0
0
VERTEX
8
CUT
10
217.279
20
294.387
30
0
0
VERTEX
8
CUT
10
217.844
20
293.937
30
0
0
VERTEX
8
CUT
10
218.157
20
293.286
30
0
0
VERTEX
8
CUT
10
218.157
20
292.564
30
0
0
VERTEX
8
CUT
10
217.844
20
291.913
30
0
0
VERTEX
8
CUT
10
217.279
20
291.463
30
0
0
VERTEX
8
CUT
10
216.575
20
291.302
30
0
0
VERTEX
8
CUT
10
215.871
20
291.463
30
0
0
VERTEX
8
CUT
10
215.306
20
291.913
30
0
0
VERTEX
8
CUT
10
214.993
20
292.564
30
0
0
VERTEX
8
CUT
10
214.993
20
293.286
30
0
0
VERTEX
8
CUT
10
215.306
20
293.937
30
0
0
VERTEX
8
CUT
10
215.871
20
294.387
30
0
0
SEQEND
8
CUT
0
POLYLINE
8
CUT
66
1
70
1
10
0
20
0
30
0
0
VERTEX
8
CUT
10
276.575
20
294.548
30
0
0
VERTEX
8
CUT
10
277.279
20
294.387
30
0
0
VERTEX
8
CUT
10
277.844
20
293.937
30
0
0
VERTEX
8
CUT
10
278.157
20
293.286
30
0
0
VERTEX
8
CUT
10
278.157
20
292.564
30
0
0
VERTEX
8
CUT
10
277.844
20
291.913
30
0
0
VERTEX
8
CUT
10
277.279
20
291.463
30
0
0
VERTEX
8
CUT
10
276.575
20
291.302
30
0
0
VERTEX
8
CUT
10
275.871
20
291.463
30
0
0
VERTEX
8
CUT
10
275.306
20
291.913
30
0
0
VERTEX
8
CUT
10
274.993
20
292.564
30
0
0
VERTEX
8
CUT
10
274.993
20
293.286
30
0
0
VERTEX
8
CUT
10
275.306
20
293.937
30
0
0
VERTEX
8
CUT
10
275.871
20
294.387
30
0
0
SEQEND
8
CUT
0
POLYLINE
8
CUT
66
1
70
1
10
0
20
0
30
0
0
VERTEX
8
CUT
10
216.575
20
181.548
30
0
0
VERTEX
8
CUT
10
217.279
20
181.387
30
0
0
VERTEX
8
CUT
10
217.844
20
180.937
30
0
0
VERTEX
8
CUT
10
218.157
20
180.286
30
0
0
VERTEX
8
CUT
10
218.157
20
179.564
30
0
0
VERTEX
8
CUT
10
217.844
20
178.913
30
0
0
VERTEX
8
CUT
10
217.279
20
178.463
30
0
0
VERTEX
8
CUT
10
216.575
20
178.302
30
0
0
VERTEX
8
CUT
10
215.871
20
178.463
30
0
0
VERTEX
8
CUT
10
215.306
20
178.913
30
0
0
VERTEX
8
CUT
10
214.993
20
179.564
30
0
0
VERTEX
8
CUT
10
214.993
20
180.286
30
0
0
VERTEX
8
CUT
10
215.306
20
180.937
30
0
0
VERTEX
8
CUT
10
215.871
20
181.387
30
0
0
SEQEND
8
CUT
0
POLYLINE
8
CUT
66
1
70
1
10
0
20
0
30
0
0
VERTEX
8
CUT
10
276.575
20
181.548
30
0
0
VERTEX
8
CUT
10
277.279
20
181.387
30
0
0
VERTEX
8
CUT
10
277.844
20
180.937
30
0
0
VERTEX
8
CUT
10
278.157
20
180.286
30
0
0
VERTEX
8
CUT
10
278.157
20
179.564
30
0
0
VERTEX
8
CUT
10
277.844
20
178.913
30
0
0
VERTEX
8
CUT
10
277.279
20
178.463
30
0
0
VERTEX
8
CUT
10
276.575
20
178.302
30
0
0
VERTEX
8
CUT
10
275.871
20
178.463
30
0
0
VERTEX
8
CUT
10
275.306
20
178.913
30
0
0
VERTEX
8
CUT
10
274.993
20
179.564
30
0
0
VERTEX
8
CUT
10
274.993
20
180.286
30
0
0
VERTEX
8
CUT
10
275.306
20
180.937
30
0
0
VERTEX
8
CUT
10
275.871
20
181.387
30
0
0
SEQEND
8
CUT
0
POLYLINE
8
CUT
66
1
70
1
10
0
20
0
30
0
0
VERTEX
8
CUT
10
316.075
20
208.048
30
0
0
VERTEX
8
CUT
10
316.779
20
207.887
30
0
0
VERTEX
8
CUT
10
317.344
20
207.437
30
0
0
VERTEX
8
CUT
10
317.657
20
206.786
30
0
0
VERTEX
8
CUT
10
317.657
20
206.064
30
0
0
VERTEX
8
CUT
10
317.344
20
205.413
30
0
0
VERTEX
8
CUT
10
316.779
20
204.963
30
0
0
VERTEX
8
CUT
10
316.075
20
204.802
30
0
0
VERTEX
8
CUT
10
315.371
20
204.963
30
0
0
VERTEX
8
CUT
10
314.806
20
205.413
30
0
0
VERTEX
8
CUT
10
314.493
20
206.064
30
0
0
VERTEX
8
CUT
10
314.493
20
206.786
30
0
0
VERTEX
8
CUT
10
314.806
20
207.437
30
0
0
VERTEX
8
CUT
10
315.371
20
207.887
30
0
0
SEQEND
8
CUT
0
POLYLINE
8
CUT
66
1
70
1
10
0
20
0
30
0
0
VERTEX
8
CUT
10
316.075
20
268.048
30
0
0
VERTEX
8
CUT
10
316.779
20
267.887
30
0
0
VERTEX
8
CUT
10
317.344
20
267.437
30
0
0
VERTEX
8
CUT
10
317.657
20
266.786
30
0
0
VERTEX
8
CUT
10
317.657
20
266.064
30
0
0
VERTEX
8
CUT
10
317.344
20
265.413
30
0
0
VERTEX
8
CUT
10
316.779
20
264.963
30
0
0
VERTEX
8
CUT
10
316.075
20
264.802
30
0
0
VERTEX
8
CUT
10
315.371
20
264.963
30
0
0
VERTEX
8
CUT
10
314.806
20
265.413
30
0
0
VERTEX
8
CUT
10
314.493
20
266.064
30
0
0
VERTEX
8
CUT
10
314.493
20
266.786
30
0
0
VERTEX
8
CUT
10
314.806
20
267.437
30
0
0
VERTEX
8
CUT
10
315.371
20
267.887
30
0
0
SEQEND
8
CUT
0
POLYLINE
8
CUT
66
1
70
1
10
0
20
0
30
0
0
VERTEX
8
CUT
10
306.000
20
291.450
30
0
0
VERTEX
8
CUT
10
306.000
20
294.400
30
0
0
VERTEX
8
CUT
10
315.950
20
294.400
30
0
0
VERTEX
8
CUT
10
315.950
20
291.450
30
0
0
SEQEND
8
CUT
0
POLYLINE
8
CUT
66
1
70
1
10
0
20
0
30
0
0
VERTEX
8
CUT
10
241.600
20
291.450
30
0
0
VERTEX
8
CUT
10
241.600
20
294.400
30
0
0
VERTEX
8
CUT
10
251.550
20
294.400
30
0
0
VERTEX
8
CUT
10
251.550
20
291.450
30
0
0
SEQEND
8
CUT
0
POLYLINE
8
CUT
66
1
70
1
10
0
20
0
30
0
0
VERTEX
8
CUT
10
177.200
20
291.450
30
0
0
VERTEX
8
CUT
10
177.200
20
294.400
30
0
0
VERTEX
8
CUT
10
187.150
20
294.400
30
0
0
VERTEX
8
CUT
10
187.150
20
291.450
30
0
0
SEQEND
8
CUT
0
POLYLINE
8
CUT
66
1
70
1
10
0
20
0
30
0
0
VERTEX
8
CUT
10
306.000
20
178.450
30
0
0
VERTEX
8
CUT
10
306.000
20
181.400
30
0
0
VERTEX
8
CUT
10
315.950
20
181.400
30
0
0
VERTEX
8
CUT
10
315.950
20
178.450
30
0
0
SEQEND
8
CUT
0
POLYLINE
8
CUT
66
1
70
1
10
0
20
0
30
0
0
VERTEX
8
CUT
10
241.600
20
178.450
30
0
0
VERTEX
8
CUT
10
241.600
20
181.400
30
0
0
VERTEX
8
CUT
10
251.550
20
181.400
30
0
0
VERTEX
8
CUT
10
251.550
20
178.450
30
0
0
SEQEND
8
CUT
0
POLYLINE
8
CUT
66
1
70
1
10
0
20
0
30
0
0
VERTEX
8
CUT
10
177.200
20
178.450
30
0
0
VERTEX
8
CUT
10
177.200
20
181.400
30
0
0
VERTEX
8
CUT
10
187.150
20
181.400
30
0
0
VERTEX
8
CUT
10
187.150
20
178.450
30
0
0
SEQEND
8
CUT
0
POLYLINE
8
CUT
66
1
70
1
10
0
20
0
30
0
0
VERTEX
8
CUT
10
169.100
20
185.450
30
0
0
VERTEX
8
CUT
10
169.100
20
193.400
30
0
0
VERTEX
8
CUT
10
172.050
20
193.400
30
0
0
VERTEX
8
CUT
10
172.050
20
185.450
30
0
0
SEQEND
8
CUT
0
POLYLINE
8
CUT
66
1
70
1
10
0
20
0
30
0
0
VERTEX
8
CUT
10
321.100
20
268.117
30
0
0
VERTEX
8
CUT
10
321.100
20
278.067
30
0
0
VERTEX
8
CUT
10
324.050
20
278.067
30
0
0
VERTEX
8
CUT
10
324.050
20
268.117
30
0
0
SEQEND
8
CUT
0
POLYLINE
8
CUT
66
1
70
1
10
0
20
0
30
0
0
VERTEX
8
CUT
10
321.100
20
231.450
30
0
0
VERTEX
8
CUT
10
321.100
20
241.400
30
0
0
VERTEX
8
CUT
10
324.050
20
241.400
30
0
0
VERTEX
8
CUT
10
324.050
20
231.450
30
0
0
SEQEND
8
CUT
0
POLYLINE
8
CUT
66
1
70
1
10
0
20
0
30
0
0
VERTEX
8
CUT
10
321.100
20
194.783
30
0
0
VERTEX
8
CUT
10
321.100
20
204.733
30
0
0
VERTEX
8
CUT
10
324.050
20
204.733
30
0
0
VERTEX
8
CUT
10
324.050
20
194.783
30
0
0
SEQEND
8
CUT
0
POLYLINE
8
CUT
66
1
70
1
10
0
20
0
30
0
0
VERTEX
8
CUT
10
256.600
20
195.750
30
0
0
VERTEX
8
CUT
10
256.600
20
205.700
30
0
0
VERTEX
8
CUT
10
259.550
20
205.700
30
0
0
VERTEX
8
CUT
10
259.550
20
195.750
30
0
0
SEQEND
8
CUT
0
POLYLINE
8
CUT
66
1
70
1
10
0
20
0
30
0
0
VERTEX
8
CUT
10
256.600
20
267.150
30
0
0
VERTEX
8
CUT
10
256.600
20
277.100
30
0
0
VERTEX
8
CUT
10
259.550
20
277.100
30
0
0
VERTEX
8
CUT
10
259.550
20
267.150
30
0
0
SEQEND
8
CUT
0
POLYLINE
8
CUT
66
1
70
1
10
0
20
0
30
0
0
VERTEX
8
CUT
10
213.350
20
185.850
30
0
0
VERTEX
8
CUT
10
213.350
20
188.800
30
0
0
VERTEX
8
CUT
10
223.300
20
188.800
30
0
0
VERTEX
8
CUT
10
223.300
20
185.850
30
0
0
SEQEND
8
CUT
0
POLYLINE
8
CUT
66
1
70
1
10
0
20
0
30
0
0
VERTEX
8
CUT
10
240.850
20
185.850
30
0
0
VERTEX
8
CUT
10
240.850
20
188.800
30
0
0
VERTEX
8
CUT
10
250.800
20
188.800
30
0
0
VERTEX
8
CUT
10
250.800
20
185.850
30
0
0
SEQEND
8
CUT
0
POLYLINE
8
CUT
66
1
70
1
10
0
20
0
30
0
0
VERTEX
8
CUT
10
213.350
20
284.050
30
0
0
VERTEX
8
CUT
10
213.350
20
287.000
30
0
0
VERTEX
8
CUT
10
223.300
20
287.000
30
0
0
VERTEX
8
CUT
10
223.300
20
284.050
30
0
0
SEQEND
8
CUT
0
POLYLINE
8
CUT
66
1
70
1
10
0
20
0
30
0
0
VERTEX
8
CUT
10
240.850
20
284.050
30
0
0
VERTEX
8
CUT
10
240.850
20
287.000
30
0
0
VERTEX
8
CUT
10
250.800
20
287.000
30
0
0
VERTEX
8
CUT
10
250.800
20
284.050
30
0
0
SEQEND
8
CUT
0
POLYLINE
8
CUT
66
1
70
1
10
0
20
0
30
0
0
VERTEX
8
CUT
10
166.000
20
179.920
30
0
0
VERTEX
8
CUT
10
166.000
20
292.930
30
0
0
VERTEX
8
CUT
10
166.138
20
293.980
30
0
0
VERTEX
8
CUT
10
166.545
20
294.963
30
0
0
VERTEX
8
CUT
10
167.193
20
295.807
30
0
0
VERTEX
8
CUT
10
168.037
20
296.455
30
0
0
VERTEX
8
CUT
10
169.020
20
296.862
30
0
0
VERTEX
8
CUT
10
170.070
20
297.000
30
0
0
VERTEX
8
CUT
10
323.080
20
297.000
30
0
0
VERTEX
8
CUT
10
324.130
20
296.862
30
0
0
VERTEX
8
CUT
10
325.113
20
296.455
30
0
0
VERTEX
8
CUT
10
325.957
20
295.807
30
0
0
VERTEX
8
CUT
10
326.605
20
294.963
30
0
0
VERTEX
8
CUT
10
327.012
20
293.980
30
0
0
VERTEX
8
CUT
10
327.150
20
292.930
30
0
0
VERTEX
8
CUT
10
327.150
20
179.920
30
0
0
VERTEX
8
CUT
10
327.012
20
178.870
30
0
0
VERTEX
8
CUT
10
326.605
20
177.887
30
0
0
VERTEX
8
CUT
10
325.957
20
177.043
30
0
0
VERTEX
8
CUT
10
325.113
20
176.395
30
0
0
VERTEX
8
CUT
10
324.130
20
175.988
30
0
0
VERTEX
8
CUT
10
323.080
20
175.850
30
0
0
VERTEX
8
CUT
10
170.070
20
175.850
30
0
0
VERTEX
8
CUT
10
169.020
20
175.988
30
0
0
VERTEX
8
CUT
10
168.037
20
176.395
30
0
0
VERTEX
8
CUT
10
167.193
20
177.043
30
0
0
VERTEX
8
CUT
10
166.545
20
177.887
30
0
0
VERTEX
8
CUT
10
166.138
20
178.870
30
0
0
SEQEND
8
CUT
0
POLYLINE
8
CUT
66
1
70
1
10
0
20
0
30
0
0
VERTEX
8
CUT
10
71.569
20
73.350
30
0
0
VERTEX
8
CUT
10
72.170
20
73.255
30
0
0
VERTEX
8
CUT
10
72.706
20
72.982
30
0
0
VERTEX
8
CUT
10
73.132
20
72.556
30
0
0
VERTEX
8
CUT
10
73.405
20
72.020
30
0
0
VERTEX
8
CUT
10
73.500
20
71.419
30
0
0
VERTEX
8
CUT
10
73.500
20
69.081
30
0
0
VERTEX
8
CUT
10
73.405
20
68.480
30
0
0
VERTEX
8
CUT
10
73.132
20
67.944
30
0
0
VERTEX
8
CUT
10
72.706
20
67.518
30
0
0
VERTEX
8
CUT
10
72.170
20
67.245
30
0
0
VERTEX
8
CUT
10
71.569
20
67.150
30
0
0
VERTEX
8
CUT
10
49.581
20
67.150
30
0
0
VERTEX
8
CUT
10
48.980
20
67.245
30
0
0
VERTEX
8
CUT
10
48.444
20
67.518
30
0
0
VERTEX
8
CUT
10
48.018
20
67.944
30
0
0
VERTEX
8
CUT
10
47.745
20
68.480
30
0
0
VERTEX
8
CUT
10
47.650
20
69.081
30
0
0
VERTEX
8
CUT
10
47.650
20
71.419
30
0
0
VERTEX
8
CUT
10
47.745
20
72.020
30
0
0
VERTEX
8
CUT
10
48.018
20
72.556
30
0
0
VERTEX
8
CUT
10
48.444
20
72.982
30
0
0
VERTEX
8
CUT
10
48.980
20
73.255
30
0
0
VERTEX
8
CUT
10
49.581
20
73.350
30
0
0
SEQEND
8
CUT
0
POLYLINE
8
CUT
66
1
70
1
10
0
20
0
30
0
0
VERTEX
8
CUT
10
53.575
20
171.548
30
0
0
VERTEX
8
CUT
10
54.279
20
171.387
30
0
0
VERTEX
8
CUT
10
54.844
20
170.937
30
0
0
VERTEX
8
CUT
10
55.157
20
170.286
30
0
0
VERTEX
8
CUT
10
55.157
20
169.564
30
0
0
VERTEX
8
CUT
10
54.844
20
168.913
30
0
0
VERTEX
8
CUT
10
54.279
20
168.463
30
0
0
VERTEX
8
CUT
10
53.575
20
168.302
30
0
0
VERTEX
8
CUT
10
52.871
20
168.463
30
0
0
VERTEX
8
CUT
10
52.306
20
168.913
30
0
0
VERTEX
8
CUT
10
51.993
20
169.564
30
0
0
VERTEX
8
CUT
10
51.993
20
170.286
30
0
0
VERTEX
8
CUT
10
52.306
20
170.937
30
0
0
VERTEX
8
CUT
10
52.871
20
171.387
30
0
0
SEQEND
8
CUT
0
POLYLINE
8
CUT
66
1
70
1
10
0
20
0
30
0
0
VERTEX
8
CUT
10
113.575
20
171.548
30
0
0
VERTEX
8
CUT
10
114.279
20
171.387
30
0
0
VERTEX
8
CUT
10
114.844
20
170.937
30
0
0
VERTEX
8
CUT
10
115.157
20
170.286
30
0
0
VERTEX
8
CUT
10
115.157
20
169.564
30
0
0
VERTEX
8
CUT
10
114.844
20
168.913
30
0
0
VERTEX
8
CUT
10
114.279
20
168.463
30
0
0
VERTEX
8
CUT
10
113.575
20
168.302
30
0
0
VERTEX
8
CUT
10
112.871
20
168.463
30
0
0
VERTEX
8
CUT
10
112.306
20
168.913
30
0
0
VERTEX
8
CUT
10
111.993
20
169.564
30
0
0
VERTEX
8
CUT
10
111.993
20
170.286
30
0
0
VERTEX
8
CUT
10
112.306
20
170.937
30
0
0
VERTEX
8
CUT
10
112.871
20
171.387
30
0
0
SEQEND
8
CUT
0
POLYLINE
8
CUT
66
1
70
1
10
0
20
0
30
0
0
VERTEX
8
CUT
10
53.575
20
58.548
30
0
0
VERTEX
8
CUT
10
54.279
20
58.387
30
0
0
VERTEX
8
CUT
10
54.844
20
57.937
30
0
0
VERTEX
8
CUT
10
55.157
20
57.286
30
0
0
VERTEX
8
CUT
10
55.157
20
56.564
30
0
0
VERTEX
8
CUT
10
54.844
20
55.913
30
0
0
VERTEX
8
CUT
10
54.279
20
55.463
30
0
0
VERTEX
8
CUT
10
53.575
20
55.302
30
0
0
VERTEX
8
CUT
10
52.871
20
55.463
30
0
0
VERTEX
8
CUT
10
52.306
20
55.913
30
0
0
VERTEX
8
CUT
10
51.993
20
56.564
30
0
0
VERTEX
8
CUT
10
51.993
20
57.286
30
0
0
VERTEX
8
CUT
10
52.306
20
57.937
30
0
0
VERTEX
8
CUT
10
52.871
20
58.387
30
0
0
SEQEND
8
CUT
0
POLYLINE
8
CUT
66
1
70
1
10
0
20
0
30
0
0
VERTEX
8
CUT
10
113.575
20
58.548
30
0
0
VERTEX
8
CUT
10
114.279
20
58.387
30
0
0
VERTEX
8
CUT
10
114.844
20
57.937
30
0
0
VERTEX
8
CUT
10
115.157
20
57.286
30
0
0
VERTEX
8
CUT
10
115.157
20
56.564
30
0
0
VERTEX
8
CUT
10
114.844
20
55.913
30
0
0
VERTEX
8
CUT
10
114.279
20
55.463
30
0
0
VERTEX
8
CUT
10
113.575
20
55.302
30
0
0
VERTEX
8
CUT
10
112.871
20
55.463
30
0
0
VERTEX
8
CUT
10
112.306
20
55.913
30
0
0
VERTEX
8
CUT
10
111.993
20
56.564
30
0
0
VERTEX
8
CUT
10
111.993
20
57.286
30
0
0
VERTEX
8
CUT
10
112.306
20
57.937
30
0
0
VERTEX
8
CUT
10
112.871
20
58.387
30
0
0
SEQEND
8
CUT
0
POLYLINE
8
CUT
66
1
70
1
10
0
20
0
30
0
0
VERTEX
8
CUT
10
153.075
20
85.048
30
0
0
VERTEX
8
CUT
10
153.779
20
84.887
30
0
0
VERTEX
8
CUT
10
154.344
20
84.437
30
0
0
VERTEX
8
CUT
10
154.657
20
83.786
30
0
0
VERTEX
8
CUT
10
154.657
20
83.064
30
0
0
VERTEX
8
CUT
10
154.344
20
82.413
30
0
0
VERTEX
8
CUT
10
153.779
20
81.963
30
0
0
VERTEX
8
CUT
10
153.075
20
81.802
30
0
0
VERTEX
8
CUT
10
152.371
20
81.963
30
0
0
VERTEX
8
CUT
10
151.806
20
82.413
30
0
0
VERTEX
8
CUT
10
151.493
20
83.064
30
0
0
VERTEX
8
CUT
10
151.493
20
83.786
30
0
0
VERTEX
8
CUT
10
151.806
20
84.437
30
0
0
VERTEX
8
CUT
10
152.371
20
84.887
30
0
0
SEQEND
8
CUT
0
POLYLINE
8
CUT
66
1
70
1
10
0
20
0
30
0
0
VERTEX
8
CUT
10
153.075
20
145.048
30
0
0
VERTEX
8
CUT
10
153.779
20
144.887
30
0
0
VERTEX
8
CUT
10
154.344
20
144.437
30
0
0
VERTEX
8
CUT
10
154.657
20
143.786
30
0
0
VERTEX
8
CUT
10
154.657
20
143.064
30
0
0
VERTEX
8
CUT
10
154.344
20
142.413
30
0
0
VERTEX
8
CUT
10
153.779
20
141.963
30
0
0
VERTEX
8
CUT
10
153.075
20
141.802
30
0
0
VERTEX
8
CUT
10
152.371
20
141.963
30
0
0
VERTEX
8
CUT
10
151.806
20
142.413
30
0
0
VERTEX
8
CUT
10
151.493
20
143.064
30
0
0
VERTEX
8
CUT
10
151.493
20
143.786
30
0
0
VERTEX
8
CUT
10
151.806
20
144.437
30
0
0
VERTEX
8
CUT
10
152.371
20
144.887
30
0
0
SEQEND
8
CUT
0
POLYLINE
8
CUT
66
1
70
1
10
0
20
0
30
0
0
VERTEX
8
CUT
10
143.000
20
168.450
30
0
0
VERTEX
8
CUT
10
143.000
20
171.400
30
0
0
VERTEX
8
CUT
10
152.950
20
171.400
30
0
0
VERTEX
8
CUT
10
152.950
20
168.450
30
0
0
SEQEND
8
CUT
0
POLYLINE
8
CUT
66
1
70
1
10
0
20
0
30
0
0
VERTEX
8
CUT
10
78.600
20
168.450
30
0
0
VERTEX
8
CUT
10
78.600
20
171.400
30
0
0
VERTEX
8
CUT
10
88.550
20
171.400
30
0
0
VERTEX
8
CUT
10
88.550
20
168.450
30
0
0
SEQEND
8
CUT
0
POLYLINE
8
CUT
66
1
70
1
10
0
20
0
30
0
0
VERTEX
8
CUT
10
14.200
20
168.450
30
0
0
VERTEX
8
CUT
10
14.200
20
171.400
30
0
0
VERTEX
8
CUT
10
24.150
20
171.400
30
0
0
VERTEX
8
CUT
10
24.150
20
168.450
30
0
0
SEQEND
8
CUT
0
POLYLINE
8
CUT
66
1
70
1
10
0
20
0
30
0
0
VERTEX
8
CUT
10
143.000
20
55.450
30
0
0
VERTEX
8
CUT
10
143.000
20
58.400
30
0
0
VERTEX
8
CUT
10
152.950
20
58.400
30
0
0
VERTEX
8
CUT
10
152.950
20
55.450
30
0
0
SEQEND
8
CUT
0
POLYLINE
8
CUT
66
1
70
1
10
0
20
0
30
0
0
VERTEX
8
CUT
10
78.600
20
55.450
30
0
0
VERTEX
8
CUT
10
78.600
20
58.400
30
0
0
VERTEX
8
CUT
10
88.550
20
58.400
30
0
0
VERTEX
8
CUT
10
88.550
20
55.450
30
0
0
SEQEND
8
CUT
0
POLYLINE
8
CUT
66
1
70
1
10
0
20
0
30
0
0
VERTEX
8
CUT
10
14.200
20
55.450
30
0
0
VERTEX
8
CUT
10
14.200
20
58.400
30
0
0
VERTEX
8
CUT
10
24.150
20
58.400
30
0
0
VERTEX
8
CUT
10
24.150
20
55.450
30
0
0
SEQEND
8
CUT
0
POLYLINE
8
CUT
66
1
70
1
10
0
20
0
30
0
0
VERTEX
8
CUT
10
6.100
20
62.450
30
0
0
VERTEX
8
CUT
10
6.100
20
70.400
30
0
0
VERTEX
8
CUT
10
9.050
20
70.400
30
0
0
VERTEX
8
CUT
10
9.050
20
62.450
30
0
0
SEQEND
8
CUT
0
POLYLINE
8
CUT
66
1
70
1
10
0
20
0
30
0
0
VERTEX
8
CUT
10
158.100
20
145.117
30
0
0
VERTEX
8
CUT
10
158.100
20
155.067
30
0
0
VERTEX
8
CUT
10
161.050
20
155.067
30
0
0
VERTEX
8
CUT
10
161.050
20
145.117
30
0
0
SEQEND
8
CUT
0
POLYLINE
8
CUT
66
1
70
1
10
0
20
0
30
0
0
VERTEX
8
CUT
10
158.100
20
108.450
30
0
0
VERTEX
8
CUT
10
158.100
20
118.400
30
0
0
VERTEX
8
CUT
10
161.050
20
118.400
30
0
0
VERTEX
8
CUT
10
161.050
20
108.450
30
0
0
SEQEND
8
CUT
0
POLYLINE
8
CUT
66
1
70
1
10
0
20
0
30
0
0
VERTEX
8
CUT
10
158.100
20
71.783
30
0
0
VERTEX
8
CUT
10
158.100
20
81.733
30
0
0
VERTEX
8
CUT
10
161.050
20
81.733
30
0
0
VERTEX
8
CUT
10
161.050
20
71.783
30
0
0
SEQEND
8
CUT
0
POLYLINE
8
CUT
66
1
70
1
10
0
20
0
30
0
0
VERTEX
8
CUT
10
93.600
20
72.750
30
0
0
VERTEX
8
CUT
10
93.600
20
82.700
30
0
0
VERTEX
8
CUT
10
96.550
20
82.700
30
0
0
VERTEX
8
CUT
10
96.550
20
72.750
30
0
0
SEQEND
8
CUT
0
POLYLINE
8
CUT
66
1
70
1
10
0
20
0
30
0
0
VERTEX
8
CUT
10
93.600
20
144.150
30
0
0
VERTEX
8
CUT
10
93.600
20
154.100
30
0
0
VERTEX
8
CUT
10
96.550
20
154.100
30
0
0
VERTEX
8
CUT
10
96.550
20
144.150
30
0
0
SEQEND
8
CUT
0
POLYLINE
8
CUT
66
1
70
1
10
0
20
0
30
0
0
VERTEX
8
CUT
10
50.350
20
62.850
30
0
0
VERTEX
8
CUT
10
50.350
20
65.800
30
0
0
VERTEX
8
CUT
10
60.300
20
65.800
30
0
0
VERTEX
8
CUT
10
60.300
20
62.850
30
0
0
SEQEND
8
CUT
0
POLYLINE
8
CUT
66
1
70
1
10
0
20
0
30
0
0
VERTEX
8
CUT
10
77.850
20
62.850
30
0
0
VERTEX
8
CUT
10
77.850
20
65.800
30
0
0
VERTEX
8
CUT
10
87.800
20
65.800
30
0
0
VERTEX
8
CUT
10
87.800
20
62.850
30
0
0
SEQEND
8
CUT
0
POLYLINE
8
CUT
66
1
70
1
10
0
20
0
30
0
0
VERTEX
8
CUT
10
50.350
20
161.050
30
0
0
VERTEX
8
CUT
10
50.350
20
164.000
30
0
0
VERTEX
8
CUT
10
60.300
20
164.000
30
0
0
VERTEX
8
CUT
10
60.300
20
161.050
30
0
0
SEQEND
8
CUT
0
POLYLINE
8
CUT
66
1
70
1
10
0
20
0
30
0
0
VERTEX
8
CUT
10
77.850
20
161.050
30
0
0
VERTEX
8
CUT
10
77.850
20
164.000
30
0
0
VERTEX
8
CUT
10
87.800
20
164.000
30
0
0
VERTEX
8
CUT
10
87.800
20
161.050
30
0
0
SEQEND
8
CUT
0
POLYLINE
8
CUT
66
1
70
1
10
0
20
0
30
0
0
VERTEX
8
CUT
10
3.000
20
56.920
30
0
0
VERTEX
8
CUT
10
3.000
20
169.930
30
0
0
VERTEX
8
CUT
10
3.138
20
170.980
30
0
0
VERTEX
8
CUT
10
3.545
20
171.963
30
0
0
VERTEX
8
CUT
10
4.193
20
172.807
30
0
0
VERTEX
8
CUT
10
5.037
20
173.455
30
0
0
VERTEX
8
CUT
10
6.020
20
173.862
30
0
0
VERTEX
8
CUT
10
7.070
20
174.000
30
0
0
VERTEX
8
CUT
10
160.080
20
174.000
30
0
0
VERTEX
8
CUT
10
161.130
20
173.862
30
0
0
VERTEX
8
CUT
10
162.113
20
173.455
30
0
0
VERTEX
8
CUT
10
162.957
20
172.807
30
0
0
VERTEX
8
CUT
10
163.605
20
171.963
30
0
0
VERTEX
8
CUT
10
164.012
20
170.980
30
0
0
VERTEX
8
CUT
10
164.150
20
169.930
30
0
0
VERTEX
8
CUT
10
164.150
20
56.920
30
0
0
VERTEX
8
CUT
10
164.012
20
55.870
30
0
0
VERTEX
8
CUT
10
163.605
20
54.887
30
0
0
VERTEX
8
CUT
10
162.957
20
54.043
30
0
0
VERTEX
8
CUT
10
162.113
20
53.395
30
0
0
VERTEX
8
CUT
10
161.130
20
52.988
30
0
0
VERTEX
8
CUT
10
160.080
20
52.850
30
0
0
VERTEX
8
CUT
10
7.070
20
52.850
30
0
0
VERTEX
8
CUT
10
6.020
20
52.988
30
0
0
VERTEX
8
CUT
10
5.037
20
53.395
30
0
0
VERTEX
8
CUT
10
4.193
20
54.043
30
0
0
VERTEX
8
CUT
10
3.545
20
54.887
30
0
0
VERTEX
8
CUT
10
3.138
20
55.870
30
0
0
SEQEND
8
CUT
0
POLYLINE
8
CUT
66
1
70
1
10
0
20
0
30
0
0
VERTEX
8
CUT
10
432.951
20
187.025
30
0
0
VERTEX
8
CUT
10
433.067
20
187.608
30
0
0
VERTEX
8
CUT
10
433.398
20
188.102
30
0
0
VERTEX
8
CUT
10
433.892
20
188.433
30
0
0
VERTEX
8
CUT
10
434.475
20
188.549
30
0
0
VERTEX
8
CUT
10
435.058
20
188.433
30
0
0
VERTEX
8
CUT
10
435.552
20
188.102
30
0
0
VERTEX
8
CUT
10
435.883
20
187.608
30
0
0
VERTEX
8
CUT
10
435.999
20
187.025
30
0
0
VERTEX
8
CUT
10
435.883
20
186.442
30
0
0
VERTEX
8
CUT
10
435.552
20
185.948
30
0
0
VERTEX
8
CUT
10
435.058
20
185.617
30
0
0
VERTEX
8
CUT
10
434.475
20
185.501
30
0
0
VERTEX
8
CUT
10
433.892
20
185.617
30
0
0
VERTEX
8
CUT
10
433.398
20
185.948
30
0
0
VERTEX
8
CUT
10
433.067
20
186.442
30
0
0
SEQEND
8
CUT
0
POLYLINE
8
CUT
66
1
70
1
10
0
20
0
30
0
0
VERTEX
8
CUT
10
432.951
20
227.825
30
0
0
VERTEX
8
CUT
10
433.067
20
228.408
30
0
0
VERTEX
8
CUT
10
433.398
20
228.902
30
0
0
VERTEX
8
CUT
10
433.892
20
229.233
30
0
0
VERTEX
8
CUT
10
434.475
20
229.349
30
0
0
VERTEX
8
CUT
10
435.058
20
229.233
30
0
0
VERTEX
8
CUT
10
435.552
20
228.902
30
0
0
VERTEX
8
CUT
10
435.883
20
228.408
30
0
0
VERTEX
8
CUT
10
435.999
20
227.825
30
0
0
VERTEX
8
CUT
10
435.883
20
227.242
30
0
0
VERTEX
8
CUT
10
435.552
20
226.748
30
0
0
VERTEX
8
CUT
10
435.058
20
226.417
30
0
0
VERTEX
8
CUT
10
434.475
20
226.301
30
0
0
VERTEX
8
CUT
10
433.892
20
226.417
30
0
0
VERTEX
8
CUT
10
433.398
20
226.748
30
0
0
VERTEX
8
CUT
10
433.067
20
227.242
30
0
0
SEQEND
8
CUT
0
POLYLINE
8
CUT
66
1
70
1
10
0
20
0
30
0
0
VERTEX
8
CUT
10
410.151
20
187.025
30
0
0
VERTEX
8
CUT
10
410.267
20
187.608
30
0
0
VERTEX
8
CUT
10
410.598
20
188.102
30
0
0
VERTEX
8
CUT
10
411.092
20
188.433
30
0
0
VERTEX
8
CUT
10
411.675
20
188.549
30
0
0
VERTEX
8
CUT
10
412.258
20
188.433
30
0
0
VERTEX
8
CUT
10
412.752
20
188.102
30
0
0
VERTEX
8
CUT
10
413.083
20
187.608
30
0
0
VERTEX
8
CUT
10
413.199
20
187.025
30
0
0
VERTEX
8
CUT
10
413.083
20
186.442
30
0
0
VERTEX
8
CUT
10
412.752
20
185.948
30
0
0
VERTEX
8
CUT
10
412.258
20
185.617
30
0
0
VERTEX
8
CUT
10
411.675
20
185.501
30
0
0
VERTEX
8
CUT
10
411.092
20
185.617
30
0
0
VERTEX
8
CUT
10
410.598
20
185.948
30
0
0
VERTEX
8
CUT
10
410.267
20
186.442
30
0
0
SEQEND
8
CUT
0
POLYLINE
8
CUT
66
1
70
1
10
0
20
0
30
0
0
VERTEX
8
CUT
10
410.151
20
227.825
30
0
0
VERTEX
8
CUT
10
410.267
20
228.408
30
0
0
VERTEX
8
CUT
10
410.598
20
228.902
30
0
0
VERTEX
8
CUT
10
411.092
20
229.233
30
0
0
VERTEX
8
CUT
10
411.675
20
229.349
30
0
0
VERTEX
8
CUT
10
412.258
20
229.233
30
0
0
VERTEX
8
CUT
10
412.752
20
228.902
30
0
0
VERTEX
8
CUT
10
413.083
20
228.408
30
0
0
VERTEX
8
CUT
10
413.199
20
227.825
30
0
0
VERTEX
8
CUT
10
413.083
20
227.242
30
0
0
VERTEX
8
CUT
10
412.752
20
226.748
30
0
0
VERTEX
8
CUT
10
412.258
20
226.417
30
0
0
VERTEX
8
CUT
10
411.675
20
226.301
30
0
0
VERTEX
8
CUT
10
411.092
20
226.417
30
0
0
VERTEX
8
CUT
10
410.598
20
226.748
30
0
0
VERTEX
8
CUT
10
410.267
20
227.242
30
0
0
SEQEND
8
CUT
0
POLYLINE
8
CUT
66
1
70
1
10
0
20
0
30
0
0
VERTEX
8
CUT
10
415.452
20
289.425
30
0
0
VERTEX
8
CUT
10
415.613
20
290.129
30
0
0
VERTEX
8
CUT
10
416.063
20
290.694
30
0
0
VERTEX
8
CUT
10
416.714
20
291.007
30
0
0
VERTEX
8
CUT
10
417.436
20
291.007
30
0
0
VERTEX
8
CUT
10
418.087
20
290.694
30
0
0
VERTEX
8
CUT
10
418.537
20
290.129
30
0
0
VERTEX
8
CUT
10
418.698
20
289.425
30
0
0
VERTEX
8
CUT
10
418.537
20
288.721
30
0
0
VERTEX
8
CUT
10
418.087
20
288.156
30
0
0
VERTEX
8
CUT
10
417.436
20
287.843
30
0
0
VERTEX
8
CUT
10
416.714
20
287.843
30
0
0
VERTEX
8
CUT
10
416.063
20
288.156
30
0
0
VERTEX
8
CUT
10
415.613
20
288.721
30
0
0
SEQEND
8
CUT
0
POLYLINE
8
CUT
66
1
70
1
10
0
20
0
30
0
0
VERTEX
8
CUT
10
355.452
20
289.425
30
0
0
VERTEX
8
CUT
10
355.613
20
290.129
30
0
0
VERTEX
8
CUT
10
356.063
20
290.694
30
0
0
VERTEX
8
CUT
10
356.714
20
291.007
30
0
0
VERTEX
8
CUT
10
357.436
20
291.007
30
0
0
VERTEX
8
CUT
10
358.087
20
290.694
30
0
0
VERTEX
8
CUT
10
358.537
20
290.129
30
0
0
VERTEX
8
CUT
10
358.698
20
289.425
30
0
0
VERTEX
8
CUT
10
358.537
20
288.721
30
0
0
VERTEX
8
CUT
10
358.087
20
288.156
30
0
0
VERTEX
8
CUT
10
357.436
20
287.843
30
0
0
VERTEX
8
CUT
10
356.714
20
287.843
30
0
0
VERTEX
8
CUT
10
356.063
20
288.156
30
0
0
VERTEX
8
CUT
10
355.613
20
288.721
30
0
0
SEQEND
8
CUT
0
POLYLINE
8
CUT
66
1
70
1
10
0
20
0
30
0
0
VERTEX
8
CUT
10
426.050
20
240.450
30
0
0
VERTEX
8
CUT
10
423.100
20
240.450
30
0
0
VERTEX
8
CUT
10
423.100
20
248.400
30
0
0
VERTEX
8
CUT
10
426.050
20
248.400
30
0
0
SEQEND
8
CUT
0
POLYLINE
8
CUT
66
1
70
1
10
0
20
0
30
0
0
VERTEX
8
CUT
10
380.550
20
146.900
30
0
0
VERTEX
8
CUT
10
377.600
20
146.900
30
0
0
VERTEX
8
CUT
10
377.600
20
149.850
30
0
0
VERTEX
8
CUT
10
380.550
20
149.850
30
0
0
SEQEND
8
CUT
0
POLYLINE
8
CUT
66
1
70
1
10
0
20
0
30
0
0
VERTEX
8
CUT
10
380.550
20
177.500
30
0
0
VERTEX
8
CUT
10
377.600
20
177.500
30
0
0
VERTEX
8
CUT
10
377.600
20
180.450
30
0
0
VERTEX
8
CUT
10
380.550
20
180.450
30
0
0
SEQEND
8
CUT
0
POLYLINE
8
CUT
66
1
70
1
10
0
20
0
30
0
0
VERTEX
8
CUT
10
396.550
20
258.400
30
0
0
VERTEX
8
CUT
10
393.600
20
258.400
30
0
0
VERTEX
8
CUT
10
393.600
20
261.350
30
0
0
VERTEX
8
CUT
10
396.550
20
261.350
30
0
0
SEQEND
8
CUT
0
POLYLINE
8
CUT
66
1
70
1
10
0
20
0
30
0
0
VERTEX
8
CUT
10
396.550
20
289.000
30
0
0
VERTEX
8
CUT
10
393.600
20
289.000
30
0
0
VERTEX
8
CUT
10
393.600
20
291.950
30
0
0
VERTEX
8
CUT
10
396.550
20
291.950
30
0
0
SEQEND
8
CUT
0
POLYLINE
8
CUT
66
1
70
1
10
0
20
0
30
0
0
VERTEX
8
CUT
10
442.150
20
144.850
30
0
0
VERTEX
8
CUT
10
428.817
20
144.850
30
0
0
VERTEX
8
CUT
10
428.817
20
141.850
30
0
0
VERTEX
8
CUT
10
418.667
20
141.850
30
0
0
VERTEX
8
CUT
10
418.667
20
144.850
30
0
0
VERTEX
8
CUT
10
392.150
20
144.850
30
0
0
VERTEX
8
CUT
10
392.150
20
141.850
30
0
0
VERTEX
8
CUT
10
382.000
20
141.850
30
0
0
VERTEX
8
CUT
10
382.000
20
144.850
30
0
0
VERTEX
8
CUT
10
355.483
20
144.850
30
0
0
VERTEX
8
CUT
10
355.483
20
141.850
30
0
0
VERTEX
8
CUT
10
345.333
20
141.850
30
0
0
VERTEX
8
CUT
10
345.333
20
144.850
30
0
0
VERTEX
8
CUT
10
332.000
20
144.850
30
0
0
VERTEX
8
CUT
10
332.000
20
154.750
30
0
0
VERTEX
8
CUT
10
397.000
20
154.750
30
0
0
VERTEX
8
CUT
10
397.000
20
172.600
30
0
0
VERTEX
8
CUT
10
332.000
20
172.600
30
0
0
VERTEX
8
CUT
10
332.000
20
195.725
30
0
0
VERTEX
8
CUT
10
329.000
20
195.725
30
0
0
VERTEX
8
CUT
10
329.000
20
205.875
30
0
0
VERTEX
8
CUT
10
332.000
20
205.875
30
0
0
VERTEX
8
CUT
10
332.000
20
232.975
30
0
0
VERTEX
8
CUT
10
329.000
20
232.975
30
0
0
VERTEX
8
CUT
10
329.000
20
243.125
30
0
0
VERTEX
8
CUT
10
332.000
20
243.125
30
0
0
VERTEX
8
CUT
10
332.000
20
270.225
30
0
0
VERTEX
8
CUT
10
329.000
20
270.225
30
0
0
VERTEX
8
CUT
10
329.000
20
280.375
30
0
0
VERTEX
8
CUT
10
332.000
20
280.375
30
0
0
VERTEX
8
CUT
10
332.000
20
294.000
30
0
0
VERTEX
8
CUT
10
345.333
20
294.000
30
0
0
VERTEX
8
CUT
10
345.333
20
297.000
30
0
0
VERTEX
8
CUT
10
355.483
20
297.000
30
0
0
VERTEX
8
CUT
10
355.483
20
294.000
30
0
0
VERTEX
8
CUT
10
382.000
20
294.000
30
0
0
VERTEX
8
CUT
10
382.000
20
297.000
30
0
0
VERTEX
8
CUT
10
392.150
20
297.000
30
0
0
VERTEX
8
CUT
10
392.150
20
294.000
30
0
0
VERTEX
8
CUT
10
418.667
20
294.000
30
0
0
VERTEX
8
CUT
10
418.667
20
297.000
30
0
0
VERTEX
8
CUT
10
428.817
20
297.000
30
0
0
VERTEX
8
CUT
10
428.817
20
294.000
30
0
0
VERTEX
8
CUT
10
442.150
20
294.000
30
0
0
VERTEX
8
CUT
10
442.150
20
284.100
30
0
0
VERTEX
8
CUT
10
377.150
20
284.100
30
0
0
VERTEX
8
CUT
10
377.150
20
266.250
30
0
0
VERTEX
8
CUT
10
442.150
20
266.250
30
0
0
VERTEX
8
CUT
10
442.150
20
243.125
30
0
0
VERTEX
8
CUT
10
445.150
20
243.125
30
0
0
VERTEX
8
CUT
10
445.150
20
232.975
30
0
0
VERTEX
8
CUT
10
442.150
20
232.975
30
0
0
VERTEX
8
CUT
10
442.150
20
205.875
30
0
0
VERTEX
8
CUT
10
445.150
20
205.875
30
0
0
VERTEX
8
CUT
10
445.150
20
195.725
30
0
0
VERTEX
8
CUT
10
442.150
20
195.725
30
0
0
VERTEX
8
CUT
10
442.150
20
168.625
30
0
0
VERTEX
8
CUT
10
445.150
20
168.625
30
0
0
VERTEX
8
CUT
10
445.150
20
158.475
30
0
0
VERTEX
8
CUT
10
442.150
20
158.475
30
0
0
SEQEND
8
CUT
0
POLYLINE
8
CUT
66
1
70
1
10
0
20
0
30
0
0
VERTEX
8
CUT
10
211.175
20
70.049
30
0
0
VERTEX
8
CUT
10
211.758
20
69.933
30
0
0
VERTEX
8
CUT
10
212.252
20
69.602
30
0
0
VERTEX
8
CUT
10
212.583
20
69.108
30
0
0
VERTEX
8
CUT
10
212.699
20
68.525
30
0
0
VERTEX
8
CUT
10
212.583
20
67.942
30
0
0
VERTEX
8
CUT
10
212.252
20
67.448
30
0
0
VERTEX
8
CUT
10
211.758
20
67.117
30
0
0
VERTEX
8
CUT
10
211.175
20
67.001
30
0
0
VERTEX
8
CUT
10
210.592
20
67.117
30
0
0
VERTEX
8
CUT
10
210.098
20
67.448
30
0
0
VERTEX
8
CUT
10
209.767
20
67.942
30
0
0
VERTEX
8
CUT
10
209.651
20
68.525
30
0
0
VERTEX
8
CUT
10
209.767
20
69.108
30
0
0
VERTEX
8
CUT
10
210.098
20
69.602
30
0
0
VERTEX
8
CUT
10
210.592
20
69.933
30
0
0
SEQEND
8
CUT
0
POLYLINE
8
CUT
66
1
70
1
10
0
20
0
30
0
0
VERTEX
8
CUT
10
251.975
20
70.049
30
0
0
VERTEX
8
CUT
10
252.558
20
69.933
30
0
0
VERTEX
8
CUT
10
253.052
20
69.602
30
0
0
VERTEX
8
CUT
10
253.383
20
69.108
30
0
0
VERTEX
8
CUT
10
253.499
20
68.525
30
0
0
VERTEX
8
CUT
10
253.383
20
67.942
30
0
0
VERTEX
8
CUT
10
253.052
20
67.448
30
0
0
VERTEX
8
CUT
10
252.558
20
67.117
30
0
0
VERTEX
8
CUT
10
251.975
20
67.001
30
0
0
VERTEX
8
CUT
10
251.392
20
67.117
30
0
0
VERTEX
8
CUT
10
250.898
20
67.448
30
0
0
VERTEX
8
CUT
10
250.567
20
67.942
30
0
0
VERTEX
8
CUT
10
250.451
20
68.525
30
0
0
VERTEX
8
CUT
10
250.567
20
69.108
30
0
0
VERTEX
8
CUT
10
250.898
20
69.602
30
0
0
VERTEX
8
CUT
10
251.392
20
69.933
30
0
0
SEQEND
8
CUT
0
POLYLINE
8
CUT
66
1
70
1
10
0
20
0
30
0
0
VERTEX
8
CUT
10
211.175
20
92.849
30
0
0
VERTEX
8
CUT
10
211.758
20
92.733
30
0
0
VERTEX
8
CUT
10
212.252
20
92.402
30
0
0
VERTEX
8
CUT
10
212.583
20
91.908
30
0
0
VERTEX
8
CUT
10
212.699
20
91.325
30
0
0
VERTEX
8
CUT
10
212.583
20
90.742
30
0
0
VERTEX
8
CUT
10
212.252
20
90.248
30
0
0
VERTEX
8
CUT
10
211.758
20
89.917
30
0
0
VERTEX
8
CUT
10
211.175
20
89.801
30
0
0
VERTEX
8
CUT
10
210.592
20
89.917
30
0
0
VERTEX
8
CUT
10
210.098
20
90.248
30
0
0
VERTEX
8
CUT
10
209.767
20
90.742
30
0
0
VERTEX
8
CUT
10
209.651
20
91.325
30
0
0
VERTEX
8
CUT
10
209.767
20
91.908
30
0
0
VERTEX
8
CUT
10
210.098
20
92.402
30
0
0
VERTEX
8
CUT
10
210.592
20
92.733
30
0
0
SEQEND
8
CUT
0
POLYLINE
8
CUT
66
1
70
1
10
0
20
0
30
0
0
VERTEX
8
CUT
10
251.975
20
92.849
30
0
0
VERTEX
8
CUT
10
252.558
20
92.733
30
0
0
VERTEX
8
CUT
10
253.052
20
92.402
30
0
0
VERTEX
8
CUT
10
253.383
20
91.908
30
0
0
VERTEX
8
CUT
10
253.499
20
91.325
30
0
0
VERTEX
8
CUT
10
253.383
20
90.742
30
0
0
VERTEX
8
CUT
10
253.052
20
90.248
30
0
0
VERTEX
8
CUT
10
252.558
20
89.917
30
0
0
VERTEX
8
CUT
10
251.975
20
89.801
30
0
0
VERTEX
8
CUT
10
251.392
20
89.917
30
0
0
VERTEX
8
CUT
10
250.898
20
90.248
30
0
0
VERTEX
8
CUT
10
250.567
20
90.742
30
0
0
VERTEX
8
CUT
10
250.451
20
91.325
30
0
0
VERTEX
8
CUT
10
250.567
20
91.908
30
0
0
VERTEX
8
CUT
10
250.898
20
92.402
30
0
0
VERTEX
8
CUT
10
251.392
20
92.733
30
0
0
SEQEND
8
CUT
0
POLYLINE
8
CUT
66
1
70
1
10
0
20
0
30
0
0
VERTEX
8
CUT
10
313.575
20
87.548
30
0
0
VERTEX
8
CUT
10
314.279
20
87.387
30
0
0
VERTEX
8
CUT
10
314.844
20
86.937
30
0
0
VERTEX
8
CUT
10
315.157
20
86.286
30
0
0
VERTEX
8
CUT
10
315.157
20
85.564
30
0
0
VERTEX
8
CUT
10
314.844
20
84.913
30
0
0
VERTEX
8
CUT
10
314.279
20
84.463
30
0
0
VERTEX
8
CUT
10
313.575
20
84.302
30
0
0
VERTEX
8
CUT
10
312.871
20
84.463
30
0
0
VERTEX
8
CUT
10
312.306
20
84.913
30
0
0
VERTEX
8
CUT
10
311.993
20
85.564
30
0
0
VERTEX
8
CUT
10
311.993
20
86.286
30
0
0
VERTEX
8
CUT
10
312.306
20
86.937
30
0
0
VERTEX
8
CUT
10
312.871
20
87.387
30
0
0
SEQEND
8
CUT
0
POLYLINE
8
CUT
66
1
70
1
10
0
20
0
30
0
0
VERTEX
8
CUT
10
313.575
20
147.548
30
0
0
VERTEX
8
CUT
10
314.279
20
147.387
30
0
0
VERTEX
8
CUT
10
314.844
20
146.937
30
0
0
VERTEX
8
CUT
10
315.157
20
146.286
30
0
0
VERTEX
8
CUT
10
315.157
20
145.564
30
0
0
VERTEX
8
CUT
10
314.844
20
144.913
30
0
0
VERTEX
8
CUT
10
314.279
20
144.463
30
0
0
VERTEX
8
CUT
10
313.575
20
144.302
30
0
0
VERTEX
8
CUT
10
312.871
20
144.463
30
0
0
VERTEX
8
CUT
10
312.306
20
144.913
30
0
0
VERTEX
8
CUT
10
311.993
20
145.564
30
0
0
VERTEX
8
CUT
10
311.993
20
146.286
30
0
0
VERTEX
8
CUT
10
312.306
20
146.937
30
0
0
VERTEX
8
CUT
10
312.871
20
147.387
30
0
0
SEQEND
8
CUT
0
POLYLINE
8
CUT
66
1
70
1
10
0
20
0
30
0
0
VERTEX
8
CUT
10
264.600
20
76.950
30
0
0
VERTEX
8
CUT
10
264.600
20
79.900
30
0
0
VERTEX
8
CUT
10
272.550
20
79.900
30
0
0
VERTEX
8
CUT
10
272.550
20
76.950
30
0
0
SEQEND
8
CUT
0
POLYLINE
8
CUT
66
1
70
1
10
0
20
0
30
0
0
VERTEX
8
CUT
10
171.050
20
122.450
30
0
0
VERTEX
8
CUT
10
171.050
20
125.400
30
0
0
VERTEX
8
CUT
10
174.000
20
125.400
30
0
0
VERTEX
8
CUT
10
174.000
20
122.450
30
0
0
SEQEND
8
CUT
0
POLYLINE
8
CUT
66
1
70
1
10
0
20
0
30
0
0
VERTEX
8
CUT
10
201.650
20
122.450
30
0
0
VERTEX
8
CUT
10
201.650
20
125.400
30
0
0
VERTEX
8
CUT
10
204.600
20
125.400
30
0
0
VERTEX
8
CUT
10
204.600
20
122.450
30
0
0
SEQEND
8
CUT
0
POLYLINE
8
CUT
66
1
70
1
10
0
20
0
30
0
0
VERTEX
8
CUT
10
282.550
20
106.450
30
0
0
VERTEX
8
CUT
10
282.550
20
109.400
30
0
0
VERTEX
8
CUT
10
285.500
20
109.400
30
0
0
VERTEX
8
CUT
10
285.500
20
106.450
30
0
0
SEQEND
8
CUT
0
POLYLINE
8
CUT
66
1
70
1
10
0
20
0
30
0
0
VERTEX
8
CUT
10
313.150
20
106.450
30
0
0
VERTEX
8
CUT
10
313.150
20
109.400
30
0
0
VERTEX
8
CUT
10
316.100
20
109.400
30
0
0
VERTEX
8
CUT
10
316.100
20
106.450
30
0
0
SEQEND
8
CUT
0
POLYLINE
8
CUT
66
1
70
1
10
0
20
0
30
0
0
VERTEX
8
CUT
10
169.000
20
60.850
30
0
0
VERTEX
8
CUT
10
169.000
20
74.183
30
0
0
VERTEX
8
CUT
10
166.000
20
74.183
30
0
0
VERTEX
8
CUT
10
166.000
20
84.333
30
0
0
VERTEX
8
CUT
10
169.000
20
84.333
30
0
0
VERTEX
8
CUT
10
169.000
20
110.850
30
0
0
VERTEX
8
CUT
10
166.000
20
110.850
30
0
0
VERTEX
8
CUT
10
166.000
20
121.000
30
0
0
VERTEX
8
CUT
10
169.000
20
121.000
30
0
0
VERTEX
8
CUT
10
169.000
20
147.517
30
0
0
VERTEX
8
CUT
10
166.000
20
147.517
30
0
0
VERTEX
8
CUT
10
166.000
20
157.667
30
0
0
VERTEX
8
CUT
10
169.000
20
157.667
30
0
0
VERTEX
8
CUT
10
169.000
20
171.000
30
0
0
VERTEX
8
CUT
10
178.900
20
171.000
30
0
0
VERTEX
8
CUT
10
178.900
20
106.000
30
0
0
VERTEX
8
CUT
10
196.750
20
106.000
30
0
0
VERTEX
8
CUT
10
196.750
20
171.000
30
0
0
VERTEX
8
CUT
10
219.875
20
171.000
30
0
0
VERTEX
8
CUT
10
219.875
20
174.000
30
0
0
VERTEX
8
CUT
10
230.025
20
174.000
30
0
0
VERTEX
8
CUT
10
230.025
20
171.000
30
0
0
VERTEX
8
CUT
10
257.125
20
171.000
30
0
0
VERTEX
8
CUT
10
257.125
20
174.000
30
0
0
VERTEX
8
CUT
10
267.275
20
174.000
30
0
0
VERTEX
8
CUT
10
267.275
20
171.000
30
0
0
VERTEX
8
CUT
10
294.375
20
171.000
30
0
0
VERTEX
8
CUT
10
294.375
20
174.000
30
0
0
VERTEX
8
CUT
10
304.525
20
174.000
30
0
0
VERTEX
8
CUT
10
304.525
20
171.000
30
0
0
VERTEX
8
CUT
10
318.150
20
171.000
30
0
0
VERTEX
8
CUT
10
318.150
20
157.667
30
0
0
VERTEX
8
CUT
10
321.150
20
157.667
30
0
0
VERTEX
8
CUT
10
321.150
20
147.517
30
0
0
VERTEX
8
CUT
10
318.150
20
147.517
30
0
0
VERTEX
8
CUT
10
318.150
20
121.000
30
0
0
VERTEX
8
CUT
10
321.150
20
121.000
30
0
0
VERTEX
8
CUT
10
321.150
20
110.850
30
0
0
VERTEX
8
CUT
10
318.150
20
110.850
30
0
0
VERTEX
8
CUT
10
318.150
20
84.333
30
0
0
VERTEX
8
CUT
10
321.150
20
84.333
30
0
0
VERTEX
8
CUT
10
321.150
20
74.183
30
0
0
VERTEX
8
CUT
10
318.150
20
74.183
30
0
0
VERTEX
8
CUT
10
318.150
20
60.850
30
0
0
VERTEX
8
CUT
10
308.250
20
60.850
30
0
0
VERTEX
8
CUT
10
308.250
20
125.850
30
0
0
VERTEX
8
CUT
10
290.400
20
125.850
30
0
0
VERTEX
8
CUT
10
290.400
20
60.850
30
0
0
VERTEX
8
CUT
10
267.275
20
60.850
30
0
0
VERTEX
8
CUT
10
267.275
20
57.850
30
0
0
VERTEX
8
CUT
10
257.125
20
57.850
30
0
0
VERTEX
8
CUT
10
257.125
20
60.850
30
0
0
VERTEX
8
CUT
10
230.025
20
60.850
30
0
0
VERTEX
8
CUT
10
230.025
20
57.850
30
0
0
VERTEX
8
CUT
10
219.875
20
57.850
30
0
0
VERTEX
8
CUT
10
219.875
20
60.850
30
0
0
VERTEX
8
CUT
10
192.775
20
60.850
30
0
0
VERTEX
8
CUT
10
192.775
20
57.850
30
0
0
VERTEX
8
CUT
10
182.625
20
57.850
30
0
0
VERTEX
8
CUT
10
182.625
20
60.850
30
0
0
SEQEND
8
CUT
0
POLYLINE
8
CUT
66
1
70
1
10
0
20
0
30
0
0
VERTEX
8
CUT
10
379.496
20
100.925
30
0
0
VERTEX
8
CUT
10
379.225
20
101.760
30
0
0
VERTEX
8
CUT
10
378.514
20
102.277
30
0
0
VERTEX
8
CUT
10
377.636
20
102.277
30
0
0
VERTEX
8
CUT
10
376.925
20
101.760
30
0
0
VERTEX
8
CUT
10
376.654
20
100.925
30
0
0
VERTEX
8
CUT
10
376.925
20
100.090
30
0
0
VERTEX
8
CUT
10
377.636
20
99.573
30
0
0
VERTEX
8
CUT
10
378.514
20
99.573
30
0
0
VERTEX
8
CUT
10
379.225
20
100.090
30
0
0
SEQEND
8
CUT
0
POLYLINE
8
CUT
66
1
70
1
10
0
20
0
30
0
0
VERTEX
8
CUT
10
384.996
20
100.925
30
0
0
VERTEX
8
CUT
10
384.725
20
101.760
30
0
0
VERTEX
8
CUT
10
384.014
20
102.277
30
0
0
VERTEX
8
CUT
10
383.136
20
102.277
30
0
0
VERTEX
8
CUT
10
382.425
20
101.760
30
0
0
VERTEX
8
CUT
10
382.154
20
100.925
30
0
0
VERTEX
8
CUT
10
382.425
20
100.090
30
0
0
VERTEX
8
CUT
10
383.136
20
99.573
30
0
0
VERTEX
8
CUT
10
384.014
20
99.573
30
0
0
VERTEX
8
CUT
10
384.725
20
100.090
30
0
0
SEQEND
8
CUT
0
POLYLINE
8
CUT
66
1
70
1
10
0
20
0
30
0
0
VERTEX
8
CUT
10
382.246
20
105.688
30
0
0
VERTEX
8
CUT
10
381.975
20
106.523
30
0
0
VERTEX
8
CUT
10
381.264
20
107.040
30
0
0
VERTEX
8
CUT
10
380.386
20
107.040
30
0
0
VERTEX
8
CUT
10
379.675
20
106.523
30
0
0
VERTEX
8
CUT
10
379.404
20
105.688
30
0
0
VERTEX
8
CUT
10
379.675
20
104.853
30
0
0
VERTEX
8
CUT
10
380.386
20
104.337
30
0
0
VERTEX
8
CUT
10
381.264
20
104.337
30
0
0
VERTEX
8
CUT
10
381.975
20
104.853
30
0
0
SEQEND
8
CUT
0
POLYLINE
8
CUT
66
1
70
1
10
0
20
0
30
0
0
VERTEX
8
CUT
10
376.746
20
105.688
30
0
0
VERTEX
8
CUT
10
376.475
20
106.523
30
0
0
VERTEX
8
CUT
10
375.764
20
107.040
30
0
0
VERTEX
8
CUT
10
374.886
20
107.040
30
0
0
VERTEX
8
CUT
10
374.175
20
106.523
30
0
0
VERTEX
8
CUT
10
373.904
20
105.688
30
0
0
VERTEX
8
CUT
10
374.175
20
104.853
30
0
0
VERTEX
8
CUT
10
374.886
20
104.337
30
0
0
VERTEX
8
CUT
10
375.764
20
104.337
30
0
0
VERTEX
8
CUT
10
376.475
20
104.853
30
0
0
SEQEND
8
CUT
0
POLYLINE
8
CUT
66
1
70
1
10
0
20
0
30
0
0
VERTEX
8
CUT
10
373.996
20
100.925
30
0
0
VERTEX
8
CUT
10
373.725
20
101.760
30
0
0
VERTEX
8
CUT
10
373.014
20
102.277
30
0
0
VERTEX
8
CUT
10
372.136
20
102.277
30
0
0
VERTEX
8
CUT
10
371.425
20
101.760
30
0
0
VERTEX
8
CUT
10
371.154
20
100.925
30
0
0
VERTEX
8
CUT
10
371.425
20
100.090
30
0
0
VERTEX
8
CUT
10
372.136
20
99.573
30
0
0
VERTEX
8
CUT
10
373.014
20
99.573
30
0
0
VERTEX
8
CUT
10
373.725
20
100.090
30
0
0
SEQEND
8
CUT
0
POLYLINE
8
CUT
66
1
70
1
10
0
20
0
30
0
0
VERTEX
8
CUT
10
376.746
20
96.162
30
0
0
VERTEX
8
CUT
10
376.475
20
96.997
30
0
0
VERTEX
8
CUT
10
375.764
20
97.513
30
0
0
VERTEX
8
CUT
10
374.886
20
97.513
30
0
0
VERTEX
8
CUT
10
374.175
20
96.997
30
0
0
VERTEX
8
CUT
10
373.904
20
96.162
30
0
0
VERTEX
8
CUT
10
374.175
20
95.327
30
0
0
VERTEX
8
CUT
10
374.886
20
94.810
30
0
0
VERTEX
8
CUT
10
375.764
20
94.810
30
0
0
VERTEX
8
CUT
10
376.475
20
95.327
30
0
0
SEQEND
8
CUT
0
POLYLINE
8
CUT
66
1
70
1
10
0
20
0
30
0
0
VERTEX
8
CUT
10
382.246
20
96.162
30
0
0
VERTEX
8
CUT
10
381.975
20
96.997
30
0
0
VERTEX
8
CUT
10
381.264
20
97.513
30
0
0
VERTEX
8
CUT
10
380.386
20
97.513
30
0
0
VERTEX
8
CUT
10
379.675
20
96.997
30
0
0
VERTEX
8
CUT
10
379.404
20
96.162
30
0
0
VERTEX
8
CUT
10
379.675
20
95.327
30
0
0
VERTEX
8
CUT
10
380.386
20
94.810
30
0
0
VERTEX
8
CUT
10
381.264
20
94.810
30
0
0
VERTEX
8
CUT
10
381.975
20
95.327
30
0
0
SEQEND
8
CUT
0
POLYLINE
8
CUT
66
1
70
1
10
0
20
0
30
0
0
VERTEX
8
CUT
10
390.496
20
100.925
30
0
0
VERTEX
8
CUT
10
390.225
20
101.760
30
0
0
VERTEX
8
CUT
10
389.514
20
102.277
30
0
0
VERTEX
8
CUT
10
388.636
20
102.277
30
0
0
VERTEX
8
CUT
10
387.925
20
101.760
30
0
0
VERTEX
8
CUT
10
387.654
20
100.925
30
0
0
VERTEX
8
CUT
10
387.925
20
100.090
30
0
0
VERTEX
8
CUT
10
388.636
20
99.573
30
0
0
VERTEX
8
CUT
10
389.514
20
99.573
30
0
0
VERTEX
8
CUT
10
390.225
20
100.090
30
0
0
SEQEND
8
CUT
0
POLYLINE
8
CUT
66
1
70
1
10
0
20
0
30
0
0
VERTEX
8
CUT
10
389.022
20
106.425
30
0
0
VERTEX
8
CUT
10
388.751
20
107.260
30
0
0
VERTEX
8
CUT
10
388.040
20
107.777
30
0
0
VERTEX
8
CUT
10
387.162
20
107.777
30
0
0
VERTEX
8
CUT
10
386.452
20
107.260
30
0
0
VERTEX
8
CUT
10
386.180
20
106.425
30
0
0
VERTEX
8
CUT
10
386.452
20
105.590
30
0
0
VERTEX
8
CUT
10
387.162
20
105.073
30
0
0
VERTEX
8
CUT
10
388.040
20
105.073
30
0
0
VERTEX
8
CUT
10
388.751
20
105.590
30
0
0
SEQEND
8
CUT
0
POLYLINE
8
CUT
66
1
70
1
10
0
20
0
30
0
0
VERTEX
8
CUT
10
384.996
20
110.451
30
0
0
VERTEX
8
CUT
10
384.725
20
111.287
30
0
0
VERTEX
8
CUT
10
384.014
20
111.803
30
0
0
VERTEX
8
CUT
10
383.136
20
111.803
30
0
0
VERTEX
8
CUT
10
382.425
20
111.287
30
0
0
VERTEX
8
CUT
10
382.154
20
110.451
30
0
0
VERTEX
8
CUT
10
382.425
20
109.616
30
0
0
VERTEX
8
CUT
10
383.136
20
109.100
30
0
0
VERTEX
8
CUT
10
384.014
20
109.100
30
0
0
VERTEX
8
CUT
10
384.725
20
109.616
30
0
0
SEQEND
8
CUT
0
POLYLINE
8
CUT
66
1
70
1
10
0
20
0
30
0
0
VERTEX
8
CUT
10
379.496
20
111.925
30
0
0
VERTEX
8
CUT
10
379.225
20
112.760
30
0
0
VERTEX
8
CUT
10
378.514
20
113.277
30
0
0
VERTEX
8
CUT
10
377.636
20
113.277
30
0
0
VERTEX
8
CUT
10
376.925
20
112.760
30
0
0
VERTEX
8
CUT
10
376.654
20
111.925
30
0
0
VERTEX
8
CUT
10
376.925
20
111.090
30
0
0
VERTEX
8
CUT
10
377.636
20
110.573
30
0
0
VERTEX
8
CUT
10
378.514
20
110.573
30
0
0
VERTEX
8
CUT
10
379.225
20
111.090
30
0
0
SEQEND
8
CUT
0
POLYLINE
8
CUT
66
1
70
1
10
0
20
0
30
0
0
VERTEX
8
CUT
10
373.996
20
110.451
30
0
0
VERTEX
8
CUT
10
373.725
20
111.287
30
0
0
VERTEX
8
CUT
10
373.014
20
111.803
30
0
0
VERTEX
8
CUT
10
372.136
20
111.803
30
0
0
VERTEX
8
CUT
10
371.425
20
111.287
30
0
0
VERTEX
8
CUT
10
371.154
20
110.451
30
0
0
VERTEX
8
CUT
10
371.425
20
109.616
30
0
0
VERTEX
8
CUT
10
372.136
20
109.100
30
0
0
VERTEX
8
CUT
10
373.014
20
109.100
30
0
0
VERTEX
8
CUT
10
373.725
20
109.616
30
0
0
SEQEND
8
CUT
0
POLYLINE
8
CUT
66
1
70
1
10
0
20
0
30
0
0
VERTEX
8
CUT
10
369.970
20
106.425
30
0
0
VERTEX
8
CUT
10
369.698
20
107.260
30
0
0
VERTEX
8
CUT
10
368.988
20
107.777
30
0
0
VERTEX
8
CUT
10
368.110
20
107.777
30
0
0
VERTEX
8
CUT
10
367.399
20
107.260
30
0
0
VERTEX
8
CUT
10
367.128
20
106.425
30
0
0
VERTEX
8
CUT
10
367.399
20
105.590
30
0
0
VERTEX
8
CUT
10
368.110
20
105.073
30
0
0
VERTEX
8
CUT
10
368.988
20
105.073
30
0
0
VERTEX
8
CUT
10
369.698
20
105.590
30
0
0
SEQEND
8
CUT
0
POLYLINE
8
CUT
66
1
70
1
10
0
20
0
30
0
0
VERTEX
8
CUT
10
368.496
20
100.925
30
0
0
VERTEX
8
CUT
10
368.225
20
101.760
30
0
0
VERTEX
8
CUT
10
367.514
20
102.277
30
0
0
VERTEX
8
CUT
10
366.636
20
102.277
30
0
0
VERTEX
8
CUT
10
365.925
20
101.760
30
0
0
VERTEX
8
CUT
10
365.654
20
100.925
30
0
0
VERTEX
8
CUT
10
365.925
20
100.090
30
0
0
VERTEX
8
CUT
10
366.636
20
99.573
30
0
0
VERTEX
8
CUT
10
367.514
20
99.573
30
0
0
VERTEX
8
CUT
10
368.225
20
100.090
30
0
0
SEQEND
8
CUT
0
POLYLINE
8
CUT
66
1
70
1
10
0
20
0
30
0
0
VERTEX
8
CUT
10
369.970
20
95.425
30
0
0
VERTEX
8
CUT
10
369.698
20
96.260
30
0
0
VERTEX
8
CUT
10
368.988
20
96.777
30
0
0
VERTEX
8
CUT
10
368.110
20
96.777
30
0
0
VERTEX
8
CUT
10
367.399
20
96.260
30
0
0
VERTEX
8
CUT
10
367.128
20
95.425
30
0
0
VERTEX
8
CUT
10
367.399
20
94.590
30
0
0
VERTEX
8
CUT
10
368.110
20
94.073
30
0
0
VERTEX
8
CUT
10
368.988
20
94.073
30
0
0
VERTEX
8
CUT
10
369.698
20
94.590
30
0
0
SEQEND
8
CUT
0
POLYLINE
8
CUT
66
1
70
1
10
0
20
0
30
0
0
VERTEX
8
CUT
10
373.996
20
91.399
30
0
0
VERTEX
8
CUT
10
373.725
20
92.234
30
0
0
VERTEX
8
CUT
10
373.014
20
92.750
30
0
0
VERTEX
8
CUT
10
372.136
20
92.750
30
0
0
VERTEX
8
CUT
10
371.425
20
92.234
30
0
0
VERTEX
8
CUT
10
371.154
20
91.399
30
0
0
VERTEX
8
CUT
10
371.425
20
90.563
30
0
0
VERTEX
8
CUT
10
372.136
20
90.047
30
0
0
VERTEX
8
CUT
10
373.014
20
90.047
30
0
0
VERTEX
8
CUT
10
373.725
20
90.563
30
0
0
SEQEND
8
CUT
0
POLYLINE
8
CUT
66
1
70
1
10
0
20
0
30
0
0
VERTEX
8
CUT
10
379.496
20
89.925
30
0
0
VERTEX
8
CUT
10
379.225
20
90.760
30
0
0
VERTEX
8
CUT
10
378.514
20
91.277
30
0
0
VERTEX
8
CUT
10
377.636
20
91.277
30
0
0
VERTEX
8
CUT
10
376.925
20
90.760
30
0
0
VERTEX
8
CUT
10
376.654
20
89.925
30
0
0
VERTEX
8
CUT
10
376.925
20
89.090
30
0
0
VERTEX
8
CUT
10
377.636
20
88.573
30
0
0
VERTEX
8
CUT
10
378.514
20
88.573
30
0
0
VERTEX
8
CUT
10
379.225
20
89.090
30
0
0
SEQEND
8
CUT
0
POLYLINE
8
CUT
66
1
70
1
10
0
20
0
30
0
0
VERTEX
8
CUT
10
384.996
20
91.399
30
0
0
VERTEX
8
CUT
10
384.725
20
92.234
30
0
0
VERTEX
8
CUT
10
384.014
20
92.750
30
0
0
VERTEX
8
CUT
10
383.136
20
92.750
30
0
0
VERTEX
8
CUT
10
382.425
20
92.234
30
0
0
VERTEX
8
CUT
10
382.154
20
91.399
30
0
0
VERTEX
8
CUT
10
382.425
20
90.563
30
0
0
VERTEX
8
CUT
10
383.136
20
90.047
30
0
0
VERTEX
8
CUT
10
384.014
20
90.047
30
0
0
VERTEX
8
CUT
10
384.725
20
90.563
30
0
0
SEQEND
8
CUT
0
POLYLINE
8
CUT
66
1
70
1
10
0
20
0
30
0
0
VERTEX
8
CUT
10
389.022
20
95.425
30
0
0
VERTEX
8
CUT
10
388.751
20
96.260
30
0
0
VERTEX
8
CUT
10
388.040
20
96.777
30
0
0
VERTEX
8
CUT
10
387.162
20
96.777
30
0
0
VERTEX
8
CUT
10
386.452
20
96.260
30
0
0
VERTEX
8
CUT
10
386.180
20
95.425
30
0
0
VERTEX
8
CUT
10
386.452
20
94.590
30
0
0
VERTEX
8
CUT
10
387.162
20
94.073
30
0
0
VERTEX
8
CUT
10
388.040
20
94.073
30
0
0
VERTEX
8
CUT
10
388.751
20
94.590
30
0
0
SEQEND
8
CUT
0
POLYLINE
8
CUT
66
1
70
1
10
0
20
0
30
0
0
VERTEX
8
CUT
10
326.000
20
61.850
30
0
0
VERTEX
8
CUT
10
430.150
20
61.850
30
0
0
VERTEX
8
CUT
10
430.150
20
76.350
30
0
0
VERTEX
8
CUT
10
433.150
20
76.350
30
0
0
VERTEX
8
CUT
10
433.150
20
86.500
30
0
0
VERTEX
8
CUT
10
430.150
20
86.500
30
0
0
VERTEX
8
CUT
10
430.150
20
115.350
30
0
0
VERTEX
8
CUT
10
433.150
20
115.350
30
0
0
VERTEX
8
CUT
10
433.150
20
125.500
30
0
0
VERTEX
8
CUT
10
430.150
20
125.500
30
0
0
VERTEX
8
CUT
10
430.150
20
140.000
30
0
0
VERTEX
8
CUT
10
326.000
20
140.000
30
0
0
VERTEX
8
CUT
10
326.000
20
125.500
30
0
0
VERTEX
8
CUT
10
323.000
20
125.500
30
0
0
VERTEX
8
CUT
10
323.000
20
115.350
30
0
0
VERTEX
8
CUT
10
326.000
20
115.350
30
0
0
VERTEX
8
CUT
10
326.000
20
86.500
30
0
0
VERTEX
8
CUT
10
323.000
20
86.500
30
0
0
VERTEX
8
CUT
10
323.000
20
76.350
30
0
0
VERTEX
8
CUT
10
326.000
20
76.350
30
0
0
SEQEND
8
CUT
0
POLYLINE
8
CUT
66
1
70
1
10
0
20
0
30
0
0
VERTEX
8
CUT
10
341.604
20
19.925
30
0
0
VERTEX
8
CUT
10
341.732
20
20.319
30
0
0
VERTEX
8
CUT
10
342.068
20
20.563
30
0
0
VERTEX
8
CUT
10
342.482
20
20.563
30
0
0
VERTEX
8
CUT
10
342.818
20
20.319
30
0
0
VERTEX
8
CUT
10
342.946
20
19.925
30
0
0
VERTEX
8
CUT
10
342.818
20
19.531
30
0
0
VERTEX
8
CUT
10
342.482
20
19.287
30
0
0
VERTEX
8
CUT
10
342.068
20
19.287
30
0
0
VERTEX
8
CUT
10
341.732
20
19.531
30
0
0
SEQEND
8
CUT
0
POLYLINE
8
CUT
66
1
70
1
10
0
20
0
30
0
0
VERTEX
8
CUT
10
338.604
20
19.925
30
0
0
VERTEX
8
CUT
10
338.732
20
20.319
30
0
0
VERTEX
8
CUT
10
339.068
20
20.563
30
0
0
VERTEX
8
CUT
10
339.482
20
20.563
30
0
0
VERTEX
8
CUT
10
339.818
20
20.319
30
0
0
VERTEX
8
CUT
10
339.946
20
19.925
30
0
0
VERTEX
8
CUT
10
339.818
20
19.531
30
0
0
VERTEX
8
CUT
10
339.482
20
19.287
30
0
0
VERTEX
8
CUT
10
339.068
20
19.287
30
0
0
VERTEX
8
CUT
10
338.732
20
19.531
30
0
0
SEQEND
8
CUT
0
POLYLINE
8
CUT
66
1
70
1
10
0
20
0
30
0
0
VERTEX
8
CUT
10
335.604
20
19.925
30
0
0
VERTEX
8
CUT
10
335.732
20
20.319
30
0
0
VERTEX
8
CUT
10
336.068
20
20.563
30
0
0
VERTEX
8
CUT
10
336.482
20
20.563
30
0
0
VERTEX
8
CUT
10
336.818
20
20.319
30
0
0
VERTEX
8
CUT
10
336.946
20
19.925
30
0
0
VERTEX
8
CUT
10
336.818
20
19.531
30
0
0
VERTEX
8
CUT
10
336.482
20
19.287
30
0
0
VERTEX
8
CUT
10
336.068
20
19.287
30
0
0
VERTEX
8
CUT
10
335.732
20
19.531
30
0
0
SEQEND
8
CUT
0
POLYLINE
8
CUT
66
1
70
1
10
0
20
0
30
0
0
VERTEX
8
CUT
10
400.580
20
5.850
30
0
0
VERTEX
8
CUT
10
322.570
20
5.850
30
0
0
VERTEX
8
CUT
10
321.779
20
5.954
30
0
0
VERTEX
8
CUT
10
321.037
20
6.261
30
0
0
VERTEX
8
CUT
10
320.400
20
6.750
30
0
0
VERTEX
8
CUT
10
319.911
20
7.387
30
0
0
VERTEX
8
CUT
10
319.604
20
8.129
30
0
0
VERTEX
8
CUT
10
319.500
20
8.920
30
0
0
VERTEX
8
CUT
10
319.500
20
56.930
30
0
0
VERTEX
8
CUT
10
319.604
20
57.721
30
0
0
VERTEX
8
CUT
10
319.911
20
58.463
30
0
0
VERTEX
8
CUT
10
320.400
20
59.100
30
0
0
VERTEX
8
CUT
10
321.037
20
59.589
30
0
0
VERTEX
8
CUT
10
321.779
20
59.896
30
0
0
VERTEX
8
CUT
10
322.570
20
60.000
30
0
0
VERTEX
8
CUT
10
400.580
20
60.000
30
0
0
VERTEX
8
CUT
10
401.371
20
59.896
30
0
0
VERTEX
8
CUT
10
402.113
20
59.589
30
0
0
VERTEX
8
CUT
10
402.750
20
59.100
30
0
0
VERTEX
8
CUT
10
403.239
20
58.463
30
0
0
VERTEX
8
CUT
10
403.546
20
57.721
30
0
0
VERTEX
8
CUT
10
403.650
20
56.930
30
0
0
VERTEX
8
CUT
10
403.650
20
8.920
30
0
0
VERTEX
8
CUT
10
403.546
20
8.129
30
0
0
VERTEX
8
CUT
10
403.239
20
7.387
30
0
0
VERTEX
8
CUT
10
402.750
20
6.750
30
0
0
VERTEX
8
CUT
10
402.113
20
6.261
30
0
0
VERTEX
8
CUT
10
401.371
20
5.954
30
0
0
SEQEND
8
CUT
0
POLYLINE
8
CUT
66
1
70
1
10
0
20
0
30
0
0
VERTEX
8
CUT
10
285.150
20
30.925
30
0
0
VERTEX
8
CUT
10
285.299
20
29.607
30
0
0
VERTEX
8
CUT
10
285.737
20
28.354
30
0
0
VERTEX
8
CUT
10
286.443
20
27.231
30
0
0
VERTEX
8
CUT
10
287.381
20
26.293
30
0
0
VERTEX
8
CUT
10
288.504
20
25.587
30
0
0
VERTEX
8
CUT
10
289.757
20
25.149
30
0
0
VERTEX
8
CUT
10
291.075
20
25.000
30
0
0
VERTEX
8
CUT
10
292.393
20
25.149
30
0
0
VERTEX
8
CUT
10
293.646
20
25.587
30
0
0
VERTEX
8
CUT
10
294.769
20
26.293
30
0
0
VERTEX
8
CUT
10
295.707
20
27.231
30
0
0
VERTEX
8
CUT
10
296.413
20
28.354
30
0
0
VERTEX
8
CUT
10
296.851
20
29.607
30
0
0
VERTEX
8
CUT
10
297.000
20
30.925
30
0
0
VERTEX
8
CUT
10
296.851
20
32.243
30
0
0
VERTEX
8
CUT
10
296.413
20
33.496
30
0
0
VERTEX
8
CUT
10
295.707
20
34.619
30
0
0
VERTEX
8
CUT
10
294.769
20
35.557
30
0
0
VERTEX
8
CUT
10
293.646
20
36.263
30
0
0
VERTEX
8
CUT
10
292.393
20
36.701
30
0
0
VERTEX
8
CUT
10
291.075
20
36.850
30
0
0
VERTEX
8
CUT
10
289.757
20
36.701
30
0
0
VERTEX
8
CUT
10
288.504
20
36.263
30
0
0
VERTEX
8
CUT
10
287.381
20
35.557
30
0
0
VERTEX
8
CUT
10
286.443
20
34.619
30
0
0
VERTEX
8
CUT
10
285.737
20
33.496
30
0
0
VERTEX
8
CUT
10
285.299
20
32.243
30
0
0
SEQEND
8
CUT
0
POLYLINE
8
CUT
66
1
70
1
10
0
20
0
30
0
0
VERTEX
8
CUT
10
244.850
20
55.900
30
0
0
VERTEX
8
CUT
10
234.900
20
55.900
30
0
0
VERTEX
8
CUT
10
234.900
20
52.950
30
0
0
VERTEX
8
CUT
10
244.850
20
52.950
30
0
0
SEQEND
8
CUT
0
POLYLINE
8
CUT
66
1
70
1
10
0
20
0
30
0
0
VERTEX
8
CUT
10
307.250
20
55.900
30
0
0
VERTEX
8
CUT
10
297.300
20
55.900
30
0
0
VERTEX
8
CUT
10
297.300
20
52.950
30
0
0
VERTEX
8
CUT
10
307.250
20
52.950
30
0
0
SEQEND
8
CUT
0
POLYLINE
8
CUT
66
1
70
1
10
0
20
0
30
0
0
VERTEX
8
CUT
10
310.150
20
59.000
30
0
0
VERTEX
8
CUT
10
292.804
20
59.000
30
0
0
VERTEX
8
CUT
10
292.804
20
56.000
30
0
0
VERTEX
8
CUT
10
249.346
20
56.000
30
0
0
VERTEX
8
CUT
10
249.346
20
59.000
30
0
0
VERTEX
8
CUT
10
232.000
20
59.000
30
0
0
VERTEX
8
CUT
10
232.000
20
52.000
30
0
0
VERTEX
8
CUT
10
229.000
20
52.000
30
0
0
VERTEX
8
CUT
10
229.000
20
41.850
30
0
0
VERTEX
8
CUT
10
232.000
20
41.850
30
0
0
VERTEX
8
CUT
10
232.000
20
28.000
30
0
0
VERTEX
8
CUT
10
229.000
20
28.000
30
0
0
VERTEX
8
CUT
10
229.000
20
17.850
30
0
0
VERTEX
8
CUT
10
232.000
20
17.850
30
0
0
VERTEX
8
CUT
10
232.000
20
10.850
30
0
0
VERTEX
8
CUT
10
310.150
20
10.850
30
0
0
VERTEX
8
CUT
10
310.150
20
17.850
30
0
0
VERTEX
8
CUT
10
313.150
20
17.850
30
0
0
VERTEX
8
CUT
10
313.150
20
28.000
30
0
0
VERTEX
8
CUT
10
310.150
20
28.000
30
0
0
VERTEX
8
CUT
10
310.150
20
41.850
30
0
0
VERTEX
8
CUT
10
313.150
20
41.850
30
0
0
VERTEX
8
CUT
10
313.150
20
52.000
30
0
0
VERTEX
8
CUT
10
310.150
20
52.000
30
0
0
SEQEND
8
CUT
0
POLYLINE
8
CUT
66
1
70
1
10
0
20
0
30
0
0
VERTEX
8
CUT
10
16.051
20
17.225
30
0
0
VERTEX
8
CUT
10
16.258
20
18.396
30
0
0
VERTEX
8
CUT
10
16.852
20
19.426
30
0
0
VERTEX
8
CUT
10
17.763
20
20.190
30
0
0
VERTEX
8
CUT
10
18.880
20
20.597
30
0
0
VERTEX
8
CUT
10
20.070
20
20.597
30
0
0
VERTEX
8
CUT
10
21.187
20
20.190
30
0
0
VERTEX
8
CUT
10
22.098
20
19.426
30
0
0
VERTEX
8
CUT
10
22.692
20
18.396
30
0
0
VERTEX
8
CUT
10
22.899
20
17.225
30
0
0
VERTEX
8
CUT
10
22.692
20
16.054
30
0
0
VERTEX
8
CUT
10
22.098
20
15.024
30
0
0
VERTEX
8
CUT
10
21.187
20
14.260
30
0
0
VERTEX
8
CUT
10
20.070
20
13.853
30
0
0
VERTEX
8
CUT
10
18.880
20
13.853
30
0
0
VERTEX
8
CUT
10
17.763
20
14.260
30
0
0
VERTEX
8
CUT
10
16.852
20
15.024
30
0
0
VERTEX
8
CUT
10
16.258
20
16.054
30
0
0
SEQEND
8
CUT
0
POLYLINE
8
CUT
66
1
70
1
10
0
20
0
30
0
0
VERTEX
8
CUT
10
79.480
20
9.450
30
0
0
VERTEX
8
CUT
10
4.070
20
9.450
30
0
0
VERTEX
8
CUT
10
3.797
20
9.486
30
0
0
VERTEX
8
CUT
10
3.537
20
9.593
30
0
0
VERTEX
8
CUT
10
3.314
20
9.764
30
0
0
VERTEX
8
CUT
10
3.143
20
9.987
30
0
0
VERTEX
8
CUT
10
3.036
20
10.247
30
0
0
VERTEX
8
CUT
10
3.000
20
10.520
30
0
0
VERTEX
8
CUT
10
3.000
20
49.930
30
0
0
VERTEX
8
CUT
10
3.036
20
50.203
30
0
0
VERTEX
8
CUT
10
3.143
20
50.463
30
0
0
VERTEX
8
CUT
10
3.314
20
50.686
30
0
0
VERTEX
8
CUT
10
3.537
20
50.857
30
0
0
VERTEX
8
CUT
10
3.797
20
50.964
30
0
0
VERTEX
8
CUT
10
4.070
20
51.000
30
0
0
VERTEX
8
CUT
10
79.480
20
51.000
30
0
0
VERTEX
8
CUT
10
79.753
20
50.964
30
0
0
VERTEX
8
CUT
10
80.013
20
50.857
30
0
0
VERTEX
8
CUT
10
80.236
20
50.686
30
0
0
VERTEX
8
CUT
10
80.407
20
50.463
30
0
0
VERTEX
8
CUT
10
80.514
20
50.203
30
0
0
VERTEX
8
CUT
10
80.550
20
49.930
30
0
0
VERTEX
8
CUT
10
80.550
20
10.520
30
0
0
VERTEX
8
CUT
10
80.514
20
10.247
30
0
0
VERTEX
8
CUT
10
80.407
20
9.987
30
0
0
VERTEX
8
CUT
10
80.236
20
9.764
30
0
0
VERTEX
8
CUT
10
80.013
20
9.593
30
0
0
VERTEX
8
CUT
10
79.753
20
9.486
30
0
0
SEQEND
8
CUT
0
POLYLINE
8
CUT
66
1
70
1
10
0
20
0
30
0
0
VERTEX
8
CUT
10
95.551
20
17.225
30
0
0
VERTEX
8
CUT
10
95.758
20
18.396
30
0
0
VERTEX
8
CUT
10
96.352
20
19.426
30
0
0
VERTEX
8
CUT
10
97.263
20
20.190
30
0
0
VERTEX
8
CUT
10
98.380
20
20.597
30
0
0
VERTEX
8
CUT
10
99.570
20
20.597
30
0
0
VERTEX
8
CUT
10
100.687
20
20.190
30
0
0
VERTEX
8
CUT
10
101.598
20
19.426
30
0
0
VERTEX
8
CUT
10
102.192
20
18.396
30
0
0
VERTEX
8
CUT
10
102.399
20
17.225
30
0
0
VERTEX
8
CUT
10
102.192
20
16.054
30
0
0
VERTEX
8
CUT
10
101.598
20
15.024
30
0
0
VERTEX
8
CUT
10
100.687
20
14.260
30
0
0
VERTEX
8
CUT
10
99.570
20
13.853
30
0
0
VERTEX
8
CUT
10
98.380
20
13.853
30
0
0
VERTEX
8
CUT
10
97.263
20
14.260
30
0
0
VERTEX
8
CUT
10
96.352
20
15.024
30
0
0
VERTEX
8
CUT
10
95.758
20
16.054
30
0
0
SEQEND
8
CUT
0
POLYLINE
8
CUT
66
1
70
1
10
0
20
0
30
0
0
VERTEX
8
CUT
10
158.980
20
9.450
30
0
0
VERTEX
8
CUT
10
83.570
20
9.450
30
0
0
VERTEX
8
CUT
10
83.297
20
9.486
30
0
0
VERTEX
8
CUT
10
83.037
20
9.593
30
0
0
VERTEX
8
CUT
10
82.814
20
9.764
30
0
0
VERTEX
8
CUT
10
82.643
20
9.987
30
0
0
VERTEX
8
CUT
10
82.536
20
10.247
30
0
0
VERTEX
8
CUT
10
82.500
20
10.520
30
0
0
VERTEX
8
CUT
10
82.500
20
49.930
30
0
0
VERTEX
8
CUT
10
82.536
20
50.203
30
0
0
VERTEX
8
CUT
10
82.643
20
50.463
30
0
0
VERTEX
8
CUT
10
82.814
20
50.686
30
0
0
VERTEX
8
CUT
10
83.037
20
50.857
30
0
0
VERTEX
8
CUT
10
83.297
20
50.964
30
0
0
VERTEX
8
CUT
10
83.570
20
51.000
30
0
0
VERTEX
8
CUT
10
158.980
20
51.000
30
0
0
VERTEX
8
CUT
10
159.253
20
50.964
30
0
0
VERTEX
8
CUT
10
159.513
20
50.857
30
0
0
VERTEX
8
CUT
10
159.736
20
50.686
30
0
0
VERTEX
8
CUT
10
159.907
20
50.463
30
0
0
VERTEX
8
CUT
10
160.014
20
50.203
30
0
0
VERTEX
8
CUT
10
160.050
20
49.930
30
0
0
VERTEX
8
CUT
10
160.050
20
10.520
30
0
0
VERTEX
8
CUT
10
160.014
20
10.247
30
0
0
VERTEX
8
CUT
10
159.907
20
9.987
30
0
0
VERTEX
8
CUT
10
159.736
20
9.764
30
0
0
VERTEX
8
CUT
10
159.513
20
9.593
30
0
0
VERTEX
8
CUT
10
159.253
20
9.486
30
0
0
SEQEND
8
CUT
0
POLYLINE
8
CUT
66
1
70
1
10
0
20
0
30
0
0
VERTEX
8
CUT
10
198.600
20
10.950
30
0
0
VERTEX
8
CUT
10
208.550
20
10.950
30
0
0
VERTEX
8
CUT
10
208.550
20
13.900
30
0
0
VERTEX
8
CUT
10
198.600
20
13.900
30
0
0
SEQEND
8
CUT
0
POLYLINE
8
CUT
66
1
70
1
10
0
20
0
30
0
0
VERTEX
8
CUT
10
177.600
20
10.950
30
0
0
VERTEX
8
CUT
10
187.550
20
10.950
30
0
0
VERTEX
8
CUT
10
187.550
20
13.900
30
0
0
VERTEX
8
CUT
10
177.600
20
13.900
30
0
0
SEQEND
8
CUT
0
POLYLINE
8
CUT
66
1
70
1
10
0
20
0
30
0
0
VERTEX
8
CUT
10
214.100
20
38.950
30
0
0
VERTEX
8
CUT
10
217.050
20
38.950
30
0
0
VERTEX
8
CUT
10
217.050
20
48.900
30
0
0
VERTEX
8
CUT
10
214.100
20
48.900
30
0
0
SEQEND
8
CUT
0
POLYLINE
8
CUT
66
1
70
1
10
0
20
0
30
0
0
VERTEX
8
CUT
10
214.100
20
14.950
30
0
0
VERTEX
8
CUT
10
217.050
20
14.950
30
0
0
VERTEX
8
CUT
10
217.050
20
24.900
30
0
0
VERTEX
8
CUT
10
214.100
20
24.900
30
0
0
SEQEND
8
CUT
0
POLYLINE
8
CUT
66
1
70
1
10
0
20
0
30
0
0
VERTEX
8
CUT
10
169.100
20
38.950
30
0
0
VERTEX
8
CUT
10
172.050
20
38.950
30
0
0
VERTEX
8
CUT
10
172.050
20
48.900
30
0
0
VERTEX
8
CUT
10
169.100
20
48.900
30
0
0
SEQEND
8
CUT
0
POLYLINE
8
CUT
66
1
70
1
10
0
20
0
30
0
0
VERTEX
8
CUT
10
169.100
20
14.950
30
0
0
VERTEX
8
CUT
10
172.050
20
14.950
30
0
0
VERTEX
8
CUT
10
172.050
20
24.900
30
0
0
VERTEX
8
CUT
10
169.100
20
24.900
30
0
0
SEQEND
8
CUT
0
POLYLINE
8
CUT
66
1
70
1
10
0
20
0
30
0
0
VERTEX
8
CUT
10
168.070
20
7.850
30
0
0
VERTEX
8
CUT
10
218.080
20
7.850
30
0
0
VERTEX
8
CUT
10
218.612
20
7.920
30
0
0
VERTEX
8
CUT
10
219.113
20
8.127
30
0
0
VERTEX
8
CUT
10
219.543
20
8.457
30
0
0
VERTEX
8
CUT
10
219.873
20
8.887
30
0
0
VERTEX
8
CUT
10
220.080
20
9.388
30
0
0
VERTEX
8
CUT
10
220.150
20
9.920
30
0
0
VERTEX
8
CUT
10
220.150
20
53.930
30
0
0
VERTEX
8
CUT
10
220.080
20
54.462
30
0
0
VERTEX
8
CUT
10
219.873
20
54.963
30
0
0
VERTEX
8
CUT
10
219.543
20
55.393
30
0
0
VERTEX
8
CUT
10
219.113
20
55.723
30
0
0
VERTEX
8
CUT
10
218.612
20
55.930
30
0
0
VERTEX
8
CUT
10
218.080
20
56.000
30
0
0
VERTEX
8
CUT
10
168.070
20
56.000
30
0
0
VERTEX
8
CUT
10
167.538
20
55.930
30
0
0
VERTEX
8
CUT
10
167.037
20
55.723
30
0
0
VERTEX
8
CUT
10
166.607
20
55.393
30
0
0
VERTEX
8
CUT
10
166.277
20
54.963
30
0
0
VERTEX
8
CUT
10
166.070
20
54.462
30
0
0
VERTEX
8
CUT
10
166.000
20
53.930
30
0
0
VERTEX
8
CUT
10
166.000
20
9.920
30
0
0
VERTEX
8
CUT
10
166.070
20
9.388
30
0
0
VERTEX
8
CUT
10
166.277
20
8.887
30
0
0
VERTEX
8
CUT
10
166.607
20
8.457
30
0
0
VERTEX
8
CUT
10
167.037
20
8.127
30
0
0
VERTEX
8
CUT
10
167.538
20
7.920
30
0
0
SEQEND
8
CUT
0
POLYLINE
8
CUT
66
1
70
1
10
0
20
0
30
0
0
VERTEX
8
CUT
10
444.150
20
26.100
30
0
0
VERTEX
8
CUT
10
438.000
20
26.100
30
0
0
VERTEX
8
CUT
10
438.000
20
40.558
30
0
0
VERTEX
8
CUT
10
435.000
20
40.558
30
0
0
VERTEX
8
CUT
10
435.000
20
50.708
30
0
0
VERTEX
8
CUT
10
438.000
20
50.708
30
0
0
VERTEX
8
CUT
10
438.000
20
79.475
30
0
0
VERTEX
8
CUT
10
435.000
20
79.475
30
0
0
VERTEX
8
CUT
10
435.000
20
89.625
30
0
0
VERTEX
8
CUT
10
438.000
20
89.625
30
0
0
VERTEX
8
CUT
10
438.000
20
118.392
30
0
0
VERTEX
8
CUT
10
435.000
20
118.392
30
0
0
VERTEX
8
CUT
10
435.000
20
128.542
30
0
0
VERTEX
8
CUT
10
438.000
20
128.542
30
0
0
VERTEX
8
CUT
10
438.000
20
143.000
30
0
0
VERTEX
8
CUT
10
444.150
20
143.000
30
0
0
SEQEND
8
CUT
0
POLYLINE
8
CUT
66
1
70
1
10
0
20
0
30
0
0
VERTEX
8
CUT
10
418.021
20
29.559
30
0
0
VERTEX
8
CUT
10
416.297
20
29.255
30
0
0
VERTEX
8
CUT
10
415.438
20
34.130
30
0
0
VERTEX
8
CUT
10
410.437
20
33.248
30
0
0
VERTEX
8
CUT
10
407.164
20
51.812
30
0
0
VERTEX
8
CUT
10
412.165
20
52.694
30
0
0
VERTEX
8
CUT
10
411.305
20
57.569
30
0
0
VERTEX
8
CUT
10
413.028
20
57.872
30
0
0
VERTEX
8
CUT
10
413.888
20
52.998
30
0
0
VERTEX
8
CUT
10
420.043
20
54.083
30
0
0
VERTEX
8
CUT
10
423.316
20
35.519
30
0
0
VERTEX
8
CUT
10
417.161
20
34.434
30
0
0
SEQEND
8
CUT
0
POLYLINE
8
CUT
66
1
70
1
10
0
20
0
30
0
0
VERTEX
8
CUT
10
428.950
20
21.350
30
0
0
VERTEX
8
CUT
10
421.300
20
21.350
30
0
0
VERTEX
8
CUT
10
421.300
20
18.350
30
0
0
VERTEX
8
CUT
10
413.150
20
18.350
30
0
0
VERTEX
8
CUT
10
413.150
20
21.350
30
0
0
VERTEX
8
CUT
10
405.500
20
21.350
30
0
0
VERTEX
8
CUT
10
405.500
20
60.000
30
0
0
VERTEX
8
CUT
10
428.950
20
60.000
30
0
0
SEQEND
8
CUT
0
POLYLINE
8
CUT
66
1
70
1
10
0
20
0
30
0
0
VERTEX
8
CUT
10
382.000
20
268.350
30
0
0
VERTEX
8
CUT
10
382.000
20
271.350
30
0
0
VERTEX
8
CUT
10
379.000
20
271.350
30
0
0
VERTEX
8
CUT
10
379.000
20
279.500
30
0
0
VERTEX
8
CUT
10
382.000
20
279.500
30
0
0
VERTEX
8
CUT
10
382.000
20
282.500
30
0
0
VERTEX
8
CUT
10
402.675
20
282.500
30
0
0
VERTEX
8
CUT
10
402.675
20
268.350
30
0
0
SEQEND
8
CUT
0
POLYLINE
8
CUT
66
1
70
1
10
0
20
0
30
0
0
VERTEX
8
CUT
10
407.500
20
268.350
30
0
0
VERTEX
8
CUT
10
407.500
20
271.350
30
0
0
VERTEX
8
CUT
10
404.500
20
271.350
30
0
0
VERTEX
8
CUT
10
404.500
20
279.500
30
0
0
VERTEX
8
CUT
10
407.500
20
279.500
30
0
0
VERTEX
8
CUT
10
407.500
20
282.500
30
0
0
VERTEX
8
CUT
10
428.175
20
282.500
30
0
0
VERTEX
8
CUT
10
428.175
20
268.350
30
0
0
SEQEND
8
CUT
0
POLYLINE
8
CUT
66
1
70
1
10
0
20
0
30
0
0
VERTEX
8
CUT
10
323.000
20
156.850
30
0
0
VERTEX
8
CUT
10
323.000
20
159.850
30
0
0
VERTEX
8
CUT
10
320.000
20
159.850
30
0
0
VERTEX
8
CUT
10
320.000
20
168.000
30
0
0
VERTEX
8
CUT
10
323.000
20
168.000
30
0
0
VERTEX
8
CUT
10
323.000
20
171.000
30
0
0
VERTEX
8
CUT
10
343.675
20
171.000
30
0
0
VERTEX
8
CUT
10
343.675
20
156.850
30
0
0
SEQEND
8
CUT
0
POLYLINE
8
CUT
66
1
70
1
10
0
20
0
30
0
0
VERTEX
8
CUT
10
345.500
20
158.850
30
0
0
VERTEX
8
CUT
10
345.500
20
171.000
30
0
0
VERTEX
8
CUT
10
367.650
20
171.000
30
0
0
VERTEX
8
CUT
10
367.650
20
158.850
30
0
0
SEQEND
8
CUT
0
POLYLINE
8
CUT
66
1
70
1
10
0
20
0
30
0
0
VERTEX
8
CUT
10
369.500
20
158.850
30
0
0
VERTEX
8
CUT
10
369.500
20
171.000
30
0
0
VERTEX
8
CUT
10
391.650
20
171.000
30
0
0
VERTEX
8
CUT
10
391.650
20
158.850
30
0
0
SEQEND
8
CUT
0
POLYLINE
8
CUT
66
1
70
1
10
0
20
0
30
0
0
VERTEX
8
CUT
10
192.650
20
151.850
30
0
0
VERTEX
8
CUT
10
180.500
20
151.850
30
0
0
VERTEX
8
CUT
10
180.500
20
174.000
30
0
0
VERTEX
8
CUT
10
192.650
20
174.000
30
0
0
SEQEND
8
CUT
0
POLYLINE
8
CUT
66
1
70
1
10
0
20
0
30
0
0
VERTEX
8
CUT
10
191.650
20
127.850
30
0
0
VERTEX
8
CUT
10
180.500
20
127.850
30
0
0
VERTEX
8
CUT
10
180.500
20
150.000
30
0
0
VERTEX
8
CUT
10
191.650
20
150.000
30
0
0
SEQEND
8
CUT
0
POLYLINE
8
CUT
66
1
70
1
10
0
20
0
30
0
0
VERTEX
8
CUT
10
303.150
20
101.850
30
0
0
VERTEX
8
CUT
10
292.000
20
101.850
30
0
0
VERTEX
8
CUT
10
292.000
20
124.000
30
0
0
VERTEX
8
CUT
10
303.150
20
124.000
30
0
0
SEQEND
8
CUT
0
POLYLINE
8
CUT
66
1
70
1
10
0
20
0
30
0
0
VERTEX
8
CUT
10
303.150
20
77.850
30
0
0
VERTEX
8
CUT
10
292.000
20
77.850
30
0
0
VERTEX
8
CUT
10
292.000
20
100.000
30
0
0
VERTEX
8
CUT
10
303.150
20
100.000
30
0
0
SEQEND
8
CUT
0
POLYLINE
8
CUT
66
1
70
1
10
0
20
0
30
0
0
VERTEX
8
CUT
10
446.892
20
6.695
30
0
0
VERTEX
8
CUT
10
446.858
20
8.570
30
0
0
VERTEX
8
CUT
10
446.269
20
10.375
30
0
0
VERTEX
8
CUT
10
445.149
20
12.115
30
0
0
VERTEX
8
CUT
10
443.543
20
13.725
30
0
0
VERTEX
8
CUT
10
441.512
20
15.145
30
0
0
VERTEX
8
CUT
10
439.136
20
16.322
30
0
0
VERTEX
8
CUT
10
436.504
20
17.210
30
0
0
VERTEX
8
CUT
10
433.718
20
17.777
30
0
0
VERTEX
8
CUT
10
430.883
20
18.000
30
0
0
VERTEX
8
CUT
10
428.109
20
17.872
30
0
0
VERTEX
8
CUT
10
425.500
20
17.396
30
0
0
VERTEX
8
CUT
10
423.157
20
16.590
30
0
0
VERTEX
8
CUT
10
421.169
20
15.485
30
0
0
VERTEX
8
CUT
10
419.613
20
14.121
30
0
0
VERTEX
8
CUT
10
418.549
20
12.548
30
0
0
VERTEX
8
CUT
10
418.000
20
10.756
30
0
0
SEQEND
8
CUT
0
POLYLINE
8
CUT
66
1
70
1
10
0
20
0
30
0
0
VERTEX
8
CUT
10
443.151
20
275.925
30
0
0
VERTEX
8
CUT
10
443.024
20
277.207
30
0
0
VERTEX
8
CUT
10
442.650
20
278.441
30
0
0
VERTEX
8
CUT
10
442.043
20
279.578
30
0
0
VERTEX
8
CUT
10
441.225
20
280.574
30
0
0
VERTEX
8
CUT
10
440.228
20
281.392
30
0
0
VERTEX
8
CUT
10
439.092
20
281.999
30
0
0
VERTEX
8
CUT
10
437.858
20
282.374
30
0
0
VERTEX
8
CUT
10
436.575
20
282.500
30
0
0
VERTEX
8
CUT
10
435.293
20
282.374
30
0
0
VERTEX
8
CUT
10
434.059
20
281.999
30
0
0
VERTEX
8
CUT
10
432.922
20
281.392
30
0
0
VERTEX
8
CUT
10
431.926
20
280.574
30
0
0
VERTEX
8
CUT
10
431.108
20
279.578
30
0
0
VERTEX
8
CUT
10
430.501
20
278.441
30
0
0
VERTEX
8
CUT
10
430.126
20
277.207
30
0
0
VERTEX
8
CUT
10
430.000
20
275.925
30
0
0
VERTEX
8
CUT
10
430.126
20
274.642
30
0
0
VERTEX
8
CUT
10
430.501
20
273.408
30
0
0
VERTEX
8
CUT
10
431.108
20
272.272
30
0
0
VERTEX
8
CUT
10
431.926
20
271.275
30
0
0
VERTEX
8
CUT
10
432.922
20
270.457
30
0
0
VERTEX
8
CUT
10
434.059
20
269.850
30
0
0
VERTEX
8
CUT
10
435.293
20
269.476
30
0
0
VERTEX
8
CUT
10
436.575
20
269.349
30
0
0
VERTEX
8
CUT
10
437.858
20
269.476
30
0
0
VERTEX
8
CUT
10
439.092
20
269.850
30
0
0
VERTEX
8
CUT
10
440.228
20
270.457
30
0
0
VERTEX
8
CUT
10
441.225
20
271.275
30
0
0
VERTEX
8
CUT
10
442.043
20
272.272
30
0
0
VERTEX
8
CUT
10
442.650
20
273.408
30
0
0
VERTEX
8
CUT
10
443.024
20
274.642
30
0
0
SEQEND
8
CUT
0
POLYLINE
8
CUT
66
1
70
1
10
0
20
0
30
0
0
VERTEX
8
CUT
10
193.651
20
119.425
30
0
0
VERTEX
8
CUT
10
193.524
20
120.707
30
0
0
VERTEX
8
CUT
10
193.150
20
121.941
30
0
0
VERTEX
8
CUT
10
192.543
20
123.078
30
0
0
VERTEX
8
CUT
10
191.725
20
124.074
30
0
0
VERTEX
8
CUT
10
190.728
20
124.892
30
0
0
VERTEX
8
CUT
10
189.592
20
125.499
30
0
0
VERTEX
8
CUT
10
188.358
20
125.874
30
0
0
VERTEX
8
CUT
10
187.075
20
126.000
30
0
0
VERTEX
8
CUT
10
185.793
20
125.874
30
0
0
VERTEX
8
CUT
10
184.559
20
125.499
30
0
0
VERTEX
8
CUT
10
183.422
20
124.892
30
0
0
VERTEX
8
CUT
10
182.426
20
124.074
30
0
0
VERTEX
8
CUT
10
181.608
20
123.078
30
0
0
VERTEX
8
CUT
10
181.001
20
121.941
30
0
0
VERTEX
8
CUT
10
180.626
20
120.707
30
0
0
VERTEX
8
CUT
10
180.500
20
119.425
30
0
0
VERTEX
8
CUT
10
180.626
20
118.142
30
0
0
VERTEX
8
CUT
10
181.001
20
116.908
30
0
0
VERTEX
8
CUT
10
181.608
20
115.772
30
0
0
VERTEX
8
CUT
10
182.426
20
114.775
30
0
0
VERTEX
8
CUT
10
183.422
20
113.957
30
0
0
VERTEX
8
CUT
10
184.559
20
113.350
30
0
0
VERTEX
8
CUT
10
185.793
20
112.976
30
0
0
VERTEX
8
CUT
10
187.075
20
112.849
30
0
0
VERTEX
8
CUT
10
188.358
20
112.976
30
0
0
VERTEX
8
CUT
10
189.592
20
113.350
30
0
0
VERTEX
8
CUT
10
190.728
20
113.957
30
0
0
VERTEX
8
CUT
10
191.725
20
114.775
30
0
0
VERTEX
8
CUT
10
192.543
20
115.772
30
0
0
VERTEX
8
CUT
10
193.150
20
116.908
30
0
0
VERTEX
8
CUT
10
193.524
20
118.142
30
0
0
SEQEND
8
CUT
0
POLYLINE
8
CUT
66
1
70
1
10
0
20
0
30
0
0
VERTEX
8
CUT
10
305.151
20
69.425
30
0
0
VERTEX
8
CUT
10
305.024
20
70.707
30
0
0
VERTEX
8
CUT
10
304.650
20
71.941
30
0
0
VERTEX
8
CUT
10
304.043
20
73.078
30
0
0
VERTEX
8
CUT
10
303.225
20
74.074
30
0
0
VERTEX
8
CUT
10
302.228
20
74.892
30
0
0
VERTEX
8
CUT
10
301.092
20
75.499
30
0
0
VERTEX
8
CUT
10
299.858
20
75.874
30
0
0
VERTEX
8
CUT
10
298.575
20
76.000
30
0
0
VERTEX
8
CUT
10
297.293
20
75.874
30
0
0
VERTEX
8
CUT
10
296.059
20
75.499
30
0
0
VERTEX
8
CUT
10
294.922
20
74.892
30
0
0
VERTEX
8
CUT
10
293.926
20
74.074
30
0
0
VERTEX
8
CUT
10
293.108
20
73.078
30
0
0
VERTEX
8
CUT
10
292.501
20
71.941
30
0
0
VERTEX
8
CUT
10
292.126
20
70.707
30
0
0
VERTEX
8
CUT
10
292.000
20
69.425
30
0
0
VERTEX
8
CUT
10
292.126
20
68.142
30
0
0
VERTEX
8
CUT
10
292.501
20
66.908
30
0
0
VERTEX
8
CUT
10
293.108
20
65.772
30
0
0
VERTEX
8
CUT
10
293.926
20
64.775
30
0
0
VERTEX
8
CUT
10
294.922
20
63.957
30
0
0
VERTEX
8
CUT
10
296.059
20
63.350
30
0
0
VERTEX
8
CUT
10
297.293
20
62.976
30
0
0
VERTEX
8
CUT
10
298.575
20
62.849
30
0
0
VERTEX
8
CUT
10
299.858
20
62.976
30
0
0
VERTEX
8
CUT
10
301.092
20
63.350
30
0
0
VERTEX
8
CUT
10
302.228
20
63.957
30
0
0
VERTEX
8
CUT
10
303.225
20
64.775
30
0
0
VERTEX
8
CUT
10
304.043
20
65.772
30
0
0
VERTEX
8
CUT
10
304.650
20
66.908
30
0
0
VERTEX
8
CUT
10
305.024
20
68.142
30
0
0
SEQEND
8
CUT
0
POLYLINE
8
CUT
66
1
70
1
10
0
20
0
30
0
0
VERTEX
8
CUT
10
328.150
20
147.625
30
0
0
VERTEX
8
CUT
10
327.150
20
147.625
30
0
0
VERTEX
8
CUT
10
327.150
20
144.625
30
0
0
VERTEX
8
CUT
10
324.000
20
144.625
30
0
0
VERTEX
8
CUT
10
324.000
20
147.625
30
0
0
VERTEX
8
CUT
10
323.000
20
147.625
30
0
0
VERTEX
8
CUT
10
323.000
20
155.000
30
0
0
VERTEX
8
CUT
10
328.150
20
155.000
30
0
0
SEQEND
8
CUT
0
POLYLINE
8
CUT
66
1
70
1
10
0
20
0
30
0
0
VERTEX
8
CUT
10
431.000
20
60.000
30
0
0
VERTEX
8
CUT
10
432.000
20
60.000
30
0
0
VERTEX
8
CUT
10
432.000
20
63.000
30
0
0
VERTEX
8
CUT
10
435.150
20
63.000
30
0
0
VERTEX
8
CUT
10
435.150
20
60.000
30
0
0
VERTEX
8
CUT
10
436.150
20
60.000
30
0
0
VERTEX
8
CUT
10
436.150
20
52.625
30
0
0
VERTEX
8
CUT
10
431.000
20
52.625
30
0
0
SEQEND
8
CUT
0
POLYLINE
8
CUT
66
1
70
1
10
0
20
0
30
0
0
VERTEX
8
CUT
10
227.150
20
48.625
30
0
0
VERTEX
8
CUT
10
226.150
20
48.625
30
0
0
VERTEX
8
CUT
10
226.150
20
45.625
30
0
0
VERTEX
8
CUT
10
223.000
20
45.625
30
0
0
VERTEX
8
CUT
10
223.000
20
48.625
30
0
0
VERTEX
8
CUT
10
222.000
20
48.625
30
0
0
VERTEX
8
CUT
10
222.000
20
56.000
30
0
0
VERTEX
8
CUT
10
227.150
20
56.000
30
0
0
SEQEND
8
CUT
0
POLYLINE
8
CUT
66
1
70
1
10
0
20
0
30
0
0
VERTEX
8
CUT
10
227.150
20
36.625
30
0
0
VERTEX
8
CUT
10
226.150
20
36.625
30
0
0
VERTEX
8
CUT
10
226.150
20
33.625
30
0
0
VERTEX
8
CUT
10
223.000
20
33.625
30
0
0
VERTEX
8
CUT
10
223.000
20
36.625
30
0
0
VERTEX
8
CUT
10
222.000
20
36.625
30
0
0
VERTEX
8
CUT
10
222.000
20
44.000
30
0
0
VERTEX
8
CUT
10
227.150
20
44.000
30
0
0
SEQEND
8
CUT
0
POLYLINE
8
CUT
66
1
70
1
10
0
20
0
30
0
0
VERTEX
8
CUT
10
317.150
20
32.625
30
0
0
VERTEX
8
CUT
10
316.150
20
32.625
30
0
0
VERTEX
8
CUT
10
316.150
20
29.625
30
0
0
VERTEX
8
CUT
10
313.000
20
29.625
30
0
0
VERTEX
8
CUT
10
313.000
20
32.625
30
0
0
VERTEX
8
CUT
10
312.000
20
32.625
30
0
0
VERTEX
8
CUT
10
312.000
20
40.000
30
0
0
VERTEX
8
CUT
10
317.150
20
40.000
30
0
0
SEQEND
8
CUT
0
POLYLINE
8
CUT
66
1
70
1
10
0
20
0
30
0
0
VERTEX
8
CUT
10
435.650
20
31.625
30
0
0
VERTEX
8
CUT
10
434.650
20
31.625
30
0
0
VERTEX
8
CUT
10
434.650
20
28.625
30
0
0
VERTEX
8
CUT
10
431.500
20
28.625
30
0
0
VERTEX
8
CUT
10
431.500
20
31.625
30
0
0
VERTEX
8
CUT
10
430.500
20
31.625
30
0
0
VERTEX
8
CUT
10
430.500
20
39.000
30
0
0
VERTEX
8
CUT
10
435.650
20
39.000
30
0
0
SEQEND
8
CUT
0
POLYLINE
8
CUT
66
1
70
1
10
0
20
0
30
0
0
VERTEX
8
CUT
10
227.150
20
24.625
30
0
0
VERTEX
8
CUT
10
226.150
20
24.625
30
0
0
VERTEX
8
CUT
10
226.150
20
21.625
30
0
0
VERTEX
8
CUT
10
223.000
20
21.625
30
0
0
VERTEX
8
CUT
10
223.000
20
24.625
30
0
0
VERTEX
8
CUT
10
222.000
20
24.625
30
0
0
VERTEX
8
CUT
10
222.000
20
32.000
30
0
0
VERTEX
8
CUT
10
227.150
20
32.000
30
0
0
SEQEND
8
CUT
0
POLYLINE
8
CUT
66
1
70
1
10
0
20
0
30
0
0
VERTEX
8
CUT
10
436.500
20
19.350
30
0
0
VERTEX
8
CUT
10
436.500
20
20.350
30
0
0
VERTEX
8
CUT
10
433.500
20
20.350
30
0
0
VERTEX
8
CUT
10
433.500
20
23.500
30
0
0
VERTEX
8
CUT
10
436.500
20
23.500
30
0
0
VERTEX
8
CUT
10
436.500
20
24.500
30
0
0
VERTEX
8
CUT
10
443.875
20
24.500
30
0
0
VERTEX
8
CUT
10
443.875
20
19.350
30
0
0
SEQEND
8
CUT
0
POLYLINE
8
CUT
66
1
70
1
10
0
20
0
30
0
0
VERTEX
8
CUT
10
408.500
20
11.350
30
0
0
VERTEX
8
CUT
10
408.500
20
12.350
30
0
0
VERTEX
8
CUT
10
405.500
20
12.350
30
0
0
VERTEX
8
CUT
10
405.500
20
15.500
30
0
0
VERTEX
8
CUT
10
408.500
20
15.500
30
0
0
VERTEX
8
CUT
10
408.500
20
16.500
30
0
0
VERTEX
8
CUT
10
415.875
20
16.500
30
0
0
VERTEX
8
CUT
10
415.875
20
11.350
30
0
0
SEQEND
8
CUT
0
POLYLINE
8
CUT
66
1
70
1
10
0
20
0
30
0
0
VERTEX
8
CUT
10
227.150
20
12.625
30
0
0
VERTEX
8
CUT
10
226.150
20
12.625
30
0
0
VERTEX
8
CUT
10
226.150
20
9.625
30
0
0
VERTEX
8
CUT
10
223.000
20
9.625
30
0
0
VERTEX
8
CUT
10
223.000
20
12.625
30
0
0
VERTEX
8
CUT
10
222.000
20
12.625
30
0
0
VERTEX
8
CUT
10
222.000
20
20.000
30
0
0
VERTEX
8
CUT
10
227.150
20
20.000
30
0
0
SEQEND
8
CUT
0
POLYLINE
8
CUT
66
1
70
1
10
0
20
0
30
0
0
VERTEX
8
CUT
10
317.150
20
8.625
30
0
0
VERTEX
8
CUT
10
316.150
20
8.625
30
0
0
VERTEX
8
CUT
10
316.150
20
5.625
30
0
0
VERTEX
8
CUT
10
313.000
20
5.625
30
0
0
VERTEX
8
CUT
10
313.000
20
8.625
30
0
0
VERTEX
8
CUT
10
312.000
20
8.625
30
0
0
VERTEX
8
CUT
10
312.000
20
16.000
30
0
0
VERTEX
8
CUT
10
317.150
20
16.000
30
0
0
SEQEND
8
CUT
0
POLYLINE
8
CUT
66
1
70
1
10
0
20
0
30
0
0
VERTEX
8
CUT
10
408.500
20
4.350
30
0
0
VERTEX
8
CUT
10
408.500
20
5.350
30
0
0
VERTEX
8
CUT
10
405.500
20
5.350
30
0
0
VERTEX
8
CUT
10
405.500
20
8.500
30
0
0
VERTEX
8
CUT
10
408.500
20
8.500
30
0
0
VERTEX
8
CUT
10
408.500
20
9.500
30
0
0
VERTEX
8
CUT
10
414.650
20
9.500
30
0
0
VERTEX
8
CUT
10
414.650
20
4.350
30
0
0
SEQEND
8
CUT
0
POLYLINE
8
CUT
66
1
70
1
10
0
20
0
30
0
0
VERTEX
8
CUT
10
228.000
20
3.850
30
0
0
VERTEX
8
CUT
10
228.000
20
4.850
30
0
0
VERTEX
8
CUT
10
225.000
20
4.850
30
0
0
VERTEX
8
CUT
10
225.000
20
8.000
30
0
0
VERTEX
8
CUT
10
228.000
20
8.000
30
0
0
VERTEX
8
CUT
10
228.000
20
9.000
30
0
0
VERTEX
8
CUT
10
234.150
20
9.000
30
0
0
VERTEX
8
CUT
10
234.150
20
3.850
30
0
0
SEQEND
8
CUT
0
POLYLINE
8
CUT
66
1
70
1
10
0
20
0
30
0
0
VERTEX
8
CUT
10
239.000
20
3.850
30
0
0
VERTEX
8
CUT
10
239.000
20
4.850
30
0
0
VERTEX
8
CUT
10
236.000
20
4.850
30
0
0
VERTEX
8
CUT
10
236.000
20
8.000
30
0
0
VERTEX
8
CUT
10
239.000
20
8.000
30
0
0
VERTEX
8
CUT
10
239.000
20
9.000
30
0
0
VERTEX
8
CUT
10
245.150
20
9.000
30
0
0
VERTEX
8
CUT
10
245.150
20
3.850
30
0
0
SEQEND
8
CUT
0
POLYLINE
8
CUT
66
1
70
1
10
0
20
0
30
0
0
VERTEX
8
CUT
10
250.000
20
3.850
30
0
0
VERTEX
8
CUT
10
250.000
20
4.850
30
0
0
VERTEX
8
CUT
10
247.000
20
4.850
30
0
0
VERTEX
8
CUT
10
247.000
20
8.000
30
0
0
VERTEX
8
CUT
10
250.000
20
8.000
30
0
0
VERTEX
8
CUT
10
250.000
20
9.000
30
0
0
VERTEX
8
CUT
10
256.150
20
9.000
30
0
0
VERTEX
8
CUT
10
256.150
20
3.850
30
0
0
SEQEND
8
CUT
0
POLYLINE
8
CUT
66
1
70
1
10
0
20
0
30
0
0
VERTEX
8
CUT
10
261.000
20
3.850
30
0
0
VERTEX
8
CUT
10
261.000
20
4.850
30
0
0
VERTEX
8
CUT
10
258.000
20
4.850
30
0
0
VERTEX
8
CUT
10
258.000
20
8.000
30
0
0
VERTEX
8
CUT
10
261.000
20
8.000
30
0
0
VERTEX
8
CUT
10
261.000
20
9.000
30
0
0
VERTEX
8
CUT
10
267.150
20
9.000
30
0
0
VERTEX
8
CUT
10
267.150
20
3.850
30
0
0
SEQEND
8
CUT
0
POLYLINE
8
CUT
66
1
70
1
10
0
20
0
30
0
0
VERTEX
8
CUT
10
272.000
20
3.850
30
0
0
VERTEX
8
CUT
10
272.000
20
4.850
30
0
0
VERTEX
8
CUT
10
269.000
20
4.850
30
0
0
VERTEX
8
CUT
10
269.000
20
8.000
30
0
0
VERTEX
8
CUT
10
272.000
20
8.000
30
0
0
VERTEX
8
CUT
10
272.000
20
9.000
30
0
0
VERTEX
8
CUT
10
278.150
20
9.000
30
0
0
VERTEX
8
CUT
10
278.150
20
3.850
30
0
0
SEQEND
8
CUT
0
ENDSEC
0
EOF
