0
SECTION
2
HEADER
9
$ACADVER
1
AC1009
9
$INSUNITS
70
4
0
ENDSEC
0
SECTION
2
TABLES
0
TABLE
2
LAYER
70
3
0
LAYER
2
CUT
70
0
62
1
6
CONTINUOUS
0
LAYER
2
SCORE
70
0
62
5
6
CONTINUOUS
0
LAYER
2
ENGRAVE
70
0
62
7
6
CONTINUOUS
0
ENDTAB
0
ENDSEC
0
SECTION
2
ENTITIES
0
POLYLINE
8
ENGRAVE
66
1
70
1
10
0
20
0
30
0
0
VERTEX
8
ENGRAVE
10
120.749
20
126.821
30
0
0
VERTEX
8
ENGRAVE
10
120.791
20
128.279
30
0
0
VERTEX
8
ENGRAVE
10
121.124
20
128.654
30
0
0
VERTEX
8
ENGRAVE
10
121.749
20
128.654
30
0
0
VERTEX
8
ENGRAVE
10
121.958
20
128.446
30
0
0
VERTEX
8
ENGRAVE
10
122.041
20
128.238
30
0
0
VERTEX
8
ENGRAVE
10
122.166
20
128.529
30
0
0
VERTEX
8
ENGRAVE
10
122.541
20
128.779
30
0
0
VERTEX
8
ENGRAVE
10
123.083
20
128.738
30
0
0
VERTEX
8
ENGRAVE
10
123.374
20
128.488
30
0
0
VERTEX
8
ENGRAVE
10
123.499
20
128.154
30
0
0
VERTEX
8
ENGRAVE
10
123.499
20
126.821
30
0
0
SEQEND
8
ENGRAVE
0
POLYLINE
8
ENGRAVE
66
1
70
1
10
0
20
0
30
0
0
VERTEX
8
ENGRAVE
10
120.749
20
130.154
30
0
0
VERTEX
8
ENGRAVE
10
120.791
20
130.446
30
0
0
VERTEX
8
ENGRAVE
10
123.249
20
130.446
30
0
0
VERTEX
8
ENGRAVE
10
123.249
20
131.196
30
0
0
VERTEX
8
ENGRAVE
10
123.499
20
131.196
30
0
0
VERTEX
8
ENGRAVE
10
123.499
20
129.279
30
0
0
VERTEX
8
ENGRAVE
10
123.249
20
129.279
30
0
0
VERTEX
8
ENGRAVE
10
123.249
20
130.071
30
0
0
VERTEX
8
ENGRAVE
10
121.208
20
130.071
30
0
0
VERTEX
8
ENGRAVE
10
121.749
20
129.404
30
0
0
VERTEX
8
ENGRAVE
10
121.749
20
129.321
30
0
0
VERTEX
8
ENGRAVE
10
121.416
20
129.321
30
0
0
VERTEX
8
ENGRAVE
10
121.166
20
129.779
30
0
0
SEQEND
8
ENGRAVE
0
POLYLINE
8
ENGRAVE
66
1
70
1
10
0
20
0
30
0
0
VERTEX
8
ENGRAVE
10
121.041
20
127.196
30
0
0
VERTEX
8
ENGRAVE
10
121.916
20
127.154
30
0
0
VERTEX
8
ENGRAVE
10
121.916
20
128.029
30
0
0
VERTEX
8
ENGRAVE
10
121.708
20
128.321
30
0
0
VERTEX
8
ENGRAVE
10
121.374
20
128.363
30
0
0
VERTEX
8
ENGRAVE
10
121.083
20
128.154
30
0
0
SEQEND
8
ENGRAVE
0
POLYLINE
8
ENGRAVE
66
1
70
1
10
0
20
0
30
0
0
VERTEX
8
ENGRAVE
10
122.208
20
127.196
30
0
0
VERTEX
8
ENGRAVE
10
123.208
20
127.154
30
0
0
VERTEX
8
ENGRAVE
10
123.208
20
128.029
30
0
0
VERTEX
8
ENGRAVE
10
122.958
20
128.404
30
0
0
VERTEX
8
ENGRAVE
10
122.458
20
128.404
30
0
0
VERTEX
8
ENGRAVE
10
122.249
20
128.196
30
0
0
SEQEND
8
ENGRAVE
0
POLYLINE
8
ENGRAVE
66
1
70
1
10
0
20
0
30
0
0
VERTEX
8
ENGRAVE
10
217.532
20
189.321
30
0
0
VERTEX
8
ENGRAVE
10
218.209
20
188.592
30
0
0
VERTEX
8
ENGRAVE
10
218.105
20
188.435
30
0
0
VERTEX
8
ENGRAVE
10
218.886
20
188.435
30
0
0
VERTEX
8
ENGRAVE
10
219.616
20
189.321
30
0
0
VERTEX
8
ENGRAVE
10
219.876
20
189.060
30
0
0
VERTEX
8
ENGRAVE
10
219.355
20
188.435
30
0
0
VERTEX
8
ENGRAVE
10
220.970
20
188.435
30
0
0
VERTEX
8
ENGRAVE
10
220.970
20
188.175
30
0
0
VERTEX
8
ENGRAVE
10
216.282
20
188.175
30
0
0
VERTEX
8
ENGRAVE
10
216.282
20
188.435
30
0
0
VERTEX
8
ENGRAVE
10
217.793
20
188.435
30
0
0
VERTEX
8
ENGRAVE
10
217.532
20
188.852
30
0
0
VERTEX
8
ENGRAVE
10
217.272
20
189.060
30
0
0
SEQEND
8
ENGRAVE
0
POLYLINE
8
ENGRAVE
66
1
70
1
10
0
20
0
30
0
0
VERTEX
8
ENGRAVE
10
229.616
20
188.748
30
0
0
VERTEX
8
ENGRAVE
10
230.032
20
188.748
30
0
0
VERTEX
8
ENGRAVE
10
230.501
20
188.592
30
0
0
VERTEX
8
ENGRAVE
10
230.918
20
188.175
30
0
0
VERTEX
8
ENGRAVE
10
231.230
20
187.238
30
0
0
VERTEX
8
ENGRAVE
10
231.178
20
186.456
30
0
0
VERTEX
8
ENGRAVE
10
231.022
20
185.988
30
0
0
VERTEX
8
ENGRAVE
10
230.553
20
185.415
30
0
0
VERTEX
8
ENGRAVE
10
230.032
20
185.206
30
0
0
VERTEX
8
ENGRAVE
10
229.511
20
185.206
30
0
0
VERTEX
8
ENGRAVE
10
229.095
20
185.363
30
0
0
VERTEX
8
ENGRAVE
10
228.678
20
185.779
30
0
0
VERTEX
8
ENGRAVE
10
228.418
20
186.404
30
0
0
VERTEX
8
ENGRAVE
10
228.366
20
187.029
30
0
0
VERTEX
8
ENGRAVE
10
228.574
20
187.967
30
0
0
VERTEX
8
ENGRAVE
10
228.991
20
188.488
30
0
0
SEQEND
8
ENGRAVE
0
POLYLINE
8
ENGRAVE
66
1
70
1
10
0
20
0
30
0
0
VERTEX
8
ENGRAVE
10
223.105
20
188.696
30
0
0
VERTEX
8
ENGRAVE
10
225.189
20
188.696
30
0
0
VERTEX
8
ENGRAVE
10
225.189
20
188.331
30
0
0
VERTEX
8
ENGRAVE
10
223.522
20
188.331
30
0
0
VERTEX
8
ENGRAVE
10
223.522
20
187.238
30
0
0
VERTEX
8
ENGRAVE
10
224.928
20
187.238
30
0
0
VERTEX
8
ENGRAVE
10
224.928
20
186.873
30
0
0
VERTEX
8
ENGRAVE
10
223.522
20
186.873
30
0
0
VERTEX
8
ENGRAVE
10
223.522
20
185.258
30
0
0
VERTEX
8
ENGRAVE
10
223.105
20
185.258
30
0
0
SEQEND
8
ENGRAVE
0
POLYLINE
8
ENGRAVE
66
1
70
1
10
0
20
0
30
0
0
VERTEX
8
ENGRAVE
10
225.501
20
188.696
30
0
0
VERTEX
8
ENGRAVE
10
227.272
20
188.644
30
0
0
VERTEX
8
ENGRAVE
10
227.793
20
188.279
30
0
0
VERTEX
8
ENGRAVE
10
227.949
20
187.758
30
0
0
VERTEX
8
ENGRAVE
10
227.897
20
187.394
30
0
0
VERTEX
8
ENGRAVE
10
227.584
20
186.977
30
0
0
VERTEX
8
ENGRAVE
10
227.324
20
186.873
30
0
0
VERTEX
8
ENGRAVE
10
227.324
20
186.717
30
0
0
VERTEX
8
ENGRAVE
10
227.949
20
185.258
30
0
0
VERTEX
8
ENGRAVE
10
227.480
20
185.258
30
0
0
VERTEX
8
ENGRAVE
10
226.907
20
186.717
30
0
0
VERTEX
8
ENGRAVE
10
225.918
20
186.717
30
0
0
VERTEX
8
ENGRAVE
10
225.918
20
185.258
30
0
0
VERTEX
8
ENGRAVE
10
225.501
20
185.258
30
0
0
SEQEND
8
ENGRAVE
0
POLYLINE
8
ENGRAVE
66
1
70
1
10
0
20
0
30
0
0
VERTEX
8
ENGRAVE
10
231.907
20
188.696
30
0
0
VERTEX
8
ENGRAVE
10
232.480
20
188.644
30
0
0
VERTEX
8
ENGRAVE
10
233.991
20
185.935
30
0
0
VERTEX
8
ENGRAVE
10
234.043
20
188.696
30
0
0
VERTEX
8
ENGRAVE
10
234.407
20
188.696
30
0
0
VERTEX
8
ENGRAVE
10
234.407
20
185.258
30
0
0
VERTEX
8
ENGRAVE
10
233.939
20
185.310
30
0
0
VERTEX
8
ENGRAVE
10
232.689
20
187.550
30
0
0
VERTEX
8
ENGRAVE
10
232.428
20
187.863
30
0
0
VERTEX
8
ENGRAVE
10
232.324
20
188.175
30
0
0
VERTEX
8
ENGRAVE
10
232.272
20
185.258
30
0
0
VERTEX
8
ENGRAVE
10
231.907
20
185.258
30
0
0
SEQEND
8
ENGRAVE
0
POLYLINE
8
ENGRAVE
66
1
70
1
10
0
20
0
30
0
0
VERTEX
8
ENGRAVE
10
234.824
20
188.696
30
0
0
VERTEX
8
ENGRAVE
10
237.220
20
188.696
30
0
0
VERTEX
8
ENGRAVE
10
237.220
20
188.331
30
0
0
VERTEX
8
ENGRAVE
10
236.230
20
188.331
30
0
0
VERTEX
8
ENGRAVE
10
236.230
20
185.258
30
0
0
VERTEX
8
ENGRAVE
10
235.814
20
185.258
30
0
0
VERTEX
8
ENGRAVE
10
235.814
20
188.331
30
0
0
VERTEX
8
ENGRAVE
10
234.824
20
188.331
30
0
0
SEQEND
8
ENGRAVE
0
POLYLINE
8
ENGRAVE
66
1
70
1
10
0
20
0
30
0
0
VERTEX
8
ENGRAVE
10
229.668
20
188.383
30
0
0
VERTEX
8
ENGRAVE
10
229.355
20
188.279
30
0
0
VERTEX
8
ENGRAVE
10
228.939
20
187.706
30
0
0
VERTEX
8
ENGRAVE
10
228.834
20
186.613
30
0
0
VERTEX
8
ENGRAVE
10
229.043
20
185.988
30
0
0
VERTEX
8
ENGRAVE
10
229.407
20
185.623
30
0
0
VERTEX
8
ENGRAVE
10
230.084
20
185.571
30
0
0
VERTEX
8
ENGRAVE
10
230.501
20
185.883
30
0
0
VERTEX
8
ENGRAVE
10
230.657
20
186.196
30
0
0
VERTEX
8
ENGRAVE
10
230.761
20
187.290
30
0
0
VERTEX
8
ENGRAVE
10
230.657
20
187.758
30
0
0
VERTEX
8
ENGRAVE
10
230.449
20
188.123
30
0
0
VERTEX
8
ENGRAVE
10
230.136
20
188.331
30
0
0
SEQEND
8
ENGRAVE
0
POLYLINE
8
ENGRAVE
66
1
70
1
10
0
20
0
30
0
0
VERTEX
8
ENGRAVE
10
225.970
20
188.331
30
0
0
VERTEX
8
ENGRAVE
10
225.918
20
187.081
30
0
0
VERTEX
8
ENGRAVE
10
227.116
20
187.133
30
0
0
VERTEX
8
ENGRAVE
10
227.428
20
187.394
30
0
0
VERTEX
8
ENGRAVE
10
227.480
20
187.915
30
0
0
VERTEX
8
ENGRAVE
10
227.324
20
188.175
30
0
0
VERTEX
8
ENGRAVE
10
226.907
20
188.331
30
0
0
SEQEND
8
ENGRAVE
0
POLYLINE
8
ENGRAVE
66
1
70
1
10
0
20
0
30
0
0
VERTEX
8
ENGRAVE
10
220.084
20
187.915
30
0
0
VERTEX
8
ENGRAVE
10
220.449
20
187.915
30
0
0
VERTEX
8
ENGRAVE
10
220.449
20
185.154
30
0
0
VERTEX
8
ENGRAVE
10
220.241
20
184.738
30
0
0
VERTEX
8
ENGRAVE
10
219.616
20
184.633
30
0
0
VERTEX
8
ENGRAVE
10
219.511
20
185.050
30
0
0
VERTEX
8
ENGRAVE
10
219.928
20
184.998
30
0
0
VERTEX
8
ENGRAVE
10
220.084
20
185.102
30
0
0
SEQEND
8
ENGRAVE
0
POLYLINE
8
ENGRAVE
66
1
70
1
10
0
20
0
30
0
0
VERTEX
8
ENGRAVE
10
216.855
20
187.810
30
0
0
VERTEX
8
ENGRAVE
10
218.470
20
187.810
30
0
0
VERTEX
8
ENGRAVE
10
218.470
20
184.998
30
0
0
VERTEX
8
ENGRAVE
10
218.209
20
184.738
30
0
0
VERTEX
8
ENGRAVE
10
217.845
20
184.685
30
0
0
VERTEX
8
ENGRAVE
10
217.793
20
185.050
30
0
0
VERTEX
8
ENGRAVE
10
218.157
20
185.154
30
0
0
VERTEX
8
ENGRAVE
10
218.157
20
185.831
30
0
0
VERTEX
8
ENGRAVE
10
217.168
20
185.831
30
0
0
VERTEX
8
ENGRAVE
10
217.220
20
184.738
30
0
0
VERTEX
8
ENGRAVE
10
216.803
20
184.738
30
0
0
SEQEND
8
ENGRAVE
0
POLYLINE
8
ENGRAVE
66
1
70
1
10
0
20
0
30
0
0
VERTEX
8
ENGRAVE
10
217.220
20
187.550
30
0
0
VERTEX
8
ENGRAVE
10
217.168
20
186.977
30
0
0
VERTEX
8
ENGRAVE
10
218.157
20
186.977
30
0
0
VERTEX
8
ENGRAVE
10
218.157
20
187.550
30
0
0
SEQEND
8
ENGRAVE
0
POLYLINE
8
ENGRAVE
66
1
70
1
10
0
20
0
30
0
0
VERTEX
8
ENGRAVE
10
219.095
20
187.602
30
0
0
VERTEX
8
ENGRAVE
10
219.459
20
187.550
30
0
0
VERTEX
8
ENGRAVE
10
219.459
20
185.467
30
0
0
VERTEX
8
ENGRAVE
10
219.095
20
185.467
30
0
0
SEQEND
8
ENGRAVE
0
POLYLINE
8
ENGRAVE
66
1
70
1
10
0
20
0
30
0
0
VERTEX
8
ENGRAVE
10
217.220
20
186.717
30
0
0
VERTEX
8
ENGRAVE
10
217.168
20
186.144
30
0
0
VERTEX
8
ENGRAVE
10
218.157
20
186.144
30
0
0
VERTEX
8
ENGRAVE
10
218.157
20
186.717
30
0
0
SEQEND
8
ENGRAVE
0
POLYLINE
8
ENGRAVE
66
1
70
1
10
0
20
0
30
0
0
VERTEX
8
ENGRAVE
10
204.363
20
132.974
30
0
0
VERTEX
8
ENGRAVE
10
204.655
20
132.974
30
0
0
VERTEX
8
ENGRAVE
10
205.030
20
132.849
30
0
0
VERTEX
8
ENGRAVE
10
205.238
20
132.683
30
0
0
VERTEX
8
ENGRAVE
10
205.488
20
132.224
30
0
0
VERTEX
8
ENGRAVE
10
205.447
20
132.058
30
0
0
VERTEX
8
ENGRAVE
10
205.155
20
132.016
30
0
0
VERTEX
8
ENGRAVE
10
205.113
20
132.266
30
0
0
VERTEX
8
ENGRAVE
10
204.905
20
132.558
30
0
0
VERTEX
8
ENGRAVE
10
204.655
20
132.683
30
0
0
VERTEX
8
ENGRAVE
10
204.322
20
132.683
30
0
0
VERTEX
8
ENGRAVE
10
204.072
20
132.558
30
0
0
VERTEX
8
ENGRAVE
10
203.822
20
132.183
30
0
0
VERTEX
8
ENGRAVE
10
203.738
20
131.308
30
0
0
VERTEX
8
ENGRAVE
10
203.863
20
130.849
30
0
0
VERTEX
8
ENGRAVE
10
204.072
20
130.558
30
0
0
VERTEX
8
ENGRAVE
10
204.322
20
130.433
30
0
0
VERTEX
8
ENGRAVE
10
204.780
20
130.474
30
0
0
VERTEX
8
ENGRAVE
10
205.030
20
130.683
30
0
0
VERTEX
8
ENGRAVE
10
205.155
20
131.099
30
0
0
VERTEX
8
ENGRAVE
10
205.488
20
131.058
30
0
0
VERTEX
8
ENGRAVE
10
205.447
20
130.808
30
0
0
VERTEX
8
ENGRAVE
10
205.238
20
130.433
30
0
0
VERTEX
8
ENGRAVE
10
204.697
20
130.141
30
0
0
VERTEX
8
ENGRAVE
10
204.280
20
130.141
30
0
0
VERTEX
8
ENGRAVE
10
203.863
20
130.308
30
0
0
VERTEX
8
ENGRAVE
10
203.530
20
130.724
30
0
0
VERTEX
8
ENGRAVE
10
203.363
20
131.266
30
0
0
VERTEX
8
ENGRAVE
10
203.363
20
131.891
30
0
0
VERTEX
8
ENGRAVE
10
203.572
20
132.474
30
0
0
VERTEX
8
ENGRAVE
10
203.947
20
132.849
30
0
0
SEQEND
8
ENGRAVE
0
POLYLINE
8
ENGRAVE
66
1
70
1
10
0
20
0
30
0
0
VERTEX
8
ENGRAVE
10
206.863
20
132.933
30
0
0
VERTEX
8
ENGRAVE
10
207.155
20
132.891
30
0
0
VERTEX
8
ENGRAVE
10
207.155
20
130.433
30
0
0
VERTEX
8
ENGRAVE
10
207.905
20
130.433
30
0
0
VERTEX
8
ENGRAVE
10
207.905
20
130.183
30
0
0
VERTEX
8
ENGRAVE
10
205.988
20
130.183
30
0
0
VERTEX
8
ENGRAVE
10
205.988
20
130.433
30
0
0
VERTEX
8
ENGRAVE
10
206.780
20
130.433
30
0
0
VERTEX
8
ENGRAVE
10
206.780
20
132.474
30
0
0
VERTEX
8
ENGRAVE
10
206.113
20
131.933
30
0
0
VERTEX
8
ENGRAVE
10
206.030
20
131.933
30
0
0
VERTEX
8
ENGRAVE
10
206.030
20
132.266
30
0
0
VERTEX
8
ENGRAVE
10
206.488
20
132.516
30
0
0
SEQEND
8
ENGRAVE
0
POLYLINE
8
SCORE
66
1
70
1
10
0
20
0
30
0
0
VERTEX
8
SCORE
10
266.725
20
42.925
30
0
0
VERTEX
8
SCORE
10
254.725
20
42.925
30
0
0
VERTEX
8
SCORE
10
254.725
20
64.925
30
0
0
VERTEX
8
SCORE
10
266.725
20
64.925
30
0
0
SEQEND
8
SCORE
0
POLYLINE
8
SCORE
66
1
70
1
10
0
20
0
30
0
0
VERTEX
8
SCORE
10
253.225
20
43.425
30
0
0
VERTEX
8
SCORE
10
236.225
20
43.425
30
0
0
VERTEX
8
SCORE
10
236.225
20
65.425
30
0
0
VERTEX
8
SCORE
10
253.225
20
65.425
30
0
0
SEQEND
8
SCORE
0
POLYLINE
8
SCORE
66
1
70
1
10
0
20
0
30
0
0
VERTEX
8
SCORE
10
280.725
20
50.925
30
0
0
VERTEX
8
SCORE
10
269.725
20
50.925
30
0
0
VERTEX
8
SCORE
10
269.725
20
72.925
30
0
0
VERTEX
8
SCORE
10
280.725
20
72.925
30
0
0
SEQEND
8
SCORE
0
POLYLINE
8
SCORE
66
1
70
1
10
0
20
0
30
0
0
VERTEX
8
SCORE
10
246.225
20
85.425
30
0
0
VERTEX
8
SCORE
10
236.225
20
85.425
30
0
0
VERTEX
8
SCORE
10
236.225
20
105.425
30
0
0
VERTEX
8
SCORE
10
246.225
20
105.425
30
0
0
SEQEND
8
SCORE
0
POLYLINE
8
SCORE
66
1
70
1
10
0
20
0
30
0
0
VERTEX
8
SCORE
10
277.725
20
81.425
30
0
0
VERTEX
8
SCORE
10
247.725
20
81.425
30
0
0
VERTEX
8
SCORE
10
247.725
20
129.425
30
0
0
VERTEX
8
SCORE
10
277.725
20
129.425
30
0
0
SEQEND
8
SCORE
0
POLYLINE
8
ENGRAVE
66
1
70
1
10
0
20
0
30
0
0
VERTEX
8
ENGRAVE
10
33.077
20
50.724
30
0
0
VERTEX
8
ENGRAVE
10
33.369
20
50.724
30
0
0
VERTEX
8
ENGRAVE
10
33.744
20
50.599
30
0
0
VERTEX
8
ENGRAVE
10
33.952
20
50.432
30
0
0
VERTEX
8
ENGRAVE
10
34.202
20
49.974
30
0
0
VERTEX
8
ENGRAVE
10
34.160
20
49.807
30
0
0
VERTEX
8
ENGRAVE
10
33.869
20
49.766
30
0
0
VERTEX
8
ENGRAVE
10
33.827
20
50.016
30
0
0
VERTEX
8
ENGRAVE
10
33.619
20
50.307
30
0
0
VERTEX
8
ENGRAVE
10
33.369
20
50.432
30
0
0
VERTEX
8
ENGRAVE
10
33.035
20
50.432
30
0
0
VERTEX
8
ENGRAVE
10
32.785
20
50.307
30
0
0
VERTEX
8
ENGRAVE
10
32.535
20
49.932
30
0
0
VERTEX
8
ENGRAVE
10
32.452
20
49.057
30
0
0
VERTEX
8
ENGRAVE
10
32.577
20
48.599
30
0
0
VERTEX
8
ENGRAVE
10
32.785
20
48.307
30
0
0
VERTEX
8
ENGRAVE
10
33.035
20
48.182
30
0
0
VERTEX
8
ENGRAVE
10
33.494
20
48.224
30
0
0
VERTEX
8
ENGRAVE
10
33.744
20
48.432
30
0
0
VERTEX
8
ENGRAVE
10
33.869
20
48.849
30
0
0
VERTEX
8
ENGRAVE
10
34.202
20
48.807
30
0
0
VERTEX
8
ENGRAVE
10
34.160
20
48.557
30
0
0
VERTEX
8
ENGRAVE
10
33.952
20
48.182
30
0
0
VERTEX
8
ENGRAVE
10
33.410
20
47.891
30
0
0
VERTEX
8
ENGRAVE
10
32.994
20
47.891
30
0
0
VERTEX
8
ENGRAVE
10
32.577
20
48.057
30
0
0
VERTEX
8
ENGRAVE
10
32.244
20
48.474
30
0
0
VERTEX
8
ENGRAVE
10
32.077
20
49.016
30
0
0
VERTEX
8
ENGRAVE
10
32.077
20
49.641
30
0
0
VERTEX
8
ENGRAVE
10
32.285
20
50.224
30
0
0
VERTEX
8
ENGRAVE
10
32.660
20
50.599
30
0
0
SEQEND
8
ENGRAVE
0
POLYLINE
8
ENGRAVE
66
1
70
1
10
0
20
0
30
0
0
VERTEX
8
ENGRAVE
10
35.452
20
50.724
30
0
0
VERTEX
8
ENGRAVE
10
35.952
20
50.682
30
0
0
VERTEX
8
ENGRAVE
10
36.285
20
50.516
30
0
0
VERTEX
8
ENGRAVE
10
36.535
20
50.182
30
0
0
VERTEX
8
ENGRAVE
10
36.577
20
49.807
30
0
0
VERTEX
8
ENGRAVE
10
36.535
20
49.599
30
0
0
VERTEX
8
ENGRAVE
10
36.285
20
49.182
30
0
0
VERTEX
8
ENGRAVE
10
35.119
20
48.224
30
0
0
VERTEX
8
ENGRAVE
10
36.577
20
48.224
30
0
0
VERTEX
8
ENGRAVE
10
36.577
20
47.932
30
0
0
VERTEX
8
ENGRAVE
10
34.619
20
47.932
30
0
0
VERTEX
8
ENGRAVE
10
34.619
20
48.224
30
0
0
VERTEX
8
ENGRAVE
10
35.785
20
49.099
30
0
0
VERTEX
8
ENGRAVE
10
36.119
20
49.474
30
0
0
VERTEX
8
ENGRAVE
10
36.202
20
49.682
30
0
0
VERTEX
8
ENGRAVE
10
36.160
20
50.182
30
0
0
VERTEX
8
ENGRAVE
10
35.785
20
50.432
30
0
0
VERTEX
8
ENGRAVE
10
35.410
20
50.432
30
0
0
VERTEX
8
ENGRAVE
10
35.160
20
50.307
30
0
0
VERTEX
8
ENGRAVE
10
34.952
20
49.974
30
0
0
VERTEX
8
ENGRAVE
10
34.952
20
49.807
30
0
0
VERTEX
8
ENGRAVE
10
34.619
20
49.891
30
0
0
VERTEX
8
ENGRAVE
10
34.785
20
50.349
30
0
0
VERTEX
8
ENGRAVE
10
34.994
20
50.557
30
0
0
SEQEND
8
ENGRAVE
0
POLYLINE
8
ENGRAVE
66
1
70
1
10
0
20
0
30
0
0
VERTEX
8
ENGRAVE
10
225.642
20
31.504
30
0
0
VERTEX
8
ENGRAVE
10
225.642
20
31.796
30
0
0
VERTEX
8
ENGRAVE
10
225.767
20
32.171
30
0
0
VERTEX
8
ENGRAVE
10
225.933
20
32.379
30
0
0
VERTEX
8
ENGRAVE
10
226.392
20
32.629
30
0
0
VERTEX
8
ENGRAVE
10
226.558
20
32.587
30
0
0
VERTEX
8
ENGRAVE
10
226.600
20
32.296
30
0
0
VERTEX
8
ENGRAVE
10
226.350
20
32.254
30
0
0
VERTEX
8
ENGRAVE
10
226.058
20
32.046
30
0
0
VERTEX
8
ENGRAVE
10
225.933
20
31.796
30
0
0
VERTEX
8
ENGRAVE
10
225.933
20
31.462
30
0
0
VERTEX
8
ENGRAVE
10
226.058
20
31.212
30
0
0
VERTEX
8
ENGRAVE
10
226.433
20
30.962
30
0
0
VERTEX
8
ENGRAVE
10
227.308
20
30.879
30
0
0
VERTEX
8
ENGRAVE
10
227.767
20
31.004
30
0
0
VERTEX
8
ENGRAVE
10
228.058
20
31.212
30
0
0
VERTEX
8
ENGRAVE
10
228.183
20
31.462
30
0
0
VERTEX
8
ENGRAVE
10
228.142
20
31.921
30
0
0
VERTEX
8
ENGRAVE
10
227.933
20
32.171
30
0
0
VERTEX
8
ENGRAVE
10
227.517
20
32.296
30
0
0
VERTEX
8
ENGRAVE
10
227.558
20
32.629
30
0
0
VERTEX
8
ENGRAVE
10
227.808
20
32.587
30
0
0
VERTEX
8
ENGRAVE
10
228.183
20
32.379
30
0
0
VERTEX
8
ENGRAVE
10
228.475
20
31.837
30
0
0
VERTEX
8
ENGRAVE
10
228.475
20
31.421
30
0
0
VERTEX
8
ENGRAVE
10
228.308
20
31.004
30
0
0
VERTEX
8
ENGRAVE
10
227.892
20
30.671
30
0
0
VERTEX
8
ENGRAVE
10
227.350
20
30.504
30
0
0
VERTEX
8
ENGRAVE
10
226.725
20
30.504
30
0
0
VERTEX
8
ENGRAVE
10
226.142
20
30.712
30
0
0
VERTEX
8
ENGRAVE
10
225.767
20
31.087
30
0
0
SEQEND
8
ENGRAVE
0
POLYLINE
8
ENGRAVE
66
1
70
1
10
0
20
0
30
0
0
VERTEX
8
ENGRAVE
10
225.642
20
33.962
30
0
0
VERTEX
8
ENGRAVE
10
225.767
20
34.629
30
0
0
VERTEX
8
ENGRAVE
10
226.225
20
35.004
30
0
0
VERTEX
8
ENGRAVE
10
226.350
20
34.671
30
0
0
VERTEX
8
ENGRAVE
10
226.183
20
34.629
30
0
0
VERTEX
8
ENGRAVE
10
226.017
20
34.462
30
0
0
VERTEX
8
ENGRAVE
10
225.933
20
33.921
30
0
0
VERTEX
8
ENGRAVE
10
226.183
20
33.546
30
0
0
VERTEX
8
ENGRAVE
10
226.517
20
33.379
30
0
0
VERTEX
8
ENGRAVE
10
227.100
20
33.337
30
0
0
VERTEX
8
ENGRAVE
10
226.767
20
33.629
30
0
0
VERTEX
8
ENGRAVE
10
226.683
20
33.796
30
0
0
VERTEX
8
ENGRAVE
10
226.642
20
34.337
30
0
0
VERTEX
8
ENGRAVE
10
226.808
20
34.712
30
0
0
VERTEX
8
ENGRAVE
10
227.225
20
35.004
30
0
0
VERTEX
8
ENGRAVE
10
227.683
20
35.046
30
0
0
VERTEX
8
ENGRAVE
10
228.100
20
34.879
30
0
0
VERTEX
8
ENGRAVE
10
228.308
20
34.671
30
0
0
VERTEX
8
ENGRAVE
10
228.475
20
34.296
30
0
0
VERTEX
8
ENGRAVE
10
228.475
20
33.837
30
0
0
VERTEX
8
ENGRAVE
10
228.350
20
33.504
30
0
0
VERTEX
8
ENGRAVE
10
228.058
20
33.212
30
0
0
VERTEX
8
ENGRAVE
10
227.475
20
33.004
30
0
0
VERTEX
8
ENGRAVE
10
226.725
20
33.004
30
0
0
VERTEX
8
ENGRAVE
10
226.142
20
33.212
30
0
0
VERTEX
8
ENGRAVE
10
225.808
20
33.504
30
0
0
SEQEND
8
ENGRAVE
0
POLYLINE
8
ENGRAVE
66
1
70
1
10
0
20
0
30
0
0
VERTEX
8
ENGRAVE
10
226.933
20
33.921
30
0
0
VERTEX
8
ENGRAVE
10
227.017
20
33.671
30
0
0
VERTEX
8
ENGRAVE
10
227.183
20
33.504
30
0
0
VERTEX
8
ENGRAVE
10
227.475
20
33.379
30
0
0
VERTEX
8
ENGRAVE
10
227.808
20
33.421
30
0
0
VERTEX
8
ENGRAVE
10
228.183
20
33.837
30
0
0
VERTEX
8
ENGRAVE
10
228.183
20
34.254
30
0
0
VERTEX
8
ENGRAVE
10
227.975
20
34.587
30
0
0
VERTEX
8
ENGRAVE
10
227.683
20
34.712
30
0
0
VERTEX
8
ENGRAVE
10
227.392
20
34.712
30
0
0
VERTEX
8
ENGRAVE
10
227.017
20
34.462
30
0
0
VERTEX
8
ENGRAVE
10
226.933
20
34.296
30
0
0
SEQEND
8
ENGRAVE
0
POLYLINE
8
ENGRAVE
66
1
70
1
10
0
20
0
30
0
0
VERTEX
8
ENGRAVE
10
180.267
20
14.646
30
0
0
VERTEX
8
ENGRAVE
10
180.267
20
14.979
30
0
0
VERTEX
8
ENGRAVE
10
180.433
20
15.396
30
0
0
VERTEX
8
ENGRAVE
10
180.725
20
15.646
30
0
0
VERTEX
8
ENGRAVE
10
181.017
20
15.771
30
0
0
VERTEX
8
ENGRAVE
10
181.183
20
15.771
30
0
0
VERTEX
8
ENGRAVE
10
181.225
20
15.479
30
0
0
VERTEX
8
ENGRAVE
10
180.808
20
15.313
30
0
0
VERTEX
8
ENGRAVE
10
180.558
20
14.938
30
0
0
VERTEX
8
ENGRAVE
10
180.642
20
14.438
30
0
0
VERTEX
8
ENGRAVE
10
180.975
20
14.146
30
0
0
VERTEX
8
ENGRAVE
10
181.600
20
14.021
30
0
0
VERTEX
8
ENGRAVE
10
182.100
20
14.063
30
0
0
VERTEX
8
ENGRAVE
10
182.517
20
14.229
30
0
0
VERTEX
8
ENGRAVE
10
182.725
20
14.438
30
0
0
VERTEX
8
ENGRAVE
10
182.808
20
14.604
30
0
0
VERTEX
8
ENGRAVE
10
182.808
20
14.979
30
0
0
VERTEX
8
ENGRAVE
10
182.517
20
15.354
30
0
0
VERTEX
8
ENGRAVE
10
182.142
20
15.479
30
0
0
VERTEX
8
ENGRAVE
10
182.183
20
15.771
30
0
0
VERTEX
8
ENGRAVE
10
182.475
20
15.729
30
0
0
VERTEX
8
ENGRAVE
10
182.767
20
15.563
30
0
0
VERTEX
8
ENGRAVE
10
183.100
20
15.021
30
0
0
VERTEX
8
ENGRAVE
10
183.058
20
14.396
30
0
0
VERTEX
8
ENGRAVE
10
182.808
20
14.021
30
0
0
VERTEX
8
ENGRAVE
10
182.392
20
13.771
30
0
0
VERTEX
8
ENGRAVE
10
181.892
20
13.646
30
0
0
VERTEX
8
ENGRAVE
10
181.225
20
13.688
30
0
0
VERTEX
8
ENGRAVE
10
180.767
20
13.854
30
0
0
VERTEX
8
ENGRAVE
10
180.350
20
14.313
30
0
0
SEQEND
8
ENGRAVE
0
POLYLINE
8
ENGRAVE
66
1
70
1
10
0
20
0
30
0
0
VERTEX
8
ENGRAVE
10
180.267
20
19.396
30
0
0
VERTEX
8
ENGRAVE
10
180.308
20
19.979
30
0
0
VERTEX
8
ENGRAVE
10
180.433
20
20.229
30
0
0
VERTEX
8
ENGRAVE
10
180.600
20
20.396
30
0
0
VERTEX
8
ENGRAVE
10
180.933
20
20.521
30
0
0
VERTEX
8
ENGRAVE
10
181.392
20
20.396
30
0
0
VERTEX
8
ENGRAVE
10
181.642
20
19.979
30
0
0
VERTEX
8
ENGRAVE
10
181.642
20
20.146
30
0
0
VERTEX
8
ENGRAVE
10
181.850
20
20.479
30
0
0
VERTEX
8
ENGRAVE
10
182.100
20
20.604
30
0
0
VERTEX
8
ENGRAVE
10
182.600
20
20.563
30
0
0
VERTEX
8
ENGRAVE
10
182.933
20
20.271
30
0
0
VERTEX
8
ENGRAVE
10
183.100
20
19.771
30
0
0
VERTEX
8
ENGRAVE
10
183.058
20
19.146
30
0
0
VERTEX
8
ENGRAVE
10
182.850
20
18.771
30
0
0
VERTEX
8
ENGRAVE
10
182.475
20
18.521
30
0
0
VERTEX
8
ENGRAVE
10
182.392
20
18.563
30
0
0
VERTEX
8
ENGRAVE
10
182.350
20
18.854
30
0
0
VERTEX
8
ENGRAVE
10
182.558
20
18.938
30
0
0
VERTEX
8
ENGRAVE
10
182.808
20
19.271
30
0
0
VERTEX
8
ENGRAVE
10
182.767
20
19.979
30
0
0
VERTEX
8
ENGRAVE
10
182.475
20
20.229
30
0
0
VERTEX
8
ENGRAVE
10
182.100
20
20.229
30
0
0
VERTEX
8
ENGRAVE
10
181.892
20
20.063
30
0
0
VERTEX
8
ENGRAVE
10
181.767
20
19.688
30
0
0
VERTEX
8
ENGRAVE
10
181.767
20
19.188
30
0
0
VERTEX
8
ENGRAVE
10
181.475
20
19.229
30
0
0
VERTEX
8
ENGRAVE
10
181.475
20
19.813
30
0
0
VERTEX
8
ENGRAVE
10
181.267
20
20.104
30
0
0
VERTEX
8
ENGRAVE
10
180.850
20
20.146
30
0
0
VERTEX
8
ENGRAVE
10
180.642
20
19.979
30
0
0
VERTEX
8
ENGRAVE
10
180.558
20
19.813
30
0
0
VERTEX
8
ENGRAVE
10
180.558
20
19.354
30
0
0
VERTEX
8
ENGRAVE
10
180.683
20
19.104
30
0
0
VERTEX
8
ENGRAVE
10
180.975
20
18.938
30
0
0
VERTEX
8
ENGRAVE
10
180.933
20
18.646
30
0
0
VERTEX
8
ENGRAVE
10
180.725
20
18.688
30
0
0
VERTEX
8
ENGRAVE
10
180.475
20
18.896
30
0
0
SEQEND
8
ENGRAVE
0
POLYLINE
8
ENGRAVE
66
1
70
1
10
0
20
0
30
0
0
VERTEX
8
ENGRAVE
10
180.308
20
17.146
30
0
0
VERTEX
8
ENGRAVE
10
180.308
20
17.438
30
0
0
VERTEX
8
ENGRAVE
10
182.808
20
17.438
30
0
0
VERTEX
8
ENGRAVE
10
182.808
20
18.188
30
0
0
VERTEX
8
ENGRAVE
10
183.058
20
18.188
30
0
0
VERTEX
8
ENGRAVE
10
183.058
20
16.271
30
0
0
VERTEX
8
ENGRAVE
10
182.808
20
16.271
30
0
0
VERTEX
8
ENGRAVE
10
182.808
20
17.104
30
0
0
VERTEX
8
ENGRAVE
10
180.767
20
17.104
30
0
0
VERTEX
8
ENGRAVE
10
181.308
20
16.396
30
0
0
VERTEX
8
ENGRAVE
10
180.933
20
16.354
30
0
0
VERTEX
8
ENGRAVE
10
180.767
20
16.729
30
0
0
VERTEX
8
ENGRAVE
10
180.392
20
17.146
30
0
0
SEQEND
8
ENGRAVE
0
POLYLINE
8
ENGRAVE
66
1
70
1
10
0
20
0
30
0
0
VERTEX
8
ENGRAVE
10
205.818
20
17.354
30
0
0
VERTEX
8
ENGRAVE
10
205.818
20
17.646
30
0
0
VERTEX
8
ENGRAVE
10
205.943
20
18.021
30
0
0
VERTEX
8
ENGRAVE
10
206.110
20
18.229
30
0
0
VERTEX
8
ENGRAVE
10
206.568
20
18.479
30
0
0
VERTEX
8
ENGRAVE
10
206.735
20
18.438
30
0
0
VERTEX
8
ENGRAVE
10
206.776
20
18.146
30
0
0
VERTEX
8
ENGRAVE
10
206.526
20
18.104
30
0
0
VERTEX
8
ENGRAVE
10
206.235
20
17.896
30
0
0
VERTEX
8
ENGRAVE
10
206.110
20
17.646
30
0
0
VERTEX
8
ENGRAVE
10
206.110
20
17.313
30
0
0
VERTEX
8
ENGRAVE
10
206.235
20
17.063
30
0
0
VERTEX
8
ENGRAVE
10
206.610
20
16.813
30
0
0
VERTEX
8
ENGRAVE
10
207.485
20
16.729
30
0
0
VERTEX
8
ENGRAVE
10
207.943
20
16.854
30
0
0
VERTEX
8
ENGRAVE
10
208.235
20
17.063
30
0
0
VERTEX
8
ENGRAVE
10
208.360
20
17.313
30
0
0
VERTEX
8
ENGRAVE
10
208.318
20
17.771
30
0
0
VERTEX
8
ENGRAVE
10
208.110
20
18.021
30
0
0
VERTEX
8
ENGRAVE
10
207.693
20
18.146
30
0
0
VERTEX
8
ENGRAVE
10
207.735
20
18.479
30
0
0
VERTEX
8
ENGRAVE
10
207.985
20
18.438
30
0
0
VERTEX
8
ENGRAVE
10
208.360
20
18.229
30
0
0
VERTEX
8
ENGRAVE
10
208.651
20
17.688
30
0
0
VERTEX
8
ENGRAVE
10
208.651
20
17.271
30
0
0
VERTEX
8
ENGRAVE
10
208.485
20
16.854
30
0
0
VERTEX
8
ENGRAVE
10
208.068
20
16.521
30
0
0
VERTEX
8
ENGRAVE
10
207.526
20
16.354
30
0
0
VERTEX
8
ENGRAVE
10
206.901
20
16.354
30
0
0
VERTEX
8
ENGRAVE
10
206.318
20
16.563
30
0
0
VERTEX
8
ENGRAVE
10
205.943
20
16.938
30
0
0
SEQEND
8
ENGRAVE
0
POLYLINE
8
ENGRAVE
66
1
70
1
10
0
20
0
30
0
0
VERTEX
8
ENGRAVE
10
205.860
20
18.979
30
0
0
VERTEX
8
ENGRAVE
10
205.901
20
20.813
30
0
0
VERTEX
8
ENGRAVE
10
206.151
20
20.771
30
0
0
VERTEX
8
ENGRAVE
10
206.651
20
20.354
30
0
0
VERTEX
8
ENGRAVE
10
207.235
20
20.063
30
0
0
VERTEX
8
ENGRAVE
10
207.985
20
19.854
30
0
0
VERTEX
8
ENGRAVE
10
208.610
20
19.813
30
0
0
VERTEX
8
ENGRAVE
10
208.610
20
19.479
30
0
0
VERTEX
8
ENGRAVE
10
207.901
20
19.521
30
0
0
VERTEX
8
ENGRAVE
10
207.235
20
19.729
30
0
0
VERTEX
8
ENGRAVE
10
206.151
20
20.396
30
0
0
VERTEX
8
ENGRAVE
10
206.151
20
18.938
30
0
0
SEQEND
8
ENGRAVE
0
POLYLINE
8
ENGRAVE
66
1
70
1
10
0
20
0
30
0
0
VERTEX
8
ENGRAVE
10
284.167
20
21.278
30
0
0
VERTEX
8
ENGRAVE
10
284.320
20
21.278
30
0
0
VERTEX
8
ENGRAVE
10
284.517
20
21.212
30
0
0
VERTEX
8
ENGRAVE
10
284.626
20
21.125
30
0
0
VERTEX
8
ENGRAVE
10
284.757
20
20.884
30
0
0
VERTEX
8
ENGRAVE
10
284.736
20
20.797
30
0
0
VERTEX
8
ENGRAVE
10
284.582
20
20.775
30
0
0
VERTEX
8
ENGRAVE
10
284.561
20
20.906
30
0
0
VERTEX
8
ENGRAVE
10
284.451
20
21.059
30
0
0
VERTEX
8
ENGRAVE
10
284.320
20
21.125
30
0
0
VERTEX
8
ENGRAVE
10
284.145
20
21.125
30
0
0
VERTEX
8
ENGRAVE
10
284.014
20
21.059
30
0
0
VERTEX
8
ENGRAVE
10
283.882
20
20.862
30
0
0
VERTEX
8
ENGRAVE
10
283.839
20
20.403
30
0
0
VERTEX
8
ENGRAVE
10
283.904
20
20.162
30
0
0
VERTEX
8
ENGRAVE
10
284.014
20
20.009
30
0
0
VERTEX
8
ENGRAVE
10
284.145
20
19.944
30
0
0
VERTEX
8
ENGRAVE
10
284.386
20
19.965
30
0
0
VERTEX
8
ENGRAVE
10
284.517
20
20.075
30
0
0
VERTEX
8
ENGRAVE
10
284.582
20
20.294
30
0
0
VERTEX
8
ENGRAVE
10
284.757
20
20.272
30
0
0
VERTEX
8
ENGRAVE
10
284.736
20
20.140
30
0
0
VERTEX
8
ENGRAVE
10
284.626
20
19.944
30
0
0
VERTEX
8
ENGRAVE
10
284.342
20
19.790
30
0
0
VERTEX
8
ENGRAVE
10
284.123
20
19.790
30
0
0
VERTEX
8
ENGRAVE
10
283.904
20
19.878
30
0
0
VERTEX
8
ENGRAVE
10
283.729
20
20.097
30
0
0
VERTEX
8
ENGRAVE
10
283.642
20
20.381
30
0
0
VERTEX
8
ENGRAVE
10
283.642
20
20.709
30
0
0
VERTEX
8
ENGRAVE
10
283.751
20
21.015
30
0
0
VERTEX
8
ENGRAVE
10
283.948
20
21.212
30
0
0
SEQEND
8
ENGRAVE
0
POLYLINE
8
ENGRAVE
66
1
70
1
10
0
20
0
30
0
0
VERTEX
8
ENGRAVE
10
285.414
20
21.278
30
0
0
VERTEX
8
ENGRAVE
10
285.720
20
21.256
30
0
0
VERTEX
8
ENGRAVE
10
285.873
20
21.169
30
0
0
VERTEX
8
ENGRAVE
10
285.982
20
20.994
30
0
0
VERTEX
8
ENGRAVE
10
285.939
20
20.731
30
0
0
VERTEX
8
ENGRAVE
10
285.720
20
20.578
30
0
0
VERTEX
8
ENGRAVE
10
285.982
20
20.403
30
0
0
VERTEX
8
ENGRAVE
10
286.048
20
20.250
30
0
0
VERTEX
8
ENGRAVE
10
286.026
20
20.053
30
0
0
VERTEX
8
ENGRAVE
10
285.917
20
19.900
30
0
0
VERTEX
8
ENGRAVE
10
285.611
20
19.790
30
0
0
VERTEX
8
ENGRAVE
10
285.348
20
19.790
30
0
0
VERTEX
8
ENGRAVE
10
285.195
20
19.834
30
0
0
VERTEX
8
ENGRAVE
10
285.042
20
19.922
30
0
0
VERTEX
8
ENGRAVE
10
284.932
20
20.075
30
0
0
VERTEX
8
ENGRAVE
10
284.932
20
20.272
30
0
0
VERTEX
8
ENGRAVE
10
284.998
20
20.403
30
0
0
VERTEX
8
ENGRAVE
10
285.129
20
20.512
30
0
0
VERTEX
8
ENGRAVE
10
285.261
20
20.556
30
0
0
VERTEX
8
ENGRAVE
10
285.064
20
20.687
30
0
0
VERTEX
8
ENGRAVE
10
284.998
20
20.840
30
0
0
VERTEX
8
ENGRAVE
10
285.020
20
21.037
30
0
0
VERTEX
8
ENGRAVE
10
285.151
20
21.190
30
0
0
SEQEND
8
ENGRAVE
0
POLYLINE
8
ENGRAVE
66
1
70
1
10
0
20
0
30
0
0
VERTEX
8
ENGRAVE
10
285.457
20
21.147
30
0
0
VERTEX
8
ENGRAVE
10
285.282
20
21.103
30
0
0
VERTEX
8
ENGRAVE
10
285.217
20
21.037
30
0
0
VERTEX
8
ENGRAVE
10
285.195
20
20.819
30
0
0
VERTEX
8
ENGRAVE
10
285.282
20
20.731
30
0
0
VERTEX
8
ENGRAVE
10
285.501
20
20.644
30
0
0
VERTEX
8
ENGRAVE
10
285.720
20
20.731
30
0
0
VERTEX
8
ENGRAVE
10
285.807
20
20.819
30
0
0
VERTEX
8
ENGRAVE
10
285.829
20
20.928
30
0
0
VERTEX
8
ENGRAVE
10
285.807
20
21.015
30
0
0
VERTEX
8
ENGRAVE
10
285.720
20
21.103
30
0
0
SEQEND
8
ENGRAVE
0
POLYLINE
8
ENGRAVE
66
1
70
1
10
0
20
0
30
0
0
VERTEX
8
ENGRAVE
10
285.479
20
20.490
30
0
0
VERTEX
8
ENGRAVE
10
285.173
20
20.359
30
0
0
VERTEX
8
ENGRAVE
10
285.107
20
20.250
30
0
0
VERTEX
8
ENGRAVE
10
285.107
20
20.119
30
0
0
VERTEX
8
ENGRAVE
10
285.173
20
20.009
30
0
0
VERTEX
8
ENGRAVE
10
285.304
20
19.944
30
0
0
VERTEX
8
ENGRAVE
10
285.676
20
19.944
30
0
0
VERTEX
8
ENGRAVE
10
285.851
20
20.075
30
0
0
VERTEX
8
ENGRAVE
10
285.851
20
20.272
30
0
0
VERTEX
8
ENGRAVE
10
285.742
20
20.381
30
0
0
SEQEND
8
ENGRAVE
0
POLYLINE
8
ENGRAVE
66
1
70
1
10
0
20
0
30
0
0
VERTEX
8
ENGRAVE
10
286.681
20
9.582
30
0
0
VERTEX
8
ENGRAVE
10
286.681
20
9.736
30
0
0
VERTEX
8
ENGRAVE
10
286.747
20
9.932
30
0
0
VERTEX
8
ENGRAVE
10
286.834
20
10.042
30
0
0
VERTEX
8
ENGRAVE
10
287.075
20
10.173
30
0
0
VERTEX
8
ENGRAVE
10
287.162
20
10.151
30
0
0
VERTEX
8
ENGRAVE
10
287.184
20
9.998
30
0
0
VERTEX
8
ENGRAVE
10
287.053
20
9.976
30
0
0
VERTEX
8
ENGRAVE
10
286.900
20
9.867
30
0
0
VERTEX
8
ENGRAVE
10
286.834
20
9.736
30
0
0
VERTEX
8
ENGRAVE
10
286.834
20
9.561
30
0
0
VERTEX
8
ENGRAVE
10
286.900
20
9.429
30
0
0
VERTEX
8
ENGRAVE
10
287.097
20
9.298
30
0
0
VERTEX
8
ENGRAVE
10
287.556
20
9.254
30
0
0
VERTEX
8
ENGRAVE
10
287.797
20
9.320
30
0
0
VERTEX
8
ENGRAVE
10
287.950
20
9.429
30
0
0
VERTEX
8
ENGRAVE
10
288.015
20
9.561
30
0
0
VERTEX
8
ENGRAVE
10
287.994
20
9.801
30
0
0
VERTEX
8
ENGRAVE
10
287.884
20
9.932
30
0
0
VERTEX
8
ENGRAVE
10
287.665
20
9.998
30
0
0
VERTEX
8
ENGRAVE
10
287.687
20
10.173
30
0
0
VERTEX
8
ENGRAVE
10
287.819
20
10.151
30
0
0
VERTEX
8
ENGRAVE
10
288.015
20
10.042
30
0
0
VERTEX
8
ENGRAVE
10
288.169
20
9.757
30
0
0
VERTEX
8
ENGRAVE
10
288.169
20
9.539
30
0
0
VERTEX
8
ENGRAVE
10
288.081
20
9.320
30
0
0
VERTEX
8
ENGRAVE
10
287.862
20
9.145
30
0
0
VERTEX
8
ENGRAVE
10
287.578
20
9.057
30
0
0
VERTEX
8
ENGRAVE
10
287.250
20
9.057
30
0
0
VERTEX
8
ENGRAVE
10
286.944
20
9.167
30
0
0
VERTEX
8
ENGRAVE
10
286.747
20
9.364
30
0
0
SEQEND
8
ENGRAVE
0
POLYLINE
8
ENGRAVE
66
1
70
1
10
0
20
0
30
0
0
VERTEX
8
ENGRAVE
10
286.681
20
10.764
30
0
0
VERTEX
8
ENGRAVE
10
286.681
20
10.961
30
0
0
VERTEX
8
ENGRAVE
10
286.769
20
11.201
30
0
0
VERTEX
8
ENGRAVE
10
286.878
20
11.311
30
0
0
VERTEX
8
ENGRAVE
10
287.053
20
11.398
30
0
0
VERTEX
8
ENGRAVE
10
287.315
20
11.442
30
0
0
VERTEX
8
ENGRAVE
10
287.644
20
11.420
30
0
0
VERTEX
8
ENGRAVE
10
287.928
20
11.311
30
0
0
VERTEX
8
ENGRAVE
10
288.103
20
11.136
30
0
0
VERTEX
8
ENGRAVE
10
288.169
20
10.939
30
0
0
VERTEX
8
ENGRAVE
10
288.147
20
10.654
30
0
0
VERTEX
8
ENGRAVE
10
288.059
20
10.501
30
0
0
VERTEX
8
ENGRAVE
10
287.928
20
10.414
30
0
0
VERTEX
8
ENGRAVE
10
287.862
20
10.414
30
0
0
VERTEX
8
ENGRAVE
10
287.840
20
10.567
30
0
0
VERTEX
8
ENGRAVE
10
287.928
20
10.589
30
0
0
VERTEX
8
ENGRAVE
10
288.015
20
10.720
30
0
0
VERTEX
8
ENGRAVE
10
288.015
20
10.982
30
0
0
VERTEX
8
ENGRAVE
10
287.884
20
11.157
30
0
0
VERTEX
8
ENGRAVE
10
287.665
20
11.245
30
0
0
VERTEX
8
ENGRAVE
10
287.403
20
11.267
30
0
0
VERTEX
8
ENGRAVE
10
287.578
20
11.114
30
0
0
VERTEX
8
ENGRAVE
10
287.622
20
11.026
30
0
0
VERTEX
8
ENGRAVE
10
287.644
20
10.742
30
0
0
VERTEX
8
ENGRAVE
10
287.578
20
10.567
30
0
0
VERTEX
8
ENGRAVE
10
287.359
20
10.392
30
0
0
VERTEX
8
ENGRAVE
10
287.053
20
10.370
30
0
0
VERTEX
8
ENGRAVE
10
286.900
20
10.436
30
0
0
VERTEX
8
ENGRAVE
10
286.725
20
10.632
30
0
0
SEQEND
8
ENGRAVE
0
POLYLINE
8
ENGRAVE
66
1
70
1
10
0
20
0
30
0
0
VERTEX
8
ENGRAVE
10
286.834
20
10.829
30
0
0
VERTEX
8
ENGRAVE
10
286.965
20
10.589
30
0
0
VERTEX
8
ENGRAVE
10
287.075
20
10.545
30
0
0
VERTEX
8
ENGRAVE
10
287.272
20
10.545
30
0
0
VERTEX
8
ENGRAVE
10
287.403
20
10.611
30
0
0
VERTEX
8
ENGRAVE
10
287.490
20
10.764
30
0
0
VERTEX
8
ENGRAVE
10
287.490
20
11.004
30
0
0
VERTEX
8
ENGRAVE
10
287.315
20
11.201
30
0
0
VERTEX
8
ENGRAVE
10
287.053
20
11.223
30
0
0
VERTEX
8
ENGRAVE
10
286.878
20
11.092
30
0
0
SEQEND
8
ENGRAVE
0
POLYLINE
8
ENGRAVE
66
1
70
1
10
0
20
0
30
0
0
VERTEX
8
ENGRAVE
10
223.898
20
8.019
30
0
0
VERTEX
8
ENGRAVE
10
223.898
20
8.194
30
0
0
VERTEX
8
ENGRAVE
10
223.985
20
8.412
30
0
0
VERTEX
8
ENGRAVE
10
224.138
20
8.544
30
0
0
VERTEX
8
ENGRAVE
10
224.291
20
8.609
30
0
0
VERTEX
8
ENGRAVE
10
224.379
20
8.609
30
0
0
VERTEX
8
ENGRAVE
10
224.401
20
8.456
30
0
0
VERTEX
8
ENGRAVE
10
224.182
20
8.369
30
0
0
VERTEX
8
ENGRAVE
10
224.051
20
8.172
30
0
0
VERTEX
8
ENGRAVE
10
224.094
20
7.909
30
0
0
VERTEX
8
ENGRAVE
10
224.269
20
7.756
30
0
0
VERTEX
8
ENGRAVE
10
224.598
20
7.691
30
0
0
VERTEX
8
ENGRAVE
10
224.860
20
7.712
30
0
0
VERTEX
8
ENGRAVE
10
225.079
20
7.800
30
0
0
VERTEX
8
ENGRAVE
10
225.188
20
7.909
30
0
0
VERTEX
8
ENGRAVE
10
225.232
20
7.997
30
0
0
VERTEX
8
ENGRAVE
10
225.232
20
8.194
30
0
0
VERTEX
8
ENGRAVE
10
225.079
20
8.391
30
0
0
VERTEX
8
ENGRAVE
10
224.882
20
8.456
30
0
0
VERTEX
8
ENGRAVE
10
224.904
20
8.609
30
0
0
VERTEX
8
ENGRAVE
10
225.057
20
8.587
30
0
0
VERTEX
8
ENGRAVE
10
225.210
20
8.500
30
0
0
VERTEX
8
ENGRAVE
10
225.385
20
8.216
30
0
0
VERTEX
8
ENGRAVE
10
225.363
20
7.887
30
0
0
VERTEX
8
ENGRAVE
10
225.232
20
7.691
30
0
0
VERTEX
8
ENGRAVE
10
225.013
20
7.559
30
0
0
VERTEX
8
ENGRAVE
10
224.751
20
7.494
30
0
0
VERTEX
8
ENGRAVE
10
224.401
20
7.516
30
0
0
VERTEX
8
ENGRAVE
10
224.160
20
7.603
30
0
0
VERTEX
8
ENGRAVE
10
223.941
20
7.844
30
0
0
SEQEND
8
ENGRAVE
0
POLYLINE
8
ENGRAVE
66
1
70
1
10
0
20
0
30
0
0
VERTEX
8
ENGRAVE
10
223.898
20
10.512
30
0
0
VERTEX
8
ENGRAVE
10
223.898
20
10.666
30
0
0
VERTEX
8
ENGRAVE
10
223.963
20
10.862
30
0
0
VERTEX
8
ENGRAVE
10
224.116
20
11.016
30
0
0
VERTEX
8
ENGRAVE
10
224.488
20
11.147
30
0
0
VERTEX
8
ENGRAVE
10
224.816
20
11.147
30
0
0
VERTEX
8
ENGRAVE
10
225.166
20
11.016
30
0
0
VERTEX
8
ENGRAVE
10
225.319
20
10.862
30
0
0
VERTEX
8
ENGRAVE
10
225.385
20
10.687
30
0
0
VERTEX
8
ENGRAVE
10
225.385
20
10.512
30
0
0
VERTEX
8
ENGRAVE
10
225.319
20
10.337
30
0
0
VERTEX
8
ENGRAVE
10
225.166
20
10.184
30
0
0
VERTEX
8
ENGRAVE
10
224.794
20
10.053
30
0
0
VERTEX
8
ENGRAVE
10
224.488
20
10.053
30
0
0
VERTEX
8
ENGRAVE
10
224.226
20
10.119
30
0
0
VERTEX
8
ENGRAVE
10
224.007
20
10.272
30
0
0
SEQEND
8
ENGRAVE
0
POLYLINE
8
ENGRAVE
66
1
70
1
10
0
20
0
30
0
0
VERTEX
8
ENGRAVE
10
223.919
20
9.331
30
0
0
VERTEX
8
ENGRAVE
10
223.919
20
9.484
30
0
0
VERTEX
8
ENGRAVE
10
225.232
20
9.484
30
0
0
VERTEX
8
ENGRAVE
10
225.232
20
9.878
30
0
0
VERTEX
8
ENGRAVE
10
225.363
20
9.878
30
0
0
VERTEX
8
ENGRAVE
10
225.363
20
8.872
30
0
0
VERTEX
8
ENGRAVE
10
225.232
20
8.872
30
0
0
VERTEX
8
ENGRAVE
10
225.232
20
9.309
30
0
0
VERTEX
8
ENGRAVE
10
224.160
20
9.309
30
0
0
VERTEX
8
ENGRAVE
10
224.444
20
8.937
30
0
0
VERTEX
8
ENGRAVE
10
224.248
20
8.916
30
0
0
VERTEX
8
ENGRAVE
10
224.160
20
9.112
30
0
0
VERTEX
8
ENGRAVE
10
223.963
20
9.331
30
0
0
SEQEND
8
ENGRAVE
0
POLYLINE
8
ENGRAVE
66
1
70
1
10
0
20
0
30
0
0
VERTEX
8
ENGRAVE
10
224.051
20
10.491
30
0
0
VERTEX
8
ENGRAVE
10
224.160
20
10.337
30
0
0
VERTEX
8
ENGRAVE
10
224.313
20
10.272
30
0
0
VERTEX
8
ENGRAVE
10
224.860
20
10.250
30
0
0
VERTEX
8
ENGRAVE
10
225.166
20
10.381
30
0
0
VERTEX
8
ENGRAVE
10
225.232
20
10.469
30
0
0
VERTEX
8
ENGRAVE
10
225.254
20
10.622
30
0
0
VERTEX
8
ENGRAVE
10
225.188
20
10.797
30
0
0
VERTEX
8
ENGRAVE
10
225.035
20
10.906
30
0
0
VERTEX
8
ENGRAVE
10
224.882
20
10.950
30
0
0
VERTEX
8
ENGRAVE
10
224.423
20
10.950
30
0
0
VERTEX
8
ENGRAVE
10
224.182
20
10.862
30
0
0
VERTEX
8
ENGRAVE
10
224.073
20
10.753
30
0
0
SEQEND
8
ENGRAVE
0
POLYLINE
8
ENGRAVE
66
1
70
1
10
0
20
0
30
0
0
VERTEX
8
ENGRAVE
10
236.773
20
8.019
30
0
0
VERTEX
8
ENGRAVE
10
236.773
20
8.194
30
0
0
VERTEX
8
ENGRAVE
10
236.860
20
8.412
30
0
0
VERTEX
8
ENGRAVE
10
237.014
20
8.544
30
0
0
VERTEX
8
ENGRAVE
10
237.167
20
8.609
30
0
0
VERTEX
8
ENGRAVE
10
237.254
20
8.609
30
0
0
VERTEX
8
ENGRAVE
10
237.276
20
8.456
30
0
0
VERTEX
8
ENGRAVE
10
237.057
20
8.369
30
0
0
VERTEX
8
ENGRAVE
10
236.926
20
8.172
30
0
0
VERTEX
8
ENGRAVE
10
236.970
20
7.909
30
0
0
VERTEX
8
ENGRAVE
10
237.145
20
7.756
30
0
0
VERTEX
8
ENGRAVE
10
237.473
20
7.691
30
0
0
VERTEX
8
ENGRAVE
10
237.735
20
7.712
30
0
0
VERTEX
8
ENGRAVE
10
237.954
20
7.800
30
0
0
VERTEX
8
ENGRAVE
10
238.064
20
7.909
30
0
0
VERTEX
8
ENGRAVE
10
238.107
20
7.997
30
0
0
VERTEX
8
ENGRAVE
10
238.107
20
8.194
30
0
0
VERTEX
8
ENGRAVE
10
237.954
20
8.391
30
0
0
VERTEX
8
ENGRAVE
10
237.757
20
8.456
30
0
0
VERTEX
8
ENGRAVE
10
237.779
20
8.609
30
0
0
VERTEX
8
ENGRAVE
10
237.932
20
8.587
30
0
0
VERTEX
8
ENGRAVE
10
238.085
20
8.500
30
0
0
VERTEX
8
ENGRAVE
10
238.260
20
8.216
30
0
0
VERTEX
8
ENGRAVE
10
238.239
20
7.887
30
0
0
VERTEX
8
ENGRAVE
10
238.107
20
7.691
30
0
0
VERTEX
8
ENGRAVE
10
237.889
20
7.559
30
0
0
VERTEX
8
ENGRAVE
10
237.626
20
7.494
30
0
0
VERTEX
8
ENGRAVE
10
237.276
20
7.516
30
0
0
VERTEX
8
ENGRAVE
10
237.035
20
7.603
30
0
0
VERTEX
8
ENGRAVE
10
236.817
20
7.844
30
0
0
SEQEND
8
ENGRAVE
0
POLYLINE
8
ENGRAVE
66
1
70
1
10
0
20
0
30
0
0
VERTEX
8
ENGRAVE
10
236.795
20
9.331
30
0
0
VERTEX
8
ENGRAVE
10
236.795
20
9.484
30
0
0
VERTEX
8
ENGRAVE
10
238.107
20
9.484
30
0
0
VERTEX
8
ENGRAVE
10
238.107
20
9.878
30
0
0
VERTEX
8
ENGRAVE
10
238.239
20
9.878
30
0
0
VERTEX
8
ENGRAVE
10
238.239
20
8.872
30
0
0
VERTEX
8
ENGRAVE
10
238.107
20
8.872
30
0
0
VERTEX
8
ENGRAVE
10
238.107
20
9.309
30
0
0
VERTEX
8
ENGRAVE
10
237.035
20
9.309
30
0
0
VERTEX
8
ENGRAVE
10
237.320
20
8.937
30
0
0
VERTEX
8
ENGRAVE
10
237.123
20
8.916
30
0
0
VERTEX
8
ENGRAVE
10
237.035
20
9.112
30
0
0
VERTEX
8
ENGRAVE
10
236.839
20
9.331
30
0
0
SEQEND
8
ENGRAVE
0
POLYLINE
8
ENGRAVE
66
1
70
1
10
0
20
0
30
0
0
VERTEX
8
ENGRAVE
10
236.795
20
10.600
30
0
0
VERTEX
8
ENGRAVE
10
236.795
20
10.731
30
0
0
VERTEX
8
ENGRAVE
10
238.107
20
10.731
30
0
0
VERTEX
8
ENGRAVE
10
238.107
20
11.147
30
0
0
VERTEX
8
ENGRAVE
10
238.239
20
11.147
30
0
0
VERTEX
8
ENGRAVE
10
238.239
20
10.141
30
0
0
VERTEX
8
ENGRAVE
10
238.107
20
10.141
30
0
0
VERTEX
8
ENGRAVE
10
238.107
20
10.556
30
0
0
VERTEX
8
ENGRAVE
10
237.035
20
10.556
30
0
0
VERTEX
8
ENGRAVE
10
237.320
20
10.206
30
0
0
VERTEX
8
ENGRAVE
10
237.320
20
10.162
30
0
0
VERTEX
8
ENGRAVE
10
237.145
20
10.162
30
0
0
VERTEX
8
ENGRAVE
10
236.992
20
10.425
30
0
0
SEQEND
8
ENGRAVE
0
POLYLINE
8
ENGRAVE
66
1
70
1
10
0
20
0
30
0
0
VERTEX
8
ENGRAVE
10
248.239
20
8.172
30
0
0
VERTEX
8
ENGRAVE
10
248.239
20
8.391
30
0
0
VERTEX
8
ENGRAVE
10
248.283
20
8.434
30
0
0
VERTEX
8
ENGRAVE
10
249.377
20
9.047
30
0
0
VERTEX
8
ENGRAVE
10
248.239
20
9.069
30
0
0
VERTEX
8
ENGRAVE
10
248.239
20
9.222
30
0
0
VERTEX
8
ENGRAVE
10
249.683
20
9.222
30
0
0
VERTEX
8
ENGRAVE
10
249.661
20
9.025
30
0
0
VERTEX
8
ENGRAVE
10
248.458
20
8.347
30
0
0
VERTEX
8
ENGRAVE
10
249.683
20
8.325
30
0
0
VERTEX
8
ENGRAVE
10
249.683
20
8.172
30
0
0
SEQEND
8
ENGRAVE
0
POLYLINE
8
ENGRAVE
66
1
70
1
10
0
20
0
30
0
0
VERTEX
8
ENGRAVE
10
248.239
20
10.097
30
0
0
VERTEX
8
ENGRAVE
10
248.239
20
10.337
30
0
0
VERTEX
8
ENGRAVE
10
249.202
20
10.337
30
0
0
VERTEX
8
ENGRAVE
10
249.202
20
10.578
30
0
0
VERTEX
8
ENGRAVE
10
249.355
20
10.578
30
0
0
VERTEX
8
ENGRAVE
10
249.355
20
10.337
30
0
0
VERTEX
8
ENGRAVE
10
249.683
20
10.337
30
0
0
VERTEX
8
ENGRAVE
10
249.683
20
10.162
30
0
0
VERTEX
8
ENGRAVE
10
249.355
20
10.162
30
0
0
VERTEX
8
ENGRAVE
10
249.333
20
9.441
30
0
0
VERTEX
8
ENGRAVE
10
249.224
20
9.441
30
0
0
SEQEND
8
ENGRAVE
0
POLYLINE
8
ENGRAVE
66
1
70
1
10
0
20
0
30
0
0
VERTEX
8
ENGRAVE
10
248.392
20
10.162
30
0
0
VERTEX
8
ENGRAVE
10
249.114
20
9.681
30
0
0
VERTEX
8
ENGRAVE
10
249.202
20
9.659
30
0
0
VERTEX
8
ENGRAVE
10
249.202
20
10.162
30
0
0
SEQEND
8
ENGRAVE
0
POLYLINE
8
ENGRAVE
66
1
70
1
10
0
20
0
30
0
0
VERTEX
8
ENGRAVE
10
259.889
20
8.172
30
0
0
VERTEX
8
ENGRAVE
10
259.889
20
8.391
30
0
0
VERTEX
8
ENGRAVE
10
259.933
20
8.434
30
0
0
VERTEX
8
ENGRAVE
10
261.027
20
9.047
30
0
0
VERTEX
8
ENGRAVE
10
259.889
20
9.069
30
0
0
VERTEX
8
ENGRAVE
10
259.889
20
9.222
30
0
0
VERTEX
8
ENGRAVE
10
261.333
20
9.222
30
0
0
VERTEX
8
ENGRAVE
10
261.311
20
9.025
30
0
0
VERTEX
8
ENGRAVE
10
260.108
20
8.347
30
0
0
VERTEX
8
ENGRAVE
10
261.333
20
8.325
30
0
0
VERTEX
8
ENGRAVE
10
261.333
20
8.172
30
0
0
SEQEND
8
ENGRAVE
0
POLYLINE
8
ENGRAVE
66
1
70
1
10
0
20
0
30
0
0
VERTEX
8
ENGRAVE
10
259.889
20
9.594
30
0
0
VERTEX
8
ENGRAVE
10
259.889
20
10.447
30
0
0
VERTEX
8
ENGRAVE
10
260.042
20
10.425
30
0
0
VERTEX
8
ENGRAVE
10
260.042
20
9.725
30
0
0
VERTEX
8
ENGRAVE
10
260.196
20
9.703
30
0
0
VERTEX
8
ENGRAVE
10
260.502
20
9.703
30
0
0
VERTEX
8
ENGRAVE
10
260.371
20
9.900
30
0
0
VERTEX
8
ENGRAVE
10
260.349
20
10.053
30
0
0
VERTEX
8
ENGRAVE
10
260.436
20
10.337
30
0
0
VERTEX
8
ENGRAVE
10
260.567
20
10.469
30
0
0
VERTEX
8
ENGRAVE
10
260.721
20
10.534
30
0
0
VERTEX
8
ENGRAVE
10
260.983
20
10.534
30
0
0
VERTEX
8
ENGRAVE
10
261.158
20
10.447
30
0
0
VERTEX
8
ENGRAVE
10
261.267
20
10.337
30
0
0
VERTEX
8
ENGRAVE
10
261.355
20
10.119
30
0
0
VERTEX
8
ENGRAVE
10
261.355
20
9.878
30
0
0
VERTEX
8
ENGRAVE
10
261.267
20
9.659
30
0
0
VERTEX
8
ENGRAVE
10
261.136
20
9.528
30
0
0
VERTEX
8
ENGRAVE
10
261.005
20
9.484
30
0
0
VERTEX
8
ENGRAVE
10
260.961
20
9.637
30
0
0
VERTEX
8
ENGRAVE
10
261.071
20
9.681
30
0
0
VERTEX
8
ENGRAVE
10
261.180
20
9.812
30
0
0
VERTEX
8
ENGRAVE
10
261.202
20
10.141
30
0
0
VERTEX
8
ENGRAVE
10
261.071
20
10.316
30
0
0
VERTEX
8
ENGRAVE
10
260.961
20
10.359
30
0
0
VERTEX
8
ENGRAVE
10
260.677
20
10.337
30
0
0
VERTEX
8
ENGRAVE
10
260.524
20
10.162
30
0
0
VERTEX
8
ENGRAVE
10
260.502
20
9.944
30
0
0
VERTEX
8
ENGRAVE
10
260.567
20
9.791
30
0
0
VERTEX
8
ENGRAVE
10
260.699
20
9.703
30
0
0
VERTEX
8
ENGRAVE
10
260.677
20
9.550
30
0
0
SEQEND
8
ENGRAVE
0
POLYLINE
8
CUT
66
1
70
1
10
0
20
0
30
0
0
VERTEX
8
CUT
10
97.581
20
174.500
30
0
0
VERTEX
8
CUT
10
96.980
20
174.595
30
0
0
VERTEX
8
CUT
10
96.444
20
174.868
30
0
0
VERTEX
8
CUT
10
96.018
20
175.294
30
0
0
VERTEX
8
CUT
10
95.745
20
175.830
30
0
0
VERTEX
8
CUT
10
95.650
20
176.431
30
0
0
VERTEX
8
CUT
10
95.650
20
178.769
30
0
0
VERTEX
8
CUT
10
95.745
20
179.370
30
0
0
VERTEX
8
CUT
10
96.018
20
179.906
30
0
0
VERTEX
8
CUT
10
96.444
20
180.332
30
0
0
VERTEX
8
CUT
10
96.980
20
180.605
30
0
0
VERTEX
8
CUT
10
97.581
20
180.700
30
0
0
VERTEX
8
CUT
10
119.569
20
180.700
30
0
0
VERTEX
8
CUT
10
120.170
20
180.605
30
0
0
VERTEX
8
CUT
10
120.706
20
180.332
30
0
0
VERTEX
8
CUT
10
121.132
20
179.906
30
0
0
VERTEX
8
CUT
10
121.405
20
179.370
30
0
0
VERTEX
8
CUT
10
121.500
20
178.769
30
0
0
VERTEX
8
CUT
10
121.500
20
176.431
30
0
0
VERTEX
8
CUT
10
121.405
20
175.830
30
0
0
VERTEX
8
CUT
10
121.132
20
175.294
30
0
0
VERTEX
8
CUT
10
120.706
20
174.868
30
0
0
VERTEX
8
CUT
10
120.170
20
174.595
30
0
0
VERTEX
8
CUT
10
119.569
20
174.500
30
0
0
SEQEND
8
CUT
0
POLYLINE
8
CUT
66
1
70
1
10
0
20
0
30
0
0
VERTEX
8
CUT
10
115.575
20
76.302
30
0
0
VERTEX
8
CUT
10
114.871
20
76.463
30
0
0
VERTEX
8
CUT
10
114.306
20
76.913
30
0
0
VERTEX
8
CUT
10
113.993
20
77.564
30
0
0
VERTEX
8
CUT
10
113.993
20
78.286
30
0
0
VERTEX
8
CUT
10
114.306
20
78.937
30
0
0
VERTEX
8
CUT
10
114.871
20
79.387
30
0
0
VERTEX
8
CUT
10
115.575
20
79.548
30
0
0
VERTEX
8
CUT
10
116.279
20
79.387
30
0
0
VERTEX
8
CUT
10
116.844
20
78.937
30
0
0
VERTEX
8
CUT
10
117.157
20
78.286
30
0
0
VERTEX
8
CUT
10
117.157
20
77.564
30
0
0
VERTEX
8
CUT
10
116.844
20
76.913
30
0
0
VERTEX
8
CUT
10
116.279
20
76.463
30
0
0
SEQEND
8
CUT
0
POLYLINE
8
CUT
66
1
70
1
10
0
20
0
30
0
0
VERTEX
8
CUT
10
55.575
20
76.302
30
0
0
VERTEX
8
CUT
10
54.871
20
76.463
30
0
0
VERTEX
8
CUT
10
54.306
20
76.913
30
0
0
VERTEX
8
CUT
10
53.993
20
77.564
30
0
0
VERTEX
8
CUT
10
53.993
20
78.286
30
0
0
VERTEX
8
CUT
10
54.306
20
78.937
30
0
0
VERTEX
8
CUT
10
54.871
20
79.387
30
0
0
VERTEX
8
CUT
10
55.575
20
79.548
30
0
0
VERTEX
8
CUT
10
56.279
20
79.387
30
0
0
VERTEX
8
CUT
10
56.844
20
78.937
30
0
0
VERTEX
8
CUT
10
57.157
20
78.286
30
0
0
VERTEX
8
CUT
10
57.157
20
77.564
30
0
0
VERTEX
8
CUT
10
56.844
20
76.913
30
0
0
VERTEX
8
CUT
10
56.279
20
76.463
30
0
0
SEQEND
8
CUT
0
POLYLINE
8
CUT
66
1
70
1
10
0
20
0
30
0
0
VERTEX
8
CUT
10
115.575
20
189.302
30
0
0
VERTEX
8
CUT
10
114.871
20
189.463
30
0
0
VERTEX
8
CUT
10
114.306
20
189.913
30
0
0
VERTEX
8
CUT
10
113.993
20
190.564
30
0
0
VERTEX
8
CUT
10
113.993
20
191.286
30
0
0
VERTEX
8
CUT
10
114.306
20
191.937
30
0
0
VERTEX
8
CUT
10
114.871
20
192.387
30
0
0
VERTEX
8
CUT
10
115.575
20
192.548
30
0
0
VERTEX
8
CUT
10
116.279
20
192.387
30
0
0
VERTEX
8
CUT
10
116.844
20
191.937
30
0
0
VERTEX
8
CUT
10
117.157
20
191.286
30
0
0
VERTEX
8
CUT
10
117.157
20
190.564
30
0
0
VERTEX
8
CUT
10
116.844
20
189.913
30
0
0
VERTEX
8
CUT
10
116.279
20
189.463
30
0
0
SEQEND
8
CUT
0
POLYLINE
8
CUT
66
1
70
1
10
0
20
0
30
0
0
VERTEX
8
CUT
10
55.575
20
189.302
30
0
0
VERTEX
8
CUT
10
54.871
20
189.463
30
0
0
VERTEX
8
CUT
10
54.306
20
189.913
30
0
0
VERTEX
8
CUT
10
53.993
20
190.564
30
0
0
VERTEX
8
CUT
10
53.993
20
191.286
30
0
0
VERTEX
8
CUT
10
54.306
20
191.937
30
0
0
VERTEX
8
CUT
10
54.871
20
192.387
30
0
0
VERTEX
8
CUT
10
55.575
20
192.548
30
0
0
VERTEX
8
CUT
10
56.279
20
192.387
30
0
0
VERTEX
8
CUT
10
56.844
20
191.937
30
0
0
VERTEX
8
CUT
10
57.157
20
191.286
30
0
0
VERTEX
8
CUT
10
57.157
20
190.564
30
0
0
VERTEX
8
CUT
10
56.844
20
189.913
30
0
0
VERTEX
8
CUT
10
56.279
20
189.463
30
0
0
SEQEND
8
CUT
0
POLYLINE
8
CUT
66
1
70
1
10
0
20
0
30
0
0
VERTEX
8
CUT
10
16.075
20
162.802
30
0
0
VERTEX
8
CUT
10
15.371
20
162.963
30
0
0
VERTEX
8
CUT
10
14.806
20
163.413
30
0
0
VERTEX
8
CUT
10
14.493
20
164.064
30
0
0
VERTEX
8
CUT
10
14.493
20
164.786
30
0
0
VERTEX
8
CUT
10
14.806
20
165.437
30
0
0
VERTEX
8
CUT
10
15.371
20
165.887
30
0
0
VERTEX
8
CUT
10
16.075
20
166.048
30
0
0
VERTEX
8
CUT
10
16.779
20
165.887
30
0
0
VERTEX
8
CUT
10
17.344
20
165.437
30
0
0
VERTEX
8
CUT
10
17.657
20
164.786
30
0
0
VERTEX
8
CUT
10
17.657
20
164.064
30
0
0
VERTEX
8
CUT
10
17.344
20
163.413
30
0
0
VERTEX
8
CUT
10
16.779
20
162.963
30
0
0
SEQEND
8
CUT
0
POLYLINE
8
CUT
66
1
70
1
10
0
20
0
30
0
0
VERTEX
8
CUT
10
16.075
20
102.802
30
0
0
VERTEX
8
CUT
10
15.371
20
102.963
30
0
0
VERTEX
8
CUT
10
14.806
20
103.413
30
0
0
VERTEX
8
CUT
10
14.493
20
104.064
30
0
0
VERTEX
8
CUT
10
14.493
20
104.786
30
0
0
VERTEX
8
CUT
10
14.806
20
105.437
30
0
0
VERTEX
8
CUT
10
15.371
20
105.887
30
0
0
VERTEX
8
CUT
10
16.075
20
106.048
30
0
0
VERTEX
8
CUT
10
16.779
20
105.887
30
0
0
VERTEX
8
CUT
10
17.344
20
105.437
30
0
0
VERTEX
8
CUT
10
17.657
20
104.786
30
0
0
VERTEX
8
CUT
10
17.657
20
104.064
30
0
0
VERTEX
8
CUT
10
17.344
20
103.413
30
0
0
VERTEX
8
CUT
10
16.779
20
102.963
30
0
0
SEQEND
8
CUT
0
POLYLINE
8
CUT
66
1
70
1
10
0
20
0
30
0
0
VERTEX
8
CUT
10
26.150
20
79.400
30
0
0
VERTEX
8
CUT
10
26.150
20
76.450
30
0
0
VERTEX
8
CUT
10
16.200
20
76.450
30
0
0
VERTEX
8
CUT
10
16.200
20
79.400
30
0
0
SEQEND
8
CUT
0
POLYLINE
8
CUT
66
1
70
1
10
0
20
0
30
0
0
VERTEX
8
CUT
10
90.550
20
79.400
30
0
0
VERTEX
8
CUT
10
90.550
20
76.450
30
0
0
VERTEX
8
CUT
10
80.600
20
76.450
30
0
0
VERTEX
8
CUT
10
80.600
20
79.400
30
0
0
SEQEND
8
CUT
0
POLYLINE
8
CUT
66
1
70
1
10
0
20
0
30
0
0
VERTEX
8
CUT
10
154.950
20
79.400
30
0
0
VERTEX
8
CUT
10
154.950
20
76.450
30
0
0
VERTEX
8
CUT
10
145.000
20
76.450
30
0
0
VERTEX
8
CUT
10
145.000
20
79.400
30
0
0
SEQEND
8
CUT
0
POLYLINE
8
CUT
66
1
70
1
10
0
20
0
30
0
0
VERTEX
8
CUT
10
26.150
20
192.400
30
0
0
VERTEX
8
CUT
10
26.150
20
189.450
30
0
0
VERTEX
8
CUT
10
16.200
20
189.450
30
0
0
VERTEX
8
CUT
10
16.200
20
192.400
30
0
0
SEQEND
8
CUT
0
POLYLINE
8
CUT
66
1
70
1
10
0
20
0
30
0
0
VERTEX
8
CUT
10
90.550
20
192.400
30
0
0
VERTEX
8
CUT
10
90.550
20
189.450
30
0
0
VERTEX
8
CUT
10
80.600
20
189.450
30
0
0
VERTEX
8
CUT
10
80.600
20
192.400
30
0
0
SEQEND
8
CUT
0
POLYLINE
8
CUT
66
1
70
1
10
0
20
0
30
0
0
VERTEX
8
CUT
10
154.950
20
192.400
30
0
0
VERTEX
8
CUT
10
154.950
20
189.450
30
0
0
VERTEX
8
CUT
10
145.000
20
189.450
30
0
0
VERTEX
8
CUT
10
145.000
20
192.400
30
0
0
SEQEND
8
CUT
0
POLYLINE
8
CUT
66
1
70
1
10
0
20
0
30
0
0
VERTEX
8
CUT
10
163.050
20
185.400
30
0
0
VERTEX
8
CUT
10
163.050
20
177.450
30
0
0
VERTEX
8
CUT
10
160.100
20
177.450
30
0
0
VERTEX
8
CUT
10
160.100
20
185.400
30
0
0
SEQEND
8
CUT
0
POLYLINE
8
CUT
66
1
70
1
10
0
20
0
30
0
0
VERTEX
8
CUT
10
11.050
20
102.733
30
0
0
VERTEX
8
CUT
10
11.050
20
92.783
30
0
0
VERTEX
8
CUT
10
8.100
20
92.783
30
0
0
VERTEX
8
CUT
10
8.100
20
102.733
30
0
0
SEQEND
8
CUT
0
POLYLINE
8
CUT
66
1
70
1
10
0
20
0
30
0
0
VERTEX
8
CUT
10
11.050
20
139.400
30
0
0
VERTEX
8
CUT
10
11.050
20
129.450
30
0
0
VERTEX
8
CUT
10
8.100
20
129.450
30
0
0
VERTEX
8
CUT
10
8.100
20
139.400
30
0
0
SEQEND
8
CUT
0
POLYLINE
8
CUT
66
1
70
1
10
0
20
0
30
0
0
VERTEX
8
CUT
10
11.050
20
176.067
30
0
0
VERTEX
8
CUT
10
11.050
20
166.117
30
0
0
VERTEX
8
CUT
10
8.100
20
166.117
30
0
0
VERTEX
8
CUT
10
8.100
20
176.067
30
0
0
SEQEND
8
CUT
0
POLYLINE
8
CUT
66
1
70
1
10
0
20
0
30
0
0
VERTEX
8
CUT
10
75.550
20
175.100
30
0
0
VERTEX
8
CUT
10
75.550
20
165.150
30
0
0
VERTEX
8
CUT
10
72.600
20
165.150
30
0
0
VERTEX
8
CUT
10
72.600
20
175.100
30
0
0
SEQEND
8
CUT
0
POLYLINE
8
CUT
66
1
70
1
10
0
20
0
30
0
0
VERTEX
8
CUT
10
75.550
20
103.700
30
0
0
VERTEX
8
CUT
10
75.550
20
93.750
30
0
0
VERTEX
8
CUT
10
72.600
20
93.750
30
0
0
VERTEX
8
CUT
10
72.600
20
103.700
30
0
0
SEQEND
8
CUT
0
POLYLINE
8
CUT
66
1
70
1
10
0
20
0
30
0
0
VERTEX
8
CUT
10
118.800
20
185.000
30
0
0
VERTEX
8
CUT
10
118.800
20
182.050
30
0
0
VERTEX
8
CUT
10
108.850
20
182.050
30
0
0
VERTEX
8
CUT
10
108.850
20
185.000
30
0
0
SEQEND
8
CUT
0
POLYLINE
8
CUT
66
1
70
1
10
0
20
0
30
0
0
VERTEX
8
CUT
10
91.300
20
185.000
30
0
0
VERTEX
8
CUT
10
91.300
20
182.050
30
0
0
VERTEX
8
CUT
10
81.350
20
182.050
30
0
0
VERTEX
8
CUT
10
81.350
20
185.000
30
0
0
SEQEND
8
CUT
0
POLYLINE
8
CUT
66
1
70
1
10
0
20
0
30
0
0
VERTEX
8
CUT
10
118.800
20
86.800
30
0
0
VERTEX
8
CUT
10
118.800
20
83.850
30
0
0
VERTEX
8
CUT
10
108.850
20
83.850
30
0
0
VERTEX
8
CUT
10
108.850
20
86.800
30
0
0
SEQEND
8
CUT
0
POLYLINE
8
CUT
66
1
70
1
10
0
20
0
30
0
0
VERTEX
8
CUT
10
91.300
20
86.800
30
0
0
VERTEX
8
CUT
10
91.300
20
83.850
30
0
0
VERTEX
8
CUT
10
81.350
20
83.850
30
0
0
VERTEX
8
CUT
10
81.350
20
86.800
30
0
0
SEQEND
8
CUT
0
POLYLINE
8
CUT
66
1
70
1
10
0
20
0
30
0
0
VERTEX
8
CUT
10
166.150
20
190.930
30
0
0
VERTEX
8
CUT
10
166.150
20
77.920
30
0
0
VERTEX
8
CUT
10
166.012
20
76.870
30
0
0
VERTEX
8
CUT
10
165.605
20
75.887
30
0
0
VERTEX
8
CUT
10
164.957
20
75.043
30
0
0
VERTEX
8
CUT
10
164.113
20
74.395
30
0
0
VERTEX
8
CUT
10
163.130
20
73.988
30
0
0
VERTEX
8
CUT
10
162.080
20
73.850
30
0
0
VERTEX
8
CUT
10
9.070
20
73.850
30
0
0
VERTEX
8
CUT
10
8.020
20
73.988
30
0
0
VERTEX
8
CUT
10
7.037
20
74.395
30
0
0
VERTEX
8
CUT
10
6.193
20
75.043
30
0
0
VERTEX
8
CUT
10
5.545
20
75.887
30
0
0
VERTEX
8
CUT
10
5.138
20
76.870
30
0
0
VERTEX
8
CUT
10
5.000
20
77.920
30
0
0
VERTEX
8
CUT
10
5.000
20
190.930
30
0
0
VERTEX
8
CUT
10
5.138
20
191.980
30
0
0
VERTEX
8
CUT
10
5.545
20
192.963
30
0
0
VERTEX
8
CUT
10
6.193
20
193.807
30
0
0
VERTEX
8
CUT
10
7.037
20
194.455
30
0
0
VERTEX
8
CUT
10
8.020
20
194.862
30
0
0
VERTEX
8
CUT
10
9.070
20
195.000
30
0
0
VERTEX
8
CUT
10
162.080
20
195.000
30
0
0
VERTEX
8
CUT
10
163.130
20
194.862
30
0
0
VERTEX
8
CUT
10
164.113
20
194.455
30
0
0
VERTEX
8
CUT
10
164.957
20
193.807
30
0
0
VERTEX
8
CUT
10
165.605
20
192.963
30
0
0
VERTEX
8
CUT
10
166.012
20
191.980
30
0
0
SEQEND
8
CUT
0
POLYLINE
8
CUT
66
1
70
1
10
0
20
0
30
0
0
VERTEX
8
CUT
10
272.601
20
85.025
30
0
0
VERTEX
8
CUT
10
272.717
20
85.608
30
0
0
VERTEX
8
CUT
10
273.048
20
86.102
30
0
0
VERTEX
8
CUT
10
273.542
20
86.433
30
0
0
VERTEX
8
CUT
10
274.125
20
86.549
30
0
0
VERTEX
8
CUT
10
274.708
20
86.433
30
0
0
VERTEX
8
CUT
10
275.202
20
86.102
30
0
0
VERTEX
8
CUT
10
275.533
20
85.608
30
0
0
VERTEX
8
CUT
10
275.649
20
85.025
30
0
0
VERTEX
8
CUT
10
275.533
20
84.442
30
0
0
VERTEX
8
CUT
10
275.202
20
83.948
30
0
0
VERTEX
8
CUT
10
274.708
20
83.617
30
0
0
VERTEX
8
CUT
10
274.125
20
83.501
30
0
0
VERTEX
8
CUT
10
273.542
20
83.617
30
0
0
VERTEX
8
CUT
10
273.048
20
83.948
30
0
0
VERTEX
8
CUT
10
272.717
20
84.442
30
0
0
SEQEND
8
CUT
0
POLYLINE
8
CUT
66
1
70
1
10
0
20
0
30
0
0
VERTEX
8
CUT
10
272.601
20
125.825
30
0
0
VERTEX
8
CUT
10
272.717
20
126.408
30
0
0
VERTEX
8
CUT
10
273.048
20
126.902
30
0
0
VERTEX
8
CUT
10
273.542
20
127.233
30
0
0
VERTEX
8
CUT
10
274.125
20
127.349
30
0
0
VERTEX
8
CUT
10
274.708
20
127.233
30
0
0
VERTEX
8
CUT
10
275.202
20
126.902
30
0
0
VERTEX
8
CUT
10
275.533
20
126.408
30
0
0
VERTEX
8
CUT
10
275.649
20
125.825
30
0
0
VERTEX
8
CUT
10
275.533
20
125.242
30
0
0
VERTEX
8
CUT
10
275.202
20
124.748
30
0
0
VERTEX
8
CUT
10
274.708
20
124.417
30
0
0
VERTEX
8
CUT
10
274.125
20
124.301
30
0
0
VERTEX
8
CUT
10
273.542
20
124.417
30
0
0
VERTEX
8
CUT
10
273.048
20
124.748
30
0
0
VERTEX
8
CUT
10
272.717
20
125.242
30
0
0
SEQEND
8
CUT
0
POLYLINE
8
CUT
66
1
70
1
10
0
20
0
30
0
0
VERTEX
8
CUT
10
249.801
20
85.025
30
0
0
VERTEX
8
CUT
10
249.917
20
85.608
30
0
0
VERTEX
8
CUT
10
250.248
20
86.102
30
0
0
VERTEX
8
CUT
10
250.742
20
86.433
30
0
0
VERTEX
8
CUT
10
251.325
20
86.549
30
0
0
VERTEX
8
CUT
10
251.908
20
86.433
30
0
0
VERTEX
8
CUT
10
252.402
20
86.102
30
0
0
VERTEX
8
CUT
10
252.733
20
85.608
30
0
0
VERTEX
8
CUT
10
252.849
20
85.025
30
0
0
VERTEX
8
CUT
10
252.733
20
84.442
30
0
0
VERTEX
8
CUT
10
252.402
20
83.948
30
0
0
VERTEX
8
CUT
10
251.908
20
83.617
30
0
0
VERTEX
8
CUT
10
251.325
20
83.501
30
0
0
VERTEX
8
CUT
10
250.742
20
83.617
30
0
0
VERTEX
8
CUT
10
250.248
20
83.948
30
0
0
VERTEX
8
CUT
10
249.917
20
84.442
30
0
0
SEQEND
8
CUT
0
POLYLINE
8
CUT
66
1
70
1
10
0
20
0
30
0
0
VERTEX
8
CUT
10
249.801
20
125.825
30
0
0
VERTEX
8
CUT
10
249.917
20
126.408
30
0
0
VERTEX
8
CUT
10
250.248
20
126.902
30
0
0
VERTEX
8
CUT
10
250.742
20
127.233
30
0
0
VERTEX
8
CUT
10
251.325
20
127.349
30
0
0
VERTEX
8
CUT
10
251.908
20
127.233
30
0
0
VERTEX
8
CUT
10
252.402
20
126.902
30
0
0
VERTEX
8
CUT
10
252.733
20
126.408
30
0
0
VERTEX
8
CUT
10
252.849
20
125.825
30
0
0
VERTEX
8
CUT
10
252.733
20
125.242
30
0
0
VERTEX
8
CUT
10
252.402
20
124.748
30
0
0
VERTEX
8
CUT
10
251.908
20
124.417
30
0
0
VERTEX
8
CUT
10
251.325
20
124.301
30
0
0
VERTEX
8
CUT
10
250.742
20
124.417
30
0
0
VERTEX
8
CUT
10
250.248
20
124.748
30
0
0
VERTEX
8
CUT
10
249.917
20
125.242
30
0
0
SEQEND
8
CUT
0
POLYLINE
8
CUT
66
1
70
1
10
0
20
0
30
0
0
VERTEX
8
CUT
10
255.102
20
187.425
30
0
0
VERTEX
8
CUT
10
255.263
20
188.129
30
0
0
VERTEX
8
CUT
10
255.713
20
188.694
30
0
0
VERTEX
8
CUT
10
256.364
20
189.007
30
0
0
VERTEX
8
CUT
10
257.086
20
189.007
30
0
0
VERTEX
8
CUT
10
257.737
20
188.694
30
0
0
VERTEX
8
CUT
10
258.187
20
188.129
30
0
0
VERTEX
8
CUT
10
258.348
20
187.425
30
0
0
VERTEX
8
CUT
10
258.187
20
186.721
30
0
0
VERTEX
8
CUT
10
257.737
20
186.156
30
0
0
VERTEX
8
CUT
10
257.086
20
185.843
30
0
0
VERTEX
8
CUT
10
256.364
20
185.843
30
0
0
VERTEX
8
CUT
10
255.713
20
186.156
30
0
0
VERTEX
8
CUT
10
255.263
20
186.721
30
0
0
SEQEND
8
CUT
0
POLYLINE
8
CUT
66
1
70
1
10
0
20
0
30
0
0
VERTEX
8
CUT
10
195.102
20
187.425
30
0
0
VERTEX
8
CUT
10
195.263
20
188.129
30
0
0
VERTEX
8
CUT
10
195.713
20
188.694
30
0
0
VERTEX
8
CUT
10
196.364
20
189.007
30
0
0
VERTEX
8
CUT
10
197.086
20
189.007
30
0
0
VERTEX
8
CUT
10
197.737
20
188.694
30
0
0
VERTEX
8
CUT
10
198.187
20
188.129
30
0
0
VERTEX
8
CUT
10
198.348
20
187.425
30
0
0
VERTEX
8
CUT
10
198.187
20
186.721
30
0
0
VERTEX
8
CUT
10
197.737
20
186.156
30
0
0
VERTEX
8
CUT
10
197.086
20
185.843
30
0
0
VERTEX
8
CUT
10
196.364
20
185.843
30
0
0
VERTEX
8
CUT
10
195.713
20
186.156
30
0
0
VERTEX
8
CUT
10
195.263
20
186.721
30
0
0
SEQEND
8
CUT
0
POLYLINE
8
CUT
66
1
70
1
10
0
20
0
30
0
0
VERTEX
8
CUT
10
265.700
20
138.450
30
0
0
VERTEX
8
CUT
10
262.750
20
138.450
30
0
0
VERTEX
8
CUT
10
262.750
20
146.400
30
0
0
VERTEX
8
CUT
10
265.700
20
146.400
30
0
0
SEQEND
8
CUT
0
POLYLINE
8
CUT
66
1
70
1
10
0
20
0
30
0
0
VERTEX
8
CUT
10
220.200
20
44.900
30
0
0
VERTEX
8
CUT
10
217.250
20
44.900
30
0
0
VERTEX
8
CUT
10
217.250
20
47.850
30
0
0
VERTEX
8
CUT
10
220.200
20
47.850
30
0
0
SEQEND
8
CUT
0
POLYLINE
8
CUT
66
1
70
1
10
0
20
0
30
0
0
VERTEX
8
CUT
10
220.200
20
75.500
30
0
0
VERTEX
8
CUT
10
217.250
20
75.500
30
0
0
VERTEX
8
CUT
10
217.250
20
78.450
30
0
0
VERTEX
8
CUT
10
220.200
20
78.450
30
0
0
SEQEND
8
CUT
0
POLYLINE
8
CUT
66
1
70
1
10
0
20
0
30
0
0
VERTEX
8
CUT
10
236.200
20
156.400
30
0
0
VERTEX
8
CUT
10
233.250
20
156.400
30
0
0
VERTEX
8
CUT
10
233.250
20
159.350
30
0
0
VERTEX
8
CUT
10
236.200
20
159.350
30
0
0
SEQEND
8
CUT
0
POLYLINE
8
CUT
66
1
70
1
10
0
20
0
30
0
0
VERTEX
8
CUT
10
236.200
20
187.000
30
0
0
VERTEX
8
CUT
10
233.250
20
187.000
30
0
0
VERTEX
8
CUT
10
233.250
20
189.950
30
0
0
VERTEX
8
CUT
10
236.200
20
189.950
30
0
0
SEQEND
8
CUT
0
POLYLINE
8
CUT
66
1
70
1
10
0
20
0
30
0
0
VERTEX
8
CUT
10
281.800
20
42.850
30
0
0
VERTEX
8
CUT
10
268.467
20
42.850
30
0
0
VERTEX
8
CUT
10
268.467
20
39.850
30
0
0
VERTEX
8
CUT
10
258.317
20
39.850
30
0
0
VERTEX
8
CUT
10
258.317
20
42.850
30
0
0
VERTEX
8
CUT
10
231.800
20
42.850
30
0
0
VERTEX
8
CUT
10
231.800
20
39.850
30
0
0
VERTEX
8
CUT
10
221.650
20
39.850
30
0
0
VERTEX
8
CUT
10
221.650
20
42.850
30
0
0
VERTEX
8
CUT
10
195.133
20
42.850
30
0
0
VERTEX
8
CUT
10
195.133
20
39.850
30
0
0
VERTEX
8
CUT
10
184.983
20
39.850
30
0
0
VERTEX
8
CUT
10
184.983
20
42.850
30
0
0
VERTEX
8
CUT
10
171.650
20
42.850
30
0
0
VERTEX
8
CUT
10
171.650
20
52.750
30
0
0
VERTEX
8
CUT
10
236.650
20
52.750
30
0
0
VERTEX
8
CUT
10
236.650
20
70.600
30
0
0
VERTEX
8
CUT
10
171.650
20
70.600
30
0
0
VERTEX
8
CUT
10
171.650
20
93.725
30
0
0
VERTEX
8
CUT
10
168.650
20
93.725
30
0
0
VERTEX
8
CUT
10
168.650
20
103.875
30
0
0
VERTEX
8
CUT
10
171.650
20
103.875
30
0
0
VERTEX
8
CUT
10
171.650
20
130.975
30
0
0
VERTEX
8
CUT
10
168.650
20
130.975
30
0
0
VERTEX
8
CUT
10
168.650
20
141.125
30
0
0
VERTEX
8
CUT
10
171.650
20
141.125
30
0
0
VERTEX
8
CUT
10
171.650
20
168.225
30
0
0
VERTEX
8
CUT
10
168.650
20
168.225
30
0
0
VERTEX
8
CUT
10
168.650
20
178.375
30
0
0
VERTEX
8
CUT
10
171.650
20
178.375
30
0
0
VERTEX
8
CUT
10
171.650
20
192.000
30
0
0
VERTEX
8
CUT
10
184.983
20
192.000
30
0
0
VERTEX
8
CUT
10
184.983
20
195.000
30
0
0
VERTEX
8
CUT
10
195.133
20
195.000
30
0
0
VERTEX
8
CUT
10
195.133
20
192.000
30
0
0
VERTEX
8
CUT
10
221.650
20
192.000
30
0
0
VERTEX
8
CUT
10
221.650
20
195.000
30
0
0
VERTEX
8
CUT
10
231.800
20
195.000
30
0
0
VERTEX
8
CUT
10
231.800
20
192.000
30
0
0
VERTEX
8
CUT
10
258.317
20
192.000
30
0
0
VERTEX
8
CUT
10
258.317
20
195.000
30
0
0
VERTEX
8
CUT
10
268.467
20
195.000
30
0
0
VERTEX
8
CUT
10
268.467
20
192.000
30
0
0
VERTEX
8
CUT
10
281.800
20
192.000
30
0
0
VERTEX
8
CUT
10
281.800
20
182.100
30
0
0
VERTEX
8
CUT
10
216.800
20
182.100
30
0
0
VERTEX
8
CUT
10
216.800
20
164.250
30
0
0
VERTEX
8
CUT
10
281.800
20
164.250
30
0
0
VERTEX
8
CUT
10
281.800
20
141.125
30
0
0
VERTEX
8
CUT
10
284.800
20
141.125
30
0
0
VERTEX
8
CUT
10
284.800
20
130.975
30
0
0
VERTEX
8
CUT
10
281.800
20
130.975
30
0
0
VERTEX
8
CUT
10
281.800
20
103.875
30
0
0
VERTEX
8
CUT
10
284.800
20
103.875
30
0
0
VERTEX
8
CUT
10
284.800
20
93.725
30
0
0
VERTEX
8
CUT
10
281.800
20
93.725
30
0
0
VERTEX
8
CUT
10
281.800
20
66.625
30
0
0
VERTEX
8
CUT
10
284.800
20
66.625
30
0
0
VERTEX
8
CUT
10
284.800
20
56.475
30
0
0
VERTEX
8
CUT
10
281.800
20
56.475
30
0
0
SEQEND
8
CUT
0
POLYLINE
8
CUT
66
1
70
1
10
0
20
0
30
0
0
VERTEX
8
CUT
10
33.949
20
23.975
30
0
0
VERTEX
8
CUT
10
33.809
20
25.042
30
0
0
VERTEX
8
CUT
10
33.397
20
26.037
30
0
0
VERTEX
8
CUT
10
32.741
20
26.891
30
0
0
VERTEX
8
CUT
10
31.887
20
27.547
30
0
0
VERTEX
8
CUT
10
30.892
20
27.959
30
0
0
VERTEX
8
CUT
10
29.825
20
28.099
30
0
0
VERTEX
8
CUT
10
28.758
20
27.959
30
0
0
VERTEX
8
CUT
10
27.763
20
27.547
30
0
0
VERTEX
8
CUT
10
26.909
20
26.891
30
0
0
VERTEX
8
CUT
10
26.253
20
26.037
30
0
0
VERTEX
8
CUT
10
25.841
20
25.042
30
0
0
VERTEX
8
CUT
10
25.701
20
23.975
30
0
0
VERTEX
8
CUT
10
25.841
20
22.908
30
0
0
VERTEX
8
CUT
10
26.253
20
21.913
30
0
0
VERTEX
8
CUT
10
26.909
20
21.059
30
0
0
VERTEX
8
CUT
10
27.763
20
20.403
30
0
0
VERTEX
8
CUT
10
28.758
20
19.991
30
0
0
VERTEX
8
CUT
10
29.825
20
19.851
30
0
0
VERTEX
8
CUT
10
30.892
20
19.991
30
0
0
VERTEX
8
CUT
10
31.887
20
20.403
30
0
0
VERTEX
8
CUT
10
32.741
20
21.059
30
0
0
VERTEX
8
CUT
10
33.397
20
21.913
30
0
0
VERTEX
8
CUT
10
33.809
20
22.908
30
0
0
SEQEND
8
CUT
0
POLYLINE
8
CUT
66
1
70
1
10
0
20
0
30
0
0
VERTEX
8
CUT
10
39.948
20
23.975
30
0
0
VERTEX
8
CUT
10
39.787
20
24.679
30
0
0
VERTEX
8
CUT
10
39.337
20
25.244
30
0
0
VERTEX
8
CUT
10
38.686
20
25.557
30
0
0
VERTEX
8
CUT
10
37.964
20
25.557
30
0
0
VERTEX
8
CUT
10
37.313
20
25.244
30
0
0
VERTEX
8
CUT
10
36.863
20
24.679
30
0
0
VERTEX
8
CUT
10
36.702
20
23.975
30
0
0
VERTEX
8
CUT
10
36.863
20
23.271
30
0
0
VERTEX
8
CUT
10
37.313
20
22.706
30
0
0
VERTEX
8
CUT
10
37.964
20
22.393
30
0
0
VERTEX
8
CUT
10
38.686
20
22.393
30
0
0
VERTEX
8
CUT
10
39.337
20
22.706
30
0
0
VERTEX
8
CUT
10
39.787
20
23.271
30
0
0
SEQEND
8
CUT
0
POLYLINE
8
CUT
66
1
70
1
10
0
20
0
30
0
0
VERTEX
8
CUT
10
22.948
20
23.975
30
0
0
VERTEX
8
CUT
10
22.787
20
24.679
30
0
0
VERTEX
8
CUT
10
22.337
20
25.244
30
0
0
VERTEX
8
CUT
10
21.686
20
25.557
30
0
0
VERTEX
8
CUT
10
20.964
20
25.557
30
0
0
VERTEX
8
CUT
10
20.313
20
25.244
30
0
0
VERTEX
8
CUT
10
19.863
20
24.679
30
0
0
VERTEX
8
CUT
10
19.702
20
23.975
30
0
0
VERTEX
8
CUT
10
19.863
20
23.271
30
0
0
VERTEX
8
CUT
10
20.313
20
22.706
30
0
0
VERTEX
8
CUT
10
20.964
20
22.393
30
0
0
VERTEX
8
CUT
10
21.686
20
22.393
30
0
0
VERTEX
8
CUT
10
22.337
20
22.706
30
0
0
VERTEX
8
CUT
10
22.787
20
23.271
30
0
0
SEQEND
8
CUT
0
POLYLINE
8
CUT
66
1
70
1
10
0
20
0
30
0
0
VERTEX
8
CUT
10
147.450
20
24.069
30
0
0
VERTEX
8
CUT
10
147.350
20
24.700
30
0
0
VERTEX
8
CUT
10
147.063
20
25.265
30
0
0
VERTEX
8
CUT
10
146.615
20
25.713
30
0
0
VERTEX
8
CUT
10
146.050
20
26.000
30
0
0
VERTEX
8
CUT
10
145.419
20
26.100
30
0
0
VERTEX
8
CUT
10
137.231
20
26.100
30
0
0
VERTEX
8
CUT
10
136.600
20
26.000
30
0
0
VERTEX
8
CUT
10
136.035
20
25.713
30
0
0
VERTEX
8
CUT
10
135.587
20
25.265
30
0
0
VERTEX
8
CUT
10
135.300
20
24.700
30
0
0
VERTEX
8
CUT
10
135.200
20
24.069
30
0
0
VERTEX
8
CUT
10
135.200
20
23.881
30
0
0
VERTEX
8
CUT
10
135.300
20
23.250
30
0
0
VERTEX
8
CUT
10
135.587
20
22.685
30
0
0
VERTEX
8
CUT
10
136.035
20
22.237
30
0
0
VERTEX
8
CUT
10
136.600
20
21.950
30
0
0
VERTEX
8
CUT
10
137.231
20
21.850
30
0
0
VERTEX
8
CUT
10
145.419
20
21.850
30
0
0
VERTEX
8
CUT
10
146.050
20
21.950
30
0
0
VERTEX
8
CUT
10
146.615
20
22.237
30
0
0
VERTEX
8
CUT
10
147.063
20
22.685
30
0
0
VERTEX
8
CUT
10
147.350
20
23.250
30
0
0
VERTEX
8
CUT
10
147.450
20
23.881
30
0
0
SEQEND
8
CUT
0
POLYLINE
8
CUT
66
1
70
1
10
0
20
0
30
0
0
VERTEX
8
CUT
10
61.975
20
13.775
30
0
0
VERTEX
8
CUT
10
71.925
20
13.775
30
0
0
VERTEX
8
CUT
10
71.925
20
16.725
30
0
0
VERTEX
8
CUT
10
61.975
20
16.725
30
0
0
SEQEND
8
CUT
0
POLYLINE
8
CUT
66
1
70
1
10
0
20
0
30
0
0
VERTEX
8
CUT
10
99.225
20
13.775
30
0
0
VERTEX
8
CUT
10
109.175
20
13.775
30
0
0
VERTEX
8
CUT
10
109.175
20
16.725
30
0
0
VERTEX
8
CUT
10
99.225
20
16.725
30
0
0
SEQEND
8
CUT
0
POLYLINE
8
CUT
66
1
70
1
10
0
20
0
30
0
0
VERTEX
8
CUT
10
136.475
20
13.775
30
0
0
VERTEX
8
CUT
10
146.425
20
13.775
30
0
0
VERTEX
8
CUT
10
146.425
20
16.725
30
0
0
VERTEX
8
CUT
10
136.475
20
16.725
30
0
0
SEQEND
8
CUT
0
POLYLINE
8
CUT
66
1
70
1
10
0
20
0
30
0
0
VERTEX
8
CUT
10
8.100
20
20.156
30
0
0
VERTEX
8
CUT
10
11.050
20
20.156
30
0
0
VERTEX
8
CUT
10
11.050
20
30.106
30
0
0
VERTEX
8
CUT
10
8.100
20
30.106
30
0
0
SEQEND
8
CUT
0
POLYLINE
8
CUT
66
1
70
1
10
0
20
0
30
0
0
VERTEX
8
CUT
10
8.100
20
48.919
30
0
0
VERTEX
8
CUT
10
11.050
20
48.919
30
0
0
VERTEX
8
CUT
10
11.050
20
58.869
30
0
0
VERTEX
8
CUT
10
8.100
20
58.869
30
0
0
SEQEND
8
CUT
0
POLYLINE
8
CUT
66
1
70
1
10
0
20
0
30
0
0
VERTEX
8
CUT
10
160.100
20
20.156
30
0
0
VERTEX
8
CUT
10
163.050
20
20.156
30
0
0
VERTEX
8
CUT
10
163.050
20
30.106
30
0
0
VERTEX
8
CUT
10
160.100
20
30.106
30
0
0
SEQEND
8
CUT
0
POLYLINE
8
CUT
66
1
70
1
10
0
20
0
30
0
0
VERTEX
8
CUT
10
160.100
20
48.919
30
0
0
VERTEX
8
CUT
10
163.050
20
48.919
30
0
0
VERTEX
8
CUT
10
163.050
20
58.869
30
0
0
VERTEX
8
CUT
10
160.100
20
58.869
30
0
0
SEQEND
8
CUT
0
POLYLINE
8
CUT
66
1
70
1
10
0
20
0
30
0
0
VERTEX
8
CUT
10
57.808
20
34.300
30
0
0
VERTEX
8
CUT
10
67.758
20
34.300
30
0
0
VERTEX
8
CUT
10
67.758
20
37.250
30
0
0
VERTEX
8
CUT
10
57.808
20
37.250
30
0
0
SEQEND
8
CUT
0
POLYLINE
8
CUT
66
1
70
1
10
0
20
0
30
0
0
VERTEX
8
CUT
10
96.725
20
34.300
30
0
0
VERTEX
8
CUT
10
106.675
20
34.300
30
0
0
VERTEX
8
CUT
10
106.675
20
37.250
30
0
0
VERTEX
8
CUT
10
96.725
20
37.250
30
0
0
SEQEND
8
CUT
0
POLYLINE
8
CUT
66
1
70
1
10
0
20
0
30
0
0
VERTEX
8
CUT
10
135.642
20
34.300
30
0
0
VERTEX
8
CUT
10
145.592
20
34.300
30
0
0
VERTEX
8
CUT
10
145.592
20
37.250
30
0
0
VERTEX
8
CUT
10
135.642
20
37.250
30
0
0
SEQEND
8
CUT
0
POLYLINE
8
CUT
66
1
70
1
10
0
20
0
30
0
0
VERTEX
8
CUT
10
5.000
20
10.675
30
0
0
VERTEX
8
CUT
10
166.150
20
10.675
30
0
0
VERTEX
8
CUT
10
166.150
20
68.350
30
0
0
VERTEX
8
CUT
10
155.050
20
68.350
30
0
0
VERTEX
8
CUT
10
155.050
20
71.350
30
0
0
VERTEX
8
CUT
10
144.900
20
71.350
30
0
0
VERTEX
8
CUT
10
144.900
20
68.350
30
0
0
VERTEX
8
CUT
10
117.200
20
68.350
30
0
0
VERTEX
8
CUT
10
117.200
20
61.500
30
0
0
VERTEX
8
CUT
10
118.400
20
61.500
30
0
0
VERTEX
8
CUT
10
118.400
20
59.050
30
0
0
VERTEX
8
CUT
10
117.200
20
59.050
30
0
0
VERTEX
8
CUT
10
117.200
20
55.350
30
0
0
VERTEX
8
CUT
10
113.950
20
55.350
30
0
0
VERTEX
8
CUT
10
113.950
20
59.050
30
0
0
VERTEX
8
CUT
10
112.750
20
59.050
30
0
0
VERTEX
8
CUT
10
112.750
20
61.500
30
0
0
VERTEX
8
CUT
10
113.950
20
61.500
30
0
0
VERTEX
8
CUT
10
113.950
20
68.350
30
0
0
VERTEX
8
CUT
10
90.650
20
68.350
30
0
0
VERTEX
8
CUT
10
90.650
20
71.350
30
0
0
VERTEX
8
CUT
10
80.500
20
71.350
30
0
0
VERTEX
8
CUT
10
80.500
20
68.350
30
0
0
VERTEX
8
CUT
10
57.200
20
68.350
30
0
0
VERTEX
8
CUT
10
57.200
20
61.500
30
0
0
VERTEX
8
CUT
10
58.400
20
61.500
30
0
0
VERTEX
8
CUT
10
58.400
20
59.050
30
0
0
VERTEX
8
CUT
10
57.200
20
59.050
30
0
0
VERTEX
8
CUT
10
57.200
20
55.350
30
0
0
VERTEX
8
CUT
10
53.950
20
55.350
30
0
0
VERTEX
8
CUT
10
53.950
20
59.050
30
0
0
VERTEX
8
CUT
10
52.750
20
59.050
30
0
0
VERTEX
8
CUT
10
52.750
20
61.500
30
0
0
VERTEX
8
CUT
10
53.950
20
61.500
30
0
0
VERTEX
8
CUT
10
53.950
20
68.350
30
0
0
VERTEX
8
CUT
10
26.250
20
68.350
30
0
0
VERTEX
8
CUT
10
26.250
20
71.350
30
0
0
VERTEX
8
CUT
10
16.100
20
71.350
30
0
0
VERTEX
8
CUT
10
16.100
20
68.350
30
0
0
VERTEX
8
CUT
10
5.000
20
68.350
30
0
0
SEQEND
8
CUT
0
POLYLINE
8
CUT
66
1
70
1
10
0
20
0
30
0
0
VERTEX
8
CUT
10
285.550
20
37.350
30
0
0
VERTEX
8
CUT
10
285.550
20
31.200
30
0
0
VERTEX
8
CUT
10
271.092
20
31.200
30
0
0
VERTEX
8
CUT
10
271.092
20
28.200
30
0
0
VERTEX
8
CUT
10
260.942
20
28.200
30
0
0
VERTEX
8
CUT
10
260.942
20
31.200
30
0
0
VERTEX
8
CUT
10
232.175
20
31.200
30
0
0
VERTEX
8
CUT
10
232.175
20
28.200
30
0
0
VERTEX
8
CUT
10
222.025
20
28.200
30
0
0
VERTEX
8
CUT
10
222.025
20
31.200
30
0
0
VERTEX
8
CUT
10
193.258
20
31.200
30
0
0
VERTEX
8
CUT
10
193.258
20
28.200
30
0
0
VERTEX
8
CUT
10
183.108
20
28.200
30
0
0
VERTEX
8
CUT
10
183.108
20
31.200
30
0
0
VERTEX
8
CUT
10
168.650
20
31.200
30
0
0
VERTEX
8
CUT
10
168.650
20
37.350
30
0
0
SEQEND
8
CUT
0
POLYLINE
8
CUT
66
1
70
1
10
0
20
0
30
0
0
VERTEX
8
CUT
10
190.800
20
25.700
30
0
0
VERTEX
8
CUT
10
190.800
20
8.550
30
0
0
VERTEX
8
CUT
10
168.650
20
8.550
30
0
0
VERTEX
8
CUT
10
168.650
20
25.700
30
0
0
SEQEND
8
CUT
0
POLYLINE
8
CUT
66
1
70
1
10
0
20
0
30
0
0
VERTEX
8
CUT
10
213.975
20
25.700
30
0
0
VERTEX
8
CUT
10
213.975
20
22.700
30
0
0
VERTEX
8
CUT
10
216.975
20
22.700
30
0
0
VERTEX
8
CUT
10
216.975
20
14.550
30
0
0
VERTEX
8
CUT
10
213.975
20
14.550
30
0
0
VERTEX
8
CUT
10
213.975
20
11.550
30
0
0
VERTEX
8
CUT
10
193.300
20
11.550
30
0
0
VERTEX
8
CUT
10
193.300
20
25.700
30
0
0
SEQEND
8
CUT
0
POLYLINE
8
CUT
66
1
70
1
10
0
20
0
30
0
0
VERTEX
8
CUT
10
248.367
20
18.456
30
0
0
VERTEX
8
CUT
10
247.818
20
20.248
30
0
0
VERTEX
8
CUT
10
246.755
20
21.821
30
0
0
VERTEX
8
CUT
10
245.198
20
23.185
30
0
0
VERTEX
8
CUT
10
243.210
20
24.290
30
0
0
VERTEX
8
CUT
10
240.867
20
25.096
30
0
0
VERTEX
8
CUT
10
238.258
20
25.572
30
0
0
VERTEX
8
CUT
10
235.484
20
25.700
30
0
0
VERTEX
8
CUT
10
232.649
20
25.477
30
0
0
VERTEX
8
CUT
10
229.863
20
24.910
30
0
0
VERTEX
8
CUT
10
227.231
20
24.022
30
0
0
VERTEX
8
CUT
10
224.855
20
22.845
30
0
0
VERTEX
8
CUT
10
222.824
20
21.425
30
0
0
VERTEX
8
CUT
10
221.218
20
19.815
30
0
0
VERTEX
8
CUT
10
220.098
20
18.075
30
0
0
VERTEX
8
CUT
10
219.509
20
16.270
30
0
0
VERTEX
8
CUT
10
219.475
20
14.395
30
0
0
SEQEND
8
CUT
0
POLYLINE
8
CUT
66
1
70
1
10
0
20
0
30
0
0
VERTEX
8
CUT
10
279.759
20
14.395
30
0
0
VERTEX
8
CUT
10
279.725
20
16.270
30
0
0
VERTEX
8
CUT
10
279.137
20
18.075
30
0
0
VERTEX
8
CUT
10
278.016
20
19.815
30
0
0
VERTEX
8
CUT
10
276.410
20
21.425
30
0
0
VERTEX
8
CUT
10
274.380
20
22.845
30
0
0
VERTEX
8
CUT
10
272.003
20
24.022
30
0
0
VERTEX
8
CUT
10
269.371
20
24.910
30
0
0
VERTEX
8
CUT
10
266.585
20
25.477
30
0
0
VERTEX
8
CUT
10
263.751
20
25.700
30
0
0
VERTEX
8
CUT
10
260.976
20
25.572
30
0
0
VERTEX
8
CUT
10
258.367
20
25.096
30
0
0
VERTEX
8
CUT
10
256.024
20
24.290
30
0
0
VERTEX
8
CUT
10
254.036
20
23.185
30
0
0
VERTEX
8
CUT
10
252.480
20
21.821
30
0
0
VERTEX
8
CUT
10
251.416
20
20.248
30
0
0
VERTEX
8
CUT
10
250.867
20
18.456
30
0
0
SEQEND
8
CUT
0
POLYLINE
8
CUT
66
1
70
1
10
0
20
0
30
0
0
VERTEX
8
CUT
10
287.409
20
18.325
30
0
0
VERTEX
8
CUT
10
286.409
20
18.325
30
0
0
VERTEX
8
CUT
10
286.409
20
15.325
30
0
0
VERTEX
8
CUT
10
283.259
20
15.325
30
0
0
VERTEX
8
CUT
10
283.259
20
18.325
30
0
0
VERTEX
8
CUT
10
282.259
20
18.325
30
0
0
VERTEX
8
CUT
10
282.259
20
25.700
30
0
0
VERTEX
8
CUT
10
287.409
20
25.700
30
0
0
SEQEND
8
CUT
0
POLYLINE
8
CUT
66
1
70
1
10
0
20
0
30
0
0
VERTEX
8
CUT
10
289.634
20
12.825
30
0
0
VERTEX
8
CUT
10
289.634
20
11.825
30
0
0
VERTEX
8
CUT
10
292.634
20
11.825
30
0
0
VERTEX
8
CUT
10
292.634
20
8.675
30
0
0
VERTEX
8
CUT
10
289.634
20
8.675
30
0
0
VERTEX
8
CUT
10
289.634
20
7.675
30
0
0
VERTEX
8
CUT
10
282.259
20
7.675
30
0
0
VERTEX
8
CUT
10
282.259
20
12.825
30
0
0
SEQEND
8
CUT
0
POLYLINE
8
CUT
66
1
70
1
10
0
20
0
30
0
0
VERTEX
8
CUT
10
226.851
20
11.895
30
0
0
VERTEX
8
CUT
10
226.851
20
10.895
30
0
0
VERTEX
8
CUT
10
229.851
20
10.895
30
0
0
VERTEX
8
CUT
10
229.851
20
7.745
30
0
0
VERTEX
8
CUT
10
226.851
20
7.745
30
0
0
VERTEX
8
CUT
10
226.851
20
6.745
30
0
0
VERTEX
8
CUT
10
219.475
20
6.745
30
0
0
VERTEX
8
CUT
10
219.475
20
11.895
30
0
0
SEQEND
8
CUT
0
POLYLINE
8
CUT
66
1
70
1
10
0
20
0
30
0
0
VERTEX
8
CUT
10
239.726
20
11.895
30
0
0
VERTEX
8
CUT
10
239.726
20
10.895
30
0
0
VERTEX
8
CUT
10
242.726
20
10.895
30
0
0
VERTEX
8
CUT
10
242.726
20
7.745
30
0
0
VERTEX
8
CUT
10
239.726
20
7.745
30
0
0
VERTEX
8
CUT
10
239.726
20
6.745
30
0
0
VERTEX
8
CUT
10
232.351
20
6.745
30
0
0
VERTEX
8
CUT
10
232.351
20
11.895
30
0
0
SEQEND
8
CUT
0
POLYLINE
8
CUT
66
1
70
1
10
0
20
0
30
0
0
VERTEX
8
CUT
10
251.376
20
11.895
30
0
0
VERTEX
8
CUT
10
251.376
20
10.895
30
0
0
VERTEX
8
CUT
10
254.376
20
10.895
30
0
0
VERTEX
8
CUT
10
254.376
20
7.745
30
0
0
VERTEX
8
CUT
10
251.376
20
7.745
30
0
0
VERTEX
8
CUT
10
251.376
20
6.745
30
0
0
VERTEX
8
CUT
10
245.226
20
6.745
30
0
0
VERTEX
8
CUT
10
245.226
20
11.895
30
0
0
SEQEND
8
CUT
0
POLYLINE
8
CUT
66
1
70
1
10
0
20
0
30
0
0
VERTEX
8
CUT
10
263.026
20
11.895
30
0
0
VERTEX
8
CUT
10
263.026
20
10.895
30
0
0
VERTEX
8
CUT
10
266.026
20
10.895
30
0
0
VERTEX
8
CUT
10
266.026
20
7.745
30
0
0
VERTEX
8
CUT
10
263.026
20
7.745
30
0
0
VERTEX
8
CUT
10
263.026
20
6.745
30
0
0
VERTEX
8
CUT
10
256.876
20
6.745
30
0
0
VERTEX
8
CUT
10
256.876
20
11.895
30
0
0
SEQEND
8
CUT
0
ENDSEC
0
EOF
