<?xml version="1.0" encoding="UTF-8"?>
<svg xmlns="http://www.w3.org/2000/svg" xmlns:inkscape="http://www.inkscape.org/namespaces/inkscape" width="300mm" height="200mm" viewBox="0 0 300 200">
<title>ARES-1 300×200 板 1/5</title>
<desc>300×200 mm 椴木合板 3 mm｜切縫補償 0.15 mm（已內含）｜榫孔間隙 0.05 mm｜紅＝切穿 藍＝淺劃線 黑＝雕刻</desc>
<g id="ENGRAVE" inkscape:groupmode="layer" inkscape:label="黑 雕刻" fill="#000000" fill-rule="evenodd" stroke="none"><path data-code="B1" d="M120.749 73.179L120.791 71.721L121.124 71.346L121.749 71.346L121.958 71.554L122.041 71.763L122.166 71.471L122.541 71.221L123.083 71.263L123.374 71.513L123.499 71.846L123.499 73.179ZM120.749 69.846L120.791 69.554L123.249 69.554L123.249 68.804L123.499 68.804L123.499 70.721L123.249 70.721L123.249 69.929L121.208 69.929L121.749 70.596L121.749 70.679L121.416 70.679L121.166 70.221ZM121.041 72.804L121.916 72.846L121.916 71.971L121.708 71.679L121.374 71.638L121.083 71.846ZM122.208 72.804L123.208 72.846L123.208 71.971L122.958 71.596L122.458 71.596L122.249 71.804Z"/><path data-code="C1" d="M217.532 10.679L218.209 11.408L218.105 11.565L218.886 11.565L219.616 10.679L219.876 10.94L219.355 11.565L220.97 11.565L220.97 11.825L216.282 11.825L216.282 11.565L217.793 11.565L217.532 11.148L217.272 10.94ZM229.616 11.252L230.032 11.252L230.501 11.408L230.918 11.825L231.23 12.763L231.178 13.544L231.022 14.013L230.553 14.585L230.032 14.794L229.511 14.794L229.095 14.638L228.678 14.221L228.418 13.596L228.366 12.971L228.574 12.033L228.991 11.513ZM223.105 11.304L225.189 11.304L225.189 11.669L223.522 11.669L223.522 12.763L224.928 12.763L224.928 13.127L223.522 13.127L223.522 14.742L223.105 14.742ZM225.501 11.304L227.272 11.356L227.793 11.721L227.949 12.242L227.897 12.606L227.584 13.023L227.324 13.127L227.324 13.283L227.949 14.742L227.48 14.742L226.907 13.283L225.918 13.283L225.918 14.742L225.501 14.742ZM231.907 11.304L232.48 11.356L233.991 14.065L234.043 11.304L234.407 11.304L234.407 14.742L233.939 14.69L232.689 12.45L232.428 12.138L232.324 11.825L232.272 14.742L231.907 14.742ZM234.824 11.304L237.22 11.304L237.22 11.669L236.23 11.669L236.23 14.742L235.814 14.742L235.814 11.669L234.824 11.669ZM229.668 11.617L229.355 11.721L228.939 12.294L228.834 13.388L229.043 14.013L229.407 14.377L230.084 14.429L230.501 14.117L230.657 13.804L230.761 12.71L230.657 12.242L230.449 11.877L230.136 11.669ZM225.97 11.669L225.918 12.919L227.116 12.867L227.428 12.606L227.48 12.085L227.324 11.825L226.907 11.669ZM220.084 12.085L220.449 12.085L220.449 14.846L220.241 15.263L219.616 15.367L219.511 14.95L219.928 15.002L220.084 14.898ZM216.855 12.19L218.47 12.19L218.47 15.002L218.209 15.263L217.845 15.315L217.793 14.95L218.157 14.846L218.157 14.169L217.168 14.169L217.22 15.263L216.803 15.263ZM217.22 12.45L217.168 13.023L218.157 13.023L218.157 12.45ZM219.095 12.398L219.459 12.45L219.459 14.533L219.095 14.533ZM217.22 13.283L217.168 13.856L218.157 13.856L218.157 13.283ZM204.363 67.026L204.655 67.026L205.03 67.151L205.238 67.317L205.488 67.776L205.447 67.942L205.155 67.984L205.113 67.734L204.905 67.442L204.655 67.317L204.322 67.317L204.072 67.442L203.822 67.817L203.738 68.692L203.863 69.151L204.072 69.442L204.322 69.567L204.78 69.526L205.03 69.317L205.155 68.901L205.488 68.942L205.447 69.192L205.238 69.567L204.697 69.859L204.28 69.859L203.863 69.692L203.53 69.276L203.363 68.734L203.363 68.109L203.572 67.526L203.947 67.151ZM206.863 67.067L207.155 67.109L207.155 69.567L207.905 69.567L207.905 69.817L205.988 69.817L205.988 69.567L206.78 69.567L206.78 67.526L206.113 68.067L206.03 68.067L206.03 67.734L206.488 67.484Z"/><path data-code="C2" d="M33.077 149.276L33.369 149.276L33.744 149.401L33.952 149.568L34.202 150.026L34.16 150.193L33.869 150.234L33.827 149.984L33.619 149.693L33.369 149.568L33.035 149.568L32.785 149.693L32.535 150.068L32.452 150.943L32.577 151.401L32.785 151.693L33.035 151.818L33.494 151.776L33.744 151.568L33.869 151.151L34.202 151.193L34.16 151.443L33.952 151.818L33.41 152.109L32.994 152.109L32.577 151.943L32.244 151.526L32.077 150.984L32.077 150.359L32.285 149.776L32.66 149.401ZM35.452 149.276L35.952 149.318L36.285 149.484L36.535 149.818L36.577 150.193L36.535 150.401L36.285 150.818L35.119 151.776L36.577 151.776L36.577 152.068L34.619 152.068L34.619 151.776L35.785 150.901L36.119 150.526L36.202 150.318L36.16 149.818L35.785 149.568L35.41 149.568L35.16 149.693L34.952 150.026L34.952 150.193L34.619 150.109L34.785 149.651L34.994 149.443Z"/><path data-code="C6" d="M225.642 168.496L225.642 168.204L225.767 167.829L225.933 167.621L226.392 167.371L226.558 167.413L226.6 167.704L226.35 167.746L226.058 167.954L225.933 168.204L225.933 168.538L226.058 168.788L226.433 169.038L227.308 169.121L227.767 168.996L228.058 168.788L228.183 168.538L228.142 168.079L227.933 167.829L227.517 167.704L227.558 167.371L227.808 167.413L228.183 167.621L228.475 168.163L228.475 168.579L228.308 168.996L227.892 169.329L227.35 169.496L226.725 169.496L226.142 169.288L225.767 168.913ZM225.642 166.038L225.767 165.371L226.225 164.996L226.35 165.329L226.183 165.371L226.017 165.538L225.933 166.079L226.183 166.454L226.517 166.621L227.1 166.663L226.767 166.371L226.683 166.204L226.642 165.663L226.808 165.288L227.225 164.996L227.683 164.954L228.1 165.121L228.308 165.329L228.475 165.704L228.475 166.163L228.35 166.496L228.058 166.788L227.475 166.996L226.725 166.996L226.142 166.788L225.808 166.496ZM226.933 166.079L227.017 166.329L227.183 166.496L227.475 166.621L227.808 166.579L228.183 166.163L228.183 165.746L227.975 165.413L227.683 165.288L227.392 165.288L227.017 165.538L226.933 165.704Z"/><path data-code="C13" d="M180.267 185.354L180.267 185.021L180.433 184.604L180.725 184.354L181.017 184.229L181.183 184.229L181.225 184.521L180.808 184.688L180.558 185.063L180.642 185.563L180.975 185.854L181.6 185.979L182.1 185.938L182.517 185.771L182.725 185.563L182.808 185.396L182.808 185.021L182.517 184.646L182.142 184.521L182.183 184.229L182.475 184.271L182.767 184.438L183.1 184.979L183.058 185.604L182.808 185.979L182.392 186.229L181.892 186.354L181.225 186.313L180.767 186.146L180.35 185.688ZM180.267 180.604L180.308 180.021L180.433 179.771L180.6 179.604L180.933 179.479L181.392 179.604L181.642 180.021L181.642 179.854L181.85 179.521L182.1 179.396L182.6 179.438L182.933 179.729L183.1 180.229L183.058 180.854L182.85 181.229L182.475 181.479L182.392 181.438L182.35 181.146L182.558 181.063L182.808 180.729L182.767 180.021L182.475 179.771L182.1 179.771L181.892 179.938L181.767 180.313L181.767 180.813L181.475 180.771L181.475 180.188L181.267 179.896L180.85 179.854L180.642 180.021L180.558 180.188L180.558 180.646L180.683 180.896L180.975 181.063L180.933 181.354L180.725 181.313L180.475 181.104ZM180.308 182.854L180.308 182.563L182.808 182.563L182.808 181.813L183.058 181.813L183.058 183.729L182.808 183.729L182.808 182.896L180.767 182.896L181.308 183.604L180.933 183.646L180.767 183.271L180.392 182.854Z"/><path data-code="C7" d="M205.818 182.646L205.818 182.354L205.943 181.979L206.11 181.771L206.568 181.521L206.735 181.563L206.776 181.854L206.526 181.896L206.235 182.104L206.11 182.354L206.11 182.688L206.235 182.938L206.61 183.188L207.485 183.271L207.943 183.146L208.235 182.938L208.36 182.688L208.318 182.229L208.11 181.979L207.693 181.854L207.735 181.521L207.985 181.563L208.36 181.771L208.651 182.313L208.651 182.729L208.485 183.146L208.068 183.479L207.526 183.646L206.901 183.646L206.318 183.438L205.943 183.063ZM205.86 181.021L205.901 179.188L206.151 179.229L206.651 179.646L207.235 179.938L207.985 180.146L208.61 180.188L208.61 180.521L207.901 180.479L207.235 180.271L206.151 179.604L206.151 181.063Z"/><path data-code="C8" d="M284.167 178.722L284.32 178.722L284.517 178.788L284.626 178.875L284.757 179.116L284.736 179.203L284.582 179.225L284.561 179.094L284.451 178.941L284.32 178.875L284.145 178.875L284.014 178.941L283.882 179.138L283.839 179.597L283.904 179.838L284.014 179.991L284.145 180.056L284.386 180.035L284.517 179.925L284.582 179.706L284.757 179.728L284.736 179.86L284.626 180.056L284.342 180.21L284.123 180.21L283.904 180.122L283.729 179.903L283.642 179.619L283.642 179.291L283.751 178.985L283.948 178.788ZM285.414 178.722L285.72 178.744L285.873 178.831L285.982 179.006L285.939 179.269L285.72 179.422L285.982 179.597L286.048 179.75L286.026 179.947L285.917 180.1L285.611 180.21L285.348 180.21L285.195 180.166L285.042 180.078L284.932 179.925L284.932 179.728L284.998 179.597L285.129 179.488L285.261 179.444L285.064 179.313L284.998 179.16L285.02 178.963L285.151 178.81ZM285.457 178.853L285.282 178.897L285.217 178.963L285.195 179.181L285.282 179.269L285.501 179.356L285.72 179.269L285.807 179.181L285.829 179.072L285.807 178.985L285.72 178.897ZM285.479 179.51L285.173 179.641L285.107 179.75L285.107 179.881L285.173 179.991L285.304 180.056L285.676 180.056L285.851 179.925L285.851 179.728L285.742 179.619Z"/><path data-code="C9" d="M286.681 190.418L286.681 190.264L286.747 190.068L286.834 189.958L287.075 189.827L287.162 189.849L287.184 190.002L287.053 190.024L286.9 190.133L286.834 190.264L286.834 190.439L286.9 190.571L287.097 190.702L287.556 190.746L287.797 190.68L287.95 190.571L288.015 190.439L287.994 190.199L287.884 190.068L287.665 190.002L287.687 189.827L287.819 189.849L288.015 189.958L288.169 190.243L288.169 190.461L288.081 190.68L287.862 190.855L287.578 190.943L287.25 190.943L286.944 190.833L286.747 190.636ZM286.681 189.236L286.681 189.039L286.769 188.799L286.878 188.689L287.053 188.602L287.315 188.558L287.644 188.58L287.928 188.689L288.103 188.864L288.169 189.061L288.147 189.346L288.059 189.499L287.928 189.586L287.862 189.586L287.84 189.433L287.928 189.411L288.015 189.28L288.015 189.018L287.884 188.843L287.665 188.755L287.403 188.733L287.578 188.886L287.622 188.974L287.644 189.258L287.578 189.433L287.359 189.608L287.053 189.63L286.9 189.564L286.725 189.368ZM286.834 189.171L286.965 189.411L287.075 189.455L287.272 189.455L287.403 189.389L287.49 189.236L287.49 188.996L287.315 188.799L287.053 188.777L286.878 188.908Z"/><path data-code="C10" d="M223.898 191.981L223.898 191.806L223.985 191.588L224.138 191.456L224.291 191.391L224.379 191.391L224.401 191.544L224.182 191.631L224.051 191.828L224.094 192.091L224.269 192.244L224.598 192.309L224.86 192.288L225.079 192.2L225.188 192.091L225.232 192.003L225.232 191.806L225.079 191.609L224.882 191.544L224.904 191.391L225.057 191.413L225.21 191.5L225.385 191.784L225.363 192.113L225.232 192.309L225.013 192.441L224.751 192.506L224.401 192.484L224.16 192.397L223.941 192.156ZM223.898 189.488L223.898 189.334L223.963 189.138L224.116 188.984L224.488 188.853L224.816 188.853L225.166 188.984L225.319 189.138L225.385 189.313L225.385 189.488L225.319 189.663L225.166 189.816L224.794 189.947L224.488 189.947L224.226 189.881L224.007 189.728ZM223.919 190.669L223.919 190.516L225.232 190.516L225.232 190.122L225.363 190.122L225.363 191.128L225.232 191.128L225.232 190.691L224.16 190.691L224.444 191.063L224.248 191.084L224.16 190.888L223.963 190.669ZM224.051 189.509L224.16 189.663L224.313 189.728L224.86 189.75L225.166 189.619L225.232 189.531L225.254 189.378L225.188 189.203L225.035 189.094L224.882 189.05L224.423 189.05L224.182 189.138L224.073 189.247Z"/><path data-code="C11" d="M236.773 191.981L236.773 191.806L236.86 191.588L237.014 191.456L237.167 191.391L237.254 191.391L237.276 191.544L237.057 191.631L236.926 191.828L236.97 192.091L237.145 192.244L237.473 192.309L237.735 192.288L237.954 192.2L238.064 192.091L238.107 192.003L238.107 191.806L237.954 191.609L237.757 191.544L237.779 191.391L237.932 191.413L238.085 191.5L238.26 191.784L238.239 192.113L238.107 192.309L237.889 192.441L237.626 192.506L237.276 192.484L237.035 192.397L236.817 192.156ZM236.795 190.669L236.795 190.516L238.107 190.516L238.107 190.122L238.239 190.122L238.239 191.128L238.107 191.128L238.107 190.691L237.035 190.691L237.32 191.063L237.123 191.084L237.035 190.888L236.839 190.669ZM236.795 189.4L236.795 189.269L238.107 189.269L238.107 188.853L238.239 188.853L238.239 189.859L238.107 189.859L238.107 189.444L237.035 189.444L237.32 189.794L237.32 189.838L237.145 189.838L236.992 189.575Z"/><path data-code="N4" d="M248.239 191.828L248.239 191.609L248.283 191.566L249.377 190.953L248.239 190.931L248.239 190.778L249.683 190.778L249.661 190.975L248.458 191.653L249.683 191.675L249.683 191.828ZM248.239 189.903L248.239 189.663L249.202 189.663L249.202 189.422L249.355 189.422L249.355 189.663L249.683 189.663L249.683 189.838L249.355 189.838L249.333 190.559L249.224 190.559ZM248.392 189.838L249.114 190.319L249.202 190.341L249.202 189.838Z"/><path data-code="N5" d="M259.889 191.828L259.889 191.609L259.933 191.566L261.027 190.953L259.889 190.931L259.889 190.778L261.333 190.778L261.311 190.975L260.108 191.653L261.333 191.675L261.333 191.828ZM259.889 190.406L259.889 189.553L260.042 189.575L260.042 190.275L260.196 190.297L260.502 190.297L260.371 190.1L260.349 189.947L260.436 189.663L260.567 189.531L260.721 189.466L260.983 189.466L261.158 189.553L261.267 189.663L261.355 189.881L261.355 190.122L261.267 190.341L261.136 190.472L261.005 190.516L260.961 190.363L261.071 190.319L261.18 190.188L261.202 189.859L261.071 189.684L260.961 189.641L260.677 189.663L260.524 189.838L260.502 190.056L260.567 190.209L260.699 190.297L260.677 190.45Z"/></g><g id="SCORE" inkscape:groupmode="layer" inkscape:label="藍 劃線" stroke="#0000FF" stroke-width="0.1" fill="none"><path data-code="C1" d="M266.725 157.075L254.725 157.075L254.725 135.075L266.725 135.075ZM253.225 156.575L236.225 156.575L236.225 134.575L253.225 134.575ZM280.725 149.075L269.725 149.075L269.725 127.075L280.725 127.075ZM246.225 114.575L236.225 114.575L236.225 94.575L246.225 94.575ZM277.725 118.575L247.725 118.575L247.725 70.575L277.725 70.575Z"/></g><g id="CUT" inkscape:groupmode="layer" inkscape:label="紅 切穿" stroke="#FF0000" stroke-width="0.1" fill="none"><g data-code="B1"><path d="M97.581 25.5L96.98 25.405L96.444 25.132L96.018 24.706L95.745 24.17L95.65 23.569L95.65 21.231L95.745 20.63L96.018 20.094L96.444 19.668L96.98 19.395L97.581 19.3L119.569 19.3L120.17 19.395L120.706 19.668L121.132 20.094L121.405 20.63L121.5 21.231L121.5 23.569L121.405 24.17L121.132 24.706L120.706 25.132L120.17 25.405L119.569 25.5Z"/><path d="M115.575 123.698L114.871 123.537L114.306 123.087L113.993 122.436L113.993 121.714L114.306 121.063L114.871 120.613L115.575 120.452L116.279 120.613L116.844 121.063L117.157 121.714L117.157 122.436L116.844 123.087L116.279 123.537Z"/><path d="M55.575 123.698L54.871 123.537L54.306 123.087L53.993 122.436L53.993 121.714L54.306 121.063L54.871 120.613L55.575 120.452L56.279 120.613L56.844 121.063L57.157 121.714L57.157 122.436L56.844 123.087L56.279 123.537Z"/><path d="M115.575 10.698L114.871 10.537L114.306 10.087L113.993 9.436L113.993 8.714L114.306 8.063L114.871 7.613L115.575 7.452L116.279 7.613L116.844 8.063L117.157 8.714L117.157 9.436L116.844 10.087L116.279 10.537Z"/><path d="M55.575 10.698L54.871 10.537L54.306 10.087L53.993 9.436L53.993 8.714L54.306 8.063L54.871 7.613L55.575 7.452L56.279 7.613L56.844 8.063L57.157 8.714L57.157 9.436L56.844 10.087L56.279 10.537Z"/><path d="M16.075 37.198L15.371 37.037L14.806 36.587L14.493 35.936L14.493 35.214L14.806 34.563L15.371 34.113L16.075 33.952L16.779 34.113L17.344 34.563L17.657 35.214L17.657 35.936L17.344 36.587L16.779 37.037Z"/><path d="M16.075 97.198L15.371 97.037L14.806 96.587L14.493 95.936L14.493 95.214L14.806 94.563L15.371 94.113L16.075 93.952L16.779 94.113L17.344 94.563L17.657 95.214L17.657 95.936L17.344 96.587L16.779 97.037Z"/><path d="M26.15 120.6L26.15 123.55L16.2 123.55L16.2 120.6Z"/><path d="M90.55 120.6L90.55 123.55L80.6 123.55L80.6 120.6Z"/><path d="M154.95 120.6L154.95 123.55L145 123.55L145 120.6Z"/><path d="M26.15 7.6L26.15 10.55L16.2 10.55L16.2 7.6Z"/><path d="M90.55 7.6L90.55 10.55L80.6 10.55L80.6 7.6Z"/><path d="M154.95 7.6L154.95 10.55L145 10.55L145 7.6Z"/><path d="M163.05 14.6L163.05 22.55L160.1 22.55L160.1 14.6Z"/><path d="M11.05 97.267L11.05 107.217L8.1 107.217L8.1 97.267Z"/><path d="M11.05 60.6L11.05 70.55L8.1 70.55L8.1 60.6Z"/><path d="M11.05 23.933L11.05 33.883L8.1 33.883L8.1 23.933Z"/><path d="M75.55 24.9L75.55 34.85L72.6 34.85L72.6 24.9Z"/><path d="M75.55 96.3L75.55 106.25L72.6 106.25L72.6 96.3Z"/><path d="M118.8 15L118.8 17.95L108.85 17.95L108.85 15Z"/><path d="M91.3 15L91.3 17.95L81.35 17.95L81.35 15Z"/><path d="M118.8 113.2L118.8 116.15L108.85 116.15L108.85 113.2Z"/><path d="M91.3 113.2L91.3 116.15L81.35 116.15L81.35 113.2Z"/><path d="M166.15 9.07L166.15 122.08L166.012 123.13L165.605 124.113L164.957 124.957L164.113 125.605L163.13 126.012L162.08 126.15L9.07 126.15L8.02 126.012L7.037 125.605L6.193 124.957L5.545 124.113L5.138 123.13L5 122.08L5 9.07L5.138 8.02L5.545 7.037L6.193 6.193L7.037 5.545L8.02 5.138L9.07 5L162.08 5L163.13 5.138L164.113 5.545L164.957 6.193L165.605 7.037L166.012 8.02Z"/></g><g data-code="C1"><path d="M272.601 114.975L272.717 114.392L273.048 113.898L273.542 113.567L274.125 113.451L274.708 113.567L275.202 113.898L275.533 114.392L275.649 114.975L275.533 115.558L275.202 116.052L274.708 116.383L274.125 116.499L273.542 116.383L273.048 116.052L272.717 115.558Z"/><path d="M272.601 74.175L272.717 73.592L273.048 73.098L273.542 72.767L274.125 72.651L274.708 72.767L275.202 73.098L275.533 73.592L275.649 74.175L275.533 74.758L275.202 75.252L274.708 75.583L274.125 75.699L273.542 75.583L273.048 75.252L272.717 74.758Z"/><path d="M249.801 114.975L249.917 114.392L250.248 113.898L250.742 113.567L251.325 113.451L251.908 113.567L252.402 113.898L252.733 114.392L252.849 114.975L252.733 115.558L252.402 116.052L251.908 116.383L251.325 116.499L250.742 116.383L250.248 116.052L249.917 115.558Z"/><path d="M249.801 74.175L249.917 73.592L250.248 73.098L250.742 72.767L251.325 72.651L251.908 72.767L252.402 73.098L252.733 73.592L252.849 74.175L252.733 74.758L252.402 75.252L251.908 75.583L251.325 75.699L250.742 75.583L250.248 75.252L249.917 74.758Z"/><path d="M255.102 12.575L255.263 11.871L255.713 11.306L256.364 10.993L257.086 10.993L257.737 11.306L258.187 11.871L258.348 12.575L258.187 13.279L257.737 13.844L257.086 14.157L256.364 14.157L255.713 13.844L255.263 13.279Z"/><path d="M195.102 12.575L195.263 11.871L195.713 11.306L196.364 10.993L197.086 10.993L197.737 11.306L198.187 11.871L198.348 12.575L198.187 13.279L197.737 13.844L197.086 14.157L196.364 14.157L195.713 13.844L195.263 13.279Z"/><path d="M265.7 61.55L262.75 61.55L262.75 53.6L265.7 53.6Z"/><path d="M220.2 155.1L217.25 155.1L217.25 152.15L220.2 152.15Z"/><path d="M220.2 124.5L217.25 124.5L217.25 121.55L220.2 121.55Z"/><path d="M236.2 43.6L233.25 43.6L233.25 40.65L236.2 40.65Z"/><path d="M236.2 13L233.25 13L233.25 10.05L236.2 10.05Z"/><path d="M281.8 157.15L268.467 157.15L268.467 160.15L258.317 160.15L258.317 157.15L231.8 157.15L231.8 160.15L221.65 160.15L221.65 157.15L195.133 157.15L195.133 160.15L184.983 160.15L184.983 157.15L171.65 157.15L171.65 147.25L236.65 147.25L236.65 129.4L171.65 129.4L171.65 106.275L168.65 106.275L168.65 96.125L171.65 96.125L171.65 69.025L168.65 69.025L168.65 58.875L171.65 58.875L171.65 31.775L168.65 31.775L168.65 21.625L171.65 21.625L171.65 8L184.983 8L184.983 5L195.133 5L195.133 8L221.65 8L221.65 5L231.8 5L231.8 8L258.317 8L258.317 5L268.467 5L268.467 8L281.8 8L281.8 17.9L216.8 17.9L216.8 35.75L281.8 35.75L281.8 58.875L284.8 58.875L284.8 69.025L281.8 69.025L281.8 96.125L284.8 96.125L284.8 106.275L281.8 106.275L281.8 133.375L284.8 133.375L284.8 143.525L281.8 143.525Z"/></g><g data-code="C2"><path d="M33.949 176.025L33.809 174.958L33.397 173.963L32.741 173.109L31.887 172.453L30.892 172.041L29.825 171.901L28.758 172.041L27.763 172.453L26.909 173.109L26.253 173.963L25.841 174.958L25.701 176.025L25.841 177.092L26.253 178.087L26.909 178.941L27.763 179.597L28.758 180.009L29.825 180.149L30.892 180.009L31.887 179.597L32.741 178.941L33.397 178.087L33.809 177.092Z"/><path d="M39.948 176.025L39.787 175.321L39.337 174.756L38.686 174.443L37.964 174.443L37.313 174.756L36.863 175.321L36.702 176.025L36.863 176.729L37.313 177.294L37.964 177.607L38.686 177.607L39.337 177.294L39.787 176.729Z"/><path d="M22.948 176.025L22.787 175.321L22.337 174.756L21.686 174.443L20.964 174.443L20.313 174.756L19.863 175.321L19.702 176.025L19.863 176.729L20.313 177.294L20.964 177.607L21.686 177.607L22.337 177.294L22.787 176.729Z"/><path d="M147.45 175.931L147.35 175.3L147.063 174.735L146.615 174.287L146.05 174L145.419 173.9L137.231 173.9L136.6 174L136.035 174.287L135.587 174.735L135.3 175.3L135.2 175.931L135.2 176.119L135.3 176.75L135.587 177.315L136.035 177.763L136.6 178.05L137.231 178.15L145.419 178.15L146.05 178.05L146.615 177.763L147.063 177.315L147.35 176.75L147.45 176.119Z"/><path d="M61.975 186.225L71.925 186.225L71.925 183.275L61.975 183.275Z"/><path d="M99.225 186.225L109.175 186.225L109.175 183.275L99.225 183.275Z"/><path d="M136.475 186.225L146.425 186.225L146.425 183.275L136.475 183.275Z"/><path d="M8.1 179.844L11.05 179.844L11.05 169.894L8.1 169.894Z"/><path d="M8.1 151.081L11.05 151.081L11.05 141.131L8.1 141.131Z"/><path d="M160.1 179.844L163.05 179.844L163.05 169.894L160.1 169.894Z"/><path d="M160.1 151.081L163.05 151.081L163.05 141.131L160.1 141.131Z"/><path d="M57.808 165.7L67.758 165.7L67.758 162.75L57.808 162.75Z"/><path d="M96.725 165.7L106.675 165.7L106.675 162.75L96.725 162.75Z"/><path d="M135.642 165.7L145.592 165.7L145.592 162.75L135.642 162.75Z"/><path d="M5 189.325L166.15 189.325L166.15 131.65L155.05 131.65L155.05 128.65L144.9 128.65L144.9 131.65L117.2 131.65L117.2 138.5L118.4 138.5L118.4 140.95L117.2 140.95L117.2 144.65L113.95 144.65L113.95 140.95L112.75 140.95L112.75 138.5L113.95 138.5L113.95 131.65L90.65 131.65L90.65 128.65L80.5 128.65L80.5 131.65L57.2 131.65L57.2 138.5L58.4 138.5L58.4 140.95L57.2 140.95L57.2 144.65L53.95 144.65L53.95 140.95L52.75 140.95L52.75 138.5L53.95 138.5L53.95 131.65L26.25 131.65L26.25 128.65L16.1 128.65L16.1 131.65L5 131.65Z"/></g><g data-code="C6"><path d="M285.55 162.65L285.55 168.8L271.092 168.8L271.092 171.8L260.942 171.8L260.942 168.8L232.175 168.8L232.175 171.8L222.025 171.8L222.025 168.8L193.258 168.8L193.258 171.8L183.108 171.8L183.108 168.8L168.65 168.8L168.65 162.65Z"/></g><g data-code="C13"><path d="M190.8 174.3L190.8 191.45L168.65 191.45L168.65 174.3Z"/></g><g data-code="C7"><path d="M213.975 174.3L213.975 177.3L216.975 177.3L216.975 185.45L213.975 185.45L213.975 188.45L193.3 188.45L193.3 174.3Z"/></g><g data-code="H12"><path d="M248.367 181.544L247.818 179.752L246.755 178.179L245.198 176.815L243.21 175.71L240.867 174.904L238.258 174.428L235.484 174.3L232.649 174.523L229.863 175.09L227.231 175.978L224.855 177.155L222.824 178.575L221.218 180.185L220.098 181.925L219.509 183.73L219.475 185.605Z"/></g><g data-code="H15"><path d="M279.759 185.605L279.725 183.73L279.137 181.925L278.016 180.185L276.41 178.575L274.38 177.155L272.003 175.978L269.371 175.09L266.585 174.523L263.751 174.3L260.976 174.428L258.367 174.904L256.024 175.71L254.036 176.815L252.48 178.179L251.416 179.752L250.867 181.544Z"/></g><g data-code="C8"><path d="M287.409 181.675L286.409 181.675L286.409 184.675L283.259 184.675L283.259 181.675L282.259 181.675L282.259 174.3L287.409 174.3Z"/></g><g data-code="C9"><path d="M289.634 187.175L289.634 188.175L292.634 188.175L292.634 191.325L289.634 191.325L289.634 192.325L282.259 192.325L282.259 187.175Z"/></g><g data-code="C10"><path d="M226.851 188.105L226.851 189.105L229.851 189.105L229.851 192.255L226.851 192.255L226.851 193.255L219.475 193.255L219.475 188.105Z"/></g><g data-code="C11"><path d="M239.726 188.105L239.726 189.105L242.726 189.105L242.726 192.255L239.726 192.255L239.726 193.255L232.351 193.255L232.351 188.105Z"/></g><g data-code="N4"><path d="M251.376 188.105L251.376 189.105L254.376 189.105L254.376 192.255L251.376 192.255L251.376 193.255L245.226 193.255L245.226 188.105Z"/></g><g data-code="N5"><path d="M263.026 188.105L263.026 189.105L266.026 189.105L266.026 192.255L263.026 192.255L263.026 193.255L256.876 193.255L256.876 188.105Z"/></g></g></svg>
