0
SECTION
2
HEADER
9
$ACADVER
1
AC1009
9
$INSUNITS
70
4
0
ENDSEC
0
SECTION
2
TABLES
0
TABLE
2
LAYER
70
3
0
LAYER
2
CUT
70
0
62
1
6
CONTINUOUS
0
LAYER
2
SCORE
70
0
62
5
6
CONTINUOUS
0
LAYER
2
ENGRAVE
70
0
62
7
6
CONTINUOUS
0
ENDTAB
0
ENDSEC
0
SECTION
2
ENTITIES
0
POLYLINE
8
ENGRAVE
66
1
70
1
10
0
20
0
30
0
0
VERTEX
8
ENGRAVE
10
75.622
20
251.614
30
0
0
VERTEX
8
ENGRAVE
10
75.914
20
251.614
30
0
0
VERTEX
8
ENGRAVE
10
76.289
20
251.489
30
0
0
VERTEX
8
ENGRAVE
10
76.497
20
251.322
30
0
0
VERTEX
8
ENGRAVE
10
76.747
20
250.864
30
0
0
VERTEX
8
ENGRAVE
10
76.706
20
250.697
30
0
0
VERTEX
8
ENGRAVE
10
76.414
20
250.655
30
0
0
VERTEX
8
ENGRAVE
10
76.372
20
250.905
30
0
0
VERTEX
8
ENGRAVE
10
76.164
20
251.197
30
0
0
VERTEX
8
ENGRAVE
10
75.914
20
251.322
30
0
0
VERTEX
8
ENGRAVE
10
75.581
20
251.322
30
0
0
VERTEX
8
ENGRAVE
10
75.331
20
251.197
30
0
0
VERTEX
8
ENGRAVE
10
75.081
20
250.822
30
0
0
VERTEX
8
ENGRAVE
10
74.997
20
249.947
30
0
0
VERTEX
8
ENGRAVE
10
75.122
20
249.489
30
0
0
VERTEX
8
ENGRAVE
10
75.331
20
249.197
30
0
0
VERTEX
8
ENGRAVE
10
75.581
20
249.072
30
0
0
VERTEX
8
ENGRAVE
10
76.039
20
249.114
30
0
0
VERTEX
8
ENGRAVE
10
76.289
20
249.322
30
0
0
VERTEX
8
ENGRAVE
10
76.414
20
249.739
30
0
0
VERTEX
8
ENGRAVE
10
76.747
20
249.697
30
0
0
VERTEX
8
ENGRAVE
10
76.706
20
249.447
30
0
0
VERTEX
8
ENGRAVE
10
76.497
20
249.072
30
0
0
VERTEX
8
ENGRAVE
10
75.956
20
248.780
30
0
0
VERTEX
8
ENGRAVE
10
75.539
20
248.780
30
0
0
VERTEX
8
ENGRAVE
10
75.122
20
248.947
30
0
0
VERTEX
8
ENGRAVE
10
74.789
20
249.364
30
0
0
VERTEX
8
ENGRAVE
10
74.622
20
249.905
30
0
0
VERTEX
8
ENGRAVE
10
74.622
20
250.530
30
0
0
VERTEX
8
ENGRAVE
10
74.831
20
251.114
30
0
0
VERTEX
8
ENGRAVE
10
75.206
20
251.489
30
0
0
SEQEND
8
ENGRAVE
0
POLYLINE
8
ENGRAVE
66
1
70
1
10
0
20
0
30
0
0
VERTEX
8
ENGRAVE
10
78.331
20
251.572
30
0
0
VERTEX
8
ENGRAVE
10
78.747
20
251.572
30
0
0
VERTEX
8
ENGRAVE
10
78.747
20
249.739
30
0
0
VERTEX
8
ENGRAVE
10
79.206
20
249.739
30
0
0
VERTEX
8
ENGRAVE
10
79.206
20
249.447
30
0
0
VERTEX
8
ENGRAVE
10
78.747
20
249.447
30
0
0
VERTEX
8
ENGRAVE
10
78.747
20
248.822
30
0
0
VERTEX
8
ENGRAVE
10
78.414
20
248.822
30
0
0
VERTEX
8
ENGRAVE
10
78.414
20
249.447
30
0
0
VERTEX
8
ENGRAVE
10
77.081
20
249.447
30
0
0
VERTEX
8
ENGRAVE
10
77.081
20
249.739
30
0
0
SEQEND
8
ENGRAVE
0
POLYLINE
8
ENGRAVE
66
1
70
1
10
0
20
0
30
0
0
VERTEX
8
ENGRAVE
10
78.414
20
251.239
30
0
0
VERTEX
8
ENGRAVE
10
78.247
20
251.072
30
0
0
VERTEX
8
ENGRAVE
10
77.456
20
249.739
30
0
0
VERTEX
8
ENGRAVE
10
78.414
20
249.739
30
0
0
SEQEND
8
ENGRAVE
0
POLYLINE
8
ENGRAVE
66
1
70
1
10
0
20
0
30
0
0
VERTEX
8
ENGRAVE
10
193.622
20
251.614
30
0
0
VERTEX
8
ENGRAVE
10
193.914
20
251.614
30
0
0
VERTEX
8
ENGRAVE
10
194.289
20
251.489
30
0
0
VERTEX
8
ENGRAVE
10
194.497
20
251.322
30
0
0
VERTEX
8
ENGRAVE
10
194.747
20
250.864
30
0
0
VERTEX
8
ENGRAVE
10
194.706
20
250.697
30
0
0
VERTEX
8
ENGRAVE
10
194.414
20
250.655
30
0
0
VERTEX
8
ENGRAVE
10
194.372
20
250.905
30
0
0
VERTEX
8
ENGRAVE
10
194.164
20
251.197
30
0
0
VERTEX
8
ENGRAVE
10
193.914
20
251.322
30
0
0
VERTEX
8
ENGRAVE
10
193.581
20
251.322
30
0
0
VERTEX
8
ENGRAVE
10
193.331
20
251.197
30
0
0
VERTEX
8
ENGRAVE
10
193.081
20
250.822
30
0
0
VERTEX
8
ENGRAVE
10
192.997
20
249.947
30
0
0
VERTEX
8
ENGRAVE
10
193.122
20
249.489
30
0
0
VERTEX
8
ENGRAVE
10
193.331
20
249.197
30
0
0
VERTEX
8
ENGRAVE
10
193.581
20
249.072
30
0
0
VERTEX
8
ENGRAVE
10
194.039
20
249.114
30
0
0
VERTEX
8
ENGRAVE
10
194.289
20
249.322
30
0
0
VERTEX
8
ENGRAVE
10
194.414
20
249.739
30
0
0
VERTEX
8
ENGRAVE
10
194.747
20
249.697
30
0
0
VERTEX
8
ENGRAVE
10
194.706
20
249.447
30
0
0
VERTEX
8
ENGRAVE
10
194.497
20
249.072
30
0
0
VERTEX
8
ENGRAVE
10
193.956
20
248.780
30
0
0
VERTEX
8
ENGRAVE
10
193.539
20
248.780
30
0
0
VERTEX
8
ENGRAVE
10
193.122
20
248.947
30
0
0
VERTEX
8
ENGRAVE
10
192.789
20
249.364
30
0
0
VERTEX
8
ENGRAVE
10
192.622
20
249.905
30
0
0
VERTEX
8
ENGRAVE
10
192.622
20
250.530
30
0
0
VERTEX
8
ENGRAVE
10
192.831
20
251.114
30
0
0
VERTEX
8
ENGRAVE
10
193.206
20
251.489
30
0
0
SEQEND
8
ENGRAVE
0
POLYLINE
8
ENGRAVE
66
1
70
1
10
0
20
0
30
0
0
VERTEX
8
ENGRAVE
10
196.331
20
251.572
30
0
0
VERTEX
8
ENGRAVE
10
196.747
20
251.572
30
0
0
VERTEX
8
ENGRAVE
10
196.747
20
249.739
30
0
0
VERTEX
8
ENGRAVE
10
197.206
20
249.739
30
0
0
VERTEX
8
ENGRAVE
10
197.206
20
249.447
30
0
0
VERTEX
8
ENGRAVE
10
196.747
20
249.447
30
0
0
VERTEX
8
ENGRAVE
10
196.747
20
248.822
30
0
0
VERTEX
8
ENGRAVE
10
196.414
20
248.822
30
0
0
VERTEX
8
ENGRAVE
10
196.414
20
249.447
30
0
0
VERTEX
8
ENGRAVE
10
195.081
20
249.447
30
0
0
VERTEX
8
ENGRAVE
10
195.081
20
249.739
30
0
0
SEQEND
8
ENGRAVE
0
POLYLINE
8
ENGRAVE
66
1
70
1
10
0
20
0
30
0
0
VERTEX
8
ENGRAVE
10
196.414
20
251.239
30
0
0
VERTEX
8
ENGRAVE
10
196.247
20
251.072
30
0
0
VERTEX
8
ENGRAVE
10
195.456
20
249.739
30
0
0
VERTEX
8
ENGRAVE
10
196.414
20
249.739
30
0
0
SEQEND
8
ENGRAVE
0
POLYLINE
8
ENGRAVE
66
1
70
1
10
0
20
0
30
0
0
VERTEX
8
ENGRAVE
10
311.622
20
251.614
30
0
0
VERTEX
8
ENGRAVE
10
311.914
20
251.614
30
0
0
VERTEX
8
ENGRAVE
10
312.289
20
251.489
30
0
0
VERTEX
8
ENGRAVE
10
312.497
20
251.322
30
0
0
VERTEX
8
ENGRAVE
10
312.747
20
250.864
30
0
0
VERTEX
8
ENGRAVE
10
312.706
20
250.697
30
0
0
VERTEX
8
ENGRAVE
10
312.414
20
250.655
30
0
0
VERTEX
8
ENGRAVE
10
312.372
20
250.905
30
0
0
VERTEX
8
ENGRAVE
10
312.164
20
251.197
30
0
0
VERTEX
8
ENGRAVE
10
311.914
20
251.322
30
0
0
VERTEX
8
ENGRAVE
10
311.581
20
251.322
30
0
0
VERTEX
8
ENGRAVE
10
311.331
20
251.197
30
0
0
VERTEX
8
ENGRAVE
10
311.081
20
250.822
30
0
0
VERTEX
8
ENGRAVE
10
310.997
20
249.947
30
0
0
VERTEX
8
ENGRAVE
10
311.122
20
249.489
30
0
0
VERTEX
8
ENGRAVE
10
311.331
20
249.197
30
0
0
VERTEX
8
ENGRAVE
10
311.581
20
249.072
30
0
0
VERTEX
8
ENGRAVE
10
312.039
20
249.114
30
0
0
VERTEX
8
ENGRAVE
10
312.289
20
249.322
30
0
0
VERTEX
8
ENGRAVE
10
312.414
20
249.739
30
0
0
VERTEX
8
ENGRAVE
10
312.747
20
249.697
30
0
0
VERTEX
8
ENGRAVE
10
312.706
20
249.447
30
0
0
VERTEX
8
ENGRAVE
10
312.497
20
249.072
30
0
0
VERTEX
8
ENGRAVE
10
311.956
20
248.780
30
0
0
VERTEX
8
ENGRAVE
10
311.539
20
248.780
30
0
0
VERTEX
8
ENGRAVE
10
311.122
20
248.947
30
0
0
VERTEX
8
ENGRAVE
10
310.789
20
249.364
30
0
0
VERTEX
8
ENGRAVE
10
310.622
20
249.905
30
0
0
VERTEX
8
ENGRAVE
10
310.622
20
250.530
30
0
0
VERTEX
8
ENGRAVE
10
310.831
20
251.114
30
0
0
VERTEX
8
ENGRAVE
10
311.206
20
251.489
30
0
0
SEQEND
8
ENGRAVE
0
POLYLINE
8
ENGRAVE
66
1
70
1
10
0
20
0
30
0
0
VERTEX
8
ENGRAVE
10
314.331
20
251.572
30
0
0
VERTEX
8
ENGRAVE
10
314.747
20
251.572
30
0
0
VERTEX
8
ENGRAVE
10
314.747
20
249.739
30
0
0
VERTEX
8
ENGRAVE
10
315.206
20
249.739
30
0
0
VERTEX
8
ENGRAVE
10
315.206
20
249.447
30
0
0
VERTEX
8
ENGRAVE
10
314.747
20
249.447
30
0
0
VERTEX
8
ENGRAVE
10
314.747
20
248.822
30
0
0
VERTEX
8
ENGRAVE
10
314.414
20
248.822
30
0
0
VERTEX
8
ENGRAVE
10
314.414
20
249.447
30
0
0
VERTEX
8
ENGRAVE
10
313.081
20
249.447
30
0
0
VERTEX
8
ENGRAVE
10
313.081
20
249.739
30
0
0
SEQEND
8
ENGRAVE
0
POLYLINE
8
ENGRAVE
66
1
70
1
10
0
20
0
30
0
0
VERTEX
8
ENGRAVE
10
314.414
20
251.239
30
0
0
VERTEX
8
ENGRAVE
10
314.247
20
251.072
30
0
0
VERTEX
8
ENGRAVE
10
313.456
20
249.739
30
0
0
VERTEX
8
ENGRAVE
10
314.414
20
249.739
30
0
0
SEQEND
8
ENGRAVE
0
POLYLINE
8
ENGRAVE
66
1
70
1
10
0
20
0
30
0
0
VERTEX
8
ENGRAVE
10
435.075
20
280.925
30
0
0
VERTEX
8
ENGRAVE
10
434.635
20
283.706
30
0
0
VERTEX
8
ENGRAVE
10
433.356
20
286.215
30
0
0
VERTEX
8
ENGRAVE
10
431.365
20
288.206
30
0
0
VERTEX
8
ENGRAVE
10
428.856
20
289.485
30
0
0
VERTEX
8
ENGRAVE
10
426.075
20
289.925
30
0
0
VERTEX
8
ENGRAVE
10
372.075
20
289.925
30
0
0
VERTEX
8
ENGRAVE
10
369.294
20
289.485
30
0
0
VERTEX
8
ENGRAVE
10
366.785
20
288.206
30
0
0
VERTEX
8
ENGRAVE
10
364.794
20
286.215
30
0
0
VERTEX
8
ENGRAVE
10
363.515
20
283.706
30
0
0
VERTEX
8
ENGRAVE
10
363.075
20
280.925
30
0
0
VERTEX
8
ENGRAVE
10
363.075
20
272.925
30
0
0
VERTEX
8
ENGRAVE
10
363.515
20
270.144
30
0
0
VERTEX
8
ENGRAVE
10
364.794
20
267.635
30
0
0
VERTEX
8
ENGRAVE
10
366.785
20
265.644
30
0
0
VERTEX
8
ENGRAVE
10
369.294
20
264.365
30
0
0
VERTEX
8
ENGRAVE
10
372.075
20
263.925
30
0
0
VERTEX
8
ENGRAVE
10
426.075
20
263.925
30
0
0
VERTEX
8
ENGRAVE
10
428.856
20
264.365
30
0
0
VERTEX
8
ENGRAVE
10
431.365
20
265.644
30
0
0
VERTEX
8
ENGRAVE
10
433.356
20
267.635
30
0
0
VERTEX
8
ENGRAVE
10
434.635
20
270.144
30
0
0
VERTEX
8
ENGRAVE
10
435.075
20
272.925
30
0
0
SEQEND
8
ENGRAVE
0
POLYLINE
8
ENGRAVE
66
1
70
1
10
0
20
0
30
0
0
VERTEX
8
ENGRAVE
10
230.160
20
203.114
30
0
0
VERTEX
8
ENGRAVE
10
230.494
20
203.114
30
0
0
VERTEX
8
ENGRAVE
10
230.494
20
201.989
30
0
0
VERTEX
8
ENGRAVE
10
231.785
20
201.989
30
0
0
VERTEX
8
ENGRAVE
10
231.785
20
203.114
30
0
0
VERTEX
8
ENGRAVE
10
232.119
20
203.114
30
0
0
VERTEX
8
ENGRAVE
10
232.119
20
200.364
30
0
0
VERTEX
8
ENGRAVE
10
231.785
20
200.364
30
0
0
VERTEX
8
ENGRAVE
10
231.785
20
201.656
30
0
0
VERTEX
8
ENGRAVE
10
230.494
20
201.656
30
0
0
VERTEX
8
ENGRAVE
10
230.494
20
200.364
30
0
0
VERTEX
8
ENGRAVE
10
230.160
20
200.364
30
0
0
SEQEND
8
ENGRAVE
0
POLYLINE
8
ENGRAVE
66
1
70
1
10
0
20
0
30
0
0
VERTEX
8
ENGRAVE
10
233.660
20
203.114
30
0
0
VERTEX
8
ENGRAVE
10
233.910
20
203.114
30
0
0
VERTEX
8
ENGRAVE
10
233.910
20
200.614
30
0
0
VERTEX
8
ENGRAVE
10
234.702
20
200.614
30
0
0
VERTEX
8
ENGRAVE
10
234.702
20
200.364
30
0
0
VERTEX
8
ENGRAVE
10
232.785
20
200.364
30
0
0
VERTEX
8
ENGRAVE
10
232.785
20
200.614
30
0
0
VERTEX
8
ENGRAVE
10
233.577
20
200.614
30
0
0
VERTEX
8
ENGRAVE
10
233.577
20
202.656
30
0
0
VERTEX
8
ENGRAVE
10
232.910
20
202.114
30
0
0
VERTEX
8
ENGRAVE
10
232.827
20
202.114
30
0
0
VERTEX
8
ENGRAVE
10
232.827
20
202.448
30
0
0
VERTEX
8
ENGRAVE
10
233.327
20
202.739
30
0
0
SEQEND
8
ENGRAVE
0
POLYLINE
8
SCORE
66
1
70
0
10
0
20
0
30
0
0
VERTEX
8
SCORE
10
196.922
20
231.578
30
0
0
VERTEX
8
SCORE
10
195.243
20
229.744
30
0
0
VERTEX
8
SCORE
10
193.729
20
227.772
30
0
0
VERTEX
8
SCORE
10
192.393
20
225.675
30
0
0
VERTEX
8
SCORE
10
191.245
20
223.470
30
0
0
VERTEX
8
SCORE
10
190.294
20
221.173
30
0
0
VERTEX
8
SCORE
10
189.546
20
218.801
30
0
0
VERTEX
8
SCORE
10
189.008
20
216.374
30
0
0
VERTEX
8
SCORE
10
188.683
20
213.909
30
0
0
VERTEX
8
SCORE
10
188.575
20
211.425
30
0
0
VERTEX
8
SCORE
10
188.683
20
208.941
30
0
0
VERTEX
8
SCORE
10
189.008
20
206.476
30
0
0
VERTEX
8
SCORE
10
189.546
20
204.049
30
0
0
VERTEX
8
SCORE
10
190.294
20
201.677
30
0
0
VERTEX
8
SCORE
10
191.245
20
199.380
30
0
0
VERTEX
8
SCORE
10
192.393
20
197.175
30
0
0
VERTEX
8
SCORE
10
193.729
20
195.078
30
0
0
VERTEX
8
SCORE
10
195.243
20
193.106
30
0
0
VERTEX
8
SCORE
10
196.922
20
191.272
30
0
0
VERTEX
8
SCORE
10
198.756
20
189.593
30
0
0
SEQEND
8
SCORE
0
POLYLINE
8
SCORE
66
1
70
0
10
0
20
0
30
0
0
VERTEX
8
SCORE
10
235.394
20
189.593
30
0
0
VERTEX
8
SCORE
10
237.228
20
191.272
30
0
0
VERTEX
8
SCORE
10
238.907
20
193.106
30
0
0
VERTEX
8
SCORE
10
240.421
20
195.078
30
0
0
VERTEX
8
SCORE
10
241.757
20
197.175
30
0
0
VERTEX
8
SCORE
10
242.905
20
199.380
30
0
0
VERTEX
8
SCORE
10
243.856
20
201.677
30
0
0
VERTEX
8
SCORE
10
244.604
20
204.049
30
0
0
VERTEX
8
SCORE
10
245.142
20
206.476
30
0
0
VERTEX
8
SCORE
10
245.467
20
208.941
30
0
0
VERTEX
8
SCORE
10
245.575
20
211.425
30
0
0
VERTEX
8
SCORE
10
245.467
20
213.909
30
0
0
VERTEX
8
SCORE
10
245.142
20
216.374
30
0
0
VERTEX
8
SCORE
10
244.604
20
218.801
30
0
0
VERTEX
8
SCORE
10
243.856
20
221.173
30
0
0
VERTEX
8
SCORE
10
242.905
20
223.470
30
0
0
VERTEX
8
SCORE
10
241.757
20
225.675
30
0
0
VERTEX
8
SCORE
10
240.421
20
227.772
30
0
0
VERTEX
8
SCORE
10
238.907
20
229.744
30
0
0
VERTEX
8
SCORE
10
237.228
20
231.578
30
0
0
SEQEND
8
SCORE
0
POLYLINE
8
ENGRAVE
66
1
70
1
10
0
20
0
30
0
0
VERTEX
8
ENGRAVE
10
316.160
20
203.114
30
0
0
VERTEX
8
ENGRAVE
10
316.494
20
203.114
30
0
0
VERTEX
8
ENGRAVE
10
316.494
20
201.989
30
0
0
VERTEX
8
ENGRAVE
10
317.785
20
201.989
30
0
0
VERTEX
8
ENGRAVE
10
317.785
20
203.114
30
0
0
VERTEX
8
ENGRAVE
10
318.119
20
203.114
30
0
0
VERTEX
8
ENGRAVE
10
318.119
20
200.364
30
0
0
VERTEX
8
ENGRAVE
10
317.785
20
200.364
30
0
0
VERTEX
8
ENGRAVE
10
317.785
20
201.656
30
0
0
VERTEX
8
ENGRAVE
10
316.494
20
201.656
30
0
0
VERTEX
8
ENGRAVE
10
316.494
20
200.364
30
0
0
VERTEX
8
ENGRAVE
10
316.160
20
200.364
30
0
0
SEQEND
8
ENGRAVE
0
POLYLINE
8
ENGRAVE
66
1
70
1
10
0
20
0
30
0
0
VERTEX
8
ENGRAVE
10
319.660
20
203.114
30
0
0
VERTEX
8
ENGRAVE
10
319.910
20
203.114
30
0
0
VERTEX
8
ENGRAVE
10
319.910
20
200.614
30
0
0
VERTEX
8
ENGRAVE
10
320.702
20
200.614
30
0
0
VERTEX
8
ENGRAVE
10
320.702
20
200.364
30
0
0
VERTEX
8
ENGRAVE
10
318.785
20
200.364
30
0
0
VERTEX
8
ENGRAVE
10
318.785
20
200.614
30
0
0
VERTEX
8
ENGRAVE
10
319.577
20
200.614
30
0
0
VERTEX
8
ENGRAVE
10
319.577
20
202.656
30
0
0
VERTEX
8
ENGRAVE
10
318.910
20
202.114
30
0
0
VERTEX
8
ENGRAVE
10
318.827
20
202.114
30
0
0
VERTEX
8
ENGRAVE
10
318.827
20
202.448
30
0
0
VERTEX
8
ENGRAVE
10
319.327
20
202.739
30
0
0
SEQEND
8
ENGRAVE
0
POLYLINE
8
SCORE
66
1
70
0
10
0
20
0
30
0
0
VERTEX
8
SCORE
10
282.922
20
231.578
30
0
0
VERTEX
8
SCORE
10
281.243
20
229.744
30
0
0
VERTEX
8
SCORE
10
279.729
20
227.772
30
0
0
VERTEX
8
SCORE
10
278.393
20
225.675
30
0
0
VERTEX
8
SCORE
10
277.245
20
223.470
30
0
0
VERTEX
8
SCORE
10
276.294
20
221.173
30
0
0
VERTEX
8
SCORE
10
275.546
20
218.801
30
0
0
VERTEX
8
SCORE
10
275.008
20
216.374
30
0
0
VERTEX
8
SCORE
10
274.683
20
213.909
30
0
0
VERTEX
8
SCORE
10
274.575
20
211.425
30
0
0
VERTEX
8
SCORE
10
274.683
20
208.941
30
0
0
VERTEX
8
SCORE
10
275.008
20
206.476
30
0
0
VERTEX
8
SCORE
10
275.546
20
204.049
30
0
0
VERTEX
8
SCORE
10
276.294
20
201.677
30
0
0
VERTEX
8
SCORE
10
277.245
20
199.380
30
0
0
VERTEX
8
SCORE
10
278.393
20
197.175
30
0
0
VERTEX
8
SCORE
10
279.729
20
195.078
30
0
0
VERTEX
8
SCORE
10
281.243
20
193.106
30
0
0
VERTEX
8
SCORE
10
282.922
20
191.272
30
0
0
VERTEX
8
SCORE
10
284.756
20
189.593
30
0
0
SEQEND
8
SCORE
0
POLYLINE
8
SCORE
66
1
70
0
10
0
20
0
30
0
0
VERTEX
8
SCORE
10
321.394
20
189.593
30
0
0
VERTEX
8
SCORE
10
323.228
20
191.272
30
0
0
VERTEX
8
SCORE
10
324.907
20
193.106
30
0
0
VERTEX
8
SCORE
10
326.421
20
195.078
30
0
0
VERTEX
8
SCORE
10
327.757
20
197.175
30
0
0
VERTEX
8
SCORE
10
328.905
20
199.380
30
0
0
VERTEX
8
SCORE
10
329.856
20
201.677
30
0
0
VERTEX
8
SCORE
10
330.604
20
204.049
30
0
0
VERTEX
8
SCORE
10
331.142
20
206.476
30
0
0
VERTEX
8
SCORE
10
331.467
20
208.941
30
0
0
VERTEX
8
SCORE
10
331.575
20
211.425
30
0
0
VERTEX
8
SCORE
10
331.467
20
213.909
30
0
0
VERTEX
8
SCORE
10
331.142
20
216.374
30
0
0
VERTEX
8
SCORE
10
330.604
20
218.801
30
0
0
VERTEX
8
SCORE
10
329.856
20
221.173
30
0
0
VERTEX
8
SCORE
10
328.905
20
223.470
30
0
0
VERTEX
8
SCORE
10
327.757
20
225.675
30
0
0
VERTEX
8
SCORE
10
326.421
20
227.772
30
0
0
VERTEX
8
SCORE
10
324.907
20
229.744
30
0
0
VERTEX
8
SCORE
10
323.228
20
231.578
30
0
0
SEQEND
8
SCORE
0
POLYLINE
8
ENGRAVE
66
1
70
1
10
0
20
0
30
0
0
VERTEX
8
ENGRAVE
10
399.160
20
165.614
30
0
0
VERTEX
8
ENGRAVE
10
399.494
20
165.614
30
0
0
VERTEX
8
ENGRAVE
10
399.494
20
164.489
30
0
0
VERTEX
8
ENGRAVE
10
400.785
20
164.489
30
0
0
VERTEX
8
ENGRAVE
10
400.785
20
165.614
30
0
0
VERTEX
8
ENGRAVE
10
401.119
20
165.614
30
0
0
VERTEX
8
ENGRAVE
10
401.119
20
162.864
30
0
0
VERTEX
8
ENGRAVE
10
400.785
20
162.864
30
0
0
VERTEX
8
ENGRAVE
10
400.785
20
164.156
30
0
0
VERTEX
8
ENGRAVE
10
399.494
20
164.156
30
0
0
VERTEX
8
ENGRAVE
10
399.494
20
162.864
30
0
0
VERTEX
8
ENGRAVE
10
399.160
20
162.864
30
0
0
SEQEND
8
ENGRAVE
0
POLYLINE
8
ENGRAVE
66
1
70
1
10
0
20
0
30
0
0
VERTEX
8
ENGRAVE
10
402.660
20
165.614
30
0
0
VERTEX
8
ENGRAVE
10
402.910
20
165.614
30
0
0
VERTEX
8
ENGRAVE
10
402.910
20
163.114
30
0
0
VERTEX
8
ENGRAVE
10
403.702
20
163.114
30
0
0
VERTEX
8
ENGRAVE
10
403.702
20
162.864
30
0
0
VERTEX
8
ENGRAVE
10
401.785
20
162.864
30
0
0
VERTEX
8
ENGRAVE
10
401.785
20
163.114
30
0
0
VERTEX
8
ENGRAVE
10
402.577
20
163.114
30
0
0
VERTEX
8
ENGRAVE
10
402.577
20
165.156
30
0
0
VERTEX
8
ENGRAVE
10
401.910
20
164.614
30
0
0
VERTEX
8
ENGRAVE
10
401.827
20
164.614
30
0
0
VERTEX
8
ENGRAVE
10
401.827
20
164.948
30
0
0
VERTEX
8
ENGRAVE
10
402.327
20
165.239
30
0
0
SEQEND
8
ENGRAVE
0
POLYLINE
8
SCORE
66
1
70
0
10
0
20
0
30
0
0
VERTEX
8
SCORE
10
365.922
20
194.078
30
0
0
VERTEX
8
SCORE
10
364.243
20
192.244
30
0
0
VERTEX
8
SCORE
10
362.729
20
190.272
30
0
0
VERTEX
8
SCORE
10
361.393
20
188.175
30
0
0
VERTEX
8
SCORE
10
360.245
20
185.970
30
0
0
VERTEX
8
SCORE
10
359.294
20
183.673
30
0
0
VERTEX
8
SCORE
10
358.546
20
181.301
30
0
0
VERTEX
8
SCORE
10
358.008
20
178.874
30
0
0
VERTEX
8
SCORE
10
357.683
20
176.409
30
0
0
VERTEX
8
SCORE
10
357.575
20
173.925
30
0
0
VERTEX
8
SCORE
10
357.683
20
171.441
30
0
0
VERTEX
8
SCORE
10
358.008
20
168.976
30
0
0
VERTEX
8
SCORE
10
358.546
20
166.549
30
0
0
VERTEX
8
SCORE
10
359.294
20
164.177
30
0
0
VERTEX
8
SCORE
10
360.245
20
161.880
30
0
0
VERTEX
8
SCORE
10
361.393
20
159.675
30
0
0
VERTEX
8
SCORE
10
362.729
20
157.578
30
0
0
VERTEX
8
SCORE
10
364.243
20
155.606
30
0
0
VERTEX
8
SCORE
10
365.922
20
153.772
30
0
0
VERTEX
8
SCORE
10
367.756
20
152.093
30
0
0
SEQEND
8
SCORE
0
POLYLINE
8
SCORE
66
1
70
0
10
0
20
0
30
0
0
VERTEX
8
SCORE
10
404.394
20
152.093
30
0
0
VERTEX
8
SCORE
10
406.228
20
153.772
30
0
0
VERTEX
8
SCORE
10
407.907
20
155.606
30
0
0
VERTEX
8
SCORE
10
409.421
20
157.578
30
0
0
VERTEX
8
SCORE
10
410.757
20
159.675
30
0
0
VERTEX
8
SCORE
10
411.905
20
161.880
30
0
0
VERTEX
8
SCORE
10
412.856
20
164.177
30
0
0
VERTEX
8
SCORE
10
413.604
20
166.549
30
0
0
VERTEX
8
SCORE
10
414.142
20
168.976
30
0
0
VERTEX
8
SCORE
10
414.467
20
171.441
30
0
0
VERTEX
8
SCORE
10
414.575
20
173.925
30
0
0
VERTEX
8
SCORE
10
414.467
20
176.409
30
0
0
VERTEX
8
SCORE
10
414.142
20
178.874
30
0
0
VERTEX
8
SCORE
10
413.604
20
181.301
30
0
0
VERTEX
8
SCORE
10
412.856
20
183.673
30
0
0
VERTEX
8
SCORE
10
411.905
20
185.970
30
0
0
VERTEX
8
SCORE
10
410.757
20
188.175
30
0
0
VERTEX
8
SCORE
10
409.421
20
190.272
30
0
0
VERTEX
8
SCORE
10
407.907
20
192.244
30
0
0
VERTEX
8
SCORE
10
406.228
20
194.078
30
0
0
SEQEND
8
SCORE
0
POLYLINE
8
ENGRAVE
66
1
70
1
10
0
20
0
30
0
0
VERTEX
8
ENGRAVE
10
162.569
20
107.097
30
0
0
VERTEX
8
ENGRAVE
10
162.569
20
106.922
30
0
0
VERTEX
8
ENGRAVE
10
161.978
20
106.922
30
0
0
VERTEX
8
ENGRAVE
10
161.978
20
106.244
30
0
0
VERTEX
8
ENGRAVE
10
162.569
20
106.244
30
0
0
VERTEX
8
ENGRAVE
10
162.569
20
106.069
30
0
0
VERTEX
8
ENGRAVE
10
161.125
20
106.069
30
0
0
VERTEX
8
ENGRAVE
10
161.125
20
106.244
30
0
0
VERTEX
8
ENGRAVE
10
161.803
20
106.244
30
0
0
VERTEX
8
ENGRAVE
10
161.803
20
106.922
30
0
0
VERTEX
8
ENGRAVE
10
161.125
20
106.922
30
0
0
VERTEX
8
ENGRAVE
10
161.125
20
107.097
30
0
0
SEQEND
8
ENGRAVE
0
POLYLINE
8
ENGRAVE
66
1
70
1
10
0
20
0
30
0
0
VERTEX
8
ENGRAVE
10
162.569
20
105.172
30
0
0
VERTEX
8
ENGRAVE
10
162.569
20
104.932
30
0
0
VERTEX
8
ENGRAVE
10
161.606
20
104.932
30
0
0
VERTEX
8
ENGRAVE
10
161.606
20
104.691
30
0
0
VERTEX
8
ENGRAVE
10
161.453
20
104.691
30
0
0
VERTEX
8
ENGRAVE
10
161.453
20
104.932
30
0
0
VERTEX
8
ENGRAVE
10
161.125
20
104.932
30
0
0
VERTEX
8
ENGRAVE
10
161.125
20
105.107
30
0
0
VERTEX
8
ENGRAVE
10
161.453
20
105.107
30
0
0
VERTEX
8
ENGRAVE
10
161.475
20
105.829
30
0
0
VERTEX
8
ENGRAVE
10
161.584
20
105.829
30
0
0
SEQEND
8
ENGRAVE
0
POLYLINE
8
ENGRAVE
66
1
70
1
10
0
20
0
30
0
0
VERTEX
8
ENGRAVE
10
162.416
20
105.107
30
0
0
VERTEX
8
ENGRAVE
10
161.694
20
105.588
30
0
0
VERTEX
8
ENGRAVE
10
161.606
20
105.610
30
0
0
VERTEX
8
ENGRAVE
10
161.606
20
105.107
30
0
0
SEQEND
8
ENGRAVE
0
POLYLINE
8
ENGRAVE
66
1
70
1
10
0
20
0
30
0
0
VERTEX
8
ENGRAVE
10
419.200
20
118.931
30
0
0
VERTEX
8
ENGRAVE
10
419.025
20
118.931
30
0
0
VERTEX
8
ENGRAVE
10
419.025
20
119.522
30
0
0
VERTEX
8
ENGRAVE
10
418.346
20
119.522
30
0
0
VERTEX
8
ENGRAVE
10
418.346
20
118.931
30
0
0
VERTEX
8
ENGRAVE
10
418.171
20
118.931
30
0
0
VERTEX
8
ENGRAVE
10
418.171
20
120.375
30
0
0
VERTEX
8
ENGRAVE
10
418.346
20
120.375
30
0
0
VERTEX
8
ENGRAVE
10
418.346
20
119.697
30
0
0
VERTEX
8
ENGRAVE
10
419.025
20
119.697
30
0
0
VERTEX
8
ENGRAVE
10
419.025
20
120.375
30
0
0
VERTEX
8
ENGRAVE
10
419.200
20
120.375
30
0
0
SEQEND
8
ENGRAVE
0
POLYLINE
8
ENGRAVE
66
1
70
1
10
0
20
0
30
0
0
VERTEX
8
ENGRAVE
10
417.275
20
118.931
30
0
0
VERTEX
8
ENGRAVE
10
417.034
20
118.931
30
0
0
VERTEX
8
ENGRAVE
10
417.034
20
119.894
30
0
0
VERTEX
8
ENGRAVE
10
416.793
20
119.894
30
0
0
VERTEX
8
ENGRAVE
10
416.793
20
120.047
30
0
0
VERTEX
8
ENGRAVE
10
417.034
20
120.047
30
0
0
VERTEX
8
ENGRAVE
10
417.034
20
120.375
30
0
0
VERTEX
8
ENGRAVE
10
417.209
20
120.375
30
0
0
VERTEX
8
ENGRAVE
10
417.209
20
120.047
30
0
0
VERTEX
8
ENGRAVE
10
417.931
20
120.025
30
0
0
VERTEX
8
ENGRAVE
10
417.931
20
119.916
30
0
0
SEQEND
8
ENGRAVE
0
POLYLINE
8
ENGRAVE
66
1
70
1
10
0
20
0
30
0
0
VERTEX
8
ENGRAVE
10
417.209
20
119.084
30
0
0
VERTEX
8
ENGRAVE
10
417.690
20
119.806
30
0
0
VERTEX
8
ENGRAVE
10
417.712
20
119.894
30
0
0
VERTEX
8
ENGRAVE
10
417.209
20
119.894
30
0
0
SEQEND
8
ENGRAVE
0
POLYLINE
8
ENGRAVE
66
1
70
1
10
0
20
0
30
0
0
VERTEX
8
ENGRAVE
10
217.069
20
82.097
30
0
0
VERTEX
8
ENGRAVE
10
217.069
20
81.922
30
0
0
VERTEX
8
ENGRAVE
10
216.478
20
81.922
30
0
0
VERTEX
8
ENGRAVE
10
216.478
20
81.244
30
0
0
VERTEX
8
ENGRAVE
10
217.069
20
81.244
30
0
0
VERTEX
8
ENGRAVE
10
217.069
20
81.069
30
0
0
VERTEX
8
ENGRAVE
10
215.625
20
81.069
30
0
0
VERTEX
8
ENGRAVE
10
215.625
20
81.244
30
0
0
VERTEX
8
ENGRAVE
10
216.303
20
81.244
30
0
0
VERTEX
8
ENGRAVE
10
216.303
20
81.922
30
0
0
VERTEX
8
ENGRAVE
10
215.625
20
81.922
30
0
0
VERTEX
8
ENGRAVE
10
215.625
20
82.097
30
0
0
SEQEND
8
ENGRAVE
0
POLYLINE
8
ENGRAVE
66
1
70
1
10
0
20
0
30
0
0
VERTEX
8
ENGRAVE
10
217.069
20
80.172
30
0
0
VERTEX
8
ENGRAVE
10
217.069
20
79.932
30
0
0
VERTEX
8
ENGRAVE
10
216.106
20
79.932
30
0
0
VERTEX
8
ENGRAVE
10
216.106
20
79.691
30
0
0
VERTEX
8
ENGRAVE
10
215.953
20
79.691
30
0
0
VERTEX
8
ENGRAVE
10
215.953
20
79.932
30
0
0
VERTEX
8
ENGRAVE
10
215.625
20
79.932
30
0
0
VERTEX
8
ENGRAVE
10
215.625
20
80.107
30
0
0
VERTEX
8
ENGRAVE
10
215.953
20
80.107
30
0
0
VERTEX
8
ENGRAVE
10
215.975
20
80.829
30
0
0
VERTEX
8
ENGRAVE
10
216.084
20
80.829
30
0
0
SEQEND
8
ENGRAVE
0
POLYLINE
8
ENGRAVE
66
1
70
1
10
0
20
0
30
0
0
VERTEX
8
ENGRAVE
10
216.916
20
80.107
30
0
0
VERTEX
8
ENGRAVE
10
216.194
20
80.588
30
0
0
VERTEX
8
ENGRAVE
10
216.106
20
80.610
30
0
0
VERTEX
8
ENGRAVE
10
216.106
20
80.107
30
0
0
SEQEND
8
ENGRAVE
0
POLYLINE
8
CUT
66
1
70
1
10
0
20
0
30
0
0
VERTEX
8
CUT
10
33.750
20
249.894
30
0
0
VERTEX
8
CUT
10
33.630
20
250.649
30
0
0
VERTEX
8
CUT
10
33.286
20
251.324
30
0
0
VERTEX
8
CUT
10
32.750
20
251.861
30
0
0
VERTEX
8
CUT
10
32.074
20
252.205
30
0
0
VERTEX
8
CUT
10
31.319
20
252.325
30
0
0
VERTEX
8
CUT
10
22.831
20
252.325
30
0
0
VERTEX
8
CUT
10
22.076
20
252.205
30
0
0
VERTEX
8
CUT
10
21.400
20
251.861
30
0
0
VERTEX
8
CUT
10
20.864
20
251.324
30
0
0
VERTEX
8
CUT
10
20.520
20
250.649
30
0
0
VERTEX
8
CUT
10
20.400
20
249.894
30
0
0
VERTEX
8
CUT
10
20.400
20
247.305
30
0
0
VERTEX
8
CUT
10
20.520
20
246.550
30
0
0
VERTEX
8
CUT
10
20.864
20
245.875
30
0
0
VERTEX
8
CUT
10
21.400
20
245.338
30
0
0
VERTEX
8
CUT
10
22.076
20
244.994
30
0
0
VERTEX
8
CUT
10
22.831
20
244.875
30
0
0
VERTEX
8
CUT
10
31.319
20
244.875
30
0
0
VERTEX
8
CUT
10
32.074
20
244.994
30
0
0
VERTEX
8
CUT
10
32.750
20
245.338
30
0
0
VERTEX
8
CUT
10
33.286
20
245.875
30
0
0
VERTEX
8
CUT
10
33.630
20
246.550
30
0
0
VERTEX
8
CUT
10
33.750
20
247.305
30
0
0
SEQEND
8
CUT
0
POLYLINE
8
CUT
66
1
70
1
10
0
20
0
30
0
0
VERTEX
8
CUT
10
19.433
20
239.425
30
0
0
VERTEX
8
CUT
10
29.383
20
239.425
30
0
0
VERTEX
8
CUT
10
29.383
20
242.375
30
0
0
VERTEX
8
CUT
10
19.433
20
242.375
30
0
0
SEQEND
8
CUT
0
POLYLINE
8
CUT
66
1
70
1
10
0
20
0
30
0
0
VERTEX
8
CUT
10
56.100
20
239.425
30
0
0
VERTEX
8
CUT
10
66.050
20
239.425
30
0
0
VERTEX
8
CUT
10
66.050
20
242.375
30
0
0
VERTEX
8
CUT
10
56.100
20
242.375
30
0
0
SEQEND
8
CUT
0
POLYLINE
8
CUT
66
1
70
1
10
0
20
0
30
0
0
VERTEX
8
CUT
10
92.767
20
239.425
30
0
0
VERTEX
8
CUT
10
102.717
20
239.425
30
0
0
VERTEX
8
CUT
10
102.717
20
242.375
30
0
0
VERTEX
8
CUT
10
92.767
20
242.375
30
0
0
SEQEND
8
CUT
0
POLYLINE
8
CUT
66
1
70
1
10
0
20
0
30
0
0
VERTEX
8
CUT
10
6.000
20
236.325
30
0
0
VERTEX
8
CUT
10
116.150
20
236.325
30
0
0
VERTEX
8
CUT
10
116.150
20
245.706
30
0
0
VERTEX
8
CUT
10
119.150
20
245.706
30
0
0
VERTEX
8
CUT
10
119.150
20
255.856
30
0
0
VERTEX
8
CUT
10
116.150
20
255.856
30
0
0
VERTEX
8
CUT
10
116.150
20
274.469
30
0
0
VERTEX
8
CUT
10
119.150
20
274.469
30
0
0
VERTEX
8
CUT
10
119.150
20
284.619
30
0
0
VERTEX
8
CUT
10
116.150
20
284.619
30
0
0
VERTEX
8
CUT
10
116.150
20
294.000
30
0
0
VERTEX
8
CUT
10
110.000
20
294.000
30
0
0
VERTEX
8
CUT
10
110.000
20
263.000
30
0
0
VERTEX
8
CUT
10
22.150
20
263.000
30
0
0
VERTEX
8
CUT
10
22.150
20
294.000
30
0
0
VERTEX
8
CUT
10
18.150
20
294.000
30
0
0
VERTEX
8
CUT
10
18.150
20
297.000
30
0
0
VERTEX
8
CUT
10
10.000
20
297.000
30
0
0
VERTEX
8
CUT
10
10.000
20
294.000
30
0
0
VERTEX
8
CUT
10
6.000
20
294.000
30
0
0
VERTEX
8
CUT
10
6.000
20
284.619
30
0
0
VERTEX
8
CUT
10
3.000
20
284.619
30
0
0
VERTEX
8
CUT
10
3.000
20
274.469
30
0
0
VERTEX
8
CUT
10
6.000
20
274.469
30
0
0
VERTEX
8
CUT
10
6.000
20
255.856
30
0
0
VERTEX
8
CUT
10
3.000
20
255.856
30
0
0
VERTEX
8
CUT
10
3.000
20
245.706
30
0
0
VERTEX
8
CUT
10
6.000
20
245.706
30
0
0
SEQEND
8
CUT
0
POLYLINE
8
CUT
66
1
70
1
10
0
20
0
30
0
0
VERTEX
8
CUT
10
151.750
20
249.894
30
0
0
VERTEX
8
CUT
10
151.630
20
250.649
30
0
0
VERTEX
8
CUT
10
151.286
20
251.324
30
0
0
VERTEX
8
CUT
10
150.750
20
251.861
30
0
0
VERTEX
8
CUT
10
150.074
20
252.205
30
0
0
VERTEX
8
CUT
10
149.319
20
252.325
30
0
0
VERTEX
8
CUT
10
140.831
20
252.325
30
0
0
VERTEX
8
CUT
10
140.076
20
252.205
30
0
0
VERTEX
8
CUT
10
139.400
20
251.861
30
0
0
VERTEX
8
CUT
10
138.864
20
251.324
30
0
0
VERTEX
8
CUT
10
138.520
20
250.649
30
0
0
VERTEX
8
CUT
10
138.400
20
249.894
30
0
0
VERTEX
8
CUT
10
138.400
20
247.305
30
0
0
VERTEX
8
CUT
10
138.520
20
246.550
30
0
0
VERTEX
8
CUT
10
138.864
20
245.875
30
0
0
VERTEX
8
CUT
10
139.400
20
245.338
30
0
0
VERTEX
8
CUT
10
140.076
20
244.994
30
0
0
VERTEX
8
CUT
10
140.831
20
244.875
30
0
0
VERTEX
8
CUT
10
149.319
20
244.875
30
0
0
VERTEX
8
CUT
10
150.074
20
244.994
30
0
0
VERTEX
8
CUT
10
150.750
20
245.338
30
0
0
VERTEX
8
CUT
10
151.286
20
245.875
30
0
0
VERTEX
8
CUT
10
151.630
20
246.550
30
0
0
VERTEX
8
CUT
10
151.750
20
247.305
30
0
0
SEQEND
8
CUT
0
POLYLINE
8
CUT
66
1
70
1
10
0
20
0
30
0
0
VERTEX
8
CUT
10
137.433
20
239.425
30
0
0
VERTEX
8
CUT
10
147.383
20
239.425
30
0
0
VERTEX
8
CUT
10
147.383
20
242.375
30
0
0
VERTEX
8
CUT
10
137.433
20
242.375
30
0
0
SEQEND
8
CUT
0
POLYLINE
8
CUT
66
1
70
1
10
0
20
0
30
0
0
VERTEX
8
CUT
10
174.100
20
239.425
30
0
0
VERTEX
8
CUT
10
184.050
20
239.425
30
0
0
VERTEX
8
CUT
10
184.050
20
242.375
30
0
0
VERTEX
8
CUT
10
174.100
20
242.375
30
0
0
SEQEND
8
CUT
0
POLYLINE
8
CUT
66
1
70
1
10
0
20
0
30
0
0
VERTEX
8
CUT
10
210.767
20
239.425
30
0
0
VERTEX
8
CUT
10
220.717
20
239.425
30
0
0
VERTEX
8
CUT
10
220.717
20
242.375
30
0
0
VERTEX
8
CUT
10
210.767
20
242.375
30
0
0
SEQEND
8
CUT
0
POLYLINE
8
CUT
66
1
70
1
10
0
20
0
30
0
0
VERTEX
8
CUT
10
124.000
20
236.325
30
0
0
VERTEX
8
CUT
10
234.150
20
236.325
30
0
0
VERTEX
8
CUT
10
234.150
20
245.706
30
0
0
VERTEX
8
CUT
10
237.150
20
245.706
30
0
0
VERTEX
8
CUT
10
237.150
20
255.856
30
0
0
VERTEX
8
CUT
10
234.150
20
255.856
30
0
0
VERTEX
8
CUT
10
234.150
20
274.469
30
0
0
VERTEX
8
CUT
10
237.150
20
274.469
30
0
0
VERTEX
8
CUT
10
237.150
20
284.619
30
0
0
VERTEX
8
CUT
10
234.150
20
284.619
30
0
0
VERTEX
8
CUT
10
234.150
20
294.000
30
0
0
VERTEX
8
CUT
10
228.000
20
294.000
30
0
0
VERTEX
8
CUT
10
228.000
20
263.000
30
0
0
VERTEX
8
CUT
10
140.150
20
263.000
30
0
0
VERTEX
8
CUT
10
140.150
20
294.000
30
0
0
VERTEX
8
CUT
10
136.150
20
294.000
30
0
0
VERTEX
8
CUT
10
136.150
20
297.000
30
0
0
VERTEX
8
CUT
10
128.000
20
297.000
30
0
0
VERTEX
8
CUT
10
128.000
20
294.000
30
0
0
VERTEX
8
CUT
10
124.000
20
294.000
30
0
0
VERTEX
8
CUT
10
124.000
20
284.619
30
0
0
VERTEX
8
CUT
10
121.000
20
284.619
30
0
0
VERTEX
8
CUT
10
121.000
20
274.469
30
0
0
VERTEX
8
CUT
10
124.000
20
274.469
30
0
0
VERTEX
8
CUT
10
124.000
20
255.856
30
0
0
VERTEX
8
CUT
10
121.000
20
255.856
30
0
0
VERTEX
8
CUT
10
121.000
20
245.706
30
0
0
VERTEX
8
CUT
10
124.000
20
245.706
30
0
0
SEQEND
8
CUT
0
POLYLINE
8
CUT
66
1
70
1
10
0
20
0
30
0
0
VERTEX
8
CUT
10
269.750
20
249.894
30
0
0
VERTEX
8
CUT
10
269.630
20
250.649
30
0
0
VERTEX
8
CUT
10
269.286
20
251.324
30
0
0
VERTEX
8
CUT
10
268.750
20
251.861
30
0
0
VERTEX
8
CUT
10
268.074
20
252.205
30
0
0
VERTEX
8
CUT
10
267.319
20
252.325
30
0
0
VERTEX
8
CUT
10
258.831
20
252.325
30
0
0
VERTEX
8
CUT
10
258.076
20
252.205
30
0
0
VERTEX
8
CUT
10
257.400
20
251.861
30
0
0
VERTEX
8
CUT
10
256.864
20
251.324
30
0
0
VERTEX
8
CUT
10
256.520
20
250.649
30
0
0
VERTEX
8
CUT
10
256.400
20
249.894
30
0
0
VERTEX
8
CUT
10
256.400
20
247.305
30
0
0
VERTEX
8
CUT
10
256.520
20
246.550
30
0
0
VERTEX
8
CUT
10
256.864
20
245.875
30
0
0
VERTEX
8
CUT
10
257.400
20
245.338
30
0
0
VERTEX
8
CUT
10
258.076
20
244.994
30
0
0
VERTEX
8
CUT
10
258.831
20
244.875
30
0
0
VERTEX
8
CUT
10
267.319
20
244.875
30
0
0
VERTEX
8
CUT
10
268.074
20
244.994
30
0
0
VERTEX
8
CUT
10
268.750
20
245.338
30
0
0
VERTEX
8
CUT
10
269.286
20
245.875
30
0
0
VERTEX
8
CUT
10
269.630
20
246.550
30
0
0
VERTEX
8
CUT
10
269.750
20
247.305
30
0
0
SEQEND
8
CUT
0
POLYLINE
8
CUT
66
1
70
1
10
0
20
0
30
0
0
VERTEX
8
CUT
10
255.433
20
239.425
30
0
0
VERTEX
8
CUT
10
265.383
20
239.425
30
0
0
VERTEX
8
CUT
10
265.383
20
242.375
30
0
0
VERTEX
8
CUT
10
255.433
20
242.375
30
0
0
SEQEND
8
CUT
0
POLYLINE
8
CUT
66
1
70
1
10
0
20
0
30
0
0
VERTEX
8
CUT
10
292.100
20
239.425
30
0
0
VERTEX
8
CUT
10
302.050
20
239.425
30
0
0
VERTEX
8
CUT
10
302.050
20
242.375
30
0
0
VERTEX
8
CUT
10
292.100
20
242.375
30
0
0
SEQEND
8
CUT
0
POLYLINE
8
CUT
66
1
70
1
10
0
20
0
30
0
0
VERTEX
8
CUT
10
328.767
20
239.425
30
0
0
VERTEX
8
CUT
10
338.717
20
239.425
30
0
0
VERTEX
8
CUT
10
338.717
20
242.375
30
0
0
VERTEX
8
CUT
10
328.767
20
242.375
30
0
0
SEQEND
8
CUT
0
POLYLINE
8
CUT
66
1
70
1
10
0
20
0
30
0
0
VERTEX
8
CUT
10
242.000
20
236.325
30
0
0
VERTEX
8
CUT
10
352.150
20
236.325
30
0
0
VERTEX
8
CUT
10
352.150
20
245.706
30
0
0
VERTEX
8
CUT
10
355.150
20
245.706
30
0
0
VERTEX
8
CUT
10
355.150
20
255.856
30
0
0
VERTEX
8
CUT
10
352.150
20
255.856
30
0
0
VERTEX
8
CUT
10
352.150
20
274.469
30
0
0
VERTEX
8
CUT
10
355.150
20
274.469
30
0
0
VERTEX
8
CUT
10
355.150
20
284.619
30
0
0
VERTEX
8
CUT
10
352.150
20
284.619
30
0
0
VERTEX
8
CUT
10
352.150
20
294.000
30
0
0
VERTEX
8
CUT
10
346.000
20
294.000
30
0
0
VERTEX
8
CUT
10
346.000
20
263.000
30
0
0
VERTEX
8
CUT
10
258.150
20
263.000
30
0
0
VERTEX
8
CUT
10
258.150
20
294.000
30
0
0
VERTEX
8
CUT
10
254.150
20
294.000
30
0
0
VERTEX
8
CUT
10
254.150
20
297.000
30
0
0
VERTEX
8
CUT
10
246.000
20
297.000
30
0
0
VERTEX
8
CUT
10
246.000
20
294.000
30
0
0
VERTEX
8
CUT
10
242.000
20
294.000
30
0
0
VERTEX
8
CUT
10
242.000
20
284.619
30
0
0
VERTEX
8
CUT
10
239.000
20
284.619
30
0
0
VERTEX
8
CUT
10
239.000
20
274.469
30
0
0
VERTEX
8
CUT
10
242.000
20
274.469
30
0
0
VERTEX
8
CUT
10
242.000
20
255.856
30
0
0
VERTEX
8
CUT
10
239.000
20
255.856
30
0
0
VERTEX
8
CUT
10
239.000
20
245.706
30
0
0
VERTEX
8
CUT
10
242.000
20
245.706
30
0
0
SEQEND
8
CUT
0
POLYLINE
8
CUT
66
1
70
1
10
0
20
0
30
0
0
VERTEX
8
CUT
10
385.000
20
276.925
30
0
0
VERTEX
8
CUT
10
384.851
20
278.243
30
0
0
VERTEX
8
CUT
10
384.413
20
279.496
30
0
0
VERTEX
8
CUT
10
383.707
20
280.619
30
0
0
VERTEX
8
CUT
10
382.769
20
281.557
30
0
0
VERTEX
8
CUT
10
381.646
20
282.263
30
0
0
VERTEX
8
CUT
10
380.393
20
282.701
30
0
0
VERTEX
8
CUT
10
379.075
20
282.850
30
0
0
VERTEX
8
CUT
10
377.757
20
282.701
30
0
0
VERTEX
8
CUT
10
376.504
20
282.263
30
0
0
VERTEX
8
CUT
10
375.381
20
281.557
30
0
0
VERTEX
8
CUT
10
374.443
20
280.619
30
0
0
VERTEX
8
CUT
10
373.737
20
279.496
30
0
0
VERTEX
8
CUT
10
373.299
20
278.243
30
0
0
VERTEX
8
CUT
10
373.150
20
276.925
30
0
0
VERTEX
8
CUT
10
373.299
20
275.607
30
0
0
VERTEX
8
CUT
10
373.737
20
274.354
30
0
0
VERTEX
8
CUT
10
374.443
20
273.231
30
0
0
VERTEX
8
CUT
10
375.381
20
272.293
30
0
0
VERTEX
8
CUT
10
376.504
20
271.587
30
0
0
VERTEX
8
CUT
10
377.757
20
271.149
30
0
0
VERTEX
8
CUT
10
379.075
20
271.000
30
0
0
VERTEX
8
CUT
10
380.393
20
271.149
30
0
0
VERTEX
8
CUT
10
381.646
20
271.587
30
0
0
VERTEX
8
CUT
10
382.769
20
272.293
30
0
0
VERTEX
8
CUT
10
383.707
20
273.231
30
0
0
VERTEX
8
CUT
10
384.413
20
274.354
30
0
0
VERTEX
8
CUT
10
384.851
20
275.607
30
0
0
SEQEND
8
CUT
0
POLYLINE
8
CUT
66
1
70
1
10
0
20
0
30
0
0
VERTEX
8
CUT
10
425.300
20
251.950
30
0
0
VERTEX
8
CUT
10
435.250
20
251.950
30
0
0
VERTEX
8
CUT
10
435.250
20
254.900
30
0
0
VERTEX
8
CUT
10
425.300
20
254.900
30
0
0
SEQEND
8
CUT
0
POLYLINE
8
CUT
66
1
70
1
10
0
20
0
30
0
0
VERTEX
8
CUT
10
362.900
20
251.950
30
0
0
VERTEX
8
CUT
10
372.850
20
251.950
30
0
0
VERTEX
8
CUT
10
372.850
20
254.900
30
0
0
VERTEX
8
CUT
10
362.900
20
254.900
30
0
0
SEQEND
8
CUT
0
POLYLINE
8
CUT
66
1
70
1
10
0
20
0
30
0
0
VERTEX
8
CUT
10
360.000
20
248.850
30
0
0
VERTEX
8
CUT
10
377.346
20
248.850
30
0
0
VERTEX
8
CUT
10
377.346
20
251.850
30
0
0
VERTEX
8
CUT
10
420.804
20
251.850
30
0
0
VERTEX
8
CUT
10
420.804
20
248.850
30
0
0
VERTEX
8
CUT
10
438.150
20
248.850
30
0
0
VERTEX
8
CUT
10
438.150
20
255.850
30
0
0
VERTEX
8
CUT
10
441.150
20
255.850
30
0
0
VERTEX
8
CUT
10
441.150
20
266.000
30
0
0
VERTEX
8
CUT
10
438.150
20
266.000
30
0
0
VERTEX
8
CUT
10
438.150
20
279.850
30
0
0
VERTEX
8
CUT
10
441.150
20
279.850
30
0
0
VERTEX
8
CUT
10
441.150
20
290.000
30
0
0
VERTEX
8
CUT
10
438.150
20
290.000
30
0
0
VERTEX
8
CUT
10
438.150
20
297.000
30
0
0
VERTEX
8
CUT
10
360.000
20
297.000
30
0
0
VERTEX
8
CUT
10
360.000
20
290.000
30
0
0
VERTEX
8
CUT
10
357.000
20
290.000
30
0
0
VERTEX
8
CUT
10
357.000
20
279.850
30
0
0
VERTEX
8
CUT
10
360.000
20
279.850
30
0
0
VERTEX
8
CUT
10
360.000
20
266.000
30
0
0
VERTEX
8
CUT
10
357.000
20
266.000
30
0
0
VERTEX
8
CUT
10
357.000
20
255.850
30
0
0
VERTEX
8
CUT
10
360.000
20
255.850
30
0
0
SEQEND
8
CUT
0
POLYLINE
8
CUT
66
1
70
1
10
0
20
0
30
0
0
VERTEX
8
CUT
10
415.750
20
236.719
30
0
0
VERTEX
8
CUT
10
415.806
20
237.072
30
0
0
VERTEX
8
CUT
10
415.966
20
237.386
30
0
0
VERTEX
8
CUT
10
416.214
20
237.634
30
0
0
VERTEX
8
CUT
10
416.528
20
237.794
30
0
0
VERTEX
8
CUT
10
416.881
20
237.850
30
0
0
VERTEX
8
CUT
10
417.269
20
237.850
30
0
0
VERTEX
8
CUT
10
417.622
20
237.794
30
0
0
VERTEX
8
CUT
10
417.936
20
237.634
30
0
0
VERTEX
8
CUT
10
418.184
20
237.386
30
0
0
VERTEX
8
CUT
10
418.344
20
237.072
30
0
0
VERTEX
8
CUT
10
418.400
20
236.719
30
0
0
VERTEX
8
CUT
10
418.400
20
223.291
30
0
0
VERTEX
8
CUT
10
418.344
20
222.938
30
0
0
VERTEX
8
CUT
10
418.184
20
222.624
30
0
0
VERTEX
8
CUT
10
417.936
20
222.376
30
0
0
VERTEX
8
CUT
10
417.622
20
222.216
30
0
0
VERTEX
8
CUT
10
417.269
20
222.160
30
0
0
VERTEX
8
CUT
10
416.881
20
222.160
30
0
0
VERTEX
8
CUT
10
416.528
20
222.216
30
0
0
VERTEX
8
CUT
10
416.214
20
222.376
30
0
0
VERTEX
8
CUT
10
415.966
20
222.624
30
0
0
VERTEX
8
CUT
10
415.806
20
222.938
30
0
0
VERTEX
8
CUT
10
415.750
20
223.291
30
0
0
SEQEND
8
CUT
0
POLYLINE
8
CUT
66
1
70
1
10
0
20
0
30
0
0
VERTEX
8
CUT
10
408.750
20
236.719
30
0
0
VERTEX
8
CUT
10
408.806
20
237.072
30
0
0
VERTEX
8
CUT
10
408.966
20
237.386
30
0
0
VERTEX
8
CUT
10
409.214
20
237.634
30
0
0
VERTEX
8
CUT
10
409.528
20
237.794
30
0
0
VERTEX
8
CUT
10
409.881
20
237.850
30
0
0
VERTEX
8
CUT
10
410.269
20
237.850
30
0
0
VERTEX
8
CUT
10
410.622
20
237.794
30
0
0
VERTEX
8
CUT
10
410.936
20
237.634
30
0
0
VERTEX
8
CUT
10
411.184
20
237.386
30
0
0
VERTEX
8
CUT
10
411.344
20
237.072
30
0
0
VERTEX
8
CUT
10
411.400
20
236.719
30
0
0
VERTEX
8
CUT
10
411.400
20
223.291
30
0
0
VERTEX
8
CUT
10
411.344
20
222.938
30
0
0
VERTEX
8
CUT
10
411.184
20
222.624
30
0
0
VERTEX
8
CUT
10
410.936
20
222.376
30
0
0
VERTEX
8
CUT
10
410.622
20
222.216
30
0
0
VERTEX
8
CUT
10
410.269
20
222.160
30
0
0
VERTEX
8
CUT
10
409.881
20
222.160
30
0
0
VERTEX
8
CUT
10
409.528
20
222.216
30
0
0
VERTEX
8
CUT
10
409.214
20
222.376
30
0
0
VERTEX
8
CUT
10
408.966
20
222.624
30
0
0
VERTEX
8
CUT
10
408.806
20
222.938
30
0
0
VERTEX
8
CUT
10
408.750
20
223.291
30
0
0
SEQEND
8
CUT
0
POLYLINE
8
CUT
66
1
70
1
10
0
20
0
30
0
0
VERTEX
8
CUT
10
401.750
20
236.719
30
0
0
VERTEX
8
CUT
10
401.806
20
237.072
30
0
0
VERTEX
8
CUT
10
401.966
20
237.386
30
0
0
VERTEX
8
CUT
10
402.214
20
237.634
30
0
0
VERTEX
8
CUT
10
402.528
20
237.794
30
0
0
VERTEX
8
CUT
10
402.881
20
237.850
30
0
0
VERTEX
8
CUT
10
403.269
20
237.850
30
0
0
VERTEX
8
CUT
10
403.622
20
237.794
30
0
0
VERTEX
8
CUT
10
403.936
20
237.634
30
0
0
VERTEX
8
CUT
10
404.184
20
237.386
30
0
0
VERTEX
8
CUT
10
404.344
20
237.072
30
0
0
VERTEX
8
CUT
10
404.400
20
236.719
30
0
0
VERTEX
8
CUT
10
404.400
20
223.291
30
0
0
VERTEX
8
CUT
10
404.344
20
222.938
30
0
0
VERTEX
8
CUT
10
404.184
20
222.624
30
0
0
VERTEX
8
CUT
10
403.936
20
222.376
30
0
0
VERTEX
8
CUT
10
403.622
20
222.216
30
0
0
VERTEX
8
CUT
10
403.269
20
222.160
30
0
0
VERTEX
8
CUT
10
402.881
20
222.160
30
0
0
VERTEX
8
CUT
10
402.528
20
222.216
30
0
0
VERTEX
8
CUT
10
402.214
20
222.376
30
0
0
VERTEX
8
CUT
10
401.966
20
222.624
30
0
0
VERTEX
8
CUT
10
401.806
20
222.938
30
0
0
VERTEX
8
CUT
10
401.750
20
223.291
30
0
0
SEQEND
8
CUT
0
POLYLINE
8
CUT
66
1
70
1
10
0
20
0
30
0
0
VERTEX
8
CUT
10
394.750
20
236.719
30
0
0
VERTEX
8
CUT
10
394.806
20
237.072
30
0
0
VERTEX
8
CUT
10
394.966
20
237.386
30
0
0
VERTEX
8
CUT
10
395.214
20
237.634
30
0
0
VERTEX
8
CUT
10
395.528
20
237.794
30
0
0
VERTEX
8
CUT
10
395.881
20
237.850
30
0
0
VERTEX
8
CUT
10
396.269
20
237.850
30
0
0
VERTEX
8
CUT
10
396.622
20
237.794
30
0
0
VERTEX
8
CUT
10
396.936
20
237.634
30
0
0
VERTEX
8
CUT
10
397.184
20
237.386
30
0
0
VERTEX
8
CUT
10
397.344
20
237.072
30
0
0
VERTEX
8
CUT
10
397.400
20
236.719
30
0
0
VERTEX
8
CUT
10
397.400
20
223.291
30
0
0
VERTEX
8
CUT
10
397.344
20
222.938
30
0
0
VERTEX
8
CUT
10
397.184
20
222.624
30
0
0
VERTEX
8
CUT
10
396.936
20
222.376
30
0
0
VERTEX
8
CUT
10
396.622
20
222.216
30
0
0
VERTEX
8
CUT
10
396.269
20
222.160
30
0
0
VERTEX
8
CUT
10
395.881
20
222.160
30
0
0
VERTEX
8
CUT
10
395.528
20
222.216
30
0
0
VERTEX
8
CUT
10
395.214
20
222.376
30
0
0
VERTEX
8
CUT
10
394.966
20
222.624
30
0
0
VERTEX
8
CUT
10
394.806
20
222.938
30
0
0
VERTEX
8
CUT
10
394.750
20
223.291
30
0
0
SEQEND
8
CUT
0
POLYLINE
8
CUT
66
1
70
1
10
0
20
0
30
0
0
VERTEX
8
CUT
10
387.750
20
236.719
30
0
0
VERTEX
8
CUT
10
387.806
20
237.072
30
0
0
VERTEX
8
CUT
10
387.966
20
237.386
30
0
0
VERTEX
8
CUT
10
388.214
20
237.634
30
0
0
VERTEX
8
CUT
10
388.528
20
237.794
30
0
0
VERTEX
8
CUT
10
388.881
20
237.850
30
0
0
VERTEX
8
CUT
10
389.269
20
237.850
30
0
0
VERTEX
8
CUT
10
389.622
20
237.794
30
0
0
VERTEX
8
CUT
10
389.936
20
237.634
30
0
0
VERTEX
8
CUT
10
390.184
20
237.386
30
0
0
VERTEX
8
CUT
10
390.344
20
237.072
30
0
0
VERTEX
8
CUT
10
390.400
20
236.719
30
0
0
VERTEX
8
CUT
10
390.400
20
223.291
30
0
0
VERTEX
8
CUT
10
390.344
20
222.938
30
0
0
VERTEX
8
CUT
10
390.184
20
222.624
30
0
0
VERTEX
8
CUT
10
389.936
20
222.376
30
0
0
VERTEX
8
CUT
10
389.622
20
222.216
30
0
0
VERTEX
8
CUT
10
389.269
20
222.160
30
0
0
VERTEX
8
CUT
10
388.881
20
222.160
30
0
0
VERTEX
8
CUT
10
388.528
20
222.216
30
0
0
VERTEX
8
CUT
10
388.214
20
222.376
30
0
0
VERTEX
8
CUT
10
387.966
20
222.624
30
0
0
VERTEX
8
CUT
10
387.806
20
222.938
30
0
0
VERTEX
8
CUT
10
387.750
20
223.291
30
0
0
SEQEND
8
CUT
0
POLYLINE
8
CUT
66
1
70
1
10
0
20
0
30
0
0
VERTEX
8
CUT
10
380.750
20
236.719
30
0
0
VERTEX
8
CUT
10
380.806
20
237.072
30
0
0
VERTEX
8
CUT
10
380.966
20
237.386
30
0
0
VERTEX
8
CUT
10
381.214
20
237.634
30
0
0
VERTEX
8
CUT
10
381.528
20
237.794
30
0
0
VERTEX
8
CUT
10
381.881
20
237.850
30
0
0
VERTEX
8
CUT
10
382.269
20
237.850
30
0
0
VERTEX
8
CUT
10
382.622
20
237.794
30
0
0
VERTEX
8
CUT
10
382.936
20
237.634
30
0
0
VERTEX
8
CUT
10
383.184
20
237.386
30
0
0
VERTEX
8
CUT
10
383.344
20
237.072
30
0
0
VERTEX
8
CUT
10
383.400
20
236.719
30
0
0
VERTEX
8
CUT
10
383.400
20
223.291
30
0
0
VERTEX
8
CUT
10
383.344
20
222.938
30
0
0
VERTEX
8
CUT
10
383.184
20
222.624
30
0
0
VERTEX
8
CUT
10
382.936
20
222.376
30
0
0
VERTEX
8
CUT
10
382.622
20
222.216
30
0
0
VERTEX
8
CUT
10
382.269
20
222.160
30
0
0
VERTEX
8
CUT
10
381.881
20
222.160
30
0
0
VERTEX
8
CUT
10
381.528
20
222.216
30
0
0
VERTEX
8
CUT
10
381.214
20
222.376
30
0
0
VERTEX
8
CUT
10
380.966
20
222.624
30
0
0
VERTEX
8
CUT
10
380.806
20
222.938
30
0
0
VERTEX
8
CUT
10
380.750
20
223.291
30
0
0
SEQEND
8
CUT
0
POLYLINE
8
CUT
66
1
70
1
10
0
20
0
30
0
0
VERTEX
8
CUT
10
373.750
20
236.719
30
0
0
VERTEX
8
CUT
10
373.806
20
237.072
30
0
0
VERTEX
8
CUT
10
373.966
20
237.386
30
0
0
VERTEX
8
CUT
10
374.214
20
237.634
30
0
0
VERTEX
8
CUT
10
374.528
20
237.794
30
0
0
VERTEX
8
CUT
10
374.881
20
237.850
30
0
0
VERTEX
8
CUT
10
375.269
20
237.850
30
0
0
VERTEX
8
CUT
10
375.622
20
237.794
30
0
0
VERTEX
8
CUT
10
375.936
20
237.634
30
0
0
VERTEX
8
CUT
10
376.184
20
237.386
30
0
0
VERTEX
8
CUT
10
376.344
20
237.072
30
0
0
VERTEX
8
CUT
10
376.400
20
236.719
30
0
0
VERTEX
8
CUT
10
376.400
20
223.291
30
0
0
VERTEX
8
CUT
10
376.344
20
222.938
30
0
0
VERTEX
8
CUT
10
376.184
20
222.624
30
0
0
VERTEX
8
CUT
10
375.936
20
222.376
30
0
0
VERTEX
8
CUT
10
375.622
20
222.216
30
0
0
VERTEX
8
CUT
10
375.269
20
222.160
30
0
0
VERTEX
8
CUT
10
374.881
20
222.160
30
0
0
VERTEX
8
CUT
10
374.528
20
222.216
30
0
0
VERTEX
8
CUT
10
374.214
20
222.376
30
0
0
VERTEX
8
CUT
10
373.966
20
222.624
30
0
0
VERTEX
8
CUT
10
373.806
20
222.938
30
0
0
VERTEX
8
CUT
10
373.750
20
223.291
30
0
0
SEQEND
8
CUT
0
POLYLINE
8
CUT
66
1
70
1
10
0
20
0
30
0
0
VERTEX
8
CUT
10
432.250
20
201.950
30
0
0
VERTEX
8
CUT
10
422.300
20
201.950
30
0
0
VERTEX
8
CUT
10
422.300
20
204.900
30
0
0
VERTEX
8
CUT
10
432.250
20
204.900
30
0
0
SEQEND
8
CUT
0
POLYLINE
8
CUT
66
1
70
1
10
0
20
0
30
0
0
VERTEX
8
CUT
10
369.850
20
201.950
30
0
0
VERTEX
8
CUT
10
359.900
20
201.950
30
0
0
VERTEX
8
CUT
10
359.900
20
204.900
30
0
0
VERTEX
8
CUT
10
369.850
20
204.900
30
0
0
SEQEND
8
CUT
0
POLYLINE
8
CUT
66
1
70
1
10
0
20
0
30
0
0
VERTEX
8
CUT
10
435.150
20
198.850
30
0
0
VERTEX
8
CUT
10
415.618
20
198.850
30
0
0
VERTEX
8
CUT
10
415.618
20
201.850
30
0
0
VERTEX
8
CUT
10
376.532
20
201.850
30
0
0
VERTEX
8
CUT
10
376.532
20
198.850
30
0
0
VERTEX
8
CUT
10
357.000
20
198.850
30
0
0
VERTEX
8
CUT
10
357.000
20
205.850
30
0
0
VERTEX
8
CUT
10
354.000
20
205.850
30
0
0
VERTEX
8
CUT
10
354.000
20
216.000
30
0
0
VERTEX
8
CUT
10
357.000
20
216.000
30
0
0
VERTEX
8
CUT
10
357.000
20
229.850
30
0
0
VERTEX
8
CUT
10
354.000
20
229.850
30
0
0
VERTEX
8
CUT
10
354.000
20
240.000
30
0
0
VERTEX
8
CUT
10
357.000
20
240.000
30
0
0
VERTEX
8
CUT
10
357.000
20
247.000
30
0
0
VERTEX
8
CUT
10
435.150
20
247.000
30
0
0
VERTEX
8
CUT
10
435.150
20
240.000
30
0
0
VERTEX
8
CUT
10
438.150
20
240.000
30
0
0
VERTEX
8
CUT
10
438.150
20
229.850
30
0
0
VERTEX
8
CUT
10
435.150
20
229.850
30
0
0
VERTEX
8
CUT
10
435.150
20
216.000
30
0
0
VERTEX
8
CUT
10
438.150
20
216.000
30
0
0
VERTEX
8
CUT
10
438.150
20
205.850
30
0
0
VERTEX
8
CUT
10
435.150
20
205.850
30
0
0
SEQEND
8
CUT
0
POLYLINE
8
CUT
66
1
70
1
10
0
20
0
30
0
0
VERTEX
8
CUT
10
64.750
20
224.219
30
0
0
VERTEX
8
CUT
10
64.806
20
224.572
30
0
0
VERTEX
8
CUT
10
64.966
20
224.886
30
0
0
VERTEX
8
CUT
10
65.214
20
225.134
30
0
0
VERTEX
8
CUT
10
65.528
20
225.294
30
0
0
VERTEX
8
CUT
10
65.881
20
225.350
30
0
0
VERTEX
8
CUT
10
66.269
20
225.350
30
0
0
VERTEX
8
CUT
10
66.622
20
225.294
30
0
0
VERTEX
8
CUT
10
66.936
20
225.134
30
0
0
VERTEX
8
CUT
10
67.184
20
224.886
30
0
0
VERTEX
8
CUT
10
67.344
20
224.572
30
0
0
VERTEX
8
CUT
10
67.400
20
224.219
30
0
0
VERTEX
8
CUT
10
67.400
20
210.791
30
0
0
VERTEX
8
CUT
10
67.344
20
210.438
30
0
0
VERTEX
8
CUT
10
67.184
20
210.124
30
0
0
VERTEX
8
CUT
10
66.936
20
209.876
30
0
0
VERTEX
8
CUT
10
66.622
20
209.716
30
0
0
VERTEX
8
CUT
10
66.269
20
209.660
30
0
0
VERTEX
8
CUT
10
65.881
20
209.660
30
0
0
VERTEX
8
CUT
10
65.528
20
209.716
30
0
0
VERTEX
8
CUT
10
65.214
20
209.876
30
0
0
VERTEX
8
CUT
10
64.966
20
210.124
30
0
0
VERTEX
8
CUT
10
64.806
20
210.438
30
0
0
VERTEX
8
CUT
10
64.750
20
210.791
30
0
0
SEQEND
8
CUT
0
POLYLINE
8
CUT
66
1
70
1
10
0
20
0
30
0
0
VERTEX
8
CUT
10
57.750
20
224.219
30
0
0
VERTEX
8
CUT
10
57.806
20
224.572
30
0
0
VERTEX
8
CUT
10
57.966
20
224.886
30
0
0
VERTEX
8
CUT
10
58.214
20
225.134
30
0
0
VERTEX
8
CUT
10
58.528
20
225.294
30
0
0
VERTEX
8
CUT
10
58.881
20
225.350
30
0
0
VERTEX
8
CUT
10
59.269
20
225.350
30
0
0
VERTEX
8
CUT
10
59.622
20
225.294
30
0
0
VERTEX
8
CUT
10
59.936
20
225.134
30
0
0
VERTEX
8
CUT
10
60.184
20
224.886
30
0
0
VERTEX
8
CUT
10
60.344
20
224.572
30
0
0
VERTEX
8
CUT
10
60.400
20
224.219
30
0
0
VERTEX
8
CUT
10
60.400
20
210.791
30
0
0
VERTEX
8
CUT
10
60.344
20
210.438
30
0
0
VERTEX
8
CUT
10
60.184
20
210.124
30
0
0
VERTEX
8
CUT
10
59.936
20
209.876
30
0
0
VERTEX
8
CUT
10
59.622
20
209.716
30
0
0
VERTEX
8
CUT
10
59.269
20
209.660
30
0
0
VERTEX
8
CUT
10
58.881
20
209.660
30
0
0
VERTEX
8
CUT
10
58.528
20
209.716
30
0
0
VERTEX
8
CUT
10
58.214
20
209.876
30
0
0
VERTEX
8
CUT
10
57.966
20
210.124
30
0
0
VERTEX
8
CUT
10
57.806
20
210.438
30
0
0
VERTEX
8
CUT
10
57.750
20
210.791
30
0
0
SEQEND
8
CUT
0
POLYLINE
8
CUT
66
1
70
1
10
0
20
0
30
0
0
VERTEX
8
CUT
10
50.750
20
224.219
30
0
0
VERTEX
8
CUT
10
50.806
20
224.572
30
0
0
VERTEX
8
CUT
10
50.966
20
224.886
30
0
0
VERTEX
8
CUT
10
51.214
20
225.134
30
0
0
VERTEX
8
CUT
10
51.528
20
225.294
30
0
0
VERTEX
8
CUT
10
51.881
20
225.350
30
0
0
VERTEX
8
CUT
10
52.269
20
225.350
30
0
0
VERTEX
8
CUT
10
52.622
20
225.294
30
0
0
VERTEX
8
CUT
10
52.936
20
225.134
30
0
0
VERTEX
8
CUT
10
53.184
20
224.886
30
0
0
VERTEX
8
CUT
10
53.344
20
224.572
30
0
0
VERTEX
8
CUT
10
53.400
20
224.219
30
0
0
VERTEX
8
CUT
10
53.400
20
210.791
30
0
0
VERTEX
8
CUT
10
53.344
20
210.438
30
0
0
VERTEX
8
CUT
10
53.184
20
210.124
30
0
0
VERTEX
8
CUT
10
52.936
20
209.876
30
0
0
VERTEX
8
CUT
10
52.622
20
209.716
30
0
0
VERTEX
8
CUT
10
52.269
20
209.660
30
0
0
VERTEX
8
CUT
10
51.881
20
209.660
30
0
0
VERTEX
8
CUT
10
51.528
20
209.716
30
0
0
VERTEX
8
CUT
10
51.214
20
209.876
30
0
0
VERTEX
8
CUT
10
50.966
20
210.124
30
0
0
VERTEX
8
CUT
10
50.806
20
210.438
30
0
0
VERTEX
8
CUT
10
50.750
20
210.791
30
0
0
SEQEND
8
CUT
0
POLYLINE
8
CUT
66
1
70
1
10
0
20
0
30
0
0
VERTEX
8
CUT
10
43.750
20
224.219
30
0
0
VERTEX
8
CUT
10
43.806
20
224.572
30
0
0
VERTEX
8
CUT
10
43.966
20
224.886
30
0
0
VERTEX
8
CUT
10
44.214
20
225.134
30
0
0
VERTEX
8
CUT
10
44.528
20
225.294
30
0
0
VERTEX
8
CUT
10
44.881
20
225.350
30
0
0
VERTEX
8
CUT
10
45.269
20
225.350
30
0
0
VERTEX
8
CUT
10
45.622
20
225.294
30
0
0
VERTEX
8
CUT
10
45.936
20
225.134
30
0
0
VERTEX
8
CUT
10
46.184
20
224.886
30
0
0
VERTEX
8
CUT
10
46.344
20
224.572
30
0
0
VERTEX
8
CUT
10
46.400
20
224.219
30
0
0
VERTEX
8
CUT
10
46.400
20
210.791
30
0
0
VERTEX
8
CUT
10
46.344
20
210.438
30
0
0
VERTEX
8
CUT
10
46.184
20
210.124
30
0
0
VERTEX
8
CUT
10
45.936
20
209.876
30
0
0
VERTEX
8
CUT
10
45.622
20
209.716
30
0
0
VERTEX
8
CUT
10
45.269
20
209.660
30
0
0
VERTEX
8
CUT
10
44.881
20
209.660
30
0
0
VERTEX
8
CUT
10
44.528
20
209.716
30
0
0
VERTEX
8
CUT
10
44.214
20
209.876
30
0
0
VERTEX
8
CUT
10
43.966
20
210.124
30
0
0
VERTEX
8
CUT
10
43.806
20
210.438
30
0
0
VERTEX
8
CUT
10
43.750
20
210.791
30
0
0
SEQEND
8
CUT
0
POLYLINE
8
CUT
66
1
70
1
10
0
20
0
30
0
0
VERTEX
8
CUT
10
36.750
20
224.219
30
0
0
VERTEX
8
CUT
10
36.806
20
224.572
30
0
0
VERTEX
8
CUT
10
36.966
20
224.886
30
0
0
VERTEX
8
CUT
10
37.214
20
225.134
30
0
0
VERTEX
8
CUT
10
37.528
20
225.294
30
0
0
VERTEX
8
CUT
10
37.881
20
225.350
30
0
0
VERTEX
8
CUT
10
38.269
20
225.350
30
0
0
VERTEX
8
CUT
10
38.622
20
225.294
30
0
0
VERTEX
8
CUT
10
38.936
20
225.134
30
0
0
VERTEX
8
CUT
10
39.184
20
224.886
30
0
0
VERTEX
8
CUT
10
39.344
20
224.572
30
0
0
VERTEX
8
CUT
10
39.400
20
224.219
30
0
0
VERTEX
8
CUT
10
39.400
20
210.791
30
0
0
VERTEX
8
CUT
10
39.344
20
210.438
30
0
0
VERTEX
8
CUT
10
39.184
20
210.124
30
0
0
VERTEX
8
CUT
10
38.936
20
209.876
30
0
0
VERTEX
8
CUT
10
38.622
20
209.716
30
0
0
VERTEX
8
CUT
10
38.269
20
209.660
30
0
0
VERTEX
8
CUT
10
37.881
20
209.660
30
0
0
VERTEX
8
CUT
10
37.528
20
209.716
30
0
0
VERTEX
8
CUT
10
37.214
20
209.876
30
0
0
VERTEX
8
CUT
10
36.966
20
210.124
30
0
0
VERTEX
8
CUT
10
36.806
20
210.438
30
0
0
VERTEX
8
CUT
10
36.750
20
210.791
30
0
0
SEQEND
8
CUT
0
POLYLINE
8
CUT
66
1
70
1
10
0
20
0
30
0
0
VERTEX
8
CUT
10
29.750
20
224.219
30
0
0
VERTEX
8
CUT
10
29.806
20
224.572
30
0
0
VERTEX
8
CUT
10
29.966
20
224.886
30
0
0
VERTEX
8
CUT
10
30.214
20
225.134
30
0
0
VERTEX
8
CUT
10
30.528
20
225.294
30
0
0
VERTEX
8
CUT
10
30.881
20
225.350
30
0
0
VERTEX
8
CUT
10
31.269
20
225.350
30
0
0
VERTEX
8
CUT
10
31.622
20
225.294
30
0
0
VERTEX
8
CUT
10
31.936
20
225.134
30
0
0
VERTEX
8
CUT
10
32.184
20
224.886
30
0
0
VERTEX
8
CUT
10
32.344
20
224.572
30
0
0
VERTEX
8
CUT
10
32.400
20
224.219
30
0
0
VERTEX
8
CUT
10
32.400
20
210.791
30
0
0
VERTEX
8
CUT
10
32.344
20
210.438
30
0
0
VERTEX
8
CUT
10
32.184
20
210.124
30
0
0
VERTEX
8
CUT
10
31.936
20
209.876
30
0
0
VERTEX
8
CUT
10
31.622
20
209.716
30
0
0
VERTEX
8
CUT
10
31.269
20
209.660
30
0
0
VERTEX
8
CUT
10
30.881
20
209.660
30
0
0
VERTEX
8
CUT
10
30.528
20
209.716
30
0
0
VERTEX
8
CUT
10
30.214
20
209.876
30
0
0
VERTEX
8
CUT
10
29.966
20
210.124
30
0
0
VERTEX
8
CUT
10
29.806
20
210.438
30
0
0
VERTEX
8
CUT
10
29.750
20
210.791
30
0
0
SEQEND
8
CUT
0
POLYLINE
8
CUT
66
1
70
1
10
0
20
0
30
0
0
VERTEX
8
CUT
10
22.750
20
224.219
30
0
0
VERTEX
8
CUT
10
22.806
20
224.572
30
0
0
VERTEX
8
CUT
10
22.966
20
224.886
30
0
0
VERTEX
8
CUT
10
23.214
20
225.134
30
0
0
VERTEX
8
CUT
10
23.528
20
225.294
30
0
0
VERTEX
8
CUT
10
23.881
20
225.350
30
0
0
VERTEX
8
CUT
10
24.269
20
225.350
30
0
0
VERTEX
8
CUT
10
24.622
20
225.294
30
0
0
VERTEX
8
CUT
10
24.936
20
225.134
30
0
0
VERTEX
8
CUT
10
25.184
20
224.886
30
0
0
VERTEX
8
CUT
10
25.344
20
224.572
30
0
0
VERTEX
8
CUT
10
25.400
20
224.219
30
0
0
VERTEX
8
CUT
10
25.400
20
210.791
30
0
0
VERTEX
8
CUT
10
25.344
20
210.438
30
0
0
VERTEX
8
CUT
10
25.184
20
210.124
30
0
0
VERTEX
8
CUT
10
24.936
20
209.876
30
0
0
VERTEX
8
CUT
10
24.622
20
209.716
30
0
0
VERTEX
8
CUT
10
24.269
20
209.660
30
0
0
VERTEX
8
CUT
10
23.881
20
209.660
30
0
0
VERTEX
8
CUT
10
23.528
20
209.716
30
0
0
VERTEX
8
CUT
10
23.214
20
209.876
30
0
0
VERTEX
8
CUT
10
22.966
20
210.124
30
0
0
VERTEX
8
CUT
10
22.806
20
210.438
30
0
0
VERTEX
8
CUT
10
22.750
20
210.791
30
0
0
SEQEND
8
CUT
0
POLYLINE
8
CUT
66
1
70
1
10
0
20
0
30
0
0
VERTEX
8
CUT
10
81.250
20
189.450
30
0
0
VERTEX
8
CUT
10
71.300
20
189.450
30
0
0
VERTEX
8
CUT
10
71.300
20
192.400
30
0
0
VERTEX
8
CUT
10
81.250
20
192.400
30
0
0
SEQEND
8
CUT
0
POLYLINE
8
CUT
66
1
70
1
10
0
20
0
30
0
0
VERTEX
8
CUT
10
18.850
20
189.450
30
0
0
VERTEX
8
CUT
10
8.900
20
189.450
30
0
0
VERTEX
8
CUT
10
8.900
20
192.400
30
0
0
VERTEX
8
CUT
10
18.850
20
192.400
30
0
0
SEQEND
8
CUT
0
POLYLINE
8
CUT
66
1
70
1
10
0
20
0
30
0
0
VERTEX
8
CUT
10
84.150
20
186.350
30
0
0
VERTEX
8
CUT
10
64.618
20
186.350
30
0
0
VERTEX
8
CUT
10
64.618
20
189.350
30
0
0
VERTEX
8
CUT
10
25.532
20
189.350
30
0
0
VERTEX
8
CUT
10
25.532
20
186.350
30
0
0
VERTEX
8
CUT
10
6.000
20
186.350
30
0
0
VERTEX
8
CUT
10
6.000
20
193.350
30
0
0
VERTEX
8
CUT
10
3.000
20
193.350
30
0
0
VERTEX
8
CUT
10
3.000
20
203.500
30
0
0
VERTEX
8
CUT
10
6.000
20
203.500
30
0
0
VERTEX
8
CUT
10
6.000
20
217.350
30
0
0
VERTEX
8
CUT
10
3.000
20
217.350
30
0
0
VERTEX
8
CUT
10
3.000
20
227.500
30
0
0
VERTEX
8
CUT
10
6.000
20
227.500
30
0
0
VERTEX
8
CUT
10
6.000
20
234.500
30
0
0
VERTEX
8
CUT
10
84.150
20
234.500
30
0
0
VERTEX
8
CUT
10
84.150
20
227.500
30
0
0
VERTEX
8
CUT
10
87.150
20
227.500
30
0
0
VERTEX
8
CUT
10
87.150
20
217.350
30
0
0
VERTEX
8
CUT
10
84.150
20
217.350
30
0
0
VERTEX
8
CUT
10
84.150
20
203.500
30
0
0
VERTEX
8
CUT
10
87.150
20
203.500
30
0
0
VERTEX
8
CUT
10
87.150
20
193.350
30
0
0
VERTEX
8
CUT
10
84.150
20
193.350
30
0
0
SEQEND
8
CUT
0
POLYLINE
8
CUT
66
1
70
1
10
0
20
0
30
0
0
VERTEX
8
CUT
10
150.750
20
224.219
30
0
0
VERTEX
8
CUT
10
150.806
20
224.572
30
0
0
VERTEX
8
CUT
10
150.966
20
224.886
30
0
0
VERTEX
8
CUT
10
151.214
20
225.134
30
0
0
VERTEX
8
CUT
10
151.528
20
225.294
30
0
0
VERTEX
8
CUT
10
151.881
20
225.350
30
0
0
VERTEX
8
CUT
10
152.269
20
225.350
30
0
0
VERTEX
8
CUT
10
152.622
20
225.294
30
0
0
VERTEX
8
CUT
10
152.936
20
225.134
30
0
0
VERTEX
8
CUT
10
153.184
20
224.886
30
0
0
VERTEX
8
CUT
10
153.344
20
224.572
30
0
0
VERTEX
8
CUT
10
153.400
20
224.219
30
0
0
VERTEX
8
CUT
10
153.400
20
210.791
30
0
0
VERTEX
8
CUT
10
153.344
20
210.438
30
0
0
VERTEX
8
CUT
10
153.184
20
210.124
30
0
0
VERTEX
8
CUT
10
152.936
20
209.876
30
0
0
VERTEX
8
CUT
10
152.622
20
209.716
30
0
0
VERTEX
8
CUT
10
152.269
20
209.660
30
0
0
VERTEX
8
CUT
10
151.881
20
209.660
30
0
0
VERTEX
8
CUT
10
151.528
20
209.716
30
0
0
VERTEX
8
CUT
10
151.214
20
209.876
30
0
0
VERTEX
8
CUT
10
150.966
20
210.124
30
0
0
VERTEX
8
CUT
10
150.806
20
210.438
30
0
0
VERTEX
8
CUT
10
150.750
20
210.791
30
0
0
SEQEND
8
CUT
0
POLYLINE
8
CUT
66
1
70
1
10
0
20
0
30
0
0
VERTEX
8
CUT
10
143.750
20
224.219
30
0
0
VERTEX
8
CUT
10
143.806
20
224.572
30
0
0
VERTEX
8
CUT
10
143.966
20
224.886
30
0
0
VERTEX
8
CUT
10
144.214
20
225.134
30
0
0
VERTEX
8
CUT
10
144.528
20
225.294
30
0
0
VERTEX
8
CUT
10
144.881
20
225.350
30
0
0
VERTEX
8
CUT
10
145.269
20
225.350
30
0
0
VERTEX
8
CUT
10
145.622
20
225.294
30
0
0
VERTEX
8
CUT
10
145.936
20
225.134
30
0
0
VERTEX
8
CUT
10
146.184
20
224.886
30
0
0
VERTEX
8
CUT
10
146.344
20
224.572
30
0
0
VERTEX
8
CUT
10
146.400
20
224.219
30
0
0
VERTEX
8
CUT
10
146.400
20
210.791
30
0
0
VERTEX
8
CUT
10
146.344
20
210.438
30
0
0
VERTEX
8
CUT
10
146.184
20
210.124
30
0
0
VERTEX
8
CUT
10
145.936
20
209.876
30
0
0
VERTEX
8
CUT
10
145.622
20
209.716
30
0
0
VERTEX
8
CUT
10
145.269
20
209.660
30
0
0
VERTEX
8
CUT
10
144.881
20
209.660
30
0
0
VERTEX
8
CUT
10
144.528
20
209.716
30
0
0
VERTEX
8
CUT
10
144.214
20
209.876
30
0
0
VERTEX
8
CUT
10
143.966
20
210.124
30
0
0
VERTEX
8
CUT
10
143.806
20
210.438
30
0
0
VERTEX
8
CUT
10
143.750
20
210.791
30
0
0
SEQEND
8
CUT
0
POLYLINE
8
CUT
66
1
70
1
10
0
20
0
30
0
0
VERTEX
8
CUT
10
136.750
20
224.219
30
0
0
VERTEX
8
CUT
10
136.806
20
224.572
30
0
0
VERTEX
8
CUT
10
136.966
20
224.886
30
0
0
VERTEX
8
CUT
10
137.214
20
225.134
30
0
0
VERTEX
8
CUT
10
137.528
20
225.294
30
0
0
VERTEX
8
CUT
10
137.881
20
225.350
30
0
0
VERTEX
8
CUT
10
138.269
20
225.350
30
0
0
VERTEX
8
CUT
10
138.622
20
225.294
30
0
0
VERTEX
8
CUT
10
138.936
20
225.134
30
0
0
VERTEX
8
CUT
10
139.184
20
224.886
30
0
0
VERTEX
8
CUT
10
139.344
20
224.572
30
0
0
VERTEX
8
CUT
10
139.400
20
224.219
30
0
0
VERTEX
8
CUT
10
139.400
20
210.791
30
0
0
VERTEX
8
CUT
10
139.344
20
210.438
30
0
0
VERTEX
8
CUT
10
139.184
20
210.124
30
0
0
VERTEX
8
CUT
10
138.936
20
209.876
30
0
0
VERTEX
8
CUT
10
138.622
20
209.716
30
0
0
VERTEX
8
CUT
10
138.269
20
209.660
30
0
0
VERTEX
8
CUT
10
137.881
20
209.660
30
0
0
VERTEX
8
CUT
10
137.528
20
209.716
30
0
0
VERTEX
8
CUT
10
137.214
20
209.876
30
0
0
VERTEX
8
CUT
10
136.966
20
210.124
30
0
0
VERTEX
8
CUT
10
136.806
20
210.438
30
0
0
VERTEX
8
CUT
10
136.750
20
210.791
30
0
0
SEQEND
8
CUT
0
POLYLINE
8
CUT
66
1
70
1
10
0
20
0
30
0
0
VERTEX
8
CUT
10
129.750
20
224.219
30
0
0
VERTEX
8
CUT
10
129.806
20
224.572
30
0
0
VERTEX
8
CUT
10
129.966
20
224.886
30
0
0
VERTEX
8
CUT
10
130.214
20
225.134
30
0
0
VERTEX
8
CUT
10
130.528
20
225.294
30
0
0
VERTEX
8
CUT
10
130.881
20
225.350
30
0
0
VERTEX
8
CUT
10
131.269
20
225.350
30
0
0
VERTEX
8
CUT
10
131.622
20
225.294
30
0
0
VERTEX
8
CUT
10
131.936
20
225.134
30
0
0
VERTEX
8
CUT
10
132.184
20
224.886
30
0
0
VERTEX
8
CUT
10
132.344
20
224.572
30
0
0
VERTEX
8
CUT
10
132.400
20
224.219
30
0
0
VERTEX
8
CUT
10
132.400
20
210.791
30
0
0
VERTEX
8
CUT
10
132.344
20
210.438
30
0
0
VERTEX
8
CUT
10
132.184
20
210.124
30
0
0
VERTEX
8
CUT
10
131.936
20
209.876
30
0
0
VERTEX
8
CUT
10
131.622
20
209.716
30
0
0
VERTEX
8
CUT
10
131.269
20
209.660
30
0
0
VERTEX
8
CUT
10
130.881
20
209.660
30
0
0
VERTEX
8
CUT
10
130.528
20
209.716
30
0
0
VERTEX
8
CUT
10
130.214
20
209.876
30
0
0
VERTEX
8
CUT
10
129.966
20
210.124
30
0
0
VERTEX
8
CUT
10
129.806
20
210.438
30
0
0
VERTEX
8
CUT
10
129.750
20
210.791
30
0
0
SEQEND
8
CUT
0
POLYLINE
8
CUT
66
1
70
1
10
0
20
0
30
0
0
VERTEX
8
CUT
10
122.750
20
224.219
30
0
0
VERTEX
8
CUT
10
122.806
20
224.572
30
0
0
VERTEX
8
CUT
10
122.966
20
224.886
30
0
0
VERTEX
8
CUT
10
123.214
20
225.134
30
0
0
VERTEX
8
CUT
10
123.528
20
225.294
30
0
0
VERTEX
8
CUT
10
123.881
20
225.350
30
0
0
VERTEX
8
CUT
10
124.269
20
225.350
30
0
0
VERTEX
8
CUT
10
124.622
20
225.294
30
0
0
VERTEX
8
CUT
10
124.936
20
225.134
30
0
0
VERTEX
8
CUT
10
125.184
20
224.886
30
0
0
VERTEX
8
CUT
10
125.344
20
224.572
30
0
0
VERTEX
8
CUT
10
125.400
20
224.219
30
0
0
VERTEX
8
CUT
10
125.400
20
210.791
30
0
0
VERTEX
8
CUT
10
125.344
20
210.438
30
0
0
VERTEX
8
CUT
10
125.184
20
210.124
30
0
0
VERTEX
8
CUT
10
124.936
20
209.876
30
0
0
VERTEX
8
CUT
10
124.622
20
209.716
30
0
0
VERTEX
8
CUT
10
124.269
20
209.660
30
0
0
VERTEX
8
CUT
10
123.881
20
209.660
30
0
0
VERTEX
8
CUT
10
123.528
20
209.716
30
0
0
VERTEX
8
CUT
10
123.214
20
209.876
30
0
0
VERTEX
8
CUT
10
122.966
20
210.124
30
0
0
VERTEX
8
CUT
10
122.806
20
210.438
30
0
0
VERTEX
8
CUT
10
122.750
20
210.791
30
0
0
SEQEND
8
CUT
0
POLYLINE
8
CUT
66
1
70
1
10
0
20
0
30
0
0
VERTEX
8
CUT
10
115.750
20
224.219
30
0
0
VERTEX
8
CUT
10
115.806
20
224.572
30
0
0
VERTEX
8
CUT
10
115.966
20
224.886
30
0
0
VERTEX
8
CUT
10
116.214
20
225.134
30
0
0
VERTEX
8
CUT
10
116.528
20
225.294
30
0
0
VERTEX
8
CUT
10
116.881
20
225.350
30
0
0
VERTEX
8
CUT
10
117.269
20
225.350
30
0
0
VERTEX
8
CUT
10
117.622
20
225.294
30
0
0
VERTEX
8
CUT
10
117.936
20
225.134
30
0
0
VERTEX
8
CUT
10
118.184
20
224.886
30
0
0
VERTEX
8
CUT
10
118.344
20
224.572
30
0
0
VERTEX
8
CUT
10
118.400
20
224.219
30
0
0
VERTEX
8
CUT
10
118.400
20
210.791
30
0
0
VERTEX
8
CUT
10
118.344
20
210.438
30
0
0
VERTEX
8
CUT
10
118.184
20
210.124
30
0
0
VERTEX
8
CUT
10
117.936
20
209.876
30
0
0
VERTEX
8
CUT
10
117.622
20
209.716
30
0
0
VERTEX
8
CUT
10
117.269
20
209.660
30
0
0
VERTEX
8
CUT
10
116.881
20
209.660
30
0
0
VERTEX
8
CUT
10
116.528
20
209.716
30
0
0
VERTEX
8
CUT
10
116.214
20
209.876
30
0
0
VERTEX
8
CUT
10
115.966
20
210.124
30
0
0
VERTEX
8
CUT
10
115.806
20
210.438
30
0
0
VERTEX
8
CUT
10
115.750
20
210.791
30
0
0
SEQEND
8
CUT
0
POLYLINE
8
CUT
66
1
70
1
10
0
20
0
30
0
0
VERTEX
8
CUT
10
108.750
20
224.219
30
0
0
VERTEX
8
CUT
10
108.806
20
224.572
30
0
0
VERTEX
8
CUT
10
108.966
20
224.886
30
0
0
VERTEX
8
CUT
10
109.214
20
225.134
30
0
0
VERTEX
8
CUT
10
109.528
20
225.294
30
0
0
VERTEX
8
CUT
10
109.881
20
225.350
30
0
0
VERTEX
8
CUT
10
110.269
20
225.350
30
0
0
VERTEX
8
CUT
10
110.622
20
225.294
30
0
0
VERTEX
8
CUT
10
110.936
20
225.134
30
0
0
VERTEX
8
CUT
10
111.184
20
224.886
30
0
0
VERTEX
8
CUT
10
111.344
20
224.572
30
0
0
VERTEX
8
CUT
10
111.400
20
224.219
30
0
0
VERTEX
8
CUT
10
111.400
20
210.791
30
0
0
VERTEX
8
CUT
10
111.344
20
210.438
30
0
0
VERTEX
8
CUT
10
111.184
20
210.124
30
0
0
VERTEX
8
CUT
10
110.936
20
209.876
30
0
0
VERTEX
8
CUT
10
110.622
20
209.716
30
0
0
VERTEX
8
CUT
10
110.269
20
209.660
30
0
0
VERTEX
8
CUT
10
109.881
20
209.660
30
0
0
VERTEX
8
CUT
10
109.528
20
209.716
30
0
0
VERTEX
8
CUT
10
109.214
20
209.876
30
0
0
VERTEX
8
CUT
10
108.966
20
210.124
30
0
0
VERTEX
8
CUT
10
108.806
20
210.438
30
0
0
VERTEX
8
CUT
10
108.750
20
210.791
30
0
0
SEQEND
8
CUT
0
POLYLINE
8
CUT
66
1
70
1
10
0
20
0
30
0
0
VERTEX
8
CUT
10
167.250
20
189.450
30
0
0
VERTEX
8
CUT
10
157.300
20
189.450
30
0
0
VERTEX
8
CUT
10
157.300
20
192.400
30
0
0
VERTEX
8
CUT
10
167.250
20
192.400
30
0
0
SEQEND
8
CUT
0
POLYLINE
8
CUT
66
1
70
1
10
0
20
0
30
0
0
VERTEX
8
CUT
10
104.850
20
189.450
30
0
0
VERTEX
8
CUT
10
94.900
20
189.450
30
0
0
VERTEX
8
CUT
10
94.900
20
192.400
30
0
0
VERTEX
8
CUT
10
104.850
20
192.400
30
0
0
SEQEND
8
CUT
0
POLYLINE
8
CUT
66
1
70
1
10
0
20
0
30
0
0
VERTEX
8
CUT
10
170.150
20
186.350
30
0
0
VERTEX
8
CUT
10
150.618
20
186.350
30
0
0
VERTEX
8
CUT
10
150.618
20
189.350
30
0
0
VERTEX
8
CUT
10
111.532
20
189.350
30
0
0
VERTEX
8
CUT
10
111.532
20
186.350
30
0
0
VERTEX
8
CUT
10
92.000
20
186.350
30
0
0
VERTEX
8
CUT
10
92.000
20
193.350
30
0
0
VERTEX
8
CUT
10
89.000
20
193.350
30
0
0
VERTEX
8
CUT
10
89.000
20
203.500
30
0
0
VERTEX
8
CUT
10
92.000
20
203.500
30
0
0
VERTEX
8
CUT
10
92.000
20
217.350
30
0
0
VERTEX
8
CUT
10
89.000
20
217.350
30
0
0
VERTEX
8
CUT
10
89.000
20
227.500
30
0
0
VERTEX
8
CUT
10
92.000
20
227.500
30
0
0
VERTEX
8
CUT
10
92.000
20
234.500
30
0
0
VERTEX
8
CUT
10
170.150
20
234.500
30
0
0
VERTEX
8
CUT
10
170.150
20
227.500
30
0
0
VERTEX
8
CUT
10
173.150
20
227.500
30
0
0
VERTEX
8
CUT
10
173.150
20
217.350
30
0
0
VERTEX
8
CUT
10
170.150
20
217.350
30
0
0
VERTEX
8
CUT
10
170.150
20
203.500
30
0
0
VERTEX
8
CUT
10
173.150
20
203.500
30
0
0
VERTEX
8
CUT
10
173.150
20
193.350
30
0
0
VERTEX
8
CUT
10
170.150
20
193.350
30
0
0
SEQEND
8
CUT
0
POLYLINE
8
CUT
66
1
70
1
10
0
20
0
30
0
0
VERTEX
8
CUT
10
219.999
20
211.425
30
0
0
VERTEX
8
CUT
10
219.823
20
212.425
30
0
0
VERTEX
8
CUT
10
219.315
20
213.304
30
0
0
VERTEX
8
CUT
10
218.537
20
213.957
30
0
0
VERTEX
8
CUT
10
217.583
20
214.304
30
0
0
VERTEX
8
CUT
10
216.567
20
214.304
30
0
0
VERTEX
8
CUT
10
215.613
20
213.957
30
0
0
VERTEX
8
CUT
10
214.835
20
213.304
30
0
0
VERTEX
8
CUT
10
214.327
20
212.425
30
0
0
VERTEX
8
CUT
10
214.151
20
211.425
30
0
0
VERTEX
8
CUT
10
214.327
20
210.425
30
0
0
VERTEX
8
CUT
10
214.835
20
209.546
30
0
0
VERTEX
8
CUT
10
215.613
20
208.893
30
0
0
VERTEX
8
CUT
10
216.567
20
208.546
30
0
0
VERTEX
8
CUT
10
217.583
20
208.546
30
0
0
VERTEX
8
CUT
10
218.537
20
208.893
30
0
0
VERTEX
8
CUT
10
219.315
20
209.546
30
0
0
VERTEX
8
CUT
10
219.823
20
210.425
30
0
0
SEQEND
8
CUT
0
POLYLINE
8
CUT
66
1
70
1
10
0
20
0
30
0
0
VERTEX
8
CUT
10
220.999
20
195.425
30
0
0
VERTEX
8
CUT
10
220.807
20
196.638
30
0
0
VERTEX
8
CUT
10
220.250
20
197.732
30
0
0
VERTEX
8
CUT
10
219.382
20
198.600
30
0
0
VERTEX
8
CUT
10
218.288
20
199.157
30
0
0
VERTEX
8
CUT
10
217.075
20
199.349
30
0
0
VERTEX
8
CUT
10
215.862
20
199.157
30
0
0
VERTEX
8
CUT
10
214.768
20
198.600
30
0
0
VERTEX
8
CUT
10
213.900
20
197.732
30
0
0
VERTEX
8
CUT
10
213.343
20
196.638
30
0
0
VERTEX
8
CUT
10
213.151
20
195.425
30
0
0
VERTEX
8
CUT
10
213.343
20
194.212
30
0
0
VERTEX
8
CUT
10
213.900
20
193.118
30
0
0
VERTEX
8
CUT
10
214.768
20
192.250
30
0
0
VERTEX
8
CUT
10
215.862
20
191.693
30
0
0
VERTEX
8
CUT
10
217.075
20
191.501
30
0
0
VERTEX
8
CUT
10
218.288
20
191.693
30
0
0
VERTEX
8
CUT
10
219.382
20
192.250
30
0
0
VERTEX
8
CUT
10
220.250
20
193.118
30
0
0
VERTEX
8
CUT
10
220.807
20
194.212
30
0
0
SEQEND
8
CUT
0
POLYLINE
8
CUT
66
1
70
1
10
0
20
0
30
0
0
VERTEX
8
CUT
10
223.187
20
216.516
30
0
0
VERTEX
8
CUT
10
222.992
20
217.116
30
0
0
VERTEX
8
CUT
10
222.482
20
217.487
30
0
0
VERTEX
8
CUT
10
221.851
20
217.487
30
0
0
VERTEX
8
CUT
10
221.340
20
217.116
30
0
0
VERTEX
8
CUT
10
221.145
20
216.516
30
0
0
VERTEX
8
CUT
10
221.340
20
215.916
30
0
0
VERTEX
8
CUT
10
221.851
20
215.545
30
0
0
VERTEX
8
CUT
10
222.482
20
215.545
30
0
0
VERTEX
8
CUT
10
222.992
20
215.916
30
0
0
SEQEND
8
CUT
0
POLYLINE
8
CUT
66
1
70
1
10
0
20
0
30
0
0
VERTEX
8
CUT
10
213.005
20
216.516
30
0
0
VERTEX
8
CUT
10
212.810
20
217.116
30
0
0
VERTEX
8
CUT
10
212.299
20
217.487
30
0
0
VERTEX
8
CUT
10
211.668
20
217.487
30
0
0
VERTEX
8
CUT
10
211.158
20
217.116
30
0
0
VERTEX
8
CUT
10
210.963
20
216.516
30
0
0
VERTEX
8
CUT
10
211.158
20
215.916
30
0
0
VERTEX
8
CUT
10
211.668
20
215.545
30
0
0
VERTEX
8
CUT
10
212.299
20
215.545
30
0
0
VERTEX
8
CUT
10
212.810
20
215.916
30
0
0
SEQEND
8
CUT
0
POLYLINE
8
CUT
66
1
70
1
10
0
20
0
30
0
0
VERTEX
8
CUT
10
213.005
20
206.334
30
0
0
VERTEX
8
CUT
10
212.810
20
206.934
30
0
0
VERTEX
8
CUT
10
212.299
20
207.305
30
0
0
VERTEX
8
CUT
10
211.668
20
207.305
30
0
0
VERTEX
8
CUT
10
211.158
20
206.934
30
0
0
VERTEX
8
CUT
10
210.963
20
206.334
30
0
0
VERTEX
8
CUT
10
211.158
20
205.734
30
0
0
VERTEX
8
CUT
10
211.668
20
205.363
30
0
0
VERTEX
8
CUT
10
212.299
20
205.363
30
0
0
VERTEX
8
CUT
10
212.810
20
205.734
30
0
0
SEQEND
8
CUT
0
POLYLINE
8
CUT
66
1
70
1
10
0
20
0
30
0
0
VERTEX
8
CUT
10
223.187
20
206.334
30
0
0
VERTEX
8
CUT
10
222.992
20
206.934
30
0
0
VERTEX
8
CUT
10
222.482
20
207.305
30
0
0
VERTEX
8
CUT
10
221.851
20
207.305
30
0
0
VERTEX
8
CUT
10
221.340
20
206.934
30
0
0
VERTEX
8
CUT
10
221.145
20
206.334
30
0
0
VERTEX
8
CUT
10
221.340
20
205.734
30
0
0
VERTEX
8
CUT
10
221.851
20
205.363
30
0
0
VERTEX
8
CUT
10
222.482
20
205.363
30
0
0
VERTEX
8
CUT
10
222.992
20
205.734
30
0
0
SEQEND
8
CUT
0
POLYLINE
8
CUT
66
1
70
1
10
0
20
0
30
0
0
VERTEX
8
CUT
10
184.300
20
215.600
30
0
0
VERTEX
8
CUT
10
187.250
20
215.600
30
0
0
VERTEX
8
CUT
10
187.250
20
223.550
30
0
0
VERTEX
8
CUT
10
184.300
20
223.550
30
0
0
SEQEND
8
CUT
0
POLYLINE
8
CUT
66
1
70
1
10
0
20
0
30
0
0
VERTEX
8
CUT
10
246.900
20
215.600
30
0
0
VERTEX
8
CUT
10
249.850
20
215.600
30
0
0
VERTEX
8
CUT
10
249.850
20
223.550
30
0
0
VERTEX
8
CUT
10
246.900
20
223.550
30
0
0
SEQEND
8
CUT
0
POLYLINE
8
CUT
66
1
70
1
10
0
20
0
30
0
0
VERTEX
8
CUT
10
178.000
20
189.350
30
0
0
VERTEX
8
CUT
10
180.800
20
189.350
30
0
0
VERTEX
8
CUT
10
180.800
20
186.350
30
0
0
VERTEX
8
CUT
10
190.950
20
186.350
30
0
0
VERTEX
8
CUT
10
190.950
20
189.350
30
0
0
VERTEX
8
CUT
10
243.200
20
189.350
30
0
0
VERTEX
8
CUT
10
243.200
20
186.350
30
0
0
VERTEX
8
CUT
10
253.350
20
186.350
30
0
0
VERTEX
8
CUT
10
253.350
20
189.350
30
0
0
VERTEX
8
CUT
10
256.150
20
189.350
30
0
0
VERTEX
8
CUT
10
256.150
20
194.850
30
0
0
VERTEX
8
CUT
10
259.150
20
194.850
30
0
0
VERTEX
8
CUT
10
259.150
20
205.000
30
0
0
VERTEX
8
CUT
10
256.150
20
205.000
30
0
0
VERTEX
8
CUT
10
256.150
20
215.850
30
0
0
VERTEX
8
CUT
10
259.150
20
215.850
30
0
0
VERTEX
8
CUT
10
259.150
20
226.000
30
0
0
VERTEX
8
CUT
10
256.150
20
226.000
30
0
0
VERTEX
8
CUT
10
256.150
20
231.500
30
0
0
VERTEX
8
CUT
10
253.350
20
231.500
30
0
0
VERTEX
8
CUT
10
253.350
20
234.500
30
0
0
VERTEX
8
CUT
10
243.200
20
234.500
30
0
0
VERTEX
8
CUT
10
243.200
20
231.500
30
0
0
VERTEX
8
CUT
10
190.950
20
231.500
30
0
0
VERTEX
8
CUT
10
190.950
20
234.500
30
0
0
VERTEX
8
CUT
10
180.800
20
234.500
30
0
0
VERTEX
8
CUT
10
180.800
20
231.500
30
0
0
VERTEX
8
CUT
10
178.000
20
231.500
30
0
0
VERTEX
8
CUT
10
178.000
20
226.000
30
0
0
VERTEX
8
CUT
10
175.000
20
226.000
30
0
0
VERTEX
8
CUT
10
175.000
20
215.850
30
0
0
VERTEX
8
CUT
10
178.000
20
215.850
30
0
0
VERTEX
8
CUT
10
178.000
20
205.000
30
0
0
VERTEX
8
CUT
10
175.000
20
205.000
30
0
0
VERTEX
8
CUT
10
175.000
20
194.850
30
0
0
VERTEX
8
CUT
10
178.000
20
194.850
30
0
0
SEQEND
8
CUT
0
POLYLINE
8
CUT
66
1
70
1
10
0
20
0
30
0
0
VERTEX
8
CUT
10
305.999
20
211.425
30
0
0
VERTEX
8
CUT
10
305.823
20
212.425
30
0
0
VERTEX
8
CUT
10
305.315
20
213.304
30
0
0
VERTEX
8
CUT
10
304.537
20
213.957
30
0
0
VERTEX
8
CUT
10
303.583
20
214.304
30
0
0
VERTEX
8
CUT
10
302.567
20
214.304
30
0
0
VERTEX
8
CUT
10
301.613
20
213.957
30
0
0
VERTEX
8
CUT
10
300.835
20
213.304
30
0
0
VERTEX
8
CUT
10
300.327
20
212.425
30
0
0
VERTEX
8
CUT
10
300.151
20
211.425
30
0
0
VERTEX
8
CUT
10
300.327
20
210.425
30
0
0
VERTEX
8
CUT
10
300.835
20
209.546
30
0
0
VERTEX
8
CUT
10
301.613
20
208.893
30
0
0
VERTEX
8
CUT
10
302.567
20
208.546
30
0
0
VERTEX
8
CUT
10
303.583
20
208.546
30
0
0
VERTEX
8
CUT
10
304.537
20
208.893
30
0
0
VERTEX
8
CUT
10
305.315
20
209.546
30
0
0
VERTEX
8
CUT
10
305.823
20
210.425
30
0
0
SEQEND
8
CUT
0
POLYLINE
8
CUT
66
1
70
1
10
0
20
0
30
0
0
VERTEX
8
CUT
10
306.999
20
195.425
30
0
0
VERTEX
8
CUT
10
306.807
20
196.638
30
0
0
VERTEX
8
CUT
10
306.250
20
197.732
30
0
0
VERTEX
8
CUT
10
305.382
20
198.600
30
0
0
VERTEX
8
CUT
10
304.288
20
199.157
30
0
0
VERTEX
8
CUT
10
303.075
20
199.349
30
0
0
VERTEX
8
CUT
10
301.862
20
199.157
30
0
0
VERTEX
8
CUT
10
300.768
20
198.600
30
0
0
VERTEX
8
CUT
10
299.900
20
197.732
30
0
0
VERTEX
8
CUT
10
299.343
20
196.638
30
0
0
VERTEX
8
CUT
10
299.151
20
195.425
30
0
0
VERTEX
8
CUT
10
299.343
20
194.212
30
0
0
VERTEX
8
CUT
10
299.900
20
193.118
30
0
0
VERTEX
8
CUT
10
300.768
20
192.250
30
0
0
VERTEX
8
CUT
10
301.862
20
191.693
30
0
0
VERTEX
8
CUT
10
303.075
20
191.501
30
0
0
VERTEX
8
CUT
10
304.288
20
191.693
30
0
0
VERTEX
8
CUT
10
305.382
20
192.250
30
0
0
VERTEX
8
CUT
10
306.250
20
193.118
30
0
0
VERTEX
8
CUT
10
306.807
20
194.212
30
0
0
SEQEND
8
CUT
0
POLYLINE
8
CUT
66
1
70
1
10
0
20
0
30
0
0
VERTEX
8
CUT
10
309.187
20
216.516
30
0
0
VERTEX
8
CUT
10
308.992
20
217.116
30
0
0
VERTEX
8
CUT
10
308.482
20
217.487
30
0
0
VERTEX
8
CUT
10
307.851
20
217.487
30
0
0
VERTEX
8
CUT
10
307.340
20
217.116
30
0
0
VERTEX
8
CUT
10
307.145
20
216.516
30
0
0
VERTEX
8
CUT
10
307.340
20
215.916
30
0
0
VERTEX
8
CUT
10
307.851
20
215.545
30
0
0
VERTEX
8
CUT
10
308.482
20
215.545
30
0
0
VERTEX
8
CUT
10
308.992
20
215.916
30
0
0
SEQEND
8
CUT
0
POLYLINE
8
CUT
66
1
70
1
10
0
20
0
30
0
0
VERTEX
8
CUT
10
299.005
20
216.516
30
0
0
VERTEX
8
CUT
10
298.810
20
217.116
30
0
0
VERTEX
8
CUT
10
298.299
20
217.487
30
0
0
VERTEX
8
CUT
10
297.668
20
217.487
30
0
0
VERTEX
8
CUT
10
297.158
20
217.116
30
0
0
VERTEX
8
CUT
10
296.963
20
216.516
30
0
0
VERTEX
8
CUT
10
297.158
20
215.916
30
0
0
VERTEX
8
CUT
10
297.668
20
215.545
30
0
0
VERTEX
8
CUT
10
298.299
20
215.545
30
0
0
VERTEX
8
CUT
10
298.810
20
215.916
30
0
0
SEQEND
8
CUT
0
POLYLINE
8
CUT
66
1
70
1
10
0
20
0
30
0
0
VERTEX
8
CUT
10
299.005
20
206.334
30
0
0
VERTEX
8
CUT
10
298.810
20
206.934
30
0
0
VERTEX
8
CUT
10
298.299
20
207.305
30
0
0
VERTEX
8
CUT
10
297.668
20
207.305
30
0
0
VERTEX
8
CUT
10
297.158
20
206.934
30
0
0
VERTEX
8
CUT
10
296.963
20
206.334
30
0
0
VERTEX
8
CUT
10
297.158
20
205.734
30
0
0
VERTEX
8
CUT
10
297.668
20
205.363
30
0
0
VERTEX
8
CUT
10
298.299
20
205.363
30
0
0
VERTEX
8
CUT
10
298.810
20
205.734
30
0
0
SEQEND
8
CUT
0
POLYLINE
8
CUT
66
1
70
1
10
0
20
0
30
0
0
VERTEX
8
CUT
10
309.187
20
206.334
30
0
0
VERTEX
8
CUT
10
308.992
20
206.934
30
0
0
VERTEX
8
CUT
10
308.482
20
207.305
30
0
0
VERTEX
8
CUT
10
307.851
20
207.305
30
0
0
VERTEX
8
CUT
10
307.340
20
206.934
30
0
0
VERTEX
8
CUT
10
307.145
20
206.334
30
0
0
VERTEX
8
CUT
10
307.340
20
205.734
30
0
0
VERTEX
8
CUT
10
307.851
20
205.363
30
0
0
VERTEX
8
CUT
10
308.482
20
205.363
30
0
0
VERTEX
8
CUT
10
308.992
20
205.734
30
0
0
SEQEND
8
CUT
0
POLYLINE
8
CUT
66
1
70
1
10
0
20
0
30
0
0
VERTEX
8
CUT
10
270.300
20
215.600
30
0
0
VERTEX
8
CUT
10
273.250
20
215.600
30
0
0
VERTEX
8
CUT
10
273.250
20
223.550
30
0
0
VERTEX
8
CUT
10
270.300
20
223.550
30
0
0
SEQEND
8
CUT
0
POLYLINE
8
CUT
66
1
70
1
10
0
20
0
30
0
0
VERTEX
8
CUT
10
332.900
20
215.600
30
0
0
VERTEX
8
CUT
10
335.850
20
215.600
30
0
0
VERTEX
8
CUT
10
335.850
20
223.550
30
0
0
VERTEX
8
CUT
10
332.900
20
223.550
30
0
0
SEQEND
8
CUT
0
POLYLINE
8
CUT
66
1
70
1
10
0
20
0
30
0
0
VERTEX
8
CUT
10
264.000
20
189.350
30
0
0
VERTEX
8
CUT
10
266.800
20
189.350
30
0
0
VERTEX
8
CUT
10
266.800
20
186.350
30
0
0
VERTEX
8
CUT
10
276.950
20
186.350
30
0
0
VERTEX
8
CUT
10
276.950
20
189.350
30
0
0
VERTEX
8
CUT
10
329.200
20
189.350
30
0
0
VERTEX
8
CUT
10
329.200
20
186.350
30
0
0
VERTEX
8
CUT
10
339.350
20
186.350
30
0
0
VERTEX
8
CUT
10
339.350
20
189.350
30
0
0
VERTEX
8
CUT
10
342.150
20
189.350
30
0
0
VERTEX
8
CUT
10
342.150
20
194.850
30
0
0
VERTEX
8
CUT
10
345.150
20
194.850
30
0
0
VERTEX
8
CUT
10
345.150
20
205.000
30
0
0
VERTEX
8
CUT
10
342.150
20
205.000
30
0
0
VERTEX
8
CUT
10
342.150
20
215.850
30
0
0
VERTEX
8
CUT
10
345.150
20
215.850
30
0
0
VERTEX
8
CUT
10
345.150
20
226.000
30
0
0
VERTEX
8
CUT
10
342.150
20
226.000
30
0
0
VERTEX
8
CUT
10
342.150
20
231.500
30
0
0
VERTEX
8
CUT
10
339.350
20
231.500
30
0
0
VERTEX
8
CUT
10
339.350
20
234.500
30
0
0
VERTEX
8
CUT
10
329.200
20
234.500
30
0
0
VERTEX
8
CUT
10
329.200
20
231.500
30
0
0
VERTEX
8
CUT
10
276.950
20
231.500
30
0
0
VERTEX
8
CUT
10
276.950
20
234.500
30
0
0
VERTEX
8
CUT
10
266.800
20
234.500
30
0
0
VERTEX
8
CUT
10
266.800
20
231.500
30
0
0
VERTEX
8
CUT
10
264.000
20
231.500
30
0
0
VERTEX
8
CUT
10
264.000
20
226.000
30
0
0
VERTEX
8
CUT
10
261.000
20
226.000
30
0
0
VERTEX
8
CUT
10
261.000
20
215.850
30
0
0
VERTEX
8
CUT
10
264.000
20
215.850
30
0
0
VERTEX
8
CUT
10
264.000
20
205.000
30
0
0
VERTEX
8
CUT
10
261.000
20
205.000
30
0
0
VERTEX
8
CUT
10
261.000
20
194.850
30
0
0
VERTEX
8
CUT
10
264.000
20
194.850
30
0
0
SEQEND
8
CUT
0
POLYLINE
8
CUT
66
1
70
1
10
0
20
0
30
0
0
VERTEX
8
CUT
10
388.999
20
173.925
30
0
0
VERTEX
8
CUT
10
388.823
20
174.925
30
0
0
VERTEX
8
CUT
10
388.315
20
175.804
30
0
0
VERTEX
8
CUT
10
387.537
20
176.457
30
0
0
VERTEX
8
CUT
10
386.583
20
176.804
30
0
0
VERTEX
8
CUT
10
385.567
20
176.804
30
0
0
VERTEX
8
CUT
10
384.613
20
176.457
30
0
0
VERTEX
8
CUT
10
383.835
20
175.804
30
0
0
VERTEX
8
CUT
10
383.327
20
174.925
30
0
0
VERTEX
8
CUT
10
383.151
20
173.925
30
0
0
VERTEX
8
CUT
10
383.327
20
172.925
30
0
0
VERTEX
8
CUT
10
383.835
20
172.046
30
0
0
VERTEX
8
CUT
10
384.613
20
171.393
30
0
0
VERTEX
8
CUT
10
385.567
20
171.046
30
0
0
VERTEX
8
CUT
10
386.583
20
171.046
30
0
0
VERTEX
8
CUT
10
387.537
20
171.393
30
0
0
VERTEX
8
CUT
10
388.315
20
172.046
30
0
0
VERTEX
8
CUT
10
388.823
20
172.925
30
0
0
SEQEND
8
CUT
0
POLYLINE
8
CUT
66
1
70
1
10
0
20
0
30
0
0
VERTEX
8
CUT
10
389.999
20
157.925
30
0
0
VERTEX
8
CUT
10
389.807
20
159.138
30
0
0
VERTEX
8
CUT
10
389.250
20
160.232
30
0
0
VERTEX
8
CUT
10
388.382
20
161.100
30
0
0
VERTEX
8
CUT
10
387.288
20
161.657
30
0
0
VERTEX
8
CUT
10
386.075
20
161.849
30
0
0
VERTEX
8
CUT
10
384.862
20
161.657
30
0
0
VERTEX
8
CUT
10
383.768
20
161.100
30
0
0
VERTEX
8
CUT
10
382.900
20
160.232
30
0
0
VERTEX
8
CUT
10
382.343
20
159.138
30
0
0
VERTEX
8
CUT
10
382.151
20
157.925
30
0
0
VERTEX
8
CUT
10
382.343
20
156.712
30
0
0
VERTEX
8
CUT
10
382.900
20
155.618
30
0
0
VERTEX
8
CUT
10
383.768
20
154.750
30
0
0
VERTEX
8
CUT
10
384.862
20
154.193
30
0
0
VERTEX
8
CUT
10
386.075
20
154.001
30
0
0
VERTEX
8
CUT
10
387.288
20
154.193
30
0
0
VERTEX
8
CUT
10
388.382
20
154.750
30
0
0
VERTEX
8
CUT
10
389.250
20
155.618
30
0
0
VERTEX
8
CUT
10
389.807
20
156.712
30
0
0
SEQEND
8
CUT
0
POLYLINE
8
CUT
66
1
70
1
10
0
20
0
30
0
0
VERTEX
8
CUT
10
392.187
20
179.016
30
0
0
VERTEX
8
CUT
10
391.992
20
179.616
30
0
0
VERTEX
8
CUT
10
391.482
20
179.987
30
0
0
VERTEX
8
CUT
10
390.851
20
179.987
30
0
0
VERTEX
8
CUT
10
390.340
20
179.616
30
0
0
VERTEX
8
CUT
10
390.145
20
179.016
30
0
0
VERTEX
8
CUT
10
390.340
20
178.416
30
0
0
VERTEX
8
CUT
10
390.851
20
178.045
30
0
0
VERTEX
8
CUT
10
391.482
20
178.045
30
0
0
VERTEX
8
CUT
10
391.992
20
178.416
30
0
0
SEQEND
8
CUT
0
POLYLINE
8
CUT
66
1
70
1
10
0
20
0
30
0
0
VERTEX
8
CUT
10
382.005
20
179.016
30
0
0
VERTEX
8
CUT
10
381.810
20
179.616
30
0
0
VERTEX
8
CUT
10
381.299
20
179.987
30
0
0
VERTEX
8
CUT
10
380.668
20
179.987
30
0
0
VERTEX
8
CUT
10
380.158
20
179.616
30
0
0
VERTEX
8
CUT
10
379.963
20
179.016
30
0
0
VERTEX
8
CUT
10
380.158
20
178.416
30
0
0
VERTEX
8
CUT
10
380.668
20
178.045
30
0
0
VERTEX
8
CUT
10
381.299
20
178.045
30
0
0
VERTEX
8
CUT
10
381.810
20
178.416
30
0
0
SEQEND
8
CUT
0
POLYLINE
8
CUT
66
1
70
1
10
0
20
0
30
0
0
VERTEX
8
CUT
10
382.005
20
168.834
30
0
0
VERTEX
8
CUT
10
381.810
20
169.434
30
0
0
VERTEX
8
CUT
10
381.299
20
169.805
30
0
0
VERTEX
8
CUT
10
380.668
20
169.805
30
0
0
VERTEX
8
CUT
10
380.158
20
169.434
30
0
0
VERTEX
8
CUT
10
379.963
20
168.834
30
0
0
VERTEX
8
CUT
10
380.158
20
168.234
30
0
0
VERTEX
8
CUT
10
380.668
20
167.863
30
0
0
VERTEX
8
CUT
10
381.299
20
167.863
30
0
0
VERTEX
8
CUT
10
381.810
20
168.234
30
0
0
SEQEND
8
CUT
0
POLYLINE
8
CUT
66
1
70
1
10
0
20
0
30
0
0
VERTEX
8
CUT
10
392.187
20
168.834
30
0
0
VERTEX
8
CUT
10
391.992
20
169.434
30
0
0
VERTEX
8
CUT
10
391.482
20
169.805
30
0
0
VERTEX
8
CUT
10
390.851
20
169.805
30
0
0
VERTEX
8
CUT
10
390.340
20
169.434
30
0
0
VERTEX
8
CUT
10
390.145
20
168.834
30
0
0
VERTEX
8
CUT
10
390.340
20
168.234
30
0
0
VERTEX
8
CUT
10
390.851
20
167.863
30
0
0
VERTEX
8
CUT
10
391.482
20
167.863
30
0
0
VERTEX
8
CUT
10
391.992
20
168.234
30
0
0
SEQEND
8
CUT
0
POLYLINE
8
CUT
66
1
70
1
10
0
20
0
30
0
0
VERTEX
8
CUT
10
353.300
20
178.100
30
0
0
VERTEX
8
CUT
10
356.250
20
178.100
30
0
0
VERTEX
8
CUT
10
356.250
20
186.050
30
0
0
VERTEX
8
CUT
10
353.300
20
186.050
30
0
0
SEQEND
8
CUT
0
POLYLINE
8
CUT
66
1
70
1
10
0
20
0
30
0
0
VERTEX
8
CUT
10
415.900
20
178.100
30
0
0
VERTEX
8
CUT
10
418.850
20
178.100
30
0
0
VERTEX
8
CUT
10
418.850
20
186.050
30
0
0
VERTEX
8
CUT
10
415.900
20
186.050
30
0
0
SEQEND
8
CUT
0
POLYLINE
8
CUT
66
1
70
1
10
0
20
0
30
0
0
VERTEX
8
CUT
10
347.000
20
151.850
30
0
0
VERTEX
8
CUT
10
349.800
20
151.850
30
0
0
VERTEX
8
CUT
10
349.800
20
148.850
30
0
0
VERTEX
8
CUT
10
359.950
20
148.850
30
0
0
VERTEX
8
CUT
10
359.950
20
151.850
30
0
0
VERTEX
8
CUT
10
412.200
20
151.850
30
0
0
VERTEX
8
CUT
10
412.200
20
148.850
30
0
0
VERTEX
8
CUT
10
422.350
20
148.850
30
0
0
VERTEX
8
CUT
10
422.350
20
151.850
30
0
0
VERTEX
8
CUT
10
425.150
20
151.850
30
0
0
VERTEX
8
CUT
10
425.150
20
157.350
30
0
0
VERTEX
8
CUT
10
428.150
20
157.350
30
0
0
VERTEX
8
CUT
10
428.150
20
167.500
30
0
0
VERTEX
8
CUT
10
425.150
20
167.500
30
0
0
VERTEX
8
CUT
10
425.150
20
178.350
30
0
0
VERTEX
8
CUT
10
428.150
20
178.350
30
0
0
VERTEX
8
CUT
10
428.150
20
188.500
30
0
0
VERTEX
8
CUT
10
425.150
20
188.500
30
0
0
VERTEX
8
CUT
10
425.150
20
194.000
30
0
0
VERTEX
8
CUT
10
422.350
20
194.000
30
0
0
VERTEX
8
CUT
10
422.350
20
197.000
30
0
0
VERTEX
8
CUT
10
412.200
20
197.000
30
0
0
VERTEX
8
CUT
10
412.200
20
194.000
30
0
0
VERTEX
8
CUT
10
359.950
20
194.000
30
0
0
VERTEX
8
CUT
10
359.950
20
197.000
30
0
0
VERTEX
8
CUT
10
349.800
20
197.000
30
0
0
VERTEX
8
CUT
10
349.800
20
194.000
30
0
0
VERTEX
8
CUT
10
347.000
20
194.000
30
0
0
VERTEX
8
CUT
10
347.000
20
188.500
30
0
0
VERTEX
8
CUT
10
344.000
20
188.500
30
0
0
VERTEX
8
CUT
10
344.000
20
178.350
30
0
0
VERTEX
8
CUT
10
347.000
20
178.350
30
0
0
VERTEX
8
CUT
10
347.000
20
167.500
30
0
0
VERTEX
8
CUT
10
344.000
20
167.500
30
0
0
VERTEX
8
CUT
10
344.000
20
157.350
30
0
0
VERTEX
8
CUT
10
347.000
20
157.350
30
0
0
SEQEND
8
CUT
0
POLYLINE
8
CUT
66
1
70
1
10
0
20
0
30
0
0
VERTEX
8
CUT
10
35.600
20
139.450
30
0
0
VERTEX
8
CUT
10
45.550
20
139.450
30
0
0
VERTEX
8
CUT
10
45.550
20
142.400
30
0
0
VERTEX
8
CUT
10
35.600
20
142.400
30
0
0
SEQEND
8
CUT
0
POLYLINE
8
CUT
66
1
70
1
10
0
20
0
30
0
0
VERTEX
8
CUT
10
14.600
20
139.450
30
0
0
VERTEX
8
CUT
10
24.550
20
139.450
30
0
0
VERTEX
8
CUT
10
24.550
20
142.400
30
0
0
VERTEX
8
CUT
10
14.600
20
142.400
30
0
0
SEQEND
8
CUT
0
POLYLINE
8
CUT
66
1
70
1
10
0
20
0
30
0
0
VERTEX
8
CUT
10
51.100
20
167.450
30
0
0
VERTEX
8
CUT
10
54.050
20
167.450
30
0
0
VERTEX
8
CUT
10
54.050
20
177.400
30
0
0
VERTEX
8
CUT
10
51.100
20
177.400
30
0
0
SEQEND
8
CUT
0
POLYLINE
8
CUT
66
1
70
1
10
0
20
0
30
0
0
VERTEX
8
CUT
10
51.100
20
143.450
30
0
0
VERTEX
8
CUT
10
54.050
20
143.450
30
0
0
VERTEX
8
CUT
10
54.050
20
153.400
30
0
0
VERTEX
8
CUT
10
51.100
20
153.400
30
0
0
SEQEND
8
CUT
0
POLYLINE
8
CUT
66
1
70
1
10
0
20
0
30
0
0
VERTEX
8
CUT
10
6.100
20
167.450
30
0
0
VERTEX
8
CUT
10
9.050
20
167.450
30
0
0
VERTEX
8
CUT
10
9.050
20
177.400
30
0
0
VERTEX
8
CUT
10
6.100
20
177.400
30
0
0
SEQEND
8
CUT
0
POLYLINE
8
CUT
66
1
70
1
10
0
20
0
30
0
0
VERTEX
8
CUT
10
6.100
20
143.450
30
0
0
VERTEX
8
CUT
10
9.050
20
143.450
30
0
0
VERTEX
8
CUT
10
9.050
20
153.400
30
0
0
VERTEX
8
CUT
10
6.100
20
153.400
30
0
0
SEQEND
8
CUT
0
POLYLINE
8
CUT
66
1
70
1
10
0
20
0
30
0
0
VERTEX
8
CUT
10
5.070
20
136.350
30
0
0
VERTEX
8
CUT
10
55.080
20
136.350
30
0
0
VERTEX
8
CUT
10
55.612
20
136.420
30
0
0
VERTEX
8
CUT
10
56.113
20
136.627
30
0
0
VERTEX
8
CUT
10
56.543
20
136.957
30
0
0
VERTEX
8
CUT
10
56.873
20
137.387
30
0
0
VERTEX
8
CUT
10
57.080
20
137.888
30
0
0
VERTEX
8
CUT
10
57.150
20
138.420
30
0
0
VERTEX
8
CUT
10
57.150
20
182.430
30
0
0
VERTEX
8
CUT
10
57.080
20
182.962
30
0
0
VERTEX
8
CUT
10
56.873
20
183.463
30
0
0
VERTEX
8
CUT
10
56.543
20
183.893
30
0
0
VERTEX
8
CUT
10
56.113
20
184.223
30
0
0
VERTEX
8
CUT
10
55.612
20
184.430
30
0
0
VERTEX
8
CUT
10
55.080
20
184.500
30
0
0
VERTEX
8
CUT
10
5.070
20
184.500
30
0
0
VERTEX
8
CUT
10
4.538
20
184.430
30
0
0
VERTEX
8
CUT
10
4.037
20
184.223
30
0
0
VERTEX
8
CUT
10
3.607
20
183.893
30
0
0
VERTEX
8
CUT
10
3.277
20
183.463
30
0
0
VERTEX
8
CUT
10
3.070
20
182.962
30
0
0
VERTEX
8
CUT
10
3.000
20
182.430
30
0
0
VERTEX
8
CUT
10
3.000
20
138.420
30
0
0
VERTEX
8
CUT
10
3.070
20
137.888
30
0
0
VERTEX
8
CUT
10
3.277
20
137.387
30
0
0
VERTEX
8
CUT
10
3.607
20
136.957
30
0
0
VERTEX
8
CUT
10
4.037
20
136.627
30
0
0
VERTEX
8
CUT
10
4.538
20
136.420
30
0
0
SEQEND
8
CUT
0
POLYLINE
8
CUT
66
1
70
1
10
0
20
0
30
0
0
VERTEX
8
CUT
10
91.600
20
139.450
30
0
0
VERTEX
8
CUT
10
101.550
20
139.450
30
0
0
VERTEX
8
CUT
10
101.550
20
142.400
30
0
0
VERTEX
8
CUT
10
91.600
20
142.400
30
0
0
SEQEND
8
CUT
0
POLYLINE
8
CUT
66
1
70
1
10
0
20
0
30
0
0
VERTEX
8
CUT
10
70.600
20
139.450
30
0
0
VERTEX
8
CUT
10
80.550
20
139.450
30
0
0
VERTEX
8
CUT
10
80.550
20
142.400
30
0
0
VERTEX
8
CUT
10
70.600
20
142.400
30
0
0
SEQEND
8
CUT
0
POLYLINE
8
CUT
66
1
70
1
10
0
20
0
30
0
0
VERTEX
8
CUT
10
107.100
20
167.450
30
0
0
VERTEX
8
CUT
10
110.050
20
167.450
30
0
0
VERTEX
8
CUT
10
110.050
20
177.400
30
0
0
VERTEX
8
CUT
10
107.100
20
177.400
30
0
0
SEQEND
8
CUT
0
POLYLINE
8
CUT
66
1
70
1
10
0
20
0
30
0
0
VERTEX
8
CUT
10
107.100
20
143.450
30
0
0
VERTEX
8
CUT
10
110.050
20
143.450
30
0
0
VERTEX
8
CUT
10
110.050
20
153.400
30
0
0
VERTEX
8
CUT
10
107.100
20
153.400
30
0
0
SEQEND
8
CUT
0
POLYLINE
8
CUT
66
1
70
1
10
0
20
0
30
0
0
VERTEX
8
CUT
10
62.100
20
167.450
30
0
0
VERTEX
8
CUT
10
65.050
20
167.450
30
0
0
VERTEX
8
CUT
10
65.050
20
177.400
30
0
0
VERTEX
8
CUT
10
62.100
20
177.400
30
0
0
SEQEND
8
CUT
0
POLYLINE
8
CUT
66
1
70
1
10
0
20
0
30
0
0
VERTEX
8
CUT
10
62.100
20
143.450
30
0
0
VERTEX
8
CUT
10
65.050
20
143.450
30
0
0
VERTEX
8
CUT
10
65.050
20
153.400
30
0
0
VERTEX
8
CUT
10
62.100
20
153.400
30
0
0
SEQEND
8
CUT
0
POLYLINE
8
CUT
66
1
70
1
10
0
20
0
30
0
0
VERTEX
8
CUT
10
61.070
20
136.350
30
0
0
VERTEX
8
CUT
10
111.080
20
136.350
30
0
0
VERTEX
8
CUT
10
111.612
20
136.420
30
0
0
VERTEX
8
CUT
10
112.113
20
136.627
30
0
0
VERTEX
8
CUT
10
112.543
20
136.957
30
0
0
VERTEX
8
CUT
10
112.873
20
137.387
30
0
0
VERTEX
8
CUT
10
113.080
20
137.888
30
0
0
VERTEX
8
CUT
10
113.150
20
138.420
30
0
0
VERTEX
8
CUT
10
113.150
20
182.430
30
0
0
VERTEX
8
CUT
10
113.080
20
182.962
30
0
0
VERTEX
8
CUT
10
112.873
20
183.463
30
0
0
VERTEX
8
CUT
10
112.543
20
183.893
30
0
0
VERTEX
8
CUT
10
112.113
20
184.223
30
0
0
VERTEX
8
CUT
10
111.612
20
184.430
30
0
0
VERTEX
8
CUT
10
111.080
20
184.500
30
0
0
VERTEX
8
CUT
10
61.070
20
184.500
30
0
0
VERTEX
8
CUT
10
60.538
20
184.430
30
0
0
VERTEX
8
CUT
10
60.037
20
184.223
30
0
0
VERTEX
8
CUT
10
59.607
20
183.893
30
0
0
VERTEX
8
CUT
10
59.277
20
183.463
30
0
0
VERTEX
8
CUT
10
59.070
20
182.962
30
0
0
VERTEX
8
CUT
10
59.000
20
182.430
30
0
0
VERTEX
8
CUT
10
59.000
20
138.420
30
0
0
VERTEX
8
CUT
10
59.070
20
137.888
30
0
0
VERTEX
8
CUT
10
59.277
20
137.387
30
0
0
VERTEX
8
CUT
10
59.607
20
136.957
30
0
0
VERTEX
8
CUT
10
60.037
20
136.627
30
0
0
VERTEX
8
CUT
10
60.538
20
136.420
30
0
0
SEQEND
8
CUT
0
POLYLINE
8
CUT
66
1
70
1
10
0
20
0
30
0
0
VERTEX
8
CUT
10
123.650
20
172.419
30
0
0
VERTEX
8
CUT
10
123.745
20
173.020
30
0
0
VERTEX
8
CUT
10
124.018
20
173.556
30
0
0
VERTEX
8
CUT
10
124.444
20
173.982
30
0
0
VERTEX
8
CUT
10
124.980
20
174.255
30
0
0
VERTEX
8
CUT
10
125.581
20
174.350
30
0
0
VERTEX
8
CUT
10
130.569
20
174.350
30
0
0
VERTEX
8
CUT
10
131.170
20
174.255
30
0
0
VERTEX
8
CUT
10
131.706
20
173.982
30
0
0
VERTEX
8
CUT
10
132.132
20
173.556
30
0
0
VERTEX
8
CUT
10
132.405
20
173.020
30
0
0
VERTEX
8
CUT
10
132.500
20
172.419
30
0
0
VERTEX
8
CUT
10
132.500
20
156.431
30
0
0
VERTEX
8
CUT
10
132.405
20
155.830
30
0
0
VERTEX
8
CUT
10
132.132
20
155.294
30
0
0
VERTEX
8
CUT
10
131.706
20
154.868
30
0
0
VERTEX
8
CUT
10
131.170
20
154.595
30
0
0
VERTEX
8
CUT
10
130.569
20
154.500
30
0
0
VERTEX
8
CUT
10
125.581
20
154.500
30
0
0
VERTEX
8
CUT
10
124.980
20
154.595
30
0
0
VERTEX
8
CUT
10
124.444
20
154.868
30
0
0
VERTEX
8
CUT
10
124.018
20
155.294
30
0
0
VERTEX
8
CUT
10
123.745
20
155.830
30
0
0
VERTEX
8
CUT
10
123.650
20
156.431
30
0
0
SEQEND
8
CUT
0
POLYLINE
8
CUT
66
1
70
1
10
0
20
0
30
0
0
VERTEX
8
CUT
10
157.550
20
139.450
30
0
0
VERTEX
8
CUT
10
147.600
20
139.450
30
0
0
VERTEX
8
CUT
10
147.600
20
142.400
30
0
0
VERTEX
8
CUT
10
157.550
20
142.400
30
0
0
SEQEND
8
CUT
0
POLYLINE
8
CUT
66
1
70
1
10
0
20
0
30
0
0
VERTEX
8
CUT
10
136.550
20
139.450
30
0
0
VERTEX
8
CUT
10
126.600
20
139.450
30
0
0
VERTEX
8
CUT
10
126.600
20
142.400
30
0
0
VERTEX
8
CUT
10
136.550
20
142.400
30
0
0
SEQEND
8
CUT
0
POLYLINE
8
CUT
66
1
70
1
10
0
20
0
30
0
0
VERTEX
8
CUT
10
121.050
20
143.450
30
0
0
VERTEX
8
CUT
10
118.100
20
143.450
30
0
0
VERTEX
8
CUT
10
118.100
20
153.400
30
0
0
VERTEX
8
CUT
10
121.050
20
153.400
30
0
0
SEQEND
8
CUT
0
POLYLINE
8
CUT
66
1
70
1
10
0
20
0
30
0
0
VERTEX
8
CUT
10
121.050
20
167.450
30
0
0
VERTEX
8
CUT
10
118.100
20
167.450
30
0
0
VERTEX
8
CUT
10
118.100
20
177.400
30
0
0
VERTEX
8
CUT
10
121.050
20
177.400
30
0
0
SEQEND
8
CUT
0
POLYLINE
8
CUT
66
1
70
1
10
0
20
0
30
0
0
VERTEX
8
CUT
10
166.050
20
143.450
30
0
0
VERTEX
8
CUT
10
163.100
20
143.450
30
0
0
VERTEX
8
CUT
10
163.100
20
153.400
30
0
0
VERTEX
8
CUT
10
166.050
20
153.400
30
0
0
SEQEND
8
CUT
0
POLYLINE
8
CUT
66
1
70
1
10
0
20
0
30
0
0
VERTEX
8
CUT
10
166.050
20
167.450
30
0
0
VERTEX
8
CUT
10
163.100
20
167.450
30
0
0
VERTEX
8
CUT
10
163.100
20
177.400
30
0
0
VERTEX
8
CUT
10
166.050
20
177.400
30
0
0
SEQEND
8
CUT
0
POLYLINE
8
CUT
66
1
70
1
10
0
20
0
30
0
0
VERTEX
8
CUT
10
167.080
20
136.350
30
0
0
VERTEX
8
CUT
10
117.070
20
136.350
30
0
0
VERTEX
8
CUT
10
116.538
20
136.420
30
0
0
VERTEX
8
CUT
10
116.037
20
136.627
30
0
0
VERTEX
8
CUT
10
115.607
20
136.957
30
0
0
VERTEX
8
CUT
10
115.277
20
137.387
30
0
0
VERTEX
8
CUT
10
115.070
20
137.888
30
0
0
VERTEX
8
CUT
10
115.000
20
138.420
30
0
0
VERTEX
8
CUT
10
115.000
20
182.430
30
0
0
VERTEX
8
CUT
10
115.070
20
182.962
30
0
0
VERTEX
8
CUT
10
115.277
20
183.463
30
0
0
VERTEX
8
CUT
10
115.607
20
183.893
30
0
0
VERTEX
8
CUT
10
116.037
20
184.223
30
0
0
VERTEX
8
CUT
10
116.538
20
184.430
30
0
0
VERTEX
8
CUT
10
117.070
20
184.500
30
0
0
VERTEX
8
CUT
10
167.080
20
184.500
30
0
0
VERTEX
8
CUT
10
167.612
20
184.430
30
0
0
VERTEX
8
CUT
10
168.113
20
184.223
30
0
0
VERTEX
8
CUT
10
168.543
20
183.893
30
0
0
VERTEX
8
CUT
10
168.873
20
183.463
30
0
0
VERTEX
8
CUT
10
169.080
20
182.962
30
0
0
VERTEX
8
CUT
10
169.150
20
182.430
30
0
0
VERTEX
8
CUT
10
169.150
20
138.420
30
0
0
VERTEX
8
CUT
10
169.080
20
137.888
30
0
0
VERTEX
8
CUT
10
168.873
20
137.387
30
0
0
VERTEX
8
CUT
10
168.543
20
136.957
30
0
0
VERTEX
8
CUT
10
168.113
20
136.627
30
0
0
VERTEX
8
CUT
10
167.612
20
136.420
30
0
0
SEQEND
8
CUT
0
POLYLINE
8
CUT
66
1
70
1
10
0
20
0
30
0
0
VERTEX
8
CUT
10
179.650
20
172.419
30
0
0
VERTEX
8
CUT
10
179.745
20
173.020
30
0
0
VERTEX
8
CUT
10
180.018
20
173.556
30
0
0
VERTEX
8
CUT
10
180.444
20
173.982
30
0
0
VERTEX
8
CUT
10
180.980
20
174.255
30
0
0
VERTEX
8
CUT
10
181.581
20
174.350
30
0
0
VERTEX
8
CUT
10
186.569
20
174.350
30
0
0
VERTEX
8
CUT
10
187.170
20
174.255
30
0
0
VERTEX
8
CUT
10
187.706
20
173.982
30
0
0
VERTEX
8
CUT
10
188.132
20
173.556
30
0
0
VERTEX
8
CUT
10
188.405
20
173.020
30
0
0
VERTEX
8
CUT
10
188.500
20
172.419
30
0
0
VERTEX
8
CUT
10
188.500
20
156.431
30
0
0
VERTEX
8
CUT
10
188.405
20
155.830
30
0
0
VERTEX
8
CUT
10
188.132
20
155.294
30
0
0
VERTEX
8
CUT
10
187.706
20
154.868
30
0
0
VERTEX
8
CUT
10
187.170
20
154.595
30
0
0
VERTEX
8
CUT
10
186.569
20
154.500
30
0
0
VERTEX
8
CUT
10
181.581
20
154.500
30
0
0
VERTEX
8
CUT
10
180.980
20
154.595
30
0
0
VERTEX
8
CUT
10
180.444
20
154.868
30
0
0
VERTEX
8
CUT
10
180.018
20
155.294
30
0
0
VERTEX
8
CUT
10
179.745
20
155.830
30
0
0
VERTEX
8
CUT
10
179.650
20
156.431
30
0
0
SEQEND
8
CUT
0
POLYLINE
8
CUT
66
1
70
1
10
0
20
0
30
0
0
VERTEX
8
CUT
10
213.550
20
139.450
30
0
0
VERTEX
8
CUT
10
203.600
20
139.450
30
0
0
VERTEX
8
CUT
10
203.600
20
142.400
30
0
0
VERTEX
8
CUT
10
213.550
20
142.400
30
0
0
SEQEND
8
CUT
0
POLYLINE
8
CUT
66
1
70
1
10
0
20
0
30
0
0
VERTEX
8
CUT
10
192.550
20
139.450
30
0
0
VERTEX
8
CUT
10
182.600
20
139.450
30
0
0
VERTEX
8
CUT
10
182.600
20
142.400
30
0
0
VERTEX
8
CUT
10
192.550
20
142.400
30
0
0
SEQEND
8
CUT
0
POLYLINE
8
CUT
66
1
70
1
10
0
20
0
30
0
0
VERTEX
8
CUT
10
177.050
20
143.450
30
0
0
VERTEX
8
CUT
10
174.100
20
143.450
30
0
0
VERTEX
8
CUT
10
174.100
20
153.400
30
0
0
VERTEX
8
CUT
10
177.050
20
153.400
30
0
0
SEQEND
8
CUT
0
POLYLINE
8
CUT
66
1
70
1
10
0
20
0
30
0
0
VERTEX
8
CUT
10
177.050
20
167.450
30
0
0
VERTEX
8
CUT
10
174.100
20
167.450
30
0
0
VERTEX
8
CUT
10
174.100
20
177.400
30
0
0
VERTEX
8
CUT
10
177.050
20
177.400
30
0
0
SEQEND
8
CUT
0
POLYLINE
8
CUT
66
1
70
1
10
0
20
0
30
0
0
VERTEX
8
CUT
10
222.050
20
143.450
30
0
0
VERTEX
8
CUT
10
219.100
20
143.450
30
0
0
VERTEX
8
CUT
10
219.100
20
153.400
30
0
0
VERTEX
8
CUT
10
222.050
20
153.400
30
0
0
SEQEND
8
CUT
0
POLYLINE
8
CUT
66
1
70
1
10
0
20
0
30
0
0
VERTEX
8
CUT
10
222.050
20
167.450
30
0
0
VERTEX
8
CUT
10
219.100
20
167.450
30
0
0
VERTEX
8
CUT
10
219.100
20
177.400
30
0
0
VERTEX
8
CUT
10
222.050
20
177.400
30
0
0
SEQEND
8
CUT
0
POLYLINE
8
CUT
66
1
70
1
10
0
20
0
30
0
0
VERTEX
8
CUT
10
223.080
20
136.350
30
0
0
VERTEX
8
CUT
10
173.070
20
136.350
30
0
0
VERTEX
8
CUT
10
172.538
20
136.420
30
0
0
VERTEX
8
CUT
10
172.037
20
136.627
30
0
0
VERTEX
8
CUT
10
171.607
20
136.957
30
0
0
VERTEX
8
CUT
10
171.277
20
137.387
30
0
0
VERTEX
8
CUT
10
171.070
20
137.888
30
0
0
VERTEX
8
CUT
10
171.000
20
138.420
30
0
0
VERTEX
8
CUT
10
171.000
20
182.430
30
0
0
VERTEX
8
CUT
10
171.070
20
182.962
30
0
0
VERTEX
8
CUT
10
171.277
20
183.463
30
0
0
VERTEX
8
CUT
10
171.607
20
183.893
30
0
0
VERTEX
8
CUT
10
172.037
20
184.223
30
0
0
VERTEX
8
CUT
10
172.538
20
184.430
30
0
0
VERTEX
8
CUT
10
173.070
20
184.500
30
0
0
VERTEX
8
CUT
10
223.080
20
184.500
30
0
0
VERTEX
8
CUT
10
223.612
20
184.430
30
0
0
VERTEX
8
CUT
10
224.113
20
184.223
30
0
0
VERTEX
8
CUT
10
224.543
20
183.893
30
0
0
VERTEX
8
CUT
10
224.873
20
183.463
30
0
0
VERTEX
8
CUT
10
225.080
20
182.962
30
0
0
VERTEX
8
CUT
10
225.150
20
182.430
30
0
0
VERTEX
8
CUT
10
225.150
20
138.420
30
0
0
VERTEX
8
CUT
10
225.080
20
137.888
30
0
0
VERTEX
8
CUT
10
224.873
20
137.387
30
0
0
VERTEX
8
CUT
10
224.543
20
136.957
30
0
0
VERTEX
8
CUT
10
224.113
20
136.627
30
0
0
VERTEX
8
CUT
10
223.612
20
136.420
30
0
0
SEQEND
8
CUT
0
POLYLINE
8
CUT
66
1
70
1
10
0
20
0
30
0
0
VERTEX
8
CUT
10
235.650
20
172.419
30
0
0
VERTEX
8
CUT
10
235.745
20
173.020
30
0
0
VERTEX
8
CUT
10
236.018
20
173.556
30
0
0
VERTEX
8
CUT
10
236.444
20
173.982
30
0
0
VERTEX
8
CUT
10
236.980
20
174.255
30
0
0
VERTEX
8
CUT
10
237.581
20
174.350
30
0
0
VERTEX
8
CUT
10
242.569
20
174.350
30
0
0
VERTEX
8
CUT
10
243.170
20
174.255
30
0
0
VERTEX
8
CUT
10
243.706
20
173.982
30
0
0
VERTEX
8
CUT
10
244.132
20
173.556
30
0
0
VERTEX
8
CUT
10
244.405
20
173.020
30
0
0
VERTEX
8
CUT
10
244.500
20
172.419
30
0
0
VERTEX
8
CUT
10
244.500
20
156.431
30
0
0
VERTEX
8
CUT
10
244.405
20
155.830
30
0
0
VERTEX
8
CUT
10
244.132
20
155.294
30
0
0
VERTEX
8
CUT
10
243.706
20
154.868
30
0
0
VERTEX
8
CUT
10
243.170
20
154.595
30
0
0
VERTEX
8
CUT
10
242.569
20
154.500
30
0
0
VERTEX
8
CUT
10
237.581
20
154.500
30
0
0
VERTEX
8
CUT
10
236.980
20
154.595
30
0
0
VERTEX
8
CUT
10
236.444
20
154.868
30
0
0
VERTEX
8
CUT
10
236.018
20
155.294
30
0
0
VERTEX
8
CUT
10
235.745
20
155.830
30
0
0
VERTEX
8
CUT
10
235.650
20
156.431
30
0
0
SEQEND
8
CUT
0
POLYLINE
8
CUT
66
1
70
1
10
0
20
0
30
0
0
VERTEX
8
CUT
10
269.550
20
139.450
30
0
0
VERTEX
8
CUT
10
259.600
20
139.450
30
0
0
VERTEX
8
CUT
10
259.600
20
142.400
30
0
0
VERTEX
8
CUT
10
269.550
20
142.400
30
0
0
SEQEND
8
CUT
0
POLYLINE
8
CUT
66
1
70
1
10
0
20
0
30
0
0
VERTEX
8
CUT
10
248.550
20
139.450
30
0
0
VERTEX
8
CUT
10
238.600
20
139.450
30
0
0
VERTEX
8
CUT
10
238.600
20
142.400
30
0
0
VERTEX
8
CUT
10
248.550
20
142.400
30
0
0
SEQEND
8
CUT
0
POLYLINE
8
CUT
66
1
70
1
10
0
20
0
30
0
0
VERTEX
8
CUT
10
233.050
20
143.450
30
0
0
VERTEX
8
CUT
10
230.100
20
143.450
30
0
0
VERTEX
8
CUT
10
230.100
20
153.400
30
0
0
VERTEX
8
CUT
10
233.050
20
153.400
30
0
0
SEQEND
8
CUT
0
POLYLINE
8
CUT
66
1
70
1
10
0
20
0
30
0
0
VERTEX
8
CUT
10
233.050
20
167.450
30
0
0
VERTEX
8
CUT
10
230.100
20
167.450
30
0
0
VERTEX
8
CUT
10
230.100
20
177.400
30
0
0
VERTEX
8
CUT
10
233.050
20
177.400
30
0
0
SEQEND
8
CUT
0
POLYLINE
8
CUT
66
1
70
1
10
0
20
0
30
0
0
VERTEX
8
CUT
10
278.050
20
143.450
30
0
0
VERTEX
8
CUT
10
275.100
20
143.450
30
0
0
VERTEX
8
CUT
10
275.100
20
153.400
30
0
0
VERTEX
8
CUT
10
278.050
20
153.400
30
0
0
SEQEND
8
CUT
0
POLYLINE
8
CUT
66
1
70
1
10
0
20
0
30
0
0
VERTEX
8
CUT
10
278.050
20
167.450
30
0
0
VERTEX
8
CUT
10
275.100
20
167.450
30
0
0
VERTEX
8
CUT
10
275.100
20
177.400
30
0
0
VERTEX
8
CUT
10
278.050
20
177.400
30
0
0
SEQEND
8
CUT
0
POLYLINE
8
CUT
66
1
70
1
10
0
20
0
30
0
0
VERTEX
8
CUT
10
279.080
20
136.350
30
0
0
VERTEX
8
CUT
10
229.070
20
136.350
30
0
0
VERTEX
8
CUT
10
228.538
20
136.420
30
0
0
VERTEX
8
CUT
10
228.037
20
136.627
30
0
0
VERTEX
8
CUT
10
227.607
20
136.957
30
0
0
VERTEX
8
CUT
10
227.277
20
137.387
30
0
0
VERTEX
8
CUT
10
227.070
20
137.888
30
0
0
VERTEX
8
CUT
10
227.000
20
138.420
30
0
0
VERTEX
8
CUT
10
227.000
20
182.430
30
0
0
VERTEX
8
CUT
10
227.070
20
182.962
30
0
0
VERTEX
8
CUT
10
227.277
20
183.463
30
0
0
VERTEX
8
CUT
10
227.607
20
183.893
30
0
0
VERTEX
8
CUT
10
228.037
20
184.223
30
0
0
VERTEX
8
CUT
10
228.538
20
184.430
30
0
0
VERTEX
8
CUT
10
229.070
20
184.500
30
0
0
VERTEX
8
CUT
10
279.080
20
184.500
30
0
0
VERTEX
8
CUT
10
279.612
20
184.430
30
0
0
VERTEX
8
CUT
10
280.113
20
184.223
30
0
0
VERTEX
8
CUT
10
280.543
20
183.893
30
0
0
VERTEX
8
CUT
10
280.873
20
183.463
30
0
0
VERTEX
8
CUT
10
281.080
20
182.962
30
0
0
VERTEX
8
CUT
10
281.150
20
182.430
30
0
0
VERTEX
8
CUT
10
281.150
20
138.420
30
0
0
VERTEX
8
CUT
10
281.080
20
137.888
30
0
0
VERTEX
8
CUT
10
280.873
20
137.387
30
0
0
VERTEX
8
CUT
10
280.543
20
136.957
30
0
0
VERTEX
8
CUT
10
280.113
20
136.627
30
0
0
VERTEX
8
CUT
10
279.612
20
136.420
30
0
0
SEQEND
8
CUT
0
POLYLINE
8
CUT
66
1
70
1
10
0
20
0
30
0
0
VERTEX
8
CUT
10
287.150
20
162.425
30
0
0
VERTEX
8
CUT
10
287.230
20
164.249
30
0
0
VERTEX
8
CUT
10
287.468
20
166.059
30
0
0
VERTEX
8
CUT
10
287.863
20
167.841
30
0
0
VERTEX
8
CUT
10
288.412
20
169.582
30
0
0
VERTEX
8
CUT
10
289.111
20
171.268
30
0
0
VERTEX
8
CUT
10
289.954
20
172.887
30
0
0
VERTEX
8
CUT
10
290.934
20
174.427
30
0
0
VERTEX
8
CUT
10
292.046
20
175.875
30
0
0
VERTEX
8
CUT
10
293.279
20
177.221
30
0
0
VERTEX
8
CUT
10
294.625
20
178.454
30
0
0
VERTEX
8
CUT
10
296.073
20
179.566
30
0
0
VERTEX
8
CUT
10
297.613
20
180.546
30
0
0
VERTEX
8
CUT
10
299.232
20
181.389
30
0
0
VERTEX
8
CUT
10
300.918
20
182.088
30
0
0
VERTEX
8
CUT
10
302.659
20
182.637
30
0
0
VERTEX
8
CUT
10
304.441
20
183.032
30
0
0
VERTEX
8
CUT
10
306.251
20
183.270
30
0
0
VERTEX
8
CUT
10
308.075
20
183.350
30
0
0
VERTEX
8
CUT
10
309.899
20
183.270
30
0
0
VERTEX
8
CUT
10
311.709
20
183.032
30
0
0
VERTEX
8
CUT
10
313.491
20
182.637
30
0
0
VERTEX
8
CUT
10
315.232
20
182.088
30
0
0
VERTEX
8
CUT
10
316.918
20
181.389
30
0
0
VERTEX
8
CUT
10
318.538
20
180.546
30
0
0
VERTEX
8
CUT
10
320.077
20
179.566
30
0
0
VERTEX
8
CUT
10
321.525
20
178.454
30
0
0
VERTEX
8
CUT
10
322.871
20
177.221
30
0
0
VERTEX
8
CUT
10
324.104
20
175.875
30
0
0
VERTEX
8
CUT
10
325.216
20
174.427
30
0
0
VERTEX
8
CUT
10
326.197
20
172.887
30
0
0
VERTEX
8
CUT
10
327.039
20
171.268
30
0
0
VERTEX
8
CUT
10
327.738
20
169.582
30
0
0
VERTEX
8
CUT
10
328.287
20
167.841
30
0
0
VERTEX
8
CUT
10
328.682
20
166.059
30
0
0
VERTEX
8
CUT
10
328.920
20
164.249
30
0
0
VERTEX
8
CUT
10
329.000
20
162.425
30
0
0
VERTEX
8
CUT
10
328.920
20
160.601
30
0
0
VERTEX
8
CUT
10
328.682
20
158.791
30
0
0
VERTEX
8
CUT
10
328.287
20
157.009
30
0
0
VERTEX
8
CUT
10
327.738
20
155.268
30
0
0
VERTEX
8
CUT
10
327.039
20
153.582
30
0
0
VERTEX
8
CUT
10
326.197
20
151.962
30
0
0
VERTEX
8
CUT
10
325.216
20
150.423
30
0
0
VERTEX
8
CUT
10
324.104
20
148.975
30
0
0
VERTEX
8
CUT
10
322.871
20
147.629
30
0
0
VERTEX
8
CUT
10
321.525
20
146.396
30
0
0
VERTEX
8
CUT
10
320.077
20
145.284
30
0
0
VERTEX
8
CUT
10
318.538
20
144.303
30
0
0
VERTEX
8
CUT
10
316.918
20
143.461
30
0
0
VERTEX
8
CUT
10
315.232
20
142.762
30
0
0
VERTEX
8
CUT
10
313.491
20
142.213
30
0
0
VERTEX
8
CUT
10
311.709
20
141.818
30
0
0
VERTEX
8
CUT
10
309.899
20
141.580
30
0
0
VERTEX
8
CUT
10
308.075
20
141.500
30
0
0
VERTEX
8
CUT
10
306.251
20
141.580
30
0
0
VERTEX
8
CUT
10
304.441
20
141.818
30
0
0
VERTEX
8
CUT
10
302.659
20
142.213
30
0
0
VERTEX
8
CUT
10
300.918
20
142.762
30
0
0
VERTEX
8
CUT
10
299.232
20
143.461
30
0
0
VERTEX
8
CUT
10
297.613
20
144.303
30
0
0
VERTEX
8
CUT
10
296.073
20
145.284
30
0
0
VERTEX
8
CUT
10
294.625
20
146.396
30
0
0
VERTEX
8
CUT
10
293.279
20
147.629
30
0
0
VERTEX
8
CUT
10
292.046
20
148.975
30
0
0
VERTEX
8
CUT
10
290.934
20
150.423
30
0
0
VERTEX
8
CUT
10
289.954
20
151.962
30
0
0
VERTEX
8
CUT
10
289.111
20
153.582
30
0
0
VERTEX
8
CUT
10
288.412
20
155.268
30
0
0
VERTEX
8
CUT
10
287.863
20
157.009
30
0
0
VERTEX
8
CUT
10
287.468
20
158.791
30
0
0
VERTEX
8
CUT
10
287.230
20
160.601
30
0
0
SEQEND
8
CUT
0
POLYLINE
8
CUT
66
1
70
1
10
0
20
0
30
0
0
VERTEX
8
CUT
10
283.000
20
162.425
30
0
0
VERTEX
8
CUT
10
283.095
20
164.610
30
0
0
VERTEX
8
CUT
10
283.381
20
166.779
30
0
0
VERTEX
8
CUT
10
283.854
20
168.915
30
0
0
VERTEX
8
CUT
10
284.512
20
171.001
30
0
0
VERTEX
8
CUT
10
285.349
20
173.022
30
0
0
VERTEX
8
CUT
10
286.359
20
174.962
30
0
0
VERTEX
8
CUT
10
287.535
20
176.807
30
0
0
VERTEX
8
CUT
10
288.866
20
178.543
30
0
0
VERTEX
8
CUT
10
290.344
20
180.156
30
0
0
VERTEX
8
CUT
10
291.957
20
181.634
30
0
0
VERTEX
8
CUT
10
293.693
20
182.965
30
0
0
VERTEX
8
CUT
10
295.538
20
184.141
30
0
0
VERTEX
8
CUT
10
297.478
20
185.151
30
0
0
VERTEX
8
CUT
10
299.499
20
185.988
30
0
0
VERTEX
8
CUT
10
301.585
20
186.646
30
0
0
VERTEX
8
CUT
10
303.721
20
187.119
30
0
0
VERTEX
8
CUT
10
305.890
20
187.405
30
0
0
VERTEX
8
CUT
10
308.075
20
187.500
30
0
0
VERTEX
8
CUT
10
310.261
20
187.405
30
0
0
VERTEX
8
CUT
10
312.429
20
187.119
30
0
0
VERTEX
8
CUT
10
314.565
20
186.646
30
0
0
VERTEX
8
CUT
10
316.651
20
185.988
30
0
0
VERTEX
8
CUT
10
318.672
20
185.151
30
0
0
VERTEX
8
CUT
10
320.613
20
184.141
30
0
0
VERTEX
8
CUT
10
322.458
20
182.965
30
0
0
VERTEX
8
CUT
10
324.193
20
181.634
30
0
0
VERTEX
8
CUT
10
325.806
20
180.156
30
0
0
VERTEX
8
CUT
10
327.284
20
178.543
30
0
0
VERTEX
8
CUT
10
328.615
20
176.807
30
0
0
VERTEX
8
CUT
10
329.791
20
174.962
30
0
0
VERTEX
8
CUT
10
330.801
20
173.022
30
0
0
VERTEX
8
CUT
10
331.638
20
171.001
30
0
0
VERTEX
8
CUT
10
332.296
20
168.915
30
0
0
VERTEX
8
CUT
10
332.769
20
166.779
30
0
0
VERTEX
8
CUT
10
333.055
20
164.610
30
0
0
VERTEX
8
CUT
10
333.150
20
162.425
30
0
0
VERTEX
8
CUT
10
333.055
20
160.239
30
0
0
VERTEX
8
CUT
10
332.769
20
158.071
30
0
0
VERTEX
8
CUT
10
332.296
20
155.935
30
0
0
VERTEX
8
CUT
10
331.638
20
153.849
30
0
0
VERTEX
8
CUT
10
330.801
20
151.828
30
0
0
VERTEX
8
CUT
10
329.791
20
149.887
30
0
0
VERTEX
8
CUT
10
328.615
20
148.042
30
0
0
VERTEX
8
CUT
10
327.284
20
146.307
30
0
0
VERTEX
8
CUT
10
325.806
20
144.694
30
0
0
VERTEX
8
CUT
10
324.193
20
143.216
30
0
0
VERTEX
8
CUT
10
322.458
20
141.885
30
0
0
VERTEX
8
CUT
10
320.613
20
140.709
30
0
0
VERTEX
8
CUT
10
318.672
20
139.699
30
0
0
VERTEX
8
CUT
10
316.651
20
138.862
30
0
0
VERTEX
8
CUT
10
314.565
20
138.204
30
0
0
VERTEX
8
CUT
10
312.429
20
137.731
30
0
0
VERTEX
8
CUT
10
310.261
20
137.445
30
0
0
VERTEX
8
CUT
10
308.075
20
137.350
30
0
0
VERTEX
8
CUT
10
305.890
20
137.445
30
0
0
VERTEX
8
CUT
10
303.721
20
137.731
30
0
0
VERTEX
8
CUT
10
301.585
20
138.204
30
0
0
VERTEX
8
CUT
10
299.499
20
138.862
30
0
0
VERTEX
8
CUT
10
297.478
20
139.699
30
0
0
VERTEX
8
CUT
10
295.538
20
140.709
30
0
0
VERTEX
8
CUT
10
293.693
20
141.885
30
0
0
VERTEX
8
CUT
10
291.957
20
143.216
30
0
0
VERTEX
8
CUT
10
290.344
20
144.694
30
0
0
VERTEX
8
CUT
10
288.866
20
146.307
30
0
0
VERTEX
8
CUT
10
287.535
20
148.042
30
0
0
VERTEX
8
CUT
10
286.359
20
149.887
30
0
0
VERTEX
8
CUT
10
285.349
20
151.828
30
0
0
VERTEX
8
CUT
10
284.512
20
153.849
30
0
0
VERTEX
8
CUT
10
283.854
20
155.935
30
0
0
VERTEX
8
CUT
10
283.381
20
158.071
30
0
0
VERTEX
8
CUT
10
283.095
20
160.239
30
0
0
SEQEND
8
CUT
0
POLYLINE
8
CUT
66
1
70
1
10
0
20
0
30
0
0
VERTEX
8
CUT
10
352.650
20
124.925
30
0
0
VERTEX
8
CUT
10
352.730
20
126.749
30
0
0
VERTEX
8
CUT
10
352.968
20
128.559
30
0
0
VERTEX
8
CUT
10
353.363
20
130.341
30
0
0
VERTEX
8
CUT
10
353.912
20
132.082
30
0
0
VERTEX
8
CUT
10
354.611
20
133.768
30
0
0
VERTEX
8
CUT
10
355.454
20
135.387
30
0
0
VERTEX
8
CUT
10
356.434
20
136.927
30
0
0
VERTEX
8
CUT
10
357.546
20
138.375
30
0
0
VERTEX
8
CUT
10
358.779
20
139.721
30
0
0
VERTEX
8
CUT
10
360.125
20
140.954
30
0
0
VERTEX
8
CUT
10
361.573
20
142.066
30
0
0
VERTEX
8
CUT
10
363.113
20
143.046
30
0
0
VERTEX
8
CUT
10
364.732
20
143.889
30
0
0
VERTEX
8
CUT
10
366.418
20
144.588
30
0
0
VERTEX
8
CUT
10
368.159
20
145.137
30
0
0
VERTEX
8
CUT
10
369.941
20
145.532
30
0
0
VERTEX
8
CUT
10
371.751
20
145.770
30
0
0
VERTEX
8
CUT
10
373.575
20
145.850
30
0
0
VERTEX
8
CUT
10
375.399
20
145.770
30
0
0
VERTEX
8
CUT
10
377.209
20
145.532
30
0
0
VERTEX
8
CUT
10
378.991
20
145.137
30
0
0
VERTEX
8
CUT
10
380.732
20
144.588
30
0
0
VERTEX
8
CUT
10
382.418
20
143.889
30
0
0
VERTEX
8
CUT
10
384.038
20
143.046
30
0
0
VERTEX
8
CUT
10
385.577
20
142.066
30
0
0
VERTEX
8
CUT
10
387.025
20
140.954
30
0
0
VERTEX
8
CUT
10
388.371
20
139.721
30
0
0
VERTEX
8
CUT
10
389.604
20
138.375
30
0
0
VERTEX
8
CUT
10
390.716
20
136.927
30
0
0
VERTEX
8
CUT
10
391.697
20
135.387
30
0
0
VERTEX
8
CUT
10
392.539
20
133.768
30
0
0
VERTEX
8
CUT
10
393.238
20
132.082
30
0
0
VERTEX
8
CUT
10
393.787
20
130.341
30
0
0
VERTEX
8
CUT
10
394.182
20
128.559
30
0
0
VERTEX
8
CUT
10
394.420
20
126.749
30
0
0
VERTEX
8
CUT
10
394.500
20
124.925
30
0
0
VERTEX
8
CUT
10
394.420
20
123.101
30
0
0
VERTEX
8
CUT
10
394.182
20
121.291
30
0
0
VERTEX
8
CUT
10
393.787
20
119.509
30
0
0
VERTEX
8
CUT
10
393.238
20
117.768
30
0
0
VERTEX
8
CUT
10
392.539
20
116.082
30
0
0
VERTEX
8
CUT
10
391.697
20
114.462
30
0
0
VERTEX
8
CUT
10
390.716
20
112.923
30
0
0
VERTEX
8
CUT
10
389.604
20
111.475
30
0
0
VERTEX
8
CUT
10
388.371
20
110.129
30
0
0
VERTEX
8
CUT
10
387.025
20
108.896
30
0
0
VERTEX
8
CUT
10
385.577
20
107.784
30
0
0
VERTEX
8
CUT
10
384.038
20
106.803
30
0
0
VERTEX
8
CUT
10
382.418
20
105.961
30
0
0
VERTEX
8
CUT
10
380.732
20
105.262
30
0
0
VERTEX
8
CUT
10
378.991
20
104.713
30
0
0
VERTEX
8
CUT
10
377.209
20
104.318
30
0
0
VERTEX
8
CUT
10
375.399
20
104.080
30
0
0
VERTEX
8
CUT
10
373.575
20
104.000
30
0
0
VERTEX
8
CUT
10
371.751
20
104.080
30
0
0
VERTEX
8
CUT
10
369.941
20
104.318
30
0
0
VERTEX
8
CUT
10
368.159
20
104.713
30
0
0
VERTEX
8
CUT
10
366.418
20
105.262
30
0
0
VERTEX
8
CUT
10
364.732
20
105.961
30
0
0
VERTEX
8
CUT
10
363.113
20
106.803
30
0
0
VERTEX
8
CUT
10
361.573
20
107.784
30
0
0
VERTEX
8
CUT
10
360.125
20
108.896
30
0
0
VERTEX
8
CUT
10
358.779
20
110.129
30
0
0
VERTEX
8
CUT
10
357.546
20
111.475
30
0
0
VERTEX
8
CUT
10
356.434
20
112.923
30
0
0
VERTEX
8
CUT
10
355.454
20
114.462
30
0
0
VERTEX
8
CUT
10
354.611
20
116.082
30
0
0
VERTEX
8
CUT
10
353.912
20
117.768
30
0
0
VERTEX
8
CUT
10
353.363
20
119.509
30
0
0
VERTEX
8
CUT
10
352.968
20
121.291
30
0
0
VERTEX
8
CUT
10
352.730
20
123.101
30
0
0
SEQEND
8
CUT
0
POLYLINE
8
CUT
66
1
70
1
10
0
20
0
30
0
0
VERTEX
8
CUT
10
348.500
20
124.925
30
0
0
VERTEX
8
CUT
10
348.595
20
127.110
30
0
0
VERTEX
8
CUT
10
348.881
20
129.279
30
0
0
VERTEX
8
CUT
10
349.354
20
131.415
30
0
0
VERTEX
8
CUT
10
350.012
20
133.501
30
0
0
VERTEX
8
CUT
10
350.849
20
135.522
30
0
0
VERTEX
8
CUT
10
351.859
20
137.462
30
0
0
VERTEX
8
CUT
10
353.035
20
139.307
30
0
0
VERTEX
8
CUT
10
354.366
20
141.043
30
0
0
VERTEX
8
CUT
10
355.844
20
142.656
30
0
0
VERTEX
8
CUT
10
357.457
20
144.134
30
0
0
VERTEX
8
CUT
10
359.193
20
145.465
30
0
0
VERTEX
8
CUT
10
361.038
20
146.641
30
0
0
VERTEX
8
CUT
10
362.978
20
147.651
30
0
0
VERTEX
8
CUT
10
364.999
20
148.488
30
0
0
VERTEX
8
CUT
10
367.085
20
149.146
30
0
0
VERTEX
8
CUT
10
369.221
20
149.619
30
0
0
VERTEX
8
CUT
10
371.390
20
149.905
30
0
0
VERTEX
8
CUT
10
373.575
20
150.000
30
0
0
VERTEX
8
CUT
10
375.761
20
149.905
30
0
0
VERTEX
8
CUT
10
377.929
20
149.619
30
0
0
VERTEX
8
CUT
10
380.065
20
149.146
30
0
0
VERTEX
8
CUT
10
382.151
20
148.488
30
0
0
VERTEX
8
CUT
10
384.172
20
147.651
30
0
0
VERTEX
8
CUT
10
386.113
20
146.641
30
0
0
VERTEX
8
CUT
10
387.958
20
145.465
30
0
0
VERTEX
8
CUT
10
389.693
20
144.134
30
0
0
VERTEX
8
CUT
10
391.306
20
142.656
30
0
0
VERTEX
8
CUT
10
392.784
20
141.043
30
0
0
VERTEX
8
CUT
10
394.115
20
139.307
30
0
0
VERTEX
8
CUT
10
395.291
20
137.462
30
0
0
VERTEX
8
CUT
10
396.301
20
135.522
30
0
0
VERTEX
8
CUT
10
397.138
20
133.501
30
0
0
VERTEX
8
CUT
10
397.796
20
131.415
30
0
0
VERTEX
8
CUT
10
398.269
20
129.279
30
0
0
VERTEX
8
CUT
10
398.555
20
127.110
30
0
0
VERTEX
8
CUT
10
398.650
20
124.925
30
0
0
VERTEX
8
CUT
10
398.555
20
122.739
30
0
0
VERTEX
8
CUT
10
398.269
20
120.571
30
0
0
VERTEX
8
CUT
10
397.796
20
118.435
30
0
0
VERTEX
8
CUT
10
397.138
20
116.349
30
0
0
VERTEX
8
CUT
10
396.301
20
114.328
30
0
0
VERTEX
8
CUT
10
395.291
20
112.387
30
0
0
VERTEX
8
CUT
10
394.115
20
110.542
30
0
0
VERTEX
8
CUT
10
392.784
20
108.807
30
0
0
VERTEX
8
CUT
10
391.306
20
107.194
30
0
0
VERTEX
8
CUT
10
389.693
20
105.716
30
0
0
VERTEX
8
CUT
10
387.958
20
104.385
30
0
0
VERTEX
8
CUT
10
386.113
20
103.209
30
0
0
VERTEX
8
CUT
10
384.172
20
102.199
30
0
0
VERTEX
8
CUT
10
382.151
20
101.362
30
0
0
VERTEX
8
CUT
10
380.065
20
100.704
30
0
0
VERTEX
8
CUT
10
377.929
20
100.231
30
0
0
VERTEX
8
CUT
10
375.761
20
99.945
30
0
0
VERTEX
8
CUT
10
373.575
20
99.850
30
0
0
VERTEX
8
CUT
10
371.390
20
99.945
30
0
0
VERTEX
8
CUT
10
369.221
20
100.231
30
0
0
VERTEX
8
CUT
10
367.085
20
100.704
30
0
0
VERTEX
8
CUT
10
364.999
20
101.362
30
0
0
VERTEX
8
CUT
10
362.978
20
102.199
30
0
0
VERTEX
8
CUT
10
361.038
20
103.209
30
0
0
VERTEX
8
CUT
10
359.193
20
104.385
30
0
0
VERTEX
8
CUT
10
357.457
20
105.716
30
0
0
VERTEX
8
CUT
10
355.844
20
107.194
30
0
0
VERTEX
8
CUT
10
354.366
20
108.807
30
0
0
VERTEX
8
CUT
10
353.035
20
110.542
30
0
0
VERTEX
8
CUT
10
351.859
20
112.387
30
0
0
VERTEX
8
CUT
10
350.849
20
114.328
30
0
0
VERTEX
8
CUT
10
350.012
20
116.349
30
0
0
VERTEX
8
CUT
10
349.354
20
118.435
30
0
0
VERTEX
8
CUT
10
348.881
20
120.571
30
0
0
VERTEX
8
CUT
10
348.595
20
122.739
30
0
0
SEQEND
8
CUT
0
POLYLINE
8
CUT
66
1
70
1
10
0
20
0
30
0
0
VERTEX
8
CUT
10
271.650
20
111.925
30
0
0
VERTEX
8
CUT
10
271.730
20
113.749
30
0
0
VERTEX
8
CUT
10
271.968
20
115.559
30
0
0
VERTEX
8
CUT
10
272.363
20
117.341
30
0
0
VERTEX
8
CUT
10
272.912
20
119.082
30
0
0
VERTEX
8
CUT
10
273.611
20
120.768
30
0
0
VERTEX
8
CUT
10
274.454
20
122.387
30
0
0
VERTEX
8
CUT
10
275.434
20
123.927
30
0
0
VERTEX
8
CUT
10
276.546
20
125.375
30
0
0
VERTEX
8
CUT
10
277.779
20
126.721
30
0
0
VERTEX
8
CUT
10
279.125
20
127.954
30
0
0
VERTEX
8
CUT
10
280.573
20
129.066
30
0
0
VERTEX
8
CUT
10
282.113
20
130.046
30
0
0
VERTEX
8
CUT
10
283.732
20
130.889
30
0
0
VERTEX
8
CUT
10
285.418
20
131.588
30
0
0
VERTEX
8
CUT
10
287.159
20
132.137
30
0
0
VERTEX
8
CUT
10
288.941
20
132.532
30
0
0
VERTEX
8
CUT
10
290.751
20
132.770
30
0
0
VERTEX
8
CUT
10
292.575
20
132.850
30
0
0
VERTEX
8
CUT
10
294.399
20
132.770
30
0
0
VERTEX
8
CUT
10
296.209
20
132.532
30
0
0
VERTEX
8
CUT
10
297.991
20
132.137
30
0
0
VERTEX
8
CUT
10
299.732
20
131.588
30
0
0
VERTEX
8
CUT
10
301.418
20
130.889
30
0
0
VERTEX
8
CUT
10
303.038
20
130.046
30
0
0
VERTEX
8
CUT
10
304.577
20
129.066
30
0
0
VERTEX
8
CUT
10
306.025
20
127.954
30
0
0
VERTEX
8
CUT
10
307.371
20
126.721
30
0
0
VERTEX
8
CUT
10
308.604
20
125.375
30
0
0
VERTEX
8
CUT
10
309.716
20
123.927
30
0
0
VERTEX
8
CUT
10
310.697
20
122.387
30
0
0
VERTEX
8
CUT
10
311.539
20
120.768
30
0
0
VERTEX
8
CUT
10
312.238
20
119.082
30
0
0
VERTEX
8
CUT
10
312.787
20
117.341
30
0
0
VERTEX
8
CUT
10
313.182
20
115.559
30
0
0
VERTEX
8
CUT
10
313.420
20
113.749
30
0
0
VERTEX
8
CUT
10
313.500
20
111.925
30
0
0
VERTEX
8
CUT
10
313.420
20
110.101
30
0
0
VERTEX
8
CUT
10
313.182
20
108.291
30
0
0
VERTEX
8
CUT
10
312.787
20
106.509
30
0
0
VERTEX
8
CUT
10
312.238
20
104.768
30
0
0
VERTEX
8
CUT
10
311.539
20
103.082
30
0
0
VERTEX
8
CUT
10
310.697
20
101.462
30
0
0
VERTEX
8
CUT
10
309.716
20
99.923
30
0
0
VERTEX
8
CUT
10
308.604
20
98.475
30
0
0
VERTEX
8
CUT
10
307.371
20
97.129
30
0
0
VERTEX
8
CUT
10
306.025
20
95.896
30
0
0
VERTEX
8
CUT
10
304.577
20
94.784
30
0
0
VERTEX
8
CUT
10
303.038
20
93.803
30
0
0
VERTEX
8
CUT
10
301.418
20
92.961
30
0
0
VERTEX
8
CUT
10
299.732
20
92.262
30
0
0
VERTEX
8
CUT
10
297.991
20
91.713
30
0
0
VERTEX
8
CUT
10
296.209
20
91.318
30
0
0
VERTEX
8
CUT
10
294.399
20
91.080
30
0
0
VERTEX
8
CUT
10
292.575
20
91.000
30
0
0
VERTEX
8
CUT
10
290.751
20
91.080
30
0
0
VERTEX
8
CUT
10
288.941
20
91.318
30
0
0
VERTEX
8
CUT
10
287.159
20
91.713
30
0
0
VERTEX
8
CUT
10
285.418
20
92.262
30
0
0
VERTEX
8
CUT
10
283.732
20
92.961
30
0
0
VERTEX
8
CUT
10
282.113
20
93.803
30
0
0
VERTEX
8
CUT
10
280.573
20
94.784
30
0
0
VERTEX
8
CUT
10
279.125
20
95.896
30
0
0
VERTEX
8
CUT
10
277.779
20
97.129
30
0
0
VERTEX
8
CUT
10
276.546
20
98.475
30
0
0
VERTEX
8
CUT
10
275.434
20
99.923
30
0
0
VERTEX
8
CUT
10
274.454
20
101.462
30
0
0
VERTEX
8
CUT
10
273.611
20
103.082
30
0
0
VERTEX
8
CUT
10
272.912
20
104.768
30
0
0
VERTEX
8
CUT
10
272.363
20
106.509
30
0
0
VERTEX
8
CUT
10
271.968
20
108.291
30
0
0
VERTEX
8
CUT
10
271.730
20
110.101
30
0
0
SEQEND
8
CUT
0
POLYLINE
8
CUT
66
1
70
1
10
0
20
0
30
0
0
VERTEX
8
CUT
10
267.500
20
111.925
30
0
0
VERTEX
8
CUT
10
267.595
20
114.110
30
0
0
VERTEX
8
CUT
10
267.881
20
116.279
30
0
0
VERTEX
8
CUT
10
268.354
20
118.415
30
0
0
VERTEX
8
CUT
10
269.012
20
120.501
30
0
0
VERTEX
8
CUT
10
269.849
20
122.522
30
0
0
VERTEX
8
CUT
10
270.859
20
124.462
30
0
0
VERTEX
8
CUT
10
272.035
20
126.307
30
0
0
VERTEX
8
CUT
10
273.366
20
128.043
30
0
0
VERTEX
8
CUT
10
274.844
20
129.656
30
0
0
VERTEX
8
CUT
10
276.457
20
131.134
30
0
0
VERTEX
8
CUT
10
278.193
20
132.465
30
0
0
VERTEX
8
CUT
10
280.038
20
133.641
30
0
0
VERTEX
8
CUT
10
281.978
20
134.651
30
0
0
VERTEX
8
CUT
10
283.999
20
135.488
30
0
0
VERTEX
8
CUT
10
286.085
20
136.146
30
0
0
VERTEX
8
CUT
10
288.221
20
136.619
30
0
0
VERTEX
8
CUT
10
290.390
20
136.905
30
0
0
VERTEX
8
CUT
10
292.575
20
137.000
30
0
0
VERTEX
8
CUT
10
294.761
20
136.905
30
0
0
VERTEX
8
CUT
10
296.929
20
136.619
30
0
0
VERTEX
8
CUT
10
299.065
20
136.146
30
0
0
VERTEX
8
CUT
10
301.151
20
135.488
30
0
0
VERTEX
8
CUT
10
303.172
20
134.651
30
0
0
VERTEX
8
CUT
10
305.113
20
133.641
30
0
0
VERTEX
8
CUT
10
306.958
20
132.465
30
0
0
VERTEX
8
CUT
10
308.693
20
131.134
30
0
0
VERTEX
8
CUT
10
310.306
20
129.656
30
0
0
VERTEX
8
CUT
10
311.784
20
128.043
30
0
0
VERTEX
8
CUT
10
313.115
20
126.307
30
0
0
VERTEX
8
CUT
10
314.291
20
124.462
30
0
0
VERTEX
8
CUT
10
315.301
20
122.522
30
0
0
VERTEX
8
CUT
10
316.138
20
120.501
30
0
0
VERTEX
8
CUT
10
316.796
20
118.415
30
0
0
VERTEX
8
CUT
10
317.269
20
116.279
30
0
0
VERTEX
8
CUT
10
317.555
20
114.110
30
0
0
VERTEX
8
CUT
10
317.650
20
111.925
30
0
0
VERTEX
8
CUT
10
317.555
20
109.739
30
0
0
VERTEX
8
CUT
10
317.269
20
107.571
30
0
0
VERTEX
8
CUT
10
316.796
20
105.435
30
0
0
VERTEX
8
CUT
10
316.138
20
103.349
30
0
0
VERTEX
8
CUT
10
315.301
20
101.328
30
0
0
VERTEX
8
CUT
10
314.291
20
99.387
30
0
0
VERTEX
8
CUT
10
313.115
20
97.542
30
0
0
VERTEX
8
CUT
10
311.784
20
95.807
30
0
0
VERTEX
8
CUT
10
310.306
20
94.194
30
0
0
VERTEX
8
CUT
10
308.693
20
92.716
30
0
0
VERTEX
8
CUT
10
306.958
20
91.385
30
0
0
VERTEX
8
CUT
10
305.113
20
90.209
30
0
0
VERTEX
8
CUT
10
303.172
20
89.199
30
0
0
VERTEX
8
CUT
10
301.151
20
88.362
30
0
0
VERTEX
8
CUT
10
299.065
20
87.704
30
0
0
VERTEX
8
CUT
10
296.929
20
87.231
30
0
0
VERTEX
8
CUT
10
294.761
20
86.945
30
0
0
VERTEX
8
CUT
10
292.575
20
86.850
30
0
0
VERTEX
8
CUT
10
290.390
20
86.945
30
0
0
VERTEX
8
CUT
10
288.221
20
87.231
30
0
0
VERTEX
8
CUT
10
286.085
20
87.704
30
0
0
VERTEX
8
CUT
10
283.999
20
88.362
30
0
0
VERTEX
8
CUT
10
281.978
20
89.199
30
0
0
VERTEX
8
CUT
10
280.038
20
90.209
30
0
0
VERTEX
8
CUT
10
278.193
20
91.385
30
0
0
VERTEX
8
CUT
10
276.457
20
92.716
30
0
0
VERTEX
8
CUT
10
274.844
20
94.194
30
0
0
VERTEX
8
CUT
10
273.366
20
95.807
30
0
0
VERTEX
8
CUT
10
272.035
20
97.542
30
0
0
VERTEX
8
CUT
10
270.859
20
99.387
30
0
0
VERTEX
8
CUT
10
269.849
20
101.328
30
0
0
VERTEX
8
CUT
10
269.012
20
103.349
30
0
0
VERTEX
8
CUT
10
268.354
20
105.435
30
0
0
VERTEX
8
CUT
10
267.881
20
107.571
30
0
0
VERTEX
8
CUT
10
267.595
20
109.739
30
0
0
SEQEND
8
CUT
0
POLYLINE
8
CUT
66
1
70
1
10
0
20
0
30
0
0
VERTEX
8
CUT
10
7.150
20
109.425
30
0
0
VERTEX
8
CUT
10
7.230
20
111.249
30
0
0
VERTEX
8
CUT
10
7.468
20
113.059
30
0
0
VERTEX
8
CUT
10
7.863
20
114.841
30
0
0
VERTEX
8
CUT
10
8.412
20
116.582
30
0
0
VERTEX
8
CUT
10
9.111
20
118.268
30
0
0
VERTEX
8
CUT
10
9.954
20
119.887
30
0
0
VERTEX
8
CUT
10
10.934
20
121.427
30
0
0
VERTEX
8
CUT
10
12.046
20
122.875
30
0
0
VERTEX
8
CUT
10
13.279
20
124.221
30
0
0
VERTEX
8
CUT
10
14.625
20
125.454
30
0
0
VERTEX
8
CUT
10
16.073
20
126.566
30
0
0
VERTEX
8
CUT
10
17.613
20
127.546
30
0
0
VERTEX
8
CUT
10
19.232
20
128.389
30
0
0
VERTEX
8
CUT
10
20.918
20
129.088
30
0
0
VERTEX
8
CUT
10
22.659
20
129.637
30
0
0
VERTEX
8
CUT
10
24.441
20
130.032
30
0
0
VERTEX
8
CUT
10
26.251
20
130.270
30
0
0
VERTEX
8
CUT
10
28.075
20
130.350
30
0
0
VERTEX
8
CUT
10
29.899
20
130.270
30
0
0
VERTEX
8
CUT
10
31.709
20
130.032
30
0
0
VERTEX
8
CUT
10
33.491
20
129.637
30
0
0
VERTEX
8
CUT
10
35.232
20
129.088
30
0
0
VERTEX
8
CUT
10
36.918
20
128.389
30
0
0
VERTEX
8
CUT
10
38.538
20
127.546
30
0
0
VERTEX
8
CUT
10
40.077
20
126.566
30
0
0
VERTEX
8
CUT
10
41.525
20
125.454
30
0
0
VERTEX
8
CUT
10
42.871
20
124.221
30
0
0
VERTEX
8
CUT
10
44.104
20
122.875
30
0
0
VERTEX
8
CUT
10
45.216
20
121.427
30
0
0
VERTEX
8
CUT
10
46.197
20
119.887
30
0
0
VERTEX
8
CUT
10
47.039
20
118.268
30
0
0
VERTEX
8
CUT
10
47.738
20
116.582
30
0
0
VERTEX
8
CUT
10
48.287
20
114.841
30
0
0
VERTEX
8
CUT
10
48.682
20
113.059
30
0
0
VERTEX
8
CUT
10
48.920
20
111.249
30
0
0
VERTEX
8
CUT
10
49.000
20
109.425
30
0
0
VERTEX
8
CUT
10
48.920
20
107.601
30
0
0
VERTEX
8
CUT
10
48.682
20
105.791
30
0
0
VERTEX
8
CUT
10
48.287
20
104.009
30
0
0
VERTEX
8
CUT
10
47.738
20
102.268
30
0
0
VERTEX
8
CUT
10
47.039
20
100.582
30
0
0
VERTEX
8
CUT
10
46.197
20
98.962
30
0
0
VERTEX
8
CUT
10
45.216
20
97.423
30
0
0
VERTEX
8
CUT
10
44.104
20
95.975
30
0
0
VERTEX
8
CUT
10
42.871
20
94.629
30
0
0
VERTEX
8
CUT
10
41.525
20
93.396
30
0
0
VERTEX
8
CUT
10
40.077
20
92.284
30
0
0
VERTEX
8
CUT
10
38.538
20
91.303
30
0
0
VERTEX
8
CUT
10
36.918
20
90.461
30
0
0
VERTEX
8
CUT
10
35.232
20
89.762
30
0
0
VERTEX
8
CUT
10
33.491
20
89.213
30
0
0
VERTEX
8
CUT
10
31.709
20
88.818
30
0
0
VERTEX
8
CUT
10
29.899
20
88.580
30
0
0
VERTEX
8
CUT
10
28.075
20
88.500
30
0
0
VERTEX
8
CUT
10
26.251
20
88.580
30
0
0
VERTEX
8
CUT
10
24.441
20
88.818
30
0
0
VERTEX
8
CUT
10
22.659
20
89.213
30
0
0
VERTEX
8
CUT
10
20.918
20
89.762
30
0
0
VERTEX
8
CUT
10
19.232
20
90.461
30
0
0
VERTEX
8
CUT
10
17.613
20
91.303
30
0
0
VERTEX
8
CUT
10
16.073
20
92.284
30
0
0
VERTEX
8
CUT
10
14.625
20
93.396
30
0
0
VERTEX
8
CUT
10
13.279
20
94.629
30
0
0
VERTEX
8
CUT
10
12.046
20
95.975
30
0
0
VERTEX
8
CUT
10
10.934
20
97.423
30
0
0
VERTEX
8
CUT
10
9.954
20
98.962
30
0
0
VERTEX
8
CUT
10
9.111
20
100.582
30
0
0
VERTEX
8
CUT
10
8.412
20
102.268
30
0
0
VERTEX
8
CUT
10
7.863
20
104.009
30
0
0
VERTEX
8
CUT
10
7.468
20
105.791
30
0
0
VERTEX
8
CUT
10
7.230
20
107.601
30
0
0
SEQEND
8
CUT
0
POLYLINE
8
CUT
66
1
70
1
10
0
20
0
30
0
0
VERTEX
8
CUT
10
3.000
20
109.425
30
0
0
VERTEX
8
CUT
10
3.095
20
111.610
30
0
0
VERTEX
8
CUT
10
3.381
20
113.779
30
0
0
VERTEX
8
CUT
10
3.854
20
115.915
30
0
0
VERTEX
8
CUT
10
4.512
20
118.001
30
0
0
VERTEX
8
CUT
10
5.349
20
120.022
30
0
0
VERTEX
8
CUT
10
6.359
20
121.962
30
0
0
VERTEX
8
CUT
10
7.535
20
123.807
30
0
0
VERTEX
8
CUT
10
8.866
20
125.543
30
0
0
VERTEX
8
CUT
10
10.344
20
127.156
30
0
0
VERTEX
8
CUT
10
11.957
20
128.634
30
0
0
VERTEX
8
CUT
10
13.693
20
129.965
30
0
0
VERTEX
8
CUT
10
15.538
20
131.141
30
0
0
VERTEX
8
CUT
10
17.478
20
132.151
30
0
0
VERTEX
8
CUT
10
19.499
20
132.988
30
0
0
VERTEX
8
CUT
10
21.585
20
133.646
30
0
0
VERTEX
8
CUT
10
23.721
20
134.119
30
0
0
VERTEX
8
CUT
10
25.890
20
134.405
30
0
0
VERTEX
8
CUT
10
28.075
20
134.500
30
0
0
VERTEX
8
CUT
10
30.261
20
134.405
30
0
0
VERTEX
8
CUT
10
32.429
20
134.119
30
0
0
VERTEX
8
CUT
10
34.565
20
133.646
30
0
0
VERTEX
8
CUT
10
36.651
20
132.988
30
0
0
VERTEX
8
CUT
10
38.672
20
132.151
30
0
0
VERTEX
8
CUT
10
40.613
20
131.141
30
0
0
VERTEX
8
CUT
10
42.458
20
129.965
30
0
0
VERTEX
8
CUT
10
44.193
20
128.634
30
0
0
VERTEX
8
CUT
10
45.806
20
127.156
30
0
0
VERTEX
8
CUT
10
47.284
20
125.543
30
0
0
VERTEX
8
CUT
10
48.615
20
123.807
30
0
0
VERTEX
8
CUT
10
49.791
20
121.962
30
0
0
VERTEX
8
CUT
10
50.801
20
120.022
30
0
0
VERTEX
8
CUT
10
51.638
20
118.001
30
0
0
VERTEX
8
CUT
10
52.296
20
115.915
30
0
0
VERTEX
8
CUT
10
52.769
20
113.779
30
0
0
VERTEX
8
CUT
10
53.055
20
111.610
30
0
0
VERTEX
8
CUT
10
53.150
20
109.425
30
0
0
VERTEX
8
CUT
10
53.055
20
107.239
30
0
0
VERTEX
8
CUT
10
52.769
20
105.071
30
0
0
VERTEX
8
CUT
10
52.296
20
102.935
30
0
0
VERTEX
8
CUT
10
51.638
20
100.849
30
0
0
VERTEX
8
CUT
10
50.801
20
98.828
30
0
0
VERTEX
8
CUT
10
49.791
20
96.887
30
0
0
VERTEX
8
CUT
10
48.615
20
95.042
30
0
0
VERTEX
8
CUT
10
47.284
20
93.307
30
0
0
VERTEX
8
CUT
10
45.806
20
91.694
30
0
0
VERTEX
8
CUT
10
44.193
20
90.216
30
0
0
VERTEX
8
CUT
10
42.458
20
88.885
30
0
0
VERTEX
8
CUT
10
40.613
20
87.709
30
0
0
VERTEX
8
CUT
10
38.672
20
86.699
30
0
0
VERTEX
8
CUT
10
36.651
20
85.862
30
0
0
VERTEX
8
CUT
10
34.565
20
85.204
30
0
0
VERTEX
8
CUT
10
32.429
20
84.731
30
0
0
VERTEX
8
CUT
10
30.261
20
84.445
30
0
0
VERTEX
8
CUT
10
28.075
20
84.350
30
0
0
VERTEX
8
CUT
10
25.890
20
84.445
30
0
0
VERTEX
8
CUT
10
23.721
20
84.731
30
0
0
VERTEX
8
CUT
10
21.585
20
85.204
30
0
0
VERTEX
8
CUT
10
19.499
20
85.862
30
0
0
VERTEX
8
CUT
10
17.478
20
86.699
30
0
0
VERTEX
8
CUT
10
15.538
20
87.709
30
0
0
VERTEX
8
CUT
10
13.693
20
88.885
30
0
0
VERTEX
8
CUT
10
11.957
20
90.216
30
0
0
VERTEX
8
CUT
10
10.344
20
91.694
30
0
0
VERTEX
8
CUT
10
8.866
20
93.307
30
0
0
VERTEX
8
CUT
10
7.535
20
95.042
30
0
0
VERTEX
8
CUT
10
6.359
20
96.887
30
0
0
VERTEX
8
CUT
10
5.349
20
98.828
30
0
0
VERTEX
8
CUT
10
4.512
20
100.849
30
0
0
VERTEX
8
CUT
10
3.854
20
102.935
30
0
0
VERTEX
8
CUT
10
3.381
20
105.071
30
0
0
VERTEX
8
CUT
10
3.095
20
107.239
30
0
0
SEQEND
8
CUT
0
POLYLINE
8
CUT
66
1
70
1
10
0
20
0
30
0
0
VERTEX
8
CUT
10
59.150
20
109.425
30
0
0
VERTEX
8
CUT
10
59.230
20
111.249
30
0
0
VERTEX
8
CUT
10
59.468
20
113.059
30
0
0
VERTEX
8
CUT
10
59.863
20
114.841
30
0
0
VERTEX
8
CUT
10
60.412
20
116.582
30
0
0
VERTEX
8
CUT
10
61.111
20
118.268
30
0
0
VERTEX
8
CUT
10
61.954
20
119.887
30
0
0
VERTEX
8
CUT
10
62.934
20
121.427
30
0
0
VERTEX
8
CUT
10
64.046
20
122.875
30
0
0
VERTEX
8
CUT
10
65.279
20
124.221
30
0
0
VERTEX
8
CUT
10
66.625
20
125.454
30
0
0
VERTEX
8
CUT
10
68.073
20
126.566
30
0
0
VERTEX
8
CUT
10
69.613
20
127.546
30
0
0
VERTEX
8
CUT
10
71.232
20
128.389
30
0
0
VERTEX
8
CUT
10
72.918
20
129.088
30
0
0
VERTEX
8
CUT
10
74.659
20
129.637
30
0
0
VERTEX
8
CUT
10
76.441
20
130.032
30
0
0
VERTEX
8
CUT
10
78.251
20
130.270
30
0
0
VERTEX
8
CUT
10
80.075
20
130.350
30
0
0
VERTEX
8
CUT
10
81.899
20
130.270
30
0
0
VERTEX
8
CUT
10
83.709
20
130.032
30
0
0
VERTEX
8
CUT
10
85.491
20
129.637
30
0
0
VERTEX
8
CUT
10
87.232
20
129.088
30
0
0
VERTEX
8
CUT
10
88.918
20
128.389
30
0
0
VERTEX
8
CUT
10
90.538
20
127.546
30
0
0
VERTEX
8
CUT
10
92.077
20
126.566
30
0
0
VERTEX
8
CUT
10
93.525
20
125.454
30
0
0
VERTEX
8
CUT
10
94.871
20
124.221
30
0
0
VERTEX
8
CUT
10
96.104
20
122.875
30
0
0
VERTEX
8
CUT
10
97.216
20
121.427
30
0
0
VERTEX
8
CUT
10
98.197
20
119.887
30
0
0
VERTEX
8
CUT
10
99.039
20
118.268
30
0
0
VERTEX
8
CUT
10
99.738
20
116.582
30
0
0
VERTEX
8
CUT
10
100.287
20
114.841
30
0
0
VERTEX
8
CUT
10
100.682
20
113.059
30
0
0
VERTEX
8
CUT
10
100.920
20
111.249
30
0
0
VERTEX
8
CUT
10
101.000
20
109.425
30
0
0
VERTEX
8
CUT
10
100.920
20
107.601
30
0
0
VERTEX
8
CUT
10
100.682
20
105.791
30
0
0
VERTEX
8
CUT
10
100.287
20
104.009
30
0
0
VERTEX
8
CUT
10
99.738
20
102.268
30
0
0
VERTEX
8
CUT
10
99.039
20
100.582
30
0
0
VERTEX
8
CUT
10
98.197
20
98.962
30
0
0
VERTEX
8
CUT
10
97.216
20
97.423
30
0
0
VERTEX
8
CUT
10
96.104
20
95.975
30
0
0
VERTEX
8
CUT
10
94.871
20
94.629
30
0
0
VERTEX
8
CUT
10
93.525
20
93.396
30
0
0
VERTEX
8
CUT
10
92.077
20
92.284
30
0
0
VERTEX
8
CUT
10
90.538
20
91.303
30
0
0
VERTEX
8
CUT
10
88.918
20
90.461
30
0
0
VERTEX
8
CUT
10
87.232
20
89.762
30
0
0
VERTEX
8
CUT
10
85.491
20
89.213
30
0
0
VERTEX
8
CUT
10
83.709
20
88.818
30
0
0
VERTEX
8
CUT
10
81.899
20
88.580
30
0
0
VERTEX
8
CUT
10
80.075
20
88.500
30
0
0
VERTEX
8
CUT
10
78.251
20
88.580
30
0
0
VERTEX
8
CUT
10
76.441
20
88.818
30
0
0
VERTEX
8
CUT
10
74.659
20
89.213
30
0
0
VERTEX
8
CUT
10
72.918
20
89.762
30
0
0
VERTEX
8
CUT
10
71.232
20
90.461
30
0
0
VERTEX
8
CUT
10
69.613
20
91.303
30
0
0
VERTEX
8
CUT
10
68.073
20
92.284
30
0
0
VERTEX
8
CUT
10
66.625
20
93.396
30
0
0
VERTEX
8
CUT
10
65.279
20
94.629
30
0
0
VERTEX
8
CUT
10
64.046
20
95.975
30
0
0
VERTEX
8
CUT
10
62.934
20
97.423
30
0
0
VERTEX
8
CUT
10
61.954
20
98.962
30
0
0
VERTEX
8
CUT
10
61.111
20
100.582
30
0
0
VERTEX
8
CUT
10
60.412
20
102.268
30
0
0
VERTEX
8
CUT
10
59.863
20
104.009
30
0
0
VERTEX
8
CUT
10
59.468
20
105.791
30
0
0
VERTEX
8
CUT
10
59.230
20
107.601
30
0
0
SEQEND
8
CUT
0
POLYLINE
8
CUT
66
1
70
1
10
0
20
0
30
0
0
VERTEX
8
CUT
10
55.000
20
109.425
30
0
0
VERTEX
8
CUT
10
55.095
20
111.610
30
0
0
VERTEX
8
CUT
10
55.381
20
113.779
30
0
0
VERTEX
8
CUT
10
55.854
20
115.915
30
0
0
VERTEX
8
CUT
10
56.512
20
118.001
30
0
0
VERTEX
8
CUT
10
57.349
20
120.022
30
0
0
VERTEX
8
CUT
10
58.359
20
121.962
30
0
0
VERTEX
8
CUT
10
59.535
20
123.807
30
0
0
VERTEX
8
CUT
10
60.866
20
125.543
30
0
0
VERTEX
8
CUT
10
62.344
20
127.156
30
0
0
VERTEX
8
CUT
10
63.957
20
128.634
30
0
0
VERTEX
8
CUT
10
65.693
20
129.965
30
0
0
VERTEX
8
CUT
10
67.538
20
131.141
30
0
0
VERTEX
8
CUT
10
69.478
20
132.151
30
0
0
VERTEX
8
CUT
10
71.499
20
132.988
30
0
0
VERTEX
8
CUT
10
73.585
20
133.646
30
0
0
VERTEX
8
CUT
10
75.721
20
134.119
30
0
0
VERTEX
8
CUT
10
77.890
20
134.405
30
0
0
VERTEX
8
CUT
10
80.075
20
134.500
30
0
0
VERTEX
8
CUT
10
82.261
20
134.405
30
0
0
VERTEX
8
CUT
10
84.429
20
134.119
30
0
0
VERTEX
8
CUT
10
86.565
20
133.646
30
0
0
VERTEX
8
CUT
10
88.651
20
132.988
30
0
0
VERTEX
8
CUT
10
90.672
20
132.151
30
0
0
VERTEX
8
CUT
10
92.613
20
131.141
30
0
0
VERTEX
8
CUT
10
94.458
20
129.965
30
0
0
VERTEX
8
CUT
10
96.193
20
128.634
30
0
0
VERTEX
8
CUT
10
97.806
20
127.156
30
0
0
VERTEX
8
CUT
10
99.284
20
125.543
30
0
0
VERTEX
8
CUT
10
100.615
20
123.807
30
0
0
VERTEX
8
CUT
10
101.791
20
121.962
30
0
0
VERTEX
8
CUT
10
102.801
20
120.022
30
0
0
VERTEX
8
CUT
10
103.638
20
118.001
30
0
0
VERTEX
8
CUT
10
104.296
20
115.915
30
0
0
VERTEX
8
CUT
10
104.769
20
113.779
30
0
0
VERTEX
8
CUT
10
105.055
20
111.610
30
0
0
VERTEX
8
CUT
10
105.150
20
109.425
30
0
0
VERTEX
8
CUT
10
105.055
20
107.239
30
0
0
VERTEX
8
CUT
10
104.769
20
105.071
30
0
0
VERTEX
8
CUT
10
104.296
20
102.935
30
0
0
VERTEX
8
CUT
10
103.638
20
100.849
30
0
0
VERTEX
8
CUT
10
102.801
20
98.828
30
0
0
VERTEX
8
CUT
10
101.791
20
96.887
30
0
0
VERTEX
8
CUT
10
100.615
20
95.042
30
0
0
VERTEX
8
CUT
10
99.284
20
93.307
30
0
0
VERTEX
8
CUT
10
97.806
20
91.694
30
0
0
VERTEX
8
CUT
10
96.193
20
90.216
30
0
0
VERTEX
8
CUT
10
94.458
20
88.885
30
0
0
VERTEX
8
CUT
10
92.613
20
87.709
30
0
0
VERTEX
8
CUT
10
90.672
20
86.699
30
0
0
VERTEX
8
CUT
10
88.651
20
85.862
30
0
0
VERTEX
8
CUT
10
86.565
20
85.204
30
0
0
VERTEX
8
CUT
10
84.429
20
84.731
30
0
0
VERTEX
8
CUT
10
82.261
20
84.445
30
0
0
VERTEX
8
CUT
10
80.075
20
84.350
30
0
0
VERTEX
8
CUT
10
77.890
20
84.445
30
0
0
VERTEX
8
CUT
10
75.721
20
84.731
30
0
0
VERTEX
8
CUT
10
73.585
20
85.204
30
0
0
VERTEX
8
CUT
10
71.499
20
85.862
30
0
0
VERTEX
8
CUT
10
69.478
20
86.699
30
0
0
VERTEX
8
CUT
10
67.538
20
87.709
30
0
0
VERTEX
8
CUT
10
65.693
20
88.885
30
0
0
VERTEX
8
CUT
10
63.957
20
90.216
30
0
0
VERTEX
8
CUT
10
62.344
20
91.694
30
0
0
VERTEX
8
CUT
10
60.866
20
93.307
30
0
0
VERTEX
8
CUT
10
59.535
20
95.042
30
0
0
VERTEX
8
CUT
10
58.359
20
96.887
30
0
0
VERTEX
8
CUT
10
57.349
20
98.828
30
0
0
VERTEX
8
CUT
10
56.512
20
100.849
30
0
0
VERTEX
8
CUT
10
55.854
20
102.935
30
0
0
VERTEX
8
CUT
10
55.381
20
105.071
30
0
0
VERTEX
8
CUT
10
55.095
20
107.239
30
0
0
SEQEND
8
CUT
0
POLYLINE
8
CUT
66
1
70
1
10
0
20
0
30
0
0
VERTEX
8
CUT
10
111.150
20
109.425
30
0
0
VERTEX
8
CUT
10
111.230
20
111.249
30
0
0
VERTEX
8
CUT
10
111.468
20
113.059
30
0
0
VERTEX
8
CUT
10
111.863
20
114.841
30
0
0
VERTEX
8
CUT
10
112.412
20
116.582
30
0
0
VERTEX
8
CUT
10
113.111
20
118.268
30
0
0
VERTEX
8
CUT
10
113.954
20
119.887
30
0
0
VERTEX
8
CUT
10
114.934
20
121.427
30
0
0
VERTEX
8
CUT
10
116.046
20
122.875
30
0
0
VERTEX
8
CUT
10
117.279
20
124.221
30
0
0
VERTEX
8
CUT
10
118.625
20
125.454
30
0
0
VERTEX
8
CUT
10
120.073
20
126.566
30
0
0
VERTEX
8
CUT
10
121.613
20
127.546
30
0
0
VERTEX
8
CUT
10
123.232
20
128.389
30
0
0
VERTEX
8
CUT
10
124.918
20
129.088
30
0
0
VERTEX
8
CUT
10
126.659
20
129.637
30
0
0
VERTEX
8
CUT
10
128.441
20
130.032
30
0
0
VERTEX
8
CUT
10
130.251
20
130.270
30
0
0
VERTEX
8
CUT
10
132.075
20
130.350
30
0
0
VERTEX
8
CUT
10
133.899
20
130.270
30
0
0
VERTEX
8
CUT
10
135.709
20
130.032
30
0
0
VERTEX
8
CUT
10
137.491
20
129.637
30
0
0
VERTEX
8
CUT
10
139.232
20
129.088
30
0
0
VERTEX
8
CUT
10
140.918
20
128.389
30
0
0
VERTEX
8
CUT
10
142.538
20
127.546
30
0
0
VERTEX
8
CUT
10
144.077
20
126.566
30
0
0
VERTEX
8
CUT
10
145.525
20
125.454
30
0
0
VERTEX
8
CUT
10
146.871
20
124.221
30
0
0
VERTEX
8
CUT
10
148.104
20
122.875
30
0
0
VERTEX
8
CUT
10
149.216
20
121.427
30
0
0
VERTEX
8
CUT
10
150.197
20
119.887
30
0
0
VERTEX
8
CUT
10
151.039
20
118.268
30
0
0
VERTEX
8
CUT
10
151.738
20
116.582
30
0
0
VERTEX
8
CUT
10
152.287
20
114.841
30
0
0
VERTEX
8
CUT
10
152.682
20
113.059
30
0
0
VERTEX
8
CUT
10
152.920
20
111.249
30
0
0
VERTEX
8
CUT
10
153.000
20
109.425
30
0
0
VERTEX
8
CUT
10
152.920
20
107.601
30
0
0
VERTEX
8
CUT
10
152.682
20
105.791
30
0
0
VERTEX
8
CUT
10
152.287
20
104.009
30
0
0
VERTEX
8
CUT
10
151.738
20
102.268
30
0
0
VERTEX
8
CUT
10
151.039
20
100.582
30
0
0
VERTEX
8
CUT
10
150.197
20
98.962
30
0
0
VERTEX
8
CUT
10
149.216
20
97.423
30
0
0
VERTEX
8
CUT
10
148.104
20
95.975
30
0
0
VERTEX
8
CUT
10
146.871
20
94.629
30
0
0
VERTEX
8
CUT
10
145.525
20
93.396
30
0
0
VERTEX
8
CUT
10
144.077
20
92.284
30
0
0
VERTEX
8
CUT
10
142.538
20
91.303
30
0
0
VERTEX
8
CUT
10
140.918
20
90.461
30
0
0
VERTEX
8
CUT
10
139.232
20
89.762
30
0
0
VERTEX
8
CUT
10
137.491
20
89.213
30
0
0
VERTEX
8
CUT
10
135.709
20
88.818
30
0
0
VERTEX
8
CUT
10
133.899
20
88.580
30
0
0
VERTEX
8
CUT
10
132.075
20
88.500
30
0
0
VERTEX
8
CUT
10
130.251
20
88.580
30
0
0
VERTEX
8
CUT
10
128.441
20
88.818
30
0
0
VERTEX
8
CUT
10
126.659
20
89.213
30
0
0
VERTEX
8
CUT
10
124.918
20
89.762
30
0
0
VERTEX
8
CUT
10
123.232
20
90.461
30
0
0
VERTEX
8
CUT
10
121.613
20
91.303
30
0
0
VERTEX
8
CUT
10
120.073
20
92.284
30
0
0
VERTEX
8
CUT
10
118.625
20
93.396
30
0
0
VERTEX
8
CUT
10
117.279
20
94.629
30
0
0
VERTEX
8
CUT
10
116.046
20
95.975
30
0
0
VERTEX
8
CUT
10
114.934
20
97.423
30
0
0
VERTEX
8
CUT
10
113.954
20
98.962
30
0
0
VERTEX
8
CUT
10
113.111
20
100.582
30
0
0
VERTEX
8
CUT
10
112.412
20
102.268
30
0
0
VERTEX
8
CUT
10
111.863
20
104.009
30
0
0
VERTEX
8
CUT
10
111.468
20
105.791
30
0
0
VERTEX
8
CUT
10
111.230
20
107.601
30
0
0
SEQEND
8
CUT
0
POLYLINE
8
CUT
66
1
70
1
10
0
20
0
30
0
0
VERTEX
8
CUT
10
107.000
20
109.425
30
0
0
VERTEX
8
CUT
10
107.095
20
111.610
30
0
0
VERTEX
8
CUT
10
107.381
20
113.779
30
0
0
VERTEX
8
CUT
10
107.854
20
115.915
30
0
0
VERTEX
8
CUT
10
108.512
20
118.001
30
0
0
VERTEX
8
CUT
10
109.349
20
120.022
30
0
0
VERTEX
8
CUT
10
110.359
20
121.962
30
0
0
VERTEX
8
CUT
10
111.535
20
123.807
30
0
0
VERTEX
8
CUT
10
112.866
20
125.543
30
0
0
VERTEX
8
CUT
10
114.344
20
127.156
30
0
0
VERTEX
8
CUT
10
115.957
20
128.634
30
0
0
VERTEX
8
CUT
10
117.693
20
129.965
30
0
0
VERTEX
8
CUT
10
119.538
20
131.141
30
0
0
VERTEX
8
CUT
10
121.478
20
132.151
30
0
0
VERTEX
8
CUT
10
123.499
20
132.988
30
0
0
VERTEX
8
CUT
10
125.585
20
133.646
30
0
0
VERTEX
8
CUT
10
127.721
20
134.119
30
0
0
VERTEX
8
CUT
10
129.890
20
134.405
30
0
0
VERTEX
8
CUT
10
132.075
20
134.500
30
0
0
VERTEX
8
CUT
10
134.261
20
134.405
30
0
0
VERTEX
8
CUT
10
136.429
20
134.119
30
0
0
VERTEX
8
CUT
10
138.565
20
133.646
30
0
0
VERTEX
8
CUT
10
140.651
20
132.988
30
0
0
VERTEX
8
CUT
10
142.672
20
132.151
30
0
0
VERTEX
8
CUT
10
144.613
20
131.141
30
0
0
VERTEX
8
CUT
10
146.458
20
129.965
30
0
0
VERTEX
8
CUT
10
148.193
20
128.634
30
0
0
VERTEX
8
CUT
10
149.806
20
127.156
30
0
0
VERTEX
8
CUT
10
151.284
20
125.543
30
0
0
VERTEX
8
CUT
10
152.615
20
123.807
30
0
0
VERTEX
8
CUT
10
153.791
20
121.962
30
0
0
VERTEX
8
CUT
10
154.801
20
120.022
30
0
0
VERTEX
8
CUT
10
155.638
20
118.001
30
0
0
VERTEX
8
CUT
10
156.296
20
115.915
30
0
0
VERTEX
8
CUT
10
156.769
20
113.779
30
0
0
VERTEX
8
CUT
10
157.055
20
111.610
30
0
0
VERTEX
8
CUT
10
157.150
20
109.425
30
0
0
VERTEX
8
CUT
10
157.055
20
107.239
30
0
0
VERTEX
8
CUT
10
156.769
20
105.071
30
0
0
VERTEX
8
CUT
10
156.296
20
102.935
30
0
0
VERTEX
8
CUT
10
155.638
20
100.849
30
0
0
VERTEX
8
CUT
10
154.801
20
98.828
30
0
0
VERTEX
8
CUT
10
153.791
20
96.887
30
0
0
VERTEX
8
CUT
10
152.615
20
95.042
30
0
0
VERTEX
8
CUT
10
151.284
20
93.307
30
0
0
VERTEX
8
CUT
10
149.806
20
91.694
30
0
0
VERTEX
8
CUT
10
148.193
20
90.216
30
0
0
VERTEX
8
CUT
10
146.458
20
88.885
30
0
0
VERTEX
8
CUT
10
144.613
20
87.709
30
0
0
VERTEX
8
CUT
10
142.672
20
86.699
30
0
0
VERTEX
8
CUT
10
140.651
20
85.862
30
0
0
VERTEX
8
CUT
10
138.565
20
85.204
30
0
0
VERTEX
8
CUT
10
136.429
20
84.731
30
0
0
VERTEX
8
CUT
10
134.261
20
84.445
30
0
0
VERTEX
8
CUT
10
132.075
20
84.350
30
0
0
VERTEX
8
CUT
10
129.890
20
84.445
30
0
0
VERTEX
8
CUT
10
127.721
20
84.731
30
0
0
VERTEX
8
CUT
10
125.585
20
85.204
30
0
0
VERTEX
8
CUT
10
123.499
20
85.862
30
0
0
VERTEX
8
CUT
10
121.478
20
86.699
30
0
0
VERTEX
8
CUT
10
119.538
20
87.709
30
0
0
VERTEX
8
CUT
10
117.693
20
88.885
30
0
0
VERTEX
8
CUT
10
115.957
20
90.216
30
0
0
VERTEX
8
CUT
10
114.344
20
91.694
30
0
0
VERTEX
8
CUT
10
112.866
20
93.307
30
0
0
VERTEX
8
CUT
10
111.535
20
95.042
30
0
0
VERTEX
8
CUT
10
110.359
20
96.887
30
0
0
VERTEX
8
CUT
10
109.349
20
98.828
30
0
0
VERTEX
8
CUT
10
108.512
20
100.849
30
0
0
VERTEX
8
CUT
10
107.854
20
102.935
30
0
0
VERTEX
8
CUT
10
107.381
20
105.071
30
0
0
VERTEX
8
CUT
10
107.095
20
107.239
30
0
0
SEQEND
8
CUT
0
POLYLINE
8
CUT
66
1
70
1
10
0
20
0
30
0
0
VERTEX
8
CUT
10
191.075
20
131.374
30
0
0
VERTEX
8
CUT
10
193.291
20
131.277
30
0
0
VERTEX
8
CUT
10
195.490
20
130.988
30
0
0
VERTEX
8
CUT
10
197.655
20
130.507
30
0
0
VERTEX
8
CUT
10
199.771
20
129.840
30
0
0
VERTEX
8
CUT
10
201.820
20
128.992
30
0
0
VERTEX
8
CUT
10
203.787
20
127.967
30
0
0
VERTEX
8
CUT
10
205.658
20
126.776
30
0
0
VERTEX
8
CUT
10
207.418
20
125.425
30
0
0
VERTEX
8
CUT
10
209.053
20
123.927
30
0
0
VERTEX
8
CUT
10
210.552
20
122.292
30
0
0
VERTEX
8
CUT
10
211.902
20
120.532
30
0
0
VERTEX
8
CUT
10
213.094
20
118.661
30
0
0
VERTEX
8
CUT
10
214.118
20
116.694
30
0
0
VERTEX
8
CUT
10
214.967
20
114.645
30
0
0
VERTEX
8
CUT
10
215.634
20
112.529
30
0
0
VERTEX
8
CUT
10
216.114
20
110.364
30
0
0
VERTEX
8
CUT
10
216.403
20
108.165
30
0
0
VERTEX
8
CUT
10
216.500
20
105.949
30
0
0
VERTEX
8
CUT
10
216.403
20
103.733
30
0
0
VERTEX
8
CUT
10
216.114
20
101.534
30
0
0
VERTEX
8
CUT
10
215.634
20
99.368
30
0
0
VERTEX
8
CUT
10
214.967
20
97.253
30
0
0
VERTEX
8
CUT
10
214.118
20
95.204
30
0
0
VERTEX
8
CUT
10
213.094
20
93.236
30
0
0
VERTEX
8
CUT
10
211.902
20
91.366
30
0
0
VERTEX
8
CUT
10
210.552
20
89.606
30
0
0
VERTEX
8
CUT
10
209.053
20
87.971
30
0
0
VERTEX
8
CUT
10
207.418
20
86.472
30
0
0
VERTEX
8
CUT
10
205.658
20
85.122
30
0
0
VERTEX
8
CUT
10
203.787
20
83.930
30
0
0
VERTEX
8
CUT
10
201.820
20
82.906
30
0
0
VERTEX
8
CUT
10
199.771
20
82.057
30
0
0
VERTEX
8
CUT
10
197.655
20
81.390
30
0
0
VERTEX
8
CUT
10
195.490
20
80.910
30
0
0
VERTEX
8
CUT
10
193.291
20
80.621
30
0
0
VERTEX
8
CUT
10
191.075
20
80.524
30
0
0
VERTEX
8
CUT
10
188.859
20
80.621
30
0
0
VERTEX
8
CUT
10
186.660
20
80.910
30
0
0
VERTEX
8
CUT
10
184.495
20
81.390
30
0
0
VERTEX
8
CUT
10
182.379
20
82.057
30
0
0
VERTEX
8
CUT
10
180.330
20
82.906
30
0
0
VERTEX
8
CUT
10
178.363
20
83.930
30
0
0
VERTEX
8
CUT
10
176.492
20
85.122
30
0
0
VERTEX
8
CUT
10
174.732
20
86.472
30
0
0
VERTEX
8
CUT
10
173.097
20
87.971
30
0
0
VERTEX
8
CUT
10
171.598
20
89.606
30
0
0
VERTEX
8
CUT
10
170.248
20
91.366
30
0
0
VERTEX
8
CUT
10
169.056
20
93.236
30
0
0
VERTEX
8
CUT
10
168.032
20
95.204
30
0
0
VERTEX
8
CUT
10
167.183
20
97.253
30
0
0
VERTEX
8
CUT
10
166.516
20
99.368
30
0
0
VERTEX
8
CUT
10
166.036
20
101.534
30
0
0
VERTEX
8
CUT
10
165.747
20
103.733
30
0
0
VERTEX
8
CUT
10
165.650
20
105.949
30
0
0
VERTEX
8
CUT
10
165.747
20
108.165
30
0
0
VERTEX
8
CUT
10
166.036
20
110.364
30
0
0
VERTEX
8
CUT
10
166.516
20
112.529
30
0
0
VERTEX
8
CUT
10
167.183
20
114.645
30
0
0
VERTEX
8
CUT
10
168.032
20
116.694
30
0
0
VERTEX
8
CUT
10
169.056
20
118.661
30
0
0
VERTEX
8
CUT
10
170.248
20
120.532
30
0
0
VERTEX
8
CUT
10
171.598
20
122.292
30
0
0
VERTEX
8
CUT
10
173.097
20
123.927
30
0
0
VERTEX
8
CUT
10
174.732
20
125.425
30
0
0
VERTEX
8
CUT
10
176.492
20
126.776
30
0
0
VERTEX
8
CUT
10
178.363
20
127.967
30
0
0
VERTEX
8
CUT
10
180.330
20
128.992
30
0
0
VERTEX
8
CUT
10
182.379
20
129.840
30
0
0
VERTEX
8
CUT
10
184.495
20
130.507
30
0
0
VERTEX
8
CUT
10
186.660
20
130.988
30
0
0
VERTEX
8
CUT
10
188.859
20
131.277
30
0
0
SEQEND
8
CUT
0
POLYLINE
8
CUT
66
1
70
1
10
0
20
0
30
0
0
VERTEX
8
CUT
10
162.619
20
108.524
30
0
0
VERTEX
8
CUT
10
162.925
20
110.858
30
0
0
VERTEX
8
CUT
10
163.442
20
113.225
30
0
0
VERTEX
8
CUT
10
164.158
20
115.541
30
0
0
VERTEX
8
CUT
10
165.067
20
117.787
30
0
0
VERTEX
8
CUT
10
166.164
20
119.948
30
0
0
VERTEX
8
CUT
10
167.439
20
122.008
30
0
0
VERTEX
8
CUT
10
168.885
20
123.953
30
0
0
VERTEX
8
CUT
10
170.490
20
125.768
30
0
0
VERTEX
8
CUT
10
172.243
20
127.441
30
0
0
VERTEX
8
CUT
10
174.132
20
128.959
30
0
0
VERTEX
8
CUT
10
176.142
20
130.312
30
0
0
VERTEX
8
CUT
10
178.260
20
131.489
30
0
0
VERTEX
8
CUT
10
180.470
20
132.483
30
0
0
VERTEX
8
CUT
10
182.756
20
133.286
30
0
0
VERTEX
8
CUT
10
185.102
20
133.893
30
0
0
VERTEX
8
CUT
10
187.492
20
134.298
30
0
0
VERTEX
8
CUT
10
189.906
20
134.500
30
0
0
VERTEX
8
CUT
10
192.330
20
134.496
30
0
0
VERTEX
8
CUT
10
194.744
20
134.287
30
0
0
VERTEX
8
CUT
10
197.131
20
133.875
30
0
0
VERTEX
8
CUT
10
199.476
20
133.261
30
0
0
VERTEX
8
CUT
10
201.760
20
132.451
30
0
0
VERTEX
8
CUT
10
203.967
20
131.451
30
0
0
VERTEX
8
CUT
10
206.081
20
130.267
30
0
0
VERTEX
8
CUT
10
208.087
20
128.908
30
0
0
VERTEX
8
CUT
10
209.971
20
127.384
30
0
0
VERTEX
8
CUT
10
211.719
20
125.706
30
0
0
VERTEX
8
CUT
10
213.319
20
123.886
30
0
0
VERTEX
8
CUT
10
214.759
20
121.937
30
0
0
VERTEX
8
CUT
10
216.028
20
119.873
30
0
0
VERTEX
8
CUT
10
217.118
20
117.708
30
0
0
VERTEX
8
CUT
10
218.021
20
115.460
30
0
0
VERTEX
8
CUT
10
218.730
20
113.142
30
0
0
VERTEX
8
CUT
10
219.240
20
110.773
30
0
0
VERTEX
8
CUT
10
219.547
20
108.370
30
0
0
VERTEX
8
CUT
10
219.650
20
105.949
30
0
0
VERTEX
8
CUT
10
219.547
20
103.528
30
0
0
VERTEX
8
CUT
10
219.240
20
101.124
30
0
0
VERTEX
8
CUT
10
218.730
20
98.755
30
0
0
VERTEX
8
CUT
10
218.021
20
96.438
30
0
0
VERTEX
8
CUT
10
217.118
20
94.189
30
0
0
VERTEX
8
CUT
10
216.028
20
92.025
30
0
0
VERTEX
8
CUT
10
214.759
20
89.961
30
0
0
VERTEX
8
CUT
10
213.319
20
88.012
30
0
0
VERTEX
8
CUT
10
211.719
20
86.192
30
0
0
VERTEX
8
CUT
10
209.971
20
84.514
30
0
0
VERTEX
8
CUT
10
208.087
20
82.990
30
0
0
VERTEX
8
CUT
10
206.081
20
81.631
30
0
0
VERTEX
8
CUT
10
203.967
20
80.447
30
0
0
VERTEX
8
CUT
10
201.760
20
79.446
30
0
0
VERTEX
8
CUT
10
199.476
20
78.637
30
0
0
VERTEX
8
CUT
10
197.131
20
78.023
30
0
0
VERTEX
8
CUT
10
194.744
20
77.610
30
0
0
VERTEX
8
CUT
10
192.330
20
77.401
30
0
0
VERTEX
8
CUT
10
189.906
20
77.398
30
0
0
VERTEX
8
CUT
10
187.492
20
77.599
30
0
0
VERTEX
8
CUT
10
185.102
20
78.005
30
0
0
VERTEX
8
CUT
10
182.756
20
78.611
30
0
0
VERTEX
8
CUT
10
180.470
20
79.414
30
0
0
VERTEX
8
CUT
10
178.260
20
80.408
30
0
0
VERTEX
8
CUT
10
176.142
20
81.586
30
0
0
VERTEX
8
CUT
10
174.132
20
82.939
30
0
0
VERTEX
8
CUT
10
172.243
20
84.457
30
0
0
VERTEX
8
CUT
10
170.490
20
86.130
30
0
0
VERTEX
8
CUT
10
168.885
20
87.945
30
0
0
VERTEX
8
CUT
10
167.439
20
89.890
30
0
0
VERTEX
8
CUT
10
166.164
20
91.950
30
0
0
VERTEX
8
CUT
10
165.067
20
94.111
30
0
0
VERTEX
8
CUT
10
164.158
20
96.357
30
0
0
VERTEX
8
CUT
10
163.442
20
98.672
30
0
0
VERTEX
8
CUT
10
162.925
20
101.040
30
0
0
VERTEX
8
CUT
10
162.619
20
103.374
30
0
0
VERTEX
8
CUT
10
159.000
20
103.374
30
0
0
VERTEX
8
CUT
10
159.000
20
108.524
30
0
0
SEQEND
8
CUT
0
POLYLINE
8
CUT
66
1
70
1
10
0
20
0
30
0
0
VERTEX
8
CUT
10
443.476
20
90.425
30
0
0
VERTEX
8
CUT
10
443.379
20
88.209
30
0
0
VERTEX
8
CUT
10
443.090
20
86.010
30
0
0
VERTEX
8
CUT
10
442.610
20
83.845
30
0
0
VERTEX
8
CUT
10
441.943
20
81.729
30
0
0
VERTEX
8
CUT
10
441.094
20
79.680
30
0
0
VERTEX
8
CUT
10
440.070
20
77.713
30
0
0
VERTEX
8
CUT
10
438.878
20
75.842
30
0
0
VERTEX
8
CUT
10
437.528
20
74.082
30
0
0
VERTEX
8
CUT
10
436.029
20
72.447
30
0
0
VERTEX
8
CUT
10
434.394
20
70.948
30
0
0
VERTEX
8
CUT
10
432.634
20
69.598
30
0
0
VERTEX
8
CUT
10
430.764
20
68.406
30
0
0
VERTEX
8
CUT
10
428.796
20
67.382
30
0
0
VERTEX
8
CUT
10
426.747
20
66.533
30
0
0
VERTEX
8
CUT
10
424.632
20
65.866
30
0
0
VERTEX
8
CUT
10
422.466
20
65.386
30
0
0
VERTEX
8
CUT
10
420.267
20
65.097
30
0
0
VERTEX
8
CUT
10
418.051
20
65.000
30
0
0
VERTEX
8
CUT
10
415.835
20
65.097
30
0
0
VERTEX
8
CUT
10
413.636
20
65.386
30
0
0
VERTEX
8
CUT
10
411.471
20
65.866
30
0
0
VERTEX
8
CUT
10
409.355
20
66.533
30
0
0
VERTEX
8
CUT
10
407.306
20
67.382
30
0
0
VERTEX
8
CUT
10
405.339
20
68.406
30
0
0
VERTEX
8
CUT
10
403.468
20
69.598
30
0
0
VERTEX
8
CUT
10
401.708
20
70.948
30
0
0
VERTEX
8
CUT
10
400.073
20
72.447
30
0
0
VERTEX
8
CUT
10
398.575
20
74.082
30
0
0
VERTEX
8
CUT
10
397.224
20
75.842
30
0
0
VERTEX
8
CUT
10
396.033
20
77.713
30
0
0
VERTEX
8
CUT
10
395.008
20
79.680
30
0
0
VERTEX
8
CUT
10
394.160
20
81.729
30
0
0
VERTEX
8
CUT
10
393.493
20
83.845
30
0
0
VERTEX
8
CUT
10
393.012
20
86.010
30
0
0
VERTEX
8
CUT
10
392.723
20
88.209
30
0
0
VERTEX
8
CUT
10
392.626
20
90.425
30
0
0
VERTEX
8
CUT
10
392.723
20
92.641
30
0
0
VERTEX
8
CUT
10
393.012
20
94.840
30
0
0
VERTEX
8
CUT
10
393.493
20
97.005
30
0
0
VERTEX
8
CUT
10
394.160
20
99.121
30
0
0
VERTEX
8
CUT
10
395.008
20
101.170
30
0
0
VERTEX
8
CUT
10
396.033
20
103.137
30
0
0
VERTEX
8
CUT
10
397.224
20
105.008
30
0
0
VERTEX
8
CUT
10
398.575
20
106.768
30
0
0
VERTEX
8
CUT
10
400.073
20
108.403
30
0
0
VERTEX
8
CUT
10
401.708
20
109.902
30
0
0
VERTEX
8
CUT
10
403.468
20
111.252
30
0
0
VERTEX
8
CUT
10
405.339
20
112.444
30
0
0
VERTEX
8
CUT
10
407.306
20
113.468
30
0
0
VERTEX
8
CUT
10
409.355
20
114.317
30
0
0
VERTEX
8
CUT
10
411.471
20
114.984
30
0
0
VERTEX
8
CUT
10
413.636
20
115.464
30
0
0
VERTEX
8
CUT
10
415.835
20
115.753
30
0
0
VERTEX
8
CUT
10
418.051
20
115.850
30
0
0
VERTEX
8
CUT
10
420.267
20
115.753
30
0
0
VERTEX
8
CUT
10
422.466
20
115.464
30
0
0
VERTEX
8
CUT
10
424.632
20
114.984
30
0
0
VERTEX
8
CUT
10
426.747
20
114.317
30
0
0
VERTEX
8
CUT
10
428.796
20
113.468
30
0
0
VERTEX
8
CUT
10
430.764
20
112.444
30
0
0
VERTEX
8
CUT
10
432.634
20
111.252
30
0
0
VERTEX
8
CUT
10
434.394
20
109.902
30
0
0
VERTEX
8
CUT
10
436.029
20
108.403
30
0
0
VERTEX
8
CUT
10
437.528
20
106.768
30
0
0
VERTEX
8
CUT
10
438.878
20
105.008
30
0
0
VERTEX
8
CUT
10
440.070
20
103.137
30
0
0
VERTEX
8
CUT
10
441.094
20
101.170
30
0
0
VERTEX
8
CUT
10
441.943
20
99.121
30
0
0
VERTEX
8
CUT
10
442.610
20
97.005
30
0
0
VERTEX
8
CUT
10
443.090
20
94.840
30
0
0
VERTEX
8
CUT
10
443.379
20
92.641
30
0
0
SEQEND
8
CUT
0
POLYLINE
8
CUT
66
1
70
1
10
0
20
0
30
0
0
VERTEX
8
CUT
10
420.626
20
118.881
30
0
0
VERTEX
8
CUT
10
422.960
20
118.575
30
0
0
VERTEX
8
CUT
10
425.328
20
118.058
30
0
0
VERTEX
8
CUT
10
427.643
20
117.342
30
0
0
VERTEX
8
CUT
10
429.889
20
116.433
30
0
0
VERTEX
8
CUT
10
432.050
20
115.336
30
0
0
VERTEX
8
CUT
10
434.110
20
114.061
30
0
0
VERTEX
8
CUT
10
436.055
20
112.615
30
0
0
VERTEX
8
CUT
10
437.870
20
111.010
30
0
0
VERTEX
8
CUT
10
439.543
20
109.257
30
0
0
VERTEX
8
CUT
10
441.061
20
107.368
30
0
0
VERTEX
8
CUT
10
442.414
20
105.358
30
0
0
VERTEX
8
CUT
10
443.592
20
103.240
30
0
0
VERTEX
8
CUT
10
444.586
20
101.030
30
0
0
VERTEX
8
CUT
10
445.389
20
98.744
30
0
0
VERTEX
8
CUT
10
445.995
20
96.398
30
0
0
VERTEX
8
CUT
10
446.401
20
94.008
30
0
0
VERTEX
8
CUT
10
446.602
20
91.594
30
0
0
VERTEX
8
CUT
10
446.599
20
89.170
30
0
0
VERTEX
8
CUT
10
446.390
20
86.756
30
0
0
VERTEX
8
CUT
10
445.977
20
84.369
30
0
0
VERTEX
8
CUT
10
445.363
20
82.024
30
0
0
VERTEX
8
CUT
10
444.554
20
79.740
30
0
0
VERTEX
8
CUT
10
443.553
20
77.533
30
0
0
VERTEX
8
CUT
10
442.369
20
75.419
30
0
0
VERTEX
8
CUT
10
441.010
20
73.413
30
0
0
VERTEX
8
CUT
10
439.486
20
71.529
30
0
0
VERTEX
8
CUT
10
437.808
20
69.781
30
0
0
VERTEX
8
CUT
10
435.988
20
68.181
30
0
0
VERTEX
8
CUT
10
434.039
20
66.741
30
0
0
VERTEX
8
CUT
10
431.975
20
65.472
30
0
0
VERTEX
8
CUT
10
429.811
20
64.382
30
0
0
VERTEX
8
CUT
10
427.562
20
63.479
30
0
0
VERTEX
8
CUT
10
425.245
20
62.770
30
0
0
VERTEX
8
CUT
10
422.876
20
62.260
30
0
0
VERTEX
8
CUT
10
420.472
20
61.953
30
0
0
VERTEX
8
CUT
10
418.051
20
61.850
30
0
0
VERTEX
8
CUT
10
415.630
20
61.953
30
0
0
VERTEX
8
CUT
10
413.227
20
62.260
30
0
0
VERTEX
8
CUT
10
410.858
20
62.770
30
0
0
VERTEX
8
CUT
10
408.540
20
63.479
30
0
0
VERTEX
8
CUT
10
406.292
20
64.382
30
0
0
VERTEX
8
CUT
10
404.127
20
65.472
30
0
0
VERTEX
8
CUT
10
402.063
20
66.741
30
0
0
VERTEX
8
CUT
10
400.114
20
68.181
30
0
0
VERTEX
8
CUT
10
398.294
20
69.781
30
0
0
VERTEX
8
CUT
10
396.616
20
71.529
30
0
0
VERTEX
8
CUT
10
395.092
20
73.413
30
0
0
VERTEX
8
CUT
10
393.733
20
75.419
30
0
0
VERTEX
8
CUT
10
392.549
20
77.533
30
0
0
VERTEX
8
CUT
10
391.549
20
79.740
30
0
0
VERTEX
8
CUT
10
390.739
20
82.024
30
0
0
VERTEX
8
CUT
10
390.125
20
84.369
30
0
0
VERTEX
8
CUT
10
389.713
20
86.756
30
0
0
VERTEX
8
CUT
10
389.504
20
89.170
30
0
0
VERTEX
8
CUT
10
389.500
20
91.594
30
0
0
VERTEX
8
CUT
10
389.702
20
94.008
30
0
0
VERTEX
8
CUT
10
390.107
20
96.398
30
0
0
VERTEX
8
CUT
10
390.714
20
98.744
30
0
0
VERTEX
8
CUT
10
391.517
20
101.030
30
0
0
VERTEX
8
CUT
10
392.511
20
103.240
30
0
0
VERTEX
8
CUT
10
393.688
20
105.358
30
0
0
VERTEX
8
CUT
10
395.041
20
107.368
30
0
0
VERTEX
8
CUT
10
396.559
20
109.257
30
0
0
VERTEX
8
CUT
10
398.232
20
111.010
30
0
0
VERTEX
8
CUT
10
400.047
20
112.615
30
0
0
VERTEX
8
CUT
10
401.992
20
114.061
30
0
0
VERTEX
8
CUT
10
404.052
20
115.336
30
0
0
VERTEX
8
CUT
10
406.213
20
116.433
30
0
0
VERTEX
8
CUT
10
408.459
20
117.342
30
0
0
VERTEX
8
CUT
10
410.775
20
118.058
30
0
0
VERTEX
8
CUT
10
413.142
20
118.575
30
0
0
VERTEX
8
CUT
10
415.476
20
118.881
30
0
0
VERTEX
8
CUT
10
415.476
20
122.500
30
0
0
VERTEX
8
CUT
10
420.626
20
122.500
30
0
0
SEQEND
8
CUT
0
POLYLINE
8
CUT
66
1
70
1
10
0
20
0
30
0
0
VERTEX
8
CUT
10
245.575
20
106.374
30
0
0
VERTEX
8
CUT
10
247.791
20
106.277
30
0
0
VERTEX
8
CUT
10
249.990
20
105.988
30
0
0
VERTEX
8
CUT
10
252.155
20
105.507
30
0
0
VERTEX
8
CUT
10
254.271
20
104.840
30
0
0
VERTEX
8
CUT
10
256.320
20
103.992
30
0
0
VERTEX
8
CUT
10
258.287
20
102.967
30
0
0
VERTEX
8
CUT
10
260.158
20
101.776
30
0
0
VERTEX
8
CUT
10
261.918
20
100.425
30
0
0
VERTEX
8
CUT
10
263.553
20
98.927
30
0
0
VERTEX
8
CUT
10
265.052
20
97.292
30
0
0
VERTEX
8
CUT
10
266.402
20
95.532
30
0
0
VERTEX
8
CUT
10
267.594
20
93.661
30
0
0
VERTEX
8
CUT
10
268.618
20
91.694
30
0
0
VERTEX
8
CUT
10
269.467
20
89.645
30
0
0
VERTEX
8
CUT
10
270.134
20
87.529
30
0
0
VERTEX
8
CUT
10
270.614
20
85.364
30
0
0
VERTEX
8
CUT
10
270.903
20
83.165
30
0
0
VERTEX
8
CUT
10
271.000
20
80.949
30
0
0
VERTEX
8
CUT
10
270.903
20
78.733
30
0
0
VERTEX
8
CUT
10
270.614
20
76.534
30
0
0
VERTEX
8
CUT
10
270.134
20
74.368
30
0
0
VERTEX
8
CUT
10
269.467
20
72.253
30
0
0
VERTEX
8
CUT
10
268.618
20
70.204
30
0
0
VERTEX
8
CUT
10
267.594
20
68.236
30
0
0
VERTEX
8
CUT
10
266.402
20
66.366
30
0
0
VERTEX
8
CUT
10
265.052
20
64.606
30
0
0
VERTEX
8
CUT
10
263.553
20
62.971
30
0
0
VERTEX
8
CUT
10
261.918
20
61.472
30
0
0
VERTEX
8
CUT
10
260.158
20
60.122
30
0
0
VERTEX
8
CUT
10
258.287
20
58.930
30
0
0
VERTEX
8
CUT
10
256.320
20
57.906
30
0
0
VERTEX
8
CUT
10
254.271
20
57.057
30
0
0
VERTEX
8
CUT
10
252.155
20
56.390
30
0
0
VERTEX
8
CUT
10
249.990
20
55.910
30
0
0
VERTEX
8
CUT
10
247.791
20
55.621
30
0
0
VERTEX
8
CUT
10
245.575
20
55.524
30
0
0
VERTEX
8
CUT
10
243.359
20
55.621
30
0
0
VERTEX
8
CUT
10
241.160
20
55.910
30
0
0
VERTEX
8
CUT
10
238.995
20
56.390
30
0
0
VERTEX
8
CUT
10
236.879
20
57.057
30
0
0
VERTEX
8
CUT
10
234.830
20
57.906
30
0
0
VERTEX
8
CUT
10
232.863
20
58.930
30
0
0
VERTEX
8
CUT
10
230.992
20
60.122
30
0
0
VERTEX
8
CUT
10
229.232
20
61.472
30
0
0
VERTEX
8
CUT
10
227.597
20
62.971
30
0
0
VERTEX
8
CUT
10
226.098
20
64.606
30
0
0
VERTEX
8
CUT
10
224.748
20
66.366
30
0
0
VERTEX
8
CUT
10
223.556
20
68.236
30
0
0
VERTEX
8
CUT
10
222.532
20
70.204
30
0
0
VERTEX
8
CUT
10
221.683
20
72.253
30
0
0
VERTEX
8
CUT
10
221.016
20
74.368
30
0
0
VERTEX
8
CUT
10
220.536
20
76.534
30
0
0
VERTEX
8
CUT
10
220.247
20
78.733
30
0
0
VERTEX
8
CUT
10
220.150
20
80.949
30
0
0
VERTEX
8
CUT
10
220.247
20
83.165
30
0
0
VERTEX
8
CUT
10
220.536
20
85.364
30
0
0
VERTEX
8
CUT
10
221.016
20
87.529
30
0
0
VERTEX
8
CUT
10
221.683
20
89.645
30
0
0
VERTEX
8
CUT
10
222.532
20
91.694
30
0
0
VERTEX
8
CUT
10
223.556
20
93.661
30
0
0
VERTEX
8
CUT
10
224.748
20
95.532
30
0
0
VERTEX
8
CUT
10
226.098
20
97.292
30
0
0
VERTEX
8
CUT
10
227.597
20
98.927
30
0
0
VERTEX
8
CUT
10
229.232
20
100.425
30
0
0
VERTEX
8
CUT
10
230.992
20
101.776
30
0
0
VERTEX
8
CUT
10
232.863
20
102.967
30
0
0
VERTEX
8
CUT
10
234.830
20
103.992
30
0
0
VERTEX
8
CUT
10
236.879
20
104.840
30
0
0
VERTEX
8
CUT
10
238.995
20
105.507
30
0
0
VERTEX
8
CUT
10
241.160
20
105.988
30
0
0
VERTEX
8
CUT
10
243.359
20
106.277
30
0
0
SEQEND
8
CUT
0
POLYLINE
8
CUT
66
1
70
1
10
0
20
0
30
0
0
VERTEX
8
CUT
10
217.119
20
83.524
30
0
0
VERTEX
8
CUT
10
217.425
20
85.858
30
0
0
VERTEX
8
CUT
10
217.942
20
88.225
30
0
0
VERTEX
8
CUT
10
218.658
20
90.541
30
0
0
VERTEX
8
CUT
10
219.567
20
92.787
30
0
0
VERTEX
8
CUT
10
220.664
20
94.948
30
0
0
VERTEX
8
CUT
10
221.939
20
97.008
30
0
0
VERTEX
8
CUT
10
223.385
20
98.953
30
0
0
VERTEX
8
CUT
10
224.990
20
100.768
30
0
0
VERTEX
8
CUT
10
226.743
20
102.441
30
0
0
VERTEX
8
CUT
10
228.632
20
103.959
30
0
0
VERTEX
8
CUT
10
230.642
20
105.312
30
0
0
VERTEX
8
CUT
10
232.760
20
106.489
30
0
0
VERTEX
8
CUT
10
234.970
20
107.483
30
0
0
VERTEX
8
CUT
10
237.256
20
108.286
30
0
0
VERTEX
8
CUT
10
239.602
20
108.893
30
0
0
VERTEX
8
CUT
10
241.992
20
109.298
30
0
0
VERTEX
8
CUT
10
244.406
20
109.500
30
0
0
VERTEX
8
CUT
10
246.830
20
109.496
30
0
0
VERTEX
8
CUT
10
249.244
20
109.287
30
0
0
VERTEX
8
CUT
10
251.631
20
108.875
30
0
0
VERTEX
8
CUT
10
253.976
20
108.261
30
0
0
VERTEX
8
CUT
10
256.260
20
107.451
30
0
0
VERTEX
8
CUT
10
258.467
20
106.451
30
0
0
VERTEX
8
CUT
10
260.581
20
105.267
30
0
0
VERTEX
8
CUT
10
262.587
20
103.908
30
0
0
VERTEX
8
CUT
10
264.471
20
102.384
30
0
0
VERTEX
8
CUT
10
266.219
20
100.706
30
0
0
VERTEX
8
CUT
10
267.819
20
98.886
30
0
0
VERTEX
8
CUT
10
269.259
20
96.937
30
0
0
VERTEX
8
CUT
10
270.528
20
94.873
30
0
0
VERTEX
8
CUT
10
271.618
20
92.708
30
0
0
VERTEX
8
CUT
10
272.521
20
90.460
30
0
0
VERTEX
8
CUT
10
273.230
20
88.142
30
0
0
VERTEX
8
CUT
10
273.740
20
85.773
30
0
0
VERTEX
8
CUT
10
274.047
20
83.370
30
0
0
VERTEX
8
CUT
10
274.150
20
80.949
30
0
0
VERTEX
8
CUT
10
274.047
20
78.528
30
0
0
VERTEX
8
CUT
10
273.740
20
76.124
30
0
0
VERTEX
8
CUT
10
273.230
20
73.755
30
0
0
VERTEX
8
CUT
10
272.521
20
71.438
30
0
0
VERTEX
8
CUT
10
271.618
20
69.189
30
0
0
VERTEX
8
CUT
10
270.528
20
67.025
30
0
0
VERTEX
8
CUT
10
269.259
20
64.961
30
0
0
VERTEX
8
CUT
10
267.819
20
63.012
30
0
0
VERTEX
8
CUT
10
266.219
20
61.192
30
0
0
VERTEX
8
CUT
10
264.471
20
59.514
30
0
0
VERTEX
8
CUT
10
262.587
20
57.990
30
0
0
VERTEX
8
CUT
10
260.581
20
56.631
30
0
0
VERTEX
8
CUT
10
258.467
20
55.447
30
0
0
VERTEX
8
CUT
10
256.260
20
54.446
30
0
0
VERTEX
8
CUT
10
253.976
20
53.637
30
0
0
VERTEX
8
CUT
10
251.631
20
53.023
30
0
0
VERTEX
8
CUT
10
249.244
20
52.610
30
0
0
VERTEX
8
CUT
10
246.830
20
52.401
30
0
0
VERTEX
8
CUT
10
244.406
20
52.398
30
0
0
VERTEX
8
CUT
10
241.992
20
52.599
30
0
0
VERTEX
8
CUT
10
239.602
20
53.005
30
0
0
VERTEX
8
CUT
10
237.256
20
53.611
30
0
0
VERTEX
8
CUT
10
234.970
20
54.414
30
0
0
VERTEX
8
CUT
10
232.760
20
55.408
30
0
0
VERTEX
8
CUT
10
230.642
20
56.586
30
0
0
VERTEX
8
CUT
10
228.632
20
57.939
30
0
0
VERTEX
8
CUT
10
226.743
20
59.457
30
0
0
VERTEX
8
CUT
10
224.990
20
61.130
30
0
0
VERTEX
8
CUT
10
223.385
20
62.945
30
0
0
VERTEX
8
CUT
10
221.939
20
64.890
30
0
0
VERTEX
8
CUT
10
220.664
20
66.950
30
0
0
VERTEX
8
CUT
10
219.567
20
69.111
30
0
0
VERTEX
8
CUT
10
218.658
20
71.357
30
0
0
VERTEX
8
CUT
10
217.942
20
73.672
30
0
0
VERTEX
8
CUT
10
217.425
20
76.040
30
0
0
VERTEX
8
CUT
10
217.119
20
78.374
30
0
0
VERTEX
8
CUT
10
213.500
20
78.374
30
0
0
VERTEX
8
CUT
10
213.500
20
83.524
30
0
0
SEQEND
8
CUT
0
POLYLINE
8
CUT
66
1
70
1
10
0
20
0
30
0
0
VERTEX
8
CUT
10
313.650
20
79.925
30
0
0
VERTEX
8
CUT
10
313.747
20
82.141
30
0
0
VERTEX
8
CUT
10
314.036
20
84.340
30
0
0
VERTEX
8
CUT
10
314.516
20
86.505
30
0
0
VERTEX
8
CUT
10
315.183
20
88.621
30
0
0
VERTEX
8
CUT
10
316.032
20
90.670
30
0
0
VERTEX
8
CUT
10
317.056
20
92.637
30
0
0
VERTEX
8
CUT
10
318.248
20
94.508
30
0
0
VERTEX
8
CUT
10
319.598
20
96.268
30
0
0
VERTEX
8
CUT
10
321.097
20
97.903
30
0
0
VERTEX
8
CUT
10
322.732
20
99.402
30
0
0
VERTEX
8
CUT
10
324.492
20
100.752
30
0
0
VERTEX
8
CUT
10
326.363
20
101.944
30
0
0
VERTEX
8
CUT
10
328.330
20
102.968
30
0
0
VERTEX
8
CUT
10
330.379
20
103.817
30
0
0
VERTEX
8
CUT
10
332.495
20
104.484
30
0
0
VERTEX
8
CUT
10
334.660
20
104.964
30
0
0
VERTEX
8
CUT
10
336.859
20
105.253
30
0
0
VERTEX
8
CUT
10
339.075
20
105.350
30
0
0
VERTEX
8
CUT
10
341.291
20
105.253
30
0
0
VERTEX
8
CUT
10
343.490
20
104.964
30
0
0
VERTEX
8
CUT
10
345.656
20
104.484
30
0
0
VERTEX
8
CUT
10
347.771
20
103.817
30
0
0
VERTEX
8
CUT
10
349.820
20
102.968
30
0
0
VERTEX
8
CUT
10
351.788
20
101.944
30
0
0
VERTEX
8
CUT
10
353.658
20
100.752
30
0
0
VERTEX
8
CUT
10
355.418
20
99.402
30
0
0
VERTEX
8
CUT
10
357.053
20
97.903
30
0
0
VERTEX
8
CUT
10
358.552
20
96.268
30
0
0
VERTEX
8
CUT
10
359.902
20
94.508
30
0
0
VERTEX
8
CUT
10
361.094
20
92.637
30
0
0
VERTEX
8
CUT
10
362.118
20
90.670
30
0
0
VERTEX
8
CUT
10
362.967
20
88.621
30
0
0
VERTEX
8
CUT
10
363.634
20
86.505
30
0
0
VERTEX
8
CUT
10
364.114
20
84.340
30
0
0
VERTEX
8
CUT
10
364.403
20
82.141
30
0
0
VERTEX
8
CUT
10
364.500
20
79.925
30
0
0
VERTEX
8
CUT
10
364.403
20
77.709
30
0
0
VERTEX
8
CUT
10
364.114
20
75.510
30
0
0
VERTEX
8
CUT
10
363.634
20
73.344
30
0
0
VERTEX
8
CUT
10
362.967
20
71.229
30
0
0
VERTEX
8
CUT
10
362.118
20
69.180
30
0
0
VERTEX
8
CUT
10
361.094
20
67.212
30
0
0
VERTEX
8
CUT
10
359.902
20
65.342
30
0
0
VERTEX
8
CUT
10
358.552
20
63.582
30
0
0
VERTEX
8
CUT
10
357.053
20
61.947
30
0
0
VERTEX
8
CUT
10
355.418
20
60.448
30
0
0
VERTEX
8
CUT
10
353.658
20
59.098
30
0
0
VERTEX
8
CUT
10
351.788
20
57.906
30
0
0
VERTEX
8
CUT
10
349.820
20
56.882
30
0
0
VERTEX
8
CUT
10
347.771
20
56.033
30
0
0
VERTEX
8
CUT
10
345.656
20
55.366
30
0
0
VERTEX
8
CUT
10
343.490
20
54.886
30
0
0
VERTEX
8
CUT
10
341.291
20
54.597
30
0
0
VERTEX
8
CUT
10
339.075
20
54.500
30
0
0
VERTEX
8
CUT
10
336.859
20
54.597
30
0
0
VERTEX
8
CUT
10
334.660
20
54.886
30
0
0
VERTEX
8
CUT
10
332.495
20
55.366
30
0
0
VERTEX
8
CUT
10
330.379
20
56.033
30
0
0
VERTEX
8
CUT
10
328.330
20
56.882
30
0
0
VERTEX
8
CUT
10
326.363
20
57.906
30
0
0
VERTEX
8
CUT
10
324.492
20
59.098
30
0
0
VERTEX
8
CUT
10
322.732
20
60.448
30
0
0
VERTEX
8
CUT
10
321.097
20
61.947
30
0
0
VERTEX
8
CUT
10
319.598
20
63.582
30
0
0
VERTEX
8
CUT
10
318.248
20
65.342
30
0
0
VERTEX
8
CUT
10
317.056
20
67.212
30
0
0
VERTEX
8
CUT
10
316.032
20
69.180
30
0
0
VERTEX
8
CUT
10
315.183
20
71.229
30
0
0
VERTEX
8
CUT
10
314.516
20
73.344
30
0
0
VERTEX
8
CUT
10
314.036
20
75.510
30
0
0
VERTEX
8
CUT
10
313.747
20
77.709
30
0
0
SEQEND
8
CUT
0
POLYLINE
8
CUT
66
1
70
1
10
0
20
0
30
0
0
VERTEX
8
CUT
10
310.500
20
79.925
30
0
0
VERTEX
8
CUT
10
310.609
20
82.415
30
0
0
VERTEX
8
CUT
10
310.934
20
84.887
30
0
0
VERTEX
8
CUT
10
311.474
20
87.321
30
0
0
VERTEX
8
CUT
10
312.223
20
89.698
30
0
0
VERTEX
8
CUT
10
313.177
20
92.001
30
0
0
VERTEX
8
CUT
10
314.328
20
94.212
30
0
0
VERTEX
8
CUT
10
315.668
20
96.315
30
0
0
VERTEX
8
CUT
10
317.185
20
98.293
30
0
0
VERTEX
8
CUT
10
318.869
20
100.131
30
0
0
VERTEX
8
CUT
10
320.707
20
101.815
30
0
0
VERTEX
8
CUT
10
322.685
20
103.332
30
0
0
VERTEX
8
CUT
10
324.788
20
104.672
30
0
0
VERTEX
8
CUT
10
326.999
20
105.823
30
0
0
VERTEX
8
CUT
10
329.302
20
106.777
30
0
0
VERTEX
8
CUT
10
331.679
20
107.526
30
0
0
VERTEX
8
CUT
10
334.113
20
108.066
30
0
0
VERTEX
8
CUT
10
336.585
20
108.391
30
0
0
VERTEX
8
CUT
10
339.075
20
108.500
30
0
0
VERTEX
8
CUT
10
341.566
20
108.391
30
0
0
VERTEX
8
CUT
10
344.037
20
108.066
30
0
0
VERTEX
8
CUT
10
346.471
20
107.526
30
0
0
VERTEX
8
CUT
10
348.848
20
106.777
30
0
0
VERTEX
8
CUT
10
351.151
20
105.823
30
0
0
VERTEX
8
CUT
10
353.363
20
104.672
30
0
0
VERTEX
8
CUT
10
355.465
20
103.332
30
0
0
VERTEX
8
CUT
10
357.443
20
101.815
30
0
0
VERTEX
8
CUT
10
359.281
20
100.131
30
0
0
VERTEX
8
CUT
10
360.965
20
98.293
30
0
0
VERTEX
8
CUT
10
362.482
20
96.315
30
0
0
VERTEX
8
CUT
10
363.822
20
94.212
30
0
0
VERTEX
8
CUT
10
364.973
20
92.001
30
0
0
VERTEX
8
CUT
10
365.927
20
89.698
30
0
0
VERTEX
8
CUT
10
366.676
20
87.321
30
0
0
VERTEX
8
CUT
10
367.216
20
84.887
30
0
0
VERTEX
8
CUT
10
367.541
20
82.415
30
0
0
VERTEX
8
CUT
10
367.650
20
79.925
30
0
0
VERTEX
8
CUT
10
367.541
20
77.434
30
0
0
VERTEX
8
CUT
10
367.216
20
74.963
30
0
0
VERTEX
8
CUT
10
366.676
20
72.529
30
0
0
VERTEX
8
CUT
10
365.927
20
70.152
30
0
0
VERTEX
8
CUT
10
364.973
20
67.849
30
0
0
VERTEX
8
CUT
10
363.822
20
65.637
30
0
0
VERTEX
8
CUT
10
362.482
20
63.535
30
0
0
VERTEX
8
CUT
10
360.965
20
61.557
30
0
0
VERTEX
8
CUT
10
359.281
20
59.719
30
0
0
VERTEX
8
CUT
10
357.443
20
58.035
30
0
0
VERTEX
8
CUT
10
355.465
20
56.518
30
0
0
VERTEX
8
CUT
10
353.363
20
55.178
30
0
0
VERTEX
8
CUT
10
351.151
20
54.027
30
0
0
VERTEX
8
CUT
10
348.848
20
53.073
30
0
0
VERTEX
8
CUT
10
346.471
20
52.324
30
0
0
VERTEX
8
CUT
10
344.037
20
51.784
30
0
0
VERTEX
8
CUT
10
341.566
20
51.459
30
0
0
VERTEX
8
CUT
10
339.075
20
51.350
30
0
0
VERTEX
8
CUT
10
336.585
20
51.459
30
0
0
VERTEX
8
CUT
10
334.113
20
51.784
30
0
0
VERTEX
8
CUT
10
331.679
20
52.324
30
0
0
VERTEX
8
CUT
10
329.302
20
53.073
30
0
0
VERTEX
8
CUT
10
326.999
20
54.027
30
0
0
VERTEX
8
CUT
10
324.788
20
55.178
30
0
0
VERTEX
8
CUT
10
322.685
20
56.518
30
0
0
VERTEX
8
CUT
10
320.707
20
58.035
30
0
0
VERTEX
8
CUT
10
318.869
20
59.719
30
0
0
VERTEX
8
CUT
10
317.185
20
61.557
30
0
0
VERTEX
8
CUT
10
315.668
20
63.535
30
0
0
VERTEX
8
CUT
10
314.328
20
65.637
30
0
0
VERTEX
8
CUT
10
313.177
20
67.849
30
0
0
VERTEX
8
CUT
10
312.223
20
70.152
30
0
0
VERTEX
8
CUT
10
311.474
20
72.529
30
0
0
VERTEX
8
CUT
10
310.934
20
74.963
30
0
0
VERTEX
8
CUT
10
310.609
20
77.434
30
0
0
SEQEND
8
CUT
0
POLYLINE
8
CUT
66
1
70
1
10
0
20
0
30
0
0
VERTEX
8
CUT
10
28.650
20
59.425
30
0
0
VERTEX
8
CUT
10
28.747
20
61.641
30
0
0
VERTEX
8
CUT
10
29.036
20
63.840
30
0
0
VERTEX
8
CUT
10
29.516
20
66.005
30
0
0
VERTEX
8
CUT
10
30.183
20
68.121
30
0
0
VERTEX
8
CUT
10
31.032
20
70.170
30
0
0
VERTEX
8
CUT
10
32.056
20
72.137
30
0
0
VERTEX
8
CUT
10
33.248
20
74.008
30
0
0
VERTEX
8
CUT
10
34.598
20
75.768
30
0
0
VERTEX
8
CUT
10
36.097
20
77.403
30
0
0
VERTEX
8
CUT
10
37.732
20
78.902
30
0
0
VERTEX
8
CUT
10
39.492
20
80.252
30
0
0
VERTEX
8
CUT
10
41.363
20
81.444
30
0
0
VERTEX
8
CUT
10
43.330
20
82.468
30
0
0
VERTEX
8
CUT
10
45.379
20
83.317
30
0
0
VERTEX
8
CUT
10
47.495
20
83.984
30
0
0
VERTEX
8
CUT
10
49.660
20
84.464
30
0
0
VERTEX
8
CUT
10
51.859
20
84.753
30
0
0
VERTEX
8
CUT
10
54.075
20
84.850
30
0
0
VERTEX
8
CUT
10
56.291
20
84.753
30
0
0
VERTEX
8
CUT
10
58.490
20
84.464
30
0
0
VERTEX
8
CUT
10
60.656
20
83.984
30
0
0
VERTEX
8
CUT
10
62.771
20
83.317
30
0
0
VERTEX
8
CUT
10
64.820
20
82.468
30
0
0
VERTEX
8
CUT
10
66.788
20
81.444
30
0
0
VERTEX
8
CUT
10
68.658
20
80.252
30
0
0
VERTEX
8
CUT
10
70.418
20
78.902
30
0
0
VERTEX
8
CUT
10
72.053
20
77.403
30
0
0
VERTEX
8
CUT
10
73.552
20
75.768
30
0
0
VERTEX
8
CUT
10
74.902
20
74.008
30
0
0
VERTEX
8
CUT
10
76.094
20
72.137
30
0
0
VERTEX
8
CUT
10
77.118
20
70.170
30
0
0
VERTEX
8
CUT
10
77.967
20
68.121
30
0
0
VERTEX
8
CUT
10
78.634
20
66.005
30
0
0
VERTEX
8
CUT
10
79.114
20
63.840
30
0
0
VERTEX
8
CUT
10
79.403
20
61.641
30
0
0
VERTEX
8
CUT
10
79.500
20
59.425
30
0
0
VERTEX
8
CUT
10
79.403
20
57.209
30
0
0
VERTEX
8
CUT
10
79.114
20
55.010
30
0
0
VERTEX
8
CUT
10
78.634
20
52.844
30
0
0
VERTEX
8
CUT
10
77.967
20
50.729
30
0
0
VERTEX
8
CUT
10
77.118
20
48.680
30
0
0
VERTEX
8
CUT
10
76.094
20
46.712
30
0
0
VERTEX
8
CUT
10
74.902
20
44.842
30
0
0
VERTEX
8
CUT
10
73.552
20
43.082
30
0
0
VERTEX
8
CUT
10
72.053
20
41.447
30
0
0
VERTEX
8
CUT
10
70.418
20
39.948
30
0
0
VERTEX
8
CUT
10
68.658
20
38.598
30
0
0
VERTEX
8
CUT
10
66.788
20
37.406
30
0
0
VERTEX
8
CUT
10
64.820
20
36.382
30
0
0
VERTEX
8
CUT
10
62.771
20
35.533
30
0
0
VERTEX
8
CUT
10
60.656
20
34.866
30
0
0
VERTEX
8
CUT
10
58.490
20
34.386
30
0
0
VERTEX
8
CUT
10
56.291
20
34.097
30
0
0
VERTEX
8
CUT
10
54.075
20
34.000
30
0
0
VERTEX
8
CUT
10
51.859
20
34.097
30
0
0
VERTEX
8
CUT
10
49.660
20
34.386
30
0
0
VERTEX
8
CUT
10
47.495
20
34.866
30
0
0
VERTEX
8
CUT
10
45.379
20
35.533
30
0
0
VERTEX
8
CUT
10
43.330
20
36.382
30
0
0
VERTEX
8
CUT
10
41.363
20
37.406
30
0
0
VERTEX
8
CUT
10
39.492
20
38.598
30
0
0
VERTEX
8
CUT
10
37.732
20
39.948
30
0
0
VERTEX
8
CUT
10
36.097
20
41.447
30
0
0
VERTEX
8
CUT
10
34.598
20
43.082
30
0
0
VERTEX
8
CUT
10
33.248
20
44.842
30
0
0
VERTEX
8
CUT
10
32.056
20
46.712
30
0
0
VERTEX
8
CUT
10
31.032
20
48.680
30
0
0
VERTEX
8
CUT
10
30.183
20
50.729
30
0
0
VERTEX
8
CUT
10
29.516
20
52.844
30
0
0
VERTEX
8
CUT
10
29.036
20
55.010
30
0
0
VERTEX
8
CUT
10
28.747
20
57.209
30
0
0
SEQEND
8
CUT
0
POLYLINE
8
CUT
66
1
70
1
10
0
20
0
30
0
0
VERTEX
8
CUT
10
25.500
20
59.425
30
0
0
VERTEX
8
CUT
10
25.609
20
61.915
30
0
0
VERTEX
8
CUT
10
25.934
20
64.387
30
0
0
VERTEX
8
CUT
10
26.474
20
66.821
30
0
0
VERTEX
8
CUT
10
27.223
20
69.198
30
0
0
VERTEX
8
CUT
10
28.177
20
71.501
30
0
0
VERTEX
8
CUT
10
29.328
20
73.712
30
0
0
VERTEX
8
CUT
10
30.668
20
75.815
30
0
0
VERTEX
8
CUT
10
32.185
20
77.793
30
0
0
VERTEX
8
CUT
10
33.869
20
79.631
30
0
0
VERTEX
8
CUT
10
35.707
20
81.315
30
0
0
VERTEX
8
CUT
10
37.685
20
82.832
30
0
0
VERTEX
8
CUT
10
39.788
20
84.172
30
0
0
VERTEX
8
CUT
10
41.999
20
85.323
30
0
0
VERTEX
8
CUT
10
44.302
20
86.277
30
0
0
VERTEX
8
CUT
10
46.679
20
87.026
30
0
0
VERTEX
8
CUT
10
49.113
20
87.566
30
0
0
VERTEX
8
CUT
10
51.585
20
87.891
30
0
0
VERTEX
8
CUT
10
54.075
20
88.000
30
0
0
VERTEX
8
CUT
10
56.566
20
87.891
30
0
0
VERTEX
8
CUT
10
59.037
20
87.566
30
0
0
VERTEX
8
CUT
10
61.471
20
87.026
30
0
0
VERTEX
8
CUT
10
63.848
20
86.277
30
0
0
VERTEX
8
CUT
10
66.151
20
85.323
30
0
0
VERTEX
8
CUT
10
68.363
20
84.172
30
0
0
VERTEX
8
CUT
10
70.465
20
82.832
30
0
0
VERTEX
8
CUT
10
72.443
20
81.315
30
0
0
VERTEX
8
CUT
10
74.281
20
79.631
30
0
0
VERTEX
8
CUT
10
75.965
20
77.793
30
0
0
VERTEX
8
CUT
10
77.482
20
75.815
30
0
0
VERTEX
8
CUT
10
78.822
20
73.712
30
0
0
VERTEX
8
CUT
10
79.973
20
71.501
30
0
0
VERTEX
8
CUT
10
80.927
20
69.198
30
0
0
VERTEX
8
CUT
10
81.676
20
66.821
30
0
0
VERTEX
8
CUT
10
82.216
20
64.387
30
0
0
VERTEX
8
CUT
10
82.541
20
61.915
30
0
0
VERTEX
8
CUT
10
82.650
20
59.425
30
0
0
VERTEX
8
CUT
10
82.541
20
56.934
30
0
0
VERTEX
8
CUT
10
82.216
20
54.463
30
0
0
VERTEX
8
CUT
10
81.676
20
52.029
30
0
0
VERTEX
8
CUT
10
80.927
20
49.652
30
0
0
VERTEX
8
CUT
10
79.973
20
47.349
30
0
0
VERTEX
8
CUT
10
78.822
20
45.137
30
0
0
VERTEX
8
CUT
10
77.482
20
43.035
30
0
0
VERTEX
8
CUT
10
75.965
20
41.057
30
0
0
VERTEX
8
CUT
10
74.281
20
39.219
30
0
0
VERTEX
8
CUT
10
72.443
20
37.535
30
0
0
VERTEX
8
CUT
10
70.465
20
36.018
30
0
0
VERTEX
8
CUT
10
68.363
20
34.678
30
0
0
VERTEX
8
CUT
10
66.151
20
33.527
30
0
0
VERTEX
8
CUT
10
63.848
20
32.573
30
0
0
VERTEX
8
CUT
10
61.471
20
31.824
30
0
0
VERTEX
8
CUT
10
59.037
20
31.284
30
0
0
VERTEX
8
CUT
10
56.566
20
30.959
30
0
0
VERTEX
8
CUT
10
54.075
20
30.850
30
0
0
VERTEX
8
CUT
10
51.585
20
30.959
30
0
0
VERTEX
8
CUT
10
49.113
20
31.284
30
0
0
VERTEX
8
CUT
10
46.679
20
31.824
30
0
0
VERTEX
8
CUT
10
44.302
20
32.573
30
0
0
VERTEX
8
CUT
10
41.999
20
33.527
30
0
0
VERTEX
8
CUT
10
39.788
20
34.678
30
0
0
VERTEX
8
CUT
10
37.685
20
36.018
30
0
0
VERTEX
8
CUT
10
35.707
20
37.535
30
0
0
VERTEX
8
CUT
10
33.869
20
39.219
30
0
0
VERTEX
8
CUT
10
32.185
20
41.057
30
0
0
VERTEX
8
CUT
10
30.668
20
43.035
30
0
0
VERTEX
8
CUT
10
29.328
20
45.137
30
0
0
VERTEX
8
CUT
10
28.177
20
47.349
30
0
0
VERTEX
8
CUT
10
27.223
20
49.652
30
0
0
VERTEX
8
CUT
10
26.474
20
52.029
30
0
0
VERTEX
8
CUT
10
25.934
20
54.463
30
0
0
VERTEX
8
CUT
10
25.609
20
56.934
30
0
0
SEQEND
8
CUT
0
POLYLINE
8
CUT
66
1
70
1
10
0
20
0
30
0
0
VERTEX
8
CUT
10
129.150
20
57.925
30
0
0
VERTEX
8
CUT
10
129.247
20
60.141
30
0
0
VERTEX
8
CUT
10
129.536
20
62.340
30
0
0
VERTEX
8
CUT
10
130.016
20
64.505
30
0
0
VERTEX
8
CUT
10
130.683
20
66.621
30
0
0
VERTEX
8
CUT
10
131.532
20
68.670
30
0
0
VERTEX
8
CUT
10
132.556
20
70.637
30
0
0
VERTEX
8
CUT
10
133.748
20
72.508
30
0
0
VERTEX
8
CUT
10
135.098
20
74.268
30
0
0
VERTEX
8
CUT
10
136.597
20
75.903
30
0
0
VERTEX
8
CUT
10
138.232
20
77.402
30
0
0
VERTEX
8
CUT
10
139.992
20
78.752
30
0
0
VERTEX
8
CUT
10
141.863
20
79.944
30
0
0
VERTEX
8
CUT
10
143.830
20
80.968
30
0
0
VERTEX
8
CUT
10
145.879
20
81.817
30
0
0
VERTEX
8
CUT
10
147.995
20
82.484
30
0
0
VERTEX
8
CUT
10
150.160
20
82.964
30
0
0
VERTEX
8
CUT
10
152.359
20
83.253
30
0
0
VERTEX
8
CUT
10
154.575
20
83.350
30
0
0
VERTEX
8
CUT
10
156.791
20
83.253
30
0
0
VERTEX
8
CUT
10
158.990
20
82.964
30
0
0
VERTEX
8
CUT
10
161.156
20
82.484
30
0
0
VERTEX
8
CUT
10
163.271
20
81.817
30
0
0
VERTEX
8
CUT
10
165.320
20
80.968
30
0
0
VERTEX
8
CUT
10
167.288
20
79.944
30
0
0
VERTEX
8
CUT
10
169.158
20
78.752
30
0
0
VERTEX
8
CUT
10
170.918
20
77.402
30
0
0
VERTEX
8
CUT
10
172.553
20
75.903
30
0
0
VERTEX
8
CUT
10
174.052
20
74.268
30
0
0
VERTEX
8
CUT
10
175.402
20
72.508
30
0
0
VERTEX
8
CUT
10
176.594
20
70.637
30
0
0
VERTEX
8
CUT
10
177.618
20
68.670
30
0
0
VERTEX
8
CUT
10
178.467
20
66.621
30
0
0
VERTEX
8
CUT
10
179.134
20
64.505
30
0
0
VERTEX
8
CUT
10
179.614
20
62.340
30
0
0
VERTEX
8
CUT
10
179.903
20
60.141
30
0
0
VERTEX
8
CUT
10
180.000
20
57.925
30
0
0
VERTEX
8
CUT
10
179.903
20
55.709
30
0
0
VERTEX
8
CUT
10
179.614
20
53.510
30
0
0
VERTEX
8
CUT
10
179.134
20
51.344
30
0
0
VERTEX
8
CUT
10
178.467
20
49.229
30
0
0
VERTEX
8
CUT
10
177.618
20
47.180
30
0
0
VERTEX
8
CUT
10
176.594
20
45.212
30
0
0
VERTEX
8
CUT
10
175.402
20
43.342
30
0
0
VERTEX
8
CUT
10
174.052
20
41.582
30
0
0
VERTEX
8
CUT
10
172.553
20
39.947
30
0
0
VERTEX
8
CUT
10
170.918
20
38.448
30
0
0
VERTEX
8
CUT
10
169.158
20
37.098
30
0
0
VERTEX
8
CUT
10
167.288
20
35.906
30
0
0
VERTEX
8
CUT
10
165.320
20
34.882
30
0
0
VERTEX
8
CUT
10
163.271
20
34.033
30
0
0
VERTEX
8
CUT
10
161.156
20
33.366
30
0
0
VERTEX
8
CUT
10
158.990
20
32.886
30
0
0
VERTEX
8
CUT
10
156.791
20
32.597
30
0
0
VERTEX
8
CUT
10
154.575
20
32.500
30
0
0
VERTEX
8
CUT
10
152.359
20
32.597
30
0
0
VERTEX
8
CUT
10
150.160
20
32.886
30
0
0
VERTEX
8
CUT
10
147.995
20
33.366
30
0
0
VERTEX
8
CUT
10
145.879
20
34.033
30
0
0
VERTEX
8
CUT
10
143.830
20
34.882
30
0
0
VERTEX
8
CUT
10
141.863
20
35.906
30
0
0
VERTEX
8
CUT
10
139.992
20
37.098
30
0
0
VERTEX
8
CUT
10
138.232
20
38.448
30
0
0
VERTEX
8
CUT
10
136.597
20
39.947
30
0
0
VERTEX
8
CUT
10
135.098
20
41.582
30
0
0
VERTEX
8
CUT
10
133.748
20
43.342
30
0
0
VERTEX
8
CUT
10
132.556
20
45.212
30
0
0
VERTEX
8
CUT
10
131.532
20
47.180
30
0
0
VERTEX
8
CUT
10
130.683
20
49.229
30
0
0
VERTEX
8
CUT
10
130.016
20
51.344
30
0
0
VERTEX
8
CUT
10
129.536
20
53.510
30
0
0
VERTEX
8
CUT
10
129.247
20
55.709
30
0
0
SEQEND
8
CUT
0
POLYLINE
8
CUT
66
1
70
1
10
0
20
0
30
0
0
VERTEX
8
CUT
10
126.000
20
57.925
30
0
0
VERTEX
8
CUT
10
126.109
20
60.415
30
0
0
VERTEX
8
CUT
10
126.434
20
62.887
30
0
0
VERTEX
8
CUT
10
126.974
20
65.321
30
0
0
VERTEX
8
CUT
10
127.723
20
67.698
30
0
0
VERTEX
8
CUT
10
128.677
20
70.001
30
0
0
VERTEX
8
CUT
10
129.828
20
72.212
30
0
0
VERTEX
8
CUT
10
131.168
20
74.315
30
0
0
VERTEX
8
CUT
10
132.685
20
76.293
30
0
0
VERTEX
8
CUT
10
134.369
20
78.131
30
0
0
VERTEX
8
CUT
10
136.207
20
79.815
30
0
0
VERTEX
8
CUT
10
138.185
20
81.332
30
0
0
VERTEX
8
CUT
10
140.288
20
82.672
30
0
0
VERTEX
8
CUT
10
142.499
20
83.823
30
0
0
VERTEX
8
CUT
10
144.802
20
84.777
30
0
0
VERTEX
8
CUT
10
147.179
20
85.526
30
0
0
VERTEX
8
CUT
10
149.613
20
86.066
30
0
0
VERTEX
8
CUT
10
152.085
20
86.391
30
0
0
VERTEX
8
CUT
10
154.575
20
86.500
30
0
0
VERTEX
8
CUT
10
157.066
20
86.391
30
0
0
VERTEX
8
CUT
10
159.537
20
86.066
30
0
0
VERTEX
8
CUT
10
161.971
20
85.526
30
0
0
VERTEX
8
CUT
10
164.348
20
84.777
30
0
0
VERTEX
8
CUT
10
166.651
20
83.823
30
0
0
VERTEX
8
CUT
10
168.863
20
82.672
30
0
0
VERTEX
8
CUT
10
170.965
20
81.332
30
0
0
VERTEX
8
CUT
10
172.943
20
79.815
30
0
0
VERTEX
8
CUT
10
174.781
20
78.131
30
0
0
VERTEX
8
CUT
10
176.465
20
76.293
30
0
0
VERTEX
8
CUT
10
177.982
20
74.315
30
0
0
VERTEX
8
CUT
10
179.322
20
72.212
30
0
0
VERTEX
8
CUT
10
180.473
20
70.001
30
0
0
VERTEX
8
CUT
10
181.427
20
67.698
30
0
0
VERTEX
8
CUT
10
182.176
20
65.321
30
0
0
VERTEX
8
CUT
10
182.716
20
62.887
30
0
0
VERTEX
8
CUT
10
183.041
20
60.415
30
0
0
VERTEX
8
CUT
10
183.150
20
57.925
30
0
0
VERTEX
8
CUT
10
183.041
20
55.434
30
0
0
VERTEX
8
CUT
10
182.716
20
52.963
30
0
0
VERTEX
8
CUT
10
182.176
20
50.529
30
0
0
VERTEX
8
CUT
10
181.427
20
48.152
30
0
0
VERTEX
8
CUT
10
180.473
20
45.849
30
0
0
VERTEX
8
CUT
10
179.322
20
43.637
30
0
0
VERTEX
8
CUT
10
177.982
20
41.535
30
0
0
VERTEX
8
CUT
10
176.465
20
39.557
30
0
0
VERTEX
8
CUT
10
174.781
20
37.719
30
0
0
VERTEX
8
CUT
10
172.943
20
36.035
30
0
0
VERTEX
8
CUT
10
170.965
20
34.518
30
0
0
VERTEX
8
CUT
10
168.863
20
33.178
30
0
0
VERTEX
8
CUT
10
166.651
20
32.027
30
0
0
VERTEX
8
CUT
10
164.348
20
31.073
30
0
0
VERTEX
8
CUT
10
161.971
20
30.324
30
0
0
VERTEX
8
CUT
10
159.537
20
29.784
30
0
0
VERTEX
8
CUT
10
157.066
20
29.459
30
0
0
VERTEX
8
CUT
10
154.575
20
29.350
30
0
0
VERTEX
8
CUT
10
152.085
20
29.459
30
0
0
VERTEX
8
CUT
10
149.613
20
29.784
30
0
0
VERTEX
8
CUT
10
147.179
20
30.324
30
0
0
VERTEX
8
CUT
10
144.802
20
31.073
30
0
0
VERTEX
8
CUT
10
142.499
20
32.027
30
0
0
VERTEX
8
CUT
10
140.288
20
33.178
30
0
0
VERTEX
8
CUT
10
138.185
20
34.518
30
0
0
VERTEX
8
CUT
10
136.207
20
36.035
30
0
0
VERTEX
8
CUT
10
134.369
20
37.719
30
0
0
VERTEX
8
CUT
10
132.685
20
39.557
30
0
0
VERTEX
8
CUT
10
131.168
20
41.535
30
0
0
VERTEX
8
CUT
10
129.828
20
43.637
30
0
0
VERTEX
8
CUT
10
128.677
20
45.849
30
0
0
VERTEX
8
CUT
10
127.723
20
48.152
30
0
0
VERTEX
8
CUT
10
126.974
20
50.529
30
0
0
VERTEX
8
CUT
10
126.434
20
52.963
30
0
0
VERTEX
8
CUT
10
126.109
20
55.434
30
0
0
SEQEND
8
CUT
0
POLYLINE
8
CUT
66
1
70
1
10
0
20
0
30
0
0
VERTEX
8
CUT
10
266.650
20
42.925
30
0
0
VERTEX
8
CUT
10
266.747
20
45.141
30
0
0
VERTEX
8
CUT
10
267.036
20
47.340
30
0
0
VERTEX
8
CUT
10
267.516
20
49.505
30
0
0
VERTEX
8
CUT
10
268.183
20
51.621
30
0
0
VERTEX
8
CUT
10
269.032
20
53.670
30
0
0
VERTEX
8
CUT
10
270.056
20
55.637
30
0
0
VERTEX
8
CUT
10
271.248
20
57.508
30
0
0
VERTEX
8
CUT
10
272.598
20
59.268
30
0
0
VERTEX
8
CUT
10
274.097
20
60.903
30
0
0
VERTEX
8
CUT
10
275.732
20
62.402
30
0
0
VERTEX
8
CUT
10
277.492
20
63.752
30
0
0
VERTEX
8
CUT
10
279.363
20
64.944
30
0
0
VERTEX
8
CUT
10
281.330
20
65.968
30
0
0
VERTEX
8
CUT
10
283.379
20
66.817
30
0
0
VERTEX
8
CUT
10
285.495
20
67.484
30
0
0
VERTEX
8
CUT
10
287.660
20
67.964
30
0
0
VERTEX
8
CUT
10
289.859
20
68.253
30
0
0
VERTEX
8
CUT
10
292.075
20
68.350
30
0
0
VERTEX
8
CUT
10
294.291
20
68.253
30
0
0
VERTEX
8
CUT
10
296.490
20
67.964
30
0
0
VERTEX
8
CUT
10
298.656
20
67.484
30
0
0
VERTEX
8
CUT
10
300.771
20
66.817
30
0
0
VERTEX
8
CUT
10
302.820
20
65.968
30
0
0
VERTEX
8
CUT
10
304.788
20
64.944
30
0
0
VERTEX
8
CUT
10
306.658
20
63.752
30
0
0
VERTEX
8
CUT
10
308.418
20
62.402
30
0
0
VERTEX
8
CUT
10
310.053
20
60.903
30
0
0
VERTEX
8
CUT
10
311.552
20
59.268
30
0
0
VERTEX
8
CUT
10
312.902
20
57.508
30
0
0
VERTEX
8
CUT
10
314.094
20
55.637
30
0
0
VERTEX
8
CUT
10
315.118
20
53.670
30
0
0
VERTEX
8
CUT
10
315.967
20
51.621
30
0
0
VERTEX
8
CUT
10
316.634
20
49.505
30
0
0
VERTEX
8
CUT
10
317.114
20
47.340
30
0
0
VERTEX
8
CUT
10
317.403
20
45.141
30
0
0
VERTEX
8
CUT
10
317.500
20
42.925
30
0
0
VERTEX
8
CUT
10
317.403
20
40.709
30
0
0
VERTEX
8
CUT
10
317.114
20
38.510
30
0
0
VERTEX
8
CUT
10
316.634
20
36.344
30
0
0
VERTEX
8
CUT
10
315.967
20
34.229
30
0
0
VERTEX
8
CUT
10
315.118
20
32.180
30
0
0
VERTEX
8
CUT
10
314.094
20
30.212
30
0
0
VERTEX
8
CUT
10
312.902
20
28.342
30
0
0
VERTEX
8
CUT
10
311.552
20
26.582
30
0
0
VERTEX
8
CUT
10
310.053
20
24.947
30
0
0
VERTEX
8
CUT
10
308.418
20
23.448
30
0
0
VERTEX
8
CUT
10
306.658
20
22.098
30
0
0
VERTEX
8
CUT
10
304.788
20
20.906
30
0
0
VERTEX
8
CUT
10
302.820
20
19.882
30
0
0
VERTEX
8
CUT
10
300.771
20
19.033
30
0
0
VERTEX
8
CUT
10
298.656
20
18.366
30
0
0
VERTEX
8
CUT
10
296.490
20
17.886
30
0
0
VERTEX
8
CUT
10
294.291
20
17.597
30
0
0
VERTEX
8
CUT
10
292.075
20
17.500
30
0
0
VERTEX
8
CUT
10
289.859
20
17.597
30
0
0
VERTEX
8
CUT
10
287.660
20
17.886
30
0
0
VERTEX
8
CUT
10
285.495
20
18.366
30
0
0
VERTEX
8
CUT
10
283.379
20
19.033
30
0
0
VERTEX
8
CUT
10
281.330
20
19.882
30
0
0
VERTEX
8
CUT
10
279.363
20
20.906
30
0
0
VERTEX
8
CUT
10
277.492
20
22.098
30
0
0
VERTEX
8
CUT
10
275.732
20
23.448
30
0
0
VERTEX
8
CUT
10
274.097
20
24.947
30
0
0
VERTEX
8
CUT
10
272.598
20
26.582
30
0
0
VERTEX
8
CUT
10
271.248
20
28.342
30
0
0
VERTEX
8
CUT
10
270.056
20
30.212
30
0
0
VERTEX
8
CUT
10
269.032
20
32.180
30
0
0
VERTEX
8
CUT
10
268.183
20
34.229
30
0
0
VERTEX
8
CUT
10
267.516
20
36.344
30
0
0
VERTEX
8
CUT
10
267.036
20
38.510
30
0
0
VERTEX
8
CUT
10
266.747
20
40.709
30
0
0
SEQEND
8
CUT
0
POLYLINE
8
CUT
66
1
70
1
10
0
20
0
30
0
0
VERTEX
8
CUT
10
263.500
20
42.925
30
0
0
VERTEX
8
CUT
10
263.609
20
45.415
30
0
0
VERTEX
8
CUT
10
263.934
20
47.887
30
0
0
VERTEX
8
CUT
10
264.474
20
50.321
30
0
0
VERTEX
8
CUT
10
265.223
20
52.698
30
0
0
VERTEX
8
CUT
10
266.177
20
55.001
30
0
0
VERTEX
8
CUT
10
267.328
20
57.212
30
0
0
VERTEX
8
CUT
10
268.668
20
59.315
30
0
0
VERTEX
8
CUT
10
270.185
20
61.293
30
0
0
VERTEX
8
CUT
10
271.869
20
63.131
30
0
0
VERTEX
8
CUT
10
273.707
20
64.815
30
0
0
VERTEX
8
CUT
10
275.685
20
66.332
30
0
0
VERTEX
8
CUT
10
277.788
20
67.672
30
0
0
VERTEX
8
CUT
10
279.999
20
68.823
30
0
0
VERTEX
8
CUT
10
282.302
20
69.777
30
0
0
VERTEX
8
CUT
10
284.679
20
70.526
30
0
0
VERTEX
8
CUT
10
287.113
20
71.066
30
0
0
VERTEX
8
CUT
10
289.585
20
71.391
30
0
0
VERTEX
8
CUT
10
292.075
20
71.500
30
0
0
VERTEX
8
CUT
10
294.566
20
71.391
30
0
0
VERTEX
8
CUT
10
297.037
20
71.066
30
0
0
VERTEX
8
CUT
10
299.471
20
70.526
30
0
0
VERTEX
8
CUT
10
301.848
20
69.777
30
0
0
VERTEX
8
CUT
10
304.151
20
68.823
30
0
0
VERTEX
8
CUT
10
306.363
20
67.672
30
0
0
VERTEX
8
CUT
10
308.465
20
66.332
30
0
0
VERTEX
8
CUT
10
310.443
20
64.815
30
0
0
VERTEX
8
CUT
10
312.281
20
63.131
30
0
0
VERTEX
8
CUT
10
313.965
20
61.293
30
0
0
VERTEX
8
CUT
10
315.482
20
59.315
30
0
0
VERTEX
8
CUT
10
316.822
20
57.212
30
0
0
VERTEX
8
CUT
10
317.973
20
55.001
30
0
0
VERTEX
8
CUT
10
318.927
20
52.698
30
0
0
VERTEX
8
CUT
10
319.676
20
50.321
30
0
0
VERTEX
8
CUT
10
320.216
20
47.887
30
0
0
VERTEX
8
CUT
10
320.541
20
45.415
30
0
0
VERTEX
8
CUT
10
320.650
20
42.925
30
0
0
VERTEX
8
CUT
10
320.541
20
40.434
30
0
0
VERTEX
8
CUT
10
320.216
20
37.963
30
0
0
VERTEX
8
CUT
10
319.676
20
35.529
30
0
0
VERTEX
8
CUT
10
318.927
20
33.152
30
0
0
VERTEX
8
CUT
10
317.973
20
30.849
30
0
0
VERTEX
8
CUT
10
316.822
20
28.637
30
0
0
VERTEX
8
CUT
10
315.482
20
26.535
30
0
0
VERTEX
8
CUT
10
313.965
20
24.557
30
0
0
VERTEX
8
CUT
10
312.281
20
22.719
30
0
0
VERTEX
8
CUT
10
310.443
20
21.035
30
0
0
VERTEX
8
CUT
10
308.465
20
19.518
30
0
0
VERTEX
8
CUT
10
306.363
20
18.178
30
0
0
VERTEX
8
CUT
10
304.151
20
17.027
30
0
0
VERTEX
8
CUT
10
301.848
20
16.073
30
0
0
VERTEX
8
CUT
10
299.471
20
15.324
30
0
0
VERTEX
8
CUT
10
297.037
20
14.784
30
0
0
VERTEX
8
CUT
10
294.566
20
14.459
30
0
0
VERTEX
8
CUT
10
292.075
20
14.350
30
0
0
VERTEX
8
CUT
10
289.585
20
14.459
30
0
0
VERTEX
8
CUT
10
287.113
20
14.784
30
0
0
VERTEX
8
CUT
10
284.679
20
15.324
30
0
0
VERTEX
8
CUT
10
282.302
20
16.073
30
0
0
VERTEX
8
CUT
10
279.999
20
17.027
30
0
0
VERTEX
8
CUT
10
277.788
20
18.178
30
0
0
VERTEX
8
CUT
10
275.685
20
19.518
30
0
0
VERTEX
8
CUT
10
273.707
20
21.035
30
0
0
VERTEX
8
CUT
10
271.869
20
22.719
30
0
0
VERTEX
8
CUT
10
270.185
20
24.557
30
0
0
VERTEX
8
CUT
10
268.668
20
26.535
30
0
0
VERTEX
8
CUT
10
267.328
20
28.637
30
0
0
VERTEX
8
CUT
10
266.177
20
30.849
30
0
0
VERTEX
8
CUT
10
265.223
20
33.152
30
0
0
VERTEX
8
CUT
10
264.474
20
35.529
30
0
0
VERTEX
8
CUT
10
263.934
20
37.963
30
0
0
VERTEX
8
CUT
10
263.609
20
40.434
30
0
0
SEQEND
8
CUT
0
POLYLINE
8
CUT
66
1
70
1
10
0
20
0
30
0
0
VERTEX
8
CUT
10
359.150
20
40.925
30
0
0
VERTEX
8
CUT
10
359.247
20
43.141
30
0
0
VERTEX
8
CUT
10
359.536
20
45.340
30
0
0
VERTEX
8
CUT
10
360.016
20
47.505
30
0
0
VERTEX
8
CUT
10
360.683
20
49.621
30
0
0
VERTEX
8
CUT
10
361.532
20
51.670
30
0
0
VERTEX
8
CUT
10
362.556
20
53.637
30
0
0
VERTEX
8
CUT
10
363.748
20
55.508
30
0
0
VERTEX
8
CUT
10
365.098
20
57.268
30
0
0
VERTEX
8
CUT
10
366.597
20
58.903
30
0
0
VERTEX
8
CUT
10
368.232
20
60.402
30
0
0
VERTEX
8
CUT
10
369.992
20
61.752
30
0
0
VERTEX
8
CUT
10
371.863
20
62.944
30
0
0
VERTEX
8
CUT
10
373.830
20
63.968
30
0
0
VERTEX
8
CUT
10
375.879
20
64.817
30
0
0
VERTEX
8
CUT
10
377.995
20
65.484
30
0
0
VERTEX
8
CUT
10
380.160
20
65.964
30
0
0
VERTEX
8
CUT
10
382.359
20
66.253
30
0
0
VERTEX
8
CUT
10
384.575
20
66.350
30
0
0
VERTEX
8
CUT
10
386.791
20
66.253
30
0
0
VERTEX
8
CUT
10
388.990
20
65.964
30
0
0
VERTEX
8
CUT
10
391.156
20
65.484
30
0
0
VERTEX
8
CUT
10
393.271
20
64.817
30
0
0
VERTEX
8
CUT
10
395.320
20
63.968
30
0
0
VERTEX
8
CUT
10
397.288
20
62.944
30
0
0
VERTEX
8
CUT
10
399.158
20
61.752
30
0
0
VERTEX
8
CUT
10
400.918
20
60.402
30
0
0
VERTEX
8
CUT
10
402.553
20
58.903
30
0
0
VERTEX
8
CUT
10
404.052
20
57.268
30
0
0
VERTEX
8
CUT
10
405.402
20
55.508
30
0
0
VERTEX
8
CUT
10
406.594
20
53.637
30
0
0
VERTEX
8
CUT
10
407.618
20
51.670
30
0
0
VERTEX
8
CUT
10
408.467
20
49.621
30
0
0
VERTEX
8
CUT
10
409.134
20
47.505
30
0
0
VERTEX
8
CUT
10
409.614
20
45.340
30
0
0
VERTEX
8
CUT
10
409.903
20
43.141
30
0
0
VERTEX
8
CUT
10
410.000
20
40.925
30
0
0
VERTEX
8
CUT
10
409.903
20
38.709
30
0
0
VERTEX
8
CUT
10
409.614
20
36.510
30
0
0
VERTEX
8
CUT
10
409.134
20
34.344
30
0
0
VERTEX
8
CUT
10
408.467
20
32.229
30
0
0
VERTEX
8
CUT
10
407.618
20
30.180
30
0
0
VERTEX
8
CUT
10
406.594
20
28.212
30
0
0
VERTEX
8
CUT
10
405.402
20
26.342
30
0
0
VERTEX
8
CUT
10
404.052
20
24.582
30
0
0
VERTEX
8
CUT
10
402.553
20
22.947
30
0
0
VERTEX
8
CUT
10
400.918
20
21.448
30
0
0
VERTEX
8
CUT
10
399.158
20
20.098
30
0
0
VERTEX
8
CUT
10
397.288
20
18.906
30
0
0
VERTEX
8
CUT
10
395.320
20
17.882
30
0
0
VERTEX
8
CUT
10
393.271
20
17.033
30
0
0
VERTEX
8
CUT
10
391.156
20
16.366
30
0
0
VERTEX
8
CUT
10
388.990
20
15.886
30
0
0
VERTEX
8
CUT
10
386.791
20
15.597
30
0
0
VERTEX
8
CUT
10
384.575
20
15.500
30
0
0
VERTEX
8
CUT
10
382.359
20
15.597
30
0
0
VERTEX
8
CUT
10
380.160
20
15.886
30
0
0
VERTEX
8
CUT
10
377.995
20
16.366
30
0
0
VERTEX
8
CUT
10
375.879
20
17.033
30
0
0
VERTEX
8
CUT
10
373.830
20
17.882
30
0
0
VERTEX
8
CUT
10
371.863
20
18.906
30
0
0
VERTEX
8
CUT
10
369.992
20
20.098
30
0
0
VERTEX
8
CUT
10
368.232
20
21.448
30
0
0
VERTEX
8
CUT
10
366.597
20
22.947
30
0
0
VERTEX
8
CUT
10
365.098
20
24.582
30
0
0
VERTEX
8
CUT
10
363.748
20
26.342
30
0
0
VERTEX
8
CUT
10
362.556
20
28.212
30
0
0
VERTEX
8
CUT
10
361.532
20
30.180
30
0
0
VERTEX
8
CUT
10
360.683
20
32.229
30
0
0
VERTEX
8
CUT
10
360.016
20
34.344
30
0
0
VERTEX
8
CUT
10
359.536
20
36.510
30
0
0
VERTEX
8
CUT
10
359.247
20
38.709
30
0
0
SEQEND
8
CUT
0
POLYLINE
8
CUT
66
1
70
1
10
0
20
0
30
0
0
VERTEX
8
CUT
10
356.000
20
40.925
30
0
0
VERTEX
8
CUT
10
356.109
20
43.415
30
0
0
VERTEX
8
CUT
10
356.434
20
45.887
30
0
0
VERTEX
8
CUT
10
356.974
20
48.321
30
0
0
VERTEX
8
CUT
10
357.723
20
50.698
30
0
0
VERTEX
8
CUT
10
358.677
20
53.001
30
0
0
VERTEX
8
CUT
10
359.828
20
55.212
30
0
0
VERTEX
8
CUT
10
361.168
20
57.315
30
0
0
VERTEX
8
CUT
10
362.685
20
59.293
30
0
0
VERTEX
8
CUT
10
364.369
20
61.131
30
0
0
VERTEX
8
CUT
10
366.207
20
62.815
30
0
0
VERTEX
8
CUT
10
368.185
20
64.332
30
0
0
VERTEX
8
CUT
10
370.288
20
65.672
30
0
0
VERTEX
8
CUT
10
372.499
20
66.823
30
0
0
VERTEX
8
CUT
10
374.802
20
67.777
30
0
0
VERTEX
8
CUT
10
377.179
20
68.526
30
0
0
VERTEX
8
CUT
10
379.613
20
69.066
30
0
0
VERTEX
8
CUT
10
382.085
20
69.391
30
0
0
VERTEX
8
CUT
10
384.575
20
69.500
30
0
0
VERTEX
8
CUT
10
387.066
20
69.391
30
0
0
VERTEX
8
CUT
10
389.537
20
69.066
30
0
0
VERTEX
8
CUT
10
391.971
20
68.526
30
0
0
VERTEX
8
CUT
10
394.348
20
67.777
30
0
0
VERTEX
8
CUT
10
396.651
20
66.823
30
0
0
VERTEX
8
CUT
10
398.863
20
65.672
30
0
0
VERTEX
8
CUT
10
400.965
20
64.332
30
0
0
VERTEX
8
CUT
10
402.943
20
62.815
30
0
0
VERTEX
8
CUT
10
404.781
20
61.131
30
0
0
VERTEX
8
CUT
10
406.465
20
59.293
30
0
0
VERTEX
8
CUT
10
407.982
20
57.315
30
0
0
VERTEX
8
CUT
10
409.322
20
55.212
30
0
0
VERTEX
8
CUT
10
410.473
20
53.001
30
0
0
VERTEX
8
CUT
10
411.427
20
50.698
30
0
0
VERTEX
8
CUT
10
412.176
20
48.321
30
0
0
VERTEX
8
CUT
10
412.716
20
45.887
30
0
0
VERTEX
8
CUT
10
413.041
20
43.415
30
0
0
VERTEX
8
CUT
10
413.150
20
40.925
30
0
0
VERTEX
8
CUT
10
413.041
20
38.434
30
0
0
VERTEX
8
CUT
10
412.716
20
35.963
30
0
0
VERTEX
8
CUT
10
412.176
20
33.529
30
0
0
VERTEX
8
CUT
10
411.427
20
31.152
30
0
0
VERTEX
8
CUT
10
410.473
20
28.849
30
0
0
VERTEX
8
CUT
10
409.322
20
26.637
30
0
0
VERTEX
8
CUT
10
407.982
20
24.535
30
0
0
VERTEX
8
CUT
10
406.465
20
22.557
30
0
0
VERTEX
8
CUT
10
404.781
20
20.719
30
0
0
VERTEX
8
CUT
10
402.943
20
19.035
30
0
0
VERTEX
8
CUT
10
400.965
20
17.518
30
0
0
VERTEX
8
CUT
10
398.863
20
16.178
30
0
0
VERTEX
8
CUT
10
396.651
20
15.027
30
0
0
VERTEX
8
CUT
10
394.348
20
14.073
30
0
0
VERTEX
8
CUT
10
391.971
20
13.324
30
0
0
VERTEX
8
CUT
10
389.537
20
12.784
30
0
0
VERTEX
8
CUT
10
387.066
20
12.459
30
0
0
VERTEX
8
CUT
10
384.575
20
12.350
30
0
0
VERTEX
8
CUT
10
382.085
20
12.459
30
0
0
VERTEX
8
CUT
10
379.613
20
12.784
30
0
0
VERTEX
8
CUT
10
377.179
20
13.324
30
0
0
VERTEX
8
CUT
10
374.802
20
14.073
30
0
0
VERTEX
8
CUT
10
372.499
20
15.027
30
0
0
VERTEX
8
CUT
10
370.288
20
16.178
30
0
0
VERTEX
8
CUT
10
368.185
20
17.518
30
0
0
VERTEX
8
CUT
10
366.207
20
19.035
30
0
0
VERTEX
8
CUT
10
364.369
20
20.719
30
0
0
VERTEX
8
CUT
10
362.685
20
22.557
30
0
0
VERTEX
8
CUT
10
361.168
20
24.535
30
0
0
VERTEX
8
CUT
10
359.828
20
26.637
30
0
0
VERTEX
8
CUT
10
358.677
20
28.849
30
0
0
VERTEX
8
CUT
10
357.723
20
31.152
30
0
0
VERTEX
8
CUT
10
356.974
20
33.529
30
0
0
VERTEX
8
CUT
10
356.434
20
35.963
30
0
0
VERTEX
8
CUT
10
356.109
20
38.434
30
0
0
SEQEND
8
CUT
0
POLYLINE
8
CUT
66
1
70
1
10
0
20
0
30
0
0
VERTEX
8
CUT
10
183.650
20
33.425
30
0
0
VERTEX
8
CUT
10
183.747
20
35.641
30
0
0
VERTEX
8
CUT
10
184.036
20
37.840
30
0
0
VERTEX
8
CUT
10
184.516
20
40.005
30
0
0
VERTEX
8
CUT
10
185.183
20
42.121
30
0
0
VERTEX
8
CUT
10
186.032
20
44.170
30
0
0
VERTEX
8
CUT
10
187.056
20
46.137
30
0
0
VERTEX
8
CUT
10
188.248
20
48.008
30
0
0
VERTEX
8
CUT
10
189.598
20
49.768
30
0
0
VERTEX
8
CUT
10
191.097
20
51.403
30
0
0
VERTEX
8
CUT
10
192.732
20
52.902
30
0
0
VERTEX
8
CUT
10
194.492
20
54.252
30
0
0
VERTEX
8
CUT
10
196.363
20
55.444
30
0
0
VERTEX
8
CUT
10
198.330
20
56.468
30
0
0
VERTEX
8
CUT
10
200.379
20
57.317
30
0
0
VERTEX
8
CUT
10
202.495
20
57.984
30
0
0
VERTEX
8
CUT
10
204.660
20
58.464
30
0
0
VERTEX
8
CUT
10
206.859
20
58.753
30
0
0
VERTEX
8
CUT
10
209.075
20
58.850
30
0
0
VERTEX
8
CUT
10
211.291
20
58.753
30
0
0
VERTEX
8
CUT
10
213.490
20
58.464
30
0
0
VERTEX
8
CUT
10
215.656
20
57.984
30
0
0
VERTEX
8
CUT
10
217.771
20
57.317
30
0
0
VERTEX
8
CUT
10
219.820
20
56.468
30
0
0
VERTEX
8
CUT
10
221.788
20
55.444
30
0
0
VERTEX
8
CUT
10
223.658
20
54.252
30
0
0
VERTEX
8
CUT
10
225.418
20
52.902
30
0
0
VERTEX
8
CUT
10
227.053
20
51.403
30
0
0
VERTEX
8
CUT
10
228.552
20
49.768
30
0
0
VERTEX
8
CUT
10
229.902
20
48.008
30
0
0
VERTEX
8
CUT
10
231.094
20
46.137
30
0
0
VERTEX
8
CUT
10
232.118
20
44.170
30
0
0
VERTEX
8
CUT
10
232.967
20
42.121
30
0
0
VERTEX
8
CUT
10
233.634
20
40.005
30
0
0
VERTEX
8
CUT
10
234.114
20
37.840
30
0
0
VERTEX
8
CUT
10
234.403
20
35.641
30
0
0
VERTEX
8
CUT
10
234.500
20
33.425
30
0
0
VERTEX
8
CUT
10
234.403
20
31.209
30
0
0
VERTEX
8
CUT
10
234.114
20
29.010
30
0
0
VERTEX
8
CUT
10
233.634
20
26.844
30
0
0
VERTEX
8
CUT
10
232.967
20
24.729
30
0
0
VERTEX
8
CUT
10
232.118
20
22.680
30
0
0
VERTEX
8
CUT
10
231.094
20
20.712
30
0
0
VERTEX
8
CUT
10
229.902
20
18.842
30
0
0
VERTEX
8
CUT
10
228.552
20
17.082
30
0
0
VERTEX
8
CUT
10
227.053
20
15.447
30
0
0
VERTEX
8
CUT
10
225.418
20
13.948
30
0
0
VERTEX
8
CUT
10
223.658
20
12.598
30
0
0
VERTEX
8
CUT
10
221.788
20
11.406
30
0
0
VERTEX
8
CUT
10
219.820
20
10.382
30
0
0
VERTEX
8
CUT
10
217.771
20
9.533
30
0
0
VERTEX
8
CUT
10
215.656
20
8.866
30
0
0
VERTEX
8
CUT
10
213.490
20
8.386
30
0
0
VERTEX
8
CUT
10
211.291
20
8.097
30
0
0
VERTEX
8
CUT
10
209.075
20
8.000
30
0
0
VERTEX
8
CUT
10
206.859
20
8.097
30
0
0
VERTEX
8
CUT
10
204.660
20
8.386
30
0
0
VERTEX
8
CUT
10
202.495
20
8.866
30
0
0
VERTEX
8
CUT
10
200.379
20
9.533
30
0
0
VERTEX
8
CUT
10
198.330
20
10.382
30
0
0
VERTEX
8
CUT
10
196.363
20
11.406
30
0
0
VERTEX
8
CUT
10
194.492
20
12.598
30
0
0
VERTEX
8
CUT
10
192.732
20
13.948
30
0
0
VERTEX
8
CUT
10
191.097
20
15.447
30
0
0
VERTEX
8
CUT
10
189.598
20
17.082
30
0
0
VERTEX
8
CUT
10
188.248
20
18.842
30
0
0
VERTEX
8
CUT
10
187.056
20
20.712
30
0
0
VERTEX
8
CUT
10
186.032
20
22.680
30
0
0
VERTEX
8
CUT
10
185.183
20
24.729
30
0
0
VERTEX
8
CUT
10
184.516
20
26.844
30
0
0
VERTEX
8
CUT
10
184.036
20
29.010
30
0
0
VERTEX
8
CUT
10
183.747
20
31.209
30
0
0
SEQEND
8
CUT
0
POLYLINE
8
CUT
66
1
70
1
10
0
20
0
30
0
0
VERTEX
8
CUT
10
180.500
20
33.425
30
0
0
VERTEX
8
CUT
10
180.609
20
35.915
30
0
0
VERTEX
8
CUT
10
180.934
20
38.387
30
0
0
VERTEX
8
CUT
10
181.474
20
40.821
30
0
0
VERTEX
8
CUT
10
182.223
20
43.198
30
0
0
VERTEX
8
CUT
10
183.177
20
45.501
30
0
0
VERTEX
8
CUT
10
184.328
20
47.712
30
0
0
VERTEX
8
CUT
10
185.668
20
49.815
30
0
0
VERTEX
8
CUT
10
187.185
20
51.793
30
0
0
VERTEX
8
CUT
10
188.869
20
53.631
30
0
0
VERTEX
8
CUT
10
190.707
20
55.315
30
0
0
VERTEX
8
CUT
10
192.685
20
56.832
30
0
0
VERTEX
8
CUT
10
194.788
20
58.172
30
0
0
VERTEX
8
CUT
10
196.999
20
59.323
30
0
0
VERTEX
8
CUT
10
199.302
20
60.277
30
0
0
VERTEX
8
CUT
10
201.679
20
61.026
30
0
0
VERTEX
8
CUT
10
204.113
20
61.566
30
0
0
VERTEX
8
CUT
10
206.585
20
61.891
30
0
0
VERTEX
8
CUT
10
209.075
20
62.000
30
0
0
VERTEX
8
CUT
10
211.566
20
61.891
30
0
0
VERTEX
8
CUT
10
214.037
20
61.566
30
0
0
VERTEX
8
CUT
10
216.471
20
61.026
30
0
0
VERTEX
8
CUT
10
218.848
20
60.277
30
0
0
VERTEX
8
CUT
10
221.151
20
59.323
30
0
0
VERTEX
8
CUT
10
223.363
20
58.172
30
0
0
VERTEX
8
CUT
10
225.465
20
56.832
30
0
0
VERTEX
8
CUT
10
227.443
20
55.315
30
0
0
VERTEX
8
CUT
10
229.281
20
53.631
30
0
0
VERTEX
8
CUT
10
230.965
20
51.793
30
0
0
VERTEX
8
CUT
10
232.482
20
49.815
30
0
0
VERTEX
8
CUT
10
233.822
20
47.712
30
0
0
VERTEX
8
CUT
10
234.973
20
45.501
30
0
0
VERTEX
8
CUT
10
235.927
20
43.198
30
0
0
VERTEX
8
CUT
10
236.676
20
40.821
30
0
0
VERTEX
8
CUT
10
237.216
20
38.387
30
0
0
VERTEX
8
CUT
10
237.541
20
35.915
30
0
0
VERTEX
8
CUT
10
237.650
20
33.425
30
0
0
VERTEX
8
CUT
10
237.541
20
30.934
30
0
0
VERTEX
8
CUT
10
237.216
20
28.463
30
0
0
VERTEX
8
CUT
10
236.676
20
26.029
30
0
0
VERTEX
8
CUT
10
235.927
20
23.652
30
0
0
VERTEX
8
CUT
10
234.973
20
21.349
30
0
0
VERTEX
8
CUT
10
233.822
20
19.137
30
0
0
VERTEX
8
CUT
10
232.482
20
17.035
30
0
0
VERTEX
8
CUT
10
230.965
20
15.057
30
0
0
VERTEX
8
CUT
10
229.281
20
13.219
30
0
0
VERTEX
8
CUT
10
227.443
20
11.535
30
0
0
VERTEX
8
CUT
10
225.465
20
10.018
30
0
0
VERTEX
8
CUT
10
223.363
20
8.678
30
0
0
VERTEX
8
CUT
10
221.151
20
7.527
30
0
0
VERTEX
8
CUT
10
218.848
20
6.573
30
0
0
VERTEX
8
CUT
10
216.471
20
5.824
30
0
0
VERTEX
8
CUT
10
214.037
20
5.284
30
0
0
VERTEX
8
CUT
10
211.566
20
4.959
30
0
0
VERTEX
8
CUT
10
209.075
20
4.850
30
0
0
VERTEX
8
CUT
10
206.585
20
4.959
30
0
0
VERTEX
8
CUT
10
204.113
20
5.284
30
0
0
VERTEX
8
CUT
10
201.679
20
5.824
30
0
0
VERTEX
8
CUT
10
199.302
20
6.573
30
0
0
VERTEX
8
CUT
10
196.999
20
7.527
30
0
0
VERTEX
8
CUT
10
194.788
20
8.678
30
0
0
VERTEX
8
CUT
10
192.685
20
10.018
30
0
0
VERTEX
8
CUT
10
190.707
20
11.535
30
0
0
VERTEX
8
CUT
10
188.869
20
13.219
30
0
0
VERTEX
8
CUT
10
187.185
20
15.057
30
0
0
VERTEX
8
CUT
10
185.668
20
17.035
30
0
0
VERTEX
8
CUT
10
184.328
20
19.137
30
0
0
VERTEX
8
CUT
10
183.177
20
21.349
30
0
0
VERTEX
8
CUT
10
182.223
20
23.652
30
0
0
VERTEX
8
CUT
10
181.474
20
26.029
30
0
0
VERTEX
8
CUT
10
180.934
20
28.463
30
0
0
VERTEX
8
CUT
10
180.609
20
30.934
30
0
0
SEQEND
8
CUT
0
ENDSEC
0
EOF
