0
SECTION
2
HEADER
9
$ACADVER
1
AC1009
9
$INSUNITS
70
4
0
ENDSEC
0
SECTION
2
TABLES
0
TABLE
2
LAYER
70
3
0
LAYER
2
CUT
70
0
62
1
6
CONTINUOUS
0
LAYER
2
SCORE
70
0
62
5
6
CONTINUOUS
0
LAYER
2
ENGRAVE
70
0
62
7
6
CONTINUOUS
0
ENDTAB
0
ENDSEC
0
SECTION
2
ENTITIES
0
POLYLINE
8
ENGRAVE
66
1
70
1
10
0
20
0
30
0
0
VERTEX
8
ENGRAVE
10
82.304
20
268.121
30
0
0
VERTEX
8
ENGRAVE
10
82.596
20
268.121
30
0
0
VERTEX
8
ENGRAVE
10
82.971
20
267.996
30
0
0
VERTEX
8
ENGRAVE
10
83.179
20
267.829
30
0
0
VERTEX
8
ENGRAVE
10
83.429
20
267.371
30
0
0
VERTEX
8
ENGRAVE
10
83.388
20
267.204
30
0
0
VERTEX
8
ENGRAVE
10
83.096
20
267.162
30
0
0
VERTEX
8
ENGRAVE
10
83.054
20
267.412
30
0
0
VERTEX
8
ENGRAVE
10
82.846
20
267.704
30
0
0
VERTEX
8
ENGRAVE
10
82.596
20
267.829
30
0
0
VERTEX
8
ENGRAVE
10
82.263
20
267.829
30
0
0
VERTEX
8
ENGRAVE
10
82.013
20
267.704
30
0
0
VERTEX
8
ENGRAVE
10
81.763
20
267.329
30
0
0
VERTEX
8
ENGRAVE
10
81.679
20
266.454
30
0
0
VERTEX
8
ENGRAVE
10
81.804
20
265.996
30
0
0
VERTEX
8
ENGRAVE
10
82.013
20
265.704
30
0
0
VERTEX
8
ENGRAVE
10
82.263
20
265.579
30
0
0
VERTEX
8
ENGRAVE
10
82.721
20
265.621
30
0
0
VERTEX
8
ENGRAVE
10
82.971
20
265.829
30
0
0
VERTEX
8
ENGRAVE
10
83.096
20
266.246
30
0
0
VERTEX
8
ENGRAVE
10
83.429
20
266.204
30
0
0
VERTEX
8
ENGRAVE
10
83.388
20
265.954
30
0
0
VERTEX
8
ENGRAVE
10
83.179
20
265.579
30
0
0
VERTEX
8
ENGRAVE
10
82.638
20
265.287
30
0
0
VERTEX
8
ENGRAVE
10
82.221
20
265.287
30
0
0
VERTEX
8
ENGRAVE
10
81.804
20
265.454
30
0
0
VERTEX
8
ENGRAVE
10
81.471
20
265.871
30
0
0
VERTEX
8
ENGRAVE
10
81.304
20
266.412
30
0
0
VERTEX
8
ENGRAVE
10
81.304
20
267.037
30
0
0
VERTEX
8
ENGRAVE
10
81.513
20
267.621
30
0
0
VERTEX
8
ENGRAVE
10
81.888
20
267.996
30
0
0
SEQEND
8
ENGRAVE
0
POLYLINE
8
ENGRAVE
66
1
70
1
10
0
20
0
30
0
0
VERTEX
8
ENGRAVE
10
84.638
20
268.121
30
0
0
VERTEX
8
ENGRAVE
10
85.221
20
268.079
30
0
0
VERTEX
8
ENGRAVE
10
85.471
20
267.954
30
0
0
VERTEX
8
ENGRAVE
10
85.679
20
267.746
30
0
0
VERTEX
8
ENGRAVE
10
85.763
20
267.537
30
0
0
VERTEX
8
ENGRAVE
10
85.721
20
267.121
30
0
0
VERTEX
8
ENGRAVE
10
85.513
20
266.871
30
0
0
VERTEX
8
ENGRAVE
10
85.263
20
266.746
30
0
0
VERTEX
8
ENGRAVE
10
85.513
20
266.704
30
0
0
VERTEX
8
ENGRAVE
10
85.763
20
266.496
30
0
0
VERTEX
8
ENGRAVE
10
85.846
20
266.329
30
0
0
VERTEX
8
ENGRAVE
10
85.846
20
265.871
30
0
0
VERTEX
8
ENGRAVE
10
85.638
20
265.537
30
0
0
VERTEX
8
ENGRAVE
10
85.054
20
265.287
30
0
0
VERTEX
8
ENGRAVE
10
84.388
20
265.329
30
0
0
VERTEX
8
ENGRAVE
10
84.138
20
265.454
30
0
0
VERTEX
8
ENGRAVE
10
83.804
20
265.829
30
0
0
VERTEX
8
ENGRAVE
10
83.846
20
265.996
30
0
0
VERTEX
8
ENGRAVE
10
84.096
20
266.037
30
0
0
VERTEX
8
ENGRAVE
10
84.179
20
265.829
30
0
0
VERTEX
8
ENGRAVE
10
84.513
20
265.579
30
0
0
VERTEX
8
ENGRAVE
10
85.096
20
265.579
30
0
0
VERTEX
8
ENGRAVE
10
85.304
20
265.662
30
0
0
VERTEX
8
ENGRAVE
10
85.471
20
265.871
30
0
0
VERTEX
8
ENGRAVE
10
85.513
20
266.204
30
0
0
VERTEX
8
ENGRAVE
10
85.304
20
266.496
30
0
0
VERTEX
8
ENGRAVE
10
84.929
20
266.621
30
0
0
VERTEX
8
ENGRAVE
10
84.471
20
266.621
30
0
0
VERTEX
8
ENGRAVE
10
84.471
20
266.912
30
0
0
VERTEX
8
ENGRAVE
10
85.096
20
266.912
30
0
0
VERTEX
8
ENGRAVE
10
85.304
20
267.037
30
0
0
VERTEX
8
ENGRAVE
10
85.388
20
267.204
30
0
0
VERTEX
8
ENGRAVE
10
85.346
20
267.621
30
0
0
VERTEX
8
ENGRAVE
10
85.054
20
267.829
30
0
0
VERTEX
8
ENGRAVE
10
84.596
20
267.829
30
0
0
VERTEX
8
ENGRAVE
10
84.429
20
267.746
30
0
0
VERTEX
8
ENGRAVE
10
84.179
20
267.412
30
0
0
VERTEX
8
ENGRAVE
10
83.888
20
267.454
30
0
0
VERTEX
8
ENGRAVE
10
84.096
20
267.871
30
0
0
SEQEND
8
ENGRAVE
0
POLYLINE
8
ENGRAVE
66
1
70
1
10
0
20
0
30
0
0
VERTEX
8
ENGRAVE
10
194.077
20
276.374
30
0
0
VERTEX
8
ENGRAVE
10
194.369
20
276.374
30
0
0
VERTEX
8
ENGRAVE
10
194.744
20
276.249
30
0
0
VERTEX
8
ENGRAVE
10
194.952
20
276.082
30
0
0
VERTEX
8
ENGRAVE
10
195.202
20
275.624
30
0
0
VERTEX
8
ENGRAVE
10
195.160
20
275.457
30
0
0
VERTEX
8
ENGRAVE
10
194.869
20
275.416
30
0
0
VERTEX
8
ENGRAVE
10
194.827
20
275.666
30
0
0
VERTEX
8
ENGRAVE
10
194.619
20
275.957
30
0
0
VERTEX
8
ENGRAVE
10
194.369
20
276.082
30
0
0
VERTEX
8
ENGRAVE
10
194.035
20
276.082
30
0
0
VERTEX
8
ENGRAVE
10
193.785
20
275.957
30
0
0
VERTEX
8
ENGRAVE
10
193.535
20
275.582
30
0
0
VERTEX
8
ENGRAVE
10
193.452
20
274.707
30
0
0
VERTEX
8
ENGRAVE
10
193.577
20
274.249
30
0
0
VERTEX
8
ENGRAVE
10
193.785
20
273.957
30
0
0
VERTEX
8
ENGRAVE
10
194.035
20
273.832
30
0
0
VERTEX
8
ENGRAVE
10
194.494
20
273.874
30
0
0
VERTEX
8
ENGRAVE
10
194.744
20
274.082
30
0
0
VERTEX
8
ENGRAVE
10
194.869
20
274.499
30
0
0
VERTEX
8
ENGRAVE
10
195.202
20
274.457
30
0
0
VERTEX
8
ENGRAVE
10
195.160
20
274.207
30
0
0
VERTEX
8
ENGRAVE
10
194.952
20
273.832
30
0
0
VERTEX
8
ENGRAVE
10
194.410
20
273.541
30
0
0
VERTEX
8
ENGRAVE
10
193.994
20
273.541
30
0
0
VERTEX
8
ENGRAVE
10
193.577
20
273.707
30
0
0
VERTEX
8
ENGRAVE
10
193.244
20
274.124
30
0
0
VERTEX
8
ENGRAVE
10
193.077
20
274.666
30
0
0
VERTEX
8
ENGRAVE
10
193.077
20
275.291
30
0
0
VERTEX
8
ENGRAVE
10
193.285
20
275.874
30
0
0
VERTEX
8
ENGRAVE
10
193.660
20
276.249
30
0
0
SEQEND
8
ENGRAVE
0
POLYLINE
8
ENGRAVE
66
1
70
1
10
0
20
0
30
0
0
VERTEX
8
ENGRAVE
10
196.452
20
276.374
30
0
0
VERTEX
8
ENGRAVE
10
196.952
20
276.332
30
0
0
VERTEX
8
ENGRAVE
10
197.285
20
276.166
30
0
0
VERTEX
8
ENGRAVE
10
197.535
20
275.832
30
0
0
VERTEX
8
ENGRAVE
10
197.577
20
275.457
30
0
0
VERTEX
8
ENGRAVE
10
197.535
20
275.249
30
0
0
VERTEX
8
ENGRAVE
10
197.285
20
274.832
30
0
0
VERTEX
8
ENGRAVE
10
196.119
20
273.874
30
0
0
VERTEX
8
ENGRAVE
10
197.577
20
273.874
30
0
0
VERTEX
8
ENGRAVE
10
197.577
20
273.582
30
0
0
VERTEX
8
ENGRAVE
10
195.619
20
273.582
30
0
0
VERTEX
8
ENGRAVE
10
195.619
20
273.874
30
0
0
VERTEX
8
ENGRAVE
10
196.785
20
274.749
30
0
0
VERTEX
8
ENGRAVE
10
197.119
20
275.124
30
0
0
VERTEX
8
ENGRAVE
10
197.202
20
275.332
30
0
0
VERTEX
8
ENGRAVE
10
197.160
20
275.832
30
0
0
VERTEX
8
ENGRAVE
10
196.785
20
276.082
30
0
0
VERTEX
8
ENGRAVE
10
196.410
20
276.082
30
0
0
VERTEX
8
ENGRAVE
10
196.160
20
275.957
30
0
0
VERTEX
8
ENGRAVE
10
195.952
20
275.624
30
0
0
VERTEX
8
ENGRAVE
10
195.952
20
275.457
30
0
0
VERTEX
8
ENGRAVE
10
195.619
20
275.541
30
0
0
VERTEX
8
ENGRAVE
10
195.785
20
275.999
30
0
0
VERTEX
8
ENGRAVE
10
195.994
20
276.207
30
0
0
SEQEND
8
ENGRAVE
0
POLYLINE
8
ENGRAVE
66
1
70
1
10
0
20
0
30
0
0
VERTEX
8
ENGRAVE
10
31.077
20
213.874
30
0
0
VERTEX
8
ENGRAVE
10
31.369
20
213.874
30
0
0
VERTEX
8
ENGRAVE
10
31.744
20
213.749
30
0
0
VERTEX
8
ENGRAVE
10
31.952
20
213.582
30
0
0
VERTEX
8
ENGRAVE
10
32.202
20
213.124
30
0
0
VERTEX
8
ENGRAVE
10
32.160
20
212.957
30
0
0
VERTEX
8
ENGRAVE
10
31.869
20
212.916
30
0
0
VERTEX
8
ENGRAVE
10
31.827
20
213.166
30
0
0
VERTEX
8
ENGRAVE
10
31.619
20
213.457
30
0
0
VERTEX
8
ENGRAVE
10
31.369
20
213.582
30
0
0
VERTEX
8
ENGRAVE
10
31.035
20
213.582
30
0
0
VERTEX
8
ENGRAVE
10
30.785
20
213.457
30
0
0
VERTEX
8
ENGRAVE
10
30.535
20
213.082
30
0
0
VERTEX
8
ENGRAVE
10
30.452
20
212.207
30
0
0
VERTEX
8
ENGRAVE
10
30.577
20
211.749
30
0
0
VERTEX
8
ENGRAVE
10
30.785
20
211.457
30
0
0
VERTEX
8
ENGRAVE
10
31.035
20
211.332
30
0
0
VERTEX
8
ENGRAVE
10
31.494
20
211.374
30
0
0
VERTEX
8
ENGRAVE
10
31.744
20
211.582
30
0
0
VERTEX
8
ENGRAVE
10
31.869
20
211.999
30
0
0
VERTEX
8
ENGRAVE
10
32.202
20
211.957
30
0
0
VERTEX
8
ENGRAVE
10
32.160
20
211.707
30
0
0
VERTEX
8
ENGRAVE
10
31.952
20
211.332
30
0
0
VERTEX
8
ENGRAVE
10
31.410
20
211.041
30
0
0
VERTEX
8
ENGRAVE
10
30.994
20
211.041
30
0
0
VERTEX
8
ENGRAVE
10
30.577
20
211.207
30
0
0
VERTEX
8
ENGRAVE
10
30.244
20
211.624
30
0
0
VERTEX
8
ENGRAVE
10
30.077
20
212.166
30
0
0
VERTEX
8
ENGRAVE
10
30.077
20
212.791
30
0
0
VERTEX
8
ENGRAVE
10
30.285
20
213.374
30
0
0
VERTEX
8
ENGRAVE
10
30.660
20
213.749
30
0
0
SEQEND
8
ENGRAVE
0
POLYLINE
8
ENGRAVE
66
1
70
1
10
0
20
0
30
0
0
VERTEX
8
ENGRAVE
10
33.452
20
213.874
30
0
0
VERTEX
8
ENGRAVE
10
33.952
20
213.832
30
0
0
VERTEX
8
ENGRAVE
10
34.285
20
213.666
30
0
0
VERTEX
8
ENGRAVE
10
34.535
20
213.332
30
0
0
VERTEX
8
ENGRAVE
10
34.577
20
212.957
30
0
0
VERTEX
8
ENGRAVE
10
34.535
20
212.749
30
0
0
VERTEX
8
ENGRAVE
10
34.285
20
212.332
30
0
0
VERTEX
8
ENGRAVE
10
33.119
20
211.374
30
0
0
VERTEX
8
ENGRAVE
10
34.577
20
211.374
30
0
0
VERTEX
8
ENGRAVE
10
34.577
20
211.082
30
0
0
VERTEX
8
ENGRAVE
10
32.619
20
211.082
30
0
0
VERTEX
8
ENGRAVE
10
32.619
20
211.374
30
0
0
VERTEX
8
ENGRAVE
10
33.785
20
212.249
30
0
0
VERTEX
8
ENGRAVE
10
34.119
20
212.624
30
0
0
VERTEX
8
ENGRAVE
10
34.202
20
212.832
30
0
0
VERTEX
8
ENGRAVE
10
34.160
20
213.332
30
0
0
VERTEX
8
ENGRAVE
10
33.785
20
213.582
30
0
0
VERTEX
8
ENGRAVE
10
33.410
20
213.582
30
0
0
VERTEX
8
ENGRAVE
10
33.160
20
213.457
30
0
0
VERTEX
8
ENGRAVE
10
32.952
20
213.124
30
0
0
VERTEX
8
ENGRAVE
10
32.952
20
212.957
30
0
0
VERTEX
8
ENGRAVE
10
32.619
20
213.041
30
0
0
VERTEX
8
ENGRAVE
10
32.785
20
213.499
30
0
0
VERTEX
8
ENGRAVE
10
32.994
20
213.707
30
0
0
SEQEND
8
ENGRAVE
0
POLYLINE
8
ENGRAVE
66
1
70
1
10
0
20
0
30
0
0
VERTEX
8
ENGRAVE
10
194.077
20
213.874
30
0
0
VERTEX
8
ENGRAVE
10
194.369
20
213.874
30
0
0
VERTEX
8
ENGRAVE
10
194.744
20
213.749
30
0
0
VERTEX
8
ENGRAVE
10
194.952
20
213.582
30
0
0
VERTEX
8
ENGRAVE
10
195.202
20
213.124
30
0
0
VERTEX
8
ENGRAVE
10
195.160
20
212.957
30
0
0
VERTEX
8
ENGRAVE
10
194.869
20
212.916
30
0
0
VERTEX
8
ENGRAVE
10
194.827
20
213.166
30
0
0
VERTEX
8
ENGRAVE
10
194.619
20
213.457
30
0
0
VERTEX
8
ENGRAVE
10
194.369
20
213.582
30
0
0
VERTEX
8
ENGRAVE
10
194.035
20
213.582
30
0
0
VERTEX
8
ENGRAVE
10
193.785
20
213.457
30
0
0
VERTEX
8
ENGRAVE
10
193.535
20
213.082
30
0
0
VERTEX
8
ENGRAVE
10
193.452
20
212.207
30
0
0
VERTEX
8
ENGRAVE
10
193.577
20
211.749
30
0
0
VERTEX
8
ENGRAVE
10
193.785
20
211.457
30
0
0
VERTEX
8
ENGRAVE
10
194.035
20
211.332
30
0
0
VERTEX
8
ENGRAVE
10
194.494
20
211.374
30
0
0
VERTEX
8
ENGRAVE
10
194.744
20
211.582
30
0
0
VERTEX
8
ENGRAVE
10
194.869
20
211.999
30
0
0
VERTEX
8
ENGRAVE
10
195.202
20
211.957
30
0
0
VERTEX
8
ENGRAVE
10
195.160
20
211.707
30
0
0
VERTEX
8
ENGRAVE
10
194.952
20
211.332
30
0
0
VERTEX
8
ENGRAVE
10
194.410
20
211.041
30
0
0
VERTEX
8
ENGRAVE
10
193.994
20
211.041
30
0
0
VERTEX
8
ENGRAVE
10
193.577
20
211.207
30
0
0
VERTEX
8
ENGRAVE
10
193.244
20
211.624
30
0
0
VERTEX
8
ENGRAVE
10
193.077
20
212.166
30
0
0
VERTEX
8
ENGRAVE
10
193.077
20
212.791
30
0
0
VERTEX
8
ENGRAVE
10
193.285
20
213.374
30
0
0
VERTEX
8
ENGRAVE
10
193.660
20
213.749
30
0
0
SEQEND
8
ENGRAVE
0
POLYLINE
8
ENGRAVE
66
1
70
1
10
0
20
0
30
0
0
VERTEX
8
ENGRAVE
10
196.452
20
213.874
30
0
0
VERTEX
8
ENGRAVE
10
196.952
20
213.832
30
0
0
VERTEX
8
ENGRAVE
10
197.285
20
213.666
30
0
0
VERTEX
8
ENGRAVE
10
197.535
20
213.332
30
0
0
VERTEX
8
ENGRAVE
10
197.577
20
212.957
30
0
0
VERTEX
8
ENGRAVE
10
197.535
20
212.749
30
0
0
VERTEX
8
ENGRAVE
10
197.285
20
212.332
30
0
0
VERTEX
8
ENGRAVE
10
196.119
20
211.374
30
0
0
VERTEX
8
ENGRAVE
10
197.577
20
211.374
30
0
0
VERTEX
8
ENGRAVE
10
197.577
20
211.082
30
0
0
VERTEX
8
ENGRAVE
10
195.619
20
211.082
30
0
0
VERTEX
8
ENGRAVE
10
195.619
20
211.374
30
0
0
VERTEX
8
ENGRAVE
10
196.785
20
212.249
30
0
0
VERTEX
8
ENGRAVE
10
197.119
20
212.624
30
0
0
VERTEX
8
ENGRAVE
10
197.202
20
212.832
30
0
0
VERTEX
8
ENGRAVE
10
197.160
20
213.332
30
0
0
VERTEX
8
ENGRAVE
10
196.785
20
213.582
30
0
0
VERTEX
8
ENGRAVE
10
196.410
20
213.582
30
0
0
VERTEX
8
ENGRAVE
10
196.160
20
213.457
30
0
0
VERTEX
8
ENGRAVE
10
195.952
20
213.124
30
0
0
VERTEX
8
ENGRAVE
10
195.952
20
212.957
30
0
0
VERTEX
8
ENGRAVE
10
195.619
20
213.041
30
0
0
VERTEX
8
ENGRAVE
10
195.785
20
213.499
30
0
0
VERTEX
8
ENGRAVE
10
195.994
20
213.707
30
0
0
SEQEND
8
ENGRAVE
0
POLYLINE
8
ENGRAVE
66
1
70
1
10
0
20
0
30
0
0
VERTEX
8
ENGRAVE
10
336.075
20
289.925
30
0
0
VERTEX
8
ENGRAVE
10
432.075
20
289.925
30
0
0
VERTEX
8
ENGRAVE
10
432.075
20
292.925
30
0
0
VERTEX
8
ENGRAVE
10
336.075
20
292.925
30
0
0
SEQEND
8
ENGRAVE
0
POLYLINE
8
ENGRAVE
66
1
70
1
10
0
20
0
30
0
0
VERTEX
8
ENGRAVE
10
386.736
20
232.477
30
0
0
VERTEX
8
ENGRAVE
10
387.320
20
232.477
30
0
0
VERTEX
8
ENGRAVE
10
387.976
20
232.258
30
0
0
VERTEX
8
ENGRAVE
10
388.486
20
231.821
30
0
0
VERTEX
8
ENGRAVE
10
388.705
20
231.383
30
0
0
VERTEX
8
ENGRAVE
10
388.632
20
231.238
30
0
0
VERTEX
8
ENGRAVE
10
388.122
20
231.165
30
0
0
VERTEX
8
ENGRAVE
10
388.049
20
231.529
30
0
0
VERTEX
8
ENGRAVE
10
387.320
20
231.967
30
0
0
VERTEX
8
ENGRAVE
10
386.591
20
231.967
30
0
0
VERTEX
8
ENGRAVE
10
386.007
20
231.529
30
0
0
VERTEX
8
ENGRAVE
10
385.934
20
231.165
30
0
0
VERTEX
8
ENGRAVE
10
386.226
20
230.654
30
0
0
VERTEX
8
ENGRAVE
10
388.122
20
230.144
30
0
0
VERTEX
8
ENGRAVE
10
388.778
20
229.560
30
0
0
VERTEX
8
ENGRAVE
10
388.851
20
228.540
30
0
0
VERTEX
8
ENGRAVE
10
388.705
20
228.175
30
0
0
VERTEX
8
ENGRAVE
10
388.341
20
227.810
30
0
0
VERTEX
8
ENGRAVE
10
387.611
20
227.519
30
0
0
VERTEX
8
ENGRAVE
10
386.153
20
227.665
30
0
0
VERTEX
8
ENGRAVE
10
385.424
20
228.248
30
0
0
VERTEX
8
ENGRAVE
10
385.132
20
228.758
30
0
0
VERTEX
8
ENGRAVE
10
385.132
20
228.904
30
0
0
VERTEX
8
ENGRAVE
10
385.716
20
228.977
30
0
0
VERTEX
8
ENGRAVE
10
386.080
20
228.321
30
0
0
VERTEX
8
ENGRAVE
10
386.809
20
228.029
30
0
0
VERTEX
8
ENGRAVE
10
387.684
20
228.102
30
0
0
VERTEX
8
ENGRAVE
10
388.195
20
228.540
30
0
0
VERTEX
8
ENGRAVE
10
388.268
20
228.977
30
0
0
VERTEX
8
ENGRAVE
10
388.049
20
229.415
30
0
0
VERTEX
8
ENGRAVE
10
387.684
20
229.633
30
0
0
VERTEX
8
ENGRAVE
10
386.080
20
229.998
30
0
0
VERTEX
8
ENGRAVE
10
385.424
20
230.654
30
0
0
VERTEX
8
ENGRAVE
10
385.351
20
231.310
30
0
0
VERTEX
8
ENGRAVE
10
385.497
20
231.821
30
0
0
VERTEX
8
ENGRAVE
10
385.861
20
232.185
30
0
0
SEQEND
8
ENGRAVE
0
POLYLINE
8
ENGRAVE
66
1
70
1
10
0
20
0
30
0
0
VERTEX
8
ENGRAVE
10
374.341
20
232.404
30
0
0
VERTEX
8
ENGRAVE
10
375.070
20
232.331
30
0
0
VERTEX
8
ENGRAVE
10
376.528
20
227.592
30
0
0
VERTEX
8
ENGRAVE
10
375.872
20
227.665
30
0
0
VERTEX
8
ENGRAVE
10
375.507
20
228.977
30
0
0
VERTEX
8
ENGRAVE
10
373.684
20
228.977
30
0
0
VERTEX
8
ENGRAVE
10
373.320
20
227.665
30
0
0
VERTEX
8
ENGRAVE
10
372.736
20
227.592
30
0
0
SEQEND
8
ENGRAVE
0
POLYLINE
8
ENGRAVE
66
1
70
1
10
0
20
0
30
0
0
VERTEX
8
ENGRAVE
10
377.184
20
232.404
30
0
0
VERTEX
8
ENGRAVE
10
379.664
20
232.331
30
0
0
VERTEX
8
ENGRAVE
10
380.393
20
231.821
30
0
0
VERTEX
8
ENGRAVE
10
380.611
20
231.092
30
0
0
VERTEX
8
ENGRAVE
10
380.539
20
230.581
30
0
0
VERTEX
8
ENGRAVE
10
380.101
20
229.998
30
0
0
VERTEX
8
ENGRAVE
10
379.736
20
229.852
30
0
0
VERTEX
8
ENGRAVE
10
379.736
20
229.633
30
0
0
VERTEX
8
ENGRAVE
10
380.611
20
227.592
30
0
0
VERTEX
8
ENGRAVE
10
379.955
20
227.592
30
0
0
VERTEX
8
ENGRAVE
10
379.153
20
229.633
30
0
0
VERTEX
8
ENGRAVE
10
377.768
20
229.633
30
0
0
VERTEX
8
ENGRAVE
10
377.768
20
227.592
30
0
0
VERTEX
8
ENGRAVE
10
377.184
20
227.592
30
0
0
SEQEND
8
ENGRAVE
0
POLYLINE
8
ENGRAVE
66
1
70
1
10
0
20
0
30
0
0
VERTEX
8
ENGRAVE
10
381.486
20
232.404
30
0
0
VERTEX
8
ENGRAVE
10
384.549
20
232.404
30
0
0
VERTEX
8
ENGRAVE
10
384.549
20
231.894
30
0
0
VERTEX
8
ENGRAVE
10
382.143
20
231.894
30
0
0
VERTEX
8
ENGRAVE
10
382.143
20
230.363
30
0
0
VERTEX
8
ENGRAVE
10
384.039
20
230.363
30
0
0
VERTEX
8
ENGRAVE
10
384.039
20
229.852
30
0
0
VERTEX
8
ENGRAVE
10
382.143
20
229.852
30
0
0
VERTEX
8
ENGRAVE
10
382.143
20
228.102
30
0
0
VERTEX
8
ENGRAVE
10
384.622
20
228.102
30
0
0
VERTEX
8
ENGRAVE
10
384.622
20
227.592
30
0
0
VERTEX
8
ENGRAVE
10
381.486
20
227.592
30
0
0
SEQEND
8
ENGRAVE
0
POLYLINE
8
ENGRAVE
66
1
70
1
10
0
20
0
30
0
0
VERTEX
8
ENGRAVE
10
393.372
20
232.404
30
0
0
VERTEX
8
ENGRAVE
10
393.809
20
232.404
30
0
0
VERTEX
8
ENGRAVE
10
393.809
20
228.029
30
0
0
VERTEX
8
ENGRAVE
10
395.195
20
228.029
30
0
0
VERTEX
8
ENGRAVE
10
395.195
20
227.592
30
0
0
VERTEX
8
ENGRAVE
10
391.841
20
227.592
30
0
0
VERTEX
8
ENGRAVE
10
391.841
20
228.029
30
0
0
VERTEX
8
ENGRAVE
10
393.226
20
228.029
30
0
0
VERTEX
8
ENGRAVE
10
393.226
20
231.602
30
0
0
VERTEX
8
ENGRAVE
10
392.059
20
230.654
30
0
0
VERTEX
8
ENGRAVE
10
391.914
20
230.654
30
0
0
VERTEX
8
ENGRAVE
10
391.914
20
231.238
30
0
0
VERTEX
8
ENGRAVE
10
392.789
20
231.748
30
0
0
SEQEND
8
ENGRAVE
0
POLYLINE
8
ENGRAVE
66
1
70
1
10
0
20
0
30
0
0
VERTEX
8
ENGRAVE
10
377.841
20
231.894
30
0
0
VERTEX
8
ENGRAVE
10
377.768
20
230.144
30
0
0
VERTEX
8
ENGRAVE
10
379.445
20
230.217
30
0
0
VERTEX
8
ENGRAVE
10
379.882
20
230.581
30
0
0
VERTEX
8
ENGRAVE
10
379.955
20
231.310
30
0
0
VERTEX
8
ENGRAVE
10
379.736
20
231.675
30
0
0
VERTEX
8
ENGRAVE
10
379.153
20
231.894
30
0
0
SEQEND
8
ENGRAVE
0
POLYLINE
8
ENGRAVE
66
1
70
1
10
0
20
0
30
0
0
VERTEX
8
ENGRAVE
10
374.632
20
231.675
30
0
0
VERTEX
8
ENGRAVE
10
373.903
20
229.488
30
0
0
VERTEX
8
ENGRAVE
10
375.289
20
229.488
30
0
0
SEQEND
8
ENGRAVE
0
POLYLINE
8
ENGRAVE
66
1
70
1
10
0
20
0
30
0
0
VERTEX
8
ENGRAVE
10
389.216
20
229.633
30
0
0
VERTEX
8
ENGRAVE
10
390.674
20
229.633
30
0
0
VERTEX
8
ENGRAVE
10
390.674
20
229.196
30
0
0
VERTEX
8
ENGRAVE
10
389.143
20
229.196
30
0
0
SEQEND
8
ENGRAVE
0
POLYLINE
8
SCORE
66
1
70
1
10
0
20
0
30
0
0
VERTEX
8
SCORE
10
270.775
20
145.225
30
0
0
VERTEX
8
SCORE
10
272.954
20
145.130
30
0
0
VERTEX
8
SCORE
10
275.116
20
144.845
30
0
0
VERTEX
8
SCORE
10
277.245
20
144.373
30
0
0
VERTEX
8
SCORE
10
279.326
20
143.717
30
0
0
VERTEX
8
SCORE
10
281.340
20
142.883
30
0
0
VERTEX
8
SCORE
10
283.275
20
141.876
30
0
0
VERTEX
8
SCORE
10
285.114
20
140.704
30
0
0
VERTEX
8
SCORE
10
286.845
20
139.376
30
0
0
VERTEX
8
SCORE
10
288.453
20
137.903
30
0
0
VERTEX
8
SCORE
10
289.926
20
136.295
30
0
0
VERTEX
8
SCORE
10
291.254
20
134.564
30
0
0
VERTEX
8
SCORE
10
292.426
20
132.725
30
0
0
VERTEX
8
SCORE
10
293.433
20
130.790
30
0
0
VERTEX
8
SCORE
10
294.267
20
128.776
30
0
0
VERTEX
8
SCORE
10
294.923
20
126.695
30
0
0
VERTEX
8
SCORE
10
295.395
20
124.566
30
0
0
VERTEX
8
SCORE
10
295.680
20
122.404
30
0
0
VERTEX
8
SCORE
10
295.775
20
120.225
30
0
0
VERTEX
8
SCORE
10
295.680
20
118.046
30
0
0
VERTEX
8
SCORE
10
295.395
20
115.884
30
0
0
VERTEX
8
SCORE
10
294.923
20
113.755
30
0
0
VERTEX
8
SCORE
10
294.267
20
111.674
30
0
0
VERTEX
8
SCORE
10
293.433
20
109.660
30
0
0
VERTEX
8
SCORE
10
292.426
20
107.725
30
0
0
VERTEX
8
SCORE
10
291.254
20
105.886
30
0
0
VERTEX
8
SCORE
10
289.926
20
104.155
30
0
0
VERTEX
8
SCORE
10
288.453
20
102.547
30
0
0
VERTEX
8
SCORE
10
286.845
20
101.074
30
0
0
VERTEX
8
SCORE
10
285.114
20
99.746
30
0
0
VERTEX
8
SCORE
10
283.275
20
98.574
30
0
0
VERTEX
8
SCORE
10
281.340
20
97.567
30
0
0
VERTEX
8
SCORE
10
279.326
20
96.733
30
0
0
VERTEX
8
SCORE
10
277.245
20
96.077
30
0
0
VERTEX
8
SCORE
10
275.116
20
95.605
30
0
0
VERTEX
8
SCORE
10
272.954
20
95.320
30
0
0
VERTEX
8
SCORE
10
270.775
20
95.225
30
0
0
VERTEX
8
SCORE
10
268.596
20
95.320
30
0
0
VERTEX
8
SCORE
10
266.434
20
95.605
30
0
0
VERTEX
8
SCORE
10
264.305
20
96.077
30
0
0
VERTEX
8
SCORE
10
262.224
20
96.733
30
0
0
VERTEX
8
SCORE
10
260.210
20
97.567
30
0
0
VERTEX
8
SCORE
10
258.275
20
98.574
30
0
0
VERTEX
8
SCORE
10
256.436
20
99.746
30
0
0
VERTEX
8
SCORE
10
254.705
20
101.074
30
0
0
VERTEX
8
SCORE
10
253.097
20
102.547
30
0
0
VERTEX
8
SCORE
10
251.624
20
104.155
30
0
0
VERTEX
8
SCORE
10
250.296
20
105.886
30
0
0
VERTEX
8
SCORE
10
249.124
20
107.725
30
0
0
VERTEX
8
SCORE
10
248.117
20
109.660
30
0
0
VERTEX
8
SCORE
10
247.283
20
111.674
30
0
0
VERTEX
8
SCORE
10
246.627
20
113.755
30
0
0
VERTEX
8
SCORE
10
246.155
20
115.884
30
0
0
VERTEX
8
SCORE
10
245.870
20
118.046
30
0
0
VERTEX
8
SCORE
10
245.775
20
120.225
30
0
0
VERTEX
8
SCORE
10
245.870
20
122.404
30
0
0
VERTEX
8
SCORE
10
246.155
20
124.566
30
0
0
VERTEX
8
SCORE
10
246.627
20
126.695
30
0
0
VERTEX
8
SCORE
10
247.283
20
128.776
30
0
0
VERTEX
8
SCORE
10
248.117
20
130.790
30
0
0
VERTEX
8
SCORE
10
249.124
20
132.725
30
0
0
VERTEX
8
SCORE
10
250.296
20
134.564
30
0
0
VERTEX
8
SCORE
10
251.624
20
136.295
30
0
0
VERTEX
8
SCORE
10
253.097
20
137.903
30
0
0
VERTEX
8
SCORE
10
254.705
20
139.376
30
0
0
VERTEX
8
SCORE
10
256.436
20
140.704
30
0
0
VERTEX
8
SCORE
10
258.275
20
141.876
30
0
0
VERTEX
8
SCORE
10
260.210
20
142.883
30
0
0
VERTEX
8
SCORE
10
262.224
20
143.717
30
0
0
VERTEX
8
SCORE
10
264.305
20
144.373
30
0
0
VERTEX
8
SCORE
10
266.434
20
144.845
30
0
0
VERTEX
8
SCORE
10
268.596
20
145.130
30
0
0
SEQEND
8
SCORE
0
POLYLINE
8
SCORE
66
1
70
1
10
0
20
0
30
0
0
VERTEX
8
SCORE
10
343.275
20
93.225
30
0
0
VERTEX
8
SCORE
10
343.370
20
95.404
30
0
0
VERTEX
8
SCORE
10
343.655
20
97.566
30
0
0
VERTEX
8
SCORE
10
344.127
20
99.695
30
0
0
VERTEX
8
SCORE
10
344.783
20
101.776
30
0
0
VERTEX
8
SCORE
10
345.617
20
103.790
30
0
0
VERTEX
8
SCORE
10
346.624
20
105.725
30
0
0
VERTEX
8
SCORE
10
347.796
20
107.564
30
0
0
VERTEX
8
SCORE
10
349.124
20
109.295
30
0
0
VERTEX
8
SCORE
10
350.597
20
110.903
30
0
0
VERTEX
8
SCORE
10
352.205
20
112.376
30
0
0
VERTEX
8
SCORE
10
353.936
20
113.704
30
0
0
VERTEX
8
SCORE
10
355.775
20
114.876
30
0
0
VERTEX
8
SCORE
10
357.710
20
115.883
30
0
0
VERTEX
8
SCORE
10
359.724
20
116.717
30
0
0
VERTEX
8
SCORE
10
361.805
20
117.373
30
0
0
VERTEX
8
SCORE
10
363.934
20
117.845
30
0
0
VERTEX
8
SCORE
10
366.096
20
118.130
30
0
0
VERTEX
8
SCORE
10
368.275
20
118.225
30
0
0
VERTEX
8
SCORE
10
370.454
20
118.130
30
0
0
VERTEX
8
SCORE
10
372.616
20
117.845
30
0
0
VERTEX
8
SCORE
10
374.745
20
117.373
30
0
0
VERTEX
8
SCORE
10
376.826
20
116.717
30
0
0
VERTEX
8
SCORE
10
378.840
20
115.883
30
0
0
VERTEX
8
SCORE
10
380.775
20
114.876
30
0
0
VERTEX
8
SCORE
10
382.614
20
113.704
30
0
0
VERTEX
8
SCORE
10
384.345
20
112.376
30
0
0
VERTEX
8
SCORE
10
385.953
20
110.903
30
0
0
VERTEX
8
SCORE
10
387.426
20
109.295
30
0
0
VERTEX
8
SCORE
10
388.754
20
107.564
30
0
0
VERTEX
8
SCORE
10
389.926
20
105.725
30
0
0
VERTEX
8
SCORE
10
390.933
20
103.790
30
0
0
VERTEX
8
SCORE
10
391.767
20
101.776
30
0
0
VERTEX
8
SCORE
10
392.423
20
99.695
30
0
0
VERTEX
8
SCORE
10
392.895
20
97.566
30
0
0
VERTEX
8
SCORE
10
393.180
20
95.404
30
0
0
VERTEX
8
SCORE
10
393.275
20
93.225
30
0
0
VERTEX
8
SCORE
10
393.180
20
91.046
30
0
0
VERTEX
8
SCORE
10
392.895
20
88.884
30
0
0
VERTEX
8
SCORE
10
392.423
20
86.755
30
0
0
VERTEX
8
SCORE
10
391.767
20
84.674
30
0
0
VERTEX
8
SCORE
10
390.933
20
82.660
30
0
0
VERTEX
8
SCORE
10
389.926
20
80.725
30
0
0
VERTEX
8
SCORE
10
388.754
20
78.886
30
0
0
VERTEX
8
SCORE
10
387.426
20
77.155
30
0
0
VERTEX
8
SCORE
10
385.953
20
75.547
30
0
0
VERTEX
8
SCORE
10
384.345
20
74.074
30
0
0
VERTEX
8
SCORE
10
382.614
20
72.746
30
0
0
VERTEX
8
SCORE
10
380.775
20
71.574
30
0
0
VERTEX
8
SCORE
10
378.840
20
70.567
30
0
0
VERTEX
8
SCORE
10
376.826
20
69.733
30
0
0
VERTEX
8
SCORE
10
374.745
20
69.077
30
0
0
VERTEX
8
SCORE
10
372.616
20
68.605
30
0
0
VERTEX
8
SCORE
10
370.454
20
68.320
30
0
0
VERTEX
8
SCORE
10
368.275
20
68.225
30
0
0
VERTEX
8
SCORE
10
366.096
20
68.320
30
0
0
VERTEX
8
SCORE
10
363.934
20
68.605
30
0
0
VERTEX
8
SCORE
10
361.805
20
69.077
30
0
0
VERTEX
8
SCORE
10
359.724
20
69.733
30
0
0
VERTEX
8
SCORE
10
357.710
20
70.567
30
0
0
VERTEX
8
SCORE
10
355.775
20
71.574
30
0
0
VERTEX
8
SCORE
10
353.936
20
72.746
30
0
0
VERTEX
8
SCORE
10
352.205
20
74.074
30
0
0
VERTEX
8
SCORE
10
350.597
20
75.547
30
0
0
VERTEX
8
SCORE
10
349.124
20
77.155
30
0
0
VERTEX
8
SCORE
10
347.796
20
78.886
30
0
0
VERTEX
8
SCORE
10
346.624
20
80.725
30
0
0
VERTEX
8
SCORE
10
345.617
20
82.660
30
0
0
VERTEX
8
SCORE
10
344.783
20
84.674
30
0
0
VERTEX
8
SCORE
10
344.127
20
86.755
30
0
0
VERTEX
8
SCORE
10
343.655
20
88.884
30
0
0
VERTEX
8
SCORE
10
343.370
20
91.046
30
0
0
SEQEND
8
SCORE
0
POLYLINE
8
SCORE
66
1
70
1
10
0
20
0
30
0
0
VERTEX
8
SCORE
10
29.775
20
48.225
30
0
0
VERTEX
8
SCORE
10
29.870
20
50.404
30
0
0
VERTEX
8
SCORE
10
30.155
20
52.566
30
0
0
VERTEX
8
SCORE
10
30.627
20
54.695
30
0
0
VERTEX
8
SCORE
10
31.283
20
56.776
30
0
0
VERTEX
8
SCORE
10
32.117
20
58.790
30
0
0
VERTEX
8
SCORE
10
33.124
20
60.725
30
0
0
VERTEX
8
SCORE
10
34.296
20
62.564
30
0
0
VERTEX
8
SCORE
10
35.624
20
64.295
30
0
0
VERTEX
8
SCORE
10
37.097
20
65.903
30
0
0
VERTEX
8
SCORE
10
38.705
20
67.376
30
0
0
VERTEX
8
SCORE
10
40.436
20
68.704
30
0
0
VERTEX
8
SCORE
10
42.275
20
69.876
30
0
0
VERTEX
8
SCORE
10
44.210
20
70.883
30
0
0
VERTEX
8
SCORE
10
46.224
20
71.717
30
0
0
VERTEX
8
SCORE
10
48.305
20
72.373
30
0
0
VERTEX
8
SCORE
10
50.434
20
72.845
30
0
0
VERTEX
8
SCORE
10
52.596
20
73.130
30
0
0
VERTEX
8
SCORE
10
54.775
20
73.225
30
0
0
VERTEX
8
SCORE
10
56.954
20
73.130
30
0
0
VERTEX
8
SCORE
10
59.116
20
72.845
30
0
0
VERTEX
8
SCORE
10
61.245
20
72.373
30
0
0
VERTEX
8
SCORE
10
63.326
20
71.717
30
0
0
VERTEX
8
SCORE
10
65.340
20
70.883
30
0
0
VERTEX
8
SCORE
10
67.275
20
69.876
30
0
0
VERTEX
8
SCORE
10
69.114
20
68.704
30
0
0
VERTEX
8
SCORE
10
70.845
20
67.376
30
0
0
VERTEX
8
SCORE
10
72.453
20
65.903
30
0
0
VERTEX
8
SCORE
10
73.926
20
64.295
30
0
0
VERTEX
8
SCORE
10
75.254
20
62.564
30
0
0
VERTEX
8
SCORE
10
76.426
20
60.725
30
0
0
VERTEX
8
SCORE
10
77.433
20
58.790
30
0
0
VERTEX
8
SCORE
10
78.267
20
56.776
30
0
0
VERTEX
8
SCORE
10
78.923
20
54.695
30
0
0
VERTEX
8
SCORE
10
79.395
20
52.566
30
0
0
VERTEX
8
SCORE
10
79.680
20
50.404
30
0
0
VERTEX
8
SCORE
10
79.775
20
48.225
30
0
0
VERTEX
8
SCORE
10
79.680
20
46.046
30
0
0
VERTEX
8
SCORE
10
79.395
20
43.884
30
0
0
VERTEX
8
SCORE
10
78.923
20
41.755
30
0
0
VERTEX
8
SCORE
10
78.267
20
39.674
30
0
0
VERTEX
8
SCORE
10
77.433
20
37.660
30
0
0
VERTEX
8
SCORE
10
76.426
20
35.725
30
0
0
VERTEX
8
SCORE
10
75.254
20
33.886
30
0
0
VERTEX
8
SCORE
10
73.926
20
32.155
30
0
0
VERTEX
8
SCORE
10
72.453
20
30.547
30
0
0
VERTEX
8
SCORE
10
70.845
20
29.074
30
0
0
VERTEX
8
SCORE
10
69.114
20
27.746
30
0
0
VERTEX
8
SCORE
10
67.275
20
26.574
30
0
0
VERTEX
8
SCORE
10
65.340
20
25.567
30
0
0
VERTEX
8
SCORE
10
63.326
20
24.733
30
0
0
VERTEX
8
SCORE
10
61.245
20
24.077
30
0
0
VERTEX
8
SCORE
10
59.116
20
23.605
30
0
0
VERTEX
8
SCORE
10
56.954
20
23.320
30
0
0
VERTEX
8
SCORE
10
54.775
20
23.225
30
0
0
VERTEX
8
SCORE
10
52.596
20
23.320
30
0
0
VERTEX
8
SCORE
10
50.434
20
23.605
30
0
0
VERTEX
8
SCORE
10
48.305
20
24.077
30
0
0
VERTEX
8
SCORE
10
46.224
20
24.733
30
0
0
VERTEX
8
SCORE
10
44.210
20
25.567
30
0
0
VERTEX
8
SCORE
10
42.275
20
26.574
30
0
0
VERTEX
8
SCORE
10
40.436
20
27.746
30
0
0
VERTEX
8
SCORE
10
38.705
20
29.074
30
0
0
VERTEX
8
SCORE
10
37.097
20
30.547
30
0
0
VERTEX
8
SCORE
10
35.624
20
32.155
30
0
0
VERTEX
8
SCORE
10
34.296
20
33.886
30
0
0
VERTEX
8
SCORE
10
33.124
20
35.725
30
0
0
VERTEX
8
SCORE
10
32.117
20
37.660
30
0
0
VERTEX
8
SCORE
10
31.283
20
39.674
30
0
0
VERTEX
8
SCORE
10
30.627
20
41.755
30
0
0
VERTEX
8
SCORE
10
30.155
20
43.884
30
0
0
VERTEX
8
SCORE
10
29.870
20
46.046
30
0
0
SEQEND
8
SCORE
0
POLYLINE
8
ENGRAVE
66
1
70
1
10
0
20
0
30
0
0
VERTEX
8
ENGRAVE
10
161.997
20
62.206
30
0
0
VERTEX
8
ENGRAVE
10
162.747
20
62.206
30
0
0
VERTEX
8
ENGRAVE
10
163.591
20
61.925
30
0
0
VERTEX
8
ENGRAVE
10
164.247
20
61.363
30
0
0
VERTEX
8
ENGRAVE
10
164.528
20
60.800
30
0
0
VERTEX
8
ENGRAVE
10
164.434
20
60.613
30
0
0
VERTEX
8
ENGRAVE
10
163.778
20
60.519
30
0
0
VERTEX
8
ENGRAVE
10
163.684
20
60.988
30
0
0
VERTEX
8
ENGRAVE
10
162.747
20
61.550
30
0
0
VERTEX
8
ENGRAVE
10
161.809
20
61.550
30
0
0
VERTEX
8
ENGRAVE
10
161.059
20
60.988
30
0
0
VERTEX
8
ENGRAVE
10
160.966
20
60.519
30
0
0
VERTEX
8
ENGRAVE
10
161.341
20
59.863
30
0
0
VERTEX
8
ENGRAVE
10
163.778
20
59.206
30
0
0
VERTEX
8
ENGRAVE
10
164.622
20
58.456
30
0
0
VERTEX
8
ENGRAVE
10
164.716
20
57.144
30
0
0
VERTEX
8
ENGRAVE
10
164.528
20
56.675
30
0
0
VERTEX
8
ENGRAVE
10
164.059
20
56.206
30
0
0
VERTEX
8
ENGRAVE
10
163.122
20
55.831
30
0
0
VERTEX
8
ENGRAVE
10
161.247
20
56.019
30
0
0
VERTEX
8
ENGRAVE
10
160.309
20
56.769
30
0
0
VERTEX
8
ENGRAVE
10
159.934
20
57.425
30
0
0
VERTEX
8
ENGRAVE
10
159.934
20
57.613
30
0
0
VERTEX
8
ENGRAVE
10
160.684
20
57.706
30
0
0
VERTEX
8
ENGRAVE
10
161.153
20
56.863
30
0
0
VERTEX
8
ENGRAVE
10
162.091
20
56.488
30
0
0
VERTEX
8
ENGRAVE
10
163.216
20
56.581
30
0
0
VERTEX
8
ENGRAVE
10
163.872
20
57.144
30
0
0
VERTEX
8
ENGRAVE
10
163.966
20
57.706
30
0
0
VERTEX
8
ENGRAVE
10
163.684
20
58.269
30
0
0
VERTEX
8
ENGRAVE
10
163.216
20
58.550
30
0
0
VERTEX
8
ENGRAVE
10
161.153
20
59.019
30
0
0
VERTEX
8
ENGRAVE
10
160.309
20
59.863
30
0
0
VERTEX
8
ENGRAVE
10
160.216
20
60.706
30
0
0
VERTEX
8
ENGRAVE
10
160.403
20
61.363
30
0
0
VERTEX
8
ENGRAVE
10
160.872
20
61.831
30
0
0
SEQEND
8
ENGRAVE
0
POLYLINE
8
ENGRAVE
66
1
70
1
10
0
20
0
30
0
0
VERTEX
8
ENGRAVE
10
146.059
20
62.113
30
0
0
VERTEX
8
ENGRAVE
10
146.997
20
62.019
30
0
0
VERTEX
8
ENGRAVE
10
148.872
20
55.925
30
0
0
VERTEX
8
ENGRAVE
10
148.028
20
56.019
30
0
0
VERTEX
8
ENGRAVE
10
147.559
20
57.706
30
0
0
VERTEX
8
ENGRAVE
10
145.216
20
57.706
30
0
0
VERTEX
8
ENGRAVE
10
144.747
20
56.019
30
0
0
VERTEX
8
ENGRAVE
10
143.997
20
55.925
30
0
0
SEQEND
8
ENGRAVE
0
POLYLINE
8
ENGRAVE
66
1
70
1
10
0
20
0
30
0
0
VERTEX
8
ENGRAVE
10
149.716
20
62.113
30
0
0
VERTEX
8
ENGRAVE
10
152.903
20
62.019
30
0
0
VERTEX
8
ENGRAVE
10
153.841
20
61.363
30
0
0
VERTEX
8
ENGRAVE
10
154.122
20
60.425
30
0
0
VERTEX
8
ENGRAVE
10
154.028
20
59.769
30
0
0
VERTEX
8
ENGRAVE
10
153.466
20
59.019
30
0
0
VERTEX
8
ENGRAVE
10
152.997
20
58.831
30
0
0
VERTEX
8
ENGRAVE
10
152.997
20
58.550
30
0
0
VERTEX
8
ENGRAVE
10
154.122
20
55.925
30
0
0
VERTEX
8
ENGRAVE
10
153.278
20
55.925
30
0
0
VERTEX
8
ENGRAVE
10
152.247
20
58.550
30
0
0
VERTEX
8
ENGRAVE
10
150.466
20
58.550
30
0
0
VERTEX
8
ENGRAVE
10
150.466
20
55.925
30
0
0
VERTEX
8
ENGRAVE
10
149.716
20
55.925
30
0
0
SEQEND
8
ENGRAVE
0
POLYLINE
8
ENGRAVE
66
1
70
1
10
0
20
0
30
0
0
VERTEX
8
ENGRAVE
10
155.247
20
62.113
30
0
0
VERTEX
8
ENGRAVE
10
159.184
20
62.113
30
0
0
VERTEX
8
ENGRAVE
10
159.184
20
61.456
30
0
0
VERTEX
8
ENGRAVE
10
156.091
20
61.456
30
0
0
VERTEX
8
ENGRAVE
10
156.091
20
59.488
30
0
0
VERTEX
8
ENGRAVE
10
158.528
20
59.488
30
0
0
VERTEX
8
ENGRAVE
10
158.528
20
58.831
30
0
0
VERTEX
8
ENGRAVE
10
156.091
20
58.831
30
0
0
VERTEX
8
ENGRAVE
10
156.091
20
56.581
30
0
0
VERTEX
8
ENGRAVE
10
159.278
20
56.581
30
0
0
VERTEX
8
ENGRAVE
10
159.278
20
55.925
30
0
0
VERTEX
8
ENGRAVE
10
155.247
20
55.925
30
0
0
SEQEND
8
ENGRAVE
0
POLYLINE
8
ENGRAVE
66
1
70
1
10
0
20
0
30
0
0
VERTEX
8
ENGRAVE
10
170.528
20
62.113
30
0
0
VERTEX
8
ENGRAVE
10
171.091
20
62.113
30
0
0
VERTEX
8
ENGRAVE
10
171.091
20
56.488
30
0
0
VERTEX
8
ENGRAVE
10
172.872
20
56.488
30
0
0
VERTEX
8
ENGRAVE
10
172.872
20
55.925
30
0
0
VERTEX
8
ENGRAVE
10
168.559
20
55.925
30
0
0
VERTEX
8
ENGRAVE
10
168.559
20
56.488
30
0
0
VERTEX
8
ENGRAVE
10
170.341
20
56.488
30
0
0
VERTEX
8
ENGRAVE
10
170.341
20
61.081
30
0
0
VERTEX
8
ENGRAVE
10
168.841
20
59.863
30
0
0
VERTEX
8
ENGRAVE
10
168.653
20
59.863
30
0
0
VERTEX
8
ENGRAVE
10
168.653
20
60.613
30
0
0
VERTEX
8
ENGRAVE
10
169.778
20
61.269
30
0
0
SEQEND
8
ENGRAVE
0
POLYLINE
8
ENGRAVE
66
1
70
1
10
0
20
0
30
0
0
VERTEX
8
ENGRAVE
10
150.559
20
61.456
30
0
0
VERTEX
8
ENGRAVE
10
150.466
20
59.206
30
0
0
VERTEX
8
ENGRAVE
10
152.622
20
59.300
30
0
0
VERTEX
8
ENGRAVE
10
153.184
20
59.769
30
0
0
VERTEX
8
ENGRAVE
10
153.278
20
60.706
30
0
0
VERTEX
8
ENGRAVE
10
152.997
20
61.175
30
0
0
VERTEX
8
ENGRAVE
10
152.247
20
61.456
30
0
0
SEQEND
8
ENGRAVE
0
POLYLINE
8
ENGRAVE
66
1
70
1
10
0
20
0
30
0
0
VERTEX
8
ENGRAVE
10
146.434
20
61.175
30
0
0
VERTEX
8
ENGRAVE
10
145.497
20
58.363
30
0
0
VERTEX
8
ENGRAVE
10
147.278
20
58.363
30
0
0
SEQEND
8
ENGRAVE
0
POLYLINE
8
ENGRAVE
66
1
70
1
10
0
20
0
30
0
0
VERTEX
8
ENGRAVE
10
165.184
20
58.550
30
0
0
VERTEX
8
ENGRAVE
10
167.059
20
58.550
30
0
0
VERTEX
8
ENGRAVE
10
167.059
20
57.988
30
0
0
VERTEX
8
ENGRAVE
10
165.091
20
57.988
30
0
0
SEQEND
8
ENGRAVE
0
POLYLINE
8
ENGRAVE
66
1
70
1
10
0
20
0
30
0
0
VERTEX
8
ENGRAVE
10
349.470
20
28.642
30
0
0
VERTEX
8
ENGRAVE
10
349.803
20
28.642
30
0
0
VERTEX
8
ENGRAVE
10
349.803
20
27.517
30
0
0
VERTEX
8
ENGRAVE
10
351.095
20
27.517
30
0
0
VERTEX
8
ENGRAVE
10
351.095
20
28.642
30
0
0
VERTEX
8
ENGRAVE
10
351.428
20
28.642
30
0
0
VERTEX
8
ENGRAVE
10
351.428
20
25.892
30
0
0
VERTEX
8
ENGRAVE
10
351.095
20
25.892
30
0
0
VERTEX
8
ENGRAVE
10
351.095
20
27.183
30
0
0
VERTEX
8
ENGRAVE
10
349.803
20
27.183
30
0
0
VERTEX
8
ENGRAVE
10
349.803
20
25.892
30
0
0
VERTEX
8
ENGRAVE
10
349.470
20
25.892
30
0
0
SEQEND
8
ENGRAVE
0
POLYLINE
8
ENGRAVE
66
1
70
1
10
0
20
0
30
0
0
VERTEX
8
ENGRAVE
10
352.970
20
28.642
30
0
0
VERTEX
8
ENGRAVE
10
353.262
20
28.600
30
0
0
VERTEX
8
ENGRAVE
10
353.262
20
26.142
30
0
0
VERTEX
8
ENGRAVE
10
354.012
20
26.142
30
0
0
VERTEX
8
ENGRAVE
10
354.012
20
25.892
30
0
0
VERTEX
8
ENGRAVE
10
352.095
20
25.892
30
0
0
VERTEX
8
ENGRAVE
10
352.095
20
26.142
30
0
0
VERTEX
8
ENGRAVE
10
352.887
20
26.142
30
0
0
VERTEX
8
ENGRAVE
10
352.887
20
28.183
30
0
0
VERTEX
8
ENGRAVE
10
352.220
20
27.642
30
0
0
VERTEX
8
ENGRAVE
10
352.137
20
27.642
30
0
0
VERTEX
8
ENGRAVE
10
352.137
20
27.975
30
0
0
VERTEX
8
ENGRAVE
10
352.595
20
28.225
30
0
0
SEQEND
8
ENGRAVE
0
POLYLINE
8
ENGRAVE
66
1
70
1
10
0
20
0
30
0
0
VERTEX
8
ENGRAVE
10
354.512
20
28.642
30
0
0
VERTEX
8
ENGRAVE
10
356.303
20
28.642
30
0
0
VERTEX
8
ENGRAVE
10
356.262
20
28.308
30
0
0
VERTEX
8
ENGRAVE
10
355.928
20
27.933
30
0
0
VERTEX
8
ENGRAVE
10
355.553
20
27.183
30
0
0
VERTEX
8
ENGRAVE
10
355.387
20
26.600
30
0
0
VERTEX
8
ENGRAVE
10
355.345
20
25.892
30
0
0
VERTEX
8
ENGRAVE
10
354.970
20
25.892
30
0
0
VERTEX
8
ENGRAVE
10
355.053
20
26.642
30
0
0
VERTEX
8
ENGRAVE
10
355.220
20
27.183
30
0
0
VERTEX
8
ENGRAVE
10
355.512
20
27.767
30
0
0
VERTEX
8
ENGRAVE
10
355.928
20
28.350
30
0
0
VERTEX
8
ENGRAVE
10
354.470
20
28.350
30
0
0
SEQEND
8
ENGRAVE
0
POLYLINE
8
CUT
66
1
70
1
10
0
20
0
30
0
0
VERTEX
8
CUT
10
23.701
20
249.625
30
0
0
VERTEX
8
CUT
10
23.841
20
250.692
30
0
0
VERTEX
8
CUT
10
24.253
20
251.687
30
0
0
VERTEX
8
CUT
10
24.909
20
252.541
30
0
0
VERTEX
8
CUT
10
25.763
20
253.197
30
0
0
VERTEX
8
CUT
10
26.758
20
253.609
30
0
0
VERTEX
8
CUT
10
27.825
20
253.749
30
0
0
VERTEX
8
CUT
10
28.892
20
253.609
30
0
0
VERTEX
8
CUT
10
29.887
20
253.197
30
0
0
VERTEX
8
CUT
10
30.741
20
252.541
30
0
0
VERTEX
8
CUT
10
31.397
20
251.687
30
0
0
VERTEX
8
CUT
10
31.809
20
250.692
30
0
0
VERTEX
8
CUT
10
31.949
20
249.625
30
0
0
VERTEX
8
CUT
10
31.809
20
248.558
30
0
0
VERTEX
8
CUT
10
31.397
20
247.563
30
0
0
VERTEX
8
CUT
10
30.741
20
246.709
30
0
0
VERTEX
8
CUT
10
29.887
20
246.053
30
0
0
VERTEX
8
CUT
10
28.892
20
245.641
30
0
0
VERTEX
8
CUT
10
27.825
20
245.501
30
0
0
VERTEX
8
CUT
10
26.758
20
245.641
30
0
0
VERTEX
8
CUT
10
25.763
20
246.053
30
0
0
VERTEX
8
CUT
10
24.909
20
246.709
30
0
0
VERTEX
8
CUT
10
24.253
20
247.563
30
0
0
VERTEX
8
CUT
10
23.841
20
248.558
30
0
0
SEQEND
8
CUT
0
POLYLINE
8
CUT
66
1
70
1
10
0
20
0
30
0
0
VERTEX
8
CUT
10
17.702
20
249.625
30
0
0
VERTEX
8
CUT
10
17.863
20
250.329
30
0
0
VERTEX
8
CUT
10
18.313
20
250.894
30
0
0
VERTEX
8
CUT
10
18.964
20
251.207
30
0
0
VERTEX
8
CUT
10
19.686
20
251.207
30
0
0
VERTEX
8
CUT
10
20.337
20
250.894
30
0
0
VERTEX
8
CUT
10
20.787
20
250.329
30
0
0
VERTEX
8
CUT
10
20.948
20
249.625
30
0
0
VERTEX
8
CUT
10
20.787
20
248.921
30
0
0
VERTEX
8
CUT
10
20.337
20
248.356
30
0
0
VERTEX
8
CUT
10
19.686
20
248.043
30
0
0
VERTEX
8
CUT
10
18.964
20
248.043
30
0
0
VERTEX
8
CUT
10
18.313
20
248.356
30
0
0
VERTEX
8
CUT
10
17.863
20
248.921
30
0
0
SEQEND
8
CUT
0
POLYLINE
8
CUT
66
1
70
1
10
0
20
0
30
0
0
VERTEX
8
CUT
10
34.702
20
249.625
30
0
0
VERTEX
8
CUT
10
34.863
20
250.329
30
0
0
VERTEX
8
CUT
10
35.313
20
250.894
30
0
0
VERTEX
8
CUT
10
35.964
20
251.207
30
0
0
VERTEX
8
CUT
10
36.686
20
251.207
30
0
0
VERTEX
8
CUT
10
37.337
20
250.894
30
0
0
VERTEX
8
CUT
10
37.787
20
250.329
30
0
0
VERTEX
8
CUT
10
37.948
20
249.625
30
0
0
VERTEX
8
CUT
10
37.787
20
248.921
30
0
0
VERTEX
8
CUT
10
37.337
20
248.356
30
0
0
VERTEX
8
CUT
10
36.686
20
248.043
30
0
0
VERTEX
8
CUT
10
35.964
20
248.043
30
0
0
VERTEX
8
CUT
10
35.313
20
248.356
30
0
0
VERTEX
8
CUT
10
34.863
20
248.921
30
0
0
SEQEND
8
CUT
0
POLYLINE
8
CUT
66
1
70
1
10
0
20
0
30
0
0
VERTEX
8
CUT
10
133.200
20
249.719
30
0
0
VERTEX
8
CUT
10
133.300
20
250.350
30
0
0
VERTEX
8
CUT
10
133.587
20
250.915
30
0
0
VERTEX
8
CUT
10
134.035
20
251.363
30
0
0
VERTEX
8
CUT
10
134.600
20
251.650
30
0
0
VERTEX
8
CUT
10
135.231
20
251.750
30
0
0
VERTEX
8
CUT
10
143.419
20
251.750
30
0
0
VERTEX
8
CUT
10
144.050
20
251.650
30
0
0
VERTEX
8
CUT
10
144.615
20
251.363
30
0
0
VERTEX
8
CUT
10
145.063
20
250.915
30
0
0
VERTEX
8
CUT
10
145.350
20
250.350
30
0
0
VERTEX
8
CUT
10
145.450
20
249.719
30
0
0
VERTEX
8
CUT
10
145.450
20
249.531
30
0
0
VERTEX
8
CUT
10
145.350
20
248.900
30
0
0
VERTEX
8
CUT
10
145.063
20
248.335
30
0
0
VERTEX
8
CUT
10
144.615
20
247.887
30
0
0
VERTEX
8
CUT
10
144.050
20
247.600
30
0
0
VERTEX
8
CUT
10
143.419
20
247.500
30
0
0
VERTEX
8
CUT
10
135.231
20
247.500
30
0
0
VERTEX
8
CUT
10
134.600
20
247.600
30
0
0
VERTEX
8
CUT
10
134.035
20
247.887
30
0
0
VERTEX
8
CUT
10
133.587
20
248.335
30
0
0
VERTEX
8
CUT
10
133.300
20
248.900
30
0
0
VERTEX
8
CUT
10
133.200
20
249.531
30
0
0
SEQEND
8
CUT
0
POLYLINE
8
CUT
66
1
70
1
10
0
20
0
30
0
0
VERTEX
8
CUT
10
69.925
20
239.425
30
0
0
VERTEX
8
CUT
10
59.975
20
239.425
30
0
0
VERTEX
8
CUT
10
59.975
20
242.375
30
0
0
VERTEX
8
CUT
10
69.925
20
242.375
30
0
0
SEQEND
8
CUT
0
POLYLINE
8
CUT
66
1
70
1
10
0
20
0
30
0
0
VERTEX
8
CUT
10
107.175
20
239.425
30
0
0
VERTEX
8
CUT
10
97.225
20
239.425
30
0
0
VERTEX
8
CUT
10
97.225
20
242.375
30
0
0
VERTEX
8
CUT
10
107.175
20
242.375
30
0
0
SEQEND
8
CUT
0
POLYLINE
8
CUT
66
1
70
1
10
0
20
0
30
0
0
VERTEX
8
CUT
10
144.425
20
239.425
30
0
0
VERTEX
8
CUT
10
134.475
20
239.425
30
0
0
VERTEX
8
CUT
10
134.475
20
242.375
30
0
0
VERTEX
8
CUT
10
144.425
20
242.375
30
0
0
SEQEND
8
CUT
0
POLYLINE
8
CUT
66
1
70
1
10
0
20
0
30
0
0
VERTEX
8
CUT
10
161.050
20
274.569
30
0
0
VERTEX
8
CUT
10
158.100
20
274.569
30
0
0
VERTEX
8
CUT
10
158.100
20
284.519
30
0
0
VERTEX
8
CUT
10
161.050
20
284.519
30
0
0
SEQEND
8
CUT
0
POLYLINE
8
CUT
66
1
70
1
10
0
20
0
30
0
0
VERTEX
8
CUT
10
161.050
20
245.806
30
0
0
VERTEX
8
CUT
10
158.100
20
245.806
30
0
0
VERTEX
8
CUT
10
158.100
20
255.756
30
0
0
VERTEX
8
CUT
10
161.050
20
255.756
30
0
0
SEQEND
8
CUT
0
POLYLINE
8
CUT
66
1
70
1
10
0
20
0
30
0
0
VERTEX
8
CUT
10
9.050
20
274.569
30
0
0
VERTEX
8
CUT
10
6.100
20
274.569
30
0
0
VERTEX
8
CUT
10
6.100
20
284.519
30
0
0
VERTEX
8
CUT
10
9.050
20
284.519
30
0
0
SEQEND
8
CUT
0
POLYLINE
8
CUT
66
1
70
1
10
0
20
0
30
0
0
VERTEX
8
CUT
10
9.050
20
245.806
30
0
0
VERTEX
8
CUT
10
6.100
20
245.806
30
0
0
VERTEX
8
CUT
10
6.100
20
255.756
30
0
0
VERTEX
8
CUT
10
9.050
20
255.756
30
0
0
SEQEND
8
CUT
0
POLYLINE
8
CUT
66
1
70
1
10
0
20
0
30
0
0
VERTEX
8
CUT
10
164.150
20
236.325
30
0
0
VERTEX
8
CUT
10
3.000
20
236.325
30
0
0
VERTEX
8
CUT
10
3.000
20
294.000
30
0
0
VERTEX
8
CUT
10
14.100
20
294.000
30
0
0
VERTEX
8
CUT
10
14.100
20
297.000
30
0
0
VERTEX
8
CUT
10
24.250
20
297.000
30
0
0
VERTEX
8
CUT
10
24.250
20
294.000
30
0
0
VERTEX
8
CUT
10
51.950
20
294.000
30
0
0
VERTEX
8
CUT
10
51.950
20
287.150
30
0
0
VERTEX
8
CUT
10
50.750
20
287.150
30
0
0
VERTEX
8
CUT
10
50.750
20
284.700
30
0
0
VERTEX
8
CUT
10
51.950
20
284.700
30
0
0
VERTEX
8
CUT
10
51.950
20
281.000
30
0
0
VERTEX
8
CUT
10
55.200
20
281.000
30
0
0
VERTEX
8
CUT
10
55.200
20
284.700
30
0
0
VERTEX
8
CUT
10
56.400
20
284.700
30
0
0
VERTEX
8
CUT
10
56.400
20
287.150
30
0
0
VERTEX
8
CUT
10
55.200
20
287.150
30
0
0
VERTEX
8
CUT
10
55.200
20
294.000
30
0
0
VERTEX
8
CUT
10
78.500
20
294.000
30
0
0
VERTEX
8
CUT
10
78.500
20
297.000
30
0
0
VERTEX
8
CUT
10
88.650
20
297.000
30
0
0
VERTEX
8
CUT
10
88.650
20
294.000
30
0
0
VERTEX
8
CUT
10
111.950
20
294.000
30
0
0
VERTEX
8
CUT
10
111.950
20
287.150
30
0
0
VERTEX
8
CUT
10
110.750
20
287.150
30
0
0
VERTEX
8
CUT
10
110.750
20
284.700
30
0
0
VERTEX
8
CUT
10
111.950
20
284.700
30
0
0
VERTEX
8
CUT
10
111.950
20
281.000
30
0
0
VERTEX
8
CUT
10
115.200
20
281.000
30
0
0
VERTEX
8
CUT
10
115.200
20
284.700
30
0
0
VERTEX
8
CUT
10
116.400
20
284.700
30
0
0
VERTEX
8
CUT
10
116.400
20
287.150
30
0
0
VERTEX
8
CUT
10
115.200
20
287.150
30
0
0
VERTEX
8
CUT
10
115.200
20
294.000
30
0
0
VERTEX
8
CUT
10
142.900
20
294.000
30
0
0
VERTEX
8
CUT
10
142.900
20
297.000
30
0
0
VERTEX
8
CUT
10
153.050
20
297.000
30
0
0
VERTEX
8
CUT
10
153.050
20
294.000
30
0
0
VERTEX
8
CUT
10
164.150
20
294.000
30
0
0
SEQEND
8
CUT
0
POLYLINE
8
CUT
66
1
70
1
10
0
20
0
30
0
0
VERTEX
8
CUT
10
194.949
20
249.625
30
0
0
VERTEX
8
CUT
10
194.809
20
250.692
30
0
0
VERTEX
8
CUT
10
194.397
20
251.687
30
0
0
VERTEX
8
CUT
10
193.741
20
252.541
30
0
0
VERTEX
8
CUT
10
192.887
20
253.197
30
0
0
VERTEX
8
CUT
10
191.892
20
253.609
30
0
0
VERTEX
8
CUT
10
190.825
20
253.749
30
0
0
VERTEX
8
CUT
10
189.758
20
253.609
30
0
0
VERTEX
8
CUT
10
188.763
20
253.197
30
0
0
VERTEX
8
CUT
10
187.909
20
252.541
30
0
0
VERTEX
8
CUT
10
187.253
20
251.687
30
0
0
VERTEX
8
CUT
10
186.841
20
250.692
30
0
0
VERTEX
8
CUT
10
186.701
20
249.625
30
0
0
VERTEX
8
CUT
10
186.841
20
248.558
30
0
0
VERTEX
8
CUT
10
187.253
20
247.563
30
0
0
VERTEX
8
CUT
10
187.909
20
246.709
30
0
0
VERTEX
8
CUT
10
188.763
20
246.053
30
0
0
VERTEX
8
CUT
10
189.758
20
245.641
30
0
0
VERTEX
8
CUT
10
190.825
20
245.501
30
0
0
VERTEX
8
CUT
10
191.892
20
245.641
30
0
0
VERTEX
8
CUT
10
192.887
20
246.053
30
0
0
VERTEX
8
CUT
10
193.741
20
246.709
30
0
0
VERTEX
8
CUT
10
194.397
20
247.563
30
0
0
VERTEX
8
CUT
10
194.809
20
248.558
30
0
0
SEQEND
8
CUT
0
POLYLINE
8
CUT
66
1
70
1
10
0
20
0
30
0
0
VERTEX
8
CUT
10
200.948
20
249.625
30
0
0
VERTEX
8
CUT
10
200.787
20
250.329
30
0
0
VERTEX
8
CUT
10
200.337
20
250.894
30
0
0
VERTEX
8
CUT
10
199.686
20
251.207
30
0
0
VERTEX
8
CUT
10
198.964
20
251.207
30
0
0
VERTEX
8
CUT
10
198.313
20
250.894
30
0
0
VERTEX
8
CUT
10
197.863
20
250.329
30
0
0
VERTEX
8
CUT
10
197.702
20
249.625
30
0
0
VERTEX
8
CUT
10
197.863
20
248.921
30
0
0
VERTEX
8
CUT
10
198.313
20
248.356
30
0
0
VERTEX
8
CUT
10
198.964
20
248.043
30
0
0
VERTEX
8
CUT
10
199.686
20
248.043
30
0
0
VERTEX
8
CUT
10
200.337
20
248.356
30
0
0
VERTEX
8
CUT
10
200.787
20
248.921
30
0
0
SEQEND
8
CUT
0
POLYLINE
8
CUT
66
1
70
1
10
0
20
0
30
0
0
VERTEX
8
CUT
10
183.948
20
249.625
30
0
0
VERTEX
8
CUT
10
183.787
20
250.329
30
0
0
VERTEX
8
CUT
10
183.337
20
250.894
30
0
0
VERTEX
8
CUT
10
182.686
20
251.207
30
0
0
VERTEX
8
CUT
10
181.964
20
251.207
30
0
0
VERTEX
8
CUT
10
181.313
20
250.894
30
0
0
VERTEX
8
CUT
10
180.863
20
250.329
30
0
0
VERTEX
8
CUT
10
180.702
20
249.625
30
0
0
VERTEX
8
CUT
10
180.863
20
248.921
30
0
0
VERTEX
8
CUT
10
181.313
20
248.356
30
0
0
VERTEX
8
CUT
10
181.964
20
248.043
30
0
0
VERTEX
8
CUT
10
182.686
20
248.043
30
0
0
VERTEX
8
CUT
10
183.337
20
248.356
30
0
0
VERTEX
8
CUT
10
183.787
20
248.921
30
0
0
SEQEND
8
CUT
0
POLYLINE
8
CUT
66
1
70
1
10
0
20
0
30
0
0
VERTEX
8
CUT
10
308.450
20
249.719
30
0
0
VERTEX
8
CUT
10
308.350
20
250.350
30
0
0
VERTEX
8
CUT
10
308.063
20
250.915
30
0
0
VERTEX
8
CUT
10
307.615
20
251.363
30
0
0
VERTEX
8
CUT
10
307.050
20
251.650
30
0
0
VERTEX
8
CUT
10
306.419
20
251.750
30
0
0
VERTEX
8
CUT
10
298.231
20
251.750
30
0
0
VERTEX
8
CUT
10
297.600
20
251.650
30
0
0
VERTEX
8
CUT
10
297.035
20
251.363
30
0
0
VERTEX
8
CUT
10
296.587
20
250.915
30
0
0
VERTEX
8
CUT
10
296.300
20
250.350
30
0
0
VERTEX
8
CUT
10
296.200
20
249.719
30
0
0
VERTEX
8
CUT
10
296.200
20
249.531
30
0
0
VERTEX
8
CUT
10
296.300
20
248.900
30
0
0
VERTEX
8
CUT
10
296.587
20
248.335
30
0
0
VERTEX
8
CUT
10
297.035
20
247.887
30
0
0
VERTEX
8
CUT
10
297.600
20
247.600
30
0
0
VERTEX
8
CUT
10
298.231
20
247.500
30
0
0
VERTEX
8
CUT
10
306.419
20
247.500
30
0
0
VERTEX
8
CUT
10
307.050
20
247.600
30
0
0
VERTEX
8
CUT
10
307.615
20
247.887
30
0
0
VERTEX
8
CUT
10
308.063
20
248.335
30
0
0
VERTEX
8
CUT
10
308.350
20
248.900
30
0
0
VERTEX
8
CUT
10
308.450
20
249.531
30
0
0
SEQEND
8
CUT
0
POLYLINE
8
CUT
66
1
70
1
10
0
20
0
30
0
0
VERTEX
8
CUT
10
222.975
20
239.425
30
0
0
VERTEX
8
CUT
10
232.925
20
239.425
30
0
0
VERTEX
8
CUT
10
232.925
20
242.375
30
0
0
VERTEX
8
CUT
10
222.975
20
242.375
30
0
0
SEQEND
8
CUT
0
POLYLINE
8
CUT
66
1
70
1
10
0
20
0
30
0
0
VERTEX
8
CUT
10
260.225
20
239.425
30
0
0
VERTEX
8
CUT
10
270.175
20
239.425
30
0
0
VERTEX
8
CUT
10
270.175
20
242.375
30
0
0
VERTEX
8
CUT
10
260.225
20
242.375
30
0
0
SEQEND
8
CUT
0
POLYLINE
8
CUT
66
1
70
1
10
0
20
0
30
0
0
VERTEX
8
CUT
10
297.475
20
239.425
30
0
0
VERTEX
8
CUT
10
307.425
20
239.425
30
0
0
VERTEX
8
CUT
10
307.425
20
242.375
30
0
0
VERTEX
8
CUT
10
297.475
20
242.375
30
0
0
SEQEND
8
CUT
0
POLYLINE
8
CUT
66
1
70
1
10
0
20
0
30
0
0
VERTEX
8
CUT
10
169.100
20
245.806
30
0
0
VERTEX
8
CUT
10
172.050
20
245.806
30
0
0
VERTEX
8
CUT
10
172.050
20
255.756
30
0
0
VERTEX
8
CUT
10
169.100
20
255.756
30
0
0
SEQEND
8
CUT
0
POLYLINE
8
CUT
66
1
70
1
10
0
20
0
30
0
0
VERTEX
8
CUT
10
169.100
20
274.569
30
0
0
VERTEX
8
CUT
10
172.050
20
274.569
30
0
0
VERTEX
8
CUT
10
172.050
20
284.519
30
0
0
VERTEX
8
CUT
10
169.100
20
284.519
30
0
0
SEQEND
8
CUT
0
POLYLINE
8
CUT
66
1
70
1
10
0
20
0
30
0
0
VERTEX
8
CUT
10
321.100
20
245.806
30
0
0
VERTEX
8
CUT
10
324.050
20
245.806
30
0
0
VERTEX
8
CUT
10
324.050
20
255.756
30
0
0
VERTEX
8
CUT
10
321.100
20
255.756
30
0
0
SEQEND
8
CUT
0
POLYLINE
8
CUT
66
1
70
1
10
0
20
0
30
0
0
VERTEX
8
CUT
10
321.100
20
274.569
30
0
0
VERTEX
8
CUT
10
324.050
20
274.569
30
0
0
VERTEX
8
CUT
10
324.050
20
284.519
30
0
0
VERTEX
8
CUT
10
321.100
20
284.519
30
0
0
SEQEND
8
CUT
0
POLYLINE
8
CUT
66
1
70
1
10
0
20
0
30
0
0
VERTEX
8
CUT
10
218.808
20
259.950
30
0
0
VERTEX
8
CUT
10
228.758
20
259.950
30
0
0
VERTEX
8
CUT
10
228.758
20
262.900
30
0
0
VERTEX
8
CUT
10
218.808
20
262.900
30
0
0
SEQEND
8
CUT
0
POLYLINE
8
CUT
66
1
70
1
10
0
20
0
30
0
0
VERTEX
8
CUT
10
257.725
20
259.950
30
0
0
VERTEX
8
CUT
10
267.675
20
259.950
30
0
0
VERTEX
8
CUT
10
267.675
20
262.900
30
0
0
VERTEX
8
CUT
10
257.725
20
262.900
30
0
0
SEQEND
8
CUT
0
POLYLINE
8
CUT
66
1
70
1
10
0
20
0
30
0
0
VERTEX
8
CUT
10
296.642
20
259.950
30
0
0
VERTEX
8
CUT
10
306.592
20
259.950
30
0
0
VERTEX
8
CUT
10
306.592
20
262.900
30
0
0
VERTEX
8
CUT
10
296.642
20
262.900
30
0
0
SEQEND
8
CUT
0
POLYLINE
8
CUT
66
1
70
1
10
0
20
0
30
0
0
VERTEX
8
CUT
10
166.000
20
236.325
30
0
0
VERTEX
8
CUT
10
327.150
20
236.325
30
0
0
VERTEX
8
CUT
10
327.150
20
294.000
30
0
0
VERTEX
8
CUT
10
316.050
20
294.000
30
0
0
VERTEX
8
CUT
10
316.050
20
297.000
30
0
0
VERTEX
8
CUT
10
305.900
20
297.000
30
0
0
VERTEX
8
CUT
10
305.900
20
294.000
30
0
0
VERTEX
8
CUT
10
278.200
20
294.000
30
0
0
VERTEX
8
CUT
10
278.200
20
287.150
30
0
0
VERTEX
8
CUT
10
279.400
20
287.150
30
0
0
VERTEX
8
CUT
10
279.400
20
284.700
30
0
0
VERTEX
8
CUT
10
278.200
20
284.700
30
0
0
VERTEX
8
CUT
10
278.200
20
281.000
30
0
0
VERTEX
8
CUT
10
274.950
20
281.000
30
0
0
VERTEX
8
CUT
10
274.950
20
284.700
30
0
0
VERTEX
8
CUT
10
273.750
20
284.700
30
0
0
VERTEX
8
CUT
10
273.750
20
287.150
30
0
0
VERTEX
8
CUT
10
274.950
20
287.150
30
0
0
VERTEX
8
CUT
10
274.950
20
294.000
30
0
0
VERTEX
8
CUT
10
251.650
20
294.000
30
0
0
VERTEX
8
CUT
10
251.650
20
297.000
30
0
0
VERTEX
8
CUT
10
241.500
20
297.000
30
0
0
VERTEX
8
CUT
10
241.500
20
294.000
30
0
0
VERTEX
8
CUT
10
218.200
20
294.000
30
0
0
VERTEX
8
CUT
10
218.200
20
287.150
30
0
0
VERTEX
8
CUT
10
219.400
20
287.150
30
0
0
VERTEX
8
CUT
10
219.400
20
284.700
30
0
0
VERTEX
8
CUT
10
218.200
20
284.700
30
0
0
VERTEX
8
CUT
10
218.200
20
281.000
30
0
0
VERTEX
8
CUT
10
214.950
20
281.000
30
0
0
VERTEX
8
CUT
10
214.950
20
284.700
30
0
0
VERTEX
8
CUT
10
213.750
20
284.700
30
0
0
VERTEX
8
CUT
10
213.750
20
287.150
30
0
0
VERTEX
8
CUT
10
214.950
20
287.150
30
0
0
VERTEX
8
CUT
10
214.950
20
294.000
30
0
0
VERTEX
8
CUT
10
187.250
20
294.000
30
0
0
VERTEX
8
CUT
10
187.250
20
297.000
30
0
0
VERTEX
8
CUT
10
177.100
20
297.000
30
0
0
VERTEX
8
CUT
10
177.100
20
294.000
30
0
0
VERTEX
8
CUT
10
166.000
20
294.000
30
0
0
SEQEND
8
CUT
0
POLYLINE
8
CUT
66
1
70
1
10
0
20
0
30
0
0
VERTEX
8
CUT
10
31.949
20
187.125
30
0
0
VERTEX
8
CUT
10
31.809
20
188.192
30
0
0
VERTEX
8
CUT
10
31.397
20
189.187
30
0
0
VERTEX
8
CUT
10
30.741
20
190.041
30
0
0
VERTEX
8
CUT
10
29.887
20
190.697
30
0
0
VERTEX
8
CUT
10
28.892
20
191.109
30
0
0
VERTEX
8
CUT
10
27.825
20
191.249
30
0
0
VERTEX
8
CUT
10
26.758
20
191.109
30
0
0
VERTEX
8
CUT
10
25.763
20
190.697
30
0
0
VERTEX
8
CUT
10
24.909
20
190.041
30
0
0
VERTEX
8
CUT
10
24.253
20
189.187
30
0
0
VERTEX
8
CUT
10
23.841
20
188.192
30
0
0
VERTEX
8
CUT
10
23.701
20
187.125
30
0
0
VERTEX
8
CUT
10
23.841
20
186.058
30
0
0
VERTEX
8
CUT
10
24.253
20
185.063
30
0
0
VERTEX
8
CUT
10
24.909
20
184.209
30
0
0
VERTEX
8
CUT
10
25.763
20
183.553
30
0
0
VERTEX
8
CUT
10
26.758
20
183.141
30
0
0
VERTEX
8
CUT
10
27.825
20
183.001
30
0
0
VERTEX
8
CUT
10
28.892
20
183.141
30
0
0
VERTEX
8
CUT
10
29.887
20
183.553
30
0
0
VERTEX
8
CUT
10
30.741
20
184.209
30
0
0
VERTEX
8
CUT
10
31.397
20
185.063
30
0
0
VERTEX
8
CUT
10
31.809
20
186.058
30
0
0
SEQEND
8
CUT
0
POLYLINE
8
CUT
66
1
70
1
10
0
20
0
30
0
0
VERTEX
8
CUT
10
37.948
20
187.125
30
0
0
VERTEX
8
CUT
10
37.787
20
187.829
30
0
0
VERTEX
8
CUT
10
37.337
20
188.394
30
0
0
VERTEX
8
CUT
10
36.686
20
188.707
30
0
0
VERTEX
8
CUT
10
35.964
20
188.707
30
0
0
VERTEX
8
CUT
10
35.313
20
188.394
30
0
0
VERTEX
8
CUT
10
34.863
20
187.829
30
0
0
VERTEX
8
CUT
10
34.702
20
187.125
30
0
0
VERTEX
8
CUT
10
34.863
20
186.421
30
0
0
VERTEX
8
CUT
10
35.313
20
185.856
30
0
0
VERTEX
8
CUT
10
35.964
20
185.543
30
0
0
VERTEX
8
CUT
10
36.686
20
185.543
30
0
0
VERTEX
8
CUT
10
37.337
20
185.856
30
0
0
VERTEX
8
CUT
10
37.787
20
186.421
30
0
0
SEQEND
8
CUT
0
POLYLINE
8
CUT
66
1
70
1
10
0
20
0
30
0
0
VERTEX
8
CUT
10
20.948
20
187.125
30
0
0
VERTEX
8
CUT
10
20.787
20
187.829
30
0
0
VERTEX
8
CUT
10
20.337
20
188.394
30
0
0
VERTEX
8
CUT
10
19.686
20
188.707
30
0
0
VERTEX
8
CUT
10
18.964
20
188.707
30
0
0
VERTEX
8
CUT
10
18.313
20
188.394
30
0
0
VERTEX
8
CUT
10
17.863
20
187.829
30
0
0
VERTEX
8
CUT
10
17.702
20
187.125
30
0
0
VERTEX
8
CUT
10
17.863
20
186.421
30
0
0
VERTEX
8
CUT
10
18.313
20
185.856
30
0
0
VERTEX
8
CUT
10
18.964
20
185.543
30
0
0
VERTEX
8
CUT
10
19.686
20
185.543
30
0
0
VERTEX
8
CUT
10
20.337
20
185.856
30
0
0
VERTEX
8
CUT
10
20.787
20
186.421
30
0
0
SEQEND
8
CUT
0
POLYLINE
8
CUT
66
1
70
1
10
0
20
0
30
0
0
VERTEX
8
CUT
10
145.450
20
187.219
30
0
0
VERTEX
8
CUT
10
145.350
20
187.850
30
0
0
VERTEX
8
CUT
10
145.063
20
188.415
30
0
0
VERTEX
8
CUT
10
144.615
20
188.863
30
0
0
VERTEX
8
CUT
10
144.050
20
189.150
30
0
0
VERTEX
8
CUT
10
143.419
20
189.250
30
0
0
VERTEX
8
CUT
10
135.231
20
189.250
30
0
0
VERTEX
8
CUT
10
134.600
20
189.150
30
0
0
VERTEX
8
CUT
10
134.035
20
188.863
30
0
0
VERTEX
8
CUT
10
133.587
20
188.415
30
0
0
VERTEX
8
CUT
10
133.300
20
187.850
30
0
0
VERTEX
8
CUT
10
133.200
20
187.219
30
0
0
VERTEX
8
CUT
10
133.200
20
187.031
30
0
0
VERTEX
8
CUT
10
133.300
20
186.400
30
0
0
VERTEX
8
CUT
10
133.587
20
185.835
30
0
0
VERTEX
8
CUT
10
134.035
20
185.387
30
0
0
VERTEX
8
CUT
10
134.600
20
185.100
30
0
0
VERTEX
8
CUT
10
135.231
20
185.000
30
0
0
VERTEX
8
CUT
10
143.419
20
185.000
30
0
0
VERTEX
8
CUT
10
144.050
20
185.100
30
0
0
VERTEX
8
CUT
10
144.615
20
185.387
30
0
0
VERTEX
8
CUT
10
145.063
20
185.835
30
0
0
VERTEX
8
CUT
10
145.350
20
186.400
30
0
0
VERTEX
8
CUT
10
145.450
20
187.031
30
0
0
SEQEND
8
CUT
0
POLYLINE
8
CUT
66
1
70
1
10
0
20
0
30
0
0
VERTEX
8
CUT
10
59.975
20
176.925
30
0
0
VERTEX
8
CUT
10
69.925
20
176.925
30
0
0
VERTEX
8
CUT
10
69.925
20
179.875
30
0
0
VERTEX
8
CUT
10
59.975
20
179.875
30
0
0
SEQEND
8
CUT
0
POLYLINE
8
CUT
66
1
70
1
10
0
20
0
30
0
0
VERTEX
8
CUT
10
97.225
20
176.925
30
0
0
VERTEX
8
CUT
10
107.175
20
176.925
30
0
0
VERTEX
8
CUT
10
107.175
20
179.875
30
0
0
VERTEX
8
CUT
10
97.225
20
179.875
30
0
0
SEQEND
8
CUT
0
POLYLINE
8
CUT
66
1
70
1
10
0
20
0
30
0
0
VERTEX
8
CUT
10
134.475
20
176.925
30
0
0
VERTEX
8
CUT
10
144.425
20
176.925
30
0
0
VERTEX
8
CUT
10
144.425
20
179.875
30
0
0
VERTEX
8
CUT
10
134.475
20
179.875
30
0
0
SEQEND
8
CUT
0
POLYLINE
8
CUT
66
1
70
1
10
0
20
0
30
0
0
VERTEX
8
CUT
10
6.100
20
183.306
30
0
0
VERTEX
8
CUT
10
9.050
20
183.306
30
0
0
VERTEX
8
CUT
10
9.050
20
193.256
30
0
0
VERTEX
8
CUT
10
6.100
20
193.256
30
0
0
SEQEND
8
CUT
0
POLYLINE
8
CUT
66
1
70
1
10
0
20
0
30
0
0
VERTEX
8
CUT
10
6.100
20
212.069
30
0
0
VERTEX
8
CUT
10
9.050
20
212.069
30
0
0
VERTEX
8
CUT
10
9.050
20
222.019
30
0
0
VERTEX
8
CUT
10
6.100
20
222.019
30
0
0
SEQEND
8
CUT
0
POLYLINE
8
CUT
66
1
70
1
10
0
20
0
30
0
0
VERTEX
8
CUT
10
158.100
20
183.306
30
0
0
VERTEX
8
CUT
10
161.050
20
183.306
30
0
0
VERTEX
8
CUT
10
161.050
20
193.256
30
0
0
VERTEX
8
CUT
10
158.100
20
193.256
30
0
0
SEQEND
8
CUT
0
POLYLINE
8
CUT
66
1
70
1
10
0
20
0
30
0
0
VERTEX
8
CUT
10
158.100
20
212.069
30
0
0
VERTEX
8
CUT
10
161.050
20
212.069
30
0
0
VERTEX
8
CUT
10
161.050
20
222.019
30
0
0
VERTEX
8
CUT
10
158.100
20
222.019
30
0
0
SEQEND
8
CUT
0
POLYLINE
8
CUT
66
1
70
1
10
0
20
0
30
0
0
VERTEX
8
CUT
10
55.808
20
197.450
30
0
0
VERTEX
8
CUT
10
65.758
20
197.450
30
0
0
VERTEX
8
CUT
10
65.758
20
200.400
30
0
0
VERTEX
8
CUT
10
55.808
20
200.400
30
0
0
SEQEND
8
CUT
0
POLYLINE
8
CUT
66
1
70
1
10
0
20
0
30
0
0
VERTEX
8
CUT
10
94.725
20
197.450
30
0
0
VERTEX
8
CUT
10
104.675
20
197.450
30
0
0
VERTEX
8
CUT
10
104.675
20
200.400
30
0
0
VERTEX
8
CUT
10
94.725
20
200.400
30
0
0
SEQEND
8
CUT
0
POLYLINE
8
CUT
66
1
70
1
10
0
20
0
30
0
0
VERTEX
8
CUT
10
133.642
20
197.450
30
0
0
VERTEX
8
CUT
10
143.592
20
197.450
30
0
0
VERTEX
8
CUT
10
143.592
20
200.400
30
0
0
VERTEX
8
CUT
10
133.642
20
200.400
30
0
0
SEQEND
8
CUT
0
POLYLINE
8
CUT
66
1
70
1
10
0
20
0
30
0
0
VERTEX
8
CUT
10
3.000
20
173.825
30
0
0
VERTEX
8
CUT
10
164.150
20
173.825
30
0
0
VERTEX
8
CUT
10
164.150
20
231.500
30
0
0
VERTEX
8
CUT
10
153.050
20
231.500
30
0
0
VERTEX
8
CUT
10
153.050
20
234.500
30
0
0
VERTEX
8
CUT
10
142.900
20
234.500
30
0
0
VERTEX
8
CUT
10
142.900
20
231.500
30
0
0
VERTEX
8
CUT
10
115.200
20
231.500
30
0
0
VERTEX
8
CUT
10
115.200
20
224.650
30
0
0
VERTEX
8
CUT
10
116.400
20
224.650
30
0
0
VERTEX
8
CUT
10
116.400
20
222.200
30
0
0
VERTEX
8
CUT
10
115.200
20
222.200
30
0
0
VERTEX
8
CUT
10
115.200
20
218.500
30
0
0
VERTEX
8
CUT
10
111.950
20
218.500
30
0
0
VERTEX
8
CUT
10
111.950
20
222.200
30
0
0
VERTEX
8
CUT
10
110.750
20
222.200
30
0
0
VERTEX
8
CUT
10
110.750
20
224.650
30
0
0
VERTEX
8
CUT
10
111.950
20
224.650
30
0
0
VERTEX
8
CUT
10
111.950
20
231.500
30
0
0
VERTEX
8
CUT
10
88.650
20
231.500
30
0
0
VERTEX
8
CUT
10
88.650
20
234.500
30
0
0
VERTEX
8
CUT
10
78.500
20
234.500
30
0
0
VERTEX
8
CUT
10
78.500
20
231.500
30
0
0
VERTEX
8
CUT
10
55.200
20
231.500
30
0
0
VERTEX
8
CUT
10
55.200
20
224.650
30
0
0
VERTEX
8
CUT
10
56.400
20
224.650
30
0
0
VERTEX
8
CUT
10
56.400
20
222.200
30
0
0
VERTEX
8
CUT
10
55.200
20
222.200
30
0
0
VERTEX
8
CUT
10
55.200
20
218.500
30
0
0
VERTEX
8
CUT
10
51.950
20
218.500
30
0
0
VERTEX
8
CUT
10
51.950
20
222.200
30
0
0
VERTEX
8
CUT
10
50.750
20
222.200
30
0
0
VERTEX
8
CUT
10
50.750
20
224.650
30
0
0
VERTEX
8
CUT
10
51.950
20
224.650
30
0
0
VERTEX
8
CUT
10
51.950
20
231.500
30
0
0
VERTEX
8
CUT
10
24.250
20
231.500
30
0
0
VERTEX
8
CUT
10
24.250
20
234.500
30
0
0
VERTEX
8
CUT
10
14.100
20
234.500
30
0
0
VERTEX
8
CUT
10
14.100
20
231.500
30
0
0
VERTEX
8
CUT
10
3.000
20
231.500
30
0
0
SEQEND
8
CUT
0
POLYLINE
8
CUT
66
1
70
1
10
0
20
0
30
0
0
VERTEX
8
CUT
10
194.949
20
187.125
30
0
0
VERTEX
8
CUT
10
194.809
20
188.192
30
0
0
VERTEX
8
CUT
10
194.397
20
189.187
30
0
0
VERTEX
8
CUT
10
193.741
20
190.041
30
0
0
VERTEX
8
CUT
10
192.887
20
190.697
30
0
0
VERTEX
8
CUT
10
191.892
20
191.109
30
0
0
VERTEX
8
CUT
10
190.825
20
191.249
30
0
0
VERTEX
8
CUT
10
189.758
20
191.109
30
0
0
VERTEX
8
CUT
10
188.763
20
190.697
30
0
0
VERTEX
8
CUT
10
187.909
20
190.041
30
0
0
VERTEX
8
CUT
10
187.253
20
189.187
30
0
0
VERTEX
8
CUT
10
186.841
20
188.192
30
0
0
VERTEX
8
CUT
10
186.701
20
187.125
30
0
0
VERTEX
8
CUT
10
186.841
20
186.058
30
0
0
VERTEX
8
CUT
10
187.253
20
185.063
30
0
0
VERTEX
8
CUT
10
187.909
20
184.209
30
0
0
VERTEX
8
CUT
10
188.763
20
183.553
30
0
0
VERTEX
8
CUT
10
189.758
20
183.141
30
0
0
VERTEX
8
CUT
10
190.825
20
183.001
30
0
0
VERTEX
8
CUT
10
191.892
20
183.141
30
0
0
VERTEX
8
CUT
10
192.887
20
183.553
30
0
0
VERTEX
8
CUT
10
193.741
20
184.209
30
0
0
VERTEX
8
CUT
10
194.397
20
185.063
30
0
0
VERTEX
8
CUT
10
194.809
20
186.058
30
0
0
SEQEND
8
CUT
0
POLYLINE
8
CUT
66
1
70
1
10
0
20
0
30
0
0
VERTEX
8
CUT
10
200.948
20
187.125
30
0
0
VERTEX
8
CUT
10
200.787
20
187.829
30
0
0
VERTEX
8
CUT
10
200.337
20
188.394
30
0
0
VERTEX
8
CUT
10
199.686
20
188.707
30
0
0
VERTEX
8
CUT
10
198.964
20
188.707
30
0
0
VERTEX
8
CUT
10
198.313
20
188.394
30
0
0
VERTEX
8
CUT
10
197.863
20
187.829
30
0
0
VERTEX
8
CUT
10
197.702
20
187.125
30
0
0
VERTEX
8
CUT
10
197.863
20
186.421
30
0
0
VERTEX
8
CUT
10
198.313
20
185.856
30
0
0
VERTEX
8
CUT
10
198.964
20
185.543
30
0
0
VERTEX
8
CUT
10
199.686
20
185.543
30
0
0
VERTEX
8
CUT
10
200.337
20
185.856
30
0
0
VERTEX
8
CUT
10
200.787
20
186.421
30
0
0
SEQEND
8
CUT
0
POLYLINE
8
CUT
66
1
70
1
10
0
20
0
30
0
0
VERTEX
8
CUT
10
183.948
20
187.125
30
0
0
VERTEX
8
CUT
10
183.787
20
187.829
30
0
0
VERTEX
8
CUT
10
183.337
20
188.394
30
0
0
VERTEX
8
CUT
10
182.686
20
188.707
30
0
0
VERTEX
8
CUT
10
181.964
20
188.707
30
0
0
VERTEX
8
CUT
10
181.313
20
188.394
30
0
0
VERTEX
8
CUT
10
180.863
20
187.829
30
0
0
VERTEX
8
CUT
10
180.702
20
187.125
30
0
0
VERTEX
8
CUT
10
180.863
20
186.421
30
0
0
VERTEX
8
CUT
10
181.313
20
185.856
30
0
0
VERTEX
8
CUT
10
181.964
20
185.543
30
0
0
VERTEX
8
CUT
10
182.686
20
185.543
30
0
0
VERTEX
8
CUT
10
183.337
20
185.856
30
0
0
VERTEX
8
CUT
10
183.787
20
186.421
30
0
0
SEQEND
8
CUT
0
POLYLINE
8
CUT
66
1
70
1
10
0
20
0
30
0
0
VERTEX
8
CUT
10
308.450
20
187.219
30
0
0
VERTEX
8
CUT
10
308.350
20
187.850
30
0
0
VERTEX
8
CUT
10
308.063
20
188.415
30
0
0
VERTEX
8
CUT
10
307.615
20
188.863
30
0
0
VERTEX
8
CUT
10
307.050
20
189.150
30
0
0
VERTEX
8
CUT
10
306.419
20
189.250
30
0
0
VERTEX
8
CUT
10
298.231
20
189.250
30
0
0
VERTEX
8
CUT
10
297.600
20
189.150
30
0
0
VERTEX
8
CUT
10
297.035
20
188.863
30
0
0
VERTEX
8
CUT
10
296.587
20
188.415
30
0
0
VERTEX
8
CUT
10
296.300
20
187.850
30
0
0
VERTEX
8
CUT
10
296.200
20
187.219
30
0
0
VERTEX
8
CUT
10
296.200
20
187.031
30
0
0
VERTEX
8
CUT
10
296.300
20
186.400
30
0
0
VERTEX
8
CUT
10
296.587
20
185.835
30
0
0
VERTEX
8
CUT
10
297.035
20
185.387
30
0
0
VERTEX
8
CUT
10
297.600
20
185.100
30
0
0
VERTEX
8
CUT
10
298.231
20
185.000
30
0
0
VERTEX
8
CUT
10
306.419
20
185.000
30
0
0
VERTEX
8
CUT
10
307.050
20
185.100
30
0
0
VERTEX
8
CUT
10
307.615
20
185.387
30
0
0
VERTEX
8
CUT
10
308.063
20
185.835
30
0
0
VERTEX
8
CUT
10
308.350
20
186.400
30
0
0
VERTEX
8
CUT
10
308.450
20
187.031
30
0
0
SEQEND
8
CUT
0
POLYLINE
8
CUT
66
1
70
1
10
0
20
0
30
0
0
VERTEX
8
CUT
10
222.975
20
176.925
30
0
0
VERTEX
8
CUT
10
232.925
20
176.925
30
0
0
VERTEX
8
CUT
10
232.925
20
179.875
30
0
0
VERTEX
8
CUT
10
222.975
20
179.875
30
0
0
SEQEND
8
CUT
0
POLYLINE
8
CUT
66
1
70
1
10
0
20
0
30
0
0
VERTEX
8
CUT
10
260.225
20
176.925
30
0
0
VERTEX
8
CUT
10
270.175
20
176.925
30
0
0
VERTEX
8
CUT
10
270.175
20
179.875
30
0
0
VERTEX
8
CUT
10
260.225
20
179.875
30
0
0
SEQEND
8
CUT
0
POLYLINE
8
CUT
66
1
70
1
10
0
20
0
30
0
0
VERTEX
8
CUT
10
297.475
20
176.925
30
0
0
VERTEX
8
CUT
10
307.425
20
176.925
30
0
0
VERTEX
8
CUT
10
307.425
20
179.875
30
0
0
VERTEX
8
CUT
10
297.475
20
179.875
30
0
0
SEQEND
8
CUT
0
POLYLINE
8
CUT
66
1
70
1
10
0
20
0
30
0
0
VERTEX
8
CUT
10
169.100
20
183.306
30
0
0
VERTEX
8
CUT
10
172.050
20
183.306
30
0
0
VERTEX
8
CUT
10
172.050
20
193.256
30
0
0
VERTEX
8
CUT
10
169.100
20
193.256
30
0
0
SEQEND
8
CUT
0
POLYLINE
8
CUT
66
1
70
1
10
0
20
0
30
0
0
VERTEX
8
CUT
10
169.100
20
212.069
30
0
0
VERTEX
8
CUT
10
172.050
20
212.069
30
0
0
VERTEX
8
CUT
10
172.050
20
222.019
30
0
0
VERTEX
8
CUT
10
169.100
20
222.019
30
0
0
SEQEND
8
CUT
0
POLYLINE
8
CUT
66
1
70
1
10
0
20
0
30
0
0
VERTEX
8
CUT
10
321.100
20
183.306
30
0
0
VERTEX
8
CUT
10
324.050
20
183.306
30
0
0
VERTEX
8
CUT
10
324.050
20
193.256
30
0
0
VERTEX
8
CUT
10
321.100
20
193.256
30
0
0
SEQEND
8
CUT
0
POLYLINE
8
CUT
66
1
70
1
10
0
20
0
30
0
0
VERTEX
8
CUT
10
321.100
20
212.069
30
0
0
VERTEX
8
CUT
10
324.050
20
212.069
30
0
0
VERTEX
8
CUT
10
324.050
20
222.019
30
0
0
VERTEX
8
CUT
10
321.100
20
222.019
30
0
0
SEQEND
8
CUT
0
POLYLINE
8
CUT
66
1
70
1
10
0
20
0
30
0
0
VERTEX
8
CUT
10
218.808
20
197.450
30
0
0
VERTEX
8
CUT
10
228.758
20
197.450
30
0
0
VERTEX
8
CUT
10
228.758
20
200.400
30
0
0
VERTEX
8
CUT
10
218.808
20
200.400
30
0
0
SEQEND
8
CUT
0
POLYLINE
8
CUT
66
1
70
1
10
0
20
0
30
0
0
VERTEX
8
CUT
10
257.725
20
197.450
30
0
0
VERTEX
8
CUT
10
267.675
20
197.450
30
0
0
VERTEX
8
CUT
10
267.675
20
200.400
30
0
0
VERTEX
8
CUT
10
257.725
20
200.400
30
0
0
SEQEND
8
CUT
0
POLYLINE
8
CUT
66
1
70
1
10
0
20
0
30
0
0
VERTEX
8
CUT
10
296.642
20
197.450
30
0
0
VERTEX
8
CUT
10
306.592
20
197.450
30
0
0
VERTEX
8
CUT
10
306.592
20
200.400
30
0
0
VERTEX
8
CUT
10
296.642
20
200.400
30
0
0
SEQEND
8
CUT
0
POLYLINE
8
CUT
66
1
70
1
10
0
20
0
30
0
0
VERTEX
8
CUT
10
166.000
20
173.825
30
0
0
VERTEX
8
CUT
10
327.150
20
173.825
30
0
0
VERTEX
8
CUT
10
327.150
20
231.500
30
0
0
VERTEX
8
CUT
10
316.050
20
231.500
30
0
0
VERTEX
8
CUT
10
316.050
20
234.500
30
0
0
VERTEX
8
CUT
10
305.900
20
234.500
30
0
0
VERTEX
8
CUT
10
305.900
20
231.500
30
0
0
VERTEX
8
CUT
10
278.200
20
231.500
30
0
0
VERTEX
8
CUT
10
278.200
20
224.650
30
0
0
VERTEX
8
CUT
10
279.400
20
224.650
30
0
0
VERTEX
8
CUT
10
279.400
20
222.200
30
0
0
VERTEX
8
CUT
10
278.200
20
222.200
30
0
0
VERTEX
8
CUT
10
278.200
20
218.500
30
0
0
VERTEX
8
CUT
10
274.950
20
218.500
30
0
0
VERTEX
8
CUT
10
274.950
20
222.200
30
0
0
VERTEX
8
CUT
10
273.750
20
222.200
30
0
0
VERTEX
8
CUT
10
273.750
20
224.650
30
0
0
VERTEX
8
CUT
10
274.950
20
224.650
30
0
0
VERTEX
8
CUT
10
274.950
20
231.500
30
0
0
VERTEX
8
CUT
10
251.650
20
231.500
30
0
0
VERTEX
8
CUT
10
251.650
20
234.500
30
0
0
VERTEX
8
CUT
10
241.500
20
234.500
30
0
0
VERTEX
8
CUT
10
241.500
20
231.500
30
0
0
VERTEX
8
CUT
10
218.200
20
231.500
30
0
0
VERTEX
8
CUT
10
218.200
20
224.650
30
0
0
VERTEX
8
CUT
10
219.400
20
224.650
30
0
0
VERTEX
8
CUT
10
219.400
20
222.200
30
0
0
VERTEX
8
CUT
10
218.200
20
222.200
30
0
0
VERTEX
8
CUT
10
218.200
20
218.500
30
0
0
VERTEX
8
CUT
10
214.950
20
218.500
30
0
0
VERTEX
8
CUT
10
214.950
20
222.200
30
0
0
VERTEX
8
CUT
10
213.750
20
222.200
30
0
0
VERTEX
8
CUT
10
213.750
20
224.650
30
0
0
VERTEX
8
CUT
10
214.950
20
224.650
30
0
0
VERTEX
8
CUT
10
214.950
20
231.500
30
0
0
VERTEX
8
CUT
10
187.250
20
231.500
30
0
0
VERTEX
8
CUT
10
187.250
20
234.500
30
0
0
VERTEX
8
CUT
10
177.100
20
234.500
30
0
0
VERTEX
8
CUT
10
177.100
20
231.500
30
0
0
VERTEX
8
CUT
10
166.000
20
231.500
30
0
0
SEQEND
8
CUT
0
POLYLINE
8
CUT
66
1
70
1
10
0
20
0
30
0
0
VERTEX
8
CUT
10
385.496
20
257.925
30
0
0
VERTEX
8
CUT
10
385.225
20
258.760
30
0
0
VERTEX
8
CUT
10
384.514
20
259.277
30
0
0
VERTEX
8
CUT
10
383.636
20
259.277
30
0
0
VERTEX
8
CUT
10
382.925
20
258.760
30
0
0
VERTEX
8
CUT
10
382.654
20
257.925
30
0
0
VERTEX
8
CUT
10
382.925
20
257.090
30
0
0
VERTEX
8
CUT
10
383.636
20
256.573
30
0
0
VERTEX
8
CUT
10
384.514
20
256.573
30
0
0
VERTEX
8
CUT
10
385.225
20
257.090
30
0
0
SEQEND
8
CUT
0
POLYLINE
8
CUT
66
1
70
1
10
0
20
0
30
0
0
VERTEX
8
CUT
10
390.996
20
257.925
30
0
0
VERTEX
8
CUT
10
390.725
20
258.760
30
0
0
VERTEX
8
CUT
10
390.014
20
259.277
30
0
0
VERTEX
8
CUT
10
389.136
20
259.277
30
0
0
VERTEX
8
CUT
10
388.425
20
258.760
30
0
0
VERTEX
8
CUT
10
388.154
20
257.925
30
0
0
VERTEX
8
CUT
10
388.425
20
257.090
30
0
0
VERTEX
8
CUT
10
389.136
20
256.573
30
0
0
VERTEX
8
CUT
10
390.014
20
256.573
30
0
0
VERTEX
8
CUT
10
390.725
20
257.090
30
0
0
SEQEND
8
CUT
0
POLYLINE
8
CUT
66
1
70
1
10
0
20
0
30
0
0
VERTEX
8
CUT
10
388.246
20
262.688
30
0
0
VERTEX
8
CUT
10
387.975
20
263.523
30
0
0
VERTEX
8
CUT
10
387.264
20
264.040
30
0
0
VERTEX
8
CUT
10
386.386
20
264.040
30
0
0
VERTEX
8
CUT
10
385.675
20
263.523
30
0
0
VERTEX
8
CUT
10
385.404
20
262.688
30
0
0
VERTEX
8
CUT
10
385.675
20
261.853
30
0
0
VERTEX
8
CUT
10
386.386
20
261.337
30
0
0
VERTEX
8
CUT
10
387.264
20
261.337
30
0
0
VERTEX
8
CUT
10
387.975
20
261.853
30
0
0
SEQEND
8
CUT
0
POLYLINE
8
CUT
66
1
70
1
10
0
20
0
30
0
0
VERTEX
8
CUT
10
382.746
20
262.688
30
0
0
VERTEX
8
CUT
10
382.475
20
263.523
30
0
0
VERTEX
8
CUT
10
381.764
20
264.040
30
0
0
VERTEX
8
CUT
10
380.886
20
264.040
30
0
0
VERTEX
8
CUT
10
380.175
20
263.523
30
0
0
VERTEX
8
CUT
10
379.904
20
262.688
30
0
0
VERTEX
8
CUT
10
380.175
20
261.853
30
0
0
VERTEX
8
CUT
10
380.886
20
261.337
30
0
0
VERTEX
8
CUT
10
381.764
20
261.337
30
0
0
VERTEX
8
CUT
10
382.475
20
261.853
30
0
0
SEQEND
8
CUT
0
POLYLINE
8
CUT
66
1
70
1
10
0
20
0
30
0
0
VERTEX
8
CUT
10
379.996
20
257.925
30
0
0
VERTEX
8
CUT
10
379.725
20
258.760
30
0
0
VERTEX
8
CUT
10
379.014
20
259.277
30
0
0
VERTEX
8
CUT
10
378.136
20
259.277
30
0
0
VERTEX
8
CUT
10
377.425
20
258.760
30
0
0
VERTEX
8
CUT
10
377.154
20
257.925
30
0
0
VERTEX
8
CUT
10
377.425
20
257.090
30
0
0
VERTEX
8
CUT
10
378.136
20
256.573
30
0
0
VERTEX
8
CUT
10
379.014
20
256.573
30
0
0
VERTEX
8
CUT
10
379.725
20
257.090
30
0
0
SEQEND
8
CUT
0
POLYLINE
8
CUT
66
1
70
1
10
0
20
0
30
0
0
VERTEX
8
CUT
10
382.746
20
253.162
30
0
0
VERTEX
8
CUT
10
382.475
20
253.997
30
0
0
VERTEX
8
CUT
10
381.764
20
254.513
30
0
0
VERTEX
8
CUT
10
380.886
20
254.513
30
0
0
VERTEX
8
CUT
10
380.175
20
253.997
30
0
0
VERTEX
8
CUT
10
379.904
20
253.162
30
0
0
VERTEX
8
CUT
10
380.175
20
252.327
30
0
0
VERTEX
8
CUT
10
380.886
20
251.810
30
0
0
VERTEX
8
CUT
10
381.764
20
251.810
30
0
0
VERTEX
8
CUT
10
382.475
20
252.327
30
0
0
SEQEND
8
CUT
0
POLYLINE
8
CUT
66
1
70
1
10
0
20
0
30
0
0
VERTEX
8
CUT
10
388.246
20
253.162
30
0
0
VERTEX
8
CUT
10
387.975
20
253.997
30
0
0
VERTEX
8
CUT
10
387.264
20
254.513
30
0
0
VERTEX
8
CUT
10
386.386
20
254.513
30
0
0
VERTEX
8
CUT
10
385.675
20
253.997
30
0
0
VERTEX
8
CUT
10
385.404
20
253.162
30
0
0
VERTEX
8
CUT
10
385.675
20
252.327
30
0
0
VERTEX
8
CUT
10
386.386
20
251.810
30
0
0
VERTEX
8
CUT
10
387.264
20
251.810
30
0
0
VERTEX
8
CUT
10
387.975
20
252.327
30
0
0
SEQEND
8
CUT
0
POLYLINE
8
CUT
66
1
70
1
10
0
20
0
30
0
0
VERTEX
8
CUT
10
396.496
20
257.925
30
0
0
VERTEX
8
CUT
10
396.225
20
258.760
30
0
0
VERTEX
8
CUT
10
395.514
20
259.277
30
0
0
VERTEX
8
CUT
10
394.636
20
259.277
30
0
0
VERTEX
8
CUT
10
393.925
20
258.760
30
0
0
VERTEX
8
CUT
10
393.654
20
257.925
30
0
0
VERTEX
8
CUT
10
393.925
20
257.090
30
0
0
VERTEX
8
CUT
10
394.636
20
256.573
30
0
0
VERTEX
8
CUT
10
395.514
20
256.573
30
0
0
VERTEX
8
CUT
10
396.225
20
257.090
30
0
0
SEQEND
8
CUT
0
POLYLINE
8
CUT
66
1
70
1
10
0
20
0
30
0
0
VERTEX
8
CUT
10
395.022
20
263.425
30
0
0
VERTEX
8
CUT
10
394.751
20
264.260
30
0
0
VERTEX
8
CUT
10
394.040
20
264.777
30
0
0
VERTEX
8
CUT
10
393.162
20
264.777
30
0
0
VERTEX
8
CUT
10
392.452
20
264.260
30
0
0
VERTEX
8
CUT
10
392.180
20
263.425
30
0
0
VERTEX
8
CUT
10
392.452
20
262.590
30
0
0
VERTEX
8
CUT
10
393.162
20
262.073
30
0
0
VERTEX
8
CUT
10
394.040
20
262.073
30
0
0
VERTEX
8
CUT
10
394.751
20
262.590
30
0
0
SEQEND
8
CUT
0
POLYLINE
8
CUT
66
1
70
1
10
0
20
0
30
0
0
VERTEX
8
CUT
10
390.996
20
267.451
30
0
0
VERTEX
8
CUT
10
390.725
20
268.287
30
0
0
VERTEX
8
CUT
10
390.014
20
268.803
30
0
0
VERTEX
8
CUT
10
389.136
20
268.803
30
0
0
VERTEX
8
CUT
10
388.425
20
268.287
30
0
0
VERTEX
8
CUT
10
388.154
20
267.451
30
0
0
VERTEX
8
CUT
10
388.425
20
266.616
30
0
0
VERTEX
8
CUT
10
389.136
20
266.100
30
0
0
VERTEX
8
CUT
10
390.014
20
266.100
30
0
0
VERTEX
8
CUT
10
390.725
20
266.616
30
0
0
SEQEND
8
CUT
0
POLYLINE
8
CUT
66
1
70
1
10
0
20
0
30
0
0
VERTEX
8
CUT
10
385.496
20
268.925
30
0
0
VERTEX
8
CUT
10
385.225
20
269.760
30
0
0
VERTEX
8
CUT
10
384.514
20
270.277
30
0
0
VERTEX
8
CUT
10
383.636
20
270.277
30
0
0
VERTEX
8
CUT
10
382.925
20
269.760
30
0
0
VERTEX
8
CUT
10
382.654
20
268.925
30
0
0
VERTEX
8
CUT
10
382.925
20
268.090
30
0
0
VERTEX
8
CUT
10
383.636
20
267.573
30
0
0
VERTEX
8
CUT
10
384.514
20
267.573
30
0
0
VERTEX
8
CUT
10
385.225
20
268.090
30
0
0
SEQEND
8
CUT
0
POLYLINE
8
CUT
66
1
70
1
10
0
20
0
30
0
0
VERTEX
8
CUT
10
379.996
20
267.451
30
0
0
VERTEX
8
CUT
10
379.725
20
268.287
30
0
0
VERTEX
8
CUT
10
379.014
20
268.803
30
0
0
VERTEX
8
CUT
10
378.136
20
268.803
30
0
0
VERTEX
8
CUT
10
377.425
20
268.287
30
0
0
VERTEX
8
CUT
10
377.154
20
267.451
30
0
0
VERTEX
8
CUT
10
377.425
20
266.616
30
0
0
VERTEX
8
CUT
10
378.136
20
266.100
30
0
0
VERTEX
8
CUT
10
379.014
20
266.100
30
0
0
VERTEX
8
CUT
10
379.725
20
266.616
30
0
0
SEQEND
8
CUT
0
POLYLINE
8
CUT
66
1
70
1
10
0
20
0
30
0
0
VERTEX
8
CUT
10
375.970
20
263.425
30
0
0
VERTEX
8
CUT
10
375.698
20
264.260
30
0
0
VERTEX
8
CUT
10
374.988
20
264.777
30
0
0
VERTEX
8
CUT
10
374.110
20
264.777
30
0
0
VERTEX
8
CUT
10
373.399
20
264.260
30
0
0
VERTEX
8
CUT
10
373.128
20
263.425
30
0
0
VERTEX
8
CUT
10
373.399
20
262.590
30
0
0
VERTEX
8
CUT
10
374.110
20
262.073
30
0
0
VERTEX
8
CUT
10
374.988
20
262.073
30
0
0
VERTEX
8
CUT
10
375.698
20
262.590
30
0
0
SEQEND
8
CUT
0
POLYLINE
8
CUT
66
1
70
1
10
0
20
0
30
0
0
VERTEX
8
CUT
10
374.496
20
257.925
30
0
0
VERTEX
8
CUT
10
374.225
20
258.760
30
0
0
VERTEX
8
CUT
10
373.514
20
259.277
30
0
0
VERTEX
8
CUT
10
372.636
20
259.277
30
0
0
VERTEX
8
CUT
10
371.925
20
258.760
30
0
0
VERTEX
8
CUT
10
371.654
20
257.925
30
0
0
VERTEX
8
CUT
10
371.925
20
257.090
30
0
0
VERTEX
8
CUT
10
372.636
20
256.573
30
0
0
VERTEX
8
CUT
10
373.514
20
256.573
30
0
0
VERTEX
8
CUT
10
374.225
20
257.090
30
0
0
SEQEND
8
CUT
0
POLYLINE
8
CUT
66
1
70
1
10
0
20
0
30
0
0
VERTEX
8
CUT
10
375.970
20
252.425
30
0
0
VERTEX
8
CUT
10
375.698
20
253.260
30
0
0
VERTEX
8
CUT
10
374.988
20
253.777
30
0
0
VERTEX
8
CUT
10
374.110
20
253.777
30
0
0
VERTEX
8
CUT
10
373.399
20
253.260
30
0
0
VERTEX
8
CUT
10
373.128
20
252.425
30
0
0
VERTEX
8
CUT
10
373.399
20
251.590
30
0
0
VERTEX
8
CUT
10
374.110
20
251.073
30
0
0
VERTEX
8
CUT
10
374.988
20
251.073
30
0
0
VERTEX
8
CUT
10
375.698
20
251.590
30
0
0
SEQEND
8
CUT
0
POLYLINE
8
CUT
66
1
70
1
10
0
20
0
30
0
0
VERTEX
8
CUT
10
379.996
20
248.399
30
0
0
VERTEX
8
CUT
10
379.725
20
249.234
30
0
0
VERTEX
8
CUT
10
379.014
20
249.750
30
0
0
VERTEX
8
CUT
10
378.136
20
249.750
30
0
0
VERTEX
8
CUT
10
377.425
20
249.234
30
0
0
VERTEX
8
CUT
10
377.154
20
248.399
30
0
0
VERTEX
8
CUT
10
377.425
20
247.563
30
0
0
VERTEX
8
CUT
10
378.136
20
247.047
30
0
0
VERTEX
8
CUT
10
379.014
20
247.047
30
0
0
VERTEX
8
CUT
10
379.725
20
247.563
30
0
0
SEQEND
8
CUT
0
POLYLINE
8
CUT
66
1
70
1
10
0
20
0
30
0
0
VERTEX
8
CUT
10
385.496
20
246.925
30
0
0
VERTEX
8
CUT
10
385.225
20
247.760
30
0
0
VERTEX
8
CUT
10
384.514
20
248.277
30
0
0
VERTEX
8
CUT
10
383.636
20
248.277
30
0
0
VERTEX
8
CUT
10
382.925
20
247.760
30
0
0
VERTEX
8
CUT
10
382.654
20
246.925
30
0
0
VERTEX
8
CUT
10
382.925
20
246.090
30
0
0
VERTEX
8
CUT
10
383.636
20
245.573
30
0
0
VERTEX
8
CUT
10
384.514
20
245.573
30
0
0
VERTEX
8
CUT
10
385.225
20
246.090
30
0
0
SEQEND
8
CUT
0
POLYLINE
8
CUT
66
1
70
1
10
0
20
0
30
0
0
VERTEX
8
CUT
10
390.996
20
248.399
30
0
0
VERTEX
8
CUT
10
390.725
20
249.234
30
0
0
VERTEX
8
CUT
10
390.014
20
249.750
30
0
0
VERTEX
8
CUT
10
389.136
20
249.750
30
0
0
VERTEX
8
CUT
10
388.425
20
249.234
30
0
0
VERTEX
8
CUT
10
388.154
20
248.399
30
0
0
VERTEX
8
CUT
10
388.425
20
247.563
30
0
0
VERTEX
8
CUT
10
389.136
20
247.047
30
0
0
VERTEX
8
CUT
10
390.014
20
247.047
30
0
0
VERTEX
8
CUT
10
390.725
20
247.563
30
0
0
SEQEND
8
CUT
0
POLYLINE
8
CUT
66
1
70
1
10
0
20
0
30
0
0
VERTEX
8
CUT
10
395.022
20
252.425
30
0
0
VERTEX
8
CUT
10
394.751
20
253.260
30
0
0
VERTEX
8
CUT
10
394.040
20
253.777
30
0
0
VERTEX
8
CUT
10
393.162
20
253.777
30
0
0
VERTEX
8
CUT
10
392.452
20
253.260
30
0
0
VERTEX
8
CUT
10
392.180
20
252.425
30
0
0
VERTEX
8
CUT
10
392.452
20
251.590
30
0
0
VERTEX
8
CUT
10
393.162
20
251.073
30
0
0
VERTEX
8
CUT
10
394.040
20
251.073
30
0
0
VERTEX
8
CUT
10
394.751
20
251.590
30
0
0
SEQEND
8
CUT
0
POLYLINE
8
CUT
66
1
70
1
10
0
20
0
30
0
0
VERTEX
8
CUT
10
332.000
20
218.850
30
0
0
VERTEX
8
CUT
10
436.150
20
218.850
30
0
0
VERTEX
8
CUT
10
436.150
20
233.350
30
0
0
VERTEX
8
CUT
10
439.150
20
233.350
30
0
0
VERTEX
8
CUT
10
439.150
20
243.500
30
0
0
VERTEX
8
CUT
10
436.150
20
243.500
30
0
0
VERTEX
8
CUT
10
436.150
20
272.350
30
0
0
VERTEX
8
CUT
10
439.150
20
272.350
30
0
0
VERTEX
8
CUT
10
439.150
20
282.500
30
0
0
VERTEX
8
CUT
10
436.150
20
282.500
30
0
0
VERTEX
8
CUT
10
436.150
20
297.000
30
0
0
VERTEX
8
CUT
10
332.000
20
297.000
30
0
0
VERTEX
8
CUT
10
332.000
20
282.500
30
0
0
VERTEX
8
CUT
10
329.000
20
282.500
30
0
0
VERTEX
8
CUT
10
329.000
20
272.350
30
0
0
VERTEX
8
CUT
10
332.000
20
272.350
30
0
0
VERTEX
8
CUT
10
332.000
20
243.500
30
0
0
VERTEX
8
CUT
10
329.000
20
243.500
30
0
0
VERTEX
8
CUT
10
329.000
20
233.350
30
0
0
VERTEX
8
CUT
10
332.000
20
233.350
30
0
0
SEQEND
8
CUT
0
POLYLINE
8
CUT
66
1
70
1
10
0
20
0
30
0
0
VERTEX
8
CUT
10
397.900
20
189.719
30
0
0
VERTEX
8
CUT
10
397.956
20
190.072
30
0
0
VERTEX
8
CUT
10
398.116
20
190.386
30
0
0
VERTEX
8
CUT
10
398.364
20
190.634
30
0
0
VERTEX
8
CUT
10
398.678
20
190.794
30
0
0
VERTEX
8
CUT
10
399.031
20
190.850
30
0
0
VERTEX
8
CUT
10
399.119
20
190.850
30
0
0
VERTEX
8
CUT
10
399.472
20
190.794
30
0
0
VERTEX
8
CUT
10
399.786
20
190.634
30
0
0
VERTEX
8
CUT
10
400.034
20
190.386
30
0
0
VERTEX
8
CUT
10
400.194
20
190.072
30
0
0
VERTEX
8
CUT
10
400.250
20
189.719
30
0
0
VERTEX
8
CUT
10
400.250
20
178.131
30
0
0
VERTEX
8
CUT
10
400.194
20
177.778
30
0
0
VERTEX
8
CUT
10
400.034
20
177.464
30
0
0
VERTEX
8
CUT
10
399.786
20
177.216
30
0
0
VERTEX
8
CUT
10
399.472
20
177.056
30
0
0
VERTEX
8
CUT
10
399.119
20
177.000
30
0
0
VERTEX
8
CUT
10
399.031
20
177.000
30
0
0
VERTEX
8
CUT
10
398.678
20
177.056
30
0
0
VERTEX
8
CUT
10
398.364
20
177.216
30
0
0
VERTEX
8
CUT
10
398.116
20
177.464
30
0
0
VERTEX
8
CUT
10
397.956
20
177.778
30
0
0
VERTEX
8
CUT
10
397.900
20
178.131
30
0
0
SEQEND
8
CUT
0
POLYLINE
8
CUT
66
1
70
1
10
0
20
0
30
0
0
VERTEX
8
CUT
10
392.900
20
189.719
30
0
0
VERTEX
8
CUT
10
392.956
20
190.072
30
0
0
VERTEX
8
CUT
10
393.116
20
190.386
30
0
0
VERTEX
8
CUT
10
393.364
20
190.634
30
0
0
VERTEX
8
CUT
10
393.678
20
190.794
30
0
0
VERTEX
8
CUT
10
394.031
20
190.850
30
0
0
VERTEX
8
CUT
10
394.119
20
190.850
30
0
0
VERTEX
8
CUT
10
394.472
20
190.794
30
0
0
VERTEX
8
CUT
10
394.786
20
190.634
30
0
0
VERTEX
8
CUT
10
395.034
20
190.386
30
0
0
VERTEX
8
CUT
10
395.194
20
190.072
30
0
0
VERTEX
8
CUT
10
395.250
20
189.719
30
0
0
VERTEX
8
CUT
10
395.250
20
178.131
30
0
0
VERTEX
8
CUT
10
395.194
20
177.778
30
0
0
VERTEX
8
CUT
10
395.034
20
177.464
30
0
0
VERTEX
8
CUT
10
394.786
20
177.216
30
0
0
VERTEX
8
CUT
10
394.472
20
177.056
30
0
0
VERTEX
8
CUT
10
394.119
20
177.000
30
0
0
VERTEX
8
CUT
10
394.031
20
177.000
30
0
0
VERTEX
8
CUT
10
393.678
20
177.056
30
0
0
VERTEX
8
CUT
10
393.364
20
177.216
30
0
0
VERTEX
8
CUT
10
393.116
20
177.464
30
0
0
VERTEX
8
CUT
10
392.956
20
177.778
30
0
0
VERTEX
8
CUT
10
392.900
20
178.131
30
0
0
SEQEND
8
CUT
0
POLYLINE
8
CUT
66
1
70
1
10
0
20
0
30
0
0
VERTEX
8
CUT
10
387.900
20
189.719
30
0
0
VERTEX
8
CUT
10
387.956
20
190.072
30
0
0
VERTEX
8
CUT
10
388.116
20
190.386
30
0
0
VERTEX
8
CUT
10
388.364
20
190.634
30
0
0
VERTEX
8
CUT
10
388.678
20
190.794
30
0
0
VERTEX
8
CUT
10
389.031
20
190.850
30
0
0
VERTEX
8
CUT
10
389.119
20
190.850
30
0
0
VERTEX
8
CUT
10
389.472
20
190.794
30
0
0
VERTEX
8
CUT
10
389.786
20
190.634
30
0
0
VERTEX
8
CUT
10
390.034
20
190.386
30
0
0
VERTEX
8
CUT
10
390.194
20
190.072
30
0
0
VERTEX
8
CUT
10
390.250
20
189.719
30
0
0
VERTEX
8
CUT
10
390.250
20
178.131
30
0
0
VERTEX
8
CUT
10
390.194
20
177.778
30
0
0
VERTEX
8
CUT
10
390.034
20
177.464
30
0
0
VERTEX
8
CUT
10
389.786
20
177.216
30
0
0
VERTEX
8
CUT
10
389.472
20
177.056
30
0
0
VERTEX
8
CUT
10
389.119
20
177.000
30
0
0
VERTEX
8
CUT
10
389.031
20
177.000
30
0
0
VERTEX
8
CUT
10
388.678
20
177.056
30
0
0
VERTEX
8
CUT
10
388.364
20
177.216
30
0
0
VERTEX
8
CUT
10
388.116
20
177.464
30
0
0
VERTEX
8
CUT
10
387.956
20
177.778
30
0
0
VERTEX
8
CUT
10
387.900
20
178.131
30
0
0
SEQEND
8
CUT
0
POLYLINE
8
CUT
66
1
70
1
10
0
20
0
30
0
0
VERTEX
8
CUT
10
382.900
20
189.719
30
0
0
VERTEX
8
CUT
10
382.956
20
190.072
30
0
0
VERTEX
8
CUT
10
383.116
20
190.386
30
0
0
VERTEX
8
CUT
10
383.364
20
190.634
30
0
0
VERTEX
8
CUT
10
383.678
20
190.794
30
0
0
VERTEX
8
CUT
10
384.031
20
190.850
30
0
0
VERTEX
8
CUT
10
384.119
20
190.850
30
0
0
VERTEX
8
CUT
10
384.472
20
190.794
30
0
0
VERTEX
8
CUT
10
384.786
20
190.634
30
0
0
VERTEX
8
CUT
10
385.034
20
190.386
30
0
0
VERTEX
8
CUT
10
385.194
20
190.072
30
0
0
VERTEX
8
CUT
10
385.250
20
189.719
30
0
0
VERTEX
8
CUT
10
385.250
20
178.131
30
0
0
VERTEX
8
CUT
10
385.194
20
177.778
30
0
0
VERTEX
8
CUT
10
385.034
20
177.464
30
0
0
VERTEX
8
CUT
10
384.786
20
177.216
30
0
0
VERTEX
8
CUT
10
384.472
20
177.056
30
0
0
VERTEX
8
CUT
10
384.119
20
177.000
30
0
0
VERTEX
8
CUT
10
384.031
20
177.000
30
0
0
VERTEX
8
CUT
10
383.678
20
177.056
30
0
0
VERTEX
8
CUT
10
383.364
20
177.216
30
0
0
VERTEX
8
CUT
10
383.116
20
177.464
30
0
0
VERTEX
8
CUT
10
382.956
20
177.778
30
0
0
VERTEX
8
CUT
10
382.900
20
178.131
30
0
0
SEQEND
8
CUT
0
POLYLINE
8
CUT
66
1
70
1
10
0
20
0
30
0
0
VERTEX
8
CUT
10
377.900
20
189.719
30
0
0
VERTEX
8
CUT
10
377.956
20
190.072
30
0
0
VERTEX
8
CUT
10
378.116
20
190.386
30
0
0
VERTEX
8
CUT
10
378.364
20
190.634
30
0
0
VERTEX
8
CUT
10
378.678
20
190.794
30
0
0
VERTEX
8
CUT
10
379.031
20
190.850
30
0
0
VERTEX
8
CUT
10
379.119
20
190.850
30
0
0
VERTEX
8
CUT
10
379.472
20
190.794
30
0
0
VERTEX
8
CUT
10
379.786
20
190.634
30
0
0
VERTEX
8
CUT
10
380.034
20
190.386
30
0
0
VERTEX
8
CUT
10
380.194
20
190.072
30
0
0
VERTEX
8
CUT
10
380.250
20
189.719
30
0
0
VERTEX
8
CUT
10
380.250
20
178.131
30
0
0
VERTEX
8
CUT
10
380.194
20
177.778
30
0
0
VERTEX
8
CUT
10
380.034
20
177.464
30
0
0
VERTEX
8
CUT
10
379.786
20
177.216
30
0
0
VERTEX
8
CUT
10
379.472
20
177.056
30
0
0
VERTEX
8
CUT
10
379.119
20
177.000
30
0
0
VERTEX
8
CUT
10
379.031
20
177.000
30
0
0
VERTEX
8
CUT
10
378.678
20
177.056
30
0
0
VERTEX
8
CUT
10
378.364
20
177.216
30
0
0
VERTEX
8
CUT
10
378.116
20
177.464
30
0
0
VERTEX
8
CUT
10
377.956
20
177.778
30
0
0
VERTEX
8
CUT
10
377.900
20
178.131
30
0
0
SEQEND
8
CUT
0
POLYLINE
8
CUT
66
1
70
1
10
0
20
0
30
0
0
VERTEX
8
CUT
10
372.900
20
189.719
30
0
0
VERTEX
8
CUT
10
372.956
20
190.072
30
0
0
VERTEX
8
CUT
10
373.116
20
190.386
30
0
0
VERTEX
8
CUT
10
373.364
20
190.634
30
0
0
VERTEX
8
CUT
10
373.678
20
190.794
30
0
0
VERTEX
8
CUT
10
374.031
20
190.850
30
0
0
VERTEX
8
CUT
10
374.119
20
190.850
30
0
0
VERTEX
8
CUT
10
374.472
20
190.794
30
0
0
VERTEX
8
CUT
10
374.786
20
190.634
30
0
0
VERTEX
8
CUT
10
375.034
20
190.386
30
0
0
VERTEX
8
CUT
10
375.194
20
190.072
30
0
0
VERTEX
8
CUT
10
375.250
20
189.719
30
0
0
VERTEX
8
CUT
10
375.250
20
178.131
30
0
0
VERTEX
8
CUT
10
375.194
20
177.778
30
0
0
VERTEX
8
CUT
10
375.034
20
177.464
30
0
0
VERTEX
8
CUT
10
374.786
20
177.216
30
0
0
VERTEX
8
CUT
10
374.472
20
177.056
30
0
0
VERTEX
8
CUT
10
374.119
20
177.000
30
0
0
VERTEX
8
CUT
10
374.031
20
177.000
30
0
0
VERTEX
8
CUT
10
373.678
20
177.056
30
0
0
VERTEX
8
CUT
10
373.364
20
177.216
30
0
0
VERTEX
8
CUT
10
373.116
20
177.464
30
0
0
VERTEX
8
CUT
10
372.956
20
177.778
30
0
0
VERTEX
8
CUT
10
372.900
20
178.131
30
0
0
SEQEND
8
CUT
0
POLYLINE
8
CUT
66
1
70
1
10
0
20
0
30
0
0
VERTEX
8
CUT
10
367.900
20
189.719
30
0
0
VERTEX
8
CUT
10
367.956
20
190.072
30
0
0
VERTEX
8
CUT
10
368.116
20
190.386
30
0
0
VERTEX
8
CUT
10
368.364
20
190.634
30
0
0
VERTEX
8
CUT
10
368.678
20
190.794
30
0
0
VERTEX
8
CUT
10
369.031
20
190.850
30
0
0
VERTEX
8
CUT
10
369.119
20
190.850
30
0
0
VERTEX
8
CUT
10
369.472
20
190.794
30
0
0
VERTEX
8
CUT
10
369.786
20
190.634
30
0
0
VERTEX
8
CUT
10
370.034
20
190.386
30
0
0
VERTEX
8
CUT
10
370.194
20
190.072
30
0
0
VERTEX
8
CUT
10
370.250
20
189.719
30
0
0
VERTEX
8
CUT
10
370.250
20
178.131
30
0
0
VERTEX
8
CUT
10
370.194
20
177.778
30
0
0
VERTEX
8
CUT
10
370.034
20
177.464
30
0
0
VERTEX
8
CUT
10
369.786
20
177.216
30
0
0
VERTEX
8
CUT
10
369.472
20
177.056
30
0
0
VERTEX
8
CUT
10
369.119
20
177.000
30
0
0
VERTEX
8
CUT
10
369.031
20
177.000
30
0
0
VERTEX
8
CUT
10
368.678
20
177.056
30
0
0
VERTEX
8
CUT
10
368.364
20
177.216
30
0
0
VERTEX
8
CUT
10
368.116
20
177.464
30
0
0
VERTEX
8
CUT
10
367.956
20
177.778
30
0
0
VERTEX
8
CUT
10
367.900
20
178.131
30
0
0
SEQEND
8
CUT
0
POLYLINE
8
CUT
66
1
70
1
10
0
20
0
30
0
0
VERTEX
8
CUT
10
436.150
20
138.850
30
0
0
VERTEX
8
CUT
10
332.000
20
138.850
30
0
0
VERTEX
8
CUT
10
332.000
20
153.350
30
0
0
VERTEX
8
CUT
10
329.000
20
153.350
30
0
0
VERTEX
8
CUT
10
329.000
20
163.500
30
0
0
VERTEX
8
CUT
10
332.000
20
163.500
30
0
0
VERTEX
8
CUT
10
332.000
20
192.350
30
0
0
VERTEX
8
CUT
10
329.000
20
192.350
30
0
0
VERTEX
8
CUT
10
329.000
20
202.500
30
0
0
VERTEX
8
CUT
10
332.000
20
202.500
30
0
0
VERTEX
8
CUT
10
332.000
20
217.000
30
0
0
VERTEX
8
CUT
10
436.150
20
217.000
30
0
0
VERTEX
8
CUT
10
436.150
20
202.500
30
0
0
VERTEX
8
CUT
10
439.150
20
202.500
30
0
0
VERTEX
8
CUT
10
439.150
20
192.350
30
0
0
VERTEX
8
CUT
10
436.150
20
192.350
30
0
0
VERTEX
8
CUT
10
436.150
20
163.500
30
0
0
VERTEX
8
CUT
10
439.150
20
163.500
30
0
0
VERTEX
8
CUT
10
439.150
20
153.350
30
0
0
VERTEX
8
CUT
10
436.150
20
153.350
30
0
0
SEQEND
8
CUT
0
POLYLINE
8
CUT
66
1
70
1
10
0
20
0
30
0
0
VERTEX
8
CUT
10
71.900
20
144.719
30
0
0
VERTEX
8
CUT
10
71.956
20
145.072
30
0
0
VERTEX
8
CUT
10
72.116
20
145.386
30
0
0
VERTEX
8
CUT
10
72.364
20
145.634
30
0
0
VERTEX
8
CUT
10
72.678
20
145.794
30
0
0
VERTEX
8
CUT
10
73.031
20
145.850
30
0
0
VERTEX
8
CUT
10
73.119
20
145.850
30
0
0
VERTEX
8
CUT
10
73.472
20
145.794
30
0
0
VERTEX
8
CUT
10
73.786
20
145.634
30
0
0
VERTEX
8
CUT
10
74.034
20
145.386
30
0
0
VERTEX
8
CUT
10
74.194
20
145.072
30
0
0
VERTEX
8
CUT
10
74.250
20
144.719
30
0
0
VERTEX
8
CUT
10
74.250
20
133.131
30
0
0
VERTEX
8
CUT
10
74.194
20
132.778
30
0
0
VERTEX
8
CUT
10
74.034
20
132.464
30
0
0
VERTEX
8
CUT
10
73.786
20
132.216
30
0
0
VERTEX
8
CUT
10
73.472
20
132.056
30
0
0
VERTEX
8
CUT
10
73.119
20
132.000
30
0
0
VERTEX
8
CUT
10
73.031
20
132.000
30
0
0
VERTEX
8
CUT
10
72.678
20
132.056
30
0
0
VERTEX
8
CUT
10
72.364
20
132.216
30
0
0
VERTEX
8
CUT
10
72.116
20
132.464
30
0
0
VERTEX
8
CUT
10
71.956
20
132.778
30
0
0
VERTEX
8
CUT
10
71.900
20
133.131
30
0
0
SEQEND
8
CUT
0
POLYLINE
8
CUT
66
1
70
1
10
0
20
0
30
0
0
VERTEX
8
CUT
10
66.900
20
144.719
30
0
0
VERTEX
8
CUT
10
66.956
20
145.072
30
0
0
VERTEX
8
CUT
10
67.116
20
145.386
30
0
0
VERTEX
8
CUT
10
67.364
20
145.634
30
0
0
VERTEX
8
CUT
10
67.678
20
145.794
30
0
0
VERTEX
8
CUT
10
68.031
20
145.850
30
0
0
VERTEX
8
CUT
10
68.119
20
145.850
30
0
0
VERTEX
8
CUT
10
68.472
20
145.794
30
0
0
VERTEX
8
CUT
10
68.786
20
145.634
30
0
0
VERTEX
8
CUT
10
69.034
20
145.386
30
0
0
VERTEX
8
CUT
10
69.194
20
145.072
30
0
0
VERTEX
8
CUT
10
69.250
20
144.719
30
0
0
VERTEX
8
CUT
10
69.250
20
133.131
30
0
0
VERTEX
8
CUT
10
69.194
20
132.778
30
0
0
VERTEX
8
CUT
10
69.034
20
132.464
30
0
0
VERTEX
8
CUT
10
68.786
20
132.216
30
0
0
VERTEX
8
CUT
10
68.472
20
132.056
30
0
0
VERTEX
8
CUT
10
68.119
20
132.000
30
0
0
VERTEX
8
CUT
10
68.031
20
132.000
30
0
0
VERTEX
8
CUT
10
67.678
20
132.056
30
0
0
VERTEX
8
CUT
10
67.364
20
132.216
30
0
0
VERTEX
8
CUT
10
67.116
20
132.464
30
0
0
VERTEX
8
CUT
10
66.956
20
132.778
30
0
0
VERTEX
8
CUT
10
66.900
20
133.131
30
0
0
SEQEND
8
CUT
0
POLYLINE
8
CUT
66
1
70
1
10
0
20
0
30
0
0
VERTEX
8
CUT
10
61.900
20
144.719
30
0
0
VERTEX
8
CUT
10
61.956
20
145.072
30
0
0
VERTEX
8
CUT
10
62.116
20
145.386
30
0
0
VERTEX
8
CUT
10
62.364
20
145.634
30
0
0
VERTEX
8
CUT
10
62.678
20
145.794
30
0
0
VERTEX
8
CUT
10
63.031
20
145.850
30
0
0
VERTEX
8
CUT
10
63.119
20
145.850
30
0
0
VERTEX
8
CUT
10
63.472
20
145.794
30
0
0
VERTEX
8
CUT
10
63.786
20
145.634
30
0
0
VERTEX
8
CUT
10
64.034
20
145.386
30
0
0
VERTEX
8
CUT
10
64.194
20
145.072
30
0
0
VERTEX
8
CUT
10
64.250
20
144.719
30
0
0
VERTEX
8
CUT
10
64.250
20
133.131
30
0
0
VERTEX
8
CUT
10
64.194
20
132.778
30
0
0
VERTEX
8
CUT
10
64.034
20
132.464
30
0
0
VERTEX
8
CUT
10
63.786
20
132.216
30
0
0
VERTEX
8
CUT
10
63.472
20
132.056
30
0
0
VERTEX
8
CUT
10
63.119
20
132.000
30
0
0
VERTEX
8
CUT
10
63.031
20
132.000
30
0
0
VERTEX
8
CUT
10
62.678
20
132.056
30
0
0
VERTEX
8
CUT
10
62.364
20
132.216
30
0
0
VERTEX
8
CUT
10
62.116
20
132.464
30
0
0
VERTEX
8
CUT
10
61.956
20
132.778
30
0
0
VERTEX
8
CUT
10
61.900
20
133.131
30
0
0
SEQEND
8
CUT
0
POLYLINE
8
CUT
66
1
70
1
10
0
20
0
30
0
0
VERTEX
8
CUT
10
56.900
20
144.719
30
0
0
VERTEX
8
CUT
10
56.956
20
145.072
30
0
0
VERTEX
8
CUT
10
57.116
20
145.386
30
0
0
VERTEX
8
CUT
10
57.364
20
145.634
30
0
0
VERTEX
8
CUT
10
57.678
20
145.794
30
0
0
VERTEX
8
CUT
10
58.031
20
145.850
30
0
0
VERTEX
8
CUT
10
58.119
20
145.850
30
0
0
VERTEX
8
CUT
10
58.472
20
145.794
30
0
0
VERTEX
8
CUT
10
58.786
20
145.634
30
0
0
VERTEX
8
CUT
10
59.034
20
145.386
30
0
0
VERTEX
8
CUT
10
59.194
20
145.072
30
0
0
VERTEX
8
CUT
10
59.250
20
144.719
30
0
0
VERTEX
8
CUT
10
59.250
20
133.131
30
0
0
VERTEX
8
CUT
10
59.194
20
132.778
30
0
0
VERTEX
8
CUT
10
59.034
20
132.464
30
0
0
VERTEX
8
CUT
10
58.786
20
132.216
30
0
0
VERTEX
8
CUT
10
58.472
20
132.056
30
0
0
VERTEX
8
CUT
10
58.119
20
132.000
30
0
0
VERTEX
8
CUT
10
58.031
20
132.000
30
0
0
VERTEX
8
CUT
10
57.678
20
132.056
30
0
0
VERTEX
8
CUT
10
57.364
20
132.216
30
0
0
VERTEX
8
CUT
10
57.116
20
132.464
30
0
0
VERTEX
8
CUT
10
56.956
20
132.778
30
0
0
VERTEX
8
CUT
10
56.900
20
133.131
30
0
0
SEQEND
8
CUT
0
POLYLINE
8
CUT
66
1
70
1
10
0
20
0
30
0
0
VERTEX
8
CUT
10
51.900
20
144.719
30
0
0
VERTEX
8
CUT
10
51.956
20
145.072
30
0
0
VERTEX
8
CUT
10
52.116
20
145.386
30
0
0
VERTEX
8
CUT
10
52.364
20
145.634
30
0
0
VERTEX
8
CUT
10
52.678
20
145.794
30
0
0
VERTEX
8
CUT
10
53.031
20
145.850
30
0
0
VERTEX
8
CUT
10
53.119
20
145.850
30
0
0
VERTEX
8
CUT
10
53.472
20
145.794
30
0
0
VERTEX
8
CUT
10
53.786
20
145.634
30
0
0
VERTEX
8
CUT
10
54.034
20
145.386
30
0
0
VERTEX
8
CUT
10
54.194
20
145.072
30
0
0
VERTEX
8
CUT
10
54.250
20
144.719
30
0
0
VERTEX
8
CUT
10
54.250
20
133.131
30
0
0
VERTEX
8
CUT
10
54.194
20
132.778
30
0
0
VERTEX
8
CUT
10
54.034
20
132.464
30
0
0
VERTEX
8
CUT
10
53.786
20
132.216
30
0
0
VERTEX
8
CUT
10
53.472
20
132.056
30
0
0
VERTEX
8
CUT
10
53.119
20
132.000
30
0
0
VERTEX
8
CUT
10
53.031
20
132.000
30
0
0
VERTEX
8
CUT
10
52.678
20
132.056
30
0
0
VERTEX
8
CUT
10
52.364
20
132.216
30
0
0
VERTEX
8
CUT
10
52.116
20
132.464
30
0
0
VERTEX
8
CUT
10
51.956
20
132.778
30
0
0
VERTEX
8
CUT
10
51.900
20
133.131
30
0
0
SEQEND
8
CUT
0
POLYLINE
8
CUT
66
1
70
1
10
0
20
0
30
0
0
VERTEX
8
CUT
10
46.900
20
144.719
30
0
0
VERTEX
8
CUT
10
46.956
20
145.072
30
0
0
VERTEX
8
CUT
10
47.116
20
145.386
30
0
0
VERTEX
8
CUT
10
47.364
20
145.634
30
0
0
VERTEX
8
CUT
10
47.678
20
145.794
30
0
0
VERTEX
8
CUT
10
48.031
20
145.850
30
0
0
VERTEX
8
CUT
10
48.119
20
145.850
30
0
0
VERTEX
8
CUT
10
48.472
20
145.794
30
0
0
VERTEX
8
CUT
10
48.786
20
145.634
30
0
0
VERTEX
8
CUT
10
49.034
20
145.386
30
0
0
VERTEX
8
CUT
10
49.194
20
145.072
30
0
0
VERTEX
8
CUT
10
49.250
20
144.719
30
0
0
VERTEX
8
CUT
10
49.250
20
133.131
30
0
0
VERTEX
8
CUT
10
49.194
20
132.778
30
0
0
VERTEX
8
CUT
10
49.034
20
132.464
30
0
0
VERTEX
8
CUT
10
48.786
20
132.216
30
0
0
VERTEX
8
CUT
10
48.472
20
132.056
30
0
0
VERTEX
8
CUT
10
48.119
20
132.000
30
0
0
VERTEX
8
CUT
10
48.031
20
132.000
30
0
0
VERTEX
8
CUT
10
47.678
20
132.056
30
0
0
VERTEX
8
CUT
10
47.364
20
132.216
30
0
0
VERTEX
8
CUT
10
47.116
20
132.464
30
0
0
VERTEX
8
CUT
10
46.956
20
132.778
30
0
0
VERTEX
8
CUT
10
46.900
20
133.131
30
0
0
SEQEND
8
CUT
0
POLYLINE
8
CUT
66
1
70
1
10
0
20
0
30
0
0
VERTEX
8
CUT
10
41.900
20
144.719
30
0
0
VERTEX
8
CUT
10
41.956
20
145.072
30
0
0
VERTEX
8
CUT
10
42.116
20
145.386
30
0
0
VERTEX
8
CUT
10
42.364
20
145.634
30
0
0
VERTEX
8
CUT
10
42.678
20
145.794
30
0
0
VERTEX
8
CUT
10
43.031
20
145.850
30
0
0
VERTEX
8
CUT
10
43.119
20
145.850
30
0
0
VERTEX
8
CUT
10
43.472
20
145.794
30
0
0
VERTEX
8
CUT
10
43.786
20
145.634
30
0
0
VERTEX
8
CUT
10
44.034
20
145.386
30
0
0
VERTEX
8
CUT
10
44.194
20
145.072
30
0
0
VERTEX
8
CUT
10
44.250
20
144.719
30
0
0
VERTEX
8
CUT
10
44.250
20
133.131
30
0
0
VERTEX
8
CUT
10
44.194
20
132.778
30
0
0
VERTEX
8
CUT
10
44.034
20
132.464
30
0
0
VERTEX
8
CUT
10
43.786
20
132.216
30
0
0
VERTEX
8
CUT
10
43.472
20
132.056
30
0
0
VERTEX
8
CUT
10
43.119
20
132.000
30
0
0
VERTEX
8
CUT
10
43.031
20
132.000
30
0
0
VERTEX
8
CUT
10
42.678
20
132.056
30
0
0
VERTEX
8
CUT
10
42.364
20
132.216
30
0
0
VERTEX
8
CUT
10
42.116
20
132.464
30
0
0
VERTEX
8
CUT
10
41.956
20
132.778
30
0
0
VERTEX
8
CUT
10
41.900
20
133.131
30
0
0
SEQEND
8
CUT
0
POLYLINE
8
CUT
66
1
70
1
10
0
20
0
30
0
0
VERTEX
8
CUT
10
110.150
20
93.850
30
0
0
VERTEX
8
CUT
10
6.000
20
93.850
30
0
0
VERTEX
8
CUT
10
6.000
20
108.350
30
0
0
VERTEX
8
CUT
10
3.000
20
108.350
30
0
0
VERTEX
8
CUT
10
3.000
20
118.500
30
0
0
VERTEX
8
CUT
10
6.000
20
118.500
30
0
0
VERTEX
8
CUT
10
6.000
20
147.350
30
0
0
VERTEX
8
CUT
10
3.000
20
147.350
30
0
0
VERTEX
8
CUT
10
3.000
20
157.500
30
0
0
VERTEX
8
CUT
10
6.000
20
157.500
30
0
0
VERTEX
8
CUT
10
6.000
20
172.000
30
0
0
VERTEX
8
CUT
10
110.150
20
172.000
30
0
0
VERTEX
8
CUT
10
110.150
20
157.500
30
0
0
VERTEX
8
CUT
10
113.150
20
157.500
30
0
0
VERTEX
8
CUT
10
113.150
20
147.350
30
0
0
VERTEX
8
CUT
10
110.150
20
147.350
30
0
0
VERTEX
8
CUT
10
110.150
20
118.500
30
0
0
VERTEX
8
CUT
10
113.150
20
118.500
30
0
0
VERTEX
8
CUT
10
113.150
20
108.350
30
0
0
VERTEX
8
CUT
10
110.150
20
108.350
30
0
0
SEQEND
8
CUT
0
POLYLINE
8
CUT
66
1
70
1
10
0
20
0
30
0
0
VERTEX
8
CUT
10
183.900
20
144.719
30
0
0
VERTEX
8
CUT
10
183.956
20
145.072
30
0
0
VERTEX
8
CUT
10
184.116
20
145.386
30
0
0
VERTEX
8
CUT
10
184.364
20
145.634
30
0
0
VERTEX
8
CUT
10
184.678
20
145.794
30
0
0
VERTEX
8
CUT
10
185.031
20
145.850
30
0
0
VERTEX
8
CUT
10
185.119
20
145.850
30
0
0
VERTEX
8
CUT
10
185.472
20
145.794
30
0
0
VERTEX
8
CUT
10
185.786
20
145.634
30
0
0
VERTEX
8
CUT
10
186.034
20
145.386
30
0
0
VERTEX
8
CUT
10
186.194
20
145.072
30
0
0
VERTEX
8
CUT
10
186.250
20
144.719
30
0
0
VERTEX
8
CUT
10
186.250
20
133.131
30
0
0
VERTEX
8
CUT
10
186.194
20
132.778
30
0
0
VERTEX
8
CUT
10
186.034
20
132.464
30
0
0
VERTEX
8
CUT
10
185.786
20
132.216
30
0
0
VERTEX
8
CUT
10
185.472
20
132.056
30
0
0
VERTEX
8
CUT
10
185.119
20
132.000
30
0
0
VERTEX
8
CUT
10
185.031
20
132.000
30
0
0
VERTEX
8
CUT
10
184.678
20
132.056
30
0
0
VERTEX
8
CUT
10
184.364
20
132.216
30
0
0
VERTEX
8
CUT
10
184.116
20
132.464
30
0
0
VERTEX
8
CUT
10
183.956
20
132.778
30
0
0
VERTEX
8
CUT
10
183.900
20
133.131
30
0
0
SEQEND
8
CUT
0
POLYLINE
8
CUT
66
1
70
1
10
0
20
0
30
0
0
VERTEX
8
CUT
10
178.900
20
144.719
30
0
0
VERTEX
8
CUT
10
178.956
20
145.072
30
0
0
VERTEX
8
CUT
10
179.116
20
145.386
30
0
0
VERTEX
8
CUT
10
179.364
20
145.634
30
0
0
VERTEX
8
CUT
10
179.678
20
145.794
30
0
0
VERTEX
8
CUT
10
180.031
20
145.850
30
0
0
VERTEX
8
CUT
10
180.119
20
145.850
30
0
0
VERTEX
8
CUT
10
180.472
20
145.794
30
0
0
VERTEX
8
CUT
10
180.786
20
145.634
30
0
0
VERTEX
8
CUT
10
181.034
20
145.386
30
0
0
VERTEX
8
CUT
10
181.194
20
145.072
30
0
0
VERTEX
8
CUT
10
181.250
20
144.719
30
0
0
VERTEX
8
CUT
10
181.250
20
133.131
30
0
0
VERTEX
8
CUT
10
181.194
20
132.778
30
0
0
VERTEX
8
CUT
10
181.034
20
132.464
30
0
0
VERTEX
8
CUT
10
180.786
20
132.216
30
0
0
VERTEX
8
CUT
10
180.472
20
132.056
30
0
0
VERTEX
8
CUT
10
180.119
20
132.000
30
0
0
VERTEX
8
CUT
10
180.031
20
132.000
30
0
0
VERTEX
8
CUT
10
179.678
20
132.056
30
0
0
VERTEX
8
CUT
10
179.364
20
132.216
30
0
0
VERTEX
8
CUT
10
179.116
20
132.464
30
0
0
VERTEX
8
CUT
10
178.956
20
132.778
30
0
0
VERTEX
8
CUT
10
178.900
20
133.131
30
0
0
SEQEND
8
CUT
0
POLYLINE
8
CUT
66
1
70
1
10
0
20
0
30
0
0
VERTEX
8
CUT
10
173.900
20
144.719
30
0
0
VERTEX
8
CUT
10
173.956
20
145.072
30
0
0
VERTEX
8
CUT
10
174.116
20
145.386
30
0
0
VERTEX
8
CUT
10
174.364
20
145.634
30
0
0
VERTEX
8
CUT
10
174.678
20
145.794
30
0
0
VERTEX
8
CUT
10
175.031
20
145.850
30
0
0
VERTEX
8
CUT
10
175.119
20
145.850
30
0
0
VERTEX
8
CUT
10
175.472
20
145.794
30
0
0
VERTEX
8
CUT
10
175.786
20
145.634
30
0
0
VERTEX
8
CUT
10
176.034
20
145.386
30
0
0
VERTEX
8
CUT
10
176.194
20
145.072
30
0
0
VERTEX
8
CUT
10
176.250
20
144.719
30
0
0
VERTEX
8
CUT
10
176.250
20
133.131
30
0
0
VERTEX
8
CUT
10
176.194
20
132.778
30
0
0
VERTEX
8
CUT
10
176.034
20
132.464
30
0
0
VERTEX
8
CUT
10
175.786
20
132.216
30
0
0
VERTEX
8
CUT
10
175.472
20
132.056
30
0
0
VERTEX
8
CUT
10
175.119
20
132.000
30
0
0
VERTEX
8
CUT
10
175.031
20
132.000
30
0
0
VERTEX
8
CUT
10
174.678
20
132.056
30
0
0
VERTEX
8
CUT
10
174.364
20
132.216
30
0
0
VERTEX
8
CUT
10
174.116
20
132.464
30
0
0
VERTEX
8
CUT
10
173.956
20
132.778
30
0
0
VERTEX
8
CUT
10
173.900
20
133.131
30
0
0
SEQEND
8
CUT
0
POLYLINE
8
CUT
66
1
70
1
10
0
20
0
30
0
0
VERTEX
8
CUT
10
168.900
20
144.719
30
0
0
VERTEX
8
CUT
10
168.956
20
145.072
30
0
0
VERTEX
8
CUT
10
169.116
20
145.386
30
0
0
VERTEX
8
CUT
10
169.364
20
145.634
30
0
0
VERTEX
8
CUT
10
169.678
20
145.794
30
0
0
VERTEX
8
CUT
10
170.031
20
145.850
30
0
0
VERTEX
8
CUT
10
170.119
20
145.850
30
0
0
VERTEX
8
CUT
10
170.472
20
145.794
30
0
0
VERTEX
8
CUT
10
170.786
20
145.634
30
0
0
VERTEX
8
CUT
10
171.034
20
145.386
30
0
0
VERTEX
8
CUT
10
171.194
20
145.072
30
0
0
VERTEX
8
CUT
10
171.250
20
144.719
30
0
0
VERTEX
8
CUT
10
171.250
20
133.131
30
0
0
VERTEX
8
CUT
10
171.194
20
132.778
30
0
0
VERTEX
8
CUT
10
171.034
20
132.464
30
0
0
VERTEX
8
CUT
10
170.786
20
132.216
30
0
0
VERTEX
8
CUT
10
170.472
20
132.056
30
0
0
VERTEX
8
CUT
10
170.119
20
132.000
30
0
0
VERTEX
8
CUT
10
170.031
20
132.000
30
0
0
VERTEX
8
CUT
10
169.678
20
132.056
30
0
0
VERTEX
8
CUT
10
169.364
20
132.216
30
0
0
VERTEX
8
CUT
10
169.116
20
132.464
30
0
0
VERTEX
8
CUT
10
168.956
20
132.778
30
0
0
VERTEX
8
CUT
10
168.900
20
133.131
30
0
0
SEQEND
8
CUT
0
POLYLINE
8
CUT
66
1
70
1
10
0
20
0
30
0
0
VERTEX
8
CUT
10
163.900
20
144.719
30
0
0
VERTEX
8
CUT
10
163.956
20
145.072
30
0
0
VERTEX
8
CUT
10
164.116
20
145.386
30
0
0
VERTEX
8
CUT
10
164.364
20
145.634
30
0
0
VERTEX
8
CUT
10
164.678
20
145.794
30
0
0
VERTEX
8
CUT
10
165.031
20
145.850
30
0
0
VERTEX
8
CUT
10
165.119
20
145.850
30
0
0
VERTEX
8
CUT
10
165.472
20
145.794
30
0
0
VERTEX
8
CUT
10
165.786
20
145.634
30
0
0
VERTEX
8
CUT
10
166.034
20
145.386
30
0
0
VERTEX
8
CUT
10
166.194
20
145.072
30
0
0
VERTEX
8
CUT
10
166.250
20
144.719
30
0
0
VERTEX
8
CUT
10
166.250
20
133.131
30
0
0
VERTEX
8
CUT
10
166.194
20
132.778
30
0
0
VERTEX
8
CUT
10
166.034
20
132.464
30
0
0
VERTEX
8
CUT
10
165.786
20
132.216
30
0
0
VERTEX
8
CUT
10
165.472
20
132.056
30
0
0
VERTEX
8
CUT
10
165.119
20
132.000
30
0
0
VERTEX
8
CUT
10
165.031
20
132.000
30
0
0
VERTEX
8
CUT
10
164.678
20
132.056
30
0
0
VERTEX
8
CUT
10
164.364
20
132.216
30
0
0
VERTEX
8
CUT
10
164.116
20
132.464
30
0
0
VERTEX
8
CUT
10
163.956
20
132.778
30
0
0
VERTEX
8
CUT
10
163.900
20
133.131
30
0
0
SEQEND
8
CUT
0
POLYLINE
8
CUT
66
1
70
1
10
0
20
0
30
0
0
VERTEX
8
CUT
10
158.900
20
144.719
30
0
0
VERTEX
8
CUT
10
158.956
20
145.072
30
0
0
VERTEX
8
CUT
10
159.116
20
145.386
30
0
0
VERTEX
8
CUT
10
159.364
20
145.634
30
0
0
VERTEX
8
CUT
10
159.678
20
145.794
30
0
0
VERTEX
8
CUT
10
160.031
20
145.850
30
0
0
VERTEX
8
CUT
10
160.119
20
145.850
30
0
0
VERTEX
8
CUT
10
160.472
20
145.794
30
0
0
VERTEX
8
CUT
10
160.786
20
145.634
30
0
0
VERTEX
8
CUT
10
161.034
20
145.386
30
0
0
VERTEX
8
CUT
10
161.194
20
145.072
30
0
0
VERTEX
8
CUT
10
161.250
20
144.719
30
0
0
VERTEX
8
CUT
10
161.250
20
133.131
30
0
0
VERTEX
8
CUT
10
161.194
20
132.778
30
0
0
VERTEX
8
CUT
10
161.034
20
132.464
30
0
0
VERTEX
8
CUT
10
160.786
20
132.216
30
0
0
VERTEX
8
CUT
10
160.472
20
132.056
30
0
0
VERTEX
8
CUT
10
160.119
20
132.000
30
0
0
VERTEX
8
CUT
10
160.031
20
132.000
30
0
0
VERTEX
8
CUT
10
159.678
20
132.056
30
0
0
VERTEX
8
CUT
10
159.364
20
132.216
30
0
0
VERTEX
8
CUT
10
159.116
20
132.464
30
0
0
VERTEX
8
CUT
10
158.956
20
132.778
30
0
0
VERTEX
8
CUT
10
158.900
20
133.131
30
0
0
SEQEND
8
CUT
0
POLYLINE
8
CUT
66
1
70
1
10
0
20
0
30
0
0
VERTEX
8
CUT
10
153.900
20
144.719
30
0
0
VERTEX
8
CUT
10
153.956
20
145.072
30
0
0
VERTEX
8
CUT
10
154.116
20
145.386
30
0
0
VERTEX
8
CUT
10
154.364
20
145.634
30
0
0
VERTEX
8
CUT
10
154.678
20
145.794
30
0
0
VERTEX
8
CUT
10
155.031
20
145.850
30
0
0
VERTEX
8
CUT
10
155.119
20
145.850
30
0
0
VERTEX
8
CUT
10
155.472
20
145.794
30
0
0
VERTEX
8
CUT
10
155.786
20
145.634
30
0
0
VERTEX
8
CUT
10
156.034
20
145.386
30
0
0
VERTEX
8
CUT
10
156.194
20
145.072
30
0
0
VERTEX
8
CUT
10
156.250
20
144.719
30
0
0
VERTEX
8
CUT
10
156.250
20
133.131
30
0
0
VERTEX
8
CUT
10
156.194
20
132.778
30
0
0
VERTEX
8
CUT
10
156.034
20
132.464
30
0
0
VERTEX
8
CUT
10
155.786
20
132.216
30
0
0
VERTEX
8
CUT
10
155.472
20
132.056
30
0
0
VERTEX
8
CUT
10
155.119
20
132.000
30
0
0
VERTEX
8
CUT
10
155.031
20
132.000
30
0
0
VERTEX
8
CUT
10
154.678
20
132.056
30
0
0
VERTEX
8
CUT
10
154.364
20
132.216
30
0
0
VERTEX
8
CUT
10
154.116
20
132.464
30
0
0
VERTEX
8
CUT
10
153.956
20
132.778
30
0
0
VERTEX
8
CUT
10
153.900
20
133.131
30
0
0
SEQEND
8
CUT
0
POLYLINE
8
CUT
66
1
70
1
10
0
20
0
30
0
0
VERTEX
8
CUT
10
222.150
20
93.850
30
0
0
VERTEX
8
CUT
10
118.000
20
93.850
30
0
0
VERTEX
8
CUT
10
118.000
20
108.350
30
0
0
VERTEX
8
CUT
10
115.000
20
108.350
30
0
0
VERTEX
8
CUT
10
115.000
20
118.500
30
0
0
VERTEX
8
CUT
10
118.000
20
118.500
30
0
0
VERTEX
8
CUT
10
118.000
20
147.350
30
0
0
VERTEX
8
CUT
10
115.000
20
147.350
30
0
0
VERTEX
8
CUT
10
115.000
20
157.500
30
0
0
VERTEX
8
CUT
10
118.000
20
157.500
30
0
0
VERTEX
8
CUT
10
118.000
20
172.000
30
0
0
VERTEX
8
CUT
10
222.150
20
172.000
30
0
0
VERTEX
8
CUT
10
222.150
20
157.500
30
0
0
VERTEX
8
CUT
10
225.150
20
157.500
30
0
0
VERTEX
8
CUT
10
225.150
20
147.350
30
0
0
VERTEX
8
CUT
10
222.150
20
147.350
30
0
0
VERTEX
8
CUT
10
222.150
20
118.500
30
0
0
VERTEX
8
CUT
10
225.150
20
118.500
30
0
0
VERTEX
8
CUT
10
225.150
20
108.350
30
0
0
VERTEX
8
CUT
10
222.150
20
108.350
30
0
0
SEQEND
8
CUT
0
POLYLINE
8
CUT
66
1
70
1
10
0
20
0
30
0
0
VERTEX
8
CUT
10
247.269
20
159.650
30
0
0
VERTEX
8
CUT
10
247.406
20
159.628
30
0
0
VERTEX
8
CUT
10
247.524
20
159.568
30
0
0
VERTEX
8
CUT
10
247.618
20
159.474
30
0
0
VERTEX
8
CUT
10
247.678
20
159.356
30
0
0
VERTEX
8
CUT
10
247.700
20
159.219
30
0
0
VERTEX
8
CUT
10
247.700
20
147.231
30
0
0
VERTEX
8
CUT
10
247.678
20
147.094
30
0
0
VERTEX
8
CUT
10
247.618
20
146.976
30
0
0
VERTEX
8
CUT
10
247.524
20
146.882
30
0
0
VERTEX
8
CUT
10
247.406
20
146.822
30
0
0
VERTEX
8
CUT
10
247.269
20
146.800
30
0
0
VERTEX
8
CUT
10
229.281
20
146.800
30
0
0
VERTEX
8
CUT
10
229.144
20
146.822
30
0
0
VERTEX
8
CUT
10
229.026
20
146.882
30
0
0
VERTEX
8
CUT
10
228.932
20
146.976
30
0
0
VERTEX
8
CUT
10
228.872
20
147.094
30
0
0
VERTEX
8
CUT
10
228.850
20
147.231
30
0
0
VERTEX
8
CUT
10
228.850
20
159.219
30
0
0
VERTEX
8
CUT
10
228.872
20
159.356
30
0
0
VERTEX
8
CUT
10
228.932
20
159.474
30
0
0
VERTEX
8
CUT
10
229.026
20
159.568
30
0
0
VERTEX
8
CUT
10
229.144
20
159.628
30
0
0
VERTEX
8
CUT
10
229.281
20
159.650
30
0
0
SEQEND
8
CUT
0
POLYLINE
8
CUT
66
1
70
1
10
0
20
0
30
0
0
VERTEX
8
CUT
10
276.569
20
137.700
30
0
0
VERTEX
8
CUT
10
276.706
20
137.678
30
0
0
VERTEX
8
CUT
10
276.824
20
137.618
30
0
0
VERTEX
8
CUT
10
276.918
20
137.524
30
0
0
VERTEX
8
CUT
10
276.978
20
137.406
30
0
0
VERTEX
8
CUT
10
277.000
20
137.269
30
0
0
VERTEX
8
CUT
10
277.000
20
114.581
30
0
0
VERTEX
8
CUT
10
276.978
20
114.444
30
0
0
VERTEX
8
CUT
10
276.918
20
114.326
30
0
0
VERTEX
8
CUT
10
276.824
20
114.232
30
0
0
VERTEX
8
CUT
10
276.706
20
114.172
30
0
0
VERTEX
8
CUT
10
276.569
20
114.150
30
0
0
VERTEX
8
CUT
10
264.981
20
114.150
30
0
0
VERTEX
8
CUT
10
264.844
20
114.172
30
0
0
VERTEX
8
CUT
10
264.726
20
114.232
30
0
0
VERTEX
8
CUT
10
264.632
20
114.326
30
0
0
VERTEX
8
CUT
10
264.572
20
114.444
30
0
0
VERTEX
8
CUT
10
264.550
20
114.581
30
0
0
VERTEX
8
CUT
10
264.550
20
137.269
30
0
0
VERTEX
8
CUT
10
264.572
20
137.406
30
0
0
VERTEX
8
CUT
10
264.632
20
137.524
30
0
0
VERTEX
8
CUT
10
264.726
20
137.618
30
0
0
VERTEX
8
CUT
10
264.844
20
137.678
30
0
0
VERTEX
8
CUT
10
264.981
20
137.700
30
0
0
SEQEND
8
CUT
0
POLYLINE
8
CUT
66
1
70
1
10
0
20
0
30
0
0
VERTEX
8
CUT
10
263.200
20
101.265
30
0
0
VERTEX
8
CUT
10
260.849
20
102.374
30
0
0
VERTEX
8
CUT
10
258.571
20
103.847
30
0
0
VERTEX
8
CUT
10
256.508
20
105.609
30
0
0
VERTEX
8
CUT
10
254.697
20
107.628
30
0
0
VERTEX
8
CUT
10
253.170
20
109.870
30
0
0
VERTEX
8
CUT
10
251.953
20
112.295
30
0
0
VERTEX
8
CUT
10
251.068
20
114.859
30
0
0
VERTEX
8
CUT
10
250.530
20
117.518
30
0
0
VERTEX
8
CUT
10
250.350
20
120.225
30
0
0
VERTEX
8
CUT
10
250.530
20
122.932
30
0
0
VERTEX
8
CUT
10
251.068
20
125.591
30
0
0
VERTEX
8
CUT
10
251.953
20
128.155
30
0
0
VERTEX
8
CUT
10
253.170
20
130.580
30
0
0
VERTEX
8
CUT
10
254.697
20
132.822
30
0
0
VERTEX
8
CUT
10
256.508
20
134.841
30
0
0
VERTEX
8
CUT
10
258.571
20
136.603
30
0
0
VERTEX
8
CUT
10
260.849
20
138.076
30
0
0
VERTEX
8
CUT
10
263.200
20
139.185
30
0
0
VERTEX
8
CUT
10
263.200
20
125.221
30
0
0
VERTEX
8
CUT
10
262.902
20
124.739
30
0
0
VERTEX
8
CUT
10
262.625
20
124.217
30
0
0
VERTEX
8
CUT
10
262.383
20
123.679
30
0
0
VERTEX
8
CUT
10
262.176
20
123.126
30
0
0
VERTEX
8
CUT
10
262.006
20
122.561
30
0
0
VERTEX
8
CUT
10
261.872
20
121.985
30
0
0
VERTEX
8
CUT
10
261.777
20
121.403
30
0
0
VERTEX
8
CUT
10
261.719
20
120.815
30
0
0
VERTEX
8
CUT
10
261.700
20
120.225
30
0
0
VERTEX
8
CUT
10
261.719
20
119.635
30
0
0
VERTEX
8
CUT
10
261.777
20
119.047
30
0
0
VERTEX
8
CUT
10
261.872
20
118.465
30
0
0
VERTEX
8
CUT
10
262.006
20
117.889
30
0
0
VERTEX
8
CUT
10
262.176
20
117.324
30
0
0
VERTEX
8
CUT
10
262.383
20
116.771
30
0
0
VERTEX
8
CUT
10
262.625
20
116.233
30
0
0
VERTEX
8
CUT
10
262.902
20
115.711
30
0
0
VERTEX
8
CUT
10
263.200
20
115.229
30
0
0
SEQEND
8
CUT
0
POLYLINE
8
CUT
66
1
70
1
10
0
20
0
30
0
0
VERTEX
8
CUT
10
270.775
20
112.746
30
0
0
VERTEX
8
CUT
10
271.199
20
112.608
30
0
0
VERTEX
8
CUT
10
271.461
20
112.248
30
0
0
VERTEX
8
CUT
10
271.461
20
111.802
30
0
0
VERTEX
8
CUT
10
271.199
20
111.442
30
0
0
VERTEX
8
CUT
10
270.775
20
111.304
30
0
0
VERTEX
8
CUT
10
270.351
20
111.442
30
0
0
VERTEX
8
CUT
10
270.089
20
111.802
30
0
0
VERTEX
8
CUT
10
270.089
20
112.248
30
0
0
VERTEX
8
CUT
10
270.351
20
112.608
30
0
0
SEQEND
8
CUT
0
POLYLINE
8
CUT
66
1
70
1
10
0
20
0
30
0
0
VERTEX
8
CUT
10
270.775
20
140.546
30
0
0
VERTEX
8
CUT
10
271.199
20
140.408
30
0
0
VERTEX
8
CUT
10
271.461
20
140.048
30
0
0
VERTEX
8
CUT
10
271.461
20
139.602
30
0
0
VERTEX
8
CUT
10
271.199
20
139.242
30
0
0
VERTEX
8
CUT
10
270.775
20
139.104
30
0
0
VERTEX
8
CUT
10
270.351
20
139.242
30
0
0
VERTEX
8
CUT
10
270.089
20
139.602
30
0
0
VERTEX
8
CUT
10
270.089
20
140.048
30
0
0
VERTEX
8
CUT
10
270.351
20
140.408
30
0
0
SEQEND
8
CUT
0
POLYLINE
8
CUT
66
1
70
1
10
0
20
0
30
0
0
VERTEX
8
CUT
10
280.800
20
150.950
30
0
0
VERTEX
8
CUT
10
280.800
20
160.900
30
0
0
VERTEX
8
CUT
10
283.750
20
160.900
30
0
0
VERTEX
8
CUT
10
283.750
20
150.950
30
0
0
SEQEND
8
CUT
0
POLYLINE
8
CUT
66
1
70
1
10
0
20
0
30
0
0
VERTEX
8
CUT
10
280.800
20
79.550
30
0
0
VERTEX
8
CUT
10
280.800
20
89.500
30
0
0
VERTEX
8
CUT
10
283.750
20
89.500
30
0
0
VERTEX
8
CUT
10
283.750
20
79.550
30
0
0
SEQEND
8
CUT
0
POLYLINE
8
CUT
66
1
70
1
10
0
20
0
30
0
0
VERTEX
8
CUT
10
265.050
20
69.650
30
0
0
VERTEX
8
CUT
10
265.050
20
72.600
30
0
0
VERTEX
8
CUT
10
275.000
20
72.600
30
0
0
VERTEX
8
CUT
10
275.000
20
69.650
30
0
0
SEQEND
8
CUT
0
POLYLINE
8
CUT
66
1
70
1
10
0
20
0
30
0
0
VERTEX
8
CUT
10
237.550
20
69.650
30
0
0
VERTEX
8
CUT
10
237.550
20
72.600
30
0
0
VERTEX
8
CUT
10
247.500
20
72.600
30
0
0
VERTEX
8
CUT
10
247.500
20
69.650
30
0
0
SEQEND
8
CUT
0
POLYLINE
8
CUT
66
1
70
1
10
0
20
0
30
0
0
VERTEX
8
CUT
10
265.050
20
167.850
30
0
0
VERTEX
8
CUT
10
265.050
20
170.800
30
0
0
VERTEX
8
CUT
10
275.000
20
170.800
30
0
0
VERTEX
8
CUT
10
275.000
20
167.850
30
0
0
SEQEND
8
CUT
0
POLYLINE
8
CUT
66
1
70
1
10
0
20
0
30
0
0
VERTEX
8
CUT
10
237.550
20
167.850
30
0
0
VERTEX
8
CUT
10
237.550
20
170.800
30
0
0
VERTEX
8
CUT
10
247.500
20
170.800
30
0
0
VERTEX
8
CUT
10
247.500
20
167.850
30
0
0
SEQEND
8
CUT
0
POLYLINE
8
CUT
66
1
70
1
10
0
20
0
30
0
0
VERTEX
8
CUT
10
250.372
20
145.782
30
0
0
VERTEX
8
CUT
10
250.372
20
148.732
30
0
0
VERTEX
8
CUT
10
253.322
20
148.732
30
0
0
VERTEX
8
CUT
10
253.322
20
145.782
30
0
0
SEQEND
8
CUT
0
POLYLINE
8
CUT
66
1
70
1
10
0
20
0
30
0
0
VERTEX
8
CUT
10
250.372
20
91.718
30
0
0
VERTEX
8
CUT
10
250.372
20
94.668
30
0
0
VERTEX
8
CUT
10
253.322
20
94.668
30
0
0
VERTEX
8
CUT
10
253.322
20
91.718
30
0
0
SEQEND
8
CUT
0
POLYLINE
8
CUT
66
1
70
1
10
0
20
0
30
0
0
VERTEX
8
CUT
10
227.000
20
70.520
30
0
0
VERTEX
8
CUT
10
227.000
20
169.930
30
0
0
VERTEX
8
CUT
10
227.070
20
170.462
30
0
0
VERTEX
8
CUT
10
227.277
20
170.963
30
0
0
VERTEX
8
CUT
10
227.607
20
171.393
30
0
0
VERTEX
8
CUT
10
228.037
20
171.723
30
0
0
VERTEX
8
CUT
10
228.538
20
171.930
30
0
0
VERTEX
8
CUT
10
229.070
20
172.000
30
0
0
VERTEX
8
CUT
10
312.480
20
172.000
30
0
0
VERTEX
8
CUT
10
313.012
20
171.930
30
0
0
VERTEX
8
CUT
10
313.513
20
171.723
30
0
0
VERTEX
8
CUT
10
313.943
20
171.393
30
0
0
VERTEX
8
CUT
10
314.273
20
170.963
30
0
0
VERTEX
8
CUT
10
314.480
20
170.462
30
0
0
VERTEX
8
CUT
10
314.550
20
169.930
30
0
0
VERTEX
8
CUT
10
314.550
20
70.520
30
0
0
VERTEX
8
CUT
10
314.480
20
69.988
30
0
0
VERTEX
8
CUT
10
314.273
20
69.487
30
0
0
VERTEX
8
CUT
10
313.943
20
69.057
30
0
0
VERTEX
8
CUT
10
313.513
20
68.727
30
0
0
VERTEX
8
CUT
10
313.012
20
68.520
30
0
0
VERTEX
8
CUT
10
312.480
20
68.450
30
0
0
VERTEX
8
CUT
10
229.070
20
68.450
30
0
0
VERTEX
8
CUT
10
228.538
20
68.520
30
0
0
VERTEX
8
CUT
10
228.037
20
68.727
30
0
0
VERTEX
8
CUT
10
227.607
20
69.057
30
0
0
VERTEX
8
CUT
10
227.277
20
69.487
30
0
0
VERTEX
8
CUT
10
227.070
20
69.988
30
0
0
SEQEND
8
CUT
0
POLYLINE
8
CUT
66
1
70
1
10
0
20
0
30
0
0
VERTEX
8
CUT
10
328.850
20
69.719
30
0
0
VERTEX
8
CUT
10
328.872
20
69.856
30
0
0
VERTEX
8
CUT
10
328.932
20
69.974
30
0
0
VERTEX
8
CUT
10
329.026
20
70.068
30
0
0
VERTEX
8
CUT
10
329.144
20
70.128
30
0
0
VERTEX
8
CUT
10
329.281
20
70.150
30
0
0
VERTEX
8
CUT
10
341.269
20
70.150
30
0
0
VERTEX
8
CUT
10
341.406
20
70.128
30
0
0
VERTEX
8
CUT
10
341.524
20
70.068
30
0
0
VERTEX
8
CUT
10
341.618
20
69.974
30
0
0
VERTEX
8
CUT
10
341.678
20
69.856
30
0
0
VERTEX
8
CUT
10
341.700
20
69.719
30
0
0
VERTEX
8
CUT
10
341.700
20
51.731
30
0
0
VERTEX
8
CUT
10
341.678
20
51.594
30
0
0
VERTEX
8
CUT
10
341.618
20
51.476
30
0
0
VERTEX
8
CUT
10
341.524
20
51.382
30
0
0
VERTEX
8
CUT
10
341.406
20
51.322
30
0
0
VERTEX
8
CUT
10
341.269
20
51.300
30
0
0
VERTEX
8
CUT
10
329.281
20
51.300
30
0
0
VERTEX
8
CUT
10
329.144
20
51.322
30
0
0
VERTEX
8
CUT
10
329.026
20
51.382
30
0
0
VERTEX
8
CUT
10
328.932
20
51.476
30
0
0
VERTEX
8
CUT
10
328.872
20
51.594
30
0
0
VERTEX
8
CUT
10
328.850
20
51.731
30
0
0
SEQEND
8
CUT
0
POLYLINE
8
CUT
66
1
70
1
10
0
20
0
30
0
0
VERTEX
8
CUT
10
350.800
20
99.019
30
0
0
VERTEX
8
CUT
10
350.822
20
99.156
30
0
0
VERTEX
8
CUT
10
350.882
20
99.274
30
0
0
VERTEX
8
CUT
10
350.976
20
99.368
30
0
0
VERTEX
8
CUT
10
351.094
20
99.428
30
0
0
VERTEX
8
CUT
10
351.231
20
99.450
30
0
0
VERTEX
8
CUT
10
373.919
20
99.450
30
0
0
VERTEX
8
CUT
10
374.056
20
99.428
30
0
0
VERTEX
8
CUT
10
374.174
20
99.368
30
0
0
VERTEX
8
CUT
10
374.268
20
99.274
30
0
0
VERTEX
8
CUT
10
374.328
20
99.156
30
0
0
VERTEX
8
CUT
10
374.350
20
99.019
30
0
0
VERTEX
8
CUT
10
374.350
20
87.431
30
0
0
VERTEX
8
CUT
10
374.328
20
87.294
30
0
0
VERTEX
8
CUT
10
374.268
20
87.176
30
0
0
VERTEX
8
CUT
10
374.174
20
87.082
30
0
0
VERTEX
8
CUT
10
374.056
20
87.022
30
0
0
VERTEX
8
CUT
10
373.919
20
87.000
30
0
0
VERTEX
8
CUT
10
351.231
20
87.000
30
0
0
VERTEX
8
CUT
10
351.094
20
87.022
30
0
0
VERTEX
8
CUT
10
350.976
20
87.082
30
0
0
VERTEX
8
CUT
10
350.882
20
87.176
30
0
0
VERTEX
8
CUT
10
350.822
20
87.294
30
0
0
VERTEX
8
CUT
10
350.800
20
87.431
30
0
0
SEQEND
8
CUT
0
POLYLINE
8
CUT
66
1
70
1
10
0
20
0
30
0
0
VERTEX
8
CUT
10
387.235
20
85.650
30
0
0
VERTEX
8
CUT
10
386.126
20
83.299
30
0
0
VERTEX
8
CUT
10
384.653
20
81.021
30
0
0
VERTEX
8
CUT
10
382.891
20
78.958
30
0
0
VERTEX
8
CUT
10
380.872
20
77.147
30
0
0
VERTEX
8
CUT
10
378.630
20
75.620
30
0
0
VERTEX
8
CUT
10
376.205
20
74.403
30
0
0
VERTEX
8
CUT
10
373.641
20
73.518
30
0
0
VERTEX
8
CUT
10
370.982
20
72.980
30
0
0
VERTEX
8
CUT
10
368.275
20
72.800
30
0
0
VERTEX
8
CUT
10
365.568
20
72.980
30
0
0
VERTEX
8
CUT
10
362.909
20
73.518
30
0
0
VERTEX
8
CUT
10
360.345
20
74.403
30
0
0
VERTEX
8
CUT
10
357.920
20
75.620
30
0
0
VERTEX
8
CUT
10
355.678
20
77.147
30
0
0
VERTEX
8
CUT
10
353.659
20
78.958
30
0
0
VERTEX
8
CUT
10
351.897
20
81.021
30
0
0
VERTEX
8
CUT
10
350.424
20
83.299
30
0
0
VERTEX
8
CUT
10
349.315
20
85.650
30
0
0
VERTEX
8
CUT
10
363.279
20
85.650
30
0
0
VERTEX
8
CUT
10
363.761
20
85.352
30
0
0
VERTEX
8
CUT
10
364.283
20
85.075
30
0
0
VERTEX
8
CUT
10
364.821
20
84.833
30
0
0
VERTEX
8
CUT
10
365.374
20
84.626
30
0
0
VERTEX
8
CUT
10
365.939
20
84.456
30
0
0
VERTEX
8
CUT
10
366.515
20
84.322
30
0
0
VERTEX
8
CUT
10
367.097
20
84.227
30
0
0
VERTEX
8
CUT
10
367.685
20
84.169
30
0
0
VERTEX
8
CUT
10
368.275
20
84.150
30
0
0
VERTEX
8
CUT
10
368.865
20
84.169
30
0
0
VERTEX
8
CUT
10
369.453
20
84.227
30
0
0
VERTEX
8
CUT
10
370.035
20
84.322
30
0
0
VERTEX
8
CUT
10
370.611
20
84.456
30
0
0
VERTEX
8
CUT
10
371.176
20
84.626
30
0
0
VERTEX
8
CUT
10
371.729
20
84.833
30
0
0
VERTEX
8
CUT
10
372.267
20
85.075
30
0
0
VERTEX
8
CUT
10
372.789
20
85.352
30
0
0
VERTEX
8
CUT
10
373.271
20
85.650
30
0
0
SEQEND
8
CUT
0
POLYLINE
8
CUT
66
1
70
1
10
0
20
0
30
0
0
VERTEX
8
CUT
10
375.754
20
93.225
30
0
0
VERTEX
8
CUT
10
375.892
20
93.649
30
0
0
VERTEX
8
CUT
10
376.252
20
93.911
30
0
0
VERTEX
8
CUT
10
376.698
20
93.911
30
0
0
VERTEX
8
CUT
10
377.058
20
93.649
30
0
0
VERTEX
8
CUT
10
377.196
20
93.225
30
0
0
VERTEX
8
CUT
10
377.058
20
92.801
30
0
0
VERTEX
8
CUT
10
376.698
20
92.539
30
0
0
VERTEX
8
CUT
10
376.252
20
92.539
30
0
0
VERTEX
8
CUT
10
375.892
20
92.801
30
0
0
SEQEND
8
CUT
0
POLYLINE
8
CUT
66
1
70
1
10
0
20
0
30
0
0
VERTEX
8
CUT
10
347.954
20
93.225
30
0
0
VERTEX
8
CUT
10
348.092
20
93.649
30
0
0
VERTEX
8
CUT
10
348.452
20
93.911
30
0
0
VERTEX
8
CUT
10
348.898
20
93.911
30
0
0
VERTEX
8
CUT
10
349.258
20
93.649
30
0
0
VERTEX
8
CUT
10
349.396
20
93.225
30
0
0
VERTEX
8
CUT
10
349.258
20
92.801
30
0
0
VERTEX
8
CUT
10
348.898
20
92.539
30
0
0
VERTEX
8
CUT
10
348.452
20
92.539
30
0
0
VERTEX
8
CUT
10
348.092
20
92.801
30
0
0
SEQEND
8
CUT
0
POLYLINE
8
CUT
66
1
70
1
10
0
20
0
30
0
0
VERTEX
8
CUT
10
337.550
20
103.250
30
0
0
VERTEX
8
CUT
10
327.600
20
103.250
30
0
0
VERTEX
8
CUT
10
327.600
20
106.200
30
0
0
VERTEX
8
CUT
10
337.550
20
106.200
30
0
0
SEQEND
8
CUT
0
POLYLINE
8
CUT
66
1
70
1
10
0
20
0
30
0
0
VERTEX
8
CUT
10
408.950
20
103.250
30
0
0
VERTEX
8
CUT
10
399.000
20
103.250
30
0
0
VERTEX
8
CUT
10
399.000
20
106.200
30
0
0
VERTEX
8
CUT
10
408.950
20
106.200
30
0
0
SEQEND
8
CUT
0
POLYLINE
8
CUT
66
1
70
1
10
0
20
0
30
0
0
VERTEX
8
CUT
10
418.850
20
87.500
30
0
0
VERTEX
8
CUT
10
415.900
20
87.500
30
0
0
VERTEX
8
CUT
10
415.900
20
97.450
30
0
0
VERTEX
8
CUT
10
418.850
20
97.450
30
0
0
SEQEND
8
CUT
0
POLYLINE
8
CUT
66
1
70
1
10
0
20
0
30
0
0
VERTEX
8
CUT
10
418.850
20
60.000
30
0
0
VERTEX
8
CUT
10
415.900
20
60.000
30
0
0
VERTEX
8
CUT
10
415.900
20
69.950
30
0
0
VERTEX
8
CUT
10
418.850
20
69.950
30
0
0
SEQEND
8
CUT
0
POLYLINE
8
CUT
66
1
70
1
10
0
20
0
30
0
0
VERTEX
8
CUT
10
320.650
20
87.500
30
0
0
VERTEX
8
CUT
10
317.700
20
87.500
30
0
0
VERTEX
8
CUT
10
317.700
20
97.450
30
0
0
VERTEX
8
CUT
10
320.650
20
97.450
30
0
0
SEQEND
8
CUT
0
POLYLINE
8
CUT
66
1
70
1
10
0
20
0
30
0
0
VERTEX
8
CUT
10
320.650
20
60.000
30
0
0
VERTEX
8
CUT
10
317.700
20
60.000
30
0
0
VERTEX
8
CUT
10
317.700
20
69.950
30
0
0
VERTEX
8
CUT
10
320.650
20
69.950
30
0
0
SEQEND
8
CUT
0
POLYLINE
8
CUT
66
1
70
1
10
0
20
0
30
0
0
VERTEX
8
CUT
10
342.718
20
72.822
30
0
0
VERTEX
8
CUT
10
339.768
20
72.822
30
0
0
VERTEX
8
CUT
10
339.768
20
75.772
30
0
0
VERTEX
8
CUT
10
342.718
20
75.772
30
0
0
SEQEND
8
CUT
0
POLYLINE
8
CUT
66
1
70
1
10
0
20
0
30
0
0
VERTEX
8
CUT
10
396.782
20
72.822
30
0
0
VERTEX
8
CUT
10
393.832
20
72.822
30
0
0
VERTEX
8
CUT
10
393.832
20
75.772
30
0
0
VERTEX
8
CUT
10
396.782
20
75.772
30
0
0
SEQEND
8
CUT
0
POLYLINE
8
CUT
66
1
70
1
10
0
20
0
30
0
0
VERTEX
8
CUT
10
417.980
20
49.450
30
0
0
VERTEX
8
CUT
10
318.570
20
49.450
30
0
0
VERTEX
8
CUT
10
318.038
20
49.520
30
0
0
VERTEX
8
CUT
10
317.537
20
49.727
30
0
0
VERTEX
8
CUT
10
317.107
20
50.057
30
0
0
VERTEX
8
CUT
10
316.777
20
50.487
30
0
0
VERTEX
8
CUT
10
316.570
20
50.988
30
0
0
VERTEX
8
CUT
10
316.500
20
51.520
30
0
0
VERTEX
8
CUT
10
316.500
20
134.930
30
0
0
VERTEX
8
CUT
10
316.570
20
135.462
30
0
0
VERTEX
8
CUT
10
316.777
20
135.963
30
0
0
VERTEX
8
CUT
10
317.107
20
136.393
30
0
0
VERTEX
8
CUT
10
317.537
20
136.723
30
0
0
VERTEX
8
CUT
10
318.038
20
136.930
30
0
0
VERTEX
8
CUT
10
318.570
20
137.000
30
0
0
VERTEX
8
CUT
10
417.980
20
137.000
30
0
0
VERTEX
8
CUT
10
418.512
20
136.930
30
0
0
VERTEX
8
CUT
10
419.013
20
136.723
30
0
0
VERTEX
8
CUT
10
419.443
20
136.393
30
0
0
VERTEX
8
CUT
10
419.773
20
135.963
30
0
0
VERTEX
8
CUT
10
419.980
20
135.462
30
0
0
VERTEX
8
CUT
10
420.050
20
134.930
30
0
0
VERTEX
8
CUT
10
420.050
20
51.520
30
0
0
VERTEX
8
CUT
10
419.980
20
50.988
30
0
0
VERTEX
8
CUT
10
419.773
20
50.487
30
0
0
VERTEX
8
CUT
10
419.443
20
50.057
30
0
0
VERTEX
8
CUT
10
419.013
20
49.727
30
0
0
VERTEX
8
CUT
10
418.512
20
49.520
30
0
0
SEQEND
8
CUT
0
POLYLINE
8
CUT
66
1
70
1
10
0
20
0
30
0
0
VERTEX
8
CUT
10
15.350
20
24.719
30
0
0
VERTEX
8
CUT
10
15.372
20
24.856
30
0
0
VERTEX
8
CUT
10
15.432
20
24.974
30
0
0
VERTEX
8
CUT
10
15.526
20
25.068
30
0
0
VERTEX
8
CUT
10
15.644
20
25.128
30
0
0
VERTEX
8
CUT
10
15.781
20
25.150
30
0
0
VERTEX
8
CUT
10
27.769
20
25.150
30
0
0
VERTEX
8
CUT
10
27.906
20
25.128
30
0
0
VERTEX
8
CUT
10
28.024
20
25.068
30
0
0
VERTEX
8
CUT
10
28.118
20
24.974
30
0
0
VERTEX
8
CUT
10
28.178
20
24.856
30
0
0
VERTEX
8
CUT
10
28.200
20
24.719
30
0
0
VERTEX
8
CUT
10
28.200
20
6.731
30
0
0
VERTEX
8
CUT
10
28.178
20
6.594
30
0
0
VERTEX
8
CUT
10
28.118
20
6.476
30
0
0
VERTEX
8
CUT
10
28.024
20
6.382
30
0
0
VERTEX
8
CUT
10
27.906
20
6.322
30
0
0
VERTEX
8
CUT
10
27.769
20
6.300
30
0
0
VERTEX
8
CUT
10
15.781
20
6.300
30
0
0
VERTEX
8
CUT
10
15.644
20
6.322
30
0
0
VERTEX
8
CUT
10
15.526
20
6.382
30
0
0
VERTEX
8
CUT
10
15.432
20
6.476
30
0
0
VERTEX
8
CUT
10
15.372
20
6.594
30
0
0
VERTEX
8
CUT
10
15.350
20
6.731
30
0
0
SEQEND
8
CUT
0
POLYLINE
8
CUT
66
1
70
1
10
0
20
0
30
0
0
VERTEX
8
CUT
10
37.300
20
54.019
30
0
0
VERTEX
8
CUT
10
37.322
20
54.156
30
0
0
VERTEX
8
CUT
10
37.382
20
54.274
30
0
0
VERTEX
8
CUT
10
37.476
20
54.368
30
0
0
VERTEX
8
CUT
10
37.594
20
54.428
30
0
0
VERTEX
8
CUT
10
37.731
20
54.450
30
0
0
VERTEX
8
CUT
10
60.419
20
54.450
30
0
0
VERTEX
8
CUT
10
60.556
20
54.428
30
0
0
VERTEX
8
CUT
10
60.674
20
54.368
30
0
0
VERTEX
8
CUT
10
60.768
20
54.274
30
0
0
VERTEX
8
CUT
10
60.828
20
54.156
30
0
0
VERTEX
8
CUT
10
60.850
20
54.019
30
0
0
VERTEX
8
CUT
10
60.850
20
42.431
30
0
0
VERTEX
8
CUT
10
60.828
20
42.294
30
0
0
VERTEX
8
CUT
10
60.768
20
42.176
30
0
0
VERTEX
8
CUT
10
60.674
20
42.082
30
0
0
VERTEX
8
CUT
10
60.556
20
42.022
30
0
0
VERTEX
8
CUT
10
60.419
20
42.000
30
0
0
VERTEX
8
CUT
10
37.731
20
42.000
30
0
0
VERTEX
8
CUT
10
37.594
20
42.022
30
0
0
VERTEX
8
CUT
10
37.476
20
42.082
30
0
0
VERTEX
8
CUT
10
37.382
20
42.176
30
0
0
VERTEX
8
CUT
10
37.322
20
42.294
30
0
0
VERTEX
8
CUT
10
37.300
20
42.431
30
0
0
SEQEND
8
CUT
0
POLYLINE
8
CUT
66
1
70
1
10
0
20
0
30
0
0
VERTEX
8
CUT
10
73.735
20
40.650
30
0
0
VERTEX
8
CUT
10
72.626
20
38.299
30
0
0
VERTEX
8
CUT
10
71.153
20
36.021
30
0
0
VERTEX
8
CUT
10
69.391
20
33.958
30
0
0
VERTEX
8
CUT
10
67.372
20
32.147
30
0
0
VERTEX
8
CUT
10
65.130
20
30.620
30
0
0
VERTEX
8
CUT
10
62.705
20
29.403
30
0
0
VERTEX
8
CUT
10
60.141
20
28.518
30
0
0
VERTEX
8
CUT
10
57.482
20
27.980
30
0
0
VERTEX
8
CUT
10
54.775
20
27.800
30
0
0
VERTEX
8
CUT
10
52.068
20
27.980
30
0
0
VERTEX
8
CUT
10
49.409
20
28.518
30
0
0
VERTEX
8
CUT
10
46.845
20
29.403
30
0
0
VERTEX
8
CUT
10
44.420
20
30.620
30
0
0
VERTEX
8
CUT
10
42.178
20
32.147
30
0
0
VERTEX
8
CUT
10
40.159
20
33.958
30
0
0
VERTEX
8
CUT
10
38.397
20
36.021
30
0
0
VERTEX
8
CUT
10
36.924
20
38.299
30
0
0
VERTEX
8
CUT
10
35.815
20
40.650
30
0
0
VERTEX
8
CUT
10
49.779
20
40.650
30
0
0
VERTEX
8
CUT
10
50.261
20
40.352
30
0
0
VERTEX
8
CUT
10
50.783
20
40.075
30
0
0
VERTEX
8
CUT
10
51.321
20
39.833
30
0
0
VERTEX
8
CUT
10
51.874
20
39.626
30
0
0
VERTEX
8
CUT
10
52.439
20
39.456
30
0
0
VERTEX
8
CUT
10
53.015
20
39.322
30
0
0
VERTEX
8
CUT
10
53.597
20
39.227
30
0
0
VERTEX
8
CUT
10
54.185
20
39.169
30
0
0
VERTEX
8
CUT
10
54.775
20
39.150
30
0
0
VERTEX
8
CUT
10
55.365
20
39.169
30
0
0
VERTEX
8
CUT
10
55.953
20
39.227
30
0
0
VERTEX
8
CUT
10
56.535
20
39.322
30
0
0
VERTEX
8
CUT
10
57.111
20
39.456
30
0
0
VERTEX
8
CUT
10
57.676
20
39.626
30
0
0
VERTEX
8
CUT
10
58.229
20
39.833
30
0
0
VERTEX
8
CUT
10
58.767
20
40.075
30
0
0
VERTEX
8
CUT
10
59.289
20
40.352
30
0
0
VERTEX
8
CUT
10
59.771
20
40.650
30
0
0
SEQEND
8
CUT
0
POLYLINE
8
CUT
66
1
70
1
10
0
20
0
30
0
0
VERTEX
8
CUT
10
62.254
20
48.225
30
0
0
VERTEX
8
CUT
10
62.392
20
48.649
30
0
0
VERTEX
8
CUT
10
62.752
20
48.911
30
0
0
VERTEX
8
CUT
10
63.198
20
48.911
30
0
0
VERTEX
8
CUT
10
63.558
20
48.649
30
0
0
VERTEX
8
CUT
10
63.696
20
48.225
30
0
0
VERTEX
8
CUT
10
63.558
20
47.801
30
0
0
VERTEX
8
CUT
10
63.198
20
47.539
30
0
0
VERTEX
8
CUT
10
62.752
20
47.539
30
0
0
VERTEX
8
CUT
10
62.392
20
47.801
30
0
0
SEQEND
8
CUT
0
POLYLINE
8
CUT
66
1
70
1
10
0
20
0
30
0
0
VERTEX
8
CUT
10
34.454
20
48.225
30
0
0
VERTEX
8
CUT
10
34.592
20
48.649
30
0
0
VERTEX
8
CUT
10
34.952
20
48.911
30
0
0
VERTEX
8
CUT
10
35.398
20
48.911
30
0
0
VERTEX
8
CUT
10
35.758
20
48.649
30
0
0
VERTEX
8
CUT
10
35.896
20
48.225
30
0
0
VERTEX
8
CUT
10
35.758
20
47.801
30
0
0
VERTEX
8
CUT
10
35.398
20
47.539
30
0
0
VERTEX
8
CUT
10
34.952
20
47.539
30
0
0
VERTEX
8
CUT
10
34.592
20
47.801
30
0
0
SEQEND
8
CUT
0
POLYLINE
8
CUT
66
1
70
1
10
0
20
0
30
0
0
VERTEX
8
CUT
10
24.050
20
58.250
30
0
0
VERTEX
8
CUT
10
14.100
20
58.250
30
0
0
VERTEX
8
CUT
10
14.100
20
61.200
30
0
0
VERTEX
8
CUT
10
24.050
20
61.200
30
0
0
SEQEND
8
CUT
0
POLYLINE
8
CUT
66
1
70
1
10
0
20
0
30
0
0
VERTEX
8
CUT
10
95.450
20
58.250
30
0
0
VERTEX
8
CUT
10
85.500
20
58.250
30
0
0
VERTEX
8
CUT
10
85.500
20
61.200
30
0
0
VERTEX
8
CUT
10
95.450
20
61.200
30
0
0
SEQEND
8
CUT
0
POLYLINE
8
CUT
66
1
70
1
10
0
20
0
30
0
0
VERTEX
8
CUT
10
105.350
20
42.500
30
0
0
VERTEX
8
CUT
10
102.400
20
42.500
30
0
0
VERTEX
8
CUT
10
102.400
20
52.450
30
0
0
VERTEX
8
CUT
10
105.350
20
52.450
30
0
0
SEQEND
8
CUT
0
POLYLINE
8
CUT
66
1
70
1
10
0
20
0
30
0
0
VERTEX
8
CUT
10
105.350
20
15.000
30
0
0
VERTEX
8
CUT
10
102.400
20
15.000
30
0
0
VERTEX
8
CUT
10
102.400
20
24.950
30
0
0
VERTEX
8
CUT
10
105.350
20
24.950
30
0
0
SEQEND
8
CUT
0
POLYLINE
8
CUT
66
1
70
1
10
0
20
0
30
0
0
VERTEX
8
CUT
10
7.150
20
42.500
30
0
0
VERTEX
8
CUT
10
4.200
20
42.500
30
0
0
VERTEX
8
CUT
10
4.200
20
52.450
30
0
0
VERTEX
8
CUT
10
7.150
20
52.450
30
0
0
SEQEND
8
CUT
0
POLYLINE
8
CUT
66
1
70
1
10
0
20
0
30
0
0
VERTEX
8
CUT
10
7.150
20
15.000
30
0
0
VERTEX
8
CUT
10
4.200
20
15.000
30
0
0
VERTEX
8
CUT
10
4.200
20
24.950
30
0
0
VERTEX
8
CUT
10
7.150
20
24.950
30
0
0
SEQEND
8
CUT
0
POLYLINE
8
CUT
66
1
70
1
10
0
20
0
30
0
0
VERTEX
8
CUT
10
29.218
20
27.822
30
0
0
VERTEX
8
CUT
10
26.268
20
27.822
30
0
0
VERTEX
8
CUT
10
26.268
20
30.772
30
0
0
VERTEX
8
CUT
10
29.218
20
30.772
30
0
0
SEQEND
8
CUT
0
POLYLINE
8
CUT
66
1
70
1
10
0
20
0
30
0
0
VERTEX
8
CUT
10
83.282
20
27.822
30
0
0
VERTEX
8
CUT
10
80.332
20
27.822
30
0
0
VERTEX
8
CUT
10
80.332
20
30.772
30
0
0
VERTEX
8
CUT
10
83.282
20
30.772
30
0
0
SEQEND
8
CUT
0
POLYLINE
8
CUT
66
1
70
1
10
0
20
0
30
0
0
VERTEX
8
CUT
10
104.480
20
4.450
30
0
0
VERTEX
8
CUT
10
5.070
20
4.450
30
0
0
VERTEX
8
CUT
10
4.538
20
4.520
30
0
0
VERTEX
8
CUT
10
4.037
20
4.727
30
0
0
VERTEX
8
CUT
10
3.607
20
5.057
30
0
0
VERTEX
8
CUT
10
3.277
20
5.487
30
0
0
VERTEX
8
CUT
10
3.070
20
5.988
30
0
0
VERTEX
8
CUT
10
3.000
20
6.520
30
0
0
VERTEX
8
CUT
10
3.000
20
89.930
30
0
0
VERTEX
8
CUT
10
3.070
20
90.462
30
0
0
VERTEX
8
CUT
10
3.277
20
90.963
30
0
0
VERTEX
8
CUT
10
3.607
20
91.393
30
0
0
VERTEX
8
CUT
10
4.037
20
91.723
30
0
0
VERTEX
8
CUT
10
4.538
20
91.930
30
0
0
VERTEX
8
CUT
10
5.070
20
92.000
30
0
0
VERTEX
8
CUT
10
104.480
20
92.000
30
0
0
VERTEX
8
CUT
10
105.012
20
91.930
30
0
0
VERTEX
8
CUT
10
105.513
20
91.723
30
0
0
VERTEX
8
CUT
10
105.943
20
91.393
30
0
0
VERTEX
8
CUT
10
106.273
20
90.963
30
0
0
VERTEX
8
CUT
10
106.480
20
90.462
30
0
0
VERTEX
8
CUT
10
106.550
20
89.930
30
0
0
VERTEX
8
CUT
10
106.550
20
6.520
30
0
0
VERTEX
8
CUT
10
106.480
20
5.988
30
0
0
VERTEX
8
CUT
10
106.273
20
5.487
30
0
0
VERTEX
8
CUT
10
105.943
20
5.057
30
0
0
VERTEX
8
CUT
10
105.513
20
4.727
30
0
0
VERTEX
8
CUT
10
105.012
20
4.520
30
0
0
SEQEND
8
CUT
0
POLYLINE
8
CUT
66
1
70
1
10
0
20
0
30
0
0
VERTEX
8
CUT
10
124.198
20
21.925
30
0
0
VERTEX
8
CUT
10
124.037
20
22.629
30
0
0
VERTEX
8
CUT
10
123.587
20
23.194
30
0
0
VERTEX
8
CUT
10
122.936
20
23.507
30
0
0
VERTEX
8
CUT
10
122.214
20
23.507
30
0
0
VERTEX
8
CUT
10
121.563
20
23.194
30
0
0
VERTEX
8
CUT
10
121.113
20
22.629
30
0
0
VERTEX
8
CUT
10
120.952
20
21.925
30
0
0
VERTEX
8
CUT
10
121.113
20
21.221
30
0
0
VERTEX
8
CUT
10
121.563
20
20.656
30
0
0
VERTEX
8
CUT
10
122.214
20
20.343
30
0
0
VERTEX
8
CUT
10
122.936
20
20.343
30
0
0
VERTEX
8
CUT
10
123.587
20
20.656
30
0
0
VERTEX
8
CUT
10
124.037
20
21.221
30
0
0
SEQEND
8
CUT
0
POLYLINE
8
CUT
66
1
70
1
10
0
20
0
30
0
0
VERTEX
8
CUT
10
165.198
20
21.925
30
0
0
VERTEX
8
CUT
10
165.037
20
22.629
30
0
0
VERTEX
8
CUT
10
164.587
20
23.194
30
0
0
VERTEX
8
CUT
10
163.936
20
23.507
30
0
0
VERTEX
8
CUT
10
163.214
20
23.507
30
0
0
VERTEX
8
CUT
10
162.563
20
23.194
30
0
0
VERTEX
8
CUT
10
162.113
20
22.629
30
0
0
VERTEX
8
CUT
10
161.952
20
21.925
30
0
0
VERTEX
8
CUT
10
162.113
20
21.221
30
0
0
VERTEX
8
CUT
10
162.563
20
20.656
30
0
0
VERTEX
8
CUT
10
163.214
20
20.343
30
0
0
VERTEX
8
CUT
10
163.936
20
20.343
30
0
0
VERTEX
8
CUT
10
164.587
20
20.656
30
0
0
VERTEX
8
CUT
10
165.037
20
21.221
30
0
0
SEQEND
8
CUT
0
POLYLINE
8
CUT
66
1
70
1
10
0
20
0
30
0
0
VERTEX
8
CUT
10
202.600
20
67.450
30
0
0
VERTEX
8
CUT
10
205.550
20
67.450
30
0
0
VERTEX
8
CUT
10
205.550
20
77.400
30
0
0
VERTEX
8
CUT
10
202.600
20
77.400
30
0
0
SEQEND
8
CUT
0
POLYLINE
8
CUT
66
1
70
1
10
0
20
0
30
0
0
VERTEX
8
CUT
10
202.600
20
28.450
30
0
0
VERTEX
8
CUT
10
205.550
20
28.450
30
0
0
VERTEX
8
CUT
10
205.550
20
38.400
30
0
0
VERTEX
8
CUT
10
202.600
20
38.400
30
0
0
SEQEND
8
CUT
0
POLYLINE
8
CUT
66
1
70
1
10
0
20
0
30
0
0
VERTEX
8
CUT
10
111.600
20
67.450
30
0
0
VERTEX
8
CUT
10
114.550
20
67.450
30
0
0
VERTEX
8
CUT
10
114.550
20
77.400
30
0
0
VERTEX
8
CUT
10
111.600
20
77.400
30
0
0
SEQEND
8
CUT
0
POLYLINE
8
CUT
66
1
70
1
10
0
20
0
30
0
0
VERTEX
8
CUT
10
111.600
20
28.450
30
0
0
VERTEX
8
CUT
10
114.550
20
28.450
30
0
0
VERTEX
8
CUT
10
114.550
20
38.400
30
0
0
VERTEX
8
CUT
10
111.600
20
38.400
30
0
0
SEQEND
8
CUT
0
POLYLINE
8
CUT
66
1
70
1
10
0
20
0
30
0
0
VERTEX
8
CUT
10
110.570
20
13.850
30
0
0
VERTEX
8
CUT
10
206.580
20
13.850
30
0
0
VERTEX
8
CUT
10
207.112
20
13.920
30
0
0
VERTEX
8
CUT
10
207.613
20
14.127
30
0
0
VERTEX
8
CUT
10
208.043
20
14.457
30
0
0
VERTEX
8
CUT
10
208.373
20
14.887
30
0
0
VERTEX
8
CUT
10
208.580
20
15.388
30
0
0
VERTEX
8
CUT
10
208.650
20
15.920
30
0
0
VERTEX
8
CUT
10
208.650
20
89.930
30
0
0
VERTEX
8
CUT
10
208.580
20
90.462
30
0
0
VERTEX
8
CUT
10
208.373
20
90.963
30
0
0
VERTEX
8
CUT
10
208.043
20
91.393
30
0
0
VERTEX
8
CUT
10
207.613
20
91.723
30
0
0
VERTEX
8
CUT
10
207.112
20
91.930
30
0
0
VERTEX
8
CUT
10
206.580
20
92.000
30
0
0
VERTEX
8
CUT
10
110.570
20
92.000
30
0
0
VERTEX
8
CUT
10
110.038
20
91.930
30
0
0
VERTEX
8
CUT
10
109.537
20
91.723
30
0
0
VERTEX
8
CUT
10
109.107
20
91.393
30
0
0
VERTEX
8
CUT
10
108.777
20
90.963
30
0
0
VERTEX
8
CUT
10
108.570
20
90.462
30
0
0
VERTEX
8
CUT
10
108.500
20
89.930
30
0
0
VERTEX
8
CUT
10
108.500
20
15.920
30
0
0
VERTEX
8
CUT
10
108.570
20
15.388
30
0
0
VERTEX
8
CUT
10
108.777
20
14.887
30
0
0
VERTEX
8
CUT
10
109.107
20
14.457
30
0
0
VERTEX
8
CUT
10
109.537
20
14.127
30
0
0
VERTEX
8
CUT
10
110.038
20
13.920
30
0
0
SEQEND
8
CUT
0
POLYLINE
8
CUT
66
1
70
1
10
0
20
0
30
0
0
VERTEX
8
CUT
10
232.604
20
26.925
30
0
0
VERTEX
8
CUT
10
232.732
20
27.319
30
0
0
VERTEX
8
CUT
10
233.068
20
27.563
30
0
0
VERTEX
8
CUT
10
233.482
20
27.563
30
0
0
VERTEX
8
CUT
10
233.818
20
27.319
30
0
0
VERTEX
8
CUT
10
233.946
20
26.925
30
0
0
VERTEX
8
CUT
10
233.818
20
26.531
30
0
0
VERTEX
8
CUT
10
233.482
20
26.287
30
0
0
VERTEX
8
CUT
10
233.068
20
26.287
30
0
0
VERTEX
8
CUT
10
232.732
20
26.531
30
0
0
SEQEND
8
CUT
0
POLYLINE
8
CUT
66
1
70
1
10
0
20
0
30
0
0
VERTEX
8
CUT
10
229.604
20
26.925
30
0
0
VERTEX
8
CUT
10
229.732
20
27.319
30
0
0
VERTEX
8
CUT
10
230.068
20
27.563
30
0
0
VERTEX
8
CUT
10
230.482
20
27.563
30
0
0
VERTEX
8
CUT
10
230.818
20
27.319
30
0
0
VERTEX
8
CUT
10
230.946
20
26.925
30
0
0
VERTEX
8
CUT
10
230.818
20
26.531
30
0
0
VERTEX
8
CUT
10
230.482
20
26.287
30
0
0
VERTEX
8
CUT
10
230.068
20
26.287
30
0
0
VERTEX
8
CUT
10
229.732
20
26.531
30
0
0
SEQEND
8
CUT
0
POLYLINE
8
CUT
66
1
70
1
10
0
20
0
30
0
0
VERTEX
8
CUT
10
226.604
20
26.925
30
0
0
VERTEX
8
CUT
10
226.732
20
27.319
30
0
0
VERTEX
8
CUT
10
227.068
20
27.563
30
0
0
VERTEX
8
CUT
10
227.482
20
27.563
30
0
0
VERTEX
8
CUT
10
227.818
20
27.319
30
0
0
VERTEX
8
CUT
10
227.946
20
26.925
30
0
0
VERTEX
8
CUT
10
227.818
20
26.531
30
0
0
VERTEX
8
CUT
10
227.482
20
26.287
30
0
0
VERTEX
8
CUT
10
227.068
20
26.287
30
0
0
VERTEX
8
CUT
10
226.732
20
26.531
30
0
0
SEQEND
8
CUT
0
POLYLINE
8
CUT
66
1
70
1
10
0
20
0
30
0
0
VERTEX
8
CUT
10
291.580
20
12.850
30
0
0
VERTEX
8
CUT
10
213.570
20
12.850
30
0
0
VERTEX
8
CUT
10
212.779
20
12.954
30
0
0
VERTEX
8
CUT
10
212.037
20
13.261
30
0
0
VERTEX
8
CUT
10
211.400
20
13.750
30
0
0
VERTEX
8
CUT
10
210.911
20
14.387
30
0
0
VERTEX
8
CUT
10
210.604
20
15.129
30
0
0
VERTEX
8
CUT
10
210.500
20
15.920
30
0
0
VERTEX
8
CUT
10
210.500
20
63.930
30
0
0
VERTEX
8
CUT
10
210.604
20
64.721
30
0
0
VERTEX
8
CUT
10
210.911
20
65.463
30
0
0
VERTEX
8
CUT
10
211.400
20
66.100
30
0
0
VERTEX
8
CUT
10
212.037
20
66.589
30
0
0
VERTEX
8
CUT
10
212.779
20
66.896
30
0
0
VERTEX
8
CUT
10
213.570
20
67.000
30
0
0
VERTEX
8
CUT
10
291.580
20
67.000
30
0
0
VERTEX
8
CUT
10
292.371
20
66.896
30
0
0
VERTEX
8
CUT
10
293.113
20
66.589
30
0
0
VERTEX
8
CUT
10
293.750
20
66.100
30
0
0
VERTEX
8
CUT
10
294.239
20
65.463
30
0
0
VERTEX
8
CUT
10
294.546
20
64.721
30
0
0
VERTEX
8
CUT
10
294.650
20
63.930
30
0
0
VERTEX
8
CUT
10
294.650
20
15.920
30
0
0
VERTEX
8
CUT
10
294.546
20
15.129
30
0
0
VERTEX
8
CUT
10
294.239
20
14.387
30
0
0
VERTEX
8
CUT
10
293.750
20
13.750
30
0
0
VERTEX
8
CUT
10
293.113
20
13.261
30
0
0
VERTEX
8
CUT
10
292.371
20
12.954
30
0
0
SEQEND
8
CUT
0
POLYLINE
8
CUT
66
1
70
1
10
0
20
0
30
0
0
VERTEX
8
CUT
10
309.551
20
14.225
30
0
0
VERTEX
8
CUT
10
309.758
20
15.396
30
0
0
VERTEX
8
CUT
10
310.352
20
16.426
30
0
0
VERTEX
8
CUT
10
311.263
20
17.190
30
0
0
VERTEX
8
CUT
10
312.380
20
17.597
30
0
0
VERTEX
8
CUT
10
313.570
20
17.597
30
0
0
VERTEX
8
CUT
10
314.687
20
17.190
30
0
0
VERTEX
8
CUT
10
315.598
20
16.426
30
0
0
VERTEX
8
CUT
10
316.192
20
15.396
30
0
0
VERTEX
8
CUT
10
316.399
20
14.225
30
0
0
VERTEX
8
CUT
10
316.192
20
13.054
30
0
0
VERTEX
8
CUT
10
315.598
20
12.024
30
0
0
VERTEX
8
CUT
10
314.687
20
11.260
30
0
0
VERTEX
8
CUT
10
313.570
20
10.853
30
0
0
VERTEX
8
CUT
10
312.380
20
10.853
30
0
0
VERTEX
8
CUT
10
311.263
20
11.260
30
0
0
VERTEX
8
CUT
10
310.352
20
12.024
30
0
0
VERTEX
8
CUT
10
309.758
20
13.054
30
0
0
SEQEND
8
CUT
0
POLYLINE
8
CUT
66
1
70
1
10
0
20
0
30
0
0
VERTEX
8
CUT
10
372.980
20
6.450
30
0
0
VERTEX
8
CUT
10
297.570
20
6.450
30
0
0
VERTEX
8
CUT
10
297.297
20
6.486
30
0
0
VERTEX
8
CUT
10
297.037
20
6.593
30
0
0
VERTEX
8
CUT
10
296.814
20
6.764
30
0
0
VERTEX
8
CUT
10
296.643
20
6.987
30
0
0
VERTEX
8
CUT
10
296.536
20
7.247
30
0
0
VERTEX
8
CUT
10
296.500
20
7.520
30
0
0
VERTEX
8
CUT
10
296.500
20
46.930
30
0
0
VERTEX
8
CUT
10
296.536
20
47.203
30
0
0
VERTEX
8
CUT
10
296.643
20
47.463
30
0
0
VERTEX
8
CUT
10
296.814
20
47.686
30
0
0
VERTEX
8
CUT
10
297.037
20
47.857
30
0
0
VERTEX
8
CUT
10
297.297
20
47.964
30
0
0
VERTEX
8
CUT
10
297.570
20
48.000
30
0
0
VERTEX
8
CUT
10
372.980
20
48.000
30
0
0
VERTEX
8
CUT
10
373.253
20
47.964
30
0
0
VERTEX
8
CUT
10
373.513
20
47.857
30
0
0
VERTEX
8
CUT
10
373.736
20
47.686
30
0
0
VERTEX
8
CUT
10
373.907
20
47.463
30
0
0
VERTEX
8
CUT
10
374.014
20
47.203
30
0
0
VERTEX
8
CUT
10
374.050
20
46.930
30
0
0
VERTEX
8
CUT
10
374.050
20
7.520
30
0
0
VERTEX
8
CUT
10
374.014
20
7.247
30
0
0
VERTEX
8
CUT
10
373.907
20
6.987
30
0
0
VERTEX
8
CUT
10
373.736
20
6.764
30
0
0
VERTEX
8
CUT
10
373.513
20
6.593
30
0
0
VERTEX
8
CUT
10
373.253
20
6.486
30
0
0
SEQEND
8
CUT
0
POLYLINE
8
CUT
66
1
70
1
10
0
20
0
30
0
0
VERTEX
8
CUT
10
442.500
20
39.425
30
0
0
VERTEX
8
CUT
10
442.415
20
40.720
30
0
0
VERTEX
8
CUT
10
442.162
20
41.994
30
0
0
VERTEX
8
CUT
10
441.745
20
43.223
30
0
0
VERTEX
8
CUT
10
441.170
20
44.387
30
0
0
VERTEX
8
CUT
10
440.449
20
45.467
30
0
0
VERTEX
8
CUT
10
439.593
20
46.443
30
0
0
VERTEX
8
CUT
10
438.617
20
47.299
30
0
0
VERTEX
8
CUT
10
437.538
20
48.020
30
0
0
VERTEX
8
CUT
10
436.373
20
48.594
30
0
0
VERTEX
8
CUT
10
435.144
20
49.011
30
0
0
VERTEX
8
CUT
10
433.871
20
49.265
30
0
0
VERTEX
8
CUT
10
432.575
20
49.350
30
0
0
VERTEX
8
CUT
10
431.280
20
49.265
30
0
0
VERTEX
8
CUT
10
430.006
20
49.011
30
0
0
VERTEX
8
CUT
10
428.777
20
48.594
30
0
0
VERTEX
8
CUT
10
427.613
20
48.020
30
0
0
VERTEX
8
CUT
10
426.533
20
47.299
30
0
0
VERTEX
8
CUT
10
425.557
20
46.443
30
0
0
VERTEX
8
CUT
10
424.701
20
45.467
30
0
0
VERTEX
8
CUT
10
423.980
20
44.387
30
0
0
VERTEX
8
CUT
10
423.406
20
43.223
30
0
0
VERTEX
8
CUT
10
422.989
20
41.994
30
0
0
VERTEX
8
CUT
10
422.735
20
40.720
30
0
0
VERTEX
8
CUT
10
422.650
20
39.425
30
0
0
VERTEX
8
CUT
10
422.735
20
38.129
30
0
0
VERTEX
8
CUT
10
422.989
20
36.856
30
0
0
VERTEX
8
CUT
10
423.406
20
35.627
30
0
0
VERTEX
8
CUT
10
423.980
20
34.462
30
0
0
VERTEX
8
CUT
10
424.701
20
33.383
30
0
0
VERTEX
8
CUT
10
425.557
20
32.407
30
0
0
VERTEX
8
CUT
10
426.533
20
31.551
30
0
0
VERTEX
8
CUT
10
427.613
20
30.830
30
0
0
VERTEX
8
CUT
10
428.777
20
30.255
30
0
0
VERTEX
8
CUT
10
430.006
20
29.838
30
0
0
VERTEX
8
CUT
10
431.280
20
29.585
30
0
0
VERTEX
8
CUT
10
432.575
20
29.500
30
0
0
VERTEX
8
CUT
10
433.871
20
29.585
30
0
0
VERTEX
8
CUT
10
435.144
20
29.838
30
0
0
VERTEX
8
CUT
10
436.373
20
30.255
30
0
0
VERTEX
8
CUT
10
437.538
20
30.830
30
0
0
VERTEX
8
CUT
10
438.617
20
31.551
30
0
0
VERTEX
8
CUT
10
439.593
20
32.407
30
0
0
VERTEX
8
CUT
10
440.449
20
33.383
30
0
0
VERTEX
8
CUT
10
441.170
20
34.462
30
0
0
VERTEX
8
CUT
10
441.745
20
35.627
30
0
0
VERTEX
8
CUT
10
442.162
20
36.856
30
0
0
VERTEX
8
CUT
10
442.415
20
38.129
30
0
0
SEQEND
8
CUT
0
POLYLINE
8
CUT
66
1
70
1
10
0
20
0
30
0
0
VERTEX
8
CUT
10
446.650
20
39.425
30
0
0
VERTEX
8
CUT
10
446.530
20
41.262
30
0
0
VERTEX
8
CUT
10
446.171
20
43.068
30
0
0
VERTEX
8
CUT
10
445.579
20
44.811
30
0
0
VERTEX
8
CUT
10
444.765
20
46.462
30
0
0
VERTEX
8
CUT
10
443.742
20
47.993
30
0
0
VERTEX
8
CUT
10
442.528
20
49.377
30
0
0
VERTEX
8
CUT
10
441.144
20
50.591
30
0
0
VERTEX
8
CUT
10
439.613
20
51.614
30
0
0
VERTEX
8
CUT
10
437.961
20
52.429
30
0
0
VERTEX
8
CUT
10
436.218
20
53.020
30
0
0
VERTEX
8
CUT
10
434.412
20
53.380
30
0
0
VERTEX
8
CUT
10
432.575
20
53.500
30
0
0
VERTEX
8
CUT
10
430.738
20
53.380
30
0
0
VERTEX
8
CUT
10
428.932
20
53.020
30
0
0
VERTEX
8
CUT
10
427.189
20
52.429
30
0
0
VERTEX
8
CUT
10
425.538
20
51.614
30
0
0
VERTEX
8
CUT
10
424.007
20
50.591
30
0
0
VERTEX
8
CUT
10
422.623
20
49.377
30
0
0
VERTEX
8
CUT
10
421.409
20
47.993
30
0
0
VERTEX
8
CUT
10
420.386
20
46.462
30
0
0
VERTEX
8
CUT
10
419.571
20
44.811
30
0
0
VERTEX
8
CUT
10
418.980
20
43.068
30
0
0
VERTEX
8
CUT
10
418.620
20
41.262
30
0
0
VERTEX
8
CUT
10
418.500
20
39.425
30
0
0
VERTEX
8
CUT
10
418.620
20
37.588
30
0
0
VERTEX
8
CUT
10
418.980
20
35.782
30
0
0
VERTEX
8
CUT
10
419.571
20
34.039
30
0
0
VERTEX
8
CUT
10
420.386
20
32.387
30
0
0
VERTEX
8
CUT
10
421.409
20
30.856
30
0
0
VERTEX
8
CUT
10
422.623
20
29.472
30
0
0
VERTEX
8
CUT
10
424.007
20
28.258
30
0
0
VERTEX
8
CUT
10
425.538
20
27.235
30
0
0
VERTEX
8
CUT
10
427.189
20
26.421
30
0
0
VERTEX
8
CUT
10
428.932
20
25.829
30
0
0
VERTEX
8
CUT
10
430.738
20
25.470
30
0
0
VERTEX
8
CUT
10
432.575
20
25.350
30
0
0
VERTEX
8
CUT
10
434.412
20
25.470
30
0
0
VERTEX
8
CUT
10
436.218
20
25.829
30
0
0
VERTEX
8
CUT
10
437.961
20
26.421
30
0
0
VERTEX
8
CUT
10
439.613
20
27.235
30
0
0
VERTEX
8
CUT
10
441.144
20
28.258
30
0
0
VERTEX
8
CUT
10
442.528
20
29.472
30
0
0
VERTEX
8
CUT
10
443.742
20
30.856
30
0
0
VERTEX
8
CUT
10
444.765
20
32.387
30
0
0
VERTEX
8
CUT
10
445.579
20
34.039
30
0
0
VERTEX
8
CUT
10
446.171
20
35.782
30
0
0
VERTEX
8
CUT
10
446.530
20
37.588
30
0
0
SEQEND
8
CUT
0
POLYLINE
8
CUT
66
1
70
1
10
0
20
0
30
0
0
VERTEX
8
CUT
10
400.000
20
33.925
30
0
0
VERTEX
8
CUT
10
399.915
20
35.220
30
0
0
VERTEX
8
CUT
10
399.662
20
36.494
30
0
0
VERTEX
8
CUT
10
399.245
20
37.723
30
0
0
VERTEX
8
CUT
10
398.670
20
38.887
30
0
0
VERTEX
8
CUT
10
397.949
20
39.967
30
0
0
VERTEX
8
CUT
10
397.093
20
40.943
30
0
0
VERTEX
8
CUT
10
396.117
20
41.799
30
0
0
VERTEX
8
CUT
10
395.038
20
42.520
30
0
0
VERTEX
8
CUT
10
393.873
20
43.094
30
0
0
VERTEX
8
CUT
10
392.644
20
43.511
30
0
0
VERTEX
8
CUT
10
391.371
20
43.765
30
0
0
VERTEX
8
CUT
10
390.075
20
43.850
30
0
0
VERTEX
8
CUT
10
388.780
20
43.765
30
0
0
VERTEX
8
CUT
10
387.506
20
43.511
30
0
0
VERTEX
8
CUT
10
386.277
20
43.094
30
0
0
VERTEX
8
CUT
10
385.113
20
42.520
30
0
0
VERTEX
8
CUT
10
384.033
20
41.799
30
0
0
VERTEX
8
CUT
10
383.057
20
40.943
30
0
0
VERTEX
8
CUT
10
382.201
20
39.967
30
0
0
VERTEX
8
CUT
10
381.480
20
38.887
30
0
0
VERTEX
8
CUT
10
380.906
20
37.723
30
0
0
VERTEX
8
CUT
10
380.489
20
36.494
30
0
0
VERTEX
8
CUT
10
380.235
20
35.220
30
0
0
VERTEX
8
CUT
10
380.150
20
33.925
30
0
0
VERTEX
8
CUT
10
380.235
20
32.629
30
0
0
VERTEX
8
CUT
10
380.489
20
31.356
30
0
0
VERTEX
8
CUT
10
380.906
20
30.127
30
0
0
VERTEX
8
CUT
10
381.480
20
28.962
30
0
0
VERTEX
8
CUT
10
382.201
20
27.883
30
0
0
VERTEX
8
CUT
10
383.057
20
26.907
30
0
0
VERTEX
8
CUT
10
384.033
20
26.051
30
0
0
VERTEX
8
CUT
10
385.113
20
25.330
30
0
0
VERTEX
8
CUT
10
386.277
20
24.755
30
0
0
VERTEX
8
CUT
10
387.506
20
24.338
30
0
0
VERTEX
8
CUT
10
388.780
20
24.085
30
0
0
VERTEX
8
CUT
10
390.075
20
24.000
30
0
0
VERTEX
8
CUT
10
391.371
20
24.085
30
0
0
VERTEX
8
CUT
10
392.644
20
24.338
30
0
0
VERTEX
8
CUT
10
393.873
20
24.755
30
0
0
VERTEX
8
CUT
10
395.038
20
25.330
30
0
0
VERTEX
8
CUT
10
396.117
20
26.051
30
0
0
VERTEX
8
CUT
10
397.093
20
26.907
30
0
0
VERTEX
8
CUT
10
397.949
20
27.883
30
0
0
VERTEX
8
CUT
10
398.670
20
28.962
30
0
0
VERTEX
8
CUT
10
399.245
20
30.127
30
0
0
VERTEX
8
CUT
10
399.662
20
31.356
30
0
0
VERTEX
8
CUT
10
399.915
20
32.629
30
0
0
SEQEND
8
CUT
0
POLYLINE
8
CUT
66
1
70
1
10
0
20
0
30
0
0
VERTEX
8
CUT
10
404.150
20
33.925
30
0
0
VERTEX
8
CUT
10
404.030
20
35.762
30
0
0
VERTEX
8
CUT
10
403.671
20
37.568
30
0
0
VERTEX
8
CUT
10
403.079
20
39.311
30
0
0
VERTEX
8
CUT
10
402.265
20
40.962
30
0
0
VERTEX
8
CUT
10
401.242
20
42.493
30
0
0
VERTEX
8
CUT
10
400.028
20
43.877
30
0
0
VERTEX
8
CUT
10
398.644
20
45.091
30
0
0
VERTEX
8
CUT
10
397.113
20
46.114
30
0
0
VERTEX
8
CUT
10
395.461
20
46.929
30
0
0
VERTEX
8
CUT
10
393.718
20
47.520
30
0
0
VERTEX
8
CUT
10
391.912
20
47.880
30
0
0
VERTEX
8
CUT
10
390.075
20
48.000
30
0
0
VERTEX
8
CUT
10
388.238
20
47.880
30
0
0
VERTEX
8
CUT
10
386.432
20
47.520
30
0
0
VERTEX
8
CUT
10
384.689
20
46.929
30
0
0
VERTEX
8
CUT
10
383.038
20
46.114
30
0
0
VERTEX
8
CUT
10
381.507
20
45.091
30
0
0
VERTEX
8
CUT
10
380.123
20
43.877
30
0
0
VERTEX
8
CUT
10
378.909
20
42.493
30
0
0
VERTEX
8
CUT
10
377.886
20
40.962
30
0
0
VERTEX
8
CUT
10
377.071
20
39.311
30
0
0
VERTEX
8
CUT
10
376.480
20
37.568
30
0
0
VERTEX
8
CUT
10
376.120
20
35.762
30
0
0
VERTEX
8
CUT
10
376.000
20
33.925
30
0
0
VERTEX
8
CUT
10
376.120
20
32.088
30
0
0
VERTEX
8
CUT
10
376.480
20
30.282
30
0
0
VERTEX
8
CUT
10
377.071
20
28.539
30
0
0
VERTEX
8
CUT
10
377.886
20
26.887
30
0
0
VERTEX
8
CUT
10
378.909
20
25.356
30
0
0
VERTEX
8
CUT
10
380.123
20
23.972
30
0
0
VERTEX
8
CUT
10
381.507
20
22.758
30
0
0
VERTEX
8
CUT
10
383.038
20
21.735
30
0
0
VERTEX
8
CUT
10
384.689
20
20.921
30
0
0
VERTEX
8
CUT
10
386.432
20
20.329
30
0
0
VERTEX
8
CUT
10
388.238
20
19.970
30
0
0
VERTEX
8
CUT
10
390.075
20
19.850
30
0
0
VERTEX
8
CUT
10
391.912
20
19.970
30
0
0
VERTEX
8
CUT
10
393.718
20
20.329
30
0
0
VERTEX
8
CUT
10
395.461
20
20.921
30
0
0
VERTEX
8
CUT
10
397.113
20
21.735
30
0
0
VERTEX
8
CUT
10
398.644
20
22.758
30
0
0
VERTEX
8
CUT
10
400.028
20
23.972
30
0
0
VERTEX
8
CUT
10
401.242
20
25.356
30
0
0
VERTEX
8
CUT
10
402.265
20
26.887
30
0
0
VERTEX
8
CUT
10
403.079
20
28.539
30
0
0
VERTEX
8
CUT
10
403.671
20
30.282
30
0
0
VERTEX
8
CUT
10
404.030
20
32.088
30
0
0
SEQEND
8
CUT
0
ENDSEC
0
EOF
