0
SECTION
2
HEADER
9
$ACADVER
1
AC1009
9
$INSUNITS
70
4
0
ENDSEC
0
SECTION
2
TABLES
0
TABLE
2
LAYER
70
3
0
LAYER
2
CUT
70
0
62
1
6
CONTINUOUS
0
LAYER
2
SCORE
70
0
62
5
6
CONTINUOUS
0
LAYER
2
ENGRAVE
70
0
62
7
6
CONTINUOUS
0
ENDTAB
0
ENDSEC
0
SECTION
2
ENTITIES
0
POLYLINE
8
ENGRAVE
66
1
70
1
10
0
20
0
30
0
0
VERTEX
8
ENGRAVE
10
14.050
20
42.737
30
0
0
VERTEX
8
ENGRAVE
10
14.500
20
42.700
30
0
0
VERTEX
8
ENGRAVE
10
14.837
20
42.513
30
0
0
VERTEX
8
ENGRAVE
10
15.025
20
42.175
30
0
0
VERTEX
8
ENGRAVE
10
15.025
20
41.800
30
0
0
VERTEX
8
ENGRAVE
10
14.837
20
41.425
30
0
0
VERTEX
8
ENGRAVE
10
14.462
20
41.050
30
0
0
VERTEX
8
ENGRAVE
10
13.712
20
40.487
30
0
0
VERTEX
8
ENGRAVE
10
15.025
20
40.487
30
0
0
VERTEX
8
ENGRAVE
10
15.025
20
40.225
30
0
0
VERTEX
8
ENGRAVE
10
13.262
20
40.225
30
0
0
VERTEX
8
ENGRAVE
10
13.300
20
40.525
30
0
0
VERTEX
8
ENGRAVE
10
14.237
20
41.200
30
0
0
VERTEX
8
ENGRAVE
10
14.575
20
41.538
30
0
0
VERTEX
8
ENGRAVE
10
14.725
20
41.875
30
0
0
VERTEX
8
ENGRAVE
10
14.688
20
42.213
30
0
0
VERTEX
8
ENGRAVE
10
14.350
20
42.475
30
0
0
VERTEX
8
ENGRAVE
10
13.975
20
42.475
30
0
0
VERTEX
8
ENGRAVE
10
13.825
20
42.400
30
0
0
VERTEX
8
ENGRAVE
10
13.675
20
42.250
30
0
0
VERTEX
8
ENGRAVE
10
13.563
20
41.913
30
0
0
VERTEX
8
ENGRAVE
10
13.300
20
41.987
30
0
0
VERTEX
8
ENGRAVE
10
13.300
20
42.138
30
0
0
VERTEX
8
ENGRAVE
10
13.450
20
42.438
30
0
0
VERTEX
8
ENGRAVE
10
13.525
20
42.438
30
0
0
VERTEX
8
ENGRAVE
10
13.675
20
42.625
30
0
0
SEQEND
8
ENGRAVE
0
POLYLINE
8
ENGRAVE
66
1
70
1
10
0
20
0
30
0
0
VERTEX
8
ENGRAVE
10
10.938
20
41.275
30
0
0
VERTEX
8
ENGRAVE
10
11.688
20
41.275
30
0
0
VERTEX
8
ENGRAVE
10
11.688
20
41.050
30
0
0
VERTEX
8
ENGRAVE
10
10.900
20
41.050
30
0
0
SEQEND
8
ENGRAVE
0
POLYLINE
8
ENGRAVE
66
1
70
1
10
0
20
0
30
0
0
VERTEX
8
ENGRAVE
10
12.362
20
40.638
30
0
0
VERTEX
8
ENGRAVE
10
12.737
20
40.638
30
0
0
VERTEX
8
ENGRAVE
10
12.737
20
40.225
30
0
0
VERTEX
8
ENGRAVE
10
12.362
20
40.225
30
0
0
SEQEND
8
ENGRAVE
0
POLYLINE
8
ENGRAVE
66
1
70
1
10
0
20
0
30
0
0
VERTEX
8
ENGRAVE
10
30.162
20
42.700
30
0
0
VERTEX
8
ENGRAVE
10
30.387
20
42.700
30
0
0
VERTEX
8
ENGRAVE
10
30.387
20
40.450
30
0
0
VERTEX
8
ENGRAVE
10
31.063
20
40.450
30
0
0
VERTEX
8
ENGRAVE
10
31.063
20
40.225
30
0
0
VERTEX
8
ENGRAVE
10
29.337
20
40.225
30
0
0
VERTEX
8
ENGRAVE
10
29.337
20
40.450
30
0
0
VERTEX
8
ENGRAVE
10
30.087
20
40.450
30
0
0
VERTEX
8
ENGRAVE
10
30.087
20
42.288
30
0
0
VERTEX
8
ENGRAVE
10
29.450
20
41.800
30
0
0
VERTEX
8
ENGRAVE
10
29.412
20
42.100
30
0
0
VERTEX
8
ENGRAVE
10
29.863
20
42.362
30
0
0
SEQEND
8
ENGRAVE
0
POLYLINE
8
ENGRAVE
66
1
70
1
10
0
20
0
30
0
0
VERTEX
8
ENGRAVE
10
26.938
20
41.275
30
0
0
VERTEX
8
ENGRAVE
10
27.688
20
41.275
30
0
0
VERTEX
8
ENGRAVE
10
27.688
20
41.050
30
0
0
VERTEX
8
ENGRAVE
10
26.900
20
41.050
30
0
0
SEQEND
8
ENGRAVE
0
POLYLINE
8
ENGRAVE
66
1
70
1
10
0
20
0
30
0
0
VERTEX
8
ENGRAVE
10
28.363
20
40.638
30
0
0
VERTEX
8
ENGRAVE
10
28.738
20
40.638
30
0
0
VERTEX
8
ENGRAVE
10
28.738
20
40.225
30
0
0
VERTEX
8
ENGRAVE
10
28.363
20
40.225
30
0
0
SEQEND
8
ENGRAVE
0
POLYLINE
8
ENGRAVE
66
1
70
1
10
0
20
0
30
0
0
VERTEX
8
ENGRAVE
10
44.925
20
42.737
30
0
0
VERTEX
8
ENGRAVE
10
45.188
20
42.737
30
0
0
VERTEX
8
ENGRAVE
10
45.525
20
42.625
30
0
0
VERTEX
8
ENGRAVE
10
45.788
20
42.362
30
0
0
VERTEX
8
ENGRAVE
10
46.013
20
41.725
30
0
0
VERTEX
8
ENGRAVE
10
46.013
20
41.163
30
0
0
VERTEX
8
ENGRAVE
10
45.788
20
40.563
30
0
0
VERTEX
8
ENGRAVE
10
45.525
20
40.300
30
0
0
VERTEX
8
ENGRAVE
10
45.225
20
40.188
30
0
0
VERTEX
8
ENGRAVE
10
44.925
20
40.188
30
0
0
VERTEX
8
ENGRAVE
10
44.625
20
40.300
30
0
0
VERTEX
8
ENGRAVE
10
44.363
20
40.563
30
0
0
VERTEX
8
ENGRAVE
10
44.138
20
41.200
30
0
0
VERTEX
8
ENGRAVE
10
44.138
20
41.725
30
0
0
VERTEX
8
ENGRAVE
10
44.250
20
42.175
30
0
0
VERTEX
8
ENGRAVE
10
44.513
20
42.550
30
0
0
SEQEND
8
ENGRAVE
0
POLYLINE
8
ENGRAVE
66
1
70
1
10
0
20
0
30
0
0
VERTEX
8
ENGRAVE
10
44.888
20
42.475
30
0
0
VERTEX
8
ENGRAVE
10
44.625
20
42.288
30
0
0
VERTEX
8
ENGRAVE
10
44.513
20
42.025
30
0
0
VERTEX
8
ENGRAVE
10
44.475
20
41.087
30
0
0
VERTEX
8
ENGRAVE
10
44.700
20
40.563
30
0
0
VERTEX
8
ENGRAVE
10
44.850
20
40.450
30
0
0
VERTEX
8
ENGRAVE
10
45.113
20
40.413
30
0
0
VERTEX
8
ENGRAVE
10
45.413
20
40.525
30
0
0
VERTEX
8
ENGRAVE
10
45.600
20
40.788
30
0
0
VERTEX
8
ENGRAVE
10
45.675
20
41.050
30
0
0
VERTEX
8
ENGRAVE
10
45.675
20
41.837
30
0
0
VERTEX
8
ENGRAVE
10
45.525
20
42.250
30
0
0
VERTEX
8
ENGRAVE
10
45.338
20
42.438
30
0
0
SEQEND
8
ENGRAVE
0
POLYLINE
8
ENGRAVE
66
1
70
1
10
0
20
0
30
0
0
VERTEX
8
ENGRAVE
10
62.688
20
42.700
30
0
0
VERTEX
8
ENGRAVE
10
62.950
20
42.663
30
0
0
VERTEX
8
ENGRAVE
10
62.950
20
40.450
30
0
0
VERTEX
8
ENGRAVE
10
63.625
20
40.450
30
0
0
VERTEX
8
ENGRAVE
10
63.625
20
40.225
30
0
0
VERTEX
8
ENGRAVE
10
61.900
20
40.225
30
0
0
VERTEX
8
ENGRAVE
10
61.900
20
40.450
30
0
0
VERTEX
8
ENGRAVE
10
62.613
20
40.450
30
0
0
VERTEX
8
ENGRAVE
10
62.613
20
42.288
30
0
0
VERTEX
8
ENGRAVE
10
62.013
20
41.800
30
0
0
VERTEX
8
ENGRAVE
10
61.938
20
41.800
30
0
0
VERTEX
8
ENGRAVE
10
61.938
20
42.100
30
0
0
VERTEX
8
ENGRAVE
10
62.350
20
42.325
30
0
0
SEQEND
8
ENGRAVE
0
POLYLINE
8
ENGRAVE
66
1
70
1
10
0
20
0
30
0
0
VERTEX
8
ENGRAVE
10
59.350
20
42.213
30
0
0
VERTEX
8
ENGRAVE
10
59.575
20
42.175
30
0
0
VERTEX
8
ENGRAVE
10
59.575
20
41.388
30
0
0
VERTEX
8
ENGRAVE
10
60.400
20
41.350
30
0
0
VERTEX
8
ENGRAVE
10
60.363
20
41.125
30
0
0
VERTEX
8
ENGRAVE
10
59.575
20
41.125
30
0
0
VERTEX
8
ENGRAVE
10
59.575
20
40.337
30
0
0
VERTEX
8
ENGRAVE
10
59.350
20
40.337
30
0
0
VERTEX
8
ENGRAVE
10
59.350
20
41.125
30
0
0
VERTEX
8
ENGRAVE
10
58.525
20
41.125
30
0
0
VERTEX
8
ENGRAVE
10
58.525
20
41.388
30
0
0
VERTEX
8
ENGRAVE
10
59.350
20
41.388
30
0
0
SEQEND
8
ENGRAVE
0
POLYLINE
8
ENGRAVE
66
1
70
1
10
0
20
0
30
0
0
VERTEX
8
ENGRAVE
10
60.888
20
40.638
30
0
0
VERTEX
8
ENGRAVE
10
61.300
20
40.638
30
0
0
VERTEX
8
ENGRAVE
10
61.300
20
40.225
30
0
0
VERTEX
8
ENGRAVE
10
60.888
20
40.225
30
0
0
SEQEND
8
ENGRAVE
0
POLYLINE
8
ENGRAVE
66
1
70
1
10
0
20
0
30
0
0
VERTEX
8
ENGRAVE
10
78.575
20
42.737
30
0
0
VERTEX
8
ENGRAVE
10
79.025
20
42.700
30
0
0
VERTEX
8
ENGRAVE
10
79.325
20
42.550
30
0
0
VERTEX
8
ENGRAVE
10
79.550
20
42.250
30
0
0
VERTEX
8
ENGRAVE
10
79.588
20
41.913
30
0
0
VERTEX
8
ENGRAVE
10
79.550
20
41.725
30
0
0
VERTEX
8
ENGRAVE
10
79.325
20
41.350
30
0
0
VERTEX
8
ENGRAVE
10
78.275
20
40.487
30
0
0
VERTEX
8
ENGRAVE
10
79.588
20
40.487
30
0
0
VERTEX
8
ENGRAVE
10
79.588
20
40.225
30
0
0
VERTEX
8
ENGRAVE
10
77.825
20
40.225
30
0
0
VERTEX
8
ENGRAVE
10
77.825
20
40.487
30
0
0
VERTEX
8
ENGRAVE
10
78.875
20
41.275
30
0
0
VERTEX
8
ENGRAVE
10
79.175
20
41.612
30
0
0
VERTEX
8
ENGRAVE
10
79.250
20
41.800
30
0
0
VERTEX
8
ENGRAVE
10
79.213
20
42.250
30
0
0
VERTEX
8
ENGRAVE
10
78.875
20
42.475
30
0
0
VERTEX
8
ENGRAVE
10
78.538
20
42.475
30
0
0
VERTEX
8
ENGRAVE
10
78.313
20
42.362
30
0
0
VERTEX
8
ENGRAVE
10
78.125
20
42.063
30
0
0
VERTEX
8
ENGRAVE
10
78.125
20
41.913
30
0
0
VERTEX
8
ENGRAVE
10
77.825
20
41.987
30
0
0
VERTEX
8
ENGRAVE
10
77.975
20
42.400
30
0
0
VERTEX
8
ENGRAVE
10
78.163
20
42.588
30
0
0
SEQEND
8
ENGRAVE
0
POLYLINE
8
ENGRAVE
66
1
70
1
10
0
20
0
30
0
0
VERTEX
8
ENGRAVE
10
75.350
20
42.213
30
0
0
VERTEX
8
ENGRAVE
10
75.575
20
42.175
30
0
0
VERTEX
8
ENGRAVE
10
75.575
20
41.388
30
0
0
VERTEX
8
ENGRAVE
10
76.400
20
41.350
30
0
0
VERTEX
8
ENGRAVE
10
76.362
20
41.125
30
0
0
VERTEX
8
ENGRAVE
10
75.575
20
41.125
30
0
0
VERTEX
8
ENGRAVE
10
75.575
20
40.337
30
0
0
VERTEX
8
ENGRAVE
10
75.350
20
40.337
30
0
0
VERTEX
8
ENGRAVE
10
75.350
20
41.125
30
0
0
VERTEX
8
ENGRAVE
10
74.525
20
41.125
30
0
0
VERTEX
8
ENGRAVE
10
74.525
20
41.388
30
0
0
VERTEX
8
ENGRAVE
10
75.350
20
41.388
30
0
0
SEQEND
8
ENGRAVE
0
POLYLINE
8
ENGRAVE
66
1
70
1
10
0
20
0
30
0
0
VERTEX
8
ENGRAVE
10
76.888
20
40.638
30
0
0
VERTEX
8
ENGRAVE
10
77.300
20
40.638
30
0
0
VERTEX
8
ENGRAVE
10
77.300
20
40.225
30
0
0
VERTEX
8
ENGRAVE
10
76.888
20
40.225
30
0
0
SEQEND
8
ENGRAVE
0
POLYLINE
8
ENGRAVE
66
1
70
1
10
0
20
0
30
0
0
VERTEX
8
ENGRAVE
10
8.586
20
34.160
30
0
0
VERTEX
8
ENGRAVE
10
8.961
20
34.160
30
0
0
VERTEX
8
ENGRAVE
10
9.545
20
33.160
30
0
0
VERTEX
8
ENGRAVE
10
10.086
20
34.077
30
0
0
VERTEX
8
ENGRAVE
10
10.170
20
34.160
30
0
0
VERTEX
8
ENGRAVE
10
10.461
20
34.160
30
0
0
VERTEX
8
ENGRAVE
10
9.711
20
32.868
30
0
0
VERTEX
8
ENGRAVE
10
10.586
20
31.410
30
0
0
VERTEX
8
ENGRAVE
10
10.170
20
31.410
30
0
0
VERTEX
8
ENGRAVE
10
9.545
20
32.535
30
0
0
VERTEX
8
ENGRAVE
10
9.461
20
32.535
30
0
0
VERTEX
8
ENGRAVE
10
9.295
20
32.285
30
0
0
VERTEX
8
ENGRAVE
10
8.836
20
31.452
30
0
0
VERTEX
8
ENGRAVE
10
8.461
20
31.410
30
0
0
VERTEX
8
ENGRAVE
10
9.336
20
32.785
30
0
0
SEQEND
8
ENGRAVE
0
POLYLINE
8
ENGRAVE
66
1
70
1
10
0
20
0
30
0
0
VERTEX
8
ENGRAVE
10
11.795
20
34.160
30
0
0
VERTEX
8
ENGRAVE
10
12.045
20
34.160
30
0
0
VERTEX
8
ENGRAVE
10
12.045
20
31.660
30
0
0
VERTEX
8
ENGRAVE
10
12.795
20
31.660
30
0
0
VERTEX
8
ENGRAVE
10
12.795
20
31.410
30
0
0
VERTEX
8
ENGRAVE
10
10.878
20
31.410
30
0
0
VERTEX
8
ENGRAVE
10
10.878
20
31.660
30
0
0
VERTEX
8
ENGRAVE
10
11.711
20
31.660
30
0
0
VERTEX
8
ENGRAVE
10
11.711
20
33.702
30
0
0
VERTEX
8
ENGRAVE
10
11.003
20
33.160
30
0
0
VERTEX
8
ENGRAVE
10
10.961
20
33.493
30
0
0
VERTEX
8
ENGRAVE
10
11.461
20
33.785
30
0
0
SEQEND
8
ENGRAVE
0
POLYLINE
8
ENGRAVE
66
1
70
1
10
0
20
0
30
0
0
VERTEX
8
ENGRAVE
10
9.544
20
8.725
30
0
0
VERTEX
8
ENGRAVE
10
9.587
20
9.250
30
0
0
VERTEX
8
ENGRAVE
10
9.762
20
9.600
30
0
0
VERTEX
8
ENGRAVE
10
10.112
20
9.862
30
0
0
VERTEX
8
ENGRAVE
10
10.506
20
9.906
30
0
0
VERTEX
8
ENGRAVE
10
10.725
20
9.862
30
0
0
VERTEX
8
ENGRAVE
10
11.162
20
9.600
30
0
0
VERTEX
8
ENGRAVE
10
12.169
20
8.375
30
0
0
VERTEX
8
ENGRAVE
10
12.169
20
9.906
30
0
0
VERTEX
8
ENGRAVE
10
12.475
20
9.906
30
0
0
VERTEX
8
ENGRAVE
10
12.475
20
7.850
30
0
0
VERTEX
8
ENGRAVE
10
12.169
20
7.850
30
0
0
VERTEX
8
ENGRAVE
10
11.250
20
9.075
30
0
0
VERTEX
8
ENGRAVE
10
10.856
20
9.425
30
0
0
VERTEX
8
ENGRAVE
10
10.637
20
9.513
30
0
0
VERTEX
8
ENGRAVE
10
10.112
20
9.469
30
0
0
VERTEX
8
ENGRAVE
10
9.850
20
9.075
30
0
0
VERTEX
8
ENGRAVE
10
9.850
20
8.681
30
0
0
VERTEX
8
ENGRAVE
10
9.981
20
8.419
30
0
0
VERTEX
8
ENGRAVE
10
10.331
20
8.200
30
0
0
VERTEX
8
ENGRAVE
10
10.506
20
8.200
30
0
0
VERTEX
8
ENGRAVE
10
10.419
20
7.850
30
0
0
VERTEX
8
ENGRAVE
10
9.938
20
8.025
30
0
0
VERTEX
8
ENGRAVE
10
9.719
20
8.244
30
0
0
SEQEND
8
ENGRAVE
0
POLYLINE
8
ENGRAVE
66
1
70
1
10
0
20
0
30
0
0
VERTEX
8
ENGRAVE
10
9.544
20
11.219
30
0
0
VERTEX
8
ENGRAVE
10
9.544
20
11.525
30
0
0
VERTEX
8
ENGRAVE
10
9.675
20
11.919
30
0
0
VERTEX
8
ENGRAVE
10
10.069
20
12.269
30
0
0
VERTEX
8
ENGRAVE
10
10.813
20
12.488
30
0
0
VERTEX
8
ENGRAVE
10
11.556
20
12.444
30
0
0
VERTEX
8
ENGRAVE
10
12.081
20
12.225
30
0
0
VERTEX
8
ENGRAVE
10
12.387
20
11.919
30
0
0
VERTEX
8
ENGRAVE
10
12.519
20
11.569
30
0
0
VERTEX
8
ENGRAVE
10
12.519
20
11.175
30
0
0
VERTEX
8
ENGRAVE
10
12.300
20
10.738
30
0
0
VERTEX
8
ENGRAVE
10
11.950
20
10.475
30
0
0
VERTEX
8
ENGRAVE
10
11.425
20
10.300
30
0
0
VERTEX
8
ENGRAVE
10
10.637
20
10.300
30
0
0
VERTEX
8
ENGRAVE
10
10.200
20
10.431
30
0
0
VERTEX
8
ENGRAVE
10
9.762
20
10.738
30
0
0
SEQEND
8
ENGRAVE
0
POLYLINE
8
ENGRAVE
66
1
70
1
10
0
20
0
30
0
0
VERTEX
8
ENGRAVE
10
9.544
20
14.981
30
0
0
VERTEX
8
ENGRAVE
10
9.587
20
15.506
30
0
0
VERTEX
8
ENGRAVE
10
9.762
20
15.813
30
0
0
VERTEX
8
ENGRAVE
10
10.112
20
16.075
30
0
0
VERTEX
8
ENGRAVE
10
10.637
20
16.250
30
0
0
VERTEX
8
ENGRAVE
10
11.425
20
16.250
30
0
0
VERTEX
8
ENGRAVE
10
11.862
20
16.119
30
0
0
VERTEX
8
ENGRAVE
10
12.344
20
15.769
30
0
0
VERTEX
8
ENGRAVE
10
12.519
20
15.375
30
0
0
VERTEX
8
ENGRAVE
10
12.519
20
14.981
30
0
0
VERTEX
8
ENGRAVE
10
12.387
20
14.631
30
0
0
VERTEX
8
ENGRAVE
10
11.906
20
14.238
30
0
0
VERTEX
8
ENGRAVE
10
11.206
20
14.063
30
0
0
VERTEX
8
ENGRAVE
10
10.550
20
14.106
30
0
0
VERTEX
8
ENGRAVE
10
10.069
20
14.281
30
0
0
VERTEX
8
ENGRAVE
10
9.719
20
14.588
30
0
0
SEQEND
8
ENGRAVE
0
POLYLINE
8
ENGRAVE
66
1
70
1
10
0
20
0
30
0
0
VERTEX
8
ENGRAVE
10
9.544
20
17.519
30
0
0
VERTEX
8
ENGRAVE
10
9.544
20
17.825
30
0
0
VERTEX
8
ENGRAVE
10
9.675
20
18.219
30
0
0
VERTEX
8
ENGRAVE
10
10.069
20
18.569
30
0
0
VERTEX
8
ENGRAVE
10
10.813
20
18.788
30
0
0
VERTEX
8
ENGRAVE
10
11.556
20
18.744
30
0
0
VERTEX
8
ENGRAVE
10
12.081
20
18.525
30
0
0
VERTEX
8
ENGRAVE
10
12.387
20
18.219
30
0
0
VERTEX
8
ENGRAVE
10
12.519
20
17.869
30
0
0
VERTEX
8
ENGRAVE
10
12.519
20
17.475
30
0
0
VERTEX
8
ENGRAVE
10
12.300
20
17.038
30
0
0
VERTEX
8
ENGRAVE
10
11.950
20
16.775
30
0
0
VERTEX
8
ENGRAVE
10
11.425
20
16.600
30
0
0
VERTEX
8
ENGRAVE
10
10.637
20
16.600
30
0
0
VERTEX
8
ENGRAVE
10
10.200
20
16.731
30
0
0
VERTEX
8
ENGRAVE
10
9.762
20
17.038
30
0
0
SEQEND
8
ENGRAVE
0
POLYLINE
8
ENGRAVE
66
1
70
1
10
0
20
0
30
0
0
VERTEX
8
ENGRAVE
10
9.850
20
11.175
30
0
0
VERTEX
8
ENGRAVE
10
10.069
20
10.869
30
0
0
VERTEX
8
ENGRAVE
10
10.331
20
10.738
30
0
0
VERTEX
8
ENGRAVE
10
11.162
20
10.650
30
0
0
VERTEX
8
ENGRAVE
10
11.731
20
10.738
30
0
0
VERTEX
8
ENGRAVE
10
11.994
20
10.869
30
0
0
VERTEX
8
ENGRAVE
10
12.212
20
11.131
30
0
0
VERTEX
8
ENGRAVE
10
12.256
20
11.438
30
0
0
VERTEX
8
ENGRAVE
10
12.125
20
11.788
30
0
0
VERTEX
8
ENGRAVE
10
11.906
20
11.963
30
0
0
VERTEX
8
ENGRAVE
10
11.469
20
12.094
30
0
0
VERTEX
8
ENGRAVE
10
10.681
20
12.094
30
0
0
VERTEX
8
ENGRAVE
10
10.200
20
11.963
30
0
0
VERTEX
8
ENGRAVE
10
9.938
20
11.744
30
0
0
VERTEX
8
ENGRAVE
10
9.850
20
11.569
30
0
0
SEQEND
8
ENGRAVE
0
POLYLINE
8
ENGRAVE
66
1
70
1
10
0
20
0
30
0
0
VERTEX
8
ENGRAVE
10
9.850
20
14.981
30
0
0
VERTEX
8
ENGRAVE
10
9.938
20
14.763
30
0
0
VERTEX
8
ENGRAVE
10
10.287
20
14.544
30
0
0
VERTEX
8
ENGRAVE
10
10.637
20
14.456
30
0
0
VERTEX
8
ENGRAVE
10
11.425
20
14.456
30
0
0
VERTEX
8
ENGRAVE
10
11.950
20
14.631
30
0
0
VERTEX
8
ENGRAVE
10
12.169
20
14.850
30
0
0
VERTEX
8
ENGRAVE
10
12.256
20
15.244
30
0
0
VERTEX
8
ENGRAVE
10
12.169
20
15.506
30
0
0
VERTEX
8
ENGRAVE
10
11.731
20
15.813
30
0
0
VERTEX
8
ENGRAVE
10
10.856
20
15.900
30
0
0
VERTEX
8
ENGRAVE
10
10.156
20
15.725
30
0
0
VERTEX
8
ENGRAVE
10
9.850
20
15.375
30
0
0
SEQEND
8
ENGRAVE
0
POLYLINE
8
ENGRAVE
66
1
70
1
10
0
20
0
30
0
0
VERTEX
8
ENGRAVE
10
9.850
20
17.475
30
0
0
VERTEX
8
ENGRAVE
10
10.069
20
17.169
30
0
0
VERTEX
8
ENGRAVE
10
10.331
20
17.038
30
0
0
VERTEX
8
ENGRAVE
10
11.162
20
16.950
30
0
0
VERTEX
8
ENGRAVE
10
11.731
20
17.038
30
0
0
VERTEX
8
ENGRAVE
10
11.994
20
17.169
30
0
0
VERTEX
8
ENGRAVE
10
12.212
20
17.431
30
0
0
VERTEX
8
ENGRAVE
10
12.256
20
17.738
30
0
0
VERTEX
8
ENGRAVE
10
12.125
20
18.088
30
0
0
VERTEX
8
ENGRAVE
10
11.906
20
18.263
30
0
0
VERTEX
8
ENGRAVE
10
11.469
20
18.394
30
0
0
VERTEX
8
ENGRAVE
10
10.681
20
18.394
30
0
0
VERTEX
8
ENGRAVE
10
10.200
20
18.263
30
0
0
VERTEX
8
ENGRAVE
10
9.938
20
18.044
30
0
0
VERTEX
8
ENGRAVE
10
9.850
20
17.869
30
0
0
SEQEND
8
ENGRAVE
0
POLYLINE
8
ENGRAVE
66
1
70
1
10
0
20
0
30
0
0
VERTEX
8
ENGRAVE
10
11.994
20
13.056
30
0
0
VERTEX
8
ENGRAVE
10
11.994
20
13.538
30
0
0
VERTEX
8
ENGRAVE
10
12.475
20
13.538
30
0
0
VERTEX
8
ENGRAVE
10
12.475
20
13.056
30
0
0
SEQEND
8
ENGRAVE
0
POLYLINE
8
ENGRAVE
66
1
70
1
10
0
20
0
30
0
0
VERTEX
8
ENGRAVE
10
16.512
20
10.494
30
0
0
VERTEX
8
ENGRAVE
10
16.512
20
10.744
30
0
0
VERTEX
8
ENGRAVE
10
17.794
20
10.744
30
0
0
VERTEX
8
ENGRAVE
10
17.044
20
11.431
30
0
0
VERTEX
8
ENGRAVE
10
17.044
20
11.681
30
0
0
VERTEX
8
ENGRAVE
10
17.606
20
11.213
30
0
0
VERTEX
8
ENGRAVE
10
18.575
20
11.744
30
0
0
VERTEX
8
ENGRAVE
10
18.544
20
11.463
30
0
0
VERTEX
8
ENGRAVE
10
17.731
20
11.056
30
0
0
VERTEX
8
ENGRAVE
10
18.075
20
10.744
30
0
0
VERTEX
8
ENGRAVE
10
18.575
20
10.744
30
0
0
VERTEX
8
ENGRAVE
10
18.575
20
10.494
30
0
0
SEQEND
8
ENGRAVE
0
POLYLINE
8
ENGRAVE
66
1
70
1
10
0
20
0
30
0
0
VERTEX
8
ENGRAVE
10
16.512
20
13.556
30
0
0
VERTEX
8
ENGRAVE
10
16.512
20
13.775
30
0
0
VERTEX
8
ENGRAVE
10
18.387
20
13.775
30
0
0
VERTEX
8
ENGRAVE
10
18.387
20
14.338
30
0
0
VERTEX
8
ENGRAVE
10
18.575
20
14.338
30
0
0
VERTEX
8
ENGRAVE
10
18.575
20
12.900
30
0
0
VERTEX
8
ENGRAVE
10
18.387
20
12.900
30
0
0
VERTEX
8
ENGRAVE
10
18.387
20
13.525
30
0
0
VERTEX
8
ENGRAVE
10
16.856
20
13.525
30
0
0
VERTEX
8
ENGRAVE
10
17.262
20
12.994
30
0
0
VERTEX
8
ENGRAVE
10
16.981
20
12.963
30
0
0
VERTEX
8
ENGRAVE
10
16.856
20
13.244
30
0
0
VERTEX
8
ENGRAVE
10
16.575
20
13.556
30
0
0
SEQEND
8
ENGRAVE
0
POLYLINE
8
ENGRAVE
66
1
70
1
10
0
20
0
30
0
0
VERTEX
8
ENGRAVE
10
16.512
20
14.775
30
0
0
VERTEX
8
ENGRAVE
10
16.512
20
15.994
30
0
0
VERTEX
8
ENGRAVE
10
16.731
20
15.994
30
0
0
VERTEX
8
ENGRAVE
10
16.731
20
14.963
30
0
0
VERTEX
8
ENGRAVE
10
17.387
20
14.931
30
0
0
VERTEX
8
ENGRAVE
10
17.200
20
15.244
30
0
0
VERTEX
8
ENGRAVE
10
17.200
20
15.619
30
0
0
VERTEX
8
ENGRAVE
10
17.294
20
15.838
30
0
0
VERTEX
8
ENGRAVE
10
17.669
20
16.119
30
0
0
VERTEX
8
ENGRAVE
10
18.075
20
16.119
30
0
0
VERTEX
8
ENGRAVE
10
18.294
20
16.025
30
0
0
VERTEX
8
ENGRAVE
10
18.575
20
15.650
30
0
0
VERTEX
8
ENGRAVE
10
18.575
20
15.056
30
0
0
VERTEX
8
ENGRAVE
10
18.481
20
14.869
30
0
0
VERTEX
8
ENGRAVE
10
18.169
20
14.619
30
0
0
VERTEX
8
ENGRAVE
10
18.106
20
14.619
30
0
0
VERTEX
8
ENGRAVE
10
18.044
20
14.869
30
0
0
VERTEX
8
ENGRAVE
10
18.294
20
14.994
30
0
0
VERTEX
8
ENGRAVE
10
18.387
20
15.181
30
0
0
VERTEX
8
ENGRAVE
10
18.387
20
15.556
30
0
0
VERTEX
8
ENGRAVE
10
18.325
20
15.681
30
0
0
VERTEX
8
ENGRAVE
10
18.075
20
15.869
30
0
0
VERTEX
8
ENGRAVE
10
17.700
20
15.869
30
0
0
VERTEX
8
ENGRAVE
10
17.450
20
15.681
30
0
0
VERTEX
8
ENGRAVE
10
17.387
20
15.275
30
0
0
VERTEX
8
ENGRAVE
10
17.512
20
15.025
30
0
0
VERTEX
8
ENGRAVE
10
17.669
20
14.931
30
0
0
VERTEX
8
ENGRAVE
10
17.637
20
14.713
30
0
0
SEQEND
8
ENGRAVE
0
POLYLINE
8
ENGRAVE
66
1
70
1
10
0
20
0
30
0
0
VERTEX
8
ENGRAVE
10
18.231
20
12.056
30
0
0
VERTEX
8
ENGRAVE
10
18.231
20
12.400
30
0
0
VERTEX
8
ENGRAVE
10
18.575
20
12.400
30
0
0
VERTEX
8
ENGRAVE
10
18.575
20
12.056
30
0
0
SEQEND
8
ENGRAVE
0
POLYLINE
8
ENGRAVE
66
1
70
1
10
0
20
0
30
0
0
VERTEX
8
ENGRAVE
10
21.918
20
12.128
30
0
0
VERTEX
8
ENGRAVE
10
21.947
20
12.478
30
0
0
VERTEX
8
ENGRAVE
10
22.093
20
12.740
30
0
0
VERTEX
8
ENGRAVE
10
22.355
20
12.886
30
0
0
VERTEX
8
ENGRAVE
10
22.647
20
12.886
30
0
0
VERTEX
8
ENGRAVE
10
22.939
20
12.740
30
0
0
VERTEX
8
ENGRAVE
10
23.230
20
12.448
30
0
0
VERTEX
8
ENGRAVE
10
23.668
20
11.865
30
0
0
VERTEX
8
ENGRAVE
10
23.668
20
12.886
30
0
0
VERTEX
8
ENGRAVE
10
23.872
20
12.886
30
0
0
VERTEX
8
ENGRAVE
10
23.872
20
11.515
30
0
0
VERTEX
8
ENGRAVE
10
23.639
20
11.544
30
0
0
VERTEX
8
ENGRAVE
10
23.114
20
12.273
30
0
0
VERTEX
8
ENGRAVE
10
22.851
20
12.536
30
0
0
VERTEX
8
ENGRAVE
10
22.589
20
12.653
30
0
0
VERTEX
8
ENGRAVE
10
22.326
20
12.623
30
0
0
VERTEX
8
ENGRAVE
10
22.122
20
12.361
30
0
0
VERTEX
8
ENGRAVE
10
22.122
20
12.069
30
0
0
VERTEX
8
ENGRAVE
10
22.180
20
11.953
30
0
0
VERTEX
8
ENGRAVE
10
22.297
20
11.836
30
0
0
VERTEX
8
ENGRAVE
10
22.559
20
11.748
30
0
0
VERTEX
8
ENGRAVE
10
22.501
20
11.544
30
0
0
VERTEX
8
ENGRAVE
10
22.384
20
11.544
30
0
0
VERTEX
8
ENGRAVE
10
22.151
20
11.661
30
0
0
VERTEX
8
ENGRAVE
10
22.151
20
11.719
30
0
0
VERTEX
8
ENGRAVE
10
22.005
20
11.836
30
0
0
SEQEND
8
ENGRAVE
0
POLYLINE
8
ENGRAVE
66
1
70
1
10
0
20
0
30
0
0
VERTEX
8
ENGRAVE
10
21.947
20
9.969
30
0
0
VERTEX
8
ENGRAVE
10
21.947
20
10.232
30
0
0
VERTEX
8
ENGRAVE
10
22.647
20
10.640
30
0
0
VERTEX
8
ENGRAVE
10
22.005
20
11.019
30
0
0
VERTEX
8
ENGRAVE
10
21.947
20
11.078
30
0
0
VERTEX
8
ENGRAVE
10
21.947
20
11.282
30
0
0
VERTEX
8
ENGRAVE
10
22.851
20
10.757
30
0
0
VERTEX
8
ENGRAVE
10
23.872
20
11.369
30
0
0
VERTEX
8
ENGRAVE
10
23.872
20
11.078
30
0
0
VERTEX
8
ENGRAVE
10
23.084
20
10.640
30
0
0
VERTEX
8
ENGRAVE
10
23.084
20
10.582
30
0
0
VERTEX
8
ENGRAVE
10
23.259
20
10.465
30
0
0
VERTEX
8
ENGRAVE
10
23.843
20
10.144
30
0
0
VERTEX
8
ENGRAVE
10
23.872
20
9.882
30
0
0
VERTEX
8
ENGRAVE
10
22.909
20
10.494
30
0
0
SEQEND
8
ENGRAVE
0
POLYLINE
8
CUT
66
1
70
1
10
0
20
0
30
0
0
VERTEX
8
CUT
10
40.100
20
30.000
30
0
0
VERTEX
8
CUT
10
50.050
20
30.000
30
0
0
VERTEX
8
CUT
10
50.050
20
32.950
30
0
0
VERTEX
8
CUT
10
40.100
20
32.950
30
0
0
SEQEND
8
CUT
0
POLYLINE
8
CUT
66
1
70
1
10
0
20
0
30
0
0
VERTEX
8
CUT
10
4.570
20
25.850
30
0
0
VERTEX
8
CUT
10
85.580
20
25.850
30
0
0
VERTEX
8
CUT
10
85.983
20
25.903
30
0
0
VERTEX
8
CUT
10
86.363
20
26.060
30
0
0
VERTEX
8
CUT
10
86.689
20
26.311
30
0
0
VERTEX
8
CUT
10
86.940
20
26.637
30
0
0
VERTEX
8
CUT
10
87.097
20
27.017
30
0
0
VERTEX
8
CUT
10
87.150
20
27.420
30
0
0
VERTEX
8
CUT
10
87.150
20
54.430
30
0
0
VERTEX
8
CUT
10
87.097
20
54.833
30
0
0
VERTEX
8
CUT
10
86.940
20
55.213
30
0
0
VERTEX
8
CUT
10
86.689
20
55.539
30
0
0
VERTEX
8
CUT
10
86.363
20
55.790
30
0
0
VERTEX
8
CUT
10
85.983
20
55.947
30
0
0
VERTEX
8
CUT
10
85.580
20
56.000
30
0
0
VERTEX
8
CUT
10
78.650
20
56.000
30
0
0
VERTEX
8
CUT
10
78.650
20
46.000
30
0
0
VERTEX
8
CUT
10
75.500
20
46.000
30
0
0
VERTEX
8
CUT
10
75.500
20
56.000
30
0
0
VERTEX
8
CUT
10
62.600
20
56.000
30
0
0
VERTEX
8
CUT
10
62.600
20
46.000
30
0
0
VERTEX
8
CUT
10
59.550
20
46.000
30
0
0
VERTEX
8
CUT
10
59.550
20
56.000
30
0
0
VERTEX
8
CUT
10
46.550
20
56.000
30
0
0
VERTEX
8
CUT
10
46.550
20
46.000
30
0
0
VERTEX
8
CUT
10
43.600
20
46.000
30
0
0
VERTEX
8
CUT
10
43.600
20
56.000
30
0
0
VERTEX
8
CUT
10
30.500
20
56.000
30
0
0
VERTEX
8
CUT
10
30.500
20
46.000
30
0
0
VERTEX
8
CUT
10
27.650
20
46.000
30
0
0
VERTEX
8
CUT
10
27.650
20
56.000
30
0
0
VERTEX
8
CUT
10
14.450
20
56.000
30
0
0
VERTEX
8
CUT
10
14.450
20
46.000
30
0
0
VERTEX
8
CUT
10
11.700
20
46.000
30
0
0
VERTEX
8
CUT
10
11.700
20
56.000
30
0
0
VERTEX
8
CUT
10
4.570
20
56.000
30
0
0
VERTEX
8
CUT
10
4.167
20
55.947
30
0
0
VERTEX
8
CUT
10
3.787
20
55.790
30
0
0
VERTEX
8
CUT
10
3.461
20
55.539
30
0
0
VERTEX
8
CUT
10
3.210
20
55.213
30
0
0
VERTEX
8
CUT
10
3.053
20
54.833
30
0
0
VERTEX
8
CUT
10
3.000
20
54.430
30
0
0
VERTEX
8
CUT
10
3.000
20
27.420
30
0
0
VERTEX
8
CUT
10
3.053
20
27.017
30
0
0
VERTEX
8
CUT
10
3.210
20
26.637
30
0
0
VERTEX
8
CUT
10
3.461
20
26.311
30
0
0
VERTEX
8
CUT
10
3.787
20
26.060
30
0
0
VERTEX
8
CUT
10
4.167
20
25.903
30
0
0
SEQEND
8
CUT
0
POLYLINE
8
CUT
66
1
70
1
10
0
20
0
30
0
0
VERTEX
8
CUT
10
23.150
20
3.200
30
0
0
VERTEX
8
CUT
10
23.150
20
8.200
30
0
0
VERTEX
8
CUT
10
26.150
20
8.200
30
0
0
VERTEX
8
CUT
10
26.150
20
18.350
30
0
0
VERTEX
8
CUT
10
23.150
20
18.350
30
0
0
VERTEX
8
CUT
10
23.150
20
23.350
30
0
0
VERTEX
8
CUT
10
3.000
20
23.350
30
0
0
VERTEX
8
CUT
10
3.000
20
3.200
30
0
0
SEQEND
8
CUT
0
ENDSEC
0
EOF
